<svg data-tags="Application Programming Interface" xmlns="http://www.w3.org/2000/svg" viewBox="0 0 388 388"><path d="M375.48 149.92h-26.22a160.04 160.04 0 00-13.8-33.2l18.58-18.57a12.52 12.52 0 000-17.7l-45.72-45.72a12.52 12.52 0 00-17.7 0L272.03 53.3a160.04 160.04 0 00-33.2-13.8V13.3A12.52 12.52 0 00226.34.77h-64.66a12.52 12.52 0 00-12.52 12.52V39.5a160.07 160.07 0 00-33.19 13.8L97.4 34.73a12.52 12.52 0 00-17.7 0L33.95 80.45a12.52 12.52 0 000 17.7l18.57 18.58a160.07 160.07 0 00-13.8 33.19H12.53A12.52 12.52 0 000 162.44v64.66a12.52 12.52 0 0012.52 12.52h26.22a160.1 160.1 0 0013.8 33.19l-18.58 18.57a12.52 12.52 0 000 17.7l45.72 45.73a12.52 12.52 0 0017.7 0l18.58-18.58a160.05 160.05 0 0033.2 13.8v26.22a12.52 12.52 0 0012.51 12.52h64.66a12.52 12.52 0 0012.52-12.52v-26.22a160 160 0 0033.19-13.8l18.57 18.58a12.52 12.52 0 0017.7 0l45.73-45.73a12.52 12.52 0 000-17.7l-18.57-18.57a160.05 160.05 0 0013.8-33.2h26.21A12.52 12.52 0 00388 227.1v-64.66a12.52 12.52 0 00-12.52-12.52zm-12.52 64.66h-23.42a12.52 12.52 0 00-12.23 9.81 135.4 135.4 0 01-18.13 43.66 12.52 12.52 0 001.7 15.58l16.6 16.6-28.02 28.02-16.6-16.6a12.52 12.52 0 00-15.58-1.7 135.36 135.36 0 01-43.65 18.13 12.52 12.52 0 00-9.82 12.22v23.42h-39.62V340.3a12.52 12.52 0 00-9.82-12.22 135.4 135.4 0 01-43.65-18.14 12.52 12.52 0 00-15.58 1.7l-16.6 16.6-28.02-28 16.6-16.61a12.52 12.52 0 001.7-15.58 135.4 135.4 0 01-18.13-43.66 12.52 12.52 0 00-12.23-9.81H25.04v-39.62h23.42a12.52 12.52 0 0012.23-9.82 135.38 135.38 0 0118.13-43.65 12.52 12.52 0 00-1.7-15.59l-16.6-16.6 28.01-28.01 16.6 16.6a12.52 12.52 0 0015.6 1.7 135.42 135.42 0 0143.65-18.14 12.52 12.52 0 009.81-12.22V25.8h39.62v23.42a12.52 12.52 0 009.81 12.22 135.39 135.39 0 0143.66 18.14 12.52 12.52 0 0015.58-1.7l16.6-16.6 28.02 28.01-16.6 16.6a12.52 12.52 0 00-1.7 15.59 135.38 135.38 0 0118.13 43.65 12.52 12.52 0 0012.23 9.82h23.42z"/><text transform="translate(101.88 227.44)" font-size="103.32" font-family="ArialRoundedMTBold, Arial Rounded MT Bold" letter-spacing=".04em">API</text></svg>
