<svg data-tags="Join,Combination,Merge,Incorporate,Unify,Puzzle" xmlns="http://www.w3.org/2000/svg" viewBox="0 0 388 388"><path d="M12.3 175.5A12.5 12.5 0 0024.8 163V31a6.2 6.2 0 016.1-6.1h132A6.2 6.2 0 01169 31v34.1a12.5 12.5 0 0019.7 11.4 27.4 27.4 0 0114.7-4.9c13.2 0 24 11 24 24.7a24.4 24.4 0 01-24 24.7A23.5 23.5 0 01189 116a12.5 12.5 0 00-20 11.8 12.5 12.5 0 00-.1 1.8V163a12.5 12.5 0 0025 0v-18a49 49 0 009.4 1c27 0 49-22.3 49-49.7s-22-49.7-49-49.7a46.7 46.7 0 00-9.4 1V31A31.2 31.2 0 00162.8 0H31A31.2 31.2 0 00-.2 31v132a12.5 12.5 0 0012.5 12.5z"/><path d="M357.1.2h-132a12.5 12.5 0 100 25h132a6.2 6.2 0 016.1 6.1v132a6.2 6.2 0 01-6.1 6.1H323a12.5 12.5 0 00-11.3 19.7 27.4 27.4 0 014.8 14.7c0 13.2-11 24-24.6 24a24.4 24.4 0 01-24.7-24 23.5 23.5 0 014.8-14.3 12.5 12.5 0 00.7-14.2 12.5 12.5 0 00-12-8.8h-33.3a12.5 12.5 0 100 25h16.4a48.7 48.7 0 00-1.6 12.3c0 27 22.3 49 49.7 49 27.3 0 49.6-22 49.6-49a46.7 46.7 0 00-1-9.4h16.6a31.2 31.2 0 0031.1-31.1v-132A31.2 31.2 0 00357.1.2z"/><path d="M375.7 212.5a12.5 12.5 0 00-12.5 12.5v132a6.2 6.2 0 01-6.1 6.1h-132a6.2 6.2 0 01-6.1-6.1v-33.1-1a12.5 12.5 0 00-19.7-11.4 27.4 27.4 0 01-14.7 4.9c-13.2 0-24-11-24-24.7a24.4 24.4 0 0124-24.7A23.5 23.5 0 01199 272a12.5 12.5 0 0020-11 12.6 12.6 0 00.1-1.4v-33.3a12.5 12.5 0 00-25 0V243a49 49 0 00-9.4-1c-27 0-49 22.3-49 49.7 0 27.4 22 49.7 49 49.7a46.7 46.7 0 009.4-1V357a31.2 31.2 0 0031.2 31.1H357a31.2 31.2 0 0031.1-31.1V225a12.5 12.5 0 00-12.5-12.5z"/><path d="M162.8 362.8H31a6.2 6.2 0 01-6.1-6.1v-132a6.2 6.2 0 016.1-6.1h33a12.6 12.6 0 001.3 0 12.5 12.5 0 0011.1-20 23.5 23.5 0 01-4.8-14.4c0-13.2 11-24 24.6-24a24.4 24.4 0 0124.7 24 27.4 27.4 0 01-4.9 14.7 12.5 12.5 0 0010.2 19.7h34.5a12.5 12.5 0 100-25h-15.8a46.7 46.7 0 001-9.4c0-27-22.3-49-49.7-49-27.3 0-49.6 22-49.6 49a49 49 0 00.9 9.4H30.9A31.2 31.2 0 00-.2 224.7v132a31.2 31.2 0 0031.1 31.1h132a12.5 12.5 0 000-25z"/></svg>
