<svg data-tags="Join,Combination,Merge,Incorporate,Unify" xmlns="http://www.w3.org/2000/svg" viewBox="0 0 388 388"><path d="M307.084 35.733a34.726 34.726 0 00-9.935 20.124 5.29 5.29 0 01-.092.525c-.054.347-.1.687-.185 1.034-.062.278-.116.548-.193.81-.085.317-.178.657-.278.973-.1.286-.193.564-.301.826-.108.293-.232.571-.34.88-.123.278-.278.556-.401.85-.14.262-.27.5-.417.786-.14.278-.317.548-.494.834-.155.247-.301.471-.463.71-.201.278-.41.564-.618.834-.17.216-.324.432-.502.625-.223.286-.486.548-.733.81-.116.116-.224.255-.332.363-.077.078-.154.124-.224.193a17.13 17.13 0 01-.772.726c-.216.17-.432.355-.648.54-.24.193-.494.356-.749.533a6.748 6.748 0 01-.78.548c-.223.147-.463.278-.679.417-.308.17-.602.355-.903.502-.24.13-.502.223-.733.332-.301.146-.618.293-.919.409-.278.123-.57.2-.864.308-.278.093-.556.186-.826.27-.332.086-.68.17-1.011.24-.247.062-.502.131-.757.17-.332.07-.695.108-1.034.154-.27.023-.518.07-.78.085-.332.039-.656.054-.988.062-.293 0-.571.015-.88 0-.293 0-.594-.023-.888-.023-.34-.031-.671-.039-1.019-.093a1.967 1.967 0 00-.308-.015c-.155-.031-.325-.062-.494-.093-.355-.062-.703-.116-1.05-.2-.263-.047-.533-.132-.787-.186a18.46 18.46 0 01-.989-.293c-.277-.093-.54-.186-.818-.278-.3-.116-.594-.224-.895-.37-.27-.117-.533-.24-.803-.371-.293-.14-.563-.27-.826-.425a19.02 19.02 0 01-.826-.486c-.24-.162-.47-.317-.725-.494a9.695 9.695 0 01-.803-.587c-.224-.162-.448-.34-.664-.525-.263-.216-.517-.47-.787-.71l-56.134-56.133c-.177-.178-.355-.355-.548-.518a21.83 21.83 0 00-2.125-1.725l-.22-.215a21.818 21.818 0 00-27.45 1.899l-51.849 51.85c-.224.223-.455.44-.687.655a18.79 18.79 0 01-25.442-.231c-.07-.07-.147-.116-.224-.193-.085-.085-.17-.155-.247-.232-.108-.108-.193-.208-.3-.316a18.746 18.746 0 01-5.265-10.622 34.63 34.63 0 00-9.896-19.869A34.993 34.993 0 1055.82 90.83a5.29 5.29 0 01.525.093c.347.054.687.1 1.035.185.277.062.548.116.81.193.316.085.656.177.973.278.285.1.563.193.826.3.293.109.57.232.88.34.277.124.555.278.849.402.262.139.501.27.787.417.278.139.548.316.834.494.247.154.47.3.71.463.278.2.563.409.834.617.216.17.432.325.625.502.285.224.548.486.81.733.116.116.255.224.363.332.077.077.124.155.193.224.255.255.486.502.726.772.17.216.355.432.54.648.193.24.355.494.533.75a6.747 6.747 0 01.548.779c.146.224.278.463.416.68.17.308.356.601.502.902.132.24.224.502.332.734.147.3.293.617.41.918.123.278.2.571.308.865.093.278.185.555.27.826.085.332.17.679.24 1.01.061.248.13.503.17.757.069.332.107.695.154 1.035.023.27.07.517.085.78.038.331.054.655.061.987 0 .294.016.572 0 .88 0 .294-.023.595-.023.888-.03.34-.038.672-.092 1.019a1.967 1.967 0 00-.016.309c-.03.154-.062.324-.092.494-.062.355-.116.702-.201 1.05-.046.262-.131.532-.185.787-.093.34-.186.664-.294.988-.092.278-.185.54-.278.818-.115.301-.224.595-.37.896-.116.27-.24.532-.37.802-.14.294-.27.564-.425.826-.155.278-.309.54-.487.826-.162.24-.316.471-.494.726a9.697 9.697 0 01-.586.803c-.162.223-.34.447-.525.663-.216.263-.47.518-.71.788-.116.116-.224.255-.34.37l-56.31 56.311a21.764 21.764 0 00-5.779 16.757l.006.097c.056.62.142 1.235.25 1.85.014.079.023.16.038.24.104.556.238 1.106.386 1.654.036.136.065.272.104.407.14.48.307.953.48 1.425.073.198.136.397.214.593.158.396.343.783.525 1.17.123.263.238.528.372.786.16.306.34.602.516.902.19.327.374.656.583.975.141.215.3.421.45.632.274.388.548.775.85 1.148.104.129.221.25.329.376.064.076.13.149.195.224l-.023.023c.247.278.517.563.78.841.077.093.17.185.255.27l51.262 51.263a18.779 18.779 0 01.093 25.782c-.07.07-.116.146-.2.231-.078.078-.14.17-.225.255-.1.1-.208.178-.316.286a18.781 18.781 0 01-10.614 5.272 34.571 34.571 0 00-19.877 9.888 34.993 34.993 0 1049.488 49.487 34.658 34.658 0 009.934-20.124c.03-.185.054-.347.093-.524a10.053 10.053 0 01.185-1.035c.062-.278.123-.54.193-.81.085-.317.177-.656.286-.965.092-.278.193-.564.293-.834.1-.285.224-.563.347-.872.116-.286.263-.556.394-.857.139-.262.27-.502.409-.78.154-.278.324-.555.502-.84.154-.233.308-.464.455-.703.2-.278.417-.572.633-.834.155-.216.317-.425.494-.633.224-.27.494-.54.733-.81.116-.116.224-.255.325-.356.085-.085.162-.13.231-.2.255-.255.51-.479.764-.718.232-.17.44-.363.657-.548.247-.185.494-.355.748-.533a8.87 8.87 0 01.78-.548c.232-.139.47-.27.687-.41a9.503 9.503 0 01.903-.5c.232-.14.486-.225.726-.34.308-.14.61-.286.918-.41.286-.115.571-.2.865-.308.278-.093.556-.186.826-.255a8.004 8.004 0 011.01-.24c.256-.069.51-.138.757-.185.34-.061.687-.1 1.035-.154.27-.023.525-.062.772-.077.34-.046.671-.054.995-.07.294 0 .58-.007.88 0 .294 0 .587.031.88.031.348.023.68.031 1.027.085a1.967 1.967 0 00.309.016c.154.03.332.07.486.1.355.062.703.116 1.058.193.262.062.525.139.795.193.332.085.664.185.98.286.278.092.533.193.818.277.309.124.595.224.903.379.263.108.533.239.803.37a6.691 6.691 0 01.81.425c.286.146.556.309.834.478.24.162.479.325.726.494.262.186.556.386.803.587.231.17.455.347.664.525.262.216.517.47.787.71.054.054.123.108.185.17l56.35 56.35c.085.084.177.177.27.254a21.816 21.816 0 0026.847 2.748c.309-.185.594-.378.888-.594l58.433-58.434c.124-.123.224-.255.348-.378.247-.263.494-.51.702-.78q.278-.324.533-.671c.2-.247.401-.525.586-.788.178-.254.332-.501.494-.74.17-.279.332-.549.479-.819a8.319 8.319 0 00.425-.826c.13-.27.27-.533.37-.803.147-.3.255-.594.378-.903.093-.278.186-.525.27-.81.116-.317.201-.649.302-.98.054-.27.13-.533.185-.803.077-.34.131-.687.2-1.05.024-.162.07-.332.093-.494a1.92 1.92 0 01.008-.301c.054-.348.07-.687.1-1.027 0-.293.023-.579.023-.872.016-.309 0-.587 0-.88-.015-.34-.023-.672-.061-1.004-.016-.247-.054-.501-.085-.764-.054-.347-.093-.71-.162-1.042-.039-.255-.108-.51-.17-.756a14.82 14.82 0 00-.24-1.012c-.084-.27-.177-.548-.27-.826-.108-.293-.185-.586-.309-.864a8.775 8.775 0 00-.409-.919 7.674 7.674 0 00-.332-.733c-.146-.301-.331-.594-.501-.903-.14-.216-.27-.456-.417-.68a8.397 8.397 0 00-.54-.787c-.17-.247-.348-.501-.54-.74-.178-.21-.364-.425-.541-.65-.24-.27-.463-.524-.718-.779-.062-.062-.123-.139-.2-.216-.109-.108-.24-.224-.356-.34-.27-.239-.532-.501-.81-.733-.201-.17-.417-.324-.625-.486-.263-.216-.564-.425-.842-.625-.24-.163-.463-.31-.702-.471-.278-.17-.564-.348-.842-.487a15.676 15.676 0 00-.787-.416c-.286-.132-.571-.278-.85-.402-.3-.116-.586-.231-.88-.34-.262-.108-.54-.2-.817-.293q-.487-.162-.973-.278c-.27-.085-.533-.13-.818-.2-.34-.078-.687-.132-1.035-.186a5.111 5.111 0 00-.517-.1 34.612 34.612 0 01-20.123-9.935c-.263-.262-.525-.54-.78-.81a34.983 34.983 0 0149.449-49.449c.27.255.548.518.81.78a34.63 34.63 0 019.896 19.869 18.685 18.685 0 005.272 10.614c.108.108.185.216.293.324.078.077.17.139.255.224.077.077.155.139.216.2a18.784 18.784 0 0026.13-.424l38.063-38.063.208.208 15.677-16.094a21.818 21.818 0 00-1.898-27.45c-.163-.192-.34-.37-.518-.547l-51.988-51.988a18.79 18.79 0 01.232-25.443c.07-.07.115-.146.193-.223.085-.085.154-.17.231-.247.108-.109.209-.193.317-.302a18.746 18.746 0 0110.621-5.264 34.63 34.63 0 0019.87-9.896 34.993 34.993 0 00-49.488-49.487z"/></svg>
