<svg data-tags="Shop,Buy,Market,Trade,Bag" xmlns="http://www.w3.org/2000/svg" viewBox="0 0 388 388"><path d="M354.77 95.68a12.535 12.535 0 00-12.51-11.8h-.06l-40.01.19H275.1c.02-.92.04-1.84.04-2.76 0-49.61-22.65-80.42-59.12-80.42a52.543 52.543 0 00-24.61 5.74 53.869 53.869 0 00-24.9-5.74c-19.16 0-34.54 8.55-44.48 24.74-8.39 13.67-12.65 32.4-12.65 55.68 0 .92.02 1.84.03 2.76H39.45a12.53 12.53 0 00-12.53 12.14l-7.91 253.58a12.524 12.524 0 0011.4 12.87l270.71 24.4a10.127 10.127 0 001.1.05c.01 0 .03.01.04.01a9.958 9.958 0 001.09-.06 1.64 1.64 0 00.23-.02c.29-.03.58-.07.86-.12l.27-.06c.28-.05.55-.12.82-.19a2.504 2.504 0 00.26-.07c.28-.08.56-.18.84-.28a1.577 1.577 0 01.2-.07c.33-.13.66-.28.99-.44a.035.035 0 01.02-.01c.32-.16.65-.34.97-.54.08-.05.16-.11.24-.16.19-.12.38-.24.56-.37l54.21-39.32a12.534 12.534 0 005.16-10.89zM226.53 281.79a11.662 11.662 0 01-4.42.89c-.23 0-.45 0-.7-.02l-113.22-6.85a11.297 11.297 0 01-5.1-1.68c-.14-.08-.31-.04-.45-.13a46.189 46.189 0 01-21.07-39.28c0-24.33 18.23-44.1 41.12-45.7a56.346 56.346 0 01107.42 23.81 55.524 55.524 0 01-1.11 8.9c13.78 3.23 24.29 15.04 24.29 29.8 0 15.62-11.75 28.02-26.76 30.26zM216.02 25.96c30.73 0 34.05 38.7 34.05 55.35 0 .92-.02 1.84-.04 2.76h-24.44c.01-.92.03-1.84.03-2.76 0-22.72-4.76-41.48-13.41-55.16a36.265 36.265 0 013.81-.19zm-24.23 14.75c7.56 12.74 8.76 30.63 8.76 40.6q0 1.38-.03 2.76H184q-.03-1.38-.03-2.76c0-17.11 2.7-31.07 7.82-40.6zm-48.39-1.96c5.36-8.73 12.7-12.79 23.11-12.79a32.902 32.902 0 014.65.34c-8.13 13.61-12.26 32.1-12.26 55.01q0 1.38.03 2.76h-24.45q-.03-1.38-.03-2.76c0-18.31 3.09-33.03 8.95-42.56zm171.38 311.26V109.08l15.67-.07 13.09 220.14z"/></svg>
