<svg data-tags="modern care" xmlns="http://www.w3.org/2000/svg" viewBox="0 0 14 14"><path d="M13.49 6.934C12.149 9.673 9.013 10.959 7 13.125 4.987 10.959 1.851 9.673.51 6.934a4.472 4.472 0 01-.12-3.888A3.828 3.828 0 014.125.89 3.794 3.794 0 017 2.81 3.794 3.794 0 019.875.89a3.828 3.828 0 013.735 2.156 4.472 4.472 0 01-.12 3.888zm-3.507-.926a.614.614 0 10-.625-.614.62.62 0 00.625.614zm-.028.272a1.212 1.212 0 00-1.162.86 2.358 2.358 0 01.512 1.068h1.634a.231.231 0 00.233-.229v-.503A1.208 1.208 0 009.955 6.28zm-5.894-.272a.614.614 0 10-.624-.614.62.62 0 00.624.614zm0 .272a1.208 1.208 0 00-1.217 1.196v.503a.231.231 0 00.233.23h1.634a2.358 2.358 0 01.512-1.07 1.212 1.212 0 00-1.162-.859zm4.483 1.343a1.842 1.842 0 00-.276-.309 1.886 1.886 0 00-2.796.309 1.792 1.792 0 00-.299.817 1.752 1.752 0 00-.02.205v.968a.196.196 0 00.197.195h3.316a.196.196 0 00.198-.195v-.968a1.764 1.764 0 00-.021-.204 1.792 1.792 0 00-.3-.818zM7.008 6.509a.957.957 0 10-.974-.957.965.965 0 00.974.957z"/></svg>