<svg data-tags="modern research" xmlns="http://www.w3.org/2000/svg" viewBox="0 0 14 14"><path d="M1.756 4.613a.285.285 0 00-.325-.09L.38 4.912A6.928 6.928 0 018.319.186l.466 1.264-1.015.805a4.77 4.77 0 00-5.331 3.22zM13.942 7A6.943 6.943 0 008.99.35l.405 1.096a.286.286 0 01-.091.324l-.822.652a4.767 4.767 0 013.27 5.3l.823 1.037 1.241-.458a6.967 6.967 0 00.126-1.3zm-1.364 2.37a.279.279 0 01-.099.018.287.287 0 01-.225-.109l-.662-.835a4.775 4.775 0 01-5.369 3.301l-1.065.845.448 1.213a6.946 6.946 0 008.048-4.83zm-7.94 2.9a.286.286 0 00-.09.324l.383 1.035a6.95 6.95 0 01-4.729-8.04l1.233-.455.828 1.043a4.78 4.78 0 003.25 5.4zm-.376-6.22a.65.65 0 10-.65-.65.65.65 0 00.65.65zM3.058 7.505a1.202 1.202 0 012.356-.34 2.394 2.394 0 00-.507 1.077H3.29a.23.23 0 01-.231-.23zM10.486 5.4a.65.65 0 10-.65.65.65.65 0 00.65-.65zM9.189 8.242a2.394 2.394 0 00-.507-1.077 1.202 1.202 0 012.357.34v.507a.23.23 0 01-.231.23zm-.753-.512a1.683 1.683 0 00-.248-.284 1.657 1.657 0 00-2.278 0 1.685 1.685 0 00-.249.284 1.666 1.666 0 00-.27.752l-.007.053a.98.98 0 00-.012.134v.89a.179.179 0 00.18.18h2.995a.179.179 0 00.178-.18v-.89a.983.983 0 00-.012-.134l-.006-.053a1.666 1.666 0 00-.27-.752zM7.93 5.826a.88.88 0 11-.88-.88.88.88 0 01.88.88z"/></svg>