<svg data-tags="marketing,Advertising" xmlns="http://www.w3.org/2000/svg" viewBox="0 0 14 14"><path d="M5.36 6.929a.956.956 0 1 0 .957.956.958.958 0 0 0-.956-.956Z"/><path d="M7 0a7 7 0 0 0-7 7 7 7 0 0 0 7 7 7 7 0 0 0 7-7 7 7 0 0 0-7-7Zm.721 10.205a.92.92 0 0 1-.464.795l-.366-.849a1.693 1.693 0 0 0-3.061 0L3.464 11A.923.923 0 0 1 3 10.205V3.92A.923.923 0 0 1 3.921 3H6.8a.923.923 0 0 1 .921.921Zm1.71-2.134a.426.426 0 0 1-.426.426h-.098a.426.426 0 0 1-.425-.426V5.796a.426.426 0 0 1 .426-.426h.097a.426.426 0 0 1 .426.426ZM11 9.255a.426.426 0 0 1-.426.426h-.098a.426.426 0 0 1-.426-.426V4.613a.426.426 0 0 1 .426-.426h.098a.426.426 0 0 1 .426.426Z"/></svg>