<svg data-tags="tasks,notepad" xmlns="http://www.w3.org/2000/svg" viewBox="0 0 14 14"><path d="M12.834.911l-1.698.01v2.554l-8.263.002v-.003h-.02V.922L1.165.912a.308.308 0 00-.307.306v12.474c0 .17.138.308.307.308h11.668a.308.308 0 00.307-.307V1.218a.308.308 0 00-.307-.307zm-6.867 10.74a.58.58 0 01-.398-.158L3.484 9.532a.58.58 0 11.796-.847l1.674 1.576 4.139-4.139a.58.58 0 11.821.821L6.377 11.48a.579.579 0 01-.41.17z"/><path d="M9.705 2.254h-5.41a.213.213 0 01-.213-.213V.213c0-.118.095-.213.213-.213h5.41c.118 0 .213.095.213.213V2.04a.213.213 0 01-.213.213z"/></svg>