<svg data-deprecated="solid/Webhook.svg"  data-tags="Web Callback,API,Information,Data" xmlns="http://www.w3.org/2000/svg" viewBox="0 0 388 388"><path d="M84.132 249.904a35.81 35.81 0 1027.97 13.471l56.109-93.36a12.475 12.475 0 00-3.906-16.893 60.448 60.448 0 1190.674-32.735 12.476 12.476 0 1023.816 7.438 85.395 85.395 0 10-137.734 38.928l-50.344 83.766a35.956 35.956 0 00-6.585-.615z"/><path d="M364.066 226.66a85.73 85.73 0 00-95.402-19.423l-44.31-80.595a35.796 35.796 0 10-21.865 12.02l50.178 91.268c.041.074.094.138.136.211.08.14.15.283.236.42.13.208.276.397.416.594.078.109.15.222.23.328a12.445 12.445 0 00.98 1.14c.076.08.16.15.238.226q.431.42.896.794c.116.093.233.184.352.273q.492.366 1.013.68c.078.046.153.1.233.145a12.459 12.459 0 001.314.65c.115.049.232.088.348.134q.523.203 1.06.36c.144.042.288.084.435.121a12.534 12.534 0 001.266.253c.06.009.118.024.178.032a12.528 12.528 0 001.433.095c.06 0 .12.011.18.011.105 0 .211-.016.317-.02q.454-.01.908-.055c.17-.017.338-.034.507-.057.349-.05.695-.117 1.04-.196.113-.026.226-.043.34-.072a12.39 12.39 0 001.357-.438c.104-.04.205-.09.308-.134.347-.145.69-.304 1.027-.482.064-.034.13-.056.194-.091.108-.06.205-.13.31-.191.106-.063.217-.115.322-.181a60.448 60.448 0 11-9.053 95.462 12.476 12.476 0 00-17.017 18.247 85.393 85.393 0 00119.895-121.528z"/><path d="M268.989 298.613a35.784 35.784 0 10-.335-24.95l-110.475 1.463a12.476 12.476 0 00-12.309 12.64c.003.255.03.504.048.755-.056.377-.101.758-.123 1.146a60.45 60.45 0 11-76.559-61.64 12.476 12.476 0 00-6.685-24.04 85.392 85.392 0 10107.178 95.94z"/></svg>
