<svg xmlns="http://www.w3.org/2000/svg" viewBox="0 0 122 70"><path opacity=".1" fill="#0828CC" d="M32.5 27.8c0-.6.4-1 1-1h55c.6 0 1 .5 1 1v15c0 .6-.4 1-1 1h-55a1 1 0 01-1-1v-15z"/><path fill="#FFF" fill-opacity=".6" d="M44.4 18.7h1v35h-1zm8.8 37.1c-.4 0-.8-.4-.8-.9s.4-.9.8-.9h9.5c.4 0 .8.4.8.9s-.4.9-.8.9h-9.5zm0-4.3c-.4 0-.8-.4-.8-.9s.4-.9.8-.9h27.7c.4 0 .8.4.8.9s-.4.9-.8.9H53.2zm0-13.1c-.4 0-.8-.4-.8-.9s.4-.9.8-.9h9.5c.4 0 .8.4.8.9s-.4.9-.8.9h-9.5zm0-4.4c-.4 0-.8-.4-.8-.9s.4-.9.8-.9h27.7c.4 0 .8.4.8.9s-.4.9-.8.9H53.2zm0-10.3c-.4 0-.8-.4-.8-.9s.4-.9.8-.9h9.5c.4 0 .8.4.8.9s-.4.9-.8.9h-9.5zm0-4.4c-.4 0-.8-.4-.8-.9s.4-.9.8-.9h27.7c.4 0 .8.4.8.9s-.4.9-.8.9H53.2z"/><path d="M44.4 18.7h1v35h-1zM62.7 54h-9.5c-.4 0-.8.4-.8.9s.4.9.8.9h9.5c.4 0 .8-.4.8-.9s-.4-.9-.8-.9zm18.2-4.3H53.2c-.4 0-.8.4-.8.9s.4.9.8.9h27.7c.4 0 .8-.4.8-.9s-.4-.9-.8-.9zm0-17.5H53.2c-.4 0-.8.4-.8.9s.4.9.8.9h27.7c.4 0 .8-.4.8-.9s-.4-.9-.8-.9zm-27.7 6.2h9.5c.4 0 .8-.4.8-.9s-.4-.9-.8-.9h-9.5c-.4 0-.8.4-.8.9s.4.9.8.9zm0-19.1h27.7c.4 0 .8-.4.8-.9s-.4-.9-.8-.9H53.2c-.4 0-.8.4-.8.9s.4.9.8.9zm0 4.4h9.5c.4 0 .8-.4.8-.9s-.4-.9-.8-.9h-9.5c-.4 0-.8.4-.8.9s.4.9.8.9z" opacity=".5" fill="#0828CC"/><g fill="#0828CC"><path d="M16.1 20.1h-2.5v-2.5c0-.4-.3-.7-.8-.7-.4 0-.7.3-.7.8v2.5H9.6c-.4 0-.7.3-.7.8 0 .4.3.7.8.7h2.5v2.5c0 .4.3.7.8.7.4 0 .7-.3.7-.8v-2.5h2.5c.4 0 .7-.3.7-.8-.1-.4-.4-.7-.8-.7zm-11.3-4H3.6v-1.2c0-.4-.3-.7-.8-.7-.4 0-.7.3-.7.8v1.2H.9c-.4 0-.7.3-.7.8s.3.7.8.7h1.2v1.2c0 .4.3.7.8.7.4 0 .7-.3.7-.8v-1.2h1.2c.4 0 .7-.3.7-.8 0-.3-.3-.7-.8-.7zm116.4 47.8h-2.5v-2.5c0-.4-.3-.7-.8-.7-.4 0-.7.3-.7.8V64h-2.5c-.4 0-.7.3-.7.8 0 .4.3.7.8.7h2.5V68c0 .4.3.7.8.7s.7-.3.7-.8v-2.5h2.5c.4 0 .7-.3.7-.8-.1-.4-.4-.7-.8-.7z"/><circle cx="44.9" cy="19.7" r="2.5"/><circle cx="44.9" cy="35.3" r="2.5"/><circle cx="44.9" cy="52.7" r="2.5"/><path d="M86 6.3H35.8a4 4 0 00-4 4V60a4 4 0 004 4H86a4 4 0 004-4V10.3a4 4 0 00-4-4zM88 60a2 2 0 01-2 2H35.8a2 2 0 01-2-2V10.3c0-1.1.9-2 2-2H86a2 2 0 012 2V60z"/></g></svg>