<svg data-tags="ads, modern ads, launchpad" xmlns="http://www.w3.org/2000/svg" viewBox="0 0 50 50"><path d="M39.42 6.3H25.6a1.5 1.5 0 0 0 0 3h13.83a1.5 1.5 0 1 0 0-3Z"/><circle cx="9.57" cy="7.81" r="1.59"/><circle cx="14.39" cy="7.81" r="1.59"/><circle cx="19.48" cy="7.81" r="1.59"/><path d="M24.85 35.8H4.8V12.98h37.8V24.2a13.24 13.24 0 0 1 1.33.53l.67-.67V3.6a1 1 0 0 0-1-1H3.8l-.07.01a.99.99 0 0 0-.25.06 1 1 0 0 0-.1.03.99.99 0 0 0-.25.17l-.04.03-2.8 2.88a1 1 0 0 0-.29.7V39.7a1 1 0 0 0 1 1h24.33a13.4 13.4 0 0 1-.54-3.75c0-.38.02-.76.06-1.13ZM4.8 4.6h37.8v6.38H4.8Zm33.54 30.75 2.14-2.22a4.27 4.27 0 0 0-2.22-.64 4.44 4.44 0 1 0 4.44 4.45 4.55 4.55 0 0 0-.63-2.3l-2.22 2.22a1.5 1.5 0 0 1-1.51 1.5 1.5 1.5 0 0 1 0-3Z"/><path d="m45.95 30.75-1.9 1.9a7.26 7.26 0 1 1-1.5-1.5l1.9-1.9-.08-.8a10.23 10.23 0 0 0-6.11-1.98 10.47 10.47 0 1 0 10.47 10.47 10.23 10.23 0 0 0-1.98-6.11Z"/><path d="M38.18 36.46a.4.4 0 0 0 .55.56l6.99-6.98 1.58.15 2.7-2.7-2.06-.23-.24-2.06-2.7 2.7.16 1.58ZM23.6 18.38a.3.3 0 0 0-.09-.22l-1.34-1.34a.3.3 0 0 0-.44 0l-1.34 1.34a.3.3 0 0 0-.09.22v9.61h3.3Zm-3.3 12.17a.62.62 0 0 0 .62.62h2.06a.62.62 0 0 0 .62-.62v-1.62h-3.3ZM9.54 16.76a.52.52 0 0 0-.52.52v13.36a.52.52 0 0 0 .52.53h7.76a1.57 1.57 0 0 0 1.57-1.57V18.33a1.57 1.57 0 0 0-1.57-1.57Zm6.75 4.87-1.07 1.04.25 1.46a.13.13 0 0 1-.06.15.12.12 0 0 1-.08.02c-.04 0-.05 0-.07-.02l-1.3-.69-1.33.7a.15.15 0 0 1-.15 0 .13.13 0 0 1-.06-.16l.25-1.46-1.08-1.04a.14.14 0 0 1-.02-.15.1.1 0 0 1 .12-.1l1.46-.23.67-1.32a.13.13 0 0 1 .13-.08.17.17 0 0 1 .14.08l.65 1.32 1.46.23a.14.14 0 0 1 .13.1.2.2 0 0 1-.04.15Zm21.29-3.87h-7.52a1 1 0 0 0 0 2h7.52a1 1 0 0 0 0-2Zm0 3.74h-7.52a1 1 0 0 0 0 2h7.52a1 1 0 1 0 0-2Z"/></svg>