<svg data-tags="Modern Ads, ads, advertising, launchpad" xmlns="http://www.w3.org/2000/svg" viewBox="0 0 50 49.438"><circle cx="30.657" cy="11.846" r="2.113"/><path d="M22.133 40.998H7.107V2.028h36.67v21.439l2-2V1.027a1.003 1.003 0 0 0-1-1H6.107a1.003 1.003 0 0 0-1 1v3.52H.997a.99.99 0 0 0-.75.35.98.98 0 0 0-.24.79l5.11 36.45a1.052 1.052 0 0 0 .2.471.429.429 0 0 0 .11.12.981.981 0 0 0 .54.26.614.614 0 0 0 .14.01l17.16 1.106a14.8 14.8 0 0 1-1.134-3.106Z"/><path d="m45.393 30.43-2.169 2.17a8.27 8.27 0 1 1-1.717-1.717l2.17-2.17-.091-.903a11.652 11.652 0 0 0-6.96-2.26 11.93 11.93 0 1 0 11.93 11.93 11.652 11.652 0 0 0-2.259-6.959Z" fill="#d15aa6"/><path d="m36.717 35.673 2.44-2.53a4.858 4.858 0 0 0-2.53-.724 5.061 5.061 0 1 0 5.06 5.061 5.184 5.184 0 0 0-.722-2.62l-2.53 2.53a1.716 1.716 0 0 1-1.718 1.717 1.717 1.717 0 0 1 0-3.434Z" fill="#d15aa6"/><path d="m44.49 28.985-7.954 7.953a.447.447 0 0 0 .633.633l7.953-7.954 1.808.181 3.072-3.072-2.35-.272-.27-2.35-3.073 3.073Z" fill="#d15aa6"/><path d="M24.49 28.82H12.531a1.43 1.43 0 1 0 0 2.86H22.87a14.896 14.896 0 0 1 1.62-2.86ZM22.097 34.103a1.42 1.42 0 0 0-.324-.04h-9.241a1.43 1.43 0 1 0 0 2.86h9.193a14.879 14.879 0 0 1 .372-2.82Z"/><path d="M36.627 22.55c.31 0 .616.034.924.053.004-.062.019-.121.019-.184V9.116a3.49 3.49 0 0 0-3.49-3.49H17.22a3.322 3.322 0 0 0-3.313 3.33v13.622a3.322 3.322 0 0 0 3.313 3.33h9.99a14.856 14.856 0 0 1 9.417-3.358Zm-14.074-9.47c-1.006.108-2.012 1.894-2.538 2.759l-3.784 6.22a.16.16 0 0 1-.296-.084V8.955a1.288 1.288 0 0 1 1.285-1.3h17.02a1.302 1.302 0 0 1 1.301 1.3v13.107l-.353.11-2.858-4.174c-.49-.693-1.234-1.664-2.011-1.664h-.017c-.778.017-1.521.971-1.995 1.664l-.828 1.116-2.062-3.431c-.617-1.048-1.628-2.738-2.864-2.604Z" fill-rule="evenodd"/></svg>