<svg data-tags="ads, modern ads, launchpad" xmlns="http://www.w3.org/2000/svg" viewBox="0 0 50 50"><path d="M38.26 16.68h-7.68a1.02 1.02 0 1 0 0 2.05h7.68a1.02 1.02 0 0 0 0-2.05Zm0 3.82h-7.68a1.02 1.02 0 1 0 0 2.05h7.68a1.02 1.02 0 0 0 0-2.04ZM40.3 5.42H26.15a1.53 1.53 0 0 0 0 3.06H40.3a1.53 1.53 0 1 0 0-3.06ZM9.79 5.33a1.62 1.62 0 1 0 1.62 1.62A1.62 1.62 0 0 0 9.8 5.33Zm4.91 0a1.62 1.62 0 1 0 1.63 1.62 1.62 1.62 0 0 0-1.62-1.62Zm5.21 0a1.62 1.62 0 1 0 1.62 1.62 1.62 1.62 0 0 0-1.62-1.62Z"/><path d="M24.4 35.58H4.9V12.23h38.65V25.1l.25.1 1.8-1.8V2.65a1.02 1.02 0 0 0-1.03-1.02H3.9l-.07.01a1 1 0 0 0-.26.06.96.96 0 0 0-.1.03 1 1 0 0 0-.26.17l-.04.04L.29 4.87a1.02 1.02 0 0 0-.29.71v33.96a1.02 1.02 0 0 0 1.02 1.02h23.52a13.12 13.12 0 0 1-.13-4.98ZM4.9 3.66h38.65v6.53H4.9Z"/><path d="m45.86 31.35-1.94 1.95a7.42 7.42 0 1 1-1.54-1.54l1.94-1.95-.08-.81A10.46 10.46 0 0 0 38 26.97a10.7 10.7 0 1 0 10.7 10.7 10.45 10.45 0 0 0-2.02-6.24Z"/><path d="m38.08 36.05 2.19-2.27a4.36 4.36 0 0 0-2.27-.65 4.54 4.54 0 1 0 4.54 4.55 4.65 4.65 0 0 0-.65-2.36l-2.27 2.27a1.54 1.54 0 0 1-1.54 1.55 1.54 1.54 0 0 1 0-3.09Z"/><path d="m45.05 30.05-7.13 7.14a.4.4 0 0 0 .56.57l7.14-7.14 1.62.16L50 28.03l-2.1-.25-.25-2.1-2.76 2.75Zm-19.83-4.58H23.5a1.17 1.17 0 0 0-1.24 1.08v4.54h4.19v-4.54a1.16 1.16 0 0 0-1.23-1.08Zm-8-9.21a1.17 1.17 0 0 0-1.24 1.09v13.74h4.19V17.35a1.16 1.16 0 0 0-1.23-1.09Zm-6.28 4.67a1.17 1.17 0 0 0-1.24 1.09v9.07h4.18v-9.07a1.16 1.16 0 0 0-1.22-1.09Z"/></svg>