<svg data-tags="Modern Ads, ads, advertising, launchpad" xmlns="http://www.w3.org/2000/svg" viewBox="0 0 50 49.438"><path d="M22.676 42.79H7.423V2.36h38.05v18.942l2-2V1.36a1.003 1.003 0 0 0-1-1H6.423a1.003 1.003 0 0 0-1 1v3.68h-4.29a.99.99 0 0 0-.75.35.98.98 0 0 0-.24.79l5.29 37.75a1.05 1.05 0 0 0 .2.47.748.748 0 0 0 .12.13 1.046 1.046 0 0 0 .53.25.195.195 0 0 0 .08.01h.06l18.035 1.16a14.909 14.909 0 0 1-1.782-3.16Z"/><path d="m45.257 30.099-2.17 2.169a8.27 8.27 0 1 1-1.716-1.718l2.169-2.169-.09-.903a11.652 11.652 0 0 0-6.96-2.26 11.93 11.93 0 1 0 11.93 11.93 11.652 11.652 0 0 0-2.26-6.96Z" fill="#d15aa6"/><path d="m36.58 35.34 2.44-2.53a4.858 4.858 0 0 0-2.53-.723 5.061 5.061 0 1 0 5.061 5.06 5.184 5.184 0 0 0-.723-2.62l-2.53 2.53a1.716 1.716 0 0 1-1.717 1.718 1.717 1.717 0 0 1 0-3.435Z" fill="#d15aa6"/><path d="M44.353 28.653 36.4 36.606a.447.447 0 1 0 .633.632l7.953-7.953 1.807.18 3.073-3.072-2.35-.271-.27-2.35-3.074 3.073Z" fill="#d15aa6"/><path d="M21.63 28.54h-7.96a1.058 1.058 0 1 0 0 2.115h7.96a1.058 1.058 0 1 0 0-2.115ZM19.07 33.147h-5.4a1.058 1.058 0 1 0 0 2.115h5.4a1.058 1.058 0 1 0 0-2.115ZM29.648 16.479h-1.844a1.26 1.26 0 0 0-1.334 1.153v5.631h4.498v-5.631a1.246 1.246 0 0 0-1.32-1.153ZM20.98 6.775a1.306 1.306 0 0 0-1.382 1.207v15.281h4.658V7.983a1.291 1.291 0 0 0-1.366-1.208ZM13.994 11.971a1.307 1.307 0 0 0-1.382 1.208v10.084h4.658V13.18a1.292 1.292 0 0 0-1.367-1.208Z"/></svg>