<svg data-tags="Modern Ads, ads, advertising, launchpad" xmlns="http://www.w3.org/2000/svg" viewBox="0 0 50 49.438"><path d="M22.574 43.022H2.986a.699.699 0 0 1-.698-.699v-7.955c0-.008.005-.016.005-.024V7.3a.728.728 0 0 1 .098-.015h34.967v15.078a14.778 14.778 0 0 1 2 .268V2.97A2.7 2.7 0 0 0 36.66.273H2.991A2.7 2.7 0 0 0 .293 2.97v31.347c0 .008-.005.015-.005.024v7.982a2.7 2.7 0 0 0 2.698 2.699h20.636a14.867 14.867 0 0 1-1.048-2Z"/><path d="m45.102 30.186-2.168 2.17a8.27 8.27 0 1 1-1.718-1.718l2.17-2.169-.091-.904a11.652 11.652 0 0 0-6.959-2.26 11.93 11.93 0 1 0 11.93 11.93 11.652 11.652 0 0 0-2.26-6.958Z" fill="#d15aa6"/><path d="m36.426 35.428 2.44-2.53a4.858 4.858 0 0 0-2.53-.724 5.061 5.061 0 1 0 5.06 5.061 5.184 5.184 0 0 0-.722-2.62l-2.53 2.53a1.716 1.716 0 0 1-1.718 1.717 1.717 1.717 0 0 1 0-3.434Z" fill="#d15aa6"/><path d="m44.199 28.74-7.953 7.953a.447.447 0 0 0 .632.633l7.953-7.953 1.808.18 3.073-3.072-2.35-.271-.271-2.35-3.073 3.073Z" fill="#d15aa6"/><path d="M19.388 31.625H6.334a1.04 1.04 0 0 0 0 2.082h13.054a1.04 1.04 0 0 0 0-2.082ZM19.388 36.195H6.334a1.04 1.04 0 0 0 0 2.082h13.054a1.04 1.04 0 0 0 0-2.082ZM12.44 26.425l.727-3.239a3.415 3.415 0 0 1 .94-1.773l7.629-7.628v-.734a1.998 1.998 0 0 0-2-1.998H7.293a1.998 1.998 0 0 0-1.999 1.998V25.84a1.998 1.998 0 0 0 2 1.998h5.13a3.54 3.54 0 0 1 .017-1.412ZM28.813 17.753l-9.136 9.136a1.144 1.144 0 0 1-.156.138l-.008.008-1.771.411-1.644.369a.629.629 0 0 1-.732-.732l.362-1.62.382-1.692a.399.399 0 0 1 .119-.237l9.182-9.183a2.312 2.312 0 0 1 3.25.153 2.48 2.48 0 0 1 .75 1.664 2.081 2.081 0 0 1-.598 1.585Z"/></svg>