<svg data-tags="ads, modern ads, launchpad" xmlns="http://www.w3.org/2000/svg" viewBox="0 0 50 49.5"><path d="M37.39 16.46h-16.8a1 1 0 0 0 0 2h16.8a1 1 0 0 0 0-2Zm0 4.19h-16.8a1 1 0 1 0 0 2h16.8a1 1 0 0 0 0-2Z"/><rect width="8.22" height="8.39" x="9.32" y="15.36" rx="1"/><path d="M39.42 6.06H25.6a1.5 1.5 0 0 0 0 3h13.83a1.5 1.5 0 0 0 0-3Z"/><circle cx="9.57" cy="7.56" r="1.59"/><path d="M14.39 5.97a1.59 1.59 0 1 0 1.59 1.59 1.59 1.59 0 0 0-1.6-1.6Zm5.09 0a1.59 1.59 0 1 0 1.59 1.59 1.59 1.59 0 0 0-1.6-1.6Z"/><path d="M24.85 35.56H4.8V12.72h37.8v11.22a13.24 13.24 0 0 1 1.33.53l.67-.67V3.34a1 1 0 0 0-1-1H3.8l-.07.01a.96.96 0 0 0-.6.26l-.04.03-2.8 2.88a1 1 0 0 0-.29.7v33.22a1 1 0 0 0 1 1h24.33a13.4 13.4 0 0 1-.54-3.75c0-.38.02-.76.06-1.13ZM4.8 4.34h37.8v6.38H4.8Zm33.38 31.87a.4.4 0 1 0 .55.56l6.99-6.98 1.58.15 2.7-2.7-2.06-.23-.24-2.06-2.7 2.7.16 1.58Z"/><path d="m38.34 35.1 2.14-2.22a4.26 4.26 0 0 0-2.22-.64 4.44 4.44 0 1 0 4.44 4.45 4.55 4.55 0 0 0-.63-2.3l-2.22 2.22a1.5 1.5 0 0 1-1.51 1.5 1.5 1.5 0 0 1 0-3Z"/><path d="m45.95 30.5-1.9 1.9a7.26 7.26 0 1 1-1.5-1.5l1.9-1.9-.08-.8a10.23 10.23 0 0 0-6.11-1.98 10.47 10.47 0 1 0 10.47 10.47 10.23 10.23 0 0 0-1.98-6.11Zm-16.52-3.96H9.97a1 1 0 1 0 0 2h17.59a13.56 13.56 0 0 1 1.87-2ZM8.97 31.42a1 1 0 0 0 1 1H25.5a13.4 13.4 0 0 1 .86-2H9.97a1 1 0 0 0-1 1Z"/></svg>