<svg data-tags="launchpad, illustration, modern ads" xmlns="http://www.w3.org/2000/svg" viewBox="0 0 50 50"><path d="M37.75 19.6h-7.51a1 1 0 000 2h7.5a1 1 0 100-2zm1.62-13.3H25.55a1.5 1.5 0 100 3h13.82a1.5 1.5 0 000-3z"/><circle cx="9.56" cy="7.8" r="1.59"/><path d="M14.37 6.22a1.59 1.59 0 101.59 1.58 1.59 1.59 0 00-1.6-1.58zm5.08 0a1.59 1.59 0 101.59 1.58 1.59 1.59 0 00-1.59-1.58zm5.4 19.68h-1.68a1.15 1.15 0 00-1.21 1.05v4.44h4.09v-4.44a1.13 1.13 0 00-1.2-1.05zm-7.82-9a1.15 1.15 0 00-1.21 1.06V31.4h4.1V17.96a1.13 1.13 0 00-1.2-1.06zm-6.13 4.57a1.15 1.15 0 00-1.22 1.06v8.86h4.1v-8.86a1.13 1.13 0 00-1.2-1.06z"/><path d="M24.46 35.77H4.8v-22.8h37.75v10.86a3.04 3.04 0 012-.39V3.6a1 1 0 00-1-1H3.8l-.07.02a.98.98 0 00-.25.05.96.96 0 00-.1.04.98.98 0 00-.25.16l-.04.03-2.8 2.88a1 1 0 00-.29.7v33.17a1 1 0 001 1h24.46l-.86-1.83a4 4 0 01-.14-3.04zM4.8 4.6h37.75v6.38H4.8z"/><path d="M42.9 34.21l-3.28-7.05a.84.84 0 00-1.56.07l-.34.95a10.15 10.15 0 01-5.26 5.72l-.54.25 1.98 4.25 1.97 4.25.54-.25a10.15 10.15 0 017.76-.33l.95.34a.84.84 0 001.06-1.15zm-7.69 9.88l-1.9.88.92 1.83a1.04 1.04 0 001.9-.88zm-4.22-9.5l-3.1 1.44a1.19 1.19 0 00-.58 1.57l2.96 6.35a1.19 1.19 0 001.57.58l3.1-1.45zM43.8 26.6l-.48 1.34a.52.52 0 00.96.36l.5-1.35a.52.52 0 10-.97-.35zm5.86 10.87l-1.34-.5a.52.52 0 10-.36.98l1.35.49a.52.52 0 00.35-.97zm-6.34-5.72l-.3.14a.16.16 0 00-.08.22l1.63 3.5a.16.16 0 00.22.08l.3-.14a2.1 2.1 0 10-1.77-3.8zm5.73.21a.52.52 0 00-.43-.93l-1.3.6a.52.52 0 00.44.94zm-19.81-3.44a1 1 0 001 1h3.3a7.26 7.26 0 001.24-2h-4.54a1 1 0 00-1 1zm9.36-4.69a.98.98 0 00-.85-.5h-7.51a1 1 0 000 2h5.51a3.65 3.65 0 012.84-1.5z"/></svg>
