<svg data-tags="Modern Research, research, launchpad" xmlns="http://www.w3.org/2000/svg" viewBox="0 0 50 49.438"><rect x="11.793" y="29.907" width="3.2" height="5.13" rx="1"/><path d="M20.443 25.207h-1.2a.997.997 0 0 0-1 1v7.83a.997.997 0 0 0 1 1h1.2a1.003 1.003 0 0 0 1-1v-7.83a1.003 1.003 0 0 0-1-1ZM12.473 24.427a2.6 2.6 0 0 0 2.36-3.67l3.79-3.8a2.599 2.599 0 0 0 1.24.32 2.55 2.55 0 0 0 1.34-.38l1.51 1.51a2.325 2.325 0 0 0-.1.7 2.595 2.595 0 1 0 5.19 0 2.246 2.246 0 0 0-.07-.58l6.03-6.03a2.669 2.669 0 0 0 .98.19 2.59 2.59 0 1 0-2.6-2.59 2.683 2.683 0 0 0 .19.99l-5.78 5.8a2.674 2.674 0 0 0-1.35-.37 2.601 2.601 0 0 0-1.24.32l-1.57-1.58a2.622 2.622 0 0 0 .06-.57 2.59 2.59 0 1 0-5.18 0 2.326 2.326 0 0 0 .1.7l-4.02 4.02a2.335 2.335 0 0 0-.88-.16 2.59 2.59 0 1 0 0 5.18Z"/><path d="M25.373 44.307a.861.861 0 0 1-.01-.16v-1.36a.66.66 0 0 1 .01-.14 4.717 4.717 0 0 1 .1-1H4.833V2.677h36.67v30.54a5.187 5.187 0 0 1 1 .57c.12.09.24.18.35.28a5.163 5.163 0 0 1 .65-.67V1.677a1.003 1.003 0 0 0-1-1H3.833a.647.647 0 0 0-.2.02.603.603 0 0 0-.19.06.87.87 0 0 0-.31.2l-.01.01-2.72 2.68a.944.944 0 0 0-.3.71v40.95a.997.997 0 0 0 1 1h24.93a3.723 3.723 0 0 1-.49-1 3.678 3.678 0 0 1-.17-1Z"/><path d="M33.783 23.427h-1.2a.997.997 0 0 0-1 1v7.79a1.618 1.618 0 0 1 .22-.01 4.867 4.867 0 0 1 2.98 1.03v-8.81a1.003 1.003 0 0 0-1-1ZM26.903 27.007h-1.2a.997.997 0 0 0-1 1v6.03a.997.997 0 0 0 1 1h1.2a.993.993 0 0 0 .49-.13 4.406 4.406 0 0 1 .5-.77.341.341 0 0 0 .01-.1v-6.03a1.003 1.003 0 0 0-1-1Z"/><path d="M31.798 38.904a1.738 1.738 0 1 0-1.738-1.737 1.74 1.74 0 0 0 1.738 1.737ZM31.81 39.573a3.22 3.22 0 0 0-3.22 3.219v1.359a.61.61 0 0 0 .613.612h4.321a6.257 6.257 0 0 1 1.36-2.873 3.218 3.218 0 0 0-3.075-2.317Z" fill="#f4b942" fill-rule="evenodd"/><path d="M46.69 38.904a1.738 1.738 0 1 0-1.738-1.737 1.738 1.738 0 0 0 1.738 1.737Z" fill="#f4b942"/><path d="M46.678 39.573a3.207 3.207 0 0 0-3.074 2.317 6.425 6.425 0 0 1 1.36 2.873h4.32a.61.61 0 0 0 .613-.612v-1.36a3.213 3.213 0 0 0-3.219-3.218ZM43.682 45.397a4.437 4.437 0 0 0-.724-2.005 4.79 4.79 0 0 0-.668-.757 4.415 4.415 0 0 0-6.081 0 4.79 4.79 0 0 0-.669.757 4.437 4.437 0 0 0-.724 2.005.652.652 0 0 1-.022.145c-.011.122-.022.234-.022.356v2.384a.475.475 0 0 0 .479.479h8.008a.475.475 0 0 0 .479-.48v-2.383a1.844 1.844 0 0 0-.033-.356.652.652 0 0 1-.023-.145ZM39.238 40.664a2.35 2.35 0 1 0-2.35-2.35 2.343 2.343 0 0 0 2.35 2.35Z" fill="#f4b942" fill-rule="evenodd"/></svg>