<svg data-tags="modern research, research, launchpad" xmlns="http://www.w3.org/2000/svg" viewBox="0 0 50 50"><path d="M44.07 39.14a4.24 4.24 0 0 0-.69-1.91 4.3 4.3 0 0 0-.63-.73 4.21 4.21 0 0 0-5.8 0 4.3 4.3 0 0 0-.63.73 4.24 4.24 0 0 0-.68 1.9l-.02.14a2.51 2.51 0 0 0-.03.35v2.26a.45.45 0 0 0 .45.45h7.62a.45.45 0 0 0 .46-.45v-2.26a2.51 2.51 0 0 0-.03-.35l-.02-.13Zm-27.24-11a1.06 1.06 0 0 0 1.06 1.06h6.75a1.06 1.06 0 0 0 0-2.12h-6.75a1.06 1.06 0 0 0-1.06 1.06Z"/><rect width="2.89" height="4.13" x="21.38" y="19.1" rx="1.06"/><rect width="2.89" height="7.16" x="25.54" y="16.08" rx="1.06"/><rect width="2.89" height="6" x="29.69" y="17.24" rx="1.06"/><rect width="2.89" height="8.3" x="34.12" y="14.94" rx="1.06"/><path d="M38.24 6.77a1.67 1.67 0 1 0-3.34 0l.01.16-4.03 4.03a1.53 1.53 0 0 0-.82-.02l-1.4-1.4a1.67 1.67 0 0 0-3.33.1l-3.01 3.02-.09-.01a1.67 1.67 0 1 0 1.67 1.67 1.65 1.65 0 0 0-.02-.23l2.74-2.74a1.53 1.53 0 0 0 .82-.03l1.33 1.33a1.67 1.67 0 0 0 3.32.1l4.32-4.32.16.01a1.67 1.67 0 0 0 1.67-1.67ZM31.12 31.2a1.65 1.65 0 1 0 1.65-1.65 1.65 1.65 0 0 0-1.65 1.65Zm-.82 7.24h4.11a6.09 6.09 0 0 1 1.3-2.74 3.06 3.06 0 0 0-6 .86v1.29a.59.59 0 0 0 .59.59Zm14.99-7.24a1.65 1.65 0 1 0 1.65-1.65 1.65 1.65 0 0 0-1.65 1.65Zm1.64 2.3a3.06 3.06 0 0 0-2.92 2.2 6.09 6.09 0 0 1 1.29 2.74h4.11a.59.59 0 0 0 .59-.6v-1.28a3.07 3.07 0 0 0-3.07-3.06Zm-7.08 1.03a2.24 2.24 0 1 0-2.23-2.23 2.24 2.24 0 0 0 2.23 2.23Zm-21.96-1.45h9.86a6.23 6.23 0 0 1 .48-.63 4.66 4.66 0 0 1-.18-1.25l.02-.24H17.9a1.06 1.06 0 1 0 0 2.12Z"/><path d="M37.16 45.42H4.56V10.77h4.06V40.3a1.06 1.06 0 0 0 1.06 1.06h19.4a3.65 3.65 0 0 1-2.44-3.44v-1.08H13.19V2.19h32.59v24.45a4.6 4.6 0 0 1 1.16-.16 4.72 4.72 0 0 1 .96.1V1.13A1.06 1.06 0 0 0 46.84.07H12.13l-.07.01a1.04 1.04 0 0 0-.3.06l-.06.03a1.05 1.05 0 0 0-.32.2l-2.44 2.4a1.08 1.08 0 0 0-.32.77v5.1H3.5a.73.73 0 0 0-.27.05.4.4 0 0 0-.14.04.92.92 0 0 0-.33.21l-.01.01-2.44 2.4a1.08 1.08 0 0 0-.32.76v36.76a1.06 1.06 0 0 0 1.06 1.06h34.7a1.05 1.05 0 0 0 .74-.3l2.31-2.27.05-.04.1-.1a1.11 1.11 0 0 0 .24-.33s-.01-.01 0-.01a1.05 1.05 0 0 0 .08-.4v-1.1h-2.12Z"/></svg>