<svg data-tags="modern marketing, marketing, launchpad" xmlns="http://www.w3.org/2000/svg" viewBox="0 0 50 49.44"><path d="M39.45 5.83H25.61a1.5 1.5 0 0 0 0 3h13.84a1.5 1.5 0 0 0 0-3Zm-21.8 15.26h7.96a1.5 1.5 0 0 0 0-3h-7.96a1.5 1.5 0 1 0 0 3Z"/><circle cx="9.58" cy="7.33" r="1.59"/><path d="M14.4 5.74A1.6 1.6 0 1 0 16 7.33a1.6 1.6 0 0 0-1.6-1.6Z"/><circle cx="19.5" cy="7.33" r="1.59"/><path d="M17.65 29.52h15.88A7.3 7.3 0 0 0 35 27.08l.21-.56H17.65a1.5 1.5 0 1 0 0 3Zm26.8-3.35a.52.52 0 0 0-.66.31l-.49 1.35a.52.52 0 0 0 .97.35l.5-1.34a.52.52 0 0 0-.32-.67ZM35.18 44l-1.9.89.92 1.84a1.05 1.05 0 0 0 1.9-.89Zm8.12-12.35-.3.14a.16.16 0 0 0-.07.2l1.63 3.52a.16.16 0 0 0 .21.08l.3-.14a2.1 2.1 0 0 0-1.77-3.8Zm5.75.21a.52.52 0 0 0-.43-.94l-1.3.6a.52.52 0 1 0 .43.94Zm.61 5.51-1.35-.49a.52.52 0 1 0-.35.97l1.35.5a.52.52 0 1 0 .35-.98Zm-6.78-3.26-3.28-7.06a.85.85 0 0 0-1.56.06l-.35.95a10.17 10.17 0 0 1-5.27 5.74l-.54.25 1.98 4.26 1.98 4.25.54-.25a10.17 10.17 0 0 1 7.78-.33l.95.35a.85.85 0 0 0 1.06-1.15Zm-11.93.38-3.1 1.44a1.19 1.19 0 0 0-.59 1.58l2.96 6.36a1.19 1.19 0 0 0 1.58.58L34.9 43Zm5.63-18.2a1 1 0 0 0-1.41 0l-2.63 2.63-.77-.8a1 1 0 1 0-1.43 1.41l1.48 1.5v.01a.96.96 0 0 0 .22.14 1.01 1.01 0 0 0 .12.08 1 1 0 0 0 .75 0c.03 0 .05-.04.08-.05a.97.97 0 0 0 .25-.16l3.34-3.35a1 1 0 0 0 0-1.41Z"/><path d="m24.54 35.62.13-.26H11.82v-4.69a2.84 2.84 0 0 0 0-5.31v-3.12a2.85 2.85 0 1 0-2 0v3.12a2.84 2.84 0 0 0 0 5.31v4.69H4.81V12.5h37.83v11.2a3.01 3.01 0 0 1 2-.4V3.12a1 1 0 0 0-1-1H3.81l-.07.01a.99.99 0 0 0-.26.05.97.97 0 0 0-.1.04.98.98 0 0 0-.25.17l-.04.03L.29 5.3A1 1 0 0 0 0 6v33.25a1 1 0 0 0 1 1h24.38l-.7-1.53a4.02 4.02 0 0 1-.14-3.1ZM4.81 4.1h37.83v6.39H4.81Z"/></svg>