<svg data-tags="Modern Marketing, Marketing, launchpad" xmlns="http://www.w3.org/2000/svg" viewBox="0 0 50 49.438"><path d="M37.22 21.798a1.518 1.518 0 0 0-1.517-1.518H19.308a1.518 1.518 0 1 0 0 3.035h16.395a1.518 1.518 0 0 0 1.517-1.517ZM19.308 13.643h5.305a1.518 1.518 0 0 0 0-3.035h-5.305a1.518 1.518 0 1 0 0 3.035ZM37.097 8.555a1.011 1.011 0 0 0-1.43 0l-3.368 3.367-1.097-1.116a1.012 1.012 0 0 0-1.442 1.42l1.812 1.842.004.002.002.004a.964.964 0 0 0 .202.134.938.938 0 0 0 .892.088 1.04 1.04 0 0 0 .108-.07.976.976 0 0 0 .223-.146l.002-.004.004-.002 4.088-4.089a1.011 1.011 0 0 0 0-1.43Z"/><path d="M13.41 41.51v-7.575a2.868 2.868 0 0 0 0-5.377v-4.072a2.868 2.868 0 0 0 0-5.378v-4.293a2.881 2.881 0 1 0-2.023 0v4.294a2.868 2.868 0 0 0 0 5.377v4.072a2.868 2.868 0 0 0 0 5.377v7.575h-6.27V2.084h37.1v23.413a3.39 3.39 0 0 1 1.663-.443 3.438 3.438 0 0 1 .36.031V1.073A1.011 1.011 0 0 0 43.228.06H4.106c-.023 0-.043.012-.065.013a1.01 1.01 0 0 0-.26.052.982.982 0 0 0-.1.035 1.002 1.002 0 0 0-.284.19l-.006.005-.001.002L.636 3.062a1.01 1.01 0 0 0-.303.722v41.43a1.011 1.011 0 0 0 1.011 1.01h25.293l-2.191-4.714Z"/><path d="m30.398 36.384-3.143 1.461a1.202 1.202 0 0 0-.583 1.597l2.991 6.433a1.202 1.202 0 0 0 1.597.584l3.142-1.461ZM44.06 27.976a.522.522 0 0 0-.67.312l-.498 1.362a.522.522 0 0 0 .981.358l.498-1.362a.522.522 0 0 0-.312-.67ZM34.677 46.012l-1.92.893.928 1.86a1.058 1.058 0 1 0 1.919-.893ZM42.893 33.513l-.3.14a.162.162 0 0 0-.079.216l1.651 3.551a.163.163 0 0 0 .216.079l.3-.14a2.12 2.12 0 0 0-1.788-3.846ZM49.324 39.305l-1.362-.497a.522.522 0 1 0-.358.981l1.362.498a.522.522 0 0 0 .358-.982ZM48.709 33.725a.522.522 0 0 0-.44-.948l-1.316.612a.522.522 0 0 0 .44.947ZM42.468 36.007l-3.322-7.146a.856.856 0 0 0-1.58.067l-.35.958a10.292 10.292 0 0 1-5.328 5.802l-.544.253 2.002 4.307 2.003 4.307.544-.254a10.292 10.292 0 0 1 7.87-.334l.958.35a.856.856 0 0 0 1.07-1.165Z" fill="#6ac96e"/><path d="M17.79 31.247a1.518 1.518 0 0 0 1.518 1.517h11.936a7.32 7.32 0 0 0 2.886-3.035H19.308a1.518 1.518 0 0 0-1.518 1.518Z"/></svg>