<svg xmlns="http://www.w3.org/2000/svg" data-tags="Loading state" viewBox="0 0 200 93"><path d="M10.5 49h-1v2.5H7v1h2.5V55h1v-2.5H13v-1h-2.5zm187 16.5V63h-1v2.5H194v1h2.5V69h1v-2.5h2.5v-1zm-194-35a3 3 0 100 6 3 3 0 000-6zm0 5a2 2 0 110-4 2 2 0 010 4zm188 39a3 3 0 100 6 3 3 0 000-6zm0 5a2 2 0 110-4 2 2 0 010 4zm-88.5-47a4.5 4.5 0 00-4.5 4.5c-3.6 1-6 3.2-8.2 5.2a20.3 20.3 0 01-10 5.8 4.5 4.5 0 00-8.7.2c-7-1-11.5-4.5-14.2-7.4a4.5 4.5 0 002.1-3.8 4.5 4.5 0 10-4.5 4.5l1.5-.3c2.7 3.1 7.6 7 15 8a4.5 4.5 0 009-.2c5-1 7.7-3.6 10.5-6 2.2-2 4.4-4 7.6-5a4.5 4.5 0 104.4-5.5zM51.5 37a3.5 3.5 0 117 0 3.5 3.5 0 01-7 0zM76 52.5a3.5 3.5 0 110-7 3.5 3.5 0 010 7zm27-12a3.5 3.5 0 110-7 3.5 3.5 0 010 7z"/><path d="M135 49.6a61.1 61.1 0 00-28.5-12.4 3.5 3.5 0 01-3.5 3.3 3.5 3.5 0 01-3.4-3c-7 2.1-11 9.7-20.1 11.5a3.5 3.5 0 01-3.5 3.5 3.5 3.5 0 01-3.5-3.3A21.5 21.5 0 0156.7 40a3.5 3.5 0 01-1.7.5v47h92V65.8a35.7 35.7 0 00-12-16.2z" opacity=".6"/><path d="M44 87.5h112v1H44zm70-48.7l-.2 1 3.8 1 .3-1a51.8 51.8 0 00-3.9-1zm-7.2-1.3l-.1 1c1.3.1 1.9.3 3.2.5l.1-1c-1.3-.2-1.9-.4-3.2-.5zm14.9 3.7l-.4 1a46.1 46.1 0 013.6 1.6l.4-.9a47.1 47.1 0 00-3.6-1.7zM145 62.7l-.8.4a41 41 0 011.6 3.6l1-.4a42 42 0 00-1.8-3.6zm-4.3-6.9l-.8.7a46.5 46.5 0 012.3 3.2l.8-.5a47.5 47.5 0 00-2.3-3.4zm-2.6-3a46.5 46.5 0 00-2.9-3l-.6.8a45.6 45.6 0 012.8 2.8l.7-.7zm-9.3-7.8l-.5.8a44.3 44.3 0 013.2 2.3l.7-.8a45.4 45.4 0 00-3.4-2.3z" opacity=".5"/></svg>