<svg xmlns="http://www.w3.org/2000/svg" viewBox="0 0 668 304" data-tags="preview"><path opacity=".1" fill-rule="evenodd" clip-rule="evenodd" fill="#9E81EB" d="M52 48l95 76 92-55 114 100 94-27 57 63 67-2 55 49H52V48z"/><path fill="#9E81EB" d="M625.7 252.4l-54.9-48.9-67 2-.2-.2-56.8-62.7-93.9 27-.2-.2-113.8-99.8-91.9 55-95.3-76.2.6-.8 94.7 75.8 92.1-55 .2.2 113.8 99.8 94.1-27 .2.3 56.8 62.8 67-2 .1.1 55 49-.6.8z"/><path fill="#A9A9B2" d="M291 245l2.5 5 .5 1 .5-1 2.5-5h-2.5V124h2.5l-3-6-3 6h2.5v121H291zm-10.5-66.9l-4.5 3-4.1-2.7v1.1l3.4 2.1-3.4 2.1v1.1l4.1-2.7 4.5 2.8v-1.1l-3.8-2.3 3.8-2.3v-1.1zM274 170c.6 0 1.1-.2 1.5-.5s.7-.9 1-1.7l.5-1.3c.1-.3.3-.5.5-.6l.7-.2c.5 0 .8.2 1.1.5.3.3.4.8.4 1.5l-.1 1.2-.4 1.1h1c.3-.5.4-1.3.4-2.3 0-.9-.1-1.7-.6-2.2s-1-.8-1.8-.8c-.6 0-1.2 0-1.5.4s-.7 1-1 1.9l-.5 1.2c-.1.3-.3.5-.5.6l-.7.2c-.4 0-.7-.1-.9-.4-.2-.3-.3-.7-.3-1.2 0-.7.1-1.4.4-2.1l-.9-.3c-.3.7-.5 1.4-.5 2.3 0 .8.2 1.5.6 2s.9.7 1.6.7zm-1.3 32.3h-.8v5.6h.9v-4.4l6.9 4.5h.8v-5.9h-.9v4.7l-6.9-4.5zm7.8-14.3v-1l-8.6 3.4v.8l8.6 3.4v-1l-2.7-1.1v-3.4l2.7-1.1zm-3.6 4.2l-2.7-1-1.2-.4 1.2-.4 2.7-1v2.8zm-5-18.3h8.6v1h-8.6v-1z"/></svg>