<svg xmlns="http://www.w3.org/2000/svg" data-tags="error state" viewBox="0 0 200 93"><path d="M130.4 33l-16.6 28.7-11.6-9.4a4 4 0 01-2.2.7 4 4 0 01-1.5-.3L86.4 72.8A4 4 0 0188 76a4 4 0 11-8 0c0-.7.2-1.4.6-2L70 62.4a4 4 0 01-2 .6 4 4 0 01-2.7-1L47 89.7l105-.2V67.4L130.4 33z"/><g opacity=".5"><path d="M180 .5H20A2.5 2.5 0 0017.5 3v90h1V3c0-.8.7-1.5 1.5-1.5h160c.8 0 1.5.7 1.5 1.5v88h1V3A2.5 2.5 0 00180 .5z"/><path d="M124.8 41.3l2-3.5.8.5-2 3.5zm-4 7l2-3.5.9.5-2 3.5zm-7.7 14l2-3.5.8.5-2 3.4zm3.9-7l2-3.5.8.5-2 3.5zM130.7 35l.9-.5L130 32l-1.3 2.3.9.5.4-.8zm2.1 3.4l.9-.5 2 3.4-.8.6zm4.2 6.9l.8-.5 2.1 3.4-.8.5zm8.3 13.6l.9-.5 2 3.4-.8.5zm4.2 6.8l.8-.5 2.1 3.4-.8.6zM141 52.2l.9-.5 2 3.4-.8.5zM44 89.5h112v1H44z"/></g><path d="M10.5 49h-1v2.5H7v1h2.5V55h1v-2.5H13v-1h-2.5zm187 16.5V63h-1v2.5H194v1h2.5V69h1v-2.5h2.5v-1zm-194-35a3 3 0 100 6 3 3 0 000-6zm0 5a2 2 0 110-4 2 2 0 010 4zm188 39a3 3 0 100 6 3 3 0 000-6zm0 5a2 2 0 110-4 2 2 0 010 4zm-87-30.5a4.5 4.5 0 00-9 0c0 1.6.9 3 2.2 3.9L86.3 72.2a4.5 4.5 0 00-2.3-.7c-1.3 0-2.4.5-3.2 1.4l-9.9-10.5a4.5 4.5 0 00-2.9-7.9c-2.5 0-4.5 2-4.5 4.5 0 1 .4 2 1 2.9l-18 27.8 1 .6 17.8-27.7c.7.5 1.7.9 2.7.9.7 0 1.4-.2 2-.5l10.2 10.7a4.5 4.5 0 00-.7 2.3 4.5 4.5 0 009 0 4.5 4.5 0 00-1.4-3.2l11.5-19.5 1.4.2c1 0 1.7-.3 2.5-.7l11.2 9.6.6-.8-11-9.5a4.5 4.5 0 001.2-3.1zM65.8 61.7a3.5 3.5 0 01-.7-.7 3.5 3.5 0 01-.6-2 3.5 3.5 0 017 0 3.5 3.5 0 01-1.3 2.7 3.5 3.5 0 01-.8.5 3.5 3.5 0 01-1.4.3 3.5 3.5 0 01-2.2-.8zM87.5 76a3.5 3.5 0 01-7 0c0-.6.1-1 .4-1.6a3.5 3.5 0 013.1-1.9 3.5 3.5 0 012.6 1.1c.5.7.9 1.5.9 2.4zm9-27a3.5 3.5 0 116 2.5 3.5 3.5 0 01-.4.3 4.4 4.4 0 01-.3.2h-.2a3.5 3.5 0 01-1.6.5c-.4 0-.8 0-1.2-.2a3.5 3.5 0 01-.6-.3 3.5 3.5 0 01-1.7-3z"/><path fill-rule="evenodd" d="M97.4 26.4c1.4-2.3 3.8-2.3 5.2 0l8 13.2 15 24.5c1.4 2.3.3 4.2-2.5 4.2H77c-2.8 0-3.9-1.9-2.4-4.2l22.9-37.7z" clip-rule="evenodd"/><path fill="#FFF" fill-rule="evenodd" d="M126 63.8l-23-37.6c-.8-1.3-1.8-2-3-2s-2.2.7-3 2L74 63.8c-.8 1.3-.9 2.5-.3 3.5.5 1 1.6 1.5 3.2 1.5H123c1.6 0 2.7-.5 3.2-1.5.6-1 .5-2.2-.3-3.5zm-.5 3c-.4.7-1.2 1-2.4 1H77c-1.2 0-2-.3-2.4-1-.3-.6-.2-1.5.4-2.5l23-37.6c.5-1 1.3-1.5 2.1-1.5s1.6.5 2.2 1.5L125 64.3c.6 1 .7 1.9.4 2.5z" clip-rule="evenodd"/><path fill="#FFF" fill-rule="evenodd" d="M98.4 57.3h3.2v3.2h-3.2zm0-17.3h3.2v14.2h-3.2z" clip-rule="evenodd"/></svg>