<svg xmlns="http://www.w3.org/2000/svg" data-tags="error state" viewBox="0 0 200 93"><path d="M10.5 49h-1v2.5H7v1h2.5V55h1v-2.5H13v-1h-2.5zm187 16.5V63h-1v2.5H194v1h2.5V69h1v-2.5h2.5v-1zm-194-35a3 3 0 100 6 3 3 0 000-6zm0 5a2 2 0 110-4 2 2 0 010 4zm188 39a3 3 0 100 6 3 3 0 000-6zm0 5a2 2 0 110-4 2 2 0 010 4zm-88.5-47a4.5 4.5 0 00-4.5 4.5v.09c-3.6.98-5.94 3.08-8.21 5.14C87.69 44.6 85 47 80.38 48a4.5 4.5 0 00-8.8.22c-6.92-1-11.5-4.54-14.17-7.42A4.5 4.5 0 0059.5 37a4.5 4.5 0 10-4.5 4.5c.52 0 1.01-.1 1.47-.27a24.76 24.76 0 0015.05 7.98A4.5 4.5 0 0080.5 49c4.92-1.04 7.74-3.55 10.46-6.02 2.24-2.04 4.4-3.97 7.69-4.9A4.5 4.5 0 10103 32.5zM51.5 37a3.5 3.5 0 117 0 3.5 3.5 0 01-7 0zM76 52.5a3.5 3.5 0 110-7 3.5 3.5 0 010 7zm27-12a3.5 3.5 0 110-7 3.5 3.5 0 010 7z"/><path d="M134.96 49.57c-7.79-5.95-18.42-11.23-28.48-12.35A3.49 3.49 0 01103 40.5a3.5 3.5 0 01-3.45-2.96c-6.97 2.09-10.9 9.68-20.05 11.44V49a3.5 3.5 0 01-3.5 3.5 3.49 3.49 0 01-3.48-3.3c-6.56-.69-11.82-3.75-15.78-9.18a3.46 3.46 0 01-1.74.48v47h92.07V65.75a35.67 35.67 0 00-12.11-16.18z" opacity=".6"/><g opacity=".5"><path d="M180 .5H20A2.5 2.5 0 0017.5 3v90h1V3c0-.82.67-1.5 1.5-1.5h160c.83 0 1.5.68 1.5 1.5v88h1V3A2.5 2.5 0 00180 .5z"/><path d="M44 87.5h112v1H44zm70-48.72l-.23.97c1.3.3 2.58.66 3.81 1.06l.3-.96a51.8 51.8 0 00-3.88-1.07zm-7.23-1.28l-.1 1c1.33.12 1.93.28 3.22.49l.15-.99c-1.3-.2-1.92-.37-3.27-.5zm14.9 3.74l-.38.92a46.13 46.13 0 013.59 1.67l.46-.89a47.11 47.11 0 00-3.66-1.7zm23.38 21.41l-.89.47a40.98 40.98 0 011.68 3.58l.93-.37a42 42 0 00-1.72-3.68zm-4.36-6.8l-.8.6a46.5 46.5 0 012.28 3.24l.84-.53a47.53 47.53 0 00-2.32-3.32zm-2.6-3.1a46.47 46.47 0 00-2.84-2.87l-.68.73a45.56 45.56 0 012.79 2.8l.74-.67zm-9.25-7.8l-.53.85a44.26 44.26 0 013.23 2.27l.61-.8a45.4 45.4 0 00-3.3-2.31z"/></g><path fill-rule="evenodd" d="M97.4 26.45c1.43-2.36 3.77-2.36 5.2-.01l8.02 13.16 14.91 24.45c1.44 2.36.36 4.27-2.39 4.27H76.86c-2.76 0-3.83-1.9-2.39-4.27l22.93-37.6z" clip-rule="evenodd"/><path fill="#FFF" fill-rule="evenodd" d="M125.96 63.8l-22.93-37.62c-.8-1.29-1.86-2-3.03-2-1.16 0-2.24.71-3.03 2L74.04 63.8c-.8 1.3-.93 2.56-.38 3.53.54.97 1.68 1.5 3.2 1.5h46.28c1.52 0 2.66-.53 3.2-1.5.55-.97.41-2.23-.38-3.53zm-.49 3.03c-.36.64-1.19 1-2.33 1H76.86c-1.14 0-1.97-.36-2.33-1-.36-.64-.23-1.54.37-2.52l22.92-37.6c.6-.99 1.38-1.53 2.18-1.53.8 0 1.57.54 2.17 1.52l22.93 37.61c.6.98.73 1.87.37 2.52z" clip-rule="evenodd"/><path fill="#FFF" fill-rule="evenodd" d="M98.84 57.32H102v3.14h-3.15zm0-17.29H102v14.15h-3.15z" clip-rule="evenodd"/></svg>