<svg xmlns="http://www.w3.org/2000/svg" data-tags="preview" viewBox="0 0 668 304"><path fill="#A9A9B2" d="M473 286H195c-2.2 0-4-1.8-4-4V22c0-2.2 1.8-4 4-4h278c2.2 0 4 1.8 4 4v260c0 2.2-1.8 4-4 4zM195 19c-1.7 0-3 1.3-3 3v260c0 1.7 1.3 3 3 3h278c1.7 0 3-1.3 3-3V22c0-1.7-1.3-3-3-3H195z" opacity=".3"/><path fill="#A9A9B2" d="M457 201.5H211c-.3 0-.5-.2-.5-.5s.2-.5.5-.5h246c.3 0 .5.2.5.5s-.2.5-.5.5zm0 38H211c-.3 0-.5-.2-.5-.5s.2-.5.5-.5h246c.3 0 .5.2.5.5s-.2.5-.5.5zm-246-77h246v1H211zm0-56h246v1H211z" opacity=".3"/><path d="M215.1 183.9c-.2.6-.4 1.3-.6 1.9-.1-.6-.3-1.2-.5-1.9l-2-5.5h-1l3.1 8.6h1l3.1-8.6h-1.1l-2 5.5zm6.5-3.4c-.4 0-.8 0-1.1.1s-.7.2-1 .4l.3.7c.7-.3 1.3-.5 1.8-.5s.8.1 1 .4.3.6.3 1.1v.4h-1.1c-2.1.1-3.1.7-3.1 2 0 .6.2 1.1.5 1.4s.9.5 1.5.5c.5 0 .9-.1 1.2-.2s.6-.4 1-.8l.2.9h.7v-4.4c0-.8-.2-1.3-.6-1.6s-.8-.4-1.6-.4zm1.3 3.9c0 .6-.2 1.1-.5 1.4s-.8.5-1.4.5c-.4 0-.7-.1-.9-.3s-.3-.5-.3-.8c0-.4.2-.8.5-1s.9-.3 1.7-.4h1v.6h-.1zm2.9-6.5h1v9.1h-1zm7.4 6.1c0 .8-.2 1.4-.5 1.8s-.8.6-1.5.6c-.5 0-.9-.1-1.1-.4s-.4-.6-.4-1.2v-4.2h-1v4.2c0 .8.2 1.4.6 1.8s1 .6 1.8.6c.5 0 .9-.1 1.2-.3s.6-.4.8-.7h.1l.1.9h.8v-6.4h-1v3.3h.1zm5.5-3.5c-.9 0-1.5.3-2.1.9s-.8 1.4-.8 2.5c0 1 .3 1.8.8 2.4s1.3.9 2.2.9c.4 0 .8 0 1.1-.1s.6-.2 1-.3v-.9c-.7.3-1.4.4-2.1.4-.7 0-1.2-.2-1.5-.6s-.6-1-.6-1.7h4.4v-.6c0-.9-.2-1.6-.7-2.1s-.9-.8-1.7-.8zm-1.8 2.7c.1-.6.2-1.1.5-1.4s.7-.5 1.2-.5.9.2 1.2.5.4.8.4 1.4h-3.3zm11.4 3.8h.9v-8.6h-.8l-2.3 1.8.5.7c.8-.7 1.3-1.1 1.4-1.1s.2-.2.3-.3v7.5zm-33.2 34.9c-.2.6-.4 1.3-.6 1.9-.1-.6-.3-1.2-.5-1.9l-2-5.5h-1l3.1 8.6h1l3.1-8.6h-1.1l-2 5.5zm6.5-3.4c-.4 0-.8 0-1.1.1s-.7.2-1 .4l.3.7c.7-.3 1.3-.5 1.8-.5s.8.1 1 .4.3.6.3 1.1v.4h-1.1c-2.1.1-3.1.7-3.1 2 0 .6.2 1.1.5 1.4s.9.5 1.5.5c.5 0 .9-.1 1.2-.2s.6-.4 1-.8l.2.9h.7v-4.4c0-.8-.2-1.3-.6-1.6s-.8-.4-1.6-.4zm1.3 3.9c0 .6-.2 1.1-.5 1.4s-.8.5-1.4.5c-.4 0-.7-.1-.9-.3s-.3-.5-.3-.8c0-.4.2-.8.5-1s.9-.3 1.7-.4h1v.6h-.1zm2.9-6.5h1v9.1h-1zm7.4 6.1c0 .8-.2 1.4-.5 1.8s-.8.6-1.5.6c-.5 0-.9-.1-1.1-.4s-.4-.6-.4-1.2v-4.2h-1v4.2c0 .8.2 1.4.6 1.8s1 .6 1.8.6c.5 0 .9-.1 1.2-.3s.6-.4.8-.7h.1l.1.9h.8v-6.4h-1v3.3h.1zm5.5-3.5c-.9 0-1.5.3-2.1.9s-.8 1.4-.8 2.5c0 1 .3 1.8.8 2.4s1.3.9 2.2.9c.4 0 .8 0 1.1-.1s.6-.2 1-.3v-.9c-.7.3-1.4.4-2.1.4-.7 0-1.2-.2-1.5-.6s-.6-1-.6-1.7h4.4v-.6c0-.9-.2-1.6-.7-2.1s-.9-.8-1.7-.8zm-1.8 2.7c.1-.6.2-1.1.5-1.4s.7-.5 1.2-.5.9.2 1.2.5.4.8.4 1.4h-3.3zm10 2.9l1.9-1.8c.8-.8 1.4-1.5 1.7-2s.5-1.1.5-1.6c0-.7-.2-1.2-.7-1.7s-1.1-.6-1.9-.6c-.9 0-1.8.3-2.6 1l.5.7c.4-.3.7-.5 1.1-.6s.7-.2 1-.2c.5 0 .9.1 1.2.4s.4.6.4 1.1c0 .3-.1.6-.2.9s-.3.6-.5.9-.7.8-1.4 1.5l-2.3 2.3v.8h5.6v-.9l-4.3-.2zm-31.8 35.8c-.2.6-.4 1.3-.6 1.9-.1-.6-.3-1.2-.5-1.9l-2-5.5h-1l3.1 8.6h1l3.1-8.6h-1.1l-2 5.5zm6.5-3.4c-.4 0-.8 0-1.1.1s-.7.2-1 .4l.3.7c.7-.3 1.3-.5 1.8-.5s.8.1 1 .4.3.6.3 1.1v.4h-1.1c-2.1.1-3.1.7-3.1 2 0 .6.2 1.1.5 1.4s.9.5 1.5.5c.5 0 .9-.1 1.2-.2s.6-.4 1-.8l.2.9h.7v-4.4c0-.8-.2-1.3-.6-1.6s-.8-.4-1.6-.4zm1.3 3.9c0 .6-.2 1.1-.5 1.4s-.8.5-1.4.5c-.4 0-.7-.1-.9-.3s-.3-.5-.3-.8c0-.4.2-.8.5-1s.9-.3 1.7-.4h1v.6h-.1zm2.9-6.5h1v9.1h-1zm7.4 6.1c0 .8-.2 1.4-.5 1.8s-.8.6-1.5.6c-.5 0-.9-.1-1.1-.4s-.4-.6-.4-1.2v-4.2h-1v4.2c0 .8.2 1.4.6 1.8s1 .6 1.8.6c.5 0 .9-.1 1.2-.3s.6-.4.8-.7h.1l.1.9h.8v-6.4h-1v3.3h.1zm5.5-3.5c-.9 0-1.5.3-2.1.9s-.8 1.4-.8 2.5c0 1 .3 1.8.8 2.4s1.3.9 2.2.9c.4 0 .8 0 1.1-.1s.6-.2 1-.3v-.9c-.7.3-1.4.4-2.1.4-.7 0-1.2-.2-1.5-.6s-.6-1-.6-1.7h4.4v-.6c0-.9-.2-1.6-.7-2.1s-.9-.8-1.7-.8zm-1.8 2.7c.1-.6.2-1.1.5-1.4s.7-.5 1.2-.5.9.2 1.2.5.4.8.4 1.4h-3.3zm10 2.9l1.9-1.8c.8-.8 1.4-1.5 1.7-2s.5-1.1.5-1.6c0-.7-.2-1.2-.7-1.7s-1.1-.6-1.9-.6c-.9 0-1.8.3-2.6 1l.5.7c.4-.3.7-.5 1.1-.6s.7-.2 1-.2c.5 0 .9.1 1.2.4s.4.6.4 1.1c0 .3-.1.6-.2.9s-.3.6-.5.9-.7.8-1.4 1.5l-2.3 2.3v.8h5.6v-.9l-4.3-.2zm199.5-83.8c-1 0-1.7.4-2.1 1.1s-.7 1.8-.7 3.3c0 1.4.2 2.5.7 3.3s1.2 1.1 2.1 1.1c1 0 1.7-.4 2.1-1.1s.7-1.8.7-3.3c0-1.4-.2-2.5-.7-3.3s-1.1-1.1-2.1-1.1zm1.4 7.1c-.3.6-.8.9-1.4.9s-1.1-.3-1.4-.9-.4-1.5-.4-2.7.1-2.2.4-2.7.8-.8 1.4-.8 1.1.3 1.4.9.4 1.5.4 2.7-.1 2-.4 2.6zm5.5-7.1c-1 0-1.7.4-2.1 1.1s-.7 1.8-.7 3.3c0 1.4.2 2.5.7 3.3s1.2 1.1 2.1 1.1c1 0 1.7-.4 2.1-1.1s.7-1.8.7-3.3c0-1.4-.2-2.5-.7-3.3s-1.2-1.1-2.1-1.1zm1.4 7.1c-.3.6-.8.9-1.4.9s-1.1-.3-1.4-.9-.4-1.5-.4-2.7.1-2.2.4-2.7.8-.8 1.4-.8 1.1.3 1.4.9.4 1.5.4 2.7-.1 2-.4 2.6zm-8.3 30.9c-1 0-1.7.4-2.1 1.1s-.7 1.8-.7 3.3c0 1.4.2 2.5.7 3.3s1.2 1.1 2.1 1.1c1 0 1.7-.4 2.1-1.1s.7-1.8.7-3.3c0-1.4-.2-2.5-.7-3.3s-1.1-1.1-2.1-1.1zm1.4 7.1c-.3.6-.8.9-1.4.9s-1.1-.3-1.4-.9-.4-1.5-.4-2.7.1-2.2.4-2.7.8-.8 1.4-.8 1.1.3 1.4.9.4 1.5.4 2.7-.1 2-.4 2.6zm5.5-7.1c-1 0-1.7.4-2.1 1.1s-.7 1.8-.7 3.3c0 1.4.2 2.5.7 3.3s1.2 1.1 2.1 1.1c1 0 1.7-.4 2.1-1.1s.7-1.8.7-3.3c0-1.4-.2-2.5-.7-3.3s-1.2-1.1-2.1-1.1zm1.4 7.1c-.3.6-.8.9-1.4.9s-1.1-.3-1.4-.9-.4-1.5-.4-2.7.1-2.2.4-2.7.8-.8 1.4-.8 1.1.3 1.4.9.4 1.5.4 2.7-.1 2-.4 2.6zm-8.3 30.9c-1 0-1.7.4-2.1 1.1-.4.7-.7 1.8-.7 3.3 0 1.4.2 2.5.7 3.3s1.2 1.1 2.1 1.1c1 0 1.7-.4 2.1-1.1s.7-1.8.7-3.3c0-1.4-.2-2.5-.7-3.3s-1.1-1.1-2.1-1.1zm1.4 7.1c-.3.6-.8.9-1.4.9s-1.1-.3-1.4-.9-.4-1.5-.4-2.7.1-2.2.4-2.7.8-.8 1.4-.8 1.1.3 1.4.9c.3.6.4 1.5.4 2.7s-.1 2-.4 2.6zm5.5-7.1c-1 0-1.7.4-2.1 1.1-.4.7-.7 1.8-.7 3.3 0 1.4.2 2.5.7 3.3s1.2 1.1 2.1 1.1c1 0 1.7-.4 2.1-1.1s.7-1.8.7-3.3c0-1.4-.2-2.5-.7-3.3s-1.2-1.1-2.1-1.1zm1.4 7.1c-.3.6-.8.9-1.4.9s-1.1-.3-1.4-.9-.4-1.5-.4-2.7.1-2.2.4-2.7.8-.8 1.4-.8 1.1.3 1.4.9c.3.6.4 1.5.4 2.7s-.1 2-.4 2.6zM265 70.1h-3.8v-7.7h-1V71h4.8zm2.3.6c.4.3 1 .4 1.5.4.9 0 1.7-.3 2.2-.9s.8-1.4.8-2.5c0-1-.3-1.8-.8-2.4s-1.2-.9-2.1-.9-1.7.3-2.2.9-.8 1.4-.8 2.4c0 .7.1 1.3.4 1.8s.6.9 1 1.2zm.1-4.8c.3-.4.8-.6 1.4-.6s1.1.2 1.5.6.5 1 .5 1.9c0 .8-.2 1.5-.5 1.9s-.8.6-1.5.6-1.1-.2-1.4-.6-.5-1.1-.5-1.9.2-1.5.5-1.9zm7.1 1.7c0-.6.2-1.2.6-1.6s.8-.6 1.3-.6c.2 0 .4 0 .7.1l.1-.9c-.2 0-.5-.1-.8-.1-.4 0-.8.1-1.1.3s-.6.5-.9 1l-.1-1.2h-.8V71h1v-3.4zm6.6 3.5c.4 0 .8 0 1.1-.1s.6-.2 1-.3v-.9c-.7.3-1.4.4-2.1.4s-1.2-.2-1.5-.6-.6-1-.6-1.7h4.4v-.6c0-.9-.2-1.6-.7-2.1s-1.1-.8-1.9-.8c-.9 0-1.5.3-2.1.9s-.8 1.4-.8 2.5c0 1 .3 1.8.8 2.4s1.5.9 2.4.9zm-1.5-5.3c.3-.3.7-.5 1.2-.5s.9.2 1.2.5.4.8.4 1.4H279c.1-.6.3-1.1.6-1.4zm13.7 1V71h1v-4.2c0-.8-.2-1.4-.5-1.8s-.9-.6-1.6-.6c-.5 0-.9.1-1.2.3s-.6.5-.8.8c-.3-.7-1-1.1-2-1.1-.4 0-.8.1-1.1.3s-.6.4-.8.7l-.2-.9h-.8V71h1v-3.4c0-.8.1-1.4.4-1.8s.7-.5 1.3-.5c.5 0 .8.1 1 .4s.3.6.3 1.2V71h1v-3.6c0-.7.1-1.3.4-1.6s.7-.5 1.3-.5c.5 0 .8.1 1 .4s.3.6.3 1.1zm6.6-3.3c.2 0 .3-.1.4-.2s.2-.3.2-.5-.1-.4-.2-.5-.2-.2-.4-.2-.3.1-.4.2-.2.3-.2.5.1.4.2.5.2.2.4.2zm-.5 1.1h1V71h-1zm4 6.6c0-.3 0-.7-.1-1.1h.1c.2.3.5.6.9.7s.7.2 1.1.2c.8 0 1.5-.3 2-.9s.7-1.4.7-2.5-.2-1.9-.7-2.4-1.1-.9-2-.9c-.4 0-.8.1-1.1.2s-.6.4-.9.8l-.1-.9h-.8v9.3h1v-2.5h-.1zm0-3.6c0-.8.2-1.4.5-1.7s.8-.5 1.4-.5 1 .2 1.3.6.5 1 .5 1.8-.2 1.4-.5 1.9-.7.7-1.3.7c-.7 0-1.1-.2-1.4-.6s-.5-1-.5-1.9v-.3zm6.7-.1c.3.2.7.4 1.3.6.6.2 1.1.5 1.3.6s.3.4.3.6c0 .3-.1.6-.4.7s-.7.2-1.2.2c-.3 0-.7 0-1-.1s-.7-.2-1-.4v.9c.5.3 1.1.4 2 .4.8 0 1.4-.2 1.9-.5s.7-.8.7-1.4c0-.4-.1-.8-.4-1.1s-.8-.6-1.5-.8c-.6-.2-.9-.4-1.1-.5s-.3-.2-.4-.3-.1-.3-.1-.4c0-.3.1-.5.4-.6s.6-.2 1-.2c.5 0 1.1.1 1.8.4l.3-.8c-.7-.3-1.3-.4-2-.4s-1.3.2-1.8.5-.6.7-.6 1.2c0 .3.1.5.2.8s.1.4.3.6zm9.8.5c0 .8-.2 1.4-.5 1.8s-.8.6-1.5.6c-.5 0-.9-.1-1.1-.4s-.4-.6-.4-1.2v-4.2h-1v4.2c0 .8.2 1.4.6 1.8s1 .6 1.8.6c.5 0 .9-.1 1.2-.3s.6-.4.8-.7h.1l.1.8h.8v-6.4h-1V68h.1zm10.9-2.3c.2.3.3.6.3 1.2V71h1v-4.2c0-.8-.2-1.4-.5-1.8s-.9-.6-1.6-.6c-.5 0-.9.1-1.2.3s-.6.5-.8.8c-.3-.7-1-1.1-2-1.1-.4 0-.8.1-1.1.3s-.6.4-.8.7l-.2-.9h-.8V71h1v-3.4c0-.8.1-1.4.4-1.8s.7-.5 1.3-.5c.5 0 .8.1 1 .4s.3.6.3 1.2V71h1v-3.6c0-.7.1-1.3.4-1.6s.7-.5 1.3-.5c.4 0 .7.1 1 .4zm10.7-1.2v1h-.1c-.5-.6-1.1-.9-2-.9-.8 0-1.5.3-2 .9s-.7 1.4-.7 2.5.2 1.9.7 2.4 1.1.9 2 .9 1.6-.3 2-1h.1l.1.9h.8v-9.1h-1v2.4h.1zm0 3.5c0 .8-.1 1.4-.4 1.7s-.8.5-1.4.5-1-.2-1.3-.6-.5-1-.5-1.9c0-.8.2-1.4.5-1.9s.7-.7 1.3-.7c.7 0 1.1.2 1.5.6s.5 1 .5 1.9v.4h-.2zm7.8 2.2c.5-.6.8-1.4.8-2.5 0-1-.3-1.8-.8-2.4s-1.2-.9-2.1-.9-1.7.3-2.2.9-.8 1.4-.8 2.4c0 .7.1 1.3.4 1.8s.6.9 1 1.2 1 .4 1.5.4c.9 0 1.7-.3 2.2-.9zm-3.6-.5c-.3-.4-.5-1.1-.5-1.9s.2-1.5.5-1.9.8-.6 1.4-.6 1.1.2 1.5.6.5 1 .5 1.9c0 .8-.2 1.5-.5 1.9s-.8.6-1.5.6-1.1-.2-1.4-.6zm6.1-7.8h1V71h-1zm7.8 8.3c.5-.6.8-1.4.8-2.5 0-1-.3-1.8-.8-2.4s-1.2-.9-2.1-.9-1.7.3-2.2.9-.8 1.4-.8 2.4c0 .7.1 1.3.4 1.8s.6.9 1 1.2 1 .4 1.5.4c.9 0 1.6-.3 2.2-.9zm-3.6-.5c-.3-.4-.5-1.1-.5-1.9s.2-1.5.5-1.9.8-.6 1.4-.6 1.1.2 1.5.6.5 1 .5 1.9c0 .8-.2 1.5-.5 1.9s-.8.6-1.5.6-1.1-.2-1.4-.6zm7-2.1c0-.6.2-1.2.6-1.6s.8-.6 1.3-.6c.2 0 .4 0 .7.1l.1-.9c-.2 0-.5-.1-.8-.1-.4 0-.8.1-1.1.3s-.6.5-.9 1l-.1-1.2h-.8V71h1v-3.4zm9.9 2.5c-.3.2-.7.2-1.2.2-.3 0-.7 0-1-.1s-.7-.2-1-.4v.9c.5.3 1.1.4 2 .4.8 0 1.4-.2 1.9-.5s.7-.8.7-1.4c0-.4-.1-.8-.4-1.1s-.8-.6-1.5-.8c-.6-.2-.9-.4-1.1-.5s-.3-.2-.4-.3-.1-.3-.1-.4c0-.3.1-.5.4-.6s.6-.2 1-.2c.5 0 1.1.1 1.8.4l.3-.8c-.7-.3-1.3-.4-2-.4s-1.3.2-1.8.5-.6.7-.6 1.2c0 .3.1.5.2.8s.3.4.6.6.7.4 1.3.6c.6.2 1.1.5 1.3.6s.3.4.3.6l-.7.7zm3.4-7.9c-.2 0-.3.1-.4.2s-.2.3-.2.5.1.4.2.5.2.2.4.2.3-.1.4-.2.2-.3.2-.5-.1-.4-.2-.5-.3-.2-.4-.2zm-.5 2.4h1V71h-1zm3.1 4.6c0 1.3.6 2 1.9 2h.6c.3 0 .4-.1.5-.1v-.7c-.1 0-.2.1-.4.1h-.5c-.3 0-.6-.1-.8-.3s-.3-.5-.3-.9v-3.8h1.9v-.8h-1.9v-1.5h-.6l-.4 1.4-.9.4v.5h.9v3.7zm10 1.7c.3-.1.6-.4 1-.8l.2.9h.7v-4.4c0-.8-.2-1.3-.6-1.6s-.9-.5-1.7-.5c-.4 0-.8 0-1.1.1s-.7.2-1 .4l.3.7c.7-.3 1.3-.5 1.8-.5s.8.1 1 .4.3.6.3 1.1v.4h-1.1c-2.1.1-3.1.7-3.1 2 0 .6.2 1.1.5 1.4s.9.5 1.5.5c.6.1 1 0 1.3-.1zm-2.2-1.7c0-.4.2-.8.5-1s.9-.3 1.7-.4h1v.6c0 .6-.2 1.1-.5 1.4s-.8.5-1.4.5c-.4 0-.7-.1-.9-.3s-.4-.4-.4-.8zm14.3-2.4V71h1v-4.2c0-.8-.2-1.4-.5-1.8s-.9-.6-1.6-.6c-.5 0-.9.1-1.2.3s-.6.5-.8.8c-.3-.7-1-1.1-2-1.1-.4 0-.8.1-1.1.3s-.6.4-.8.7l-.2-.9h-.8V71h1v-3.4c0-.8.1-1.4.4-1.8s.7-.5 1.3-.5c.5 0 .8.1 1 .4s.3.6.3 1.2V71h1v-3.6c0-.7.1-1.3.4-1.6s.7-.5 1.3-.5c.5 0 .8.1 1 .4s.3.6.3 1.1zm7.8 3.9v-.9c-.7.3-1.4.4-2.1.4s-1.2-.2-1.5-.6-.6-1-.6-1.7h4.4v-.6c0-.9-.2-1.6-.7-2.1s-1.1-.8-1.9-.8c-.9 0-1.5.3-2.1.9s-.8 1.4-.8 2.5c0 1 .3 1.8.8 2.4s1.3.9 2.2.9c.4 0 .8 0 1.1-.1s.9-.2 1.2-.3zm-3.6-4.9c.3-.3.7-.5 1.2-.5s.9.2 1.2.5.4.8.4 1.4h-3.4c.2-.6.3-1.1.6-1.4zm7.6 4.5c-.3 0-.6-.1-.8-.3s-.3-.5-.3-.9v-3.8h1.9v-.8h-1.9V63h-.6l-.4 1.4-.9.4v.5h.9v3.8c0 1.3.6 2 1.9 2h.6c.3 0 .4-.1.5-.1v-.7c-.1 0-.2.1-.4.1s-.3-.1-.5-.1zm2.9.8c.2-.5.3-1 .4-1.4l-.1-.1h-1.1c-.1.4-.1.8-.3 1.4s-.2 1.1-.3 1.5h.7c.3-.4.5-.9.7-1.4zm-153.1 16c.7 0 1.2-.1 1.6-.3v-.9c-.6.2-1.1.3-1.6.3-.6 0-1.1-.2-1.4-.6s-.5-1-.5-1.8c0-1.7.7-2.5 2-2.5.2 0 .4 0 .7.1s.5.1.7.2l.3-.8c-.2-.1-.4-.2-.7-.2s-.6-.1-.9-.1c-1 0-1.7.3-2.2.9s-.8 1.4-.8 2.5c0 1 .3 1.9.8 2.4s1.1.8 2 .8zm4.2-.4c.4.3 1 .4 1.5.4.9 0 1.7-.3 2.2-.9s.8-1.4.8-2.5c0-1-.3-1.8-.8-2.4s-1.2-.9-2.1-.9-1.7.3-2.2.9-.8 1.4-.8 2.4c0 .7.1 1.3.4 1.8s.5.9 1 1.2zm.1-4.8c.3-.4.8-.6 1.4-.6s1.1.2 1.5.6.5 1 .5 1.9c0 .8-.2 1.5-.5 1.9s-.8.6-1.5.6-1.1-.2-1.4-.6-.5-1.1-.5-1.9.2-1.5.5-1.9zm7.1 1.7c0-.8.2-1.4.5-1.8s.8-.5 1.5-.5c.5 0 .9.1 1.1.4s.4.6.4 1.2V87h1v-4.2c0-.8-.2-1.4-.6-1.8s-1-.6-1.7-.6c-.4 0-.8.1-1.2.3s-.6.4-.8.7l-.2-.9h-1V87h1v-3.4zm10.5 1.6c0-.4-.1-.8-.4-1.1s-.8-.6-1.5-.8c-.6-.2-.9-.4-1.1-.5s-.3-.2-.4-.3-.1-.3-.1-.4c0-.3.1-.5.4-.6s.6-.2 1-.2c.5 0 1.1.1 1.8.4l.3-.8c-.7-.3-1.3-.4-2-.4s-1.3.2-1.8.5-.6.7-.6 1.2c0 .3.1.5.2.8s.3.4.6.6.7.4 1.3.6c.6.2 1.1.5 1.3.6s.3.4.3.6c0 .3-.1.6-.4.7s-.7.2-1.2.2c-.3 0-.7 0-1-.1s-.7-.2-1-.4v.9c.5.3 1.1.4 2 .4.8 0 1.4-.2 1.9-.5s.4-.8.4-1.4zm6.7-1.9c0-.9-.2-1.6-.7-2.1s-1.1-.8-1.9-.8c-.9 0-1.5.3-2.1.9s-.8 1.4-.8 2.5c0 1 .3 1.8.8 2.4s1.3.9 2.2.9c.4 0 .8 0 1.1-.1s.6-.2 1-.3v-.9c-.7.3-1.4.4-2.1.4s-1.2-.2-1.5-.6-.6-1-.6-1.7h4.4v-.6h.2zm-4.4-.1c.1-.6.2-1.1.5-1.4s.7-.5 1.2-.5.9.2 1.2.5.4.8.4 1.4h-3.3zm8.6 3.9c.7 0 1.2-.1 1.6-.3v-.9c-.6.2-1.1.3-1.6.3-.6 0-1.1-.2-1.4-.6s-.5-1-.5-1.8c0-1.7.7-2.5 2-2.5.2 0 .4 0 .7.1s.5.1.7.2l.3-.8c-.2-.1-.4-.2-.7-.2s-.6-.1-.9-.1c-1 0-1.7.3-2.2.9s-.8 1.4-.8 2.5c0 1 .3 1.9.8 2.4s1.1.8 2 .8zm3.2-1.9c0 1.3.6 2 1.9 2h.6c.3 0 .4-.1.5-.1v-.7c-.1 0-.2.1-.4.1h-.5c-.3 0-.6-.1-.8-.3s-.3-.5-.3-.9v-3.8h1.9v-.8h-1.9v-1.5h-.6l-.4 1.4-.9.4v.5h.9v3.7zm6.9 1.9c.4 0 .8 0 1.1-.1s.6-.2 1-.3v-.9c-.7.3-1.4.4-2.1.4s-1.2-.2-1.5-.6-.6-1-.6-1.7h4.4v-.6c0-.9-.2-1.6-.7-2.1s-1.1-.8-1.9-.8c-.9 0-1.5.3-2.1.9s-.8 1.4-.8 2.5c0 1 .3 1.8.8 2.4s1.4.9 2.4.9zm-1.5-5.3c.3-.3.7-.5 1.2-.5s.9.2 1.2.5.4.8.4 1.4h-3.4c.1-.6.3-1.1.6-1.4zm8 5.3c.2 0 .4-.1.5-.1v-.7c-.1 0-.2.1-.4.1h-.5c-.3 0-.6-.1-.8-.3s-.3-.5-.3-.9v-3.8h1.9v-.8h-1.9v-1.5h-.5l-.4 1.4-.9.4v.5h.9v3.8c0 1.3.6 2 1.9 2 .1-.1.3-.1.5-.1zm6.1-3.1c0 .8-.2 1.4-.5 1.8s-.8.6-1.5.6c-.5 0-.9-.1-1.1-.4s-.4-.6-.4-1.2v-4.2h-1v4.2c0 .8.2 1.4.6 1.8s1 .6 1.8.6c.5 0 .9-.1 1.2-.3s.6-.4.8-.7h.1l.1.9h.8v-6.4h-1V84h.1zm4.8-3.2a3 3 0 00-.9 1l-.1-1.2h-.8V87h1v-3.4c0-.6.2-1.2.6-1.6s.8-.6 1.3-.6c.2 0 .4 0 .7.1l.1-.9c-.2 0-.5-.1-.8-.1-.4 0-.7.1-1.1.3zm8.6-.3c-.4 0-.8 0-1.1.1s-.7.2-1 .4l.3.7c.7-.3 1.3-.5 1.8-.5s.8.1 1 .4.3.6.3 1.1v.4h-1.1c-2.1.1-3.1.7-3.1 2 0 .6.2 1.1.5 1.4s.9.5 1.5.5c.5 0 .9-.1 1.2-.2s.6-.4 1-.8l.2.9h.7v-4.4c0-.8-.2-1.3-.6-1.6s-.8-.4-1.6-.4zm1.3 3.9c0 .6-.2 1.1-.5 1.4s-.8.5-1.4.5c-.4 0-.7-.1-.9-.3s-.3-.5-.3-.8c0-.4.2-.8.5-1s.9-.3 1.7-.4h1v.6h-.1zm7.3-3.9v1h-.1c-.5-.6-1.1-.9-2-.9-.8 0-1.5.3-2 .9s-.7 1.4-.7 2.5.2 1.9.7 2.4 1.1.9 2 .9 1.6-.3 2-1h.1l.1.9h.8v-9.1h-1v2.4h.1zm0 3.5c0 .8-.1 1.4-.4 1.7s-.8.5-1.4.5-1-.2-1.3-.6-.5-1-.5-1.9c0-.8.2-1.4.5-1.9s.7-.7 1.3-.7c.7 0 1.1.2 1.5.6s.5 1 .5 1.9v.4h-.2zm3.5-5.8c-.2 0-.3.1-.4.2s-.2.3-.2.5.1.4.2.5.2.2.4.2.3-.1.4-.2.2-.3.2-.5-.1-.4-.2-.5-.2-.2-.4-.2zm-.5 2.4h1V87h-1zm6.1-.1c-.4 0-.8.1-1.1.2s-.6.4-.9.8l-.1-.9h-.8v9.3h1v-2.6c0-.3 0-.7-.1-1.1h.1c.2.3.5.6.9.7s.7.2 1.1.2c.8 0 1.5-.3 2-.9s.7-1.4.7-2.5-.2-1.9-.7-2.4-1.3-.8-2.1-.8zm1.2 5.1c-.3.4-.7.7-1.3.7-.7 0-1.1-.2-1.4-.6s-.5-1-.5-1.9v-.2c0-.8.2-1.4.5-1.7s.8-.5 1.4-.5 1 .2 1.3.6.5 1 .5 1.8c-.1.8-.2 1.4-.5 1.8zm3.6-7.4c-.2 0-.3.1-.4.2s-.2.3-.2.5.1.4.2.5.2.2.4.2.3-.1.4-.2.2-.3.2-.5-.1-.4-.2-.5-.2-.2-.4-.2zm-.5 2.4h1V87h-1zm5.3 2.7c-.6-.2-.9-.4-1.1-.5s-.3-.2-.4-.3-.1-.3-.1-.4c0-.3.1-.5.4-.6s.6-.2 1-.2c.5 0 1.1.1 1.8.4l.3-.8c-.7-.3-1.3-.4-2-.4s-1.3.2-1.8.5-.6.7-.6 1.2c0 .3.1.5.2.8s.3.4.6.6.7.4 1.3.6c.6.2 1.1.5 1.3.6s.3.4.3.6c0 .3-.1.6-.4.7s-.7.2-1.2.2c-.3 0-.7 0-1-.1s-.7-.2-1-.4v.9c.5.3 1.1.4 2 .4.8 0 1.4-.2 1.9-.5s.7-.8.7-1.4c0-.4-.1-.8-.4-1.1s-1.1-.5-1.8-.8zm6.1-2c.2 0 .4 0 .7.1s.5.1.7.2l.3-.8c-.2-.1-.4-.2-.7-.2s-.6-.1-.9-.1c-1 0-1.7.3-2.2.9s-.8 1.4-.8 2.5c0 1 .3 1.9.8 2.4s1.2.9 2.2.9c.7 0 1.2-.1 1.6-.3V86c-.6.2-1.1.3-1.6.3-.6 0-1.1-.2-1.4-.6s-.5-1-.5-1.8c-.2-1.7.5-2.6 1.8-2.6zm3.6-3.1c-.2 0-.3.1-.4.2s-.2.3-.2.5.1.4.2.5.2.2.4.2.3-.1.4-.2.2-.3.2-.5-.1-.4-.2-.5-.2-.2-.4-.2zm-.5 2.4h1V87h-1zm6.1-.1c-.4 0-.8.1-1.2.3s-.6.4-.8.7l-.2-.9h-.9V87h1v-3.4c0-.8.2-1.4.5-1.8s.8-.5 1.5-.5c.5 0 .9.1 1.1.4s.4.6.4 1.2V87h1v-4.2c0-.8-.2-1.4-.6-1.8s-1.1-.5-1.8-.5zm6.4 0c-.8 0-1.4.2-1.8.6s-.6.9-.6 1.6c0 .4.1.8.3 1.1s.5.6.8.7c-.3.2-.5.3-.6.5s-.2.4-.2.6.1.4.2.5.2.3.4.3c-.5.1-.8.3-1.1.6s-.4.6-.4 1c0 .6.2 1 .7 1.3s1.1.5 1.9.5c1.1 0 1.9-.2 2.5-.6s.9-.9.9-1.6c0-.6-.2-1-.6-1.3s-.9-.4-1.6-.4h-1.1c-.4 0-.6 0-.7-.1s-.2-.2-.2-.4c0-.3.2-.6.6-.8h.5c.8 0 1.3-.2 1.8-.6s.6-.9.6-1.5c0-.3 0-.5-.1-.7s-.2-.4-.3-.5l1.2-.1v-.6h-2.2c-.2-.1-.5-.1-.9-.1zm-.6 6.4h1.2c.6 0 1 .1 1.2.2s.3.4.3.7c0 .4-.2.7-.6 1s-1 .4-1.8.4c-.5 0-1-.1-1.3-.3s-.4-.4-.4-.8.1-.7.4-.9.6-.3 1-.3zm2-4.3c0 .9-.5 1.4-1.4 1.4-.5 0-.8-.1-1.1-.3s-.4-.6-.4-1c0-.5.1-.8.4-1.1s.6-.4 1.1-.4c.9 0 1.4.5 1.4 1.4zm8.7-2.1c-.9 0-1.5.3-2.1.9s-.8 1.4-.8 2.5c0 1 .3 1.8.8 2.4s1.3.9 2.2.9c.4 0 .8 0 1.1-.1s.6-.2 1-.3v-.9c-.7.3-1.4.4-2.1.4s-1.2-.2-1.5-.6-.6-1-.6-1.7h4.4v-.6c0-.9-.2-1.6-.7-2.1s-.9-.8-1.7-.8zm-1.8 2.7c.1-.6.2-1.1.5-1.4s.7-.5 1.2-.5.9.2 1.2.5.4.8.4 1.4h-3.3zm6-5.3h1V87h-1zm3.6.3c-.2 0-.3.1-.4.2s-.2.3-.2.5.1.4.2.5.2.2.4.2.3-.1.4-.2.2-.3.2-.5-.1-.4-.2-.5-.3-.2-.4-.2zm-.5 2.4h1V87h-1zm5.1 5.7c-.3 0-.6-.1-.8-.3s-.3-.5-.3-.9v-3.8h1.9v-.8h-1.9V79h-.6l-.4 1.4-.9.4v.5h.9v3.8c0 1.3.6 2 1.9 2h.6c.3 0 .4-.1.5-.1v-.7c-.1 0-.2.1-.4.1s-.4-.1-.5-.1zm5.2-.7c-.1.4-.1.8-.3 1.4s-.2 1.1-.3 1.5h.7c.2-.4.4-.9.6-1.4s.3-1 .4-1.4l-.1-.1h-1zm8.3-2.3c-.6-.2-.9-.4-1.1-.5s-.3-.2-.4-.3-.1-.3-.1-.4c0-.3.1-.5.4-.6s.6-.2 1-.2c.5 0 1.1.1 1.8.4l.3-.8c-.7-.3-1.3-.4-2-.4s-1.3.2-1.8.5-.6.7-.6 1.2c0 .3.1.5.2.8s.3.4.6.6.7.4 1.3.6c.6.2 1.1.5 1.3.6s.3.4.3.6c0 .3-.1.6-.4.7s-.7.2-1.2.2c-.3 0-.7 0-1-.1s-.7-.2-1-.4v.9c.5.3 1.1.4 2 .4.8 0 1.4-.2 1.9-.5s.7-.8.7-1.4c0-.4-.1-.8-.4-1.1s-1-.5-1.8-.8zm6-2.8c-.9 0-1.5.3-2.1.9s-.8 1.4-.8 2.5c0 1 .3 1.8.8 2.4s1.3.9 2.2.9c.4 0 .8 0 1.1-.1s.6-.2 1-.3v-.9c-.7.3-1.4.4-2.1.4s-1.2-.2-1.5-.6-.6-1-.6-1.7h4.4v-.6c0-.9-.2-1.6-.7-2.1s-.9-.8-1.7-.8zm-1.8 2.7c.1-.6.2-1.1.5-1.4s.7-.5 1.2-.5.9.2 1.2.5.4.8.4 1.4h-3.3zm10.4-2.7v1h-.1c-.5-.6-1.1-.9-2-.9-.8 0-1.5.3-2 .9s-.7 1.4-.7 2.5.2 1.9.7 2.4 1.1.9 2 .9 1.6-.3 2-1h.1l.1.9h.8v-9.1h-1v2.4h.1zm0 3.5c0 .8-.1 1.4-.4 1.7s-.8.5-1.4.5-1-.2-1.3-.6-.5-1-.5-1.9c0-.8.2-1.4.5-1.9s.7-.7 1.3-.7c.7 0 1.1.2 1.5.6s.5 1 .5 1.9v.4h-.2zm10.5-3.5v1h-.1c-.5-.6-1.1-.9-2-.9-.8 0-1.5.3-2 .9s-.7 1.4-.7 2.5.2 1.9.7 2.4 1.1.9 2 .9 1.6-.3 2-1h.1l.1.9h.8v-9.1h-1v2.4h.1zm0 3.5c0 .8-.1 1.4-.4 1.7s-.8.5-1.4.5-1-.2-1.3-.6-.5-1-.5-1.9c0-.8.2-1.4.5-1.9s.7-.7 1.3-.7c.7 0 1.1.2 1.5.6s.5 1 .5 1.9v.4h-.2zm5.6-3.5c-.9 0-1.7.3-2.2.9s-.8 1.4-.8 2.4c0 .7.1 1.3.4 1.8s.6.9 1 1.2 1 .4 1.5.4c.9 0 1.7-.3 2.2-.9s.8-1.4.8-2.5c0-1-.3-1.8-.8-2.4s-1.2-.9-2.1-.9zm1.4 5.2c-.3.4-.8.6-1.5.6s-1.1-.2-1.4-.6-.5-1.1-.5-1.9.2-1.5.5-1.9.8-.6 1.4-.6 1.1.2 1.5.6.5 1 .5 1.9c0 .8-.1 1.4-.5 1.9zm6.9-.1c-.2 0-.4.1-.5.2s-.2.3-.2.6.1.5.2.6.3.2.5.2.4-.1.5-.2.2-.3.2-.6-.1-.5-.2-.6-.3-.2-.5-.2zm3.6.2c-.1-.1-.3-.2-.5-.2s-.4.1-.5.2-.2.3-.2.6.1.5.2.6.3.2.5.2.4-.1.5-.2.2-.3.2-.6 0-.5-.2-.6zm-6.7 1.4c.2 0 .4-.1.5-.2s.2-.3.2-.6-.1-.5-.2-.6-.3-.2-.5-.2-.4.1-.5.2-.2.3-.2.6.1.5.2.6.3.2.5.2zm-239.2 40.4h1c1.1 0 1.9-.2 2.5-.7s.9-1.1.9-2c0-1.7-1.1-2.5-3.2-2.5h-2.2v8.6h1v-3.4zm0-4.3h1.1c.8 0 1.4.1 1.7.4s.6.7.6 1.3c0 .6-.2 1.1-.6 1.4s-1 .4-1.9.4h-.9v-3.5zm8.5 1.2c-.4 0-.8 0-1.1.1s-.7.2-1 .4l.3.7c.7-.3 1.3-.5 1.8-.5s.8.1 1 .4.3.6.3 1.1v.4h-1.1c-2.1.1-3.1.7-3.1 2 0 .6.2 1.1.5 1.4s.9.5 1.5.5c.5 0 .9-.1 1.2-.2s.6-.4 1-.8l.2.9h.7v-4.4c0-.8-.2-1.3-.6-1.6s-.9-.4-1.6-.4zm1.3 3.9c0 .6-.2 1.1-.5 1.4s-.8.5-1.4.5c-.4 0-.7-.1-.9-.3s-.3-.5-.3-.8c0-.4.2-.8.5-1s.9-.3 1.7-.4h1v.6h-.1zm3.9-.8c0-.6.2-1.2.6-1.6s.8-.6 1.3-.6c.2 0 .4 0 .7.1l.1-.9c-.2 0-.5-.1-.8-.1-.4 0-.8.1-1.1.3s-.6.5-.9 1l-.1-1.2h-.8v6.4h1v-3.4zm4 1.6c0 1.3.6 2 1.9 2h.6c.3 0 .4-.1.5-.1v-.7c-.1 0-.2.1-.4.1h-.5c-.3 0-.6-.1-.8-.3s-.3-.5-.3-.9v-3.8h1.9v-.8h-1.9v-1.5h-.6l-.4 1.4-.9.4v.5h.9v3.7zm5.1-1.6c0-.8.2-1.4.5-1.8s.8-.5 1.5-.5c.5 0 .9.1 1.1.4s.4.6.4 1.2v4.2h1v-4.2c0-.8-.2-1.4-.6-1.8s-1-.6-1.7-.6c-.4 0-.8.1-1.2.3s-.6.4-.8.7l-.2-.9h-.8v6.4h1v-3.4h-.2zm11.2 3.1v-.9c-.7.3-1.4.4-2.1.4-.7 0-1.2-.2-1.5-.6s-.6-1-.6-1.7h4.4v-.6c0-.9-.2-1.6-.7-2.1s-1.1-.8-1.9-.8c-.9 0-1.5.3-2.1.9s-.8 1.4-.8 2.5c0 1 .3 1.8.8 2.4s1.3.9 2.2.9c.4 0 .8 0 1.1-.1s.9-.2 1.2-.3zm-3.6-4.9c.3-.3.7-.5 1.2-.5s.9.2 1.2.5.4.8.4 1.4H243c.2-.6.3-1.1.6-1.4zm7.4-1a3 3 0 00-.9 1l-.1-1.2h-.8v6.4h1v-3.4c0-.6.2-1.2.6-1.6s.8-.6 1.3-.6c.2 0 .4 0 .7.1l.1-.9c-.2 0-.5-.1-.8-.1-.4 0-.8.1-1.1.3zm10.9 2.1c.6-.5.9-1.1.9-2 0-1.7-1.1-2.5-3.2-2.5h-2.2v8.6h1v-3.4h1c1 0 1.9-.2 2.5-.7zm-3.6-.1v-3.5h1.1c.8 0 1.4.1 1.7.4s.6.7.6 1.3c0 .6-.2 1.1-.6 1.4s-1 .4-1.9.4h-.9zm9-1.5c.2 0 .4 0 .7.1l.1-.9c-.2 0-.5-.1-.8-.1-.4 0-.8.1-1.1.3s-.6.5-.9 1l-.1-1.2h-.8v6.4h1v-3.4c0-.6.2-1.2.6-1.6s.7-.6 1.3-.6zm4.6-.8c-.9 0-1.7.3-2.2.9s-.8 1.4-.8 2.4c0 .7.1 1.3.4 1.8s.6.9 1 1.2 1 .4 1.5.4c.9 0 1.7-.3 2.2-.9s.8-1.4.8-2.5c0-1-.3-1.8-.8-2.4s-1.2-.9-2.1-.9zm1.4 5.2c-.3.4-.8.6-1.5.6s-1.1-.2-1.4-.6-.5-1.1-.5-1.9c0-.8.2-1.5.5-1.9s.8-.6 1.4-.6 1.1.2 1.5.6.5 1 .5 1.9c0 .8-.1 1.4-.5 1.9zm3.5 1.3h1v-5.7h1.6v-.8h-1.6v-.4c0-.5.1-.9.3-1.2s.4-.4.8-.4c.3 0 .6.1 1 .2l.3-.8c-.5-.1-.9-.2-1.2-.2-1.4 0-2.1.8-2.1 2.4v.4l-1.1.4v.4h1.1v5.7h-.1zm3.8-6.4h1v6.4h-1zm.9-2.2c-.1-.1-.2-.2-.4-.2s-.3.1-.4.2-.2.3-.2.5.1.4.2.5.2.2.4.2.3-.1.4-.2.2-.3.2-.5-.1-.4-.2-.5zm2.2-.5h1v9.1h-1zm5.4 2.6c-.9 0-1.5.3-2.1.9s-.8 1.4-.8 2.5c0 1 .3 1.8.8 2.4s1.3.9 2.2.9c.4 0 .8 0 1.1-.1s.6-.2 1-.3v-.9c-.7.3-1.4.4-2.1.4s-1.2-.2-1.5-.6-.6-1-.6-1.7h4.4v-.6c0-.9-.2-1.6-.7-2.1s-.8-.8-1.7-.8zm-1.7 2.7c.1-.6.2-1.1.5-1.4s.7-.5 1.2-.5.9.2 1.2.5.4.8.4 1.4h-3.3zm9.3-4.8v8.6h4.8v-.9h-3.8v-7.7zm7 0c-.1-.1-.2-.2-.4-.2s-.3.1-.4.2-.2.3-.2.5.1.4.2.5.2.2.4.2.3-.1.4-.2.2-.3.2-.5-.1-.4-.2-.5zm-.9 2.2h1v6.4h-1zm5.2 2.7c-.6-.2-.9-.4-1.1-.5s-.3-.2-.4-.3-.1-.3-.1-.4c0-.3.1-.5.4-.6s.6-.2 1-.2c.5 0 1.1.1 1.8.4l.3-.8c-.7-.3-1.3-.4-2-.4s-1.3.2-1.8.5-.6.7-.6 1.2c0 .3.1.5.2.8s.3.4.6.6.7.4 1.3.6c.6.2 1.1.5 1.3.6s.3.4.3.6c0 .3-.1.6-.4.7s-.7.2-1.2.2c-.3 0-.7 0-1-.1s-.7-.2-1-.4v.9c.5.3 1.1.4 2 .4.8 0 1.4-.2 1.9-.5s.7-.8.7-1.4c0-.4-.1-.8-.4-1.1s-1-.5-1.8-.8zm5.6 3c-.3 0-.6-.1-.8-.3s-.3-.5-.3-.9v-3.8h1.9v-.8h-1.9V123h-.5l-.4 1.4-.9.4v.5h.9v3.8c0 1.3.6 2 1.9 2h.6c.3 0 .4-.1.5-.1v-.7c-.1 0-.2.1-.4.1s-.4-.1-.6-.1zm-99.9 12.5c-.6.4-1.1.9-1.4 1.5s-.5 1.4-.5 2.3c0 1.4.3 2.5 1 3.3s1.7 1.1 2.9 1.1c.9 0 1.6-.1 2.2-.3v-.9c-.8.2-1.4.3-2 .3-1 0-1.7-.3-2.2-.9s-.8-1.5-.8-2.6.3-1.9.8-2.6 1.3-.9 2.2-.9c.6 0 1.3.2 1.9.5l.4-.9c-.7-.3-1.5-.5-2.4-.5-.8.1-1.5.3-2.1.6zm5.9-.9h1v9.1h-1zm3 2.7h1v6.4h-1zm.9-2.2c-.1-.1-.2-.2-.4-.2s-.3.1-.4.2-.2.3-.2.5.1.4.2.5.2.2.4.2.3-.1.4-.2.2-.3.2-.5-.1-.4-.2-.5zm7 8.3v-.9c-.7.3-1.4.4-2.1.4-.7 0-1.2-.2-1.5-.6s-.6-1-.6-1.7h4.4v-.6c0-.9-.2-1.6-.7-2.1s-1.1-.8-1.9-.8c-.9 0-1.5.3-2.1.9s-.8 1.4-.8 2.5c0 1 .3 1.8.8 2.4s1.3.9 2.2.9c.4 0 .8 0 1.1-.1s.8-.2 1.2-.3zm-3.6-4.9c.3-.3.7-.5 1.2-.5s.9.2 1.2.5.4.8.4 1.4h-3.4c.1-.6.3-1.1.6-1.4zm9.9 1v4.2h1v-4.2c0-.8-.2-1.4-.6-1.8s-1-.6-1.7-.6c-.4 0-.8.1-1.2.3s-.6.4-.8.7l-.2-.9h-.8v6.4h1v-3.4c0-.8.2-1.4.5-1.8s.8-.5 1.5-.5c.5 0 .9.1 1.1.4s.2.7.2 1.2zm5 3.5c-.3 0-.6-.1-.8-.3s-.3-.5-.3-.9v-3.8h1.9v-.8h-1.9V143h-.6l-.4 1.4-.9.4v.5h.9v3.8c0 1.3.6 2 1.9 2h.6c.3 0 .4-.1.5-.1v-.7c-.1 0-.2.1-.4.1s-.3-.1-.5-.1zm7.7-7.9h-2.2v8.6h1v-3.4h1c1.1 0 1.9-.2 2.5-.7s.9-1.1.9-2c0-1.6-1.1-2.5-3.2-2.5zm1.6 3.9c-.4.3-1 .4-1.9.4h-.9v-3.5h1.1c.8 0 1.4.1 1.7.4s.6.7.6 1.3c0 .7-.2 1.2-.6 1.4zm5.1-1.5a3 3 0 00-.9 1l-.1-1.2h-.8v6.4h1v-3.4c0-.6.2-1.2.6-1.6s.8-.6 1.3-.6c.2 0 .4 0 .7.1l.1-.9c-.2 0-.5-.1-.8-.1-.4 0-.8.1-1.1.3zm5.7-.3c-.9 0-1.7.3-2.2.9s-.8 1.4-.8 2.4c0 .7.1 1.3.4 1.8s.6.9 1 1.2 1 .4 1.5.4c.9 0 1.7-.3 2.2-.9s.8-1.4.8-2.5c0-1-.3-1.8-.8-2.4s-1.2-.9-2.1-.9zm1.4 5.2c-.3.4-.8.6-1.5.6s-1.1-.2-1.4-.6-.5-1.1-.5-1.9c0-.8.2-1.5.5-1.9s.8-.6 1.4-.6 1.1.2 1.5.6.5 1 .5 1.9c0 .8-.2 1.4-.5 1.9zm7.3-5.1h1v6.4h-1zm-3.8-.4v.4l-1.1.4v.4h1.1v5.7h1v-5.7h1.6v-.8h-1.6v-.4c0-.5.1-.9.3-1.2s.4-.4.8-.4c.3 0 .6.1 1 .2l.3-.8c-.5-.1-.9-.2-1.2-.2-1.5 0-2.2.8-2.2 2.4zm4.3-2c-.2 0-.3.1-.4.2s-.2.3-.2.5.1.4.2.5.2.2.4.2.3-.1.4-.2.2-.3.2-.5-.1-.4-.2-.5-.3-.2-.4-.2zm2.5-.3h1v9.1h-1zm5.5 2.6c-.9 0-1.5.3-2.1.9s-.8 1.4-.8 2.5c0 1 .3 1.8.8 2.4s1.3.9 2.2.9c.4 0 .8 0 1.1-.1s.6-.2 1-.3v-.9c-.7.3-1.4.4-2.1.4s-1.2-.2-1.5-.6-.6-1-.6-1.7h4.4v-.6c0-.9-.2-1.6-.7-2.1s-.9-.8-1.7-.8zm-1.8 2.7c.1-.6.2-1.1.5-1.4s.7-.5 1.2-.5.9.2 1.2.5.4.8.4 1.4h-3.3zm10.3-4.8h-1v8.6h4.8v-.9h-3.8zm5.6-.2c-.2 0-.3.1-.4.2s-.2.3-.2.5.1.4.2.5.2.2.4.2.3-.1.4-.2.2-.3.2-.5-.1-.4-.2-.5-.2-.2-.4-.2zm-.5 2.4h1v6.4h-1zm5.2 2.7c-.6-.2-.9-.4-1.1-.5s-.3-.2-.4-.3-.1-.3-.1-.4c0-.3.1-.5.4-.6s.6-.2 1-.2c.5 0 1.1.1 1.8.4l.3-.8c-.7-.3-1.3-.4-2-.4s-1.3.2-1.8.5-.6.7-.6 1.2c0 .3.1.5.2.8s.3.4.6.6.7.4 1.3.6c.6.2 1.1.5 1.3.6s.3.4.3.6c0 .3-.1.6-.4.7s-.7.2-1.2.2c-.3 0-.7 0-1-.1s-.7-.2-1-.4v.9c.5.3 1.1.4 2 .4.8 0 1.4-.2 1.9-.5s.7-.8.7-1.4c0-.4-.1-.8-.4-1.1s-1-.5-1.8-.8zm5.6 3c-.3 0-.6-.1-.8-.3s-.3-.5-.3-.9v-3.8h1.9v-.8h-1.9V143h-.6l-.4 1.4-.9.4v.5h.9v3.8c0 1.3.6 2 1.9 2h.6c.3 0 .4-.1.5-.1v-.7c-.1 0-.2.1-.4.1s-.3-.1-.5-.1zM266.9 51h-1.1l-4.7-7.2c.1.8.1 1.6.1 2.3V51h-.9v-8.6h1.1l4.7 7.2c0-.1 0-.4-.1-1s0-1 0-1.2v-4.9h.9V51zm6.1 0l-.2-.9c-.3.4-.6.7-1 .8s-.7.2-1.2.2c-.6 0-1.1-.2-1.5-.5s-.5-.8-.5-1.4c0-1.3 1-2 3.1-2h1.1v-.4c0-.5-.1-.9-.3-1.1s-.6-.4-1-.4c-.5 0-1.1.2-1.8.5l-.3-.7c.3-.2.7-.3 1-.4s.8-.1 1.1-.1c.8 0 1.3.2 1.7.5s.6.9.6 1.6V51h-.8zm-2.2-.7c.6 0 1.1-.2 1.4-.5s.5-.8.5-1.4v-.6h-1c-.8 0-1.3.1-1.7.4s-.5.5-.5 1c0 .4.1.6.3.8s.6.3 1 .3zm13.1.7v-4.2c0-.5-.1-.9-.3-1.2s-.6-.4-1-.4c-.6 0-1.1.2-1.3.5s-.4.9-.4 1.6V51h-1v-4.2c0-.5-.1-.9-.3-1.2s-.6-.4-1-.4c-.6 0-1.1.2-1.3.5s-.4 1-.4 1.8V51h-1v-6.4h.8l.2.9c.2-.3.4-.6.8-.7s.7-.3 1.1-.3c1 0 1.7.4 2 1.1.2-.3.5-.6.8-.8s.8-.3 1.2-.3c.7 0 1.3.2 1.6.6s.5 1 .5 1.8V51h-1zm5.7.1c-.9 0-1.7-.3-2.2-.9s-.8-1.4-.8-2.4.3-1.9.8-2.5 1.2-.9 2.1-.9c.8 0 1.4.3 1.9.8s.7 1.2.7 2.1v.7h-4.4c0 .8.2 1.3.6 1.7s.9.6 1.5.6c.7 0 1.4-.1 2.1-.4v.9c-.3.1-.7.3-1 .3h-1.3zm-.2-5.8c-.5 0-.9.2-1.2.5s-.5.8-.5 1.4h3.4c0-.6-.1-1.1-.4-1.4s-.8-.5-1.3-.5z" fill="#A9A9B2"/><path fill="#A9A9B2" fill-rule="evenodd" d="M241.6 39.6c7.2 6.7 7.2 18.1.2 25.1s-18.4 7-25.5 0c-7-7-7-18.5 0-25.5s18.4-7 25.3.4z" clip-rule="evenodd" opacity=".5"/><path fill="#4367B6" fill-rule="evenodd" d="M248 60.2c3 3 3 7.8 0 10.8s-7.8 3-10.8 0-3-7.8 0-10.8c3-2.9 7.8-2.9 10.8 0" clip-rule="evenodd"/><path fill="#FFF" d="M242.6 73.7c-2.2 0-4.2-.8-5.7-2.4-3.2-3.2-3.2-8.3 0-11.5s8.3-3.2 11.5 0a8.2 8.2 0 012.4 5.7c0 2.2-.8 4.2-2.4 5.7a7.73 7.73 0 01-5.8 2.5zm0-15.2c-1.8 0-3.6.7-5 2.1a7.12 7.12 0 000 10.1c1.3 1.3 3.1 2.1 5 2.1s3.7-.7 5-2.1 2.1-3.1 2.1-5-.7-3.7-2.1-5a6.61 6.61 0 00-5-2.2z"/><path fill="#FFF" fill-rule="evenodd" d="M242.6 67.7v-1.2h1.2l.2-1.5h-1.4v-.9c0-.4.1-.7.7-.7h.7v-1.3c-.1 0-.6-.1-1.1-.1-1 0-1.8.7-1.8 2v1H240v1.5h1.2V70h1.4v-2.3z" clip-rule="evenodd"/></svg>