<svg xmlns="http://www.w3.org/2000/svg" data-tags="error state" viewBox="0 0 200 94"><path d="M10.5 49h-1v2.5H7v1h2.5V55h1v-2.5H13v-1h-2.5zm187 16.5V63h-1v2.5H194v1h2.5V69h1v-2.5h2.5v-1zm-194-35a3 3 0 100 6 3 3 0 000-6zm0 5a2 2 0 110-4 2 2 0 010 4zm188 39a3 3 0 100 6 3 3 0 000-6zm0 5a2 2 0 110-4 2 2 0 010 4zm-142-18h87v11h-87v1h88v-13h-88zm0 16h57v11h-57v1h58v-13h-58zm66-32h-66v1h65v10h-65v1h66z"/><g opacity=".5"><path d="M180 .5H20A2.5 2.5 0 0017.5 3v90h1V3c0-.8.7-1.5 1.5-1.5h160c.8 0 1.5.7 1.5 1.5v88h1V3A2.5 2.5 0 00180 .5z"/><path d="M91 42.5h4v1h-4zm-8 0h4v1h-4zm4-12h4v1h-4zm16 0h4v1h-4zm-24 0h4v1h-4zm16 0h4v1h-4zm12 12h4v1h-4zm-8 0h4v1h-4zm-44-12h4v1h-4zm-4 12h4v1h-4zm8 0h4v1h-4zm52-12h4v1h-4zm-60 0h-1.5V14h-1v80h1V31.5H51zm24 12h4v1h-4zm-12-12h4v1h-4zm8 0h4v1h-4zm-4 12h4v1h-4zm83.5 0H147v1h4.5V39h-1zm-7.5-12h4v1h-4zm-20 12h4v1h-4zM150.5 31h1v4h-1zM131 42.5h4v1h-4zm-4-12h4v1h-4zm-12 12h4v1h-4zm24 0h4v1h-4zm-4-12h4v1h-4zm-16 0h4v1h-4zm-59.5-4.3h4v1h-4zm98-9h1v4h-1zm0 9h-2v1h3v-2h-1zm-50 0h4v1h-4zm40 0h4v1h-4zm-96 0h4v1h-4zm88 0h4v1h-4zm-16 0h4v1h-4zm-56 0h4v1h-4zm24 0h4v1h-4zm24 0h4v1h-4zm-16 0h4v1h-4zm-24 0h4v1h-4zm56 0h4v1h-4zm-48 0h4v1h-4z"/></g><path fill-rule="evenodd" d="M97.4 27c1.4-2.4 3.8-2.4 5.2 0l8 13.1 15 24.5c1.4 2.3.3 4.2-2.5 4.2H77c-2.8 0-3.9-1.9-2.4-4.2l22.9-37.7z" clip-rule="evenodd"/><g fill="#FFF" fill-rule="evenodd" clip-rule="evenodd"><path d="M126 64.3l-23-37.6c-.8-1.3-1.8-2-3-2s-2.2.7-3 2L74 64.3c-.8 1.3-.9 2.5-.3 3.5.5 1 1.6 1.5 3.2 1.5H123c1.6 0 2.7-.5 3.2-1.5.6-1 .5-2.2-.3-3.5zm-.5 3c-.4.7-1.2 1-2.4 1H77c-1.2 0-2-.3-2.4-1-.3-.6-.2-1.5.4-2.5l23-37.6c.5-1 1.3-1.5 2.1-1.5s1.6.5 2.2 1.5L125 64.8c.6 1 .7 1.9.4 2.5z"/><path d="M98.8 57.8h3.2V61h-3.2zm0-17.3h3.2v14.2h-3.2z"/></g></svg>