<svg xmlns="http://www.w3.org/2000/svg" viewBox="0 0 668 304" data-tags="preview"><path opacity=".15" fill-rule="evenodd" clip-rule="evenodd" fill="#9E81EB" d="M51.5 61h500v22h-500zm0 46h167v22h-167zm0 46h327v22h-327zm0 46h464v22h-464z"/><path fill="#9E81EB" d="M51.5 61v22h500V61h-500zm499 21h-498V62h498v20zm-332 25h-167v22h167v-22zm-1 21h-165v-20h165v20zm161 25h-327v22h327v-22zm-1 21h-325v-20h325v20zm-326 47h464v-22h-464v22zm1-21h462v20h-462v-20z"/><path fill="#A9A9B2" d="M326.5 276.4h-1.1l-2.1 3.4-2.1-3.4h-1.1l2.7 4.1-2.8 4.5h1.2l2.3-3.8 2.3 3.8h1.1l-3.1-4.5zm10.9 0L334 285h1l1.1-2.7h3.4l1.1 2.7h1l-3.4-8.6h-.8zm-1 5l1-2.7c.2-.4.3-.8.4-1.2.1.5.3.9.4 1.2l1 2.7h-2.8zm13.8-5h-1.1l-2.1 3.4-2.1-3.4h-1.1l2.7 4.1-2.8 4.5h1.1l2.3-3.8 2.3 3.8h1.1l-3-4.5zm3.5 0h1v8.6h-1zm7.9 3.8c-.5-.2-.9-.4-1.2-.5-.3-.1-.5-.3-.6-.5-.1-.2-.2-.4-.2-.7 0-.4.1-.7.4-.9.3-.2.7-.3 1.2-.3.7 0 1.4.1 2.1.4l.3-.9c-.7-.3-1.4-.5-2.3-.5-.8 0-1.5.2-2 .6-.5.4-.7.9-.7 1.6 0 .6.2 1.1.5 1.5.3.4.9.7 1.7 1 .6.2 1 .4 1.3.5.3.1.5.3.6.5.1.2.2.4.2.7 0 .5-.2.8-.5 1.1s-.8.4-1.5.4c-.4 0-.8 0-1.2-.1-.4-.1-.7-.3-1.1-.4v1c.5.3 1.3.4 2.3.4.9 0 1.7-.1 2.2-.6s.8-1 .8-1.8c0-.6 0-1.2-.4-1.5-.4-.3-1-.7-1.9-1zm-341.2-121v1.1l4.3 2.3-4.3 2.3v1.1l5.3-2.9H29v-1h-3.4zm0-10.4l8.6 3.4v-1l-2.7-1.1v-3.4l2.7-1.1v-1l-8.6 3.4v.8zm2.3-.8l2.7-1v2.8l-2.7-1c-.4-.2-.8-.3-1.2-.4.5-.1.9-.3 1.2-.4zm-2.3-12v1.1l3.4 2.1-3.4 2.1v1.1l4.1-2.7 4.5 2.8v-1.1l-3.8-2.3 3.8-2.3v-1.1l-4.5 3zm0-4.5H29v1h-8.6zm6.3-9.2c-.6 0-1.2 0-1.5.4s-.7 1-1 1.9c-.2.5-.4.9-.5 1.2-.1.3-.3.5-.5.6-.2.1-.4.2-.7.2-.4 0-.7-.1-.9-.4-.2-.3-.3-.7-.3-1.2 0-.7.1-1.4.4-2.1l-.9-.3c-.3.7-.5 1.4-.5 2.3 0 .8.2 1.5.6 2 .4.5.9.7 1.6.7.6 0 1.1-.2 1.5-.5.4-.3.7-.9 1-1.7.2-.6.4-1 .5-1.3.1-.3.3-.5.5-.6s.4-.2.7-.2c.5 0 .8.2 1.1.5.3.3.4.8.4 1.5 0 .4 0 .8-.1 1.2-.1.4-.3.7-.4 1.1h1c.3-.5.4-1.3.4-2.3 0-.9-.1-1.7-.6-2.2s-1-.8-1.8-.8zm25.8 129.2V30h-1v222.5H640v-1z"/></svg>