<svg data-tags="modern research, research, launchpad" xmlns="http://www.w3.org/2000/svg" viewBox="0 0 50 50"><path d="M34.55 31.2a1.64 1.64 0 1 0-1.64 1.63 1.64 1.64 0 0 0 1.64-1.64Zm-4.67 5.3v1.28a.58.58 0 0 0 .58.58h4.08a6.04 6.04 0 0 1 1.28-2.71 3.03 3.03 0 0 0-5.94.85Zm15.45-5.3a1.64 1.64 0 1 0 1.64-1.65 1.64 1.64 0 0 0-1.64 1.64Zm1.63 2.26a3.03 3.03 0 0 0-2.9 2.19 6.04 6.04 0 0 1 1.28 2.71h4.08a.58.58 0 0 0 .58-.58V36.5a3.04 3.04 0 0 0-3.04-3.04Zm-2.84 5.5a4.2 4.2 0 0 0-.68-1.9 4.25 4.25 0 0 0-.63-.71 4.18 4.18 0 0 0-5.74 0 4.26 4.26 0 0 0-.63.72 4.2 4.2 0 0 0-.68 1.9l-.02.13a2.49 2.49 0 0 0-.03.33v2.25a.45.45 0 0 0 .45.45h7.56a.45.45 0 0 0 .45-.45v-2.25a2.5 2.5 0 0 0-.03-.33l-.02-.14Z"/><path d="M39.94 30.05a2.22 2.22 0 1 0 2.22 2.22 2.22 2.22 0 0 0-2.22-2.22Zm2.36-15.89a1.38 1.38 0 0 0 .24-.3l.03-.04a1 1 0 0 0 .04-.14.74.74 0 0 0 .04-.43.98.98 0 0 0-.01-.14l-.02-.05a1.25 1.25 0 0 0-.51-.6l-.04-.04-6.38-2.98a1.25 1.25 0 0 0-.71-1.15l-.42-.2a1.24 1.24 0 0 0-1.64.6l-3.69 7.9-3.72-7.95a1.17 1.17 0 0 0-1.55-.57l-.6.28a1.16 1.16 0 0 0-.6 1.1l-6.36 2.97a1.05 1.05 0 0 0 .17 1.97l2.77.73-1.2 2.6a1.05 1.05 0 0 0 1.39 1.4l6.28-2.94 1.8 3.86-4.27 9.14a1.24 1.24 0 0 0 .6 1.65l.4.19a1.24 1.24 0 0 0 1.65-.6l3.24-6.93 1.64 3.5a4.63 4.63 0 0 1 2.04-.48 4.57 4.57 0 0 1 1.02.12l-3.08-6.6 1.8-3.86 6.29 2.94.05.01a1.05 1.05 0 0 0 .39.09 1.05 1.05 0 0 0 .4-.09h.05l.03-.04a1.04 1.04 0 0 0 .3-.21 1.05 1.05 0 0 0 .17-.27c.01-.01 0-.03.02-.04a1.03 1.03 0 0 0 .05-.22 1.24 1.24 0 0 0-.05-.58c-.01-.02 0-.03-.02-.04l-1.2-2.6 2.76-.73h.01a1.05 1.05 0 0 0 .33-.17.98.98 0 0 0 .08-.06Zm-4.92-.74c-.04 0-.06.03-.09.04-.03 0-.06 0-.09.02a1 1 0 0 0-.1.07 1 1 0 0 0-.46.63 1 1 0 0 0-.03.2 1.02 1.02 0 0 0 .01.2 1 1 0 0 0 .01.12 1.03 1.03 0 0 0 .04.1l.02.07.52 1.11-3.66-1.71 1.34-2.88 3.67 1.71Z"/><path d="M36.84 45.24H4.53V10.88h4.02v29.28a1.05 1.05 0 0 0 1.05 1.06h19.76A3.64 3.64 0 0 1 27 38.84h.01a3.57 3.57 0 0 1-.18-1.06v-1.04H13.08V2.38h32.3v24.4a3.88 3.88 0 0 1 2.11-.22V1.33A1.05 1.05 0 0 0 46.44.28H12.02l-.05.01a1.04 1.04 0 0 0-.29.06 1 1 0 0 0-.1.03 1.08 1.08 0 0 0-.3.2L8.87 2.97a1.05 1.05 0 0 0-.31.74v5.07H3.48a.73.73 0 0 0-.26.04.39.39 0 0 0-.15.04 1.12 1.12 0 0 0-.33.23l-.05.05-2.37 2.33a1 1 0 0 0-.32.75v36.45a1.05 1.05 0 0 0 1.05 1.05h34.41a1.07 1.07 0 0 0 .74-.3l2.43-2.37a1.07 1.07 0 0 0 .31-.76v-1.12h-2.1Z"/></svg>