<svg data-tags="Modern Research, research, launchpad" xmlns="http://www.w3.org/2000/svg" viewBox="0 0 50 49.438"><path d="M23.327 44.661V43.49H7.374V2.087H32.09l9.783 10.002v21.656a4.76 4.76 0 0 1 2-.91V11.274L32.933.087H3.67a1.654 1.654 0 0 0-1.723 1.57v44.82c0 1.031 1.06 1.031 1.629 1.031h21.13a3.653 3.653 0 0 1-1.38-2.847Z"/><path d="M27.874 37.558a1.767 1.767 0 1 0 1.768-1.768 1.77 1.77 0 0 0-1.768 1.768ZM29.653 40.005a3.276 3.276 0 0 0-3.274 3.274v1.382a.621.621 0 0 0 .623.623h4.396a6.367 6.367 0 0 1 1.382-2.923 3.273 3.273 0 0 0-3.127-2.356ZM43.022 37.558a1.767 1.767 0 1 0 1.767-1.768 1.768 1.768 0 0 0-1.767 1.768ZM44.778 40.005a3.263 3.263 0 0 0-3.127 2.356 6.54 6.54 0 0 1 1.382 2.923h4.396a.621.621 0 0 0 .623-.623V43.28a3.269 3.269 0 0 0-3.274-3.274ZM41.73 45.929a4.51 4.51 0 0 0-.736-2.039 4.85 4.85 0 0 0-.68-.77 4.491 4.491 0 0 0-6.186 0 4.864 4.864 0 0 0-.68.77 4.513 4.513 0 0 0-.736 2.04.667.667 0 0 1-.023.147c-.011.124-.023.237-.023.362v2.424a.484.484 0 0 0 .488.488H41.3a.484.484 0 0 0 .487-.488V46.44a1.88 1.88 0 0 0-.034-.362.656.656 0 0 1-.023-.148ZM37.21 41.115a2.39 2.39 0 1 0-2.39-2.39 2.384 2.384 0 0 0 2.39 2.39Z" fill="#f4b942"/><path d="M34.373 22.31a.993.993 0 0 0 .373.083H34.755a.993.993 0 0 0 .369-.082c.015-.006.031-.003.046-.01.015-.006.023-.02.037-.026a.99.99 0 0 0 .27-.198l.015-.014a.994.994 0 0 0 .164-.245c.006-.013.004-.027.01-.04a2.41 2.41 0 0 0 .078-.381 1.002 1.002 0 0 0-.027-.177.983.983 0 0 0-.05-.205c-.005-.013-.003-.028-.01-.041l-1.224-2.647 2.816-.747.01-.005a.995.995 0 0 0 .309-.152.958.958 0 0 0 .08-.067.98.98 0 0 0 .163-.187.97.97 0 0 0 .06-.09c.008-.016.02-.027.028-.044a.918.918 0 0 0 .031-.128.71.71 0 0 0 .038-.414.931.931 0 0 0-.008-.135c-.004-.015-.015-.025-.02-.04a1.203 1.203 0 0 0-.487-.584c-.014-.007-.023-.02-.037-.028l-6.398-2.987a1.223 1.223 0 0 0-.675-1.147l-.447-.208a1.198 1.198 0 0 0-1.547.58l-3.726 7.971-3.764-8.047a1.11 1.11 0 0 0-1.358-.56.93.93 0 0 0-.102.04l-.573.262a1.097 1.097 0 0 0-.603 1.112l-6.39 2.984a1 1 0 0 0 .166 1.873l2.815.746-1.225 2.649a1 1 0 0 0 1.33 1.326l6.317-2.95 1.827 3.903-4.307 9.214a1.177 1.177 0 0 0 .602 1.52l.434.203a1.152 1.152 0 0 0 .471.101 1.246 1.246 0 0 0 1.081-.68l3.282-7.019 3.072 6.564a4.777 4.777 0 0 1 1.944-.418 4.73 4.73 0 0 1 .936.101 1.142 1.142 0 0 0-.022-.21 1.103 1.103 0 0 0-.057-.153l-4.313-9.22 1.829-3.913 6.312 2.956c.015.007.03.004.046.01Zm-1.604-5.611c-.029.007-.049.027-.076.037-.03.01-.06.008-.088.021a.94.94 0 0 0-.093.069.95.95 0 0 0-.443.598.95.95 0 0 0-.03.186.964.964 0 0 0 .012.196.928.928 0 0 0 .007.115.943.943 0 0 0 .043.095c.009.023.006.046.017.068l.574 1.242-3.83-1.794 1.386-2.965 3.825 1.786Z"/></svg>