<svg data-tags="illustration,unsupported,browser not supported,not working" xmlns="http://www.w3.org/2000/svg" viewBox="0 0 40 40"><path d="M39.891 10.214a.956.956 0 00-.007-.102c-.002-.011-.009-.02-.012-.032a1.963 1.963 0 00-.104-.259.844.844 0 00-.273-.297.973.973 0 00-.12-.082c-.012-.005-.02-.015-.03-.02a1.42 1.42 0 01-.196-.071L4.374.674a1.008 1.008 0 00-.861.185L.523 3.216a.986.986 0 00-.25.31c-.014.025-.027.047-.038.072a.989.989 0 00-.087.378c0 .009-.006.016-.006.025v25.744a1 1 0 00.758.97l34.763 8.667a1.02 1.02 0 00.243.03.706.706 0 00.442-.119.989.989 0 00.174-.094l3-2.345a1.001 1.001 0 00.385-.789V10.321a.965.965 0 00-.016-.107zM2.141 5.282l32.765 8.176v5.132L2.142 10.422zm0 7.203l32.765 8.167v16.479L2.142 28.964z"/><path d="M31.077 13.987l-14.366-3.58a1 1 0 00-.484 1.94l14.366 3.582a1.04 1.04 0 00.243.029 1 1 0 00.241-1.97zM4.738 7.511a1.243 1.243 0 00-.212-.022.783.783 0 00-.791.823 1.326 1.326 0 00.79 1.16 1.407 1.407 0 00.213.067.798.798 0 001.014-.798 1.327 1.327 0 00-1.014-1.23zm3.218.77a1.23 1.23 0 00-.211-.023.783.783 0 00-.791.824 1.326 1.326 0 00.79 1.16 1.406 1.406 0 00.212.067.798.798 0 001.014-.798 1.327 1.327 0 00-1.014-1.23zm3.219.767a1.23 1.23 0 00-.211-.023.783.783 0 00-.792.824 1.326 1.326 0 00.792 1.16 1.41 1.41 0 00.211.067.798.798 0 001.014-.798 1.327 1.327 0 00-1.014-1.23zm7.361 14.826l1.993-1.568a1 1 0 00-1.237-1.573l-2.028 1.598-2.176-2.638a1 1 0 10-1.543 1.274l2.146 2.602-1.992 1.569a1 1 0 001.236 1.572l2.03-1.598 2.174 2.637a1 1 0 001.543-1.273z"/></svg>