<svg xmlns="http://www.w3.org/2000/svg" data-tags="error state" viewBox="0 0 200 93"><g opacity=".5"><path d="M45.5 74h1v4h-1zm0 8h1v4h-1zm109 1h1v4h-1zm0-8h1v4h-1z"/><path d="M180 .5H20A2.5 2.5 0 0017.5 3v90h1V3c0-.8.7-1.5 1.5-1.5h160c.8 0 1.5.7 1.5 1.5v88h1V3A2.5 2.5 0 00180 .5z"/><path d="M118 17.5h4v1h-4zm-48 0h4v1h-4zm56 0h4v1h-4zm-15 1h3v-1h-4V22h1zM45.5 28h1v4h-1zm0-8h1v4h-1zm88.5-2.5h4v1h-4zm-40 0h4v1h-4zm-4 1v-1h-4v1h3V22h1zm12-1h4v1h-4zm-56 0h4v1h-4zm8 0h4v1h-4zm96 0h4v1h-4zm4.5 3.5h1v4h-1zM142 17.5h4v1h-4zm-64 0h4v1h-4zm-16 0h4v1h-4zM154.5 29h1v4h-1zm-109 17h1v4h-1zm0-8h1v4h-1zm109 9h1v4h-1zm0-8h1v4h-1zM54 35.5h4v1h-4zm8 0h4v1h-4zm64 0h4v1h-4zm-24 0h4v1h-4zm16 0h4v1h-4zm32 0h4v1h-4zm-8 0h4v1h-4zm-64 0h4v1h-4zm16 0h4v1h-4zm40 0h4v1h-4zm-88 0h4v1h-4zm24 0h4v1h-4zm26 36h2v1h-2zm14 0h4v1h-4zm-8 0h4v1h-4zm-40 0h4v1h-4zm80 0h4v1h-4zm-96 0h4v1h-4zm104 0h4v1h-4zM45.5 56h1v4h-1zm0 8h1v4h-1zm88.5 7.5h4v1h-4zm-16 0h1.3v1H118zM154.5 57h1v4h-1zM54 71.5h4v1h-4zM154.5 65h1v4h-1zM78 71.5h4v1h-4zm-8-18h4v1h-4zm8 0h4v1h-4zm48 0h4v1h-4zm-72 0h4v1h-4zm64 0h4v1h-4zm-56 0h4v1h-4zm-16 0h4v1h-4zm88 0h4v1h-4zm16 0h4v1h-4zm-8 0h4v1h-4zM67 42h1v4h-1zm0 8h1v4h-1zm0 8h1v2.3h-1zm0 16h1v4h-1zm0 8h1v4h-1zm0-64h1v4h-1zm0 8h1v4h-1zm0 8h1v4h-1zm22 48h1v4h-1zm0-45.5V38h1v-4h-1v1.5h-.5l-2.5 1zM89 26h1v4h-1zm0 40h1v1h-1zm21-30.5V38h1v-1.5h3v-1h-3V34h-1zm0 8l1 2.5v-4h-1zm0 22.5h1v4h-1zm0-40h1v4h-1zm0 48h1v4h-1zm0-16h1v4h-1zm0 24h1v4h-1zm22-40h1v4h-1zm0-8h1v4h-1zm0 16h1v4h-1zm0-24h1v4h-1zm0-8h1v4h-1zm0 56h1v4h-1zm0-16h1v4h-1zm0 24h1v4h-1zm0-16h1v4h-1zm18 23.5H45v1h110v-1h-1z"/></g><path d="M72 58.5a8.5 8.5 0 100 17 8.5 8.5 0 000-17zm0 16a7.5 7.5 0 110-15 7.5 7.5 0 010 15zM10.5 49h-1v2.5H7v1h2.5V55h1v-2.5H13v-1h-2.5zm187 16.5V63h-1v2.5H194v1h2.5V69h1v-2.5h2.5v-1zm-194-35a3 3 0 100 6 3 3 0 000-6zm0 5a2 2 0 110-4 2 2 0 010 4zm188 39a3 3 0 100 6 3 3 0 000-6zm0 5a2 2 0 110-4 2 2 0 010 4zm-93-43a14 14 0 100 28 14 14 0 000-28zm0 27a13 13 0 110-26 13 13 0 010 26z"/><path d="M97 40.5a8.5 8.5 0 100 17 8.5 8.5 0 000-17zm0 16a7.5 7.5 0 110-15 7.5 7.5 0 010 15zm25.5-13a4 4 0 100-8 4 4 0 000 8zm0-7a3 3 0 110 6 3 3 0 010-6zm2.5 27a6.5 6.5 0 100 13 6.5 6.5 0 000-13zm0 12a5.5 5.5 0 110-11 5.5 5.5 0 010 11zm-34.5-9a6 6 0 100 12 6 6 0 000-12zm0 11a5 5 0 110-10 5 5 0 010 10zm0-45.5a5.5 5.5 0 10-11 0 5.5 5.5 0 0011 0zm-10 0a4.5 4.5 0 119 0 4.5 4.5 0 01-9 0z"/><path fill-rule="evenodd" d="M97.4 26.4c1.4-2.3 3.8-2.3 5.2 0l8 13.2 15 24.5c1.4 2.3.3 4.2-2.5 4.2H77c-2.8 0-3.9-1.9-2.4-4.2l22.9-37.7z" clip-rule="evenodd"/><g fill="#FFF" fill-rule="evenodd" clip-rule="evenodd"><path d="M126 63.8l-23-37.6c-.8-1.3-1.8-2-3-2s-2.2.7-3 2L74 63.8c-.8 1.3-.9 2.5-.3 3.5.5 1 1.6 1.5 3.2 1.5H123c1.6 0 2.7-.5 3.2-1.5.6-1 .5-2.2-.3-3.5zm-.5 3c-.4.7-1.2 1-2.4 1H77c-1.2 0-2-.3-2.4-1-.3-.6-.2-1.5.4-2.5l23-37.6c.5-1 1.3-1.5 2.1-1.5s1.6.5 2.2 1.5L125 64.3c.6 1 .7 1.9.4 2.5z"/><path d="M98.8 57.3h3.2v3.2h-3.2zm0-17.3h3.2v14.2h-3.2z"/></g></svg>