<svg xmlns="http://www.w3.org/2000/svg" viewBox="0 0 668 304" data-tags="preview"><circle cx="240.5" cy="109.5" r="30.5" fill="#9E81EB" fill-opacity=".05" fill-rule="evenodd" clip-rule="evenodd"/><circle cx="325.5" cy="188.5" r="35.5" fill="#9E81EB" fill-opacity=".05" fill-rule="evenodd" clip-rule="evenodd"/><circle cx="431" cy="206" r="34" fill="#4CD2DF" fill-opacity=".05" fill-rule="evenodd" clip-rule="evenodd"/><circle cx="363.5" cy="108.5" r="20.5" fill="#4CD2DF" fill-opacity=".05" fill-rule="evenodd" clip-rule="evenodd"/><circle cx="483.5" cy="73.5" r="19.5" fill="#9E81EB" fill-opacity=".05" fill-rule="evenodd" clip-rule="evenodd"/><path fill="#9E81EB" d="M240.5 140.5c-17.1 0-31-13.9-31-31s13.9-31 31-31 31 13.9 31 31-13.9 31-31 31zm0-61c-16.5 0-30 13.5-30 30s13.5 30 30 30 30-13.5 30-30-13.5-30-30-30zm85 145c-19.9 0-36-16.1-36-36s16.1-36 36-36 36 16.1 36 36-16.1 36-36 36zm0-71c-19.3 0-35 15.7-35 35s15.7 35 35 35 35-15.7 35-35-15.7-35-35-35zm158-60c-11 0-20-9-20-20s9-20 20-20 20 9 20 20-9 20-20 20zm0-39a19 19 0 100 38 19 19 0 100-38z"/><circle cx="533" cy="189" r="16" fill="#4CD2DF" fill-opacity=".05" fill-rule="evenodd" clip-rule="evenodd"/><path fill="#4CD2DF" d="M431 240.5c-19 0-34.5-15.5-34.5-34.5s15.5-34.5 34.5-34.5 34.5 15.5 34.5 34.5-15.5 34.5-34.5 34.5zm0-68a33.5 33.5 0 100 67 33.5 33.5 0 000-67zm-67.5-43a21 21 0 110-42 21 21 0 010 42zm0-41c-11 0-20 9-20 20s9 20 20 20 20-9 20-20-9-20-20-20zm169.5 117c-9.1 0-16.5-7.4-16.5-16.5s7.4-16.5 16.5-16.5 16.5 7.4 16.5 16.5-7.4 16.5-16.5 16.5zm0-32c-8.5 0-15.5 7-15.5 15.5s7 15.5 15.5 15.5 15.5-7 15.5-15.5-7-15.5-15.5-15.5z"/><g fill="#40A3F5" fill-rule="evenodd" clip-rule="evenodd"><circle cx="87" cy="147" r="7" opacity=".05"/><circle cx="141" cy="201" r="24" opacity=".05"/><circle cx="586" cy="123" r="15" opacity=".05"/></g><path d="M87 139.5c-4.1 0-7.5 3.4-7.5 7.5s3.4 7.5 7.5 7.5 7.5-3.4 7.5-7.5-3.4-7.5-7.5-7.5zm0 14c-3.6 0-6.5-2.9-6.5-6.5s2.9-6.5 6.5-6.5 6.5 2.9 6.5 6.5-2.9 6.5-6.5 6.5zm54 23c-13.5 0-24.5 11-24.5 24.5s11 24.5 24.5 24.5 24.5-11 24.5-24.5-11-24.5-24.5-24.5zm0 48c-13 0-23.5-10.5-23.5-23.5s10.5-23.5 23.5-23.5 23.5 10.5 23.5 23.5-10.5 23.5-23.5 23.5zm445-117c-8.5 0-15.5 7-15.5 15.5s7 15.5 15.5 15.5 15.5-7 15.5-15.5-7-15.5-15.5-15.5zm0 30a14.51 14.51 0 010-29 14.51 14.51 0 010 29z" fill="#40A3F5"/><g fill="#CBD756" fill-opacity=".05" fill-rule="evenodd" clip-rule="evenodd"><circle cx="445" cy="133" r="28"/><circle cx="602" cy="159" r="5"/><circle cx="122" cy="86" r="9"/></g><path fill="#CBD756" d="M445 161.5c-15.7 0-28.5-12.8-28.5-28.5s12.8-28.5 28.5-28.5 28.5 12.8 28.5 28.5-12.8 28.5-28.5 28.5zm0-56c-15.2 0-27.5 12.3-27.5 27.5s12.3 27.5 27.5 27.5 27.5-12.3 27.5-27.5-12.3-27.5-27.5-27.5zm157 59c-3 0-5.5-2.5-5.5-5.5s2.5-5.5 5.5-5.5 5.5 2.5 5.5 5.5-2.5 5.5-5.5 5.5zm0-10c-2.5 0-4.5 2-4.5 4.5s2 4.5 4.5 4.5 4.5-2 4.5-4.5-2-4.5-4.5-4.5zm-480-59c-5.2 0-9.5-4.3-9.5-9.5s4.3-9.5 9.5-9.5 9.5 4.3 9.5 9.5-4.3 9.5-9.5 9.5zm0-18a8.5 8.5 0 10-.01 16.99A8.5 8.5 0 00122 77.5z"/><g fill="#A9A9B2"><path d="M326.5 276.4h-1.1l-2.1 3.4-2.1-3.4h-1.1l2.7 4.1-2.8 4.5h1.2l2.3-3.8 2.3 3.8h1.1l-3.1-4.5zm10.9 0L334 285h1l1.1-2.7h3.4l1.1 2.7h1l-3.4-8.6h-.8zm-1 5l1-2.7c.2-.4.3-.8.4-1.2.1.5.3.9.4 1.2l1 2.7h-2.8zm13.8-5h-1.1l-2.1 3.4-2.1-3.4h-1.1l2.7 4.1-2.8 4.5h1.1l2.3-3.8 2.3 3.8h1.1l-3-4.5zm3.5 0h1v8.6h-1zm7.9 3.8c-.5-.2-.9-.4-1.2-.5-.3-.1-.5-.3-.6-.5-.1-.2-.2-.4-.2-.7 0-.4.1-.7.4-.9.3-.2.7-.3 1.2-.3.7 0 1.4.1 2.1.4l.3-.9c-.7-.3-1.4-.5-2.3-.5-.8 0-1.5.2-2 .6-.5.4-.7.9-.7 1.6 0 .6.2 1.1.5 1.5.3.4.9.7 1.7 1 .6.2 1 .4 1.3.5.3.1.5.3.6.5.1.2.2.4.2.7 0 .5-.2.8-.5 1.1s-.8.4-1.5.4c-.4 0-.8 0-1.2-.1-.4-.1-.7-.3-1.1-.4v1c.5.3 1.3.4 2.3.4.9 0 1.7-.1 2.2-.6s.8-1 .8-1.8c0-.6 0-1.2-.4-1.5-.4-.3-1-.7-1.9-1zm-341.2-121v1.1l4.3 2.3-4.3 2.3v1.1l5.3-2.9H29v-1h-3.4zm0-10.4l8.6 3.4v-1l-2.7-1.1v-3.4l2.7-1.1v-1l-8.6 3.4v.8zm2.3-.8l2.7-1v2.8l-2.7-1c-.4-.2-.8-.3-1.2-.4.5-.1.9-.3 1.2-.4zm-2.3-12v1.1l3.4 2.1-3.4 2.1v1.1l4.1-2.7 4.5 2.8v-1.1l-3.8-2.3 3.8-2.3v-1.1l-4.5 3zm0-4.5H29v1h-8.6zm6.3-9.2c-.6 0-1.2 0-1.5.4s-.7 1-1 1.9c-.2.5-.4.9-.5 1.2-.1.3-.3.5-.5.6-.2.1-.4.2-.7.2-.4 0-.7-.1-.9-.4-.2-.3-.3-.7-.3-1.2 0-.7.1-1.4.4-2.1l-.9-.3c-.3.7-.5 1.4-.5 2.3 0 .8.2 1.5.6 2 .4.5.9.7 1.6.7.6 0 1.1-.2 1.5-.5.4-.3.7-.9 1-1.7.2-.6.4-1 .5-1.3.1-.3.3-.5.5-.6s.4-.2.7-.2c.5 0 .8.2 1.1.5.3.3.4.8.4 1.5 0 .4 0 .8-.1 1.2-.1.4-.3.7-.4 1.1h1c.3-.5.4-1.3.4-2.3 0-.9-.1-1.7-.6-2.2s-1-.8-1.8-.8zm25.8 129.2V30h-1v222.5H640v-1z"/><path d="M275 211l3 6 3-6h-2.5v-46h2.5l-3-6-3 6h2.5v46zm-60.8-22.6v-.1h1.7l2.1 3.6h1.2l-2.3-3.8c1.1-.4 1.7-1.2 1.7-2.3 0-.8-.3-1.4-.8-1.8s-1.2-.6-2.3-.6h-2.3v8.6h1v-3.6zm0-4.1h1.3c.7 0 1.3.2 1.6.4.3.2.5.6.5 1.2s-.2 1-.5 1.3c-.3.3-.8.4-1.5.4h-1.4v-3.3zm9.8 7.8c.5 0 .8-.1 1.2-.2.4-.1.7-.4 1-.8l.2.9v.1h.8v-4.4c0-.7-.2-1.3-.6-1.6-.4-.3-.9-.5-1.7-.5-.3 0-.8 0-1.1.1-.3.1-.7.2-1 .4l.3.7c.7-.3 1.3-.5 1.8-.5.4 0 .8.2 1 .4s.3.6.3 1.1v.4h-1.1c-2.1 0-3.1.7-3.1 2 0 .6.1 1.1.5 1.4.4.3.9.5 1.5.5zm-.6-2.9c.4-.3.9-.4 1.7-.4h1v.6c0 .6-.2 1.1-.5 1.4s-.8.5-1.4.5c-.4 0-.8-.1-1-.3s-.3-.4-.3-.8c0-.5.1-.7.5-1zm10 2.9c.9 0 1.6-.3 2.1-1l.2.7h.8v-9.1h-1v3.6h-.1c-.5-.6-1.1-.9-2-.9-.9 0-1.5.3-2 .9-.5.6-.7 1.5-.7 2.5s.2 1.8.7 2.4 1.2.9 2 .9zm-1.4-5c.3-.5.7-.7 1.3-.7.7 0 1.2.3 1.5.6s.5 1 .5 1.9v.2c0 .8-.1 1.4-.4 1.7s-.7.5-1.4.5c-.5 0-1.2.1-1.5-.4s-.5-1.1-.5-1.9.2-1.4.5-1.9zm9-2.6c.2 0 .3-.1.4-.2.1-.1.2-.3.2-.5s-.1-.4-.2-.5c-.1-.1-.2-.2-.4-.2s-.3.1-.4.2c-.1.1-.2.3-.2.5 0 .3.1.4.2.5.1.1.2.2.4.2zm-.6 1.1h1v6.4h-1zm7.4 6.5c.4 0 .9-.2 1.2-.3s.6-.4.8-.7h.1l.1.9h.9v-6.4h-1v3.4c0 .8-.2 1.4-.5 1.8-.3.4-.8.6-1.5.6-.5 0-.8-.1-1.1-.4s-.4-.7-.4-1.2v-4.3h-1v4.2c0 .8.2 1.4.6 1.8.4.4 1 .6 1.8.6zm7.3-3.5c.3.2.7.4 1.3.6.7.2 1.1.5 1.3.6.2.1.3.4.3.6 0 .3-.1.6-.4.7-.3.1-.7.2-1.2.2-.3 0-.6 0-1-.1a3 3 0 01-1-.4v.9c.5.3 1.1.4 2 .4.8 0 1.4-.2 1.9-.5s.7-.8.7-1.4c0-.4-.5-.9-.7-1.1s-.7-.5-1.5-.8c-.5-.2-.9-.4-1.1-.5-.2-.1-.3-.2-.4-.3-.1-.1-.1-.2-.1-.4 0-.3.2-.5.4-.6.2-.1.5-.2 1-.2.6 0 1.2.1 1.8.4l.3-.8c-.6-.3-1.3-.4-2-.4-.8 0-1.4.2-1.8.5-.4.3-.6.7-.6 1.2 0 .3 0 .6.2.8s.3.4.6.6zm55.3 3.5h-4.7l4.5-6.9v-.8h-5.6v.9h4.4l-4.5 6.9v.8h5.9zm9.6-1.8h3.4l1.1 2.7h1.1l-3.4-8.6h-.8L318 193h1l1-2.7zm1.3-3.6c.2-.4.3-.8.4-1.2.1.5.3.9.4 1.2l1 2.7h-2.8l1-2.7zm7.4 6.3l2.3-3.8 2.3 3.8h1.1l-3-4.5 2.7-4.1H333l-2.1 3.4-2.1-3.4h-1.1l2.7 4.1-2.8 4.5zm8.9-8.6h1v8.6h-1zm9.4 8.1c.5-.5.8-1 .8-1.8 0-.6 0-1.2-.4-1.5-.4-.3-1-.7-1.9-1-.5-.2-.9-.4-1.2-.5-.3-.1-.5-.3-.6-.5-.1-.2-.2-.4-.2-.7 0-.4.1-.7.4-.9.3-.2.7-.3 1.2-.3.7 0 1.4.1 2.1.4l.3-.9c-.7-.3-1.4-.5-2.3-.5-.8 0-1.5.2-2 .6-.5.4-.7.9-.7 1.6 0 .6.2 1.1.5 1.5.3.4.9.7 1.7 1 .6.2 1 .4 1.3.5.3.1.5.3.6.5.1.2.2.4.2.7 0 .5-.2.8-.5 1.1s-.8.4-1.5.4c-.4 0-.8 0-1.2-.1-.4-.1-.7-.3-1.1-.4v1c.5.3 1.3.4 2.3.4.9 0 1.7-.1 2.2-.6zm68.4 16.6h-4.7l4.5-6.9v-.8h-5.6v.9h4.4l-4.5 6.9v.8h5.9zm9.6-1.8h3.4l1.1 2.7h1.1l-3.4-8.6h-.8L423 210h1l1-2.7zm1.3-3.6c.2-.4.3-.8.4-1.2.1.5.3.9.4 1.2l1 2.7h-2.8l1-2.7zm7.4 6.3l2.3-3.8 2.3 3.8h1.1l-3-4.5 2.7-4.1H438l-2.1 3.4-2.1-3.4h-1.1l2.7 4.1-2.8 4.5zm8.9-8.6h1v8.6h-1zm9.4 8.1c.5-.5.8-1 .8-1.8 0-.6 0-1.2-.4-1.5-.4-.3-1-.7-1.9-1-.5-.2-.9-.4-1.2-.5-.3-.1-.5-.3-.6-.5-.1-.2-.2-.4-.2-.7 0-.4.1-.7.4-.9.3-.2.7-.3 1.2-.3.7 0 1.4.1 2.1.4l.3-.9c-.7-.3-1.4-.5-2.3-.5-.8 0-1.5.2-2 .6-.5.4-.7.9-.7 1.6 0 .6.2 1.1.5 1.5.3.4.9.7 1.7 1 .6.2 1 .4 1.3.5.3.1.5.3.6.5.1.2.2.4.2.7 0 .5-.2.8-.5 1.1s-.8.4-1.5.4c-.4 0-.8 0-1.2-.1-.4-.1-.7-.3-1.1-.4v1c.5.3 1.3.4 2.3.4.9 0 1.7-.1 2.2-.6z"/></g></svg>