<svg data-tags="modern research, research, launchpad" xmlns="http://www.w3.org/2000/svg" viewBox="0 0 50 50"><path d="M40.64 12.89h-6.12a1.05 1.05 0 1 0 0 2.1h6.12a1.05 1.05 0 1 0 0-2.1Zm1.05 6.15A1.05 1.05 0 0 0 40.64 18h-6.12a1.05 1.05 0 1 0 0 2.1h6.12a1.05 1.05 0 0 0 1.05-1.05Zm-.94-12.48H17.84a1.14 1.14 0 1 0 0 2.28h22.9a1.14 1.14 0 0 0 0-2.28ZM25.32 24.81h-7.48a1.14 1.14 0 1 0 0 2.29h7.48a1.14 1.14 0 0 0 0-2.29Zm-8.66-7.32a1.14 1.14 0 0 0 1.14 1.14h.57l.45 2.31v.02a.64.64 0 0 0 .08.2.43.43 0 0 0 .15.15.64.64 0 0 0 .14.08.04.04 0 0 0 .03.01.45.45 0 0 0 .2.04h1.9a.48.48 0 0 0 .24-.06.2.2 0 0 0 .1-.04.59.59 0 0 0 .13-.13.64.64 0 0 0 .08-.14.04.04 0 0 0 .01-.03.45.45 0 0 0 .04-.2v-.13l-.3-1.5 3.13 1.82a1.2 1.2 0 0 0 .58.15 1.17 1.17 0 0 0 .57-.16 1.14 1.14 0 0 0 .56-.98v-7.76a1.12 1.12 0 0 0-.56-.98 1.14 1.14 0 0 0-1.15-.01l-4.11 2.38H17.8a1.14 1.14 0 0 0-1.14 1.15Zm14.01-1.33a.6.6 0 0 0-.6-.6h-1.4a.6.6 0 1 0 0 1.2h1.4a.6.6 0 0 0 .6-.6Zm-1.13 3.65a.6.6 0 0 0 0-.85l-.99-.99a.6.6 0 1 0-.85.85l.99.99a.6.6 0 0 0 .85 0Zm-.79-7.37-1 .99a.6.6 0 1 0 .86.85l.99-.98a.6.6 0 1 0-.85-.86ZM32.9 32.9a1.64 1.64 0 1 0-1.65-1.65 1.64 1.64 0 0 0 1.64 1.64Zm-2.46 5.53h4.08a6.04 6.04 0 0 1 1.28-2.72 3.04 3.04 0 0 0-5.95.86v1.28a.58.58 0 0 0 .59.58Zm14.88-7.18a1.64 1.64 0 1 0 1.64-1.64 1.64 1.64 0 0 0-1.64 1.64Zm1.64 2.28a3.04 3.04 0 0 0-2.91 2.18 6.04 6.04 0 0 1 1.28 2.72h4.09a.58.58 0 0 0 .58-.58v-1.28a3.05 3.05 0 0 0-3.04-3.04Zm-2.85 5.5a4.2 4.2 0 0 0-.68-1.9 4.26 4.26 0 0 0-.63-.71 4.18 4.18 0 0 0-5.75 0 4.26 4.26 0 0 0-.62.71 4.2 4.2 0 0 0-.69 1.9l-.01.14a2.5 2.5 0 0 0-.03.34v2.24a.45.45 0 0 0 .45.45h7.56a.45.45 0 0 0 .45-.45v-2.24a2.5 2.5 0 0 0-.03-.34l-.02-.14Zm-4.18-4.47a2.22 2.22 0 1 0-2.22-2.22 2.22 2.22 0 0 0 2.22 2.22Zm-22.09-4.59a1.14 1.14 0 1 0 0 2.28h10.5a4.32 4.32 0 0 1-.14-1 4.63 4.63 0 0 1 .2-1.28Z"/><path d="M36.9 45.27H4.53v-34.4h4.03v29.31a1.05 1.05 0 0 0 1.05 1.06h19.54a3.63 3.63 0 0 1-2.35-3.39v-1.1H13.1V2.35h32.34v24.48a4.57 4.57 0 0 1 .66-.18l.14-.02a3.5 3.5 0 0 1 1.3 0V1.3A1.05 1.05 0 0 0 46.5.25H12.05l-.07.01a1.02 1.02 0 0 0-.27.06 1 1 0 0 0-.11.04 1.03 1.03 0 0 0-.24.16l-.07.06-2.4 2.36a1.01 1.01 0 0 0-.32.75v5.07H3.48a.73.73 0 0 0-.26.04.4.4 0 0 0-.15.05 1.12 1.12 0 0 0-.32.22l-.06.05-2.37 2.34a1.03 1.03 0 0 0-.32.74v36.5a1.06 1.06 0 0 0 1.05 1.05h34.47a1.04 1.04 0 0 0 .73-.3l2.43-2.37a1.07 1.07 0 0 0 .32-.76v-1.07h-2.1Z"/></svg>