<svg data-tags="Modern Marketing, Marketing, launchpad" xmlns="http://www.w3.org/2000/svg" viewBox="0 0 50 49.438"><rect x="7.893" y="19.397" width="14.154" height="14.489" rx="1"/><path d="M19.072 23.582a1 1 0 0 0-1.414 0l-3.992 3.992-1.379-1.401a1 1 0 0 0-1.426 1.402l2.086 2.12.004.003.002.003a.97.97 0 0 0 .217.145 1.077 1.077 0 0 0 .112.074.999.999 0 0 0 .752.001 1.029 1.029 0 0 0 .107-.07.965.965 0 0 0 .22-.144l.003-.003.003-.003 4.705-4.705a1 1 0 0 0 0-1.414Z" fill="#fff"/><path d="m42.252 30.22.491-1.346a.516.516 0 0 0-.97-.354l-.491 1.346a.516.516 0 1 0 .97.354Zm-6.234-1.068-.346.948a10.172 10.172 0 0 1-5.266 5.734l-.539.25 1.98 4.257 1.979 4.257.538-.25a10.172 10.172 0 0 1 7.779-.33l.947.345a.846.846 0 0 0 1.057-1.15l-3.284-7.064-3.284-7.063a.846.846 0 0 0-1.561.066Zm-10.192 8.814 3.106-1.444 3.959 8.514-3.106 1.444a1.188 1.188 0 0 1-1.579-.576l-2.956-6.36a1.188 1.188 0 0 1 .576-1.578Zm15.457-4.281a2.096 2.096 0 0 1 1.767 3.802l-.296.137a.16.16 0 0 1-.213-.078l-1.632-3.51a.16.16 0 0 1 .077-.213ZM32.18 48.76a1.046 1.046 0 0 0 1.897-.882l-.916-1.839-1.897.882Zm13.115-15.198 1.3-.605a.516.516 0 0 1 .435.937l-1.3.604a.516.516 0 0 1-.435-.936Zm.335 5.664a.516.516 0 0 1 .662-.308l1.347.492a.516.516 0 0 1-.355.97l-1.346-.492a.516.516 0 0 1-.308-.662Z" fill="#6ac96e" fill-rule="evenodd"/><path d="M26.57 24.132H36.79a1.43 1.43 0 1 0 0-2.861H26.57a1.43 1.43 0 1 0 0 2.86ZM26.57 29.375h5.198a1.43 1.43 0 1 0 0-2.86H26.57a1.43 1.43 0 1 0 0 2.86Z"/><path d="M25.725 47.307H6.997a2.862 2.862 0 0 1-2.88-2.86v-.156a5.011 5.011 0 0 0 2.88.936H24.74l-.967-2.08H6.997a2.862 2.862 0 0 1-2.88-2.859v-.156a5.01 5.01 0 0 0 2.88.936h15.81l-.148-.319a4.013 4.013 0 0 1-.363-1.76H6.997a2.862 2.862 0 0 1-2.88-2.86V14.295H42.3v11.032a3.256 3.256 0 0 1 2.095.774V9.617a4.979 4.979 0 0 0-4.976-4.886H36.75V3.483a3.51 3.51 0 0 0-7.019 0v1.248H16.635V3.483a3.51 3.51 0 0 0-7.019 0v1.248H6.997a4.955 4.955 0 0 0-4.976 4.938V44.5a4.989 4.989 0 0 0 4.976 4.939h22.14a4.053 4.053 0 0 1-3.412-2.131Zm6.152-43.825a1.414 1.414 0 0 1 2.828 0v3.275a1.414 1.414 0 0 1-2.828 0Zm-20.166 0a1.414 1.414 0 0 1 2.828 0v3.275a1.414 1.414 0 0 1-2.828 0Z" fill="#0a0a14" fill-rule="evenodd"/></svg>