<svg data-tags="modern marketing, marketing, launchpad" xmlns="http://www.w3.org/2000/svg" viewBox="0 0 50 50"><path d="M37.05 18.55h-7.53a1 1 0 0 0 0 2h7.53a1 1 0 0 0 0-2Zm1 4.75a1 1 0 0 0-1-1h-7.53a1 1 0 0 0 0 2h7.53a1 1 0 0 0 1-1Zm1.41-17.2H25.6a1.5 1.5 0 1 0 0 3.01h13.85a1.5 1.5 0 0 0 0-3ZM9.58 6.02a1.6 1.6 0 1 0 1.6 1.59A1.6 1.6 0 0 0 9.57 6Zm4.82 0A1.6 1.6 0 1 0 16 7.6 1.6 1.6 0 0 0 14.4 6Zm5.1 0a1.6 1.6 0 1 0 1.59 1.59 1.6 1.6 0 0 0-1.6-1.6Z"/><path d="m24.54 35.9.13-.26H4.8V12.78h37.83V24a3.01 3.01 0 0 1 2-.4V3.39a1 1 0 0 0-1-1H3.81l-.07.01a.96.96 0 0 0-.6.26c-.02 0-.03.01-.05.03L.29 5.57a1 1 0 0 0-.29.7v33.25a1 1 0 0 0 1 1h24.38l-.7-1.52a4.02 4.02 0 0 1-.14-3.1ZM4.81 4.39h37.83v6.39H4.81Zm39.65 22.06a.52.52 0 0 0-.67.31l-.49 1.35a.52.52 0 1 0 .97.35l.5-1.34a.52.52 0 0 0-.31-.67Zm-1.16 5.48-.3.14a.16.16 0 0 0-.07.21l1.63 3.51a.16.16 0 0 0 .21.08l.3-.14a2.1 2.1 0 0 0-1.77-3.8Zm5.75.21a.52.52 0 0 0-.43-.94l-1.3.6a.52.52 0 0 0 .43.94Zm.61 5.52-1.35-.5a.52.52 0 0 0-.35.97l1.35.5a.52.52 0 1 0 .35-.98Z"/><path d="m30.95 34.77-3.1 1.44a1.19 1.19 0 0 0-.59 1.58l2.96 6.36a1.19 1.19 0 0 0 1.58.58l3.1-1.45Zm4.23 9.52-1.9.88.92 1.84a1.05 1.05 0 0 0 1.9-.89Zm7.7-9.89-3.28-7.07a.85.85 0 0 0-1.56.06l-.35.95a10.17 10.17 0 0 1-5.27 5.74l-.54.25 1.98 4.26 1.98 4.25.54-.25a10.18 10.18 0 0 1 7.78-.33l.95.35a.85.85 0 0 0 1.06-1.15ZM23.19 20.32l.99-1.77-1.96-1.97-1.77.97a6.7 6.7 0 0 0-1.17-.47l-.57-1.92h-2.78l-.57 1.92a6.64 6.64 0 0 0-1.18.48l-1.77-.98-1.97 1.97.97 1.77a7.48 7.48 0 0 0-.64 1.18l-2.09.57v2.78l2.09.57a7.11 7.11 0 0 0 .56 1.18l-.93 1.77 1.99 1.97 1.78-.97a6.91 6.91 0 0 0 1.18.57l.58 2.03h2.78l.57-2.03a6.84 6.84 0 0 0 1.18-.53l1.77.95 1.97-1.98-.97-1.78a6.54 6.54 0 0 0 .4-1.18l1.86-.57v-2.78l-1.85-.57a6.53 6.53 0 0 0-.45-1.18Zm-5.96 8.54a5.18 5.18 0 1 1 5.18-5.18 5.18 5.18 0 0 1-5.18 5.18Z"/><path d="m18.52 21.55-2.25 2.25-.6-.62a1 1 0 0 0-1.43 1.4l1.31 1.34a.96.96 0 0 0 .21.15 1.01 1.01 0 0 0 .12.08 1 1 0 0 0 .76 0 1.05 1.05 0 0 0 .1-.07.97.97 0 0 0 .22-.15h.01l2.97-2.97a1 1 0 0 0-1.42-1.41Zm10 5.94a1 1 0 0 0 1 1h4.96a7.37 7.37 0 0 0 .52-1.13l.32-.87h-5.8a1 1 0 0 0-1 1Z"/></svg>