<svg data-tags="Modern Research, research, launchpad" xmlns="http://www.w3.org/2000/svg" viewBox="0 0 50 49.438"><path d="M19.612 21.457a1.414 1.414 0 0 0 .68-.189 1.348 1.348 0 0 0 .67-1.171v-9.185a1.331 1.331 0 0 0-.67-1.16 1.346 1.346 0 0 0-1.36-.011l-4.875 2.824H10.7a1.362 1.362 0 0 0-1.349 1.36v3.159a1.36 1.36 0 0 0 1.35 1.35h.68l.533 2.74v.021a.883.883 0 0 0 .094.23.485.485 0 0 0 .167.188.531.531 0 0 0 .168.095c.01.02.02.02.031.02a.617.617 0 0 0 .24.053h2.25a.518.518 0 0 0 .282-.073.2.2 0 0 0 .105-.053.784.784 0 0 0 .167-.157.532.532 0 0 0 .094-.167.038.038 0 0 0 .01-.031.619.619 0 0 0 .053-.24c0-.053-.01-.106-.01-.158l-.346-1.778 3.714 2.155a1.403 1.403 0 0 0 .68.178ZM22.865 15.505a.719.719 0 0 0 .711.71h1.653a.711.711 0 0 0 0-1.422h-1.653a.712.712 0 0 0-.71.712ZM22.426 18.675l1.171 1.172a.717.717 0 1 0 1.015-1.015L23.44 17.66a.717.717 0 0 0-1.014 1.015ZM23.66 11.111l-1.171 1.161a.714.714 0 0 0 0 1.015.73.73 0 0 0 .512.21.688.688 0 0 0 .502-.21l1.172-1.161a.718.718 0 0 0-1.015-1.015ZM40.146 28.11a1.05 1.05 0 0 0-1.046-1.047H10.396a1.046 1.046 0 0 0 0 2.093H39.1a1.05 1.05 0 0 0 1.046-1.046ZM32.625 14.802h7.24a1.003 1.003 0 1 0 0-2.005h-7.24a1.003 1.003 0 1 0 0 2.005ZM32.625 19.656h7.24a1.003 1.003 0 1 0 0-2.005h-7.24a1.003 1.003 0 1 0 0 2.005Z"/><circle cx="31.855" cy="34.872" r="1.742" fill="#f4b942"/><path d="M31.866 37.284a3.229 3.229 0 0 0-3.227 3.227v1.363a.612.612 0 0 0 .614.614h4.333a6.274 6.274 0 0 1 1.362-2.881 3.226 3.226 0 0 0-3.082-2.323Z" fill="#f4b942"/><circle cx="46.784" cy="34.872" r="1.742" fill="#f4b942"/><path d="M46.773 37.284a3.216 3.216 0 0 0-3.082 2.323 6.44 6.44 0 0 1 1.362 2.88h4.333a.612.612 0 0 0 .614-.613V40.51a3.222 3.222 0 0 0-3.227-3.227ZM43.77 43.123a4.447 4.447 0 0 0-.727-2.01 4.784 4.784 0 0 0-.67-.76 4.426 4.426 0 0 0-6.096 0 4.783 4.783 0 0 0-.67.76 4.447 4.447 0 0 0-.726 2.01.65.65 0 0 1-.023.145c-.01.123-.022.235-.022.358v2.389a.476.476 0 0 0 .48.48h8.029a.477.477 0 0 0 .48-.48v-2.39a1.853 1.853 0 0 0-.034-.357.65.65 0 0 1-.022-.145Z" fill="#f4b942"/><circle cx="39.314" cy="36.023" r="2.356" fill="#f4b942"/><path d="M4.934 4.948h39.66v25.717l.045-.021a4.543 4.543 0 0 1 .43-.196c.14-.055.285-.099.43-.14.02-.006.038-.013.058-.018a4.684 4.684 0 0 1 1.042-.156V3.945a1.002 1.002 0 0 0-1.003-1.002H3.932c-.025 0-.045.012-.07.014a.985.985 0 0 0-.253.05.941.941 0 0 0-.104.039.98.98 0 0 0-.25.168c-.01.01-.025.017-.036.028l-.006.004L.283 6.26A1.001 1.001 0 0 0 0 6.958V41.73a1.002 1.002 0 0 0 1.003 1.002h24.742a3.616 3.616 0 0 1-.056-.288 3.243 3.243 0 0 1-.058-.57v-1.362a6.196 6.196 0 0 1 .042-.69c.007-.065.019-.128.028-.192a6.206 6.206 0 0 1 .137-.68q.065-.253.152-.496c.016-.046.031-.093.049-.138a6.152 6.152 0 0 1 .262-.6l.001-.002H4.934Z"/><path d="M9.35 33.152a1.05 1.05 0 0 0 1.046 1.046h16.778a4.706 4.706 0 0 1 .837-2.093H10.396a1.05 1.05 0 0 0-1.046 1.047Z"/></svg>