<svg xmlns="http://www.w3.org/2000/svg" viewBox="0 0 668 304" data-tags="preview"><path fill="#3C9" d="M467.6 83.9c-14.8.7-31.9 1.2-50.9 1.2-33.7 0-74.5 4.6-116.7.2-28.1-3-57.5-7.3-87-13.3l-1.7 3.2c30.1 5.4 60 9.3 88.5 12.1 42.3 4.2 83.1-.2 116.9.2 18.9.2 36 0 50.9-.4v-3.2z" opacity=".2"/><path fill="#3C9" d="M487.6 152.4c-16.8-3.3-36.5-7.6-58.4-13-35.5-8.8-76.6-20.6-120.1-35.6C278 93.1 245.7 80.7 213.3 67l-4.5 6.1c33.7 12.4 67 24.1 99 34.6 43.8 14.4 84.9 26.7 120.2 36.3 21.9 6 41.6 10.9 58.3 14.9 1.5.3 2.3-6.3 1.3-6.5zm-40.2-87.7c-14.2 2.8-31.8 5.8-51.8 8.1-14.2 1.6-29.6 2.9-46 3.5-16.4.5-33.7.3-51.6-1.1-17.8-1.5-36.2-4.3-54.3-9.3-6.5-1.8-12.9-3.9-19.2-6.3-2.5-1-5.5 5.6-3.2 6.3 6.9 2.2 13.9 4.1 20.9 5.7 18.7 4.2 37.4 6.5 55.5 7.7s35.5 1.3 52 .9 32.1-1.4 46.4-2.6c22.3-1.9 41.6-4.4 56.9-6.6 4.2-.8.3-7.5-5.6-6.3zm13.4 160.8c-3.2-1.5-7.2-3.2-12-5.1-13.8-5.5-34-12.2-59.1-16.5-12.5-2.2-26.3-3.8-40.9-4.3s-30.1 0-45.9 1.9c-15.9 1.9-32.1 5.2-48.3 10s-32.3 11.1-47.9 18.5l1.1 2.1v.1l1.1 2.1c15-8.1 30.6-14.9 46.5-20 15.9-5.2 32-8.8 47.7-10.8 15.7-2.1 31.1-2.6 45.6-2s28.1 2.3 40.5 4.7c24.8 4.7 44.6 12 58 17.8 3.7 1.6 7 3.2 9.7 4.5 2.2 1.1 5.3-2.3 3.9-3z" opacity=".2"/><path fill="#3C9" d="M447 246.4l7.2-6.2.3-.3 7.2-6.2c-.2-.2-2.4-2.5-6.8-6.2s-10.8-8.9-19.4-14.8c-17.1-11.9-43-26.8-76.4-38.5-16.7-5.9-35.2-10.9-55.1-14.5s-41.2-5.8-63.3-6.3c-20.1-.5-40.8.4-61.9 2.6-2.1.2-.7 11.6 1.3 11.2 20.4-3.7 40.8-5.6 60.5-5.6a323 323 0 0161.9 5.7c19.4 3.8 37.3 9.2 53.2 15.7 15.9 6.4 29.8 13.8 41.5 21.1s21.3 14.6 28.7 21c7.5 6.4 12.8 11.8 16.2 15.6 3.6 3.8 5.1 5.9 4.9 5.7z" opacity=".2"/><path fill="#FF6060" d="M470.1 211.9c-2.4-1.1-5-2.2-7.9-3.4-16.5-6.8-40.8-14.5-70.7-19.7a475.6 475.6 0 00-48.6-5.9c-17.4-1.3-35.7-1.8-54.7-1.5s-38.7 1.3-58.7 3c-14.2 1.3-28.5 2.9-42.9 4.8-5.9.8-3.4 9.2 2.9 8 13.6-2.7 27.2-5 40.7-6.9 19.7-2.7 39.3-4.2 58.2-4.8s37.2-.1 54.4 1.3c17.2 1.4 33.4 3.7 48 6.7 14.7 3 27.9 6.6 39.4 10.5s21.2 7.9 28.9 11.7c2.3 1.1 4.4 2.2 6.3 3.2 4.6 2.4 9.2-4.9 4.7-7z" opacity=".2"/><path fill="#3C9" d="M443.1 239.4l6.8-6.7.3-.3 6.8-6.7c-.1-.1-2.4-2.1-6.6-5.5-4.3-3.4-10.6-8.1-18.8-13.8-16.4-11.3-40.5-26.3-70.8-41.3-30.3-15.1-67-30.1-107.6-42.5a863.4 863.4 0 00-63.5-16.8l-2.1 11.6c21.9 3.1 43.1 7.5 63.3 13.1 20.2 5.6 39.4 12.2 57.1 19.6 17.7 7.3 33.9 15.3 48.5 23.5 29.1 16.2 51.2 32.9 65.6 45.4 7.2 6.2 12.6 11.4 16.1 15 3.4 3.5 5 5.5 4.9 5.4z" opacity=".2"/><path fill="#FF6060" d="M179.1 163.4c13.2-3.8 27.9-8.1 43.7-12.9 35.3-10.7 76.3-23.7 120.2-38.2 35.9-11.9 73.8-24.8 112.3-38l-11.1-12.6a1275.83 1275.83 0 01-224 79.8c-14.9 3.8-28.9 7-41.6 9.7l.5 12.2z" opacity=".2"/><path fill="#FF6060" d="M211.3 73.1c11.7 2.3 25.2 4.6 40 6.7 14 2 29.2 3.7 45.4 4.9 16.2 1.2 33.3 1.8 51.1 1.3 17.8-.5 36.2-2.2 54.7-5.9 9.2-1.9 18.5-4.3 27.6-7.5 5.6-1.9 11.1-4.2 16.5-6.7 3.4-1.6-2.4-8.7-6.3-6.6-4.2 2.3-8.5 4.3-12.9 6.2-8.5 3.6-17.4 6.5-26.3 8.8-17.9 4.5-36 6.7-53.5 7.6-17.6.8-34.6.2-50.6-1.1s-31.1-3.4-44.9-5.8c-14.2-2.4-27.1-5.2-38.3-7.9l-2.5 6z" opacity=".2"/><path fill="#F6C243" d="M206 230c3.6-1.7 4-2.2 10.9-4.8 13.8-5.2 34.1-11.6 59.4-15.7 25.2-4.2 55.3-6 87.2-2.3 16 1.8 32.3 4.9 48.6 9.5 16.3 4.6 32.4 10.6 48 17.9l1-2.2v-.1l1-2.2c-16.2-6.6-32.7-12.1-49.3-16.3-16.5-4.2-33.1-7-49.1-8.7-32.2-3.3-62.4-1.7-87.8 2-25.4 3.8-46.1 9.6-60.3 14.4-7.1 2.4-7.7 2.8-11.4 4.3-1.9.8 0 5.1 1.8 4.2z" opacity=".2"/><path fill="#FF6060" d="M193.3 203.5c.9-.7 2.3-1.7 6.4-4.3 8.2-5.2 18.7-11 31.2-16.7s27.2-11.1 43.6-15.6c16.5-4.5 34.7-8.1 54.3-10.1a372 372 0 0161.9-1.3l8.1.6 4.1.3 2 .2 2 .2c5.4.6 10.9 1.2 16.4 1.9l16.5 2.7c1.4.2 2.8.5 4.1.8 1.4.3 2.8.6 4.1.8 2.8.6 5.5 1.1 8.3 1.7 9.4 2.1 18.8 4.5 28.2 7.1 1.7.5 4.7-13.9 2.8-14.2-32.8-5.7-65.3-9.5-96.4-10.3-21.9-.6-43.1 0-63.1 1.8s-38.7 4.8-55.8 8.7c-17.1 3.8-32.5 8.4-46 13.3s-24.9 9.9-34.2 14.5a49.6 49.6 0 01-5.2 2.4c-1.8.8 5.8 16.2 6.7 15.5z" opacity=".2"/><path fill="#F6C243" d="M204.6 229.1c1.1-.6 2.3-1.3 3.6-2 2.3-1.2 4.8-2.5 7.6-3.9 7.9-3.8 17.7-7.9 29.4-11.8 11.6-3.9 25.1-7.6 40-10.7 14.9-3 31.3-5.4 48.8-6.8 17.5-1.4 36-1.9 55.2-1.3a576.8 576.8 0 0186.6 9.3c1.2.2 5.4-6.8 3.7-7-10.3-1.2-20.5-2.3-30.6-3.3-20.3-1.8-40.3-2.8-59.6-3.1-19.3-.3-38 .2-55.6 1.5s-34.2 3.4-49.3 6c-30.4 5.3-55 13.1-71.7 20-3.5 1.4-6.6 2.8-9.4 4.1-1.7.8-1.3 10.4 1.3 9z" opacity=".2"/><path fill="#F6C243" d="M206 233.6l7.2 6.3.3.3 7.2 6.3c-.1.2 1.4-1.9 4.7-5.6 3.3-3.7 8.5-9.1 15.6-15.6s16-14.1 26.9-22.1 23.7-16.4 38.2-24.7c14.6-8.3 30.9-16.3 48.7-23.7 17.8-7.4 37.1-14 57.5-19.5 22.9-6.2 47.2-10.9 72.1-13.9l-3.3-12c-24.5 5.2-48.4 11.2-71 18-41 12.4-78 27.4-108.4 42.8-15.2 7.7-28.9 15.4-40.7 22.7s-21.9 14.2-30 20.2-14.3 11-18.4 14.6-6.4 5.7-6.6 5.9z" opacity=".2"/><path fill="#FFF" d="M222.1 68.5l-5.1-6.1c7.5-6.3 15.8-11.6 24.6-15.8l3.5 7.2c-8.3 3.9-16 8.9-23 14.7zm-27.9 35.2l-7.2-3.6c6.6-13.3 15.6-25.1 26.7-35l5.3 6a112.8 112.8 0 00-24.8 32.6zm-11 39l-8-.7c1.2-13.3 4.6-26.1 10.2-38.2l7.3 3.3c-5.2 11.3-8.4 23.3-9.5 35.6zm37.9 103.8a117.03 117.03 0 01-46.4-93.7c0-2.3.1-4.5.2-6.8l8 .5a109.26 109.26 0 0043.1 93.7l-4.9 6.3zm12.7 8.5c-3.4-1.9-6.7-4.1-9.9-6.4l4.7-6.5c3 2.1 6.1 4.1 9.2 5.9l-4 7zM430.3 57.6c-2.4-1.4-4.9-2.7-7.4-3.9l3.5-7.2c2.7 1.3 5.3 2.7 7.9 4.2l-4 6.9zm27.9 23c-7.3-8.3-15.7-15.5-25.1-21.3l4.2-6.8c10.1 6.2 19.1 13.9 26.9 22.8l-6 5.3zm24.5 48.5c-3.6-16.5-11.2-32.2-21.9-45.4l6.2-5c11.5 14.2 19.6 31 23.5 48.8l-7.8 1.6zm4.2 62l-7.6-2.6a110 110 0 004.2-54.9l7.9-1.4c1.2 6.8 1.8 13.7 1.8 20.6.1 13.1-2 26-6.3 38.3zm-41.6 56.6l-4.7-6.4a110 110 0 0037.4-48.9l7.5 2.9c-8.2 20.9-22 39-40.2 52.4zm-11.1 7.3l-4-6.9c2.7-1.6 5.4-3.3 7.9-5l4.6 6.6c-2.7 1.8-5.6 3.6-8.5 5.3z"/><path d="M245.1 53.8l-3.5-7.2c-8.8 4.2-17.1 9.6-24.6 15.8l5.1 6.1c7-5.8 14.7-10.8 23-14.7zm-25.9 17.3l-5.3-6c-11.1 10-20.1 21.7-26.7 35l7.2 3.6c6-12.3 14.4-23.3 24.8-32.6zm-26.6 36l-7.3-3.3c-5.5 12.1-9 24.9-10.2 38.2l8 .7c1.2-12.3 4.4-24.3 9.5-35.6zm-9.9 45.7c0-2.1.1-4.2.2-6.3l-8-.5a117.03 117.03 0 0046.2 100.5l4.9-6.4a108.79 108.79 0 01-43.3-87.3zm41.2 95.8c3.2 2.3 6.5 4.4 9.9 6.4l4-6.9c-3.1-1.8-6.2-3.8-9.2-5.9l-4.7 6.4z" fill="#9D81EB" opacity=".2"/><path d="M434.3 50.7c-2.6-1.5-5.2-2.9-7.9-4.2l-3.5 7.2c2.5 1.2 5 2.5 7.4 3.9l4-6.9zm23.9 29.9l6-5.3c-7.8-8.9-16.9-16.6-26.9-22.8l-4.2 6.8c9.4 5.9 17.9 13 25.1 21.3zm24.5 48.5l7.8-1.7c-3.9-17.7-12-34.6-23.5-48.8l-6.2 5c10.7 13.3 18.3 29 21.9 45.5zm8.8 3.1l-7.9 1.4a110.9 110.9 0 01-4.2 54.9l7.6 2.6c4.2-12.3 6.4-25.2 6.4-38.3-.1-6.9-.7-13.8-1.9-20.6zm-50.9 109.1l4.7 6.4c18.2-13.4 32-31.5 40.1-52.5l-7.5-2.9c-7.5 19.6-20.4 36.5-37.3 49zm-10.4 6.7l4 6.9c2.9-1.7 5.8-3.5 8.5-5.4l-4.6-6.6c-2.5 1.9-5.2 3.6-7.9 5.1z" fill="#40A3F6" opacity=".2"/><path d="M241.8 45.9l-.5.2c-8.8 4.2-17.2 9.6-24.7 15.9l-.4.3 5.8 6.9.4-.3c7-5.8 14.7-10.8 22.8-14.7l.5-.2-3.9-8.1zm-19.6 21.9l-4.5-5.4c7.3-6 15.2-11.1 23.7-15.2l3 6.3c-7.9 3.9-15.4 8.7-22.2 14.3zM194.7 104c6.2-12.3 14.5-23.3 24.8-32.5l.4-.3-6-6.7-.4.3c-11.1 10-20.2 21.8-26.8 35.2l-.2.4 8 4 .2-.4zm-6.9-4.1c6.5-12.9 15.3-24.4 26-34.1l4.7 5.2a108.9 108.9 0 00-24.4 32l-6.3-3.1zm-4.1 42.9c1.1-12.3 4.3-24.2 9.4-35.4l.2-.5-8.2-3.7-.2.5c-5.6 12.1-9 25-10.2 38.3v.5l9 .8v-.5zm-8-1.3c1.2-12.9 4.5-25.3 9.9-37.1l6.4 2.9c-5 11-8.1 22.7-9.3 34.8l-7-.6zm50.6 98.3a108.6 108.6 0 01-42.9-93.3v-.5l-9-.5v.5a117.55 117.55 0 0046.4 100.9l.4.3 5.5-7.2-.4-.2zm-5.3 6a116.56 116.56 0 01-45.6-99.2l7 .4a109.36 109.36 0 0042.9 93.2l-4.3 5.6zm7.9-4.1l-.4-.3-5.2 7.3.4.3c3.2 2.3 6.5 4.4 9.9 6.4l.4.2 4.5-7.8-.4-.2c-3.2-1.8-6.3-3.8-9.2-5.9zm4.7 12.6c-3.1-1.8-6.1-3.7-9-5.8l4.1-5.7c2.7 1.9 5.5 3.7 8.4 5.4l-3.5 6.1z" fill="#9D81EB"/><path d="M430.5 58.3l4.5-7.8-.4-.2c-2.6-1.5-5.3-2.9-7.9-4.2l-.5-.2-3.9 8.1.5.2c2.5 1.2 5 2.5 7.3 3.9l.4.2zm-3.9-11.1c2.4 1.1 4.7 2.4 7 3.7l-3.5 6.1c-2.1-1.2-4.3-2.4-6.5-3.4l3-6.4zm6.3 12.6c9.3 5.8 17.7 12.9 25 21.2l.3.4 6.8-5.9-.3-.4a116 116 0 00-27-22.9l-.4-.3-4.7 7.7.3.2zm4.6-6.6c9.7 6.1 18.5 13.5 26.1 22.1l-5.3 4.6c-7.1-8.1-15.3-15.1-24.5-20.8l3.7-5.9zM460.4 84a108.7 108.7 0 0121.8 45.2l.1.5 8.8-1.9-.1-.5c-3.9-17.8-12.1-34.7-23.6-49l-.3-.4-7 5.7.3.4zm6.5-4.7a117.6 117.6 0 0123 47.7l-6.8 1.5c-3.7-16.3-11.1-31.7-21.6-44.8l5.4-4.4zm25.1 52.8l-.1-.5-8.9 1.6.1.5a109.25 109.25 0 01-4.2 54.6l-.2.5 8.5 2.9.2-.5a118.99 118.99 0 004.6-59.1zm-5.4 58.4l-6.6-2.3c3.8-11.4 5.8-23.3 5.8-35.4 0-6.3-.5-12.6-1.6-18.8l6.9-1.2c1.1 6.6 1.7 13.3 1.7 20 0 12.9-2.1 25.6-6.2 37.7zm-9.1 1.7c-7.5 19.4-20.4 36.3-37.2 48.7l-.4.3 5.3 7.2.4-.3c18.2-13.4 32.2-31.7 40.3-52.7l.2-.5-8.4-3.2-.2.5zm7.3 3.3a117 117 0 01-39.4 51.5l-4.2-5.6c16.7-12.4 29.5-29.1 37-48.4l6.6 2.5zm-46.9 47.1c-2.6 1.8-5.2 3.5-7.9 5l-.4.2 4.5 7.8.4-.2c2.9-1.7 5.8-3.5 8.6-5.4l.4-.3-5.1-7.4-.5.3zm-3.5 11.7l-3.5-6.1c2.4-1.4 4.8-2.9 7.1-4.5l4 5.7c-2.4 1.7-5 3.4-7.6 4.9z" fill="#40A3F6"/><path d="M516.3 153.9c-.2.6-.4 1.3-.6 1.9-.1-.6-.3-1.2-.5-1.9l-2-5.5h-1.1l3.1 8.6h1l3.1-8.6h-1.1l-1.9 5.5zm7.9-5.5l-3.4 8.6h1l1.1-2.7h3.4l1.1 2.7h1l-3.4-8.6h-.8zm-1 5l1-2.7c.2-.4.3-.9.4-1.2.1.5.3.9.4 1.2l1 2.7h-2.8zm9.4-5h-1v8.6h4.7v-.9h-3.7zm12.5 5.6c0 .7-.2 1.3-.6 1.7s-.9.6-1.7.6-1.3-.2-1.7-.6-.6-.9-.6-1.6v-5.6h-1v5.5c0 1 .3 1.8.8 2.3s1.4.8 2.4.8 1.8-.3 2.4-.8.9-1.3.9-2.3v-5.5h-1v5.5h.1zm4.3 3h4.8v-.9h-3.8V153h3.5v-.9h-3.5v-2.8h3.8v-.9h-4.8zm15.4-.9l1.9-1.9c.8-.8 1.4-1.5 1.7-2s.5-1.1.5-1.6c0-.7-.2-1.2-.7-1.7s-1.1-.6-1.9-.6c-.9 0-1.8.3-2.6 1l.5.7c.4-.3.7-.5 1.1-.6s.7-.2 1-.2c.5 0 .9.1 1.2.4s.4.6.4 1.1c0 .3-.1.6-.2.9s-.3.6-.5.9-.7.8-1.4 1.5l-2.3 2.3v.8h5.6v-.9h-4.3v-.1zm-462.5-2.2c-.2.6-.4 1.3-.6 1.9-.1-.6-.3-1.2-.5-1.9l-2-5.5h-1.1l3.1 8.6h1l3.1-8.6h-1.1l-1.9 5.5zm7.9-5.5l-3.4 8.6h1l1.1-2.7h3.4l1.1 2.7h1l-3.4-8.6h-.8zm-1 5l1-2.7c.2-.4.3-.9.4-1.2.1.5.3.9.4 1.2l1 2.7h-2.8zm9.4-5h-1v8.6h4.7v-.9h-3.7zm12.5 5.6c0 .7-.2 1.3-.6 1.7s-.9.6-1.7.6-1.3-.2-1.7-.6-.6-.9-.6-1.6v-5.6h-1v5.5c0 1 .3 1.8.8 2.3s1.4.8 2.4.8 1.8-.3 2.4-.8.9-1.3.9-2.3v-5.5h-1v5.5h.1zm4.3 3h4.8v-.9h-3.8V153h3.5v-.9h-3.5v-2.8h3.8v-.9h-4.8zm14.7-6.8l.5.7c.8-.7 1.3-1.1 1.4-1.1s.2-.2.3-.3v7.5h.9v-8.6h-.8l-2.3 1.8z" fill="#A9A9B2"/></svg>