<svg xmlns="http://www.w3.org/2000/svg" data-tags="selected charts" viewBox="0 0 42 28"><path fill="#CBD756" d="M19.02 17.4a32.74 32.74 0 01-7.26-6.13 35.86 35.86 0 013.41-1.6 26.77 26.77 0 0014.6 4.17 28.9 28.9 0 009.65-1.58l-.47-1.17c-.14.06-11.41 4.42-22.3-1.99a31.9 31.9 0 0121.14-.12l.4-1.19a33.1 33.1 0 00-22.86.47c-1.95-1.31-3.88-3-5.71-5.14l-.96.8c1.7 2 3.47 3.61 5.28 4.91a37.46 37.46 0 00-2.97 1.45 18.17 18.17 0 01-3.02-5.77l-1.2.36a19.52 19.52 0 003.1 6.04 34.77 34.77 0 00-7.35 5.64l.93.85c.06-.07 2.66-2.86 7.2-5.5a32.7 32.7 0 007.06 6.18c-5.2 2.89-6.65 6.83-6.75 7.13l1.18.4c.01-.02 1.11-3.06 4.94-5.63a17.75 17.75 0 011.89-1.1A58.27 58.27 0 0032.85 25l.34-1.2c-.12-.04-6.44-1.8-12.81-5.57 3.94-1.62 9.9-2.65 18.7-1.29l.2-1.24c-9.54-1.47-15.97-.28-20.25 1.7z"/><path d="M27.65.74v3a10.27 10.27 0 019.46 14.25l2.76 1.17A13.16 13.16 0 0040.91 14C40.91 6.69 34.97.74 27.65.74zm0 23.52v3c5.25 0 8.46-2.9 10.68-5.4l-2.26-1.99c-2.7 3.08-5.22 4.39-8.42 4.39zM4.1 14c0-1.39.27-2.73.8-4L2.13 8.85A13.17 13.17 0 001.09 14c0 7.31 5.94 13.26 13.25 13.26v-3C8.7 24.26 4.08 19.66 4.08 14zm-.42-7.85l2.26 1.98c2.7-3.08 5.22-4.39 8.42-4.39v-3c-5.25 0-8.46 2.9-10.68 5.4z" fill="#4CD2E0"/></svg>