<svg xmlns="http://www.w3.org/2000/svg" data-tags="selected charts" viewBox="0 0 35 35"><path fill="#CBD756" d="M23.16 20.5h-2.41l-1.36-5.24a26.43 26.43 0 01-.46-2.34 27.57 27.57 0 01-.46 2.35l-1.35 5.24h-2.4l-2.55-10h2.09l1.27 5.46a32.63 32.63 0 01.49 2.61 18.2 18.2 0 01.46-2.47l1.46-5.6h2l1.46 5.6.24 1.15c.1.52.17.96.22 1.33a24 24 0 01.49-2.62l1.27-5.46h2.09l-2.55 10z"/><path d="M12.31 1.25c.21 0 .42.04.64.12s.43.16.65.26l.39-.98a3.84 3.84 0 00-1.68-.4c-.54 0-1.02.12-1.42.35s-.71.58-.93 1.03-.33.97-.33 1.56c0 .94.22 1.67.66 2.17s1.08.76 1.91.76c.58 0 1.1-.1 1.57-.3V4.81c-.57.2-1.05.3-1.46.3-.95 0-1.43-.64-1.43-1.91 0-.61.13-1.09.38-1.43s.6-.52 1.05-.52zm.02 30.2c0 .45-.09.77-.27.98s-.46.3-.86.3c-.4 0-.7-.1-.88-.3s-.26-.53-.26-.97v-3.5H8.85v3.69c0 .65.2 1.16.61 1.54s.98.57 1.71.57c.49 0 .91-.09 1.27-.26s.63-.41.81-.73.29-.69.29-1.1v-3.7h-1.21v3.48zM29.1 7.04V2.33h-1.21v5.71h3.53v-1z" fill="#40A3F5"/><path d="M33.48 20.68a3.04 3.04 0 00-2.4-.98 3.1 3.1 0 00-2.44.96 3.91 3.91 0 00-.86 2.7c0 1.18.28 2.08.86 2.73.57.64 1.38.96 2.43.96 1.03 0 1.83-.33 2.41-.98s.87-1.55.87-2.7c0-1.14-.3-2.04-.87-2.7zm-.62 4.9c-.4.5-1 .74-1.79.74-.78 0-1.38-.25-1.8-.75-.4-.5-.61-1.23-.61-2.2 0-.95.2-1.68.62-2.18.4-.5 1-.75 1.8-.75.79 0 1.38.25 1.78.75.4.5.6 1.22.6 2.18 0 .97-.2 1.7-.6 2.2zM3.34 11.82H1.15v7.13h1.98c1.2 0 2.12-.3 2.76-.93.64-.62.96-1.53.96-2.7 0-1.1-.3-1.97-.92-2.58s-1.48-.92-2.6-.92zm1.88 5.68c-.5.5-1.24.73-2.23.73H1.98v-5.7h1.2c.93 0 1.62.24 2.09.71s.7 1.17.7 2.1c0 .96-.25 1.68-.75 2.17z" fill="#4CD2E0"/></svg>