<svg xmlns="http://www.w3.org/2000/svg" data-tags="charts" viewBox="0 0 35 35"><path d="M12.2 6.12c.58 0 1.1-.1 1.57-.29V4.81c-.57.2-1.06.3-1.46.3-.96 0-1.43-.64-1.43-1.91 0-.61.12-1.09.38-1.43s.6-.51 1.06-.51c.21 0 .42.04.64.11s.43.16.64.27l.39-.98a3.82 3.82 0 00-1.67-.4c-.54 0-1.02.12-1.42.36s-.72.58-.93 1.03-.34.95-.34 1.54c0 .94.22 1.67.66 2.17s1.08.76 1.91.76zm.13 25.33c0 .44-.09.77-.27.97s-.47.31-.86.31c-.41 0-.7-.1-.88-.31s-.27-.53-.27-.97v-3.5h-1.2v3.68c0 .65.2 1.17.61 1.54s.98.56 1.71.56c.49 0 .91-.08 1.27-.25s.63-.41.82-.73.28-.69.28-1.11v-3.7h-1.21v3.51zm21.15-10.77a3.05 3.05 0 00-2.4-.98 3.1 3.1 0 00-2.44.96 3.92 3.92 0 00-.86 2.7c0 1.17.29 2.08.86 2.72.57.64 1.38.96 2.43.96 1.03 0 1.83-.33 2.41-.98s.87-1.55.87-2.7a3.9 3.9 0 00-.87-2.68zm-.62 4.9c-.4.5-1 .75-1.79.75-.78 0-1.38-.25-1.79-.75-.41-.5-.62-1.23-.62-2.2 0-.95.21-1.68.62-2.18.41-.5 1.01-.75 1.8-.75s1.38.25 1.79.75c.4.5.6 1.22.6 2.18 0 .96-.2 1.7-.61 2.2zm-10.51-9.61a26.71 26.71 0 00-.49 2.62c-.05-.37-.12-.81-.22-1.33s-.17-.9-.24-1.15l-1.46-5.6h-2l-1.46 5.6a18.85 18.85 0 00-.47 2.48c-.1-.74-.26-1.61-.49-2.62l-1.28-5.46h-2.08l2.55 9.99h2.41l1.35-5.24a25.46 25.46 0 00.46-2.36 26 26 0 00.47 2.34l1.35 5.25h2.41l2.54-9.99h-2.09l-1.26 5.47zm9.07-8.93H29.1V2.33h-1.21v5.71h3.53zM3.34 11.81H1.15v7.14h1.98c1.2 0 2.12-.31 2.76-.94.64-.62.96-1.52.96-2.7 0-1.1-.31-1.96-.92-2.58s-1.48-.92-2.59-.92zm1.88 5.7c-.5.49-1.24.73-2.23.73H1.98v-5.7h1.21c.92 0 1.62.24 2.08.71s.7 1.17.7 2.1c0 .95-.25 1.67-.75 2.16z"/></svg>