<svg xmlns="http://www.w3.org/2000/svg" data-tags="empty state" viewBox="0 0 200 93"><path d="M10.5 49h-1v2.5H7v1h2.5V55h1v-2.5H13v-1h-2.5zm187 16.5V63h-1v2.5H194v1h2.5V69h1v-2.5h2.5v-1zm-194-35a3 3 0 100 6 3 3 0 000-6zm0 5a2 2 0 110-4 2 2 0 010 4zm188 39a3 3 0 100 6 3 3 0 000-6zm0 5a2 2 0 110-4 2 2 0 010 4zm-139 11h1v-33h15v33h1v-34h-17zm20 0h1v-50h15v50h1v-51h-17zm20 0h1v-38h14v38h1v-39h-16z"/><g opacity=".5"><path d="M127.5 40h1v4h-1zm-7.5-8.4h4v1h-4zm-8.5 50.3h1v4h-1zm16-25.8h1v4h-1zm0-24h1v4h-1zm0 16h1v4h-1zm-16 25.8h1v4h-1zm.5-42.3h4v1h-4zM128.5 88h-1v2.4h-15v-.6h-1v.6H46v1h108v-1h-25.5zm-17-46.2h1v4h-1zm0 8h1v4h-1zm0 8h1v4h-1zm0 8h1v4h-1zm0-32h1v4h-1zm16 46.2h1v4h-1zm0-16h1v4h-1zm0 8h1v4h-1z"/><path d="M131.5 86h1v4h-1zm0-8h1v4h-1zm9.5-51.5h4v1h-4zm-8 0h4v1h-4zM131.5 70h1v4h-1zm0-40h1v4h-1zm0 8h1v4h-1zm0 16h1v4h-1zm0 8h1v4h-1zm0-16h1v4h-1z"/></g></svg>