<svg xmlns="http://www.w3.org/2000/svg" viewBox="0 0 668 304" data-tags="preview"><path d="M546 98h44v154h-44zm-355 41h44v113h-44zm88 30h44v83h-44zm178-30h44v113h-44zm-89-30h44v143h-44zm-266 80.2h43.2v62.7H102z" fill="#9E81EB" fill-opacity=".05" fill-rule="evenodd" clip-rule="evenodd"/><path d="M545.5 97.5v155h45v-155h-45zm44 154h-43v-153h43v153zm-399 1h45v-114h-45v114zm1-113h43v112h-43v-112zm87 113h45v-84h-45v84zm1-83h43v82h-43v-82zm177 83h45v-114h-45v114zm1-113h43v112h-43v-112zm-90 113h45v-144h-45v144zm1-143h43v142h-43v-142zm-267 142.8h44.2v-63.7h-44.2v63.7zm1-62.6h42.2v61.7h-42.2v-61.7z" fill="#9E81EB"/><path d="M326.5 276.4h-1.1l-2.1 3.4-2.1-3.4h-1.1l2.7 4.1-2.8 4.5h1.2l2.3-3.8 2.3 3.8h1.1l-3.1-4.5zm10.9 0L334 285h1l1.1-2.7h3.4l1.1 2.7h1l-3.4-8.6h-.8zm-1 5l1-2.7c.2-.4.3-.8.4-1.2.1.5.3.9.4 1.2l1 2.7h-2.8zm13.8-5h-1.1l-2.1 3.4-2.1-3.4h-1.1l2.7 4.1-2.8 4.5h1.1l2.3-3.8 2.3 3.8h1.1l-3-4.5zm3.5 0h1v8.6h-1zm7.9 3.8c-.5-.2-.9-.4-1.2-.5-.3-.1-.5-.3-.6-.5-.1-.2-.2-.4-.2-.7 0-.4.1-.7.4-.9.3-.2.7-.3 1.2-.3.7 0 1.4.1 2.1.4l.3-.9c-.7-.3-1.4-.5-2.3-.5-.8 0-1.5.2-2 .6-.5.4-.7.9-.7 1.6 0 .6.2 1.1.5 1.5.3.4.9.7 1.7 1 .6.2 1 .4 1.3.5.3.1.5.3.6.5.1.2.2.4.2.7 0 .5-.2.8-.5 1.1s-.8.4-1.5.4c-.4 0-.8 0-1.2-.1-.4-.1-.7-.3-1.1-.4v1c.5.3 1.3.4 2.3.4.9 0 1.7-.1 2.2-.6s.8-1 .8-1.8c0-.6 0-1.2-.4-1.5-.4-.3-1-.7-1.9-1zm-341.2-121v1.1l4.3 2.3-4.3 2.3v1.1l5.3-2.9H29v-1h-3.4zm0-10.4l8.6 3.4v-1l-2.7-1.1v-3.4l2.7-1.1v-1l-8.6 3.4v.8zm2.3-.8l2.7-1v2.8l-2.7-1c-.4-.2-.8-.3-1.2-.4.5-.1.9-.3 1.2-.4zm-2.3-12v1.1l3.4 2.1-3.4 2.1v1.1l4.1-2.7 4.5 2.8v-1.1l-3.8-2.3 3.8-2.3v-1.1l-4.5 3zm0-4.5H29v1h-8.6zm6.3-9.2c-.6 0-1.2 0-1.5.4s-.7 1-1 1.9c-.2.5-.4.9-.5 1.2-.1.3-.3.5-.5.6-.2.1-.4.2-.7.2-.4 0-.7-.1-.9-.4-.2-.3-.3-.7-.3-1.2 0-.7.1-1.4.4-2.1l-.9-.3c-.3.7-.5 1.4-.5 2.3 0 .8.2 1.5.6 2 .4.5.9.7 1.6.7.6 0 1.1-.2 1.5-.5.4-.3.7-.9 1-1.7.2-.6.4-1 .5-1.3.1-.3.3-.5.5-.6s.4-.2.7-.2c.5 0 .8.2 1.1.5.3.3.4.8.4 1.5 0 .4 0 .8-.1 1.2-.1.4-.3.7-.4 1.1h1c.3-.5.4-1.3.4-2.3 0-.9-.1-1.7-.6-2.2s-1-.8-1.8-.8zm25.8 129.2V30h-1v222.5H640v-1z" fill="#A9A9B2"/></svg>