<svg xmlns="http://www.w3.org/2000/svg" viewBox="0 0 668 304" data-tags="preview"><path d="M81.8 159h75v93h-75zm114-13h75v106h-75zm113-31h75v137h-75zm113-22h75v159h-75zm113-11h75v170h-75z" fill="#9E81EB" fill-opacity=".05" fill-rule="evenodd" clip-rule="evenodd"/><path fill="#9E81EB" d="M157 252H82v-93h75v93zm-74-1h73v-91H83v91zm188 1h-75V146h75v106zm-74-1h73V147h-73v104zm187 1h-75V115h75v137zm-74-1h73V116h-73v135zm187 1h-75V93h75v159zm-74-1h73V94h-73v157zm187 1h-75V82h75v170zm-74-1h73V83h-73v168z"/><path fill="#40A3F5" d="M446.9 220.6l-.2-.2L300.9 88.6l-134.9 60-.3-.2-110-64 .6-.8L166 147.4l135.1-60 .2.2 145.8 131.8 186.7-64.9.4 1z"/><g fill="#A9A9B2"><path d="M326.5 276.4h-1.1l-2.1 3.4-2.1-3.4h-1.1l2.7 4.1-2.8 4.5h1.2l2.3-3.8 2.3 3.8h1.1l-3.1-4.5zm10.9 0L334 285h1l1.1-2.7h3.4l1.1 2.7h1l-3.4-8.6h-.8zm-1 5l1-2.7c.2-.4.3-.8.4-1.2.1.5.3.9.4 1.2l1 2.7h-2.8zm13.8-5h-1.1l-2.1 3.4-2.1-3.4h-1.1l2.7 4.1-2.8 4.5h1.1l2.3-3.8 2.3 3.8h1.1l-3-4.5zm3.5 0h1v8.6h-1zm7.9 3.8c-.5-.2-.9-.4-1.2-.5-.3-.1-.5-.3-.6-.5-.1-.2-.2-.4-.2-.7 0-.4.1-.7.4-.9.3-.2.7-.3 1.2-.3.7 0 1.4.1 2.1.4l.3-.9c-.7-.3-1.4-.5-2.3-.5-.8 0-1.5.2-2 .6-.5.4-.7.9-.7 1.6 0 .6.2 1.1.5 1.5.3.4.9.7 1.7 1 .6.2 1 .4 1.3.5.3.1.5.3.6.5.1.2.2.4.2.7 0 .5-.2.8-.5 1.1s-.8.4-1.5.4c-.4 0-.8 0-1.2-.1-.4-.1-.7-.3-1.1-.4v1c.5.3 1.3.4 2.3.4.9 0 1.7-.1 2.2-.6s.8-1 .8-1.8c0-.6 0-1.2-.4-1.5-.4-.3-1-.7-1.9-1zm-341.2-121v1.1l4.3 2.3-4.3 2.3v1.1l5.3-2.9H29v-1h-3.4zm0-10.4l8.6 3.4v-1l-2.7-1.1v-3.4l2.7-1.1v-1l-8.6 3.4v.8zm2.3-.8l2.7-1v2.8l-2.7-1c-.4-.2-.8-.3-1.2-.4.5-.1.9-.3 1.2-.4zm-2.3-12v1.1l3.4 2.1-3.4 2.1v1.1l4.1-2.7 4.5 2.8v-1.1l-3.8-2.3 3.8-2.3v-1.1l-4.5 3zm0-4.5H29v1h-8.6zm6.3-9.2c-.6 0-1.2 0-1.5.4s-.7 1-1 1.9c-.2.5-.4.9-.5 1.2-.1.3-.3.5-.5.6-.2.1-.4.2-.7.2-.4 0-.7-.1-.9-.4-.2-.3-.3-.7-.3-1.2 0-.7.1-1.4.4-2.1l-.9-.3c-.3.7-.5 1.4-.5 2.3 0 .8.2 1.5.6 2 .4.5.9.7 1.6.7.6 0 1.1-.2 1.5-.5.4-.3.7-.9 1-1.7.2-.6.4-1 .5-1.3.1-.3.3-.5.5-.6s.4-.2.7-.2c.5 0 .8.2 1.1.5.3.3.4.8.4 1.5 0 .4 0 .8-.1 1.2-.1.4-.3.7-.4 1.1h1c.3-.5.4-1.3.4-2.3 0-.9-.1-1.7-.6-2.2s-1-.8-1.8-.8zM417 245h-2.5V99h2.5l-3-6-3 6h2.5v146H411l2.5 5 .5 1 .5-1zm-25.1-39.6v1.1l8.6-3.1v-1l-8.6-3.1v1.1l5.5 1.9c.6.3 1.3.5 1.9.6-.6.1-1.3.3-1.9.5l-5.5 2zm8.7-13v-.8h-4.4c-.7 0-1.3.2-1.6.6-.3.4-.5.9-.5 1.7 0 .3 0 .8.1 1.1.1.3.2.7.4 1l.7-.3c-.3-.7-.5-1.3-.5-1.8 0-.4.2-.8.4-1s.6-.3 1.1-.3h.4v1.1c0 2.1.7 3.1 2 3.1.6 0 1.1-.1 1.4-.5.3-.4.5-.9.5-1.5 0-.5-.1-.8-.2-1.2-.1-.4-.4-.7-.8-1l.9-.2h.1zm-.8 2.2c0 .4-.1.8-.3 1-.2.2-.4.3-.8.3-.5 0-.7-.1-1-.5-.3-.4-.4-.9-.4-1.7v-1h.6c.6 0 1.1.2 1.4.5s.5.8.5 1.4zm-8.4-7.9h9.1v1h-9.1zm6.9-5H394v.9h4.2c.8 0 1.4-.2 1.8-.6.4-.4.6-1 .6-1.8 0-.4-.2-.9-.3-1.2-.1-.3-.4-.6-.7-.8v-.1l.9-.1v-.8h-6.4v1h3.4c.8 0 1.4.2 1.8.5.4.3.6.8.6 1.5 0 .5-.1.8-.4 1.1-.3.3-.7.4-1.2.4zm1-13.4c.3.7.4 1.4.4 2.1 0 .6-.2 1.1-.6 1.5-.4.4-.9.6-1.7.6v-4.4h-.6c-.9 0-1.6.2-2.1.7s-.8 1.1-.8 1.9c0 .9.3 1.6.9 2.1.6.5 1.5.8 2.5.8s1.8-.3 2.4-.8c.6-.5.9-1.3.9-2.2 0-.5-.1-1-.1-1.3s-.2-.7-.3-1h-.9zm-2.6 4.2c-.6 0-1.1-.2-1.4-.5s-.5-.7-.5-1.2.2-1 .5-1.3.8-.4 1.4-.4v3.4zm3.7-14.9v-1h-3.3l-5.2-2.9v1.1l4.3 2.3-4.4 2.3v1.1l5.3-2.9zm-6-7.4c-.6-.8-1-1.3-1.1-1.4l-.3-.3h7.5v-.9h-8.6v.8l1.8 2.3.7-.5zM185.1 103l3.1-8.6h-1.1l-1.9 5.5c-.3.6-.5 1.3-.6 1.9-.1-.6-.3-1.3-.5-1.9l-2-5.5H181l3.1 8.6h1zm7.6.1c.5 0 .8-.1 1.2-.2.4-.1.7-.4 1-.8l.2.9v.1h.8v-4.4c0-.7-.2-1.3-.6-1.6-.4-.3-.9-.5-1.7-.5-.3 0-.8 0-1.1.1-.3.1-.7.2-1 .4l.3.7c.7-.3 1.3-.5 1.8-.5.4 0 .8.2 1 .4.2.2.3.6.3 1.1v.4h-1.1c-2.1 0-3.1.7-3.1 2 0 .6.1 1.1.5 1.4.4.3.9.5 1.5.5zm-.6-2.9c.4-.3.9-.4 1.7-.4h1v.6c0 .6-.2 1.1-.5 1.4s-.8.5-1.4.5c-.4 0-.8-.1-1-.3-.2-.2-.3-.4-.3-.8 0-.5.1-.7.5-1zm7.7-6.3h1v9.1h-1zm7.5 9.2c.4 0 .9-.2 1.2-.3s.6-.4.8-.7h.1l.1.9h.8v-6.4h-1v3.4c0 .8-.2 1.4-.5 1.8-.3.4-.8.6-1.5.6-.5 0-.8-.1-1.1-.4s-.4-.7-.4-1.2v-4.3h-.9v4.2c0 .8.2 1.4.6 1.8.4.4 1 .6 1.8.6zm9.6 0c.5 0 1-.1 1.3-.1s.7-.2 1-.3v-.9c-.7.3-1.4.4-2.1.4-.6 0-1.1-.2-1.5-.6-.4-.4-.6-.9-.6-1.7h4.4v-.6c0-.9-.2-1.6-.7-2.1s-1.1-.8-1.9-.8c-.9 0-1.6.3-2.1.9s-.8 1.5-.8 2.5.3 1.8.8 2.4c.5.6 1.3.9 2.2.9zm-1.4-5.3c.3-.3.7-.5 1.2-.5s1 .2 1.3.5.4.8.4 1.4H215c0-.6.2-1.1.5-1.4zm14.4 5.1h1v-3.3l2.9-5.2h-1.1l-2.3 4.3-2.3-4.4H227l2.9 5.3zm12.1.1v-1.1h-4.4l1.9-1.8c.8-.8 1.4-1.5 1.7-2 .3-.5.5-1.1.5-1.6 0-.7-.2-1.3-.7-1.7s-1.1-.6-1.9-.6c-1 0-1.8.3-2.6 1l.5.7c.4-.3.8-.5 1.1-.6.3-.1.6-.2 1-.2.5 0 .9.1 1.2.4s.4.6.4 1.1c0 .3-.1.6-.2.9-.1.3-.2.6-.5.9-.3.3-.7.8-1.4 1.5l-2.3 2.3v.8h5.7z"/><path d="M414 251H52.5V29.5h-1V252H640v-1z"/></g></svg>