<svg xmlns="http://www.w3.org/2000/svg" data-tags="error state" viewBox="0 0 200 93"><path d="M10.5 49h-1v2.5H7v1h2.5V55h1v-2.5H13v-1h-2.5zm187 16.5V63h-1v2.5H194v1h2.5V69h1v-2.5h2.5v-1zm-194-35a3 3 0 100 6 3 3 0 000-6zm0 5a2 2 0 110-4 2 2 0 010 4zm188 39a3 3 0 100 6 3 3 0 000-6zm0 5a2 2 0 110-4 2 2 0 010 4zm-139 11h17v-34h-17v34zm1-33h15v32h-15v-32zm19 33h17v-51h-17v51zm1-50h15v49h-15v-49zm19 50h16v-39h-16v39zm1-38h14v37h-14v-37z"/><path d="M61 49.5c2.5 0 4.5-2 4.5-4.5 0-1-.4-2-1-2.8L76.7 31a4.5 4.5 0 007.2-.8l11.8 5.5a4.4 4.4 0 00-.2 1.3 4.5 4.5 0 104.5-4.5c-1.7 0-3.1 1-3.9 2.3l-11.8-5.5.2-1.3a4.5 4.5 0 00-9 0c0 .8.2 1.5.6 2.2L63.8 41.5a4.5 4.5 0 00-2.8-1 4.5 4.5 0 000 9zm39-16a3.5 3.5 0 110 7 3.5 3.5 0 010-7zm-20-9a3.5 3.5 0 110 7 3.5 3.5 0 010-7zm-19 17a3.5 3.5 0 110 7 3.5 3.5 0 010-7z"/><g opacity=".5"><path d="M180 .5H20A2.5 2.5 0 0017.5 3v90h1V3c0-.8.7-1.5 1.5-1.5h160c.8 0 1.5.7 1.5 1.5v88h1V3A2.5 2.5 0 00180 .5z"/><path d="M111.5 40h1v4h-1zm8.5-8.5h4v1h-4zm7.5.5h1v4h-1zm0 8h1v4h-1zm0 8h1v4h-1zm-16 8h1v4h-1zm0 24h1v4h-1zm.5-48h-.5v4h1v-3.5h3.5v-1h-4zm15.5 24h1v4h-1zm-16 8h1v4h-1zm0-16h1v4h-1zm0 24h1v4h-1zm16 8h1v4h-1zm0-16h1v4h-1zm0 8h1v4h-1zm4-10h1v4h-1zm0-8h1v4h-1zm0 16h1v4h-1zm1.5-43.5h4v1h-4zM131.5 78h1v4h-1zm0-32h1v4h-1zm9.5-19.5h4v1h-4zM131.5 38h1v4h-1zm1 48h-1v3.5h-3V88h-1v1.5h-15V88h-1v1.5H45v1h110v-1h-22.5zm-1-56h1v4h-1zm-28.3 5.1l3-2.6.7.8-3 2.6zm18.2-15.6l3-2.6.7.8-3 2.6zm-6 5.2l3-2.6.6.8-3 2.6zm12-10.4l3.1-2.6.7.8-3 2.6zm-18 15.7l3-2.6.7.8-3 2.6z"/></g><path fill-rule="evenodd" d="M97.4 26.4c1.4-2.3 3.8-2.3 5.2 0l8 13.2 15 24.5c1.4 2.3.3 4.2-2.5 4.2H77c-2.8 0-3.9-1.9-2.4-4.2l22.9-37.7z" clip-rule="evenodd"/><g fill="#FFF" fill-rule="evenodd" clip-rule="evenodd"><path d="M126 63.8l-23-37.6c-.8-1.3-1.8-2-3-2s-2.2.7-3 2L74 63.8c-.8 1.3-.9 2.5-.3 3.5.5 1 1.6 1.5 3.2 1.5H123c1.6 0 2.7-.5 3.2-1.5.6-1 .5-2.2-.3-3.5zm-.5 3c-.4.7-1.2 1-2.4 1H77c-1.2 0-2-.3-2.4-1-.3-.6-.2-1.5.4-2.5l23-37.6c.5-1 1.3-1.5 2.1-1.5s1.6.5 2.2 1.5L125 64.3c.6 1 .7 1.9.4 2.5z"/><path d="M98.8 57.3h3.2v3.2h-3.2zm0-17.3h3.2v14.2h-3.2z"/></g></svg>