<svg data-tags="Modern Engagement, engagement, launchpad" xmlns="http://www.w3.org/2000/svg" viewBox="0 0 50 49.438"><path d="M35.998 13.923a.056.056 0 0 0 .018-.014 2.604 2.604 0 0 0-.018-3.684 2.682 2.682 0 0 0-3.725 0l-.017.017a2.604 2.604 0 0 0 .019 3.683 2.647 2.647 0 0 0 3.723-.002ZM18.495 14.69a2.615 2.615 0 0 0 1.863-4.465 2.682 2.682 0 0 0-3.726 0 2.604 2.604 0 0 0-.015 3.683l.017.017a2.631 2.631 0 0 0 1.861.765ZM28.103 16.53a2.624 2.624 0 0 0 0-3.71 2.714 2.714 0 0 0-3.723 0 2.595 2.595 0 0 0-.774 1.855 2.635 2.635 0 0 0 4.497 1.855ZM22.26 18.779l.026-.025a.863.863 0 0 0 0-1.206 5.11 5.11 0 0 0-3.68-1.554 5.348 5.348 0 0 0-5.29 5.404v3.405a.842.842 0 0 0 .83.85c.353 0 3.88.091 4.987.122a.32.32 0 0 0 .244-.097.334.334 0 0 0 .095-.25v-.014a8.752 8.752 0 0 1 .63-4.023 16.29 16.29 0 0 1 2.159-2.612Z"/><path d="M48.995 2.32H3.718l-.005.001a.994.994 0 0 0-.344.07.951.951 0 0 0-.085.037c-.03.014-.062.023-.09.04L.48 4.13a1.004 1.004 0 0 0-.48.856V36.63a1.004 1.004 0 0 0 1.005 1.005h6.617l4.828 6.636a1.004 1.004 0 0 0 1.337.266l2.714-1.662c.01-.007.016-.018.027-.025a.997.997 0 0 0 .26-.24l3.62-4.975h5.269v-3.672h-4.572a1.006 1.006 0 0 0-.813.414l-4.315 5.932-4.318-5.933a1.008 1.008 0 0 0-.812-.413H4.723V4.329H47.99v20.392h.05A4.911 4.911 0 0 1 50 25.13V3.324a1.004 1.004 0 0 0-1.005-1.004Z"/><path d="M44.698 32.375a1.92 1.92 0 0 0-1.068-.322H30.6a1.92 1.92 0 0 0-1.067.322 1.874 1.874 0 0 0-.843 1.561v8.156a1.896 1.896 0 0 0 1.91 1.883h.99v2.559a.593.593 0 0 0 1.072.34l1.388-1.901.728-.998h8.852a1.896 1.896 0 0 0 1.91-1.883v-8.156a1.874 1.874 0 0 0-.842-1.561ZM36.33 40.43H32.8a.778.778 0 0 1-.784-.773.764.764 0 0 1 .231-.548.786.786 0 0 1 .553-.225h3.531a.773.773 0 1 1 0 1.546Zm5.1-3.28H32.8a.773.773 0 1 1 0-1.546h8.63a.773.773 0 1 1 0 1.545Z" fill="#53b8e5"/><path d="M48.042 27.735h-13.03a1.896 1.896 0 0 0-1.91 1.882v1.44H43.63a2.905 2.905 0 0 1 2.923 2.88v5.72h1.489a1.916 1.916 0 0 0 1.584-.831 1.854 1.854 0 0 0 .326-1.053v-8.156a1.896 1.896 0 0 0-1.91-1.882Z" fill="#53b8e5"/><path d="m30.429 18.754.024.025a16.268 16.268 0 0 1 2.158 2.612 8.743 8.743 0 0 1 .64 3.657 4.917 4.917 0 0 1 1.761-.327h4.385v-3.323a5.348 5.348 0 0 0-5.29-5.404 5.111 5.111 0 0 0-3.679 1.554.862.862 0 0 0 0 1.206ZM21.196 29.036h8.93a4.878 4.878 0 0 1 2.035-3.386v-1.3a5.818 5.818 0 0 0-5.873-5.748h-.101a5.818 5.818 0 0 0-5.872 5.749v3.822a.872.872 0 0 0 .88.863Z"/></svg>