<svg data-tags="modern engagement , engagement, launchpad" xmlns="http://www.w3.org/2000/svg" viewBox="0 0 50 50"><path d="M4.3 12.8h34.71v14.66h2.02V11.79a1 1 0 0 0-1.01-1.01H13.25V4.23h34.71v23.23h.4a4.64 4.64 0 0 1 1.62.3V3.23a1 1 0 0 0-1.01-1H12.21a.99.99 0 0 0-.33.07.97.97 0 0 0-.1.05 1 1 0 0 0-.16.1l-2.29 1.8a1.03 1.03 0 0 0-.37.8v5.73H3.3a1.24 1.24 0 0 0-.2.02 1 1 0 0 0-.44.2l-.08.07-2.2 1.75a1 1 0 0 0-.38.79v28.03a1 1 0 0 0 1 1h27.58v-3.83H4.3Z"/><path d="M45.17 34.24a1.76 1.76 0 0 0-.98-.3H32.23a1.76 1.76 0 0 0-.98.3 1.72 1.72 0 0 0-.78 1.43v7.5a1.74 1.74 0 0 0 1.76 1.72h.9v2.35a.54.54 0 0 0 1 .31l1.27-1.74.67-.92h8.12a1.74 1.74 0 0 0 1.76-1.73v-7.49a1.72 1.72 0 0 0-.78-1.43Zm-7.68 7.4h-3.24a.71.71 0 0 1-.72-.71.7.7 0 0 1 .21-.5.72.72 0 0 1 .5-.21h3.25a.71.71 0 1 1 0 1.42Zm4.68-3.02h-7.92a.71.71 0 1 1 0-1.42h7.92a.71.71 0 1 1 0 1.42Z"/><path d="M48.25 29.98H36.28a1.74 1.74 0 0 0-1.75 1.73v1.32h9.66a2.67 2.67 0 0 1 2.69 2.64v5.25h1.37a1.76 1.76 0 0 0 1.45-.76 1.7 1.7 0 0 0 .3-.96v-7.5a1.74 1.74 0 0 0-1.75-1.72Zm-33.88-8.2a2.3 2.3 0 0 0 1.64-3.93 2.36 2.36 0 0 0-3.28 0 2.3 2.3 0 0 0-.02 3.24l.02.02a2.32 2.32 0 0 0 1.64.67Zm13 9.47a.3.3 0 0 0 .08.22.28.28 0 0 0 .21.08l4.4-.1a.74.74 0 0 0 .73-.76v-3a4.71 4.71 0 0 0-4.66-4.76 4.5 4.5 0 0 0-3.24 1.37.76.76 0 0 0 0 1.06l.02.03a14.33 14.33 0 0 1 1.9 2.3 7.71 7.71 0 0 1 .56 3.54Zm-9.68-5.86.02-.03a.76.76 0 0 0 0-1.06 4.5 4.5 0 0 0-3.24-1.37A4.71 4.71 0 0 0 9.8 27.7v3a.74.74 0 0 0 .73.75l4.4.11a.28.28 0 0 0 .2-.08.3.3 0 0 0 .09-.22v-.02a7.71 7.71 0 0 1 .56-3.54 14.35 14.35 0 0 1 1.9-2.3ZM29.8 21.1a.05.05 0 0 0 .01 0 2.3 2.3 0 0 0-.02-3.25 2.36 2.36 0 0 0-3.28 0l-.01.01a2.3 2.3 0 0 0 .01 3.25 2.33 2.33 0 0 0 3.28 0Z"/><path d="M16.75 34.42h8.89a.77.77 0 0 0 .77-.75V30.3a5.13 5.13 0 0 0-5.17-5.07h-.1a5.13 5.13 0 0 0-5.17 5.07v3.36a.77.77 0 0 0 .78.76Zm6.09-11.02a2.31 2.31 0 0 0 0-3.27 2.4 2.4 0 0 0-3.28 0 2.29 2.29 0 0 0-.69 1.64 2.32 2.32 0 0 0 3.97 1.63Z"/></svg>