<svg data-tags="Modern Marketing, Marketing, launchpad" xmlns="http://www.w3.org/2000/svg" viewBox="0 0 50 49.438"><path d="m42.82 30.22.492-1.346a.516.516 0 1 0-.97-.354l-.491 1.346a.516.516 0 1 0 .97.354Zm-6.233-1.068-.346.948a10.172 10.172 0 0 1-5.266 5.734l-.539.25 1.98 4.257 1.979 4.257.538-.25a10.172 10.172 0 0 1 7.779-.33l.947.345a.846.846 0 0 0 1.057-1.15l-3.284-7.064-3.284-7.063a.846.846 0 0 0-1.561.066Zm-10.192 8.814 3.106-1.444 3.959 8.514-3.106 1.444a1.188 1.188 0 0 1-1.579-.576l-2.956-6.359a1.188 1.188 0 0 1 .576-1.578Zm15.457-4.281a2.096 2.096 0 0 1 1.767 3.802l-.296.137a.16.16 0 0 1-.213-.078l-1.632-3.51a.16.16 0 0 1 .077-.213ZM32.75 48.76a1.046 1.046 0 0 0 1.897-.882l-.916-1.839-1.897.882Zm13.115-15.198 1.3-.605a.516.516 0 0 1 .435.937l-1.3.604a.516.516 0 0 1-.435-.936Zm.335 5.664a.516.516 0 0 1 .662-.308l1.347.492a.516.516 0 0 1-.355.97l-1.346-.492a.516.516 0 0 1-.308-.662Z" fill="#6ac96e" fill-rule="evenodd"/><circle cx="18.369" cy="22.842" r="1.43"/><path d="M20.686 18.633H9.276a2.248 2.248 0 0 0-2.242 2.253v9.219a2.248 2.248 0 0 0 2.242 2.253h11.41a2.361 2.361 0 0 0 2.361-2.361v-9.003a2.361 2.361 0 0 0-2.361-2.36Zm.989 11.123-.24.074-1.933-2.825c-.332-.469-.835-1.126-1.362-1.126h-.011c-.526.011-1.03.657-1.35 1.126l-.56.755-1.396-2.321c-.417-.71-1.102-1.853-1.938-1.762-.68.073-1.361 1.282-1.717 1.867l-2.56 4.209a.108.108 0 0 1-.201-.056v-8.81a.871.871 0 0 1 .87-.881h11.517a.881.881 0 0 1 .88.88Z" fill-rule="evenodd"/><path d="M27.04 23.528h10.223a1.43 1.43 0 1 0 0-2.861H27.04a1.43 1.43 0 1 0 0 2.86ZM27.04 28.771h5.2a1.43 1.43 0 1 0 0-2.861h-5.2a1.43 1.43 0 1 0 0 2.861Z"/><path d="M26.294 47.307H6.428a2.862 2.862 0 0 1-2.88-2.86v-.156a5.011 5.011 0 0 0 2.88.936H25.31l-.967-2.08H6.428a2.862 2.862 0 0 1-2.88-2.859v-.156a5.01 5.01 0 0 0 2.88.936h16.948l-.148-.319a4.013 4.013 0 0 1-.363-1.76H6.428a2.862 2.862 0 0 1-2.88-2.86V14.296h38.184V25.53a3.31 3.31 0 0 1 1.096-.208 3.355 3.355 0 0 1 1 .163V9.617a4.979 4.979 0 0 0-4.977-4.886H36.18V3.483a3.51 3.51 0 0 0-7.019 0v1.248H16.066V3.483a3.51 3.51 0 0 0-7.019 0v1.248H6.428a4.955 4.955 0 0 0-4.976 4.938V44.5a4.989 4.989 0 0 0 4.976 4.939h23.278a4.053 4.053 0 0 1-3.412-2.131Zm5.014-43.825a1.414 1.414 0 0 1 2.828 0v3.275a1.414 1.414 0 0 1-2.828 0Zm-20.166 0a1.414 1.414 0 0 1 2.828 0v3.275a1.414 1.414 0 0 1-2.828 0Z" fill="#0a0a14" fill-rule="evenodd"/></svg>