<svg data-tags="modern marketing, marketing, launchpad" xmlns="http://www.w3.org/2000/svg" viewBox="0 0 50 50"><path d="M37.06 19.28h-7.52a1 1 0 1 0 0 2h7.52a1 1 0 0 0 0-2ZM39.4 6.13H25.59a1.5 1.5 0 0 0 0 3H39.4a1.5 1.5 0 1 0 0-3Z"/><circle cx="9.57" cy="7.62" r="1.59"/><circle cx="14.38" cy="7.62" r="1.59"/><path d="M19.47 6.04a1.59 1.59 0 1 0 1.59 1.58 1.59 1.59 0 0 0-1.59-1.58Zm9.07 22.16a1 1 0 0 0 1 1h4.5a7.33 7.33 0 0 0 .98-1.83l.06-.16h-5.54a1 1 0 0 0-1 1Zm14.36 6.19-3.29-7.06a.84.84 0 0 0-1.56.07l-.34.95a10.16 10.16 0 0 1-5.27 5.72l-.53.25 1.97 4.26 1.98 4.25.54-.25a10.16 10.16 0 0 1 7.77-.33l.95.34a.84.84 0 0 0 1.05-1.15Zm-7.7 9.88-1.9.88.92 1.84a1.04 1.04 0 0 0 1.9-.88Zm8.11-12.34-.3.13a.16.16 0 0 0-.07.22l1.63 3.5a.16.16 0 0 0 .21.08l.3-.14a2.1 2.1 0 1 0-1.77-3.8Zm6.35 5.72-1.34-.5a.52.52 0 1 0-.36.97l1.35.5a.52.52 0 1 0 .35-.97ZM43.8 26.77l-.5 1.34a.52.52 0 1 0 .98.36l.49-1.35a.52.52 0 1 0-.97-.35Zm5.25 5.37a.52.52 0 0 0-.43-.94l-1.3.6a.52.52 0 0 0 .43.94Zm-18.08 2.62-3.1 1.44a1.19 1.19 0 0 0-.58 1.58l2.96 6.35a1.19 1.19 0 0 0 1.57.58l3.1-1.44ZM16.69 15.3a8.93 8.93 0 0 0-8.9 8.06l1.59 1 1.73-1.34a5.7 5.7 0 0 1 11.22.5l.97-.76a.96.96 0 0 1 1.1-.05l1.18.74a8.93 8.93 0 0 0-8.9-8.14Zm5.36 10.85a5.7 5.7 0 0 1-10.95-.7l-1.08.83a.96.96 0 0 1-1.1.06l-1.04-.66a8.92 8.92 0 0 0 17.61-.02l-1.54-.98Z"/><path d="M16.69 28.98a4.74 4.74 0 1 0-4.74-4.74 4.75 4.75 0 0 0 4.74 4.74Zm0-8.08a3.34 3.34 0 1 1-3.35 3.34 3.35 3.35 0 0 1 3.35-3.34Z"/><path d="M17.8 26.34a.53.53 0 0 0 .74 0 .53.53 0 0 0 0-.76l-1.33-1.33v-1.92a.53.53 0 1 0-1.06 0v2.14a.54.54 0 0 0 .16.38Zm20.25-2.26.01-.06a1 1 0 0 0-1-1h-7.52a1 1 0 0 0 0 2h6.74a3.64 3.64 0 0 1 1.77-.94Z"/><path d="m24.57 35.9.14-.28H4.8V12.79h37.8v11.26a3.34 3.34 0 0 1 1.69-.48l.3.03V3.4a1 1 0 0 0-1-1H3.8l-.07.02a.96.96 0 0 0-.6.26l-.04.03L.29 5.6a1 1 0 0 0-.29.7v33.2a1 1 0 0 0 1 1h24.4l-.7-1.5a4.01 4.01 0 0 1-.13-3.1ZM4.8 4.4h37.8v6.39H4.8Z"/></svg>