<svg data-tags="modern marketing, marketing, launchpad" xmlns="http://www.w3.org/2000/svg" viewBox="0 0 50 50"><path d="M39.4 6.13H25.59a1.5 1.5 0 1 0 0 3H39.4a1.5 1.5 0 1 0 0-3ZM9.57 6.04a1.59 1.59 0 1 0 1.59 1.58 1.59 1.59 0 0 0-1.59-1.58Z"/><circle cx="14.38" cy="7.62" r="1.59"/><path d="M19.47 6.04a1.59 1.59 0 1 0 1.59 1.58 1.59 1.59 0 0 0-1.59-1.58Z"/><path d="m24.57 35.9.14-.28H4.8V12.79h37.8v11.26a3.34 3.34 0 0 1 1.69-.48l.3.03V3.4a1 1 0 0 0-1-1H3.8l-.07.02a.96.96 0 0 0-.6.26l-.04.03L.29 5.6a1 1 0 0 0-.29.7v33.2a1 1 0 0 0 1 1h24.4l-.7-1.5a4.02 4.02 0 0 1-.13-3.1ZM4.8 4.4h37.8v6.39H4.8Zm44.25 27.74a.52.52 0 0 0-.43-.94l-1.3.6a.52.52 0 0 0 .43.94ZM35.2 44.27l-1.9.88.92 1.84a1.05 1.05 0 0 0 1.9-.88Z"/><path d="m30.97 34.76-3.1 1.44a1.19 1.19 0 0 0-.58 1.58l2.96 6.35a1.19 1.19 0 0 0 1.57.58l3.1-1.44Zm18.69 2.89-1.34-.5a.52.52 0 0 0-.36.97l1.35.5a.52.52 0 0 0 .35-.97Zm-6.35-5.72-.3.13a.16.16 0 0 0-.07.22l1.63 3.5a.16.16 0 0 0 .21.08l.3-.14a2.1 2.1 0 0 0-1.77-3.8Zm.49-5.16-.49 1.34a.52.52 0 1 0 .97.36l.49-1.35a.52.52 0 1 0-.97-.35Zm-.9 7.62-3.29-7.06a.84.84 0 0 0-1.56.07l-.34.95a10.16 10.16 0 0 1-5.27 5.72l-.53.25 1.97 4.26 1.98 4.25.54-.25a10.16 10.16 0 0 1 7.77-.33l.95.34a.84.84 0 0 0 1.05-1.15ZM15.54 14.92H9.32a1 1 0 0 0-1 1v6.39a1 1 0 0 0 1 1h6.22a1 1 0 0 0 1-1v-6.4a1 1 0 0 0-1-1Zm-.88 3.48-2.4 2.41a.67.67 0 0 1-.12.08.72.72 0 0 1-.12.07.7.7 0 0 1-.52 0 .72.72 0 0 1-.07-.04.67.67 0 0 1-.16-.11l-1.08-1.09a.7.7 0 0 1 1-.98l.58.58 1.9-1.9a.7.7 0 1 1 1 .98Zm13.27 3.9v-6.38a1 1 0 0 0-1-1h-6.22a1 1 0 0 0-1 1v6.39a1 1 0 0 0 1 1h6.22a1 1 0 0 0 1-1Zm-1.88-3.9-2.4 2.41a.67.67 0 0 1-.12.08.72.72 0 0 1-.12.07.7.7 0 0 1-.52 0 .72.72 0 0 1-.07-.04.67.67 0 0 1-.16-.11l-1.08-1.09a.7.7 0 0 1 1-.98l.58.58 1.9-1.9a.7.7 0 0 1 1 .98Zm6.05-3.48a1 1 0 0 0-1 1v6.39a1 1 0 0 0 1 1h6.22a1 1 0 0 0 1-1v-6.4a1 1 0 0 0-1-1Zm5.06 3.48-2.4 2.41h-.01a.67.67 0 0 1-.12.08.72.72 0 0 1-.11.07.7.7 0 0 1-.53 0 .72.72 0 0 1-.07-.04.67.67 0 0 1-.16-.11l-1.07-1.09a.7.7 0 0 1 1-.98l.57.58 1.91-1.9a.7.7 0 0 1 .99.98Zm-13.84 8.03H9.5a1 1 0 0 0 0 2h13.83a1 1 0 1 0 0-2Zm0 4.19H9.5a1 1 0 1 0 0 2h13.83a1 1 0 0 0 0-2Z"/></svg>