<svg data-tags="Modern Marketing, Marketing, launchpad" xmlns="http://www.w3.org/2000/svg" viewBox="0 0 50 49.438"><path d="M12.62 31.956h16.131a1.43 1.43 0 1 0 0-2.86h-16.13a1.43 1.43 0 1 0 0 2.86ZM12.62 37.2h9.241a1.43 1.43 0 1 0 0-2.861h-9.24a1.43 1.43 0 1 0 0 2.86Z"/><circle cx="30.746" cy="12.122" r="2.113"/><path d="M34.17 5.902H17.308a3.322 3.322 0 0 0-3.313 3.33v13.623a3.322 3.322 0 0 0 3.313 3.33h16.86a3.49 3.49 0 0 0 3.49-3.49V9.392a3.49 3.49 0 0 0-3.49-3.49Zm1.46 16.436-.353.11-2.858-4.174c-.49-.693-1.234-1.664-2.011-1.664h-.017c-.778.017-1.521.971-1.995 1.664l-.828 1.116-2.062-3.431c-.617-1.048-1.629-2.738-2.864-2.604-1.006.11-2.012 1.895-2.538 2.76l-3.784 6.22a.16.16 0 0 1-.296-.084V9.231a1.288 1.288 0 0 1 1.285-1.3h17.02a1.302 1.302 0 0 1 1.301 1.3Z" fill-rule="evenodd"/><path d="M24.945 41.274H7.195V2.304h36.67v22.83a3.258 3.258 0 0 1 .328-.042 3.227 3.227 0 0 1 1.673.452V1.304a1.003 1.003 0 0 0-1-1H6.196a1.003 1.003 0 0 0-1 1v3.52h-4.11a.99.99 0 0 0-.75.35.98.98 0 0 0-.24.79l5.11 36.45a1.052 1.052 0 0 0 .2.47.429.429 0 0 0 .11.12.981.981 0 0 0 .54.26.614.614 0 0 0 .14.01l20.286 1.308Z"/><path d="m44.187 29.99.491-1.347a.516.516 0 1 0-.97-.354l-.492 1.346a.516.516 0 1 0 .97.354Zm-6.234-1.068-.346.947a10.172 10.172 0 0 1-5.267 5.734l-.538.25 1.98 4.258 1.979 4.257.538-.25a10.172 10.172 0 0 1 7.778-.332l.948.346a.846.846 0 0 0 1.057-1.15l-3.284-7.064-3.284-7.063a.846.846 0 0 0-1.561.067ZM27.76 37.736l3.106-1.444 3.958 8.513-3.106 1.444a1.188 1.188 0 0 1-1.578-.576l-2.957-6.359a1.188 1.188 0 0 1 .577-1.578Zm15.457-4.282a2.096 2.096 0 0 1 1.767 3.802l-.296.137a.16.16 0 0 1-.214-.078l-1.632-3.51a.16.16 0 0 1 .078-.213Zm-9.102 15.075a1.046 1.046 0 0 0 1.897-.882l-.916-1.839-1.897.882ZM47.23 33.33l1.3-.605a.516.516 0 0 1 .435.937l-1.3.604a.516.516 0 0 1-.435-.936Zm.335 5.664a.516.516 0 0 1 .662-.308l1.346.492a.516.516 0 0 1-.354.97l-1.346-.492a.516.516 0 0 1-.308-.662Z" fill="#6ac96e" fill-rule="evenodd"/></svg>