<svg xmlns="http://www.w3.org/2000/svg" data-tags="charts" viewBox="0 0 40 27"><text transform="translate(0 10)" font-family="'OpenSans'" font-size="13">00,000</text><path opacity=".5" d="M35 13H5a2 2 0 00-2 2v10c0 1.1.9 2 2 2h30a2 2 0 002-2V15a2 2 0 00-2-2zm-17.1 9.97a.5.5 0 01-.45.28h-7.2a.5.5 0 01-.45-.28.51.51 0 01.06-.53l3.6-4.5a.51.51 0 01.78 0l3.6 4.5a.5.5 0 01.06.53zm11.94-4.41l-3.6 4.5a.5.5 0 01-.78 0l-3.6-4.5a.51.51 0 01-.06-.53.5.5 0 01.45-.28h7.2a.5.5 0 01.45.28.5.5 0 01-.06.53z"/></svg>