<svg xmlns="http://www.w3.org/2000/svg" data-tags="Loading state" viewBox="0 0 200 93"><path d="M80 65.5h4v1h-4zm10.6 24h4v1h-4zm-8 0h4v1h-4zm16 0h4v1h-4zM88 65.5h4v1h-4zM68.6 86.7l-1 .3a4.5 4.5 0 002.8 3.2l.4-1a3.5 3.5 0 01-2.2-2.5zM67.5 71h1v4h-1zm0 8h1v4h-1zM76 65.5h-4a4.5 4.5 0 00-3.2 1.3l.7.7a3.5 3.5 0 012.5-1h4v-1zm-1.4 24h4v1h-4zm21.4-24h4v1h-4zm8 0h4v1h-4zm28 1.2a4.5 4.5 0 00-3-1.2h-1v1h1a3.5 3.5 0 012.4 1l.7-.8zm-1.7 22.5l.4 1a4.5 4.5 0 002.7-3.4l-1-.2a3.5 3.5 0 01-2 2.6zm2.2-10.5h1v4h-1zm0-8h1v4h-1zm-26 18.8h4v1h-4zm8 0h4v1h-4zm-2.5-24h4v1h-4zm8 0h4v1h-4zm2.6 24h4v1h-4z" opacity=".5"/><path d="M56 30.6c-2.7 0-4.7 1-6 3.2s-2 5.3-2 9.6.6 7.5 2 9.7 3.3 3.2 6 3.2 4.7-1 6-3.1c1.4-2.1 2-5.4 2-9.8 0-4.2-.7-7.4-2-9.5s-3.4-3.3-6-3.3zM60.6 52a5 5 0 01-4.8 2.9c-2 0-3.6-1-4.6-2.8s-1.5-4.7-1.5-8.6c0-3.7.5-6.5 1.5-8.4s2.5-2.8 4.6-2.8 3.8 1 4.8 2.8 1.4 4.7 1.4 8.4c0 3.8-.5 6.6-1.4 8.5zm62.7-21.3c-2.7 0-4.7 1-6 3.2s-2 5.3-2 9.6.7 7.5 2 9.7 3.4 3.2 6 3.2c2.7 0 4.7-1 6-3.1 1.4-2.1 2-5.4 2-9.8 0-4.2-.6-7.4-2-9.5s-3.4-3.3-6-3.3zM128 52a5 5 0 01-4.7 2.9c-2 0-3.6-1-4.6-2.8s-1.5-4.7-1.5-8.6c0-3.7.4-6.5 1.4-8.4s2.5-2.8 4.7-2.8 3.7 1 4.7 2.8 1.5 4.7 1.5 8.4c0 3.8-.5 6.6-1.5 8.5zm-44-8.5c0-4.2-.8-7.4-2.2-9.5s-3.3-3.3-6-3.3-4.7 1-6 3.2-2 5.3-2 9.6.7 7.5 2 9.7 3.4 3.2 6 3.2c2.7 0 4.8-1 6.1-3.1 1.3-2.1 2-5.4 2-9.8zM80.5 52a5 5 0 01-4.7 2.9c-2 0-3.6-1-4.6-2.8s-1.5-4.7-1.5-8.6c0-3.7.5-6.5 1.4-8.4s2.6-2.8 4.7-2.8 3.7 1 4.7 2.8 1.5 4.7 1.5 8.4c0 3.8-.5 6.6-1.5 8.5zm10.6.4l-.2-.4h-2a69 69 0 01-1.9 8.6h1.1a57 57 0 003-8.2zm18.3.9c1.3-2.1 2-5.4 2-9.8 0-4.2-.7-7.4-2-9.5s-3.4-3.3-6-3.3c-2.8 0-4.8 1-6 3.2s-2 5.3-2 9.6.6 7.5 2 9.7 3.3 3.2 6 3.2c2.6 0 4.7-1 6-3.1zm-6 1.6a5 5 0 01-4.7-2.8c-1-1.8-1.5-4.7-1.5-8.6 0-3.7.5-6.5 1.4-8.4s2.6-2.8 4.7-2.8 3.7 1 4.7 2.8 1.5 4.7 1.5 8.4c0 3.8-.5 6.6-1.5 8.5s-2.5 2.9-4.7 2.9zm39.9-24.2c-2.7 0-4.7 1-6 3.2s-2 5.3-2 9.6.7 7.5 2 9.7 3.4 3.2 6 3.2c2.7 0 4.7-1 6-3.1 1.4-2.1 2-5.4 2-9.8 0-4.2-.6-7.4-2-9.5s-3.4-3.3-6-3.3zM148 52a5 5 0 01-4.7 2.9c-2 0-3.6-1-4.6-2.8s-1.6-4.7-1.6-8.6c0-3.7.5-6.5 1.5-8.4s2.5-2.8 4.7-2.8 3.7 1 4.7 2.8 1.5 4.7 1.5 8.4c0 3.8-.5 6.6-1.5 8.5zM81 81.5h11.6l-5.8-7.3-5.8 7.3zm2-1l3.8-4.7 3.8 4.7H83zm29.8 1.3l5.8-7.3H107l5.8 7.3zm0-1.6l-3.8-4.7h7.6l-3.8 4.7zM10.5 49h-1v2.5H7v1h2.5V55h1v-2.5H13v-1h-2.5zm187 16.5V63h-1v2.5H194v1h2.5V69h1v-2.5h2.5v-1zm-194-35a3 3 0 100 6 3 3 0 000-6zm0 5a2 2 0 110-4 2 2 0 010 4zm188 39a3 3 0 100 6 3 3 0 000-6zm0 5a2 2 0 110-4 2 2 0 010 4z"/></svg>