<svg xmlns="http://www.w3.org/2000/svg" data-tags="Loading state" viewBox="0 0 200 93"><path d="M74.5 50.1c0 3.1-.5 5.4-1.4 6.9s-2.4 2.2-4.3 2.2c-1.8 0-3.2-.8-4.2-2.3s-1.4-3.8-1.4-6.8c0-3.1.5-5.4 1.4-6.8s2.3-2.2 4.3-2.2c1.9 0 3.3.8 4.3 2.3s1.3 3.7 1.3 6.7zm-10.1 0c0 2.7.4 4.8 1.1 6.1s1.8 2 3.3 2 2.6-.7 3.3-2c.7-1.4 1-3.4 1-6s-.3-4.6-1-6-1.8-2-3.3-2-2.6.7-3.3 2c-.8 1.3-1.1 3.2-1.1 5.9zm24.2 0c0 3.1-.5 5.4-1.4 6.9s-2.4 2.2-4.3 2.2c-1.8 0-3.2-.8-4.2-2.3s-1.4-3.8-1.4-6.8c0-3.1.5-5.4 1.4-6.8.9-1.4 2.3-2.3 4.2-2.3s3.3.8 4.3 2.3c.9 1.5 1.4 3.8 1.4 6.8zm-10.1 0c0 2.7.4 4.8 1.1 6.1.7 1.3 1.8 2 3.3 2s2.6-.7 3.3-2 1-3.4 1-6-.3-4.6-1-6-1.8-2-3.3-2-2.6.7-3.3 2-1.1 3.2-1.1 5.9zm15 6l.1.3c-.6 2.1-1.3 4.1-2.1 5.8h-.8c.6-2.2 1.1-4.2 1.3-6.1h1.5zm14.6-6c0 3.1-.5 5.4-1.4 6.9s-2.4 2.2-4.3 2.2c-1.8 0-3.2-.8-4.2-2.3s-1.4-3.8-1.4-6.8c0-3.1.5-5.4 1.4-6.8s2.3-2.2 4.3-2.2c1.9 0 3.3.8 4.3 2.3.8 1.4 1.3 3.7 1.3 6.7zm-10.1 0c0 2.7.4 4.8 1.1 6.1.7 1.3 1.8 2 3.3 2s2.6-.7 3.3-2 1-3.4 1-6-.3-4.6-1-6-1.8-2-3.3-2-2.6.7-3.3 2-1.1 3.2-1.1 5.9zm24.2 0c0 3.1-.5 5.4-1.4 6.9s-2.4 2.2-4.3 2.2c-1.8 0-3.2-.8-4.2-2.3s-1.4-3.8-1.4-6.8c0-3.1.5-5.4 1.4-6.8.9-1.5 2.3-2.2 4.3-2.2 1.9 0 3.3.8 4.3 2.3.8 1.4 1.3 3.7 1.3 6.7zm-10.1 0c0 2.7.4 4.8 1.1 6.1s1.8 2 3.3 2 2.6-.7 3.3-2c.7-1.4 1-3.4 1-6s-.3-4.6-1-6-1.8-2-3.3-2-2.6.7-3.3 2-1.1 3.2-1.1 5.9zm24.2 0c0 3.1-.5 5.4-1.4 6.9s-2.4 2.2-4.3 2.2c-1.8 0-3.2-.8-4.2-2.3s-1.4-3.8-1.4-6.8c0-3.1.5-5.4 1.4-6.8.9-1.5 2.3-2.2 4.3-2.2 1.9 0 3.3.8 4.3 2.3s1.3 3.7 1.3 6.7zm-10 0c0 2.7.4 4.8 1.1 6.1s1.8 2 3.3 2 2.6-.7 3.3-2c.7-1.4 1-3.4 1-6s-.3-4.6-1-6-1.8-2-3.3-2-2.6.7-3.3 2-1.1 3.2-1.1 5.9zM74.5 76.5c0 3.1-.5 5.4-1.4 6.9s-2.4 2.2-4.3 2.2c-1.8 0-3.2-.8-4.2-2.3s-1.4-3.8-1.4-6.8c0-3.1.5-5.4 1.4-6.8s2.3-2.2 4.3-2.2c1.9 0 3.3.8 4.3 2.3s1.3 3.7 1.3 6.7zm-10.1 0c0 2.7.4 4.8 1.1 6.1s1.8 2 3.3 2 2.6-.7 3.3-2c.7-1.4 1-3.4 1-6s-.3-4.6-1-6-1.8-2-3.3-2-2.6.7-3.3 2c-.8 1.3-1.1 3.3-1.1 5.9zm24.2 0c0 3.1-.5 5.4-1.4 6.9s-2.4 2.2-4.3 2.2c-1.8 0-3.2-.8-4.2-2.3s-1.4-3.8-1.4-6.8c0-3.1.5-5.4 1.4-6.8.9-1.4 2.3-2.2 4.3-2.2 1.9 0 3.3.8 4.3 2.3.8 1.5 1.3 3.7 1.3 6.7zm-10.1 0c0 2.7.4 4.8 1.1 6.1.7 1.3 1.8 2 3.3 2s2.6-.7 3.3-2c.7-1.4 1-3.4 1-6s-.3-4.6-1-6-1.8-2-3.3-2-2.6.7-3.3 2-1.1 3.3-1.1 5.9zm15 6l.1.3c-.6 2.1-1.3 4.1-2.1 5.8h-.8c.6-2.2 1.1-4.2 1.3-6.1h1.5zm14.6-6c0 3.1-.5 5.4-1.4 6.9s-2.4 2.2-4.3 2.2c-1.8 0-3.2-.8-4.2-2.3s-1.4-3.8-1.4-6.8c0-3.1.5-5.4 1.4-6.8s2.3-2.2 4.3-2.2c1.9 0 3.3.8 4.3 2.3.8 1.5 1.3 3.7 1.3 6.7zm-10.1 0c0 2.7.4 4.8 1.1 6.1s1.8 2 3.3 2 2.6-.7 3.3-2c.7-1.4 1-3.4 1-6s-.3-4.6-1-6-1.8-2-3.3-2-2.6.7-3.3 2-1.1 3.3-1.1 5.9zm24.2 0c0 3.1-.5 5.4-1.4 6.9s-2.4 2.2-4.3 2.2c-1.8 0-3.2-.8-4.2-2.3s-1.4-3.8-1.4-6.8c0-3.1.5-5.4 1.4-6.8.9-1.5 2.3-2.2 4.3-2.2 1.9 0 3.3.8 4.3 2.3.8 1.5 1.3 3.7 1.3 6.7zm-10.1 0c0 2.7.4 4.8 1.1 6.1s1.8 2 3.3 2 2.6-.7 3.3-2c.7-1.4 1-3.4 1-6s-.3-4.6-1-6-1.8-2-3.3-2-2.6.7-3.3 2-1.1 3.3-1.1 5.9zm24.2 0c0 3.1-.5 5.4-1.4 6.9s-2.4 2.2-4.3 2.2c-1.8 0-3.2-.8-4.2-2.3s-1.4-3.8-1.4-6.8c0-3.1.5-5.4 1.4-6.8.9-1.5 2.3-2.2 4.3-2.2 1.9 0 3.3.8 4.3 2.3s1.3 3.7 1.3 6.7zm-10 0c0 2.7.4 4.8 1.1 6.1s1.8 2 3.3 2 2.6-.7 3.3-2c.7-1.4 1-3.4 1-6s-.3-4.6-1-6-1.8-2-3.3-2-2.6.7-3.3 2-1.1 3.3-1.1 5.9z"/><path d="M126.563 31.5h-4v-1h4v1zm-8 0h-4v-1h4v1zm-8 0h-4v-1h4v1zm-8 0h-3.999v-1h4v1zm-7.999 0h-4v-1h4v1zm-8 0h-4v-1h4v1zm-8 0h-4v-1h4v1zm-8.146-.289a4.554 4.554 0 01-2.818-3.267l.978-.211a3.544 3.544 0 002.193 2.543l-.353.935zm60.297-.052l-.383-.924a3.546 3.546 0 002.111-2.61l.985.18a4.557 4.557 0 01-2.713 3.354zM68.5 23.845h-1v-4h1v4zm65-.127h-1v-4h1v4zm-65-7.873h-1v-4h1v4zm65-.127h-1v-4h1v4zM69.538 8.52l-.705-.71A4.47 4.47 0 0172 6.5h4v1h-4c-.926 0-1.8.362-2.462 1.02zm61.845-.078A3.484 3.484 0 00129 7.5h-1v-1h1c1.14 0 2.229.43 3.064 1.212l-.681.73zM124 7.5h-4v-1h4v1zm-8 0h-4v-1h4v1zm-8 0h-4v-1h4v1zm-8 0h-4v-1h4v1zm-8 0h-4v-1h4v1zm-8 0h-4v-1h4v1z" opacity=".6"/><path d="M92.64 22.5H80.96l5.84-7.3 5.84 7.3zm-9.6-1h7.52l-3.76-4.7-3.76 4.7zm29.76 1.3l-5.84-7.3h11.68l-5.84 7.3zm-3.76-6.3l3.76 4.7 3.76-4.7h-7.52z"/><path d="M18.5 93h-1V3c0-1.378 1.122-2.5 2.5-2.5h160c1.379 0 2.5 1.122 2.5 2.5v88h-1V3c0-.827-.673-1.5-1.5-1.5H20c-.827 0-1.5.673-1.5 1.5v90z" opacity=".6"/><path d="M10.5 51.5V49h-1v2.5H7v1h2.5V55h1v-2.5H13v-1h-2.5zm187 14V63h-1v2.5H194v1h2.5V69h1v-2.5h2.5v-1h-2.5zm-194-29c-1.654 0-3-1.346-3-3s1.346-3 3-3 3 1.346 3 3-1.346 3-3 3zm0-5c-1.103 0-2 .897-2 2s.897 2 2 2 2-.897 2-2-.897-2-2-2zm188 49c-1.654 0-3-1.346-3-3s1.346-3 3-3 3 1.346 3 3-1.346 3-3 3zm0-5c-1.103 0-2 .897-2 2s.897 2 2 2 2-.897 2-2-.897-2-2-2z"/></svg>