<svg xmlns="http://www.w3.org/2000/svg" data-tags="preview" viewBox="0 0 219 161"><path fill="#0A0A14" d="M22.55 35.56l-2.17-5.88h.77l1.73 4.93h.06l1.73-4.93h.77l-2.17 5.88h-.72zm3.08-1.23c0-.79.58-1.24 1.6-1.3l1.27-.08v-.4c0-.54-.34-.84-1-.84-.52 0-.88.2-.98.55h-.71c.1-.7.79-1.17 1.72-1.17 1.07 0 1.67.55 1.67 1.46v3h-.67v-.64h-.06c-.29.47-.77.73-1.35.73-.85 0-1.49-.51-1.49-1.31zm2.87-.41v-.4l-1.18.07c-.67.05-.96.28-.96.72 0 .45.38.71.89.71.72 0 1.25-.47 1.25-1.1zm1.97-4.5h.7v6.14h-.7v-6.14zM36 35.56h-.67v-.69h-.07c-.22.49-.69.77-1.36.77-.98 0-1.5-.6-1.5-1.63v-2.84h.7v2.67c0 .79.3 1.16 1 1.16.77 0 1.2-.46 1.2-1.23v-2.6h.7v4.39zm4.85-1.14c-.22.75-.9 1.22-1.85 1.22-1.22 0-1.98-.88-1.98-2.27 0-1.38.77-2.28 1.98-2.28 1.18 0 1.9.84 1.9 2.2v.28h-3.16v.03c.04.87.53 1.42 1.27 1.42.57 0 .95-.21 1.13-.6h.7zM37.76 33h2.41c-.01-.78-.48-1.3-1.17-1.3-.7 0-1.2.52-1.25 1.3zm113.3 5.74c.85 0 1.44.6 1.44 1.46 0 .84-.6 1.44-1.45 1.44h-1.14v1.61h-.56v-4.51h1.7zm-1.15 2.4h1c.64 0 1.01-.34 1.01-.94 0-.62-.36-.96-1.01-.96h-1v1.9zm3.51-1.26h.51v.5h.05c.1-.33.5-.56.94-.56.09 0 .2 0 .27.02v.53a2.2 2.2 0 00-.35-.02c-.5 0-.88.34-.88.81v2.1h-.54v-3.38zm5.19 2.5c-.17.58-.68.93-1.42.93-.94 0-1.52-.67-1.52-1.74 0-1.06.6-1.75 1.52-1.75.9 0 1.46.65 1.46 1.7v.2h-2.42v.03c.03.67.4 1.09.97 1.09.44 0 .73-.16.87-.46h.54zm-2.38-1.1h1.86c-.02-.59-.37-.98-.9-.98-.55 0-.92.4-.96.99zm4.78 1.97h-.55l-1.25-3.37h.57l.92 2.78h.05l.93-2.78h.57l-1.24 3.37zm1.94-4.43a.38.38 0 01.75 0 .38.38 0 01-.38.38.38.38 0 01-.37-.38zm.1 1.06h.54v3.37h-.54v-3.37zm1.46 1.69c0-1.09.6-1.75 1.56-1.75s1.55.66 1.55 1.75c0 1.08-.6 1.74-1.55 1.74s-1.56-.66-1.56-1.74zm2.56 0c0-.8-.36-1.26-1-1.26s-1 .46-1 1.26.36 1.26 1 1.26 1-.46 1-1.26zm4.19 1.68h-.52v-.52h-.05c-.17.37-.53.58-1.04.58-.76 0-1.15-.45-1.15-1.24v-2.19h.53v2.05c0 .6.23.9.77.9.6 0 .92-.36.92-.95v-2h.54v3.37zm2.26-3.43c.7 0 1.2.35 1.27.9h-.54c-.07-.26-.33-.44-.74-.44-.4 0-.71.2-.71.5 0 .23.19.38.58.47l.52.13c.64.15.94.43.94.91 0 .6-.58 1.02-1.35 1.02-.75 0-1.26-.36-1.32-.92h.55c.1.29.36.47.8.47.45 0 .77-.22.77-.53 0-.23-.17-.38-.53-.47l-.58-.14c-.63-.16-.92-.43-.92-.92 0-.56.54-.98 1.26-.98zm5.88-1.08c.85 0 1.44.6 1.44 1.46 0 .85-.6 1.44-1.45 1.44h-1.13v1.61h-.57v-4.51h1.7zm-1.14 2.4h1c.63 0 1-.34 1-.94 0-.62-.35-.96-1-.96h-1v1.9zm6.18 1.24c-.16.58-.68.93-1.42.93-.93 0-1.52-.67-1.52-1.74 0-1.06.6-1.75 1.52-1.75.91 0 1.47.65 1.47 1.7v.2h-2.43v.03c.03.67.4 1.09.98 1.09.43 0 .73-.16.87-.46h.53zm-2.38-1.1h1.86c-.01-.59-.37-.98-.9-.98-.54 0-.91.4-.96.99zm3.34-1.4h.51v.5h.05c.1-.33.5-.56.94-.56.09 0 .2 0 .27.02v.53a2.2 2.2 0 00-.35-.02c-.5 0-.88.34-.88.81v2.1h-.54v-3.38zm2.41-1.06a.38.38 0 01.75 0 .38.38 0 01-.37.38.38.38 0 01-.38-.38zm.11 1.06h.54v3.37h-.54v-3.37zm1.46 1.69c0-1.09.6-1.75 1.56-1.75s1.55.66 1.55 1.75c0 1.08-.6 1.74-1.55 1.74s-1.56-.66-1.56-1.74zm2.55 0c0-.8-.36-1.26-1-1.26-.63 0-1 .46-1 1.26s.37 1.26 1 1.26c.64 0 1-.46 1-1.26zm1.3 0c0-1.06.56-1.75 1.41-1.75.47 0 .87.22 1.06.6h.05v-1.88h.54v4.71h-.52v-.53h-.05c-.21.37-.61.6-1.08.6-.86 0-1.41-.7-1.41-1.75zm.55 0c0 .79.37 1.26.99 1.26.61 0 .99-.48.99-1.26 0-.77-.38-1.26-1-1.26-.6 0-.98.47-.98 1.26zm6.64.41l-.8 1.27H199l1.15-1.68-1.17-1.69h.64l.8 1.26h.06l.79-1.26h.6l-1.14 1.67 1.16 1.7h-.64l-.8-1.27h-.04zm-52.72-17.4h-.1l-2.3 1.66v-1.19l2.4-1.73h1.13v9.03h-1.13v-7.78zm6.66-1.47c1.62 0 2.85 1.1 2.85 2.54 0 .93-.42 1.67-1.9 3.26l-2.17 2.33v.1h4.23v1.01h-5.85v-.77l3.12-3.41c1.17-1.27 1.45-1.75 1.45-2.48 0-.9-.77-1.6-1.77-1.6-1.05 0-1.77.71-1.77 1.77v.01h-1.08c0-1.6 1.21-2.76 2.89-2.76zm6.75 4.12h1.1c1.02 0 1.75-.66 1.75-1.6 0-.92-.7-1.54-1.73-1.54-1.04 0-1.72.58-1.82 1.55h-1.1c.12-1.56 1.24-2.53 2.96-2.53 1.58 0 2.84 1.05 2.84 2.37 0 1.07-.6 1.86-1.59 2.1v.1c1.23.16 1.97 1 1.97 2.24 0 1.49-1.4 2.65-3.17 2.65-1.84 0-3.1-1.02-3.18-2.57h1.09c.1.96.9 1.58 2.07 1.58 1.2 0 2.04-.7 2.04-1.7 0-1.04-.8-1.69-2.08-1.69h-1.15v-.96zm15.32 1.62a.39.39 0 00-.3-.13.39.39 0 00-.3.13l-1.4 1.4v-5.8c0-.26-.18-.43-.43-.43s-.43.17-.43.42v5.82l-1.41-1.41a.39.39 0 00-.3-.13.39.39 0 00-.3.13.41.41 0 000 .6l2.09 2.08.05.05.02.02a.42.42 0 00.27.11.42.42 0 00.28-.11l.03-.02.05-.05 2.08-2.08a.41.41 0 000-.6zm1.9-1.14c0-1.79.78-2.83 2.07-2.83 1.29 0 2.07 1.04 2.07 2.84 0 1.8-.77 2.84-2.07 2.84-1.3 0-2.07-1.05-2.07-2.85zm3.15 0c0-1.32-.4-2.03-1.08-2.03s-1.09.71-1.09 2.03c0 1.34.4 2.05 1.1 2.05.68 0 1.07-.71 1.07-2.05zm1.97 0c0-1.79.78-2.83 2.07-2.83 1.28 0 2.06 1.04 2.06 2.84 0 1.8-.77 2.84-2.07 2.84-1.3 0-2.06-1.05-2.06-2.85zm3.15 0c0-1.32-.4-2.03-1.09-2.03-.68 0-1.09.71-1.09 2.03 0 1.34.4 2.05 1.1 2.05.68 0 1.08-.71 1.08-2.05zm2.14 2.2c0-.34.24-.59.6-.59.35 0 .6.25.6.6a.58.58 0 01-.6.59.58.58 0 01-.6-.6zm2.35-2.2c0-1.79.78-2.83 2.07-2.83 1.28 0 2.07 1.04 2.07 2.84 0 1.8-.77 2.84-2.07 2.84-1.3 0-2.07-1.05-2.07-2.85zm3.15 0c0-1.32-.4-2.03-1.08-2.03s-1.09.71-1.09 2.03c0 1.34.4 2.05 1.1 2.05.68 0 1.07-.71 1.07-2.05zm2.97-.11c-.73 0-1.23-.55-1.23-1.35s.5-1.35 1.23-1.35 1.23.54 1.23 1.35c0 .8-.5 1.35-1.23 1.35zm-.7 2.83l2.05-2.83 1.74-2.6h.92l-2.09 2.87-1.69 2.55h-.92zm1.18-4.19c0-.44-.18-.71-.48-.71s-.48.27-.48.71c0 .44.19.72.48.72s.47-.28.47-.72zm2.8 4.3c-.73 0-1.23-.55-1.23-1.35s.5-1.35 1.23-1.35 1.22.55 1.22 1.35-.5 1.35-1.22 1.35zm.47-1.35c0-.45-.18-.72-.47-.72-.3 0-.48.28-.48.72 0 .44.19.72.48.72.28 0 .47-.28.47-.72zM22.55 84.56l-2.17-5.88h.77l1.73 4.93h.06l1.73-4.93h.77l-2.17 5.88h-.72zm3.08-1.23c0-.79.58-1.24 1.6-1.3l1.27-.08v-.4c0-.54-.34-.84-1-.84-.52 0-.88.2-.98.55h-.71c.1-.7.79-1.17 1.72-1.17 1.07 0 1.67.55 1.67 1.46v3h-.67v-.64h-.06c-.29.47-.77.73-1.35.73-.85 0-1.49-.5-1.49-1.31zm2.87-.4v-.41l-1.18.08c-.67.04-.96.27-.96.71 0 .45.38.71.89.71.72 0 1.25-.47 1.25-1.1zm1.97-4.5h.7v6.13h-.7v-6.14zM36 84.55h-.67v-.69h-.07c-.22.49-.69.77-1.36.77-.98 0-1.5-.59-1.5-1.63v-2.84h.7v2.67c0 .79.3 1.16 1 1.16.77 0 1.2-.46 1.2-1.23v-2.6h.7v4.39zm4.85-1.14c-.22.76-.9 1.22-1.85 1.22-1.22 0-1.98-.88-1.98-2.27 0-1.38.77-2.28 1.98-2.28 1.18 0 1.9.84 1.9 2.2v.28h-3.16v.03c.04.87.53 1.42 1.27 1.42.57 0 .95-.21 1.13-.6h.7zM37.76 82h2.41c-.01-.78-.48-1.3-1.17-1.3-.7 0-1.2.52-1.25 1.3zm113.3 5.74c.85 0 1.44.6 1.44 1.46 0 .84-.6 1.44-1.45 1.44h-1.14v1.61h-.56v-4.51h1.7zm-1.15 2.4h1c.64 0 1.01-.34 1.01-.94 0-.62-.36-.96-1.01-.96h-1v1.9zm3.51-1.26h.51v.5h.05c.1-.33.5-.56.94-.56.09 0 .2 0 .27.02v.53a2.2 2.2 0 00-.35-.03c-.5 0-.88.35-.88.82v2.1h-.54v-3.38zm5.19 2.5c-.17.58-.68.93-1.42.93-.94 0-1.52-.67-1.52-1.74 0-1.06.6-1.75 1.52-1.75.9 0 1.46.65 1.46 1.7v.2h-2.42v.03c.03.66.4 1.09.97 1.09.44 0 .73-.16.87-.46h.54zm-2.38-1.1h1.86c-.02-.59-.37-.98-.9-.98-.55 0-.92.4-.96.99zm4.78 1.97h-.55l-1.25-3.37h.57l.92 2.78h.05l.93-2.78h.57l-1.24 3.37zm1.94-4.43a.38.38 0 01.75 0 .38.38 0 01-.38.38.38.38 0 01-.37-.38zm.1 1.06h.54v3.37h-.54v-3.37zm1.46 1.69c0-1.09.6-1.75 1.56-1.75s1.55.66 1.55 1.75c0 1.08-.6 1.74-1.55 1.74s-1.56-.66-1.56-1.74zm2.56 0c0-.8-.36-1.26-1-1.26s-1 .46-1 1.26.36 1.26 1 1.26 1-.47 1-1.26zm4.19 1.68h-.52v-.53h-.05c-.17.38-.53.6-1.04.6-.76 0-1.15-.46-1.15-1.26v-2.18h.53v2.05c0 .6.23.9.77.9.6 0 .92-.36.92-.95v-2h.54v3.37zm2.26-3.43c.7 0 1.2.35 1.27.9h-.54c-.07-.26-.33-.44-.74-.44-.4 0-.71.2-.71.5 0 .23.19.38.58.47l.52.13c.64.15.94.43.94.91 0 .6-.58 1.02-1.35 1.02-.75 0-1.26-.36-1.32-.92h.55c.1.29.36.47.8.47.45 0 .77-.22.77-.53 0-.23-.17-.38-.53-.47l-.58-.14c-.63-.16-.92-.43-.92-.92 0-.56.54-.98 1.26-.98zm5.88-1.08c.85 0 1.44.6 1.44 1.46 0 .84-.6 1.44-1.45 1.44h-1.13v1.61h-.57v-4.51h1.7zm-1.14 2.4h1c.63 0 1-.34 1-.94 0-.62-.35-.96-1-.96h-1v1.9zm6.18 1.24c-.16.58-.68.93-1.42.93-.93 0-1.52-.67-1.52-1.74 0-1.06.6-1.75 1.52-1.75.91 0 1.47.65 1.47 1.7v.2h-2.43v.03c.03.67.4 1.09.98 1.09.43 0 .73-.16.87-.46h.53zm-2.38-1.1h1.86c-.01-.59-.37-.98-.9-.98-.54 0-.91.4-.96.99zm3.34-1.4h.51v.5h.05c.1-.33.5-.56.94-.56.09 0 .2 0 .27.02v.53a2.2 2.2 0 00-.35-.03c-.5 0-.88.35-.88.82v2.1h-.54v-3.38zm2.41-1.06a.38.38 0 01.75 0 .38.38 0 01-.37.38.38.38 0 01-.38-.38zm.11 1.06h.54v3.37h-.54v-3.37zm1.46 1.69c0-1.09.6-1.75 1.56-1.75s1.55.66 1.55 1.75c0 1.08-.6 1.74-1.55 1.74s-1.56-.66-1.56-1.74zm2.55 0c0-.8-.36-1.26-1-1.26-.63 0-1 .46-1 1.26s.37 1.26 1 1.26c.64 0 1-.46 1-1.26zm1.3 0c0-1.06.56-1.75 1.41-1.75.47 0 .87.22 1.06.6h.05v-1.88h.54v4.71h-.52v-.54h-.05c-.21.38-.61.6-1.08.6-.86 0-1.41-.68-1.41-1.74zm.55 0c0 .79.37 1.26.99 1.26.61 0 .99-.48.99-1.26 0-.77-.38-1.26-1-1.26-.6 0-.98.47-.98 1.26zm6.64.41l-.8 1.27H199l1.15-1.68-1.17-1.69h.64l.8 1.26h.06l.79-1.26h.6l-1.14 1.67 1.16 1.7h-.64l-.8-1.27h-.04zm-52.72-17.4h-.1l-2.3 1.66v-1.19l2.4-1.73h1.13v9.03h-1.13v-7.77zm6.66-1.47c1.62 0 2.85 1.1 2.85 2.53 0 .94-.42 1.67-1.9 3.26l-2.17 2.34v.1h4.23v1.01h-5.85v-.77l3.12-3.41c1.17-1.27 1.45-1.76 1.45-2.48 0-.9-.77-1.6-1.77-1.6-1.05 0-1.77.71-1.77 1.77v.01h-1.08c0-1.6 1.21-2.76 2.89-2.76zm6.75 4.12h1.1c1.02 0 1.75-.67 1.75-1.6 0-.92-.7-1.54-1.73-1.54-1.04 0-1.72.58-1.82 1.55h-1.1c.12-1.57 1.24-2.53 2.96-2.53 1.58 0 2.84 1.05 2.84 2.37 0 1.07-.6 1.86-1.59 2.1v.1c1.23.15 1.97 1 1.97 2.24 0 1.49-1.4 2.64-3.17 2.64-1.84 0-3.1-1.02-3.18-2.56h1.09c.1.96.9 1.58 2.07 1.58 1.2 0 2.04-.7 2.04-1.7 0-1.04-.8-1.69-2.08-1.69h-1.15v-.96zm15.32 1.62a.39.39 0 00-.3-.13.39.39 0 00-.3.13l-1.4 1.4v-5.8c0-.26-.18-.43-.43-.43s-.43.17-.43.42v5.82l-1.41-1.41a.39.39 0 00-.3-.13.39.39 0 00-.3.13.41.41 0 000 .6l2.09 2.08.05.05.02.02a.42.42 0 00.27.11.42.42 0 00.28-.11l.03-.02.05-.05 2.08-2.09a.41.41 0 000-.6zm1.9-1.14c0-1.79.78-2.83 2.07-2.83 1.29 0 2.07 1.04 2.07 2.84 0 1.8-.77 2.84-2.07 2.84-1.3 0-2.07-1.05-2.07-2.85zm3.15 0c0-1.32-.4-2.03-1.08-2.03s-1.09.71-1.09 2.03c0 1.34.4 2.05 1.1 2.05.68 0 1.07-.71 1.07-2.05zm1.97 0c0-1.79.78-2.83 2.07-2.83 1.28 0 2.06 1.04 2.06 2.84 0 1.8-.77 2.84-2.07 2.84-1.3 0-2.06-1.05-2.06-2.85zm3.15 0c0-1.32-.4-2.03-1.09-2.03-.68 0-1.09.71-1.09 2.03 0 1.34.4 2.05 1.1 2.05.68 0 1.08-.71 1.08-2.05zm2.14 2.2c0-.34.24-.59.6-.59.35 0 .6.25.6.6a.58.58 0 01-.6.59.58.58 0 01-.6-.6zm2.35-2.2c0-1.79.78-2.83 2.07-2.83 1.28 0 2.07 1.04 2.07 2.84 0 1.8-.77 2.84-2.07 2.84-1.3 0-2.07-1.05-2.07-2.85zm3.15 0c0-1.32-.4-2.03-1.08-2.03s-1.09.71-1.09 2.03c0 1.34.4 2.05 1.1 2.05.68 0 1.07-.71 1.07-2.05zm2.97-.11c-.73 0-1.23-.55-1.23-1.35s.5-1.35 1.23-1.35 1.23.54 1.23 1.35c0 .8-.5 1.35-1.23 1.35zm-.7 2.83l2.05-2.83 1.74-2.6h.92l-2.09 2.87-1.69 2.55h-.92zm1.18-4.19c0-.44-.18-.71-.48-.71s-.48.27-.48.71c0 .44.19.72.48.72s.47-.28.47-.72zm2.8 4.3c-.73 0-1.23-.55-1.23-1.35s.5-1.35 1.23-1.35 1.22.55 1.22 1.35-.5 1.35-1.22 1.35zm.47-1.35c0-.45-.18-.72-.47-.72-.3 0-.48.28-.48.72 0 .44.19.72.48.72.28 0 .47-.28.47-.72zM22.55 133.56l-2.17-5.88h.77l1.73 4.93h.06l1.73-4.93h.77l-2.17 5.88h-.72zm3.08-1.23c0-.79.58-1.24 1.6-1.3l1.27-.08v-.4c0-.54-.34-.84-1-.84-.52 0-.88.2-.98.55h-.71c.1-.7.79-1.17 1.72-1.17 1.07 0 1.67.55 1.67 1.46v3h-.67v-.64h-.06c-.29.47-.77.73-1.35.73-.85 0-1.49-.5-1.49-1.31zm2.87-.4v-.41l-1.18.08c-.67.04-.96.27-.96.71 0 .45.38.71.89.71.72 0 1.25-.47 1.25-1.1zm1.97-4.5h.7v6.13h-.7v-6.14zm5.54 6.13h-.67v-.69h-.07c-.22.49-.69.77-1.36.77-.98 0-1.5-.59-1.5-1.63v-2.84h.7v2.67c0 .79.3 1.16 1 1.16.77 0 1.2-.46 1.2-1.23v-2.6h.7v4.39zm4.85-1.14c-.22.76-.9 1.22-1.85 1.22-1.22 0-1.98-.88-1.98-2.27 0-1.38.77-2.28 1.98-2.28 1.18 0 1.9.84 1.9 2.2v.28h-3.16v.03c.04.87.53 1.42 1.27 1.42.57 0 .95-.21 1.13-.6h.7zm-3.1-1.42h2.41c-.01-.78-.48-1.3-1.17-1.3-.7 0-1.2.52-1.25 1.3zm113.3 5.74c.85 0 1.44.6 1.44 1.46 0 .85-.6 1.44-1.45 1.44h-1.14v1.61h-.56v-4.51h1.7zm-1.15 2.4h1c.64 0 1.01-.34 1.01-.94 0-.62-.36-.96-1.01-.96h-1v1.9zm3.51-1.26h.51v.5h.05c.1-.33.5-.56.94-.56.09 0 .2 0 .27.02v.53a2.2 2.2 0 00-.35-.03c-.5 0-.88.35-.88.82v2.1h-.54v-3.38zm5.19 2.5c-.17.58-.68.93-1.42.93-.94 0-1.52-.67-1.52-1.74 0-1.06.6-1.75 1.52-1.75.9 0 1.46.65 1.46 1.7v.2h-2.42v.03c.03.66.4 1.09.97 1.09.44 0 .73-.16.87-.46h.54zm-2.38-1.1h1.86c-.02-.59-.37-.98-.9-.98-.55 0-.92.4-.96.99zm4.78 1.97h-.55l-1.25-3.37h.57l.92 2.78h.05l.93-2.78h.57l-1.24 3.37zm1.94-4.43a.38.38 0 01.75 0 .38.38 0 01-.38.38.38.38 0 01-.37-.38zm.1 1.06h.54v3.37h-.54v-3.37zm1.46 1.69c0-1.09.6-1.75 1.56-1.75s1.55.66 1.55 1.75c0 1.08-.6 1.74-1.55 1.74s-1.56-.66-1.56-1.74zm2.56 0c0-.8-.36-1.26-1-1.26s-1 .46-1 1.26.36 1.26 1 1.26 1-.47 1-1.26zm4.19 1.68h-.52v-.52h-.05c-.17.37-.53.58-1.04.58-.76 0-1.15-.45-1.15-1.24v-2.19h.53v2.05c0 .61.23.9.77.9.6 0 .92-.36.92-.95v-2h.54v3.37zm2.26-3.43c.7 0 1.2.35 1.27.9h-.54c-.07-.26-.33-.44-.74-.44-.4 0-.71.2-.71.5 0 .23.19.38.58.47l.52.13c.64.15.94.43.94.91 0 .6-.58 1.02-1.35 1.02-.75 0-1.26-.36-1.32-.92h.55c.1.29.36.47.8.47.45 0 .77-.22.77-.53 0-.23-.17-.38-.53-.47l-.58-.14c-.63-.16-.92-.43-.92-.92 0-.56.54-.98 1.26-.98zm5.88-1.08c.85 0 1.44.6 1.44 1.46 0 .85-.6 1.44-1.45 1.44h-1.13v1.61h-.57v-4.51h1.7zm-1.14 2.4h1c.63 0 1-.34 1-.94 0-.62-.35-.96-1-.96h-1v1.9zm6.18 1.24c-.16.58-.68.93-1.42.93-.93 0-1.52-.67-1.52-1.74 0-1.06.6-1.75 1.52-1.75.91 0 1.47.65 1.47 1.7v.2h-2.43v.03c.03.66.4 1.09.98 1.09.43 0 .73-.16.87-.46h.53zm-2.38-1.1h1.86c-.01-.59-.37-.98-.9-.98-.54 0-.91.4-.96.99zm3.34-1.4h.51v.5h.05c.1-.33.5-.56.94-.56.09 0 .2 0 .27.02v.53a2.2 2.2 0 00-.35-.03c-.5 0-.88.35-.88.82v2.1h-.54v-3.38zm2.41-1.06a.38.38 0 01.75 0 .38.38 0 01-.37.38.38.38 0 01-.38-.38zm.11 1.06h.54v3.37h-.54v-3.37zm1.46 1.69c0-1.09.6-1.75 1.56-1.75s1.55.66 1.55 1.75c0 1.08-.6 1.74-1.55 1.74s-1.56-.66-1.56-1.74zm2.55 0c0-.8-.36-1.26-1-1.26-.63 0-1 .46-1 1.26s.37 1.26 1 1.26c.64 0 1-.47 1-1.26zm1.3 0c0-1.06.56-1.75 1.41-1.75.47 0 .87.22 1.06.6h.05v-1.88h.54v4.71h-.52v-.53h-.05c-.21.37-.61.6-1.08.6-.86 0-1.41-.7-1.41-1.75zm.55 0c0 .79.37 1.26.99 1.26.61 0 .99-.48.99-1.26 0-.77-.38-1.26-1-1.26-.6 0-.98.47-.98 1.26zm6.64.41l-.8 1.27H199l1.15-1.68-1.17-1.69h.64l.8 1.26h.06l.79-1.26h.6l-1.14 1.67 1.16 1.7h-.64l-.8-1.27h-.04zm-52.72-17.4h-.1l-2.3 1.66v-1.19l2.4-1.73h1.13v9.03h-1.13v-7.77zm6.66-1.47c1.62 0 2.85 1.1 2.85 2.53 0 .94-.42 1.67-1.9 3.26l-2.17 2.34v.1h4.23v1.01h-5.85v-.77l3.12-3.41c1.17-1.27 1.45-1.76 1.45-2.48 0-.9-.77-1.6-1.77-1.6-1.05 0-1.77.71-1.77 1.77v.01h-1.08c0-1.6 1.21-2.76 2.89-2.76zm6.75 4.12h1.1c1.02 0 1.75-.67 1.75-1.6 0-.92-.7-1.54-1.73-1.54-1.04 0-1.72.58-1.82 1.55h-1.1c.12-1.57 1.24-2.53 2.96-2.53 1.58 0 2.84 1.05 2.84 2.37 0 1.07-.6 1.86-1.59 2.1v.1c1.23.15 1.97 1 1.97 2.24 0 1.49-1.4 2.64-3.17 2.64-1.84 0-3.1-1.02-3.18-2.56h1.09c.1.96.9 1.58 2.07 1.58 1.2 0 2.04-.7 2.04-1.7 0-1.04-.8-1.69-2.08-1.69h-1.15v-.96zm15.32 1.62a.39.39 0 00-.3-.13.39.39 0 00-.3.13l-1.4 1.4v-5.8c0-.26-.18-.43-.43-.43s-.43.17-.43.42v5.82l-1.41-1.41a.39.39 0 00-.3-.13.39.39 0 00-.3.13.41.41 0 000 .6l2.09 2.08.05.05.02.02a.42.42 0 00.27.11.42.42 0 00.28-.11l.03-.02.05-.05 2.08-2.08a.41.41 0 000-.6zm1.9-1.14c0-1.79.78-2.83 2.07-2.83 1.29 0 2.07 1.04 2.07 2.84 0 1.8-.77 2.84-2.07 2.84-1.3 0-2.07-1.05-2.07-2.85zm3.15 0c0-1.32-.4-2.03-1.08-2.03s-1.09.71-1.09 2.03c0 1.34.4 2.05 1.1 2.05.68 0 1.07-.71 1.07-2.05zm1.97 0c0-1.79.78-2.83 2.07-2.83 1.28 0 2.06 1.04 2.06 2.84 0 1.8-.77 2.84-2.07 2.84-1.3 0-2.06-1.05-2.06-2.85zm3.15 0c0-1.32-.4-2.03-1.09-2.03-.68 0-1.09.71-1.09 2.03 0 1.34.4 2.05 1.1 2.05.68 0 1.08-.71 1.08-2.05zm2.14 2.2c0-.34.24-.59.6-.59.35 0 .6.25.6.6a.58.58 0 01-.6.59.58.58 0 01-.6-.6zm2.35-2.2c0-1.79.78-2.83 2.07-2.83 1.28 0 2.07 1.04 2.07 2.84 0 1.8-.77 2.84-2.07 2.84-1.3 0-2.07-1.05-2.07-2.85zm3.15 0c0-1.32-.4-2.03-1.08-2.03s-1.09.71-1.09 2.03c0 1.34.4 2.05 1.1 2.05.68 0 1.07-.71 1.07-2.05zm2.97-.11c-.73 0-1.23-.55-1.23-1.35s.5-1.35 1.23-1.35 1.23.54 1.23 1.35c0 .8-.5 1.35-1.23 1.35zm-.7 2.83l2.05-2.83 1.73-2.59h.92l-2.09 2.87-1.69 2.55h-.92zm1.18-4.19c0-.44-.18-.71-.48-.71s-.48.27-.48.71c0 .44.19.72.48.72s.47-.28.47-.72zm2.8 4.3c-.73 0-1.23-.55-1.23-1.35s.5-1.35 1.23-1.35 1.22.55 1.22 1.35-.5 1.35-1.22 1.35zm.47-1.35c0-.45-.18-.72-.47-.72-.3 0-.48.28-.48.72 0 .44.19.72.48.72.28 0 .47-.28.47-.72zM202 55.75H20v.5h182v-.5zm0 52.5H20v.5h182v-.5z"/></svg>