<svg xmlns="http://www.w3.org/2000/svg" data-tags="selected charts" viewBox="0 0 40 35.2"><path fill="#CCD756" d="M35.1 0H4.9a2 2 0 00-2 2v32.5c0 .3.3.6.6.6h33c.3 0 .6-.3.6-.6V2a2 2 0 00-2-2zM21.65 4.99a.5.5 0 01.45-.29h7.3a.5.5 0 01.4.81l-3.6 4.5a.52.52 0 01-.4.19.5.5 0 01-.39-.18l-3.7-4.5a.5.5 0 01-.06-.53zM9.8 9.39l3.6-4.5a.52.52 0 01.78 0l3.6 4.5a.5.5 0 01-.39.81h-7.2a.5.5 0 01-.39-.81zM4.1 33.9V14h31.8v19.9H4.1z"/><path d="M11.35 17.8c-.2-.2-.4-.4-.6-.5-.2-.1-.5-.2-.8-.2-.4 0-.7 0-1 .3s-.5.6-.6 1c-.1.4-.2.9-.2 1.6 0 1 .2 1.8.6 2.4.3.4.7.6 1.3.6.4 0 .7 0 1-.3.3-.3.5-.6.6-1 .1-.4.2-.9.2-1.6 0-.6 0-1-.1-1.4-.1-.4-.2-.7-.4-.9zm-.6 4.1c-.2.3-.5.5-.8.5s-.6-.2-.8-.5-.3-1-.3-1.9c0-1 .2-1.6.3-2 .2-.3.5-.4.8-.4s.6.2.8.5c.2.3.3 1 .3 1.9 0 1-.1 1.6-.3 1.9zm5.1-4.1c-.2-.2-.4-.4-.6-.5-.2-.1-.5-.2-.8-.2-.4 0-.7 0-1 .3s-.5.6-.6 1c-.1.4-.2.9-.2 1.6 0 1 .2 1.8.6 2.4.3.4.7.6 1.3.6.4 0 .7 0 1-.3.3-.3.5-.6.6-1 .1-.4.2-.9.2-1.6 0-.6 0-1-.1-1.4-.1-.4-.2-.7-.4-.9zm-.6 4.1c-.2.3-.5.5-.8.5s-.6-.2-.8-.5-.3-1-.3-1.9c0-1 .1-1.6.3-2 .2-.3.5-.4.8-.4s.6.2.8.5c.2.3.3 1 .3 1.9 0 1-.1 1.6-.3 1.9zm2.2.9h.3c0 .2-.1.4-.1.5 0 .1-.2.2-.3.3l.2.3c.2-.1.4-.2.5-.4.1-.2.2-.4.2-.7V22h-.8v.8zm5-5c-.2-.2-.4-.4-.6-.5-.2-.1-.5-.2-.8-.2-.4 0-.7.1-1 .3-.3.3-.5.6-.6 1-.1.4-.2.9-.2 1.6 0 1 .2 1.8.6 2.4.3.4.7.6 1.3.6.4 0 .7-.1 1-.3.3-.3.5-.6.6-1 .1-.4.2-.9.2-1.6 0-.6 0-1-.1-1.4-.1-.4-.2-.7-.4-.9zm-.5 4.1c-.2.3-.5.5-.8.5s-.6-.2-.8-.5-.3-1-.3-1.9c0-1 .1-1.6.3-2 .2-.3.5-.4.8-.4s.6.2.8.5.3 1 .3 1.9c0 1-.1 1.6-.3 1.9zm5-4.1c-.2-.2-.4-.4-.6-.5-.2-.1-.5-.2-.8-.2-.4 0-.7.1-1 .3-.3.3-.5.6-.6 1-.1.4-.2.9-.2 1.6 0 1 .2 1.8.6 2.4.3.4.7.6 1.3.6.4 0 .7-.1 1-.3.3-.3.5-.6.6-1 .1-.4.2-.9.2-1.6 0-.6 0-1-.1-1.4-.1-.4-.2-.7-.4-.9zm-.6 4.1c-.2.3-.5.5-.8.5-.3 0-.6-.2-.8-.5-.2-.3-.3-1-.3-1.9 0-1 .1-1.6.3-2 .2-.3.5-.4.8-.4.3 0 .6.2.8.5s.3 1 .3 1.9c0 1-.1 1.6-.3 1.9zm5.4-3.2c-.1-.4-.2-.7-.4-.9-.2-.2-.4-.4-.6-.5-.2-.1-.5-.2-.8-.2-.4 0-.7.1-1 .3-.3.3-.5.6-.6 1-.1.4-.2.9-.2 1.6 0 1 .2 1.8.6 2.4.3.4.7.6 1.3.6.4 0 .7-.1 1-.3.3-.3.5-.6.6-1 .1-.4.2-.9.2-1.6 0-.6 0-1-.1-1.4zm-.9 3.2c-.2.3-.5.5-.8.5-.3 0-.6-.2-.8-.5-.2-.3-.3-1-.3-1.9 0-1 .1-1.6.3-2 .2-.3.5-.4.8-.4.3 0 .6.2.8.5s.3 1 .3 1.9c0 1-.1 1.6-.3 1.9zm-19.5 4.41c-.2-.2-.4-.4-.6-.5-.2-.1-.5-.2-.8-.2-.4 0-.7 0-1 .3s-.5.6-.6 1c-.1.4-.2.9-.2 1.6 0 1 .2 1.8.6 2.4.3.4.7.6 1.3.6.4 0 .7 0 1-.3.3-.3.5-.6.6-1 .1-.4.2-.9.2-1.6 0-.6 0-1-.1-1.4-.1-.4-.2-.7-.4-.9zm-.6 4.1c-.2.3-.5.5-.8.5s-.6-.2-.8-.5-.3-1-.3-1.9c0-1 .2-1.6.3-2 .2-.3.5-.4.8-.4s.6.2.8.5c.2.3.3 1 .3 1.9 0 1-.1 1.6-.3 1.9zm5.1-4.1c-.2-.2-.4-.4-.6-.5-.2-.1-.5-.2-.8-.2-.4 0-.7 0-1 .3s-.5.6-.6 1c-.1.4-.2.9-.2 1.6 0 1 .2 1.8.6 2.4.3.4.7.6 1.3.6.4 0 .7 0 1-.3.3-.3.5-.6.6-1 .1-.4.2-.9.2-1.6 0-.6 0-1-.1-1.4-.1-.4-.2-.7-.4-.9zm-.6 4.1c-.2.3-.5.5-.8.5s-.6-.2-.8-.5-.3-1-.3-1.9c0-1 .1-1.6.3-2 .2-.3.5-.4.8-.4s.6.2.8.5c.2.3.3 1 .3 1.9 0 1-.1 1.6-.3 1.9zm2.2.9h.3c0 .2-.1.4-.1.5 0 .1-.2.2-.3.3l.2.3c.2-.1.4-.2.5-.4.1-.2.2-.4.2-.7v-.8h-.8v.8zm5-5c-.2-.2-.4-.4-.6-.5-.2-.1-.5-.2-.8-.2-.4 0-.7.1-1 .3-.3.3-.5.6-.6 1-.1.4-.2.9-.2 1.6 0 1 .2 1.8.6 2.4.3.4.7.6 1.3.6.4 0 .7-.1 1-.3.3-.3.5-.6.6-1 .1-.4.2-.9.2-1.6 0-.6 0-1-.1-1.4-.1-.4-.2-.7-.4-.9zm-.5 4.1c-.2.3-.5.5-.8.5s-.6-.2-.8-.5-.3-1-.3-1.9c0-1 .1-1.6.3-2 .2-.3.5-.4.8-.4s.6.2.8.5.3 1 .3 1.9c0 1-.1 1.6-.3 1.9zm5-4.1c-.2-.2-.4-.4-.6-.5-.2-.1-.5-.2-.8-.2-.4 0-.7.1-1 .3-.3.3-.5.6-.6 1-.1.4-.2.9-.2 1.6 0 1 .2 1.8.6 2.4.3.4.7.6 1.3.6.4 0 .7-.1 1-.3.3-.3.5-.6.6-1 .1-.4.2-.9.2-1.6 0-.6 0-1-.1-1.4-.1-.4-.2-.7-.4-.9zm-.6 4.1c-.2.3-.5.5-.8.5-.3 0-.6-.2-.8-.5-.2-.3-.3-1-.3-1.9 0-1 .1-1.6.3-2 .2-.3.5-.4.8-.4.3 0 .6.2.8.5s.3 1 .3 1.9c0 1-.1 1.6-.3 1.9zm5.4-3.2c-.1-.4-.2-.7-.4-.9-.2-.2-.4-.4-.6-.5-.2-.1-.5-.2-.8-.2-.4 0-.7.1-1 .3-.3.3-.5.6-.6 1-.1.4-.2.9-.2 1.6 0 1 .2 1.8.6 2.4.3.4.7.6 1.3.6.4 0 .7-.1 1-.3.3-.3.5-.6.6-1 .1-.4.2-.9.2-1.6 0-.6 0-1-.1-1.4zm-.9 3.2c-.2.3-.5.5-.8.5-.3 0-.6-.2-.8-.5-.2-.3-.3-1-.3-1.9 0-1 .1-1.6.3-2 .2-.3.5-.4.8-.4.3 0 .6.2.8.5s.3 1 .3 1.9c0 1-.1 1.6-.3 1.9z" fill="#50D4E2"/></svg>