<svg xmlns="http://www.w3.org/2000/svg" data-tags="charts" viewBox="0 0 40 35.19"><path d="M36.5 35.1h-33a.6.6 0 01-.6-.6v-24a.6.6 0 01.6-.6h33a.6.6 0 01.6.6v24a.6.6 0 01-.6.6zM4.1 33.9h31.8V11.1H4.1v22.8z"/><path d="M8.12 19.27c0-.67.07-1.22.21-1.63s.35-.73.62-.96.62-.33 1.04-.33c.3 0 .58.06.81.18s.42.3.57.54.27.52.36.85.13.79.13 1.35c0 .68-.07 1.22-.2 1.63s-.35.73-.63.96-.62.34-1.04.34c-.55 0-.99-.2-1.3-.6-.38-.47-.57-1.25-.57-2.33zm.73 0c0 .94.1 1.57.33 1.88s.49.47.81.47.6-.16.81-.47.33-.94.33-1.88-.1-1.57-.33-1.88-.49-.46-.82-.46a.9.9 0 00-.77.4c-.24.36-.36 1-.36 1.94zm3.72 0c0-.67.07-1.22.21-1.63s.35-.73.62-.96.62-.33 1.04-.33c.3 0 .58.06.8.18s.43.3.58.54.27.52.36.85.13.79.13 1.35c0 .68-.07 1.22-.21 1.63s-.34.73-.62.96-.62.34-1.04.34c-.55 0-.99-.2-1.3-.6-.38-.47-.57-1.25-.57-2.33zm.73 0c0 .94.1 1.57.32 1.88s.5.47.82.47.6-.16.81-.47.33-.94.33-1.88-.1-1.57-.33-1.88-.49-.46-.82-.46a.9.9 0 00-.77.4c-.24.36-.36 1-.36 1.94zm4.1 2.83v-.8h.8v.8c0 .3-.05.53-.16.71s-.27.32-.5.42l-.19-.3c.15-.07.26-.16.33-.29s.11-.3.12-.54h-.4zm1.84-2.83c0-.67.07-1.22.21-1.63s.35-.73.62-.96a1.6 1.6 0 011.04-.33c.3 0 .58.06.81.18.23.13.42.3.57.54.16.23.27.52.36.85s.13.79.13 1.35c0 .68-.07 1.22-.2 1.63-.15.41-.35.73-.63.96-.27.22-.62.34-1.04.34-.55 0-.98-.2-1.3-.6-.38-.47-.57-1.25-.57-2.33zm.73 0c0 .94.1 1.57.33 1.88.22.31.49.47.81.47.32 0 .6-.16.82-.47.22-.31.33-.94.33-1.88s-.11-1.57-.33-1.88c-.22-.3-.5-.46-.83-.46a.9.9 0 00-.77.4c-.24.36-.36 1-.36 1.94zm3.72 0c0-.67.07-1.22.21-1.63.14-.41.35-.73.62-.96a1.6 1.6 0 011.04-.33 1.54 1.54 0 011.38.72c.15.23.27.52.36.85s.13.79.13 1.35c0 .68-.07 1.22-.21 1.63-.14.41-.34.73-.62.96-.27.22-.62.34-1.04.34-.55 0-.98-.2-1.3-.6-.38-.47-.57-1.25-.57-2.33zm.73 0c0 .94.1 1.57.33 1.88.22.31.49.47.81.47.32 0 .6-.16.81-.47.22-.31.33-.94.33-1.88s-.1-1.57-.33-1.88c-.22-.3-.49-.46-.82-.46a.9.9 0 00-.77.4c-.24.36-.36 1-.36 1.94zm3.72 0c0-.67.07-1.22.21-1.63.14-.41.35-.73.62-.96a1.6 1.6 0 011.04-.33 1.53 1.53 0 011.38.72c.15.23.27.52.36.85s.13.79.13 1.35c0 .68-.07 1.22-.21 1.63-.14.41-.34.73-.62.96-.27.22-.62.34-1.04.34-.55 0-.99-.2-1.3-.6-.38-.47-.57-1.25-.57-2.33zm.72 0c0 .94.11 1.57.33 1.88.22.31.5.47.82.47.32 0 .6-.16.81-.47.22-.31.33-.94.33-1.88s-.1-1.57-.33-1.88c-.22-.3-.49-.46-.82-.46a.9.9 0 00-.77.4c-.24.36-.37 1-.37 1.94zm-20.74 9c0-.67.07-1.22.21-1.63s.35-.73.62-.96.62-.33 1.04-.33c.3 0 .58.06.81.18s.42.3.57.54.27.52.36.85.13.79.13 1.35c0 .68-.07 1.22-.2 1.63s-.35.73-.63.96-.62.34-1.04.34c-.55 0-.99-.2-1.3-.6-.38-.47-.57-1.25-.57-2.33zm.73 0c0 .94.1 1.57.33 1.88s.49.47.81.47.6-.16.81-.47.33-.94.33-1.88-.1-1.57-.33-1.88-.49-.46-.82-.46a.9.9 0 00-.77.4c-.24.36-.36 1-.36 1.94zm3.72 0c0-.67.07-1.22.21-1.63s.35-.73.62-.96.62-.33 1.04-.33c.3 0 .58.06.8.18s.43.3.58.54.27.52.36.85.13.79.13 1.35c0 .68-.07 1.22-.21 1.63s-.34.73-.62.96-.62.34-1.04.34c-.55 0-.99-.2-1.3-.6-.38-.47-.57-1.25-.57-2.33zm.72 0c0 .94.11 1.57.33 1.88s.5.47.82.47.6-.16.81-.47.33-.94.33-1.88-.1-1.57-.33-1.88-.49-.46-.82-.46a.9.9 0 00-.77.4c-.24.36-.37 1-.37 1.94zm4.11 2.83v-.8h.8v.8c0 .3-.05.53-.16.71s-.27.32-.5.42l-.19-.3c.15-.07.26-.16.33-.29s.11-.3.12-.54h-.4zm1.84-2.83c0-.67.07-1.22.21-1.63s.35-.73.62-.96a1.6 1.6 0 011.04-.33c.3 0 .58.06.81.18.23.13.42.3.57.54.16.23.27.52.36.85s.13.79.13 1.35c0 .68-.07 1.22-.2 1.63-.15.41-.35.73-.63.96-.27.22-.62.34-1.04.34-.55 0-.98-.2-1.3-.6-.38-.47-.57-1.25-.57-2.33zm.73 0c0 .94.1 1.57.33 1.88.22.31.49.47.81.47.32 0 .6-.16.82-.47.22-.31.33-.94.33-1.88s-.11-1.57-.33-1.88c-.22-.3-.5-.46-.83-.46a.9.9 0 00-.77.4c-.24.36-.36 1-.36 1.94zm3.72 0c0-.67.07-1.22.21-1.63.14-.41.35-.73.62-.96a1.6 1.6 0 011.04-.33 1.54 1.54 0 011.38.72c.15.23.27.52.36.85s.13.79.13 1.35c0 .68-.07 1.22-.21 1.63-.14.41-.34.73-.62.96-.27.22-.62.34-1.04.34-.55 0-.98-.2-1.3-.6-.38-.47-.57-1.25-.57-2.33zm.73 0c0 .94.1 1.57.33 1.88.22.31.49.47.81.47.32 0 .6-.16.81-.47.22-.31.33-.94.33-1.88s-.1-1.57-.33-1.88c-.22-.3-.49-.46-.82-.46a.9.9 0 00-.77.4c-.24.36-.36 1-.36 1.94zm3.72 0c0-.67.07-1.22.21-1.63.14-.41.35-.73.62-.96a1.6 1.6 0 011.04-.33 1.53 1.53 0 011.38.72c.15.23.27.52.36.85s.13.79.13 1.35c0 .68-.07 1.22-.21 1.63-.14.41-.34.73-.62.96-.27.22-.62.34-1.04.34-.55 0-.99-.2-1.3-.6-.38-.47-.57-1.25-.57-2.33zm.72 0c0 .94.11 1.57.33 1.88.22.31.5.47.82.47.32 0 .6-.16.81-.47.22-.31.33-.94.33-1.88s-.1-1.57-.33-1.88c-.22-.3-.49-.46-.82-.46a.9.9 0 00-.77.4c-.24.36-.37 1-.37 1.94zM4.9 0h30.19c1.11 0 2.01.9 2.01 2.01V13a1 1 0 01-1 1H2.9V2a2 2 0 012-2z"/><path fill="#FFF" stroke="#FFF" stroke-linecap="round" stroke-linejoin="round" d="M13.75 5.25l3.6 4.5h-7.2zm12 4.5l3.6-4.5h-7.2z"/></svg>