<svg xmlns="http://www.w3.org/2000/svg" data-tags="error state" viewBox="0 0 200 93"><path fill="#FFF" d="M3.5 35.5zm93.3 19.3h3.2v14.1h-3.2zM3.5 31.5zm-2 2zm2-2z"/><circle fill="none" cx="191.5" cy="77.5" r="2"/><path d="M67.5 19.845h1v4h-1zm51.47 63.837c-.645.598-1.466.918-2.47.918-1.027 0-1.861-.335-2.513-.959a4.276 4.276 0 01-.942.106c-.158 0-.297-.03-.446-.044.974 1.236 2.272 1.897 3.901 1.897 1.804 0 3.241-.64 4.153-1.988-.32.08-.658.135-1.033.135-.23 0-.44-.033-.65-.065zM67.6 27.944a4.554 4.554 0 002.818 3.267l.353-.935a3.544 3.544 0 01-2.193-2.543l-.978.21zM68.832 7.81l.706.71A3.475 3.475 0 0172 7.5h4v-1h-4a4.47 4.47 0 00-3.168 1.31zM64.6 43.3c-.9 1.4-1.4 3.7-1.4 6.8 0 3 .4 5.3 1.4 6.8 1 1.5 2.4 2.3 4.2 2.3 1.9 0 3.4-.7 4.3-2.2.9-1.5 1.4-3.8 1.4-6.9 0-3-.3-5.2-1.3-6.7s-2.4-2.3-4.3-2.3c-2 0-3.4.8-4.3 2.2zm4.2-1.1c1.5 0 2.6.6 3.3 2 .7 1.4 1 3.4 1 6s-.3 4.6-1 6c-.7 1.3-1.8 2-3.3 2s-2.6-.7-3.3-2-1.1-3.4-1.1-6.1c0-2.7.3-4.6 1.1-5.9.7-1.3 1.8-2 3.3-2zm33.6 42.4c-.98 0-1.785-.303-2.423-.872-.478.012-.958.015-1.436.03.969 1.202 2.254 1.842 3.859 1.842 1.78 0 3.203-.624 4.116-1.935-.54-.004-1.081-.008-1.62-.007-.65.613-1.479.942-2.496.942zM74.564 30.5h4v1h-4zM90.7 88.6h.8c.65-1.381 1.23-2.966 1.749-4.636l-1.47.068c-.253 1.441-.638 2.95-1.079 4.568zm-7.8-4c-.258 0-.5-.028-.735-.07a49.86 49.86 0 01-2.325.028c.844.68 1.861 1.042 3.06 1.042 1.465 0 2.688-.421 3.586-1.3-.8.052-1.63.103-2.477.15a4.04 4.04 0 01-1.109.15zM67.5 11.845h1v4h-1zM10.5 49h-1v2.5H7v1h2.5V55h1v-2.5H13v-1h-2.5zm61.638 33.503c-.015.03-.023.068-.038.097-.7 1.3-1.8 2-3.3 2s-2.6-.7-3.3-2c-.7-1.3-1.1-3.4-1.1-6.1 0-2.6.3-4.6 1.1-5.9.7-1.3 1.8-2 3.3-2s2.6.6 3.3 2c.7 1.4 1 3.4 1 6l-.002.05c.51-.25.967-1.118 1.355-1.919-.113-2.112-.462-3.744-1.253-4.931-1-1.5-2.4-2.3-4.3-2.3-2 0-3.4.8-4.3 2.2-.9 1.4-1.4 3.7-1.4 6.8 0 3 .4 5.3 1.4 6.8 1 1.5 2.4 2.3 4.2 2.3 1.9 0 3.4-.7 4.3-2.2l.006-.012a4.02 4.02 0 01-.968-.885zM3.5 30.5c-1.654 0-3 1.346-3 3s1.346 3 3 3 3-1.346 3-3-1.346-3-3-3zm0 5a2 2 0 110-4 2 2 0 010 4zm75.2 7.8c-.9 1.4-1.4 3.7-1.4 6.8 0 3 .4 5.3 1.4 6.8s2.4 2.3 4.2 2.3c.125 0 .243-.011.364-.017.36-.413.722-.825 1.075-1.246-.43.171-.908.263-1.439.263-1.5 0-2.6-.7-3.3-2-.7-1.3-1.1-3.4-1.1-6.1 0-2.7.4-4.6 1.1-5.9.7-1.3 1.8-2 3.3-2s2.6.6 3.3 2c.7 1.4 1 3.4 1 6 0 1.53-.107 2.88-.336 4.004.51-.83 1.043-1.637 1.673-2.378A24.8 24.8 0 0088.6 50.1c0-3-.5-5.3-1.4-6.8-1-1.5-2.4-2.3-4.3-2.3s-3.3.9-4.2 2.3zm3.864-12.8h4v1h-4zM80 6.5h4v1h-4zm.96 16h11.68l-5.84-7.3-5.84 7.3zm2.08-1l3.76-4.7 3.76 4.7h-7.52zM88 6.5h4v1h-4zm2.564 24h4v1h-4zm10.529 10.752c.235.31.426.652.559 1.02.238-.043.485-.072.748-.072 1.5 0 2.6.6 3.3 2 .7 1.4 1 3.4 1 6 0 .111-.004.216-.005.325.415.641.866 1.257 1.297 1.886.07-.714.108-1.482.108-2.311 0-3-.5-5.3-1.3-6.7-1-1.5-2.4-2.3-4.3-2.3-.508 0-.975.053-1.407.152zM98.564 30.5h4v1h-4zM130.7 41.1c-2 0-3.4.7-4.3 2.2-.9 1.4-1.4 3.7-1.4 6.8 0 3 .4 5.3 1.4 6.8s2.4 2.3 4.2 2.3c1.9 0 3.4-.7 4.3-2.2.9-1.5 1.4-3.8 1.4-6.9 0-3-.3-5.2-1.3-6.7s-2.4-2.3-4.3-2.3zm3.3 15.1c-.7 1.3-1.8 2-3.3 2s-2.6-.7-3.3-2c-.7-1.3-1.1-3.4-1.1-6.1 0-2.7.4-4.6 1.1-5.9.7-1.3 1.8-2 3.3-2s2.6.6 3.3 2c.7 1.4 1 3.4 1 6s-.3 4.6-1 6zM96 6.5h4v1h-4zm36.5 13.218h1v4h-1zM130.7 67.5c-2 0-3.4.7-4.3 2.2-.9 1.4-1.4 3.7-1.4 6.8 0 3 .4 5.3 1.4 6.8s2.4 2.3 4.2 2.3c1.9 0 3.4-.7 4.3-2.2.9-1.5 1.4-3.8 1.4-6.9 0-3-.3-5.2-1.3-6.7s-2.4-2.3-4.3-2.3zm3.3 15.1c-.7 1.3-1.8 2-3.3 2s-2.6-.7-3.3-2c-.7-1.3-1.1-3.4-1.1-6.1 0-2.6.4-4.6 1.1-5.9.7-1.3 1.8-2 3.3-2s2.6.6 3.3 2c.7 1.4 1 3.4 1 6s-.3 4.6-1 6z"/><path d="M180 .5H20A2.503 2.503 0 0017.5 3v90h1V3c0-.827.673-1.5 1.5-1.5h160c.827 0 1.5.673 1.5 1.5v88h1V3c0-1.378-1.121-2.5-2.5-2.5zm11.5 74c-1.654 0-3 1.346-3 3s1.346 3 3 3 3-1.346 3-3-1.346-3-3-3zm0 5c-1.103 0-2-.897-2-2s.897-2 2-2 2 .897 2 2-.897 2-2 2z"/><path d="M132.5 11.718h1v4h-1zm65 53.782V63h-1v2.5H194v1h2.5V69h1v-2.5h2.5v-1zM128 6.5v1h1c.886 0 1.731.335 2.383.942l.681-.73A4.474 4.474 0 00129 6.5h-1zm2.332 23.735l.383.924a4.557 4.557 0 002.713-3.355l-.985-.18a3.546 3.546 0 01-2.111 2.611zM112.8 22.8l5.84-7.3h-11.68l5.84 7.3zm0-1.6l-3.76-4.7h7.52l-3.76 4.7zM112 6.5h4v1h-4zm8 0h4v1h-4zm-19.828 35.059C99.584 40.55 98.815 40 98 40s-1.584.55-2.168 1.552l-.004.008-22.9 37.7c-.593 1.015-.719 1.933-.35 2.574.357.623 1.182.966 2.322.966h46.2c1.14 0 1.966-.343 2.323-.966.368-.642.242-1.559-.355-2.582l-22.896-37.693zM100 75.2h-3.2v-3.1h3.2v3.1zm0-6.3h-3.2V54.8h3.2v14.1zm22.563-38.4h4v1h-4zm-5.85 37.006l.363.454c.244.245.45.512.618.801.903.258 1.608.843 2.106 1.839.395.79.645 1.8.802 2.973a9.4 9.4 0 01.52.804c.135.171.285.332.41.509.248.352.458.728.657 1.11-.054-2.739-.535-4.783-1.289-6.196-.98-1.47-2.346-2.262-4.187-2.294zm-2.15-37.006h4v1h-4zm-8 0h4v1h-4zm5.737 12.8c-.9 1.4-1.4 3.7-1.4 6.8 0 3 .4 5.3 1.4 6.8s2.4 2.3 4.2 2.3c1.9 0 3.4-.7 4.3-2.2.9-1.5 1.4-3.8 1.4-6.9 0-3-.5-5.3-1.3-6.7-1-1.5-2.4-2.3-4.3-2.3-2 0-3.4.7-4.3 2.2zm7.5.9c.7 1.4 1 3.4 1 6s-.3 4.6-1 6c-.7 1.3-1.8 2-3.3 2s-2.6-.7-3.3-2-1.1-3.4-1.1-6.1c0-2.7.4-4.6 1.1-5.9s1.8-2 3.3-2 2.6.6 3.3 2zM104 6.5h4v1h-4z"/></svg>