<svg xmlns="http://www.w3.org/2000/svg" data-tags="preview" viewBox="0 0 668 304"><path d="M317.1 72.4l-1.9 5.5c-.3.6-.5 1.3-.6 1.9-.1-.6-.3-1.3-.5-1.9l-2-5.5H311l3.1 8.6h1l3.1-8.6h-1.1zm7.8 7.7l.2.9h.8v-4.3c0-.7-.2-1.3-.6-1.6-.4-.3-.9-.5-1.7-.5-.3 0-.8 0-1.1.1-.3.1-.7.2-1 .4l.3.7c.7-.3 1.3-.5 1.8-.5.4 0 .8.2 1 .4.2.2.3.6.3 1.1v.4h-1.1c-2.1 0-3.1.7-3.1 2 0 .6.1 1.1.5 1.4.4.3.9.5 1.5.5.5 0 .8-.1 1.2-.2.4-.1.7-.4 1-.8zm-3-.1c-.2-.2-.3-.4-.3-.8 0-.5.1-.7.5-1s.9-.4 1.7-.4h1v.6c0 .6-.2 1.1-.5 1.4s-.8.5-1.4.5c-.4 0-.8-.1-1-.3zm7.9-8.1h1V81h-1zm9.5 6.1c0 .8-.2 1.4-.5 1.8s-.8.6-1.5.6c-.5 0-.8-.1-1.1-.4s-.4-.7-.4-1.2v-4.3h-.9v4.2c0 .8.2 1.4.6 1.8.4.4 1 .6 1.8.6.4 0 .9-.2 1.2-.3s.6-.4.8-.7h.1l.1.9h.8v-6.4h-1V78zm10.1-.7c0-.9-.2-1.6-.7-2.1s-1.1-.8-1.9-.8c-.9 0-1.6.3-2.1.9s-.8 1.5-.8 2.5.3 1.8.8 2.4c.5.6 1.3.9 2.2.9h1.3c.3 0 .7-.2 1-.3v-.9c-.7.3-1.4.4-2.1.4-.6 0-1.1-.2-1.5-.6-.4-.4-.6-.9-.6-1.7h4.4v-.7zm-4.4-.1c0-.6.2-1.1.5-1.4.3-.3.7-.5 1.2-.5s1 .2 1.3.5.4.8.4 1.4H345zm-91.6 121.2h-2.2v8.6h1v-3.4h1c1.1 0 1.9-.2 2.5-.7.6-.5.9-1.1.9-2 0-1.6-1.1-2.5-3.2-2.5zm1.6 4c-.4.3-1 .4-1.9.4h-.9v-3.5h1.1c.8 0 1.3.1 1.7.4s.6.7.6 1.3c0 .7-.2 1.1-.6 1.4zm5.1-1.6c-.4.3-.7.6-.9 1l-.1-1.2h-.8v6.4h1v-3.4c0-.7.3-1.2.6-1.6s.8-.6 1.3-.6c.2 0 .4 0 .7.1l.1-.9c-.3-.1-.5-.1-.8-.1-.4 0-.7 0-1.1.3zm5.7-.4c-.9 0-1.6.3-2.1.9-.5.6-.8 1.5-.8 2.5s.3 1.8.8 2.4 1.3.9 2.2.9c.4 0 1-.1 1.3-.1s.7-.2 1-.3v-.9c-.7.3-1.4.4-2.1.4-.6 0-1.1-.2-1.5-.6-.4-.4-.6-.9-.6-1.7h4.4v-.6c0-.9-.2-1.6-.7-2.1s-1.1-.8-1.9-.8zm-1.9 2.8c0-.6.2-1.1.5-1.4.3-.3.7-.5 1.2-.5s1 .2 1.3.5.4.8.4 1.4h-3.4zm8.4 1.6c-.2.7-.4 1.1-.4 1.3-.1-.2-.3-.8-.6-1.7l-1.4-3.8h-1l2.4 6.4v-.1h1.1l2.4-6.4h-1c-.8 2.2-1.3 3.6-1.5 4.3zm4.1-6.7c-.2 0-.3.1-.4.2-.1.1-.2.3-.2.5 0 .3.1.4.2.5.1.1.2.2.4.2s.3-.1.4-.2c.1-.1.2-.3.2-.5s-.1-.4-.2-.5c-.1-.1-.2-.2-.4-.2zm-.5 2.5h1v6.4h-1zm5.7-.1c-1 0-1.7.4-2.2.9s-.8 1.4-.8 2.4c0 .7.2 1.3.4 1.8s.6.9 1 1.2c.4.3.9.4 1.5.4.9 0 1.7-.3 2.2-.9.5-.6.8-1.5.8-2.5s-.3-1.8-.8-2.4c-.5-.6-1.2-.9-2.1-.9zm1.4 5.2c-.4.4-.9.6-1.5.6s-1.1-.1-1.4-.6-.5-1.1-.5-1.9.2-1.5.5-1.9c.3-.4.8-.6 1.4-.6.7 0 1.2.1 1.5.6s.5 1.1.5 1.9-.1 1.5-.5 1.9zm7.6-1.7c0 .8-.2 1.4-.5 1.8s-.8.6-1.5.6c-.5 0-.8-.1-1.1-.4s-.4-.7-.4-1.2v-4.3h-.9v4.2c0 .8.2 1.4.6 1.8.4.4 1 .6 1.8.6.4 0 .9-.2 1.2-.3s.6-.4.8-.7h.1l.1.9h.8v-6.4h-1v3.4zm4.9-.7c-.5-.2-.9-.4-1.1-.5-.2-.1-.3-.2-.4-.3-.1-.1-.1-.2-.1-.4 0-.3.2-.5.4-.6.2-.1.5-.2 1-.2.6 0 1.2.1 1.8.4l.3-.8c-.6-.3-1.3-.4-2-.4-.8 0-1.4.2-1.8.5-.4.3-.6.7-.6 1.2 0 .3 0 .6.2.8s.3.4.6.6.7.4 1.3.6c.7.2 1.1.5 1.3.6.2.1.3.4.3.6 0 .3-.1.6-.4.7-.3.1-.7.2-1.2.2-.3 0-.6 0-1-.1s-.7-.2-1-.4v.9c.5.3 1.1.4 2 .4.8 0 1.4-.2 1.9-.5s.7-.8.7-1.4c0-.4-.5-.9-.7-1.1s-.7-.5-1.5-.8zm9.3-4.9h-2.2v8.6h1v-3.4h1c1.1 0 1.9-.2 2.5-.7.6-.5.9-1.1.9-2 0-1.6-1.1-2.5-3.2-2.5zm1.5 4c-.4.3-1 .4-1.9.4h-.9v-3.5h1.1c.8 0 1.3.1 1.7.4.4.3.6.7.6 1.3 0 .7-.2 1.1-.6 1.4zm5.9-2c-.9 0-1.6.3-2.1.9-.5.6-.8 1.5-.8 2.5s.3 1.8.8 2.4 1.3.9 2.2.9c.5 0 1-.1 1.3-.1s.7-.2 1-.3v-.9c-.7.3-1.4.4-2.1.4-.6 0-1.1-.2-1.5-.6-.4-.4-.6-.9-.6-1.7h4.4v-.6c0-.9-.2-1.6-.7-2.1s-1.1-.8-1.9-.8zm-1.8 2.8c0-.6.2-1.1.5-1.4.3-.3.7-.5 1.2-.5s1 .2 1.3.5.4.8.4 1.4h-3.4zm7.8-2.4c-.4.3-.7.6-.9 1l-.1-1.2h-.8v6.4h1v-3.4c0-.7.3-1.2.6-1.6s.8-.6 1.3-.6c.2 0 .4 0 .7.1l.1-.9c-.3-.1-.5-.1-.8-.1-.4 0-.7 0-1.1.3zm3.6-2.7c-.2 0-.3.1-.4.2-.1.1-.2.3-.2.5 0 .3.1.4.2.5.1.1.2.2.4.2s.3-.1.4-.2c.1-.1.2-.3.2-.5s-.1-.4-.2-.5c-.1-.1-.2-.2-.4-.2zm-.6 2.5h1v6.4h-1zm5.7-.1c-1 0-1.7.4-2.2.9s-.8 1.4-.8 2.4c0 .7.2 1.3.4 1.8s.6.9 1 1.2c.4.3.9.4 1.5.4.9 0 1.7-.3 2.2-.9.5-.6.8-1.5.8-2.5s-.3-1.8-.8-2.4c-.5-.6-1.2-.9-2.1-.9zm1.4 5.2c-.4.4-.9.6-1.5.6s-1.1-.1-1.4-.6-.5-1.1-.5-1.9.2-1.5.5-1.9c.3-.4.8-.6 1.4-.6.7 0 1.2.1 1.5.6s.5 1.1.5 1.9-.1 1.5-.5 1.9zm7.6-5.4v1h-.1c-.5-.6-1.1-.9-2-.9-.9 0-1.5.3-2 .9-.5.6-.7 1.5-.7 2.5s.2 1.8.7 2.4 1.2.9 2 .9c.9 0 1.6-.3 2.1-1l.1.7h.9v-9.1h-1v2.6zm-.1 3.8c0 .8-.1 1.4-.4 1.7s-.7.5-1.4.5c-.6 0-1.2.1-1.5-.4s-.5-1.1-.5-1.9.2-1.4.5-1.9.7-.7 1.3-.7c.7 0 1.2.3 1.5.6s.5 1 .5 1.9v.2zm11.7-5.7h-1.1l-2.1 3.4-2.1-3.4h-1.1l2.7 4.1-2.8 4.5h1.1l2.3-3.8 2.3 3.8h1.1l-3-4.5z" fill="#A9A9B2"/><g fill="#FF6060" opacity=".4"><path d="M388.6 199.8c-.4 0-.7.2-.9.7-.2.5-.3 1.2-.3 2.2 0 1.1.1 1.8.3 2.3.2.5.5.7.9.7s.7-.2.9-.7c.2-.5.3-1.2.3-2.2 0-1.1-.1-1.8-.3-2.3-.2-.5-.5-.7-.9-.7zm6.8 0c-.4 0-.7.2-.9.7-.2.5-.3 1.2-.3 2.2 0 1.1.1 1.8.3 2.3.2.5.5.7.9.7s.7-.2.9-.7c.2-.5.3-1.2.3-2.2 0-1.1-.1-1.8-.3-2.3-.2-.5-.5-.7-.9-.7zm6.4 1.2c0-1-.2-1.5-.6-1.5-.2 0-.3.1-.4.4-.1.3-.1.6-.1 1.1s0 .9.1 1.1c.1.2.2.4.4.4.4 0 .6-.5.6-1.5zm-30.4-1.2c-.4 0-.7.2-.9.7-.2.5-.3 1.2-.3 2.2 0 1.1.1 1.8.3 2.3.2.5.5.7.9.7s.7-.2.9-.7c.2-.5.3-1.2.3-2.2 0-1.1-.1-1.8-.3-2.3-.2-.5-.5-.7-.9-.7zm6.9 0c-.4 0-.7.2-.9.7-.2.5-.3 1.2-.3 2.2 0 1.1.1 1.8.3 2.3.2.5.5.7.9.7s.7-.2.9-.7c.2-.5.3-1.2.3-2.2 0-1.1-.1-1.8-.3-2.3-.2-.5-.5-.7-.9-.7zm28.9 3.1c-.2 0-.3.1-.4.4-.1.3-.1.6-.1 1.1s0 .9.1 1.1c.1.2.2.4.4.4.4 0 .6-.5.6-1.5s-.2-1.5-.6-1.5z"/><path d="M414 190h-50c-2.2 0-4 1.8-4 4v16c0 2.2 1.8 4 4 4h50c2.2 0 4-1.8 4-4v-16c0-2.2-1.8-4-4-4zm-40.3 16c-.5.7-1.2 1.1-2.3 1.1-1 0-1.7-.4-2.2-1.1s-.8-1.8-.8-3.3.2-2.6.7-3.3c.5-.7 1.2-1.1 2.3-1.1 1 0 1.7.4 2.2 1.1s.8 1.9.8 3.3c0 1.5-.2 2.6-.7 3.3zm6.9 0c-.5.7-1.2 1.1-2.3 1.1-1 0-1.7-.4-2.2-1.1s-.8-1.8-.8-3.3.2-2.6.7-3.3c.5-.7 1.2-1.1 2.3-1.1 1 0 1.7.4 2.2 1.1s.8 1.9.8 3.3c0 1.5-.2 2.6-.7 3.3zm3.7.9c-.2.1-.4.3-.8.3-.3 0-.6-.1-.8-.3a.9.9 0 01-.3-.7c0-.3.1-.6.3-.7.2-.1.4-.3.8-.3.3 0 .6.1.8.3.2.2.3.4.3.7 0 .3-.1.6-.3.7zm6.5-.9c-.5.7-1.2 1.1-2.3 1.1-1 0-1.7-.4-2.2-1.1s-.8-1.8-.8-3.3.2-2.6.7-3.3c.5-.7 1.2-1.1 2.3-1.1 1 0 1.7.4 2.2 1.1s.8 1.9.8 3.3c0 1.5-.2 2.6-.7 3.3zm6.9 0c-.5.7-1.2 1.1-2.3 1.1-1 0-1.7-.4-2.2-1.1s-.8-1.8-.8-3.3.2-2.6.7-3.3c.5-.7 1.2-1.1 2.3-1.1 1 0 1.7.4 2.2 1.1s.8 1.9.8 3.3c0 1.5-.2 2.6-.7 3.3zm2.1-3c-.4-.5-.5-1.1-.5-2 0-1.8.7-2.7 2-2.7.7 0 1.2.2 1.5.7s.5 1.1.5 2c0 .9-.2 1.6-.5 2-.3.4-.9.7-1.5.7s-1.1-.2-1.5-.7zm1.3 4l4.8-8.6h1.4l-4.8 8.6h-1.4zm7.7-.6c-.3.4-.9.7-1.5.7s-1.1-.2-1.5-.7c-.4-.5-.5-1.1-.5-2 0-1.8.7-2.7 2-2.7.7 0 1.2.2 1.5.7s.5 1.2.5 2c0 .9-.2 1.6-.5 2z"/></g><path fill="#FF6060" d="M163.7 165.9h-5.1v-32.6c0-2.7.1-5.3.2-7.7-.4.4-.9.9-1.5 1.4-.5.5-3 2.5-7.4 6.1l-2.8-3.6 12.1-9.3h4.4v45.7h.1zm46.5 0h-30v-4.5l12-12.1c3.7-3.7 6.1-6.4 7.2-7.9 1.2-1.6 2-3.1 2.6-4.6s.9-3.1.9-4.8c0-2.4-.7-4.4-2.2-5.8s-3.5-2.1-6.2-2.1c-1.9 0-3.7.3-5.4.9s-3.6 1.8-5.7 3.4l-2.8-3.5c4.2-3.5 8.8-5.2 13.8-5.2 4.3 0 7.7 1.1 10.1 3.3 2.4 2.2 3.7 5.2 3.7 8.9 0 2.9-.8 5.8-2.4 8.6-1.6 2.8-4.7 6.4-9.1 10.8l-10 9.8v.2h23.5v4.6zm13.5-7.4l.5.7c-.5 2.1-1.3 4.5-2.3 7.3s-2.1 5.3-3.2 7.7h-3.9c.6-2.2 1.2-4.8 1.9-8s1.2-5.7 1.4-7.7h5.6zm35.2-27.5c0 2.9-.8 5.3-2.5 7.2-1.6 1.9-4 3.1-7 3.7v.2c3.7.5 6.4 1.6 8.2 3.5 1.8 1.9 2.7 4.3 2.7 7.4 0 4.4-1.5 7.7-4.5 10s-7.3 3.5-12.9 3.5c-2.4 0-4.6-.2-6.6-.5-2-.4-4-1-5.9-1.9v-4.9c2 1 4.1 1.7 6.3 2.2s4.4.8 6.4.8c7.9 0 11.8-3.1 11.8-9.3 0-5.5-4.4-8.3-13.1-8.3h-4.5v-4.5h4.6c3.6 0 6.4-.8 8.5-2.4 2.1-1.6 3.1-3.8 3.1-6.5 0-2.2-.8-4-2.3-5.2-1.5-1.3-3.6-1.9-6.2-1.9-2 0-3.9.3-5.7.8s-3.8 1.5-6.1 3l-2.6-3.5c1.9-1.5 4-2.6 6.5-3.5 2.4-.8 5-1.3 7.7-1.3 4.4 0 7.9 1 10.3 3 2.6 2.1 3.8 4.9 3.8 8.4zm39.6 24.4h-6.8v10.5h-5v-10.5h-22.2v-4.5l21.7-30.9h5.5v30.7h6.8v4.7zm-11.7-4.7v-15.2c0-3 .1-6.3.3-10.1h-.2c-1 2-1.9 3.7-2.8 5l-14.3 20.3h17zm29.5-12.7c4.8 0 8.6 1.2 11.4 3.6 2.8 2.4 4.1 5.7 4.1 9.8 0 4.7-1.5 8.4-4.5 11.1-3 2.7-7.2 4-12.5 4-5.1 0-9.1-.8-11.8-2.5v-5c1.5.9 3.3 1.7 5.4 2.2 2.2.5 4.3.8 6.4.8 3.7 0 6.5-.9 8.5-2.6 2-1.7 3-4.2 3-7.5 0-6.4-3.9-9.6-11.7-9.6-2 0-4.6.3-7.9.9l-2.7-1.7 1.7-21.4h22.7v4.8h-18.3l-1.2 13.7c2.6-.3 5-.6 7.4-.6zm29.2 20.5l.5.7c-.5 2.1-1.3 4.5-2.3 7.3s-2.1 5.3-3.2 7.7h-3.9c.6-2.2 1.2-4.8 1.9-8s1.2-5.7 1.4-7.7h5.6zm7.5-12.1c0-9 1.7-15.7 5.2-20.1s8.7-6.7 15.5-6.7c2.4 0 4.2.2 5.6.6v4.5c-1.6-.5-3.4-.8-5.5-.8-4.9 0-8.6 1.5-11.2 4.6s-4 7.8-4.2 14.4h.4c2.3-3.6 5.9-5.4 10.9-5.4 4.1 0 7.3 1.2 9.7 3.7 2.4 2.5 3.5 5.8 3.5 10.1 0 4.8-1.3 8.5-3.9 11.2s-6.1 4.1-10.5 4.1c-4.7 0-8.5-1.8-11.2-5.3-2.9-3.6-4.3-8.6-4.3-14.9zm15.4 15.8c3 0 5.3-.9 6.9-2.8 1.6-1.9 2.5-4.6 2.5-8.1 0-3-.8-5.4-2.3-7.1-1.5-1.7-3.8-2.6-6.8-2.6-1.9 0-3.6.4-5.2 1.2s-2.8 1.8-3.7 3.2a7.8 7.8 0 00-1.4 4.2c0 2.1.4 4.1 1.2 6 .8 1.9 2 3.3 3.5 4.4 1.6 1 3.3 1.6 5.3 1.6zm25.6 3.7l18.9-40.9H388v-4.8h30.4v4.2l-18.7 41.5H394zm45-46.3c4.2 0 7.5 1 9.9 2.9s3.7 4.6 3.7 8c0 2.2-.7 4.3-2.1 6.2s-3.6 3.5-6.7 5.1c3.7 1.8 6.3 3.6 7.9 5.6 1.6 1.9 2.3 4.2 2.3 6.8 0 3.8-1.3 6.8-4 9.1-2.6 2.3-6.3 3.4-10.9 3.4-4.9 0-8.6-1.1-11.2-3.2-2.6-2.1-3.9-5.2-3.9-9.1 0-5.2 3.2-9.3 9.6-12.2-2.9-1.6-4.9-3.4-6.2-5.3-1.2-1.9-1.9-4-1.9-6.3 0-3.3 1.2-6 3.7-7.9 2.5-2.1 5.7-3.1 9.8-3.1zm-9.8 34.8c0 2.5.9 4.4 2.6 5.8 1.7 1.4 4.2 2.1 7.3 2.1 3.1 0 5.5-.7 7.2-2.2s2.6-3.5 2.6-6c0-2-.8-3.8-2.4-5.4-1.6-1.6-4.5-3.1-8.5-4.6-3.1 1.3-5.4 2.8-6.8 4.4-1.3 1.7-2 3.7-2 5.9zm9.8-30.6c-2.6 0-4.6.6-6.1 1.9-1.5 1.2-2.2 2.9-2.2 5 0 1.9.6 3.6 1.8 4.9 1.2 1.4 3.5 2.8 6.8 4.1 3-1.2 5.1-2.6 6.3-4 1.2-1.4 1.9-3.1 1.9-5 0-2.1-.8-3.8-2.3-5-1.5-1.3-3.6-1.9-6.2-1.9z"/></svg>