<svg xmlns="http://www.w3.org/2000/svg" data-tags="selected charts" viewBox="0 0 40 29"><path d="M3.7 2.57c-1.03 0-1.8.4-2.3 1.18S.65 5.73.65 7.35c0 1.56.26 2.75.78 3.56s1.28 1.22 2.28 1.22c1.04 0 1.81-.4 2.32-1.2.5-.78.76-1.98.76-3.58C6.79 5.8 6.52 4.6 6 3.8a2.56 2.56 0 00-2.3-1.23zm1.53 7.71a1.6 1.6 0 01-1.52.94c-.7 0-1.2-.3-1.52-.92a6.8 6.8 0 01-.48-2.95c0-1.35.16-2.33.48-2.95s.82-.91 1.52-.91c.7 0 1.2.3 1.52.93.32.62.48 1.6.48 2.93s-.16 2.3-.48 2.93zm5.91-7.7c-1.03 0-1.8.38-2.3 1.17s-.76 1.98-.76 3.6c0 1.56.26 2.75.78 3.56s1.28 1.22 2.28 1.22c1.04 0 1.81-.4 2.32-1.2.5-.78.76-1.98.76-3.58 0-1.55-.26-2.74-.79-3.55a2.56 2.56 0 00-2.29-1.23zm1.53 7.7a1.6 1.6 0 01-1.53.94c-.7 0-1.2-.3-1.52-.92a6.8 6.8 0 01-.47-2.95c0-1.35.16-2.33.47-2.95s.83-.91 1.52-.91c.7 0 1.21.3 1.53.93.31.62.47 1.6.47 2.93s-.16 2.3-.47 2.93zm3.26.21a38.53 38.53 0 01-.67 3.19h.8a20.8 20.8 0 001.12-3.04l-.1-.15h-1.15zm5.83-7.92c-1.03 0-1.8.4-2.3 1.18s-.76 1.98-.76 3.6c0 1.56.26 2.75.78 3.56s1.28 1.22 2.28 1.22c1.04 0 1.81-.4 2.32-1.2.5-.78.76-1.98.76-3.58 0-1.55-.26-2.74-.78-3.55a2.56 2.56 0 00-2.3-1.23zm1.53 7.71a1.6 1.6 0 01-1.53.94c-.7 0-1.2-.3-1.52-.92a6.79 6.79 0 01-.47-2.95c0-1.35.16-2.33.47-2.95s.83-.91 1.52-.91c.7 0 1.21.3 1.53.93s.47 1.6.47 2.93-.16 2.3-.47 2.93zm5.9-7.7c-1.03 0-1.8.38-2.3 1.17s-.76 1.98-.76 3.6c0 1.56.26 2.75.78 3.56s1.28 1.22 2.28 1.22c1.04 0 1.82-.4 2.32-1.2.5-.78.76-1.98.76-3.58 0-1.55-.26-2.74-.78-3.55a2.56 2.56 0 00-2.3-1.23zm1.53 7.7a1.6 1.6 0 01-1.53.94c-.7 0-1.2-.3-1.51-.92a6.79 6.79 0 01-.48-2.95c0-1.35.16-2.33.48-2.95s.82-.91 1.51-.91c.7 0 1.21.3 1.53.93.32.62.47 1.6.47 2.93s-.16 2.3-.47 2.93zm8.2-6.48a2.55 2.55 0 00-2.3-1.23c-1.03 0-1.8.4-2.3 1.18-.5.78-.75 1.98-.75 3.6 0 1.56.26 2.75.78 3.56a2.54 2.54 0 002.28 1.22c1.04 0 1.81-.4 2.32-1.2.5-.78.75-1.98.75-3.58 0-1.55-.26-2.74-.78-3.55zm-.77 6.48a1.6 1.6 0 01-1.52.94c-.7 0-1.2-.3-1.52-.92a6.79 6.79 0 01-.48-2.95c0-1.35.16-2.33.48-2.95a1.6 1.6 0 011.52-.91c.7 0 1.2.3 1.52.93.32.62.48 1.6.48 2.93s-.16 2.3-.48 2.93z" fill="#4CD2E0"/><path fill="#CBD756" d="M35 15H5a2 2 0 00-2 2v10a2 2 0 002 2h30a2 2 0 002-2V17a2 2 0 00-2-2zm-17.35 9.72a.5.5 0 01-.45.28H10a.5.5 0 01-.39-.81l3.6-4.5a.52.52 0 01.78 0l3.6 4.5a.5.5 0 01.06.53zm11.94-4.4l-3.6 4.5a.5.5 0 01-.78 0l-3.6-4.5a.5.5 0 01.39-.82h7.2a.5.5 0 01.39.81z"/></svg>