<svg data-tags="modern research, research, launchpad" xmlns="http://www.w3.org/2000/svg" viewBox="0 0 50 50"><path d="M39.2 19.36a1.05 1.05 0 0 0 1.05-1.05v-5.2a1.05 1.05 0 0 0-2.1 0v5.2a1.05 1.05 0 0 0 1.05 1.05Zm0 3.77a1.32 1.32 0 1 0-1.32-1.32 1.32 1.32 0 0 0 1.32 1.32Zm-8.53-4.53a.97.97 0 0 0-1-.93h-1.39a.98.98 0 0 0-1 .94v4.64h3.39ZM19.27 13h-1.39a.98.98 0 0 0-1 .95v9.3h3.38v-9.3a.97.97 0 0 0-.99-.95Zm3.85 2.18a.98.98 0 0 0-1 .95v7.1h3.38v-7.1a.97.97 0 0 0-.99-.95Zm5.89-2a1.84 1.84 0 1 0-1-3.38L20.4 6.75a1.84 1.84 0 1 0-.78 1.95l7.6 3.05a1.84 1.84 0 0 0 1.8 1.43ZM17.8 29.11h5.51a1.05 1.05 0 1 0 0-2.1h-5.5a1.05 1.05 0 1 0 0 2.1Zm0 3.85h8.62a1.05 1.05 0 0 0 0-2.1h-8.61a1.05 1.05 0 0 0 0 2.1Zm16.76-1.81a1.64 1.64 0 1 0-1.64 1.64 1.64 1.64 0 0 0 1.64-1.64Zm-4.09 7.17h4.08a6.03 6.03 0 0 1 1.28-2.72 3.03 3.03 0 0 0-5.94.86v1.28a.58.58 0 0 0 .58.58Zm14.86-7.17a1.64 1.64 0 1 0 1.64-1.64 1.64 1.64 0 0 0-1.64 1.64Zm1.63 2.27a3.03 3.03 0 0 0-2.9 2.18 6.03 6.03 0 0 1 1.28 2.72h4.08a.58.58 0 0 0 .58-.58v-1.28a3.04 3.04 0 0 0-3.04-3.04Zm-2.84 5.5a4.2 4.2 0 0 0-.68-1.9 4.25 4.25 0 0 0-.62-.71 4.19 4.19 0 0 0-7.05 2.6l-.02.14a2.49 2.49 0 0 0-.03.34v2.24a.45.45 0 0 0 .45.45h7.55a.45.45 0 0 0 .45-.45V39.4a2.5 2.5 0 0 0-.03-.34l-.02-.13Zm-4.18-4.47a2.22 2.22 0 1 0-2.22-2.22 2.22 2.22 0 0 0 2.22 2.22Z"/><path d="M36.83 45.24H4.53V10.89h4.01v29.27a1.05 1.05 0 0 0 1.05 1.05h19.9a3.62 3.62 0 0 1-2.65-3.47v-1H13.07V2.39h32.3v24.37a4.56 4.56 0 0 1 .7-.2l.16-.02a3.28 3.28 0 0 1 1.24-.02V1.34A1.05 1.05 0 0 0 46.42.29h-34.4l-.06.01a1.04 1.04 0 0 0-.3.06l-.07.03a1.04 1.04 0 0 0-.3.2L8.85 2.96a1.07 1.07 0 0 0-.32.76v5.06H3.48a.71.71 0 0 0-.21.02.63.63 0 0 0-.2.06.91.91 0 0 0-.33.21v.01L.31 11.47a1.07 1.07 0 0 0-.32.76v36.43a1.05 1.05 0 0 0 1.05 1.05h34.4a1.08 1.08 0 0 0 .73-.3l2.39-2.33.04-.05a1.85 1.85 0 0 0 .14-.15.73.73 0 0 0 .1-.18.39.39 0 0 0 .03-.15.79.79 0 0 0 .05-.27v-1.15h-2.1Z"/></svg>