<svg data-tags="Modern Research, research, launchpad" xmlns="http://www.w3.org/2000/svg" viewBox="0 0 50 49.438"><path d="M33.726 26.139a1.35 1.35 0 0 0-1.392-1.305h-1.939a1.369 1.369 0 0 0-1.404 1.305v6.487h4.735ZM19.186 32.639V19.627a1.373 1.373 0 0 0-1.405-1.33h-1.938a1.38 1.38 0 0 0-1.405 1.33v13.012ZM25.114 21.342h-1.94a1.38 1.38 0 0 0-1.403 1.33v9.93h4.734v-9.93a1.362 1.362 0 0 0-1.391-1.33ZM29.356 18.532l4.438-1.7c.014-.005.022-.016.036-.022.012-.005.025-.003.037-.008.02-.01.032-.028.05-.039a1.012 1.012 0 0 0 .168-.115c.026-.022.051-.041.074-.065l.05-.052a1.005 1.005 0 0 0 .105-.168.992.992 0 0 0 .055-.103c.003-.007.008-.012.011-.02.003-.007.009-.013.011-.02l.002-.003a.944.944 0 0 0 .013-.098c.005-.017.005-.035.008-.053a.981.981 0 0 0 .029-.19c0-.017.004-.033.004-.05a.997.997 0 0 0-.042-.175.953.953 0 0 0-.023-.136c-.005-.012-.016-.02-.021-.033-.006-.013-.004-.026-.01-.04l-.002-.004-.001-.001-2.217-4.67a1.02 1.02 0 1 0-1.843.875l1.172 2.469-14.71-5.143a1.02 1.02 0 0 0-.673 1.927l14.386 5.03-1.836.702a1.02 1.02 0 1 0 .729 1.905Z" fill="#0a0a14" fill-rule="evenodd"/><path d="M25.203 43.475a6.286 6.286 0 0 1 .15-1.348H4.856V1.915h37.84v32.903c.04.035.087.061.125.097a4.89 4.89 0 0 1 1.916-1.569V.895a1.02 1.02 0 0 0-1.02-1.02H3.835c-.023 0-.042.011-.065.013a1.014 1.014 0 0 0-.262.053.978.978 0 0 0-.1.034 1.012 1.012 0 0 0-.287.191l-.006.006-.002.002L.306 2.93A1.022 1.022 0 0 0 0 3.658v42.233a1.02 1.02 0 0 0 1.02 1.02h24.808a3.663 3.663 0 0 1-.625-2.05Z" fill="#0a0a14" fill-rule="evenodd"/><path d="M29.764 37.736a1.772 1.772 0 1 0 1.772-1.772 1.775 1.775 0 0 0-1.772 1.772ZM31.547 40.19a3.285 3.285 0 0 0-3.283 3.284v1.387a.623.623 0 0 0 .625.624h4.408a6.384 6.384 0 0 1 1.387-2.931 3.283 3.283 0 0 0-3.137-2.363Z" fill="#f4b942" fill-rule="evenodd"/><circle cx="46.728" cy="37.736" r="1.773" fill="#f4b942"/><path d="M46.716 40.19a3.272 3.272 0 0 0-3.136 2.364 6.555 6.555 0 0 1 1.386 2.931h4.409a.623.623 0 0 0 .625-.624v-1.387a3.278 3.278 0 0 0-3.284-3.283ZM43.66 46.132a4.525 4.525 0 0 0-.739-2.045 4.868 4.868 0 0 0-.682-.773 4.504 4.504 0 0 0-6.203 0 4.875 4.875 0 0 0-.682.773 4.527 4.527 0 0 0-.739 2.045.669.669 0 0 1-.022.148c-.012.125-.023.238-.023.363v2.432a.485.485 0 0 0 .488.488h8.17a.485.485 0 0 0 .489-.488v-2.432a1.885 1.885 0 0 0-.035-.363.661.661 0 0 1-.022-.148ZM36.729 38.907a2.397 2.397 0 1 0 2.397-2.398 2.405 2.405 0 0 0-2.397 2.398Z" fill="#f4b942" fill-rule="evenodd"/></svg>