<svg data-tags="error,data,illustration,chart,Unavailable" xmlns="http://www.w3.org/2000/svg" viewBox="0 0 40 40"><path d="M3.61 9.682a2.26 2.26 0 0 0 2.261-2.26 2.224 2.224 0 0 0-.027-.27l4.41-2.96a2.24 2.24 0 0 0 1.158.33c.064 0 .125-.014.187-.02l5.635 9.764a2.27 2.27 0 1 0 3.994.6l4.992-4.671a2.32 2.32 0 1 0-1.304-1.405l-4.992 4.67a2.247 2.247 0 0 0-.838-.164c-.064 0-.124.014-.187.019l-5.635-9.763a2.26 2.26 0 1 0-4.113-1.291 2.25 2.25 0 0 0 .035.34L4.83 5.523a2.26 2.26 0 1 0-1.22 4.16ZM19.954 25.869h-1.735a2.3 2.3 0 0 0-2.1 2.437v8.153h5.925v-8.153a2.287 2.287 0 0 0-2.09-2.437Z"/><path d="M12.284 15.068h-1.743A2.079 2.079 0 0 0 8.45 17.13V36.46h5.925V17.131a2.079 2.079 0 0 0-2.09-2.063ZM4.47 18.09H2.615a2.274 2.274 0 0 0-2.228 2.319v16.05h6.309V20.41a2.274 2.274 0 0 0-2.228-2.319ZM26.126 16.894a2.376 2.376 0 0 0-2.228 2.483v9.5a9.827 9.827 0 0 1 6.026-5.165l.17-.049c.04-.01.082-.014.122-.025v-4.26a2.376 2.376 0 0 0-2.228-2.484ZM32.727 26.22a6.99 6.99 0 0 0-1.836.25l-.141.04a6.889 6.889 0 0 0 .21 13.26 6.996 6.996 0 0 0 1.767.23 6.724 6.724 0 0 0 1.747-.23 6.542 6.542 0 0 0 1.234-.442c.06-.03.12-.07.22-.12a6.173 6.173 0 0 0 1.205-.814l.1-.08a6.888 6.888 0 0 0-4.506-12.094Zm-.919 3.151a.92.92 0 0 1 1.839 0v4.493a.914.914 0 0 1-.914.914h-.012a.914.914 0 0 1-.913-.914Zm.92 8.39a.975.975 0 1 1 .974-.974.976.976 0 0 1-.975.975Z"/></svg>