<svg data-tags="trash,dump,remove" xmlns="http://www.w3.org/2000/svg" viewBox="0 0 14 9.934"><path d="M.475 7.744l-.171.175-.179-.176a.074.074 0 00-.103.105l.179.176-.171.174a.074.074 0 10.105.104l.17-.175.18.176a.074.074 0 00.102-.106L.41 8.022l.171-.174a.074.074 0 10-.105-.104M9.605.018l-.12.12-.123-.123a.051.051 0 00-.072.073l.123.123-.12.12a.051.051 0 10.073.073l.12-.12.123.122a.051.051 0 00.072-.072L9.558.21l.12-.121a.051.051 0 10-.073-.072" fill="#0828cc" fill-rule="evenodd"/><path d="M13.098 9.09a6.75 6.75 0 01-1.883-1.873 6.41 6.41 0 01-1.388-2.25l.535-.433a2.774 2.774 0 00.298.64 13.764 13.764 0 001.118 1.591 13.755 13.755 0 001.307 1.44 2.668 2.668 0 00.572.438zm.131-2.085a.1.1 0 10-.162.114 3.914 3.914 0 01.742 1.371 6.84 6.84 0 01-1.876-1.849 6.85 6.85 0 01-1.393-2.237 3.916 3.916 0 011.177 1.027.1.1 0 10.146-.133c-.733-.804-1.21-1.165-1.418-1.076a.098.098 0 00-.036.018l-.695.563a.164.164 0 00-.024.02c-.09.077-.135.256.253.926a13.647 13.647 0 001.117 1.592 14.94 14.94 0 001.303 1.452c.413.39.622.497.742.497a.167.167 0 00.11-.038l.717-.576a.097.097 0 00.032-.052c.135-.182-.112-.726-.735-1.619z" fill="#0828cc"/><path d="M12.717 7.058a.1.1 0 01-.062-.177l.146-.117a.308.308 0 00.076-.425l-.443-.555a.307.307 0 00-.432-.018l-.145.117a.1.1 0 01-.124-.155l.145-.117a.504.504 0 01.71.049l.444.555a.506.506 0 01-.107.704l-.146.117a.098.098 0 01-.062.022zM6.715 8.721a.1.1 0 01-.1-.1v-4.15a.1.1 0 11.199 0v4.15a.1.1 0 01-.1.1zM5.37 8.663a.1.1 0 01-.099-.096l-.133-4.094a.1.1 0 11.198-.006l.133 4.094a.1.1 0 01-.096.102zm2.69 0h-.003a.1.1 0 01-.095-.102l.133-4.094a.1.1 0 01.102-.096.1.1 0 01.096.102L8.16 8.567a.1.1 0 01-.1.096z" fill="#0828cc" fill-rule="evenodd"/><path d="M2.017 6.295l-.087.087-.087-.087a.074.074 0 00-.104.104l.087.087-.087.087a.074.074 0 10.105.104l.086-.087.087.087a.074.074 0 00.104-.104l-.087-.087.087-.087a.074.074 0 00-.104-.104m9.849-2.983l-.067.068-.067-.067a.057.057 0 10-.08.08l.066.067-.067.068a.057.057 0 10.081.08l.067-.067.067.067a.057.057 0 00.08-.08l-.067-.068.067-.067a.057.057 0 00-.08-.08" fill="#0828cc" fill-rule="evenodd" opacity=".6"/><path d="M3.905 8.611H2.097a.08.08 0 000 .162h1.808a.08.08 0 000-.162zm8.394 0H9.548a.08.08 0 000 .162h2.751a.08.08 0 000-.162z" fill="#0828cc" fill-rule="evenodd"/><path d="M9.294 2.843c0 .247-1.163.4-2.6.4s-2.527-.148-2.527-.395 1.111-.4 2.548-.4 2.58.148 2.58.395z" fill="#0828cc" fill-rule="evenodd" opacity=".6"/><path d="M9.336 9.157c0 .242-.997.579-2.621.579s-2.621-.337-2.621-.583L3.808 3.15a6.673 6.673 0 002.907.475 6.673 6.673 0 002.907-.475zm.498-6.31c0-.477-1.35-.709-2.506-.762a.1.1 0 00-.009.198c1.51.07 2.316.372 2.317.564v.002c-.005.236-1.141.577-2.921.577s-2.917-.341-2.921-.577v-.002c.002-.236 1.14-.578 2.92-.578a.1.1 0 000-.198c-1.55 0-3.118.267-3.118.777v.005l.3 6.304c0 .51 1.418.777 2.819.777s2.82-.267 2.819-.772l.3-6.31z" fill="#0828cc"/><path d="M2.017 6.295l-.087.087-.087-.087a.074.074 0 00-.104.104l.087.087-.087.087a.074.074 0 10.105.104l.086-.087.087.087a.074.074 0 00.104-.104l-.087-.087.087-.087a.074.074 0 00-.104-.104m9.849-2.983l-.067.068-.067-.067a.057.057 0 10-.08.08l.066.067-.067.068a.057.057 0 10.081.08l.067-.067.067.067a.057.057 0 00.08-.08l-.067-.068.067-.067a.057.057 0 00-.08-.08m-2.572-.47c0 .247-1.163.4-2.6.4s-2.527-.148-2.527-.395 1.111-.4 2.548-.4 2.58.148 2.58.395z" fill="#0828cc" fill-rule="evenodd" opacity=".6"/><path d="M12.863 7.036a4.559 4.559 0 01.79 1.259 8.353 8.353 0 01-1.627-1.746 8.092 8.092 0 01-1.33-1.95c.059-.047.518.42 1.04 1.028z" fill="#0828cc" fill-rule="evenodd" opacity=".1"/></svg>