<svg width="200" height="93" xmlns="http://www.w3.org/2000/svg"><defs><filter x="-15.1%" y="-11.1%" width="130.2%" height="131.1%" filterUnits="objectBoundingBox" id="placeholderDocumentError__a"><feOffset dy="2" in="SourceAlpha" result="shadowOffsetOuter1"/><feGaussianBlur stdDeviation="2" in="shadowOffsetOuter1" result="shadowBlurOuter1"/><feColorMatrix values="0 0 0 0 0 0 0 0 0 0 0 0 0 0 0 0 0 0 0.2 0" in="shadowBlurOuter1" result="shadowMatrixOuter1"/><feMerge><feMergeNode in="shadowMatrixOuter1"/><feMergeNode in="SourceGraphic"/></feMerge></filter></defs><g fill="none" fill-rule="evenodd"><g stroke="#0828CC" transform="translate(1 1)"><path d="M8.5 48v5M6 50.5h5M195.5 62v5m-2.5-2.5h5" stroke-linecap="square"/><circle cx="2.5" cy="32.5" r="2.5"/><circle cx="190.5" cy="76.5" r="2.5"/></g><path d="M75 26h23.022M75 58h23.022M75 32h48M75 44h48m-48-6h48M63 90.008V14.992c0-1.1.897-1.992 2-1.992h52.993c.556 0 1.327.32 1.715.708l14.584 14.584c.391.391.708 1.164.708 1.716v60" stroke="#0828CC"/><path fill="#FFF" d="M118 13.727c0-1.1.63-1.363 1.42-.573l15.455 15.456c.785.785.526 1.42-.572 1.42h-14.31c-1.1 0-1.993-.894-1.993-1.992V13.727z"/><path stroke="#0828CC" d="M118.5 13.727v14.31c0 .823.67 1.493 1.493 1.493h14.31c.65 0 .69-.096.219-.567l-15.455-15.455c-.475-.475-.567-.438-.567.219z"/><path d="M75 64h48M75 76h48m-48-6h48" stroke="#0828CC" stroke-dasharray="4"/><g filter="url(#placeholderDocumentError__a)" transform="translate(71 32)"><path d="M23.768 2.554C25.205.196 27.538.2 28.97 2.548l8.024 13.16L51.9 40.16c1.438 2.357.362 4.269-2.39 4.269H3.23c-2.757 0-3.828-1.91-2.39-4.27L23.768 2.555z" stroke="#FFF"/><path fill="#FFF" d="M25.212 33.429h3.152v3.143h-3.152zm0-17.286h3.152v14.143h-3.152z"/></g></g></svg>
