<svg xmlns="http://www.w3.org/2000/svg" data-tags="charts" viewBox="0 0 40 31"><path d="M6.73 7.97c.52 0 .99-.18 1.37-.48l7.5 4.59c-.06.21-.11.42-.11.65a2.23 2.23 0 104.1-1.21l3.49-3.29c.41.45.99.73 1.64.73 1.08 0 1.98-.77 2.19-1.79l3.73-.63a2.24 2.24 0 004.31-.81 2.23 2.23 0 00-4.45-.18l-3.63.62a2.23 2.23 0 00-2.15-1.67 2.23 2.23 0 00-2.14 2.83l-3.71 3.49a2.17 2.17 0 00-1.15-.33c-.64 0-1.22.28-1.63.71L8.74 6.7a2.23 2.23 0 10-2.01 1.27zm26 3.53a2.2 2.2 0 00-1.92 3.34l-6.87 6.01a2.26 2.26 0 00-1.2-.36c-.69 0-1.3.32-1.71.81l-5.07-2.73a2.23 2.23 0 00-2.22-2.08c-1.23 0-2.23 1-2.23 2.23l.03.28-3.36 3.03a2.23 2.23 0 10-1.44 3.92 2.23 2.23 0 002.04-3.13L11.91 20a2.23 2.23 0 003.88-.4l4.79 2.58a2.23 2.23 0 104.06-.63l6.85-5.99a2.23 2.23 0 003.48-1.84c0-1.23-1-2.22-2.24-2.22z"/><path d="M39.5 30.5H.5v-31h1v30h37v-30h1z" opacity=".5"/></svg>