<svg xmlns="http://www.w3.org/2000/svg" data-tags="selected charts" viewBox="0 0 40 31"><path fill="#4CD2E0" d="M32.73 3.5a2.23 2.23 0 00-2.21 2.05l-3.63.62a2.23 2.23 0 00-2.16-1.67 2.24 2.24 0 00-2.23 2.23c0 .21.04.41.1.6l-3.71 3.5a2.21 2.21 0 00-1.16-.33c-.64 0-1.21.28-1.62.71l-7.37-4.5a2.24 2.24 0 10-2 1.27c.51-.01.98-.2 1.36-.5l7.5 4.6a2.24 2.24 0 104-.55l3.5-3.29a2.22 2.22 0 003.82-1.06l3.74-.63a2.23 2.23 0 002.07 1.42 2.24 2.24 0 000-4.47z"/><path fill="#CBD756" d="M32.73 11.5a2.24 2.24 0 00-2.23 2.23c0 .41.12.79.3 1.11l-6.86 6.02a2.22 2.22 0 00-1.2-.36 2.22 2.22 0 00-1.71.81l-5.08-2.73a2.23 2.23 0 00-2.22-2.08 2.24 2.24 0 00-2.23 2.23c0 .1.02.19.03.28l-3.36 3.03a2.21 2.21 0 00-1.44-.54 2.24 2.24 0 102.05 1.34l3.13-2.82a2.23 2.23 0 001.82.95c.92 0 1.7-.56 2.05-1.35l4.8 2.58a2.21 2.21 0 00-.08.53 2.24 2.24 0 004.47 0c0-.42-.13-.82-.33-1.16l6.84-5.99a2.22 2.22 0 001.26.39 2.24 2.24 0 000-4.47z"/><path opacity=".5" fill="#CBD756" d="M39.5 30.5H.5L.47 0h1l.03 29.5h37L38.47 0h1z"/></svg>