<svg data-tags="modern engagement , engagement, launchpad" xmlns="http://www.w3.org/2000/svg" viewBox="0 0 50 50"><path d="M4.3 13.05H39V27.7h2V12.04a1 1 0 0 0-1-1H13.25V4.49h34.7v23.22h.4a4.64 4.64 0 0 1 1.6.3V3.49a1 1 0 0 0-1-1H12.2a.98.98 0 0 0-.34.06l-.04.02a.86.86 0 0 0-.2.13l-2.3 1.81a1.03 1.03 0 0 0-.36.8v5.73H3.25a.83.83 0 0 0-.35.08s-.02 0-.03.02a1.13 1.13 0 0 0-.2.12l-2.3 1.82a1 1 0 0 0-.38.78v28.02a1 1 0 0 0 1 1h27.56v-3.82H4.3Z"/><path d="M48.35 30.72h-11.3a1.64 1.64 0 0 0-1.65 1.63v1.25h9.12a2.52 2.52 0 0 1 2.53 2.5v4.95h1.3a1.66 1.66 0 0 0 1.37-.72 1.6 1.6 0 0 0 .28-.9v-7.08a1.64 1.64 0 0 0-1.65-1.63Z"/><path d="M45.45 34.74a1.66 1.66 0 0 0-.93-.27H33.23a1.66 1.66 0 0 0-.92.27 1.62 1.62 0 0 0-.73 1.36v7.06a1.64 1.64 0 0 0 1.65 1.63h.86v2.22a.51.51 0 0 0 .93.3l1.2-1.65.63-.87h7.67a1.64 1.64 0 0 0 1.66-1.63V36.1a1.62 1.62 0 0 0-.73-1.36Zm-7.25 6.98h-3.06a.67.67 0 0 1-.68-.67.66.66 0 0 1 .2-.47.68.68 0 0 1 .48-.2h3.06a.67.67 0 1 1 0 1.34Zm4.42-2.84h-7.48a.67.67 0 1 1 0-1.34h7.48a.67.67 0 1 1 0 1.34ZM7.93 30.75v3.15a.92.92 0 0 0 .93.92h7.13v-5.36a2.3 2.3 0 0 1 2.3-2.3h.81a2.3 2.3 0 0 1 .21-.74c-.15-.15-.3-.29-.46-.42l.03-.01-.27-.2a6.1 6.1 0 0 0-.38-.25 6.2 6.2 0 0 0-.6-.33c-.13-.06-.26-.13-.4-.18a6.08 6.08 0 0 0-.77-.25l-.3-.08a6 6 0 0 0-1.17-.12h-.9a6 6 0 0 0-1.17.12l-.31.08a6.1 6.1 0 0 0-.78.25l-.4.18a6.24 6.24 0 0 0-.6.33l-.37.26c-.09.06-.19.12-.27.19h.03a6.14 6.14 0 0 0-2.29 4.76Z"/><path d="M18.3 36.16h8.25a1.03 1.03 0 0 0 1.03-1.02v-5.68a1.03 1.03 0 0 0-1.02-1.03h-2.07V27.4a1.03 1.03 0 0 0-1.02-1.04h-2.08a1.03 1.03 0 0 0-1.03 1.03v1.04H18.3a1.02 1.02 0 0 0-1.03 1.02v5.68a1.03 1.03 0 0 0 1.02 1.03Zm3.1-8.76h2.06v1.03h-2.07Zm-6.85-3.79a3.42 3.42 0 1 0-3.42-3.42 3.42 3.42 0 0 0 3.42 3.42Zm11.28-4.64h6.09a1 1 0 0 0 0-2h-6.1a1 1 0 0 0 0 2Zm10.54 3a1 1 0 0 0-1-1h-9.54a1 1 0 0 0 0 2h9.53a1 1 0 0 0 1-1Z"/></svg>