<svg data-tags="Modern Engagement, engagement, launchpad" xmlns="http://www.w3.org/2000/svg" viewBox="0 0 50 49.438"><path fill="none" stroke="#000" stroke-linecap="round" stroke-linejoin="round" stroke-width="2" d="M32.193 12.163h7.53M32.193 17.114h11.79"/><path d="M19.645 18.432a4.437 4.437 0 0 0 3.145-7.57 4.562 4.562 0 0 0-6.267 0 4.344 4.344 0 0 0-1.303 3.144 4.475 4.475 0 0 0 1.303 3.145 4.325 4.325 0 0 0 3.122 1.28Z"/><path d="M25.967 41.578v-4.073H4.693V4.857h43.384v19.43h.153a4.892 4.892 0 0 1 1.847.365V3.857a1 1 0 0 0-1-1H3.693c-.014 0-.026.008-.04.008a.988.988 0 0 0-.342.07c-.014.005-.024.015-.037.02a1.003 1.003 0 0 0-.203.12L.247 5.32a.997.997 0 0 0-.378.782v34.65a1 1 0 0 0 1 1H25.98c-.002-.06-.013-.116-.013-.175Z"/><path d="M35.26 27.287h12.97a1.888 1.888 0 0 1 1.9 1.874v8.118a1.846 1.846 0 0 1-.324 1.048 1.907 1.907 0 0 1-1.576.826h-1.483v-5.692a2.892 2.892 0 0 0-2.909-2.868H33.36v-1.432a1.888 1.888 0 0 1 1.901-1.874Zm8.578 4.298a1.912 1.912 0 0 1 1.063.32 1.865 1.865 0 0 1 .838 1.554v8.119a1.888 1.888 0 0 1-1.9 1.874h-8.812l-.725.993-1.381 1.893A.59.59 0 0 1 31.854 46v-2.547h-.985a1.888 1.888 0 0 1-1.901-1.874v-8.119a1.865 1.865 0 0 1 .838-1.554 1.912 1.912 0 0 1 1.063-.32h12.97Zm-10.48 3.534h-.3a.77.77 0 1 0 0 1.539h8.59a.77.77 0 1 0 0-1.539Zm3.215 4.804h-3.515a.775.775 0 0 1-.78-.77.761.761 0 0 1 .23-.544.783.783 0 0 1 .55-.224h3.515a.77.77 0 1 1 0 1.538Z" fill="#4daad3" fill-rule="evenodd"/><path d="M28.143 29.408a4.938 4.938 0 0 1 .825-.432v-.037a9.27 9.27 0 0 0-9.256-9.255h-.157a9.285 9.285 0 0 0-9.255 9.255v2.416a1.4 1.4 0 0 0 1.393 1.393h14.332a4.86 4.86 0 0 1 2.118-3.34Z"/></svg>