<svg data-tags="dashboard thumbnails,engagement" xmlns="http://www.w3.org/2000/svg" viewBox="0 0 185 92"><rect x="40.02" y="23.48" width="104.959" height="37.886" rx="2.5" fill="#8c43ff"/><path d="m60.456 68.019 4.258-7.375a1.001 1.001 0 0 0-.867-1.502H55.33a1.001 1.001 0 0 0-.867 1.502l4.258 7.375a1.001 1.001 0 0 0 1.735 0Z" fill="#8c43ff"/><path d="M122.647 54.102a2.367 2.367 0 0 0 2.36-2.36h-4.72a2.36 2.36 0 0 0 2.36 2.36Zm7.08-7.08v-5.9c0-3.621-1.936-6.654-5.31-7.456v-.802a1.77 1.77 0 0 0-3.54 0v.802c-3.386.802-5.31 3.823-5.31 7.457v5.9l-1.521 1.521a1.18 1.18 0 0 0 .825 2.018h15.54a1.183 1.183 0 0 0 .837-2.018Z" fill="#ffc312"/><path d="M58.624 41.348a4.631 4.631 0 1 0-4.631-4.632 4.635 4.635 0 0 0 4.631 4.632ZM67.777 54.235H49.471a.591.591 0 0 1-.53-.656c.282-6.122 4.508-10.981 9.679-10.981s9.404 4.86 9.688 10.98a.591.591 0 0 1-.53.657Z" fill="#fff"/><circle cx="116.373" cy="40.047" r="2.678" fill="#ed4c67"/><path d="m94.723 54.01-1.573-2.724a1.001 1.001 0 0 1 .868-1.502h3.145a1.001 1.001 0 0 1 .867 1.502l-1.573 2.723a1.001 1.001 0 0 1-1.734 0Z" fill="#5cc8c3"/><rect x="76.206" y="32.085" width="29.508" height="19.037" rx="2" fill="#5cc8c3"/><circle cx="96.645" cy="41.604" r="1.386" fill="#fff"/><circle cx="90.96" cy="41.604" r="1.386" fill="#fff"/><circle cx="85.276" cy="41.604" r="1.386" fill="#fff"/></svg>