<svg data-tags="dashboard thumbnails,engagement" xmlns="http://www.w3.org/2000/svg" viewBox="0 0 185 92"><path d="m49.176 69.632 5.164 2.981a1.001 1.001 0 0 0 1.502-.867v-5.962a1.001 1.001 0 0 0-1.502-.868l-5.164 2.982a1.001 1.001 0 0 0 0 1.734Z" fill="#6ac96e"/><rect x="53.049" y="51.84" width="35.136" height="25.2" rx="2" fill="#6ac96e"/><path d="m49.176 22.368 5.164-2.981a1.001 1.001 0 0 1 1.502.867v5.962a1.001 1.001 0 0 1-1.502.868l-5.164-2.982a1.001 1.001 0 0 1 0-1.734Z" fill="#ed4c67"/><rect x="53.049" y="14.96" width="35.136" height="25.2" rx="2" fill="#ed4c67"/><path d="m135.824 50.091-5.164 2.982a1.001 1.001 0 0 1-1.502-.868v-5.962a1.001 1.001 0 0 1 1.502-.867l5.164 2.981a1.001 1.001 0 0 1 0 1.734Z" fill="#8c43ff"/><rect x="96.815" y="32.299" width="35.136" height="25.2" rx="2" transform="rotate(-180 114.383 44.9)" fill="#8c43ff"/><circle cx="77.546" cy="64.44" r="1.69" fill="#fff"/><circle cx="70.617" cy="64.44" r="1.69" fill="#fff"/><circle cx="63.689" cy="64.44" r="1.69" fill="#fff"/><path d="M107.794 51.145h1.71a.725.725 0 0 0 .724-.725v-5.995a.725.725 0 0 0-.725-.725h-1.71a.725.725 0 0 0-.724.725v5.995a.725.725 0 0 0 .725.725Zm5.147.208h5.865a1.922 1.922 0 0 0 2.105-1.655l.777-4.949.006-.064a1.795 1.795 0 0 0-.444-1.286 1.629 1.629 0 0 0-1.235-.493h-3.218l-.02-2.733a1.694 1.694 0 0 0-1.668-1.738 2.133 2.133 0 0 0-.263.017.725.725 0 0 0-.635.72v2.213c-.003.052-.094 1.702-2.466 2.487a.725.725 0 0 0-.497.688v5.1a1.664 1.664 0 0 0 1.693 1.693ZM78.11 25.694a4.534 4.534 0 0 0-2.372-4.006c-2.647-1.485-5.103.988-5.103.988H70.6s-2.456-2.473-5.103-.988a4.534 4.534 0 0 0-2.372 4.006s-.365 2.36 3.252 5.567a19.065 19.065 0 0 0 3.96 2.587.702.702 0 0 0 .56 0 19.065 19.065 0 0 0 3.96-2.587c3.618-3.207 3.253-5.567 3.253-5.567Z" fill="#fff"/></svg>