<svg data-tags="dashboard thumbnails,engagement" xmlns="http://www.w3.org/2000/svg" viewBox="0 0 185 92"><rect x="60.89" y="18.692" width="37.052" height="54.617" rx="1.5" fill="#6ac96e"/><rect x="64.655" y="21.963" width="29.521" height="43.743" rx="1.5" fill="#fff"/><circle cx="79.415" cy="69.429" r="1.909" fill="#fff"/><path d="m110.687 62.098-3.517-6.09a1.001 1.001 0 0 1 .868-1.503h7.032a1.001 1.001 0 0 1 .867 1.502l-3.516 6.09a1.001 1.001 0 0 1-1.734 0Z" fill="#ed4c67"/><rect x="84.988" y="29.402" width="39.122" height="28.059" rx="2" fill="#ed4c67"/><path d="M114.332 40.994a5.92 5.92 0 0 0-3.096-5.23c-3.457-1.939-6.663 1.29-6.663 1.29h-.047s-3.206-3.229-6.663-1.29a5.92 5.92 0 0 0-3.097 5.23s-.476 3.082 4.247 7.27a24.894 24.894 0 0 0 5.17 3.378.916.916 0 0 0 .732 0 24.894 24.894 0 0 0 5.17-3.378c4.724-4.188 4.247-7.27 4.247-7.27Z" fill="#fff"/></svg>