<svg data-tags="dashboard thumbnails,engagement" xmlns="http://www.w3.org/2000/svg" viewBox="0 0 185 92"><path d="M83.48 28.808a5.936 5.936 0 1 0-5.937-5.936 5.941 5.941 0 0 0 5.936 5.936ZM95.212 45.327H71.747a.758.758 0 0 1-.68-.84c.363-7.847 5.78-14.076 12.407-14.076s12.054 6.229 12.418 14.075a.758.758 0 0 1-.68.84Z" fill="#108cc5"/><path d="M111.32 55.273a5.585 5.585 0 1 0-5.584-5.585 5.59 5.59 0 0 0 5.585 5.585ZM122.358 70.813h-22.075a.713.713 0 0 1-.64-.79c.342-7.382 5.437-13.243 11.673-13.243s11.34 5.86 11.682 13.242a.713.713 0 0 1-.64.791Z" fill="#2e9975"/><path d="M71.066 62.044a5.585 5.585 0 1 0-5.585-5.585 5.59 5.59 0 0 0 5.585 5.585ZM82.103 77.584H60.028a.713.713 0 0 1-.64-.79c.342-7.382 5.437-13.243 11.673-13.243s11.34 5.86 11.682 13.242a.713.713 0 0 1-.64.791Z" fill="#ed4c67"/><path d="m61.23 58-3.058-2.826a8.864 8.864 0 1 0-5.733 7.33 8.77 8.77 0 0 0 4.066-3.067l4.187-.04a.805.805 0 0 0 .539-1.396Z" fill="#ffc312"/><path d="m97.486 30.604 4.087-.797a8.864 8.864 0 1 0-2.527-8.956 8.77 8.77 0 0 0 .073 5.093l-2.442 3.4a.805.805 0 0 0 .81 1.26Z" fill="#5cc8c3"/><path d="m123.688 55.458 4.12.608a8.864 8.864 0 1 0 .6-9.286 8.77 8.77 0 0 0-1.628 4.827L123.345 54a.805.805 0 0 0 .343 1.458Z" fill="#a3cb38"/></svg>