<svg data-tags="dashboard thumbnails,engagement" xmlns="http://www.w3.org/2000/svg" viewBox="0 0 185 92"><path d="M65.945 55.667a8.575 8.575 0 1 0-8.575-8.575 8.582 8.582 0 0 0 8.575 8.575Z" fill="#ac4aa2"/><path d="M82.893 79.528H48.997a1.095 1.095 0 0 1-.982-1.214c.524-11.334 8.349-20.333 17.923-20.333S83.35 66.98 83.876 78.314a1.095 1.095 0 0 1-.983 1.214Z" fill="#763bd2"/><path d="M119.055 38.016a8.575 8.575 0 1 0-8.576-8.576 8.582 8.582 0 0 0 8.576 8.576Z" fill="#b1306c"/><path d="M136.003 61.877h-33.896a1.095 1.095 0 0 1-.983-1.214c.525-11.335 8.35-20.333 17.923-20.333s17.413 8.998 17.938 20.333a1.095 1.095 0 0 1-.982 1.214Z" fill="#763bd2"/><path d="m82.64 64.312 4.25 2.454a1.001 1.001 0 0 0 1.502-.867v-4.908a1.001 1.001 0 0 0-1.502-.867l-4.25 2.454a1.001 1.001 0 0 0 0 1.734Z" fill="#108cc5"/><rect x="85.912" y="48.412" width="31.208" height="22.383" rx="2" fill="#108cc5"/><circle cx="107.67" cy="59.604" r="1.501" fill="#fff"/><circle cx="101.516" cy="59.604" r="1.501" fill="#fff"/><circle cx="95.362" cy="59.604" r="1.501" fill="#fff"/><path d="m105.338 28.371-4.25 2.455a1.001 1.001 0 0 1-1.503-.868V25.05a1.001 1.001 0 0 1 1.502-.867l4.251 2.454a1.001 1.001 0 0 1 0 1.734Z" fill="#54beee"/><rect x="70.858" y="12.472" width="31.208" height="22.383" rx="2" transform="rotate(-180 86.462 23.663)" fill="#54beee"/><circle cx="92.616" cy="23.663" r="1.501" fill="#fff"/><circle cx="86.462" cy="23.663" r="1.501" fill="#fff"/><circle cx="80.308" cy="23.663" r="1.501" fill="#fff"/></svg>