<svg data-tags="dashboard thumbnails,engagement" xmlns="http://www.w3.org/2000/svg" viewBox="0 0 185 92"><rect x="79.69" y="19.515" width="35.934" height="52.97" rx="1.5" fill="#327afd"/><rect x="83.341" y="22.688" width="28.63" height="42.423" rx="1.5" fill="#fff"/><circle cx="97.657" cy="68.723" r="1.852" fill="#fff"/><rect x="72.624" y="38.281" width="22.648" height="14.579" rx="1.5" fill="#8c43ff"/><path d="M129.107 52.166v14.752a1.305 1.305 0 0 1-1.144 1.303.57.57 0 0 1-.176.017h-22.278a.487.487 0 0 1-.159-.017 1.3 1.3 0 0 1-1.162-1.303V52.166a.959.959 0 0 1 .027-.23 1.307 1.307 0 0 1 1.294-1.09h22.278a1.307 1.307 0 0 1 1.294 1.09.959.959 0 0 1 .026.23Z" fill="#ffc312"/><path d="M129.107 66.839v.079a1.305 1.305 0 0 1-1.144 1.303l-8.054-9.885-2.755 1.928c-.027.017-.053.017-.07.035a.312.312 0 0 1-.08.035.832.832 0 0 1-.352.088.871.871 0 0 1-.36-.088.264.264 0 0 1-.071-.035c-.027-.018-.053-.018-.08-.035l-2.658-1.858-8.133 9.815a1.3 1.3 0 0 1-1.162-1.303v-.062l7.843-9.462-7.816-5.457a1.307 1.307 0 0 1 1.294-1.092h.22l10.923 7.623 10.923-7.622h.212a1.307 1.307 0 0 1 1.294 1.09l-7.72 5.388ZM108.176 32.068h13.592v3.995h-13.592z" fill="#fff"/><path d="M115.624 25a9.07 9.07 0 0 0-9.071 9.07 8.493 8.493 0 0 0 1.903 5.527l-1.331 3.242a.338.338 0 0 0 .378.47l4.809-.829a9.976 9.976 0 0 0 3.312.662h.102A9.072 9.072 0 0 0 115.624 25Zm-5.12 10.184a1.024 1.024 0 1 1 0-2.048 1.024 1.024 0 1 1 0 2.048Zm5.12 0a1.024 1.024 0 1 1 0-2.048 1.024 1.024 0 1 1 0 2.048Zm5.12 0a1.024 1.024 0 1 1 1.024-1.024 1.024 1.024 0 0 1-1.024 1.024Z" fill="#6ac96e"/><path d="m87.455 44.704-6.132-3.54a1.001 1.001 0 0 0-1.502.867v7.08a1.001 1.001 0 0 0 1.502.867l6.132-3.54a1.001 1.001 0 0 0 0-1.734Z" fill="#fff"/><path d="m65.771 45.38-1.15-1.992a1.001 1.001 0 0 1 .868-1.502h2.3a1.001 1.001 0 0 1 .867 1.502l-1.15 1.991a1.001 1.001 0 0 1-1.735 0Z" fill="#ed4c67"/><rect x="55.893" y="28.096" width="21.491" height="15.413" rx="2" fill="#ed4c67"/><path d="M72.013 34.464a3.252 3.252 0 0 0-1.702-2.873c-1.899-1.065-3.66.708-3.66.708h-.025s-1.761-1.773-3.66-.708a3.252 3.252 0 0 0-1.702 2.873s-.261 1.693 2.333 3.993a13.675 13.675 0 0 0 2.84 1.856.503.503 0 0 0 .402 0 13.675 13.675 0 0 0 2.84-1.856c2.595-2.3 2.334-3.993 2.334-3.993Z" fill="#fff"/></svg>