<svg data-tags="404,mistake,flaw" xmlns="http://www.w3.org/2000/svg" viewBox="0 0 207.7 116"><path opacity=".1" d="M115.5 2.3a36.7 36.7 0 00-39.3 13.6l4.2 2.6 6.3 4.3L97 27.9l6 2.7 8.3 1.6 8.3 1.6 6.8.1 16.5-.2a36.7 36.7 0 00-27.3-31.4zm20 27.1h-.2c-.7 0-1.3-.4-1.5-1.1-1.6-7.1-6.7-12.2-10.7-15.3a1.5 1.5 0 011.8-2.4c4.4 3.4 10 9 11.8 17 .2.8-.3 1.6-1.1 1.8z"/><path d="M9.2 71H6.5v-2.8a.8.8 0 00-1.5 0V71H2.3a.8.8 0 000 1.5H5v2.7a.8.8 0 001.5 0v-2.7h2.7a.8.8 0 000-1.5zm9.6-15.7h-2v-2.2a.8.8 0 00-1.5 0v2.2H13a.8.8 0 000 1.5h2.2V59a.8.8 0 001.5 0v-2h2a.8.8 0 000-1.6zM195.2 95h-1.8v-2a.8.8 0 00-1.5 0v2h-1.8a.8.8 0 000 1.5h1.8v1.8a.8.8 0 001.5 0v-1.8h1.8a.8.8 0 000-1.5zM106 84.4a1 1 0 10-1.7 1l18 30.1a1 1 0 101.8-1l-18-30.1zm-26.3-6l-36.3 20a1 1 0 101 1.8l36.3-20a1 1 0 10-1-1.8z" opacity=".5"/><path d="M187.7 66.7a74 74 0 00-44-33.9 37.9 37.9 0 00-28-31.5 37.9 37.9 0 00-40.3 14l.2.1-1.8-.4a77.9 77.9 0 00-53.6 9 1 1 0 000 1.7 315 315 0 0049.9 23.2c1.6 4.8 7.4 9.5 16.3 13.2l-2.5 9.3c-.1.5.2 1 .7 1.2l20.8 5.6a1 1 0 00.8-.1c.2-.2.4-.4.4-.6l2.6-9.5 5.2.3c6.7 0 12.3-1.4 15.6-4a323 323 0 0056.9 3.9 1 1 0 00.8-1.5zM115.3 3.2a35.9 35.9 0 0126.3 29.3 20 20 0 00-4.3.1 75.8 75.8 0 01-55.6-14.1c-1.3-1-2.8-1.9-4.4-2.5a35.9 35.9 0 0138-12.8zM105 76l-19-5 2.2-8.1a90.5 90.5 0 0018.9 4.9L105 76zm-6.8-12c-13-3.5-22.4-8.8-25.5-14.1 17.6 6.2 35.8 11 54.3 14-6 3-17.3 3.2-28.8 0zm31.4-1.7h-.1c-35.7-5.7-70-17.4-101.6-34.6l150.3 38.6c-16.4-.1-32.6-1.5-48.6-4zm55.1 4l.1-.4L23.4 24.5a75.9 75.9 0 0150-7.5c2.6.4 5 1.5 7.1 3a77.8 77.8 0 0057 14.6 18 18 0 017.8.7 72 72 0 0139.8 31h-.4z"/></svg>