<svg data-tags="Modern Research, research, launchpad" xmlns="http://www.w3.org/2000/svg" viewBox="0 0 50 49.438"><path d="M32.48 8.814h12.694a1.483 1.483 0 1 0 0-2.966H32.48a1.483 1.483 0 1 0 0 2.966ZM17.79 8.788A1.458 1.458 0 1 0 16.33 7.33a1.458 1.458 0 0 0 1.458 1.458ZM22.206 8.788a1.458 1.458 0 1 0-1.458-1.458 1.458 1.458 0 0 0 1.458 1.458Z"/><circle cx="26.875" cy="7.33" r="1.458"/><path d="M36.583 25.54a2.737 2.737 0 0 1-2.737-2.738.547.547 0 0 0-1.095 0 2.737 2.737 0 0 1-2.737 2.737.547.547 0 0 0 0 1.095 2.737 2.737 0 0 1 2.737 2.737.547.547 0 0 0 1.095.001v-.001a2.737 2.737 0 0 1 2.737-2.737.547.547 0 0 0 0-1.095ZM29.858 22.241a.547.547 0 0 0-.474-.821 3.284 3.284 0 0 1-3.284-3.284.547.547 0 1 0-1.095-.002v.002a3.284 3.284 0 0 1-3.284 3.284.547.547 0 1 0-.002 1.095h.002a3.284 3.284 0 0 1 3.284 3.284.547.547 0 1 0 1.095.002v-.002a3.284 3.284 0 0 1 3.284-3.284.547.547 0 0 0 .474-.274ZM39.237 18.142a1.916 1.916 0 0 1-1.916-1.916.547.547 0 0 0-1.095 0 1.916 1.916 0 0 1-1.915 1.916.547.547 0 1 0 0 1.095 1.916 1.916 0 0 1 1.915 1.916.547.547 0 0 0 1.095.005v-.005a1.916 1.916 0 0 1 1.916-1.916.547.547 0 0 0 0-1.095Z"/><path d="M25.664 42.374v-1.358c0-.127.01-.25.018-.374H4.552V19.837h4.381V36.58a.989.989 0 0 0 .989.989H26.72a6.295 6.295 0 0 1 .64-.81 4.489 4.489 0 0 1 .473-3.81h-14.35V12.144h26.59l.005-.001h7.944v18.702A4.715 4.715 0 0 1 50 31.949V3.461a.989.989 0 0 0-.988-.989H12.494c-.024 0-.043.012-.066.014a.95.95 0 0 0-.599.252c-.012.011-.027.018-.039.03l-.005.004-2.571 2.64a.986.986 0 0 0-.28.69v4.063h-5.37c-.022 0-.04.011-.06.012a.982.982 0 0 0-.27.054c-.029.01-.058.019-.085.032a.972.972 0 0 0-.297.2L.28 13.104a.987.987 0 0 0-.28.69v30.478a.989.989 0 0 0 .988.989h26.138a3.597 3.597 0 0 1-1.462-2.886ZM13.483 4.45h34.54v5.714h-34.54Zm-8.93 7.693h4.38v5.716h-4.38Z"/><path d="M31.872 37.128a1.738 1.738 0 1 0-1.738-1.738 1.74 1.74 0 0 0 1.738 1.738ZM31.883 37.796a3.22 3.22 0 0 0-3.219 3.22v1.358a.61.61 0 0 0 .613.612h4.321a6.258 6.258 0 0 1 1.36-2.873 3.218 3.218 0 0 0-3.075-2.317Z" fill="#f4b942" fill-rule="evenodd"/><circle cx="46.763" cy="35.39" r="1.738" fill="#f4b942"/><path d="M46.752 37.796a3.208 3.208 0 0 0-3.074 2.317 6.426 6.426 0 0 1 1.36 2.873h4.32a.61.61 0 0 0 .613-.612v-1.359a3.213 3.213 0 0 0-3.219-3.219ZM43.756 43.62a4.436 4.436 0 0 0-.724-2.004 4.771 4.771 0 0 0-.668-.758 4.415 4.415 0 0 0-6.081 0 4.778 4.778 0 0 0-.669.758 4.437 4.437 0 0 0-.724 2.004.655.655 0 0 1-.022.145c-.011.123-.022.234-.022.357v2.383a.475.475 0 0 0 .479.479h8.008a.475.475 0 0 0 .479-.48v-2.382a1.847 1.847 0 0 0-.034-.357.648.648 0 0 1-.022-.145ZM39.312 38.888a2.35 2.35 0 1 0-2.35-2.35 2.343 2.343 0 0 0 2.35 2.35Z" fill="#f4b942" fill-rule="evenodd"/></svg>