<svg data-tags="Modern Ads, ads, advertising, launchpad" xmlns="http://www.w3.org/2000/svg" viewBox="0 0 50 49.438"><path d="M32.606 6.342H45.3a1.483 1.483 0 1 0 0-2.967H32.606a1.483 1.483 0 1 0 0 2.967ZM17.916 6.316a1.458 1.458 0 1 0-1.458-1.458 1.458 1.458 0 0 0 1.458 1.458ZM22.332 6.316a1.458 1.458 0 1 0-1.458-1.458 1.458 1.458 0 0 0 1.458 1.458Z"/><circle cx="27.002" cy="4.858" r="1.458"/><path d="M32.795 14.838a2.737 2.737 0 0 1-2.737-2.737.547.547 0 0 0-1.095 0 2.737 2.737 0 0 1-2.737 2.737.547.547 0 0 0 0 1.095 2.737 2.737 0 0 1 2.737 2.737.547.547 0 0 0 1.095.002v-.002a2.737 2.737 0 0 1 2.737-2.737.547.547 0 1 0 0-1.095ZM28.972 23.083a.547.547 0 0 0-.474-.821 3.284 3.284 0 0 1-3.284-3.284.547.547 0 1 0-1.095-.002v.002a3.284 3.284 0 0 1-3.285 3.284.547.547 0 1 0-.001 1.095h.002a3.284 3.284 0 0 1 3.284 3.284.547.547 0 1 0 1.095.002v-.002a3.284 3.284 0 0 1 3.284-3.284.547.547 0 0 0 .474-.274ZM37.418 20.057a1.916 1.916 0 0 1-1.916-1.916.547.547 0 0 0-1.095 0 1.916 1.916 0 0 1-1.916 1.916.547.547 0 0 0 0 1.095 1.916 1.916 0 0 1 1.916 1.916.547.547 0 1 0 1.095.005v-.005a1.916 1.916 0 0 1 1.916-1.916.547.547 0 0 0 0-1.095Z"/><path d="M36.596 45.544a8.061 8.061 0 1 1 0-16.122 7.867 7.867 0 0 1 4.121 1.18l.143.09.765-.767 1.058 1.906 1.17.732-.484.503.188.339a8.07 8.07 0 0 1-6.961 12.139Z" fill="#fff"/><path d="M21.7 38.17H4.68V17.363h4.38v16.744a.989.989 0 0 0 .99.988h11.826a14.814 14.814 0 0 1 1.544-4.619h-9.81V9.67h34.54v9.397l1.978-1.978V.99A.989.989 0 0 0 49.138 0H12.62c-.023 0-.042.012-.065.013a.95.95 0 0 0-.6.253c-.011.011-.026.018-.038.03l-.005.003L9.34 2.94a.987.987 0 0 0-.28.69v4.064H3.69c-.021 0-.04.01-.06.012a.982.982 0 0 0-.27.054c-.028.01-.057.018-.085.032a.97.97 0 0 0-.296.2l-2.572 2.64a.986.986 0 0 0-.28.69v30.477a.989.989 0 0 0 .988.99h21.543a14.817 14.817 0 0 1-.957-4.619ZM13.61 1.977h34.539v5.714h-34.54ZM4.678 9.67h4.38v5.717H4.68Z"/><path d="m45.362 30.433-2.169 2.17a8.27 8.27 0 1 1-1.717-1.718l2.17-2.17-.092-.903a11.652 11.652 0 0 0-6.958-2.26 11.93 11.93 0 1 0 11.93 11.93 11.652 11.652 0 0 0-2.26-6.959Z" fill="#d15aa6"/><path d="m36.686 35.675 2.44-2.53a4.858 4.858 0 0 0-2.53-.724 5.061 5.061 0 1 0 5.06 5.061 5.184 5.184 0 0 0-.723-2.62l-2.53 2.53a1.716 1.716 0 0 1-1.717 1.717 1.717 1.717 0 0 1 0-3.434Z" fill="#d15aa6"/><path d="m44.458 28.987-7.953 7.953a.447.447 0 0 0 .633.633l7.953-7.953 1.807.18 3.073-3.072-2.35-.272-.27-2.35-3.073 3.073Z" fill="#d15aa6"/></svg>