<svg data-tags="Modern Marketing, Marketing, launchpad" xmlns="http://www.w3.org/2000/svg" viewBox="0 0 50 49.438"><path d="M32.48 8.556h12.694a1.483 1.483 0 1 0 0-2.966H32.48a1.483 1.483 0 1 0 0 2.966ZM17.79 8.53a1.458 1.458 0 1 0-1.459-1.457A1.458 1.458 0 0 0 17.79 8.53ZM22.206 8.53a1.458 1.458 0 1 0-1.458-1.457 1.458 1.458 0 0 0 1.458 1.458Z"/><circle cx="26.875" cy="7.073" r="1.458"/><path d="M36.583 25.282a2.737 2.737 0 0 1-2.737-2.737.547.547 0 0 0-1.095 0 2.737 2.737 0 0 1-2.737 2.737.547.547 0 0 0 0 1.094 2.737 2.737 0 0 1 2.737 2.737.547.547 0 0 0 1.095.002v-.002a2.737 2.737 0 0 1 2.737-2.737.547.547 0 0 0 0-1.094ZM29.858 21.983a.547.547 0 0 0-.474-.82 3.284 3.284 0 0 1-3.284-3.285.547.547 0 0 0-1.095-.001v.001a3.284 3.284 0 0 1-3.284 3.284.547.547 0 1 0-.002 1.095h.002a3.284 3.284 0 0 1 3.284 3.284.547.547 0 0 0 1.095.002v-.001a3.284 3.284 0 0 1 3.284-3.285.547.547 0 0 0 .474-.274ZM39.237 17.885a1.916 1.916 0 0 1-1.916-1.916.547.547 0 0 0-1.095 0 1.916 1.916 0 0 1-1.915 1.916.547.547 0 1 0 0 1.095 1.916 1.916 0 0 1 1.915 1.915.547.547 0 0 0 1.095.005v-.005a1.916 1.916 0 0 1 1.916-1.915.547.547 0 0 0 0-1.095Z"/><path d="M24.644 40.804a4.046 4.046 0 0 1-.148-.42H4.552V19.579h4.381v16.743a.989.989 0 0 0 .989.989h14.782a4.002 4.002 0 0 1 1.903-1.88l1.451-.675-.002-.004 3.131-1.454a7.365 7.365 0 0 0 1.05-.606H13.483V11.885h34.539v18.317a3.227 3.227 0 0 1 1.978.137V3.204a.989.989 0 0 0-.988-.99H12.494c-.024 0-.043.012-.066.014a.95.95 0 0 0-.599.253c-.012.01-.027.018-.039.03l-.005.003-2.571 2.64a.986.986 0 0 0-.28.69v4.063h-5.37c-.022 0-.04.011-.06.013a.982.982 0 0 0-.27.054c-.029.01-.058.018-.085.031a.972.972 0 0 0-.297.2L.28 12.847a.987.987 0 0 0-.28.69v30.477a.989.989 0 0 0 .988.989h25.607ZM13.483 4.193h34.54v5.713h-34.54Zm-8.93 7.692h4.38v5.716h-4.38Z"/><path d="m44.237 30.275.491-1.346a.516.516 0 1 0-.97-.354l-.491 1.346a.516.516 0 1 0 .97.354Zm-6.234-1.068-.346.948a10.172 10.172 0 0 1-5.266 5.734l-.539.25 1.98 4.257 1.979 4.257.538-.25a10.172 10.172 0 0 1 7.779-.33l.947.345a.846.846 0 0 0 1.057-1.15l-3.284-7.064-3.284-7.063a.846.846 0 0 0-1.561.066ZM27.81 38.021l3.106-1.444 3.958 8.514-3.105 1.444a1.188 1.188 0 0 1-1.579-.576l-2.956-6.36a1.188 1.188 0 0 1 .576-1.578Zm15.457-4.281a2.096 2.096 0 0 1 1.767 3.801l-.296.138a.16.16 0 0 1-.214-.078l-1.632-3.51a.16.16 0 0 1 .078-.213Zm-9.102 15.075a1.046 1.046 0 0 0 1.897-.882l-.916-1.839-1.897.882Zm13.115-15.198 1.3-.605a.516.516 0 0 1 .435.937l-1.3.604a.516.516 0 0 1-.435-.936Zm.335 5.664a.516.516 0 0 1 .662-.308l1.347.492a.516.516 0 0 1-.355.97l-1.346-.492a.516.516 0 0 1-.308-.662Z" fill="#6ac96e" fill-rule="evenodd"/></svg>