<svg data-tags="Modern Engagement, engagement, launchpad" xmlns="http://www.w3.org/2000/svg" viewBox="0 0 50 49.438"><path d="M32.497 6.412h12.694a1.483 1.483 0 1 0 0-2.966H32.497a1.483 1.483 0 0 0 0 2.966ZM17.806 6.386a1.458 1.458 0 1 0-1.458-1.458 1.458 1.458 0 0 0 1.458 1.458ZM22.223 6.386a1.458 1.458 0 1 0-1.458-1.458 1.458 1.458 0 0 0 1.458 1.458Z"/><circle cx="26.892" cy="4.928" r="1.458"/><path d="M36.6 23.137a2.737 2.737 0 0 1-2.737-2.737.547.547 0 0 0-1.095 0 2.737 2.737 0 0 1-2.737 2.737.547.547 0 0 0 0 1.095 2.737 2.737 0 0 1 2.737 2.737.547.547 0 0 0 1.095.002v-.002a2.737 2.737 0 0 1 2.737-2.737.547.547 0 1 0 0-1.095ZM29.875 19.84a.547.547 0 0 0-.474-.822 3.284 3.284 0 0 1-3.284-3.284.547.547 0 1 0-1.095-.002v.002a3.284 3.284 0 0 1-3.284 3.284.547.547 0 1 0-.002 1.095h.002a3.284 3.284 0 0 1 3.284 3.284.547.547 0 0 0 1.095.002v-.002a3.284 3.284 0 0 1 3.284-3.284.547.547 0 0 0 .474-.274ZM39.254 15.74a1.916 1.916 0 0 1-1.916-1.916.547.547 0 0 0-1.094 0 1.916 1.916 0 0 1-1.916 1.916.547.547 0 0 0 0 1.095 1.916 1.916 0 0 1 1.916 1.916.547.547 0 1 0 1.094.005v-.005a1.916 1.916 0 0 1 1.916-1.916.547.547 0 0 0 0-1.095Z"/><path d="M25.811 38.24H4.57V17.435H8.95v16.743a.989.989 0 0 0 .989.989h16a4.879 4.879 0 0 1 4.295-3.77 4.812 4.812 0 0 1 .179-.85H13.5V9.742h26.59l.005-.001h7.944v17.335h.034a4.889 4.889 0 0 1 1.944.404V1.059A.989.989 0 0 0 49.03.07H12.51c-.023 0-.043.012-.066.014a.948.948 0 0 0-.598.252c-.013.012-.028.018-.04.03l-.004.004L9.23 3.01a.987.987 0 0 0-.28.69v4.063H3.58c-.022 0-.04.01-.06.012a.983.983 0 0 0-.27.055c-.029.01-.057.018-.085.03a.979.979 0 0 0-.297.201l-2.571 2.64a.987.987 0 0 0-.28.69V41.87a.989.989 0 0 0 .987.989h24.806ZM13.5 2.048h34.54v5.714H13.5ZM4.57 9.741h4.38v5.716H4.57Z"/><path d="M35.104 30.075h12.97a1.888 1.888 0 0 1 1.9 1.874v8.118a1.846 1.846 0 0 1-.324 1.048 1.907 1.907 0 0 1-1.576.826H46.59V36.25a2.892 2.892 0 0 0-2.909-2.868H33.203V31.95a1.888 1.888 0 0 1 1.901-1.874Zm8.578 4.298a1.912 1.912 0 0 1 1.063.32 1.865 1.865 0 0 1 .838 1.554v8.119a1.888 1.888 0 0 1-1.901 1.874H34.87l-.725.993-1.381 1.893a.59.59 0 0 1-1.067-.339V46.24h-.986a1.888 1.888 0 0 1-1.9-1.874v-8.118a1.865 1.865 0 0 1 .837-1.554 1.912 1.912 0 0 1 1.063-.32h12.97Zm-10.48 3.534h-.3a.77.77 0 1 0 0 1.539h8.59a.77.77 0 1 0 0-1.539Zm3.215 4.804h-3.515a.775.775 0 0 1-.78-.77.761.761 0 0 1 .23-.544.783.783 0 0 1 .55-.224h3.515a.77.77 0 1 1 0 1.538Z" fill="#4daad3" fill-rule="evenodd"/></svg>