<svg xmlns="http://www.w3.org/2000/svg" data-tags="empty state" viewBox="0 0 200 93"><path d="M10.5 49h-1v2.5H7v1h2.5V55h1v-2.5H13v-1h-2.5zm187 16.5V63h-1v2.5H194v1h2.5V69h1v-2.5h2.5v-1zm-194-35a3 3 0 100 6 3 3 0 000-6zm0 5a2 2 0 110-4 2 2 0 010 4zm188 39a3 3 0 100 6 3 3 0 000-6zm0 5a2 2 0 110-4 2 2 0 010 4zm-132-37h81v-13h-81v13zm1-12h79v11h-79v-11zm8 28h63v-13h-63v13zm1-12h61v11h-61v-11z"/><path d="M87 61.5h4v1h-4zm14 12h4v1h-4zm-8 0h4v1h-4zm2-12h4v1h-4zm-10 12h4v1h-4zM79.5 72h-1v2.5H81v-1h-1.5zM79 61.5h4v1h-4zm-.5 2.5h1v4h-1zm43 3h1v4h-1zm-4.5 6.5h4v1h-4zm-6-12h4v1h-4zm8 1h2.5v.5h1v-1.5H119zm-16-1h4v1h-4zm6 12h4v1h-4zm-1.5 5.5h1v4h-1zm-14 9h-1v2.5H95v-1h-1.5zm5.5 1.5h4v1h-4zm8.5 0h-.5v1h1.5V87h-1zm-15-9.5h1v4h-1zm8.5-2.5h4v1h-4zm-8 0h4v1h-4z" opacity=".5"/></svg>