<svg xmlns="http://www.w3.org/2000/svg" viewBox="0 0 100 100" data-tags="preview"><path d="M1 18.206h76.565v13.85H1z" fill="#9e81eb" fill-opacity=".05" fill-rule="evenodd"/><path d="M77.565 32.056H1v-13.85h76.565zm-76.304-.261h76.043V18.468H1.26z" fill="#9e81eb"/><path d="M18.77 33.885h41.026v13.85H18.769z" fill="#40a3f5" fill-opacity=".05" fill-rule="evenodd"/><path d="M59.796 47.735H18.769v-13.85h41.027zm-40.765-.261h40.503V34.147H19.031z" fill="#40a3f5"/><path d="M28.7 49.303h21.688v13.85H28.7z" fill="#00cce1" fill-opacity=".05" fill-rule="evenodd"/><path d="M50.388 63.152H28.7v-13.85h21.69zm-21.427-.26h21.166V49.563H28.961z" fill="#00cce1"/><path d="M33.926 64.982H44.9v13.85H33.926z" fill="#cbd756" fill-opacity=".05" fill-rule="evenodd"/><path d="M44.9 78.831H33.927v-13.85H44.9zm-10.713-.261H44.64V65.243H34.187z" fill="#cbd756"/><path d="M86.476 24.06h.287l-.81 2.247h-.26l-.811-2.247h.287l.523 1.437a3.48 3.48 0 01.13.496 1.821 1.821 0 01.158-.496zm2.09 2.247l-.052-.235a.494.494 0 01-.261.209 1.123 1.123 0 01-.314.052.642.642 0 01-.392-.13.424.424 0 01-.13-.366c0-.34.261-.523.81-.523h.287v-.105a.42.42 0 00-.078-.287.4.4 0 00-.261-.105 1.287 1.287 0 00-.47.131l-.08-.183a1.092 1.092 0 01.262-.104 1.072 1.072 0 01.288-.026.692.692 0 01.444.13.514.514 0 01.157.418v1.124h-.21zm-.574-.183a.454.454 0 00.496-.496v-.157h-.261a.699.699 0 00-.444.104.265.265 0 00-.131.262.257.257 0 00.078.209.39.39 0 00.262.078zm2.064.183h-.261v-2.378h.261zm1.307-1.672v1.097a.417.417 0 00.104.314.357.357 0 00.288.104.459.459 0 00.392-.157.776.776 0 00.13-.47v-.888h.262v1.672h-.21l-.026-.235h-.026a.465.465 0 01-.209.183 1.103 1.103 0 01-.313.078.554.554 0 01-.628-.627v-1.098h.236zm2.9 1.698a.73.73 0 01-.575-.235.954.954 0 01-.209-.627 1.029 1.029 0 01.21-.653.726.726 0 011.045-.027.736.736 0 01.182.55v.182h-1.15a.575.575 0 00.158.444.532.532 0 00.392.157 1.365 1.365 0 00.548-.104v.235a.995.995 0 01-.261.078h-.34zm-.052-1.515a.433.433 0 00-.314.13.517.517 0 00-.13.366h.888a.51.51 0 00-.104-.366.497.497 0 00-.34-.13zM98 26.307h-.235v-1.96l-.079.079c-.026.026-.156.13-.365.287l-.131-.183.6-.47H98v2.247zM68.707 39.739h.287l-.81 2.247h-.261l-.81-2.247h.287l.523 1.437a3.48 3.48 0 01.13.496 1.821 1.821 0 01.157-.496zm2.09 2.247l-.052-.235a.494.494 0 01-.261.209 1.123 1.123 0 01-.314.052.642.642 0 01-.392-.13.424.424 0 01-.13-.366c0-.34.26-.523.81-.523h.287v-.105a.42.42 0 00-.079-.287.4.4 0 00-.26-.105 1.287 1.287 0 00-.471.131l-.079-.183a1.092 1.092 0 01.262-.104 1.072 1.072 0 01.287-.026.692.692 0 01.444.13.514.514 0 01.157.418v1.15h-.209v-.026zm-.575-.183a.454.454 0 00.497-.496v-.157h-.262a.699.699 0 00-.444.104.265.265 0 00-.13.262.257.257 0 00.078.209.39.39 0 00.261.078zm2.065.183h-.262v-2.378h.262zm1.306-1.672v1.097a.417.417 0 00.105.314.357.357 0 00.287.104.459.459 0 00.392-.157.776.776 0 00.13-.47v-.889h.262v1.673h-.209l-.026-.235h-.026a.465.465 0 01-.21.183 1.103 1.103 0 01-.313.078.554.554 0 01-.627-.627v-1.098h.235zm2.9 1.698a.73.73 0 01-.574-.235.954.954 0 01-.21-.627 1.029 1.029 0 01.21-.654.726.726 0 011.045-.026.736.736 0 01.183.55v.156h-1.15a.574.574 0 00.157.444.532.532 0 00.392.157 1.365 1.365 0 00.549-.105v.236a.996.996 0 01-.261.078c-.079 0-.21.026-.34.026zm-.051-1.516a.433.433 0 00-.314.131.517.517 0 00-.13.366h.888a.51.51 0 00-.105-.366.497.497 0 00-.34-.13zm4.311 1.49H79.29v-.21l.6-.6c.184-.183.288-.314.367-.392a.534.534 0 00.13-.235.763.763 0 00.053-.235.357.357 0 00-.105-.288.417.417 0 00-.313-.104.773.773 0 00-.262.052 1.064 1.064 0 00-.287.157l-.13-.183a.967.967 0 01.679-.262.753.753 0 01.496.157.538.538 0 01.183.444.867.867 0 01-.13.419 3.145 3.145 0 01-.445.522l-.496.47h1.15v.288h-.027zM59.3 55.156h.288l-.81 2.247h-.262l-.81-2.247h.288l.522 1.437a3.48 3.48 0 01.131.497 1.822 1.822 0 01.157-.497zm2.09 2.247l-.051-.235a.494.494 0 01-.262.21 1.123 1.123 0 01-.313.052.642.642 0 01-.392-.131.424.424 0 01-.131-.366c0-.34.261-.523.81-.523h.288v-.104a.42.42 0 00-.079-.287.4.4 0 00-.261-.105 1.287 1.287 0 00-.47.13l-.079-.182a1.092 1.092 0 01.261-.105 1.072 1.072 0 01.288-.026.692.692 0 01.444.13.514.514 0 01.157.419v1.15h-.21v-.026zm-.574-.182a.454.454 0 00.496-.497v-.157h-.26a.699.699 0 00-.445.105.265.265 0 00-.13.261.257.257 0 00.078.21.39.39 0 00.26.078zm2.064.182h-.261v-2.378h.261zm1.307-1.672v1.098a.417.417 0 00.104.313.357.357 0 00.288.105.459.459 0 00.392-.157.776.776 0 00.13-.47v-.889h.262v1.672h-.21l-.025-.235H65.1a.465.465 0 01-.21.183 1.103 1.103 0 01-.313.079.554.554 0 01-.627-.628v-1.097h.235v.026zm2.9 1.699a.73.73 0 01-.574-.236.954.954 0 01-.21-.627 1.029 1.029 0 01.21-.653.726.726 0 011.045-.026.736.736 0 01.183.549v.156h-1.15a.575.575 0 00.157.445.532.532 0 00.392.156 1.365 1.365 0 00.549-.104v.235a.996.996 0 01-.262.079c-.078 0-.209.026-.34.026zm-.052-1.516a.433.433 0 00-.313.13.517.517 0 00-.131.366h.888a.51.51 0 00-.104-.365.497.497 0 00-.34-.131zm4.234-.235a.497.497 0 01-.131.34.608.608 0 01-.34.182.557.557 0 01.392.183.567.567 0 01.13.366.67.67 0 01-.208.497.9.9 0 01-.627.183 1.077 1.077 0 01-.314-.027 1.985 1.985 0 01-.287-.104v-.235a1.473 1.473 0 00.313.104 1.272 1.272 0 00.314.026c.392 0 .575-.156.575-.444 0-.261-.21-.418-.627-.418h-.21v-.209h.236a.663.663 0 00.418-.105.373.373 0 00.157-.313.336.336 0 00-.105-.261.417.417 0 00-.314-.105 1.111 1.111 0 00-.287.052.785.785 0 00-.287.157l-.131-.183a1.948 1.948 0 01.314-.183.893.893 0 01.392-.052.707.707 0 01.496.157.513.513 0 01.13.392zM53.812 70.835h.287l-.81 2.247h-.261l-.81-2.247h.287l.523 1.437a3.481 3.481 0 01.13.497 1.822 1.822 0 01.157-.497zm2.09 2.247l-.052-.235a.494.494 0 01-.261.21 1.123 1.123 0 01-.314.052.642.642 0 01-.392-.131.424.424 0 01-.13-.366c0-.34.26-.523.81-.523h.287v-.104a.42.42 0 00-.078-.288.4.4 0 00-.262-.104 1.287 1.287 0 00-.47.13l-.078-.182a1.092 1.092 0 01.26-.105 1.072 1.072 0 01.288-.026.692.692 0 01.445.13.514.514 0 01.156.419v1.15h-.209v-.027zm-.575-.183a.454.454 0 00.497-.496v-.157h-.261a.699.699 0 00-.445.105.265.265 0 00-.13.261.257.257 0 00.078.21.39.39 0 00.261.077zm2.065.183h-.262v-2.378h.262zm1.306-1.672v1.098a.417.417 0 00.105.313.357.357 0 00.287.105.459.459 0 00.392-.157.776.776 0 00.13-.47v-.889h.262v1.672h-.209l-.026-.235h-.026a.465.465 0 01-.21.183 1.103 1.103 0 01-.313.079.554.554 0 01-.627-.628v-1.097h.235v.026zm2.9 1.699a.73.73 0 01-.574-.236.954.954 0 01-.21-.627 1.029 1.029 0 01.21-.653.726.726 0 011.045-.026.736.736 0 01.183.549v.156h-1.15a.575.575 0 00.157.445.532.532 0 00.392.156 1.365 1.365 0 00.549-.104v.235a.996.996 0 01-.261.078c-.079 0-.21.027-.34.027zm-.051-1.516a.433.433 0 00-.314.13.517.517 0 00-.13.366h.888a.51.51 0 00-.105-.365.497.497 0 00-.34-.131zm4.416.967h-.34v.522h-.235v-.522H64.29v-.21l1.072-1.515h.261v1.516h.34zm-.575-.235v-.732a3.332 3.332 0 01.026-.497c-.052.105-.104.183-.13.236l-.706.993z" fill="#a9a9b2"/></svg>