<svg xmlns="http://www.w3.org/2000/svg" data-tags="charts" viewBox="0 0 38 28"><path d="M4.33 5.07c1.4 0 2.54-1.14 2.54-2.54a2.54 2.54 0 00-5.08 0c0 1.4 1.14 2.54 2.54 2.54zm1.75.9H3.04c-.05 0-1.94.46-2.26 2.08L.42 11l8.29.02-.37-2.97C8.1 6.52 6.13 5.97 6.08 5.97zm12.69-.9c1.4 0 2.54-1.14 2.54-2.54a2.54 2.54 0 00-5.08 0c0 1.4 1.13 2.54 2.54 2.54zm1.75.9h-3.04c-.05 0-1.8.33-2.26 3.33L15 11.02l7.99-.01-.21-1.71c-.68-3-2.22-3.33-2.26-3.33zm12.91-.9c1.4 0 2.54-1.14 2.54-2.54a2.54 2.54 0 10-2.54 2.54zm3.79 5.7c-.85-4.74-2.22-4.8-2.26-4.8h-3.04c-.05 0-1.47.06-2.26 4.8l-.03.24 7.62-.01-.03-.23z" opacity=".5"/><path d="M8.83 11.95l-.12-.93L.42 11l-.12.95-.29 1.86s-.25 1.49 2.01 1.49l.85 10.51s.04 1.67 1.04 1.67h1.3c.95 0 1.04-1.67 1.04-1.67l.85-10.64c2.27 0 2.01-1.44 2.01-1.44l-.28-1.78zm14.43 1.19l-.27-2.13-7.99.01-.27 2.12-.29 1.91s-.25 1.55 2.02 1.55l.85 9.21s.04 1.67 1.04 1.67h1.3c.94 0 1.03-1.67 1.03-1.67l.85-9.33c2.27 0 2.02-1.5 2.02-1.5l-.29-1.84zm14.73 3.31l-.29-2.12-.45-3.33-7.62.01-.46 3.32-.29 2.19s-.25 1.82 2.02 1.82l.85 7.47s.04 1.67 1.04 1.67h1.3c.95 0 1.04-1.67 1.04-1.67l.85-7.59c2.26 0 2.01-1.77 2.01-1.77z"/></svg>