<svg xmlns="http://www.w3.org/2000/svg" data-tags="error state" viewBox="0 0 200 93"><path d="M10.5 49h-1v2.5H7v1h2.5V55h1v-2.5H13v-1h-2.5zm187 16.5V63h-1v2.5H194v1h2.5V69h1v-2.5h2.5v-1zm-194-35a3 3 0 100 6 3 3 0 000-6zm0 5a2 2 0 110-4 2 2 0 010 4zm188 39a3 3 0 100 6 3 3 0 000-6zm0 5a2 2 0 110-4 2 2 0 010 4zM79.36 35.98a5.36 5.36 0 100-10.73 5.36 5.36 0 000 10.73zm0-9.71a4.36 4.36 0 110 8.72 4.36 4.36 0 010-8.73zm8.67 22.77l-.94-7.48c-.5-3.23-4.5-4.4-4.82-4.4h-5.83c-.33 0-4.14 1.05-4.81 4.42l-.93 7.45-.55 3.55a2.84 2.84 0 00.64 2.16c.66.78 1.76 1.22 3.26 1.3l1.58 19.66c.03 1.36.59 3.68 2.49 3.68h2.5c1.8 0 2.4-2.3 2.47-3.65l1.6-19.95c1.52-.07 2.62-.5 3.28-1.29a2.68 2.68 0 00.6-2.04l-.54-3.4zm-.82 4.81c-.52.61-1.55.94-3 .94h-.45l-1.67 20.87c0 .03-.18 2.72-1.48 2.72h-2.5c-1.37 0-1.48-2.68-1.48-2.73l-1.66-20.6h-.46c-1.4 0-2.42-.33-2.95-.94s-.42-1.33-.42-1.37l.56-3.57.92-7.43c.55-2.79 3.87-3.59 3.83-3.59h5.74c.04 0 3.5.95 3.92 3.55l.93 7.48.55 3.44s.1.66-.38 1.23zm32.86-17.87a5.36 5.36 0 100-10.73 5.36 5.36 0 000 10.73zm0-9.71a4.36 4.36 0 110 8.72 4.36 4.36 0 010-8.73zm7.74 20.5c-1.64-9.15-4.3-9.62-4.83-9.62h-5.83c-.32 0-3.25.27-4.8 9.63l-1.5 11.02c0 .06-.2 1.58.84 2.77.68.78 1.72 1.21 3.08 1.29l1.56 13.84c.04 1.37.6 3.68 2.5 3.68h2.5c1.8 0 2.4-2.3 2.47-3.64l1.58-14.13c1.38-.08 2.43-.51 3.1-1.3 1-1.14.82-2.58.8-2.64l-1.47-10.9zm-.08 12.9c-.56.63-1.5.95-2.8.95h-.45l-1.67 15.04c0 .03-.2 2.72-1.49 2.72h-2.5c-1.37 0-1.48-2.68-1.49-2.75l-1.66-14.76h-.45c-1.28 0-2.21-.32-2.77-.96-.74-.83-.6-1.97-.6-1.98l1.48-11c1.41-8.47 3.82-8.77 3.83-8.78h5.8c.03 0 2.35.32 3.86 8.77l1.48 10.89s.12 1.07-.57 1.86z"/><g opacity=".5"><path d="M180 .5H20A2.5 2.5 0 0017.5 3v90h1V3c0-.82.67-1.5 1.5-1.5h160c.83 0 1.5.68 1.5 1.5v88h1V3A2.5 2.5 0 00180 .5z"/><path d="M45 89.5h112v1H45z"/></g><path fill-rule="evenodd" d="M97.4 26.45c1.43-2.36 3.77-2.36 5.2-.01l8.02 13.16 14.91 24.45c1.44 2.36.36 4.27-2.39 4.27H76.86c-2.76 0-3.83-1.9-2.39-4.27l22.93-37.6z" clip-rule="evenodd"/><g fill="#FFF" fill-rule="evenodd" clip-rule="evenodd"><path d="M125.96 63.8l-22.93-37.62c-.8-1.29-1.86-2-3.03-2-1.16 0-2.24.71-3.03 2L74.04 63.8c-.8 1.3-.93 2.56-.38 3.53.54.97 1.68 1.5 3.2 1.5h46.28c1.52 0 2.66-.53 3.2-1.5.55-.97.41-2.23-.38-3.53zm-.49 3.03c-.36.64-1.19 1-2.33 1H76.86c-1.14 0-1.97-.36-2.33-1-.36-.64-.23-1.54.37-2.52l22.92-37.6c.6-.99 1.38-1.53 2.18-1.53.8 0 1.57.54 2.17 1.52l22.93 37.61c.6.98.73 1.87.37 2.52z"/><path d="M98.84 57.32H102v3.14h-3.15zm0-17.29H102v14.15h-3.15z"/></g></svg>