<svg data-tags="404, generic error" xmlns="http://www.w3.org/2000/svg" viewBox="0 0 40 20"><defs><linearGradient id="genericError_a" x1="13.35" y1="9.083" x2="34.07" y2="9.083" gradientUnits="userSpaceOnUse"><stop offset=".534" stop-color="#7572ff"/><stop offset="1" stop-color="#9e27ff"/></linearGradient></defs><path d="M17.23 12.184a6.253 6.253 0 01-1-1.15 5.65 5.65 0 01-.9-2.38 4.656 4.656 0 01.33-2.33 2.747 2.747 0 01.2-.36 2.28 2.28 0 00-.95-.21 2.913 2.913 0 00-1.56.49v6.78h3.9c0-.01 0-.01.01-.02a.678.678 0 01.03-.08.044.044 0 01.01-.03 2.212 2.212 0 01.19-.32 1.06 1.06 0 01.09-.11c-.1-.08-.22-.17-.35-.28zm15.04-5.9a5.324 5.324 0 01-3.12.9c-2.35-.15-2.86-2.11-4.75-2.04-2.02.09-2.58 2.24-4.84 2.2a5.3 5.3 0 01-1.82-.48c.14.25.26.48.36.7.33.67.51 1.16.56 1.27.17.46.29.84.37 1.11l.06.22a2.318 2.318 0 01.07.25v.02c.01.03.02.05.03.08l.09.35c0 .15.01.31.01.47v.03c0 .02-.01.02-.01.03h.01v.01h.01a.142.142 0 01.06.02 52.03 52.03 0 00.1.04.55.55 0 00.36.04h.22a.715.715 0 00.16.01h.14a1.547 1.547 0 01.22.01c.05 0 .1.01.16.01.04 0 .08.01.13.01h.03a.22.22 0 01-.01-.08c0-.02-.01-.05 0-.07a.195.195 0 01-.01-.07 1.342 1.342 0 01-.01-.19v-.11a.06.06 0 00.01-.04c.02-.15.05-.29.09-.51 0-.01 0-.01.01-.02v-.01a1.574 1.574 0 01.05-.25v-.02c.01-.02.01-.03.02-.04.02-.1.05-.19.07-.26.06-.17.12-.35.19-.53a1.797 1.797 0 01.08-.21.04.04 0 01.02-.04c.03-.1.07-.2.11-.31.03-.08.07-.16.1-.23.1-.23.19-.44.29-.64a9.682 9.682 0 011.27-1.89 1.118 1.118 0 01.47-.34.502.502 0 01.33-.03c.17.05.25.22.3.3a3.019 3.019 0 01.21 1.56 12.903 12.903 0 01-.59 2.7c-.07.2-.13.38-.19.54-.03.09-.06.16-.09.24-.05.15-.1.28-.15.41-.03.06-.05.12-.07.17-.05.11-.09.21-.13.29 0 .01-.01.02-.01.03 0 .02-.01.03-.02.05a1.092 1.092 0 01-.08.15 1.318 1.318 0 01-.09.17c-.05.1-.1.17-.13.22a2.437 2.437 0 01-.22.29c-.07.1-.14.18-.19.24v.01h11.56v-6.72z" fill="url(#genericError_a)"/><path d="M21.063 17.093a.543.543 0 01-.368-.162.505.505 0 01-.242.118.755.755 0 01-.52-.051.412.412 0 00-.046-.031.394.394 0 01-.041-.027h-.035l-.012-.005-.004-.012.01-.11a.433.433 0 01.02-.064.267.267 0 00.011-.03.706.706 0 01.225-.287 1.022 1.022 0 01.345-.192 1.005 1.005 0 01.303-.06h.008a.907.907 0 00.698.04h.016a.502.502 0 01.239.113l.008.007a.523.523 0 01.179.343v.001a.433.433 0 01-.033.176l-.002.005a.294.294 0 01-.083.112.38.38 0 01-.434.008.166.166 0 01-.058.053.313.313 0 01-.184.055zm-.372-.194h.01l.01.004a.425.425 0 00.52.11.167.167 0 00.057-.057.015.015 0 01.02-.005.355.355 0 00.413.002.273.273 0 00.074-.101.414.414 0 00.03-.167.497.497 0 00-.168-.323l-.008-.007a.47.47 0 00-.221-.105h-.008a.944.944 0 01-.713-.04.96.96 0 00-.29.059.992.992 0 00-.337.187.663.663 0 00-.216.274.307.307 0 01-.01.03.52.52 0 00-.019.058l-.008.091h.024l.008.003a.475.475 0 00.043.029.4.4 0 01.047.031.736.736 0 00.497.048.47.47 0 00.234-.117zM22.51 13.03a.013.013 0 01-.013-.009l-.022-.047a2.481 2.481 0 00-.108-.202.015.015 0 01.001-.018 5.476 5.476 0 00.54-.718 5.127 5.127 0 00.428-.957 11.648 11.648 0 00.63-2.217 12.856 12.856 0 00.195-1.643l.004-.076v-.189a1.087 1.087 0 00-.078-.414.334.334 0 00-.164-.202.378.378 0 00-.167-.039 6.26 6.26 0 01-.11.107c-.043.04-.09.084-.135.13a3.863 3.863 0 00-.577.855l-.05.096a11.206 11.206 0 00-.649 1.453c-.022.08-.05.162-.079.248l-.03.091-.023.075a7.261 7.261 0 00-.347 1.78v.01l-.002.007a.586.586 0 00-.049.136 1.063 1.063 0 00.01.406v.006a.519.519 0 00-.02.101l-.01.058a.015.015 0 01-.015.011.057.057 0 01-.019-.004.053.053 0 00-.021-.005l-.007-.002-.058-.031a3.54 3.54 0 00-.091-.049 1.925 1.925 0 01-.197-.138.336.336 0 00-.208-.1h-.048a.095.095 0 00-.043.008l-.012.001a.102.102 0 00-.068.01h-.018a.015.015 0 01-.015-.01.238.238 0 01-.01-.084v-.05a.31.31 0 00-.01-.086 1.329 1.329 0 01-.01-.195v-.06a.29.29 0 00.01-.09c.014-.107.033-.207.056-.333l.035-.18a.025.025 0 01.008-.023v-.004a1.739 1.739 0 01.052-.254v-.016l.004-.01.008-.016.009-.02c.015-.078.037-.15.056-.214l.013-.044.04-.114c.047-.136.096-.276.15-.417a1.938 1.938 0 01.074-.195l.005-.013a.059.059 0 01.023-.047c.066-.183.137-.363.209-.536l.02-.047c.09-.209.176-.407.27-.594a9.817 9.817 0 011.272-1.892 1.124 1.124 0 01.476-.345.449.449 0 01.627.241l.022.035v.001a3.052 3.052 0 01.212 1.57 12.956 12.956 0 01-.591 2.702l-.053.151c-.048.14-.093.27-.137.39-.039.116-.078.222-.12.34-.04.11-.08.212-.12.31a1.114 1.114 0 00-.052.12.584.584 0 01-.02.05 3.319 3.319 0 01-.158.372l-.03.06a.386.386 0 00-.05.087 1.515 1.515 0 01-.086.165l-.005.008a1.767 1.767 0 01-.102.174l-.03.046c-.057.084-.121.166-.183.245l-.037.047c-.06.084-.118.155-.165.211l-.024.029a.015.015 0 01-.012.005zm-.111-.264c.043.074.077.14.103.195l.012.025.01-.01c.046-.056.105-.126.164-.21l.037-.048c.061-.079.125-.16.182-.242a.824.824 0 01.03-.046 1.937 1.937 0 00.1-.173l.006-.009a1.433 1.433 0 00.084-.16.367.367 0 01.05-.092l.03-.059a3.184 3.184 0 00.158-.368l.02-.05a1.282 1.282 0 01.052-.121 9.959 9.959 0 00.239-.648c.045-.12.09-.25.138-.39l.051-.15a12.96 12.96 0 00.591-2.698 3.027 3.027 0 00-.209-1.55c-.006-.01-.014-.022-.02-.035a.508.508 0 00-.27-.258.483.483 0 00-.322.03 1.105 1.105 0 00-.463.335 9.794 9.794 0 00-1.268 1.887c-.093.186-.178.383-.27.592l-.02.047c-.071.175-.142.356-.209.54l-.007.008c-.011.005-.012.015-.012.026l-.002.006-.006.016a1.69 1.69 0 00-.073.193c-.055.141-.104.282-.15.417l-.052.157c-.02.063-.041.135-.058.214l-.009.022a.063.063 0 01-.01.02v.016a1.506 1.506 0 00-.05.252v.007l-.005.011-.006.006v.006a9.43 9.43 0 01-.033.18c-.024.125-.043.225-.056.33a.284.284 0 01-.01.092v.056a1.485 1.485 0 00.009.188.295.295 0 01.01.091v.05a.26.26 0 00.006.064.11.11 0 01.079-.01.127.127 0 01.05-.008h.05a.365.365 0 01.226.106 1.84 1.84 0 00.192.135c.034.017.065.034.092.05l.054.028a.075.075 0 01.024.006l.006-.039a.557.557 0 01.02-.103 1.088 1.088 0 01-.008-.412.578.578 0 01.049-.14v-.006a7.341 7.341 0 01.348-1.79l.023-.075.031-.092c.03-.086.057-.166.08-.248a11.328 11.328 0 01.65-1.457l.05-.095a3.906 3.906 0 01.581-.864 7.81 7.81 0 01.136-.13c.042-.039.081-.076.115-.11l.011-.005a.41.41 0 01.187.042.357.357 0 01.178.22 1.084 1.084 0 01.081.423v.19l-.005.077a12.608 12.608 0 01-.196 1.646 11.596 11.596 0 01-.63 2.223 5.155 5.155 0 01-.431.963 5.657 5.657 0 01-.535.713z" fill="#0a0a14"/><path d="M24.18 6.954v.19a12.497 12.497 0 01-.2 1.72 11.668 11.668 0 01-.63 2.22 5.13 5.13 0 01-.43.96 5.586 5.586 0 01-.54.72 1.383 1.383 0 00-.13-.2.522.522 0 00-.08-.11.999.999 0 00-.09-.1.22.22 0 01-.04-.05 1.02 1.02 0 01-.04-.1l-.03-.06a.382.382 0 00-.08-.13v-.01a.134.134 0 00-.08-.07.458.458 0 00-.14-.07v-.01a1.103 1.103 0 01.03-.16 1.113 1.113 0 01-.01-.41.579.579 0 01.05-.14v-.01a7.494 7.494 0 01.37-1.86c.04-.12.08-.23.11-.34a6.516 6.516 0 01.61-.93 3.572 3.572 0 011.02-.89c.13-.07.24-.12.33-.16z" fill="#f2f2f4"/><path d="M22.38 12.78h-.001a.014.014 0 01-.012-.008l-.017-.03a1.075 1.075 0 00-.11-.167.5.5 0 00-.08-.11 1.104 1.104 0 00-.09-.1.291.291 0 01-.044-.053l-.023-.056a.943.943 0 00-.017-.046l-.029-.059a.406.406 0 00-.078-.127l-.004-.01v-.006a.116.116 0 00-.07-.06.462.462 0 00-.14-.069.017.017 0 01-.01-.015v-.01l.01-.058a.557.557 0 01.02-.103 1.088 1.088 0 01-.01-.413.578.578 0 01.05-.14v-.006a7.341 7.341 0 01.348-1.79l.023-.074.031-.092c.03-.086.057-.167.08-.248a6.468 6.468 0 01.611-.935 3.499 3.499 0 011.026-.894c.125-.067.232-.117.33-.16a.014.014 0 01.015 0 .016.016 0 01.007.013v.19l-.005.077a12.608 12.608 0 01-.196 1.646 11.596 11.596 0 01-.63 2.223 5.155 5.155 0 01-.431.962 5.596 5.596 0 01-.542.723zm-.474-.771a.401.401 0 01.08.131l.028.057.018.048a.5.5 0 00.022.053.225.225 0 00.037.045.935.935 0 01.09.102.51.51 0 01.083.112 1.131 1.131 0 01.112.17l.006.011a5.445 5.445 0 00.525-.702 5.127 5.127 0 00.429-.957 11.648 11.648 0 00.63-2.217 12.856 12.856 0 00.195-1.643l.004-.076v-.165a4.537 4.537 0 00-.308.15 3.46 3.46 0 00-1.015.886 6.413 6.413 0 00-.608.928 4.24 4.24 0 01-.078.246l-.03.091-.023.075a7.261 7.261 0 00-.347 1.78v.01l-.002.007a.586.586 0 00-.049.136 1.063 1.063 0 00.01.406v.006a.519.519 0 00-.02.101c-.004.018-.005.036-.01.054a.453.453 0 01.134.068.146.146 0 01.085.076l.002.007zm-.22-.145z" fill="#0a0a14"/><path d="M23.32 16.664a1.192 1.192 0 00-.06-.29 2.03 2.03 0 00-.25-.51c-.04-.06-.09-.12-.13-.17a2.046 2.046 0 00.2-.75v-.17c-.01-.09-.02-.18-.03-.25v-.01a.238.238 0 00-.02-.09.127.127 0 00-.01-.06c-.01-.04-.02-.08-.03-.11v-.02a.822.822 0 00-.05-.14 1.85 1.85 0 00-.09-.23 1.218 1.218 0 00-.07-.17c-.02-.06-.05-.13-.09-.22a2.996 2.996 0 00-.18-.45v-.01c-.03-.06-.07-.15-.13-.25a1.383 1.383 0 00-.13-.2.522.522 0 00-.08-.11.999.999 0 00-.09-.1.22.22 0 01-.04-.05 1.02 1.02 0 01-.04-.1l-.03-.06c-.02-.03-.05-.08-.08-.13a.606.606 0 00-.08-.08.458.458 0 00-.14-.07c-.01-.01-.02-.01-.04-.02-.04-.02-.09-.05-.15-.08-.22-.13-.26-.22-.41-.24h-.05a.109.109 0 00-.05.01.106.106 0 00-.08.01h-.04a1.112 1.112 0 01-.17.02h-.01c-.05 0-.09.01-.14.01-.07 0-.14.01-.21.01h-.06a.579.579 0 01-.15-.01 1.013 1.013 0 00-.26-.01 4.038 4.038 0 00-.51.07c-.02 0-.03.01-.04.01-.04.01-.08.01-.11.02-.09.01-.16.02-.22.03h-.01a.604.604 0 00-.29.02.48.48 0 00-.16.07c-.01 0-.01.01-.02.01-.21.12-.31.18-.41.25a4.314 4.314 0 00-.4.32.9.9 0 00-.09.1h-.01a1.06 1.06 0 00-.09.11 1.73 1.73 0 00-.18.32c-.01.01-.01.02-.02.03a.678.678 0 00-.03.08c-.01.01-.01.01-.01.02a.143.143 0 00-.02.07v.02a.302.302 0 00.03.09c.03.09-.09.2-.18.35a2.329 2.329 0 00-.11.31 3.496 3.496 0 00-.09.43 4.246 4.246 0 00-.02.66 1.221 1.221 0 00.11.34 1.054 1.054 0 00.22.33 1.692 1.692 0 00-.28.37 1.754 1.754 0 00-.2.68c.5.08 1.05.15 1.64.19a.606.606 0 010-.3.702.702 0 01.54-.45.712.712 0 00.18.08 1.002 1.002 0 00.7 0l.01-.01a.338.338 0 00.12-.06.187.187 0 00.07-.06.911.911 0 00.3-.66.924.924 0 00.25.65 1.058 1.058 0 00.12.1.25.25 0 00.07.04.94.94 0 00.71.04h.01a.493.493 0 01.23.11.518.518 0 01.18.34.455.455 0 01-.03.17c.54-.05 1.05-.11 1.51-.19zm-4.23-2.99a.425.425 0 010-.85.583.583 0 01.18.04.09.09 0 00-.03.07.103.103 0 00.11.1.091.091 0 00.08-.04.452.452 0 01.09.26.425.425 0 01-.43.42zm1.24 1.56a.09.09 0 01-.05.01.57.57 0 00-.01.13.573.573 0 00-.01-.13.724.724 0 01-.63-.57.587.587 0 010-.23 1.531 1.531 0 01.6-.13 1.685 1.685 0 01.6.11.902.902 0 01.01.24.657.657 0 01-.51.57zm.71-1.56a.425.425 0 010-.85.413.413 0 01.19.05.142.142 0 00-.02.06.103.103 0 00.11.1.091.091 0 00.07-.03.438.438 0 01.08.25.425.425 0 01-.43.42z" fill="#f2f2f4" stroke="#0a0a14" stroke-linecap="round" stroke-linejoin="round" stroke-width=".031"/><path d="M7.032 11.67H4.784a.015.015 0 01-.012-.024l2.248-3.09c.004-.007.008-.007.017-.006a.016.016 0 01.01.015v3.09a.015.015 0 01-.015.015zm-2.217-.03h2.202V8.611zm4.527-2.58H8.274a.015.015 0 01-.015-.016v-2.76a.015.015 0 01.015-.016h1.068a.015.015 0 01.015.015v2.761a.015.015 0 01-.015.015zM8.29 9.028h1.036v-2.73H8.29z" fill="#0a0a14"/><path d="M9.341 11.7V9.044H8.274v-2.76h1.067V4.01h-2.63L1.241 11.95v1.868H7.05v2.586H9.34v-2.586h1.177V11.7zm-2.308-.045H4.014L7.033 7.27z" fill="#f2f2f4"/><path d="M9.342 16.418H7.049a.015.015 0 01-.016-.015v-2.571h-5.79a.015.015 0 01-.016-.015v-1.868l.003-.008 5.467-7.938a.016.016 0 01.013-.007h2.632a.015.015 0 01.015.015v2.272a.015.015 0 01-.015.016H8.29v2.73h1.052a.015.015 0 01.015.015v2.64h1.162a.015.015 0 01.015.016v2.117a.015.015 0 01-.015.015H9.357v2.57a.015.015 0 01-.015.016zm-2.277-.03h2.261v-2.571a.015.015 0 01.016-.016h1.161v-2.086H9.342a.015.015 0 01-.016-.015V9.06H8.274a.015.015 0 01-.015-.016v-2.76a.015.015 0 01.015-.016h1.052V4.027H6.718l-5.46 7.927v1.847h5.79a.015.015 0 01.016.016zm-.033-4.718H4.014A.016.016 0 014 11.662a.016.016 0 01.001-.016L7.02 7.262a.013.013 0 01.017-.006.016.016 0 01.01.015v4.383a.015.015 0 01-.015.016zm-2.989-.03h2.974V7.32z" fill="#0a0a14"/><path fill="#050505" d="M7.033 7.271v1.294l-2.249 3.09h-.77l3.019-4.384z"/><path d="M4.784 11.67h-.77A.016.016 0 014 11.662a.016.016 0 01.001-.016L7.02 7.262a.013.013 0 01.017-.006.016.016 0 01.01.015v1.294l-.002.009-2.248 3.09a.016.016 0 01-.013.006zm-.741-.03h.733l2.24-3.08V7.32z" fill="#0a0a14"/><path d="M7.032 11.67H4.784a.015.015 0 01-.012-.024l2.248-3.09c.004-.007.008-.007.017-.006a.016.016 0 01.01.015v3.09a.015.015 0 01-.015.015zm-2.217-.03h2.202V8.611z" fill="#0a0a14"/><path fill="#050505" d="M7.049 13.817v.661H1.903l-.661-.661h5.807z"/><path d="M7.049 14.493H1.903l-.01-.005-.661-.66a.013.013 0 01-.003-.017.014.014 0 01.013-.01H7.05a.015.015 0 01.016.016v.66a.015.015 0 01-.016.016zm-5.14-.03h5.124v-.631H1.28z" fill="#0a0a14"/><path fill="#050505" d="M11.181 14.478l-1.182-.005-.658-.656h1.177l.663.661z"/><path d="M11.18 14.493L10 14.488l-.012-.004-.657-.657a.013.013 0 01-.003-.016.014.014 0 01.014-.01h1.177l.01.005.662.661a.013.013 0 01.003.017.014.014 0 01-.013.009zm-1.174-.035l1.138.004-.631-.63H9.379z" fill="#0a0a14"/><path fill="#050505" d="M9.999 14.473v2.587l-.658-.657v-2.586l.658.656z"/><path d="M10 17.075l-.012-.004-.657-.658-.005-.01v-2.586a.015.015 0 01.01-.015c.005-.003.012 0 .017.004l.657.656.005.01v2.588a.015.015 0 01-.01.014zm-.643-.679l.626.627V14.48l-.626-.626z" fill="#0a0a14"/><path fill="#050505" d="M9.999 17.06H7.705l-.656-.657h2.292l.658.657z"/><path d="M10 17.075H7.704l-.01-.004-.657-.658a.013.013 0 01-.003-.016.014.014 0 01.014-.01h2.293l.01.005.658.658a.013.013 0 01.003.016.014.014 0 01-.014.01zm-2.289-.03h2.251l-.626-.627h-2.25z" fill="#0a0a14"/><path fill="#050505" d="M11.193 12.332l-.012 2.146-.663-.661V11.7l.675.632z"/><path d="M11.18 14.493l-.01-.005-.662-.66-.005-.011V11.7a.016.016 0 01.01-.014.016.016 0 01.016.003l.675.631a.016.016 0 01.005.012l-.013 2.146a.015.015 0 01-.01.014zm-.646-.683l.632.631.012-2.102-.644-.604z" fill="#0a0a14"/><path fill="#050505" d="M9.999 4.669V11.7h-.658V4.011l.658.658z"/><path d="M10 11.715h-.658a.015.015 0 01-.016-.015V4.01a.015.015 0 01.01-.014.014.014 0 01.017.004l.657.657.005.01V11.7a.015.015 0 01-.016.015zm-.643-.03h.626v-7.01l-.626-.626zM33.211 11.67h-2.25a.015.015 0 01-.013-.024l2.25-3.09a.014.014 0 01.018-.006.016.016 0 01.01.015v3.09a.015.015 0 01-.015.015zm-2.22-.03h2.204V8.611zm4.528-7.612l-.01-.005a.016.016 0 01-.004-.017.015.015 0 01.014-.01.015.015 0 01.016.015.016.016 0 01-.01.015z" fill="#0a0a14"/><path d="M35.52 11.7V4.012H32.89l-5.47 7.937v1.868h5.807v2.586h2.294v-2.586h1.176V11.7zm-2.309-.045h-3.02l3.02-4.384z" fill="#f2f2f4"/><path d="M35.52 16.418h-2.294a.015.015 0 01-.016-.015v-2.571h-5.79a.015.015 0 01-.016-.015v-1.868l.003-.008 5.47-7.938a.016.016 0 01.012-.007h2.63l.01.005.006.011v7.673h1.16a.015.015 0 01.016.015v2.117a.015.015 0 01-.016.015h-1.16v2.57a.015.015 0 01-.015.016zm-2.279-.03h2.263v-2.571a.015.015 0 01.016-.016h1.16v-2.086h-1.16a.015.015 0 01-.016-.015V4.027h-2.607l-5.461 7.927v1.847h5.79a.015.015 0 01.015.016zm-.03-4.718h-3.02a.016.016 0 01-.013-.008.016.016 0 010-.016l3.02-4.384a.014.014 0 01.018-.006.016.016 0 01.01.015v4.383a.015.015 0 01-.015.016zm-2.99-.03h2.974V7.32z" fill="#0a0a14"/><path fill="#050505" d="M33.211 7.271v1.294l-2.25 3.09h-.77l3.02-4.384z"/><path d="M30.961 11.67h-.77a.016.016 0 01-.013-.008.016.016 0 010-.016l3.02-4.384a.014.014 0 01.018-.006.016.016 0 01.01.015v1.294l-.002.009-2.25 3.09a.015.015 0 01-.013.006zm-.74-.03h.732l2.242-3.08V7.32z" fill="#0a0a14"/><path d="M33.211 11.67h-2.25a.015.015 0 01-.013-.024l2.25-3.09a.014.014 0 01.018-.006.016.016 0 01.01.015v3.09a.015.015 0 01-.015.015zm-2.22-.03h2.204V8.611z" fill="#0a0a14"/><path fill="#050505" d="M33.226 13.817v.661h-5.144l-.662-.661h5.806z"/><path d="M33.226 14.493h-5.144l-.01-.005-.663-.66a.013.013 0 01-.003-.017.014.014 0 01.014-.01h5.806a.015.015 0 01.015.016v.66a.015.015 0 01-.015.016zm-5.138-.03h5.122v-.631h-5.753z" fill="#0a0a14"/><path fill="#050505" d="M37.358 14.478l-1.182-.005-.656-.656h1.176l.662.661z"/><path d="M37.358 14.493l-1.181-.005-.01-.004-.658-.657a.013.013 0 01-.003-.016.014.014 0 01.014-.01h1.175l.011.005.663.661a.013.013 0 01.003.017.014.014 0 01-.014.009zm-1.174-.035l1.137.004-.631-.63h-1.133z" fill="#0a0a14"/><path fill="#050505" d="M36.176 14.473v2.587l-.657-.657h.001v-2.586l.656.656z"/><path d="M36.177 17.075l-.01-.004-.66-.658a.017.017 0 01-.003-.016v-2.58a.015.015 0 01.01-.015c.006-.003.011 0 .016.004l.658.656.004.01v2.588a.015.015 0 01-.01.014zm-.642-.678l.626.627v-2.545l-.626-.626z" fill="#0a0a14"/><path fill="#050505" d="M36.176 17.06h-2.294l-.656-.657h2.293l.657.657z"/><path d="M36.177 17.075h-2.295l-.01-.004-.657-.658a.013.013 0 01-.003-.016.014.014 0 01.014-.01h2.293l.01.005.659.657a.013.013 0 01.003.017.014.014 0 01-.014.01zm-2.29-.03h2.253l-.627-.627h-2.25z" fill="#0a0a14"/><path fill="#050505" d="M37.372 12.332l-.014 2.146-.662-.661V11.7l.676.632z"/><path d="M37.358 14.493l-.01-.005-.663-.66-.005-.011V11.7a.016.016 0 01.01-.014.016.016 0 01.016.003l.676.631a.016.016 0 01.005.012l-.013 2.146a.015.015 0 01-.01.014zm-.647-.683l.633.631.012-2.103-.645-.603z" fill="#0a0a14"/><path fill="#050505" d="M36.176 4.669V11.7h-.656V4.012l.656.657z"/><path d="M36.177 11.715h-.657a.015.015 0 01-.016-.015V4.012a.015.015 0 01.01-.014c.006-.004.011 0 .016.004l.658.656.004.01V11.7a.015.015 0 01-.015.015zm-.642-.03h.626v-7.01l-.626-.626zM1.155 5.36a.016.016 0 01-.015-.013l-.118-.908a.09.09 0 00-.069-.08l-.787-.136a.015.015 0 010-.03l.787-.137a.091.091 0 00.07-.08l.117-.908a.016.016 0 01.031 0l.118.908a.088.088 0 00.068.08l.788.137a.015.015 0 010 .03l-.788.136a.088.088 0 00-.068.08l-.118.908a.016.016 0 01-.016.014zM.26 4.209l.7.12a.12.12 0 01.093.107l.103.792.103-.792a.12.12 0 01.094-.106l.7-.121-.7-.122a.12.12 0 01-.094-.106l-.103-.792-.102.792a.121.121 0 01-.094.106zM39.45 16.172a.015.015 0 01-.016-.013l-.066-.507a.042.042 0 00-.032-.039l-.44-.076a.015.015 0 010-.03l.44-.076a.045.045 0 00.033-.04l.065-.506c.002-.016.027-.016.03 0l.067.507a.042.042 0 00.033.039l.439.076a.015.015 0 010 .03l-.44.076a.04.04 0 00-.032.039l-.066.507a.016.016 0 01-.016.013zm-.46-.65l.352.061a.074.074 0 01.056.065l.051.39.051-.39a.072.072 0 01.058-.065l.352-.06-.352-.062a.075.075 0 01-.058-.066l-.05-.39-.05.39a.076.076 0 01-.058.066z" fill="#0a0a14"/><path d="M20.83 14.424a1.685 1.685 0 00-.6-.11 1.531 1.531 0 00-.6.13.587.587 0 000 .23.724.724 0 00.63.57h.02a.09.09 0 00.05-.01.657.657 0 00.51-.57.902.902 0 00-.01-.24zm-.63.21c-.09 0-.16-.03-.16-.07 0-.03.07-.06.16-.06s.16.03.16.06c0 .04-.07.07-.16.07zm.3-.03a.046.046 0 01-.05-.04.05.05 0 11.1 0 .046.046 0 01-.05.04z" fill="#050505" stroke="#0a0a14" stroke-linecap="round" stroke-linejoin="round" stroke-width=".031"/><path d="M20.201 14.648c-.097 0-.172-.034-.172-.08s.075-.081.172-.081.172.035.172.081-.074.08-.172.08zm0-.13c-.087 0-.14.029-.14.05 0 .02.054.05.14.05s.14-.03.14-.05c0-.02-.053-.05-.14-.05zM20.501 14.623a.06.06 0 110-.119.06.06 0 110 .119zm0-.089a.033.033 0 00-.036.03.033.033 0 00.036.028.03.03 0 100-.058zM20.314 11.676a.015.015 0 01-.013-.006 1.173 1.173 0 00-.225-.25.015.015 0 01-.002-.021.015.015 0 01.022-.002 1.155 1.155 0 01.127.121 1.197 1.197 0 01.103.135.015.015 0 01-.004.021zM20.143 11.62l-.012-.005a.938.938 0 00-.152-.143.968.968 0 00-.162-.097.015.015 0 01-.006-.02c.004-.009.008-.011.02-.008a.885.885 0 01.165.1.945.945 0 01.158.149.015.015 0 01-.002.021zM20.014 11.57l-.01-.003a.981.981 0 00-.228-.114.969.969 0 00-.199-.047.015.015 0 01.002-.03h.002a1.025 1.025 0 01.205.048 1.049 1.049 0 01.237.118.015.015 0 01.003.02.015.015 0 01-.012.008zM19.339 11.651l-.006-.001-.017-.007-.048-.019c-.027-.01-.05-.02-.072-.03l-.008-.004a2.396 2.396 0 01-.092-.043.015.015 0 01-.007-.02.017.017 0 01.02-.008l.09.043.01.004c.02.009.044.02.07.03a.772.772 0 00.047.018l.019.008a.015.015 0 01.009.02.016.016 0 01-.015.01zM19.228 11.698l-.01-.003a.598.598 0 00-.121-.062.637.637 0 00-.268-.042.016.016 0 01-.016-.014.016.016 0 01.014-.016.66.66 0 01.281.044.687.687 0 01.128.065.015.015 0 01.004.021.015.015 0 01-.012.007zM17.121 13.185a.017.017 0 01-.014-.009.016.016 0 01.008-.02.664.664 0 00.207-.132.615.615 0 00.088-.1.016.016 0 01.022-.004.016.016 0 01.004.021.7.7 0 01-.309.243zM17.288 15.746l-.01-.004a1.4 1.4 0 01-.103-.105.016.016 0 01.002-.022.015.015 0 01.021.001 1.059 1.059 0 00.1.103.016.016 0 01.002.022zM17.08 13.57l-.006-.001a.016.016 0 01-.009-.02 1.6 1.6 0 01.184-.354.014.014 0 01.02-.003.015.015 0 01.004.022 1.538 1.538 0 00-.178.346.017.017 0 01-.015.01zM17.398 15.92h-.003a.015.015 0 01-.012-.019.466.466 0 00.006-.156.457.457 0 00-.032-.112.016.016 0 01.01-.02.016.016 0 01.02.008.496.496 0 01.032.12.474.474 0 01-.007.166.015.015 0 01-.014.012zM17.52 15.9h-.004a.015.015 0 01-.011-.019.216.216 0 00.006-.079.246.246 0 00-.036-.108.014.014 0 01.005-.022.014.014 0 01.02.005.28.28 0 01.042.122.272.272 0 01-.008.089.015.015 0 01-.014.012zM20.518 11.612h-.005a.016.016 0 01-.01-.019.293.293 0 01.088-.137.278.278 0 01.073-.048.016.016 0 01.02.008.015.015 0 01-.008.02.262.262 0 00-.066.042.268.268 0 00-.078.124.015.015 0 01-.014.01zM20.68 11.58l-.006-.002a.015.015 0 01-.007-.02.06.06 0 01.033-.029l.01-.006a.086.086 0 01.019-.012l.01-.007.004-.003a.601.601 0 01.123-.051.14.14 0 01.065-.02.015.015 0 110 .03.133.133 0 00-.054.018.591.591 0 00-.118.049.058.058 0 01-.017.011l-.01.007a.065.065 0 01-.02.012.032.032 0 00-.018.014.015.015 0 01-.013.009z" fill="#0a0a14"/><path d="M20.63 11.61l-.012-.005a.016.016 0 01.001-.022l.022-.015.018-.014a.015.015 0 01.022.021.163.163 0 01-.024.018l-.016.013zM20.85 11.57a.015.015 0 110-.03l.008-.004a.046.046 0 01.022-.007.014.014 0 01.015.015.014.014 0 01-.015.016l-.008.003a.046.046 0 01-.021.007zM22.308 12.339l-.007-.001a.384.384 0 00-.235-.034.017.017 0 01-.018-.015c0-.009.004-.015.013-.015a.398.398 0 01.104-.005.428.428 0 01.15.041.015.015 0 01.006.02.015.015 0 01-.013.009zM22.467 12.503l-.01-.003a.599.599 0 00-.236-.111.55.55 0 00-.146-.015.016.016 0 01-.015-.015.015.015 0 01.015-.016h.014a.637.637 0 01.138.016.66.66 0 01.25.116.015.015 0 01.002.022.014.014 0 01-.012.006zM22.849 15.778h-.006a.015.015 0 01-.008-.021.413.413 0 01.016-.033l.017-.037a.014.014 0 01.02-.009.015.015 0 01.008.02c-.005.014-.012.026-.018.04l-.016.032a.015.015 0 01-.013.008zM22.626 16.357a.014.014 0 01-.014-.01.015.015 0 01.008-.02.484.484 0 00.176-.125.47.47 0 00.081-.132.016.016 0 01.02-.008.015.015 0 01.008.02.503.503 0 01-.086.14.515.515 0 01-.187.134zM22.752 16.392a.014.014 0 01-.014-.009.015.015 0 01.007-.02.281.281 0 00.114-.095.288.288 0 00.05-.126.015.015 0 01.017-.013.014.014 0 01.013.017.313.313 0 01-.18.245zM22.856 16.44a.014.014 0 01-.014-.009.015.015 0 01.008-.02.233.233 0 00.103-.09.203.203 0 00.03-.091.016.016 0 01.015-.014H23a.016.016 0 01.015.017.25.25 0 01-.035.103.254.254 0 01-.118.104zM18.89 16.13l-.005-.001a.916.916 0 01-.326-.234.778.778 0 01-.162-.244.417.417 0 01-.042-.197.183.183 0 01-.002-.07l.002-.03v-.01a.621.621 0 01.1-.275l.012-.022a.017.017 0 01.021-.006.016.016 0 01.006.021l-.013.022a.585.585 0 00-.095.261v.01a.199.199 0 01-.003.032.162.162 0 00.002.062.396.396 0 00.039.188.735.735 0 00.157.237.886.886 0 00.316.226.015.015 0 01.007.02.014.014 0 01-.013.01z" fill="#0a0a14"/><path d="M20.27 15.374a.573.573 0 00-.01-.13h.02a.57.57 0 00-.01.13z" fill="#050505"/><path d="M20.27 15.39a.015.015 0 01-.015-.016.61.61 0 00-.009-.126.015.015 0 01.003-.013.014.014 0 01.012-.006h.02a.014.014 0 01.011.006.015.015 0 01.003.013.61.61 0 00-.009.126.015.015 0 01-.015.015z" fill="#0a0a14"/><path d="M20.52 16.054a.5.5 0 01-.29.09.663.663 0 01-.26-.08.911.911 0 00.3-.66.924.924 0 00.25.65z" fill="#050505"/><path d="M20.23 16.16a.668.668 0 01-.267-.082.018.018 0 01-.008-.012.017.017 0 01.006-.013.893.893 0 00.294-.649.016.016 0 01.016-.015.015.015 0 01.015.015.903.903 0 00.245.64.017.017 0 01.005.012l-.007.011a.52.52 0 01-.298.092zm-.233-.098a.664.664 0 00.235.067.493.493 0 00.265-.077.895.895 0 01-.23-.487.899.899 0 01-.27.497zM21.43 16.25l-.01-.004a.016.016 0 010-.022.05.05 0 01.04-.015 1.214 1.214 0 00.484-.3v-.005a.015.015 0 01.02-.014.567.567 0 00.151-.24.805.805 0 00.04-.168.33.33 0 00-.01-.093.637.637 0 00-.107-.296.015.015 0 01.004-.021.015.015 0 01.021.004.663.663 0 01.113.307.315.315 0 01.01.101.835.835 0 01-.042.176.596.596 0 01-.163.255l-.008.008-.002.001a1.23 1.23 0 01-.506.315c-.014 0-.019 0-.024.006zM18.87 15.432a2.019 2.019 0 01-.778-.155 1.985 1.985 0 01-.655-.443.015.015 0 01.021-.022 1.968 1.968 0 00.646.437 1.994 1.994 0 00.967.142.015.015 0 01.018.014.016.016 0 01-.014.017 1.983 1.983 0 01-.205.01zM17.691 15.938a.015.015 0 01-.007-.028 2.547 2.547 0 011.25-.332.015.015 0 110 .03 2.513 2.513 0 00-1.235.328zM18.07 16.23l-.01-.003a.015.015 0 01-.002-.022 1.082 1.082 0 01.824-.383.015.015 0 110 .03 1.053 1.053 0 00-.8.373z" fill="#0a0a14"/><path d="M21.907 15.418a1.922 1.922 0 01-.304-.025.015.015 0 01-.013-.018.014.014 0 01.015-.013h.002a1.67 1.67 0 00.905-.09 1.462 1.462 0 00.204-.099.015.015 0 01.02.005.015.015 0 01-.004.021 1.574 1.574 0 01-.208.102 1.648 1.648 0 01-.617.117zM22.47 15.79l-.007-.002a1.278 1.278 0 00-.454-.137 1.151 1.151 0 00-.307.005.014.014 0 01-.016-.013.014.014 0 01.012-.017 1.228 1.228 0 01.315-.005 1.297 1.297 0 01.464.14.015.015 0 01-.007.029zM22.212 16.23a.015.015 0 01-.015-.01.495.495 0 00-.163-.242.502.502 0 00-.375-.102.014.014 0 01-.016-.013.014.014 0 01.012-.017.536.536 0 01.399.108.52.52 0 01.173.257.015.015 0 01-.01.019zM20.88 11.47a.015.015 0 01-.015-.01.368.368 0 01-.01-.068c-.003-.02-.005-.043-.01-.065a.015.015 0 01.013-.018.016.016 0 01.017.012c.005.023.007.046.01.067a.355.355 0 00.01.061.015.015 0 01-.01.02zM20.85 11.09a.015.015 0 01-.015-.016v-.05c0-.118 0-.24.01-.351a.016.016 0 01.015-.014h.001a.016.016 0 01.015.017c-.01.109-.01.231-.01.349v.05a.015.015 0 01-.015.015zM20.96 10.46a.015.015 0 01-.015-.012.294.294 0 01-.003-.093l.002-.04a.565.565 0 01.012-.144c.003-.008.01-.015.019-.011a.015.015 0 01.01.018.585.585 0 00-.01.137.328.328 0 01-.002.042.298.298 0 00.002.084.015.015 0 01-.011.018z" fill="#0a0a14"/><path d="M20.95 10.72a.015.015 0 01-.015-.016 2.27 2.27 0 01.01-.251.015.015 0 01.017-.014.016.016 0 01.014.017 2.218 2.218 0 00-.01.248.015.015 0 01-.016.015zM21.03 10.438a.016.016 0 01-.016-.014 2.083 2.083 0 01-.004-.486c.003-.03.008-.06.013-.09a.015.015 0 01.017-.012.015.015 0 01.012.018 1.217 1.217 0 00-.01.087 1.924 1.924 0 00.003.48.016.016 0 01-.016.017zM23.05 12.277l-.006-.001a.013.013 0 01-.006-.02l.002-.003a2.55 2.55 0 00.167-.314 3.405 3.405 0 00.157-.366l.016.001.015.006a3.3 3.3 0 01-.16.372 2.59 2.59 0 01-.169.316.02.02 0 01-.015.009zM23.45 11.42l-.006-.001a.016.016 0 01-.008-.02 12.741 12.741 0 00.24-.649c.002-.008.009-.013.02-.01a.016.016 0 01.01.02c-.04.116-.079.222-.121.34-.04.11-.081.212-.12.31a.017.017 0 01-.015.01zM21.29 9.36h-.004a.015.015 0 01-.01-.02 1.867 1.867 0 01.074-.196l.007-.015a.015.015 0 01.02-.009.015.015 0 01.007.02l-.006.016a1.69 1.69 0 00-.073.193.015.015 0 01-.015.01zM19.57 11.56l-.01-.005a.556.556 0 00-.108-.077.064.064 0 00-.042-.018l-.01-.005a.06.06 0 00-.04-.015l-.006-.002a.132.132 0 00-.053-.018l-.01-.004-.012-.01a.016.016 0 010-.023.016.016 0 01.022 0l.007.006a.16.16 0 01.056.02 1.135 1.135 0 01.107.045.549.549 0 01.11.08.015.015 0 010 .021z" fill="#0a0a14"/><path d="M19.28 11.41h-.003a.95.95 0 00-.157-.01.015.015 0 110-.03 1.035 1.035 0 01.163.01.015.015 0 01.012.017.014.014 0 01-.015.012z" fill="#0a0a14"/><path d="M19.29 11.41a.015.015 0 01-.016-.016v-.03a.016.016 0 01.032 0v.03a.015.015 0 01-.016.015z" fill="#0a0a14"/><path d="M19.29 11.35h-.002a.015.015 0 01-.013-.018 1.547 1.547 0 00.01-.218c-.005-.044-.008-.087-.01-.13a1.527 1.527 0 00-.01-.118 1.238 1.238 0 00-.024-.132.9.9 0 01-.015-.077.015.015 0 01.011-.018.016.016 0 01.018.013l.016.076c.008.04.018.086.025.134l.01.12c.002.042.005.085.01.13a1.373 1.373 0 01-.011.225.014.014 0 01-.015.013zM19.143 10.727c-.008.003-.017-.007-.016-.017a3.62 3.62 0 00.019-.572.016.016 0 01.014-.016h.001a.016.016 0 01.016.015 3.675 3.675 0 01-.019.577.016.016 0 01-.015.013zM19.064 10.265h-.005a.015.015 0 01-.01-.02.81.81 0 00.04-.253.744.744 0 00-.026-.201.015.015 0 01.01-.019.016.016 0 01.019.01.761.761 0 01.03.21.843.843 0 01-.044.263.015.015 0 01-.014.01z" fill="#0a0a14"/><path d="M18.22 10.034a9.278 9.278 0 00-.84-1.51 4.487 4.487 0 00-1.19-1.31 2.211 2.211 0 00-.33-.21 1.69 1.69 0 01.22-.45.891.891 0 01.16-.21.622.622 0 01.2-.12 1.017 1.017 0 01.19.15 1.836 1.836 0 01.38.47 7.483 7.483 0 01.42.86c.41 1.11.65 1.84.79 2.33z" fill="#050505"/><path d="M18.22 10.05a.015.015 0 01-.013-.01 9.29 9.29 0 00-.84-1.507 4.525 4.525 0 00-1.185-1.306 2.189 2.189 0 00-.328-.209.016.016 0 01-.008-.018 1.726 1.726 0 01.221-.454c.022-.03.038-.055.051-.077a.52.52 0 01.113-.136.64.64 0 01.205-.123.012.012 0 01.012.001 1.014 1.014 0 01.193.152 1.75 1.75 0 01.363.442l.02.031a7.76 7.76 0 01.421.863c.36.976.626 1.76.79 2.331a.015.015 0 01-.01.019zM15.88 6.996a2.234 2.234 0 01.32.205 4.56 4.56 0 011.194 1.314 9.146 9.146 0 01.753 1.318c-.165-.548-.41-1.26-.73-2.124a7.306 7.306 0 00-.419-.858l-.018-.031a1.76 1.76 0 00-.359-.435 1.004 1.004 0 00-.181-.145.63.63 0 00-.189.115.51.51 0 00-.106.13l-.051.077a1.696 1.696 0 00-.214.434z" fill="#0a0a14"/><path d="M16.089 6.25l-.012-.005a.015.015 0 01.002-.021.285.285 0 01.12-.064.35.35 0 01.244.052.016.016 0 01.006.02.018.018 0 01-.021.006.323.323 0 00-.222-.049.265.265 0 00-.107.058zM16.518 6.175a.015.015 0 01-.013-.007.299.299 0 00-.128-.112.308.308 0 00-.25.004.016.016 0 01-.02-.008.015.015 0 01.008-.02.35.35 0 01.274-.004.33.33 0 01.141.124.014.014 0 01-.005.02zM21.7 11.71a.015.015 0 01-.015-.015.29.29 0 01.021-.096 2.279 2.279 0 01.146-.392l.005-.01a.016.016 0 01.02-.007.015.015 0 01.007.02l-.004.01a2.222 2.222 0 00-.145.389.26.26 0 00-.02.086.015.015 0 01-.015.015zM21.74 11.15l-.006-.001a.015.015 0 01-.007-.02 1.114 1.114 0 01.061-.12c.01-.02.022-.037.028-.051a.016.016 0 01.021-.007.015.015 0 01.007.02c-.007.016-.018.033-.03.054-.019.034-.04.072-.06.115a.014.014 0 01-.014.01zM23.754 6.299l-.012-.005a.016.016 0 01.002-.022c.066-.058.13-.11.194-.159a.015.015 0 01.02.003.015.015 0 01-.003.022c-.061.047-.126.1-.191.157z" fill="#0a0a14"/><path d="M24.18 6.954c-.09.04-.2.09-.33.16a3.572 3.572 0 00-1.02.89 6.516 6.516 0 00-.61.93 11.961 11.961 0 01.7-1.55 3.82 3.82 0 01.58-.86c.09-.09.18-.17.25-.24a.392.392 0 01.18.04.342.342 0 01.17.21 1.084 1.084 0 01.08.42z" fill="#050505"/><path d="M22.22 8.95l-.005-.002a.016.016 0 01-.009-.02 11.39 11.39 0 01.651-1.455l.05-.095a3.906 3.906 0 01.581-.864 7.81 7.81 0 01.136-.13c.042-.04.081-.076.115-.11l.011-.005a.41.41 0 01.188.042.355.355 0 01.177.22 1.084 1.084 0 01.081.423.016.016 0 01-.01.014 4.86 4.86 0 00-.329.16 3.46 3.46 0 00-1.015.886 6.413 6.413 0 00-.608.928.016.016 0 01-.013.007zm1.536-2.65a6.26 6.26 0 01-.11.106c-.043.04-.09.084-.135.13a3.863 3.863 0 00-.577.855l-.05.096a11.71 11.71 0 00-.581 1.268 6.736 6.736 0 01.515-.76 3.499 3.499 0 011.026-.894c.12-.065.225-.114.321-.156a1.076 1.076 0 00-.078-.405.334.334 0 00-.164-.202.378.378 0 00-.167-.039zm.425.654zM17.8 12.02h-.005a.366.366 0 01-.151-.099.323.323 0 01-.063-.098.015.015 0 01.008-.02.014.014 0 01.02.008.342.342 0 00.057.09.332.332 0 00.139.09.015.015 0 01-.005.03zM17.821 11.887a.016.016 0 01-.015-.014.541.541 0 00-.074-.247.575.575 0 00-.146-.162.016.016 0 01-.004-.021.017.017 0 01.022-.003.582.582 0 01.233.431.016.016 0 01-.015.016zM17.97 11.733a.015.015 0 01-.014-.012.962.962 0 00-.099-.234 1.01 1.01 0 00-.298-.327.016.016 0 01-.004-.022.016.016 0 01.021-.004 1.04 1.04 0 01.41.58.016.016 0 01-.011.018zM18.11 11.694a.015.015 0 01-.015-.01 2.917 2.917 0 01-.094-.362 1.969 1.969 0 01-.05-.58 1.56 1.56 0 01.022-.172.014.014 0 01.017-.013.015.015 0 01.012.017 1.592 1.592 0 00-.02.17 1.927 1.927 0 00.048.572 3.041 3.041 0 00.094.358.015.015 0 01-.01.019zM18.232 11.56c-.01-.002-.017-.008-.016-.016a.58.58 0 00-.005-.189.55.55 0 00-.049-.14.015.015 0 01.007-.02.016.016 0 01.02.006.577.577 0 01.051.148.641.641 0 01.007.199.016.016 0 01-.015.013zM21.903 11.719a.015.015 0 01-.015-.015 1.499 1.499 0 01.473-1.121.016.016 0 01.022.022 1.485 1.485 0 00-.397.629 1.457 1.457 0 00-.067.47.015.015 0 01-.016.015z" fill="#0a0a14"/><path d="M22.04 11.849a.015.015 0 01-.016-.011.776.776 0 01-.018-.321.793.793 0 01.238-.447.016.016 0 01.022.022.73.73 0 00-.212.738.016.016 0 01-.011.018zM22.212 11.769a.015.015 0 01-.015-.012.37.37 0 01.026-.263.365.365 0 01.102-.123.016.016 0 01.022.003.015.015 0 01-.002.022.32.32 0 00-.095.111.342.342 0 00-.023.243.015.015 0 01-.011.018zM22.206 11.898a.015.015 0 01-.015-.01.015.015 0 01.01-.02.272.272 0 00.17-.145.245.245 0 00.017-.11.016.016 0 01.014-.017h.001a.016.016 0 01.016.015.266.266 0 01-.02.124.301.301 0 01-.188.163zM22.26 12.077a.017.017 0 01-.014-.01.015.015 0 01.01-.02.382.382 0 00.112-.065.387.387 0 00.077-.089.016.016 0 01.02-.005.015.015 0 01.006.022.39.39 0 01-.083.096.382.382 0 01-.122.07zM22.385 12.219l-.012-.005a.015.015 0 01.002-.021.929.929 0 00.078-.08.69.69 0 00.06-.078.016.016 0 01.022-.005.015.015 0 01.004.021.826.826 0 01-.062.082.903.903 0 01-.082.082zM20.69 16.92l-.01-.005a.015.015 0 010-.021.21.21 0 00.055-.084.356.356 0 00-.105-.335.015.015 0 01.021-.021.386.386 0 01.114.365.237.237 0 01-.064.096zM21.3 16.98l-.009-.004a.015.015 0 01-.002-.021.368.368 0 00.066-.27.322.322 0 00-.14-.226.015.015 0 01-.009-.02.014.014 0 01.02-.01.345.345 0 01.159.253.399.399 0 01-.072.292z" fill="#0a0a14"/><path d="M17.19 15.624a1.692 1.692 0 00-.28.37 1.754 1.754 0 00-.2.68 5.502 5.502 0 01-2.46-.85 5.634 5.634 0 012.61-.87 1.221 1.221 0 00.11.34 1.054 1.054 0 00.22.33z" fill="#050505"/><path d="M16.71 16.69h-.003a5.487 5.487 0 01-2.467-.854.014.014 0 010-.023 5.588 5.588 0 012.618-.874h.002a.015.015 0 01.015.013 1.196 1.196 0 00.11.336 1.03 1.03 0 00.216.325l.005.011-.005.011a1.66 1.66 0 00-.277.367 1.73 1.73 0 00-.198.674l-.006.01zm-2.437-.866a5.522 5.522 0 002.423.832 1.787 1.787 0 01.2-.669 1.712 1.712 0 01.273-.363 1.047 1.047 0 01-.212-.324 1.193 1.193 0 01-.11-.328 5.621 5.621 0 00-2.573.852zM19.81 16.94h-.15a11.738 11.738 0 00-.287-.01 9.424 9.424 0 01-.273-.01h-.007c-.26-.01-.505-.02-.743-.04a.015.015 0 01-.014-.012.602.602 0 010-.307.715.715 0 01.552-.462l.011.003a.69.69 0 00.173.077.948.948 0 00.69.003l.008-.008a.013.013 0 01.016-.004.651.651 0 01.149.098l.005.004a.69.69 0 01.143.165.016.016 0 01-.003.02.659.659 0 00-.216.273.307.307 0 01-.01.03.52.52 0 00-.019.058l-.009.108a.016.016 0 01-.015.014zm-1.447-.09c.234.02.475.029.73.039h.009c.088.005.177.008.272.01.094.003.192.005.287.01h.136l.008-.096a.433.433 0 01.02-.064.267.267 0 00.011-.03.697.697 0 01.214-.278.665.665 0 00-.129-.145l-.005-.004a.722.722 0 00-.132-.09l-.003.003-.005.004a.974.974 0 01-.71 0 .747.747 0 01-.178-.078.682.682 0 00-.523.438.576.576 0 00-.002.281z" fill="#0a0a14"/><path d="M16.88 14.294a2.878 2.878 0 00-.02.66 5.634 5.634 0 00-2.61.87.548.548 0 01-.22-.41c0-.55 1.15-1.03 2.88-1.29-.01.07-.02.13-.03.17z" fill="#f2f2f4"/><path d="M14.25 15.84l-.01-.004a.563.563 0 01-.225-.422c0-.544 1.082-1.032 2.893-1.305h.002l.011.004a.013.013 0 01.004.013 1.337 1.337 0 01-.03.171 2.68 2.68 0 01-.008.086 2.4 2.4 0 00-.01.57.016.016 0 01-.015.016 5.571 5.571 0 00-2.602.867zm2.643-1.698c-1.757.267-2.847.754-2.847 1.272a.526.526 0 00.204.39 5.63 5.63 0 012.594-.862 2.436 2.436 0 01.013-.562l.007-.087.001-.002a1.447 1.447 0 00.028-.149zM21.347 16.898h-.001a.015.015 0 11.015-.015.015.015 0 01-.014.015z" fill="#0a0a14"/><path d="M25.75 15.824a5.293 5.293 0 01-2.43.84 1.192 1.192 0 00-.06-.29 2.03 2.03 0 00-.25-.51c-.04-.06-.09-.12-.13-.17a2.046 2.046 0 00.2-.75 5.737 5.737 0 012.67.88z" fill="#050505"/><path d="M23.32 16.68l-.01-.004-.005-.01a1.177 1.177 0 00-.059-.287l-.01-.028a2.063 2.063 0 00-.238-.479c-.032-.048-.072-.096-.107-.14l-.023-.028a.014.014 0 01-.002-.016 2.01 2.01 0 00.198-.744l.006-.011.01-.004h.002a5.746 5.746 0 012.678.884.014.014 0 010 .023 5.272 5.272 0 01-2.437.843zm-.422-.988l.017.021c.035.044.075.093.109.143a2.079 2.079 0 01.242.485l.01.028a1.279 1.279 0 01.058.278 5.3 5.3 0 002.393-.823 5.776 5.776 0 00-2.632-.862 2.049 2.049 0 01-.197.73z" fill="#0a0a14"/><path d="M25.98 15.414a.563.563 0 01-.23.41 5.737 5.737 0 00-2.67-.88.484.484 0 000-.17c-.01-.09-.02-.18-.03-.25v-.01a.238.238 0 00-.02-.09.127.127 0 00-.01-.06.527.527 0 00-.03-.11v-.02a.822.822 0 00-.05-.14c1.81.26 3.04.75 3.04 1.32z" fill="#f2f2f4"/><path d="M25.75 15.84l-.01-.004a5.74 5.74 0 00-2.662-.876l-.01-.007a.016.016 0 01-.003-.011.46.46 0 000-.164l-.029-.251v-.013a.175.175 0 00-.015-.068l-.005-.017a.148.148 0 00-.01-.058.542.542 0 00-.03-.11l-.001-.006v-.02a.83.83 0 00-.048-.135.013.013 0 01.002-.015c.003-.005.007-.005.013-.006 1.912.275 3.054.774 3.054 1.335a.58.58 0 01-.236.422zm-2.652-.908a5.788 5.788 0 012.652.872.542.542 0 00.215-.39c0-.534-1.149-1.031-3-1.3a.744.744 0 01.04.117v.02a.623.623 0 01.03.11.129.129 0 01.01.063l.006.012a.21.21 0 01.015.078v.01c.01.07.02.165.03.25a.452.452 0 01.002.158zM20.705 16.927h-.02a.015.015 0 110-.03h.02a.015.015 0 110 .03zM17.49 14.88a.015.015 0 11.015-.015.015.015 0 01-.015.016zM19.098 16.92l-.01-.002a.015.015 0 01-.003-.021.41.41 0 00.07-.238.395.395 0 00-.051-.185.015.015 0 01.006-.02.014.014 0 01.02.005.426.426 0 01-.02.454.015.015 0 01-.012.007zM19.656 16.935h-.005a.015.015 0 01-.01-.02.517.517 0 00-.046-.44.014.014 0 01.005-.022.015.015 0 01.02.006.515.515 0 01.069.17.562.562 0 01-.018.295.015.015 0 01-.015.01z" fill="#0a0a14"/><path d="M20.71 16.194a1.118 1.118 0 00-.64.25.668.668 0 00-.14-.16.652.652 0 00-.15-.1.338.338 0 00.12-.06.187.187 0 00.07-.06.663.663 0 00.26.08.5.5 0 00.29-.09 1.058 1.058 0 00.12.1.25.25 0 00.07.04z" fill="#f2f2f4"/><path d="M20.07 16.46a.012.012 0 01-.012-.008.658.658 0 00-.137-.156l-.005-.004a.657.657 0 00-.142-.094.017.017 0 01-.01-.015.016.016 0 01.012-.013.327.327 0 00.116-.058.187.187 0 00.066-.056.014.014 0 01.02-.005.65.65 0 00.254.078.487.487 0 00.28-.087.016.016 0 01.02.002 1.021 1.021 0 00.113.094l.004.004a.167.167 0 00.05.03l.018.009a.015.015 0 01.008.016.015.015 0 01-.014.013.971.971 0 00-.295.059.992.992 0 00-.336.187zm-.249-.273a1.002 1.002 0 01.114.08l.006.005a.71.71 0 01.133.15 1.01 1.01 0 01.332-.182.893.893 0 01.25-.056.092.092 0 01-.026-.019l-.004-.002a1.2 1.2 0 01-.107-.09.521.521 0 01-.288.086.68.68 0 01-.256-.074.222.222 0 01-.068.053.365.365 0 01-.086.05z" fill="#0a0a14"/><path d="M20.524 16.073h-.002a.015.015 0 110-.03.016.016 0 01.017.015.015.015 0 01-.015.015zM19.97 16.084a.015.015 0 11.015-.015.015.015 0 01-.014.015zM20.201 14.648c-.097 0-.172-.034-.172-.08s.075-.081.172-.081.172.035.172.081-.074.08-.172.08zm0-.13c-.087 0-.14.029-.14.05 0 .02.054.05.14.05s.14-.03.14-.05c0-.02-.053-.05-.14-.05zM20.501 14.623a.06.06 0 110-.119.06.06 0 110 .119zm0-.089a.033.033 0 00-.036.03.033.033 0 00.036.028.03.03 0 100-.058zM18.224 10.05a.015.015 0 01-.016-.015.018.018 0 01.015-.017c.008 0 .013.003.014.01l.002.006a.016.016 0 01-.015.016zm.014-.02z" fill="#0a0a14"/><path d="M19.52 13.254a.425.425 0 11-.43-.43.583.583 0 01.18.04.09.09 0 00-.03.07.103.103 0 00.11.1.091.091 0 00.08-.04.452.452 0 01.09.26zM21.47 13.254a.425.425 0 11-.43-.43.413.413 0 01.19.05.142.142 0 00-.02.06.103.103 0 00.11.1.091.091 0 00.07-.03.438.438 0 01.08.25z" fill="#050505"/><path d="M2.75 16.898a.427.427 0 11.428-.428.429.429 0 01-.429.428zm0-.825a.397.397 0 10.397.397.397.397 0 00-.398-.397zM18.56 3.617a.21.21 0 11.212-.21.21.21 0 01-.212.21zm0-.39a.18.18 0 10.18.18.18.18 0 00-.18-.18zM38.265 2.846a.474.474 0 11.474-.474.476.476 0 01-.474.474zm0-.918a.444.444 0 10.443.444.445.445 0 00-.443-.444zM29.617 17.075a.312.312 0 11.312-.311.313.313 0 01-.312.311zm0-.593a.281.281 0 10.28.282.282.282 0 00-.28-.282z" fill="#0a0a14"/><path fill="#fbb03b" d="M8.196 6.244h2.84v2.84h-2.84z"/><path d="M18.51 11.784c-.01 0-.01.01-.02.01-.21.12-.31.18-.41.25a4.314 4.314 0 00-.4.32 1.354 1.354 0 01-.12-.12 7.013 7.013 0 01-1.41-2.23 5.7 5.7 0 01-.42-2.12 3.233 3.233 0 01.13-.89 2.211 2.211 0 01.33.21 4.487 4.487 0 011.19 1.31 9.278 9.278 0 01.84 1.51 4.935 4.935 0 01.23 1.03q.045.375.06.72z" fill="#f2f2f4"/><path d="M17.68 12.38l-.008-.003a.6.6 0 01-.077-.074l-.045-.048a7.019 7.019 0 01-1.414-2.235 5.516 5.516 0 01-.421-2.126 3.301 3.301 0 01.13-.894l.01-.01h.012a2.182 2.182 0 01.332.212 4.56 4.56 0 011.194 1.314 9.268 9.268 0 01.841 1.512 5.004 5.004 0 01.232 1.035c.028.24.049.483.06.72a.017.017 0 01-.014.017.028.028 0 01-.017.01c-.216.122-.31.18-.406.247a4.146 4.146 0 00-.398.319zm-1.81-5.353a3.272 3.272 0 00-.124.868 5.472 5.472 0 00.42 2.114 6.97 6.97 0 001.403 2.223c.02.02.035.035.048.05a.836.836 0 00.063.062 4.323 4.323 0 01.391-.312 4.757 4.757 0 01.411-.25l.008-.003.005-.005a9.714 9.714 0 00-.06-.707 4.774 4.774 0 00-.229-1.028 9.274 9.274 0 00-.839-1.506 4.525 4.525 0 00-1.185-1.306 2.214 2.214 0 00-.313-.2z" fill="#0a0a14"/><path d="M17.59 12.48h-.01l-.01-.004a7.245 7.245 0 01-.35-.28l-.009-.009a6.22 6.22 0 01-.993-1.144l-.017-.027a5.623 5.623 0 01-.886-2.36 4.702 4.702 0 01.332-2.338 2.803 2.803 0 01.2-.362.686.686 0 01.173-.193.2.2 0 01.072-.061.218.218 0 01.061-.041.552.552 0 01.123-.041.735.735 0 01.52.11 2.442 2.442 0 01.938 1.097l.01.016.007.01c.154.276.27.499.363.705.254.515.417.918.504 1.135.027.064.044.11.056.135a17.669 17.669 0 01.401 1.223l.03.109a2.107 2.107 0 01.064.224l.006.027v.023l.014.035a.382.382 0 01.016.04l.045.177.045.175c0 .077.003.151.006.23.002.08.005.162.005.243v.03a.052.052 0 01-.004.02l.004.01v.01c0 .035.002.073.005.11.002.037.005.075.005.11v.02a.015.015 0 01-.011.015.461.461 0 01-.059.01.284.284 0 00-.05.01c-.092.01-.162.02-.222.03h-.014a.589.589 0 00-.285.02.48.48 0 00-.155.068.014.014 0 01-.016.001.017.017 0 01-.009-.013 9.499 9.499 0 00-.06-.718 4.774 4.774 0 00-.229-1.028c-.164-.57-.43-1.354-.79-2.33a7.306 7.306 0 00-.419-.857l-.018-.031a1.76 1.76 0 00-.359-.435 1.004 1.004 0 00-.181-.145.62.62 0 00-.189.115.51.51 0 00-.106.13l-.051.077a1.672 1.672 0 00-.218.447 3.201 3.201 0 00-.129.885 5.472 5.472 0 00.42 2.114 6.97 6.97 0 001.403 2.223c.02.02.035.035.048.05a.642.642 0 00.073.07l.006.011a.017.017 0 01-.005.012.768.768 0 00-.087.098.015.015 0 01-.013.007zm-1.205-6.842a.443.443 0 00-.102.012.524.524 0 00-.116.038.191.191 0 00-.056.037l-.004.003a.168.168 0 00-.064.055l-.005.005a.621.621 0 00-.165.185 2.93 2.93 0 00-.2.358 4.654 4.654 0 00-.328 2.321A5.603 5.603 0 0016.227 11l.016.026a6.224 6.224 0 00.989 1.138l.01.009c.085.073.17.14.243.197l.1.078a.803.803 0 01.073-.083.691.691 0 01-.063-.062l-.045-.048a7.019 7.019 0 01-1.414-2.235 5.516 5.516 0 01-.421-2.126 3.301 3.301 0 01.13-.894 1.726 1.726 0 01.222-.454c.022-.03.038-.055.051-.077a.52.52 0 01.113-.136.64.64 0 01.205-.123.012.012 0 01.012.001 1.014 1.014 0 01.193.152 1.75 1.75 0 01.363.442l.02.031a7.76 7.76 0 01.421.863c.36.976.626 1.76.79 2.331a5.013 5.013 0 01.23 1.033c.028.231.049.465.06.694a.56.56 0 01.141-.057.631.631 0 01.296-.02h.009c.058-.01.129-.02.218-.03a.328.328 0 01.053-.011l.043-.007v-.008c0-.034-.002-.072-.005-.109a2.02 2.02 0 01-.006-.107.016.016 0 01-.01-.014.028.028 0 01.008-.018.017.017 0 00.002-.012v-.03c0-.08-.002-.162-.004-.242-.002-.079-.005-.153-.005-.228l-.044-.17-.045-.176-.015-.037-.015-.042-.001-.025-.006-.023a1.851 1.851 0 00-.063-.221 3.34 3.34 0 01-.03-.112l-.03-.11a18.01 18.01 0 00-.37-1.108l-.056-.136c-.087-.216-.25-.619-.503-1.133a9.657 9.657 0 00-.36-.7l-.01-.015-.007-.011a2.441 2.441 0 00-.927-1.087.878.878 0 00-.398-.12zm2.916 6.006zM16.97 13.88h-.002a.015.015 0 01-.012-.018 1.045 1.045 0 01.11-.314.016.016 0 01.021-.007.015.015 0 01.007.02 1.039 1.039 0 00-.109.306.014.014 0 01-.014.013zM17.29 12.94a.015.015 0 01-.016-.016.056.056 0 01.014-.038 2.268 2.268 0 01.19-.32.016.016 0 01.025.018 2.163 2.163 0 00-.188.317l-.003.004a.03.03 0 00-.006.02.015.015 0 01-.016.015zM22.7 12.79l-.01-.004a.016.016 0 01-.002-.022 2.282 2.282 0 00.22-.288.014.014 0 01.02-.004.014.014 0 01.005.02 2.365 2.365 0 01-.221.293zM21.39 9.11h-.003a.015.015 0 01-.011-.02 3.9 3.9 0 01.11-.311c.02-.053.044-.105.067-.156l.034-.074a.015.015 0 11.027.011l-.033.075a2.161 2.161 0 00-.097.236c-.029.079-.057.154-.079.228a.015.015 0 01-.014.01zM21.29 9.36h-.004a.015.015 0 01-.01-.02 1.867 1.867 0 01.074-.196l.007-.015a.015.015 0 01.02-.009.015.015 0 01.007.02l-.006.016a1.69 1.69 0 00-.073.193.015.015 0 01-.015.01z" fill="#0a0a14"/><path d="M16.03 5.79l-.01-.004a.015.015 0 01-.001-.021.36.36 0 01.134-.104.552.552 0 01.123-.041h.004a.015.015 0 01.004.03.542.542 0 00-.117.038.33.33 0 00-.125.096zM18.1 7.58a.015.015 0 01-.013-.009 9.76 9.76 0 00-.36-.7.016.016 0 01.006-.02.016.016 0 01.021.006c.151.272.267.495.36.701a.015.015 0 01-.007.02zM19.29 11.41a.015.015 0 01-.016-.016v-.03a.016.016 0 01.032 0v.03a.015.015 0 01-.016.015z" fill="#0a0a14"/><circle cx="19.351" cy="12.91" r=".12" fill="#fcfcfc"/><circle cx="21.31" cy="12.917" r=".12" fill="#fcfcfc"/></svg>