<svg xmlns="http://www.w3.org/2000/svg" data-tags="Loading state" viewBox="0 0 200 93"><path d="M10.5 49h-1v2.5H7v1h2.5V55h1v-2.5H13v-1h-2.5zm187 16.5V63h-1v2.5H194v1h2.5V69h1v-2.5h2.5v-1zm-194-35a3 3 0 100 6 3 3 0 000-6zm0 5a2 2 0 110-4 2 2 0 010 4zm188 39a3 3 0 100 6 3 3 0 000-6zm0 5a2 2 0 110-4 2 2 0 010 4zm-95-33.2h-.1a4 4 0 00-1.2.7 3.5 3.5 0 01-2.4.8l-1 .1c-2.3.4-2.8 1.2-3.5 2.6l-.8 1.2-.9 1.3c-1.3 2-2.6 4-2.2 6.2l1-.2c-.3-1.8.8-3.6 2-5.4l1-1.3.7-1.3c.7-1.3 1-1.8 3-2.1h.8l1.5-.3c.6-.2 1-.5 1.4-.8l.9-.5h.1c1-.3 1.5-.4 1.8 0l.8-.7c-.8-1-1.9-.6-2.8-.3z"/><path d="M151.2 29.9h-.1c-2.5.1-4.4-.4-6-1-2.3-.8-4-.6-6.1-.3l-1 .1c-1.9.1-3.6-.3-5.3-.8-2.7-.7-5.6-1.4-8.5.2l-1.3.7c-1 .7-1.8 1.1-3.3 1l-.8-.2c-1.9-.2-3-.4-5.2.3-.7.2-1.4.6-2 1-1.3.8-2.5 1.5-3.5 1l-.5-.7c-.2-.6-.5-1.3-1.7-1.6-.7-.2-2 0-2.6.2-.2 0-4.1 1.7-5.3 2.8-.7.9-.7 2 0 2.6.5.7 1.7 1 3 .2.4-.3.7-.8 1-1.3.4-.5.8-1.3 1-1.3.2 0 .5.2.8.6.3.4.4.8.3 1.2-.3 1-1.8 2-2.7 2.4-1 .5-2 .6-3.2.8-.8 0-1.7.2-2.5.5-2.1.6-2.2 1.6-2.2 3v1a12 12 0 01-.4 0v.2l-.1-.2h-.5a2.8 2.8 0 01-.6.1c-.5 0-1.4 0-1.9 1.3-.2.7.2 2 .8 2.7C92.6 47.7 94 46 95 45l.8-1c.9-.4 4.5-1 5.7-.7.6.1.9.6 1.2 1 .3.5.6 1 1.2 1.3.4.4 1 .4 1.6.5h.9c.8.2 3.3.5 3.9 1.4a.4.4 0 010 .3c0 .3-.8.2-2.4 0a6 6 0 00-1.6-.2l-1.5.3c-2.5.7-4.5 1-5.2-1l-1 .4c1.2 3 4.4 2.1 6.5 1.6l1.4-.3c.2 0 .7 0 1.2.2 1.5.2 3.3.5 3.6-.7.1-.4 0-.8-.2-1.2-.7-1-2.7-1.5-4.6-1.7h-.2l-.7-.1c-.4 0-.9 0-1-.2l-.2-.1c-.4-.2-.6-.6-.9-1-.3-.6-.8-1.2-1.8-1.5-1.3-.3-5.2.2-6.4 1-.4.2-.7.6-1 1-1.2 1.3-1.9 2-2.9 1.3-.3-.3-.5-1.3-.4-1.6.2-.6.4-.6.9-.6l1.1-.1 1 .1h.4V43a7 7 0 00.1-1.8c0-1.1 0-1.5 1.5-2a15 15 0 012.3-.4c1.2-.2 2.4-.4 3.5-.9 1-.4 2.8-1.5 3.2-3 .2-.8 0-1.5-.4-2-.5-.8-1-1.1-1.6-1-.8 0-1.3.9-1.8 1.7l-.7 1c-.8.5-1.5.3-1.8 0-.3-.4-.3-.8 0-1.3.8-.7 3.4-2 5-2.6.5-.1 1.6-.2 2-.1.7.2.8.5 1 1 .2.3.4.7.9 1 1.5 1 3 0 4.4-.8.7-.4 1.3-.8 1.9-1 2-.6 3-.4 4.8-.2l.7.1c2 .3 3-.4 4-1l1.2-.8c2.7-1.4 5.2-.7 7.8 0a17.6 17.6 0 006.7.7c2-.3 3.6-.5 5.6.2 1.8.7 3.8 1.2 6.4 1h.2c4.2-.2 7.9-.4 11.6 1.5l-.4.2c-1.3.8-2.8 1.6-2.4 3.7v.2l.2.3c1.5 2.1 1.3 2.6 1.3 2.7h-.4c-.6-.4-3.3-3.6-3.6-4-.2-.3-.1-.5 0-.7.1-.6.2-1.2-1-1.8-.8-.4-2 0-2.8.4l-.6.2c-2 .9-3 1.8-3 2.7 0 .8.7 1.4 2 1.8l.3.2c1 .4 2 .8 2.3 1.5.1.5 0 1.2-.4 2.2l-1 1c-.7.7-1 1-1 1.5 0 .9.7 1.3 1.4 1.7.6.3.9.5.8.8 0 .4-.2.5-.3.6-1 .2-3-.8-3.4-1.4a4 4 0 01-.4-1c-.3-1.1-.7-2.5-2-2.5-.7 0-1 .3-1.2.5-.7 1 0 2.7.2 3.2a7 7 0 001.9 2.1c1 .9 2 1.6 1.6 3-.1 1.1-.8 1.6-1.6 2.2l-1.1 1 .7.6 1-.8c.9-.7 1.8-1.3 2-2.7.4-2.1-.8-3.2-2-4-.6-.6-1.3-1.1-1.6-1.8-.3-.8-.5-1.8-.3-2.2l.4-.1c.5 0 .8.7 1 1.7l.6 1.4c.6.8 3 2.1 4.4 1.7.7-.2 1-.7 1.1-1.4.1-1-.7-1.5-1.4-1.8-.5-.3-.9-.5-1-.7l.8-.8c.6-.5 1.1-1 1.3-1.4.5-1.2.7-2.2.4-3-.4-1-1.6-1.5-2.8-2l-.3-.2c-1.2-.4-1.3-.8-1.3-1 0-.3.6-1 2.2-1.7l.7-.2c.7-.3 1.5-.6 2-.4.5.3.5.3.4.6-.1.3-.2.8.1 1.4 0 0 3.5 4.6 4.2 4.6.8.1 1.3 0 1.5-.5.6-.8-.2-2.3-1.2-3.8a29.6 29.6 0 01-.1-.1c-.2-1.3.5-1.8 1.9-2.6l1.2-.8.6-.4-.6-.4c-4.3-2.5-8.3-2.2-13-2zm-83.8 3.3c-2.7-.9-4 1.3-4.8 2.8-.6 1-1 2-1.7 2-.5.1-1.1-.1-1.8-.7a4 4 0 01-1.3-2 8 8 0 00-.4-.7l1-.5c1-.5 2-1 3-1.3a39.5 39.5 0 002-.8c1.6-.6 2.5-1.4 2.3-2.2-.2-1-2-1-2.6-1-1.2.1-2.2.6-3.1 1-1.1.5-2.1 1-3.4 1-1.3 0-2.4-.3-3.7-.6l-2.4-.5c-1 0-1.9 0-2.7.2L46 30c-.8 0-1.6-.2-2.4-.4-1.4-.4-2.9-.8-4.6-.3-.1 0-7.4 2.7-7.9 5 0 .4 0 .9.5 1.3 1.3 1.2 3 .7 4.5.2 2-.7 3.2-1 4.2.3 1.5 2 .5 3.8-.7 5.7-.6 1-1.2 2-1.4 3-.3 2 1 3.1 2.1 4.2.7.7 1.5 1.4 1.8 2.2.3.6.4 1.4.6 2.2.3 1.3.6 2.7 1.4 3.7 1 1.3 2.4 1.2 3.6 1.1 1 0 1.8 0 2.5.4s1.1 1 1.6 1.6c.8 1 1.6 2 3.4 2h.7l.9-.2-.6-.6c-.3-.5-.8-.8-1.2-1l-1.1-1c-.5-.4-.6-.8-.7-1.3l-.4-1c-.8-1.7-1.4-1.8-2.5-2a7.3 7.3 0 01-1.6-.4c-1-.3-1.4-.9-1.5-1.5-.1-1 .6-2.1 1.7-2.8 1.2-.8 2.5-.9 3.5-.3.4.3.8.9 1 1.4.6.8 1 1.6 1.7 1.5.7 0 1.2-.7 1.5-1.4.4-.8.5-1.4.5-2 .2-.8.2-1.3 1.6-2.2l2-1.7c.8-.8 1.7-1.6 2.7-2L65 43c1-.2 2-.5 3-1.7.3-.3.3-.6.2-1v-.1l.3-.1.7-.4.8-.4c.6-.1 1.3-.3 1.7-1.4.7-2.4-2.7-4.3-4.3-4.8zm3.3 4.5c-.2.6-.5.6-1 .8-.3 0-.7.2-1.2.6h-.2c-.3.2-.6.2-1 .6-.2.2-.1.6 0 1v.1c-1 1-1.6 1.1-2.5 1.3l-1.9.6a9.6 9.6 0 00-3 2.3 12 12 0 01-1.8 1.5c-1.8 1.3-2 2-2 3l-.5 1.7-.6.8c-.2 0-.5-.6-.8-1-.3-.6-.8-1.3-1.4-1.7-1.3-.8-3-.7-4.5.2-1.5 1-2.4 2.5-2.2 3.8 0 1 .9 1.9 2.1 2.3l1.9.5c.8.1 1 .2 1.7 1.5.2.2.2.5.3.8.2.5.3 1 1 1.7l1 1c-.6-.3-1-.9-1.6-1.6-.5-.6-1-1.2-1.8-1.7a4 4 0 00-2.3-.6h-.8c-1.2.1-2 .2-2.9-.8-.6-.7-.8-2-1.1-3.2a14 14 0 00-.7-2.4c-.4-1-1.2-1.8-2-2.5-1.1-1-2-1.9-1.8-3.3a9 9 0 011.3-2.7c1.2-2 2.5-4.2.6-6.8-1.5-2-3.6-1.2-5.3-.7-1.4.5-2.6 1-3.6.1v-.3c.2-1.4 5.1-3.7 7-4.3 1.6-.5 2.8-.1 4 .2 1.1.3 2.2.6 3.3.5.6 0 1 0 1.5-.2.9 0 1.6-.2 2.4 0 .9 0 1.7.2 2.4.4 1.3.2 2.5.5 4 .5 1.4 0 2.6-.5 3.7-1a8 8 0 013.1-.9c1 0 1.2.2 1.2.2a38.2 38.2 0 01-3.6 1.9L58 33.2l-1 .5c-.3.2-.6.3-.7.6 0 .3 0 .5.2.7l.4.7c.3 1 .8 1.8 1.6 2.4 1 .8 1.8 1 2.6 1 1-.3 1.7-1.5 2.4-2.6 1-1.8 1.8-3 3.6-2.3 1.3.3 4 1.9 3.6 3.5zM89 29.1c.3-.4.3-.9.3-1.2 0-.4 0-.7.3-1l.7-.4c.9-.3 2-.9 1.8-2a1.2 1.2 0 00-.6-.8c-1-.5-2.8 0-4.8.6l-1.2.4c-1.4.1-2.7-.3-4-.8-1.6-.6-3.2-1.1-5.1-.8l-2.8.8c-1 .3-2.1.7-3.4.8v-.3c-1.4.2-3.9.7-4.3 2-.3.6 0 1.2.6 1.9 1.3 1.3 3.4.2 5.3-.8 1-.4 2-1 2.5-1 .8.1 1.6.5 2.2 1.2.4.5.6 1.2.5 1.9l-.4.9c-.4 1-1 2.3-.4 3.1.3.4.7.5 1.3.5h1c.7-.3 1.2-1 1.5-1.4l.7-.8c.9-.6 1.5-.8 2.5-.9l1.7-.2c1.5-.2 3.1-.3 4-1.7zm-6 1c-1 0-1.8.2-2.9 1-.4.2-.7.6-1 1-.2.4-.5.8-.9 1-1 .1-1.2 0-1.2-.1-.3-.3.3-1.5.5-2.1l.5-1.2c.1-1-.1-1.9-.8-2.6a4.1 4.1 0 00-2.9-1.6c-.8 0-1.9.6-3 1.2-1.5.8-3.3 1.7-4.1.9-.2-.3-.5-.6-.4-.9.2-.5 1.3-1 2.9-1.2v.2c1.6 0 3-.5 4.2-.9.9-.3 1.7-.6 2.7-.7a9 9 0 014.5.7c1.4.5 2.9 1 4.5.9l1.4-.4c1.1-.4 3.3-1 4-.7l.1.1c.1.3-.5.6-1.2.9-.5.2-.9.4-1.1.7-.4.5-.5 1-.5 1.5l-.1.7c-.7 1-2 1.2-3.4 1.3-.6 0-1.2 0-1.8.2z"/><path d="M113.4 59.2c.8 1.3 1.7 1.9 3.2 1.9h.7l-.1-1c-1.5 0-2.2-.3-2.9-1.4l-.9.5zm-.3-6.7l-.7.7c.9 1 1.5 2 1.9 3v.2l1-.3v-.2c-.5-1.2-1.2-2.3-2.2-3.4zm-.6 2.5c-.7-1.1-1.5-2.3-1.6-3.3l-1 .1c.2 1.3 1 2.5 1.8 3.8l.4-.3.4-.3zm.7 15.8a5.2 5.2 0 01-1.2 2.6l.8.6a6.2 6.2 0 001.5-3.9h-1v.7zm2.8-7.3l-1.4 1.6-.5.8 1 .5.3-.7c.3-.5.8-1 1.3-1.5l.8-.8-.8-.7-.7.8zm4.5-11.8v-1c-1-.1-2-.2-2.9-.8l-.7-.5v.8l-.1.7h.5c1 .6 2.1.7 3.2.8zm.5.8h-1.3v1h1.4c.6 0 1 .1 1.3.5l.2.4h1a2 2 0 00-.4-1c-.6-.8-1.5-1-2.2-1zm-2.4 5.5l-1.5.5v1c.6 0 1.2-.2 1.9-.6l2-1-.5-1c-.9.6-1.6 1-2 1.1zm-7.2 19.3h-1V79a4 4 0 01-.3 2.1l.8.5a5 5 0 00.5-2.6v-1.5zM85.4 59l-1 .2c.2 1 .7 2 1.6 3l.8-.6-.1-.1a5 5 0 01-1.3-2.5zm13.5 6.1c0-.8 0-1.6-.8-2.3l-.7.7c.4.4.5.9.5 1.6V67l1-.2a5.4 5.4 0 010-.8v-1zm-6.9-3l-2 .5.2 1 2-.5 1.9-.4-.2-1c-.6 0-1.3.2-1.9.4zm13.8 21.5c-.6.7-1.1 1.4-1.8 1.4v1c1.1 0 1.9-1 2.6-1.7.2-.4.5-.7.8-.9l-.7-.7a9 9 0 00-.9 1zm-4-4.7l-.2-.6-1 .4.4.6a11.1 11.1 0 011 3h1a6.6 6.6 0 00-.2-.7c-.2-1-.5-1.8-.9-2.7zm-1.5-8.4l-1 .3c.3.7.4 1.3.4 2v1.9h1a20 20 0 010-.6v-1.3c0-.8-.2-1.5-.4-2.3zm24.3-18.8l-.4.9a20.5 20.5 0 013 1.8l.3.2.6-.8a4.8 4.8 0 00-.2-.2 21.3 21.3 0 00-3.3-2zm21.7 6.3l2.6-2.7-.7-.7c-2.8 2.8-2.8 2.9-2.8 3.1l.7.1.2.2zm-15.8-.2l-.2-.4-1 .4.2.4c.5 1.3 1 2.6 2 3.2l.6-.8c-.8-.4-1.2-1.6-1.6-2.8zm14.1 3.4a5.5 5.5 0 00-.6-1.3l-.8.6c.3.4.5 1 .6 1.4l.1.5.5-.1c.5-.1 1.5-.4 2.2-1l-.5-.8c-.4.3-1 .6-1.5.7zm-11.5-2.7l1 .2c.2-1.1.5-2.6 1.3-3.5l-.8-.6c-.9 1-1.3 2.7-1.5 3.9zm5.7-4.9l-.5.9c.6.3 1 1 1.3 1.7l1 1.4.7-.7-.8-1.2c-.4-.8-.9-1.6-1.7-2.1zm21.4 33h-.7v1h.9c1-.2 2.2-1 3-1.6l-.6-.8a7 7 0 01-2.6 1.4zm.2-11.1c-.7 0-1.1-1-1.1-1.7l.1-.8-.8-.5a2 2 0 00-.1.2l-.4-.4c-.7.5-1.3.6-2 .8-.6 0-1 .2-1.6.4l.4 1c.4-.3.8-.4 1.3-.4.7-.2 1.4-.3 2-.7v.4c0 1.2.8 2.5 2 2.7l.2-1zm-6.7 7.2l.1 1c1.3-.1 2.5 0 3.3.7h.1l.7-.7h-.2c-1-.9-2.4-1.2-4-1zm11.7-3.3c.4.6.7 1.1.7 1.6 0 .4-.2.9-.6 1.4l.8.6c.6-.7.8-1.3.8-2s-.4-1.4-1-2.2l-.7.6zm-2.9-7.4c-.3 0-.6.3-.8.7l.9.3h-.2s.3.2.8 1.1c.2.6.4 1 .4 1.5l1-.2c0-.5-.2-1-.5-1.7-.7-1.2-1-1.7-1.6-1.7zm-11.9 4.3l-1 .5a4.3 4.3 0 00-1.6 1.7l.9.4c.3-.5.6-1 1.2-1.3l.8-.3 1-.4-.5-.8-.8.2zm-1 7.3l-1.2.4v-1.4h-1v2.6l.6-.1 2-.5-.1-.5-.3-.5zM148 65.9c0-.8.5-1.8 1.6-2.2l-.3-1a3.3 3.3 0 00-2.3 3.2v.6l1-.3a1.6 1.6 0 010-.3zm3.1 1.4c.5-.6.8-1.4.8-2.4 0-.7-.2-1.4-.4-2l-1 .4c.3.4.4 1 .4 1.6 0 .7-.2 1.4-.5 1.7l.7.7zM62 87.6c.4 1.2 1 2.4 1.8 3.6l.8-.5c-.7-1.2-1.3-2.3-1.7-3.5l-1 .4zm.4-6.6l.2-1.5h-1l-.2 1.4-.1 2.5h1l.1-2.4zm-.1-5.6a3.7 3.7 0 00-.5-1c-.5-.7-1.2-1-1.9-1.5l-.7-.4-.6.8.8.5c.7.4 1.3.7 1.6 1.1l.3.8 1-.3zm-4-15c.8-.6 1.7-.9 2.7-.8v-1c-1.4-.1-2.7.3-4 1.4l.4.4h-.1v.3c0 .6-.2 1.2-.5 1.9l.9.4a4.9 4.9 0 00.6-2.7zm-2.7 7a3.1 3.1 0 01.1-1l-1-.3a4 4 0 000 2c.1.6.5 1.3 1.1 2.2l.8-.6-1-1.8a3 3 0 010-.6zM68.5 62l-2.2-1-1.3-1-.5.9 1.5.8 2 1.1.6-.8zM74 77.2c-.3.3-.7.4-1.1.5a4.3 4.3 0 00-.7.1l.3 1 .5-.1c.6-.1 1.2-.2 1.7-.8.5-.5.7-1.3.8-2l-1-.1c0 .4-.2 1-.5 1.4zm2.4-8.6c.2.2.2.4.2.5v.6l-.1.5-.6 1.8 1 .3.5-2 .1-.4.1-.8a2 2 0 00-.3-1l-.9.5zm-9.2 19.6l-.8-.7-.3.5a3 3 0 00-.2 1.1l.1 1.2v.8a10.4 10.4 0 010 .6l1 .1v-3.4l.2-.2zm6-20.7l.4-.9c-1.1-.4-2.3-.8-3.7-.8v.1h-.5v.9h.5c1.2 0 2.2.3 3.3.7zm-3.6 15c-.1.3-.3.3-.6.5-.4.1-1 .4-1.2 1.2v.6l1-.2a.5.5 0 010-.2c0-.3.2-.4.6-.5.3-.2.7-.3 1-.7l.7-1.3-1-.3a4 4 0 01-.5 1z" opacity=".5"/></svg>