<svg xmlns="http://www.w3.org/2000/svg" data-tags="charts" viewBox="0 0 38 20"><path d="M28.15.28H9.85a9.85 9.85 0 000 19.7h18.3a9.85 9.85 0 000-19.7zm0 18.77H9.85a8.91 8.91 0 010-17.82h18.3a8.91 8.91 0 010 17.82z"/><path d="M15.18 11.12c-1.1-.66-2.82-.33-3.27-.23l-.04.01c-.13-.06-.39-.25-.59-.39-.19-.13-.39-.28-.6-.41-.01-.26.03-.54.14-.66.02-.02.06-.06.2-.05.06.01.24.12.34.18.3.18.63.38.96.21a.6.6 0 00.32-.53c.03-.56.51-1.06.93-1.5.38-.39.7-.73.72-1.14.05-.8-1.11-1.49-1.61-1.75l-.2-.1-.21.1c-.22.1-.46.18-.65.23l.22-.38c.2-.33.36-.58.2-.87l-.17-.25H5.09l-.14.16c-.32.43-1.04 1.49-.87 2.19.06.23.22.42.43.53l.16.08.17-.05c.63-.18 1.41-.35 1.73-.39.17.24.48.82.69 1.19.26.49.43.79.54.95.05.06.13.22.2.38.32.63.8 1.59 1.61 1.94.36.16.76.44 1.12.7.24.17.46.32.65.43-.14.4-.27.97-.02 1.5.17.37.4.62.57.82.23.26.31.35.29.56l-.06.47c-.21 1.54-.35 3.1.5 3.68a.7.7 0 00.4.12.8.8 0 00.48-.17c1.1-.76 2.8-5.31 2.54-6.35a1.94 1.94 0 00-.9-1.21zM9.77 9.57c-.4-.32-.72-.96-.93-1.37-.11-.21-.19-.38-.28-.5-.08-.11-.3-.5-.48-.85-.68-1.25-.85-1.5-1.07-1.62a.62.62 0 00-.32-.06c-.25 0-.72.07-1.65.31.09-.26.29-.63.53-.98h5.29c-.2.35-.35.74-.22 1.09.07.18.2.32.38.39.4.17 1.03-.03 1.42-.19.46.27.88.61.92.74-.03.11-.29.38-.47.57-.39.41-.91.95-1.11 1.63a1.57 1.57 0 00-.66-.27c-.51-.06-.82.14-.99.32-.21.22-.32.51-.36.79zm3.31 8.27c-.3-.5-.08-2.11 0-2.67l.06-.52c.05-.62-.27-.98-.53-1.26-.16-.18-.31-.34-.42-.59-.14-.3.04-.75.14-1.01l.01-.03c.63-.11 1.72-.2 2.34.17.24.15.39.35.46.63.22.85-1.42 4.64-2.06 5.28zm4.3-13.01l1.05-1.71-2.44-1.52-3.32 1.83 2.46 2.49 2.25-1.09zm-1.42-2.15l1.19.74-.42.68-1.41.68-1.12-1.13 1.76-.97zm17.3 1.39l-.13-.04c-.22-.07-2.2-.72-3.09-.72l-.28.02c-.23.05-.85.05-1.45.05-1 0-2.13.01-2.9.17-.45.1-.94.28-1.41.47-.63.24-1.29.5-1.77.5a.82.82 0 01-.38-.08c-.4-.24-.76-.35-1.12-.35-.32 0-.59.09-.86.18l-.43.13c-1.06.26-1.13 1.56-1.15 1.99v.05c-.03.55.53 1.1.71 1.26l.17.16.23-.04c.01 0 1.14-.21 1.82-.21h.08l-.14.23c-.1.16-.22.36-.34.6h-.07c-.26 0-.69-.11-1.09-.21a6.02 6.02 0 00-1.35-.24c-.8 0-.96.51-.99.75-.22.74-.8 2.95.05 3.69l.12.1.16.01 1.64.07c.21 3.59.36 3.86.41 3.96.15.26.46.4.89.4.58 0 1.25-.27 1.42-.88l.29-.89c1.34-4.12 1.26-4.17.86-4.41-.13-.08-.28-.11-.47-.15l-.3-.07c.25-.15.79-.32 1.3-.41l.12-.02c.33 1 .56 1.32.91 1.39l.1.01c.32 0 .56-.25.96-.66.14-.15.39-.4.55-.53l.18.4c.21.5.44 1.07.99 1.07h.06c.23-.02.78-.07 1.78-3.08l.06-.18-.22-.45 2.12-1.44-.27-.39-.1-.15c2.21-.02 2.45-.26 2.59-.41.44-.45.18-1.11-.18-1.55l-.08-.1zM30.6 5.2h-.32c-.2 0-.38.11-.47.28-.09.16-.14.37.19.93l-2.03 1.38.42.83c-.27.8-.63 1.66-.88 2.08l-.13-.31c-.2-.49-.43-1.05-.97-1.05-.45 0-.86.43-1.3.89a1.7 1.7 0 01-.19.19c-.08-.19-.2-.49-.35-1l-.03-.09a.56.56 0 00-.54-.41c-.21 0-.43.12-.64.35-.74.15-1.83.47-2 1.15a.8.8 0 00.09.61c.21.34.64.45.98.52-.16.73-.75 2.53-1.02 3.37l-.3.92c-.02.08-.24.2-.52.2h-.08c-.09-.53-.22-2.31-.31-3.9l-.02-.43-.43-.01c-.01 0-1.06-.03-1.83-.07-.15-.38-.02-1.57.31-2.65l.01-.04h.07c.28 0 .71.11 1.13.21.48.12.94.23 1.32.23.55 0 .78-.25.88-.46.11-.23.23-.42.33-.59.25-.4.5-.82.25-1.28-.18-.33-.6-.38-.99-.38-.57 0-1.35.12-1.74.18-.13-.15-.23-.3-.24-.36v-.06c.01-.28.05-1.03.43-1.12l.51-.15c.22-.07.39-.13.56-.13.11 0 .31.02.64.22.24.14.53.22.86.22.65 0 1.39-.29 2.1-.56.46-.18.89-.35 1.27-.43.68-.14 1.8-.15 2.71-.15.73 0 1.31 0 1.63-.07l.09-.01c.58 0 2 .42 2.65.63l.1.19c-.26.05-.92.13-2.2.13zm.69 7.58l-.13.02c-.23.06-.35.24-.47.42l-.17.25s-.1-.03-.29-.26l-.25-.3-2.42 1.32.55 2.18.42-.06c.01 0 .63-.08 1.13-.08.29 0 .39.03.4.03.05.03.17.16.25.25.28.3.6.63.99.63.21 0 .59-.09.75-.72.23-.93.04-3-.32-3.46a.57.57 0 00-.44-.22zm-.14 3.3l-.18-.18c-.17-.18-.31-.33-.47-.42a1.8 1.8 0 00-.86-.15c-.29 0-.59.02-.84.05l-.17-.67 1.13-.62c.48.42 1.03.35 1.33.08.1.57.15 1.38.06 1.91z"/><path d="M29.77 14.09l-1.13.62.17.67c.24-.02.55-.05.84-.05.41 0 .68.05.86.15.16.09.31.24.47.42l.18.18a6.9 6.9 0 00-.05-1.92c-.31.27-.85.35-1.34-.07zM14.2 3.65l1.12 1.13 1.41-.68.42-.68-1.19-.74zM30 6.41c-.33-.56-.28-.77-.19-.94a.52.52 0 01.47-.27h.32c1.29 0 1.94-.07 2.2-.14a.87.87 0 00-.1-.19c-.65-.21-2.07-.63-2.65-.63l-.09.01c-.32.07-.9.07-1.63.07-.91 0-2.03.01-2.71.15-.38.08-.81.25-1.27.43a6.2 6.2 0 01-2.1.56 1.6 1.6 0 01-.86-.22c-.33-.2-.52-.22-.64-.22-.17 0-.34.06-.56.13-.15.05-.32.11-.51.15-.38.09-.42.84-.43 1.12v.06c.01.06.12.21.24.36.4-.07 1.18-.18 1.74-.18.39 0 .8.04.99.38.26.47 0 .88-.25 1.28-.1.17-.22.36-.33.59-.1.21-.33.46-.88.46-.38 0-.83-.11-1.32-.23-.42-.1-.85-.21-1.13-.21h-.07l-.01.04c-.33 1.08-.46 2.26-.31 2.65.76.04 1.81.07 1.83.07l.43.01.02.43c.09 1.59.22 3.37.31 3.9h.08c.28 0 .5-.12.52-.2l.3-.92c.27-.84.86-2.63 1.02-3.37-.34-.07-.77-.18-.98-.52a.8.8 0 01-.09-.61c.17-.67 1.25-1 2-1.15.21-.24.43-.35.64-.35.25 0 .46.16.54.41l.03.09c.16.51.27.82.35 1l.19-.19c.44-.46.86-.89 1.3-.89.54.01.77.56.97 1.05l.13.31c.25-.42.61-1.28.88-2.08l-.42-.83L30 6.41zm-16.65.12a2.84 2.84 0 00-.92-.74c-.39.16-1.02.35-1.42.19a.64.64 0 01-.38-.39c-.13-.35.03-.74.22-1.09H5.57c-.24.35-.44.72-.53.97a7.58 7.58 0 011.65-.31c.19 0 .26.04.32.07.22.12.39.37 1.07 1.62.19.34.4.73.48.85.09.12.17.29.28.5.2.41.53 1.04.92 1.37.05-.28.16-.57.37-.79.17-.18.49-.39.99-.33.23.02.45.15.66.27.2-.68.71-1.22 1.11-1.63.17-.18.43-.46.46-.56zm1.35 5.39c-.63-.38-1.72-.28-2.34-.17l-.01.03c-.1.27-.28.72-.14 1.01.11.25.26.41.42.59.26.29.58.64.53 1.26l-.06.52c-.08.56-.3 2.16 0 2.67.64-.64 2.28-4.42 2.08-5.28a1.12 1.12 0 00-.48-.63z" opacity=".5"/></svg>