<svg xmlns="http://www.w3.org/2000/svg" data-tags="selected charts" viewBox="0 0 38 20"><path fill="#00CCE1" d="M15.18 11.12c-1.1-.66-2.82-.34-3.27-.23a.24.24 0 00-.05 0c-.13-.06-.39-.25-.59-.4l-.6-.4c0-.26.03-.55.14-.66.02-.02.06-.07.2-.05.07.02.24.12.34.18.3.18.63.39.96.21.11-.05.3-.2.32-.53.03-.55.51-1.06.93-1.5.38-.4.7-.73.73-1.14.04-.8-1.12-1.5-1.62-1.75l-.2-.1-.2.1a3.86 3.86 0 01-.66.22l.22-.38c.2-.33.36-.58.2-.87l-.16-.25H5.09l-.14.18c-.32.43-1.04 1.49-.87 2.19a.79.79 0 00.43.53l.16.08.17-.05c.64-.18 1.4-.36 1.73-.4.17.25.48.83.69 1.2.26.49.43.8.54.95.05.06.13.22.2.38.32.63.8 1.58 1.61 1.94.36.16.76.44 1.12.7.24.17.45.32.64.42-.14.4-.27.97-.02 1.5.17.38.4.63.57.83.24.25.3.35.29.55a9.26 9.26 0 01-.06.48c-.21 1.54-.35 3.1.5 3.67.07.05.2.13.4.13.13 0 .3-.04.48-.17 1.1-.76 2.8-5.31 2.54-6.35a1.89 1.89 0 00-.9-1.21z"/><path fill="#CBD756" d="M33.26 4.07l-.12-.05c-.23-.07-2.2-.72-3.1-.72a11.46 11.46 0 01-1.72.07c-1 .01-2.13.01-2.9.18-.45.1-.94.28-1.42.47-.63.24-1.28.5-1.76.5a.73.73 0 01-.38-.09c-.4-.24-.76-.35-1.12-.35-.32 0-.59.1-.85.18-.13.05-.27.1-.43.13-1.06.26-1.12 1.56-1.15 1.99v.05c-.03.55.53 1.1.7 1.26l.18.16.23-.05c.01 0 1.13-.2 1.82-.2h.07l-.13.23c-.1.16-.23.36-.35.6a.73.73 0 01-.06 0c-.27 0-.69-.1-1.1-.2a6.16 6.16 0 00-1.35-.24c-.8 0-.97.5-1 .75-.22.74-.8 2.95.05 3.69l.12.1.16.01 1.64.07c.2 3.6.36 3.86.41 3.96.15.26.47.4.9.4.58 0 1.25-.27 1.42-.87l.28-.9c1.34-4.11 1.26-4.16.86-4.4a1.48 1.48 0 00-.47-.15 3.72 3.72 0 01-.3-.08c.25-.14.79-.32 1.3-.4l.12-.03c.33 1 .56 1.32.91 1.39h.1c.32 0 .56-.24.96-.65.14-.16.38-.4.55-.53l.18.4c.2.5.44 1.07.99 1.07h.06c.23-.02.78-.08 1.78-3.08l.06-.19-.22-.44 2.12-1.45-.27-.39-.1-.14c2.22-.02 2.45-.26 2.6-.4.44-.45.18-1.12-.18-1.56l-.09-.1z"/><g fill="#40A3F5"><path d="M28.15.28H9.85a9.85 9.85 0 100 19.7h18.3a9.85 9.85 0 100-19.7zm0 18.77H9.85a8.91 8.91 0 110-17.83h18.3a8.91 8.91 0 010 17.83z"/><path d="M12.67 3.42l2.45 2.5 2.26-1.1 1.06-1.7-2.45-1.52zm18.62 9.36l-.13.02c-.23.06-.35.24-.47.42l-.17.25s-.1-.03-.3-.26l-.24-.3-2.43 1.32.55 2.18.42-.05s.62-.09 1.12-.09c.3 0 .4.03.4.03.05.03.18.16.26.25.28.3.59.63.99.63.2 0 .59-.1.74-.72.24-.94.05-3-.31-3.46a.53.53 0 00-.43-.22z"/></g></svg>