<svg xmlns="http://www.w3.org/2000/svg" data-tags="error state" viewBox="0 0 200 93"><path d="M10.5 49h-1v2.5H7v1h2.5V55h1v-2.5H13v-1h-2.5zm187 16.5V63h-1v2.5H194v1h2.5V69h1v-2.5h2.5v-1zm-194-35a3 3 0 100 6 3 3 0 000-6zm0 5a2 2 0 110-4 2 2 0 010 4zm188 39a3 3 0 100 6 3 3 0 000-6zm0 5a2 2 0 110-4 2 2 0 010 4zm-125-63h-13V65h1v-6.5h91V65h1V16.5h-80zm-12 1h12v15h-12v-15zm64.7 15H93.8v-7h25.4v7zm-26.4 0H67.5v-7h25.3v7zm-38.3 25v-11h91v11h-91zm91-12h-91v-12h91v12zm-25.3-13v-7h25.3v7h-25.3zm0-8H67.5v-7h78v7h-25.3z"/><g opacity=".5"><path d="M54.5 17.5h12v15h-12zm13 0h78v7h-78zm0 8h25.3v7H67.5zm26.3 0h25.4v7H93.8zm26.4 0h25.3v7h-25.3z"/><path d="M180 .5H20A2.5 2.5 0 0017.5 3v90h1V3c0-.8.7-1.5 1.5-1.5h160c.8 0 1.5.7 1.5 1.5v88h1V3A2.5 2.5 0 00180 .5z"/><path d="M102 69.5h4v1h-4zm8 0h4v1h-4zm-24 0h4v1h-4zm-24 0h4v1h-4zm56 0h4v1h-4zm-48 0h4v1h-4zm8 0h4v1h-4zm16 0h4v1h-4zm32 0h4v1h-4zm8 0h4v1h-4zm-8 12h4v1h-4zm-48 0h4v1h-4zm64 0h4v1h-4zm-88 0h4v1h-4zm16 0h4v1h-4zm-8 0h4v1h-4zm24 0h4v1h-4zm8 0h4v1h-4zm24 0h4v1h-4zm16 0h4v1h-4zm-24 0h4v1h-4zm-8 0h4v1h-4zM54.5 68h-1v4h1v-1.5H58v-1h-3.5zm-1 16h1v4h-1zm0-8h1v4h-1zm92-6.5H142v1h3.5V72h1v-4h-1zm0 6.5h1v4h-1zm0 8h1v4h-1z"/></g><path fill-rule="evenodd" d="M97.4 26.4c1.4-2.3 3.8-2.3 5.2 0l8 13.2 15 24.5c1.4 2.3.3 4.2-2.5 4.2H77c-2.8 0-3.9-1.9-2.4-4.2l22.9-37.7z" clip-rule="evenodd"/><g fill="#FFF" fill-rule="evenodd" clip-rule="evenodd"><path d="M126 63.8l-23-37.6c-.8-1.3-1.8-2-3-2s-2.2.7-3 2L74 63.8c-.8 1.3-.9 2.5-.3 3.5.5 1 1.6 1.5 3.2 1.5H123c1.6 0 2.7-.5 3.2-1.5.6-1 .5-2.2-.3-3.5zm-.5 3c-.4.7-1.2 1-2.4 1H77c-1.2 0-2-.3-2.4-1-.3-.6-.2-1.5.4-2.5l23-37.6c.5-1 1.3-1.5 2.1-1.5s1.6.5 2.2 1.5L125 64.3c.6 1 .7 1.9.4 2.5z"/><path d="M98.8 57.3h3.2v3.2h-3.2zm0-17.3h3.2v14.2h-3.2z"/></g></svg>