<svg xmlns="http://www.w3.org/2000/svg" data-tags="Loading state" viewBox="0 0 200 93"><path d="M10.5 49h-1v2.5H7v1h2.5V55h1v-2.5H13v-1h-2.5zm187 16.5V63h-1v2.5H194v1h2.5V69h1v-2.5h2.5v-1zm-194-35a3 3 0 100 6 3 3 0 000-6zm0 5a2 2 0 110-4 2 2 0 010 4zm188 39a3 3 0 100 6 3 3 0 000-6zm0 5a2 2 0 110-4 2 2 0 010 4zm-125-63h-13V65h1v-6.5h91V65h1V16.5h-80zm-12 1h12v15h-12v-15zm64.7 15H93.8v-7h25.4v7zm-26.4 0H67.5v-7h25.3v7zm-38.3 25v-11h91v11h-91zm91-12h-91v-12h91v12zm-25.3-13v-7h25.3v7h-25.3zm0-8H67.5v-7h78v7h-25.3z"/><path d="M54.5 17.5h12v15h-12zm13 0h78v7h-78zm0 8h25.3v7H67.5zm26.3 0h25.4v7H93.8zm26.4 0h25.3v7h-25.3zm-18.2 44h4v1h-4zm8 0h4v1h-4zm-24 0h4v1h-4zm-24 0h4v1h-4zm56 0h4v1h-4zm-48 0h4v1h-4zm8 0h4v1h-4zm16 0h4v1h-4zm32 0h4v1h-4zm8 0h4v1h-4zm-8 12h4v1h-4zm-48 0h4v1h-4zm64 0h4v1h-4zm-88 0h4v1h-4zm16 0h4v1h-4zm-8 0h4v1h-4zm24 0h4v1h-4zm8 0h4v1h-4zm24 0h4v1h-4zm16 0h4v1h-4zm-24 0h4v1h-4zm-8 0h4v1h-4zM54.5 68h-1v4h1v-1.5H58v-1h-3.5zm-1 16h1v4h-1zm0-8h1v4h-1zm92-6.5H142v1h3.5V72h1v-4h-1zm0 6.5h1v4h-1zm0 8h1v4h-1z" opacity=".5"/></svg>