<svg xmlns="http://www.w3.org/2000/svg" data-tags="selected charts" viewBox="0 0 33 29"><path fill="#4CD2E0" d="M21.64 4.096H11.25V2A1.125 1.125 0 009 2v2.096H2a1.125 1.125 0 000 2.25h2.687a16.581 16.581 0 004.66 10.57c-3.122 2.259-6.143 3.483-6.207 3.509a1.124 1.124 0 00.826 2.093c.295-.117 3.678-1.485 7.101-4.042 2.218 1.721 4.77 2.78 7.258 2.975a1.125 1.125 0 10.178-2.242c-2.184-.172-4.074-.987-5.668-2.17 2.975-2.641 5.565-6.217 5.625-10.693h3.18a1.125 1.125 0 000-2.25zM11.122 15.51C8.65 12.883 7.208 9.326 6.936 6.346h9.273c-.077 3.757-2.412 6.845-5.085 9.164z"/><path fill="#CBD756" d="M32.031 27.136L23.95 8.574c-.18-.412-.595-.696-1.038-.676-.45.003-.855.274-1.03.688L14.06 27.148a1.125 1.125 0 102.073.873l2.685-6.371 8.395.057 2.756 6.327a1.125 1.125 0 002.063-.898zm-12.267-7.73l3.17-7.526 3.297 7.57-6.468-.044z"/></svg>