<svg xmlns="http://www.w3.org/2000/svg" viewBox="0 0 668 304" data-tags="preview"><path fill="#40A3F5" d="M193.2 227.5h-.3l-141-29 .2-1 140.7 29 93-94 143.2-6 125.8-17 70.9-48.9.6.8-71.1 49.1-126.1 17-142.9 6z"/><path fill="#9E81EB" d="M444.9 210.6l-.2-.2L298.9 78.6l-134.9 60-.3-.2-110-64 .6-.8L164 137.4l135.1-60 .2.2 145.8 131.8 186.7-64.9.4 1z"/><path d="M52.5 251.5V30h-1v222.5H640v-1zm274.2 24.9h-1.1l-2.1 3.4-2.2-3.4h-1.1l2.7 4.1-2.9 4.5h1.1l2.3-3.8 2.3 3.8h1.2l-2.9-4.5zm10.7 0L334 285h1l1.1-2.7h3.4l1.1 2.7h1l-3.4-8.6h-.8zm-1 5l1-2.7c.2-.4.3-.9.4-1.2.1.5.3.9.4 1.2l1 2.7h-2.8zm13.9-5h-1.1l-2.1 3.4-2.1-3.4h-1.1l2.6 4.1-2.8 4.5h1l2.4-3.8 2.3 3.8h1.1l-2.9-4.5zm3.4 0h1v8.6h-1zm7.8 3.9c-.5-.2-.9-.4-1.2-.5-.3-.1-.4-.3-.6-.5s-.2-.4-.2-.7c0-.4.1-.7.4-.9.3-.2.7-.3 1.2-.3.7 0 1.4.1 2.1.4l.3-.9c-.7-.3-1.5-.5-2.3-.5s-1.5.2-2 .6c-.5.4-.7.9-.7 1.6 0 .6.2 1.1.5 1.5.3.4.9.7 1.7 1 .6.2 1 .4 1.3.5.3.1.5.3.6.5.1.2.2.4.2.7 0 .4-.2.8-.5 1.1-.3.3-.8.4-1.5.4-.4 0-.8 0-1.2-.1-.4-.1-.8-.2-1.1-.4v1c.5.3 1.3.4 2.3.4.9 0 1.7-.2 2.2-.6.5-.4.8-1 .8-1.8 0-.6-.2-1.1-.5-1.4s-.9-.8-1.8-1.1zm-341.1-121v1.1l4.3 2.2-4.3 2.3v1.1l5.3-2.9H29v-1h-3.3zm0-10.5l8.6 3.4v-1l-2.7-1.1v-3.4l2.7-1.1v-1l-8.6 3.4v.8zm2.3-.8l2.7-1v2.8l-2.7-1c-.4-.2-.9-.3-1.2-.4.5-.1.9-.3 1.2-.4zm-2.3-12.1v1.1l3.4 2.1-3.4 2.2v1.1l4.1-2.7 4.5 2.8v-1l-3.8-2.4 3.8-2.3v-1.1l-4.5 2.9zm0-4.4H29v1h-8.6zm6.3-9.2c-.6 0-1.1.2-1.4.5s-.7 1-1 1.9c-.2.5-.4.9-.5 1.2-.1.3-.3.4-.5.6s-.4.2-.7.2c-.4 0-.7-.1-.9-.4s-.3-.7-.3-1.2c0-.7.1-1.4.4-2.1l-.9-.3c-.3.7-.5 1.5-.5 2.3s.2 1.5.6 2 .9.7 1.6.7c.6 0 1.1-.2 1.5-.5.4-.3.7-.9 1-1.7.2-.6.4-1 .5-1.3.1-.3.3-.5.5-.6.2-.1.4-.2.7-.2.4 0 .8.2 1.1.5.3.3.4.8.4 1.5 0 .4 0 .8-.1 1.2-.1.4-.2.8-.4 1.1h1c.3-.5.4-1.3.4-2.3 0-.9-.2-1.7-.6-2.2-.4-.5-1.1-.9-1.9-.9zm343.7-8.2h-4.7l4.5-6.9v-.8h-5.6v.9h4.4l-4.5 6.9v.8h5.9zm9.7-1.8h3.4l1.1 2.7h1l-3.4-8.6h-.9L378 115h1l1.1-2.7zm1.3-3.6c.2-.4.3-.9.4-1.2.1.5.3.9.4 1.2l1 2.7h-2.8l1-2.7zm7.2 6.3l2.4-3.8 2.3 3.8h1.1l-2.8-4.5 2.6-4.1h-1l-2.2 3.4-2.1-3.4h-1.1l2.6 4.1-2.8 4.5zm9-8.6h1v8.6h-1zm9.3 8.2c.5-.4.8-1 .8-1.8.1-.7-.1-1.1-.4-1.5-.3-.4-1-.7-1.9-1-.5-.2-.9-.4-1.2-.5-.3-.1-.4-.3-.6-.5s-.2-.4-.2-.7c0-.4.1-.7.4-.9s.7-.3 1.2-.3c.7 0 1.4.1 2.1.4l.3-.9c-.7-.3-1.5-.5-2.3-.5s-1.5.2-2 .6-.7.9-.7 1.6c0 .6.2 1.1.5 1.5.3.4.9.7 1.7 1 .6.2 1 .4 1.3.5.3.1.5.3.6.5.1.2.2.4.2.7 0 .4-.2.8-.5 1.1-.3.3-.8.4-1.5.4-.4 0-.8 0-1.2-.1-.4-.1-.8-.2-1.1-.4v1c.5.3 1.3.4 2.3.4.9 0 1.7-.2 2.2-.6z" fill="#A9A9B2"/></svg>