<svg xmlns="http://www.w3.org/2000/svg" data-tags="error state" viewBox="0 0 200 93"><path d="M10.5 49h-1v2.5H7v1h2.5V55h1v-2.5H13v-1h-2.5zm187 16.5V63h-1v2.5H194v1h2.5V69h1v-2.5h2.5v-1zm-194-35a3 3 0 100 6 3 3 0 000-6zm0 5a2 2 0 110-4 2 2 0 010 4zm188 39a3 3 0 100 6 3 3 0 000-6zm0 5a2 2 0 110-4 2 2 0 010 4zm-83.5-45a4.5 4.5 0 00-4.5 4.5c0 .6.1 1.2.3 1.7l-7.1 5.7a4.5 4.5 0 00-3.7-1.9c-2 0-3.7 1.3-4.3 3.1l-23.3-10 .1-.6a4.5 4.5 0 10-4.5 4.5 4.5 4.5 0 004.2-2.9l23.3 10v.4a4.5 4.5 0 108.7-1.7l7.1-5.7a4.5 4.5 0 003.7 1.9 4.5 4.5 0 000-9zm-47 6a3.5 3.5 0 110-7 3.5 3.5 0 010 7zm32 12a3.5 3.5 0 01-3.4-4V48a3.5 3.5 0 013.4-2.5 3.5 3.5 0 010 7zm15-10c-1.4 0-2.6-.8-3.2-2a4.2 4.2 0 01-.1-.5 3.5 3.5 0 01-.2-1 3.5 3.5 0 113.5 3.5zm-8 23c-1.7 0-3.1 1-3.9 2.3l-11.8-5.5.2-1.3a4.5 4.5 0 00-9 0c0 .8.2 1.5.6 2.2L63.8 74.5a4.5 4.5 0 00-2.8-1 4.5 4.5 0 104.5 4.5c0-1-.4-2-1-2.8L76.7 64a4.5 4.5 0 007.2-.8l11.8 5.5a4.4 4.4 0 00-.2 1.3 4.5 4.5 0 104.5-4.5zm-39 16a3.5 3.5 0 110-7 3.5 3.5 0 010 7zm19-17a3.5 3.5 0 110-7 3.5 3.5 0 010 7zm20 9a3.5 3.5 0 110-7 3.5 3.5 0 010 7z"/><g opacity=".6"><path d="M180 .5H20A2.5 2.5 0 0017.5 3v90h1V3c0-.8.7-1.5 1.5-1.5h160c.8 0 1.5.7 1.5 1.5v88h1V3A2.5 2.5 0 00180 .5z"/><path d="M120.5 48l.6-.8 3.2 2.5-.7.8zm-6.4-4.8l.6-.8 3.2 2.4-.6.8zm12.7 9.7l.7-.8 3.1 2.4-.6.8zm12.8 9.6l.6-.8 3.2 2.4-.6.8zm-6.4-4.8l.6-.8 3.2 2.4-.6.8zm12.8 9.6l.6-.8 2.7 2.1-.6.8zm-42.8.8l3-2.6.7.8-3 2.6zm6-5.2l3-2.6.7.8-3 2.6zm12.2-10.4l3-2.6.7.8-3 2.6zm-6 5.2l3-2.6.6.8-3 2.6zm12-10.4l3.1-2.6.7.8-3 2.6zM45 88.5h110v1H45z"/></g><path fill-rule="evenodd" d="M97.4 26.5c1.4-2.4 3.8-2.4 5.2 0l8 13.1 15 24.5c1.4 2.4.3 4.3-2.5 4.3H77c-2.8 0-3.9-2-2.4-4.3l22.9-37.6z" clip-rule="evenodd"/><g fill="#FFF" fill-rule="evenodd" clip-rule="evenodd"><path d="M126 63.8l-23-37.6c-.8-1.3-1.8-2-3-2s-2.2.7-3 2L74 63.8c-.8 1.3-.9 2.6-.3 3.6.5 1 1.6 1.5 3.2 1.5H123c1.6 0 2.7-.6 3.2-1.5.6-1 .5-2.3-.3-3.6zm-.5 3c-.4.7-1.2 1-2.4 1H77c-1.2 0-2-.3-2.4-1-.3-.6-.2-1.5.4-2.4l23-37.6c.5-1 1.3-1.6 2.1-1.6s1.6.6 2.2 1.5L125 64.4c.6 1 .7 1.8.4 2.5z"/><path d="M98.8 57.4h3.2v3.1h-3.2zm0-17.3h3.2v14.1h-3.2z"/></g></svg>