<svg data-tags="dashboard thumbnails,listening" xmlns="http://www.w3.org/2000/svg" viewBox="0 0 185 92"><path d="M91.652 78.095a.526.526 0 0 1-.53-.5.475.475 0 0 1 .47-.5h.06a31.553 31.553 0 0 0 4.805-.368.5.5 0 0 1 .152.988 32.534 32.534 0 0 1-4.957.38Zm-4.997-.393a.539.539 0 0 1-.08-.006 32.034 32.034 0 0 1-4.893-1.18.5.5 0 1 1 .31-.951 31.019 31.019 0 0 0 4.74 1.143.5.5 0 0 1-.077.994Zm14.7-1.125a.5.5 0 0 1-.153-.976 31.16 31.16 0 0 0 4.51-1.86.5.5 0 0 1 .454.892 32.112 32.112 0 0 1-4.658 1.92.493.493 0 0 1-.153.024Zm-24.092-1.942a.504.504 0 0 1-.228-.054 32.312 32.312 0 0 1-4.283-2.64.5.5 0 0 1 .59-.809 31.114 31.114 0 0 0 4.15 2.558.5.5 0 0 1-.229.945Zm32.904-2.532a.5.5 0 0 1-.293-.905 31.312 31.312 0 0 0 3.714-3.161.5.5 0 0 1 .705.709 32.318 32.318 0 0 1-3.833 3.262.499.499 0 0 1-.293.095Zm-40.882-3.291a.498.498 0 0 1-.354-.146 32.297 32.297 0 0 1-3.265-3.832.5.5 0 1 1 .808-.587 31.32 31.32 0 0 0 3.164 3.711.5.5 0 0 1-.353.854Zm47.887-3.678a.5.5 0 0 1-.404-.795 31.393 31.393 0 0 0 2.562-4.147.5.5 0 1 1 .888.457 32.26 32.26 0 0 1-2.643 4.28.5.5 0 0 1-.403.205Zm-53.69-4.32a.498.498 0 0 1-.445-.273 31.92 31.92 0 0 1-1.924-4.657.5.5 0 1 1 .951-.306 31.003 31.003 0 0 0 1.863 4.51.499.499 0 0 1-.218.671.493.493 0 0 1-.227.055Zm58.203-4.467a.5.5 0 0 1-.475-.655 30.966 30.966 0 0 0 1.148-4.738.5.5 0 1 1 .988.158 32.186 32.186 0 0 1-1.185 4.89.501.501 0 0 1-.476.345ZM60.44 51.411a.5.5 0 0 1-.493-.423 32.501 32.501 0 0 1-.386-4.992.51.51 0 0 1 .5-.513.489.489 0 0 1 .5.487v.026a31.475 31.475 0 0 0 .374 4.837.501.501 0 0 1-.417.572.527.527 0 0 1-.078.006Zm62.812-4.867a.46.46 0 0 1-.5-.45v-.098a31.259 31.259 0 0 0-.365-4.768.5.5 0 1 1 .989-.152 32.374 32.374 0 0 1 .376 4.92.544.544 0 0 1-.5.548ZM60.45 41.53a.54.54 0 0 1-.08-.006.5.5 0 0 1-.415-.572 32.003 32.003 0 0 1 1.175-4.895.5.5 0 0 1 .95.31 30.82 30.82 0 0 0-1.137 4.74.5.5 0 0 1-.493.423Zm61.293-4.7a.498.498 0 0 1-.476-.346 30.917 30.917 0 0 0-1.855-4.512.5.5 0 0 1 .892-.453 31.959 31.959 0 0 1 1.914 4.658.499.499 0 0 1-.322.63.493.493 0 0 1-.153.024Zm-58.237-4.694a.5.5 0 0 1-.446-.727 32.263 32.263 0 0 1 2.635-4.286.5.5 0 1 1 .809.587 31.357 31.357 0 0 0-2.553 4.154.5.5 0 0 1-.446.272Zm53.772-4.122a.498.498 0 0 1-.405-.207 31.54 31.54 0 0 0-3.158-3.718.5.5 0 1 1 .71-.705 32.517 32.517 0 0 1 3.258 3.837.5.5 0 0 1-.405.793Zm-47.957-3.863a.5.5 0 0 1-.354-.854 32.514 32.514 0 0 1 3.828-3.27.5.5 0 0 1 .588.81 31.536 31.536 0 0 0-3.708 3.167.498.498 0 0 1-.354.147Zm40.993-3.148a.5.5 0 0 1-.296-.096 31.348 31.348 0 0 0-4.144-2.566.5.5 0 0 1 .459-.888 32.278 32.278 0 0 1 4.277 2.647.5.5 0 0 1-.296.903ZM77.312 18.34a.5.5 0 0 1-.227-.945 32.088 32.088 0 0 1 4.653-1.929.5.5 0 1 1 .309.951 31.13 31.13 0 0 0-4.507 1.869.5.5 0 0 1-.228.054Zm24.22-1.858a.485.485 0 0 1-.155-.025 30.76 30.76 0 0 0-4.738-1.152.5.5 0 0 1 .158-.988 31.808 31.808 0 0 1 4.892 1.19.5.5 0 0 1-.156.975Zm-14.82-1.192a.5.5 0 0 1-.077-.995 32.398 32.398 0 0 1 5.017-.39h.128a.5.5 0 0 1 0 1h-.116a31.429 31.429 0 0 0-4.874.379.516.516 0 0 1-.078.006Z" fill="#2e9975"/><path d="M91.541 16.745a28.96 28.96 0 1 0 28.96 28.96 28.959 28.959 0 0 0-28.96-28.96Z" fill="#a3cb38"/><path d="M79.302 55.034a.5.5 0 0 1-.292-.907l2.03-1.459a.5.5 0 1 1 .585.813l-2.03 1.459a.5.5 0 0 1-.293.094ZM86.105 50.149a.5.5 0 0 1-.292-.906l4.773-3.426a.5.5 0 0 1 .584.812l-4.773 3.426a.5.5 0 0 1-.292.094ZM95.65 43.297a.5.5 0 0 1-.292-.906l2.031-1.458a.5.5 0 1 1 .584.813l-2.031 1.458a.5.5 0 0 1-.292.093ZM86.147 45.239a.5.5 0 0 1-.357-.15l-1.747-1.79a.5.5 0 0 1 .714-.699l1.748 1.79a.5.5 0 0 1-.358.849Z" fill="#2e9975"/><path d="M92.525 51.769a.5.5 0 0 1-.357-.15l-3.19-3.265a.5.5 0 1 1 .715-.7l3.19 3.265a.5.5 0 0 1-.358.85ZM97.462 56.823a.5.5 0 0 1-.358-.15l-1.747-1.79a.5.5 0 0 1 .715-.699l1.747 1.79a.5.5 0 0 1-.357.849Z" fill="#2e9975"/><path d="m122.028 55.259-25.348-.15a.528.528 0 0 0-.356.145.498.498 0 0 0-.147.355V71.63a.5.5 0 0 0 .497.5l13.924.085 1.262 2.773a.5.5 0 0 0 .444.293h.011a.5.5 0 0 0 .446-.272l1.418-2.773 7.843.048a.667.667 0 0 0 .356-.145.498.498 0 0 0 .147-.355V55.76a.5.5 0 0 0-.497-.5ZM84.403 24.534l-14.145-.096-1.292-3.12a.5.5 0 0 0-.451-.308.471.471 0 0 0-.464.289l-1.45 3.117-7.964-.055a.548.548 0 0 0-.356.145.5.5 0 0 0-.147.355v17.922a.5.5 0 0 0 .496.5l25.767.167h.003a.5.5 0 0 0 .5-.5V25.034a.5.5 0 0 0-.497-.5Z" fill="#327afd"/><path d="M69.609 40.303a1 1 0 0 1-1-1v-10.26a1 1 0 1 1 2 0v10.26a1 1 0 0 1-1 1ZM65.47 37.574a1 1 0 0 1-1-1v-4.801a1 1 0 0 1 2 0v4.8a1 1 0 0 1-1 1ZM73.58 39.2a1 1 0 0 1-1-1v-8.053a1 1 0 1 1 2 0V38.2a1 1 0 0 1-1 1ZM77.565 37.574a1 1 0 0 1-1-1v-4.801a1 1 0 0 1 2 0v4.8a1 1 0 0 1-1 1ZM107.443 70.424a1 1 0 0 1-1-1v-10.26a1 1 0 0 1 2 0v10.26a1 1 0 0 1-1 1ZM103.303 67.695a1 1 0 0 1-1-1v-4.801a1 1 0 1 1 2 0v4.8a1 1 0 0 1-1 1ZM111.415 69.32a1 1 0 0 1-1-1v-8.052a1 1 0 0 1 2 0v8.053a1 1 0 0 1-1 1ZM115.4 67.695a1 1 0 0 1-1-1v-4.801a1 1 0 1 1 2 0v4.8a1 1 0 0 1-1 1Z" fill="#fff"/><path d="m126.657 35.598-2.931-2.1v-9.683a.5.5 0 0 0-.496-.5l-25.77-.18h-.004a.5.5 0 0 0-.5.5v17.92a.5.5 0 0 0 .496.5l25.77.17h.004a.5.5 0 0 0 .5-.5v-3.13l2.94-2.19a.5.5 0 0 0-.009-.807Z" fill="#8c43ff"/><path fill="#fff" d="M63.055 59.006h15.442v4.539H63.055z"/><path d="M71.517 50.976A10.305 10.305 0 0 0 61.212 61.28a9.649 9.649 0 0 0 2.161 6.28l-1.512 3.682a.384.384 0 0 0 .43.535l5.463-.942a11.334 11.334 0 0 0 3.763.752h.116a10.306 10.306 0 0 0-.116-20.612ZM65.7 62.546a1.163 1.163 0 0 1 0-2.326 1.163 1.163 0 1 1 0 2.326Zm5.817 0a1.163 1.163 0 0 1 0-2.326 1.163 1.163 0 0 1 0 2.326Zm5.817 0a1.163 1.163 0 1 1 1.164-1.163 1.163 1.163 0 0 1-1.164 1.163Z" fill="#8c43ff"/><circle cx="104.916" cy="32.679" r="1.28" fill="#fff"/><circle cx="110.165" cy="32.679" r="1.28" fill="#fff"/><circle cx="115.413" cy="32.679" r="1.28" fill="#fff"/></svg>