<svg data-tags="dashboard thumbnails,listening" xmlns="http://www.w3.org/2000/svg" viewBox="0 0 185 92"><path d="M95.344 78.095a.526.526 0 0 1-.53-.5.476.476 0 0 1 .472-.5h.058a31.375 31.375 0 0 0 4.806-.369.5.5 0 0 1 .154.988 32.411 32.411 0 0 1-4.96.381Zm-4.995-.392a.54.54 0 0 1-.08-.006 32.034 32.034 0 0 1-4.893-1.18.5.5 0 1 1 .31-.951 31.02 31.02 0 0 0 4.74 1.142.5.5 0 0 1-.077.995Zm14.7-1.126a.5.5 0 0 1-.154-.976 31.114 31.114 0 0 0 4.51-1.86.5.5 0 0 1 .454.892 32.222 32.222 0 0 1-4.658 1.92.493.493 0 0 1-.153.024Zm-24.092-1.942a.504.504 0 0 1-.228-.054 32.313 32.313 0 0 1-4.283-2.64.5.5 0 0 1 .59-.809 31.114 31.114 0 0 0 4.15 2.558.5.5 0 0 1-.229.945Zm32.905-2.532a.5.5 0 0 1-.293-.905 31.314 31.314 0 0 0 3.713-3.161.5.5 0 1 1 .706.709 32.318 32.318 0 0 1-3.833 3.262.499.499 0 0 1-.293.095Zm-40.883-3.291a.498.498 0 0 1-.354-.146 32.296 32.296 0 0 1-3.265-3.832.5.5 0 0 1 .808-.587 31.32 31.32 0 0 0 3.164 3.712.5.5 0 0 1-.353.853Zm47.885-3.68a.5.5 0 0 1-.404-.795 31.391 31.391 0 0 0 2.562-4.147.5.5 0 0 1 .888.457 32.258 32.258 0 0 1-2.643 4.28.5.5 0 0 1-.403.205Zm-53.688-4.318a.498.498 0 0 1-.445-.273 31.746 31.746 0 0 1-1.925-4.657.5.5 0 1 1 .951-.306 30.981 30.981 0 0 0 1.864 4.51.499.499 0 0 1-.218.671.493.493 0 0 1-.227.055Zm58.202-4.468a.5.5 0 0 1-.475-.655 30.966 30.966 0 0 0 1.148-4.738.507.507 0 0 1 .573-.415.502.502 0 0 1 .415.573 32.185 32.185 0 0 1-1.185 4.89.501.501 0 0 1-.476.345Zm-61.245-4.935a.5.5 0 0 1-.493-.423 32.523 32.523 0 0 1-.386-4.993.51.51 0 0 1 .5-.513.49.49 0 0 1 .5.488v.025a31.497 31.497 0 0 0 .374 4.839.501.501 0 0 1-.417.57.527.527 0 0 1-.078.007Zm62.812-4.868a.46.46 0 0 1-.5-.45v-.098a31.259 31.259 0 0 0-.365-4.768.5.5 0 0 1 .989-.152 32.374 32.374 0 0 1 .376 4.92.544.544 0 0 1-.5.548Zm-62.802-5.011a.538.538 0 0 1-.08-.006.5.5 0 0 1-.415-.572 32.018 32.018 0 0 1 1.175-4.896.5.5 0 1 1 .95.31 30.832 30.832 0 0 0-1.137 4.742.5.5 0 0 1-.493.422Zm61.294-4.703a.498.498 0 0 1-.476-.347 30.918 30.918 0 0 0-1.855-4.512.5.5 0 1 1 .892-.453 31.959 31.959 0 0 1 1.914 4.658.499.499 0 0 1-.322.63.493.493 0 0 1-.153.024Zm-58.238-4.693a.5.5 0 0 1-.445-.727 32.263 32.263 0 0 1 2.635-4.286.5.5 0 1 1 .809.587 31.357 31.357 0 0 0-2.553 4.154.5.5 0 0 1-.446.272Zm53.773-4.123a.498.498 0 0 1-.405-.207 31.54 31.54 0 0 0-3.158-3.718.5.5 0 0 1 .71-.705 32.518 32.518 0 0 1 3.258 3.837.5.5 0 0 1-.405.793Zm-47.958-3.862a.5.5 0 0 1-.354-.854 32.514 32.514 0 0 1 3.828-3.27.5.5 0 1 1 .587.81 31.537 31.537 0 0 0-3.708 3.167.498.498 0 0 1-.353.147Zm40.994-3.148a.5.5 0 0 1-.296-.096 31.255 31.255 0 0 0-4.145-2.566.5.5 0 0 1 .459-.888 32.352 32.352 0 0 1 4.278 2.647.5.5 0 0 1-.296.903ZM81.005 18.34a.5.5 0 0 1-.227-.945 32.09 32.09 0 0 1 4.653-1.929.5.5 0 1 1 .309.951 31.128 31.128 0 0 0-4.507 1.869.5.5 0 0 1-.228.054Zm24.22-1.858a.485.485 0 0 1-.155-.025 30.758 30.758 0 0 0-4.738-1.152.502.502 0 0 1-.415-.573.507.507 0 0 1 .574-.415 31.807 31.807 0 0 1 4.891 1.19.5.5 0 0 1-.156.975Zm-14.821-1.192a.5.5 0 0 1-.077-.995 32.397 32.397 0 0 1 5.017-.39h.129a.5.5 0 0 1 0 1h-.129a31.392 31.392 0 0 0-4.862.379.516.516 0 0 1-.078.006Z" fill="#fb8f53"/><path d="M95.235 16.745a28.96 28.96 0 1 0 28.96 28.96 28.959 28.959 0 0 0-28.96-28.96Z" fill="#ffc312"/><path d="M106.335 32.275v3.17h-48.78v-3.17a2 2 0 0 1 2-2h44.78a1.993 1.993 0 0 1 2 2Z" fill="#108cc5"/><path d="M106.335 35.445v24.59a2 2 0 0 1-2 2h-44.78a2.006 2.006 0 0 1-2-2v-24.59Z" fill="#fff"/><path d="M72.077 51.61v6.397h-3.31V51.61a.956.956 0 0 1 .981-.915h1.358a.946.946 0 0 1 .971.915Z" fill="#763bd2"/><path d="M66.533 47.057v10.95h-3.311v-10.95a.957.957 0 0 1 .982-.926h1.358a.948.948 0 0 1 .97.922Z" fill="#a3cb38"/><path d="M77.622 49.185v8.8h-3.311v-8.8a.957.957 0 0 1 .982-.925h1.358a.948.948 0 0 1 .971.922Z" fill="#d6498b"/><rect x="61.27" y="37.648" width="40.912" height="3.633" rx=".497" fill="#fb8f53"/><rect x="81.945" y="45.288" width="20.237" height="2.209" rx="1.105" fill="#108cc5"/><rect x="81.945" y="50.532" width="20.237" height="2.209" rx="1.105" fill="#108cc5"/><rect x="81.945" y="55.776" width="20.237" height="2.209" rx="1.105" fill="#108cc5"/><path d="M103.167 60.058a13.264 13.264 0 1 1 13.264-13.264 13.28 13.28 0 0 1-13.264 13.264Zm0-24.028a10.764 10.764 0 1 0 10.764 10.764 10.777 10.777 0 0 0-10.764-10.764Z" fill="#763bd2"/><path d="M124.865 69.992a1.495 1.495 0 0 1-1.061-.44l-12.858-12.858a1.5 1.5 0 1 1 2.12-2.12l12.86 12.858a1.5 1.5 0 0 1-1.061 2.56Z" fill="#763bd2"/></svg>