<svg data-tags="dashboard thumbnails,listening" xmlns="http://www.w3.org/2000/svg" viewBox="0 0 185 92"><path d="M92.495 78.095a.526.526 0 0 1-.53-.5.476.476 0 0 1 .472-.5h.058a31.375 31.375 0 0 0 4.805-.369.5.5 0 0 1 .155.988 32.411 32.411 0 0 1-4.96.381Zm-4.995-.392a.54.54 0 0 1-.08-.006 32.034 32.034 0 0 1-4.893-1.18.5.5 0 1 1 .31-.951 31.02 31.02 0 0 0 4.74 1.142.5.5 0 0 1-.077.995Zm14.699-1.126a.5.5 0 0 1-.154-.976 31.114 31.114 0 0 0 4.511-1.86.5.5 0 0 1 .453.892 32.222 32.222 0 0 1-4.657 1.92.493.493 0 0 1-.153.024Zm-24.091-1.942a.504.504 0 0 1-.229-.054 32.313 32.313 0 0 1-4.283-2.64.5.5 0 0 1 .59-.809 31.114 31.114 0 0 0 4.15 2.558.5.5 0 0 1-.228.945Zm32.904-2.532a.5.5 0 0 1-.293-.905 31.314 31.314 0 0 0 3.714-3.161.5.5 0 1 1 .705.709 32.318 32.318 0 0 1-3.833 3.262.499.499 0 0 1-.293.095ZM70.13 68.812a.498.498 0 0 1-.353-.146 32.297 32.297 0 0 1-3.266-3.832.5.5 0 0 1 .809-.587 31.32 31.32 0 0 0 3.164 3.711.5.5 0 0 1-.354.854Zm47.885-3.68a.5.5 0 0 1-.403-.795 31.391 31.391 0 0 0 2.561-4.147.5.5 0 0 1 .889.457 32.26 32.26 0 0 1-2.644 4.28.5.5 0 0 1-.403.205Zm-53.687-4.318a.498.498 0 0 1-.446-.273 31.746 31.746 0 0 1-1.924-4.657.5.5 0 1 1 .95-.306 30.981 30.981 0 0 0 1.865 4.51.499.499 0 0 1-.219.671.493.493 0 0 1-.226.055Zm58.202-4.468a.5.5 0 0 1-.476-.655 30.966 30.966 0 0 0 1.149-4.738.5.5 0 0 1 .988.158 32.185 32.185 0 0 1-1.186 4.89.501.501 0 0 1-.475.345Zm-61.245-4.935a.5.5 0 0 1-.493-.423 32.523 32.523 0 0 1-.386-4.993.51.51 0 0 1 .5-.513.49.49 0 0 1 .5.488v.025a31.497 31.497 0 0 0 .374 4.839.501.501 0 0 1-.417.57.527.527 0 0 1-.078.007Zm62.811-4.868a.46.46 0 0 1-.5-.45v-.098a31.259 31.259 0 0 0-.364-4.768.5.5 0 0 1 .988-.152 32.374 32.374 0 0 1 .376 4.92.544.544 0 0 1-.5.548Zm-62.802-5.011a.538.538 0 0 1-.079-.006.5.5 0 0 1-.416-.572 32.018 32.018 0 0 1 1.175-4.896.5.5 0 0 1 .951.31 30.832 30.832 0 0 0-1.137 4.742.5.5 0 0 1-.494.422Zm61.294-4.703a.498.498 0 0 1-.475-.347 30.918 30.918 0 0 0-1.856-4.512.5.5 0 1 1 .893-.453 31.959 31.959 0 0 1 1.914 4.658.499.499 0 0 1-.322.63.493.493 0 0 1-.154.024ZM64.35 32.136a.5.5 0 0 1-.445-.727 32.262 32.262 0 0 1 2.635-4.286.5.5 0 1 1 .808.587 31.357 31.357 0 0 0-2.553 4.154.5.5 0 0 1-.445.272Zm53.773-4.123a.498.498 0 0 1-.406-.207 31.542 31.542 0 0 0-3.157-3.718.5.5 0 0 1 .71-.705 32.518 32.518 0 0 1 3.258 3.837.5.5 0 0 1-.405.793Zm-47.958-3.862a.5.5 0 0 1-.354-.854 32.513 32.513 0 0 1 3.827-3.27.5.5 0 1 1 .588.81 31.537 31.537 0 0 0-3.708 3.167.498.498 0 0 1-.353.147Zm40.994-3.148a.5.5 0 0 1-.296-.096 31.256 31.256 0 0 0-4.146-2.566.5.5 0 1 1 .46-.888 32.352 32.352 0 0 1 4.278 2.647.5.5 0 0 1-.296.903ZM78.156 18.34a.5.5 0 0 1-.228-.945 32.09 32.09 0 0 1 4.654-1.929.5.5 0 1 1 .308.951 31.128 31.128 0 0 0-4.507 1.869.5.5 0 0 1-.227.054Zm24.22-1.858a.485.485 0 0 1-.156-.025 30.758 30.758 0 0 0-4.737-1.152.5.5 0 0 1 .158-.988 31.807 31.807 0 0 1 4.892 1.19.5.5 0 0 1-.157.975Zm-14.822-1.192a.5.5 0 0 1-.076-.995 32.398 32.398 0 0 1 5.017-.39h.129a.5.5 0 0 1 0 1h-.13a31.392 31.392 0 0 0-4.862.379.516.516 0 0 1-.078.006Z" fill="#ed4c67"/><path d="M92.385 16.745a28.96 28.96 0 1 0 28.96 28.96 28.959 28.959 0 0 0-28.96-28.96Z" fill="#fda7df"/><rect x="67.051" y="24.644" width="52.942" height="28.507" rx="1.5" fill="#327afd"/><path d="M93.056 38.131H73.77a1 1 0 0 1 0-2h19.287a1 1 0 0 1 0 2Z"/><path d="M72.771 36.134v.71a36.284 36.284 0 0 0-3.69 32.79h-3.57a.295.295 0 0 0-.1.02.481.481 0 0 0-.12 0c-.03.01-.05.03-.08.04a1.421 1.421 0 0 0-.18.08.863.863 0 0 0-.16.1 1.81 1.81 0 0 0-.13.14 1.108 1.108 0 0 0-.17.33 1.412 1.412 0 0 0-.04.2c0 .03-.02.05-.02.09a.614.614 0 0 0 .03.11.335.335 0 0 0 0 .1.66.66 0 0 0 .05.15.037.037 0 0 0 .01.03 3.357 3.357 0 0 0 3.26 2.49 2.82 2.82 0 0 0 .71-.09h17.85a2.979 2.979 0 0 0 .73.09 3.352 3.352 0 0 0 .89-.12c.03-.01.06-.03.09-.04.01-.01.03-.01.05-.02a3.406 3.406 0 0 0 2.13-4.2 34.343 34.343 0 0 1 3.58-31.45.688.688 0 0 0 .03-.08 1.092 1.092 0 0 0 .08-.19 1.283 1.283 0 0 0 .04-.19c0-.03.01-.06.01-.09v-1Zm13.71 15.05a36.559 36.559 0 0 0 1.93 18.57 1.4 1.4 0 0 1-.82 1.67h-.84a1.606 1.606 0 0 1-.31-.1 1.416 1.416 0 0 1-.66-.91c-.01-.03-.03-.05-.04-.08a1.092 1.092 0 0 0-.08-.19 1.43 1.43 0 0 0-.11-.15.588.588 0 0 0-.14-.13.826.826 0 0 0-.15-.11 1.223 1.223 0 0 0-.17-.07 1.419 1.419 0 0 0-.2-.04c-.03 0-.06-.01-.09-.01h-13.69a2.916 2.916 0 0 0-.09-.5 34.268 34.268 0 0 1 3.3-31h16.92a36.668 36.668 0 0 0-4.76 13.05Z" fill="#327afd"/><path d="M93.051 30.634h-19.28a.997.997 0 0 0-1 1v4.5h21.28v-4.5a.997.997 0 0 0-1-1Z" fill="#fda7df"/><path d="M88.411 69.754a1.4 1.4 0 0 1-.82 1.67h-.84a1.606 1.606 0 0 1-.31-.1 1.416 1.416 0 0 1-.66-.91c-.01-.03-.03-.05-.04-.08a1.092 1.092 0 0 0-.08-.19 1.43 1.43 0 0 0-.11-.15.588.588 0 0 0-.14-.13.826.826 0 0 0-.15-.11 1.223 1.223 0 0 0-.17-.07 1.419 1.419 0 0 0-.2-.04c-.03 0-.06-.01-.09-.01h-13.69a2.916 2.916 0 0 0-.09-.5 34.268 34.268 0 0 1 3.3-31h16.92a36.244 36.244 0 0 0-2.83 31.62Z" fill="#fff"/><path d="M82.395 54.754h-10.99a1 1 0 0 1 0-2h10.99a1 1 0 0 1 0 2ZM84.458 49.558H72.92a1 1 0 0 1 0-2h11.537a1 1 0 0 1 0 2ZM82.635 59.95H71.712a1 1 0 0 1 0-2h10.923a1 1 0 0 1 0 2ZM83.185 65.758h-8.672a1 1 0 0 1 0-2h8.672a1 1 0 0 1 0 2ZM85.196 44.654h-8.672a1 1 0 0 1 0-2h8.672a1 1 0 0 1 0 2Z" fill="#b1306c"/><path d="M116.541 38.824a9.598 9.598 0 0 1-1.32 4.87l-8.34-4.87 3.99-8.8a9.656 9.656 0 0 1 5.67 8.8Z" fill="#fda7df"/><path d="m110.871 30.024-3.99 8.8-7.64 5.9a9.658 9.658 0 0 1 11.63-14.7Z" fill="#d6498b"/><path d="M115.221 43.694a9.65 9.65 0 0 1-15.98 1.03l7.64-5.9Z" fill="#5cc8c3"/></svg>