<svg data-tags="dashboard thumbnails,listening" xmlns="http://www.w3.org/2000/svg" viewBox="0 0 185 92"><path d="M92.495 79.698a.525.525 0 0 1-.528-.5.476.476 0 0 1 .47-.5h.058a31.372 31.372 0 0 0 4.805-.37.5.5 0 0 1 .154.989 32.398 32.398 0 0 1-4.959.38Zm-4.996-.393a.54.54 0 0 1-.08-.006 32.035 32.035 0 0 1-4.893-1.18.5.5 0 1 1 .31-.95 31.02 31.02 0 0 0 4.74 1.142.5.5 0 0 1-.077.994Zm14.7-1.126a.5.5 0 0 1-.153-.975 31.16 31.16 0 0 0 4.51-1.86.5.5 0 0 1 .454.892 32.222 32.222 0 0 1-4.657 1.919.493.493 0 0 1-.154.024Zm-24.093-1.941a.504.504 0 0 1-.228-.055 32.312 32.312 0 0 1-4.283-2.64.5.5 0 0 1 .59-.808 31.114 31.114 0 0 0 4.15 2.558.5.5 0 0 1-.229.945Zm32.906-2.532a.5.5 0 0 1-.293-.906 31.314 31.314 0 0 0 3.714-3.16.5.5 0 1 1 .705.708 32.319 32.319 0 0 1-3.833 3.263.499.499 0 0 1-.293.095Zm-40.883-3.291a.498.498 0 0 1-.354-.147 32.296 32.296 0 0 1-3.265-3.83.5.5 0 1 1 .808-.589 31.318 31.318 0 0 0 3.164 3.712.5.5 0 0 1-.353.854Zm47.885-3.68a.5.5 0 0 1-.404-.795 31.517 31.517 0 0 0 2.563-4.147.5.5 0 0 1 .889.457 32.32 32.32 0 0 1-2.645 4.28.5.5 0 0 1-.403.205Zm-53.688-4.318a.498.498 0 0 1-.445-.274 31.92 31.92 0 0 1-1.924-4.656.5.5 0 0 1 .951-.307 31.004 31.004 0 0 0 1.863 4.51.499.499 0 0 1-.218.672.493.493 0 0 1-.227.055Zm58.202-4.468a.5.5 0 0 1-.475-.655 30.965 30.965 0 0 0 1.148-4.739.5.5 0 0 1 .988.159 32.187 32.187 0 0 1-1.185 4.89.501.501 0 0 1-.476.345Zm-61.244-4.936a.5.5 0 0 1-.493-.423 32.523 32.523 0 0 1-.386-4.993.511.511 0 0 1 .5-.512.49.49 0 0 1 .501.488c0 .018-.002.061-.004.08a31.705 31.705 0 0 0 .377 4.783.501.501 0 0 1-.417.571.525.525 0 0 1-.078.006Zm62.81-4.867a.461.461 0 0 1-.5-.452v-.097a31.257 31.257 0 0 0-.364-4.767.5.5 0 0 1 .418-.57.507.507 0 0 1 .57.417 32.374 32.374 0 0 1 .377 4.92.544.544 0 0 1-.5.55Zm-62.8-5.013a.539.539 0 0 1-.078-.005.5.5 0 0 1-.416-.573 32.017 32.017 0 0 1 1.175-4.895.5.5 0 1 1 .95.31 30.834 30.834 0 0 0-1.137 4.742.5.5 0 0 1-.493.421Zm61.293-4.702a.498.498 0 0 1-.476-.346 30.918 30.918 0 0 0-1.855-4.512.5.5 0 0 1 .892-.453 31.959 31.959 0 0 1 1.915 4.658.499.499 0 0 1-.323.629.493.493 0 0 1-.153.024ZM64.35 33.74a.5.5 0 0 1-.446-.728 32.263 32.263 0 0 1 2.635-4.286.5.5 0 0 1 .809.588 31.355 31.355 0 0 0-2.553 4.153.5.5 0 0 1-.445.273Zm53.771-4.124a.498.498 0 0 1-.405-.207 31.542 31.542 0 0 0-3.157-3.718.5.5 0 0 1 .709-.705 32.517 32.517 0 0 1 3.258 3.837.5.5 0 0 1-.405.793Zm-47.956-3.861a.5.5 0 0 1-.353-.854 32.513 32.513 0 0 1 3.827-3.27.5.5 0 0 1 .588.81 31.539 31.539 0 0 0-3.708 3.167.498.498 0 0 1-.354.147Zm40.992-3.149a.5.5 0 0 1-.296-.097 31.349 31.349 0 0 0-4.144-2.565.5.5 0 1 1 .459-.889 32.277 32.277 0 0 1 4.277 2.648.5.5 0 0 1-.296.903Zm-33.002-2.663a.5.5 0 0 1-.227-.945 32.09 32.09 0 0 1 4.653-1.929.5.5 0 1 1 .309.951 31.128 31.128 0 0 0-4.507 1.868.5.5 0 0 1-.228.055Zm24.22-1.86a.485.485 0 0 1-.156-.025 30.76 30.76 0 0 0-4.738-1.151.5.5 0 0 1 .159-.988 31.807 31.807 0 0 1 4.891 1.19.5.5 0 0 1-.156.975Zm-14.82-1.19a.5.5 0 0 1-.076-.995 32.397 32.397 0 0 1 5.016-.39h.127a.5.5 0 0 1 0 1h-.127a31.392 31.392 0 0 0-4.862.378.516.516 0 0 1-.078.006Z" fill="#ed4c67"/><path d="M92.385 18.347a28.96 28.96 0 1 0 28.96 28.96 28.959 28.959 0 0 0-28.96-28.96Z" fill="#fda7df"/><path d="M77.366 48.932a5.455 5.455 0 1 0-5.455-5.456 5.46 5.46 0 0 0 5.455 5.456Z" fill="#ac4aa2"/><path d="M88.147 64.11H66.585a.696.696 0 0 1-.625-.772c.334-7.21 5.311-12.934 11.402-12.934s11.076 5.724 11.41 12.934a.696.696 0 0 1-.625.772Z" fill="#763bd2"/><path d="M108.069 33.753a5.455 5.455 0 1 0-5.455-5.455 5.46 5.46 0 0 0 5.455 5.455Z" fill="#b1306c"/><path d="M118.85 48.932H97.288a.696.696 0 0 1-.625-.773c.333-7.21 5.31-12.934 11.401-12.934s11.077 5.724 11.411 12.934a.696.696 0 0 1-.625.773Z" fill="#763bd2"/><path d="m97.782 26.302-2.921-3.305a9.39 9.39 0 1 0-6.825 7.111 9.29 9.29 0 0 0 4.613-2.797l4.415.406a.853.853 0 0 0 .718-1.415Z" fill="#54beee"/><path d="m93.674 61.497 2.363 4.244a10.34 10.34 0 1 0 9.017-6.042 10.23 10.23 0 0 0-5.62 1.923l-4.655-1.477a.94.94 0 0 0-1.105 1.352Z" fill="#108cc5"/></svg>