<svg data-tags="dashboard thumbnails,listening" xmlns="http://www.w3.org/2000/svg" viewBox="0 0 185 92"><path d="M92.496 78.095a.526.526 0 0 1-.53-.5.476.476 0 0 1 .471-.5h.059a31.372 31.372 0 0 0 4.804-.369.494.494 0 0 1 .572.417.5.5 0 0 1-.417.571 32.398 32.398 0 0 1-4.96.381Zm-4.997-.393a.539.539 0 0 1-.08-.006 32.034 32.034 0 0 1-4.893-1.18.5.5 0 1 1 .31-.951 31.019 31.019 0 0 0 4.74 1.143.5.5 0 0 1-.077.994Zm14.7-1.125a.5.5 0 0 1-.154-.976 31.16 31.16 0 0 0 4.511-1.86.5.5 0 0 1 .453.892 32.112 32.112 0 0 1-4.657 1.92.493.493 0 0 1-.153.024Zm-24.092-1.943a.497.497 0 0 1-.228-.054 32.137 32.137 0 0 1-4.284-2.64.5.5 0 0 1 .59-.808 31.042 31.042 0 0 0 4.15 2.557.5.5 0 0 1-.228.945Zm32.905-2.531a.5.5 0 0 1-.293-.905 31.314 31.314 0 0 0 3.714-3.161.5.5 0 1 1 .705.709 32.318 32.318 0 0 1-3.833 3.262.499.499 0 0 1-.293.095Zm-40.884-3.291a.498.498 0 0 1-.353-.146 32.297 32.297 0 0 1-3.266-3.832.5.5 0 1 1 .809-.587 31.32 31.32 0 0 0 3.164 3.711.5.5 0 0 1-.354.854Zm47.886-3.678a.5.5 0 0 1-.403-.795 31.392 31.392 0 0 0 2.561-4.147.5.5 0 0 1 .889.457 32.26 32.26 0 0 1-2.644 4.28.5.5 0 0 1-.403.205Zm-53.688-4.32a.498.498 0 0 1-.446-.273 31.92 31.92 0 0 1-1.923-4.657.5.5 0 1 1 .95-.306 31.003 31.003 0 0 0 1.864 4.51.499.499 0 0 1-.219.671.493.493 0 0 1-.226.055Zm58.204-4.467a.5.5 0 0 1-.476-.655 30.966 30.966 0 0 0 1.149-4.738.5.5 0 1 1 .988.158 32.187 32.187 0 0 1-1.186 4.89.501.501 0 0 1-.475.345Zm-61.246-4.936a.5.5 0 0 1-.493-.423 32.501 32.501 0 0 1-.386-4.992.51.51 0 0 1 .5-.513.49.49 0 0 1 .499.488h-.5l.5.002a31.672 31.672 0 0 0 .375 4.86.501.501 0 0 1-.417.572.527.527 0 0 1-.078.006Zm62.811-4.867a.46.46 0 0 1-.5-.45v-.098a31.259 31.259 0 0 0-.364-4.768.5.5 0 1 1 .988-.152 32.374 32.374 0 0 1 .376 4.92.544.544 0 0 1-.5.548Zm-62.802-5.013a.538.538 0 0 1-.079-.006.5.5 0 0 1-.416-.572 32.006 32.006 0 0 1 1.175-4.895.5.5 0 0 1 .951.31 30.82 30.82 0 0 0-1.137 4.74.5.5 0 0 1-.494.423Zm61.294-4.7a.498.498 0 0 1-.475-.347 31.12 31.12 0 0 0-1.856-4.514.5.5 0 0 1 .893-.451 31.94 31.94 0 0 1 1.914 4.658.499.499 0 0 1-.322.63.493.493 0 0 1-.154.024Zm-58.236-4.695a.5.5 0 0 1-.445-.727 32.263 32.263 0 0 1 2.635-4.286.5.5 0 1 1 .808.587 31.357 31.357 0 0 0-2.553 4.154.5.5 0 0 1-.445.272Zm53.772-4.122a.498.498 0 0 1-.406-.207 31.54 31.54 0 0 0-3.157-3.718.5.5 0 1 1 .71-.705 32.517 32.517 0 0 1 3.258 3.837.5.5 0 0 1-.405.793Zm-47.957-3.863a.5.5 0 0 1-.354-.854 32.514 32.514 0 0 1 3.827-3.27.5.5 0 0 1 .588.81 31.536 31.536 0 0 0-3.708 3.167.498.498 0 0 1-.353.147Zm40.993-3.148a.5.5 0 0 1-.296-.096 31.256 31.256 0 0 0-4.146-2.566.5.5 0 1 1 .46-.888 32.352 32.352 0 0 1 4.278 2.647.5.5 0 0 1-.296.903ZM78.157 18.34a.5.5 0 0 1-.228-.945 32.087 32.087 0 0 1 4.654-1.929.5.5 0 0 1 .308.951 31.13 31.13 0 0 0-4.507 1.869.5.5 0 0 1-.227.054Zm24.22-1.858a.485.485 0 0 1-.157-.025 30.76 30.76 0 0 0-4.737-1.152.5.5 0 0 1 .158-.988 31.808 31.808 0 0 1 4.892 1.19.5.5 0 0 1-.157.975ZM87.554 15.29a.5.5 0 0 1-.076-.995 32.398 32.398 0 0 1 5.017-.39h.129a.5.5 0 0 1 0 1h-.118a31.429 31.429 0 0 0-4.874.379.516.516 0 0 1-.078.006Z" fill="#2e9975"/><path d="M92.385 16.746a28.96 28.96 0 1 0 28.96 28.96 28.959 28.959 0 0 0-28.96-28.96Z" fill="#a3cb38"/><path d="M86.55 23.074H63.292a1.464 1.464 0 0 0-1.43 1.5v11.95a1.464 1.464 0 0 0 1.43 1.5h8.722l2.907 3.05 2.907-3.05h8.722a1.464 1.464 0 0 0 1.43-1.5v-11.95a1.464 1.464 0 0 0-1.43-1.5Z" fill="#8c43ff"/><path d="M74.921 41.575a.5.5 0 0 1-.362-.156L71.8 38.524h-8.508a1.968 1.968 0 0 1-1.93-2v-11.95a1.968 1.968 0 0 1 1.93-2H86.55a1.968 1.968 0 0 1 1.93 2v11.95a1.968 1.968 0 0 1-1.93 2h-8.507l-2.758 2.895a.5.5 0 0 1-.363.156Zm-11.629-18a.968.968 0 0 0-.93 1v11.949a.968.968 0 0 0 .93 1h8.722a.5.5 0 0 1 .362.155l2.545 2.671 2.544-2.67a.5.5 0 0 1 .363-.156h8.721a.968.968 0 0 0 .93-1v-11.95a.968.968 0 0 0-.93-1ZM122.666 39.253H99.409a1.464 1.464 0 0 0-1.43 1.5v11.95a1.464 1.464 0 0 0 1.43 1.5h8.721l2.907 3.05 2.907-3.05h8.722a1.464 1.464 0 0 0 1.43-1.5v-11.95a1.464 1.464 0 0 0-1.43-1.5Z" fill="#8c43ff"/><path d="M111.037 57.752a.5.5 0 0 1-.363-.155l-2.758-2.894H99.41a1.968 1.968 0 0 1-1.93-2v-11.95a1.968 1.968 0 0 1 1.93-2h23.257a1.968 1.968 0 0 1 1.93 2v11.95a1.968 1.968 0 0 1-1.93 2h-8.508l-2.76 2.894a.5.5 0 0 1-.361.155Zm-11.628-18a.968.968 0 0 0-.93 1v11.95a.968.968 0 0 0 .93 1h8.721a.5.5 0 0 1 .363.156l2.544 2.67 2.545-2.67a.5.5 0 0 1 .362-.155h8.722a.968.968 0 0 0 .93-1v-11.95a.968.968 0 0 0-.93-1ZM91.07 50.347H67.815a1.464 1.464 0 0 0-1.43 1.5v11.95a1.464 1.464 0 0 0 1.43 1.5h8.721l2.907 3.05 2.907-3.05h8.722a1.464 1.464 0 0 0 1.43-1.5v-11.95a1.464 1.464 0 0 0-1.43-1.5Z" fill="#8c43ff"/><path d="M79.442 68.846a.5.5 0 0 1-.362-.155l-2.76-2.895h-8.506a1.968 1.968 0 0 1-1.93-2v-11.95a1.968 1.968 0 0 1 1.93-2h23.257a1.968 1.968 0 0 1 1.93 2v11.95a1.968 1.968 0 0 1-1.93 2h-8.508l-2.759 2.895a.5.5 0 0 1-.362.155Zm-11.628-18a.968.968 0 0 0-.93 1v11.95a.968.968 0 0 0 .93 1h8.72a.5.5 0 0 1 .363.156l2.545 2.67 2.545-2.67a.5.5 0 0 1 .362-.156h8.722a.968.968 0 0 0 .93-1v-11.95a.968.968 0 0 0-.93-1Z" fill="#8c43ff"/><circle cx="105.789" cy="46.767" r="1.28" fill="#fff"/><circle cx="111.037" cy="46.767" r="1.28" fill="#fff"/><circle cx="116.286" cy="46.767" r="1.28" fill="#fff"/><path d="M76.03 30.36a2.742 2.742 0 0 0 1.568-2.987 3.05 3.05 0 0 0-2.51-2.277 3.308 3.308 0 0 0-2.587.64 2.808 2.808 0 0 0-1.098 2.206.788.788 0 0 0 1.568 0 1.343 1.343 0 0 1 .55-1.067 1.765 1.765 0 0 1 1.332-.285 1.436 1.436 0 0 1 1.255 1.139 1.302 1.302 0 0 1-.784 1.493 2.832 2.832 0 0 0-1.568 2.49v.497a.788.788 0 0 0 1.568 0v-.568a1.329 1.329 0 0 1 .706-1.281ZM74.525 34.248a.826.826 0 1 0 .826.826.826.826 0 0 0-.826-.826Z" fill="#fff"/><path d="M79.447 61.485a.897.897 0 1 0 .897.896.897.897 0 0 0-.897-.896Z" fill="#ffc312"/><path d="M79.44 60.314a.9.9 0 0 1-.9-.9v-6.148a.9.9 0 1 1 1.8 0v6.149a.9.9 0 0 1-.9.9Z" fill="#fff"/></svg>