<svg data-tags="dashboard thumbnails,listening" xmlns="http://www.w3.org/2000/svg" viewBox="0 0 185 92"><path d="M93.83 78.102c-.828 0-1.666-.032-2.491-.098a.5.5 0 0 1-.46-.537.49.49 0 0 1 .538-.459 31.035 31.035 0 0 0 4.877-.005.5.5 0 1 1 .08.997c-.843.068-1.7.102-2.545.102Zm-7.344-.872a.54.54 0 0 1-.117-.014 32.147 32.147 0 0 1-4.786-1.56.5.5 0 0 1 .383-.923 31.167 31.167 0 0 0 4.638 1.51.5.5 0 0 1-.118.987Zm14.786-.02a.516.516 0 0 1-.504-.375.48.48 0 0 1 .34-.6l.087-.018a31.49 31.49 0 0 0 4.558-1.483.5.5 0 1 1 .38.924 32.348 32.348 0 0 1-4.738 1.539.515.515 0 0 1-.123.013Zm9.088-3.76a.5.5 0 0 1-.26-.927 31.12 31.12 0 0 0 3.945-2.867.5.5 0 0 1 .65.76 32.034 32.034 0 0 1-4.074 2.96.495.495 0 0 1-.26.074Zm-33-.006a.495.495 0 0 1-.261-.073 32.36 32.36 0 0 1-4.076-2.956.5.5 0 1 1 .649-.762 31.358 31.358 0 0 0 3.948 2.864.5.5 0 0 1-.26.927Zm-7.522-6.411a.5.5 0 0 1-.38-.175 32.01 32.01 0 0 1-2.962-4.07.5.5 0 1 1 .852-.524 31.061 31.061 0 0 0 2.87 3.944.5.5 0 0 1-.38.825Zm48.035-.002a.493.493 0 0 1-.324-.12.499.499 0 0 1-.056-.704 31.44 31.44 0 0 0 2.867-3.948.5.5 0 1 1 .852.524 32.2 32.2 0 0 1-2.96 4.072.497.497 0 0 1-.379.176Zm-53.201-8.42a.499.499 0 0 1-.462-.31 32.637 32.637 0 0 1-1.55-4.765.51.51 0 0 1 .357-.612.49.49 0 0 1 .605.336.71.71 0 0 1 .02.088 31.779 31.779 0 0 0 1.492 4.572.499.499 0 0 1-.272.653.484.484 0 0 1-.19.038Zm58.368-.004a.515.515 0 0 1-.192-.038.501.501 0 0 1-.27-.654 31.115 31.115 0 0 0 1.515-4.635.507.507 0 0 1 .603-.37.501.501 0 0 1 .37.604 32.345 32.345 0 0 1-1.564 4.785.502.502 0 0 1-.462.308Zm2.322-9.603a.562.562 0 0 1-.04-.002.5.5 0 0 1-.459-.538 31.08 31.08 0 0 0 0-4.875.5.5 0 0 1 .46-.537.517.517 0 0 1 .536.46 31.624 31.624 0 0 1 0 5.032.499.499 0 0 1-.497.46Zm-63.006 0a.499.499 0 0 1-.497-.46 32.027 32.027 0 0 1-.104-2.572c0-.827.033-1.655.097-2.463a.49.49 0 0 1 .537-.459.499.499 0 0 1 .459.537c-.06.783-.092 1.585-.093 2.386 0 .822.034 1.661.1 2.491a.499.499 0 0 1-.458.538.546.546 0 0 1-.04.002Zm.765-9.848a.491.491 0 0 1-.117-.014.501.501 0 0 1-.37-.603 32.34 32.34 0 0 1 1.555-4.789.5.5 0 1 1 .924.383 31.211 31.211 0 0 0-1.506 4.64.5.5 0 0 1-.486.383Zm60.98-.385.487-.117-.506.037a31.258 31.258 0 0 0-1.479-4.563.5.5 0 1 1 .924-.38 32.35 32.35 0 0 1 1.527 4.705l-.466.2Zm-57.204-8.747a.5.5 0 0 1-.426-.76 32.236 32.236 0 0 1 2.95-4.079.5.5 0 0 1 .763.649 31.218 31.218 0 0 0-2.86 3.95.499.499 0 0 1-.427.24Zm53.927-.005a.5.5 0 0 1-.427-.24 31.155 31.155 0 0 0-2.864-3.948.5.5 0 1 1 .762-.649 32.226 32.226 0 0 1 2.956 4.076.501.501 0 0 1-.166.688.495.495 0 0 1-.26.073Zm-6.414-7.518a.497.497 0 0 1-.325-.12 31.343 31.343 0 0 0-3.944-2.87.5.5 0 0 1 .523-.851 32.318 32.318 0 0 1 4.071 2.962.5.5 0 0 1-.325.88Zm-41.11-.005a.5.5 0 0 1-.325-.88 31.812 31.812 0 0 1 4.068-2.966.5.5 0 1 1 .523.851 31 31 0 0 0-3.941 2.874.5.5 0 0 1-.325.12Zm32.691-5.17a.512.512 0 0 1-.192-.037 31.118 31.118 0 0 0-4.635-1.518.5.5 0 0 1 .234-.973 32.195 32.195 0 0 1 4.786 1.567.5.5 0 0 1-.193.962Zm-24.274-.002a.5.5 0 0 1-.192-.962 32.345 32.345 0 0 1 4.787-1.559l.112-.026a.5.5 0 1 1 .23.973l-.107.025a31.385 31.385 0 0 0-4.639 1.51.489.489 0 0 1-.191.039Zm14.676-2.326a30.731 30.731 0 0 0-4.918-.006.516.516 0 0 1-.537-.46.498.498 0 0 1 .459-.536c.83-.066 1.687-.082 2.517-.098.83 0 1.676.034 2.518.101a.5.5 0 0 1-.04.998Z" fill="#fb8f53"/><path d="M93.743 16.744a28.96 28.96 0 1 0 28.96 28.96 28.959 28.959 0 0 0-28.96-28.96Z" fill="#ffc312"/><path d="M76.99 59.667a.5.5 0 0 1-.442-.266l-2.337-4.42a.5.5 0 0 1 .885-.467l2.337 4.42a.5.5 0 0 1-.443.734Zm-4.675-8.84a.5.5 0 0 1-.442-.266l-1.519-2.873a.5.5 0 1 1 .885-.467l1.519 2.873a.5.5 0 0 1-.443.734ZM79.04 38.796a.5.5 0 0 1-.218-.95l4.508-2.164a.5.5 0 0 1 .434.902l-4.508 2.164a.504.504 0 0 1-.217.048Zm9.015-4.325a.5.5 0 0 1-.216-.951l4.509-2.163a.5.5 0 0 1 .431.902l-4.508 2.163a.497.497 0 0 1-.216.05Zm9.016-4.326a.5.5 0 0 1-.217-.951l4.51-2.163a.5.5 0 0 1 .432.902l-4.508 2.163a.504.504 0 0 1-.217.049ZM107.327 52.776a.5.5 0 0 1-.473-.664l1.644-4.723a.5.5 0 0 1 .945.328L107.8 52.44a.5.5 0 0 1-.473.336Zm3.286-9.444a.5.5 0 0 1-.472-.665l1.643-4.722a.5.5 0 0 1 .945.328l-1.643 4.723a.5.5 0 0 1-.473.336Z" fill="#ed4c67"/><rect x="59.041" y="29.137" width="20.522" height="18.318" rx="1.5" fill="#ff6060"/><rect x="95.147" y="52.276" width="24.082" height="17.079" rx="1.5" fill="#8c43ff"/><rect x="65.42" y="59.168" width="23.14" height="14.897" rx="1.5" fill="#327afd"/><rect x="102.447" y="16.938" width="20.256" height="20.256" rx="1.5" fill="#6ac96e"/><path d="M75.397 36.778a3.688 3.688 0 0 0-1.93-3.259c-2.153-1.207-4.15.804-4.15.804h-.03s-1.997-2.011-4.15-.804a3.688 3.688 0 0 0-1.93 3.259s-.296 1.92 2.646 4.528a15.508 15.508 0 0 0 3.221 2.105.57.57 0 0 0 .456 0 15.508 15.508 0 0 0 3.221-2.105c2.942-2.608 2.646-4.528 2.646-4.528Z" fill="#fff"/><path d="M107.188 55.515a5.3 5.3 0 1 0 5.3 5.3 5.306 5.306 0 0 0-5.3-5.3Zm1.237 3.028a.736.736 0 1 1-.736.736.736.736 0 0 1 .736-.736Zm-2.606 0a.736.736 0 1 1-.736.736.736.736 0 0 1 .736-.736Zm4.24 3.282a3.053 3.053 0 0 1-5.742 0 .43.43 0 0 1 .257-.551.432.432 0 0 1 .55.255 2.193 2.193 0 0 0 4.128 0 .442.442 0 0 1 .548-.256.43.43 0 0 1 .26.551v.001Z" fill="#fff" fill-rule="evenodd"/><circle cx="107.327" cy="27.066" r="1.28" fill="#fff"/><circle cx="112.575" cy="27.066" r="1.28" fill="#fff"/><circle cx="117.824" cy="27.066" r="1.28" fill="#fff"/><path d="M72.678 70.704h1.119a.474.474 0 0 0 .475-.475v-3.923a.475.475 0 0 0-.475-.475h-1.119a.475.475 0 0 0-.474.475v3.923a.474.474 0 0 0 .474.475Zm3.369.136h3.838a1.258 1.258 0 0 0 1.378-1.084l.508-3.238q.003-.021.004-.043a1.175 1.175 0 0 0-.29-.84 1.066 1.066 0 0 0-.809-.323H78.57l-.012-1.79a1.109 1.109 0 0 0-1.092-1.136 1.397 1.397 0 0 0-.173.01.475.475 0 0 0-.415.472v1.448c-.002.034-.061 1.114-1.614 1.627a.475.475 0 0 0-.325.451v3.337a1.09 1.09 0 0 0 1.108 1.109Z" fill="#fff"/></svg>