<svg data-tags="error,lost" xmlns="http://www.w3.org/2000/svg" viewBox="0 0 214.6 129.1"><g opacity=".1"><path d="M145.7 95.2c1 0 1.6-1.6 1.7-1.8.2-.4-.4-2-2.6-3-9.3-3.6-21.7-5.6-34.9-5.6-18 0-35.4 3.7-48.8 10.4-.5.2-.8.6-1 1.1s0 1 .1 1.5c.4.7 1.1 1.1 1.8 1.1.3 0 .6 0 .8-.2 12.1-6 31.1-9.6 50.8-9.6 11.6 0 25.6 1.4 30.3 5.2.7.6 1.3 1 1.8 1zM54 103c.1-.6 0-1.3-.5-1.8-.6-.8-1.7-.9-2.5-.3-2 1.6-4 3.4-5.8 5.3-.6.7-.6 1.8.1 2.5.7.6 1.8.6 2.5 0a64 64 0 015.5-5c.3-.2.5-.5.6-.8zm89.1.4c-13.2-3.7-24.8-3.3-25.7 1s9 10.8 22.3 14.6l1.2.4 2 1 5.5 1.5 4.5 1h6.9l4-2 1.6-2.9c1-4.3-9-10.8-22.3-14.6z"/><ellipse transform="rotate(-10 61.4 117)" cx="61.4" cy="117" rx="10" ry="6.5"/></g><path d="M199.4 94.1h-3v-3c0-.6-.4-.9-.9-.9s-.8.4-.8.8v3.1h-3c-.5 0-.8.3-.8.8s.4.8.8.8h3v3.1c0 .5.4.8.8.8s.8-.3.8-.7v-3.2h3.1c.4 0 .8-.3.8-.8s-.4-.8-.8-.8zm-15-3.6h-1.6V89c0-.5-.3-.8-.8-.8s-.8.4-.8.8v1.6h-1.6c-.5 0-.8.3-.8.8s.4.8.8.8h1.6v1.7c0 .5.4.8.8.8s.7-.3.8-.8v-1.7h1.6c.4 0 .8-.3.8-.8s-.4-.8-.8-.8zm-176 1.6h-3v-3c0-.6-.4-.9-.9-.9s-.8.4-.8.8v3.1h-3c-.5 0-.8.3-.8.8s.4.8.8.8h3v3.1c0 .5.4.8.8.8s.8-.3.8-.7v-3.2h3.1c.4 0 .8-.3.8-.8s-.4-.8-.8-.8zm63.4-34.7h-2.3v-2.6c0-.5-.3-.8-.8-.8s-.8.4-.8.8v2.6h-2.5c-.5 0-.8.3-.8.8s.4.8.8.8H68v2.3c0 .5.4.8.8.8s.7-.3.8-.8V59h2.3c.4 0 .8-.3.8-.8s-.4-.8-.8-.8z" opacity=".5"/><path d="M115.8 25.6c-.2 0-.7.2-1 .5-4.9 4-4.4 10.4-4.4 10.4s2.2-5.2 6.7-7c.7-.4 1.2-1.4 1.1-2.3a2 2 0 00-2.4-1.6zm-20.8-2c6.4 2 8 7 8 7s-.8-7.9-6.2-10.5c-.6-.3-1-.3-1.6-.2a2 2 0 00-1.4 2.4c.2.6.6 1 1.2 1.3zm17.3.2c1.1-.9 1.6-2 1.4-3.3-.3-1.8-2-3-3.9-2.7a4 4 0 00-2.2 1.4c-4.8 5.7-.5 18 0 19-.2-1.3-1-10.3 4.7-14.4zm-16.8 4h-.7a2.7 2.7 0 00-2.2 3c.2 1.2 1.2 2 2.4 2.1 5 .3 9 4.1 9 4.1s-3.5-8.9-8.5-9.2z"/><path d="M201 127.5A114.8 114.8 0 0092.6 79.8l-4.7-24 38.2-7.5a6 6 0 014.1 1c1.2.7 2 2 2.3 3.5a7 7 0 003 4.7c1.6 1 3.5 1.4 5.4 1.1l18.8-3.5c.5 0 .8-.5.7-1L152 7.5c0-.2-.2-.4-.4-.5h-.6l-18.8 3.4a6 6 0 01-4-.9 5.3 5.3 0 01-2-2.3s-.3-1.6-.5-1.7a7 7 0 00-8.3-5.4L77.7 7.5l-.5.4v.6l9 46.8L91 80a115 115 0 00-77.4 47.5c-.4.5-.3 1.1.2 1.4l.6.2c.3 0 .6-.2 1-.4a112.7 112.7 0 0176-46.6l3 15c0 .3.3.6.7.6.1 0 .2 0 0 0 .5-.2.8-.6.7-1L93 81.8a111.7 111.7 0 01106.4 46.8c.3.4 1 .5 1.4.2.4-.3.5-.9.2-1.4zM127.2 11.1c1.6 1 3.5 1.5 5.4 1.1l18-3.3 8.1 45-18 3.2a6 6 0 01-4-.9 5.5 5.5 0 01-2.3-3.2v-.4L127 11l.3.2zM79 9.1l39-7.2a6 6 0 014 1c1.2.7 2 2 2.3 3.5 0 .5.2 1 .4 1.4l7.3 40.6a7.3 7.3 0 00-4.7-1.8l-1.3.1-38.2 7.4-8.8-45z"/><path d="M143.4 102.5c-10.8-3-20.8-3.5-24.9-1-1 .7-1.9 1.6-2 2.7-1.3 5.7 10.8 12.4 23 15.8h.2c.5 0 1-.3 1-.7a1 1 0 00-.8-1.2c-13.6-3.9-22.3-10.2-21.6-13.4.1-.5.5-1 1.2-1.4 3.6-2 13.2-1.7 23.3 1.2 13.6 4 22.3 10.2 21.6 13.4 0 .5.3 1.1.8 1.2a1 1 0 001.2-.8c1.2-5.7-10.9-12.4-23-15.8zM56 111.1c-3.6 1.8-6 4.6-6.5 7.2-.3 1.5.1 3 1.1 4 1.4 1.5 3.7 2.3 6.4 2.3 2.6 0 5.7-.7 8.5-2.2.5-.3.7-.9.4-1.4s-.9-.7-1.4-.4c-4.7 2.5-10.4 2.7-12.5.4a3 3 0 01-.6-2.4c.3-2 2.4-4.2 5.4-5.8 4.7-2.5 10.4-2.7 12.5-.4.4.4 1 .5 1.4.1.4-.4.5-1 .1-1.4-2.7-3-9.3-3-14.9 0z"/></svg>