<svg xmlns="http://www.w3.org/2000/svg" data-tags="selected charts" viewBox="0 0 38 28"><path fill="#CBD756" d="M37.855 26.48l-8.527-14a1 1 0 00-.854-.48H25.87c-.098.282-.196.55-.289.791-.095.252-.193.505-.303.758a2.6 2.6 0 01-.134.299L25.08 14h2.832l7.308 12H2.78l7.308-12h2.779c-.04-.1-.087-.194-.124-.294-.132-.344-.249-.65-.357-.966-.088-.253-.155-.494-.23-.74h-2.63a.999.999 0 00-.854.48l-8.526 14A1.001 1.001 0 001 28h36a1.002 1.002 0 00.855-1.52z"/><path fill="#4CD2E0" d="M19.043 5.482h.018c1.057 0 1.981.604 2.45 1.495.093.158.165.335.219.51a3.131 3.131 0 01.126.855c.01 1.588-1.239 2.879-2.787 2.888h-.036c-.47 0-.922-.12-1.311-.344a3.089 3.089 0 01-.443-.306 2.94 2.94 0 01-1.023-2.2c-.01-1.589 1.24-2.898 2.787-2.898m3.7-2.192c-.932-.76-2.009-1.17-3.194-1.262A2.796 2.796 0 0019.432 2h-.751c-.417.074-.842.12-1.241.232-1.7.492-2.958 1.56-3.78 3.166-.716 1.412-.788 2.916-.508 4.457.154.818.38 1.617.652 2.396.109.316.226.623.343.93.164.435.353.862.542 1.28.02.037.037.074.056.111 1.131 2.48 2.514 4.792 4.044 7.002.064.084.136.158.19.232h.154c.063-.065.136-.13.19-.213 1.411-2.266 2.75-4.578 3.863-7.02.216-.456.417-.92.615-1.393.037-.075.073-.149.1-.223.099-.232.19-.465.28-.706.38-.984.706-1.987.85-3.046.326-2.404-.443-4.391-2.289-5.915"/></svg>