<svg data-tags="modern marketing, marketing, launchpad" xmlns="http://www.w3.org/2000/svg" viewBox="0 0 50 49.44"><path d="M37.06 19h-7.52a1 1 0 0 0 0 2h7.52a1 1 0 0 0 0-2ZM39.4 5.84H25.59a1.5 1.5 0 0 0 0 3H39.4a1.5 1.5 0 1 0 0-3ZM9.57 5.75a1.59 1.59 0 1 0 1.59 1.6 1.59 1.59 0 0 0-1.59-1.6Zm4.81 0a1.59 1.59 0 1 0 1.6 1.6 1.59 1.59 0 0 0-1.6-1.6Zm5.09 0a1.59 1.59 0 1 0 1.59 1.6 1.59 1.59 0 0 0-1.59-1.6Zm9.07 22.17a1 1 0 0 0 1 1h4.5a7.33 7.33 0 0 0 .98-1.84l.06-.15h-5.54a1 1 0 0 0-1 1Zm15.26-1.43-.5 1.34a.52.52 0 1 0 .98.35l.49-1.34a.52.52 0 1 0-.97-.35Zm-.49 5.16-.3.13a.16.16 0 0 0-.07.22l1.63 3.5a.16.16 0 0 0 .21.08l.3-.14a2.1 2.1 0 0 0-1.77-3.8Zm5.74.2a.52.52 0 0 0-.43-.93l-1.3.6a.52.52 0 0 0 .43.94Zm-18.08 2.63-3.1 1.44a1.19 1.19 0 0 0-.58 1.58l2.96 6.35a1.19 1.19 0 0 0 1.57.58l3.1-1.44Zm18.69 2.88-1.34-.49a.52.52 0 1 0-.36.97l1.35.5a.52.52 0 0 0 .35-.98ZM42.9 34.1l-3.29-7.05a.85.85 0 0 0-1.56.07l-.34.94a10.16 10.16 0 0 1-5.27 5.73l-.53.25 1.97 4.26 1.98 4.25.54-.25a10.16 10.16 0 0 1 7.77-.33l.95.34a.84.84 0 0 0 1.05-1.15Zm-7.7 9.89-1.9.88.92 1.84a1.05 1.05 0 0 0 1.9-.89ZM16.69 15.03a8.93 8.93 0 0 0-8.9 8.05l1.59 1 1.73-1.34a5.7 5.7 0 0 1 11.22.5l.97-.76a.96.96 0 0 1 1.1-.06l1.18.75a8.93 8.93 0 0 0-8.9-8.14Zm5.36 10.84a5.7 5.7 0 0 1-10.95-.7l-1.08.83a.96.96 0 0 1-1.1.06l-1.04-.66a8.92 8.92 0 0 0 17.61-.03l-1.54-.97Z"/><path d="m12.81 25.38.8 1.38a.2.2 0 0 0 .25.09l1-.4a3.07 3.07 0 0 0 .68.4l.14 1.05a.2.2 0 0 0 .2.18h1.6a.2.2 0 0 0 .21-.17l.15-1.06a2.95 2.95 0 0 0 .68-.4l1 .4a.2.2 0 0 0 .24-.08l.8-1.39a.2.2 0 0 0-.05-.26l-.84-.66a3.03 3.03 0 0 0 .03-.4 2.88 2.88 0 0 0-.03-.39l.84-.66a.2.2 0 0 0 .05-.26l-.8-1.38a.2.2 0 0 0-.25-.09l-1 .4a3.07 3.07 0 0 0-.67-.4l-.15-1.05a.2.2 0 0 0-.2-.18h-1.6a.2.2 0 0 0-.2.17l-.15 1.06a2.95 2.95 0 0 0-.68.4l-1-.4a.2.2 0 0 0-.24.08l-.8 1.39a.2.2 0 0 0 .04.25l.85.67a3.08 3.08 0 0 0-.03.4 2.92 2.92 0 0 0 .03.38l-.85.67a.2.2 0 0 0-.05.26Zm3.88-2.9a1.59 1.59 0 1 1-1.6 1.58 1.59 1.59 0 0 1 1.6-1.58Zm21.36 1.32.01-.07a1 1 0 0 0-1-1h-7.52a1 1 0 0 0 0 2h6.74a3.64 3.64 0 0 1 1.77-.93Z"/><path d="M24.57 35.61c.04-.1.1-.18.14-.27H4.8V12.5h37.8v11.26a3.34 3.34 0 0 1 1.69-.48l.3.03V3.12a1 1 0 0 0-1-1H3.8l-.07.02a.99.99 0 0 0-.25.05.95.95 0 0 0-.1.04.99.99 0 0 0-.25.17l-.04.03-2.8 2.88A1 1 0 0 0 0 6v33.2a1 1 0 0 0 1 1h24.4l-.7-1.5a4.01 4.01 0 0 1-.13-3.1ZM4.8 4.13h37.8v6.38H4.8Z"/></svg>