<svg data-tags="Modern Marketing, Marketing, launchpad" xmlns="http://www.w3.org/2000/svg" viewBox="0 0 50 49.438"><path d="M12.741 18.452H7.878a1 1 0 0 0-1 1v4.997a1 1 0 0 0 1 1h4.863a1 1 0 0 0 1-1v-4.997a1 1 0 0 0-1-1Zm-.578 3.052-1.883 1.883-.004.003v.001a.677.677 0 0 1-.092.06.718.718 0 0 1-.138.09.698.698 0 0 1-.526-.001c-.02-.008-.035-.026-.055-.036a.685.685 0 0 1-.175-.117l-.003-.004-.836-.85a.7.7 0 0 1 .998-.98l.34.345 1.384-1.384a.7.7 0 1 1 .99.99ZM12.741 26.912H7.878a1 1 0 0 0-1 1v4.998a1 1 0 0 0 1 1h4.863a1 1 0 0 0 1-1v-4.998a1 1 0 0 0-1-1Zm-.578 3.052-1.883 1.883-.002.002-.002.002a.682.682 0 0 1-.151.1.762.762 0 0 1-.078.05.544.544 0 0 1-.597-.048.678.678 0 0 1-.16-.106l-.001-.002-.003-.002-.835-.848a.7.7 0 1 1 .998-.983l.34.346 1.384-1.384a.7.7 0 1 1 .99.99ZM35.606 21.95a1.518 1.518 0 0 0-1.518-1.517H17.693a1.518 1.518 0 0 0 0 3.035h16.395a1.518 1.518 0 0 0 1.518-1.518Z"/><path d="m43.681 30.22.492-1.346a.516.516 0 1 0-.97-.354l-.492 1.346a.516.516 0 0 0 .97.354Zm-6.234-1.067-.346.947a10.172 10.172 0 0 1-5.266 5.734l-.538.25 1.98 4.257 1.978 4.257.539-.25a10.172 10.172 0 0 1 7.778-.33l.948.345a.846.846 0 0 0 1.057-1.15l-3.284-7.064-3.284-7.063a.846.846 0 0 0-1.562.067Zm-10.191 8.814 3.106-1.444 3.958 8.513-3.106 1.444a1.188 1.188 0 0 1-1.578-.576l-2.957-6.359a1.188 1.188 0 0 1 .577-1.578Zm15.456-4.282a2.096 2.096 0 0 1 1.768 3.802l-.297.137a.16.16 0 0 1-.213-.078l-1.632-3.51a.16.16 0 0 1 .078-.213ZM33.611 48.76a1.046 1.046 0 0 0 1.897-.882l-.916-1.839-1.897.882Zm13.115-15.198 1.3-.605a.516.516 0 0 1 .435.937l-1.3.604a.516.516 0 0 1-.435-.936Zm.335 5.664a.516.516 0 0 1 .662-.308l1.346.492a.516.516 0 0 1-.354.97l-1.346-.492a.516.516 0 0 1-.308-.662Z" fill="#6ac96e" fill-rule="evenodd"/><path d="M27.154 47.307H5.568a2.862 2.862 0 0 1-2.881-2.86v-.156a5.011 5.011 0 0 0 2.88.936H26.17l-.966-2.08H5.568a2.862 2.862 0 0 1-2.881-2.859v-.156a5.011 5.011 0 0 0 2.88.936h18.67l-.149-.319a4.01 4.01 0 0 1-.363-1.76H5.568a2.862 2.862 0 0 1-2.881-2.86V14.296h38.185V26.83l.005.004a3.389 3.389 0 0 1 2.09-1.42V9.618a4.978 4.978 0 0 0-4.976-4.886h-2.672V3.483a3.51 3.51 0 0 0-7.019 0v1.248H15.205V3.483a3.51 3.51 0 0 0-7.018 0v1.248h-2.62A4.955 4.955 0 0 0 .593 9.669V44.5a4.989 4.989 0 0 0 4.976 4.939h24.999a4.053 4.053 0 0 1-3.413-2.131Zm3.293-43.825a1.414 1.414 0 0 1 2.829 0v3.275a1.414 1.414 0 0 1-2.829 0Zm-20.166 0a1.414 1.414 0 0 1 2.829 0v3.275a1.414 1.414 0 0 1-2.829 0Z" fill="#0a0a14" fill-rule="evenodd"/><path d="m34.417 29.12.062-.17a1.5 1.5 0 0 0-.391-.057H17.693a1.518 1.518 0 0 0 0 3.035h14.872a7.276 7.276 0 0 0 1.852-2.808Z"/></svg>