<svg data-tags="launchpad, illustration, modern research" xmlns="http://www.w3.org/2000/svg" viewBox="0 0 50 50"><defs><clipPath id="placeholder__mediaInsights__a"><path fill="none" d="M22.51 6.54h13.58v13.65H22.51z"/></clipPath></defs><g clip-path="url(#placeholder__mediaInsights__a)"><path d="M33.63 6.54a2.44 2.44 0 012.47 2.42v7.02a2.44 2.44 0 01-2.47 2.4H31.3l-1.62 1.66a.5.5 0 01-.73 0l-1.62-1.65h-2.35a2.44 2.44 0 01-2.46-2.41V8.96a2.44 2.44 0 012.46-2.42zm-4.18 3.7l-.13.11-.12-.11a2.1 2.1 0 00-2.83 0 1.92 1.92 0 000 2.75l2.6 2.55a.52.52 0 00.72 0L32.28 13a1.92 1.92 0 000-2.76 2.03 2.03 0 00-2.83 0z"/></g><path d="M42.67 24.76a1.14 1.14 0 00-1.15-1.15H18.6a1.14 1.14 0 100 2.29h22.93a1.14 1.14 0 001.15-1.14zm-8.16 6.41a1.64 1.64 0 10-1.64 1.64 1.64 1.64 0 001.64-1.64zm-4.68 5.33v1.28a.58.58 0 00.58.58h4.1a6.05 6.05 0 011.28-2.73 3.04 3.04 0 00-5.96.86zm15.49-5.33a1.64 1.64 0 101.64-1.64 1.64 1.64 0 00-1.64 1.64zm1.63 2.28a3.04 3.04 0 00-2.9 2.18 6.05 6.05 0 011.27 2.73h4.1a.58.58 0 00.58-.58v-1.29a3.05 3.05 0 00-3.05-3.04zm-2.85 5.51a4.21 4.21 0 00-.68-1.9 4.26 4.26 0 00-.62-.72 4.19 4.19 0 00-5.76 0 4.27 4.27 0 00-.63.72 4.21 4.21 0 00-.68 1.9l-.02.13a2.5 2.5 0 00-.03.34v2.25a.45.45 0 00.45.45h7.57a.45.45 0 00.46-.45v-2.25a2.5 2.5 0 00-.03-.34l-.02-.13z"/><path d="M39.91 30.03a2.22 2.22 0 102.23 2.22 2.22 2.22 0 00-2.23-2.22zm-21.32.22a1.14 1.14 0 100 2.28h9.68l.1-.12a4.63 4.63 0 01-.2-1.24 4.7 4.7 0 01.1-.92z"/><path d="M36.94 45.29H4.54V10.85h4.03V40.2a1.05 1.05 0 001.05 1.05h19.8a3.63 3.63 0 01-2.64-3.47v-1.01H13.12V2.33H45.5v24.4a4.57 4.57 0 011.46-.25 4.63 4.63 0 01.65.06V1.28A1.05 1.05 0 0046.55.22h-34.5L12 .24a1.06 1.06 0 00-.27.05 1.03 1.03 0 00-.1.04 1.05 1.05 0 00-.3.2L8.87 2.91a1.07 1.07 0 00-.31.74v5.08H3.49a1 1 0 00-.4.09.8.8 0 00-.18.1.83.83 0 00-.16.12l-.05.05-2.38 2.34a1.05 1.05 0 00-.32.75v36.53a1.05 1.05 0 001.05 1.06h34.5a1.03 1.03 0 00.73-.3l2.4-2.35.04-.03a1.8 1.8 0 00.13-.16 1.07 1.07 0 00.2-.6V45.2h-2.11z"/></svg>
