<svg data-tags="Modern Research, research, launchpad" xmlns="http://www.w3.org/2000/svg" viewBox="0 0 50 49.438"><path d="M21.513 6.453a2.82 2.82 0 0 0-2.833 2.793v8.109a2.821 2.821 0 0 0 .84 1.982 2.767 2.767 0 0 0 1.993.811h2.713l1.872 1.912a.497.497 0 0 0 .19.13.635.635 0 0 0 .23.05.593.593 0 0 0 .23-.05.497.497 0 0 0 .191-.13l1.872-1.912h2.713a2.662 2.662 0 0 0 1.081-.2 2.805 2.805 0 0 0 1.542-1.512 2.64 2.64 0 0 0 .23-1.07v-8.11a2.862 2.862 0 0 0-.85-1.982 2.93 2.93 0 0 0-.922-.6 3.048 3.048 0 0 0-1.081-.2v-.02Zm8.95 6.748a2.315 2.315 0 0 1-.5.73l-2.994 2.934a.605.605 0 0 1-.84 0l-2.994-2.944a2.436 2.436 0 0 1-.5-.73 2.108 2.108 0 0 1-.18-.861 2.142 2.142 0 0 1 .18-.861 2.317 2.317 0 0 1 .5-.731 2.398 2.398 0 0 1 3.263 0l.14.13.14-.13a2.447 2.447 0 0 1 1.652-.67 2.363 2.363 0 0 1 1.632.66 2.434 2.434 0 0 1 .5.73 2.19 2.19 0 0 1 .181.872 2.155 2.155 0 0 1-.18.87ZM14.536 26.435a1.094 1.094 0 0 0 1.09 1.091H37.42a1.091 1.091 0 0 0 0-2.182H15.627a1.094 1.094 0 0 0-1.091 1.09ZM38.512 32.013a1.1 1.1 0 0 0-1.092-1.091H15.627a1.091 1.091 0 1 0 0 2.182H37.42a1.094 1.094 0 0 0 1.092-1.091Z" fill="#0a0a14" fill-rule="evenodd"/><path d="M26.191 40.999H7.117V1.987h36.71v32.18a4.696 4.696 0 0 1 2.002-.956V.986a1.004 1.004 0 0 0-1.001-1.001H6.116a1.004 1.004 0 0 0-1.001 1V4.51H1a.982.982 0 0 0-.75.34 1.014 1.014 0 0 0-.24.8l5.115 36.49a1.001 1.001 0 0 0 .55.751.471.471 0 0 0 .15.06.574.574 0 0 0 .14.04h.02l19.783 2.664a3.588 3.588 0 0 1-.102-.817v-1.36a6.149 6.149 0 0 1 .525-2.48Z" fill="#0a0a14" fill-rule="evenodd"/><path d="M30.142 37.847a1.74 1.74 0 1 0 1.739-1.74 1.742 1.742 0 0 0-1.74 1.74ZM31.892 40.256a3.224 3.224 0 0 0-3.222 3.222v1.36a.611.611 0 0 0 .613.613h4.326a6.266 6.266 0 0 1 1.36-2.876 3.221 3.221 0 0 0-3.077-2.32ZM45.05 37.847a1.74 1.74 0 1 0 1.739-1.74 1.74 1.74 0 0 0-1.74 1.74ZM46.778 40.256a3.21 3.21 0 0 0-3.078 2.319 6.433 6.433 0 0 1 1.36 2.876h4.327a.611.611 0 0 0 .613-.613v-1.36a3.217 3.217 0 0 0-3.222-3.222ZM43.778 46.086a4.44 4.44 0 0 0-.725-2.007 4.767 4.767 0 0 0-.669-.758 4.42 4.42 0 0 0-6.088 0 4.774 4.774 0 0 0-.669.758 4.441 4.441 0 0 0-.724 2.007.652.652 0 0 1-.023.145c-.01.123-.022.234-.022.357v2.386a.476.476 0 0 0 .48.48h8.016a.476.476 0 0 0 .48-.48v-2.386a1.85 1.85 0 0 0-.034-.357.645.645 0 0 1-.022-.145ZM39.33 41.348a2.353 2.353 0 1 0-2.353-2.352 2.346 2.346 0 0 0 2.352 2.352Z" fill="#f4b942" fill-rule="evenodd"/></svg>