<svg data-tags="illustration,error state,access denied,403" xmlns="http://www.w3.org/2000/svg" viewBox="0 0 40 40"><path d="M39.868 10.2a.956.956 0 00-.007-.1c-.002-.012-.009-.022-.012-.033a1.96 1.96 0 00-.104-.259.844.844 0 00-.273-.297.974.974 0 00-.12-.082c-.011-.006-.02-.015-.03-.02a1.416 1.416 0 01-.196-.072L4.352.661a1.008 1.008 0 00-.862.185L.5 3.203a.986.986 0 00-.25.31c-.014.025-.027.046-.038.071a.989.989 0 00-.087.379c0 .009-.006.016-.006.025v25.744a1 1 0 00.758.97l34.764 8.667a1.02 1.02 0 00.242.029.706.706 0 00.442-.118.988.988 0 00.174-.094L39.5 36.84a1.001 1.001 0 00.384-.788V10.308a.963.963 0 00-.016-.108zm-4.985 26.918L2.119 28.95V12.47l32.764 8.168zm0-18.541L2.119 10.409V5.27l32.764 8.176z"/><path d="M16.204 12.334l14.366 3.581a1.041 1.041 0 00.243.03 1 1 0 00.242-1.97l-14.367-3.582a1 1 0 00-.484 1.941zM4.503 9.459a1.407 1.407 0 00.212.067.798.798 0 001.014-.798 1.327 1.327 0 00-1.014-1.23 1.244 1.244 0 00-.212-.023.783.783 0 00-.791.824 1.326 1.326 0 00.791 1.16zm3.219.77a1.408 1.408 0 00.212.067.798.798 0 001.014-.799 1.327 1.327 0 00-1.014-1.23 1.23 1.23 0 00-.212-.022.783.783 0 00-.791.824 1.326 1.326 0 00.791 1.16zm3.218.766a1.41 1.41 0 00.213.068.798.798 0 001.014-.799 1.327 1.327 0 00-1.014-1.23 1.23 1.23 0 00-.212-.022.783.783 0 00-.791.824 1.326 1.326 0 00.79 1.16zm3.635 18.542l6.808 1.68a.879.879 0 001.151-.858l.086-5.692a1.524 1.524 0 00-1.117-1.42l-.567-.14.017-1.138a3.8 3.8 0 00-2.793-3.546 2.193 2.193 0 00-2.88 2.146l-.017 1.138-.567-.14a.879.879 0 00-1.152.859l-.086 5.692a1.524 1.524 0 001.117 1.42zm3.447-2.006a1.524 1.524 0 01-1.117-1.419.879.879 0 011.151-.858 1.524 1.524 0 011.118 1.419.879.879 0 01-1.152.858zm-1.607-6.682a1.314 1.314 0 011.728-1.288 2.275 2.275 0 011.676 2.128l-.018 1.139-3.403-.84z"/></svg>