<svg data-tags="illustration,not allowed,no entry,no permission" xmlns="http://www.w3.org/2000/svg" viewBox="0 0 40 40"><path d="M39.827 21.214A20.588 20.588 0 0021.352 1.132a17.454 17.454 0 00-7.39.904A16.546 16.546 0 00.172 18.69a20.587 20.587 0 0018.476 20.082 17.598 17.598 0 007.337-.884 16.552 16.552 0 0013.842-16.675zM2.173 18.866A14.755 14.755 0 0114.534 4.001a15.979 15.979 0 014.114-.159 18.353 18.353 0 0116.466 17.906q0 .612-.045 1.213a14.73 14.73 0 01-9.796 13 15.703 15.703 0 01-6.625.812A18.358 18.358 0 012.173 18.866z"/><path d="M28.93 29.763a1.097 1.097 0 00.707.355l.08.004a.902.902 0 00.703-.324c.007-.01.02-.012.026-.021l.001-.001a12.207 12.207 0 001.425-2.358l.005-.007.004-.009V27.4l.001-.002a13.455 13.455 0 001.281-5.82A16.184 16.184 0 0018.648 5.782a14.506 14.506 0 00-3.173.066c-.015 0-.027.008-.041.01-.014.001-.027-.004-.04-.002a13.217 13.217 0 00-5.19 1.903.9.9 0 00-.412.695 1.083 1.083 0 00.29.812zm2.233-8.36a11.808 11.808 0 01-.58 3.681L15.07 8.212a9.37 9.37 0 01.87-.373 12.53 12.53 0 012.71-.057 13.955 13.955 0 0112.514 13.62zM24.805 33.99a12.475 12.475 0 002.42-1.221c.02-.014.03-.036.05-.051.02-.016.046-.02.065-.038a.83.83 0 00.069-.097.859.859 0 00.11-.156.878.878 0 00.063-.172.925.925 0 00.036-.182.981.981 0 00-.008-.191 1.008 1.008 0 00-.035-.186 1.071 1.071 0 00-.086-.194 1.025 1.025 0 00-.05-.112c-.016-.022-.038-.033-.055-.054-.017-.022-.024-.05-.044-.07L9.79 12.201l-.003-.002-1.349-1.466a1.085 1.085 0 00-.783-.359.908.908 0 00-.73.34 13.315 13.315 0 00-2.803 8.322 16.19 16.19 0 0014.525 15.796 13.535 13.535 0 006.101-.828c.014-.005.028-.007.041-.012zM8.826 18.503a11.83 11.83 0 01.627-3.84l15.61 16.957a10.451 10.451 0 01-.985.438 11.954 11.954 0 01-2.726.066 13.961 13.961 0 01-12.526-13.62z"/></svg>