<svg data-tags="case,ticket,no case present" xmlns="http://www.w3.org/2000/svg" viewBox="0 0 90 90"><path d="M83.284 16.433a.968.968 0 00-.009-.106c-.002-.01-.008-.018-.01-.028a.977.977 0 00-.054-.142 1.139 1.139 0 00-.455-.497l-.014-.01a.957.957 0 00-.114-.037.974.974 0 00-.12-.044L9.688.089a1.003 1.003 0 00-.815.183l-2.45 1.87-.012.012-.01.006c-.01.007-.013.02-.022.027a.987.987 0 00-.22.28c-.014.025-.028.046-.039.072a.987.987 0 00-.084.374c0 .008-.006.015-.006.024v16.7a1.001 1.001 0 00.792.979l72.83 15.479a.993.993 0 00.533-.034 961.417 961.417 0 01.284-.15l2.44-1.87a1 1 0 00.39-.795V16.547a.971.971 0 00-.015-.114zM8.03 4.173l8.43 1.79 62.4 13.264V33.88L8.03 18.827zm38.526 28.115c-.002-.009-.008-.017-.01-.026a2.593 2.593 0 00-.106-.26 1.326 1.326 0 00-.4-.38l-.016-.011a3.62 3.62 0 01-.236-.082l-36.1-7.681a.994.994 0 00-.813.183l-2.45 1.86-.012.013-.012.006c-.01.008-.015.022-.025.031a.984.984 0 00-.216.275c-.014.025-.028.047-.04.074a.987.987 0 00-.084.372c0 .009-.006.016-.006.025v46.76a1 1 0 00.792.978l36.11 7.67a.798.798 0 00.651-.097.97.97 0 00.163-.087l.022-.016.002-.001 2.416-1.842a.997.997 0 00.394-.795v-46.75a.971.971 0 00-.016-.117.955.955 0 00-.008-.102zM8.03 27.922l34.11 7.255v44.705L8.03 72.637zm75.245 30.564c-.002-.01-.008-.018-.01-.028a.816.816 0 00-.195-.374.563.563 0 00-.193-.183.98.98 0 00-.12-.081l-.015-.01a.958.958 0 00-.115-.038.975.975 0 00-.12-.044l-29.299-6.23a1.004 1.004 0 00-.816.185l-2.44 1.87-.012.012-.01.005c-.008.007-.011.018-.02.025a.987.987 0 00-.222.282c-.013.025-.027.047-.038.072a.99.99 0 00-.085.375c0 .008-.005.015-.005.023v28.35a1.001 1.001 0 00.792.978l29.3 6.23a.782.782 0 00.638-.09.975.975 0 00.177-.093l2.44-1.86a1 1 0 00.393-.795v-28.36a1.788 1.788 0 01-.025-.221zm-31.714-2.904l27.3 5.805v26.305l-27.3-5.805zm31.714-15.494c-.002-.01-.007-.017-.01-.027a.98.98 0 00-.057-.15.592.592 0 00-.143-.232.988.988 0 00-.078-.094 1.003 1.003 0 00-.119-.09.985.985 0 00-.108-.073l-.017-.012a3.363 3.363 0 01-.235-.082l-29.3-6.23a1.004 1.004 0 00-.816.185l-2.44 1.87-.012.012-.01.004c-.008.007-.011.019-.02.026a.987.987 0 00-.222.282c-.013.025-.027.047-.038.072a.99.99 0 00-.085.374c0 .008-.005.015-.005.024v11.3a1.001 1.001 0 00.792.978l29.3 6.23a.782.782 0 00.638-.09.974.974 0 00.177-.093l2.44-1.86a1 1 0 00.393-.795v-11.31a1.774 1.774 0 01-.025-.219zm-31.714-2.906l27.3 5.795v9.265l-27.3-5.805z"/><path d="M14.44 39.168a1.81 1.81 0 00.32-.343l5.646 1.2a4.113 4.113 0 002.933 2.72l11.84 2.516a2.448 2.448 0 003.119-2.456 4.065 4.065 0 00-3.119-3.781l-11.84-2.517a2.442 2.442 0 00-2.934 1.473l-5.445-1.158a2.505 2.505 0 00-1.75-1.502 1.952 1.952 0 00-1.645.369 1.912 1.912 0 00-.693 1.5 2.475 2.475 0 001.13 2.01v10.895a1.817 1.817 0 00-.437.255 1.912 1.912 0 00-.693 1.5 2.475 2.475 0 001.13 2.01v10.896a1.815 1.815 0 00-.437.255 1.911 1.911 0 00-.693 1.5 2.488 2.488 0 001.923 2.35 2.137 2.137 0 00.441.047 1.906 1.906 0 001.205-.417 1.812 1.812 0 00.32-.344l5.644 1.2a4.113 4.113 0 002.933 2.72l11.841 2.516a2.448 2.448 0 003.119-2.456 4.065 4.065 0 00-3.119-3.781l-11.84-2.517a2.442 2.442 0 00-2.933 1.472l-5.446-1.157a2.565 2.565 0 00-.957-1.165V54.071a1.55 1.55 0 00.758-.585l5.645 1.2a4.113 4.113 0 002.933 2.719l11.84 2.517a2.448 2.448 0 003.119-2.456 4.065 4.065 0 00-3.119-3.782l-11.84-2.517a2.442 2.442 0 00-2.933 1.473l-5.446-1.157a2.565 2.565 0 00-.957-1.165V39.411a1.818 1.818 0 00.438-.243zM65.216 61.97a8.314 8.314 0 00-7.118 1.522 8.03 8.03 0 00-2.894 6.402 12.106 12.106 0 009.389 11.41 9.771 9.771 0 002.044.22 7.95 7.95 0 005.075-1.741 8.032 8.032 0 002.893-6.403 12.104 12.104 0 00-9.39-11.41zm4.356 8.323l-5.232 4.754a.974.974 0 01-.204.125 1.04 1.04 0 01-.11.067.988.988 0 01-.75-.013 1.042 1.042 0 01-.114-.078.963.963 0 01-.218-.15l-2.758-2.883a1 1 0 011.446-1.383l2.084 2.179 4.51-4.098a1 1 0 111.346 1.48zm5.871-25.855l-20.049-4.261a1 1 0 10-.416 1.957l20.049 4.261a1.019 1.019 0 00.209.022 1 1 0 00.207-1.979zm0 3.428l-20.049-4.262a1 1 0 10-.416 1.957l20.049 4.262a1.02 1.02 0 00.209.022 1 1 0 00.207-1.979zM54.172 17.978L25.45 11.872a1 1 0 00-.416 1.957l28.722 6.106a1.02 1.02 0 00.209.021 1 1 0 00.207-1.978zm-8.876 2.808L25.45 16.568a1 1 0 00-.416 1.957l19.846 4.218a1.023 1.023 0 00.209.022 1 1 0 00.207-1.979zM19.723 8.86L11.438 7.1a.991.991 0 00-.838.201 1.001 1.001 0 00-.37.778v8.286a1 1 0 00.791.978l8.286 1.76a1 1 0 001.208-.978V9.84a1.001 1.001 0 00-.792-.978z"/></svg>