<svg data-tags="illustration,cases" xmlns="http://www.w3.org/2000/svg" viewBox="0 0 40 40"><path d="M37.483 28.271a1.003 1.003 0 00-.426-.635 1.022 1.022 0 00-.752-.148l-2.197.444-.65-2.77 1.968-.393a1 1 0 00.784-1.175l-1.005-5.072a1 1 0 00-1.18-.785l-2.207.448-.657-2.8 2.128-.427a1 1 0 00.783-1.175l-1.006-5.071a1 1 0 00-1.175-.786l-2.372.472-.182-.775a1 1 0 00-.47-.637 1.01 1.01 0 00-.785-.096l-2.324.681-1.444-6.334a.999.999 0 00-1.37-.695l-21.49 9.26a.999.999 0 00-.579 1.14l6.46 28.34a1.005 1.005 0 00.654.72.995.995 0 00.33.058h.001a.864.864 0 00.122-.008l26.61-3.26a1 1 0 00.851-1.22l-.153-.652 1.973-.4a1 1 0 00.78-1.177zm-4.044-8.375l.616 3.108-1.055.21-.724-3.08zm-2.14-9.814l.618 3.111-1.214.245-.726-3.092zm-8.667-7.229l6.287 27.591-19.886 7.29L3.01 11.308zm12.66 30.12l-.726-3.093 1.154-.233.627 3.112z"/><path d="M16.495 26.837a5.683 5.683 0 002.126-.435 4.72 4.72 0 003.241-4.96 1.395 1.395 0 00-.103-.555 1.17 1.17 0 00-1.131-.736c-.053 0-.107.004-.205.011a1.46 1.46 0 00-.552.113 1.223 1.223 0 00-.75 1.265 2.086 2.086 0 01-1.424 2.452 2.767 2.767 0 01-1.033.213c-1.305 0-2.47-1.11-3.28-3.125a5.779 5.779 0 01-.467-3.255 2.416 2.416 0 011.536-1.842 2.512 2.512 0 01.945-.207 2.257 2.257 0 011.716.986 1.154 1.154 0 00.865.406 1.242 1.242 0 00.468-.097 2.001 2.001 0 00.541-.327 1.314 1.314 0 00.363-1.455 1.524 1.524 0 00-.26-.412 4.717 4.717 0 00-3.554-1.714 5.646 5.646 0 00-2.089.438c-3.221 1.298-4.23 4.57-2.63 8.538 1.2 2.985 3.27 4.698 5.677 4.698z"/></svg>