<svg data-tags="empty state" xmlns="http://www.w3.org/2000/svg" viewBox="0 0 20 20"><defs/><path fill="#0828cc" d="M8.373 8.307l.625.624-5.363 5.358a.662.662 0 00.937.936l5.363-5.358.524.524-.014.026a.615.615 0 00.353.878.467.467 0 01.3.3.621.621 0 00.168.262.61.61 0 00.417.162.641.641 0 00.451-.186l1.869-1.867a.63.63 0 00.024-.867.622.622 0 00-.263-.168.467.467 0 01-.3-.3.616.616 0 00-.879-.352l-.026.014-2.086-2.084.014-.026a.616.616 0 00-.353-.879.467.467 0 01-.3-.3.622.622 0 00-.167-.261.631.631 0 00-.869.023L6.93 6.634a.63.63 0 00-.024.867.62.62 0 00.263.167.467.467 0 01.3.3.61.61 0 00.585.424.645.645 0 00.294-.071z"/><path fill="#fff" d="M4.103 15.168a.41.41 0 01-.41-.409v-.002a.408.408 0 01.12-.29l5.363-5.358.581.58-5.363 5.359a.41.41 0 01-.291.12z"/><path fill="#6b7ee0" d="M9.664 14.648a.57.57 0 01.569-.57h5.269a.57.57 0 010 1.14h-5.27a.57.57 0 01-.568-.57z" opacity=".484" /><path fill="#e6e9f9" d="M11.684 11.769a.36.36 0 01-.347-.251.724.724 0 00-.076-.163l-.017-.027 2.253-2.251.027.017a.704.704 0 00.163.076.363.363 0 01.156.1.377.377 0 01-.018.519l-1.869 1.867a.386.386 0 01-.272.113z"/><path fill="#fff" d="M11.066 11.15l-.028-.017a.699.699 0 00-.162-.077.364.364 0 01-.156-.1.376.376 0 01.017-.518l1.869-1.867a.388.388 0 01.52-.018.365.365 0 01.099.156.709.709 0 00.077.163l.017.027-2.254 2.251zm-2.5-3.005l1.744-1.744 2.056 2.054-1.743 1.744zm-.513-.004a.36.36 0 01-.246-.094.364.364 0 01-.1-.156.716.716 0 00-.077-.163l-.017-.027L9.867 5.45l.027.017a.709.709 0 00.162.077.367.367 0 01.157.1.377.377 0 01-.018.518l-1.87 1.867a.386.386 0 01-.272.113z"/><path fill="#e6e9f9" d="M7.435 7.523l-.027-.017a.719.719 0 00-.163-.077.364.364 0 01-.156-.099.377.377 0 01.018-.519l1.869-1.867a.388.388 0 01.519-.018.365.365 0 01.1.156.713.713 0 00.076.163l.018.027z"/><path fill="#6b7ee0" d="M11.528 8.47a.152.152 0 00.214 0 .152.152 0 000-.215l-1.25-1.25a.152.152 0 00-.214.215zM2.67 7.532l-.403.001V7.12a.121.121 0 10-.243 0v.413l-.402.001a.121.121 0 000 .243h.403v.412a.121.121 0 10.243 0v-.413h.402a.121.121 0 000-.244zM.85 6.898H.646v-.202a.121.121 0 00-.243 0v.202H.202a.121.121 0 000 .244h.203v.202a.121.121 0 10.243 0V7.14h.202a.121.121 0 100-.243zm18.831 7.731h-.402l-.001-.412a.121.121 0 00-.243 0v.413h-.402a.121.121 0 000 .244h.403v.412a.121.121 0 10.244 0l-.001-.413.403-.001a.121.121 0 100-.243z"/></svg>
