<svg data-tags="cluster,circles,conversational cluster" xmlns="http://www.w3.org/2000/svg" viewBox="0 0 40 40"><path d="M34 24.663a5.988 5.988 0 00-5.637 4.003l-5.351-2.616a7.125 7.125 0 00-1.154-6.446l7.714-8.342.627-.635a5.918 5.918 0 003.8 1.364A5.995 5.995 0 1028 6a5.913 5.913 0 00.873 3.072l-8.422 9.108a7.21 7.21 0 00-7.896-.635L8.486 9.614a5.32 5.32 0 10-3.146 1.044 5.146 5.146 0 001.334-.195l4.244 8.274a7.262 7.262 0 00-.75 9.681l-4.305 4.036a3.96 3.96 0 00-1.856-.469 4.002 4.002 0 103.997 4.008 3.947 3.947 0 00-.664-2.182l4.245-3.98a7.163 7.163 0 006.11 1.28l1.025 2.631a3.475 3.475 0 102.14-.755c-.095 0-.185.02-.278.028l-1.023-2.628a7.377 7.377 0 002.637-2.509l5.806 2.838A6 6 0 1034 24.663z"/><path d="M16.534 12.9a2.912 2.912 0 002.52-4.397l2.354-2.823a2.9 2.9 0 00.99.184 2.932 2.932 0 10-2.937-2.937 2.901 2.901 0 00.412 1.473L17.52 7.22a2.89 2.89 0 00-.987-.183 2.932 2.932 0 100 5.863zM1.74 14.655a1.736 1.736 0 00-.612 3.363l1.07 4.126a2.598 2.598 0 101.936-.502l-1.071-4.13a1.723 1.723 0 00.416-1.117 1.741 1.741 0 00-1.74-1.74zm35.847-1.993a2.41 2.41 0 00-2.404 2.404 2.37 2.37 0 00.038.372l-1.804 1.197a3.735 3.735 0 101.034 1.713l1.877-1.245a2.377 2.377 0 001.259.367 2.404 2.404 0 100-4.808z"/></svg>