<svg data-tags="no courses,empty,lost" xmlns="http://www.w3.org/2000/svg" xmlns:xlink="http://www.w3.org/1999/xlink" viewBox="0 0 22.061 15.378"><defs><linearGradient id="noData_a" x1="8.226" x2="19.637" y1="11.112" y2="11.112" gradientUnits="userSpaceOnUse"><stop offset="0" stop-color="#ad00ff"/><stop offset=".466" stop-color="#786eff"/></linearGradient><linearGradient id="noData_c" x1="190.044" x2="190.044" y1="274.778" y2="271.956" gradientTransform="rotate(67.819 295.306 4.79)" href="#noData_a"/><linearGradient id="noData_b" x1="3.155" x2="3.155" y1="5.62" y2="2.527" gradientUnits="userSpaceOnUse"><stop offset="0" stop-color="#f19c96"/><stop offset=".542" stop-color="#f2b395"/><stop offset="1" stop-color="#fd9b93"/></linearGradient><linearGradient id="noData_d" x1="4.987" x2="4.987" y1="12.747" y2="9.032" href="#noData_b"/><linearGradient id="noData_e" x1="2.363" x2="2.363" y1="3.645" y2="1.944" href="#noData_b"/></defs><path fill="url(#noData_a)" d="M19.637 9.309v3.535a2.335 2.335 0 00-1.443-.763c-.949-.073-1.254.695-2.277.82-1.24.15-1.444-.899-2.828-.92-1.336-.02-1.6.95-2.984.792a2.737 2.737 0 01-1.143-.361c-.046-.142-.102-.31-.178-.52-.039-.107-.095-.261-.172-.49-.076-.228-.086-.267-.115-.345a2.03 2.03 0 00-.271-.491l3.11-1.257z"/><path fill="#0a0a14" d="M18.983 6.533H10.51a.009.009 0 010-.018h8.473a.009.009 0 110 .018zM9.491 4.702a.009.009 0 01-.009-.01V2.205c0-.01.018-.01.018 0v2.489a.009.009 0 01-.009.009z"/><path fill="#050505" d="M19.392 1.804v4.72h-.409v-4.32l.409-.4z"/><path fill="#0a0a14" d="M19.393 6.533h-.41a.009.009 0 01-.008-.009v-4.32l.003-.007.409-.4c0-.003.003-.003.01-.002l.004.009v4.72a.009.009 0 01-.008.009zm-.4-.018h.39v-4.69l-.39.383zM8.227 10.578l-.008-.005c-.002-.004-.002-.009.003-.01l.002-.002 3.359-1.358-1.762-4.36-1.883.761a.009.009 0 01-.011-.005.01.01 0 01.006-.012l1.89-.764h.007l.005.005 1.769 4.377a.01.01 0 01-.006.011l-.248.101-3.12 1.26zM2.415 12.926l-.009-.006a.01.01 0 01.006-.011l1.013-.408a.01.01 0 01.006.017l-1.013.408zM7.755 5.362l-.009-.005a.01.01 0 01.006-.012l1.686-.682c.002-.002.01 0 .011.005a.01.01 0 01-.006.012l-1.685.681z"/><path fill="#050505" d="M2.415 12.918l-.385-.16L.261 8.382l.385.16 1.769 4.376z"/><path fill="#0a0a14" d="M2.415 12.926h-.004l-.385-.159-.005-.006L.252 8.385l.003-.01c0-.003.003-.003.01-.001l.385.159.005.006 1.769 4.376-.003.01zm-.378-.174l.361.149L.64 8.548l-.363-.15z"/><path fill="#f2f2f4" d="M6.585 6.142l-5.939 2.4-.385-.16 3.053-1.234.94-.38 2.113-.854.072.034h.001v.001l.035.047.11.146z"/><path fill="#0a0a14" d="M.646 8.55H.643l-.386-.16-.005-.008.006-.008 6.106-2.469h.007l.072.035c.005 0 .006.003.006.008l.033.043.11.146.002.008-.006.005-5.939 2.4zm-.362-.168l.362.15L6.57 6.138a9.687 9.687 0 01-.101-.136l-.035-.047h-.001a.82.82 0 01-.066-.032zM9.826 4.84h-.004l-.385-.16a.01.01 0 01-.004-.012l.007-.005h.004l.386.16a.01.01 0 01.004.012z"/><circle cx="13.466" cy="4.323" r=".092" fill="#0a0a14"/><circle cx="14.288" cy="4.323" r=".092" fill="#0a0a14"/><circle cx="15.175" cy="4.323" r=".092" fill="#0a0a14"/><path fill="#f2f2f4" d="M19.392 1.804l-.409.4H9.492v-.4h9.9z"/><path fill="#0a0a14" d="M18.983 2.212H9.491a.009.009 0 01-.009-.008v-.4a.009.009 0 01.01-.009h9.9l.01.005-.004.01-.409.4zM9.5 2.195h9.48l.39-.382H9.5z"/><path fill="#0a0a14" d="M21.8 8.135H11.159a.009.009 0 110-.018h10.634V.187H7.095V4.52c0 .01-.018.01-.018 0V.18A.009.009 0 017.086.17H21.8a.009.009 0 01.009.009v7.947a.009.009 0 01-.01.009z"/><path fill="#ffac00" d="M19.124 10.306h1.083v1.083h-1.083z"/><path fill="#f2f2f4" d="M9.702 14.34a.477.477 0 01-.049.123c-.069.12-.192.213-.483.303a2.957 2.957 0 01-.575.115c-.265.03-.33.013-.632.038a6.775 6.775 0 00-.122.011 1.786 1.786 0 00-.467.098 1.592 1.592 0 00-.23.108 5.75 5.75 0 01-.082-.19 5.113 5.113 0 01-.213-.68 11.02 11.02 0 00-.15-.498c.01-.132.022-.246.034-.34a4.956 4.956 0 01.124-.636c.042-.158.066-.215.098-.37.019-.092.032-.175.04-.246a3.64 3.64 0 01-.22.327c-.256.355-.216.322-.35.524-.062.094-.162.237-.346.493-.331.46-.51.707-.78 1.041-.203.252-.38.456-.508.6a3.255 3.255 0 00-.402-.034c-.475-.01-.583.088-.821.07a.87.87 0 01-.097-.012c-.049-.01-.273-.094-.721-.263a.84.84 0 00-.37-.057.854.854 0 00-.139.024 6.51 6.51 0 01.205-.442c.118-.231.16-.276.353-.615.054-.095.155-.274.276-.504l.001-.001c.038-.045.08-.09.124-.137.09-.092.154-.135.373-.32l.211-.183a.8.8 0 00.098-.059.76.76 0 00.195-.215.183.183 0 00.031.037.24.24 0 00.175.049.405.405 0 00.234-.09.554.554 0 00.137-.184.286.286 0 00.052.04.306.306 0 00.212.04c.079-.017.123-.07.194-.155a1.193 1.193 0 00.1-.149.836.836 0 00.089.02.882.882 0 00.359-.029.88.88 0 00.475-.467l.814-.44.346-.14.93-.375a2.03 2.03 0 01.272.49c.03.078.039.118.115.345.077.23.133.384.172.492.276.77.296.956.516 1.492l.238.566.164.385z"/><path fill="#0a0a14" d="M3.623 15.209c-.018 0-.037 0-.057-.002a.76.76 0 01-.096-.014c-.048-.009-.247-.083-.723-.262a.847.847 0 00-.304-.06c-.02 0-.04 0-.061.003a.856.856 0 00-.138.024l-.009-.003-.002-.01c.066-.155.133-.3.205-.442.07-.138.113-.208.177-.316.043-.072.097-.162.176-.3.027-.047.128-.222.276-.503.038-.046.08-.091.126-.14a2.042 2.042 0 01.184-.163l.19-.16.211-.18a.891.891 0 00.094-.057l.005-.003a.729.729 0 00.191-.212l.008-.004.007.003a.285.285 0 00.031.035.228.228 0 00.168.047.384.384 0 00.23-.087.543.543 0 00.135-.183l.006-.004h.001l.007.002a.198.198 0 00.05.038.28.28 0 00.205.04c.077-.016.121-.07.189-.152a1.107 1.107 0 00.1-.147l.009-.004a.751.751 0 00.442-.01.872.872 0 00.47-.461l.005-.005.814-.44h.005l.342-.14.93-.376.01.004a2.068 2.068 0 01.274.492l.043.126c.015.048.035.112.071.219.071.213.125.36.164.468l.009.023c.12.337.19.559.253.754.078.244.139.436.264.74l.175.418.062.147.163.383.001.006a.484.484 0 01-.05.126.776.776 0 01-.488.308 3.02 3.02 0 01-.576.115 3.538 3.538 0 01-.32.022 4.86 4.86 0 00-.312.016l-.018.002q-.048.003-.105.009a1.752 1.752 0 00-.465.099 1.65 1.65 0 00-.23.105l-.006.001-.005-.005-.006-.012a6.774 6.774 0 01-.076-.176 4.179 4.179 0 01-.182-.568l-.031-.115-.007-.024a11.7 11.7 0 00-.144-.474c.008-.116.019-.231.035-.344v-.006a4.818 4.818 0 01.124-.63c.015-.06.029-.106.04-.148.02-.067.038-.126.057-.222a3.24 3.24 0 00.034-.202c-.064.107-.13.198-.183.272l-.015.018c-.17.238-.21.302-.257.377-.023.038-.048.08-.092.147-.077.113-.187.27-.348.493-.325.455-.509.707-.778 1.042-.218.269-.397.474-.51.599l-.006.003H4.79a3.348 3.348 0 00-.4-.034h-.065a2.321 2.321 0 00-.472.046 1.189 1.189 0 01-.23.028zm-1.18-.356a.858.858 0 01.307.06c.43.162.674.254.724.262.036.007.069.011.094.014a1.06 1.06 0 00.282-.025 2.263 2.263 0 01.475-.047h.065a3.367 3.367 0 01.397.033c.112-.125.29-.328.506-.595.27-.334.452-.586.778-1.04.16-.223.27-.38.346-.493a4.28 4.28 0 00.094-.146c.046-.076.086-.141.258-.377l.013-.02a3.633 3.633 0 00.205-.308l.011-.003.006.01c-.01.08-.024.162-.04.246-.02.096-.037.155-.057.223a3.576 3.576 0 00-.04.148 5.018 5.018 0 00-.124.627v.006a5.634 5.634 0 00-.035.34c.072.217.124.402.144.47l.006.025c.011.04.02.078.032.116a4.178 4.178 0 00.18.565l.077.176v.003a1.751 1.751 0 01.224-.103 1.785 1.785 0 01.469-.099l.105-.01h.018c.142-.012.232-.015.312-.018.096-.003.178-.005.32-.02a2.962 2.962 0 00.572-.116.751.751 0 00.479-.3.429.429 0 00.046-.117l-.162-.381-.061-.147-.177-.419c-.124-.303-.185-.496-.264-.74a18.041 18.041 0 00-.253-.754l-.007-.024a16.262 16.262 0 01-.236-.687c-.018-.053-.028-.083-.044-.125a2.028 2.028 0 00-.265-.482l-1.27.513-.811.438a.89.89 0 01-.48.468.888.888 0 01-.362.03 1.283 1.283 0 01-.084-.018 1.135 1.135 0 01-.098.144c-.07.085-.115.14-.198.158a.304.304 0 01-.218-.042.32.32 0 01-.046-.032.53.53 0 01-.133.176.402.402 0 01-.24.091l-.021.001a.228.228 0 01-.16-.051.376.376 0 01-.026-.029.741.741 0 01-.19.208l-.004.003a.865.865 0 01-.094.056c-.057.05-.129.112-.21.18-.08.07-.141.12-.19.16a2.218 2.218 0 00-.181.16c-.048.05-.088.095-.124.138-.147.28-.249.456-.276.503l-.176.3a4.678 4.678 0 00-.177.315c-.07.136-.134.276-.197.425a.745.745 0 01.123-.02.752.752 0 01.063-.003z"/><path fill="#0a0a14" d="M6.994 12.187c-.005 0-.008-.006-.008-.01v-.002a3.72 3.72 0 00.081-.154 2.138 2.138 0 00.15-.413c.021-.086.034-.158.042-.204a.01.01 0 01.009-.008c.006.001.01.005.008.01-.007.047-.02.119-.04.206a2.117 2.117 0 01-.153.417 2.637 2.637 0 01-.08.151c0 .005-.004.007-.009.007zM7.3 11.25h-.003a.011.011 0 01-.006-.012.478.478 0 00.017-.194.467.467 0 00-.022-.095.01.01 0 01.006-.012.012.012 0 01.012.006.504.504 0 01.021.1.52.52 0 01-.016.2z"/><path fill="#050505" d="M6.995 12.176a3.136 3.136 0 01-.04.246c-.033.155-.056.212-.098.37a4.956 4.956 0 00-.124.636 4.843 4.843 0 00-.033.34 9.442 9.442 0 00-.275-.74c.134-.203.094-.17.35-.525a3.64 3.64 0 00.22-.327z"/><path fill="#0a0a14" d="M6.7 13.776l-.01-.006a9.309 9.309 0 00-.273-.74v-.008a4.28 4.28 0 00.094-.146c.046-.076.086-.141.258-.377l.013-.02a3.633 3.633 0 00.205-.308l.011-.004.006.01c-.01.08-.024.163-.04.247-.02.096-.037.155-.057.223a3.576 3.576 0 00-.04.147 5.018 5.018 0 00-.124.628v.006a5.634 5.634 0 00-.035.34.008.008 0 01-.008.008zm-.265-.748a8.898 8.898 0 01.259.692c.007-.097.017-.196.03-.294l.002-.006a4.818 4.818 0 01.123-.63c.015-.06.029-.106.04-.148.02-.067.038-.126.057-.222a3.24 3.24 0 00.034-.202c-.064.107-.13.198-.183.272l-.015.018c-.17.238-.21.302-.257.377a3.55 3.55 0 01-.09.143zM3.567 15.207l-.004-.001a.008.008 0 01-.003-.012 9.528 9.528 0 01.502-.81.01.01 0 01.012-.003l.003.013a10.528 10.528 0 00-.502.808zM4.136 14.308H4.13l-.003-.014.052-.082.084-.135a.01.01 0 01.012-.003.01.01 0 01.003.013l-.084.134-.051.083zM7.53 13.311l-.009-.007a6.784 6.784 0 00-.319-.972 7.135 7.135 0 00-.135-.303.008.008 0 01.004-.012l.012.004c.047.099.093.201.135.303a6.76 6.76 0 01.321.976.008.008 0 01-.009.011zM7.63 13.667l-.009-.006a4.09 4.09 0 01-.064-.178.01.01 0 01.005-.012c.003 0 .01.001.012.006a4.104 4.104 0 00.065.178.01.01 0 01-.006.012zM7.964 14.928l-.009-.007a16.484 16.484 0 00-.299-1.075.01.01 0 01.006-.011.01.01 0 01.012.005 15.25 15.25 0 01.299 1.078c0 .005-.002.01-.01.01z"/><path fill="#212121" stroke="#0a0a14" stroke-linecap="round" stroke-linejoin="round" stroke-width=".018" d="M3.642 2.45v-.01c-.01-.01-.01-.02-.02-.04a.139.139 0 00-.04-.03c-.02-.01-.03-.02-.04-.02a.01.01 0 00-.01.01c-.11.08-.26.2-.44.32a7.07 7.07 0 01-1.03.64 6.108 6.108 0 01-.65.28 1.573 1.573 0 00-.16.05h-.02a.078.078 0 00-.04.03c0 .01 0 .01-.01.02a.373.373 0 00.04.17c.06.11.02.17.12.43 0 0 .11.3.22.32h.07c.15 0 .52-.35.52-.35.25-.24.3-.3.39-.4a2.353 2.353 0 00.17-.2 3.504 3.504 0 00.32-.55.078.078 0 01-.02-.03.208.208 0 01-.04-.15.187.187 0 01.1-.13.19.19 0 01.11 0 .16.16 0 01.09.07c.03-.02.06-.05.09-.07a2.483 2.483 0 00.23-.23l.05-.05c.01-.01.01-.02.02-.03a.076.076 0 00-.02-.05zm-1.47 1.32a.34.34 0 01-.14.19.31.31 0 01-.17.06c-.05 0-.08-.01-.11-.01.14-.1.29-.2.43-.3a.127.127 0 01-.01.06z"/><path fill="#fff" d="M2.182 3.71a.127.127 0 01-.01.06.34.34 0 01-.14.19.31.31 0 01-.17.06c-.05 0-.08-.01-.11-.01.14-.1.29-.2.43-.3z"/><path fill="#0a0a14" d="M1.862 4.028a.452.452 0 01-.07-.006.306.306 0 00-.04-.004l-.009-.006.004-.01c.073-.052.149-.104.225-.156l.206-.144h.008l.005.008a.125.125 0 01-.011.064.34.34 0 01-.143.193.318.318 0 01-.175.06zm-.085-.026l.018.002a.474.474 0 00.067.006.302.302 0 00.165-.058.327.327 0 00.136-.185.074.074 0 00.01-.04c-.063.045-.127.089-.192.133l-.204.142z"/><path fill="url(#noData_c)" d="M7.944 8.004l-2.571-.353a.287.287 0 00-.305.392l.98 2.404a.287.287 0 00.492.068l1.592-2.05a.287.287 0 00-.188-.461z"/><path fill="url(#noData_b)" stroke="#0a0a14" stroke-linecap="round" stroke-linejoin="round" stroke-width=".018" d="M4.583 4.63a1.696 1.696 0 01-.186-.273 1.607 1.607 0 01-.16-.307 1.49 1.49 0 01-.067-.222 4.772 4.772 0 00-.194-.632 2.366 2.366 0 00-.277-.588 2.038 2.038 0 00-.06-.08 1.618 1.618 0 01-.048.054 2.751 2.751 0 01-.226.223.926.926 0 01.039.128.88.88 0 01.02.119c.006.045.006.08.008.15v.068l-.01-.022a.416.416 0 01-.026-.1.61.61 0 00-.09-.223.766.766 0 00-.03-.044.18.18 0 00-.09-.07.16.16 0 00-.11 0 .179.179 0 00-.101.132.225.225 0 00.036.15l.019.029a3.087 3.087 0 01-.321.544c-.069.092-.129.161-.168.207a5.64 5.64 0 01-.39.392s-.367.352-.52.357l.021.054.037.105a.11.11 0 00.024.012.113.113 0 00.052.006l.037.056c.028.042.206.314.26.389a1.198 1.198 0 00.496.376.385.385 0 00.05 0 .608.608 0 00.366-.179 2.639 2.639 0 00.338-.375c.038-.049.07-.096.1-.137.079-.112.19-.275.309-.463.01.085.013.162.013.228a2.792 2.792 0 01-.038.478 2.919 2.919 0 01-.05.243v0l.004.005.126.151a.605.605 0 01.232-.175 1.27 1.27 0 00.282-.224 2.11 2.11 0 00.363-.4.107.107 0 01.026-.038 1.1 1.1 0 01-.096-.104zm-2.303.628a.096.096 0 11.096-.096.096.096 0 01-.096.096z"/><path fill="#0a0a14" d="M4.017 5.983l-.008-.005a.586.586 0 00-.056-.099.008.008 0 01.002-.012l.012.002a.457.457 0 01.057.102.01.01 0 01-.003.012zM5.08 5.022l-.005-.001a.562.562 0 01-.096-.063l-.001-.013h.012a.625.625 0 00.093.06.008.008 0 01.004.012zM4.191 5.365l-.007-.003a.01.01 0 01.003-.013 2.102 2.102 0 00.206-.163 2.214 2.214 0 00.252-.266.009.009 0 01.012-.001l.001.012a2.113 2.113 0 01-.254.269 2.061 2.061 0 01-.208.164z"/><path fill="#0a0a14" d="M4.934 5.11l-.01-.007a.01.01 0 01.008-.011.307.307 0 00.2-.179l.009-.005h.004a.01.01 0 01.003.012.32.32 0 01-.212.19z"/><path fill="#212121" d="M9.119 7.885c-.041.067-.079.09-.204.19-.2.163-.103.104-.39.342l-.102.084c-.107.087-.248.196-.537.42l-.052.039c-.395.303-.523.399-.689.545l-.045.04a8.27 8.27 0 00-.256.239.234.234 0 00-.016-.045l-.003-.006a.36.36 0 01-.028-.09.587.587 0 00-.035-.098l-.02-.043c-.035-.069-.061-.094-.119-.19L6.6 9.268c-.052-.092-.064-.128-.084-.165a.515.515 0 00-.042-.067.66.66 0 00-.052-.064.751.751 0 01-.083-.102l-.04-.057a.154.154 0 00-.047-.04.221.221 0 00-.032-.014 12.355 12.355 0 00.461-.396 8.499 8.499 0 01.724-.624c.07-.05.172-.121.302-.2a1.776 1.776 0 00-.081-.125 2.456 2.456 0 00-.165-.197 6.913 6.913 0 01-.239-.273c-.106-.13-.146-.196-.268-.326-.026-.028-.08-.104-.095-.12l-.001-.001-.02-.013a.26.26 0 01-.092-.127 1.965 1.965 0 00-.16-.215l-.11-.146-.034-.046v-.001h-.002a5.895 5.895 0 01-.338-.172l-1.847.99-.94.38c0-.182.01-.335.019-.448a2.345 2.345 0 01.04-.3c.05-.251.103-.314.134-.342a.47.47 0 01.174-.101 1.384 1.384 0 00.216-.048.426.426 0 00.063-.034.392.392 0 00-.042-.052 1.05 1.05 0 00-.13-.126c-.024-.017-.052-.033-.054-.058-.002-.027.028-.047.036-.059l.006-.008a.605.605 0 01.232-.175 1.27 1.27 0 00.282-.224 2.11 2.11 0 00.363-.4.107.107 0 01.026-.038.064.064 0 01.023-.015.1.1 0 01.076.01.26.26 0 01.108.116.44.44 0 00.099.106.756.756 0 00.076-.09 1.048 1.048 0 00.159-.415 1.046 1.046 0 01.39-.565.813.813 0 01.506-.126.955.955 0 01.53.265 3.231 3.231 0 01.375.423l.065.076c.137.161.14.16.24.28.05.061.157.19.429.554.054.071.114.152.18.243l.066.088c.065.087.246.334.478.658a4.286 4.286 0 01.51.754.819.819 0 01.176.306.638.638 0 01-.046.483z"/><path fill="#0a0a14" d="M6.844 9.793l-.009-.007a.17.17 0 00-.015-.042l-.003-.006a.333.333 0 01-.027-.089.518.518 0 00-.036-.1l-.015-.032-.005-.01a.804.804 0 00-.056-.093l-.063-.098-.013-.024-.011-.019c-.032-.059-.049-.094-.063-.122-.007-.017-.013-.03-.021-.044a.595.595 0 00-.04-.065c-.022-.03-.036-.046-.05-.062l-.005-.005a.74.74 0 01-.082-.1l-.013-.02a.432.432 0 00-.027-.036.132.132 0 00-.043-.038.207.207 0 00-.031-.013l-.006-.007.003-.008a17.92 17.92 0 00.462-.397c.083-.074.154-.14.22-.2a5.263 5.263 0 01.504-.424c.063-.046.165-.117.294-.197a1.485 1.485 0 00-.075-.116c-.049-.065-.089-.11-.14-.166l-.035-.041a6.528 6.528 0 01-.228-.262l-.093-.117a2.46 2.46 0 00-.176-.208 1.132 1.132 0 01-.054-.07.534.534 0 00-.041-.052l-.02-.012a.27.27 0 01-.095-.131c-.004-.01-.005-.01-.033-.047a12.924 12.924 0 01-.234-.311l-.035-.047h-.001a6.383 6.383 0 01-.331-.167l-1.844.987-.942.381H3.31l-.004-.008c0-.19.011-.348.02-.45a2.299 2.299 0 01.04-.302c.046-.236.097-.309.136-.346a.475.475 0 01.176-.102.572.572 0 01.092-.017.435.435 0 00.124-.032.47.47 0 00.054-.027.393.393 0 00-.036-.044 1.136 1.136 0 00-.128-.125l-.007-.005c-.024-.015-.049-.032-.05-.06a.072.072 0 01.028-.054l.008-.01.008-.009a.582.582 0 01.218-.169l.016-.008a1.298 1.298 0 00.28-.222l.013-.013a2.122 2.122 0 00.349-.384.11.11 0 01.027-.041.065.065 0 01.026-.017.108.108 0 01.083.01.234.234 0 01.102.103l.01.016a.42.42 0 00.09.099.686.686 0 00.07-.083.83.83 0 00.136-.33l.02-.082a1.059 1.059 0 01.395-.57.798.798 0 01.512-.128.967.967 0 01.533.267 1.47 1.47 0 01.224.241l.153.183.044.051.022.025c.063.075.098.115.127.148a11.938 11.938 0 01.542.687c.054.07.113.151.18.242l.05.065.016.023c.16.217.32.438.477.658.498.694.49.713.487.724a.504.504 0 00.023.03l.009.011a.823.823 0 01.17.299.645.645 0 01-.048.49.532.532 0 01-.152.15l-.053.043a1.946 1.946 0 00-.155.135c-.04.037-.083.079-.236.205a5.895 5.895 0 01-.101.084c-.107.087-.246.195-.537.42l-.01.008a.678.678 0 01-.043.031l-.14.109c-.285.219-.403.31-.548.436l-.03.027-.016.013a9.884 9.884 0 00-.255.24zm-.011-.063l.003.004.013.032c.057-.056.142-.137.245-.228l.014-.013.032-.027c.144-.127.262-.218.548-.438l.14-.107.043-.032.009-.007a34.024 34.024 0 00.639-.504c.152-.126.195-.168.234-.205a2.11 2.11 0 01.156-.136l.054-.043a.517.517 0 00.147-.146.624.624 0 00.046-.475.795.795 0 00-.166-.293l-.009-.01c-.03-.038-.03-.04-.029-.046l.002-.003a7.74 7.74 0 00-.482-.706c-.158-.22-.319-.442-.478-.658l-.017-.023-.048-.065a23.708 23.708 0 00-.18-.242c-.282-.377-.387-.501-.43-.555a3.565 3.565 0 00-.113-.131l-.127-.148-.021-.025-.044-.051-.154-.183a1.576 1.576 0 00-.22-.24.945.945 0 00-.525-.262.847.847 0 00-.07-.004.805.805 0 00-.43.129 1.032 1.032 0 00-.386.56c-.008.026-.014.053-.02.08a.82.82 0 01-.14.338.675.675 0 01-.078.09l-.012.001a.452.452 0 01-.101-.108l-.01-.017a.22.22 0 00-.094-.097.095.095 0 00-.069-.009.067.067 0 00-.02.013.104.104 0 00-.023.036 2.118 2.118 0 01-.353.39l-.013.012a1.264 1.264 0 01-.284.226l-.016.008a.572.572 0 00-.213.165l-.006.007-.01.012c-.011.011-.025.025-.024.041.002.02.022.032.043.047l.007.004a.99.99 0 01.132.127.616.616 0 01.043.054v.007l-.003.005a.476.476 0 01-.065.035.448.448 0 01-.13.032.527.527 0 00-.085.017.464.464 0 00-.172.098c-.036.035-.085.105-.13.337a2.256 2.256 0 00-.041.299c-.008.1-.018.252-.02.436l.929-.376 1.847-.99h.007a6.599 6.599 0 00.338.171c.005 0 .006.003.006.008l.033.043a11.749 11.749 0 00.236.31c.028.037.03.04.035.053a.255.255 0 00.088.122l.021.013.003.003c.01.01.024.03.041.052.019.025.04.054.054.068a2.564 2.564 0 01.177.21 4.5 4.5 0 00.092.117c.063.078.118.139.227.26l.036.041a1.536 1.536 0 01.222.293l-.003.013a4.716 4.716 0 00-.302.2 5.206 5.206 0 00-.502.424 30.505 30.505 0 01-.403.36c-.104.09-.198.17-.268.226l.019.01a.144.144 0 01.049.041l.028.038.014.02a.683.683 0 00.079.098l.004.003a.698.698 0 01.051.066.459.459 0 01.042.067.608.608 0 01.023.044 1.31 1.31 0 00.061.12l.011.019.014.025c.025.042.045.072.061.096a.799.799 0 01.058.096l.005.01.016.033a.67.67 0 01.036.1.364.364 0 00.026.088zm2.285-1.845z"/><path fill="#0a0a14" d="M7.706 7.547l-.008-.004a.01.01 0 01.003-.013.72.72 0 01.049-.029c.001-.002.009-.001.012.004a.008.008 0 01-.004.012l-.047.029zM6.917 6.522h-.013a.115.115 0 01-.05-.017.008.008 0 01-.004-.012c.003-.004.006-.007.011-.004a.116.116 0 00.045.015.233.233 0 00.092-.021l.02-.008a.245.245 0 01.163.01l.008.003a.01.01 0 01.007.011l-.008.006h-.002l-.011-.003a.25.25 0 00-.152-.01l-.018.008a.22.22 0 01-.088.022zM6.44 5.957l-.007-.003a1.424 1.424 0 00-.159-.192 1.298 1.298 0 00-.125-.108.008.008 0 01-.002-.012l.012-.002a1.087 1.087 0 01.127.109 1.313 1.313 0 01.16.194.008.008 0 01-.002.013zM7.204 6.648L7.2 6.646a.509.509 0 00-.159-.068.41.41 0 00-.068-.011.008.008 0 01-.008-.01.008.008 0 01.009-.008.45.45 0 01.071.011.524.524 0 01.165.071l.003.013z"/><path fill="#050505" d="M6.367 5.914l-2.113.854 1.848-.992c.09.05.179.096.265.138z"/><path fill="#0a0a14" d="M4.254 6.776l-.008-.004a.008.008 0 01.004-.012l1.848-.991h.007c.102.054.186.098.266.136l.005.01-.006.007-2.113.854zm1.848-.99l-1.698.911 1.94-.784a6.19 6.19 0 01-.242-.126z"/><path fill="#0a0a14" d="M6.102 5.785h-.005a10.033 10.033 0 01-.187-.109l-.003-.012a.01.01 0 01.013-.003l.186.108a.009.009 0 01.003.012z"/><path fill="#f2f2f4" d="M6.421 8.972l-.267.23-.021-.021a2.584 2.584 0 00-.118-.106.238.238 0 00-.07-.043h-.002c-.007-.003-.036-.01-.043-.031L5.9 8.993a.049.049 0 01.006-.023c.019-.039.061-.053.092-.073.077-.05.05-.11.114-.138l.02-.006.01-.002h.012l.009-.002a.195.195 0 01.03.003l.027.007a.221.221 0 01.032.014.154.154 0 01.046.04c.012.015.025.033.041.057a.751.751 0 00.083.102z"/><path fill="#0a0a14" d="M6.154 9.21l-.007-.001-.006-.008-.015-.015-.04-.035-.077-.07a.234.234 0 00-.067-.04c-.029-.01-.045-.02-.05-.038l-.002-.01a.053.053 0 01.007-.027.147.147 0 01.073-.063l.022-.014a.143.143 0 00.059-.074.108.108 0 01.056-.063l.016-.006.005-.002.01-.002h.014l.01-.001a.171.171 0 01.032.003.186.186 0 01.028.006l.033.015a.144.144 0 01.049.042l.028.038.014.02a.683.683 0 00.079.097l.004.01-.001.007-.268.23zm.008-.452l-.007.001h-.012l-.012.002-.003.001-.013.005a.092.092 0 00-.048.056.17.17 0 01-.065.082l-.023.014a.131.131 0 00-.066.055.044.044 0 00-.006.019l.002.005c.002.007.01.017.035.024a.234.234 0 01.077.046l.079.07.039.035.013.015.002.002.255-.219a.73.73 0 01-.079-.096l-.013-.02a.432.432 0 00-.027-.036.132.132 0 00-.043-.038.207.207 0 00-.031-.013.16.16 0 00-.026-.007.133.133 0 00-.028-.003zm.26.214z"/><path fill="#f2f2f4" d="M6.623 9.312l-.231.223c-.04-.06-.046-.081-.113-.175l-.01-.013a1.157 1.157 0 00-.115-.145l.267-.23a.66.66 0 01.052.064.515.515 0 01.042.067c.02.037.032.073.084.165z"/><path fill="#0a0a14" d="M6.392 9.544H6.39l-.007-.004a1.034 1.034 0 01-.037-.06c-.018-.03-.036-.059-.076-.115l-.01-.013a1.13 1.13 0 00-.114-.144l-.002-.006.003-.007.268-.23a.009.009 0 01.013.001.698.698 0 01.051.066.459.459 0 01.042.067.608.608 0 01.023.044 1.31 1.31 0 00.061.12l.011.019.014.025-.002.011-.232.224zm-.225-.341a1.122 1.122 0 01.11.14l.006.007.003.004c.041.058.059.088.076.116a.927.927 0 00.032.051l.218-.212-.01-.017-.011-.019c-.032-.059-.049-.094-.063-.122-.007-.017-.013-.03-.021-.044a.595.595 0 00-.04-.065.647.647 0 00-.046-.057z"/><path fill="#f2f2f4" d="M6.742 9.502l-.224.191c-.028-.034-.051-.056-.097-.117l-.029-.041.231-.224c.058.097.084.122.12.191z"/><path fill="#0a0a14" d="M6.518 9.702h-.001l-.006-.003-.025-.029a1.06 1.06 0 01-.071-.09l-.008-.008-.023-.032.002-.012.231-.224.006-.002h.001l.007.004c.025.043.045.072.061.097a.799.799 0 01.058.096l-.002.01-.225.19zm-.115-.166l.019.025.007.009c.031.043.052.067.071.089l.019.021.211-.18a.66.66 0 00-.052-.086l-.057-.088z"/><path fill="#f2f2f4" d="M6.797 9.643l-.207.153-.02-.03a.707.707 0 00-.052-.073l.224-.191.02.043a.587.587 0 01.035.098z"/><path fill="#0a0a14" d="M6.59 9.805h-.002l-.006-.004-.02-.03a.632.632 0 00-.051-.072v-.013l.225-.19.008-.002.006.005.005.01.016.034a.634.634 0 01.036.098l-.004.009-.208.153zm-.06-.111c.016.02.03.04.048.066l.015.024.194-.145a.594.594 0 00-.033-.09l-.015-.032z"/><path fill="#f2f2f4" d="M6.825 9.733l-.183.164a.508.508 0 00-.052-.101l.207-.153a.36.36 0 00.028.09z"/><path fill="#0a0a14" d="M6.643 9.906H6.64L6.634 9.9a.515.515 0 00-.052-.099l.003-.011.208-.154.008-.002.006.007a.364.364 0 00.026.089l-.002.01-.183.164zm-.041-.108a.612.612 0 01.044.083l.168-.15a.33.33 0 01-.022-.072z"/><path fill="#f2f2f4" d="M6.848 9.841a.133.133 0 01-.02.052c-.017.028-.036.035-.068.057-.068.047-.084.083-.1.078-.014-.004-.005-.039-.007-.078v-.01a.157.157 0 00-.01-.043l.182-.164.003.006a.234.234 0 01.016.045.149.149 0 01.004.057z"/><path fill="#0a0a14" d="M6.663 10.038l-.006-.001c-.015-.005-.014-.025-.013-.05V9.946a.212.212 0 00-.01-.045l.003-.01.182-.163h.01l.007.007a.209.209 0 01.017.048.139.139 0 01.003.06.135.135 0 01-.021.057.121.121 0 01-.05.046l-.02.013a.473.473 0 00-.068.056c-.013.014-.023.024-.034.024zm-.01-.138a.282.282 0 01.008.04l.001.01a.253.253 0 010 .039.085.085 0 00.001.03.083.083 0 00.022-.017.531.531 0 01.07-.06l.02-.013a.114.114 0 00.045-.04.106.106 0 00.019-.049.122.122 0 00-.004-.053.133.133 0 00-.013-.038zm.195-.059z"/><path d="M5.945 9.032l-.045.037a.166.166 0 01-.009-.026.115.115 0 01.008-.05l.001.008c.007.02.036.028.043.03z"/><path fill="#0a0a14" d="M5.9 9.078l-.008-.005a.179.179 0 01-.01-.028A.086.086 0 015.888 9l.002-.007v-.001c0-.01.017-.01.017 0l.002.006c.002.006.01.017.035.024l.01.007-.003.01-.046.037zm0-.06a.044.044 0 000 .023l.003.013.024-.02a.072.072 0 01-.027-.016z"/><path d="M6.66 10.028l-.01.003a.179.179 0 01-.064.009l-.029-.004.095-.095v.009c.003.04-.006.074.008.078z"/><path fill="#0a0a14" d="M6.597 10.05a.118.118 0 01-.041-.006l-.007-.005.003-.01.061-.06.033-.035.006-.002h.001l.007.005.002.013a.253.253 0 010 .039.085.085 0 00.001.03l.006.009-.006.009-.01.003a.197.197 0 01-.056.01zm-.02-.02h.02a.147.147 0 00.048-.007.134.134 0 01-.001-.035v-.026l-.018.019zM6.015 9.084l-.006-.002-.001-.013.101-.107.013-.001.001.013-.102.107-.006.003zM6.174 8.932l-.007-.003.001-.012.123-.111.013.001-.001.013-.123.11-.006.002zM6.27 9.356l-.006-.002-.001-.013.087-.088.012-.001.001.012-.087.089-.006.003zM6.424 9.209l-.006-.002-.001-.013.091-.097.013-.001v.013l-.09.097-.007.003zM5.054 9.909a.008.008 0 01-.01-.008.008.008 0 01.009-.01l.089-.01h.012a.008.008 0 01.01.007.008.008 0 01-.009.01l-.011.001-.09.01zM4.46 10.513l-.007-.004.003-.012a1.533 1.533 0 01.186-.107l.011.004a.008.008 0 01-.004.012 1.538 1.538 0 00-.183.106zM3.674 11.037l-.009-.007a.009.009 0 01.007-.01.366.366 0 00.047-.013.01.01 0 01.011.006.01.01 0 01-.005.012.504.504 0 01-.05.012z"/><path fill="#050505" d="M3.74 10.714a.453.453 0 01-.186.15.22.22 0 01-.094.02.198.198 0 01-.049-.008l.002-.011a.144.144 0 01.025-.05 2.796 2.796 0 00.256-.205.108.108 0 01.037.048.119.119 0 01.008.056z"/><path fill="#0a0a14" d="M3.467 10.893h-.008a.22.22 0 01-.05-.008l-.007-.008.001-.01a.162.162 0 01.029-.058l.102-.075.014-.01c.06-.049.103-.087.14-.12H3.7a.111.111 0 01.04.05.118.118 0 01.009.061l-.002.004a.46.46 0 01-.188.154.25.25 0 01-.091.02zm-.046-.023l.046.006a.223.223 0 00.083-.02.449.449 0 00.18-.145.096.096 0 00-.007-.05.09.09 0 00-.029-.038c-.035.032-.079.068-.134.114l-.015.01-.102.076a.132.132 0 00-.021.045zm.318-.156z"/><path fill="url(#noData_d)" d="M6.652 9.94a6.284 6.284 0 01-.474.444.887.887 0 00-.241.3.873.873 0 00-.039.088l-.01.025-.008.026-.005.019c-.044.152-.011.203-.065.46a5.611 5.611 0 01-.041.167l-.026.104a.791.791 0 01-.09.253.353.353 0 01-.17.152.46.46 0 01-.2.015.55.55 0 01-.06-.009l-.01.017a1.193 1.193 0 01-.101.148c-.071.087-.115.14-.194.156a.306.306 0 01-.212-.04.286.286 0 01-.052-.04.554.554 0 01-.137.185.405.405 0 01-.234.089.24.24 0 01-.175-.049.183.183 0 01-.031-.037.76.76 0 01-.195.215.8.8 0 01-.098.06.504.504 0 01-.218.059.176.176 0 00-.032-.058.112.112 0 00-.055-.04.133.133 0 00-.07.004.263.263 0 01-.058.007l-.023-.024a.063.063 0 01-.003-.047c.011-.037.05-.047.094-.074l.008-.006a.826.826 0 00.091-.088 1.72 1.72 0 00.16-.197 3.052 3.052 0 00.26-.465c.025-.058.046-.11.062-.156l.021-.059a1.18 1.18 0 00.017-.055c.047-.153.062-.258.13-.44l.023-.058.027-.064.026-.056a.418.418 0 01.02-.04l.022-.043a2.521 2.521 0 01.174-.283l-.063.046a1.698 1.698 0 00-.152.14 1.145 1.145 0 01-.063.058 1.18 1.18 0 01-.33.224l-.04.016c-.028.01-.059.019-.09.028l-.048.01v.001c-.098.02-.196.02-.236-.03a.167.167 0 01-.027-.122.198.198 0 00.049.008.22.22 0 00.094-.02.453.453 0 00.185-.15.119.119 0 00-.008-.056.108.108 0 00-.037-.048c.051-.046.094-.089.129-.125.033-.035.068-.075.113-.122l.018-.018.018-.019.09-.088.042-.039a1.24 1.24 0 01.186-.149.935.935 0 01.31-.123 2.313 2.313 0 01.315-.017h.003l.136-.01a9.15 9.15 0 01.394-.421 7.852 7.852 0 01.452-.41l.045-.037a.238.238 0 01.07.043c.03.024.067.059.118.106l.021.02a1.157 1.157 0 01.116.146l.01.013c.066.094.072.115.112.175l.03.041c.045.061.068.083.096.117a.707.707 0 01.052.072l.02.031a.508.508 0 01.052.101.157.157 0 01.01.044z"/><path fill="#0a0a14" d="M3.565 12.755l-.008-.005a.167.167 0 00-.03-.055l-.004-.004a.1.1 0 00-.046-.033.11.11 0 00-.059.003l-.007.002a.316.316 0 01-.06.006l-.007-.002-.013-.014-.01-.01a.075.075 0 01-.005-.056c.01-.03.036-.045.066-.062a.273.273 0 00.032-.019l.009-.004a.917.917 0 00.089-.087l.005-.005a1.784 1.784 0 00.153-.192 3.132 3.132 0 00.26-.463c.023-.054.045-.107.061-.155l.015-.038.013-.038.01-.037c.018-.057.03-.107.043-.157a2.553 2.553 0 01.087-.284l.023-.057.011-.027.017-.039.012-.026.014-.03.002-.004a.254.254 0 01.019-.036l.016-.032.005-.011a2.594 2.594 0 01.146-.241h-.002l-.02.014a1.371 1.371 0 00-.109.1 1.722 1.722 0 01-.042.04.808.808 0 01-.062.06 1.196 1.196 0 01-.333.224l-.006.003-.035.014c-.032.01-.063.02-.091.027a.25.25 0 01-.045.01l-.003.002c-.087.02-.198.027-.244-.034a.173.173 0 01-.03-.128l.004-.006.007-.001a.374.374 0 00.054.008.223.223 0 00.083-.02.45.45 0 00.182-.146.135.135 0 00-.01-.048.105.105 0 00-.033-.044l-.003-.006.003-.008c.042-.039.083-.08.127-.125l.018-.02.096-.102.007-.006.01-.012a.17.17 0 01.019-.02c.025-.026.056-.056.09-.088l.028-.025.014-.013a1.304 1.304 0 01.187-.15.968.968 0 01.313-.125 2.396 2.396 0 01.316-.016l.09-.007.046-.004c.066-.077.133-.15.196-.219l.006-.005a7.156 7.156 0 01.53-.508l.096-.084.016-.013.046-.037.008-.002a.243.243 0 01.073.045c.021.017.046.04.079.07l.039.035.013.015.01.007a1.277 1.277 0 01.115.147l.006.008.003.004c.041.058.059.088.076.116l.037.06.023.031.007.009c.031.043.053.067.071.089l.024.028a.714.714 0 01.054.073l.02.032a.625.625 0 01.053.102.204.204 0 01.01.046l-.002.008-.033.033-.063.062c-.144.142-.272.26-.38.348l-.007.007a.916.916 0 00-.144.148.998.998 0 00-.088.141.643.643 0 00-.037.088.135.135 0 00-.01.025l-.008.026-.002.008-.003.011a.739.739 0 00-.029.185 1.882 1.882 0 01-.037.274 4.04 4.04 0 01-.04.167l-.011.043-.015.06-.002.005a.773.773 0 01-.089.252.362.362 0 01-.176.156.452.452 0 01-.2.016.294.294 0 01-.058-.01l-.001.003-.007.011a1.083 1.083 0 01-.1.149c-.07.085-.116.14-.2.158a.304.304 0 01-.217-.042.32.32 0 01-.046-.032.53.53 0 01-.133.177.402.402 0 01-.24.09l-.021.001a.228.228 0 01-.16-.051.376.376 0 01-.026-.029.741.741 0 01-.19.208l-.004.003a.865.865 0 01-.094.056.517.517 0 01-.223.06zm-.109-.118a.104.104 0 01.024.003.115.115 0 01.057.04l.004.003a.192.192 0 01.03.055.526.526 0 00.21-.059.886.886 0 00.091-.055l.005-.003a.729.729 0 00.191-.212l.008-.004.007.003a.285.285 0 00.031.035.228.228 0 00.168.047.384.384 0 00.23-.087.543.543 0 00.135-.183l.006-.004h.001l.007.002a.198.198 0 00.05.038.28.28 0 00.205.04c.077-.016.121-.07.189-.152a1.107 1.107 0 00.1-.147l.005-.01.005-.008.01-.004a.46.46 0 00.058.01.443.443 0 00.197-.016.337.337 0 00.166-.148.752.752 0 00.087-.25l.002-.004.014-.058.01-.042c.024-.093.037-.143.042-.167a1.677 1.677 0 00.036-.272.84.84 0 01.03-.189l.002-.01.002-.01.009-.025.01-.026a.656.656 0 01.039-.089 1.011 1.011 0 01.09-.144.94.94 0 01.145-.15l.008-.008a6.36 6.36 0 00.38-.348l.061-.06.03-.031a.173.173 0 00-.01-.038.515.515 0 00-.051-.099l-.02-.03a.632.632 0 00-.051-.072l-.025-.029a1.06 1.06 0 01-.071-.09l-.008-.008-.023-.032a1.034 1.034 0 01-.037-.06c-.018-.03-.036-.059-.076-.115l-.01-.013a1.13 1.13 0 00-.114-.144L6.141 9.2l-.015-.015-.04-.035-.077-.07a.264.264 0 00-.062-.04l-.042.035-.015.013-.097.083a7.62 7.62 0 00-.528.507l-.005.005c-.065.07-.132.144-.2.222l-.005.003-.048.004a2.038 2.038 0 01-.088.007c-.085.004-.135.004-.176.004a.63.63 0 00-.141.012.94.94 0 00-.307.122 1.207 1.207 0 00-.186.149l-.013.012a.324.324 0 00-.027.026c-.035.032-.064.06-.09.088a.148.148 0 00-.018.018l-.013.013-.005.006a3.683 3.683 0 00-.095.101l-.018.02a2.781 2.781 0 01-.122.12.106.106 0 01.031.044.118.118 0 01.01.06.448.448 0 01-.191.157.234.234 0 01-.091.021h-.008a.189.189 0 01-.04-.006.161.161 0 00.026.106c.033.04.114.05.224.027l.004-.002a.308.308 0 00.046-.01.845.845 0 00.09-.028l.034-.013.005-.002a1.183 1.183 0 00.329-.222c.027-.025.046-.041.061-.058l.042-.04a1.131 1.131 0 01.112-.102l.02-.014c.014-.01.028-.022.044-.032l.012.002v.01a2.427 2.427 0 00-.174.283l-.006.011-.016.032a.237.237 0 00-.017.036l-.003.005-.014.029-.012.026-.016.038-.012.027-.021.056a2.546 2.546 0 00-.087.283c-.013.048-.026.1-.043.157l-.012.038-.013.038-.013.038a2.53 2.53 0 01-.064.157 3.1 3.1 0 01-.26.465 1.683 1.683 0 01-.156.193l-.004.005a.985.985 0 01-.091.09l-.012.007-.031.018c-.029.015-.05.027-.057.051a.06.06 0 00.001.04l.01.008.01.01a.317.317 0 00.052-.005l.007-.002a.217.217 0 01.042-.006z"/><path fill="#0a0a14" d="M4.168 11.058h-.003a.01.01 0 01-.006-.012l.023-.057a.008.008 0 01.011-.006.01.01 0 01.006.012l-.022.057zM4.076 12.422l-.006-.002v-.012a.503.503 0 00.03-.044 3.425 3.425 0 00.205-.356 3.522 3.522 0 00.188-.382 1.971 1.971 0 00.078-.24.008.008 0 01.011-.008.009.009 0 01.007.011 1.943 1.943 0 01-.078.243 3.582 3.582 0 01-.19.384 3.601 3.601 0 01-.205.358c-.012.015-.022.032-.033.045zM4.654 12.234l-.004-.001a.008.008 0 01-.004-.012l.004-.008.012-.02c.073-.13.1-.19.123-.238a1.397 1.397 0 01.081-.153.962.962 0 00.07-.15c.014-.034.03-.071.05-.112a.668.668 0 01.019-.058.31.31 0 00.016-.052c.001-.005.005-.007.011-.007a.009.009 0 01.007.011.339.339 0 01-.018.054l-.02.058c-.019.041-.034.08-.048.114a.953.953 0 01-.071.152 1.083 1.083 0 00-.08.15c-.023.05-.051.109-.124.24l-.012.02-.004.007zM5.223 11.993l-.004-.001a.008.008 0 01-.004-.012 1.668 1.668 0 00.074-.15 1.985 1.985 0 00.11-.314c.001-.005.011-.008.011-.007a.009.009 0 01.007.011 2.036 2.036 0 01-.112.317 1.55 1.55 0 01-.075.15zM5.889 10.806h-.003a.01.01 0 01-.006-.011.188.188 0 01.01-.027.007.007 0 01.012-.004.009.009 0 01.004.012l-.009.024z"/><path fill="#050505" d="M3.566 12.747a.314.314 0 01-.126-.025.264.264 0 01-.047-.027.315.315 0 01-.042-.035.263.263 0 00.059-.007.133.133 0 01.069-.004.112.112 0 01.055.04.176.176 0 01.032.058z"/><path fill="#0a0a14" d="M3.565 12.755a.315.315 0 01-.13-.026.24.24 0 01-.048-.027.374.374 0 01-.043-.035l-.001-.011.008-.005a.272.272 0 00.056-.006l.007-.002a.14.14 0 01.066-.003.115.115 0 01.057.04l.004.003a.197.197 0 01.033.06v.008zm-.193-.087l.025.02a.234.234 0 00.046.025.304.304 0 00.109.025.147.147 0 00-.025-.043l-.004-.004a.1.1 0 00-.046-.033.11.11 0 00-.059.003l-.007.002a.323.323 0 01-.039.005z"/><path fill="#333" d="M4.496 2.104c-.006.17-.258.284-.312.308a.831.831 0 01-.54.035l-.005-.01-.018-.033a2.58 2.58 0 00.152-.042h.001c.067-.021.124-.041.17-.058.097-.037.176-.072.303-.128.103-.046.187-.085.245-.113a.156.156 0 01.004.041z"/><path fill="#0a0a14" d="M3.873 2.486a.956.956 0 01-.231-.03l-.007-.006-.004-.008-.018-.033V2.4l.006-.005a2.665 2.665 0 00.322-.1c.1-.039.18-.074.302-.129.093-.04.171-.077.228-.103l.017-.009h.008l.005.007a.206.206 0 01.004.043c-.004.114-.113.223-.316.315a.77.77 0 01-.316.066zM3.65 2.44a.82.82 0 00.53-.036c.195-.088.303-.194.307-.3a.206.206 0 00-.002-.027l-.006.003c-.058.026-.135.063-.228.104-.123.055-.203.09-.304.128a2.901 2.901 0 01-.312.098l.011.023zm.846-.335z"/><path fill="#333" d="M3.955 2.117a.86.86 0 01-.181.244 2.601 2.601 0 01-.153.043.131.131 0 00-.036-.036 3.1 3.1 0 00.126-.174 2.153 2.153 0 00.158-.263 1.634 1.634 0 00.082-.202.244.244 0 01.055.074.377.377 0 01-.05.314z"/><path fill="#0a0a14" d="M3.621 2.413l-.007-.003a.142.142 0 00-.034-.034l-.004-.006.002-.007c.06-.079.102-.138.126-.173l.01-.016a2.297 2.297 0 00.147-.247 1.548 1.548 0 00.081-.2c.001-.005.003-.007.01-.007l.005.003a.24.24 0 01.057.076.374.374 0 01-.047.313l-.004.009a.868.868 0 01-.183.246l-.004.004a2.94 2.94 0 01-.153.042zm-.023-.047a.208.208 0 01.027.028c.049-.012.098-.026.146-.04a.869.869 0 00.176-.241l.004-.008a.362.362 0 00.047-.298.227.227 0 00-.043-.061 1.685 1.685 0 01-.078.19 2.14 2.14 0 01-.148.248l-.01.015a4.294 4.294 0 01-.121.167zm.357-.25zM1.765 4.808a.008.008 0 01-.01-.008.008.008 0 01.009-.01.194.194 0 00.03-.005.153.153 0 00.075-.052c.001-.004.009-.005.012-.002l.002.013a.165.165 0 01-.083.058.195.195 0 01-.034.006z"/><path fill="url(#noData_e)" d="M3.528 2.359c-.106.082-.254.195-.435.323a7.674 7.674 0 01-1.033.638 4.788 4.788 0 01-.647.275l-.162.05a.926.926 0 01-.037-.137 1.383 1.383 0 01.398-1.094 1.332 1.332 0 01.788-.458 1.37 1.37 0 01.725.112.946.946 0 01.301.18.776.776 0 01.102.11z"/><path fill="#0a0a14" d="M1.251 3.654l-.009-.006a1.226 1.226 0 01-.037-.139 1.374 1.374 0 01.399-1.099 1.342 1.342 0 01.795-.463 1.103 1.103 0 01.167-.012 1.488 1.488 0 01.562.124.95.95 0 01.304.183.729.729 0 01.103.112v.012c-.098.075-.248.19-.437.323a7.618 7.618 0 01-1.034.639 4.704 4.704 0 01-.649.275c-.064.022-.12.039-.161.05zm1.315-1.7a1.15 1.15 0 00-.165.01 1.323 1.323 0 00-.782.455 1.36 1.36 0 00-.396 1.087 1.067 1.067 0 00.034.128c.04-.012.092-.027.152-.048a4.798 4.798 0 00.648-.274 7.699 7.699 0 001.03-.637c.185-.13.332-.243.429-.318a.707.707 0 00-.096-.102.931.931 0 00-.298-.179 1.474 1.474 0 00-.556-.123z"/><path fill="#050505" d="M3.696 5.172a2.919 2.919 0 01-.05.243 3.48 3.48 0 00-.214-.24 2.27 2.27 0 00-.12-.109c.038-.049.07-.096.1-.137.079-.112.19-.275.309-.463.01.085.013.162.014.228a2.792 2.792 0 01-.039.478z"/><path fill="#0a0a14" d="M3.646 5.423l-.007-.003a3.815 3.815 0 00-.213-.24 2.32 2.32 0 00-.12-.107l-.001-.012c.025-.033.048-.064.068-.094l.032-.043c.073-.102.185-.266.308-.463l.01-.004.006.008c.011.093.013.175.014.229a2.711 2.711 0 01-.038.48 3.37 3.37 0 01-.05.243.013.013 0 01-.01.006zm-.322-.358c.032.028.072.062.114.103.046.046.083.087.203.228.016-.07.034-.143.047-.225a2.775 2.775 0 00.038-.477 2.644 2.644 0 00-.011-.201 12.065 12.065 0 01-.327.485l-.064.087z"/><path fill="#050505" d="M3.433 3.27l-.011-.022a.416.416 0 01-.026-.1.61.61 0 00-.09-.223.766.766 0 00-.03-.043l.089-.077a.926.926 0 01.039.128.88.88 0 01.02.119 1.566 1.566 0 01.009.218z"/><path fill="#0a0a14" d="M3.433 3.28l-.008-.006.008-.003h-.01l-.009-.02a.334.334 0 01-.024-.086l-.003-.015a.583.583 0 00-.088-.218l-.01-.016-.02-.03v-.011c.03-.025.06-.05.09-.077l.008-.002.007.006a.976.976 0 01.038.129.805.805 0 01.022.12c.004.046.005.08.006.15l.001.07c0 .005-.003.01-.008.008zm-.146-.397a.236.236 0 01.016.023l.01.014a.597.597 0 01.091.227l.003.015a.312.312 0 00.017.066l-.001-.026a1.468 1.468 0 00-.007-.15.789.789 0 00-.021-.117.858.858 0 00-.034-.114 1.776 1.776 0 01-.074.062z"/><path fill="#0a0a14" d="M3.34 3.587h-.007a.146.146 0 01-.125-.096.01.01 0 01.006-.012c.004-.002.009 0 .012.005a.127.127 0 00.108.085h.006a.127.127 0 00.093-.045.14.14 0 00.029-.091.218.218 0 00-.016-.113.122.122 0 00-.016-.036l-.005-.009a.009.009 0 01.003-.012.008.008 0 01.012.003l.005.009a.167.167 0 01.019.039.24.24 0 01.016.116.163.163 0 01-.034.105.143.143 0 01-.106.052zM3.046 3.149l-.007-.002-.014-.017.001-.014h.011a.101.101 0 00.016.018v.013z"/><path fill="#0a0a14" d="M3.284 3.434a.08.08 0 01-.026-.004.01.01 0 01-.006-.011.009.009 0 01.012-.006c.002 0 .03.01.046-.005a.052.052 0 00.011-.034.164.164 0 00-.016-.081c-.014-.025-.024-.043-.042-.05a.04.04 0 00-.032.002.032.032 0 00-.013.02.044.044 0 01-.022.027.04.04 0 01-.035-.002c-.028-.013-.03-.05-.03-.06a.089.089 0 01.028-.078.07.07 0 01.036-.013.054.054 0 00.03-.012.062.062 0 00.018-.033.14.14 0 00-.018-.111c-.02-.036-.065-.083-.101-.083l-.013.001c-.032.012-.042.065-.043.091a.143.143 0 00.028.081l-.001.013c-.005.002-.012.002-.013-.002a.154.154 0 01-.031-.092c0-.033.013-.093.054-.107a.047.047 0 01.019-.004c.045 0 .094.054.116.093a.162.162 0 01.02.126.087.087 0 01-.023.04.069.069 0 01-.039.017.053.053 0 00-.027.01.075.075 0 00-.023.06c0 .008.001.038.02.047.004.001.016.005.02.001.007-.002.01-.007.013-.017a.047.047 0 01.02-.028.058.058 0 01.048-.003.098.098 0 01.05.053.177.177 0 01.02.092.07.07 0 01-.018.05.054.054 0 01-.037.012z"/><path fill="#050505" d="M3.784 12.687l-.211.182c-.219.186-.283.23-.373.321a2.35 2.35 0 00-.124.137 16.68 16.68 0 00.317-.632.264.264 0 00.047.027.314.314 0 00.125.025.504.504 0 00.219-.06z"/><path fill="#0a0a14" d="M3.076 13.336l-.005-.001-.003-.012.032-.06.077-.148c.083-.166.155-.313.208-.424l.008-.005.005.002a.245.245 0 00.045.025.293.293 0 00.122.025.507.507 0 00.215-.059l.012.003-.002.012c-.06.052-.13.113-.212.182l-.19.159a2.218 2.218 0 00-.181.16c-.048.05-.088.095-.124.138zm.32-.627c-.052.109-.123.252-.204.414q-.036.073-.073.14l.074-.079a2.042 2.042 0 01.184-.163l.19-.16.164-.14a.485.485 0 01-.166.034.315.315 0 01-.13-.026.247.247 0 01-.039-.02z"/><path fill="#050505" d="M6.95 11.086l-.815.439a.88.88 0 01-.476.467.882.882 0 01-.358.029.836.836 0 01-.089-.02l.01-.017a.55.55 0 00.06.01.46.46 0 00.2-.016.353.353 0 00.172-.152.791.791 0 00.088-.253z"/><path fill="#0a0a14" d="M5.41 12.037a.829.829 0 01-.11-.007.86.86 0 01-.09-.02l-.007-.006.002-.008.005-.01.005-.007.01-.004a.46.46 0 00.058.01.443.443 0 00.197-.016.337.337 0 00.166-.148.752.752 0 00.087-.25l.01-.007 1.203-.487.011.005a.008.008 0 01-.004.011l-.811.439a.89.89 0 01-.48.469.832.832 0 01-.252.036zm-.184-.041a.98.98 0 00.077.016.907.907 0 00.353-.029.872.872 0 00.47-.461l.005-.005.672-.362-1.053.425a.8.8 0 01-.089.25.362.362 0 01-.176.157.452.452 0 01-.2.016.294.294 0 01-.058-.01zM6.995 12.185a.009.009 0 01-.009-.009c0-.01.018-.01.018 0a.01.01 0 01-.009.01z"/><path fill="#050505" d="M2.376 5.162a.096.096 0 01-.192 0 .096.096 0 11.192 0z"/><path fill="#0a0a14" d="M2.28 5.267a.105.105 0 11.105-.105.105.105 0 01-.105.105zm0-.192a.088.088 0 00-.088.087.087.087 0 10.088-.087z"/></svg>