<svg data-tags="calendar, events, dates, illustration" xmlns="http://www.w3.org/2000/svg" viewBox="0 0 40 40"><path fill="#0a0a13" fill-rule="evenodd" d="M33.12 3.83h-2.16V2.82a2.84 2.84 0 00-5.68 0v1h-10.6v-1a2.84 2.84 0 00-5.68 0v1H6.88a4 4 0 00-4.02 4V36a4.04 4.04 0 004.02 4h26.24a4.04 4.04 0 004.02-4V7.78a4.03 4.03 0 00-4.02-3.95zM4.55 32.47a4.05 4.05 0 002.33.76h26.24a4.16 4.16 0 002.33-.76v.13a2.32 2.32 0 01-2.33 2.31H6.88a2.32 2.32 0 01-2.33-2.31zm28.52-.92a2.32 2.32 0 002.34-2.32h.04V11.57H4.55v17.66a2.32 2.32 0 002.33 2.32zM27.01 2.82a1.14 1.14 0 012.3 0v2.65a1.14 1.14 0 01-2.3 0zM11.84 1.68a1.14 1.14 0 00-1.14 1.14v2.65a1.14 1.14 0 002.29 0V2.82a1.14 1.14 0 00-1.15-1.14zm21.28 36.6H6.88a2.32 2.32 0 01-2.33-2.32v-.12a4.05 4.05 0 002.33.75h26.24a4.16 4.16 0 002.33-.75v.12a2.37 2.37 0 01-2.33 2.32zM9.35 17.86h-.13a1.37 1.37 0 01-1.36-1.37v-.13A1.37 1.37 0 019.22 15h.13a1.37 1.37 0 011.36 1.36v.13a1.37 1.37 0 01-1.36 1.37zm0 5h-.13a1.37 1.37 0 01-1.36-1.37v-.13A1.37 1.37 0 019.22 20h.13a1.37 1.37 0 011.36 1.36v.13a1.37 1.37 0 01-1.36 1.37zm5.71 0h-.13a1.37 1.37 0 01-1.36-1.37v-.13A1.37 1.37 0 0114.93 20h.13a1.37 1.37 0 011.37 1.36v.13a1.37 1.37 0 01-1.37 1.37zm4.87 0h.13a1.37 1.37 0 001.37-1.37v-.13A1.37 1.37 0 0020.06 20h-.13a1.37 1.37 0 00-1.36 1.36v.13a1.37 1.37 0 001.36 1.37zm-5-5h.13a1.37 1.37 0 001.37-1.37v-.13A1.37 1.37 0 0015.06 15h-.13a1.37 1.37 0 00-1.36 1.36v.13a1.37 1.37 0 001.36 1.37zm5.13 0h-.13a1.37 1.37 0 01-1.36-1.37v-.13A1.37 1.37 0 0119.93 15h.13a1.37 1.37 0 011.37 1.36v.13a1.37 1.37 0 01-1.37 1.37zm4.87 5h.14a1.37 1.37 0 001.36-1.37v-.13A1.37 1.37 0 0025.07 20h-.14a1.37 1.37 0 00-1.36 1.36v.13a1.4 1.4 0 001.36 1.37zm5.14 0h-.14a1.37 1.37 0 01-1.36-1.37v-.13A1.37 1.37 0 0129.93 20h.14a1.37 1.37 0 011.36 1.36v.13a1.37 1.37 0 01-1.36 1.37zm-5.14-5h.13a1.37 1.37 0 001.37-1.37v-.13A1.37 1.37 0 0025.06 15h-.13a1.37 1.37 0 00-1.36 1.36v.13a1.4 1.4 0 001.36 1.37zm5.14 0h-.14a1.37 1.37 0 01-1.36-1.37v-.13A1.37 1.37 0 0129.93 15h.14a1.37 1.37 0 011.36 1.36v.13a1.37 1.37 0 01-1.36 1.37zm-20.85 10h.13a1.37 1.37 0 001.36-1.37v-.13A1.37 1.37 0 009.35 25h-.13a1.37 1.37 0 00-1.36 1.36v.13a1.34 1.34 0 001.36 1.37zm5.84 0h-.13a1.34 1.34 0 01-1.36-1.37v-.13A1.37 1.37 0 0114.93 25h.13a1.37 1.37 0 011.37 1.36v.13a1.37 1.37 0 01-1.37 1.37zm4.87 0h.13a1.37 1.37 0 001.37-1.37v-.13A1.37 1.37 0 0020.06 25h-.13a1.37 1.37 0 00-1.36 1.36v.13a1.34 1.34 0 001.36 1.37zm5.13 0h-.13a1.37 1.37 0 01-1.36-1.37v-.13A1.37 1.37 0 0124.93 25h.13a1.37 1.37 0 011.37 1.36v.13a1.37 1.37 0 01-1.37 1.37zm4.87 0h.14a1.37 1.37 0 001.36-1.37v-.13A1.37 1.37 0 0030.07 25h-.14a1.37 1.37 0 00-1.36 1.36v.13a1.34 1.34 0 001.36 1.37z"/></svg>