<svg data-tags="illustration,favourites,star circle,reports" xmlns="http://www.w3.org/2000/svg" viewBox="0 0 40 40"><path d="M34.183 7.523a19.95 19.95 0 00-12.925-6.497 16.991 16.991 0 00-12.217 3.6c-.013.011-.028.027-.04.039a16.63 16.63 0 00-2.336 1.54A16.546 16.546 0 00.536 19.208a20.275 20.275 0 0018.206 19.766 16.898 16.898 0 0012.234-3.607 16.009 16.009 0 005.043-4.282 16.604 16.604 0 003.445-10.29 19.599 19.599 0 00-5.281-13.271zM31.963 31.4a14.14 14.14 0 01-2.267 2.32 15.047 15.047 0 01-10.953 3.253A18.046 18.046 0 012.536 19.385 14.426 14.426 0 0110.06 6.45a.855.855 0 00.096-.045 15.212 15.212 0 018.665-1.736 17.72 17.72 0 0111.489 5.758 17.987 17.987 0 013.888 6.656c.044.138.101.272.142.411a16.891 16.891 0 01.607 3.123l.004.03q.077.8.076 1.609a14.851 14.851 0 01-3.062 9.144z"/><path d="M24.546 19.427l-4.012-.942-1.794-3.796a.457.457 0 00-.367-.261.368.368 0 00-.366.195l-1.795 3.475-4.012.223a.364.364 0 00-.33.25.432.432 0 00.104.428l2.903 3.09-.685 3.934a.445.445 0 00.162.414.42.42 0 00.43.07l3.59-1.565 3.588 2.208a.438.438 0 00.19.064.382.382 0 00.24-.057.376.376 0 00.163-.385l-.685-4.057 2.903-2.57a.386.386 0 00.103-.41.462.462 0 00-.33-.308z"/></svg>