<svg data-tags="folder,illustration,category,categories,no category" xmlns="http://www.w3.org/2000/svg" viewBox="0 0 40 40"><path d="M39.802 11.361a.992.992 0 00-.055-.271.956.956 0 00-.042-.101.99.99 0 00-.156-.232.972.972 0 00-.072-.07.988.988 0 00-.244-.164c-.014-.007-.025-.016-.039-.021a.987.987 0 00-.29-.076L21.608 8.781l-1.142-3.062-.018-.05a.923.923 0 00-.068-.109.988.988 0 00-.125-.201.96.96 0 00-.138-.114.962.962 0 00-.164-.117.984.984 0 00-.205-.062.938.938 0 00-.141-.042L7.799 3.903a.91.91 0 00-.095.009.967.967 0 00-.18.017.931.931 0 00-.22.064 1.07 1.07 0 00-.312.222c-.018.018-.04.027-.057.046l-1.4 1.696a.941.941 0 00-.071.133.733.733 0 00-.133.386.97.97 0 00-.025.118v7.632l-4.026-.382a1 1 0 00-1.054 1.28l5.125 17.303a1 1 0 00.864.711l31.1 2.955c.032.003.063.005.095.005a.8.8 0 00.495-.15.975.975 0 00.177-.11c.021-.019.032-.046.05-.067.016-.016.038-.022.052-.04l1.401-1.695a.997.997 0 00.23-.636V11.425c0-.023-.012-.041-.013-.064zM7.077 31.211L2.564 15.975l28.954 2.748 4.514 15.24zm29.337-7.434c0 .007-.004.012-.004.02v4.4l-3.166-10.69a.999.999 0 00-.865-.71l-25.073-2.38V7.693l10.084.954 1.164 3.119c.004.01.011.017.016.027v.001l.007.012a.983.983 0 00.526.521l.04.02a.984.984 0 00.206.048c.017.002.032.01.05.012l.074.007.018.002h.003l16.92 1.61z"/></svg>