<svg data-tags="input field,illustration" xmlns="http://www.w3.org/2000/svg" viewBox="0 0 40 40"><path d="M4.589 15.134a1.003 1.003 0 00-1.004 1.003v4.69a1.004 1.004 0 002.008 0v-4.69a1.003 1.003 0 00-1.004-1.003z"/><path d="M39.897 14.24c-.005-.024-.002-.047-.009-.07l-.002-.005a1.003 1.003 0 00-.118-.261c-.017-.027-.04-.047-.06-.072a1.42 1.42 0 00-.345-.293l-.023-.007a1.03 1.03 0 00-.102-.034.997.997 0 00-.178-.047c-.008-.001-.016-.006-.024-.007l-35.68-4.07a.973.973 0 00-.731.206l-2.18 1.696c-.02.016-.032.037-.05.053a.969.969 0 00-.08.085.987.987 0 00-.138.204.957.957 0 00-.047.094.996.996 0 00-.07.345l-.002.011v12.076a.946.946 0 00.03.143.98.98 0 00.038.191.964.964 0 00.09.173.982.982 0 00.103.153.982.982 0 00.149.127.963.963 0 00.153.103.982.982 0 00.195.063.944.944 0 00.132.043l35.68 4.07a.89.89 0 00.114.006h.001l.008-.001a1.001 1.001 0 00.334-.062.98.98 0 00.112-.061.97.97 0 00.162-.087l2.18-1.697a1.004 1.004 0 00.386-.792V14.441a.987.987 0 00-.028-.201zM2.065 13.192l33.674 3.84V27.09L2.065 23.25z"/><path d="M33.384 22.747l-1.162-1.328 1.071-.918a.904.904 0 10-1.176-1.372l-1.085.93-1.175-1.342a.903.903 0 00-1.358 1.19l1.162 1.328-1.071.918a.904.904 0 101.176 1.372l1.085-.93 1.175 1.342a.903.903 0 001.358-1.19z"/></svg>