<svg width="79" height="79" fill="none" xmlns="http://www.w3.org/2000/svg"><circle cx="39.501" cy="39.2" r="39.2" fill="#F8F8FA"/><path fill-rule="evenodd" clip-rule="evenodd" d="M52.74 32.373L30.206 19.507a3.743 3.743 0 00-1.498-.498 2.284 2.284 0 00-.877.094l-.139.079a4.672 4.672 0 00-.665.361l-.248.159-2.192 1.256c-.1.04-.198.086-.293.137-.03 0-.052.025-.076.052a.235.235 0 01-.055.05l-.183.108c-.64.572-.984 1.4-.935 2.252L23 39.968a7.089 7.089 0 003.317 5.653l.585.333v5.725c.008.49.203.96.548 1.314.12.125.255.234.402.325.324.19.721.215 1.067.065l6.116-2.801 13.825 7.913a3.53 3.53 0 001.71.505c.273-.005.543-.058.797-.159l.292-.166 3.2-1.834c.226-.143.424-.323.585-.534l-.57-.419.592.419c.364-.554.55-1.203.534-1.863l.044-16.41a7.103 7.103 0 00-3.303-5.661zm-23.266-11.61L52.01 33.622a5.713 5.713 0 012.587 4.411l-.044 16.404c.02.36-.072.718-.263 1.025a.729.729 0 01-.314.253l-1.067.614v-.123l.044-16.411a7.117 7.117 0 00-3.318-5.668L27.107 21.283l-.124-.058 1.315-.722a.743.743 0 01.285 0c.313.023.617.112.892.26zm5.619 28.201l14.497 8.274c.396.294.916.37 1.381.202.366-.299.551-.762.49-1.227l.044-16.411a5.72 5.72 0 00-2.587-4.411L26.375 22.539a1.594 1.594 0 00-1.25-.267l-.211.123c-.291.32-.432.748-.388 1.177l-.043 16.41a5.655 5.655 0 002.587 4.39l1.315.758v6.563c.014.111.06.217.131.303l6.577-3.032z" fill="#0A0A14"/><path d="M30.205 19.507l-.254.43.006.004.248-.434zm22.536 12.866l.268-.422-.01-.006-.01-.006-.248.434zM28.707 19.009l.054-.497-.01-.001-.044.498zm-.877.094l-.148-.478-.052.016-.048.028.248.434zm-.139.079l.202.457.024-.01.022-.013-.248-.434zm-.665.361l.27.421.004-.002-.274-.419zm-.248.159l.248.434.011-.006.01-.007-.27-.421zm-2.192 1.256l.184.465.033-.013.031-.018-.248-.434zm-.293.137v.5h.128l.112-.06-.24-.44zm-.076.052l-.371-.335.371.335zm-.055.05l-.246-.436-.01.005.256.43zm-.183.108l-.255-.43-.042.024-.036.033.333.373zm-.935 2.252l.5.002v-.015l-.001-.015-.5.028zM23 39.968l-.5-.001v.025l.5-.024zm3.317 5.653l-.266.423.01.007.01.005.246-.434zm.585.333h.5v-.291l-.253-.144-.247.435zm0 5.725h-.5v.008l.5-.008zm.548 1.314l.361-.346-.003-.003-.358.349zm.402.325l-.262.426.009.005.253-.431zm1.067.065l.199.459.01-.005-.21-.454zm6.116-2.801l.248-.434-.223-.128-.233.107.208.455zm13.825 7.913l.259-.429-.01-.005-.249.434zm1.71.505l-.016.5h.025l-.009-.5zm.797-.159l.184.465.032-.013.03-.017-.246-.435zm.292-.166l.247.435.002-.001-.249-.434zm3.2-1.834l.25.434.01-.005.009-.007-.268-.422zm.585-.534l.397.304.31-.405-.41-.302-.297.403zm-.57-.419l.29-.408-.586.811.296-.403zm.592.419l-.289.408.423.3.284-.434-.418-.274zM56 54.444l-.5-.001v.013l.5-.012zm.044-16.41h.5v-.012l-.001-.012-.5.023zm-4.034-4.412l.274-.419-.013-.008-.013-.007-.248.434zM29.475 20.763l.247-.434-.01-.006-.238.44zm25.122 17.27l.5.002v-.017L55.096 38l-.5.032zm-.044 16.404l-.5-.001v.028l.5-.027zm-.263 1.025l.41.288.007-.012.008-.012-.425-.264zm-.314.253l-.194-.461-.029.012-.027.016.25.433zm-1.067.614h-.5v.864l.75-.43-.25-.434zm0-.123l-.5-.001h.5zm.044-16.411l.5.001v-.025l-.5.024zm-3.318-5.668l.268-.422-.01-.006-.01-.006-.248.434zM27.107 21.283l.248-.434-.018-.01-.02-.01-.21.454zm-.124-.058l-.24-.438-.867.475.896.417.21-.454zm1.315-.722l-.096-.49-.077.015-.068.037.241.438zm.285 0l-.096.491.03.006.03.002.036-.499zm21.008 36.735l.298-.401-.025-.018-.026-.015-.248.434zm-14.498-8.274l.248-.434-.224-.128-.233.108.209.454zM50.97 57.44l.17.47.08-.028.067-.054-.316-.388zm.49-1.227l-.5-.002v.034l.004.033.496-.065zm.044-16.411l.5.001v-.017l-.001-.017-.499.033zm-2.587-4.411l.274-.419-.013-.008-.013-.008-.248.435zM26.375 22.539l-.292.406.022.015.023.014.247-.435zm-1.25-.267l-.1-.49-.08.016-.07.041.25.433zm-.211.123l-.25-.433-.068.04-.053.057.37.336zm-.388 1.177h.5v-.026l-.002-.026-.498.052zm-.043 16.41h-.5v.032l.5-.032zm2.587 4.39l-.272.42.01.007.012.006.25-.433zm1.315.758h.5v-.289l-.25-.144-.25.433zm0 6.563h-.5v.032l.004.032.496-.064zm.131.303l-.385.319.245.297.35-.162-.21-.454zm1.441-32.055l22.536 12.866.495-.868-22.535-12.866-.496.868zm-1.304-.435c.459.05.902.197 1.298.431l.508-.86a4.242 4.242 0 00-1.698-.565l-.108.994zm-.675.074c.221-.068.454-.093.685-.073l.088-.996a2.784 2.784 0 00-1.07.114l.297.955zm-.039.036l.14-.08-.497-.867-.139.079.496.868zm-.64.346c.19-.124.388-.231.594-.323l-.404-.914a5.172 5.172 0 00-.736.4l.547.837zm-.252.161l.249-.159-.539-.842-.248.159.538.842zm-2.213 1.269l2.192-1.256-.497-.868-2.192 1.256.497.868zm-.301.142c.077-.042.156-.079.237-.111l-.369-.93a3.144 3.144 0 00-.347.163l.479.878zm.055-.052c.02-.022 0 .002-.03.025a.436.436 0 01-.265.088v-1a.565.565 0 00-.346.12c-.055.043-.097.092-.101.097l.742.67zm-.18.15c.105-.06.176-.145.18-.15l-.742-.67-.005.005-.001.001.001-.001a.341.341 0 01.075-.056l.492.87zm-.174.103l.183-.108-.51-.86-.183.108.51.86zm-.691 1.794c-.04-.699.242-1.38.77-1.852l-.667-.745a3.306 3.306 0 00-1.101 2.654l.998-.057zm-.043 16.44l.044-16.41-1-.003-.044 16.41 1 .004zm3.084 5.23a6.589 6.589 0 01-3.085-5.255l-.998.048a7.588 7.588 0 003.55 6.053l.533-.847zm.565.32l-.585-.332-.494.87.585.331.494-.87zm.253 6.16v-5.725h-1v5.725h1zm.406.965c-.256-.263-.4-.61-.406-.972l-1 .015c.01.619.257 1.21.69 1.655l.716-.698zm.306.248a1.528 1.528 0 01-.303-.245l-.722.692c.149.155.317.291.5.404l.526-.85zm.606.032a.682.682 0 01-.615-.037l-.506.862a1.681 1.681 0 001.519.093l-.398-.918zm6.107-2.797l-6.116 2.801.416.91 6.116-2.802-.416-.909zm14.282 7.934l-13.826-7.913-.496.867 13.825 7.914.497-.868zm1.478.44a3.032 3.032 0 01-1.468-.434l-.517.856c.59.356 1.262.554 1.952.577l.033-1zm.596-.125c-.198.079-.408.12-.621.124l.017 1c.333-.006.662-.071.972-.194l-.368-.93zm.23-.136l-.293.166.494.87.292-.166-.494-.87zm3.198-1.833l-3.2 1.834.497.868 3.2-1.834-.497-.868zm.437-.404c-.126.163-.28.304-.456.416l.536.844c.274-.174.516-.394.713-.652l-.793-.608zm-.47.288l.57.419.592-.806-.57-.419-.592.806zm1.177-.392l-.592-.419-.577.816.591.42.578-.817zm-.255-1.443a2.749 2.749 0 01-.452 1.576l.836.55a3.75 3.75 0 00.615-2.15l-1 .024zm.044-16.424l-.044 16.41 1 .004.044-16.411-1-.003zm-3.071-5.237a6.602 6.602 0 013.071 5.262l.999-.047a7.603 7.603 0 00-3.534-6.06l-.536.845zm-.215.393L29.722 20.329l-.495.869 22.535 12.858.496-.868zM55.096 38a6.212 6.212 0 00-2.812-4.798l-.547.837a5.213 5.213 0 012.36 4.026l.999-.065zm-.043 16.437l.044-16.403-1-.003-.044 16.404 1 .002zm-.338 1.288a2.26 2.26 0 00.337-1.316l-.998.054a1.26 1.26 0 01-.189.734l.85.528zm-.546.45c.213-.09.397-.237.53-.426l-.818-.575a.229.229 0 01-.099.079l.388.922zm-1.01.586l1.066-.614-.499-.866-1.066.613.498.867zm-.75-.556v.123h1v-.123h-1zm.044-16.412l-.044 16.41 1 .003.044-16.41-1-.003zm-3.085-5.244a6.617 6.617 0 013.085 5.27l1-.05a7.617 7.617 0 00-3.55-6.065l-.535.845zM26.859 21.717l22.529 12.845.495-.869-22.529-12.844-.495.868zm-.087-.038l.124.058.422-.907-.125-.058-.421.907zm1.285-1.614l-1.315.722.481.877 1.316-.722-.482-.877zm.622-.052a1.238 1.238 0 00-.477 0l.192.981a.238.238 0 01.093 0l.192-.981zm1.033.31a2.711 2.711 0 00-1.093-.318l-.072.997c.242.018.477.086.69.201l.475-.88zm20.126 36.48L35.341 48.53l-.496.868 14.498 8.274.495-.868zm.963.167a.976.976 0 01-.912-.133l-.597.802a1.976 1.976 0 001.85.271l-.34-.94zm.164-.692a.856.856 0 01-.31.775l.633.775a1.857 1.857 0 00.669-1.68l-.992.13zm.04-16.477l-.044 16.41 1 .003.044-16.41-1-.003zm-2.36-3.992a5.22 5.22 0 012.361 4.026l.998-.066a6.22 6.22 0 00-2.812-4.797l-.547.837zM26.128 22.974l22.543 12.85.495-.868-22.543-12.851-.495.869zm-.902-.212c.3-.061.611.005.857.183l.585-.812a2.094 2.094 0 00-1.642-.35l.2.979zm-.062.065l.212-.122-.5-.866-.213.123.501.865zm-.14.693c-.03-.286.064-.573.26-.79l-.74-.671a2.019 2.019 0 00-.515 1.564l.995-.103zm-.041 16.464l.043-16.411-1-.003-.043 16.411 1 .003zm2.358 3.968a5.155 5.155 0 01-2.36-4.001l-.997.063a6.155 6.155 0 002.814 4.778l.543-.84zm1.293.745l-1.315-.758-.5.866 1.316.758.5-.866zm.25 6.996V45.13h-1v6.563h1zm.018-.015a.095.095 0 01-.021-.048l-.992.127c.026.205.11.398.242.558l.771-.637zm5.981-3.168l-6.576 3.032.419.908 6.576-3.032-.419-.908z" fill="#0A0A14"/><path d="M29.654 31.887l6.27 3.532a.71.71 0 00.37.102.548.548 0 00.302-.08.619.619 0 00.317-.572 1.173 1.173 0 00-.558-.945l-6.27-3.533a.704.704 0 00-.68 0 .64.64 0 00-.316.58c.018.378.23.722.566.916zM41.58 44.383l-11.51-6.167a.7.7 0 00-.67 0 .617.617 0 00-.312.545c.011.365.221.7.558.89l11.51 6.209a.79.79 0 00.364.096.632.632 0 00.298-.075.584.584 0 00.312-.545 1.072 1.072 0 00-.55-.953zM41.58 40.952L30.07 34.735a.723.723 0 00-.67 0 .598.598 0 00-.313.545c.014.364.224.696.559.884l11.509 6.218c.109.063.235.097.364.096a.625.625 0 00.298-.069.598.598 0 00.313-.545 1.077 1.077 0 00-.551-.912z" fill="#0A0A14" stroke="#0A0A14"/></svg>