<svg data-tags="notes,Illustration" xmlns="http://www.w3.org/2000/svg" viewBox="0 0 40 40"><path d="M37.276 6.544a.973.973 0 0 0-.01-.115c-.002-.009-.008-.016-.01-.025a.989.989 0 0 0-.054-.138 1.009 1.009 0 0 0-.055-.122 1.002 1.002 0 0 0-.084-.108.994.994 0 0 0-.091-.109 1.018 1.018 0 0 0-.107-.078.994.994 0 0 0-.122-.082l-.016-.01a.983.983 0 0 0-.132-.043.96.96 0 0 0-.106-.038L8.781.021a.995.995 0 0 0-.823.195l-2.932 2.31-.007.008-.007.004c-.007.005-.01.014-.016.02a.985.985 0 0 0-.225.287c-.014.026-.028.05-.04.077a.994.994 0 0 0-.083.372c0 .008-.005.014-.005.021v3.92a2.751 2.751 0 0 0-1.838 1.76c-.379 1.299.37 2.698 1.838 3.57v3.267a2.747 2.747 0 0 0-1.838 1.76c-.379 1.298.37 2.697 1.838 3.569v3.267a2.748 2.748 0 0 0-1.838 1.76c-.376 1.29.359 2.681 1.838 3.567v3.598a1.004 1.004 0 0 0 .804.983l27.698 5.643a.982.982 0 0 0 .2.021.721.721 0 0 0 .446-.12.983.983 0 0 0 .172-.093l.017-.013 2.926-2.287a1.003 1.003 0 0 0 .386-.791V6.66a.975.975 0 0 0-.016-.116ZM6.652 30.48a5.384 5.384 0 0 0 .86.076 3.19 3.19 0 0 0 3.264-1.976 1.004 1.004 0 0 0-1.92-.587c-.12.387-1.055.728-2.204.436v-6.548c.026.004.055.014.081.018a5.49 5.49 0 0 0 .8.06 3.155 3.155 0 0 0 3.245-1.982 1.004 1.004 0 1 0-1.925-.573c-.107.362-.873.647-1.834.507a3.379 3.379 0 0 1-.367-.081v-6.545c.026.004.055.014.081.018a5.477 5.477 0 0 0 .798.06 3.158 3.158 0 0 0 3.247-1.981 1.004 1.004 0 0 0-1.925-.575c-.107.362-.868.65-1.834.508a3.381 3.381 0 0 1-.367-.081V4.545L32.34 9.79v27.977L6.65 32.533Z"/><path d="m28.119 14.968-13.843-2.942a1.105 1.105 0 0 0-.46 2.162L27.66 17.13a1.105 1.105 0 0 0 .459-2.162ZM28.119 21.85 14.276 18.91a1.105 1.105 0 0 0-.46 2.161l13.844 2.942a1.105 1.105 0 0 0 .459-2.161ZM28.119 28.734 14.276 25.79a1.105 1.105 0 1 0-.46 2.162l13.844 2.942a1.105 1.105 0 0 0 .459-2.162Z"/></svg>