<svg data-tags="illustration,notify,bell" xmlns="http://www.w3.org/2000/svg" viewBox="0 0 40 40"><path d="M39.31 21.085a2.667 2.667 0 00-2.587-1.004.933.933 0 00-.173-.07c-2.04-.38-5.7-3.02-7.86-6.03a5.69 5.69 0 001.82-4.18 5.766 5.766 0 00-5.76-5.75 5.655 5.655 0 00-2.59.62 10.766 10.766 0 00-9.39-2.736A4.881 4.881 0 006.698.765a4.612 4.612 0 00-2.206 3.072 5.324 5.324 0 00.266 3.07 11.766 11.766 0 00-2.084 10.03c.74 3.147 1.73 4.817 3.526 7.848l.585.99c1.985 3.364 2.677 8.766 1.927 10.998l-.001.014-.018.053a2.085 2.085 0 00.05 1.863 2.434 2.434 0 002.326 1.039 14.698 14.698 0 004.305-.885 61.043 61.043 0 0010.894-5.073c.624-.359 15.258-8.853 13.041-12.699zm-15.3 5.97q.27-.148.539-.293a2.678 2.678 0 01.263.362c.012.02.028.036.04.057v-.001a2.64 2.64 0 01.218.487c.009.025.01.052.018.077a2.628 2.628 0 01.097.434v.004a2.665 2.665 0 01-.826 2.253c-.019.018-.034.04-.054.058a2.65 2.65 0 01-3.732-.219l-.009-.008a2.658 2.658 0 01-.313-.435 2.605 2.605 0 01-.2-.448q.299-.189.61-.376a64.79 64.79 0 012.124-1.27c.367-.211.735-.424 1.133-.631zM23.33 7.11l1.42 1.42.42-.42 1-1a.912.912 0 011.28 0 .9.9 0 010 1.27l-1.29 1.29-.13.13.49.49.93.93a.902.902 0 01.17 1.03 1.004 1.004 0 01-.17.25.918.918 0 01-1.28 0l-1.42-1.42-.06.06-1.36 1.36a.894.894 0 01-.63.26.935.935 0 01-.64-.26.911.911 0 010-1.28l1.42-1.42-1.42-1.42a.91.91 0 01-.12-1.13 1.75 1.75 0 01.12-.14.9.9 0 011.27 0zM20.54 5.9A5.68 5.68 0 0019 9.8a5.757 5.757 0 005.75 5.75 5.849 5.849 0 002.26-.46 21.695 21.695 0 006.205 5.67 56.132 56.132 0 00-8.989 3.907l-1.427.761.01.007q-.518.276-1.023.57a69.06 69.06 0 00-2.068 1.234l-.003-.019-1.338.865v.001l-.01.006-.054.036a57.623 57.623 0 00-5.491 4.003 20.673 20.673 0 00-2.443-8.451l-.618-1.044c-1.736-2.929-2.608-4.398-3.266-7.232C5.117 9.494 9.268 5.198 11.23 4.4l.001-.001a9.064 9.064 0 019.308 1.5zM6.447 4.262a2.642 2.642 0 011.25-1.764 2.73 2.73 0 012.73.07l-.125.048-.124.048-.03.013c-.123.049-.242.097-.348.144a.468.468 0 00-.07.035l-.028.011a13.971 13.971 0 00-1.325.677 16.107 16.107 0 00-1.984 1.572 3.19 3.19 0 01.054-.854z"/></svg>