<svg data-tags="notes,media properties,illustrations,properties,list" xmlns="http://www.w3.org/2000/svg" viewBox="0 0 40 40"><path d="M38.144 18.49a2.19 2.19 0 0 0-3.033-.443l-1.145.924V6.66a.36.36 0 0 0-.02-.11.489.489 0 0 0-.01-.121c0-.01-.01-.02-.01-.03a.503.503 0 0 0-.05-.13.75.75 0 0 0-.06-.131.393.393 0 0 0-.08-.1 1.074 1.074 0 0 0-.091-.111 1.06 1.06 0 0 0-.11-.08.84.84 0 0 0-.121-.08c-.01 0-.01-.01-.02-.01a.647.647 0 0 0-.13-.04 1.024 1.024 0 0 1-.101-.041L5.456.02a.976.976 0 0 0-.824.2L1.7 2.532a.01.01 0 0 1-.01.01h-.01a.031.031 0 0 1-.01.02.976.976 0 0 0-.221.282.3.3 0 0 0-.04.08 1.184 1.184 0 0 0-.09.372v30.057a1 1 0 0 0 .803.984l27.697 5.644a1.36 1.36 0 0 0 .2.02.965.965 0 0 0 .332-.06.601.601 0 0 0 .11-.06 1.045 1.045 0 0 0 .181-.101l2.943-2.3a1.01 1.01 0 0 0 .381-.793v-11.97l3.977-3.184a2.009 2.009 0 0 0 .733-1.416 2.277 2.277 0 0 0-.532-1.627Zm-9.129 4.438-3.494 2.802a.46.46 0 0 0-.141.21l-.542 1.537-.513 1.476a.59.59 0 0 0 .613.753l1.577-.19 1.707-.221.01-.01a1.532 1.532 0 0 0 .16-.11l.623-.503v9.088L3.327 32.528V4.54l25.688 5.242Z"/><path d="m12.343 16.16 9.47 2.008a1.498 1.498 0 0 0 .21.02 1.005 1.005 0 0 0 .212-1.989l-9.47-2.008a1.006 1.006 0 0 0-.422 1.968ZM12.343 21.803l9.47 2.009a1.498 1.498 0 0 0 .21.02 1.005 1.005 0 0 0 .212-1.989l-9.47-2.008a1.007 1.007 0 0 0-.422 1.968ZM12.343 27.386l9.47 2.009a1.506 1.506 0 0 0 .21.02 1.005 1.005 0 0 0 .212-1.988l-9.47-2.009a1.007 1.007 0 0 0-.422 1.968ZM7.495 15.125a.81.81 0 0 0 1.035-.813 1.346 1.346 0 0 0-1.035-1.256.81.81 0 0 0-1.034.814 1.346 1.346 0 0 0 1.034 1.255ZM7.495 20.768a.81.81 0 0 0 1.035-.813A1.346 1.346 0 0 0 7.495 18.7a.81.81 0 0 0-1.034.813 1.346 1.346 0 0 0 1.034 1.255ZM7.495 26.423a.81.81 0 0 0 1.035-.814 1.346 1.346 0 0 0-1.035-1.255.81.81 0 0 0-1.034.814 1.346 1.346 0 0 0 1.034 1.255Z"/></svg>