<svg data-tags="no products found,no assets" xmlns="http://www.w3.org/2000/svg" viewBox="0 0 25 19.838"><defs><linearGradient id="noProducts_a" x1="3.418" x2="7.979" y1="11.966" y2="7.405" gradientUnits="userSpaceOnUse"><stop offset=".671" stop-color="#d2887a"/><stop offset=".961" stop-color="#cb6261"/></linearGradient><linearGradient id="noProducts_b" x1="14.064" x2="14.064" y1=".286" y2="10.79" gradientUnits="userSpaceOnUse"><stop offset="0" stop-color="#ad00ff"/><stop offset=".466" stop-color="#786eff"/></linearGradient><linearGradient id="noProducts_c" x1="14.769" x2="14.769" y1="11.401" y2="15.076" gradientUnits="userSpaceOnUse"><stop offset="0" stop-color="#7d69ff"/><stop offset=".537" stop-color="#786eff"/></linearGradient><linearGradient id="noProducts_d" x1="10.71" x2="10.71" y1="9.977" y2="8.941" gradientUnits="userSpaceOnUse"><stop offset=".671" stop-color="#d2887a"/><stop offset=".96" stop-color="#da5a5d"/></linearGradient><linearGradient id="noProducts_e" x1="11.763" x2="12.767" y1="9.778" y2="9.778" gradientUnits="userSpaceOnUse"><stop offset=".591" stop-color="#d2887a"/><stop offset=".833" stop-color="#da5a5d"/></linearGradient><linearGradient id="noProducts_f" x1="10.384" x2="14.638" y1="14.035" y2="14.035" gradientUnits="userSpaceOnUse"><stop offset=".591" stop-color="#d2887a"/><stop offset="1" stop-color="#db6060"/></linearGradient><linearGradient id="noProducts_g" x1="12.612" x2="13.296" y1="9.995" y2="9.995" gradientUnits="userSpaceOnUse"><stop offset=".591" stop-color="#d2887a"/><stop offset=".756" stop-color="#dc6161"/></linearGradient><linearGradient id="noProducts_h" x1="7.16" x2="10.089" y1="3.549" y2="3.549" gradientUnits="userSpaceOnUse"><stop offset=".591" stop-color="#d2887a"/><stop offset="1" stop-color="#da5a5d"/></linearGradient></defs><path fill="#f1f1f1" d="M13.503 10.556a1.847 1.847 0 00-.711-.191 1.918 1.918 0 00-.34.01 1.837 1.837 0 00-1.288.786 2.304 2.304 0 00-.092.147.978.978 0 01-.272.063.952.952 0 01-.174.003.727.727 0 01-.132-.02 1.022 1.022 0 01-.263-.099 1.645 1.645 0 00-.074-.159 1.86 1.86 0 00-.755-.766.429.429 0 00.067-.003.22.22 0 00.158-.08l.002-.004a.131.131 0 00.016-.04l.002-.003.002-.008.004.003c.061.038.183.126.239.16a.23.23 0 00.107.045h.003l.024-.001a.206.206 0 00.128-.092l.002-.002.002-.004.01-.019a.274.274 0 00-.017-.226.708.708 0 00-.02-.045c.077-.083.042-.227.02-.31a.583.583 0 00-.099-.205l-.002-.004-.001-.001.002-.003-.02-.026a1.833 1.833 0 01.681.626l-.199 1.158a.67.67 0 00.12.017 1.098 1.098 0 00.161-.002h.001l-.058-1.172a1.864 1.864 0 01.78-.55 1.813 1.813 0 01.353-.07l.07.047.013.009a.28.28 0 00-.09.058.36.36 0 00-.08.117.205.205 0 00-.01.15.217.217 0 00.1.116.551.551 0 00.051.012.769.769 0 00.3-.005.78.78 0 01.227.005 1.038 1.038 0 01.189.043.154.154 0 00.052.044c.112.064.097.052.156.082.119.063.245.125.294.147h.002l.022.016a.158.158 0 00.032.048.226.226 0 00.095.057.927.927 0 01.21.14z"/><path fill="#0a0a14" d="M10.7 11.387q-.036 0-.076-.003a.773.773 0 01-.133-.02 1 1 0 01-.264-.099l-.007-.006a1.488 1.488 0 00-.073-.158l-.001-.005a1.845 1.845 0 00-.75-.756.012.012 0 01-.005-.013.011.011 0 01.01-.008.334.334 0 00.066-.003.211.211 0 00.152-.074v-.005a.117.117 0 00.015-.035l.003-.006.002-.009c.002-.007.008-.008.015-.005l.007.005.123.083c.045.03.087.06.114.077a.27.27 0 00.101.042.147.147 0 00.027 0 .206.206 0 00.12-.088l.003-.007a.052.052 0 00.01-.016.263.263 0 00-.018-.218.457.457 0 00-.02-.044l.003-.012c.074-.08.035-.229.016-.3a.557.557 0 00-.097-.201v-.001l-.003-.005-.002-.006v-.003l-.015-.02v-.013c.005-.005.009-.006.014-.003a1.851 1.851 0 01.684.63l.002.008-.197 1.148a.696.696 0 00.108.015c.05.002.1.002.15-.001l-.058-1.162.003-.008a1.601 1.601 0 011.14-.623l.006.002q.037.023.07.047l.014.008.004.01a.009.009 0 01-.007.009.258.258 0 00-.085.057.35.35 0 00-.078.112.192.192 0 00-.01.142.204.204 0 00.095.11l.048.011a.782.782 0 00.282-.002l.013-.002a.755.755 0 01.233.004 1.111 1.111 0 01.189.043l.005.003.007.008a.139.139 0 00.042.034c.076.043.093.052.115.062l.041.02c.12.064.245.125.294.147l.004.003.021.014.004.005a.163.163 0 00.03.044.24.24 0 00.091.056.98.98 0 01.214.142l.001.013a.013.013 0 01-.014.004 1.84 1.84 0 00-.708-.19 2.184 2.184 0 00-.337.011 1.83 1.83 0 00-1.28.78 2.11 2.11 0 00-.092.148l-.005.004a.967.967 0 01-.276.064.803.803 0 01-.1.005zm-.461-.14a.968.968 0 00.257.096.724.724 0 00.13.02.77.77 0 00.172-.003.974.974 0 00.266-.06c.03-.052.06-.1.09-.145a1.849 1.849 0 011.297-.79 1.814 1.814 0 01.341-.01 1.855 1.855 0 01.633.152.924.924 0 00-.136-.082c-.079-.032-.095-.053-.1-.06a.194.194 0 01-.031-.047.146.146 0 01-.02-.015l-.004-.002a5.278 5.278 0 01-.332-.165 1.237 1.237 0 01-.115-.061.151.151 0 01-.049-.04l-.004-.004a1.065 1.065 0 00-.183-.042.81.81 0 00-.226-.005l-.014.002a.728.728 0 01-.289.003.618.618 0 01-.052-.013.238.238 0 01-.108-.122.215.215 0 01.012-.16.364.364 0 01.082-.12.291.291 0 01.074-.05.794.794 0 00-.063-.043 1.758 1.758 0 00-.347.07 1.787 1.787 0 00-.773.541l.059 1.168-.003.01-.008.002a1.133 1.133 0 01-.163.002.64.64 0 01-.122-.018.012.012 0 01-.008-.012l.199-1.154a1.848 1.848 0 00-.64-.601v.002a.606.606 0 01.1.208c.019.073.06.224-.017.314a.467.467 0 01.017.04.291.291 0 01.017.235.085.085 0 01-.01.017l-.003.004-.003.006a.221.221 0 01-.134.095h-.026a.221.221 0 01-.116-.044 3.292 3.292 0 01-.114-.078c-.042-.029-.086-.059-.117-.078a.116.116 0 01-.016.037l-.002.006a.228.228 0 01-.167.085l-.027.003a1.864 1.864 0 01.723.75l.001.004a1.404 1.404 0 01.072.152zM10.04 9.5zm-.003-.007zm0 0z"/><circle cx="8.518" cy="11.962" r="1.305" fill="#b0b0ff"/><path fill="#0a0a14" d="M8.52 13.278q-.041 0-.082-.003a1.316 1.316 0 01-.793-2.298 1.295 1.295 0 01.952-.328 1.314 1.314 0 011.234 1.393 1.315 1.315 0 01-1.311 1.236zm-.005-2.61A1.293 1.293 0 109.81 12.04a1.294 1.294 0 00-1.214-1.37l-.08-.001z"/><circle cx="12.67" cy="12.214" r="1.305" fill="#b0b0ff"/><path fill="#0a0a14" d="M12.672 13.53q-.04 0-.082-.003a1.316 1.316 0 01.08-2.629l.08.003a1.316 1.316 0 011.234 1.393 1.317 1.317 0 01-1.312 1.236zm-.003-2.61a1.294 1.294 0 00-.077 2.586c.027.002.053.002.08.002a1.296 1.296 0 001.29-1.216 1.294 1.294 0 00-1.214-1.37l-.079-.001z"/><path fill="#d2887a" d="M9.586 10a1.885 1.885 0 00-.33-.185l-.002.001-.002.002a.112.112 0 00-.012.02c-.013.02-.026.045-.043.077l-.002.004a.219.219 0 00-.021.05.143.143 0 00-.005.059c.005.042.089.067.177.091a1.32 1.32 0 00.173.034l.019.002h.005l.005-.012.001-.005.015-.035.014-.025a.282.282 0 01.035-.045l.003-.004a.137.137 0 00-.03-.03zm.564.303a.068.068 0 01-.03.005.047.047 0 01-.02-.004.133.133 0 01-.046-.028c-.021-.019-.041-.045-.074-.08-.056-.062-.095-.09-.115-.114a.064.064 0 01-.024-.053.238.238 0 01.01-.064.543.543 0 01.038-.085l.002-.004a.352.352 0 01.072-.091l.004-.003.005.005.004.005.005.004a.492.492 0 00-.026-.078c-.016-.04-.026-.047-.023-.064a.105.105 0 01.004-.023l.008-.018a.208.208 0 01.04-.057.549.549 0 01.064-.064V9.49l.003-.003-.02-.026-.007-.009a1.057 1.057 0 00-.133-.141l-.009-.008a1.148 1.148 0 00-.09-.076v-.001a1.724 1.724 0 00-.309-.197 1.344 1.344 0 00-.26-.105 1.282 1.282 0 00-.23-.039 1.45 1.45 0 00-.284.004 1.67 1.67 0 00-.165.025c-.084.018-.158.039-.217.055-.2.056-.237.1-.536.203a6.433 6.433 0 01-.371.118 1.616 1.616 0 01-.246.054l-.017.002h-.014a.902.902 0 01-.171-.001l-.023-.002-.048-.003-.022-.002a.823.823 0 00-.05-.005l-.12-.01a.427.427 0 00-.036-.004l-.06-.006-.074-.007-.29-.028-.09-.01-.073-.008a1.643 1.643 0 00-.065-.009h-.006l-.02-.001-.1-.01-.035-.004a6.547 6.547 0 01-.494-.083l-.004-.001c-.17-.03-.35-.071-.542-.122l-.018-.005a20.151 20.151 0 01-.5-.132l-.019-.005a4.863 4.863 0 00.574-.002c.055-.003.11-.008.167-.013.057-.006.115-.012.174-.02a4.85 4.85 0 00.79-.17h.001a3.511 3.511 0 00-.04-.48 3.568 3.568 0 00-.07-.349l-.007.001-.049.004-.048.004H5.77l-.11.009a18.16 18.16 0 01-1.404.05c-.42-.002-.718-.02-1.007.003a1.94 1.94 0 00-.071.006 2.865 2.865 0 00-.512.102 1.779 1.779 0 00-.898.491 1.577 1.577 0 00-.221.316 1.466 1.466 0 00-.127.323 1.281 1.281 0 00-.038.378.945.945 0 00.148.512 1.125 1.125 0 00.668.408 3.012 3.012 0 00.429.1h.002c.08.012.153.02.223.026.143.012.263.013.357.016l1.084.029.535.015c.11.003.222.005.334.005.419 0 .835-.013 1.156-.014h.006a.626.626 0 00.22.059l.03.003a1.228 1.228 0 00.124.001l.028-.001.012-.001.027-.002.047-.005a1.335 1.335 0 00.151-.032 3.404 3.404 0 00.408-.148 4.55 4.55 0 00.128-.055l.485-.226a2.4 2.4 0 01.288-.072 1.512 1.512 0 01.153-.02 1.47 1.47 0 01.27-.002l.049.006a1.022 1.022 0 01.333.094 1.144 1.144 0 00.186.067h.002l.053.012h.001l.055.007.024.001a.428.428 0 00.068-.002h.006a.22.22 0 00.158-.08.131.131 0 00.016-.04l.002-.003.002-.008v-.005c.061.037.187.129.244.164a.253.253 0 00.105.045l.024-.002a.201.201 0 00.132-.088l.004-.005z"/><path fill="url(#noProducts_a)" d="M9.613 10.033a.129.129 0 00-.029-.029 1.885 1.885 0 00-.33-.185l-.014.02c-.013.02-.025.044-.043.076l-.002.004a.219.219 0 00-.021.05.13.13 0 00-.007.063c.005.043.089.067.177.092l.037.01.022.004.01.002c.01.002.02.005.03.005l.013.003.046.007a.39.39 0 00.04.005l.001-.004.005-.013.001-.005.015-.034.012-.021a.287.287 0 01.038-.05zm.541.273a.157.157 0 01-.03.006.048.048 0 01-.026-.004c-.048-.02-.068-.05-.124-.113a1.334 1.334 0 00-.08-.079.243.243 0 01-.046-.047.1.1 0 01-.003-.075.326.326 0 01.123-.205l.01.012-.002-.01c-.01-.018-.012-.043-.02-.063a.225.225 0 01-.026-.065.077.077 0 01.006-.03.238.238 0 01.052-.08l.06-.062-.026-.034a1.051 1.051 0 00-.143-.149 1.397 1.397 0 00-.089-.077 1.724 1.724 0 00-.309-.197 1.385 1.385 0 00-.876-.123 2.759 2.759 0 00-.28.064c-.2.056-.237.1-.536.202-.094.033-.19.064-.286.093a2.161 2.161 0 01-.285.075 1.06 1.06 0 01-.208.004 25.384 25.384 0 01-1.005-.09 7.223 7.223 0 01-.465-.068l-.18-.034a6.57 6.57 0 01-.542-.122L4.8 9.03c-.156-.039-.33-.084-.513-.138l.014.001a4.826 4.826 0 00.56-.002l.168-.013.167-.02a4.415 4.415 0 00.791-.174 3.463 3.463 0 00-.04-.476 3.621 3.621 0 00-.07-.35c-.16.01-.318.026-.477.036q-.223.013-.446.021a16.29 16.29 0 01-.695.012c-.42-.003-.717-.02-1.007.002a1.914 1.914 0 00-.07.007 2.776 2.776 0 00-.519.102 1.748 1.748 0 00-1.087.749 1.476 1.476 0 00-.157.376 1.25 1.25 0 00-.04.383.945.945 0 00.149.511 1.125 1.125 0 00.668.409 2.874 2.874 0 00.436.1c.08.011.154.02.224.025.142.013.262.014.357.016l1.083.029c.142.004.045.003.535.016.111.002.222.004.335.004.418 0 .834-.013 1.156-.014a.604.604 0 00.225.06l.03.002a1.222 1.222 0 00.124.002l.028-.002h.013l.027-.003.047-.005a2.15 2.15 0 00.145-.032 3.406 3.406 0 00.407-.148l.128-.055.485-.226a2.026 2.026 0 01.295-.071 1.51 1.51 0 01.152-.02 1.47 1.47 0 01.271-.002l.048.005a1.055 1.055 0 01.327.094 1.018 1.018 0 00.194.068l.054.01c.019.004.037.006.055.008l.025.002a.429.429 0 00.067-.003.218.218 0 00.16-.084.131.131 0 00.016-.04c.001-.003.002-.007.008-.008.061.038.183.126.239.16a.222.222 0 00.11.045l.024-.001a.204.204 0 00.128-.093z"/><path fill="#0a0a14" d="M6.652 10.718c-.025 0-.049 0-.075-.003a.157.157 0 01-.03-.002.631.631 0 01-.228-.06l-.455.007c-.212.004-.431.008-.655.008h-.044c-.112 0-.223-.002-.334-.004l-.437-.013-.098-.003c-.118-.004-.493-.014-.8-.021l-.284-.008-.067-.002a3.807 3.807 0 01-.515-.04 2.912 2.912 0 01-.437-.1 1.134 1.134 0 01-.674-.413.954.954 0 01-.15-.518 1.266 1.266 0 01.04-.385 1.533 1.533 0 01.157-.38 1.736 1.736 0 011.095-.753 2.791 2.791 0 01.52-.103l.07-.005a6.142 6.142 0 01.652-.008l.46.005a16.639 16.639 0 001.248-.05c.087-.006.177-.014.264-.018h.001a.01.01 0 01.011.008 3.253 3.253 0 01.07.35 3.532 3.532 0 01.041.478.011.011 0 01-.007.011 4.445 4.445 0 01-.793.173 2.45 2.45 0 01-.162.02l-.014.001a4.714 4.714 0 01-.16.012 4.367 4.367 0 01-.482.007c.163.046.309.083.423.111a.032.032 0 00.017.004c.182.05.365.091.543.122a7.532 7.532 0 00.644.102c.184.02.371.038.553.055l.013.001c.142.014.29.028.438.035a1.029 1.029 0 00.205-.005 1.783 1.783 0 00.246-.063L7.5 9.26a5.48 5.48 0 00.582-.208 1.741 1.741 0 01.24-.088 2.67 2.67 0 01.281-.064 1.376 1.376 0 01.883.124 1.849 1.849 0 01.311.198 1.398 1.398 0 01.157.143l.013.013a7.796 7.796 0 01.09.106.012.012 0 010 .014l-.002.002-.06.06a.237.237 0 00-.048.076.047.047 0 00-.006.026.085.085 0 00.014.037l.012.024.008.03a.156.156 0 00.01.034l.004.009-.005.012H9.97l-.005-.005a.324.324 0 00-.111.194.09.09 0 00.003.066.137.137 0 00.032.035l.01.01c.031.027.057.054.082.08l.032.035a.22.22 0 00.088.076.057.057 0 00.02.002.147.147 0 00.03-.005l.011.004v.012a.217.217 0 01-.135.098h-.026a.233.233 0 01-.116-.044 3.292 3.292 0 01-.114-.078l-.118-.08a.083.083 0 01-.017.04.221.221 0 01-.167.09.413.413 0 01-.05.003H9.4l-.025-.003c-.018-.002-.038-.003-.055-.006l-.055-.012a1.116 1.116 0 01-.196-.067 1.054 1.054 0 00-.325-.094.798.798 0 00-.047-.005 1.545 1.545 0 00-.269.001 1.537 1.537 0 00-.151.02 2.105 2.105 0 00-.294.072l-.364.17-.12.055a5.346 5.346 0 01-.128.055 3.5 3.5 0 01-.409.148c-.056.014-.1.025-.145.033l-.048.006c-.016 0-.034 0-.041.002h-.013l-.013.002h-.051zm-.33-.086l.005.001a.594.594 0 00.221.06.158.158 0 01.03.001 1.046 1.046 0 00.124.002.082.082 0 01.026-.002l.014-.001.026-.001.047-.006c.044-.008.087-.018.143-.032a3.49 3.49 0 00.407-.147l.126-.054.12-.056.365-.17a2.023 2.023 0 01.298-.073 1.544 1.544 0 01.153-.02 1.495 1.495 0 01.273-.002.816.816 0 01.048.005 1.07 1.07 0 01.332.096 1.043 1.043 0 00.191.065l.054.012a.9.9 0 00.053.007.186.186 0 00.04.002.376.376 0 00.05-.003.205.205 0 00.152-.08.117.117 0 00.014-.034.02.02 0 01.017-.018l.008.001.125.085c.045.03.087.06.114.077.07.042.095.042.104.042a.159.159 0 00.024 0 .191.191 0 00.103-.066h-.012a.055.055 0 01-.024-.005.24.24 0 01-.095-.08 1.234 1.234 0 00-.111-.114l-.012-.009a.203.203 0 01-.036-.04.11.11 0 01-.006-.082.346.346 0 01.127-.212.164.164 0 01-.006-.023.209.209 0 00-.007-.027.146.146 0 00-.011-.021.104.104 0 01-.017-.047.07.07 0 01.007-.034.24.24 0 01.054-.082.395.395 0 01.054-.057.242.242 0 00-.02-.026.93.93 0 00-.062-.07l-.013-.014-.066-.064a1.131 1.131 0 00-.09-.076 1.713 1.713 0 00-.307-.196 1.348 1.348 0 00-.87-.122 2.642 2.642 0 00-.277.063 1.581 1.581 0 00-.238.087c-.068.03-.153.066-.298.116-.103.036-.208.068-.287.093l-.037.01a1.692 1.692 0 01-.249.064.948.948 0 01-.21.005 8.825 8.825 0 01-.44-.034l-.012-.001c-.182-.017-.37-.034-.554-.056a7.476 7.476 0 01-.466-.067c-.06-.01-.12-.022-.18-.034a6.75 6.75 0 01-.543-.122.046.046 0 00-.017-.004c-.135-.035-.315-.08-.513-.138a.012.012 0 01-.008-.013c0-.007.008-.01.018-.009l.006.001a4.433 4.433 0 00.56-.002l.16-.012.013-.002c.051-.005.106-.01.16-.02a4.45 4.45 0 00.783-.17 3.669 3.669 0 00-.041-.466 3.011 3.011 0 00-.068-.34 5.48 5.48 0 00-.255.02 7.7 7.7 0 01-.212.015 16.856 16.856 0 01-1.499.027 6.349 6.349 0 00-.649.008l-.07.006a2.754 2.754 0 00-.517.102 1.71 1.71 0 00-1.08.745 1.453 1.453 0 00-.156.373 1.25 1.25 0 00-.04.379.932.932 0 00.147.506 1.116 1.116 0 00.662.404 2.863 2.863 0 00.435.1c.08.012.153.02.223.026.11.01.204.011.288.013l.067.002.286.008.798.022.098.003c.049 0 .121.003.438.012.11.002.221.004.334.004.236.001.472-.004.697-.008.165-.003.321-.006.459-.006zm3.22-.461a.19.19 0 01-.042-.005l-.011-.002-.035-.005-.042-.008-.034-.007-.037-.01c-.088-.024-.178-.05-.184-.101a.138.138 0 01.006-.068.209.209 0 01.022-.051l.002-.005a.35.35 0 00.018-.031.54.54 0 01.027-.045.107.107 0 01.014-.02c.003-.005.007-.008.012-.004a1.866 1.866 0 01.332.186.158.158 0 01.031.031v.016a.203.203 0 00-.035.047.117.117 0 00-.012.02l-.01.022-.005.011-.003.011-.002.006a.013.013 0 01-.012.012zm-.335-.252l-.003.005a.15.15 0 00-.02.047.117.117 0 00-.006.059c.004.037.096.062.17.083l.037.01c.009.003.02.004.031.006.014.003.032.005.042.008l.034.005.012.002a.282.282 0 00.03.005v-.003l.003-.006.004-.01.002-.007.011-.025.014-.022a.373.373 0 01.031-.043.145.145 0 00-.021-.02 1.826 1.826 0 00-.32-.18l-.008.01a.39.39 0 00-.026.045z"/><path fill="url(#noProducts_b)" d="M15.642 7.772c.016 1.27-1.348 1.61-1.318 2.87a1.186 1.186 0 00.011.148l-.015-.034a2.125 2.125 0 00-.29-.445 1.033 1.033 0 00-.052-.06.96.96 0 00-.266-.22 1.847 1.847 0 01-.02-.344q-.018-.205-.047-.409a8.113 8.113 0 00-.826-2.485l-.106-.212c-.06-.12-.147-.287-.262-.49V.287h2.446a2.655 2.655 0 01.78 1.57c-.021 1.412-1.363 1.865-1.305 3.116.06 1.262 1.256 1.564 1.27 2.8z"/><path fill="url(#noProducts_c)" d="M15.115 15.076h-1.327c.095-.218.22-.507.475-1.16a5.621 5.621 0 00.374-1.483 4.14 4.14 0 00-.018-.503 3.619 3.619 0 00-.075-.448l-.018-.081c.356.7 1.071 1.227 1.206 2.099a1.918 1.918 0 01-.617 1.576z"/><path fill="#0a0a14" d="M.043 5.07c-.003.001-.01-.004-.01-.01V3.4a.01.01 0 01.01-.01h1.659a.01.01 0 01.01.006l-.003.012L.051 5.067zm.011-1.658v1.62l1.621-1.62z"/><path fill="#ffac00" d="M.043.289h1.659v1.659H.043z"/><path fill="#0a0a14" d="M1.702 3.401v1.658H.043l1.659-1.658z"/><path fill="#0a0a14" d="M1.702 5.07H.043a.01.01 0 01-.01-.007l.003-.012 1.658-1.658.012-.002a.01.01 0 01.006.01v1.658a.01.01 0 01-.01.011zM.07 5.048h1.62v-1.62zM12.684 14.048a1.547 1.547 0 01-.233-.014q-.031-.003-.062-.009a1.877 1.877 0 01-.889-.401 1.854 1.854 0 01-.592-.9 1.34 1.34 0 01-.033-.127 1.732 1.732 0 01-.038-.263l-.005-.08a1.59 1.59 0 01.003-.167 1.857 1.857 0 01.073-.414l.003-.01a.388.388 0 01.017-.05 1.785 1.785 0 01.134-.31c.03-.052.06-.101.093-.148a1.849 1.849 0 011.296-.79 1.814 1.814 0 01.341-.01 1.867 1.867 0 01.716.19 2.092 2.092 0 01.188.109c.009.005.017.012.026.018l.01.007a1.836 1.836 0 01.794 1.632 1.848 1.848 0 01-1.842 1.737zm-.004-3.675a1.963 1.963 0 00-.227.013 1.83 1.83 0 00-1.28.78 2.11 2.11 0 00-.092.148 1.768 1.768 0 00-.132.305c-.007.017-.012.034-.017.05l-.003.01a1.832 1.832 0 00-.072.41 1.54 1.54 0 00-.003.164v.006l.005.073a1.708 1.708 0 00.038.261c.009.042.02.084.032.125a1.825 1.825 0 00.585.888 1.846 1.846 0 00.879.398l.06.008a1.894 1.894 0 00.23.014 1.826 1.826 0 001.821-1.717l.011.001h-.01a1.814 1.814 0 00-.784-1.613l-.012-.008a.226.226 0 00-.025-.016 1.736 1.736 0 00-.185-.108 1.84 1.84 0 00-.708-.19 2.06 2.06 0 00-.11-.002z"/><path fill="#0a0a14" d="M12.683 13.63c-.03 0-.06 0-.09-.002a1.43 1.43 0 01-1.34-1.516 1.428 1.428 0 011.424-1.344l.09.003a1.431 1.431 0 01-.084 2.86zm-.006-2.84a1.409 1.409 0 00-1.403 1.324 1.41 1.41 0 001.321 1.492q.044.003.088.003a1.41 1.41 0 00.082-2.816q-.044-.003-.088-.003zm-1.414 1.323z"/><path fill="#050505" d="M10.795 11.261a1.098 1.098 0 01-.162.002.67.67 0 01-.12-.018l.2-1.157.01.015.014-.014z"/><path fill="#0a0a14" d="M10.699 11.276l-.067-.002a.64.64 0 01-.122-.018.012.012 0 01-.008-.012l.2-1.158a.012.012 0 01.008-.01h.002l.01.006h.006a.012.012 0 01.013-.004l.007.01.058 1.172-.003.01-.008.002a1.005 1.005 0 01-.096.004zm-.173-.038a.696.696 0 00.108.015c.05.002.1.002.15-.001l-.057-1.14-.004.001-.004-.001z"/><path fill="#050505" d="M10.918 12.72a.522.522 0 00-.145-.124.455.455 0 00-.206-.058.542.542 0 00-.353.143 1.394 1.394 0 00.056-.146.492.492 0 01.289-.094.468.468 0 01.326.154 1.745 1.745 0 01-.038-.263l-.001-.02.002.02a1.766 1.766 0 00.038.263 1.205 1.205 0 00.032.126z"/><path fill="#0a0a14" d="M10.918 12.732l-.008-.004a.498.498 0 00-.142-.122.424.424 0 00-.2-.058h-.015a.555.555 0 00-.333.14.01.01 0 01-.016-.013 1.23 1.23 0 00.055-.143l.005-.007a.505.505 0 01.277-.096l.019.001a.467.467 0 01.307.131 1.762 1.762 0 01-.03-.228l-.002-.02c0-.007.004-.012.01-.012h.001a.01.01 0 01.01.01l.003.02a1.708 1.708 0 00.038.262c.009.042.02.084.032.125a.012.012 0 01-.006.013zm-.365-.205h.015a.461.461 0 01.212.06.519.519 0 01.114.09l-.018-.075a.454.454 0 00-.317-.15h-.018a.492.492 0 00-.262.089 1.31 1.31 0 01-.037.103.545.545 0 01.311-.117z"/><path fill="#050505" d="M10.938 11.616l-.02.06a.89.89 0 01-.102.02 1.101 1.101 0 01-.21.005.842.842 0 01-.167-.028 1.451 1.451 0 01-.099-.031 1.992 1.992 0 00-.011-.064 1.146 1.146 0 00.12.04.849.849 0 00.16.026 1.032 1.032 0 00.204-.006 1.06 1.06 0 00.125-.022z"/><path fill="#0a0a14" d="M10.68 11.715a.979.979 0 01-.075-.003.89.89 0 01-.17-.028l-.086-.027-.013-.004-.007-.009a.82.82 0 00-.011-.064l.004-.011c.003-.001.006-.004.01-.001a.812.812 0 00.12.04.714.714 0 00.158.024 1.048 1.048 0 00.325-.027l.01.002.004.009-.017.054-.003.01-.008.007a.819.819 0 01-.104.019 1.118 1.118 0 01-.137.009zm-.33-.08l.006.001c.027.01.056.019.086.027a.841.841 0 00.165.027 1.162 1.162 0 00.208-.006.809.809 0 00.095-.016v-.004l.011-.032a1.07 1.07 0 01-.107.017 1.04 1.04 0 01-.206.005.758.758 0 01-.161-.025 1.14 1.14 0 01-.104-.034.431.431 0 01.007.04z"/><path fill="#0a0a14" d="M10.27 12.545h-.003a.011.011 0 01-.008-.014l.004-.013a1.565 1.565 0 00.058-.219l.013-.078c.008-.056.014-.111.017-.163a1.761 1.761 0 00.002-.191 1.573 1.573 0 00-.023-.223.011.011 0 01.01-.013.011.011 0 01.011.01 1.61 1.61 0 01.023.225 1.591 1.591 0 01-.001.194 1.729 1.729 0 01-.017.164l-.014.078a1.48 1.48 0 01-.057.223l-.004.012a.011.011 0 01-.011.008zM10.329 11.589a.011.011 0 01-.011-.01 2.503 2.503 0 00-.041-.164l-.008-.026-.018-.051a1.184 1.184 0 00-.03-.079.01.01 0 01.006-.013c.003-.003.01-.002.014.005l.03.079.018.054.01.025.022.083.018.084c.001.007-.002.012-.01.013zM8.528 13.798c-.037 0-.074-.002-.112-.004a1.853 1.853 0 01-1.054-3.286.011.011 0 01.015.002.011.011 0 01-.002.016 1.83 1.83 0 001.043 3.246l.11.003a1.832 1.832 0 001.676-1.099.01.01 0 01.01-.006h.003a.01.01 0 01.006.014 1.853 1.853 0 01-1.695 1.114z"/><path fill="#fff" d="M9.463 11.51a.08.08 0 01-.072-.045.738.738 0 00-.434-.399.08.08 0 01-.05-.1.08.08 0 01.1-.05.894.894 0 01.527.481.079.079 0 01-.037.106.078.078 0 01-.034.007zM9.567 11.75a.08.08 0 01-.071-.046l-.011-.022a.08.08 0 11.142-.071l.012.024a.08.08 0 01-.072.114zM13.484 11.652a.08.08 0 01-.072-.046.738.738 0 00-.434-.398.08.08 0 01.05-.15.894.894 0 01.527.48.079.079 0 01-.038.106.078.078 0 01-.033.008zM13.588 11.89a.08.08 0 01-.071-.044l-.011-.023a.08.08 0 11.142-.07l.012.024a.08.08 0 01-.072.114z"/><path fill="#0a0a14" d="M10.795 11.272a.01.01 0 01-.01-.01.01.01 0 01.01-.011.963.963 0 00.363-.1c.005-.004.01-.002.014.005a.01.01 0 01-.005.015.99.99 0 01-.37.101zM10.513 11.257h-.002a1.052 1.052 0 01-.36-.153.01.01 0 01-.003-.014c.003-.005.009-.01.015-.003a1.043 1.043 0 00.352.148.011.011 0 01.009.013.01.01 0 01-.01.009zM10.687 11.657q-.04 0-.08-.003a.758.758 0 01-.16-.025.897.897 0 01-.122-.041l-.007-.008-.003-.012-.016-.07a2.503 2.503 0 00-.022-.082l-.008-.027-.018-.051a.976.976 0 00-.03-.078.012.012 0 01.002-.012.013.013 0 01.013-.002 1.016 1.016 0 00.26.097.724.724 0 00.13.02.77.77 0 00.172-.003.967.967 0 00.27-.061l.012.002.001.012a1.81 1.81 0 00-.132.306l-.008.008a1.196 1.196 0 01-.127.022.933.933 0 01-.127.008zm-.349-.087a.812.812 0 00.115.037.714.714 0 00.157.026.94.94 0 00.202-.005c.038-.005.078-.012.117-.02a1.864 1.864 0 01.12-.28.96.96 0 01-.249.054.865.865 0 01-.176.002.773.773 0 01-.133-.02 1.028 1.028 0 01-.239-.085l.02.05.017.054.01.026.022.083c.006.023.01.048.015.071z"/><path fill="#050505" d="M11.508 13.615a5.089 5.089 0 01-.605-.06.727.727 0 00-.216-.033 2.65 2.65 0 00.037-.178 3.607 3.607 0 00.05-.748.522.522 0 01.144.125 1.848 1.848 0 00.59.894z"/><path fill="#0a0a14" d="M11.507 13.626h-.002a2.07 2.07 0 00-.317-.024.979.979 0 01-.287-.036l-.006-.002a.721.721 0 00-.202-.031h-.006l-.009-.004-.002-.01c.012-.05.025-.111.037-.177a3.655 3.655 0 00.05-.746l.005-.01h.012a.541.541 0 01.147.129 1.835 1.835 0 00.587.891.012.012 0 01.003.014zm-.806-.115a.711.711 0 01.2.033h.006a3.582 3.582 0 00.565.055 1.856 1.856 0 01-.564-.875.542.542 0 00-.122-.108 3.72 3.72 0 01-.051.73c-.01.06-.023.117-.034.165z"/><path fill="#0a0a14" d="M10.885 12.606l-.008-.003a.456.456 0 00-.318-.151h-.018a.497.497 0 00-.265.09h-.013l-.004-.011.004-.013a1.565 1.565 0 00.058-.219l.013-.079c.008-.055.014-.11.017-.162a1.761 1.761 0 00.002-.191 1.48 1.48 0 00-.024-.223l.002-.009.008-.003.017.004c.027.01.056.019.086.027a.841.841 0 00.165.027 1.162 1.162 0 00.208-.006.932.932 0 00.1-.018l.011.003.003.01a1.832 1.832 0 00-.072.41 1.54 1.54 0 00-.003.164v.006l.004.072a1.67 1.67 0 00.038.262.011.011 0 01-.006.012zm-.344-.177l.019.001a.467.467 0 01.307.131 1.762 1.762 0 01-.03-.228l-.005-.08a1.59 1.59 0 01.003-.166 1.83 1.83 0 01.068-.396.791.791 0 01-.086.015 1.111 1.111 0 01-.212.006.89.89 0 01-.17-.028l-.082-.026a1.787 1.787 0 01.02.402 1.729 1.729 0 01-.017.164l-.002.01-.012.068a1.48 1.48 0 01-.053.206.49.49 0 01.252-.079zM10.032 9.472l-.006-.002-.01-.005V9.45h.015l.007.003a.01.01 0 01.002.014zM10.723 10.113l-.009-.004-.01-.016a.01.01 0 01.002-.014c.005-.007.011-.002.015.003l.01.013a.011.011 0 01-.001.016z"/><path fill="#0a0a14" d="M10.723 10.114a.01.01 0 01-.01-.01l.002-.01.005-.004.008-.008a.012.012 0 01.016-.002.011.011 0 01.002.015l-.011.011-.003.003zM9.254 9.83l-.005-.001a1.192 1.192 0 00-.194-.072 2.833 2.833 0 00-1.01-.017c-.004 0-.011-.003-.012-.009a.011.011 0 01.008-.013 2.84 2.84 0 011.02.018 1.338 1.338 0 01.198.073.01.01 0 01.005.015zM6.322 10.654l-.005-.001a.36.36 0 01-.135-.117.347.347 0 01-.059-.167.01.01 0 01.01-.012h.001a.01.01 0 01.011.01.334.334 0 00.055.157.34.34 0 00.127.11.01.01 0 01.005.014zM9.648 10.203c-.007.002-.012-.005-.01-.013a.209.209 0 00-.02-.128.113.113 0 00-.012-.021.01.01 0 01.016-.014.103.103 0 01.016.025.228.228 0 01.02.142.01.01 0 01-.01.009zM9.965 9.798l-.008-.003a1.454 1.454 0 00-.2-.17 1.834 1.834 0 00-.786-.33 1.725 1.725 0 00-.74.051.011.011 0 11-.005-.021 1.784 1.784 0 01.749-.05 1.841 1.841 0 01.793.333 1.441 1.441 0 01.205.171v.016zM4.28 8.904h-.003a4.169 4.169 0 01-.16-.043l-.03-.009a.994.994 0 00-.433-.06.794.794 0 00-.244.08.011.011 0 01-.015-.005.01.01 0 01.005-.015.804.804 0 01.25-.08.96.96 0 01.443.059l.03.009.16.043a.012.012 0 01.008.013.01.01 0 01-.011.008z"/><path fill="url(#noProducts_d)" d="M11.63 9.42c-.049.011-.098.024-.148.04a1.69 1.69 0 00-.75.516h-.001a1.685 1.685 0 00-.682-.602 1.763 1.763 0 00-.169-.066 1.148 1.148 0 00-.09-.076.887.887 0 00.047-.14.927.927 0 00.025-.15 2.048 2.048 0 00.768.138 2.155 2.155 0 00.789-.134.546.546 0 00.055.275.595.595 0 00.156.2z"/><path fill="#0a0a14" d="M10.732 9.988a.013.013 0 01-.012-.008 1.676 1.676 0 00-.677-.597 1.64 1.64 0 00-.167-.064l-.005-.003a.98.98 0 00-.087-.075l-.004-.009v-.005a.813.813 0 00.047-.137.88.88 0 00.024-.15l.005-.008h.01a2.056 2.056 0 00.74.138h.024a2.107 2.107 0 00.784-.134l.011.001.004.01a.537.537 0 00.055.268.56.56 0 00.153.197l.004.011a.01.01 0 01-.009.008 1.485 1.485 0 00-.147.04 1.678 1.678 0 00-.743.511zM9.886 9.3a1.604 1.604 0 01.167.064 1.676 1.676 0 01.679.596 1.704 1.704 0 01.747-.511c.042-.013.084-.024.128-.034a.6.6 0 01-.201-.452 2.24 2.24 0 01-.776.129h-.023a2.068 2.068 0 01-.735-.135.958.958 0 01-.024.138.76.76 0 01-.045.133 1.02 1.02 0 01.083.071zM5.36 9.168H5.36c-.18-.036-.358-.077-.544-.122a.012.012 0 01-.008-.014c.001-.006.008-.008.014-.008.185.046.362.086.542.122a.011.011 0 01.008.013.01.01 0 01-.01.009z"/><path fill="#050505" d="M10.168 10.283l-.01.018-.002.004-.002.001a.157.157 0 01-.03.006.047.047 0 01-.02-.004.148.148 0 01-.05-.032c-.021-.019-.041-.045-.074-.08-.056-.062-.095-.09-.115-.114a.062.062 0 01-.02-.048.32.32 0 01.05-.154.352.352 0 01.073-.09l.01.01a.848.848 0 01.153.211l.02.045a.274.274 0 01.017.227z"/><path fill="#0a0a14" d="M10.123 10.323a.053.053 0 01-.023-.005.131.131 0 01-.054-.035.407.407 0 01-.044-.046.452.452 0 00-.03-.034 1.109 1.109 0 00-.078-.077.474.474 0 01-.038-.037.074.074 0 01-.022-.056.388.388 0 01.126-.251c.003-.004.01-.003.014-.001l.013.012a.879.879 0 01.154.213l.02.046a.291.291 0 01.017.236.085.085 0 01-.01.017l-.005.01c-.007.006-.014.004-.019.005a.074.074 0 01-.02.003zm-.156-.519a.34.34 0 00-.062.08.318.318 0 00-.05.15.053.053 0 00.017.04.436.436 0 00.037.035c.021.02.047.044.079.078.011.014.022.025.031.035a.374.374 0 00.042.044.12.12 0 00.047.032.043.043 0 00.031 0l.01-.004a.052.052 0 00.01-.016.263.263 0 00-.018-.218.457.457 0 00-.02-.044.858.858 0 00-.15-.208zm.201.479z"/><path fill="#050505" d="M9.614 10.034a.304.304 0 00-.072.126 1.296 1.296 0 01-.198-.036c-.088-.025-.172-.05-.177-.092a.18.18 0 01.028-.113.707.707 0 01.06-.1 1.886 1.886 0 01.33.185.137.137 0 01.029.03z"/><path fill="#0a0a14" d="M9.542 10.17a1.265 1.265 0 01-.2-.036c-.089-.024-.18-.05-.185-.101a.192.192 0 01.028-.118l.013-.025a.508.508 0 01.048-.078c.003-.004.007-.007.012-.003a1.866 1.866 0 01.332.186.13.13 0 01.032.033v.014a.203.203 0 00-.036.047.252.252 0 00-.033.074.01.01 0 01-.01.008zm-.285-.337a.612.612 0 00-.04.068l-.012.023a.168.168 0 00-.027.106c.004.037.096.062.17.083a1.22 1.22 0 00.187.035.295.295 0 01.033-.071.316.316 0 01.031-.044.141.141 0 00-.021-.02 1.826 1.826 0 00-.32-.18z"/><path fill="url(#noProducts_e)" d="M12.767 9.668l-.022.011a.239.239 0 00-.026.019.27.27 0 00-.088.13.302.302 0 00-.018.125.128.128 0 00.027.069 1.038 1.038 0 00-.189-.044.78.78 0 00-.227-.004.769.769 0 01-.3.004.551.551 0 01-.05-.012.217.217 0 01-.101-.116.205.205 0 01.01-.15.202.202 0 01.064.013.184.184 0 01.081.067.035.035 0 00.046.011.752.752 0 01.174-.065.727.727 0 01.09-.014.715.715 0 01.172.003.182.182 0 00.041-.072l.005-.015a.167.167 0 00-.005-.087l-.001-.007.001.001a1.15 1.15 0 01.316.133z"/><path d="M12.64 10.032h-.003a1.013 1.013 0 00-.186-.043.81.81 0 00-.226-.005l-.014.002a.73.73 0 01-.289.003.618.618 0 01-.052-.013.238.238 0 01-.108-.122.215.215 0 01.012-.16l.01-.005a.198.198 0 01.067.015.19.19 0 01.086.07.025.025 0 00.032.007.766.766 0 01.177-.066.81.81 0 01.092-.014.633.633 0 01.168.003.174.174 0 00.035-.065l.004-.011a.153.153 0 00-.004-.082l.009-.01-.01.004v-.012c.003-.005.009-.005.016-.004a1.2 1.2 0 01.317.134l.005.01-.005.01-.01.004-.013.006a.285.285 0 00-.025.018.256.256 0 00-.083.126.3.3 0 00-.018.12.114.114 0 00.025.062v.013zm-.33-.076a.957.957 0 01.144.011 1.005 1.005 0 01.16.035.163.163 0 01-.012-.048.3.3 0 01.018-.124.286.286 0 01.091-.14.16.16 0 01.029-.02l.005-.003a1.196 1.196 0 00-.28-.118.17.17 0 01.001.08l-.005.018a.193.193 0 01-.04.073l-.011.006h-.001a.707.707 0 00-.17-.004.815.815 0 00-.09.015.749.749 0 00-.17.063.048.048 0 01-.06-.013.168.168 0 00-.076-.064.188.188 0 00-.053-.011.189.189 0 00-.006.134.204.204 0 00.094.11l.048.011a.782.782 0 00.282-.002l.013-.002a.483.483 0 01.089-.007z"/><path fill="url(#noProducts_f)" d="M14.637 12.433a5.621 5.621 0 01-.374 1.482c-.256.654-.38.943-.475 1.16-.103.237-.174.39-.345.838a10.101 10.101 0 01-.531 1.14 2.208 2.208 0 01-.347.517 1.875 1.875 0 01-.253.227 1.413 1.413 0 01-.641.27l-.066.01a.925.925 0 01-.626-.105.472.472 0 01-.048-.034 1.227 1.227 0 01-.36-.62 3.341 3.341 0 01-.175-.913 7.603 7.603 0 01.06-1.376c.026-.267.055-.505.073-.652a6.478 6.478 0 01.704.043c.1.011.195.025.289.041-.003.11-.012.223-.01.35a7.603 7.603 0 00.064 1.03 5.565 5.565 0 01.456-1.228l.022-.042a5.517 5.517 0 01.337-.557.477.477 0 00.06.009c.039.005.079.008.118.011a1.838 1.838 0 001.158-3.346.917.917 0 00-.037-.025 1.882 1.882 0 00-.187-.107.927.927 0 00-.21-.14.226.226 0 01-.095-.058.158.158 0 01-.032-.048.198.198 0 01-.019-.124.25.25 0 01.149-.17l.022-.012a.3.3 0 01.073-.023.331.331 0 01.073.03.365.365 0 01.16.179.747.747 0 01.152.03.719.719 0 01.222.121.076.076 0 00.032-.03 2.125 2.125 0 01.29.445l.016.034a2.793 2.793 0 01.19.61l.018.082a3.62 3.62 0 01.075.448 4.14 4.14 0 01.018.503z"/><path d="M11.423 18.1a.827.827 0 01-.45-.12.378.378 0 01-.05-.034 1.26 1.26 0 01-.362-.623 3.516 3.516 0 01-.176-.917 7.56 7.56 0 01.06-1.378c.028-.284.057-.53.073-.651a.01.01 0 01.01-.01 6.256 6.256 0 01.706.042c.098.012.193.025.29.04a.011.011 0 01.009.012l-.005.12a5.608 5.608 0 00-.006.23 7.952 7.952 0 00.056.972 5.606 5.606 0 01.445-1.175l.021-.042a5.477 5.477 0 01.338-.558.01.01 0 01.01-.004l.06.008a1.894 1.894 0 00.231.014 1.827 1.827 0 001.038-3.33l-.012-.007a.226.226 0 00-.025-.016 1.736 1.736 0 00-.186-.108.934.934 0 00-.209-.14c-.079-.032-.095-.053-.1-.06a.163.163 0 01-.032-.05.203.203 0 01-.02-.13.261.261 0 01.153-.18l.024-.011a.378.378 0 01.075-.024.298.298 0 01.081.032.39.39 0 01.161.178.692.692 0 01.148.03.757.757 0 01.22.118.064.064 0 00.02-.022l.01-.006.01.004a2.207 2.207 0 01.29.447l.016.034a2.74 2.74 0 01.191.614l.008.031.011.05a3.592 3.592 0 01.075.45 4.441 4.441 0 01.018.503 5.51 5.51 0 01-.375 1.487c-.25.64-.376.934-.475 1.16l-.034.08c-.086.193-.16.36-.311.757a9.76 9.76 0 01-.532 1.14 2.248 2.248 0 01-.348.52 1.97 1.97 0 01-.254.228 1.432 1.432 0 01-.646.273.775.775 0 00-.06.009h-.006a1.453 1.453 0 01-.184.013zm-.884-3.712c-.016.125-.045.366-.072.642a7.7 7.7 0 00-.06 1.374 3.477 3.477 0 00.175.911 1.236 1.236 0 00.355.613.353.353 0 00.048.034.918.918 0 00.619.104l.006-.001a.827.827 0 01.06-.009 1.397 1.397 0 00.635-.268 1.87 1.87 0 00.252-.226 2.196 2.196 0 00.345-.515 9.547 9.547 0 00.53-1.138c.152-.397.227-.565.312-.758l.035-.08c.097-.226.223-.52.474-1.16a5.555 5.555 0 00.373-1.478 4.404 4.404 0 00-.017-.502 3.616 3.616 0 00-.075-.447l-.011-.049-.008-.032a2.738 2.738 0 00-.19-.609l-.015-.034a2.141 2.141 0 00-.28-.431.105.105 0 01-.027.022.018.018 0 01-.012 0 .696.696 0 00-.218-.12.652.652 0 00-.15-.03l-.01-.007a.364.364 0 00-.154-.173.281.281 0 00-.07-.03.569.569 0 00-.066.022l-.023.012a.239.239 0 00-.142.163.185.185 0 00.018.117.155.155 0 00.03.045.24.24 0 00.091.056.98.98 0 01.214.142 1.97 1.97 0 01.185.106c.009.005.017.012.026.018l.01.007a1.849 1.849 0 01-1.048 3.37 1.547 1.547 0 01-.233-.015.525.525 0 01-.055-.008 5.6 5.6 0 00-.332.55l-.022.042a5.568 5.568 0 00-.456 1.225.01.01 0 01-.01.008h-.001a.01.01 0 01-.01-.009 7.64 7.64 0 01-.065-1.032c0-.08.003-.156.006-.23l.005-.11a8.359 8.359 0 00-.28-.04 6.524 6.524 0 00-.692-.042zm4.098-1.955z"/><path d="M11.576 15.851a.01.01 0 01-.011-.01.012.012 0 01.01-.012.01.01 0 01.011.01v.002a.01.01 0 01-.01.01z"/><path fill="#050505" d="M13.502 9.973a.377.377 0 00-.111.008.3.3 0 00-.073.023l-.022.011a.67.67 0 00-.177-.114.713.713 0 00-.217-.06.27.27 0 00-.073-.11.26.26 0 00-.084-.052.092.092 0 01.022-.011.327.327 0 01.17-.023.615.615 0 01.297.134 2.578 2.578 0 01.268.194z"/><path d="M13.295 10.026l-.007-.003a.724.724 0 00-.173-.112.703.703 0 00-.214-.059l-.009-.007a.267.267 0 00-.07-.106.284.284 0 00-.081-.05l-.007-.008.004-.01a.05.05 0 01.017-.01l.006-.003a.32.32 0 01.178-.024.618.618 0 01.3.136 2.356 2.356 0 01.27.195l.002.012a.01.01 0 01-.01.007.3.3 0 00-.108.008.427.427 0 00-.07.021l-.023.012zm-.385-.194a.718.718 0 01.214.06.686.686 0 01.173.11l.017-.008a.378.378 0 01.075-.024.372.372 0 01.08-.008 2.585 2.585 0 00-.241-.174.605.605 0 00-.291-.132.333.333 0 00-.165.021l-.002.001a.244.244 0 01.065.045.253.253 0 01.075.109z"/><path fill="url(#noProducts_g)" d="M13.147 10.186a.198.198 0 00.02.124l-.023-.015-.002-.001a6.248 6.248 0 01-.294-.147c-.059-.03-.044-.018-.157-.082a.154.154 0 01-.051-.044.128.128 0 01-.027-.069.302.302 0 01.018-.124.27.27 0 01.088-.13.239.239 0 01.026-.019.26.26 0 01.084.052.27.27 0 01.073.11.712.712 0 01.217.06.669.669 0 01.177.114.25.25 0 00-.149.171z"/><path d="M13.166 10.321l-.005-.002a.184.184 0 01-.023-.016l-.004-.002a5.278 5.278 0 01-.332-.165 1.237 1.237 0 01-.115-.061.151.151 0 01-.049-.04l-.006-.006a.141.141 0 01-.03-.075.3.3 0 01.018-.124.286.286 0 01.091-.14.16.16 0 01.029-.02h.008a.257.257 0 01.087.053.253.253 0 01.075.109.718.718 0 01.214.06.648.648 0 01.178.116l.004.01-.006.007a.239.239 0 00-.142.163.185.185 0 00.018.117l-.002.013zm-.42-.63l-.021.015a.256.256 0 00-.083.126.3.3 0 00-.019.12.114.114 0 00.026.062l.006.007a.139.139 0 00.042.034c.076.043.093.052.115.062l.041.02c.116.062.24.122.29.145a.205.205 0 01-.007-.098.251.251 0 01.14-.17.653.653 0 00-.161-.103.703.703 0 00-.214-.059l-.009-.007a.267.267 0 00-.07-.106.276.276 0 00-.076-.048zm.4.495z"/><path d="M13.163 10.313c-.002 0-.006 0-.024-.009a.01.01 0 01-.005-.014c.002-.007.008-.008.015-.005a.073.073 0 00.017.007.013.013 0 01.007.014.012.012 0 01-.01.007z"/><path fill="#050505" d="M14.03 10.311a.076.076 0 01-.032.03.718.718 0 00-.222-.12.747.747 0 00-.153-.031.365.365 0 00-.159-.18.331.331 0 00-.073-.029.377.377 0 01.11-.008.602.602 0 01.13.027.458.458 0 01.081.032.96.96 0 01.266.22c.019.02.036.04.052.06z"/><path d="M13.997 10.351l-.006-.002a.69.69 0 00-.22-.118.633.633 0 00-.149-.03l-.008-.007a.364.364 0 00-.155-.173.281.281 0 00-.07-.03.01.01 0 01-.009-.01.011.011 0 01.01-.01.322.322 0 01.112-.008.683.683 0 01.133.027.564.564 0 01.082.032 1.003 1.003 0 01.269.222c.018.021.037.04.052.06l.001.012a.09.09 0 01-.037.034zm-.366-.17a.692.692 0 01.148.029.715.715 0 01.22.118.056.056 0 00.017-.016 1.05 1.05 0 00-.046-.054 1.01 1.01 0 00-.263-.216.507.507 0 00-.078-.03.598.598 0 00-.129-.028.488.488 0 00-.065.001c.012.005.023.01.035.017a.39.39 0 01.161.178z"/><path fill="#050505" d="M10.13 10.011a.848.848 0 00-.151-.21l-.003-.01a.451.451 0 00-.022-.069c-.017-.04-.027-.046-.024-.064a.1.1 0 01.006-.027l.008-.018a.239.239 0 01.038-.053.61.61 0 01.068-.068l.002.004a.583.583 0 01.099.206c.022.082.057.226-.02.309z"/><path fill="#0a0a14" d="M10.131 10.022l-.01-.006a.858.858 0 00-.15-.208L9.967 9.8l-.002-.006a.317.317 0 00-.021-.067l-.015-.032a.054.054 0 01-.01-.04.163.163 0 01.006-.027.172.172 0 01.009-.02.22.22 0 01.04-.055.554.554 0 01.068-.069c.004-.002.015-.002.018.004a.598.598 0 01.101.21c.02.076.061.231-.022.321zm-.083-.514a.588.588 0 00-.055.056.295.295 0 00-.04.054l-.006.016a.125.125 0 00-.006.025c-.001.009 0 .013.008.026l.014.033a.37.37 0 01.024.072l.002.006a.841.841 0 01.144.196.368.368 0 00.007-.287.558.558 0 00-.092-.197z"/><path fill="#050505" d="M12.054 14.571l-.022.042a5.565 5.565 0 00-.456 1.227 7.603 7.603 0 01-.065-1.03c0-.126.008-.238.01-.349.192.031.37.069.533.11z"/><path d="M11.576 15.851h-.001a.01.01 0 01-.01-.009 7.64 7.64 0 01-.065-1.032c0-.08.003-.156.006-.23l.005-.12.004-.008.009-.002c.19.032.369.07.533.11l.007.006v.01l-.022.042a5.568 5.568 0 00-.456 1.225.01.01 0 01-.01.008zm-.043-1.378a5.608 5.608 0 00-.01.337 7.952 7.952 0 00.056.973 5.606 5.606 0 01.444-1.175l.015-.03a7.763 7.763 0 00-.505-.105z"/><path fill="#0a0a14" d="M10.529 14.388h-.04l-.008-.003a.153.153 0 01-.041-.068.14.14 0 01.002-.078 7 7 0 00.09-.7.01.01 0 01.01-.01.8.8 0 01.1-.016l.045-.002a.01.01 0 010 .022.716.716 0 00-.044.002c-.037.004-.067.01-.09.013-.043.41-.072.636-.089.692a.121.121 0 00-.003.071.125.125 0 00.033.056h.035a.01.01 0 010 .021z"/><path fill="#f2f2f4" d="M4.039 17.717v1.404L.787 18.055l1.581-.885 1.671.547z"/><path fill="#0a0a14" d="M4.038 19.131h-.002L.785 18.066a.011.011 0 01-.008-.01l.006-.01 1.58-.884.008-.001 1.67.547a.011.011 0 01.008.01v1.404l-.004.009zm-3.223-1.08l3.213 1.055v-1.38l-1.66-.544z"/><path fill="#f1f1f1" d="M2.368 17.17l-1.581-.518"/><path fill="#0a0a14" d="M2.368 17.181h-.003l-1.58-.518a.012.012 0 01-.008-.014c.002-.006.007-.008.013-.008l1.58.519a.012.012 0 01.008.013.011.011 0 01-.01.008z"/><path fill="#f1f1f1" d="M6.984 16.118l-3.251-1.065"/><path fill="#0a0a14" d="M6.984 16.129H6.98L3.73 15.064a.012.012 0 01-.008-.014.013.013 0 01.014-.007l3.25 1.064a.012.012 0 01.009.014.011.011 0 01-.011.008z"/><path fill="#f2f2f4" d="M5.43 16.961l-1.391.756-1.671-.547 1.365-.764 1.697.555z"/><path fill="#0a0a14" d="M4.038 17.728h-.002l-1.671-.547a.011.011 0 01-.008-.01l.006-.01 1.365-.765h.008l1.697.555a.011.011 0 01.008.01l-.006.01-1.392.756zm-1.643-.56l1.643.538 1.365-.741-1.67-.547z"/><path fill="#f1f1f1" d="M.787 16.652l2.946-1.599"/><path fill="#0a0a14" d="M.788 16.663l-.01-.006a.01.01 0 01.005-.015l2.945-1.598c.002-.004.01-.001.015.004a.01.01 0 01-.005.015L.792 16.662z"/><path fill="#f1f1f1" d="M6.984 16.118l-1.554.843"/><path fill="#0a0a14" d="M5.43 16.972l-.01-.006a.01.01 0 01.005-.014l1.554-.844c.002-.004.01-.002.015.005a.01.01 0 01-.005.015l-1.554.843z"/><path fill="#f2f2f4" d="M6.984 17.471l-2.945 1.65v-1.404l1.391-.756 1.554.51z"/><path fill="#0a0a14" d="M4.038 19.131h-.005l-.005-.01v-1.404l.006-.01 1.391-.755.008-.001 1.554.509a.011.011 0 01.008.01l-.006.01-2.946 1.65zm.011-1.407v1.378l2.907-1.629-1.525-.5zM.788 18.066a.01.01 0 01-.011-.01v-1.404c0-.012.021-.012.021 0v1.403a.01.01 0 01-.01.011z"/><path fill="#0a0a14" d="M6.985 17.482a.01.01 0 01-.011-.01v-1.353c0-.012.022-.012.022 0v1.352a.01.01 0 01-.011.011zM3.733 16.417a.01.01 0 01-.01-.011v-1.353c0-.011.02-.011.02 0v1.353a.01.01 0 01-.01.01z"/><ellipse cx="12.181" cy="12.827" fill="#050505" rx=".202" ry=".286"/><path d="M12.181 13.124c-.117 0-.213-.133-.213-.297s.096-.297.213-.297.213.133.213.297-.096.297-.213.297zm0-.573c-.105 0-.191.124-.191.276s.086.275.191.275.191-.124.191-.275-.085-.276-.19-.276z"/><ellipse cx="8.043" cy="12.609" fill="#050505" rx=".202" ry=".286"/><path d="M8.043 12.905c-.117 0-.213-.133-.213-.296 0-.164.096-.297.213-.297s.213.133.213.297c0 .163-.095.296-.213.296zm0-.571c-.105 0-.191.124-.191.275s.086.274.191.274.192-.123.192-.274-.086-.275-.192-.275z"/><path fill="#0a0a14" d="M6.671 9.335c-.007 0-.011-.004-.01-.013a4.144 4.144 0 00.04-.752.904.904 0 00-.007-.097c-.004-.043-.013-.123-.03-.329l-.002-.012a1.917 1.917 0 00-.053-.31c-.022-.085-.032-.124-.051-.14-.044-.038-.11-.026-.214-.003a1.41 1.41 0 01-.31.043 1.368 1.368 0 01-.205-.014.011.011 0 01-.008-.013.012.012 0 01.012-.009 1.199 1.199 0 00.202.015 1.399 1.399 0 00.305-.043c.102-.025.177-.041.233.008.024.02.036.066.057.151a1.98 1.98 0 01.054.314l.001.011c.018.205.026.286.031.33.004.038.005.051.007.098a4.195 4.195 0 01-.04.756.011.011 0 01-.012.009z"/><path fill="#0a0a14" d="M5.773 7.88l-.008-.003-.003-.008a.242.242 0 01.009-.069.205.205 0 01.046-.101l.006-.009.01-.004.01.008c.014.05.03.106.044.163l-.002.01-.008.004-.07.006-.033.003zm.054-.16a.232.232 0 00-.035.086.197.197 0 00-.008.051l.021-.002.058-.005a2.063 2.063 0 00-.036-.13zM7.754 2.51l-.007-.003a.012.012 0 010-.015 1.21 1.21 0 01.298-.208.01.01 0 01.015.005.011.011 0 01-.005.014 1.164 1.164 0 00-.293.204z"/><path fill="#0a0a14" d="M6.972 6.866h-2.06a.01.01 0 110-.022h2.06a.01.01 0 010 .022zm-3.687-.314a.01.01 0 01-.011-.01v-.366c0-.011.021-.011.021 0v.366a.01.01 0 01-.01.01zm2.78-1.078h-.003a.01.01 0 01-.006-.014.43.43 0 01.018-.038l.005-.01a.05.05 0 00.006-.016l.007-.007c.009 0 .016.002.016.01V5.4l-.003.008-.007.015-.004.008a.423.423 0 00-.018.036.01.01 0 01-.01.007zm5.286-.997l-.009-.004a9.749 9.749 0 00-.817-.904c-.092-.09-.183-.172-.259-.241a.01.01 0 010-.015.01.01 0 01.014 0 8.094 8.094 0 01.579.566c.169.181.33.369.481.556V.442H3.295v3.733c0 .012-.021.012-.021 0V.431a.01.01 0 01.01-.01h8.067a.01.01 0 01.01.01v4.035a.012.012 0 01-.006.011zM7.754 2.51l-.007-.003a.012.012 0 010-.015 1.21 1.21 0 01.298-.208.01.01 0 01.015.005.011.011 0 01-.005.014 1.164 1.164 0 00-.293.204z"/><path fill="#f2f2f4" d="M8.82 2.513a6.689 6.689 0 00-.85.6 7.56 7.56 0 00-.902.862 2.806 2.806 0 00-1.027-.016 3.225 3.225 0 00-1.44.69 4.562 4.562 0 00-.857.85 5.118 5.118 0 00-.46.677v-2a3.846 3.846 0 01.635-.84 3.722 3.722 0 01.916-.671.079.079 0 010-.029c.018-.06.121-.07.153-.086a1.937 1.937 0 01.745-.244.388.388 0 00.005.045.596.596 0 00.318.41 4.644 4.644 0 00.612.23c.205.066.414.113.623.165q.041.01.083.017a.31.31 0 00.076.01 1.442 1.442 0 01.104-.335 1.122 1.122 0 01.217-.307 1.183 1.183 0 01.34-.234 5.992 5.992 0 01.708.206z"/><path fill="#0a0a14" d="M3.285 6.187a.01.01 0 01-.011-.01V4.17a3.803 3.803 0 011.549-1.513v-.024c.016-.051.079-.069.124-.083a.195.195 0 00.036-.011l.054-.028a1.87 1.87 0 01.695-.216l.008.002.004.007a.325.325 0 00.005.043.583.583 0 00.312.404 4.482 4.482 0 00.595.223l.015.005c.156.051.317.09.472.128l.151.037q.04.01.082.018l.017.003a.257.257 0 00.046.006h.003a1.452 1.452 0 01.102-.329 1.175 1.175 0 01.22-.31 1.189 1.189 0 01.342-.235l.007-.001a6 6 0 01.71.206l.008.01-.005.01a6.531 6.531 0 00-.849.599 7.677 7.677 0 00-.901.86l-.01.003a2.819 2.819 0 00-1.024-.016 3.216 3.216 0 00-1.433.689 4.52 4.52 0 00-.857.848 4.924 4.924 0 00-.458.676zm.01-2.009v1.957a5.228 5.228 0 01.44-.642 4.56 4.56 0 01.86-.853 3.244 3.244 0 011.444-.692 2.745 2.745 0 011.025.015 7.65 7.65 0 01.9-.859 6.834 6.834 0 01.83-.589 6.4 6.4 0 00-.682-.196 1.106 1.106 0 00-.548.534 1.424 1.424 0 00-.103.331c0 .009-.011.01-.022.01a.278.278 0 01-.05-.007l-.017-.003a1.295 1.295 0 01-.084-.017c-.05-.013-.1-.026-.15-.037a7.046 7.046 0 01-.473-.128l-.016-.006a4.441 4.441 0 01-.598-.225.607.607 0 01-.323-.419l-.005-.033a1.838 1.838 0 00-.677.213l-.053.027a.233.233 0 01-.04.014c-.04.012-.096.027-.108.066a.1.1 0 000 .025.01.01 0 01-.007.01 3.787 3.787 0 00-1.543 1.504z"/><path fill="#f2f2f4" d="M6.066 5.464c0 .017-.024.048-.032.064a3.922 3.922 0 00-.125.285q-.029.073-.053.147a.891.891 0 01-.043.151 1.546 1.546 0 00-.413.216c-.025.016-.074.03-.1.045-.016.053-.061.053-.087.078a1.462 1.462 0 00-.3.405H3.283V6.54a5.299 5.299 0 01.473-.765 4.607 4.607 0 01.829-.88l.046-.037a1.696 1.696 0 001.434.605z"/><path fill="#0a0a14" d="M4.913 6.866H3.285a.01.01 0 01-.011-.01v-.319a5.342 5.342 0 01.474-.768 4.658 4.658 0 01.832-.882.942.942 0 01.045-.037.011.011 0 01.016.002 1.713 1.713 0 00.99.578 1.76 1.76 0 00.434.024l.009.003.003.008a.123.123 0 01-.023.051l-.01.017a2.743 2.743 0 00-.178.432.301.301 0 00-.01.039c-.024.1-.03.115-.04.118a1.494 1.494 0 00-.41.214.269.269 0 01-.056.026.235.235 0 00-.042.018.1.1 0 01-.06.06.12.12 0 00-.027.018 1.449 1.449 0 00-.299.402zm-1.618-.022h1.61a1.477 1.477 0 01.3-.402.12.12 0 01.034-.021.076.076 0 00.05-.052l.004-.007c.014-.007.032-.014.05-.02a.378.378 0 00.051-.024A1.504 1.504 0 015.81 6.1c.003-.006.018-.07.025-.101l.01-.042a3.845 3.845 0 01.18-.434l.01-.018.016-.029c-.038.002-.076.004-.114.004a1.69 1.69 0 01-.31-.028 1.763 1.763 0 01-.545-.201 1.743 1.743 0 01-.452-.377l-.037.03a4.614 4.614 0 00-.827.879 5.298 5.298 0 00-.47.762z"/><path fill="#f2f2f4" d="M9.385 2.7l-.067.033a3.594 3.594 0 00-.857.45 6.994 6.994 0 00-.95.833l-.14.136-.017.016-.014.015-.03.03-.055.058c-.034.036-.068.079-.095.11a2.514 2.514 0 01-.409-.022l.083-.107.05-.063.028-.032.013-.016.014-.018.13-.148a7.56 7.56 0 01.901-.862 6.689 6.689 0 01.85-.6c.013-.01.028-.017.043-.026a4.284 4.284 0 01.522.214z"/><path fill="#0a0a14" d="M7.096 4.392a2.325 2.325 0 01-.347-.022l-.007-.007v-.01c.026-.034.053-.07.084-.107l.027-.034.023-.03.016-.018.01-.014.01-.01.004-.007.007-.008.007-.008.004-.004c.02-.022.04-.045.06-.07l.066-.076a7.649 7.649 0 01.903-.863 6.669 6.669 0 01.85-.6.331.331 0 01.032-.019l.012-.008h.009a4.24 4.24 0 01.524.214l.006.01-.006.01-.067.032a3.612 3.612 0 00-.857.448 5.612 5.612 0 00-.794.683l-.153.15-.054.05-.086.086-.003.002-.012.013-.008.008-.009.009-.028.03-.056.057-.059.066c-.013.016-.025.03-.037.042l-.007.004-.064.001zm-.325-.04a2.622 2.622 0 00.384.018l.033-.038c.018-.023.039-.047.06-.069L7.3 4.21a.965.965 0 00.032-.034l.007-.006.01-.01.014-.015.003-.002.085-.083.052-.052c.05-.046.1-.096.154-.149a5.674 5.674 0 01.798-.685 3.586 3.586 0 01.859-.45l.046-.022a4.193 4.193 0 00-.496-.202l-.008.005-.03.018a6.643 6.643 0 00-.849.6 7.677 7.677 0 00-.901.86l-.066.076-.062.072-.002.001-.005.007-.007.008-.005.007-.01.012-.01.012-.016.019-.022.03a3.126 3.126 0 00-.1.126z"/><path fill="#0a0a14" d="M7.511 4.026l-.008-.003-.003-.008.003-.008c.05-.046.1-.096.154-.149a5.674 5.674 0 01.798-.685 3.586 3.586 0 01.859-.45c.005-.005.012 0 .014.006a.01.01 0 01-.005.014 6.764 6.764 0 00-.833.5 7.61 7.61 0 00-.971.78zm1.611-1.204a3.882 3.882 0 00-.656.369 4.668 4.668 0 00-.595.49 7.577 7.577 0 01.607-.456c.265-.18.462-.302.644-.403z"/><path d="M8.212 2.33c-.033-.009-.067-.015-.101-.023.034-.016.064-.029.09-.037l-.002.024a.063.063 0 00.013.036z"/><path fill="#0a0a14" d="M8.211 2.34h-.003a1.316 1.316 0 00-.066-.015l-.033-.007L8.1 2.31l.003-.01.005-.003.023-.011a.98.98 0 01.067-.028c.009 0 .008.001.01.003l.004.01-.003.023a.037.037 0 00.008.023l.004.008v.012zm-.065-.037l.045.01a.055.055 0 01-.003-.02v-.007a.65.65 0 00-.042.017zM4.94 2.833l-.006-.002a.31.31 0 01-.11-.164.011.011 0 01.01-.013.01.01 0 01.011.009.287.287 0 00.103.15.011.011 0 01.002.016z"/><path fill="#f2f2f4" d="M6.939 4.123a7.015 7.015 0 00-.188.236.486.486 0 01-.054-.011c-.019-.005-.044-.021-.06-.002a.083.083 0 00-.012.052.614.614 0 01-.055.21c-.025-.019-.091-.104-.127-.071a.76.76 0 00-.107.28 3.811 3.811 0 01-.239.582 1.677 1.677 0 01-.435-.021 1.724 1.724 0 01-.978-.56 3.076 3.076 0 011.315-.66 2.814 2.814 0 01.94-.035z"/><path fill="#0a0a14" d="M5.962 5.416a1.663 1.663 0 01-.302-.028 1.729 1.729 0 01-.984-.563l-.003-.008.004-.008a3.082 3.082 0 011.32-.663 2.847 2.847 0 01.943-.034l.009.007-.001.01-.105.13c-.031.038-.057.074-.082.106l-.01.005h-.002a.492.492 0 01-.054-.012l-.014-.005c-.018-.006-.028-.009-.035 0a.071.071 0 00-.01.045.628.628 0 01-.056.215l-.01.006-.007-.002-.024-.023c-.022-.021-.055-.053-.078-.053l-.011.004a.436.436 0 00-.076.18c-.007.03-.016.062-.027.096a3.816 3.816 0 01-.24.583l-.009.006c-.045.004-.09.006-.136.006zM4.7 4.819a1.727 1.727 0 00.963.548 1.605 1.605 0 00.427.021 3.64 3.64 0 00.236-.573l.028-.096a.42.42 0 01.081-.19.038.038 0 01.026-.01c.032 0 .068.034.093.06l.012.012a.582.582 0 00.048-.192.091.091 0 01.015-.06.048.048 0 01.059-.006l.013.004a.35.35 0 00.046.01 3.775 3.775 0 01.171-.215 2.743 2.743 0 00-.917.036 3.056 3.056 0 00-1.301.651z"/><path fill="#0a0a14" d="M4.632 4.87l-.009-.004a.011.011 0 01.002-.016l.051-.04c.007-.005.019 0 .019.008a.012.012 0 01-.007.01.942.942 0 00-.049.04z"/><path fill="#0a0a14" d="M4.684 4.829h-.001a.01.01 0 01-.01-.011.012.012 0 01.01-.012.01.01 0 01.01.007l.002.005a.01.01 0 01-.011.01zM4.631 4.87a.01.01 0 01-.01-.011v-.001c0-.012.021-.012.021 0a.012.012 0 01-.01.012z"/><path fill="#050505" d="M11.955 9.353a1.545 1.545 0 01-.015.163l-.07-.046-.11-.074a2.431 2.431 0 00-.13.025.595.595 0 01-.156-.2.546.546 0 01-.055-.275 2.155 2.155 0 01-.789.134 2.048 2.048 0 01-.768-.139.927.927 0 01-.024.151.863.863 0 01-.046.135l-.002.004a1.724 1.724 0 00-.309-.197l.001-.004a1.234 1.234 0 01.295-.567l.012-.011.042-.043a1.304 1.304 0 01.872-.333 1.265 1.265 0 01.895.315 1.129 1.129 0 01.327.544 1.533 1.533 0 01.03.418z"/><path fill="#0a0a14" d="M11.94 9.527l-.006-.002-.07-.047a4.965 4.965 0 01-.107-.07 1.72 1.72 0 00-.125.023l-.009-.002a.597.597 0 01-.217-.467 2.216 2.216 0 01-.776.13h-.023a2.068 2.068 0 01-.735-.135.958.958 0 01-.024.138.794.794 0 01-.046.136l-.004.008a.013.013 0 01-.014 0 1.713 1.713 0 00-.308-.195l-.006-.01.002-.007a1.236 1.236 0 01.297-.572l.013-.012a.44.44 0 01.043-.042 1.28 1.28 0 01.878-.336h.03a1.235 1.235 0 01.872.317 1.133 1.133 0 01.331.55 1.491 1.491 0 01.03.421 1.755 1.755 0 01-.015.165.01.01 0 01-.011.009zm-.18-.142l.006.002a5.345 5.345 0 00.165.11 1.83 1.83 0 00.013-.146 1.471 1.471 0 00-.03-.413 1.112 1.112 0 00-.325-.54 1.212 1.212 0 00-.856-.311h-.03a1.261 1.261 0 00-.864.33.594.594 0 00-.043.043l-.011.01a1.23 1.23 0 00-.291.558 1.793 1.793 0 01.293.187.834.834 0 00.04-.125.88.88 0 00.024-.15l.005-.008h.01a2.056 2.056 0 00.74.138h.024a2.203 2.203 0 00.784-.134l.011.001.004.01a.542.542 0 00.055.27.575.575 0 00.15.192c.035-.008.075-.016.124-.024z"/><path fill="#050505" d="M12.451 9.541v.102a.182.182 0 01-.04.072.715.715 0 00-.173-.003.727.727 0 00-.09.014.752.752 0 00-.174.065.035.035 0 01-.046-.011.184.184 0 00-.08-.067.202.202 0 00-.064-.013.36.36 0 01.079-.117.28.28 0 01.09-.058.711.711 0 01.343-.019 1.147 1.147 0 01.154.028z"/><path d="M11.957 9.806a.048.048 0 01-.038-.02.168.168 0 00-.076-.063.216.216 0 00-.06-.012l-.008-.005-.001-.01a.36.36 0 01.082-.121.27.27 0 01.093-.06.712.712 0 01.348-.02 1.006 1.006 0 01.156.028l.007.007.002.012v.1a.194.194 0 01-.042.078l-.01.006h-.001a.707.707 0 00-.17-.004.815.815 0 00-.09.015.749.749 0 00-.17.063.042.042 0 01-.022.006zM11.8 9.69a.196.196 0 01.051.014.19.19 0 01.086.07.025.025 0 00.032.007.773.773 0 01.176-.066.863.863 0 01.093-.014.633.633 0 01.168.003.174.174 0 00.035-.065v-.096a1.12 1.12 0 00-.146-.026.714.714 0 00-.339.018.258.258 0 00-.085.056.315.315 0 00-.07.1z"/><path fill="#0a0a14" d="M13.712 10.043a.01.01 0 01-.01-.011 7.043 7.043 0 00-.393-2.095 12.022 12.022 0 00-.605-1.351 13.456 13.456 0 00-.262-.49 12.901 12.901 0 00-.923-1.4 10.309 10.309 0 00-.177-.223 9.915 9.915 0 00-1.076-1.145.01.01 0 01-.001-.015.01.01 0 01.015 0 9.877 9.877 0 011.08 1.147c.061.075.12.15.176.223a13.111 13.111 0 01.925 1.404c.11.194.194.356.262.489a12.322 12.322 0 01.607 1.353 7.094 7.094 0 01.393 2.103.01.01 0 01-.01.01zM8.2 2.28l-.003-.001a.682.682 0 01-.047-.022.01.01 0 01-.005-.014.01.01 0 01.015-.005l.045.021a.01.01 0 01.005.014.01.01 0 01-.01.007zM8.11 2.318l-.007-.003V2.3h.016a.01.01 0 010 .015v.001z"/><path fill="#f2f2f4" d="M8.155 2.248a1.06 1.06 0 00-.105.045 1.157 1.157 0 00-.296.206V2.5a1.21 1.21 0 00-.349.68l-.003-.002a1.566 1.566 0 01-.365-.694A1.568 1.568 0 017 2.18l.277-.071a6.46 6.46 0 01.877.14z"/><path fill="#0a0a14" d="M7.405 3.19l-.01-.004a1.562 1.562 0 01-.37-.7 1.605 1.605 0 01-.035-.308.01.01 0 01.008-.01l.277-.07a6.381 6.381 0 01.883.139.01.01 0 01.008.01.01.01 0 01-.007.01 1.24 1.24 0 00-.104.045 1.173 1.173 0 00-.29.203l-.003.002a1.204 1.204 0 00-.347.674.011.011 0 01-.01.01zM7.01 2.187a1.562 1.562 0 00.036.295 1.53 1.53 0 00.35.674 1.223 1.223 0 01.348-.662l.002-.003a1.21 1.21 0 01.298-.208c.027-.013.051-.024.073-.032a6.298 6.298 0 00-.84-.132z"/><path fill="#f2f2f4" d="M7.368 3.171l-.046-.01a7.174 7.174 0 01-.654-.171q-.217-.07-.43-.155a.707.707 0 01-.498-.474c-.003-.02-.018-.069-.009-.088.018-.037.146-.054.182-.065q.137-.042.278-.07a2.92 2.92 0 01.57-.055c.145 0 .29.008.436.018l-.239.061a1.51 1.51 0 00.037.306 1.557 1.557 0 00.373.703z"/><path fill="#0a0a14" d="M7.369 3.182h-.003l-.025-.005-.022-.004A7.52 7.52 0 016.665 3a6.916 6.916 0 01-.43-.156.722.722 0 01-.505-.482l-.003-.013a.144.144 0 01-.005-.082c.015-.03.075-.046.148-.061l.04-.01c.093-.027.187-.05.279-.07a2.951 2.951 0 01.571-.055c.15 0 .298.009.439.019a.01.01 0 01.01.01.01.01 0 01-.008.011c-.064.015-.124.03-.186.047l-.046.012a1.441 1.441 0 00.036.295 1.54 1.54 0 00.371.698l.002.013zM6.76 2.093a2.91 2.91 0 00-.567.056 2.724 2.724 0 00-.277.07l-.042.01c-.043.009-.122.026-.132.049a.168.168 0 00.006.067l.003.014c.05.262.304.392.492.467.142.055.287.108.428.153.233.075.471.132.653.172l.014.003a1.57 1.57 0 01-.354-.685 1.48 1.48 0 01-.036-.307.01.01 0 01.007-.011l.054-.014.117-.03a6.374 6.374 0 00-.366-.014z"/><path fill="#0a0a14" d="M7.403 3.19H7.4l-.035-.008a.012.012 0 01-.008-.013c0-.006.009-.007.014-.008a.331.331 0 00.033.007.011.011 0 01.008.012.011.011 0 01-.01.01zM7.278 2.119h-.001q-.038-.005-.073-.006l-.006-.001a.01.01 0 01-.011-.01.012.012 0 01.01-.011h.008l.074.006a.01.01 0 01.01.012.01.01 0 01-.011.01zM22.324 16.762c-.025.09-.05.185-.078.282a6.017 6.017 0 01-2.983-.08c-.038-.101-.072-.2-.105-.295h.001a6.02 6.02 0 001.67.26 5.952 5.952 0 00.838-.047 6.998 6.998 0 00.657-.12z"/><path fill="#0a0a14" d="M20.908 17.206l-.078-.001a6.013 6.013 0 01-1.57-.23l-.007-.007c-.03-.08-.057-.16-.084-.236l-.021-.06.002-.01.009-.004a6.038 6.038 0 001.67.26h.078a6 6 0 00.76-.047 5.514 5.514 0 00.654-.12l.01.003.003.01-.037.136c-.012.048-.026.097-.04.147l-.007.007a5.963 5.963 0 01-1.342.152zm-1.637-.25a6.02 6.02 0 001.559.227h.078a5.971 5.971 0 001.33-.148l.038-.14.032-.119a6.242 6.242 0 01-.64.116 6.032 6.032 0 01-.761.05c-.026 0-.052 0-.077-.002a5.995 5.995 0 01-1.654-.255l.014.04.08.23z"/><path fill="#0a0a14" d="M20.763 17.51h-.014a7.849 7.849 0 01-1.334-.119l-.007-.007c-.057-.144-.108-.285-.156-.415l.003-.011.011-.003a6.04 6.04 0 001.563.228h.079a5.905 5.905 0 001.336-.15l.01.003.003.01-.005.016a26.74 26.74 0 01-.084.315l-.008.007a7.778 7.778 0 01-1.397.126zm-1.338-.14a7.832 7.832 0 001.324.119h.014a7.739 7.739 0 001.386-.125c.03-.105.056-.207.082-.306a5.968 5.968 0 01-1.323.148l-.079-.001a6.093 6.093 0 01-1.548-.223c.045.122.092.254.144.389zM22.79 14.108l-.016.008-.002.001a5.64 5.64 0 01-1.015.009 5.715 5.715 0 01-.995-.17 6.15 6.15 0 001.92-.32 2.804 2.804 0 00.107.472z"/><path fill="#0a0a14" d="M22.217 14.155c-.153 0-.307-.006-.46-.019a5.651 5.651 0 01-.998-.17.011.011 0 01-.008-.011.01.01 0 01.011-.01 6.14 6.14 0 001.916-.32c.006 0 .006 0 .01.003l.005.007a2.714 2.714 0 00.107.47.01.01 0 01-.007.013l-.012.008-.01.002a5.52 5.52 0 01-.554.027zm-1.37-.19a5.547 5.547 0 00.911.15 5.46 5.46 0 001.011-.009h.005l.003-.004a2.676 2.676 0 01-.104-.451 6.148 6.148 0 01-1.827.314z"/><path fill="#0a0a14" d="M20.907 16.941h-.077a6.023 6.023 0 01-1.673-.262l-.008-.006a5.34 5.34 0 01-.454-2.41.01.01 0 01.01-.008h.002a9.79 9.79 0 001.614.2 5.016 5.016 0 002.23-.253c.077-.032.153-.067.216-.095h.001c.005-.005.009-.002.014-.003.006 0 .017-.002.021.008l.006.021a8.612 8.612 0 01-.475 2.631l-.007.008a5.763 5.763 0 01-.659.12 6.032 6.032 0 01-.761.05zm-1.739-.281a5.981 5.981 0 001.662.259h.077a6 6 0 00.76-.048 6.956 6.956 0 00.648-.118 8.556 8.556 0 00.473-2.615l-.003-.011H22.772a4.67 4.67 0 01-.214.094 5.007 5.007 0 01-2.237.255 9.8 9.8 0 01-1.607-.198 5.368 5.368 0 00.454 2.382zm3.156.101z"/><path fill="#0a0a14" d="M22.793 14.126l-.008-.003a.021.021 0 01-.006-.015c0-.012.021-.012.021 0a.01.01 0 010 .015zM21.667 16.893a.01.01 0 01-.01-.01.01.01 0 01.01-.011 6.99 6.99 0 00.34-.054c.006 0 .011.003.012.009a.011.011 0 01-.009.013c-.105.019-.217.037-.342.053zM18.705 14.276h-.002a.012.012 0 01-.008-.014c.008-.029.016-.06.025-.087a2.765 2.765 0 00.12-.528c.022-.228-.014-.374-.108-.434a.164.164 0 01-.086-.107.101.101 0 01.013-.067l.008-.006c.325-.038.657-.068.986-.089a.01.01 0 01.012.01c.006.063.011.12.014.173a.01.01 0 01-.01.011.01.01 0 01-.011-.01 2.72 2.72 0 00-.014-.162c-.324.022-.65.051-.969.087a.084.084 0 00-.008.05.143.143 0 00.076.091c.102.065.141.219.118.455a2.843 2.843 0 01-.12.534.717.717 0 00-.025.085.01.01 0 01-.01.008zM22.682 13.648a.01.01 0 01-.01-.01.6.6 0 01.066-.448.453.453 0 00.021-.115c.001-.038-.018-.059-.064-.07a17.541 17.541 0 00-1.005-.065.01.01 0 01-.01-.01.01.01 0 01.01-.011c.34.011.679.034 1.008.065a.09.09 0 01.083.09.382.382 0 01-.028.13.588.588 0 00-.06.432.01.01 0 01-.01.012zM21.497 12.934c-.208-.007-.4-.01-.59-.01h-.069a.01.01 0 110-.021h.07c.187 0 .381.003.59.01a.01.01 0 01.01.01.01.01 0 01-.01.011zM19.796 13.135a.01.01 0 01-.01-.01 2.673 2.673 0 00-.016-.177l.002-.008.008-.004c.249-.014.509-.024.773-.03h.01a.01.01 0 010 .022h-.01c-.26.005-.515.015-.76.029.006.055.011.11.014.167a.01.01 0 01-.01.011z"/><path fill="#0a0a14" d="M20.735 13.966c-.17 0-.352-.008-.54-.025a5.948 5.948 0 01-1.349-.282.013.013 0 01-.007-.015.012.012 0 01.011-.007h.004a5.9 5.9 0 001.343.283c.187.016.368.025.538.025h.027a.01.01 0 01.01.01c0 .015-.022.011-.037.011zM19.798 13.24l-.128-.002a.01.01 0 010-.022l.128.003a.01.01 0 010 .022zM21.484 13.246a.01.01 0 010-.022c.067 0 .133-.003.195-.005a.01.01 0 01.01.011.01.01 0 01-.01.01 11.65 11.65 0 01-.195.006zM20.83 13.25h-.064l-.222-.001a.01.01 0 010-.022l.222.001h.064a.01.01 0 110 .022zM19.106 12.59l-.007-.002a.713.713 0 01-.263-.709.615.615 0 01.356-.413.52.52 0 01.228-.02l.005.002a.52.52 0 01.236.32.68.68 0 01-.212.526 1.257 1.257 0 01-.337.295zm.245-1.127a.473.473 0 00-.151.025.59.59 0 00-.342.396.686.686 0 00.249.682 1.214 1.214 0 00.324-.286.662.662 0 00.208-.508.496.496 0 00-.224-.305.423.423 0 00-.064-.003z"/><path fill="#0a0a14" d="M19.163 11.48c-.05 0-.115-.002-.17-.004-.026 0-.05 0-.069-.002a1.314 1.314 0 01-.5-.119.761.761 0 01-.444-.361.172.172 0 01-.02-.142c.068-.141.515-.07.793.044a1.525 1.525 0 01.57.407.01.01 0 01-.001.015.01.01 0 01-.015-.001 1.512 1.512 0 00-.561-.401c-.302-.121-.708-.173-.767-.054-.016.031-.003.067.02.124a.741.741 0 00.431.348 1.299 1.299 0 00.494.119c.02 0 .043 0 .07.002.086.003.204.006.24 0h.002a.011.011 0 01.01.01.011.011 0 01-.008.012.515.515 0 01-.075.003z"/><path fill="#0a0a14" d="M17.166 11.99l-.005-.001a.14.14 0 01-.06-.068.173.173 0 01.016-.136 1 1 0 01.527-.423 2.077 2.077 0 01.788-.027.012.012 0 01.008.013c-.001.006-.008.008-.014.008a2.049 2.049 0 00-.774.027.978.978 0 00-.516.41.155.155 0 00-.015.12.13.13 0 00.048.056 2.727 2.727 0 00.553-.07 3.688 3.688 0 001.052-.457c.005-.006.01-.002.015.003a.01.01 0 01-.003.015 3.714 3.714 0 01-1.058.46 2.814 2.814 0 01-.562.07zM18.963 10.752a.381.381 0 01-.177-.06.813.813 0 01-.393-.804V9.85c.001-.08.001-.2.065-.237.08-.046.214.016.4.184a.96.96 0 01.25.366c.061.155.129.378.013.512l-.004.005a.214.214 0 01-.042.036.014.014 0 01-.016-.003.012.012 0 01.004-.016.14.14 0 00.037-.031l.005-.005c.107-.126.042-.34-.016-.49a.961.961 0 00-.246-.359c-.165-.15-.264-.191-.325-.191a.085.085 0 00-.048.011c-.054.03-.055.148-.055.218v.04a.794.794 0 00.381.783.357.357 0 00.167.057.154.154 0 00.046-.007c.007.001.01.002.014.008a.012.012 0 01-.008.014.194.194 0 01-.052.007z"/><path fill="#050505" d="M19.67 13.227a3.495 3.495 0 01-.716-.05 3.53 3.53 0 01.714-.049c.002.015.002.084.003.099z"/><path fill="#0a0a14" d="M19.67 13.238c-.727-.02-.727-.045-.727-.06s0-.043.725-.06a.01.01 0 01.011.01l.001.05.001.048-.003.01zm-.69-.06a6.434 6.434 0 00.679.039v-.039l-.001-.039a5.978 5.978 0 00-.677.038z"/><path fill="#0a0a14" d="M19.668 13.14a.01.01 0 01-.01-.01 3.292 3.292 0 00-.015-.174 3.544 3.544 0 00-.06-.382 1.704 1.704 0 00-.112-.332.01.01 0 01.005-.015.01.01 0 01.015.005 1.765 1.765 0 01.114.338 3.32 3.32 0 01.06.384c.006.063.011.12.014.174a.01.01 0 01-.01.011zM19.796 13.135a.01.01 0 01-.01-.01 2.673 2.673 0 00-.016-.177 3.463 3.463 0 00-.059-.374 2.013 2.013 0 00-.143-.404l-.018-.04a.01.01 0 01.005-.014.01.01 0 01.015.005l.017.04a1.96 1.96 0 01.146.409 3.458 3.458 0 01.058.376c.008.059.013.117.016.178a.01.01 0 01-.01.011zM19.357 11.464a.01.01 0 01-.01-.008 1.918 1.918 0 00-.204-.508 1.705 1.705 0 00-.14-.207.011.011 0 11.018-.014 1.824 1.824 0 01.142.21 1.962 1.962 0 01.205.513.012.012 0 01-.008.014z"/><path fill="#0a0a14" d="M19.44 11.483a.011.011 0 01-.01-.009 1.632 1.632 0 00-.19-.506 1.477 1.477 0 00-.179-.254.01.01 0 01.001-.015.01.01 0 01.015 0 1.483 1.483 0 01.183.259 1.641 1.641 0 01.192.512.01.01 0 01-.011.013z"/><path fill="#0a0a14" d="M19.012 10.745l-.01-.006a13.95 13.95 0 01-.277-.532 3.084 3.084 0 01-.191-.431.012.012 0 01.011-.008h.003c.005.002.018.005.112.172a2.855 2.855 0 01.137.284 1.925 1.925 0 00.122.25c.027.046.102.15.159.226a.011.011 0 01-.002.015c-.006.001-.013.002-.016-.002a3.592 3.592 0 01-.16-.227 2.253 2.253 0 01-.123-.253 2.612 2.612 0 00-.137-.283c-.021-.04-.043-.074-.06-.103a12.677 12.677 0 00.441.882.01.01 0 01-.004.015zM17.642 11.733l-.009-.005a.01.01 0 01.003-.014 2.143 2.143 0 01.614-.29 2.07 2.07 0 01.257-.056h.002a.011.011 0 01.011.009.011.011 0 01-.009.012 1.851 1.851 0 00-.255.057 2.111 2.111 0 00-.608.285zM19.319 11.465l-.007-.003a1.226 1.226 0 00-.166-.122 1.447 1.447 0 00-.585-.21.01.01 0 01-.01-.012.01.01 0 01.01-.01h.003a1.461 1.461 0 01.594.214 1.166 1.166 0 01.168.124.01.01 0 010 .015zM19.206 12.244c-.004.002-.011-.005-.01-.013.006-.04.01-.085.014-.13a1.745 1.745 0 01.073-.397 1.327 1.327 0 01.12-.239l.008-.012c.003-.011.02-.006.02.004v.007l-.009.012a1.129 1.129 0 00-.118.236 1.673 1.673 0 00-.072.391q-.006.07-.015.132a.011.011 0 01-.01.009zM21.487 13.132a.01.01 0 01-.011-.011l.01-.198a3.929 3.929 0 01.214-1.028c.02-.055.043-.111.065-.167a1.878 1.878 0 00.19-.822c-.013-.294-.037-.451-.037-.452l-.032-.19c-.033-.184-.046-.266-.014-.278a.037.037 0 01.036.01c.033.027.026.082.023.102a.632.632 0 00.118.42.315.315 0 00.078.068l.054-.196.042-.156c.038-.137.078-.276.123-.427.002-.006.009-.007.014-.008a.012.012 0 01.008.014c-.045.15-.085.29-.123.427l-.043.156-.057.21-.01.008-.007-.001a.384.384 0 01-.096-.081.654.654 0 01-.122-.434c.002-.018.008-.065-.014-.083-.022-.015-.017-.008-.017-.008a.852.852 0 00.029.252l.032.19c0 .003.023.16.036.457a1.893 1.893 0 01-.19.83l-.067.167a3.944 3.944 0 00-.21 1.021c-.005.064-.009.13-.012.197a.01.01 0 01-.01.01z"/><path fill="#050505" d="M22.579 13.177a4.789 4.789 0 01-.9.053l.002-.105a4.956 4.956 0 01.898.052z"/><path fill="#0a0a14" d="M21.68 13.24l-.009-.002-.003-.008.002-.105a.01.01 0 01.011-.011c.908.017.908.047.908.063s0 .047-.91.064zm.012-.105l-.002.084a7.982 7.982 0 00.862-.042 8.255 8.255 0 00-.86-.042zm.885.045z"/><path fill="#0a0a14" d="M21.681 13.135a.01.01 0 01-.01-.01q0-.078.005-.153l.002-.044c.012-.185.028-.352.046-.459.028-.172.055-.275.226-.942l.04-.156c.073-.283.089-.344.097-.38l.014-.053c.076-.287.196-.723.331-1.195.003-.006.008-.007.014-.008a.012.012 0 01.008.014c-.135.472-.256.908-.332 1.195l-.013.052a29.87 29.87 0 01-.098.38l-.04.156c-.17.666-.197.768-.225.941a5.044 5.044 0 00-.046.457l-.002.043c-.003.05-.005.1-.006.152a.01.01 0 01-.01.01zM21.68 13.242a.01.01 0 01-.012-.01v-.002c0-.012.022-.012.022 0a.012.012 0 01-.01.012z"/><path fill="#0a0a14" d="M22.274 11.072a1.264 1.264 0 01-.189-.015l-.007-.007v-.01a1.22 1.22 0 01.155-.156 1.262 1.262 0 01.133-.098 1.638 1.638 0 01.547-.18c.038-.005.058-.003.069.01.024.03-.006.085-.02.111a.698.698 0 01-.265.25.929.929 0 01-.423.095zm-.165-.033a.978.978 0 00.578-.081.683.683 0 00.255-.24q.038-.07.023-.087c-.003-.005-.014-.012-.049-.003a1.685 1.685 0 00-.539.175 1.35 1.35 0 00-.13.099 1.137 1.137 0 00-.138.137zM22.352 9.835l-.009-.005-.023-.041c-.011-.019-.023-.04-.028-.046a.643.643 0 01-.075-.194.294.294 0 00-.048-.116.14.14 0 00-.065-.053.318.318 0 01-.112-.085.714.714 0 01-.107-.153l-.008-.015c-.046-.084-.068-.127-.05-.16.024-.037.092-.039.212-.006a.521.521 0 01.31.185.535.535 0 01.093.286l.006.05a.593.593 0 01-.087.348zm-.447-.874c-.038 0-.053.01-.059.018-.013.022.01.063.05.138l.009.015a.653.653 0 00.102.147.308.308 0 00.107.081.154.154 0 01.073.06.321.321 0 01.05.125.625.625 0 00.075.186l.026.047.014.024a.57.57 0 00.074-.319l-.006-.048a.507.507 0 00-.089-.275.497.497 0 00-.297-.178.49.49 0 00-.13-.021z"/><path fill="#0a0a14" d="M22.367 9.811l-.01-.004a.011.011 0 01.003-.015 1.488 1.488 0 01.756-.32h.008c.03 0 .063.002.097.004a.707.707 0 00.445-.067.53.53 0 00.11-.084 2.072 2.072 0 00-.064-.052.865.865 0 00-.511-.21h-.024a.702.702 0 00-.401.161l-.004.003a1.186 1.186 0 00-.324.353.012.012 0 01-.015.005.01.01 0 01-.005-.015 1.215 1.215 0 01.33-.36l.005-.003a.724.724 0 01.414-.165l.024-.001a.888.888 0 01.525.215c.03.023.054.044.073.061l.004.008-.003.008a.633.633 0 01-.123.095.761.761 0 01-.458.07 1.76 1.76 0 00-.095-.005h-.007a1.487 1.487 0 00-.743.316z"/><path fill="#0a0a14" d="M22.493 9.5a.01.01 0 01-.011-.011 3.138 3.138 0 01.05-.625 1.074 1.074 0 01.248-.607.783.783 0 01.51-.22c.064-.007.385-.015.48.17a.22.22 0 01.022.136c-.024.148-.21.229-.332.282l-.033.014a2.237 2.237 0 00-.677.605c-.003.005-.01.004-.015.002a.011.011 0 01-.002-.016 2.268 2.268 0 01.684-.61l.035-.015c.118-.052.296-.129.319-.265a.196.196 0 00-.02-.123c-.072-.141-.29-.16-.403-.16a.68.68 0 00-.057.001.76.76 0 00-.496.215 1.041 1.041 0 00-.242.595 3.097 3.097 0 00-.05.621.01.01 0 01-.01.01zM22.135 11.034a.01.01 0 01-.01-.008.012.012 0 01.007-.014 1.849 1.849 0 00.265-.085 1.627 1.627 0 00.244-.122c.005-.004.01 0 .016.004a.012.012 0 01-.004.016 1.668 1.668 0 01-.248.122 1.844 1.844 0 01-.267.087zM22.35 9.816h-.003a.012.012 0 01-.008-.014.857.857 0 00-.009-.46.668.668 0 00-.114-.19.01.01 0 01.001-.015.01.01 0 01.015.001.624.624 0 01.118.197.872.872 0 01.01.473.011.011 0 01-.01.008z"/><path fill="#0a0a14" d="M22.528 9.455h-.003a.012.012 0 01-.008-.014 2.493 2.493 0 01.24-.62 1.695 1.695 0 01.363-.413.012.012 0 01.015.002.011.011 0 01-.002.015 1.672 1.672 0 00-.36.408 2.477 2.477 0 00-.235.614.01.01 0 01-.01.008zM22.397 9.743l-.006-.002a.01.01 0 01-.003-.015 1.308 1.308 0 01.403-.425.898.898 0 01.522-.093.01.01 0 01.01.011.01.01 0 01-.011.01h-.001a.844.844 0 00-.51.092 1.338 1.338 0 00-.395.417z"/><path fill="#050505" d="M20.552 13.117l-.008.121c-.272 0-.524-.003-.745-.008-.001-.016-.001-.09-.003-.105.224-.005.48-.008.756-.008z"/><path fill="#0a0a14" d="M20.544 13.249c-.26 0-.51-.003-.746-.008a.01.01 0 01-.01-.01l-.001-.054-.001-.051.002-.01.008-.002c.233-.004.485-.008.756-.008l.008.003.003.009a1.57 1.57 0 00-.007.112v.009a.01.01 0 01-.012.01zm-.735-.03c.229.005.473.008.725.008l.006-.1c-.262 0-.506.004-.732.008v.042z"/><path fill="#0a0a14" d="M20.544 13.25a.01.01 0 01-.01-.011v-.001c0-.012.021-.012.021 0a.012.012 0 01-.01.012zM20.552 13.128a.01.01 0 01-.01-.012c.002-.059.005-.121.01-.185v-.014c.01-.178.016-.342.018-.476.006-.426-.006-.852-.035-1.268a5.393 5.393 0 01-.453-.626 6.94 6.94 0 01-.459-.938 19.562 19.562 0 01-.446-1.136 2.73 2.73 0 01-.347-.271 2.42 2.42 0 01-.556-.708l.005-.012.009-.003c.015 0 .046.03.174.161.095.098.155.166.201.221a1.901 1.901 0 00.136.144 1.32 1.32 0 00.33.227 2.15 2.15 0 01-.047-.258c-.02-.235-.02-.4-.023-.67l-.005-.37-.006-.221a.01.01 0 01.011-.011.01.01 0 01.01.01l.007.221c.003.146.004.266.004.37.003.27.005.435.024.67a2.732 2.732 0 00.052.277l-.004.01a.01.01 0 01-.012.001 1.353 1.353 0 01-.356-.24 1.769 1.769 0 01-.137-.146 4.114 4.114 0 00-.2-.22 2.407 2.407 0 00-.147-.144 2.785 2.785 0 00.546.675 2.742 2.742 0 00.346.272l.005.005c.174.489.338.883.446 1.138a6.889 6.889 0 00.459.934 5.371 5.371 0 00.452.627l.002.006a14.485 14.485 0 01.018 1.75l-.001.014-.01.186a.01.01 0 01-.01.01z"/><path fill="#0a0a14" d="M20.569 10.841l-.008-.002a2.844 2.844 0 01-.18-.18 3.715 3.715 0 01-.664-1.095 6.746 6.746 0 01-.443-1.228 6.283 6.283 0 01-.18-1.542.01.01 0 01.01-.011.01.01 0 01.012.01 6.283 6.283 0 00.18 1.537 6.705 6.705 0 00.44 1.224 3.696 3.696 0 00.66 1.09c.058.062.118.122.18.179a.012.012 0 010 .016zM18.48 7.685a.01.01 0 01-.01-.012 1.79 1.79 0 00-.158-.88 1.553 1.553 0 00-.781-.704c-.218-.083-.568-.148-.616-.06a.072.072 0 00-.003.044 1.317 1.317 0 00.09.423 2.127 2.127 0 00.716.629c.034.021.075.049.122.08a3.941 3.941 0 00.45.276.01.01 0 11-.01.02 4.005 4.005 0 01-.452-.278c-.046-.03-.087-.06-.122-.08a2.143 2.143 0 01-.723-.637 1.363 1.363 0 01-.092-.431.09.09 0 01.005-.055c.06-.116.448-.026.642.049a1.573 1.573 0 01.792.712 1.81 1.81 0 01.162.894.01.01 0 01-.011.01zM16.983 9.13l-.007-.001-.004-.01a1.57 1.57 0 01.072-.501 1.219 1.219 0 01.678-.838 1.263 1.263 0 01.785.042.01.01 0 01.006.014c-.002.005-.01.01-.014.005a1.25 1.25 0 00-.77-.04 1.193 1.193 0 00-.663.823 1.534 1.534 0 00-.072.481 1.584 1.584 0 00.482-.225 2.087 2.087 0 00.402-.406l.224-.259a2.389 2.389 0 01.28-.249 1.343 1.343 0 00.135-.115.011.011 0 11.016.016 1.52 1.52 0 01-.138.117 2.52 2.52 0 00-.277.245l-.223.259a2.047 2.047 0 01-.407.41 1.609 1.609 0 01-.502.232zM19.44 9.15h-.005a.937.937 0 00-.325-.052l-.027-.002a3.698 3.698 0 00-.317.002 1.033 1.033 0 01-.453-.05c-.08-.03-.161-.061-.175-.128a.154.154 0 01.034-.116.702.702 0 01.54-.253.662.662 0 01.295.07.924.924 0 01.395.39.013.013 0 01-.007.014c-.01 0-.013-.002-.015-.007a.881.881 0 00-.383-.378.656.656 0 00-.372-.061.695.695 0 00-.435.238.133.133 0 00-.03.099c.01.05.073.078.16.112a.984.984 0 00.445.048 2.867 2.867 0 01.32-.001h.027a.954.954 0 01.335.055.013.013 0 01.004.015z"/><path fill="#0a0a14" d="M19.059 7.093h-.006l-.03-.02a3.756 3.756 0 00-.358-.202 9.735 9.735 0 00-.24-.109 6.25 6.25 0 01-.177-.08.011.011 0 01-.004-.014c.002-.007.007-.01.014-.005l.176.08c.07.03.148.065.241.108a3.928 3.928 0 01.36.204l.03.018a.013.013 0 01.004.016zM19.059 6.723a.011.011 0 01-.01-.008 1.773 1.773 0 00-.706-1.316 1.234 1.234 0 00-.473-.227.068.068 0 00-.043.01c-.045.032-.051.199-.055.288l-.003.056a2.214 2.214 0 00.036.582c.009.04.02.08.033.122a.011.011 0 01-.007.014.013.013 0 01-.014-.008 1.941 1.941 0 01-.033-.124 2.214 2.214 0 01-.036-.588l.002-.055c.005-.134.015-.27.064-.304a.093.093 0 01.055-.015 1.306 1.306 0 01.486.231 1.788 1.788 0 01.715 1.33c0 .007-.003.013-.011.012zM19.115 7.2l-.006-.001a.01.01 0 01-.003-.015 2.697 2.697 0 01.23-.289 1.356 1.356 0 01.282-.242 1.775 1.775 0 00.246-.193 1.926 1.926 0 00.401-.628.16.16 0 00.016-.126c-.059-.123-.42-.117-.69.01a.883.883 0 00-.48.568 1.457 1.457 0 00.005.508.01.01 0 01-.01.012h-.001a.01.01 0 01-.01-.008 1.51 1.51 0 01-.006-.518.91.91 0 01.492-.582c.261-.12.65-.145.72 0a.172.172 0 01-.016.144 1.963 1.963 0 01-.406.635 1.81 1.81 0 01-.25.197 1.363 1.363 0 00-.278.237 3.038 3.038 0 00-.228.287zM17.415 8.443l-.003-.001a.01.01 0 01-.006-.014 1.13 1.13 0 01.333-.459 1.414 1.414 0 01.45-.224.013.013 0 01.014.008.012.012 0 01-.008.013 1.366 1.366 0 00-.443.22 1.112 1.112 0 00-.327.45.01.01 0 01-.01.007zM19.414 9.085l-.004-.001a2.143 2.143 0 00-.426-.17 1.373 1.373 0 00-.414-.036h-.001a.01.01 0 01-.011-.01.01.01 0 01.01-.012 1.43 1.43 0 01.422.036 2.123 2.123 0 01.43.172.01.01 0 01.004.015zM18.372 7.574a.01.01 0 01-.01-.007l-.004-.008a2.203 2.203 0 00-.361-.636 1.85 1.85 0 00-.541-.41.01.01 0 01-.005-.015c.002-.007.007-.01.014-.005a1.875 1.875 0 01.547.414 2.262 2.262 0 01.366.643l.003.01a.01.01 0 01-.006.013z"/><path fill="#0a0a14" d="M19.062 6.821a.01.01 0 01-.01-.008 1.38 1.38 0 00-.365-.565 1.07 1.07 0 00-.304-.204.01.01 0 01-.005-.015c.002-.007.008-.009.015-.005a1.105 1.105 0 01.31.208 1.423 1.423 0 01.37.575.012.012 0 01-.008.014zM19.112 6.888c-.004.002-.012-.006-.011-.012a1.645 1.645 0 01.226-.476 1.404 1.404 0 01.456-.453c.005-.007.01-.002.015.003a.013.013 0 01-.004.015 1.404 1.404 0 00-.45.447 1.614 1.614 0 00-.222.468.011.011 0 01-.01.008z"/><path fill="#050505" d="M21.487 13.12c-.002.039-.003.076-.003.115-.201.002-.422.004-.653.004l.003-.123c.231 0 .45.002.653.004z"/><path fill="#0a0a14" d="M20.83 13.25l-.007-.003-.003-.008c0-.02 0-.04.002-.06s0-.043.002-.063a.01.01 0 01.01-.01c.21 0 .43.001.653.004l.008.003.003.008-.001.038-.002.076a.01.01 0 01-.011.01c-.201.003-.422.005-.654.005zm.015-.123l-.002.052c0 .017 0 .033-.002.05.224 0 .437-.003.632-.005l.002-.066v-.026a46.806 46.806 0 00-.63-.005z"/><path fill="#0a0a14" d="M20.834 13.127a.01.01 0 01-.01-.011l.004-.2c.004-.23.004-.44.004-.565v-.104c-.005-.846-.008-1.27-.032-1.407l-.002-.012a1.578 1.578 0 01.008-.591 1.48 1.48 0 01.104-.31l.004-.013a7.37 7.37 0 01.69-1.374 1.718 1.718 0 01.241-.262 3.602 3.602 0 00.348-.365 7.409 7.409 0 00.55-.745c.002-.005.008-.01.014-.003a.01.01 0 01.003.014 7.52 7.52 0 01-.55.747 3.658 3.658 0 01-.35.369 1.68 1.68 0 00-.239.258 7.35 7.35 0 00-.686 1.37l-.006.012a1.481 1.481 0 00-.11.89l.003.01c.023.14.026.565.031 1.412l.001.104c0 .125 0 .334-.005.563 0 .068-.002.134-.004.202a.01.01 0 01-.01.01z"/><path fill="#0a0a14" d="M20.663 10.166l-.006-.002a.01.01 0 01-.003-.015c.024-.037.077-.117.146-.231a5.636 5.636 0 00.637-1.426 6.367 6.367 0 00.185-1.386.01.01 0 01.011-.01.01.01 0 01.011.01 6.364 6.364 0 01-.186 1.392 5.726 5.726 0 01-.638 1.431c-.07.115-.123.195-.149.232zM21.58 8.405l-.006-.002a.01.01 0 01-.005-.012c.027-.118.05-.239.068-.362a5.8 5.8 0 00.054-.934.01.01 0 01.01-.01.01.01 0 01.011.01 5.638 5.638 0 01-.053.938 4.267 4.267 0 01-.063.337c.02-.014.041-.029.062-.042a3.833 3.833 0 001.05-1.189.012.012 0 01.015-.004.012.012 0 01.004.016 3.865 3.865 0 01-1.058 1.194c-.027.02-.055.04-.084.058zM20.569 10.841h-.002a.011.011 0 01-.009-.012 1.721 1.721 0 00.025-.367.979.979 0 00-.095-.347l-.01-.02a9.245 9.245 0 01-.192-2.419.01.01 0 01.01-.01.01.01 0 01.011.01 9.375 9.375 0 00.191 2.412l.01.017a.998.998 0 01.097.355 1.765 1.765 0 01-.026.373.01.01 0 01-.01.008z"/><path fill="#0a0a14" d="M20.663 10.166a.011.011 0 01-.011-.008c-.007-.022-.022-.054-.038-.09a1.323 1.323 0 01-.083-.216 4.875 4.875 0 01-.124-1.01l-.003-.051c-.01-.187-.031-.54-.065-1.081a.01.01 0 01.01-.012h.001a.01.01 0 01.01.01c.035.54.056.894.065 1.08l.003.052a4.82 4.82 0 00.124 1.006 1.32 1.32 0 00.081.212c.018.038.032.07.04.094a.012.012 0 01-.008.014z"/><path fill="#0a0a14" d="M20.333 7.723a.011.011 0 01-.01-.008.742.742 0 01.285-.867 1.163 1.163 0 01.373-.13c.075-.015.225-.045.27.025.029.044.002.101-.042.192a2.468 2.468 0 01-.217.408 1.35 1.35 0 01-.656.38zm.798-1.003a.872.872 0 00-.143.018 1.141 1.141 0 00-.368.13.717.717 0 00-.279.83 1.297 1.297 0 00.633-.368 2.447 2.447 0 00.216-.405c.04-.084.064-.137.043-.17a.12.12 0 00-.102-.035z"/><path fill="#0a0a14" d="M20.328 7.703l-.005-.001a2.188 2.188 0 01-.304-.203 2.988 2.988 0 01-.422-.38 1.728 1.728 0 01-.12-.168l-.001-.009.007-.007a.679.679 0 01.827.394.012.012 0 01-.004.015.014.014 0 01-.016-.004.764.764 0 00-.6-.428.515.515 0 00-.188.038 1.647 1.647 0 00.113.156 2.938 2.938 0 00.418.375 2.132 2.132 0 00.3.201.011.011 0 01.004.015zM19.95 5.62h-.001a.01.01 0 01-.01-.011 1.508 1.508 0 01.71-1.196c.005-.007.01-.002.015.003a.01.01 0 01-.003.014 1.49 1.49 0 00-.7 1.181.01.01 0 01-.011.01z"/><path fill="#0a0a14" d="M20.296 7.313h-.005a.01.01 0 01-.004-.016 3.226 3.226 0 00.125-.348 2.596 2.596 0 01.163-.429l.102-.19a3.997 3.997 0 00.208-.413A1.587 1.587 0 0021 5.325a1.287 1.287 0 00-.352-.896.011.011 0 11.016-.015 1.336 1.336 0 01.267.423 1.322 1.322 0 01.09.488 1.59 1.59 0 01-.115.6 3.858 3.858 0 01-.208.416c-.035.063-.07.125-.103.189a2.649 2.649 0 00-.162.426 3.22 3.22 0 01-.126.351zM20.229 7.238a.01.01 0 01-.01-.007 4.224 4.224 0 01-.237-.901.01.01 0 01.01-.013.011.011 0 01.011.009 4.22 4.22 0 00.236.897.01.01 0 01-.006.014z"/><path fill="#0a0a14" d="M21.632 7.116a.01.01 0 01-.01-.008 2.02 2.02 0 00-.131-.347 2.294 2.294 0 00-.37-.466l-.039-.043c-.093-.109-.16-.186-.22-.262l-.001-.007a.012.012 0 01.01-.012.01.01 0 01.011.008c.058.075.124.151.217.258l.038.044a2.262 2.262 0 01.373.47 2.105 2.105 0 01.133.351.012.012 0 01-.008.014z"/><path fill="#0a0a14" d="M21.702 7.106h-.003a.012.012 0 01-.008-.014 1.357 1.357 0 00-.04-.752 1.32 1.32 0 00-.053-.125.902.902 0 00-.327-.38.886.886 0 00-.307-.127.011.011 0 01-.008-.013.01.01 0 01.01-.009h.002a.905.905 0 01.315.132.921.921 0 01.335.388c.026.054.043.1.053.127a1.39 1.39 0 01.041.765.01.01 0 01-.01.008zM21.704 7.307l-.007-.002a.011.011 0 01-.002-.015c.023-.032.055-.073.092-.12.085-.11.193-.248.285-.378a4.489 4.489 0 00.551-.886 1.144 1.144 0 00.001-1.038.39.39 0 00-.224-.185.011.011 0 01-.009-.012.013.013 0 01.013-.01.406.406 0 01.238.195 1.16 1.16 0 01.002 1.057 4.454 4.454 0 01-.555.89c-.091.132-.204.276-.285.38a9.637 9.637 0 00-.092.12z"/><path fill="#0a0a14" d="M21.608 6.22a.01.01 0 01-.01-.01 2.413 2.413 0 01.11-.884c.115-.27.385-.67.648-.67a.256.256 0 01.048.006.011.011 0 01.009.012c-.001.006-.008.008-.013.01a.226.226 0 00-.045-.005c-.251 0-.515.392-.628.655a2.397 2.397 0 00-.108.875.01.01 0 01-.01.011zM22.751 7.184l-.01-.006a.01.01 0 01.006-.014 2.196 2.196 0 00.55-.443 1.557 1.557 0 00.408-.888 1.302 1.302 0 00.001-.223 1.441 1.441 0 00-.214.1 1.493 1.493 0 00-.625.708 1.902 1.902 0 00-.139.726.01.01 0 01-.01.012.01.01 0 01-.012-.01 1.913 1.913 0 01.141-.736 1.515 1.515 0 01.633-.719 1.569 1.569 0 01.232-.106l.01.002.005.007a1.41 1.41 0 010 .24 1.562 1.562 0 01-.415.901 2.175 2.175 0 01-.556.448z"/><path fill="#0a0a14" d="M23.644 6.935h-.001a1.267 1.267 0 01-.447-.089.01.01 0 01.004-.02h.004a1.264 1.264 0 00.436.088h.001a.737.737 0 00.577-.193.104.104 0 00.033-.07c-.006-.09-.231-.162-.452-.192a.897.897 0 00-.293.013h-.002a.01.01 0 01-.01-.008.011.011 0 01.008-.013.886.886 0 01.3-.014c.077.01.461.07.47.213a.126.126 0 01-.036.085.759.759 0 01-.592.2zM23.482 7.761a1.087 1.087 0 01-.64-.168.827.827 0 01-.187-.203c-.01-.011-.018-.023-.026-.033l-.002-.01.007-.008a1.705 1.705 0 01.395-.066.944.944 0 01.057-.002 1.202 1.202 0 01.734.241 1.172 1.172 0 01.183.185l.001.01-.008.007a2.237 2.237 0 01-.336.042 3.301 3.301 0 01-.178.005zm-.826-.405l.016.022a.859.859 0 00.182.198 1.269 1.269 0 00.802.159 2.38 2.38 0 00.319-.038 1.136 1.136 0 00-.169-.167 1.178 1.178 0 00-.72-.236h-.055a1.686 1.686 0 00-.375.062zM20.333 7.723h-.003a.012.012 0 01-.007-.013 1.48 1.48 0 01.23-.448 1.24 1.24 0 01.343-.297.011.011 0 01.016.003.012.012 0 01-.004.016 1.195 1.195 0 00-.337.292 1.462 1.462 0 00-.227.44.011.011 0 01-.01.007zM20.276 7.306h-.001a.01.01 0 01-.01-.011c.009-.157.044-.698.103-1.092.043-.283.097-.57.162-.85 0-.007.008-.009.013-.009a.012.012 0 01.008.014c-.065.28-.119.565-.162.849-.058.392-.093.933-.102 1.09a.01.01 0 01-.011.01zM21.704 7.198l-.004-.001a.01.01 0 01-.007-.014c.136-.37.33-.918.453-1.379.047-.175.089-.35.123-.496 0-.006.007-.008.014-.008a.012.012 0 01.007.014c-.034.147-.076.32-.123.496a17.936 17.936 0 01-.453 1.381.012.012 0 01-.01.007zM22.751 7.184h-.004a.01.01 0 01-.005-.015l.053-.105c.11-.213.246-.478.364-.669l.119-.186a.008.008 0 01.014-.003.01.01 0 01.003.014c-.04.062-.079.123-.117.187-.117.19-.254.454-.363.667l-.054.104z"/><path fill="#0a0a14" d="M23.39 7.556a1.442 1.442 0 01-.309-.039 2.703 2.703 0 01-.448-.157.01.01 0 01-.005-.015.01.01 0 01.015-.005 2.751 2.751 0 00.444.156 1.45 1.45 0 00.302.039.01.01 0 010 .021z"/><path fill="#050505" d="M8.225 7.58a1.62 1.62 0 01-.349.165c-.036-.044-.428-.517-.648-.75a1.384 1.384 0 00-.107-.104.308.308 0 00-.06-.037.241.241 0 00-.09-.03.998.998 0 01.671.15 2.269 2.269 0 01.535.544l.048.063z"/><path fill="#0a0a14" d="M7.876 7.756l-.008-.004-.027-.033a18.633 18.633 0 00-.62-.715 1.555 1.555 0 00-.106-.104.311.311 0 00-.059-.036.237.237 0 00-.084-.028.01.01 0 01-.002-.022.99.99 0 01.678.15 2.216 2.216 0 01.532.543l.005.004.017.022.032.04.002.01-.005.007a1.596 1.596 0 01-.35.166zm-.845-.927a.31.31 0 01.035.015.381.381 0 01.062.038c.026.022.065.06.109.106.194.205.515.59.62.718l.023.026a1.625 1.625 0 00.33-.154l-.026-.031-.02-.028a2.188 2.188 0 00-.528-.536 1.018 1.018 0 00-.527-.158.71.71 0 00-.078.004z"/><path fill="#0a0a14" d="M7.061 6.865h-.128l-.009-.004-.002-.009a.055.055 0 01.034-.036l.015-.002a.251.251 0 01.095.03.011.011 0 01.006.013.01.01 0 01-.011.008zm-.107-.022h.053c-.018-.005-.033-.01-.04-.006zM7.072 7.843c-.147 0-.3-.005-.454-.018a.01.01 0 01-.01-.012.01.01 0 01.01-.01h.002a6 6 0 00.452.019 2.358 2.358 0 00.779-.08l.017-.005.004-.002a.008.008 0 01.014.006.01.01 0 01-.006.014l-.005.001-.018.007a2.394 2.394 0 01-.785.08zM8.225 7.591l-.01-.005a.01.01 0 01.005-.015l.017-.01c.005-.007.01-.002.014.003a.01.01 0 01-.003.015.098.098 0 01-.018.012z"/><path fill="#f2f2f4" d="M1.118 12.79a.435.435 0 00-.07-.33.41.41 0 00-.53-.055.408.408 0 00-.178.42.312.312 0 00.054.11"/><path fill="#0a0a14" d="M.394 12.945l-.009-.004a.338.338 0 01-.056-.112.42.42 0 01.184-.433.418.418 0 01.544.057.446.446 0 01.072.34c0 .006-.008.007-.013.007a.012.012 0 01-.008-.013.42.42 0 00-.068-.32.396.396 0 00-.515-.053.397.397 0 00-.175.409.286.286 0 00.053.104.011.011 0 01-.002.016z"/><path fill="#f2f2f4" d="M.594 12.882a.453.453 0 00-.395.247.423.423 0 00.055.467.439.439 0 00.592 0l.903 1.41-.568-1.565a.386.386 0 00.233-.024.465.465 0 00.187-.654.415.415 0 00-.478-.108"/><path fill="#0a0a14" d="M1.75 15.016l-.01-.005-.897-1.398a.45.45 0 01-.596-.009.436.436 0 01-.057-.48.46.46 0 01.403-.253h.001a.01.01 0 01.01.01.01.01 0 01-.009.011.438.438 0 00-.386.242.413.413 0 00.053.455.427.427 0 00.577-.001.009.009 0 01.01-.002l.006.004.85 1.327-.536-1.472.002-.01.011-.005a.386.386 0 00.228-.022.479.479 0 00.24-.323.357.357 0 00-.058-.315.407.407 0 00-.465-.105h-.003a.01.01 0 01-.01-.006.01.01 0 01.006-.014.422.422 0 01.49.112.384.384 0 01.062.333.5.5 0 01-.253.337.38.38 0 01-.222.028l.563 1.547a.012.012 0 01-.006.013z"/><path fill="#f2f2f4" d="M8.885 15.14a.313.313 0 00.197-.142.3.3 0 00-.445-.36.224.224 0 00-.056.066"/><path fill="#0a0a14" d="M8.885 15.15a.011.011 0 01-.01-.009.011.011 0 01.008-.012.302.302 0 00.19-.136.289.289 0 00-.429-.347.201.201 0 00-.053.064c-.004.005-.012.007-.014.005a.01.01 0 01-.005-.015.236.236 0 01.058-.071.298.298 0 01.341-.003.307.307 0 01.121.379.33.33 0 01-.205.145z"/><path fill="#f2f2f4" d="M8.673 14.82a.325.325 0 00-.276-.188.304.304 0 00-.292.17.315.315 0 00.17.39c-.222.333-.304.5-.526.833.288-.275.436-.383.725-.657a.277.277 0 00.083.147.334.334 0 00.484-.066.298.298 0 00-.066-.345"/><path fill="#0a0a14" d="M7.748 16.036l-.006-.002a.01.01 0 01-.002-.015c.111-.167.188-.294.262-.416.075-.12.15-.245.258-.407a.326.326 0 01-.165-.398.315.315 0 01.288-.177h.015a.333.333 0 01.285.195.01.01 0 01-.005.015c-.007.002-.013 0-.015-.005a.312.312 0 00-.266-.183h-.015a.294.294 0 00-.267.163.306.306 0 00.166.376l.006.007-.002.009c-.112.167-.189.294-.263.416-.064.103-.128.209-.213.339.113-.105.205-.186.295-.265.107-.094.218-.191.362-.328l.01-.003.009.008a.269.269 0 00.079.142.347.347 0 00.28.065.257.257 0 00.188-.127.286.286 0 00-.065-.333.012.012 0 010-.016h.016a.313.313 0 01.068.359.275.275 0 01-.203.138.45.45 0 01-.072.006.343.343 0 01-.226-.077.278.278 0 01-.082-.134c-.138.131-.246.225-.35.317-.107.093-.217.191-.362.328z"/><circle cx=".329" cy="14.911" r=".152" fill="#f2f2f4"/><path fill="#0a0a14" d="M.33 15.074a.163.163 0 110-.325.163.163 0 010 .325zm0-.304a.141.141 0 10.14.14.141.141 0 00-.14-.14z"/><circle cx="4.759" cy="14.367" r=".155" fill="#f2f2f4"/><path fill="#0a0a14" d="M4.76 14.533a.166.166 0 11.165-.166.166.166 0 01-.166.166zm0-.31a.145.145 0 10.144.144.144.144 0 00-.145-.145z"/><circle cx="8.394" cy="16.155" r=".13" fill="#f2f2f4"/><path fill="#0a0a14" d="M8.394 16.296a.14.14 0 11.14-.141.14.14 0 01-.14.14zm0-.26a.118.118 0 00-.12.119.12.12 0 10.12-.12zM15.676 5.052a.132.132 0 010-.264.132.132 0 110 .264zm0-.243a.11.11 0 10.112.112.111.111 0 00-.112-.112zM21.806 1.13a.275.275 0 11.274-.276.275.275 0 01-.274.276zm0-.529a.253.253 0 10.253.253.253.253 0 00-.253-.253zM24.608 11.476a.19.19 0 11.19-.19.19.19 0 01-.19.19zm0-.357a.168.168 0 10.168.168.168.168 0 00-.168-.168z"/><path fill="#050505" d="M5.772 6.855h-.86a1.462 1.462 0 01.3-.405c.027-.025.072-.025.087-.078.027-.016.076-.029.1-.045a1.546 1.546 0 01.414-.216 1.9 1.9 0 00-.045.251 2.158 2.158 0 00.004.493z"/><path fill="#0a0a14" d="M5.773 6.866h-.86l-.01-.005v-.01a1.494 1.494 0 01.302-.409.12.12 0 01.034-.021.076.076 0 00.05-.052l.004-.007c.014-.007.032-.014.05-.02a.378.378 0 00.051-.024A1.504 1.504 0 015.81 6.1l.01.003.004.01a1.687 1.687 0 00-.045.25 2.117 2.117 0 00.005.491l-.003.008zm-.843-.022h.83a2.162 2.162 0 01-.003-.483 1.758 1.758 0 01.041-.234 1.597 1.597 0 00-.392.209.269.269 0 01-.056.026.235.235 0 00-.042.018.1.1 0 01-.06.06.12.12 0 00-.027.018 1.464 1.464 0 00-.29.386z"/><path fill="#050505" d="M5.957 9.249c-.177-.024-.375-.05-.592-.091H5.36c-.169-.031-.35-.072-.542-.123L4.8 9.03a4.746 4.746 0 01-.138-.039c-.126-.036-.255-.065-.382-.098a4.879 4.879 0 00.916-.035 4.757 4.757 0 00.791-.17 3.785 3.785 0 01-.03.56z"/><path fill="#0a0a14" d="M5.956 9.26a11.3 11.3 0 01-.593-.091l-.001-.012-.004.01a6.827 6.827 0 01-.543-.121.046.046 0 00-.017-.004 6.163 6.163 0 00-.396-.106l-.124-.032a.012.012 0 01-.008-.013.011.011 0 01.01-.009h.002a5.018 5.018 0 00.914-.035 4.718 4.718 0 00.789-.17l.01.002.004.01a3.704 3.704 0 01-.032.56l-.004.008zM4.39 8.908l.019.005a5.838 5.838 0 01.395.106.032.032 0 00.017.004c.182.05.365.09.543.122.217.04.415.067.584.09a3.723 3.723 0 00.03-.533 4.675 4.675 0 01-.78.166 4.857 4.857 0 01-.808.04z"/><path d="M11.576 15.851a.01.01 0 01-.011-.01v-.002c0-.011.021-.011.021 0a.012.012 0 01-.01.012z"/><path fill="#0a0a14" d="M7.199 2.112a.012.012 0 01-.012-.01.01.01 0 01.01-.011H7.2a.01.01 0 110 .021zM8.733 6.605l-.01-.005a.525.525 0 11.9-.539l.001.009-.004.007-.046.027a.013.013 0 01-.016-.004.442.442 0 00-.273-.204.457.457 0 00-.341.052.445.445 0 00-.155.613l.001.009-.004.007-.047.027zm.44-.777a.497.497 0 00-.258.072.503.503 0 00-.178.68l.028-.017a.461.461 0 01-.047-.347.466.466 0 01.214-.288.473.473 0 01.358-.052.463.463 0 01.282.204l.027-.017a.499.499 0 00-.303-.22.483.483 0 00-.123-.015zM8.912 4.715l-.006-.002-.046-.029-.005-.007.002-.007a.445.445 0 00.06-.335.451.451 0 00-.2-.284l-.034-.02a.01.01 0 01-.005-.014c.002-.007.008-.008.015-.005a.235.235 0 01.036.022.468.468 0 01.151.638l.028.017a.502.502 0 00-.16-.684.01.01 0 01-.007-.01.011.011 0 01.016-.01l.002.002a.525.525 0 01.161.724l-.006.004zM11.254 5.78l-.007-.002a.524.524 0 01.42-.914.011.011 0 01.01.013.011.011 0 01-.012.008h-.002a.478.478 0 00-.075-.005.502.502 0 00-.335.875l.022-.025a.47.47 0 01.441-.8.012.012 0 01.008.013.011.011 0 01-.014.008.445.445 0 00-.457.138.451.451 0 00.044.632l.004.007-.003.008-.036.041zM6.319 6.249h-.002l-.053-.008a.01.01 0 01-.009-.012.45.45 0 00-.314-.488l-.007-.003v-.016l.013-.003.002.001a.472.472 0 01.329.501l.031.004a.503.503 0 00-.348-.536.011.011 0 01-.007-.013.011.011 0 01.013-.008.527.527 0 01.363.571l-.004.008zM6.99 8.464a.01.01 0 01-.011-.011v-.054a.01.01 0 01.01-.01.449.449 0 00.449-.449.408.408 0 00-.014-.11.012.012 0 01.008-.013c.006.001.012.002.014.008a.455.455 0 01.013.115.47.47 0 01-.459.47v.032a.504.504 0 00.494-.502.476.476 0 00-.013-.114.012.012 0 01.008-.014c.007 0 .012.002.013.008a.528.528 0 01-.512.643zM8.897 8.524h-.002l-.053-.009a.011.011 0 01-.009-.012.524.524 0 01.603-.431.525.525 0 01.405.333.01.01 0 01-.006.014h-.003a.01.01 0 01-.01-.006.504.504 0 00-.764-.233.493.493 0 00-.201.316l.031.005a.471.471 0 01.911-.052.011.011 0 01-.008.014c-.003 0-.011-.002-.013-.008a.444.444 0 00-.355-.307.456.456 0 00-.335.077.444.444 0 00-.18.29l-.004.007zM11.178 7.744a.011.011 0 01-.01-.008l-.014-.052v-.009l.008-.004a.442.442 0 00.273-.206.45.45 0 00-.387-.677.427.427 0 00-.11.013.015.015 0 01-.014-.007l-.013-.052v-.009l.007-.005a.554.554 0 01.132-.016.524.524 0 01.451.79.52.52 0 01-.32.242zm0-.055l.008.03a.503.503 0 00-.136-.986.516.516 0 00-.115.014l.008.031a.471.471 0 01.51.7.461.461 0 01-.275.211z"/><path d="M12.57 8.151h-.002l-.053-.01a.011.011 0 01-.009-.013.525.525 0 01.61-.422.496.496 0 01.152.053.011.011 0 01.004.015.013.013 0 01-.015.005.478.478 0 00-.145-.052.496.496 0 00-.376.081.504.504 0 00-.206.313l.03.007a.473.473 0 01.463-.375.488.488 0 01.084.007.48.48 0 01.193.083l.006.01a.01.01 0 01-.01.01h-.002l-.006-.001a.449.449 0 00-.707.28l-.005.007z"/><path fill="#0a0a14" d="M7.46 5.187l-.008-.004-.187-.256v-.012a.01.01 0 01.012-.005c.033.01.067.02.1.027l.006.004.138.19a.011.011 0 01-.002.016l-.052.038zm-.159-.247l.161.22.035-.024-.13-.178-.066-.018zM8.95 7.516h-.005l-.42-.21a.01.01 0 01-.005-.015l.03-.059a.009.009 0 01.009-.006l.005.001.42.211.006.007-.001.008-.03.057zm-.406-.225l.4.2.02-.038-.4-.201zM9.928 4.715l-.007-.003-.049-.042a.01.01 0 01-.002-.015l.305-.357.008-.004h.001l.007.003.049.042a.01.01 0 01.002.014l-.305.358-.008.004zm-.033-.054l.032.027.29-.34-.032-.028z"/><path d="M12.013 5.856l-.007-.002-.05-.04a.011.011 0 01-.002-.016l.181-.227a.012.012 0 01.016-.002.011.011 0 01.002.016l-.175.217.033.028.161-.2a.012.012 0 01.016-.002.011.011 0 01.002.015l-.168.21-.008.003zM12.747 9.156l-.006-.002-.051-.041a.011.011 0 01-.002-.016l.293-.367.008-.004.008.002.05.041a.011.011 0 01.002.016l-.293.367-.008.004zm-.035-.054l.034.028.279-.35-.033-.027z"/><path fill="#0a0a14" d="M7.418 9.305a.011.011 0 01-.01-.008l-.06-.34a.011.011 0 01.008-.013l.064-.012.008.002.005.007.06.334c0 .007-.003.014-.011.013a.011.011 0 01-.01-.009l-.059-.323-.043.008.06.329c0 .006-.003.013-.012.012zM17.245 17.48h-4.592a.01.01 0 010-.022h4.592a.01.01 0 010 .021zM10.627 17.481H6.984a.01.01 0 010-.021h3.643a.01.01 0 010 .021zM4.968 2.994l-.005-.001a.331.331 0 01-.093-.077.345.345 0 01-.072-.146.011.011 0 01.01-.013h.001a.01.01 0 01.01.01.316.316 0 00.067.135.301.301 0 00.087.071.01.01 0 01.005.015zM5.3 6.382a.436.436 0 01-.159-.046l-.045-.02a.666.666 0 01-.204-.137.012.012 0 010-.015h.016a.631.631 0 00.196.132l.046.02a.403.403 0 00.15.045.01.01 0 01.01.01.01.01 0 01-.01.011zM5.199 6.46a.503.503 0 01-.093-.007.577.577 0 01-.205-.081.01.01 0 01-.003-.015c.003-.005.009-.01.015-.003a.543.543 0 00.197.077.633.633 0 00.103.008.01.01 0 01.011.01.01.01 0 01-.01.012z"/><path fill="#0a0a14" d="M7.229 7.007H3.108a.01.01 0 01-.01-.01V.29a.01.01 0 01.01-.011h8.42a.01.01 0 01.01.01V4.69c0 .012-.021.012-.021 0V.3H3.119v6.686h4.11a.01.01 0 010 .021z"/><path fill="#0a0a14" d="M7.45 4.974h-.003a1.913 1.913 0 01-.1-.027l-.007-.004-.09-.124a.011.011 0 01.002-.016l.053-.039.009-.002.007.004.137.19v.013zm-.094-.048l.067.02-.113-.157-.035.025z"/><path fill="#0a0a14" d="M7.921 5.04c-.052 0-.105-.002-.157-.007a2.3 2.3 0 01-.392-.074.012.012 0 01-.008-.014.014.014 0 01.013-.008 2.26 2.26 0 00.389.074 1.851 1.851 0 00.401-.01h.002a.01.01 0 01.002.022 1.825 1.825 0 01-.25.018zM7.274 4.931H7.27a2.495 2.495 0 01-.708-.314.011.011 0 01-.002-.016c.003-.005.01-.004.016-.002a2.414 2.414 0 00.7.31.012.012 0 01.008.014.011.011 0 01-.011.008z"/><path fill="url(#noProducts_h)" d="M10.089 3.165c-.286.136-.616.465-1.07.712a6.289 6.289 0 01-.85.336 3.252 3.252 0 01-1.01.168c.028-.03.062-.074.096-.11.18-.189.37-.369.558-.55a4.867 4.867 0 01.648-.538 3.594 3.594 0 01.857-.45c.015-.004.03-.01.045-.016.063.028.128.06.194.096a3.759 3.759 0 01.532.352z"/><path fill="#0a0a14" d="M7.16 4.391l-.01-.006.002-.011c.01-.013.022-.028.036-.042.018-.023.039-.047.06-.069.155-.163.32-.322.482-.476l.075-.073a4.814 4.814 0 01.65-.54 3.586 3.586 0 01.859-.45l.026-.01.02-.007h.009c.069.032.14.068.193.095a3.75 3.75 0 01.534.355l.004.01-.006.008a3.001 3.001 0 00-.452.3 5.385 5.385 0 01-.618.411 4.142 4.142 0 01-.633.26l-.218.076a3.207 3.207 0 01-1.013.17zM9.363 2.73l-.016.006-.026.009a3.595 3.595 0 00-.855.447 4.848 4.848 0 00-.645.538l-.076.073c-.16.155-.327.314-.482.477-.02.021-.04.045-.058.066a.252.252 0 01-.021.024 3.178 3.178 0 00.981-.166c.073-.028.145-.052.218-.077a4.02 4.02 0 00.631-.26 5.158 5.158 0 00.614-.41 3.167 3.167 0 01.44-.292 3.616 3.616 0 00-.516-.342 3.51 3.51 0 00-.19-.093z"/><path fill="#0a0a14" d="M10.098 3.172l-.01-.006a.01.01 0 01.005-.015c.183-.084.176-.076.185-.067a.012.012 0 01-.004.015l-.009.001a1.844 1.844 0 00-.162.07z"/><path fill="#0a0a14" d="M10.273 3.33a.011.011 0 01-.01-.008.242.242 0 01-.004-.064l.003-.037a.38.38 0 00.004-.079.326.326 0 00-.009-.05.012.012 0 01.008-.013c.006.002.013.002.014.008a.387.387 0 01.009.053.434.434 0 01-.003.084l-.004.035a.206.206 0 00.003.059c0 .007-.003.015-.011.013z"/><path fill="#ffac00" d="M17.618 15.121h3.253v.93h-3.253z"/></svg>