<svg data-tags="illustration,star,award" xmlns="http://www.w3.org/2000/svg" viewBox="0 0 40 40"><path d="M34.457 15.015A15.245 15.245 0 0020.775.145a13.05 13.05 0 00-5.868.806 12.32 12.32 0 00-9.687 12.23 15.202 15.202 0 006.377 12.105l-2.054 12.52c-.002.018.004.036.003.053a.989.989 0 00.008.208 1.024 1.024 0 00.025.182 2.153 2.153 0 00.182.36c.011.015.015.033.027.047a1.052 1.052 0 00.092.075 1.092 1.092 0 00.193.157 1.045 1.045 0 00.177.081 1.027 1.027 0 00.122.057 1.026 1.026 0 00.158.026h.001a.958.958 0 00.35-.033c.015-.004.028-.016.043-.021a.895.895 0 00.263-.137l.013-.007 7.703-6.252 7.792 7.611c.01.01.022.014.032.023a1.12 1.12 0 00.271.187 1.057 1.057 0 00.36.101c.027.003.05-.009.076-.009a.953.953 0 00.276-.034.87.87 0 00.137-.06.879.879 0 00.12-.054l2.193-1.5a.925.925 0 00.37-.947l-2.24-12.036a12.28 12.28 0 006.168-10.87zM19.563 30.572a1.052 1.052 0 00-.122-.082 1.1 1.1 0 00-.174-.117 1.8 1.8 0 00-.37-.104.948.948 0 00-.192.01.906.906 0 00-.18.031.871.871 0 00-.173.088.842.842 0 00-.122.061l-6.26 5.08 1.493-9.101a14.948 14.948 0 001.92.848 14.374 14.374 0 003.523.767 13.324 13.324 0 003.482-.149 11.065 11.065 0 001.675-.419l1.75 9.192zm10.336-11.344a10.326 10.326 0 01-3.356 4.637l-.03.023a6.003 6.003 0 00-.086.065 9.712 9.712 0 01-2.096 1.235l-.123.056c-.079.036-.154.071-.242.105a9.691 9.691 0 01-2.07.574 11.85 11.85 0 01-6.002-.526 12.639 12.639 0 01-4.635-2.865 12.788 12.788 0 01-4.039-9.177A10.518 10.518 0 0115.415 2.93l.154-.03a10.555 10.555 0 011.325-.193 11.654 11.654 0 012.009-.002 12.61 12.61 0 016.936 2.913 12.851 12.851 0 014.732 9.781 11.23 11.23 0 01-.672 3.83z"/><path d="M25.463 13.183l-4.012-.942-1.794-3.797a.457.457 0 00-.367-.26.368.368 0 00-.367.195l-1.794 3.474-4.012.224a.364.364 0 00-.33.249.432.432 0 00.103.428l2.903 3.09-.685 3.935a.445.445 0 00.163.414.42.42 0 00.43.07l3.589-1.565 3.588 2.208a.439.439 0 00.19.064.382.382 0 00.24-.057.376.376 0 00.164-.385l-.686-4.057 2.903-2.57a.386.386 0 00.104-.41.462.462 0 00-.33-.308z"/></svg>