<svg data-tags="illustration,report,data" xmlns="http://www.w3.org/2000/svg" viewBox="0 0 40 40"><path d="M8.561 8.137l6.542 1.2a.967.967 0 00.182.016 1 1 0 00.18-1.984L8.923 6.17a1 1 0 10-.362 1.967z"/><path d="M39.682 9.023c0-.007.004-.013.004-.02a4.694 4.694 0 00-3.979-4.627c-.028-.007-.051-.025-.081-.03L6.746.237a.956.956 0 00-.23-.063L6.013.14a4.705 4.705 0 00-4.7 4.7l.001.005v28.56a1 1 0 00.814.983l28.967 5.51a1.025 1.025 0 00.186.018h.001a.987.987 0 00.364-.073.96.96 0 00.113-.064.716.716 0 00.287-.24.814.814 0 00.176-.325 1093.512 1093.512 0 01.06-.298V29.61l6.005-4.813a1.963 1.963 0 00.727-1.413 2.267 2.267 0 00-.524-1.611 2.177 2.177 0 00-3.018-.442l-3.19 2.557v-8.042l6.19 1.347a1.007 1.007 0 00.214.022.984.984 0 00.371-.079c.02-.007.035-.02.054-.03a.988.988 0 00.251-.169c.022-.02.039-.042.058-.065a.972.972 0 00.154-.228 1423.25 1423.25 0 01.089-.216.947.947 0 00.002-.133c.002-.029.016-.054.016-.083zM25.34 32.943l1.575-.19 1.698-.217.008-.006a1.098 1.098 0 00.16-.114l1.503-1.204v6.496l-26.968-5.13V4.837A2.693 2.693 0 015.92 2.14l25.654 3.65a4.671 4.671 0 00-1.285 3.186c0 .01-.006.018-.006.028V25.49l-4.366 3.5a.378.378 0 00-.136.209l-.537 1.532-.51 1.467a.579.579 0 00.605.746z"/><path d="M23.238 13.855a.51.51 0 00-.068-.278c-.01-.028-.018-.055-.03-.081a.779.779 0 00-.311-.355.98.98 0 00-.145-.09.874.874 0 00-.175-.065c-.017-.005-.031-.014-.048-.018l-4.54-.965a1 1 0 00-.415 1.957l2.452.52-3.407 2.683-2.675-3.243a.999.999 0 00-1.39-.15l-4.623 3.64A1 1 0 009.1 18.981l3.856-3.035 2.675 3.243a1 1 0 001.39.15l4.303-3.388.088 2.504a.999.999 0 00.998.965h.036a.999.999 0 00.964-1.035l-.157-4.475c0-.02-.012-.037-.014-.056zM9.835 26.466l-.74-.157a1 1 0 00-1.208.978v2.87a1.001 1.001 0 00.792.979l.74.157a1 1 0 001.208-.978v-2.87a1.001 1.001 0 00-.792-.979zm3.991-4.6l-.74-.157a1 1 0 00-1.207.979v8.318a1.001 1.001 0 00.792.979l.739.157a1 1 0 001.208-.979v-8.318a1.001 1.001 0 00-.792-.979zm3.991 3.64l-.74-.157a1 1 0 00-1.207.978v5.527a1.001 1.001 0 00.792.978l.74.158a1 1 0 001.207-.979v-5.526a1.001 1.001 0 00-.792-.979z"/></svg>