<svg data-tags="illustration" xmlns="http://www.w3.org/2000/svg" viewBox="0 0 40 40"><defs><clipPath id="noRecomendations_a"><path d="M12.021 11.904l10.317 2.192v14.957L12.021 26.86V11.904z"/></clipPath></defs><path d="M39.867 9.669a.985.985 0 00-.007-.101c-.002-.012-.009-.021-.011-.033a1.962 1.962 0 00-.105-.258.844.844 0 00-.273-.298.974.974 0 00-.12-.081c-.011-.006-.02-.015-.03-.02a1.41 1.41 0 01-.196-.072L4.351.129a1.005 1.005 0 00-.862.186L.506 2.665H.505l-.001.002-.006.004a.981.981 0 00-.252.314c-.011.02-.022.038-.031.06a.988.988 0 00-.092.394l-.003.014v25.75a1 1 0 00.759.971l3.574.89L6.12 36.95c.006.023.021.04.029.061a1.192 1.192 0 00.195.324c.016.019.023.042.04.06.014.013.032.017.047.03a.986.986 0 00.214.139.782.782 0 00.436.114h.003a.974.974 0 00.27-.038c.02-.005.032-.02.05-.026a.971.971 0 00.177-.09.97.97 0 00.168-.115c.015-.014.035-.019.05-.034l4.297-4.413 23.543 5.871a1.018 1.018 0 00.217.027c.01 0 .017.005.026.005a1 1 0 00.615-.211l3.002-2.346a.999.999 0 00.385-.788V9.777a.966.966 0 00-.016-.108zM34.88 36.583l-22.858-5.7a.95.95 0 00-.158-.007.753.753 0 00-.366.037.953.953 0 00-.164.06.974.974 0 00-.171.117.936.936 0 00-.103.07l-3.488 3.582-1.353-4.783a.93.93 0 00-.05-.095.974.974 0 00-.104-.202.954.954 0 00-.118-.132.79.79 0 00-.338-.216.936.936 0 00-.108-.051l-3.38-.84V4.737l26.91 6.716 5.849 1.46z"/><g clip-path="url(#noRecomendations_a)"><path fill-rule="evenodd" d="M17.364 15.006a.448.448 0 00-.391.09.495.495 0 00-.162.383.747.747 0 00.162.453.69.69 0 00.39.256 2.29 2.29 0 01.777.329 2.75 2.75 0 01.657.609 2.87 2.87 0 01.44.796 2.562 2.562 0 01.154.861.754.754 0 00.17.438.688.688 0 00.382.245.45.45 0 00.383-.083.487.487 0 00.17-.365 4.243 4.243 0 00-.92-2.56 3.922 3.922 0 00-2.212-1.452zm-1.29-2.116a5.564 5.564 0 013.38 1.157 7.263 7.263 0 012.387 3.1 6.214 6.214 0 01.358 3.692 4.22 4.22 0 01-1.828 2.679 2.012 2.012 0 00-.943 1.374l-4.458-.947a.114.114 0 00-.052-.004 3.102 3.102 0 00-.84-1.69 7.303 7.303 0 01-1.738-2.854 6.103 6.103 0 01-.205-3.137 4.34 4.34 0 011.392-2.425 3.995 3.995 0 012.548-.945zm3.317 13.175v.984a1.16 1.16 0 01-.38.892 1.048 1.048 0 01-.91.212l-1.842-.392a1.56 1.56 0 01-.537-.254 1.856 1.856 0 01-.439-.453 1.88 1.88 0 01-.266-.574 1.608 1.608 0 01-.048-.599v-.756z"/></g></svg>