<svg data-tags="illustration,tasks" xmlns="http://www.w3.org/2000/svg" viewBox="0 0 40 40"><path d="M38.896 18.493a2.177 2.177 0 00-3.018-.442l-1.144.918V6.715a.966.966 0 00-.017-.114.982.982 0 00-.01-.116c-.002-.01-.007-.017-.01-.026a.982.982 0 00-.052-.13.994.994 0 00-.057-.128.999.999 0 00-.08-.103.99.99 0 00-.094-.112 1.002 1.002 0 00-.105-.077.984.984 0 00-.123-.083l-.015-.01a3.877 3.877 0 01-.237-.08L6.344.106a.991.991 0 00-.82.194l-2.92 2.3-.007.007-.006.004c-.007.005-.01.014-.016.02a.98.98 0 00-.224.287c-.014.025-.028.048-.039.074a.988.988 0 00-.083.372c0 .007-.005.014-.005.021v29.91a1 1 0 00.8.98l27.58 5.62a.979.979 0 00.2.02.703.703 0 00.433-.113.987.987 0 00.183-.099l2.93-2.29a1.001 1.001 0 00.384-.788V24.691l3.959-3.174a1.963 1.963 0 00.727-1.412 2.267 2.267 0 00-.524-1.612zM4.224 4.61l25.58 5.221V22.92l-3.482 2.79a.378.378 0 00-.136.21l-.537 1.531-.51 1.468a.579.579 0 00.605.745l1.575-.19 1.698-.216.008-.007a1.099 1.099 0 00.16-.114l.619-.495v9.049l-25.58-5.212z"/><path d="M23.059 16.219l-9.43-2.004a1 1 0 10-.417 1.957l9.43 2.004a1.02 1.02 0 00.21.021 1 1 0 00.207-1.978zm0 5.621l-9.43-2.006a1 1 0 10-.417 1.957l9.43 2.005a1.02 1.02 0 00.21.022 1 1 0 00.207-1.979zm0 5.557l-9.43-2.005a1 1 0 10-.417 1.957l9.43 2.005a1.02 1.02 0 00.21.021 1 1 0 00.207-1.978zM8.374 13.082a.812.812 0 00-1.034.814 1.348 1.348 0 001.034 1.254.812.812 0 001.034-.815 1.348 1.348 0 00-1.034-1.253zm0 5.625a.812.812 0 00-1.034.814 1.348 1.348 0 001.034 1.254.812.812 0 001.034-.815 1.348 1.348 0 00-1.034-1.253zm0 5.625a.812.812 0 00-1.034.814A1.348 1.348 0 008.374 26.4a.812.812 0 001.034-.815 1.348 1.348 0 00-1.034-1.253z"/></svg>