<svg data-tags="template,illustration" xmlns="http://www.w3.org/2000/svg" viewBox="0 0 40 40"><path d="M38.385 4.694c-.005-.023-.002-.046-.009-.07l-.002-.004a.999.999 0 00-.117-.26c-.017-.027-.041-.047-.06-.072a.993.993 0 00-.126-.144 1.003 1.003 0 00-.094-.063.985.985 0 00-.124-.085l-.023-.007a1.003 1.003 0 00-.104-.034.992.992 0 00-.174-.047c-.009 0-.017-.005-.026-.006L4.688.157A.98.98 0 003.96.36L1.954 1.922c-.025.02-.042.047-.066.07-.016.015-.03.031-.045.048a.984.984 0 00-.172.254c-.008.017-.018.032-.025.05a.992.992 0 00-.074.368v32.393a.94.94 0 00.023.115.977.977 0 00.046.229.962.962 0 00.073.14.972.972 0 00.122.18.975.975 0 00.129.11.962.962 0 00.17.116.978.978 0 00.183.059.946.946 0 00.137.044l32.84 3.746a.898.898 0 00.112.007h.001l.008-.002a.998.998 0 00.332-.061 332.124 332.124 0 00.274-.148l2.005-1.562a1 1 0 00.386-.789V4.895a.984.984 0 00-.028-.2zM3.57 3.832l30.836 3.516v30.383L3.571 34.213z"/><path d="M13.783 8.122l-7.06-.87a1.014 1.014 0 00-.783.243 1 1 0 00-.338.75v6.27a1 1 0 00.878.992l7.06.87a1.025 1.025 0 00.121.008 1 1 0 001-1v-6.27a1 1 0 00-.878-.993zm17.708 1.75L19.476 8.397a.99.99 0 00-.785.243 1.002 1.002 0 00-.337.749V31.65a1 1 0 00.878.992l12.015 1.475a1.038 1.038 0 00.122.008 1 1 0 001-1v-22.26a1 1 0 00-.878-.993zM30.37 31.996l-10.015-1.23V10.519l10.015 1.23zM13.785 18.83l-7.057-.868a.983.983 0 00-1.115.87 1 1 0 00.87 1.115l7.058.867a.886.886 0 00.123.008 1 1 0 00.121-1.993zm0 5.565l-7.057-.866a.982.982 0 00-1.115.87 1 1 0 00.87 1.114l7.058.866a.886.886 0 00.123.008 1 1 0 00.121-1.992zm0 5.565l-7.057-.866a.98.98 0 00-1.115.87 1 1 0 00.87 1.114l7.058.867a.886.886 0 00.123.007 1 1 0 00.121-1.992z"/></svg>