<svg data-tags="theme,wheel,chart" xmlns="http://www.w3.org/2000/svg" viewBox="0 0 40 40"><path d="M39.943 21.374a20.408 20.408 0 00-5.507-13.8 20.605 20.605 0 00-12.4-6.555V.975l-.912-.08a18.245 18.245 0 00-7.454.869A16.864 16.864 0 005.58 5.9l-.003.003A17.258 17.258 0 00.063 18.797a20.316 20.316 0 005.505 13.788l.001.001.002.002a20.547 20.547 0 0013.302 6.678.863.863 0 00.087.004c.529.043 1.055.069 1.578.069a17.76 17.76 0 005.736-.937l.032-.01a16.913 16.913 0 008.013-4.031l.002-.003h.001a17.262 17.262 0 005.621-12.983zm-17.248 3.158a1.871 1.871 0 01-.277.23 1.016 1.016 0 00-.124.088 1.866 1.866 0 01-.251.18c-.095.058-.2.114-.304.17a.84.84 0 00-.139.004.85.85 0 00-.131-.002 1.743 1.743 0 01-.18.001 5.04 5.04 0 01-.256-.017 6.13 6.13 0 01-5.48-5.946 4.792 4.792 0 011.539-3.604l.01-.006a4.067 4.067 0 01.372-.306 7.88 7.88 0 00.292-.214 1.022 1.022 0 00.208-.1c.032-.02.064-.034.096-.053l.08-.003c.134-.003.279 0 .428.006.093.005.178.006.284.015a5.918 5.918 0 013.82 2 5.784 5.784 0 011.569 3.937 4.822 4.822 0 01-1.556 3.62zm3.5-4.54c-.006-.052-.021-.102-.028-.153q-.048-.336-.124-.665a8.788 8.788 0 00-.056-.233 7.742 7.742 0 00-.651-1.657c-.027-.05-.057-.1-.086-.15q-.184-.328-.4-.639c-.023-.032-.04-.067-.062-.098l6.751-6.16q.475.57.903 1.172c.047.067.087.138.134.206.236.342.466.689.678 1.045.1.17.188.346.283.518.144.26.292.517.423.783.106.215.197.436.295.655.102.229.21.456.303.688.098.246.18.497.268.746.074.212.154.421.22.635.082.263.149.53.219.798.053.205.112.41.159.617.06.264.104.531.152.798.038.218.08.435.111.654.035.244.056.49.08.735.017.181.034.363.046.545l-2.822-.247zm-5.36-16.255l.012.003c.45.09.898.201 1.341.328.142.04.281.091.422.135.302.095.604.19.902.3.167.063.33.135.496.202.267.109.534.218.797.339.173.08.343.168.514.253.25.125.498.251.743.387.171.096.34.197.509.298a19.093 19.093 0 011.198.777q.34.24.67.494a18.608 18.608 0 011.11.924c.147.131.294.262.437.398.066.063.128.13.193.195l-6.733 6.144c-.04-.034-.083-.062-.123-.095q-.26-.22-.535-.416c-.067-.047-.132-.096-.2-.141a7.91 7.91 0 00-.76-.45c-.033-.018-.07-.032-.103-.049a7.851 7.851 0 00-.96-.396q-.32-.11-.65-.19c-.052-.013-.102-.033-.155-.045V3.58c.284.045.572.095.875.157zm3.998 21.404q.174-.225.326-.462c.049-.076.099-.15.144-.227a6.666 6.666 0 00.33-.633c.013-.031.031-.06.045-.092a6.78 6.78 0 00.274-.763c.025-.083.043-.168.065-.251a6.99 6.99 0 00.123-.57c.008-.05.024-.096.032-.146l9.656.844c-.005.09-.005.183-.011.273-.015.205-.035.408-.057.611-.026.252-.057.503-.095.751q-.046.3-.104.595-.07.367-.158.727a15.55 15.55 0 01-.15.58c-.066.236-.141.468-.219.699a13.93 13.93 0 01-.197.564c-.086.226-.182.448-.278.67-.08.182-.157.365-.244.544-.105.219-.223.43-.339.643-.094.173-.184.348-.285.517-.133.222-.28.436-.424.65-.101.15-.195.304-.301.45-.224.31-.464.608-.712.901-.04.046-.073.096-.113.141q-.253.3-.525.582l-6.875-7.468c.034-.041.06-.088.092-.13zM6.219 8.074l6.767 7.36c-.024.03-.041.063-.065.093-.053.068-.097.141-.148.211a6.632 6.632 0 00-.456.731 6.74 6.74 0 00-.131.254 6.787 6.787 0 00-.377.947c-.008.027-.02.051-.028.078a6.822 6.822 0 00-.216.963l-9.477-.83a15.241 15.241 0 014.13-9.807zm7.944-4.37c.024-.004.048-.012.072-.019.051-.01.103-.015.154-.025.494-.09.992-.155 1.492-.202.124-.011.248-.024.372-.033.53-.037 1.063-.05 1.599-.037l.108.006v9.56c-.08.004-.16.01-.24.017a6.505 6.505 0 00-2.117.51l-.004.002-.008.002-.004.003a6.542 6.542 0 00-.914.475c-.042.025-.085.048-.126.075-.027.017-.056.031-.082.049l-6.776-7.37a14.924 14.924 0 016.474-3.013zM8.365 20.438l3.168.277c.006.05.021.098.028.148q.05.35.131.692c.02.083.039.165.061.247a7.797 7.797 0 00.267.813l.016.044a7.951 7.951 0 00.396.83c.037.066.076.13.115.196q.185.319.4.622c.027.038.048.08.076.118l-6.64 6.059A18.325 18.325 0 012.098 19.89zm6.023 5.449c.044.037.087.072.128.104l.013.007.034.026c.091.077.189.151.292.228l.135.098c.146.101.29.192.438.286.18.111.36.21.515.286a4.632 4.632 0 00.687.3 3.734 3.734 0 00.567.197 7.536 7.536 0 00.763.196v9.528a18.558 18.558 0 01-10.22-5.19zm5.572 11.441v-9.582a2.413 2.413 0 00.278-.023c.035-.005.114-.016.148-.024.01 0 .097-.011.107-.012a5.191 5.191 0 00.616-.124c.16-.04.319-.085.476-.14.013-.004.025-.01.038-.013a2.638 2.638 0 00.295-.103l.01-.004.119-.045.109-.05c.066-.028.133-.049.197-.083a.983.983 0 00.105-.044c.22-.11.44-.228.629-.345q.092-.056.178-.115l6.866 7.459a14.945 14.945 0 01-4.402 2.396c-.022.006-.044.012-.066.02a15.712 15.712 0 01-5.703.832z"/></svg>