<svg data-tags="empty state,illustration,case,ticket" xmlns="http://www.w3.org/2000/svg" viewBox="0 0 40 40"><path d="M37.797 28.011a1.005 1.005 0 00-.427-.635 1.02 1.02 0 00-.752-.148l-2.196.444-.65-2.77 1.968-.393a1 1 0 00.784-1.174l-1.006-5.073a1 1 0 00-1.18-.785l-2.206.448-.658-2.8 2.129-.427a1 1 0 00.783-1.175L33.38 8.452a1 1 0 00-1.176-.786l-2.371.472-.182-.775a1 1 0 00-1.255-.734l-2.324.682L24.628.977a.999.999 0 00-1.37-.695l-21.49 9.26a.999.999 0 00-.58 1.141l6.46 28.34a1.016 1.016 0 00.984.777h.001a.864.864 0 00.122-.007l26.61-3.26a1 1 0 00.852-1.22l-.153-.652 1.972-.4a1.001 1.001 0 00.78-1.177zm-4.045-8.375l.616 3.108-1.054.21-.724-3.081zm-2.138-9.814l.617 3.111-1.214.244-.727-3.092zm-8.668-7.229l6.287 27.591-19.886 7.29L3.324 11.05zm12.66 30.12l-.726-3.093 1.154-.233.626 3.113z"/><path d="M9.956 17.06a1.165 1.165 0 00.657.728 1.596 1.596 0 001.148-.042l2.419-.842 2.918 8.384a1.857 1.857 0 00.81 1.09 1.389 1.389 0 001.151.073 1.37 1.37 0 00.846-.764 1.868 1.868 0 00-.046-1.36l-2.918-8.384 2.419-.842a1.628 1.628 0 00.932-.68 1.154 1.154 0 00.073-.983 1.175 1.175 0 00-.662-.73 1.61 1.61 0 00-1.161.042l-7.6 2.645a1.618 1.618 0 00-.912.667 1.153 1.153 0 00-.074.999z"/></svg>