<svg data-tags="topic,listening,research" xmlns="http://www.w3.org/2000/svg" viewBox="0 0 40 40"><path d="M39.867 9.669a.985.985 0 00-.007-.101c-.002-.012-.009-.021-.011-.033a1.963 1.963 0 00-.105-.258.844.844 0 00-.273-.298.974.974 0 00-.12-.081c-.011-.006-.02-.015-.03-.02a1.41 1.41 0 01-.196-.072L4.351.129a1.005 1.005 0 00-.862.186L.506 2.665H.505l-.001.002-.006.004a.981.981 0 00-.252.314c-.011.02-.022.038-.031.06a.988.988 0 00-.092.394l-.003.014v25.75a1 1 0 00.759.971l3.574.89L6.12 36.95c.006.023.021.04.029.061a1.192 1.192 0 00.195.324c.016.019.023.042.04.06.014.013.032.017.047.03a.986.986 0 00.214.139.782.782 0 00.436.114h.003a.974.974 0 00.27-.038c.02-.005.032-.02.05-.026a.971.971 0 00.177-.09.972.972 0 00.168-.115c.015-.014.035-.019.05-.034l4.297-4.413 23.543 5.871a1.019 1.019 0 00.217.027c.01 0 .017.005.026.005a1 1 0 00.615-.211l3.002-2.346a.999.999 0 00.385-.788V9.777a.966.966 0 00-.016-.108zM34.88 36.583l-22.858-5.7a.95.95 0 00-.158-.007.754.754 0 00-.366.037.953.953 0 00-.164.06.974.974 0 00-.171.117.938.938 0 00-.103.07l-3.488 3.582-1.353-4.783a.928.928 0 00-.05-.095.973.973 0 00-.104-.202 1.365 1.365 0 00-.268-.258.974.974 0 00-.188-.09.935.935 0 00-.108-.051l-3.38-.84V4.737l26.91 6.716 5.849 1.46z"/><path d="M25.123 23.347l-1.572-.378c-.626-.151-1.148.125-1.161.605l-.114 4.199 3.833.924.114-4.199a1.346 1.346 0 00-1.1-1.15zm-5.508-10.303l-1.571-.378c-.627-.151-1.148.125-1.162.615l-.356 13.105 3.833.924.356-13.105a1.345 1.345 0 00-1.1-1.16zm-5.853 2.443l-1.572-.38c-.626-.15-1.148.127-1.161.616L10.777 25l3.833.924.252-9.276a1.345 1.345 0 00-1.1-1.161z"/></svg>