<svg data-tags="subscriber,person,profile" xmlns="http://www.w3.org/2000/svg" viewBox="0 0 40 40"><path d="M39.873 21.06A21.288 21.288 0 0020.773.29a17.365 17.365 0 00-13.61 4.537c-.033.024-.076.063-.12.101A17.273 17.273 0 00.25 18.932a20.737 20.737 0 004.78 13.056l.004.005a21.076 21.076 0 0014.316 7.71 17.597 17.597 0 0013.762-4.665 1.82 1.82 0 00.062-.057 17.265 17.265 0 006.7-13.92zM8.345 6.562a3.03 3.03 0 00.124-.104 15.957 15.957 0 0110.88-2.953A19.06 19.06 0 0136.448 22.1a15.763 15.763 0 01-3.488 10.034c-.08-.132-.168-.257-.252-.386-.083-.129-.164-.258-.25-.384a18.094 18.094 0 00-.4-.554c-.084-.114-.166-.23-.253-.342-.154-.2-.316-.392-.48-.584-.074-.089-.146-.18-.223-.268q-.362-.413-.748-.802c-.036-.037-.075-.07-.111-.107-.224-.22-.45-.437-.684-.646-.098-.087-.2-.169-.299-.254-.178-.152-.355-.304-.538-.45-.117-.092-.238-.179-.357-.268-.172-.13-.344-.26-.52-.383-.128-.089-.259-.173-.388-.26a18.008 18.008 0 00-.526-.337 18.161 18.161 0 00-.412-.242 18.16 18.16 0 00-.964-.519q-.275-.137-.554-.264a17.66 17.66 0 00-1.012-.424 16.864 16.864 0 00-.444-.167 17.47 17.47 0 00-.599-.197c-.147-.046-.293-.093-.44-.136a18.21 18.21 0 00-.64-.165c-.14-.034-.28-.072-.421-.103a17.3 17.3 0 00-.72-.136c-.12-.021-.238-.047-.359-.065a16.677 16.677 0 00-2.179-.191c-.12-.003-.238.002-.357.002-.239 0-.478 0-.715.01-.14.006-.277.019-.415.028-.215.015-.429.03-.641.053-.144.016-.286.037-.428.056-.204.028-.407.057-.608.093-.144.025-.287.055-.43.085a15.387 15.387 0 00-1.009.243q-.283.08-.561.168a14.696 14.696 0 00-.962.346c-.133.054-.266.107-.397.163a16.32 16.32 0 00-.536.248c-.125.06-.252.12-.376.184-.18.093-.354.193-.53.293-.115.066-.231.13-.345.198-.187.115-.369.237-.55.36-.095.064-.192.124-.285.19q-.375.267-.732.559l-.117.096q-.353.294-.687.61c-.09.085-.175.178-.263.266-.147.148-.295.295-.436.45-.098.107-.19.22-.285.33-.123.145-.246.288-.364.437-.096.122-.188.249-.28.374-.074.1-.153.197-.224.3a18.429 18.429 0 01-3.405-10.534A15.453 15.453 0 018.345 6.56z"/><ellipse cx="19.3" cy="14.126" rx="6.336" ry="6.915" transform="rotate(-43.747 19.3 14.126)"/></svg>