<svg xmlns="http://www.w3.org/2000/svg" viewBox="0 0 79 79"><circle cx="39.2" cy="39.2" r="39.2" fill="#f8f8fa"/><path d="M24.8 29.7c.3 0 .6-.1.9-.2.3-.1.6-.3.8-.5.2-.2.4-.5.5-.8.1-.3.2-.6.2-.9V27l4.8-3.2c.4.2.8.4 1.3.4h.2l6.2 10.7c-.2.3-.4.8-.5 1.2 0 .4 0 .9.2 1.2.2.4.4.7.8 1 .3.3.7.4 1.2.5.4.1.9 0 1.3-.1.4-.2.8-.4 1-.7.3-.3.5-.7.5-1.1.1-.4 0-.9-.1-1.3l5.5-5.1c.5.2 1.1.3 1.7.1.6-.2 1-.5 1.4-1 .3-.5.5-1.1.5-1.6s-.3-1.1-.7-1.6c-.4-.4-.9-.7-1.5-.8-.6-.1-1.2 0-1.7.3s-.9.8-1.1 1.3c-.2.5-.2 1.1 0 1.7L42.7 34c-.3-.1-.6-.2-.9-.2h-.2L35.4 23c.2-.3.4-.7.4-1.1s0-.8-.1-1.1c-.1-.4-.3-.7-.6-1-.3-.3-.6-.5-1-.6-.4-.1-.8-.1-1.1-.1-.4.1-.7.2-1.1.4-.3.2-.6.5-.7.9-.2.3-.3.7-.3 1.1v.4l-4.8 3.2c-.3-.2-.7-.3-1.1-.4-.4 0-.8 0-1.1.1-.4.1-.7.4-.9.6-.3.3-.5.6-.6 1-.1.4-.1.8-.1 1.1.1.4.2.7.5 1 .2.3.5.6.9.7.3.4.7.5 1.1.5zm17.9 17.7h-1.9c-.7.1-1.3.4-1.7.9-.4.5-.6 1.1-.6 1.8v6.1c0 .7.2 1.3.6 1.8.4.5 1 .8 1.7.9h1.9c.7-.1 1.3-.4 1.7-.9.4-.5.6-1.1.6-1.8v-6.1c0-.7-.2-1.3-.6-1.8-.4-.5-1-.8-1.7-.9zm.5 8.8c0 .1 0 .3-.1.4-.1.1-.2.2-.4.2h-1.9c-.1 0-.3-.1-.4-.2-.1-.1-.1-.3-.1-.4v-6.1c0-.1 0-.3.1-.4.1-.1.2-.2.4-.2h1.9c.1 0 .3.1.4.2.1.1.1.3.1.4v6.1zm-8.9-20.6h-1.9c-.6 0-1.2.2-1.6.7s-.7 1-.7 1.6v18.8c0 .6.2 1.2.7 1.6.4.4 1 .7 1.6.7h1.9c.6 0 1.2-.2 1.6-.7.4-.4.7-1 .7-1.6V37.8c0-.6-.2-1.2-.7-1.6-.4-.4-1-.6-1.6-.6zm.5 21c0 .1 0 .2-.1.3-.1.1-.2.1-.3.1h-1.9c-.1 0-.2 0-.3-.1-.1-.1-.1-.2-.1-.3V37.8c0-.1 0-.2.1-.3.1-.1.2-.1.3-.1h1.9c.1 0 .2 0 .3.1.1.1.1.2.1.3v18.8zm-9.1-17.7h-2c-.7 0-1.3.3-1.7.8-.5.5-.7 1.1-.7 1.8v14.9c0 .7.2 1.3.7 1.8.5.5 1.1.8 1.7.8h2c.7 0 1.3-.3 1.7-.8.5-.5.7-1.1.7-1.8v-15c0-.7-.2-1.3-.7-1.8-.4-.4-1-.7-1.7-.7zm.5 17.4c0 .1 0 .3-.1.4-.1.1-.2.2-.4.2h-2c-.1 0-.3-.1-.4-.2-.1-.1-.1-.3-.1-.4V41.4c0-.1 0-.3.1-.4.1-.1.2-.2.4-.2h2c.1 0 .3.1.4.2.1.1.1.3.1.4v14.9zm25.3-18.7h-2c-.7 0-1.3.3-1.8.9-.5.5-.7 1.2-.7 1.9v15.9c0 .7.2 1.4.7 1.9.5.5 1.1.8 1.8.9h2c.7 0 1.3-.3 1.8-.9.5-.5.7-1.2.7-1.9v-16c0-.7-.2-1.4-.7-1.9-.5-.5-1.1-.8-1.8-.8zm.5 18.6c0 .1 0 .3-.1.4-.1.1-.2.2-.4.2h-2c-.1 0-.3-.1-.4-.2-.1-.1-.1-.3-.1-.4V40.3c0-.1 0-.3.1-.4.1-.1.2-.2.4-.2h2c.1 0 .3.1.4.2.1.1.1.2.1.4v15.9z"/></svg>