<svg xmlns="http://www.w3.org/2000/svg" data-tags="empty state" viewBox="0 0 200 93"><g fill="none" fill-rule="evenodd" stroke="#0828CC"><g transform="translate(1 1)"><path d="M8.5 48v5M6 50.5h5M195.5 62v5m-2.5-2.5h5" stroke-linecap="square"/><circle cx="2.5" cy="32.5" r="2.5"/><circle cx="190.5" cy="76.5" r="2.5"/></g><path d="M75 26h23.022M75 58h23.022M75 32h48M75 44h48m-48-6h48M63 90.008V14.992c0-1.1.897-1.992 2-1.992h52.993c.556 0 1.327.32 1.715.708l14.584 14.584c.391.391.708 1.164.708 1.716v60"/><path d="M118.5 13.727v14.31c0 .823.67 1.493 1.493 1.493h14.31c.65 0 .69-.096.219-.567l-15.455-15.455c-.475-.475-.567-.438-.567.219z"/><path d="M75 64h48M75 76h48m-48-6h48" stroke-dasharray="4"/></g></svg>