<svg data-tags="illustration,error state,page not found,404" xmlns="http://www.w3.org/2000/svg" viewBox="0 0 40 40"><path d="M39.96 10.2a.956.956 0 00-.007-.1c-.003-.012-.01-.022-.012-.033a1.962 1.962 0 00-.105-.259.844.844 0 00-.273-.297.974.974 0 00-.12-.082c-.011-.006-.02-.015-.03-.02a1.416 1.416 0 01-.196-.072L4.443.661a1.008 1.008 0 00-.861.185L.591 3.203a.986.986 0 00-.251.31c-.013.025-.026.046-.037.071a.989.989 0 00-.088.379c0 .009-.006.016-.006.025v25.744a1 1 0 00.758.97l34.764 8.667a1.02 1.02 0 00.242.029.706.706 0 00.442-.118.988.988 0 00.174-.094l3.001-2.346a1.001 1.001 0 00.384-.788V10.308a.965.965 0 00-.015-.108zm-4.986 26.918L2.21 28.95V12.47l32.764 8.168zm0-18.541L2.21 10.409V5.27l32.764 8.176z"/><path d="M16.295 12.334l14.367 3.581a1.04 1.04 0 00.243.03 1 1 0 00.24-1.97L16.78 10.392a1 1 0 00-.485 1.941zM4.594 9.459a1.407 1.407 0 00.212.067.798.798 0 001.014-.798 1.327 1.327 0 00-1.014-1.23 1.244 1.244 0 00-.212-.023.783.783 0 00-.79.824 1.326 1.326 0 00.79 1.16zm3.219.77a1.407 1.407 0 00.212.067.798.798 0 001.014-.799 1.327 1.327 0 00-1.014-1.23 1.23 1.23 0 00-.212-.022.783.783 0 00-.79.824 1.326 1.326 0 00.79 1.16zm3.219.766a1.41 1.41 0 00.212.068.798.798 0 001.014-.799 1.327 1.327 0 00-1.014-1.23 1.23 1.23 0 00-.212-.022.783.783 0 00-.791.824 1.326 1.326 0 00.791 1.16zm-1.206 9.207l-1.147.903a1 1 0 001.236 1.573l1.184-.933 1.33 1.612a1 1 0 001.543-1.273l-1.3-1.577 1.146-.903a1 1 0 00-1.236-1.572l-1.184.932-1.33-1.613a1 1 0 10-1.543 1.274zm13.403 3.328l-1.147.903a1 1 0 001.236 1.573l1.184-.932 1.33 1.612a1 1 0 101.543-1.273l-1.301-1.577 1.147-.903a1 1 0 10-1.236-1.573l-1.184.933-1.33-1.612a1 1 0 10-1.543 1.273zm-9.846 4.554a1.001 1.001 0 00.728 1.213l4.79 1.194a1.04 1.04 0 00.242.03 1 1 0 00.242-1.971l-4.79-1.195a1.003 1.003 0 00-1.212.729z"/></svg>