<svg xmlns="http://www.w3.org/2000/svg" viewBox="0 0 100 100" data-tags="preview"><path d="M79.088 52.497l-18.77 2.829-23.68-10.484-18.422 3.495-17.14-5.99v18.12l12.93-4.808 21.184 4.576 28.955 4.41 18.804-7.655 15.975 1.098v-6.223z" fill="#40a3f5" fill-rule="evenodd" opacity=".1"/><path d="M36.637 44.842l23.68 10.484 18.771-2.829 19.836-.632V31.53H1.076v10.816l17.14 5.99z" fill="#4cd2e0" fill-rule="evenodd" opacity=".1"/><path d="M64.145 64.645l-28.955-4.41-21.184-4.576-12.93 4.809v8.004h97.848V58.088L82.949 56.99z" fill="#9e81eb" fill-rule="evenodd" opacity=".1"/><path d="M64.161 64.728h-.033l-28.955-4.427-21.15-4.56-12.914 4.793-.066-.15 12.963-4.808h.017l21.183 4.576 28.922 4.41 18.804-7.655h.017l15.975 1.098v.166l-15.959-1.098-18.804 7.655z" fill="#9e81eb"/><path d="M99.007 68.555H.993V31.53h.166v36.859h97.682V31.696h.166z" fill="#a9a9b2"/><path d="M60.3 55.41h-.016L36.637 44.924 18.2 48.42h-.016l-17.14-5.99.066-.167 17.107 5.99 18.438-3.494h.017l23.663 10.484 18.737-2.83 19.853-.632v.167l-19.836.632-18.787 2.83z" fill="#40a3f5"/><path d="M1.076 31.611v-.166l97.848.171v.166z" fill="#4cd2e0"/></svg>