<svg xmlns="http://www.w3.org/2000/svg" data-tags="error state" viewBox="0 0 200 93"><g opacity=".6"><path d="M180 .5H20A2.5 2.5 0 0017.5 3v90h1V3c0-.8.7-1.5 1.5-1.5h160c.8 0 1.5.7 1.5 1.5v88h1V3A2.5 2.5 0 00180 .5z"/><path d="M72 69a36.7 36.7 0 002.3 3.4l.8-.6a35.8 35.8 0 01-2.2-3.3l-.8.4zm5.5 5.8l-.7.7a36.2 36.2 0 002.9 2.8l.7-.7a35.6 35.6 0 01-2.9-2.8zm.7-18.5l1-.2a22.9 22.9 0 01-.4-4h-1c0 1.4.2 2.8.4 4.2zm5 11a26.6 26.6 0 002.8 3l.7-.8a25.5 25.5 0 01-2.7-2.8l-.8.6zm-4-7.1a25 25 0 001.8 3.7l.8-.5a24 24 0 01-1.6-3.6l-1 .4zm-8.7-7.7h6.3v-1h-6.3zM89.8 72l-.6.8 1.1.7-.9 1.4.9.6 1.4-2.3-.5-.3a25 25 0 01-1.4-1zM68.5 53.5h-1c.1 1.4.2 2.7.5 4l1-.1a32.3 32.3 0 01-.5-4zm.4 8c.4 1.3.8 2.6 1.4 3.8l.9-.4a34.2 34.2 0 01-1.4-3.7l-1 .3zm16.5 19.8a33.4 33.4 0 01-2-1.3l-.5.9a34.7 34.7 0 002.5 1.5l.2-.4.4.3 2.2-3.4-.9-.6-1.8 3zm-.6-59.2l.5.9a33.8 33.8 0 013.6-1.8l-.4-1a34.6 34.6 0 00-3.7 2zm-.5 13.3l-3-2.7-.6.8 3 2.6-.3.2-1-1-.8.7 2 1.7.3-.4a25 25 0 011.3-1.4l-.8-.7-.1.2zm7.2-4l-.5-1a25 25 0 00-3.5 2.1l.6.9a24 24 0 013.4-2zm10-7.1h1v4h-1zM96.2 18a34.4 34.4 0 00-4 1l.4.9 3.8-1-.2-1zm-1.4 10.9l.3 1a23.2 23.2 0 013.8-1l-.1-.9c-1.4.2-2.7.5-4 .9zm5.5-11.4v1h1.2v1.8h1v-2.8h-2.2zm-22 9.4l.7.8a34.7 34.7 0 013-2.6l-.6-.8a35.5 35.5 0 00-3 2.6zm-8 14.3l-1-.3c-.4 1.3-.8 2.6-1 3.9l1 .2a34.5 34.5 0 011-3.8zM67.4 52v.5h1.3v-1h-.3l.1-2.6-1-.1a36.2 36.2 0 00-.1 3.2zm11-6.9a25.3 25.3 0 00-.8 4l1 .1c.1-1.3.4-2.6.7-3.8l-1-.3zM76 28.7l-1 1.5.8.6.1-.2 2.9 2.7.7-.8-3-2.6.2-.2 1.1 1 .7-.7-2-1.7-.3.4zm-3.5 4.8a36.3 36.3 0 00-1.8 3.6l.9.4a35.2 35.2 0 011.8-3.5l-.9-.5zm7.3 7.8l.9.4a25 25 0 012-3.4l-.9-.6a26 26 0 00-2 3.6z"/></g><path d="M10.5 49h-1v2.5H7v1h2.5V55h1v-2.5H13v-1h-2.5zm187 16.5V63h-1v2.5H194v1h2.5V69h1v-2.5h2.5v-1zm-194-35a3 3 0 100 6 3 3 0 000-6zm0 5a2 2 0 110-4 2 2 0 010 4zm188 39a3 3 0 100 6 3 3 0 000-6zm0 5a2 2 0 110-4 2 2 0 010 4zm-89.5-62h-.5v11h.5c13.2 0 24.4 11 24.4 24 0 6.1-2.3 12-6.5 16.3l-.3.4.2.2a23 23 0 01-16.5 7 23 23 0 01-12-3.4l-.4-.3-5.6 9.6.4.3a33.6 33.6 0 0017.6 4.9 34 34 0 0025-11.2l.4-.4-.1-.1a34.6 34.6 0 008.9-23.3c0-19.3-16-35-35.5-35zm1.3 69c-5.9 0-11.6-1.6-16.6-4.5l4.6-7.9a24 24 0 0012 3.2c6.4 0 12.6-2.6 17.2-7.3l6.6 6.1a32.6 32.6 0 01-23.8 10.4zm18-17.7c4-4.5 6.1-10.2 6.1-16.3a25.2 25.2 0 00-24.9-25v-9c18.8.3 34 15.4 34 34 0 8.5-3 16.5-8.6 22.6l-6.6-6.3z"/><path fill-rule="evenodd" d="M97.4 26.4c1.4-2.3 3.8-2.3 5.2 0l8 13.2 15 24.5c1.4 2.3.3 4.2-2.5 4.2H77c-2.8 0-3.9-1.9-2.4-4.2l22.9-37.7z" clip-rule="evenodd"/><g fill="#FFF" fill-rule="evenodd" clip-rule="evenodd"><path d="M126 63.8l-23-37.6c-.8-1.3-1.8-2-3-2s-2.2.7-3 2L74 63.8c-.8 1.3-.9 2.5-.3 3.5.5 1 1.6 1.5 3.2 1.5H123c1.6 0 2.7-.5 3.2-1.5.6-1 .5-2.2-.3-3.5zm-.5 3c-.4.7-1.2 1-2.4 1H77c-1.2 0-2-.3-2.4-1-.3-.6-.2-1.5.4-2.5l23-37.6c.5-1 1.3-1.5 2.1-1.5s1.6.5 2.2 1.5L125 64.3c.6 1 .7 1.9.4 2.5z"/><path d="M98.8 57.3h3.2v3.2h-3.2zm0-17.3h3.2v14.2h-3.2z"/></g></svg>