<svg xmlns="http://www.w3.org/2000/svg" viewBox="0 0 668 304" data-tags="preview"><path fill="#A63B9F" fill-opacity=".05" fill-rule="evenodd" d="M310.9 80.1l-9.3-28.7c10.6-3.4 21.7-5.2 32.8-5.2v30.1c-8.2 0-16.1 1.4-23.5 3.8z" clip-rule="evenodd"/><path fill="#87BD66" fill-opacity=".05" fill-rule="evenodd" d="M274.8 105.7l-24-18.8c13.7-17.5 29.6-28.7 50.8-35.6l9.3 28.7c-14.4 4.8-27 13.9-36.1 25.7z" clip-rule="evenodd"/><path fill="#CBD756" fill-opacity=".05" fill-rule="evenodd" d="M260.9 169.1L231 176c-7.5-32.6-.8-62.8 19.8-89.1l24 18.8a75.58 75.58 0 00-15.8 46.4c0 5.8.7 11.5 1.9 17z" clip-rule="evenodd"/><path fill="#4CD2DF" fill-opacity=".05" fill-rule="evenodd" d="M323.8 227l-4.2 30.1C275.4 251 241 219.5 231 176l29.9-6.9c7 30.2 31.9 53.5 62.9 57.9z" clip-rule="evenodd"/><path fill="#40A3F5" fill-opacity=".05" fill-rule="evenodd" d="M408.4 167.9l29.8 6.3a105.98 105.98 0 01-118.6 82.9l4.2-30.1c3.5.5 7 .7 10.7.7 36.3.1 66.6-25.6 73.9-59.8z" clip-rule="evenodd"/><path fill="#9E81EB" fill-opacity=".05" fill-rule="evenodd" d="M334.4 76.3V46.2c58.6 0 106.1 47.5 106.1 106 0 8.3-.6 13.9-2.3 22l-29.8-6.3c1.1-5.1 1.7-10.4 1.7-15.8 0-41.8-33.8-75.7-75.5-75.7-.1-.1-.2-.1-.2-.1z" clip-rule="evenodd"/><path fill="#A63B9F" d="M310.6 80.7L301 51l.5-.2c10.7-3.5 21.7-5.2 32.9-5.2h.5v31.1h-.5c-8 0-15.8 1.3-23.3 3.7l-.5.3zm-8.4-29l9 27.8c7.3-2.3 14.9-3.6 22.6-3.6V46.7c-10.7 0-21.3 1.7-31.6 5z"/><path fill="#87BD66" d="M274.9 106.4L250.1 87l.3-.4c13.7-17.5 29.9-28.9 51.1-35.7l.5-.2 9.6 29.7-.5.2a75.19 75.19 0 00-35.9 25.4l-.3.4zm-23.4-19.6l23.2 18.1a75.13 75.13 0 0135.6-25.2l-9-27.8c-20.6 6.8-36.4 17.9-49.8 34.9z"/><path fill="#CBD756" d="M230.6 176.6l-.1-.5c-7.6-32.9-.9-63 19.9-89.5l.3-.4 24.8 19.4-.3.4a74.5 74.5 0 00-15.7 46.1c0 5.7.6 11.4 1.9 17l.1.5-30.9 7zm20.3-89c-20.2 26.1-26.8 55.6-19.5 87.8l29-6.7c-1.2-5.5-1.8-11.1-1.8-16.7 0-16.9 5.4-32.9 15.6-46.3l-23.3-18.1z"/><path fill="#4CD2DF" d="M320 257.7l-.5-.1c-21.8-3.1-41.6-12.3-57.4-26.7s-26.7-33.4-31.7-54.8l-.1-.5 30.9-7.1.1.5c6.9 30.1 32 53.2 62.5 57.5l.5.1-4.3 31.1zm-88.4-81.3c5 21 15.8 39.6 31.2 53.8 15.5 14.2 35 23.3 56.3 26.4l4.1-29.1c-30.5-4.5-55.6-27.6-62.7-57.7l-28.9 6.6z"/><path fill="#40A3F5" d="M334.5 258.7c-5 0-10-.3-15-1l-.5-.1 4.4-31.1.5.1c3.5.5 7.1.7 10.6.7 35.2 0 66.1-25 73.4-59.5l.1-.5 30.8 6.5-.1.5c-5.6 26.5-20.9 49.6-43.1 65.1a105.96 105.96 0 01-61.1 19.3zm-14.3-2a105.54 105.54 0 00117.4-82.1l-28.8-6.1c-7.6 34.7-38.7 59.8-74.2 59.8a69 69 0 01-10.2-.7l-4.2 29.1z"/><path fill="#9E81EB" d="M438.5 174.8l-30.8-6.5.1-.5c1.1-5.1 1.6-10.4 1.6-15.7 0-41.5-33.7-75.2-75-75.2h-.6V45.7h.5c58.8 0 106.6 47.8 106.6 106.5 0 8.4-.6 14-2.3 22.1l-.1.5zm-29.5-7.3l28.8 6.1c1.6-7.8 2.2-13.3 2.2-21.5 0-58-47.1-105.2-105.1-105.5v29.1c41.8.2 75.7 34.3 75.7 76.2-.1 5.4-.6 10.6-1.6 15.6z"/><path d="M467 52l-3-6-3 6h2.5v201H461l3 6 3-6h-2.5V52zm13.2 101.9c-.3.6-.5 1.3-.6 1.9-.1-.6-.3-1.3-.5-1.9l-2-5.5H476l3.1 8.6h1l3.1-8.6h-1.1l-1.9 5.5zm8.4-3.3c-.3 0-.8 0-1.1.1s-.7.2-1 .4l.3.7c.7-.3 1.3-.5 1.8-.5.4 0 .8.2 1 .4.2.2.3.6.3 1.1v.4h-1.1c-2.1 0-3.1.7-3.1 2 0 .6.1 1.1.5 1.4.4.3.9.5 1.5.5.5 0 .8-.1 1.2-.2.4-.1.7-.4 1-.8l.2.9v.1h.8v-4.4c0-.7-.2-1.3-.6-1.6-.4-.3-.9-.5-1.7-.5zm1.2 3.8c0 .6-.2 1.1-.5 1.4s-.8.5-1.4.5c-.4 0-.8-.1-1-.3-.2-.2-.3-.4-.3-.8 0-.5.1-.7.5-1s.9-.4 1.7-.4h1v.6zm5-6.5h1v9.1h-1zm9.5 6.1c0 .8-.2 1.4-.5 1.8s-.8.6-1.5.6c-.5 0-.8-.1-1.1-.4s-.4-.7-.4-1.2v-4.3h-.9v4.2c0 .8.2 1.4.6 1.8.4.4 1 .6 1.8.6.4 0 .9-.2 1.2-.3s.6-.4.8-.7h.1l.1.9h.8v-6.4h-1v3.4zm10.1-.7c0-.9-.2-1.6-.7-2.1s-1.1-.8-1.9-.8c-.9 0-1.6.3-2.1.9-.5.6-.8 1.5-.8 2.5s.3 1.8.8 2.4 1.3.9 2.2.9c.5 0 1-.1 1.3-.1s.7-.2 1-.3v-.9c-.7.3-1.4.4-2.1.4-.6 0-1.1-.2-1.5-.6-.4-.4-.6-.9-.6-1.7h4.4v-.6zm-4.4-.1c0-.6.2-1.1.5-1.4.3-.3.7-.5 1.2-.5s1 .2 1.3.5.4.8.4 1.4H510zm-360.8-8c-.5-.2-.9-.4-1.2-.5-.3-.1-.5-.3-.6-.5-.1-.2-.2-.4-.2-.7 0-.4.1-.7.4-.9.3-.2.7-.3 1.2-.3.7 0 1.4.1 2.1.4l.3-.9c-.7-.3-1.4-.5-2.3-.5-.8 0-1.5.2-2 .6-.5.4-.7.9-.7 1.6 0 .6.2 1.1.5 1.5.3.4.9.7 1.7 1 .6.2 1 .4 1.3.5.3.1.5.3.6.5.1.2.2.4.2.7 0 .5-.2.8-.5 1.1s-.8.4-1.5.4c-.4 0-.8 0-1.2-.1-.4-.1-.7-.3-1.1-.4v1c.5.3 1.3.4 2.3.4.9 0 1.7-.1 2.2-.6s.8-1 .8-1.8c0-.6 0-1.2-.4-1.5-.4-.3-1-.7-1.9-1zm8.5-1.8c-.9 0-1.6.3-2.1.9-.5.6-.8 1.5-.8 2.5s.3 1.8.8 2.4 1.3.9 2.2.9c.5 0 1-.1 1.3-.1s.7-.2 1-.3v-.9c-.7.3-1.4.4-2.1.4-.6 0-1.1-.2-1.5-.6-.4-.4-.6-.9-.6-1.7h4.4v-.6c0-.9-.2-1.6-.7-2.1s-1.1-.8-1.9-.8zm-1.8 2.8c0-.6.2-1.1.5-1.4s.7-.5 1.2-.5 1 .2 1.3.5.4.8.4 1.4h-3.4zm10.4-2c.2 0 .4.1.7.1s.5.1.7.2l.3-.8c-.1-.1-.4-.1-.7-.2-.3-.1-.6-.1-.9-.1-.9 0-1.7.3-2.2.9-.5.6-.8 1.4-.8 2.5 0 1 .2 1.8.8 2.4s1.3.9 2.2.9c.7 0 1.2-.1 1.4-.4v-.9c-.5.2-1.1.3-1.6.3-.6 0-1.1-.2-1.4-.6-.3-.4-.5-1-.5-1.8 0-1.7.7-2.5 2-2.5zm7.3 5.1c-.3 0-.6-.2-.8-.4-.2-.2-.3-.5-.3-.9v-3.8h1.9v-.8h-1.9v-1.5h-.6l-.4 1.4-.9.4v.5h.9v3.8c0 1.3.7 2 1.9 2h.6c.2 0 .4 0 .5-.1v-.7c-.1 0-.2.1-.4.1h-.5zm4.7-8.2c-.2 0-.3.1-.4.2-.1.1-.2.3-.2.5 0 .3.1.4.2.5.1.1.2.2.4.2s.3-.1.4-.2c.1-.1.2-.3.2-.5s-.1-.4-.2-.5c-.1-.1-.2-.2-.4-.2zm-.6 2.5h1v6.4h-1zm7.7-.1c-1 0-1.7.4-2.2.9s-.8 1.4-.8 2.4c0 .7.2 1.3.4 1.8s.6.9 1 1.2c.4.3.9.4 1.5.4.9 0 1.7-.3 2.2-.9.5-.6.8-1.5.8-2.5s-.3-1.8-.8-2.4c-.5-.6-1.2-.9-2.1-.9zm1.4 5.2c-.4.4-.9.6-1.5.6s-1.1-.1-1.4-.6c-.3-.5-.5-1.1-.5-1.9s.2-1.5.5-1.9c.3-.4.8-.6 1.4-.6.7 0 1.2.1 1.5.6s.5 1.1.5 1.9-.1 1.5-.5 1.9zm8.1-5.3c-.4 0-.9.2-1.2.3s-.6.4-.8.7l-.2-.9h-.8v6.4h1v-3.4c0-.8.2-1.5.5-1.8.3-.3.8-.5 1.5-.5.5 0 .8.1 1.1.4.3.3.4.7.4 1.2v4.2h.8v-4.2c0-.8-.3-1.4-.6-1.8-.3-.4-.9-.6-1.7-.6zm8.4 2.9c-.5-.2-.9-.4-1.1-.5-.2-.1-.3-.2-.4-.3-.1-.1-.1-.2-.1-.4 0-.3.2-.5.4-.6.2-.1.5-.2 1-.2.6 0 1.2.1 1.8.4l.3-.8c-.6-.3-1.3-.4-2-.4-.8 0-1.4.2-1.8.5-.4.3-.6.7-.6 1.2 0 .3 0 .6.2.8s.3.4.6.6c.3.2.7.4 1.3.6.7.2 1.1.5 1.3.6.2.1.3.4.3.6 0 .3-.1.6-.4.7-.3.1-.7.2-1.2.2-.3 0-.6 0-1-.1a3 3 0 01-1-.4v.9c.5.3 1.1.4 2 .4.8 0 1.4-.2 1.9-.5s.7-.8.7-1.4c0-.4-.5-.9-.7-1.1-.2-.2-.7-.5-1.5-.8z" fill="#A9A9B2"/></svg>