<svg xmlns="http://www.w3.org/2000/svg" data-tags="Loading state" viewBox="0 0 200 93"><path d="M10.5 49h-1v2.5H7v1h2.5V55h1v-2.5H13v-1h-2.5zm187 16.5V63h-1v2.5H194v1h2.5V69h1v-2.5h2.5v-1zm-194-35a3 3 0 100 6 3 3 0 000-6zm0 5a2 2 0 110-4 2 2 0 010 4zm188 39a3 3 0 100 6 3 3 0 000-6zm0 5a2 2 0 110-4 2 2 0 010 4zm-104-58h-34V72h1V51.5h13v11h12V73h1V62.5h65V72h1V21.5h-59zm32 1v15h-31v-15h31zm-65 0h33v15h-33v-15zm91 39h-77v-10h77v10zm0-11h-91v-12h91v12zm0-28v15h-25v-15h25z"/><path d="M54.5 22.5h33v15h-33zm34 0h31v15h-31zm32 0h25v15h-25zM54.5 80h-1v4h1v-.5H58v-1h-3.5zm0-8h-1v4h1v-2.5H58v-1h-3.5zm-1 16h1v3h-1zm92-5.5H142v1h3.5v.5h1v-4h-1zm0-10H142v1h3.5V76h1v-4h-1zm0 15.5h1v3h-1zM78 72.5h4v1h-4zm-8 0h4v1h-4zm-8 0h4v1h-4zm24 0h4v1h-4zm40 0h4v1h-4zm-8 0h4v1h-4zm16 0h4v1h-4zm-32 0h4v1h-4zm-8 0h4v1h-4zm16 0h4v1h-4zm-40 10h4v1h-4zm-8 0h4v1h-4zm48 0h4v1h-4zm-32 0h4v1h-4zm40 0h4v1h-4zm16 0h4v1h-4zm-8 0h4v1h-4zm-40 0h4v1h-4zm8 0h4v1h-4zm8 0h4v1h-4z" opacity=".6"/></svg>