<svg xmlns="http://www.w3.org/2000/svg" data-tags="error state" viewBox="0 0 200 93"><path d="M10.5 49h-1v2.5H7v1h2.5V55h1v-2.5H13v-1h-2.5zm187 16.5V63h-1v2.5H194v1h2.5V69h1v-2.5h2.5v-1zm-194-35a3 3 0 100 6 3 3 0 000-6zm0 5a2 2 0 110-4 2 2 0 010 4zm188 39a3 3 0 100 6 3 3 0 000-6zm0 5a2 2 0 110-4 2 2 0 010 4zm-104-58h-34V72h1V51.5h13v11h12V73h1V62.5h65V72h1V21.5h-59zm32 1v15h-31v-15h31zm-65 0h33v15h-33v-15zm91 39h-77v-10h77v10zm0-11h-91v-12h91v12zm0-28v15h-25v-15h25z"/><g opacity=".6"><path d="M180 .5H20A2.5 2.5 0 0017.5 3v90h1V3c0-.8.7-1.5 1.5-1.5h160c.8 0 1.5.7 1.5 1.5v88h1V3A2.5 2.5 0 00180 .5z"/><path d="M54.5 22.5h33v15h-33zm34 0h31v15h-31zm32 0h25v15h-25zM54.5 80h-1v4h1v-.5H58v-1h-3.5zm0-8h-1v4h1v-2.5H58v-1h-3.5zm-1 16h1v3h-1zm92-5.5H142v1h3.5v.5h1v-4h-1zm0-10H142v1h3.5V76h1v-4h-1zm0 15.5h1v3h-1zM78 72.5h4v1h-4zm-8 0h4v1h-4zm-8 0h4v1h-4zm24 0h4v1h-4zm40 0h4v1h-4zm-8 0h4v1h-4zm16 0h4v1h-4zm-32 0h4v1h-4zm-8 0h4v1h-4zm16 0h4v1h-4zm-40 10h4v1h-4zm-8 0h4v1h-4zm48 0h4v1h-4zm-32 0h4v1h-4zm40 0h4v1h-4zm16 0h4v1h-4zm-8 0h4v1h-4zm-40 0h4v1h-4zm8 0h4v1h-4zm8 0h4v1h-4z"/></g><path d="M10.3 48.8h-1v2.5H6.7v1h2.5v2.5h1v-2.5h2.6v-1h-2.6zm187 16.5v-2.5h-1v2.5h-2.6v1h2.6v2.5h1v-2.5h2.4v-1zm-194-35a3 3 0 100 6 3 3 0 000-6zm0 5a2 2 0 110-4 2 2 0 010 4zm188 39a3 3 0 100 6 3 3 0 000-6zm0 5a2 2 0 110-4 2 2 0 010 4zm-104-58h-34v50.5h1V51.3h13v11h12v10.5h1V62.3h65v9.5h1V21.3h-59zm32 1v15h-31v-15h31zm-65 0h33v15h-33v-15zm91 39h-77v-10h77v10zm0-11h-91v-12h91v12zm0-28v15h-25v-15h25z"/><path fill-rule="evenodd" d="M97.4 26.4c1.4-2.3 3.8-2.3 5.2 0l8 13.2 15 24.5c1.4 2.3.3 4.2-2.5 4.2H77c-2.8 0-3.9-1.9-2.4-4.2l22.9-37.7z" clip-rule="evenodd"/><g fill="#FFF" fill-rule="evenodd" clip-rule="evenodd"><path d="M126 63.8l-23-37.6c-.8-1.3-1.8-2-3-2s-2.2.7-3 2L74 63.8c-.8 1.3-.9 2.5-.3 3.5.5 1 1.6 1.5 3.2 1.5H123c1.6 0 2.7-.5 3.2-1.5.6-1 .5-2.2-.3-3.5zm-.5 3c-.4.7-1.2 1-2.4 1H77c-1.2 0-2-.3-2.4-1-.3-.6-.2-1.5.4-2.5l23-37.6c.5-1 1.3-1.5 2.1-1.5s1.6.5 2.2 1.5L125 64.3c.6 1 .7 1.9.4 2.5z"/><path d="M98.8 57.3h3.2v3.2h-3.2zm0-17.3h3.2v14.2h-3.2z"/></g></svg>