<svg xmlns="http://www.w3.org/2000/svg" data-tags="Loading state" viewBox="0 0 200 93"><path d="M90 70.5h4v1h-4zm16 0h4v1h-4zm-8 0h4v1h-4zm-16 0h4v1h-4zm32 0h4v1h-4zm8 0h4v1h-4zm-48 0h4v1h-4zm8 6h4v1h-4zm8 0h4v1h-4zm8 0h4v1h-4zm-24 0h4v1h-4zm40 0h4v1h-4zm-8 0h4v1h-4zm16 0h4v1h-4zm-24 6h4v1h-4zm-16 0h4v1h-4zm40 0h4v1h-4zm-48 0h4v1h-4zm32 0h4v1h-4zm-16 0h4v1h-4zm24 0h4v1h-4z" opacity=".6"/><path d="M10.5 49h-1v2.5H7v1h2.5V55h1v-2.5H13v-1h-2.5zm187 16.5V63h-1v2.5H194v1h2.5V69h1v-2.5h2.5v-1zm-194-35a3 3 0 100 6 3 3 0 000-6zm0 5a2 2 0 110-4 2 2 0 010 4zm188 39a3 3 0 100 6 3 3 0 000-6zm0 5a2 2 0 110-4 2 2 0 010 4zm-59.5-67H68c-2.5 0-4.5 2-4.5 4.5v73h1V63.5h71V90h1V17a4.5 4.5 0 00-4.5-4.5zm-67.5 50v-28h71v28h-71zm71-29h-71V17a3.5 3.5 0 013.5-3.5h64a3.5 3.5 0 013.5 3.5v16.5z"/><path d="M74 20.5h23v1H74zm0 6h50v1H74z"/></svg>