<svg data-tags="listening, illustration, profile" xmlns="http://www.w3.org/2000/svg" viewBox="0 0 40 40"><path d="M5.8 24.72l6.12 1.53a1.04 1.04 0 00.24.02 1 1 0 00.25-1.97l-6.12-1.52a1 1 0 00-.49 1.94z"/><path d="M38.85 9.3a.96.96 0 00-.01-.1l-.01-.03a1.96 1.96 0 00-.1-.26.84.84 0 00-.28-.3.97.97 0 00-.12-.08l-.03-.02a1.36 1.36 0 01-.2-.07L5.2.24a1.01 1.01 0 00-.85.18L1.52 2.65a.99.99 0 00-.25.3l-.04.08a.99.99 0 00-.09.38v24.38a1 1 0 00.76.97l24.25 6.04 1.71 3.79a2.19 2.19 0 103.99-1.8l-.29-.64 3.22.8a1.02 1.02 0 00.24.03.7.7 0 00.44-.12.99.99 0 00.18-.09l2.84-2.22a1 1 0 00.38-.79V9.41a.96.96 0 00-.01-.1zm-19.5 14.8a1.04 1.04 0 00.24.03 1 1 0 00.24-1.97l-3.75-.93a6.57 6.57 0 11.69 2.23zm9.75 6.61a2.14 2.14 0 00-1.88-1.27L26.57 28a8.56 8.56 0 10-12.55-7.56l.02.27-7.75-1.94a1 1 0 10-.49 1.95l8.58 2.14a8.51 8.51 0 0010.32 5.86l.7 1.54a2.18 2.18 0 00-.3 2.2L3.14 27V4.71l30.88 7.71V34.7l-3.5-.87z"/><path d="M8.41 11.28a3.03 3.03 0 00-3.25 1.38.48.48 0 00.03.53 5.03 5.03 0 003.07 1.92 4.13 4.13 0 00.72.06 3.52 3.52 0 002.33-.82l.02-.02a1.1 1.1 0 00.1-.1.48.48 0 00.1-.54 4.37 4.37 0 00-3.12-2.41zm-.08-.45A1.1 1.1 0 009.68 9.7a1.68 1.68 0 00-1.35-1.58 1.1 1.1 0 00-1.35 1.1 1.68 1.68 0 001.35 1.6z"/></svg>