<svg data-tags="illustration,support system" xmlns="http://www.w3.org/2000/svg" viewBox="0 0 40 40"><path d="M38.237 19.86V4.45a.986.986 0 00-.029-.2c-.005-.024-.002-.047-.008-.07l-.002-.004a.999.999 0 00-.118-.26.983.983 0 00-.064-.077.994.994 0 00-.12-.139.994.994 0 00-.1-.067.98.98 0 00-.12-.081c-.007-.004-.015-.004-.021-.007a2.817 2.817 0 00-.28-.081c-.009-.002-.016-.006-.025-.007l-16.04-1.83a.967.967 0 00-.728.204l-.925.72v-.22a.985.985 0 00-.029-.2c-.005-.024-.002-.048-.009-.071l-.001-.004a.999.999 0 00-.118-.261c-.017-.027-.04-.047-.06-.072a.993.993 0 00-.126-.143 1.003 1.003 0 00-.093-.064.985.985 0 00-.125-.084c-.007-.004-.015-.004-.022-.008a1 1 0 00-.104-.033.992.992 0 00-.175-.047c-.009-.002-.016-.006-.025-.007L4.12-.333a.968.968 0 00-.727.204l-2.03 1.58c-.02.016-.033.037-.051.053a1.086 1.086 0 00-.217.288.947.947 0 00-.046.093.993.993 0 00-.07.344l-.002.011v15.41a.943.943 0 00.028.141.977.977 0 00.04.193.96.96 0 00.088.171.98.98 0 00.104.154.978.978 0 00.147.126.956.956 0 00.154.103.979.979 0 00.192.063.942.942 0 00.133.043l.782.09-1.282.996c-.02.016-.033.037-.051.054a1.087 1.087 0 00-.217.288.958.958 0 00-.046.092.992.992 0 00-.07.344l-.002.012v14.5a.99.99 0 00.075.374.971.971 0 00.07.114.991.991 0 00.132.195.982.982 0 00.122.095.97.97 0 00.176.119.986.986 0 00.16.049.956.956 0 00.152.047l14.65 1.67a.896.896 0 00.113.007h.001l.012-.002a.998.998 0 00.334-.062 479.656 479.656 0 00.289-.163l.903-.744v.261a.941.941 0 00.03.143.977.977 0 00.038.19.96.96 0 00.09.173.7.7 0 00.25.28.96.96 0 00.153.102.98.98 0 00.194.063.94.94 0 00.132.043l16.04 1.829a.896.896 0 00.113.007h.001l.008-.002a.996.996 0 00.332-.062 506.4 506.4 0 00.274-.147l2.03-1.58a1 1 0 00.386-.789v-14.5a.986.986 0 00-.029-.2c-.005-.023-.002-.047-.008-.07l-.002-.004a1 1 0 00-.118-.26c-.017-.027-.04-.048-.06-.072a1.415 1.415 0 00-.344-.292c-.007-.004-.015-.004-.022-.007a1.002 1.002 0 00-.102-.034.988.988 0 00-.177-.047c-.009-.001-.016-.006-.025-.007l-.783-.089 1.284-.999a1 1 0 00.386-.789zm-22.61 6.977a3.086 3.086 0 00-1.278.776 2.948 2.948 0 00-.813 2.057 2.918 2.918 0 002.091 2.834v3.066l-12.65-1.443V21.641l4.985.572a.897.897 0 00.114.007 1 1 0 00.864-1.506.953.953 0 01-.133-.484 1.09 1.09 0 01.088-.419.927.927 0 01.455-.442l.006-.004c.026-.01.057-.014.082-.027a.867.867 0 01.856.082c.016.014.037.021.054.035.011.01.017.023.03.032a.916.916 0 01.341.545l.003.008.001.007a.894.894 0 01.014.183.905.905 0 01-.258.644 1 1 0 00.604 1.69l4.544.518zm.554-14.812a.998.998 0 00-.554.895v5.28l-2.983-.34a2.892 2.892 0 00-1.037-1.6l-.02-.016a2.927 2.927 0 00-2.981-.38l-.045.017a2.915 2.915 0 00-1.432 1.353l-4.152-.475V3.36l12.65 1.442V9.76a1 1 0 001.602.799.895.895 0 01.96-.075l.015.004.022.014a.577.577 0 01.186.125c.008.009.02.011.027.02.009.009.012.021.02.03a.931.931 0 01.001 1.325c-.008.008-.011.02-.02.03-.008.008-.02.011-.028.02a.557.557 0 01-.182.124c-.01.005-.018.013-.028.019H18.2a.915.915 0 01-.971-.074 1.002 1.002 0 00-1.048-.096zM34.206 37.69l-14.04-1.6v-4.82a.926.926 0 00-.022-.109.856.856 0 00-.126-.383.943.943 0 00-.047-.101c-.015-.02-.037-.03-.053-.048a1.07 1.07 0 00-.679-.344c-.025-.002-.047-.014-.073-.014a.934.934 0 00-.112.022.856.856 0 00-.38.126.936.936 0 00-.101.047.754.754 0 01-.218.112.957.957 0 01-1.001-.224.98.98 0 01-.277-.683.953.953 0 011.278-.907.754.754 0 01.218.112 193.73 193.73 0 01.241.124.994.994 0 00.351.071h.001a1.1 1.1 0 00.757-.366c.014-.016.035-.022.048-.04a.928.928 0 00.047-.1.856.856 0 00.126-.384.938.938 0 00.022-.11V23.6l4.194.478a2.949 2.949 0 004.025 1.835A2.98 2.98 0 0029.74 24.7l4.468.505zm0-17.369L29 19.727a.898.898 0 00-.135.01.966.966 0 00-.177.013.935.935 0 00-.223.08.957.957 0 00-.097.034c-.015.01-.024.026-.039.037a.974.974 0 00-.164.15 1.118 1.118 0 00-.252.497c-.004.02-.017.037-.02.058a.937.937 0 00.011.118.786.786 0 00.085.395.937.937 0 00.043.12.88.88 0 01.115.434c-.002.014.003.028.002.042-.002.014-.01.027-.011.04a.966.966 0 01-.517.8l-.058.025a1.03 1.03 0 01-.96-.123.967.967 0 01-.376-.767.765.765 0 01.01-.128c.001-.007-.002-.014 0-.021.001-.01.007-.016.008-.025a.913.913 0 01.235-.476.923.923 0 00.056-.093.8.8 0 00.168-.358.938.938 0 00.036-.115c.002-.025-.008-.048-.007-.073a1.064 1.064 0 00-.263-.714c-.018-.018-.025-.042-.044-.06a.949.949 0 00-.097-.06.868.868 0 00-.372-.168.927.927 0 00-.097-.032l-5.694-.649v-4.495a2.598 2.598 0 00.667-.239 2.41 2.41 0 00.79-.566 2.915 2.915 0 00.864-2.078 2.87 2.87 0 00-.817-2.027 2.47 2.47 0 00-.79-.594 2.811 2.811 0 00-.714-.252V5.32l14.04 1.602z"/></svg>