<svg data-tags="preview,quadrant matrix" xmlns="http://www.w3.org/2000/svg" viewBox="0 0 668 304"><path fill="#a8a8b0" d="M318 273.65v1.1l4.3 2.3-4.3 2.3v1.1l5.3-2.9h3.3v-1h-3.4l-5.2-2.9zM326.6 260.05v-1l-8.6 3.4v.8l8.6 3.4v-1l-2.7-1.1v-3.4Zm-3.6 4.2-2.7-1a5.635 5.635 0 0 0-1.2-.4 8.346 8.346 0 0 0 1.2-.4l2.7-1ZM318 250.45v1.1l3.4 2.1-3.4 2.1v1.1l4.1-2.7 4.5 2.8v-1.1l-3.8-2.3 3.8-2.3v-1.1l-4.5 3-4.1-2.7zM318 245.95h8.6v1H318zM324.3 236.75c-.6 0-1.2 0-1.5.4a6.487 6.487 0 0 0-1 1.9c-.2.5-.4.9-.5 1.2a1.024 1.024 0 0 1-.5.6 1.445 1.445 0 0 1-.7.2.975.975 0 0 1-.9-.4 2.133 2.133 0 0 1-.3-1.2 5.222 5.222 0 0 1 .4-2.1l-.9-.3a5.555 5.555 0 0 0-.5 2.3 3.173 3.173 0 0 0 .6 2 1.865 1.865 0 0 0 1.6.7 2.456 2.456 0 0 0 1.5-.5 3.804 3.804 0 0 0 1-1.7c.2-.6.4-1 .5-1.3a1.024 1.024 0 0 1 .5-.6 1.408 1.408 0 0 1 1.8.3 2.076 2.076 0 0 1 .4 1.5 4.869 4.869 0 0 1-.1 1.2c-.1.4-.3.7-.4 1.1h1a4.744 4.744 0 0 0 .4-2.3 3.04 3.04 0 0 0-.6-2.2 2.342 2.342 0 0 0-1.8-.8ZM334 280.335V14.465h-1v267.07M46.25 157.2h-1.1l-2.1 3.4-2.1-3.4h-1.1l2.7 4.1-2.8 4.5h1.2l2.3-3.8 2.3 3.8h1.1l-3.1-4.5 2.7-4.1zM57.95 157.2h-.8l-3.4 8.6h1l1.1-2.7h3.4l1.1 2.7h1Zm-1.8 5 1-2.7a5.639 5.639 0 0 0 .4-1.2 8.341 8.341 0 0 0 .4 1.2l1 2.7ZM69.95 157.2h-1.1l-2.1 3.4-2.1-3.4h-1.1l2.7 4.1-2.8 4.5h1.1l2.3-3.8 2.3 3.8h1.1l-3-4.5 2.7-4.1zM73.45 157.2h1v8.6h-1zM81.35 161c-.5-.2-.9-.4-1.2-.5a1.024 1.024 0 0 1-.6-.5 1.445 1.445 0 0 1-.2-.7.975.975 0 0 1 .4-.9 2.133 2.133 0 0 1 1.2-.3 5.223 5.223 0 0 1 2.1.4l.3-.9a5.556 5.556 0 0 0-2.3-.5 3.173 3.173 0 0 0-2 .6 1.865 1.865 0 0 0-.7 1.6 2.456 2.456 0 0 0 .5 1.5 3.803 3.803 0 0 0 1.7 1c.6.2 1 .4 1.3.5a1.024 1.024 0 0 1 .6.5 1.408 1.408 0 0 1-.3 1.8 2.076 2.076 0 0 1-1.5.4 4.868 4.868 0 0 1-1.2-.1c-.4-.1-.7-.3-1.1-.4v1a4.744 4.744 0 0 0 2.3.4 3.04 3.04 0 0 0 2.2-.6 2.342 2.342 0 0 0 .8-1.8c0-.6 0-1.2-.4-1.5a6.487 6.487 0 0 0-1.9-1Z"/><path fill="#a8a8b0" d="M39.75 148h588.5v-1H40.75"/><circle cx="408.14" cy="88" r="35.5" fill="#9883e3" fill-opacity=".05"/><path d="M408.14 124a36 36 0 1 1 36-36 36.04 36.04 0 0 1-36 36Zm0-71a35 35 0 1 0 35 35 35.04 35.04 0 0 0-35-35Z" fill="#9883e3"/><circle cx="408.14" cy="213" r="19.5" fill="#9883e3" fill-opacity=".05"/><path d="M408.14 233a20 20 0 1 1 20-20 20.022 20.022 0 0 1-20 20Zm0-39a19 19 0 1 0 19 19 19.022 19.022 0 0 0-19-19Z" fill="#9883e3"/><circle cx="493.676" cy="205" r="16" fill="#73cedc" fill-opacity=".05"/><path d="M493.676 221.5a16.5 16.5 0 1 1 16.5-16.5 16.52 16.52 0 0 1-16.5 16.5Zm0-32a15.5 15.5 0 1 0 15.5 15.5 15.517 15.517 0 0 0-15.5-15.5Z" fill="#73cedc"/><circle cx="169.578" cy="73.5" r="7" fill="#cdd56a" fill-opacity=".05"/><path d="M169.578 81a7.5 7.5 0 1 1 7.5-7.5 7.508 7.508 0 0 1-7.5 7.5Zm0-14a6.5 6.5 0 1 0 6.5 6.5 6.508 6.508 0 0 0-6.5-6.5Z" fill="#cdd56a"/><circle cx="254.239" cy="95.717" r="22.217" fill="#73cedc" fill-opacity=".05"/><path d="M254.24 118.434a22.717 22.717 0 1 1 22.716-22.717 22.742 22.742 0 0 1-22.717 22.717Zm0-44.434a21.717 21.717 0 1 0 21.716 21.717A21.741 21.741 0 0 0 254.24 74Z" fill="#73cedc"/><circle cx="209.023" cy="206" r="28" fill="#cdd56a" fill-opacity=".05"/><path d="M209.023 234.5a28.5 28.5 0 1 1 28.5-28.5 28.532 28.532 0 0 1-28.5 28.5Zm0-56a27.5 27.5 0 1 0 27.5 27.5 27.532 27.532 0 0 0-27.5-27.5Z" fill="#cdd56a"/><circle cx="383.083" cy="188.5" r="5" fill="#cdd56a" fill-opacity=".05"/></svg>