<svg data-tags="Modern Care, Care, launchpad" xmlns="http://www.w3.org/2000/svg" viewBox="0 0 50 49.438"><path d="M18.29 23.77h5.368a1.544 1.544 0 0 0 1.536-1.536v-.943c.018 0 .018-.019.037-.019h.185a1.161 1.161 0 0 0 1.166-1.166v-1.925a1.161 1.161 0 0 0-1.166-1.166h-.204a6.905 6.905 0 0 0-13.807-.296v.333h-.167a1.161 1.161 0 0 0-1.166 1.166v2.166a.921.921 0 0 0 .907 1h.777a1.177 1.177 0 0 0 1.166-1.186v-3.165a5.522 5.522 0 0 1 5.201-5.59 5.374 5.374 0 0 1 5.535 5.202v5.608H18.29a.759.759 0 0 0 0 1.518ZM27.58 30.276a3.853 3.853 0 0 0-.82.99l-18.37-.04a9.91 9.91 0 0 1 2.37-2.83 3.483 3.483 0 0 1 .48-.35 5.24 5.24 0 0 1 .65-.43c.33-.22.68-.38 1.03-.57.22-.09.45-.22.69-.31a10.535 10.535 0 0 1 1.35-.41c.16-.04.33-.11.52-.15a10.37 10.37 0 0 1 2.01-.2h1.58a10.528 10.528 0 0 1 2.01.2c.19.04.36.11.54.15a8.086 8.086 0 0 1 1.35.41c.22.09.47.2.69.31.37.19.7.37 1.03.57a5.675 5.675 0 0 1 .67.47 2.455 2.455 0 0 1 .48.31 10.31 10.31 0 0 1 1.74 1.88ZM28.23 31.266h-.03l.02-.01a.01.01 0 0 1 .01.01Z"/><path d="M18.29 21.143h4.22V16.83a4.103 4.103 0 0 0-.703-2.314 5.618 5.618 0 0 0-6.682-.389 4.556 4.556 0 0 0-1.074 2.925v3.702a1.905 1.905 0 0 1-.592 1.37 5.766 5.766 0 0 0 3.665 2.424 1.922 1.922 0 0 1-.778-1.499 1.972 1.972 0 0 1 1.944-1.906Z"/><path d="M27.214 42.412H4.945V1.952H47.93v26.624a8.962 8.962 0 0 1 2.009 1.315V.947a1.004 1.004 0 0 0-1.005-1.004H3.941c-.023 0-.042.012-.065.013a.984.984 0 0 0-.26.052.953.953 0 0 0-.1.037.992.992 0 0 0-.258.174c-.01.008-.021.013-.03.022l-.004.003L.287 3.24A1.004 1.004 0 0 0 0 3.944v42.469a1.004 1.004 0 0 0 1.004 1.004h31.014a19.46 19.46 0 0 1-4.804-5.005Z"/><path d="M49.394 34.023a5.656 5.656 0 0 0-10.137-.356 5.795 5.795 0 0 0-4.408-2.947 5.87 5.87 0 0 0-5.729 3.303 6.885 6.885 0 0 0 .19 5.97c2.059 4.205 6.873 6.174 9.96 9.502 3.087-3.328 7.9-5.297 9.959-9.502a6.84 6.84 0 0 0 .165-5.97Zm-5.577 2.68a.94.94 0 0 1 .026 1.88.94.94 0 0 1-.026-1.88Zm-4.585-.305a1.474 1.474 0 1 1-1.448 1.474 1.475 1.475 0 0 1 1.448-1.474Zm-4.51.305a.94.94 0 0 1 .026 1.88.94.94 0 0 1-.026-1.88Zm-1.486 5.26a.364.364 0 0 1-.356-.357v-.775a1.857 1.857 0 0 1 1.868-1.841 1.837 1.837 0 0 1 1.778 1.333 3.586 3.586 0 0 0-.788 1.64Zm8.892 2.159a.3.3 0 0 1-.305.305H36.73a.31.31 0 0 1-.305-.305v-1.487l.038-.317a2.738 2.738 0 0 1 .458-1.258 1.982 1.982 0 0 1 .203-.254 2.906 2.906 0 0 1 4.09-.216 2.993 2.993 0 0 1 .42.47 2.602 2.602 0 0 1 .457 1.258 1.354 1.354 0 0 1 .038.317Zm3.544-2.528a.355.355 0 0 1-.356.355h-2.502a3.647 3.647 0 0 0-.788-1.638 1.84 1.84 0 0 1 1.779-1.321 1.871 1.871 0 0 1 1.867 1.829Z" fill="#a337f6"/><path d="M42.86 17.067c.044-.07.044-.102-.033-.149-.542-.329-1.079-.665-1.62-.995a.154.154 0 0 1-.085-.154c.003-.67 0-1.34.004-2.011.001-.103-.03-.123-.126-.123-.68.004-1.358 0-2.037.005a.17.17 0 0 1-.17-.098c-.288-.486-.582-.968-.867-1.456-.052-.089-.088-.094-.17-.044-.446.272-.896.538-1.342.81a.167.167 0 0 1-.203-.003c-.52-.324-1.044-.64-1.562-.966-.078-.049-.107-.031-.148.036-.333.544-.671 1.084-1.002 1.628a.17.17 0 0 1-.172.092c-.658-.003-1.315 0-1.972-.004-.09 0-.114.023-.113.114.003.699.001 1.398.002 2.098a.128.128 0 0 1-.065.131c-.54.319-1.077.643-1.617.961-.062.037-.066.064-.03.123.281.465.559.933.84 1.397a.124.124 0 0 1-.001.155c-.315.503-.626 1.01-.939 1.514-.032.053-.041.08.026.12.57.347 1.134.7 1.703 1.048a.157.157 0 0 1 .084.155c-.002.67-.001 1.341-.001 2.012 0 .141 0 .141.137.141.657 0 1.314.001 1.971-.001a.157.157 0 0 1 .156.085c.312.526.629 1.05.94 1.577.04.068.068.078.138.036.496-.3.996-.595 1.493-.894a.106.106 0 0 1 .135 0c.095.064.196.121.294.182l1.16.713c.04.026.073.057.116-.014.325-.536.656-1.067.983-1.602a.149.149 0 0 1 .146-.084c.35.005.7.002 1.05.002.347 0 .694-.003 1.04.002.094.002.124-.021.123-.12-.004-.663-.001-1.326-.004-1.99a.155.155 0 0 1 .085-.154c.521-.308 1.04-.62 1.56-.928.078-.045.105-.077.049-.169-.294-.478-.574-.965-.87-1.442a.214.214 0 0 1 .003-.268c.308-.487.606-.98.912-1.468Zm-3.596.587q-.883.822-1.761 1.648l-1.942 1.82c-.036.034-.075.065-.108.094a.158.158 0 0 1-.084-.061l-1.816-1.93c-.124-.132-.123-.133.01-.259.196-.186.395-.37.588-.558.053-.052.078-.044.125.006.404.432.811.86 1.215 1.292.047.05.075.055.127.005q1.254-1.178 2.51-2.351c.15-.14.303-.278.449-.423.062-.062.098-.053.153.008.176.195.355.388.54.576.055.057.047.084-.006.133Z"/></svg>