<svg data-tags="care,launchpad" xmlns="http://www.w3.org/2000/svg" viewBox="0 0 50 50"><path d="M49 1.23H3.94l-.07.02a1 1 0 0 0-.26.05 1.02 1.02 0 0 0-.1.03.99.99 0 0 0-.27.18l-.02.02-2.94 3a1 1 0 0 0-.29.71v42.52a1 1 0 0 0 1 1h35.25l-.24-.17a20.27 20.27 0 0 1-5-4.84H4.95V3.26H48v27.43a8.16 8.16 0 0 1 2 1.08V2.24a1 1 0 0 0-1-1ZM46.4 48.7a1 1 0 0 0 .36-.23l.18-.18-.4.3-.15.1Z"/><path d="M44.84 33.5a4.7 4.7 0 0 0-3.57 2.38 4.68 4.68 0 0 0-3.56-2.38 4.75 4.75 0 0 0-4.63 2.67 5.57 5.57 0 0 0 .15 4.83c1.66 3.4 5.56 4.99 8.05 7.68 2.5-2.7 6.39-4.28 8.05-7.68a5.53 5.53 0 0 0 .14-4.83 4.74 4.74 0 0 0-4.63-2.67Zm.12 4.84a.76.76 0 0 1 .02 1.52.76.76 0 0 1-.02-1.52Zm-3.7-.25a1.2 1.2 0 1 1-1.18 1.2 1.2 1.2 0 0 1 1.17-1.2Zm-3.65.25a.76.76 0 0 1 .02 1.52.76.76 0 0 1-.02-1.52Zm-1.2 4.25a.3.3 0 0 1-.3-.29v-.63a1.5 1.5 0 0 1 1.52-1.49 1.49 1.49 0 0 1 1.43 1.08 2.9 2.9 0 0 0-.63 1.33Zm7.18 1.74a.24.24 0 0 1-.24.25h-4.12a.25.25 0 0 1-.25-.25v-1.2l.03-.25a2.21 2.21 0 0 1 .37-1.02 1.58 1.58 0 0 1 .17-.2 2.35 2.35 0 0 1 3.3-.18 2.41 2.41 0 0 1 .34.38 2.1 2.1 0 0 1 .37 1.02 1.1 1.1 0 0 1 .03.25Zm2.87-2.04a.29.29 0 0 1-.29.29h-2.02a2.95 2.95 0 0 0-.64-1.33 1.49 1.49 0 0 1 1.44-1.07 1.51 1.51 0 0 1 1.5 1.48Zm-28.18-22.1h3.82a1.1 1.1 0 0 0 1.1-1.1v-.67l.02-.01h.13a.83.83 0 0 0 .83-.83V16.2a.83.83 0 0 0-.83-.83h-.14a4.92 4.92 0 1 0-9.84-.2v.23h-.11a.83.83 0 0 0-.83.83v1.54a.66.66 0 0 0 .64.72h.55a.84.84 0 0 0 .84-.85V15.4a3.93 3.93 0 0 1 3.7-3.98 3.83 3.83 0 0 1 3.94 3.7v4h-3.82a.54.54 0 1 0 0 1.08Zm5.38 3.29a1.91 1.91 0 0 0-.35-.22 4.3 4.3 0 0 0-.47-.33 9.74 9.74 0 0 0-1.23-.63 6.2 6.2 0 0 0-.96-.3c-.13-.02-.25-.07-.38-.1a7.6 7.6 0 0 0-1.44-.14h-1.12a7.48 7.48 0 0 0-1.44.14c-.13.03-.25.08-.36.1a8.08 8.08 0 0 0-.97.3c-.17.06-.33.15-.48.22a8.05 8.05 0 0 0-.74.4 4.63 4.63 0 0 0-.46.31 3.29 3.29 0 0 0-.35.25 7.1 7.1 0 0 0-1.68 2.02l14.13.03a7.44 7.44 0 0 0-1.7-2.05Z"/><path d="M18.28 18.31h3v-3.07a2.92 2.92 0 0 0-.5-1.65 4 4 0 0 0-4.76-.27 3.24 3.24 0 0 0-.76 2.08v2.64a1.36 1.36 0 0 1-.42.97 4.1 4.1 0 0 0 2.6 1.73 1.37 1.37 0 0 1-.55-1.07 1.4 1.4 0 0 1 1.39-1.36Zm-4.84 9.92-.51-1.12a.4.4 0 0 0-.73 0l-.51 1.12-1.12.51a.4.4 0 0 0 0 .73l1.12.51.51 1.12a.4.4 0 0 0 .73 0l.51-1.12 1.12-.51a.4.4 0 0 0 0-.73Zm5.72 0-.51-1.12a.4.4 0 0 0-.73 0l-.51 1.12-1.12.51a.4.4 0 0 0 0 .73l1.12.51.51 1.12a.4.4 0 0 0 .73 0l.51-1.12 1.12-.51a.4.4 0 0 0 0-.73ZM22 29.47l1.13.51.51 1.12a.4.4 0 0 0 .73 0l.51-1.12 1.12-.51a.4.4 0 0 0 0-.73l-1.12-.51-.51-1.12a.4.4 0 0 0-.73 0l-.51 1.12-1.12.51a.4.4 0 0 0 0 .73ZM38.38 18a.56.56 0 1 0-.57-.56.56.56 0 0 0 .57.56Zm-2.51 0a.56.56 0 1 0-.56-.56.56.56 0 0 0 .56.56Z"/><path d="M30.9 25.13h12.44a1 1 0 0 0 1-1V13.57a1 1 0 0 0-1-1H30.9a1 1 0 0 0-1 1v2.53l-.07.04-2.1 1.97a1 1 0 0 0 0 1.47l2.1 1.97.06.04v2.54a1 1 0 0 0 1 1Zm6.22-10.23a3.95 3.95 0 1 1-3.94 3.95 3.95 3.95 0 0 1 3.94-3.95Z"/><path d="M37.12 21.42h.03a2.52 2.52 0 0 0 2.3-2.03.12.12 0 0 0 .02-.07.28.28 0 0 0-.29-.28h-4.13a.27.27 0 0 0-.06.01.28.28 0 0 0-.21.34 2.5 2.5 0 0 0 2.34 2.03Z"/></svg>