<svg data-tags="listening, illustration, query" xmlns="http://www.w3.org/2000/svg" viewBox="0 0 40 40"><path d="M39.36 9.78a.96.96 0 000-.1l-.02-.03a1.96 1.96 0 00-.1-.26.84.84 0 00-.27-.3.98.98 0 00-.13-.08L38.81 9a1.4 1.4 0 01-.2-.07L4.79.48a1 1 0 00-.87.18l-2.9 2.3a.98.98 0 00-.26.31l-.03.06a.99.99 0 00-.1.4V28.8a1 1 0 00.76.97l24.87 6.2 1.23 2.72a2.19 2.19 0 004.13-1.4l3.6.9a1.02 1.02 0 00.22.03h.03a1 1 0 00.61-.2L39 35.73a1 1 0 00.39-.78V9.89a.96.96 0 00-.02-.1zM20.3 22.21a1.04 1.04 0 00.24.03 1 1 0 00.24-1.97l-4.95-1.23a6.5 6.5 0 01.72-1.79l3.75.94a1.04 1.04 0 00.24.03 1 1 0 00.24-1.97l-2.8-.7a6.56 6.56 0 11-2.3 5.5zm14.16 13.74l-3.84-.96-1.89-4.18a2.17 2.17 0 00-1.22-1.14 2.2 2.2 0 00-.66-.13l-.65-1.43a8.56 8.56 0 10-10.48-13.13l-8.2-2.04a1 1 0 10-.48 1.94l7.5 1.87a8.48 8.48 0 00-.64 1.8l-6.37-1.59a1 1 0 00-.49 1.94l6.61 1.65a8.53 8.53 0 0010.68 8.28l.7 1.53a2.18 2.18 0 00-.29 2.26l.46 1.02-19.3-4.81-3.26-.81v-23l24.7 6.17 7.12 1.78z"/><path d="M12.27 10.1L7.52 8.93a1 1 0 00-.49 1.94l4.75 1.19a1.04 1.04 0 00.25.03 1 1 0 00.24-1.97z"/></svg>