<svg data-tags="dashboard thumbnails,reporting" xmlns="http://www.w3.org/2000/svg" viewBox="0 0 185 92"><path d="M140.165 19.98v4.67h-95.33v-4.67a3.999 3.999 0 0 1 4-4h87.33a3.999 3.999 0 0 1 4 4Z" fill="#5cc8c3"/><path d="M140.165 24.65v47.37a3.999 3.999 0 0 1-4 4h-87.33a3.999 3.999 0 0 1-4-4V24.65Z" fill="#fff"/><circle cx="55.761" cy="32.703" r="3.015" fill="#327afd"/><circle cx="84.973" cy="51.887" r="7.527" fill="#327afd"/><circle cx="67.048" cy="42.653" r="9.234" fill="#7462e0"/><circle cx="56.843" cy="55.656" r="2.247" fill="#327afd"/><circle cx="71.142" cy="58.987" r="4.9" fill="#8c43ff"/><circle cx="83.49" cy="66.109" r="5.078" fill="#763bd2"/><circle cx="59.889" cy="66.109" r="3.046" fill="#763bd2"/><circle cx="80.839" cy="34.444" r="3.011" fill="#8c43ff"/><circle cx="90.86" cy="39.17" r="3.64" fill="#7462e0"/><rect x="104.578" y="35.863" width="30.578" height="10.201" rx="1.5" fill="#5cc8c3"/><path d="M134.358 52.917h-28.981a1 1 0 0 1 0-2h28.981a1 1 0 0 1 0 2ZM134.358 59.464h-28.981a1 1 0 0 1 0-2h28.981a1 1 0 0 1 0 2ZM134.358 66.012h-28.981a1 1 0 0 1 0-2h28.981a1 1 0 0 1 0 2Z" fill="#327afd"/></svg>