<svg data-tags="dashboard thumbnails,reporting" xmlns="http://www.w3.org/2000/svg" viewBox="0 0 185 92"><path d="M140.165 19.98v4.67h-95.33v-4.67a3.999 3.999 0 0 1 4-4h87.33a3.999 3.999 0 0 1 4 4Z" fill="#ffc312"/><path d="M140.165 24.65v47.37a3.999 3.999 0 0 1-4 4h-87.33a3.999 3.999 0 0 1-4-4V24.65Z" fill="#fff"/><path d="M74.394 55.588v14.16h-7.33v-14.16a2.116 2.116 0 0 1 2.175-2.026h3.005a2.094 2.094 0 0 1 2.15 2.026Z" fill="#327afd"/><path d="M62.121 45.508v24.24h-7.329v-24.24a2.119 2.119 0 0 1 2.175-2.048h3.005a2.097 2.097 0 0 1 2.15 2.041Z" fill="#8c43ff"/><path d="M86.667 50.22v19.478h-7.33V50.22a2.12 2.12 0 0 1 2.175-2.049h3.005a2.098 2.098 0 0 1 2.15 2.041Z" fill="#ac4aa2"/><rect x="97.312" y="57.627" width="15.123" height="12.097" rx="1.5" fill="#ffc312"/><path fill="#327afd" d="M119.18 68.836 129.316 58.7M119.18 69.836a1 1 0 0 1-.706-1.707l10.134-10.136a1 1 0 1 1 1.414 1.414l-10.134 10.136a.997.997 0 0 1-.707.293Z"/><circle cx="119.776" cy="59.421" r="1.793" fill="#327afd"/><circle cx="128.411" cy="67.931" r="1.793" fill="#327afd"/><path d="M130.056 34.684h-31.81a1 1 0 0 1 0-2h31.81a1 1 0 0 1 0 2ZM130.056 39.84h-31.81a1 1 0 0 1 0-2h31.81a1 1 0 0 1 0 2ZM130.056 44.996h-31.81a1 1 0 0 1 0-2h31.81a1 1 0 0 1 0 2Z" fill="#8c43ff"/><path d="M76.704 42.178a1.494 1.494 0 0 1-1.038-.418l-9.403-9.02-10.655 6.91a1.5 1.5 0 1 1-1.632-2.519l11.651-7.555a1.498 1.498 0 0 1 1.854.177l9.4 9.016 8.965-5.869a1.5 1.5 0 1 1 1.642 2.51l-9.963 6.523a1.5 1.5 0 0 1-.82.245Z" fill="#327afd"/></svg>