<svg data-tags="dashboard thumbnails,reporting" xmlns="http://www.w3.org/2000/svg" viewBox="0 0 185 92"><path d="M140.165 19.98v4.67h-95.33v-4.67a3.999 3.999 0 0 1 4-4h87.33a3.999 3.999 0 0 1 4 4Z" fill="#a3cb38"/><path d="M140.165 24.65v47.37a3.999 3.999 0 0 1-4 4h-87.33a3.999 3.999 0 0 1-4-4V24.65Z" fill="#fff"/><path d="M88.14 39.184h-7.543a1 1 0 0 1 0-2h7.543a1 1 0 0 1 0 2ZM88.14 51.34h-7.543a1 1 0 0 1 0-2h7.543a1 1 0 0 1 0 2ZM88.14 62.782h-7.543a1 1 0 0 1 0-2h7.543a1 1 0 0 1 0 2Z" fill="#a3cb38"/><rect x="56.249" y="35.191" width="7.415" height="7.415" rx="1.5" fill="#ac4aa2"/><rect x="56.249" y="46.633" width="7.415" height="7.415" rx="1.5" fill="#d6498b"/><rect x="56.249" y="58.074" width="7.415" height="7.415" rx="1.5" fill="#d6498b"/><rect x="68.791" y="35.191" width="7.415" height="7.415" rx="1.5" fill="#327afd"/><rect x="68.791" y="46.633" width="7.415" height="7.415" rx="1.5" fill="#327afd"/><rect x="68.791" y="58.074" width="7.415" height="7.415" rx="1.5" fill="#ac4aa2"/><path d="M125.31 65.35a18.572 18.572 0 0 1-29.52-15.01h9.19a9.391 9.391 0 0 0 14.92 7.59Z" fill="#d6498b"/><path d="M132.95 50.34a18.53 18.53 0 0 1-7.64 15.01l-5.41-7.42a9.392 9.392 0 0 0 1.11-14.23l6.5-6.5a18.55 18.55 0 0 1 5.44 13.14Z" fill="#327afd"/><path d="m127.51 37.2-6.5 6.5a9.383 9.383 0 0 0-16.03 6.64h-9.19a18.576 18.576 0 0 1 31.72-13.14Z" fill="#ac4aa2"/></svg>