<svg data-tags="dashboard thumbnails,reporting" xmlns="http://www.w3.org/2000/svg" viewBox="0 0 185 92"><path d="M140.165 19.98v4.67h-95.33v-4.67a3.999 3.999 0 0 1 4-4h87.33a3.999 3.999 0 0 1 4 4Z" fill="#a3cb38"/><path d="M140.165 24.65v47.37a3.999 3.999 0 0 1-4 4h-87.33a3.999 3.999 0 0 1-4-4V24.65Z" fill="#f2f2f2"/><path d="M140.165 63.283a26.27 26.27 0 0 1-7.04-.29 20.718 20.718 0 0 1-5.58-1.83 9.44 9.44 0 0 0-5.06-1.19c-3.24.2-5.21 1.88-6.95 3.35-1.57 1.34-3.06 2.6-5.42 2.83-1.97.18-4.62-1.68-6.83-4.01-.46-.49-.9-1-1.31-1.52a18.5 18.5 0 0 1-2.18-3.33c-1.67-3.37-2.96-6.24-3.99-8.56-3.1-6.94-4.51-10.11-9.11-10.35-4.43-.22-7.67 4.97-11.35 11.07v.01c-.05.1-.11.19-.17.29-.29.48-.58.97-.88 1.46v.01c-2.65 4.38-5.57 8.92-9.28 11.97a18.031 18.031 0 0 1-1.67 1.24 15.047 15.047 0 0 1-4.19 1.93 45.148 45.148 0 0 1-7.05 1.2 46.452 46.452 0 0 1-7.27.12v2a50.62 50.62 0 0 0 7.46-.13 47.408 47.408 0 0 0 7.4-1.27 17.108 17.108 0 0 0 5.2-2.49 18.883 18.883 0 0 0 1.6-1.23c3.7-3.1 6.59-7.51 9.2-11.79.37-.6.73-1.2 1.08-1.79.04-.07.08-.13.12-.2 3.41-5.67 6.4-10.58 9.7-10.4 3.23.17 4.27 2.19 7.38 9.17 1.04 2.33 2.34 5.23 4.03 8.63a22.11 22.11 0 0 0 2.61 3.92c.41.51.86 1.03 1.33 1.52 2.48 2.62 5.6 4.8 8.36 4.52 2.99-.29 4.78-1.82 6.52-3.29 1.65-1.4 3.21-2.72 5.79-2.88a7.52 7.52 0 0 1 4.09 1.01 22.622 22.622 0 0 0 6.07 1.97 28.019 28.019 0 0 0 7.39.34Z" fill="#327afd"/><path d="M140.165 70.143v2c-6.44.13-12.82.27-19.02.44l-1.47.04c-3.46.1-6.19.17-8.42.17-5.52 0-7.97-.46-10.79-2.2a16.22 16.22 0 0 1-2.7-2.09 13.417 13.417 0 0 1-1.37-1.46 28.727 28.727 0 0 1-4.06-7.01c-1.31-2.89-2.12-4.52-3.6-4.62-1.86-.11-3.66 2.3-5.42 5.11-.38.61-.76 1.25-1.14 1.88-.01.01-.02.03-.03.04-2.67 4.45-5.43 9.04-9.65 9.04a.756.756 0 0 1-.15-.01c-2.5-.06-3.91-1.7-5.54-3.59-.58-.67-1.19-1.38-1.91-2.09a19.303 19.303 0 0 0-1.55-1.36c-.3-.23-.61-.46-.95-.69-4.34-2.91-10.24-3.67-17.56-2.26v-2.03c7.69-1.42 13.95-.54 18.68 2.62a18.27 18.27 0 0 1 1.5 1.12c.54.46 1.03.92 1.48 1.37.69.71 1.29 1.39 1.82 2.01 1.62 1.88 2.54 2.86 4.08 2.9a.277.277 0 0 0 .09.01c3.11 0 5.58-4.12 7.97-8.11.17-.29.35-.58.52-.87.4-.65.79-1.29 1.19-1.9 1.96-3.01 4.01-5.34 6.71-5.19 2.74.19 3.92 2.78 5.28 5.8a28.077 28.077 0 0 0 3.61 6.34 14.544 14.544 0 0 0 1.37 1.48 14.09 14.09 0 0 0 2.39 1.86c3.44 2.13 6.55 2.05 18.09 1.73l1.48-.04c6.22-.17 12.6-.31 19.07-.44Z" fill="#8c43ff"/><path d="M140.165 54.123c-.93.03-1.94.08-3.04.13-2.62.12-5.88.27-9.96.29-2.19.01-4.02.01-5.54.01-6.69.01-7.9.01-9.87.47a19.361 19.361 0 0 0-9.78 5.6c-.48.49-.93.99-1.36 1.48-.6.69-1.15 1.38-1.68 2.03-.4.5-.79.97-1.17 1.42a18.34 18.34 0 0 1-1.37 1.49 6.058 6.058 0 0 1-4.2 2.03c-3.59.06-5.96-3.69-8.88-8.55-.08-.14-.17-.28-.25-.42q-.435-.735-.9-1.5a53.671 53.671 0 0 0-5.39-7.62 20.554 20.554 0 0 0-1.43-1.52v-.01a22.839 22.839 0 0 0-9.35-5.78 41.738 41.738 0 0 0-21.16-.86v2.06a39.746 39.746 0 0 1 20.56.71 20.837 20.837 0 0 1 8.9 5.63v.01c.49.5.96 1.01 1.4 1.55a59.112 59.112 0 0 1 5.28 7.73c.13.21.25.42.38.63.27.44.53.88.79 1.31 2.88 4.75 5.57 8.63 9.93 8.63h.17a7.966 7.966 0 0 0 5.52-2.57c.47-.46.92-.95 1.37-1.47.45-.53.9-1.09 1.36-1.65.47-.58.95-1.17 1.45-1.76.43-.5.87-1 1.34-1.48a17.398 17.398 0 0 1 8.92-5.17c1.75-.41 2.77-.41 9.42-.42 1.53 0 3.35 0 5.54-.01 4.13-.02 7.42-.17 10.06-.29 1.07-.05 2.04-.09 2.94-.12Z" fill="#ed4c67"/><circle cx="113.176" cy="30.905" r="2.229" fill="#327afd"/><circle cx="113.176" cy="37.942" r="2.229" fill="#ed4c67"/><circle cx="113.176" cy="45.273" r="2.229" fill="#8c43ff"/><path d="M129.782 38.942h-10.971a1 1 0 0 1 0-2h10.971a1 1 0 0 1 0 2ZM129.782 46.273h-10.971a1 1 0 0 1 0-2h10.971a1 1 0 0 1 0 2ZM129.782 31.906h-10.971a1 1 0 0 1 0-2h10.971a1 1 0 0 1 0 2Z" fill="#a3cb38"/></svg>