<svg data-tags="dashboard thumbnails,reporting" xmlns="http://www.w3.org/2000/svg" viewBox="0 0 185 92"><path d="M140.165 19.979v4.67h-95.33v-4.67a3.999 3.999 0 0 1 4-4h87.33a3.999 3.999 0 0 1 4 4Z" fill="#ffc312"/><path d="M140.165 24.649v47.37a3.999 3.999 0 0 1-4 4h-87.33a3.999 3.999 0 0 1-4-4v-47.37Z" fill="#fff"/><path d="M67.255 49.091v26.93h-14.36v-26.93a1.5 1.5 0 0 1 1.5-1.5h11.36a1.5 1.5 0 0 1 1.5 1.5Z" fill="#8c43ff"/><path d="M88.665 37.081v38.94h-14.36v-38.94a1.5 1.5 0 0 1 1.5-1.5h11.36a1.5 1.5 0 0 1 1.5 1.5Z" fill="#d6498b"/><path d="M110.415 59.281v16.74h-14.36v-16.74a1.5 1.5 0 0 1 1.5-1.5h11.36a1.5 1.5 0 0 1 1.5 1.5Z" fill="#327afd"/><path d="M132.115 70.371v5.65h-14.37v-5.65a1.5 1.5 0 0 1 1.5-1.5h11.37a1.5 1.5 0 0 1 1.5 1.5Z" fill="#ac4aa2"/><path d="m140.165 39.081-26.37 9.88a.944.944 0 0 1-.55.04l-24.58-4.95-4.41-.89-9.95 3.99-4.46 1.79-2.29.92-.3.12-2.3.92a.689.689 0 0 1-.08.03l-10 4a.355.355 0 0 1-.09.04l-1.89.76-7.69 3.08a.971.971 0 0 1-.37.07v-2.07l8.06-3.23 1.07-.43a.355.355 0 0 1 .09-.04l10.15-4.06a.689.689 0 0 1 .08-.03l1.2-.48 1.77-.71.52-.21 6.53-2.62 9.49-3.8a1.012 1.012 0 0 1 .57-.06l4.3.87 24.7 4.98 26.45-9.91a.91.91 0 0 1 .35-.07Z" fill="#5cc8c3"/><path d="m140.165 60.741-14.99-.71-.31-.14-2.39-1.11h-.01l-21.38-9.84a1 1 0 0 0-.95.06l-11.47 7.21-3.7 2.32-10.66-6.76-4.46-2.83-2.07-1.32-9.22-5.85a.994.994 0 0 0-.73-.14l-12.99 2.53v2.04l12.98-2.53 6.18 3.92 1.49.95 1.77 1.12.3.2 6.75 4.28 10.12 6.42a.987.987 0 0 0 1.07 0l3.17-1.99 12.07-7.59 19.33 8.9 2.39 1.1 2.06.95a.808.808 0 0 0 .37.09l15.23.72h.05Z" fill="#fda7df"/><path d="m140.165 56.511-13.11 2.38-2.19 1-2.41 1.09-12.04 5.49-5.61 2.55a.978.978 0 0 1-.41.09 1.03 1.03 0 0 1-.51-.14l-7.83-4.65-3.65-2.17-3.74 1.4-7.87 2.94a1.035 1.035 0 0 1-.55.04l-5.94-1.23-7.05-1.45-8.51-1.76-5.85 2.88-7.62 3.74a.976.976 0 0 1-.44.1v-2.12l8.06-3.96 5.28-2.59a1.007 1.007 0 0 1 .64-.08l8.44 1.74 7.05 1.46 6.06 1.25 8.3-3.1 3.49-1.31a1.039 1.039 0 0 1 .86.08l3.04 1.81 8.4 4.99 5.96-2.71 9.65-4.39 2.4-1.1h.01l3.87-1.76a.878.878 0 0 1 .23-.07l13.41-2.43a1.102 1.102 0 0 1 .18-.02Z" fill="#ffc312"/></svg>