<svg data-tags="dashboard thumbnails,reporting" xmlns="http://www.w3.org/2000/svg" viewBox="0 0 185 92"><path d="M140.165 19.98v4.67h-95.33v-4.67a3.999 3.999 0 0 1 4-4h87.33a3.999 3.999 0 0 1 4 4Z" fill="#5cc8c3"/><path d="M140.165 24.65v47.37a3.999 3.999 0 0 1-4 4h-87.33a3.999 3.999 0 0 1-4-4V24.65Z" fill="#fff"/><path d="M95.34 60.25a34.919 34.919 0 0 1-13.474-2.664C69.49 52.401 64.055 41.553 62.292 37.13l1.858-.74c1.669 4.189 6.812 14.46 18.49 19.354a33.214 33.214 0 0 0 15.763 2.37l.177 1.993c-1.08.097-2.162.144-3.24.144Z" fill="#5cc8c3"/><path d="M69.884 49.604a49.49 49.49 0 0 1-12.093-1.63c-.52-.127-.966-.235-1.328-.311l.408-1.957c.38.079.846.19 1.39.323 4.289 1.039 14.328 3.47 25.775-1.166 5.485-2.22 10.115-5.466 12.387-8.68l1.633 1.153c-2.484 3.515-7.444 7.022-13.27 9.38a39.42 39.42 0 0 1-14.902 2.888Z" fill="#327afd"/><path d="m64.186 61.716-1.016-1.722a60.508 60.508 0 0 1 28.965-8.64 57.691 57.691 0 0 1 10.473.606l-.295 1.979a56.201 56.201 0 0 0-10.112-.587 58.545 58.545 0 0 0-28.015 8.364Z" fill="#d6498b"/><rect x="112.461" y="34.172" width="18.509" height="10.201" rx="1.5" fill="#5cc8c3"/><path d="M129.97 51.225h-16.509a1 1 0 0 1 0-2h16.51a1 1 0 0 1 0 2ZM129.97 57.773h-16.509a1 1 0 0 1 0-2h16.51a1 1 0 0 1 0 2ZM129.97 64.32h-16.509a1 1 0 1 1 0-2h16.51a1 1 0 0 1 0 2Z" fill="#327afd"/><path d="M72.367 61.632H70.99a11.777 11.777 0 0 1-11.766-11.766v-1.028A11.777 11.777 0 0 1 70.99 37.07h1.378v-5.193H70.99a16.98 16.98 0 0 0-16.96 16.96v1.028a16.98 16.98 0 0 0 16.96 16.96h1.378ZM88.314 31.878h-1.097v5.193h1.097a11.777 11.777 0 0 1 11.767 11.767v1.028a11.777 11.777 0 0 1-11.767 11.766h-1.097v5.194h1.097a16.98 16.98 0 0 0 16.96-16.96v-1.028a16.98 16.98 0 0 0-16.96-16.96Z" fill="#ac4aa2"/></svg>