<svg data-tags="modern marketing, marketing, launchpad" xmlns="http://www.w3.org/2000/svg" viewBox="0 0 50 49.5"><path d="M39.46 5.86H25.6a1.5 1.5 0 1 0 0 3h13.85a1.5 1.5 0 1 0 0-3Z"/><circle cx="9.58" cy="7.36" r="1.59"/><circle cx="14.4" cy="7.36" r="1.59"/><circle cx="19.5" cy="7.36" r="1.59"/><path d="m24.54 35.65.13-.26H4.8V12.53h37.83v11.21a3.01 3.01 0 0 1 2-.4V3.15a1 1 0 0 0-1-1H3.81l-.07.01a.99.99 0 0 0-.26.05.97.97 0 0 0-.1.04.99.99 0 0 0-.25.17l-.04.03-2.8 2.88a1 1 0 0 0-.29.7v33.25a1 1 0 0 0 1 1h24.38l-.7-1.53a4.02 4.02 0 0 1-.14-3.09ZM4.81 4.14h37.83v6.39H4.81Zm44.24 27.75a.52.52 0 0 0-.43-.94l-1.3.6a.52.52 0 0 0 .43.94Zm.61 5.51-1.35-.49a.52.52 0 0 0-.35.97l1.35.5a.52.52 0 0 0 .35-.98Zm-5.2-11.2a.52.52 0 0 0-.67.31l-.49 1.35a.52.52 0 1 0 .97.35l.5-1.34a.52.52 0 0 0-.31-.67Zm-1.16 5.48-.3.14a.16.16 0 0 0-.07.2l1.63 3.52a.16.16 0 0 0 .21.08l.3-.14a2.1 2.1 0 0 0-1.77-3.8Z"/><path d="m30.95 34.52-3.1 1.44a1.19 1.19 0 0 0-.59 1.58l2.96 6.36a1.19 1.19 0 0 0 1.58.58l3.1-1.45Zm4.23 9.52-1.9.88.92 1.84a1.05 1.05 0 0 0 1.9-.89Zm7.7-9.9-3.28-7.06a.85.85 0 0 0-1.56.06l-.35.95a10.17 10.17 0 0 1-5.27 5.74l-.54.25 1.98 4.26 1.98 4.25.54-.25a10.17 10.17 0 0 1 7.78-.33l.95.35a.85.85 0 0 0 1.06-1.15Zm-11.75-5.69c.35-.17.7-.33 1.04-.52a1.28 1.28 0 0 0 .7-1.32 1.36 1.36 0 0 0-.97-1.16 1.46 1.46 0 0 0-1.14.13 145 145 0 0 1-3.37 1.6 1.98 1.98 0 0 1-.75.2c-.54-.04-1.07-.1-1.6-.15l-.57-.06a.44.44 0 0 1-.13-.02.57.57 0 0 0-.07-.02v-.07a1.3 1.3 0 0 0 .14-.05 1.33 1.33 0 0 1 .14-.05l.7-.18c.4-.1.8-.2 1.18-.32a1.35 1.35 0 0 0 .72-2.02 1.41 1.41 0 0 0-1.64-.58 9.7 9.7 0 0 1-3.27.4c-.7-.05-1.42-.06-2.15-.08l-1.23-.03a1.84 1.84 0 0 0-1.4.47l-.7.58-.5.4c-.22.2-.45.39-.69.58-.35.28-.7.56-1.03.86l-.24.3a.39.39 0 0 0-.44.03l-.36.3a.39.39 0 0 0-.06.56L16.48 32v.01a.4.4 0 0 0 .56.05l.35-.29a.38.38 0 0 0 .13-.4c.36-.22.7-.47 1.04-.71a2.13 2.13 0 0 1 1.55-.4l1.51.14 3.35.29a1.93 1.93 0 0 0 .75-.07 22.77 22.77 0 0 0 4.37-1.67c.34-.19.69-.35 1.04-.51Z"/><circle cx="29.38" cy="22.88" r="1.08"/><path d="M31.67 18.68a2.33 2.33 0 0 0 0-2.39 2.59 2.59 0 0 0-2.3-1.16 2.69 2.69 0 0 0-2.26 1.2.79.79 0 0 0-.1.66.83.83 0 0 0 .48.53.84.84 0 0 0 .32.06.77.77 0 0 0 .67-.36 1.03 1.03 0 0 1 .9-.5.91.91 0 0 1 .87.44.9.9 0 0 1-.05.9 4.06 4.06 0 0 1-.6.63 3.77 3.77 0 0 0-.8.91 1.97 1.97 0 0 0-.23.76.83.83 0 0 0 .21.65.86.86 0 0 0 .64.29.84.84 0 0 0 .83-.75.83.83 0 0 1 .11-.35 2.55 2.55 0 0 1 .51-.6 5.49 5.49 0 0 0 .8-.92Zm-7.89-2.36h-7.2a.96.96 0 1 0 0 1.92h7.2a.96.96 0 1 0 0-1.92Zm0 3.58h-7.2a.96.96 0 1 0 0 1.92h7.2a.96.96 0 1 0 0-1.91Z"/></svg>