<svg data-tags="Modern Marketing, Marketing, launchpad" xmlns="http://www.w3.org/2000/svg" viewBox="0 0 50 49.438"><path d="M24.541 35.62c.034-.094.087-.175.127-.264H4.806V4.107h37.837v19.607a3.353 3.353 0 0 1 1.635-.431 3.393 3.393 0 0 1 .366.032V3.107a1 1 0 0 0-1-1H3.806c-.025 0-.046.012-.07.014a.984.984 0 0 0-.25.05.93.93 0 0 0-.107.04.992.992 0 0 0-.246.165c-.012.011-.027.018-.039.029l-.005.004L.283 5.29A1 1 0 0 0 0 5.987v33.25a1 1 0 0 0 1 1h24.381l-.708-1.523a4.02 4.02 0 0 1-.131-3.095Z"/><path d="M44.455 26.173a.516.516 0 0 0-.662.307l-.492 1.347a.517.517 0 1 0 .97.354l.492-1.346a.516.516 0 0 0-.308-.662ZM49.052 31.856a.517.517 0 0 0-.435-.937l-1.3.605a.517.517 0 0 0 .435.936ZM49.66 37.373l-1.346-.491a.516.516 0 1 0-.354.97l1.346.492a.517.517 0 0 0 .355-.97ZM30.948 34.486 27.84 35.93a1.189 1.189 0 0 0-.576 1.579l2.957 6.36a1.188 1.188 0 0 0 1.579.577L34.907 43ZM42.882 34.112l-3.284-7.065a.846.846 0 0 0-1.562.066l-.346.948a10.173 10.173 0 0 1-5.268 5.736l-.539.25 1.98 4.258 1.98 4.258.539-.25a10.173 10.173 0 0 1 7.78-.33l.948.345a.846.846 0 0 0 1.057-1.151ZM35.18 44.005l-1.898.882.916 1.839a1.046 1.046 0 1 0 1.898-.883ZM43.302 31.647l-.297.138a.16.16 0 0 0-.077.213l1.632 3.511a.16.16 0 0 0 .214.079l.296-.139a2.097 2.097 0 0 0-1.768-3.802Z" fill="#6ac96e"/><path d="M36.149 10.216H23.562a1.8 1.8 0 0 0-1.798 1.799v14.304a.239.239 0 0 0 .417.159l3.29-3.675h10.678a1.808 1.808 0 0 0 1.798-1.798v-8.99a1.809 1.809 0 0 0-1.798-1.799Zm-6.85 3.665a.85.85 0 0 1 1.7 0v3.293a.85.85 0 1 1-1.7 0Zm.85 6.576a.92.92 0 1 1 .92-.92.921.921 0 0 1-.92.92ZM18.403 12.561H9.738a1.152 1.152 0 1 0 0 2.304h8.665a1.152 1.152 0 0 0 0-2.304ZM18.403 16.873h-6.575a1.151 1.151 0 1 0 0 2.303h6.575a1.151 1.151 0 1 0 0-2.303ZM18.403 21.184h-3.757a1.151 1.151 0 1 0 0 2.303h3.757a1.151 1.151 0 1 0 0-2.303Z"/></svg>