<svg data-tags="dashboard thumbnails,research" xmlns="http://www.w3.org/2000/svg" viewBox="0 0 185 92"><path d="M107.681 14.304a1.5 1.5 0 0 1 1.5 1.5v42.47c0 .716-.26 1.31-.582 1.31H72.76c-.323 0-.583-.594-.583-1.31v-42.47a1.5 1.5 0 0 1 1.5-1.5Z" fill="#cb7ec4"/><path d="M95.924 20.807a1.5 1.5 0 0 1 1.5 1.5v42.614c0 .72-.294 1.315-.657 1.315H56.295c-.364 0-.658-.596-.658-1.315V22.307a1.5 1.5 0 0 1 1.5-1.5Z" fill="#fff"/><path d="M74.152 36.47v7.634H70.2v-7.633a1.14 1.14 0 0 1 1.173-1.092h1.62a1.129 1.129 0 0 1 1.159 1.092Z" fill="#ed4c67"/><path d="M86.975 28.73v15.348h-3.952V28.731a1.14 1.14 0 0 1 1.172-1.092h1.62a1.129 1.129 0 0 1 1.16 1.092Z" fill="#108cc5"/><path d="M67.535 31.036v13.068h-3.951V31.036a1.142 1.142 0 0 1 1.172-1.104h1.62a1.13 1.13 0 0 1 1.16 1.1Z" fill="#8c43ff"/><path d="M80.768 33.577v10.501h-3.951V33.577a1.142 1.142 0 0 1 1.172-1.105h1.62a1.13 1.13 0 0 1 1.16 1.1Z" fill="#a3cb38"/><path d="M75.65 52.025H64.225a.877.877 0 0 1 0-1.753H75.65a.877.877 0 0 1 0 1.753ZM75.65 56.36H64.225a.877.877 0 0 1 0-1.753H75.65a.877.877 0 1 1 0 1.753ZM71.198 60.461h-6.972a.877.877 0 0 1 0-1.753h6.972a.877.877 0 0 1 0 1.753Z" fill="#ed4c67"/><path d="M129.281 73.771a3.376 3.376 0 0 0-.38-.95 3.602 3.602 0 0 0-.6-.73l-.46-.41-.9-.83-3.65-3.3-7.26-6.64-3.5-3.16a6.36 6.36 0 0 1-1.35 2.19 6.253 6.253 0 0 1-2 1.43c.38.4.77.8 1.15 1.19l6.77 7.15 6.83 7.09a3.189 3.189 0 0 0 3.8.47 3.223 3.223 0 0 0 1.55-3.5Z" fill="#8c43ff"/><path d="M112.531 57.751a6.36 6.36 0 0 1-1.35 2.19 6.253 6.253 0 0 1-2 1.43c-.09-.09-.17-.18-.26-.27-.47-.49-.94-.99-1.41-1.48-.7-.72-1.39-1.45-2.1-2.15a14.11 14.11 0 0 0 2.76-3.65c.2.18.38.34.57.5l1.72 1.56 1.56 1.4Z" fill="#ed4c67"/><path d="M108.692 61.371c-.09-.09-.17-.18-.26-.27M112.531 57.751l-.51-.47" fill="none"/><path d="M96.381 27.661a17.469 17.469 0 1 0 17.48 17.48 17.498 17.498 0 0 0-17.48-17.48Zm9.66 28.25a14.468 14.468 0 1 1 4.82-10.77 14.498 14.498 0 0 1-4.82 10.77Z" fill="#8c43ff"/></svg>