<svg data-tags="dashboard thumbnails,research" xmlns="http://www.w3.org/2000/svg" viewBox="0 0 185 92"><path fill="#8c43ff" d="m103.41 36.603 9.303-.128.027 2-9.303.127zM74.462 37.16H62.844l-1.597-7.044a1 1 0 1 0-1.95.441l1.773 7.825a.942.942 0 0 0 .039.093 1.134 1.134 0 0 0 .273.423.981.981 0 0 0 .194.13.949.949 0 0 0 .108.06.987.987 0 0 0 .36.073h12.418a1 1 0 0 0 0-2Z"/><path d="M121.843 73.446a3.375 3.375 0 0 0-.38-.95 3.602 3.602 0 0 0-.6-.73l-.46-.41-.9-.83-3.65-3.3-7.26-6.64-3.5-3.16a6.36 6.36 0 0 1-1.35 2.19 6.253 6.253 0 0 1-2 1.43c.38.4.77.8 1.15 1.19l6.77 7.15 6.83 7.09a3.189 3.189 0 0 0 3.8.47 3.223 3.223 0 0 0 1.55-3.5Z" fill="#ed4c67"/><path d="M105.093 57.426a6.36 6.36 0 0 1-1.35 2.19 6.253 6.253 0 0 1-2 1.43c-.09-.09-.17-.18-.26-.27-.47-.49-.94-.99-1.41-1.48-.7-.72-1.39-1.45-2.1-2.15a14.109 14.109 0 0 0 2.76-3.65c.2.18.38.34.57.5l1.72 1.56 1.56 1.4Z" fill="#8c43ff"/><path d="M62.529 22.096v8.717h-4.513v-8.717a1.303 1.303 0 0 1 1.339-1.247h1.85a1.289 1.289 0 0 1 1.324 1.247Z" fill="#327afd"/><path d="M54.972 15.89v14.923H50.46V15.89a1.305 1.305 0 0 1 1.339-1.261h1.85a1.291 1.291 0 0 1 1.323 1.256Z" fill="#5cc8c3"/><path d="M70.085 18.79v11.993h-4.513V18.791a1.305 1.305 0 0 1 1.339-1.262h1.85a1.291 1.291 0 0 1 1.324 1.257Z" fill="#ac4aa2"/><path d="M134.54 35.939a11.431 11.431 0 0 1-1.572 5.8l-9.933-5.8 4.752-10.48a11.5 11.5 0 0 1 6.753 10.48Z" fill="#fda7df"/><path d="m127.787 25.458-4.752 10.481-9.1 7.027a11.503 11.503 0 0 1 13.852-17.508Z" fill="#d6498b"/><path d="M132.968 41.74a11.492 11.492 0 0 1-19.032 1.226l9.1-7.027Z" fill="#5cc8c3"/><path d="M88.946 27.338a17.469 17.469 0 1 0 17.48 17.48 17.498 17.498 0 0 0-17.48-17.48Zm12.54 24.7a14.519 14.519 0 0 1-12.54 7.26 14.48 14.48 0 1 1 14.48-14.48 14.257 14.257 0 0 1-1.94 7.22Z" fill="#ed4c67"/><path d="M103.426 44.818a14.496 14.496 0 0 1-4.82 10.77 14.468 14.468 0 1 1 4.82-10.77Z" fill="#fff"/><rect x="51.378" y="49.233" width="38.01" height="24.469" rx="1.5" fill="#a3cb38"/><path d="M82.77 55.44c-.009-.046-.027-.088-.04-.133a1.03 1.03 0 0 0-.154-.36c-.018-.033-.032-.067-.053-.098a1.657 1.657 0 0 0-.208-.25l-.003-.005c-.021-.02-.046-.035-.067-.054a1.652 1.652 0 0 0-.182-.146c-.042-.028-.087-.048-.13-.071a.976.976 0 0 0-.317-.13c-.048-.014-.094-.032-.144-.041a1.656 1.656 0 0 0-.231-.024c-.03-.001-.057-.009-.087-.009l-.005.001a1.658 1.658 0 0 0-.241.024 1.638 1.638 0 0 0-.24-.025h-8.691a1.65 1.65 0 1 0 0 3.3h5.237l-5.725 5.81-3.981-4.04-.01-.009-.008-.01c-.037-.036-.08-.063-.119-.095a1.686 1.686 0 0 0-.132-.106c-.044-.03-.092-.05-.138-.074a1.664 1.664 0 0 0-.149-.077c-.049-.02-.1-.03-.15-.046-.052-.015-.102-.034-.155-.044-.052-.01-.105-.011-.159-.017-.052-.005-.103-.013-.156-.013-.052 0-.103.009-.155.013-.053.005-.107.007-.16.017-.05.01-.098.028-.147.042a1.623 1.623 0 0 0-.158.048c-.047.02-.09.047-.136.07a1.613 1.613 0 0 0-.15.082c-.045.029-.084.066-.126.1s-.086.062-.125.1l-.008.01-.01.008-6.72 6.821a1.65 1.65 0 1 0 2.35 2.315l5.546-5.628 3.981 4.04.01.008.008.01a1.626 1.626 0 0 0 .14.112c.037.03.071.064.11.09a1.602 1.602 0 0 0 .176.093c.037.019.072.042.11.058a1.634 1.634 0 0 0 .215.064c.03.008.06.02.091.027a1.642 1.642 0 0 0 .63 0c.03-.006.056-.018.084-.025a1.636 1.636 0 0 0 .223-.066c.033-.014.063-.035.096-.05a1.612 1.612 0 0 0 .19-.102c.036-.024.068-.055.103-.082a1.608 1.608 0 0 0 .147-.119l.008-.01.01-.008 6.84-6.943v4.797a1.65 1.65 0 1 0 3.299 0v-8.827a1.657 1.657 0 0 0-.033-.323Z" fill="#fff"/></svg>