<svg data-tags="dashboard thumbnails,research" xmlns="http://www.w3.org/2000/svg" viewBox="0 0 185 92"><path d="M122.834 69.353a3.376 3.376 0 0 0-.38-.95 3.602 3.602 0 0 0-.6-.73l-.46-.41-.9-.83-3.65-3.3-7.26-6.64-3.5-3.16a6.36 6.36 0 0 1-1.35 2.19 6.253 6.253 0 0 1-2 1.43c.38.4.77.8 1.15 1.19l6.77 7.15 6.83 7.09a3.189 3.189 0 0 0 3.8.47 3.223 3.223 0 0 0 1.55-3.5Z" fill="#327afd"/><path d="M106.084 53.333a6.36 6.36 0 0 1-1.35 2.19 6.253 6.253 0 0 1-2 1.43c-.09-.09-.17-.18-.26-.27-.47-.49-.94-.99-1.41-1.48-.7-.72-1.39-1.45-2.1-2.15a14.11 14.11 0 0 0 2.76-3.65c.2.18.38.34.57.5l1.72 1.56 1.56 1.4Z" fill="#ed4c67"/><path d="M102.734 56.953c-.09-.09-.17-.18-.26-.27M106.084 53.333l-.51-.47" fill="none"/><path d="M89.935 23.243a17.47 17.47 0 1 0 17.48 17.48 17.498 17.498 0 0 0-17.48-17.48Zm12.54 24.7a14.516 14.516 0 0 1-12.54 7.26 14.48 14.48 0 1 1 14.48-14.48 14.252 14.252 0 0 1-1.94 7.22Z" fill="#327afd"/><path d="M104.415 40.723a14.499 14.499 0 0 1-4.82 10.77 14.469 14.469 0 1 1 4.82-10.77Z" fill="#fff"/><path fill="#327afd" d="m58.77 28.382.666-1.887 16.352 5.773-.666 1.886zM105.574 39.723h12.684v2h-12.684z"/><path d="M65.914 55.963h-7a1.215 1.215 0 1 0 0 2.43h7a1.208 1.208 0 0 0 1.21-1.21v-.01a1.208 1.208 0 0 0-1.21-1.21ZM85.684 38.723a3.983 3.983 0 0 0-5.34 0l-9.71 9.7a3.761 3.761 0 0 0-1.05 2.03l-.65 3.81a1.22 1.22 0 0 0 .99 1.41 1.409 1.409 0 0 0 .2.01l3.97-.82a3.739 3.739 0 0 0 1.88-1.02l9.75-9.75a3.733 3.733 0 0 0 1.1-2.68 3.836 3.836 0 0 0-1.14-2.69Z" fill="#d6498b"/><path fill="none" d="M46.986 18.725h15.032v20.398H46.986z"/><path d="M54.77 21.407a.806.806 0 0 0 0 1.612 2.95 2.95 0 0 1 2.954 2.952.806.806 0 0 0 1.61 0 4.573 4.573 0 0 0-4.563-4.564Zm-1.879-2.511a7.518 7.518 0 0 1 6.26 13.248 3.581 3.581 0 0 0-1.373 2.147h-6.495a.181.181 0 0 0-.076.01 3.239 3.239 0 0 0-1.224-2.061 7.51 7.51 0 0 1 2.91-13.344ZM57.724 35.9v1.342a1.888 1.888 0 0 1-1.88 1.88h-2.683a1.957 1.957 0 0 1-1.88-2.19V35.9Z" fill="#ffc312" fill-rule="evenodd"/><path fill="#ac56ae" d="m123.743 47.851 13.277-.093V33.551l-9.785.067-9.785-.067v14.344l6.293-.044"/><path d="M117.45 48.895a1 1 0 0 1-1-1V33.551a.999.999 0 0 1 1-1h.006l9.786.067 9.771-.067h.007a.999.999 0 0 1 1 1v14.207a1 1 0 0 1-.993 1l-19.57.137Zm1-14.337v12.33l5.287-.038 12.283-.085V34.558l-8.778.06Z" fill="#ac56ae"/><path d="M134.331 38.153h-14.193a1 1 0 0 1 0-2h14.193a1 1 0 0 1 0 2ZM134.331 41.822h-14.193a1 1 0 0 1 0-2h14.193a1 1 0 0 1 0 2ZM128.801 45.292h-8.663a1 1 0 0 1 0-2h8.663a1 1 0 0 1 0 2Z" fill="#fff"/></svg>