<svg data-tags="dashboard thumbnails,research" xmlns="http://www.w3.org/2000/svg" viewBox="0 0 185 92"><path d="M129.763 74.264a3.376 3.376 0 0 0-.38-.95 3.602 3.602 0 0 0-.6-.73l-.46-.41-.9-.83-3.65-3.3-7.26-6.64-3.5-3.16a6.36 6.36 0 0 1-1.35 2.19 6.253 6.253 0 0 1-2 1.43c.38.4.77.8 1.15 1.19l6.77 7.15 6.83 7.09a3.189 3.189 0 0 0 3.8.47 3.223 3.223 0 0 0 1.55-3.5Z" fill="#8c43ff"/><path d="M113.013 58.244a6.36 6.36 0 0 1-1.35 2.19 6.253 6.253 0 0 1-2 1.43c-.09-.09-.17-.18-.26-.27-.47-.49-.94-.99-1.41-1.48-.7-.72-1.39-1.45-2.1-2.15a14.11 14.11 0 0 0 2.76-3.65c.2.18.38.34.57.5l1.72 1.56 1.56 1.4ZM106.416 19.861c-.01 0-.02-.01-.03-.01l-35.61-5.89a1.068 1.068 0 0 0-.36-.1l-.61-.05c-3.04 0-5.51 2.79-5.51 6.22 0 .02.01.04.01.06v40.94a5.042 5.042 0 0 1-.05.67l-7.95-1.82a.939.939 0 0 0-.79.18.905.905 0 0 0-.36.71 6.094 6.094 0 0 0 4.41 6.09l35.66 8.14.12.03h.01a4.905 4.905 0 0 0 1.11.12c3.02 0 5.48-2.77 5.5-6.18 0-.01.01-.02.01-.04 0-.01-.01-.02-.01-.04v-33.67l7.98 2.01a.985.985 0 0 0 .24.03 1.04 1.04 0 0 0 .35-.07l.02-.02a.782.782 0 0 0 .26-.17.139.139 0 0 0 .04-.03.776.776 0 0 0 .16-.24l.03-.06a.782.782 0 0 0 .04-.09.419.419 0 0 0 .01-.16c0-.02.02-.04.02-.07v-10.35a6.034 6.034 0 0 0-4.7-6.14Zm-6.31 6.12a.035.035 0 0 1-.01.02v42.94a4.905 4.905 0 0 1-1.06 3.11 3.34 3.34 0 0 1-2.57 1.29 2.797 2.797 0 0 1-.67-.08l-.11-.02a4.328 4.328 0 0 1-2.86-4.31.916.916 0 0 0-.72-.88l-26.02-5.94a6.463 6.463 0 0 0 .09-1.08v-41.01c0-.01-.01-.03-.01-.04.03-2.4 1.63-4.33 3.53-4.36l32.64 5.4a6.453 6.453 0 0 0-2.23 4.96Z" fill="#b1306c"/><path d="M102.336 21.021a6.453 6.453 0 0 0-2.23 4.96.035.035 0 0 1-.01.02v42.94a4.905 4.905 0 0 1-1.06 3.11 3.34 3.34 0 0 1-2.57 1.29 2.797 2.797 0 0 1-.67-.08l-.11-.02a4.328 4.328 0 0 1-2.86-4.31.916.916 0 0 0-.72-.88l-26.02-5.94a6.463 6.463 0 0 0 .09-1.08v-41.01c0-.01-.01-.03-.01-.04.03-2.4 1.63-4.33 3.53-4.36Z" fill="#fff"/><path fill="#ff6060" d="m70.397 28.71 24.66 4.156M95.059 33.866a1.08 1.08 0 0 1-.167-.014L70.23 29.697a1 1 0 0 1 .332-1.973l24.66 4.156a1 1 0 0 1-.164 1.986ZM70.397 34.959l24.66 4.155M95.059 40.114a1.08 1.08 0 0 1-.167-.014L70.23 35.945a1 1 0 0 1 .332-1.973l24.66 4.156a1 1 0 0 1-.164 1.986ZM70.397 41.207l24.66 4.156M95.059 46.363a1.08 1.08 0 0 1-.167-.014L70.23 42.194a1 1 0 0 1 .332-1.973l24.66 4.156a1 1 0 0 1-.164 1.986ZM70.397 47.456l24.66 4.155M95.059 52.611a1.08 1.08 0 0 1-.167-.014L70.23 48.442a1 1 0 0 1 .332-1.973l24.66 4.156a1 1 0 0 1-.164 1.986ZM70.397 53.704l24.66 4.156M95.059 58.86a1.08 1.08 0 0 1-.167-.014L70.23 54.691a1 1 0 0 1 .332-1.973l24.66 4.156a1 1 0 0 1-.164 1.986Z"/><path d="M96.863 28.154a17.469 17.469 0 1 0 17.48 17.48 17.498 17.498 0 0 0-17.48-17.48Zm9.66 28.25a14.468 14.468 0 1 1 4.82-10.77 14.498 14.498 0 0 1-4.82 10.77Z" fill="#8c43ff"/></svg>