<svg data-tags="dashboard thumbnails,research" xmlns="http://www.w3.org/2000/svg" viewBox="0 0 185 92"><path d="M57.793 46.73a1 1 0 0 1-1-1v-6.6a1 1 0 0 1 2 0v6.6a1 1 0 0 1-1 1Z" fill="#327afd"/><path d="M72.865 40.13H57.793a1 1 0 0 1 0-2h15.072a1 1 0 0 1 0 2ZM127.207 47.161h-22.23a1 1 0 0 1 0-2h22.23a1 1 0 0 1 0 2Z" fill="#327afd"/><path fill="#327afd" d="M126.132 39.561h2v6.601h-2z"/><path d="M57.793 54.907a5.06 5.06 0 1 0-5.06-5.06 5.064 5.064 0 0 0 5.06 5.06ZM67.792 68.986H47.793a.646.646 0 0 1-.58-.717c.31-6.687 4.926-11.996 10.575-11.996s10.274 5.309 10.584 11.996a.646.646 0 0 1-.58.717ZM127.207 26.483a5.06 5.06 0 1 0-5.06-5.06 5.064 5.064 0 0 0 5.06 5.06ZM137.207 40.562h-20a.646.646 0 0 1-.58-.717c.31-6.687 4.927-11.996 10.576-11.996s10.274 5.309 10.584 11.996a.646.646 0 0 1-.58.717Z" fill="#5cc8c3"/><path d="M121.737 71.711a3.375 3.375 0 0 0-.38-.95 3.602 3.602 0 0 0-.6-.73l-.46-.41-.9-.83-3.65-3.3-7.26-6.64-3.5-3.16a6.36 6.36 0 0 1-1.35 2.19 6.253 6.253 0 0 1-2 1.43c.38.4.77.8 1.15 1.19l6.77 7.15 6.83 7.09a3.189 3.189 0 0 0 3.8.47 3.223 3.223 0 0 0 1.55-3.5Z" fill="#327afd"/><path d="M104.987 55.691a6.36 6.36 0 0 1-1.35 2.19 6.253 6.253 0 0 1-2 1.43c-.09-.09-.17-.18-.26-.27-.47-.49-.94-.99-1.41-1.48-.7-.72-1.39-1.45-2.1-2.15a14.11 14.11 0 0 0 2.76-3.65c.2.18.38.34.57.5l1.72 1.56 1.56 1.4Z" fill="#ed4c67"/><path d="M101.637 59.311c-.09-.09-.17-.18-.26-.27M104.987 55.691l-.51-.47" fill="none"/><path d="M88.836 25.6a17.469 17.469 0 1 0 17.48 17.48 17.498 17.498 0 0 0-17.48-17.48Zm12.54 24.7a14.518 14.518 0 0 1-12.54 7.26 14.48 14.48 0 1 1 14.48-14.48 14.257 14.257 0 0 1-1.94 7.22Z" fill="#327afd"/><path d="M103.316 43.08a14.497 14.497 0 0 1-4.82 10.77 14.468 14.468 0 1 1 4.82-10.77Z" fill="#fff"/></svg>