<svg data-tags="dashboard thumbnails,research" xmlns="http://www.w3.org/2000/svg" viewBox="0 0 185 92"><rect x="45.669" y="18.599" width="70.301" height="47.194" rx="1.5" fill="#a3cb38"/><path d="M76.504 46.901c-.01-.046-.027-.088-.04-.133a1.03 1.03 0 0 0-.154-.36c-.019-.032-.032-.067-.053-.098a1.657 1.657 0 0 0-.208-.25l-.004-.005c-.02-.02-.045-.035-.067-.054a1.652 1.652 0 0 0-.181-.146c-.042-.028-.087-.047-.131-.071a.975.975 0 0 0-.317-.13c-.048-.014-.094-.032-.144-.041a1.656 1.656 0 0 0-.23-.024c-.03-.001-.058-.008-.087-.008h-.006a1.658 1.658 0 0 0-.241.024 1.637 1.637 0 0 0-.24-.024H65.71a1.65 1.65 0 0 0 0 3.299h5.238l-5.725 5.81-3.982-4.04-.01-.008-.008-.01c-.037-.037-.079-.063-.119-.096a1.688 1.688 0 0 0-.132-.106c-.044-.029-.092-.05-.138-.074a1.664 1.664 0 0 0-.148-.077c-.05-.02-.1-.03-.151-.045-.052-.016-.102-.035-.154-.045-.053-.01-.106-.011-.16-.016-.051-.005-.103-.014-.155-.014-.052 0-.103.009-.155.014-.054.005-.107.006-.16.016-.05.01-.098.028-.147.043a1.626 1.626 0 0 0-.159.048c-.047.019-.09.047-.136.07a1.612 1.612 0 0 0-.15.08c-.044.03-.084.068-.125.101s-.086.063-.125.101l-.008.01-.01.008-6.72 6.82a1.65 1.65 0 1 0 2.35 2.315l5.545-5.628 3.982 4.04.01.009.007.01a1.624 1.624 0 0 0 .14.112c.037.03.072.063.11.09a1.604 1.604 0 0 0 .176.092c.037.019.073.043.111.058a1.632 1.632 0 0 0 .214.064c.03.008.06.021.092.027a1.642 1.642 0 0 0 .63 0c.029-.005.056-.017.084-.024a1.634 1.634 0 0 0 .222-.067c.033-.014.064-.034.096-.05a1.614 1.614 0 0 0 .19-.101c.037-.024.069-.056.103-.083a1.609 1.609 0 0 0 .147-.119l.008-.01.01-.007 6.84-6.944v4.797a1.65 1.65 0 0 0 3.3 0v-8.82l-.001-.007a1.656 1.656 0 0 0-.033-.323Z" fill="#d6498b"/><path d="M76.09 28.366H52.144a1 1 0 0 1 0-2H76.09a1 1 0 0 1 0 2ZM76.09 34.556H52.144a1 1 0 0 1 0-2H76.09a1 1 0 0 1 0 2ZM66.76 40.413H52.143a1 1 0 0 1 0-2h14.615a1 1 0 0 1 0 2ZM139.25 69.476a3.375 3.375 0 0 0-.38-.95 3.602 3.602 0 0 0-.6-.73l-.46-.41-.9-.83-3.65-3.3-7.26-6.64-3.5-3.16a6.36 6.36 0 0 1-1.35 2.19 6.253 6.253 0 0 1-2 1.43c.38.4.77.8 1.15 1.19l6.77 7.15 6.83 7.09a3.189 3.189 0 0 0 3.8.47 3.223 3.223 0 0 0 1.55-3.5Z" fill="#8c43ff"/><path d="M122.5 53.456a6.36 6.36 0 0 1-1.35 2.19 6.253 6.253 0 0 1-2 1.43c-.09-.09-.17-.18-.26-.27-.47-.49-.94-.99-1.41-1.48-.7-.72-1.39-1.45-2.1-2.15a14.11 14.11 0 0 0 2.76-3.65c.2.18.38.34.57.5l1.72 1.56 1.56 1.4Z" fill="#ffc312"/><path d="M106.35 23.366a17.469 17.469 0 1 0 17.48 17.48 17.498 17.498 0 0 0-17.48-17.48Zm9.66 28.25a14.468 14.468 0 1 1 4.82-10.77 14.498 14.498 0 0 1-4.82 10.77Z" fill="#8c43ff"/></svg>