<svg data-tags="illustration,rules" xmlns="http://www.w3.org/2000/svg" viewBox="0 0 40 40"><path d="M32.844 23.837c-.145 0-.287.018-.43.026v-5.13h.063c.009 0 .017.005.026.005a1.007 1.007 0 00.256-.056 1.033 1.033 0 00.14-.03 1.007 1.007 0 00.132-.09.985.985 0 00.203-.154c.01-.012.027-.016.037-.029l6.37-7.62a1 1 0 000-1.283l-6.37-7.61c-.01-.011-.023-.016-.033-.026a.98.98 0 00-.169-.136.978.978 0 00-.143-.096.992.992 0 00-.175-.05.979.979 0 00-.203-.041c-.015-.001-.028-.01-.043-.01h-.001l-2.183.004a.99.99 0 00-.735.336c-.01.01-.022.012-.03.022L23.22 9.438h-8.136a6.792 6.792 0 00.111-1.218 6.717 6.717 0 00-6.709-6.71 6.594 6.594 0 00-2.948.695 6.705 6.705 0 00.926 13.268v8.095H2.37a1.004 1.004 0 00-.706.295l-.002.001-1.247 1.26c-.023.022-.03.052-.05.077a.986.986 0 00-.162.246.99.99 0 00-.064.317c-.002.022-.013.04-.013.063v11.665a1 1 0 001 1h11.665a1.009 1.009 0 00.708-.295l.003-.001 1.252-1.264c.022-.023.03-.053.05-.077a.814.814 0 00.226-.563c.001-.022.013-.041.013-.064v-11.66a1 1 0 00-1-1h-5.58v-8.276a6.653 6.653 0 001.406-.52 6.64 6.64 0 004.496-3.334h9.386l5.803 6.933c.01.01.023.014.032.024a.987.987 0 00.236.181.971.971 0 00.091.062.988.988 0 00.406.09l.094.001v5.545a6.976 6.976 0 00-.665.294 7.029 7.029 0 104.5 13.184 7.028 7.028 0 00-1.405-13.915zm-30.717 2.99h9.665v9.665H2.127zM2.15 8.783A4.718 4.718 0 015.904 4.17l.017-.004a4.71 4.71 0 11-3.77 4.616zm28.171-4.714l5.066 6.051-5.066 6.05-5.065-6.05zM26.098 31.46a5.039 5.039 0 014.012-4.926l.02-.004a5.03 5.03 0 11-4.032 4.93z"/></svg>