<svg xmlns="http://www.w3.org/2000/svg" data-tags="preview" viewBox="0 0 668 304"><g fill="none" fill-rule="evenodd"><path stroke="#DCDCE3" d="M191.5 22v260a3.5 3.5 0 003.5 3.5h278a3.5 3.5 0 003.5-3.5V22a3.5 3.5 0 00-3.5-3.5H195a3.5 3.5 0 00-3.5 3.5z"/><text font-family="OpenSansRegular, Open Sans" font-size="12" fill="#82828C" transform="translate(191 18)"><tspan x="20" y="169">Value 1</tspan></text><text font-family="OpenSansRegular, Open Sans" font-size="12" fill="#82828C" transform="translate(191 18)"><tspan x="20" y="207">Value 2</tspan></text><text font-family="OpenSansRegular, Open Sans" font-size="12" fill="#82828C" transform="translate(191 18)"><tspan x="20" y="245">Value 2</tspan></text><text font-family="OpenSans-Semibold, Open Sans" font-size="12" font-weight="500" fill="#4B4B55" transform="translate(191 18)"><tspan x="252" y="169">00</tspan></text><text font-family="OpenSans-Semibold, Open Sans" font-size="12" font-weight="500" fill="#4B4B55" transform="translate(191 18)"><tspan x="252" y="207">00</tspan></text><text font-family="OpenSans-Semibold, Open Sans" font-size="12" font-weight="500" fill="#4B4B55" transform="translate(191 18)"><tspan x="252" y="245">00</tspan></text><path d="M20 183h246" stroke="#F0F0F5" fill="url(#a)" stroke-linecap="round" stroke-linejoin="round" transform="translate(191 18)"/><path d="M20 221h246" stroke="#F0F0F5" fill="url(#b)" stroke-linecap="round" stroke-linejoin="round" transform="translate(191 18)"/><path d="M211 163h246m-246-56h246" stroke="#DCDCE3"/><text font-family="OpenSansRegular, Open Sans" font-size="12" fill="#82828C" transform="translate(191 18)"><tspan x="68" y="53">Lorem ipsum dolor sit amet, </tspan> <tspan x="68" y="69">consectetur adipiscing elit , sed do…</tspan></text><text font-family="OpenSansRegular, Open Sans" font-size="12" fill="#82828C" transform="translate(191 18)"><tspan x="20" y="113">Customer Profile List</tspan></text><text font-family="OpenSansRegular, Open Sans" font-size="12" fill="#82828C" transform="translate(191 18)"><tspan x="20" y="133">Workspace Profile List</tspan></text><text font-family="OpenSans-Semibold, Open Sans" font-size="12" font-weight="500" fill="#4B4B55" transform="translate(191 18)"><tspan x="68" y="33">Name</tspan></text><path d="M241.58 39.61c7.2 6.66 7.2 18.07.16 25.11a18 18 0 01-25.46 0 18.03 18.03 0 010-25.49 17.48 17.48 0 0125.3.38z" fill="#DCDCE3"/><path d="M248 60.23a7.62 7.62 0 11-10.77 10.78 7.62 7.62 0 0110.78-10.78" fill="#4367B6"/><path d="M248 60.23a7.62 7.62 0 11-10.77 10.78 7.62 7.62 0 0110.78-10.78" stroke="#FFF" stroke-linecap="round" stroke-linejoin="round"/><path d="M242.6 67.74v-1.22h1.18l.17-1.48h-1.35v-.94c0-.43.1-.72.68-.72h.72v-1.32a8.94 8.94 0 00-1.06-.06c-1.04 0-1.76.69-1.76 1.95v1.1H240v1.47h1.18V70h1.42v-2.26z" fill="#FFF"/></g></svg>