<svg xmlns="http://www.w3.org/2000/svg" data-tags="Loading state" viewBox="0 0 200 93"><path fill-rule="evenodd" clip-rule="evenodd" d="M3.25 31.655a2 2 0 100 4 2 2 0 000-4zm0-1a3 3 0 110 6 3 3 0 010-6zm68.93 4.003c-2.771 0-5.012 2.22-5.012 4.954 0 2.736 2.242 4.958 5.012 4.958 2.697 0 4.896-2.107 5.01-4.743l.004-.215-.004-.214c-.114-2.635-2.312-4.74-5.01-4.74zm0-1.8c3.68 0 6.684 2.895 6.81 6.517l.004.237-.004.238c-.126 3.623-3.13 6.52-6.81 6.52-3.76 0-6.812-3.024-6.812-6.758 0-3.733 3.05-6.754 6.812-6.754zM10.25 49.155v2.5h2.5v1h-2.5v2.5h-1v-2.5h-2.5v-1h2.5v-2.5h1zm119.471 4.2c-1.697 0-3.068 1.358-3.068 3.03 0 1.672 1.371 3.031 3.068 3.031 1.637 0 2.972-1.264 3.065-2.854l.005-.177-.005-.178c-.093-1.59-1.428-2.852-3.065-2.852zm0-1.8c2.615 0 4.752 2.044 4.865 4.614l.005.216-.005.215c-.113 2.57-2.25 4.616-4.865 4.616-2.687 0-4.868-2.161-4.868-4.831 0-2.67 2.18-4.83 4.868-4.83zm67.529 11.6v2.5h2.5v1h-2.5v2.5h-1v-2.5h-2.5v-1h2.5v-2.5h1zM92.581 49.425c-7.126 0-12.9 5.717-12.9 12.764s5.774 12.762 12.9 12.762c7.023 0 12.732-5.55 12.896-12.456l.003-.306-.003-.305c-.164-6.907-5.873-12.46-12.896-12.46zm0-1.8c8.01 0 14.528 6.35 14.696 14.252l.003.312-.003.313c-.168 7.9-6.685 14.25-14.696 14.25-8.116 0-14.7-6.517-14.7-14.563 0-8.045 6.584-14.565 14.7-14.565zm98.669 28.03a2 2 0 100 4 2 2 0 000-4zm0-1a3 3 0 110 6 3 3 0 010-6z"/><path opacity=".5" d="M90.245 29.32c-4.015 0-7.266 3.22-7.266 7.187s3.25 7.187 7.266 7.187c3.933 0 7.133-3.09 7.262-6.945l.004-.242-.004-.242c-.13-3.855-3.33-6.944-7.262-6.944zm0-1.8c4.915 0 8.92 3.88 9.062 8.722l.004.265-.004.265c-.142 4.843-4.147 8.722-9.062 8.722-5.006 0-9.066-4.022-9.066-8.987s4.06-8.986 9.066-8.986zm26.369.153c-6.664 0-12.065 5.35-12.065 11.944 0 6.59 5.401 11.938 12.065 11.938 6.565 0 11.903-5.185 12.065-11.635l.004-.303-.004-.304c-.162-6.455-5.5-11.64-12.065-11.64zm0-1.8c7.553 0 13.699 5.983 13.866 13.432l.003.311-.003.312c-.167 7.444-6.314 13.427-13.866 13.427-7.654 0-13.865-6.15-13.865-13.739 0-7.592 6.21-13.743 13.865-13.743zm0 32.735c-2.77 0-5.011 2.219-5.011 4.954 0 2.736 2.242 4.957 5.012 4.957 2.697 0 4.896-2.107 5.01-4.742l.004-.215-.004-.215c-.114-2.635-2.312-4.74-5.01-4.74zm0-1.8c3.682 0 6.685 2.894 6.811 6.517l.004.237-.004.237c-.126 3.623-3.13 6.52-6.81 6.52-3.76 0-6.812-3.024-6.812-6.757 0-3.733 3.05-6.754 6.812-6.754z"/><path opacity=".1" d="M102.272 21.46c-1.698 0-3.069 1.357-3.069 3.03 0 1.672 1.372 3.03 3.069 3.03 1.636 0 2.971-1.263 3.064-2.853l.006-.178-.006-.178c-.093-1.589-1.427-2.852-3.064-2.852zm0-1.8c2.615 0 4.751 2.044 4.865 4.614l.005.215-.005.215c-.114 2.57-2.25 4.617-4.865 4.617-2.688 0-4.869-2.162-4.869-4.832s2.181-4.83 4.869-4.83zM71.755 50.745c-1.698 0-3.069 1.358-3.069 3.03 0 1.673 1.372 3.032 3.069 3.032 1.636 0 2.971-1.265 3.065-2.854l.005-.178-.005-.178c-.094-1.589-1.428-2.852-3.065-2.852zm0-1.8c2.615 0 4.751 2.045 4.865 4.615l.005.215-.005.215c-.114 2.57-2.25 4.617-4.865 4.617-2.688 0-4.869-2.162-4.869-4.832s2.181-4.83 4.869-4.83zm37.02 25.296a1.62 1.62 0 00-1.633 1.609c0 .887.729 1.61 1.633 1.61.855 0 1.553-.645 1.628-1.464l.007-.146-.007-.147a1.625 1.625 0 00-1.628-1.462zm0-1.8c1.832 0 3.332 1.424 3.43 3.221l.005.188-.005.187c-.098 1.798-1.598 3.223-3.43 3.223-1.895 0-3.433-1.525-3.433-3.41 0-1.886 1.538-3.41 3.433-3.41z"/></svg>