<svg data-tags="Volumetric alerts, smart alerts, alerts, alert configuration" viewBox="0 0 212 136" xmlns="http://www.w3.org/2000/svg"><rect x=".5" y=".773" width="212" height="136" rx="8.5" fill="#fff" stroke="#EEE"/><path fill-rule="evenodd" clip-rule="evenodd" d="m121.75 27.242 47.941 35.334h24a4 4 0 0 1 0 8h-24l-48.059-33.665-50.925 33.665H19.691c-2.21 0-4-1.789-4-3.998 0-2.209 1.79-4.5 4-4.5h51.016l51.043-34.836Z" fill="#AC56AE"/><mask id="placeholder_smartAlert_clr__a" maskUnits="userSpaceOnUse" x="121" y="18" width="49" height="55"><path d="M121.691 18.078h48v54h-48v-54Z" fill="#D9D9D9"/></mask><g mask="url(#placeholder_smartAlert_clr__a)"><path fill-rule="evenodd" clip-rule="evenodd" d="m121.75 27.242 47.941 35.334h24a4 4 0 0 1 0 8h-24l-48.059-33.665-50.925 33.665H19.691c-2.21 0-4-1.789-4-3.998 0-2.209 1.79-4.5 4-4.5h51.016l51.043-34.836Z" fill="#5CC8C3"/></g><rect x="65.341" y="109.48" width="39.032" height="15.555" rx="2" transform="rotate(-47.573 65.34 109.48)" fill="url(#placeholder_smartAlert_clr__b)"/><rect x="16.032" y="109.48" width="39.032" height="15.555" rx="2" transform="rotate(-47.573 16.032 109.48)" fill="url(#placeholder_smartAlert_clr__c)"/><rect x="114.65" y="109.48" width="39.032" height="15.555" rx="2" transform="rotate(-47.573 114.65 109.48)" fill="url(#placeholder_smartAlert_clr__d)"/><rect x="163.959" y="109.48" width="39.032" height="15.555" rx="2" transform="rotate(-47.573 163.959 109.48)" fill="url(#placeholder_smartAlert_clr__e)"/><mask id="placeholder_smartAlert_clr__f" maskUnits="userSpaceOnUse" x="70" y="26" width="52" height="51"><path transform="translate(70.69 26.078)" fill="#FFD04F" d="M0 0h51v50H0z"/></mask><g mask="url(#placeholder_smartAlert_clr__f)"><path fill-rule="evenodd" clip-rule="evenodd" d="m121.75 27.242 50.697 35.334h21.244a4 4 0 0 1 0 8h-23.756l-48.303-33.665-50.925 33.665H19.691a4 4 0 0 1 0-8l51.016-.498 51.043-34.836Z" fill="#FF9F21"/></g><path fill="#FFD04F" fill-opacity=".22" d="M70.691 26.078h51v51h-51z"/><defs><linearGradient id="placeholder_smartAlert_clr__b" x1="97.802" y1="110.918" x2="65.986" y2="110.918" gradientUnits="userSpaceOnUse"><stop stop-color="#F7F7FC"/><stop offset="1" stop-color="#EBEBEF"/></linearGradient><linearGradient id="placeholder_smartAlert_clr__c" x1="48.493" y1="110.918" x2="16.677" y2="110.918" gradientUnits="userSpaceOnUse"><stop stop-color="#F7F7FC"/><stop offset="1" stop-color="#EBEBEF"/></linearGradient><linearGradient id="placeholder_smartAlert_clr__d" x1="147.111" y1="110.918" x2="115.295" y2="110.918" gradientUnits="userSpaceOnUse"><stop stop-color="#F7F7FC"/><stop offset="1" stop-color="#EBEBEF"/></linearGradient><linearGradient id="placeholder_smartAlert_clr__e" x1="196.42" y1="110.918" x2="164.604" y2="110.918" gradientUnits="userSpaceOnUse"><stop stop-color="#F7F7FC"/><stop offset="1" stop-color="#EBEBEF"/></linearGradient></defs></svg>
