<svg data-tags="smart cluster,bubble,cluster,reporting" xmlns="http://www.w3.org/2000/svg" viewBox="0 0 200 93"><path d="M3.25 31.66a2 2 0 102 2 2 2 0 00-2-2zm0-1a3 3 0 11-3 3 3 3 0 013-3zm68.93 4a4.96 4.96 0 105.01 5.17v-.43a4.99 4.99 0 00-5.01-4.74zm0-1.8a6.79 6.79 0 016.81 6.52v.47a6.81 6.81 0 11-6.81-7zm-61.93 16.3v2.5h2.5v1h-2.5v2.5h-1v-2.5h-2.5v-1h2.5v-2.5zm119.47 4.2a3.03 3.03 0 103.07 3.2v-.35a3.05 3.05 0 00-3.07-2.86zm0-1.8a4.85 4.85 0 014.87 4.6v.44a4.87 4.87 0 11-4.87-5.05zm67.53 11.6v2.5h2.5v1h-2.5v2.5h-1v-2.5h-2.5v-1h2.5v-2.5zM92.58 49.42a12.76 12.76 0 1012.9 13.07v-.6a12.84 12.84 0 00-12.9-12.47zm0-1.8a14.64 14.64 0 0114.7 14.26v.62a14.7 14.7 0 11-14.7-14.88zm98.67 28.04a2 2 0 102 2 2 2 0 00-2-2zm0-1a3 3 0 11-3 3 3 3 0 013-3z" fill-rule="evenodd"/><path d="M90.24 29.32a7.19 7.19 0 107.27 7.43v-.48a7.23 7.23 0 00-7.27-6.95zm0-1.8a9.03 9.03 0 019.07 8.72v.53a9.07 9.07 0 11-9.07-9.25zm26.37.15a11.94 11.94 0 1012.07 12.25v-.6a12.01 12.01 0 00-12.07-11.65zm0-1.8a13.81 13.81 0 0113.87 13.44v.62a13.87 13.87 0 11-13.87-14.06zm0 32.74a4.96 4.96 0 105.01 5.17v-.43a4.99 4.99 0 00-5-4.74zm0-1.8a6.79 6.79 0 016.82 6.51v.48a6.81 6.81 0 11-6.82-7z" opacity=".5"/><path d="M102.27 21.46a3.03 3.03 0 103.07 3.2v-.35a3.05 3.05 0 00-3.07-2.85zm0-1.8a4.85 4.85 0 014.87 4.61v.43a4.87 4.87 0 11-4.87-5.04zM71.75 50.75a3.03 3.03 0 103.07 3.2v-.35a3.05 3.05 0 00-3.07-2.85zm0-1.8a4.85 4.85 0 014.87 4.61V54a4.87 4.87 0 11-4.87-5.04zm37.03 25.3A1.61 1.61 0 10110.4 76l.01-.15v-.15a1.62 1.62 0 00-1.63-1.46zm0-1.8a3.42 3.42 0 013.43 3.21v.38a3.43 3.43 0 11-3.43-3.6z" opacity=".1"/></svg>