<svg data-tags="modern engagement , engagement, launchpad" xmlns="http://www.w3.org/2000/svg" viewBox="0 0 50 50"><path d="M9.05 18.5h5.36a1 1 0 1 0 0-2H9.05a1 1 0 1 0 0 2Zm0 3.75h8.4a1 1 0 0 0 0-2h-8.4a1 1 0 1 0 0 2Zm3.43 13.79.06.05a1.05 1.05 0 0 0 1.42 0l.05-.04c2.76-2.51 4.57-4.15 4.5-6.2a2.87 2.87 0 0 0-1.23-2.25 3.04 3.04 0 0 0-4.03.58 3.05 3.05 0 0 0-4.03-.58 2.87 2.87 0 0 0-1.24 2.26c-.06 2.04 1.74 3.68 4.5 6.18Zm23.34-13.99-.14-3.96v-.03a.99.99 0 0 0-.07-.32l-.01-.02a1.02 1.02 0 0 0-.08-.13 1 1 0 0 0-.1-.13.95.95 0 0 0-.17-.16l-.03-.02a.85.85 0 0 0-.4-.14.98.98 0 0 0-.14-.02h-4.05a1 1 0 0 0 0 2h1.62l-2.8 2.8-2.23-2.23a1.03 1.03 0 0 0-1.42 0l-4.12 4.13a1 1 0 1 0 1.42 1.42l3.41-3.42 2.24 2.24a1 1 0 0 0 1.42 0l3.59-3.6.06 1.66a1 1 0 0 0 1 .97h.04a1 1 0 0 0 .96-1.04Z"/><rect width="2.67" height="4.57" x="21.56" y="30.33" rx="1.01"/><rect width="2.67" height="9.44" x="25.12" y="25.46" rx="1.01"/><path d="M4.3 13.05H39V27.7h2V12.04a1 1 0 0 0-1-1H13.25V4.49h34.69v23.22h.4a4.64 4.64 0 0 1 1.61.3V3.49a1 1 0 0 0-1-1H12.2a.98.98 0 0 0-.34.06l-.03.02a.75.75 0 0 0-.21.13L9.34 4.51a1.01 1.01 0 0 0-.39.8v5.73H3.3a1.11 1.11 0 0 0-.2.02.84.84 0 0 0-.15.04.92.92 0 0 0-.14.07.75.75 0 0 0-.12.07s-.02 0-.03.02l-.08.07-2.2 1.75a.99.99 0 0 0-.38.78v28.02a1 1 0 0 0 1 1h27.56v-3.82H4.3Z"/><path d="M48.35 30.72h-11.3a1.64 1.64 0 0 0-1.65 1.63v1.25h9.12a2.52 2.52 0 0 1 2.53 2.5v4.95h1.3a1.66 1.66 0 0 0 1.37-.72 1.6 1.6 0 0 0 .28-.9v-7.08a1.64 1.64 0 0 0-1.65-1.63Z"/><path d="M45.45 34.74a1.66 1.66 0 0 0-.93-.28H33.23a1.66 1.66 0 0 0-.92.28 1.62 1.62 0 0 0-.73 1.36v7.06a1.64 1.64 0 0 0 1.65 1.63h.86v2.22a.51.51 0 0 0 .93.3l1.2-1.65.63-.87h7.67a1.64 1.64 0 0 0 1.66-1.63V36.1a1.62 1.62 0 0 0-.73-1.36Zm-7.25 6.98h-3.06a.67.67 0 0 1-.68-.67.66.66 0 0 1 .2-.47.68.68 0 0 1 .48-.2h3.06a.67.67 0 1 1 0 1.34Zm4.42-2.84h-7.48a.67.67 0 1 1 0-1.34h7.48a.67.67 0 1 1 0 1.34Zm-9.13-12.9a1 1 0 0 0-1 1v4.46a4.65 4.65 0 0 1 2.66-3.31v-1.15a1 1 0 0 0-1-1Zm-3.14 1.98h-.66a1 1 0 0 0-1 1v4.93a.98.98 0 0 0 .18.55 4.46 4.46 0 0 1 2.49-2.58v-2.9a1 1 0 0 0-1-1Z"/></svg>