<svg data-tags="modern engagement , engagement, launchpad" xmlns="http://www.w3.org/2000/svg" viewBox="0 0 50 50"><path d="M10.3 20.12h11.28a1.5 1.5 0 1 0 0-3.01H10.3a1.5 1.5 0 0 0 0 3.01Zm33.17-7.37a2.67 2.67 0 0 0-.8-1.79 2.49 2.49 0 0 0-3.5-.16l-9.87 9.88a.43.43 0 0 0-.13.25l-.41 1.82-.4 1.74a.68.68 0 0 0 .8.79l1.76-.4 1.9-.44h.02a1.23 1.23 0 0 0 .16-.16l9.83-9.82a2.24 2.24 0 0 0 .64-1.7Zm-2.46 13.89v-5.87L39 22.78v3.86h2.01zm4.17 7.28a1.76 1.76 0 0 0-.98-.3H32.24a1.76 1.76 0 0 0-.98.3 1.72 1.72 0 0 0-.78 1.43v7.49a1.74 1.74 0 0 0 1.76 1.73h.9v2.35a.54.54 0 0 0 .99.3l1.27-1.74.67-.91h8.13a1.74 1.74 0 0 0 1.75-1.73v-7.49a1.72 1.72 0 0 0-.77-1.43Zm-7.68 7.4h-3.24a.71.71 0 0 1-.72-.72.7.7 0 0 1 .2-.5.72.72 0 0 1 .52-.2h3.24a.7.7 0 1 1 0 1.41Zm4.68-3.02h-7.92a.7.7 0 1 1 0-1.42h7.92a.7.7 0 1 1 0 1.42Z"/><path d="M49.94 30.97a.98.98 0 0 0-.93-1.13 1.76 1.76 0 0 0-.76-.18H36.29a1.74 1.74 0 0 0-1.76 1.73v1.32h9.67a2.67 2.67 0 0 1 2.68 2.64v5.25h1.37a1.76 1.76 0 0 0 1.45-.76 1.7 1.7 0 0 0 .3-.96v-7.5a1.7 1.7 0 0 0-.06-.41Zm-39.64-4.7h15.25a3.78 3.78 0 0 1-.28-2.47l.12-.55H10.3a1.5 1.5 0 0 0 0 3.02Z"/><path d="M4.3 12.98h28.2l2-2.01H13.26V4.56h34.7v22.08h.3a4.74 4.74 0 0 1 1.7.33V3.55a1 1 0 0 0-1-1H12.2a1 1 0 0 0-.6.22L9.3 4.59a1 1 0 0 0-.37.78v5.6H3.29l-.04.01a.8.8 0 0 0-.35.07c-.02 0-.03.02-.05.03a.73.73 0 0 0-.19.11L.38 13.01a1 1 0 0 0-.38.78v28.03a1 1 0 0 0 1 1h26.47V39H4.29Z"/><path d="M31.73 30.04H10.3a1.5 1.5 0 0 0 0 3.02h17.77a4.75 4.75 0 0 1 3.5-2.4 4.63 4.63 0 0 1 .16-.62Z"/></svg>