<svg data-tags="Modern Engagement, engagement, launchpad" xmlns="http://www.w3.org/2000/svg" viewBox="0 0 50 49.438"><path d="M20.558 27.452H9.966a.999.999 0 0 0 0 1.998h10.592a.999.999 0 1 0 0-1.998ZM20.558 31.327H9.966a.999.999 0 0 0 0 1.998h10.592a.999.999 0 1 0 0-1.998ZM7.98 8.35A1.589 1.589 0 1 0 9.57 6.76 1.589 1.589 0 0 0 7.98 8.35ZM12.792 8.35a1.589 1.589 0 1 0 1.589-1.589 1.588 1.588 0 0 0-1.589 1.589ZM17.88 8.35a1.589 1.589 0 1 0 1.588-1.589A1.589 1.589 0 0 0 17.88 8.35Z"/><path d="M44.776 31.643a1.909 1.909 0 0 0-1.062-.32H30.76a1.909 1.909 0 0 0-1.062.32 1.863 1.863 0 0 0-.837 1.552v8.11a1.886 1.886 0 0 0 1.899 1.872h.984v2.545a.59.59 0 0 0 1.066.338l1.38-1.89.724-.993h8.801a1.886 1.886 0 0 0 1.9-1.872v-8.11a1.863 1.863 0 0 0-.838-1.552Zm-8.32 8.009h-3.51a.774.774 0 0 1-.78-.768.76.76 0 0 1 .23-.545.781.781 0 0 1 .55-.224h3.51a.768.768 0 1 1 0 1.537Zm5.07-3.262h-8.58a.769.769 0 1 1 0-1.537h8.58a.769.769 0 1 1 0 1.537Z" fill="#53b8e5"/><path d="M48.1 27.03H35.146a1.886 1.886 0 0 0-1.899 1.871v1.431h10.468a2.889 2.889 0 0 1 2.906 2.865v5.686h1.48a1.905 1.905 0 0 0 1.576-.825A1.844 1.844 0 0 0 50 37.01V28.9a1.886 1.886 0 0 0-1.9-1.872Z" fill="#53b8e5"/><path d="M39.617 12.153a2.89 2.89 0 0 0-.875-1.94 2.694 2.694 0 0 0-3.786-.177L24.254 20.737a.465.465 0 0 0-.138.277l-.445 1.972-.421 1.888a.733.733 0 0 0 .852.852l1.916-.43 2.064-.479.01-.008a1.364 1.364 0 0 0 .18-.162L38.92 14a2.426 2.426 0 0 0 .697-1.847Z"/><rect x="9.117" y="16.543" width="8.218" height="8.388" rx=".999"/><path d="M4.8 13.513h22.44l1.999-1.998H4.799V5.133h37.787v6.382h-.045c.024.18.065.355.07.537a5.36 5.36 0 0 1-.14 1.46h.115v10.52h1.998V4.135a.998.998 0 0 0-1-.999H3.802c-.025 0-.046.012-.07.014a.984.984 0 0 0-.251.05 1.003 1.003 0 0 0-.105.04.985.985 0 0 0-.248.166c-.011.01-.026.017-.037.028l-.005.005L.283 6.314A.998.998 0 0 0 0 7.011v33.204a.998.998 0 0 0 .999 1h24.864V36.34H4.8Z"/></svg>