<svg data-tags="launchpad, illustration, modern ads" xmlns="http://www.w3.org/2000/svg" viewBox="0 0 50 50"><path d="M39.46 6.1H25.6a1.5 1.5 0 100 3.01h13.85a1.5 1.5 0 100-3zm-2.01 13.77a1.5 1.5 0 00-1.5-1.5h-18.3a1.5 1.5 0 000 3h18.3a1.5 1.5 0 001.5-1.5z"/><circle cx="9.58" cy="7.61" r="1.59"/><path d="M14.4 6.02A1.6 1.6 0 1016 7.6 1.6 1.6 0 0014.4 6zm5.1 0a1.6 1.6 0 101.59 1.59 1.6 1.6 0 00-1.6-1.6z"/><path d="M24.54 35.9l.13-.26H11.82v-4.68a2.84 2.84 0 000-5.32v-3.11a2.85 2.85 0 10-2 0v3.1a2.84 2.84 0 000 5.32v4.69H4.81V12.78h37.83V24a3.01 3.01 0 012-.4V3.39a1 1 0 00-1-1H3.81l-.07.01a.99.99 0 00-.26.05.96.96 0 00-.1.04.98.98 0 00-.25.17l-.04.03-2.8 2.88a1 1 0 00-.29.7v33.25a1 1 0 001 1h24.38l-.7-1.53a4.02 4.02 0 01-.14-3.09zM4.81 4.39h37.83v6.39H4.81zM43.3 31.93l-.3.14a.16.16 0 00-.07.21l1.63 3.51a.16.16 0 00.21.08l.3-.14a2.1 2.1 0 00-1.77-3.8z"/><path d="M42.88 34.4l-3.28-7.07a.85.85 0 00-1.56.06l-.35.95a10.18 10.18 0 01-5.27 5.74l-.54.25 1.98 4.26 1.98 4.25.54-.25a10.17 10.17 0 017.78-.33l.95.35a.85.85 0 001.06-1.15zm6.17-2.26a.52.52 0 00-.43-.94l-1.3.6a.52.52 0 00.43.94zm.61 5.51l-1.35-.49a.52.52 0 00-.35.97l1.35.5a.52.52 0 00.35-.98zm-5.2-11.2a.52.52 0 00-.67.31l-.49 1.35a.52.52 0 10.97.35l.5-1.34a.52.52 0 00-.31-.67zm-9.28 17.84l-1.9.88.92 1.84a1.05 1.05 0 001.9-.89zm-4.23-9.52l-3.1 1.44a1.19 1.19 0 00-.59 1.58l2.96 6.36a1.19 1.19 0 001.58.58l3.1-1.45zm-14.8-6.47a1.5 1.5 0 001.5 1.5h15.88A7.3 7.3 0 0035 27.36l.21-.56H17.65a1.5 1.5 0 00-1.5 1.5z"/></svg>