<svg xmlns="http://www.w3.org/2000/svg" viewBox="0 0 668 304" data-tags="preview"><path fill="#9E81EB" d="M636.6 252.2c-29.1-53.6-58.6-82.8-87.6-86.7-10.9-1.9-21.9 1.7-33.4 5.6-12.6 4.2-26.8 9-43.5 7.4-16.3-1.5-27.9-6.8-40.2-12.4-11.6-5.2-23.6-10.7-39.8-12.6-.5-.1-1-.1-1.6-.2-11.5-1.4-46.3-5.5-68 17-22.8 23.8-51.6 48.2-92.4 48.2-20.2 0-37.5-11.2-54.2-22-17-11-33-21.5-51.8-21-25 .7-49.1 26.5-71.6 76.7l-.9-.4c22.6-50.6 47-76.6 72.4-77.3 19.1-.5 36 10.5 52.4 21.1 16.6 10.8 33.7 21.9 53.6 21.9 40.3 0 69-24.2 91.6-47.8 22-22.9 57.2-18.7 68.8-17.3.6.1 1.1.1 1.6.2 16.4 2 28.4 7.4 40.1 12.7 12.2 5.5 23.8 10.8 39.9 12.3 16.5 1.5 30.7-3.2 43.1-7.3 11.7-3.9 22.7-7.6 33.9-5.7 29.3 4 59.1 33.4 88.4 87.3l-.8.3z"/><path fill="#40A3F5" d="M633.8 252.5c-20.6-7.7-43.2-17.9-67-28.8-49-22.2-99.7-45.2-132.8-45.2-30 1.3-41.1 8.8-52.8 16.7-14.1 9.5-28.7 19.4-78.2 18.3-49.5-1.1-81.2-26.6-109.1-49.1-23.2-18.7-43.3-34.8-68.9-33.9-33.6.7-58 41.6-72.5 121.6l-1-.2c7.3-40.2 17.2-70.9 29.3-91.2 12.2-20.4 27.1-30.9 44.2-31.2 25.9-.9 46.1 15.3 69.5 34.2 27.8 22.4 59.3 47.8 108.5 48.8 49.3 1.1 63.7-8.7 77.7-18.1 11.8-8 23-15.5 53.3-16.9 33.3 0 84.1 23 133.3 45.3 23.8 10.8 46.3 21 66.9 28.7l-.4 1z"/><g fill="#A9A9B2" fill-rule="evenodd" clip-rule="evenodd"><path d="M326.67 276.43h-1.06l-2.14 3.4-2.13-3.4h-1.1l2.65 4.09-2.84 4.48h1.05l2.35-3.77 2.3 3.77h1.13l-2.86-4.51zm8.75-.03l-3.39 8.6h1.01l1.05-2.72h3.43l1.07 2.72h1.03l-3.37-8.6h-.83zm-.97 4.98l1.01-2.65c.16-.45.28-.86.37-1.24.14.49.27.9.4 1.24l1 2.65h-2.78zm12.85-4.95h-1.06l-2.15 3.4-2.12-3.4h-1.1l2.65 4.09-2.85 4.48h1.06l2.34-3.77 2.3 3.77h1.13l-2.86-4.51zm2.42 0h1V285h-1zm6.82 3.83c-.54-.19-.93-.37-1.19-.52s-.44-.33-.55-.52-.16-.43-.16-.73c0-.4.15-.72.45-.94s.71-.34 1.24-.34c.67 0 1.36.15 2.06.45l.31-.87a5.84 5.84 0 00-2.35-.47c-.82 0-1.47.2-1.97.59s-.74.92-.74 1.58c0 .63.17 1.14.51 1.53s.91.73 1.71 1.01c.57.2.99.38 1.27.54s.48.33.6.52.18.43.18.73c0 .45-.17.8-.5 1.05s-.84.38-1.5.38a6.44 6.44 0 01-2.38-.48v.96c.55.26 1.33.39 2.34.39.94 0 1.68-.21 2.23-.63s.82-1.01.82-1.76c0-.59-.17-1.06-.51-1.43s-.97-.72-1.87-1.04zM20.43 159.28v1.08l4.29 2.28-4.29 2.27V166l5.29-2.85H29v-1.01h-3.32zm-.03-8.5l8.6 3.39v-1.01l-2.72-1.05v-3.43l2.72-1.07v-1.03l-8.6 3.37v.83zm2.32-.8l2.65-1v2.77l-2.65-1.01c-.45-.16-.86-.28-1.24-.37.5-.13.91-.26 1.24-.39zm-2.29-11.07v1.06l3.4 2.14-3.4 2.13v1.1l4.09-2.65 4.48 2.84v-1.05l-3.77-2.34 3.77-2.31v-1.13l-4.51 2.86zm0-3.43H29v1h-8.57zm6.29-8.17c-.59 0-1.06.17-1.43.51s-.71.96-1.03 1.85c-.19.54-.37.93-.52 1.19s-.33.44-.52.55-.43.16-.73.16c-.4 0-.72-.15-.94-.45s-.34-.71-.34-1.24c0-.67.15-1.36.45-2.06l-.87-.31c-.31.71-.47 1.5-.47 2.35 0 .82.2 1.47.59 1.97s.92.74 1.58.74c.63 0 1.14-.17 1.53-.51s.73-.91 1.01-1.71c.2-.57.38-1 .54-1.27s.33-.48.52-.6.43-.18.73-.18c.45 0 .8.17 1.05.5s.38.84.38 1.5a6.44 6.44 0 01-.48 2.38h.96c.26-.55.39-1.33.39-2.34 0-.94-.21-1.68-.63-2.23s-1.02-.8-1.77-.8zM52.5 251.5V30h-1v222.5H640v-1z"/><path d="M106.71 202.26h-.78v5.62h.9v-4.41l6.89 4.55h.78v-5.89h-.9v4.68zm7.79-12.28v-1.03l-8.6 3.37v.84l8.6 3.39v-1.01l-2.72-1.05v-3.43l2.72-1.08zm-3.62 4.15l-2.65-1.01c-.45-.16-.86-.28-1.24-.37.49-.14.9-.27 1.24-.4l2.65-1v2.78zm3.62-13.06l-4.51 2.86-4.06-2.65v1.06l3.4 2.14-3.4 2.13v1.1l4.09-2.65 4.48 2.84v-1.05l-3.77-2.34 3.77-2.31zm-8.57-3.21h8.57v1h-8.57zm2.04-2.9c.63 0 1.14-.17 1.53-.51s.73-.91 1.01-1.71c.2-.57.38-.99.54-1.27s.33-.48.52-.6.43-.18.73-.18c.45 0 .8.17 1.05.5s.38.84.38 1.5a6.44 6.44 0 01-.48 2.38h.96c.26-.55.39-1.33.39-2.34 0-.94-.21-1.68-.63-2.23s-1.01-.82-1.76-.82c-.59 0-1.06.17-1.43.51s-.71.96-1.03 1.85c-.19.54-.37.93-.52 1.19s-.33.44-.52.55-.43.16-.73.16c-.4 0-.72-.15-.94-.45s-.34-.71-.34-1.24c0-.67.15-1.36.45-2.06l-.87-.31c-.31.71-.47 1.5-.47 2.35 0 .82.2 1.47.59 1.97s.91.76 1.57.76zM125 245l2.5 5 .5 1 .5-1 2.5-5h-2.5V124h2.5l-3-6-3 6h2.5v121z"/></g></svg>