<svg xmlns="http://www.w3.org/2000/svg" data-tags="charts" viewBox="0 0 37 29"><path d="M34.5 10.5c-1.15 0-2.09.92-2.12 2.07-.86.09-1.66.25-2.42.45-1.48-4.52-3.19-7.16-5.22-8.12l.03-.27a2.14 2.14 0 00-4.27 0c0 .13.02.26.04.39-1.74.77-3.47 2.23-5.17 3.67-2.59 2.2-5.04 4.27-7.1 3.58-1.77-.59-3.22-3.18-4.43-7.89a2.13 2.13 0 10-1.21.38l.28-.03c1.31 5.06 2.93 7.77 5.05 8.48 2.59.87 5.25-1.38 8.06-3.77 1.64-1.39 3.32-2.81 4.94-3.52a2.12 2.12 0 003.43-.09c1.74.87 3.27 3.34 4.62 7.48-4.12 1.44-6.77 4.44-9.17 7.18-2.06 2.35-3.91 4.46-6.4 5.42a2.13 2.13 0 00-1.97-1.33c-1.03 0-1.89.73-2.09 1.7-2.62-.73-4.62-3.83-5.7-5.94a2.12 2.12 0 001.09-1.85c0-1.17-.96-2.13-2.13-2.13S.5 17.33.5 18.5s.96 2.13 2.13 2.13l.06-.01c1.16 2.33 3.49 6.03 6.74 6.72a2.13 2.13 0 002.03 1.51c1.1 0 2-.84 2.11-1.91 2.84-1.01 4.88-3.34 7.02-5.78 2.41-2.75 4.88-5.56 8.72-6.89.62 2.07 1.21 4.5 1.76 7.32a2.13 2.13 0 102.71 2.04c0-1.03-.73-1.88-1.7-2.09a74.55 74.55 0 00-1.82-7.57c.73-.2 1.51-.34 2.34-.42a2.13 2.13 0 101.9-3.05z"/></svg>