<svg xmlns="http://www.w3.org/2000/svg" data-tags="Loading state" viewBox="0 0 200 93"><path d="M152.3 62.1l-.8.6a61 61 0 012 3.4l.9-.5a61.7 61.7 0 00-2-3.5zm-4.7-6.5l-.7.6a63 63 0 012.4 3.2l.8-.6a65 65 0 00-2.5-3.2zm-2.6-3a58.9 58.9 0 00-2.9-3l-.6.8 2.8 2.8.7-.7zm-9.2-8l-.5.8a47.4 47.4 0 013.2 2.4l.6-.8a48.3 48.3 0 00-3.3-2.4zm-3.4-2a42.3 42.3 0 00-3.7-1.9l-.4 1a41.3 41.3 0 013.6 1.7l.5-.9zm-11.6-3.3c1.3.2 2.6.6 3.9 1l.3-1a39.5 39.5 0 00-4-1l-.2 1zm-3.9-.6l.1-1-1.5-.1v1h1.4zm.1 26.6a49.7 49.7 0 003-2.9l-.8-.6a49.3 49.3 0 01-2.9 2.7l.7.8zm-3.7 1.7a26.7 26.7 0 01-3.4 2l.5 1a28 28 0 003.4-2.2l-.5-.8zm8.5-8.2l.8.6a73.8 73.8 0 002.5-3.1l-.8-.6a73 73 0 01-2.5 3zm5.7-5.8a78 78 0 002.1-3.4l-.8-.5a78.4 78.4 0 01-2.2 3.3l.9.6zM45 88.5h110v1H45z" opacity=".6"/><path d="M10.5 49h-1v2.5H7v1h2.5V55h1v-2.5H13v-1h-2.5zm187 16.5V63h-1v2.5H194v1h2.5V69h1v-2.5h2.5v-1zm-194-35a3 3 0 100 6 3 3 0 000-6zm0 5a2 2 0 110-4 2 2 0 010 4zm188 39a3 3 0 100 6 3 3 0 000-6zm0 5a2 2 0 110-4 2 2 0 010 4zm-80.5-46a4.5 4.5 0 00-4.5 4.5v.4c-3 1-5.2 3-7.2 4.8a19.7 19.7 0 01-10.9 6 4.5 4.5 0 00-4.4-3.7 4.5 4.5 0 00-4.4 3.5c-7.6-1.4-12.3-5.9-14.5-8.8a4.5 4.5 0 001.4-3.2 4.5 4.5 0 10-4.5 4.5c.8 0 1.6-.2 2.3-.7 2.4 3 7.2 7.8 15.2 9.2a4.5 4.5 0 004.5 4.5c2.4 0 4.4-2 4.5-4.3C94 49.3 97 46.6 100 44c2-1.9 4-3.6 6.7-4.6a4.5 4.5 0 004.3 3.1c2.3 0 4.2-1.7 4.4-4l.1-.5v-.4c-.3-2.3-2.2-4.1-4.5-4.1zM58.5 37a3.5 3.5 0 116 2.4l-.2.3H64a4 4 0 01-.4.3c-.5.3-1 .5-1.7.5-2 0-3.5-1.6-3.5-3.5zM84 53.5a3.5 3.5 0 01-3.5-3.3V50l.1-.8a3.5 3.5 0 013.4-2.7 3.5 3.5 0 013.4 2.8l.1.7v.3a3.5 3.5 0 01-3.5 3.2zm27-12c-1.6 0-2.9-1-3.3-2.5a3.5 3.5 0 01-.2-.9V38a3.5 3.5 0 017-.5v1c-.3 1.7-1.8 3-3.5 3zm-9 26c-2.2 0-4 1.6-4.4 3.7-4-.7-6-2.8-8.3-4.9a16.5 16.5 0 00-6.9-4.6l.1-.7a4.5 4.5 0 00-9 0v.5c-8 2-11.3 10.2-12.1 12.7a4.5 4.5 0 00-2.4-.7 4.5 4.5 0 104.5 4.5 4.5 4.5 0 00-1.3-3.1c.8-2.5 4-10.4 11.6-12.4.6 1.7 2.2 3 4.2 3a4.5 4.5 0 004.2-2.8c2.8.8 4.6 2.5 6.4 4.3 2.3 2.2 4.5 4.4 9 5.2a4.5 4.5 0 104.4-4.7zm-43 14a3.5 3.5 0 110-7 3.5 3.5 0 010 7zm19-17a3.5 3.5 0 01-3.3-2.3 3.5 3.5 0 01-.2-1V61a3.5 3.5 0 017 0v.4a4.2 4.2 0 01-.1.5 3.5 3.5 0 01-.1.3v.2a3.5 3.5 0 01-3.3 2.1zm24 11a3.5 3.5 0 01-3.5-3.1v-1a3.5 3.5 0 013.5-2.9 3.5 3.5 0 010 7z"/></svg>