<svg xmlns="http://www.w3.org/2000/svg" viewBox="0 0 668 304" data-tags="preview"><path fill="#9E81EB" fill-rule="evenodd" d="M545 192.9h44V252h-44zM191 195h44v57h-44zm88 16h44v41h-44zm178-16h44v57h-44zm-89-15h44v72h-44zm-266 40.1h43.2v31.8H102z" clip-rule="evenodd" opacity=".05"/><path fill="#9E81EB" d="M589.5 252.5h-45v-60.1h45v60.1zm-44-1h43v-58.1h-43v58.1zm-310 1h-45v-58h45v58zm-44-1h43v-56h-43v56zm132 1h-45v-42h45v42zm-44-1h43v-40h-43v40zm222 1h-45v-58h45v58zm-44-1h43v-56h-43v56zm-45 1h-45v-73h45v73zm-44-1h43v-71h-43v71zm-222.8.8h-44.2v-32.8h44.2v32.8zm-43.2-1h42.2v-30.8h-42.2v30.8z"/><path fill="#40A3F5" fill-rule="evenodd" d="M545 98h44v94.9h-44zm-354 40.3h44.4V195H191zm88 31.4h44V211h-44zm178-31.4h44V195h-44zM368 108h44v72h-44zm-266 80.3h43.2v31.8H102z" clip-rule="evenodd" opacity=".05"/><path fill="#40A3F5" d="M589.5 193.4h-45V97.5h45v95.9zm-44-1h43V98.5h-43v93.9zm-309.6 3.1h-45.4v-57.7h45.4v57.7zm-44.4-1h43.4v-55.7h-43.4v55.7zm132 17h-45v-42.3h45v42.3zm-44-1h43v-40.3h-43v40.3zm222-15h-45v-57.7h45v57.7zm-44-1h43v-55.7h-43v55.7zm-45-14h-45v-73h45v73zm-44-1h43v-71h-43v71zm-222.8 41.1h-44.2v-32.8h44.2v32.8zm-43.2-1h42.2v-30.8h-42.2v30.8z"/><g fill="#A9A9B2"><path d="M326.5 276.4h-1.1l-2.1 3.4-2.1-3.4h-1.1l2.7 4.1-2.8 4.5h1.2l2.3-3.8 2.3 3.8h1.1l-3.1-4.5zm10.9 0L334 285h1l1.1-2.7h3.4l1.1 2.7h1l-3.4-8.6h-.8zm-1 5l1-2.7c.2-.4.3-.8.4-1.2.1.5.3.9.4 1.2l1 2.7h-2.8zm13.8-5h-1.1l-2.1 3.4-2.1-3.4h-1.1l2.7 4.1-2.8 4.5h1.1l2.3-3.8 2.3 3.8h1.1l-3-4.5zm3.5 0h1v8.6h-1zm7.9 3.8c-.5-.2-.9-.4-1.2-.5-.3-.1-.5-.3-.6-.5-.1-.2-.2-.4-.2-.7 0-.4.1-.7.4-.9.3-.2.7-.3 1.2-.3.7 0 1.4.1 2.1.4l.3-.9c-.7-.3-1.4-.5-2.3-.5-.8 0-1.5.2-2 .6-.5.4-.7.9-.7 1.6 0 .6.2 1.1.5 1.5.3.4.9.7 1.7 1 .6.2 1 .4 1.3.5.3.1.5.3.6.5.1.2.2.4.2.7 0 .5-.2.8-.5 1.1s-.8.4-1.5.4c-.4 0-.8 0-1.2-.1-.4-.1-.7-.3-1.1-.4v1c.5.3 1.3.4 2.3.4.9 0 1.7-.1 2.2-.6s.8-1 .8-1.8c0-.6 0-1.2-.4-1.5-.4-.3-1-.7-1.9-1zm-341.2-121v1.1l4.3 2.3-4.3 2.3v1.1l5.3-2.9H29v-1h-3.4zm0-10.4l8.6 3.4v-1l-2.7-1.1v-3.4l2.7-1.1v-1l-8.6 3.4v.8zm2.3-.8l2.7-1v2.8l-2.7-1c-.4-.2-.8-.3-1.2-.4.5-.1.9-.3 1.2-.4zm-2.3-12v1.1l3.4 2.1-3.4 2.1v1.1l4.1-2.7 4.5 2.8v-1.1l-3.8-2.3 3.8-2.3v-1.1l-4.5 3zm0-4.5H29v1h-8.6zm6.3-9.2c-.6 0-1.2 0-1.5.4s-.7 1-1 1.9c-.2.5-.4.9-.5 1.2-.1.3-.3.5-.5.6-.2.1-.4.2-.7.2-.4 0-.7-.1-.9-.4-.2-.3-.3-.7-.3-1.2 0-.7.1-1.4.4-2.1l-.9-.3c-.3.7-.5 1.4-.5 2.3 0 .8.2 1.5.6 2 .4.5.9.7 1.6.7.6 0 1.1-.2 1.5-.5.4-.3.7-.9 1-1.7.2-.6.4-1 .5-1.3.1-.3.3-.5.5-.6s.4-.2.7-.2c.5 0 .8.2 1.1.5.3.3.4.8.4 1.5 0 .4 0 .8-.1 1.2-.1.4-.3.7-.4 1.1h1c.3-.5.4-1.3.4-2.3 0-.9-.1-1.7-.6-2.2s-1-.8-1.8-.8zm25.8 129.2V30h-1v222.5H640v-1z"/><path d="M357 245l2.5 5 .5 1 .5-1 2.5-5h-2.5V115h2.5l-3-6-3 6h2.5v130zm-18.3-42.7h-.8v5.6h.9v-4.4l6.9 4.5h.8v-5.9h-.9v4.7zm7.8-14.3v-1l-8.6 3.4v.8l8.6 3.4v-1l-2.7-1.1v-3.4l2.7-1.1zm-3.6 4.2l-2.7-1c-.4-.2-.8-.3-1.2-.4.5-.1.9-.3 1.2-.4l2.7-1v2.8zm3.6-14.1l-4.5 3-4.1-2.7v1.1l3.4 2.1-3.4 2.1v1.1l4.1-2.7 4.5 2.8v-1.1l-3.8-2.3 3.8-2.3zm-8.6-4.2h8.6v1h-8.6zm2.1-3.9c.6 0 1.1-.2 1.5-.5.4-.3.7-.9 1-1.7.2-.6.4-1 .5-1.3.1-.3.3-.5.5-.6.2-.1.4-.2.7-.2.5 0 .8.2 1.1.5.3.3.4.8.4 1.5 0 .4 0 .8-.1 1.2-.1.4-.3.7-.4 1.1h1c.3-.5.4-1.3.4-2.3 0-.9-.1-1.7-.6-2.2s-1-.8-1.8-.8c-.6 0-1.2 0-1.5.4-.3.4-.7 1-1 1.9-.2.5-.4.9-.5 1.2-.1.3-.3.5-.5.6s-.4.2-.7.2c-.4 0-.7-.1-.9-.4-.2-.3-.3-.7-.3-1.2 0-.7.1-1.4.4-2.1l-.9-.3c-.3.7-.5 1.4-.5 2.3 0 .8.2 1.5.6 2 .4.5.9.7 1.6.7z"/></g></svg>