<svg xmlns="http://www.w3.org/2000/svg" viewBox="0 0 668 304" data-tags="preview"><path fill="#40A3F5" d="M552 83H52V61h500v22zM53 82h498V62H53v20z"/><path fill="#9E81EB" d="M269 83H52V61h217v22zM53 82h215V62H53v20z"/><path fill="#40A3F5" d="M366 129H52v-22h314v22zm-313-1h312v-20H53v20z"/><path fill="#9E81EB" d="M239 129H52v-22h187v22zm-186-1h185v-20H53v20z"/><path fill="#40A3F5" d="M453 175H52v-22h401v22zm-400-1h399v-20H53v20z"/><path fill="#9E81EB" d="M302 175H52v-22h250v22zm-249-1h248v-20H53v20z"/><path d="M52 61h500v22H52zm0 46h314v22H52zm0 46h401v22H52zm0 46h473v22H52z" fill="#40A3F5" fill-opacity=".05" fill-rule="evenodd" clip-rule="evenodd"/><path fill="#40A3F5" d="M525 221H52v-22h473v22zm-472-1h471v-20H53v20z"/><path d="M52 61h217v22H52zm0 46h187v22H52zm0 46h250v22H52zm0 46h349v22H52z" fill="#9E81EB" fill-opacity=".05" fill-rule="evenodd" clip-rule="evenodd"/><path fill="#9E81EB" d="M401 221H52v-22h349v22zm-348-1h347v-20H53v20z"/><g fill="#A9A9B2"><path d="M326.5 276.4h-1.1l-2.1 3.4-2.1-3.4h-1.1l2.7 4.1-2.8 4.5h1.2l2.3-3.8 2.3 3.8h1.1l-3.1-4.5zm10.9 0L334 285h1l1.1-2.7h3.4l1.1 2.7h1l-3.4-8.6h-.8zm-1 5l1-2.7c.2-.4.3-.8.4-1.2.1.5.3.9.4 1.2l1 2.7h-2.8zm13.8-5h-1.1l-2.1 3.4-2.1-3.4h-1.1l2.7 4.1-2.8 4.5h1.1l2.3-3.8 2.3 3.8h1.1l-3-4.5zm3.5 0h1v8.6h-1zm7.9 3.8c-.5-.2-.9-.4-1.2-.5-.3-.1-.5-.3-.6-.5-.1-.2-.2-.4-.2-.7 0-.4.1-.7.4-.9.3-.2.7-.3 1.2-.3.7 0 1.4.1 2.1.4l.3-.9c-.7-.3-1.4-.5-2.3-.5-.8 0-1.5.2-2 .6-.5.4-.7.9-.7 1.6 0 .6.2 1.1.5 1.5.3.4.9.7 1.7 1 .6.2 1 .4 1.3.5.3.1.5.3.6.5.1.2.2.4.2.7 0 .5-.2.8-.5 1.1s-.8.4-1.5.4c-.4 0-.8 0-1.2-.1-.4-.1-.7-.3-1.1-.4v1c.5.3 1.3.4 2.3.4.9 0 1.7-.1 2.2-.6s.8-1 .8-1.8c0-.6 0-1.2-.4-1.5-.4-.3-1-.7-1.9-1zm-340.2-121v1.1l4.3 2.3-4.3 2.3v1.1l5.3-2.9H30v-1h-3.4zm0-10.4l8.6 3.4v-1l-2.7-1.1v-3.4l2.7-1.1v-1l-8.6 3.4v.8zm2.3-.8l2.7-1v2.8l-2.7-1c-.4-.2-.8-.3-1.2-.4.5-.1.9-.3 1.2-.4zm-2.3-12v1.1l3.4 2.1-3.4 2.1v1.1l4.1-2.7 4.5 2.8v-1.1l-3.8-2.3 3.8-2.3v-1.1l-4.5 3zm0-4.5H30v1h-8.6zm6.3-9.2c-.6 0-1.2 0-1.5.4s-.7 1-1 1.9c-.2.5-.4.9-.5 1.2-.1.3-.3.5-.5.6-.2.1-.4.2-.7.2-.4 0-.7-.1-.9-.4-.2-.3-.3-.7-.3-1.2 0-.7.1-1.4.4-2.1l-.9-.3c-.3.7-.5 1.4-.5 2.3 0 .8.2 1.5.6 2 .4.5.9.7 1.6.7.6 0 1.1-.2 1.5-.5.4-.3.7-.9 1-1.7.2-.6.4-1 .5-1.3.1-.3.3-.5.5-.6s.4-.2.7-.2c.5 0 .8.2 1.1.5.3.3.4.8.4 1.5 0 .4 0 .8-.1 1.2-.1.4-.3.7-.4 1.1h1c.3-.5.4-1.3.4-2.3 0-.9-.1-1.7-.6-2.2s-1-.8-1.8-.8zM53 251.5V30h-1v222.5h588.5v-1z"/><path d="M59 53v-2.5h488V53l6-3-6-3v2.5H59V47l-5 2.5-1 .5 1 .5zm226.4-13.9h-4.7l4.5-6.9v-.8h-5.6v.9h4.4l-4.5 6.9v.8h5.9zm9.6-1.8h3.4l1.1 2.7h1.1l-3.4-8.6h-.8L293 40h1l1-2.7zm1.3-3.6c.2-.4.3-.8.4-1.2.1.5.3.9.4 1.2l1 2.7h-2.8l1-2.7zm7.4 6.3l2.3-3.8 2.3 3.8h1.1l-3-4.5 2.7-4.1H308l-2.1 3.4-2.1-3.4h-1.1l2.7 4.1-2.8 4.5zm8.9-8.6h1V40h-1zm9.4 8.1c.5-.5.8-1 .8-1.8 0-.6 0-1.2-.4-1.5-.4-.3-1-.7-1.9-1-.5-.2-.9-.4-1.2-.5-.3-.1-.5-.3-.6-.5-.1-.2-.2-.4-.2-.7 0-.4.1-.7.4-.9.3-.2.7-.3 1.2-.3.7 0 1.4.1 2.1.4l.3-.9c-.7-.3-1.4-.5-2.3-.5-.8 0-1.5.2-2 .6-.5.4-.7.9-.7 1.6 0 .6.2 1.1.5 1.5.3.4.9.7 1.7 1 .6.2 1 .4 1.3.5.3.1.5.3.6.5.1.2.2.4.2.7 0 .5-.2.8-.5 1.1s-.8.4-1.5.4c-.4 0-.8 0-1.2-.1-.4-.1-.7-.3-1.1-.4v1c.5.3 1.3.4 2.3.4.9 0 1.7-.1 2.2-.6z"/></g></svg>