<svg xmlns="http://www.w3.org/2000/svg" data-tags="preview" viewBox="0 0 668 304"><path fill="#A9A9B2" fill-rule="evenodd" d="M79.3 89.4c-6.2 6.3-16.4 6.3-22.6 0s-6.2-16.4 0-22.7 16.4-6.3 22.6 0a16 16 0 010 22.7z" clip-rule="evenodd" opacity=".4"/><path d="M107.9 76h-1.1l-4.7-7.2c.1.8.1 1.6.1 2.3V76h-.9v-8.6h1.1l4.7 7.2c0-.1 0-.4-.1-1s0-1 0-1.2v-4.9h.9V76zm6.1 0l-.2-.9c-.3.4-.6.7-1 .8s-.7.2-1.2.2c-.6 0-1.1-.2-1.5-.5s-.5-.8-.5-1.4c0-1.3 1-2 3.1-2h1.1v-.4c0-.5-.1-.9-.3-1.1s-.6-.4-1-.4c-.5 0-1.1.2-1.8.5l-.3-.7c.3-.2.7-.3 1-.4s.8-.1 1.1-.1c.8 0 1.3.2 1.7.5s.6.9.6 1.6V76h-.8zm-2.2-.7c.6 0 1.1-.2 1.4-.5s.5-.8.5-1.4v-.6h-1c-.8 0-1.3.1-1.7.4s-.5.5-.5 1c0 .4.1.6.3.8s.7.3 1 .3zm13.2.7v-4.2c0-.5-.1-.9-.3-1.2s-.6-.4-1-.4c-.6 0-1.1.2-1.3.5s-.4.9-.4 1.6V76h-1v-4.2c0-.5-.1-.9-.3-1.2s-.6-.4-1-.4c-.6 0-1.1.2-1.3.5s-.4 1-.4 1.8V76h-1v-6.4h.8l.2.9c.2-.3.4-.6.8-.7s.7-.3 1.1-.3c1 0 1.7.4 2 1.1.2-.3.5-.6.8-.8s.8-.3 1.2-.3c.7 0 1.3.2 1.6.6s.5 1 .5 1.8V76h-1zm5.7.1c-.9 0-1.7-.3-2.2-.9s-.8-1.4-.8-2.4.3-1.9.8-2.5 1.2-.9 2.1-.9c.8 0 1.4.3 1.9.8s.7 1.2.7 2.1v.7h-4.4c0 .8.2 1.3.6 1.7s.9.6 1.5.6c.7 0 1.4-.1 2.1-.4v.9c-.3.1-.7.3-1 .3h-1.3zm-.3-5.8c-.5 0-.9.2-1.2.5s-.5.8-.5 1.4h3.4c0-.6-.1-1.1-.4-1.4s-.8-.5-1.3-.5zM177 94.5c-.3 0-.5-.2-.5-.5v-8c0-.3.2-.5.5-.5s.5.2.5.5v8c0 .3-.2.5-.5.5zm-68.6-3.1c0 .5-.1.9-.2 1.3s-.3.7-.6.9-.6.3-.9.3-.5-.1-.7-.3-.3-.4-.3-.6c-.1.3-.3.5-.6.7s-.5.2-.9.2c-.5 0-.9-.2-1.1-.5-.3-.3-.4-.8-.4-1.4 0-.7.2-1.2.6-1.6s.9-.6 1.5-.6c.2 0 .5 0 .8.1.3 0 .5.1.8.2l-.1 2.3v.1c0 .6.2.9.6.9.3 0 .5-.2.7-.5s.3-.8.3-1.4-.1-1.1-.4-1.5-.6-.8-1-1-1-.4-1.5-.4c-.7 0-1.4.2-1.9.5s-.9.7-1.2 1.3c-.3.6-.4 1.2-.4 1.9 0 1 .3 1.8.8 2.3s1.3.8 2.3.8c.7 0 1.4-.1 2.1-.4v.6c-.6.3-1.3.4-2.1.4-1.2 0-2.1-.3-2.8-1-.7-.6-1-1.6-1-2.7 0-.8.2-1.6.5-2.3s.8-1.2 1.5-1.5c.6-.4 1.4-.5 2.2-.5.7 0 1.3.1 1.9.4.5.3 1 .7 1.3 1.3 0 .4.2 1 .2 1.7zm-5.1.7c0 .8.3 1.2 1 1.2s1-.5 1.1-1.5l.1-1.3c-.2-.1-.5-.1-.8-.1-.4 0-.8.1-1 .4s-.4.8-.4 1.3zm8.3 2.3h.4c.1 0 .2 0 .3-.1v.7c-.1 0-.2.1-.4.1h-.5c-1 0-1.6-.5-1.6-1.6v-3.2h-.8v-.4l.8-.3.3-1.1h.5v1.2h1.6v.6h-1.6v3.1c0 .3.1.6.2.7s.5.3.8.3zm6.1.6l-1-3.1c-.1-.2-.2-.6-.3-1.3-.1.6-.2 1-.3 1.3l-1 3.1h-.9l-1.5-5.4h.8c.3 1.3.6 2.4.8 3.1s.3 1.2.3 1.4c0-.2.1-.4.2-.7.1-.3.1-.5.2-.7l1-3.1h.9l1 3.1c.2.6.3 1 .4 1.4 0-.1 0-.3.1-.5s.4-1.6 1-3.9h.8l-1.5 5.4h-1V95zm3.4-6.8c0-.2 0-.3.1-.4s.2-.1.3-.1c.1 0 .2 0 .3.1s.1.2.1.4 0 .3-.1.4-.2.1-.3.1c-.1 0-.3 0-.3-.1-.1-.1-.1-.2-.1-.4zm.9 6.8h-.8v-5.4h.8V95zm3.4-.6h.4c.1 0 .2 0 .3-.1v.7c-.1 0-.2.1-.4.1h-.5c-1 0-1.6-.5-1.6-1.6v-3.2h-.6v-.4l.8-.3.3-1.1h.5v1.2h1.6v.6h-1.6v3.1c0 .3.1.6.2.7s.3.3.6.3zm3.5 0h.4c.1 0 .2 0 .3-.1v.7c-.1 0-.2.1-.4.1h-.5c-1 0-1.6-.5-1.6-1.6v-3.2h-.8v-.4l.8-.3.3-1.1h.5v1.2h1.6v.6h-1.6v3.1c0 .3.1.6.2.7s.6.3.8.3zm4.1.7c-.8 0-1.4-.2-1.9-.7s-.7-1.2-.7-2c0-.9.2-1.5.6-2.1s1-.8 1.7-.8 1.2.2 1.6.7c.4.4.6 1 .6 1.7v.5h-3.7c0 .6.2 1.1.5 1.4s.7.5 1.3.5 1.1-.1 1.7-.4v.7c-.3.1-.6.2-.8.3-.2.2-.5.2-.9.2zm-.2-4.9c-.4 0-.8.1-1 .4s-.4.7-.5 1.2h2.8c0-.5-.1-.9-.3-1.2-.3-.2-.6-.4-1-.4zm6-.6c.2 0 .5 0 .6.1l-.1.8c-.2 0-.4-.1-.6-.1-.4 0-.8.2-1.1.5s-.5.8-.5 1.3V95h-.8v-5.4h.7l.1 1c.2-.3.4-.6.7-.8s.7-.2 1-.2zm5.3 5.4v-3.5c0-.4-.1-.8-.3-1s-.5-.3-.9-.3c-.6 0-1 .2-1.2.5s-.4.8-.4 1.5V95h-.8v-7.6h.8v3c.2-.3.4-.5.7-.6s.6-.2 1-.2c.7 0 1.1.2 1.5.5.3.3.5.8.5 1.5V95h-.9zm5.8 0l-.2-.8c-.3.3-.5.6-.8.7s-.6.2-1 .2c-.5 0-.9-.1-1.2-.4s-.5-.7-.5-1.2c0-1.1.9-1.6 2.6-1.7h.9v-.3c0-.4-.1-.7-.3-.9-.2-.2-.5-.3-.9-.3s-1 .1-1.5.4l-.2-.6c.3-.1.6-.3.9-.3s.6-.1.9-.1c.6 0 1.1.1 1.4.4s.5.7.5 1.4V95h-.6zm-1.9-.6c.5 0 .9-.1 1.2-.4s.4-.7.4-1.2v-.5h-.8c-.6 0-1.1.1-1.4.3-.3.2-.4.5-.4.8s.1.5.3.7.4.3.7.3zm7.8.6v-3.5c0-.4-.1-.8-.3-1s-.5-.3-.9-.3c-.6 0-1 .2-1.2.5s-.4.8-.4 1.5V95h-.8v-5.4h.7l.1.7c.2-.3.4-.5.7-.6s.6-.2 1-.2c.6 0 1.1.2 1.5.5.3.3.5.8.5 1.5V95h-.9zm6.1-.7c-.4.5-1 .8-1.7.8s-1.2-.2-1.6-.7-.6-1.2-.6-2 .2-1.6.6-2.1.9-.7 1.6-.7c.7 0 1.3.3 1.7.8h.1v-3h.8V95h-.8l-.1-.7zm-1.6.1c.6 0 1-.2 1.2-.5s.4-.8.4-1.5v-.2c0-.8-.1-1.3-.4-1.6-.3-.3-.7-.5-1.2-.5s-.8.2-1.1.6-.4.9-.4 1.6.1 1.2.4 1.5.6.6 1.1.6zm4.9.6h-.8v-7.6h.8V95zm4 .1c-.8 0-1.4-.2-1.9-.7s-.7-1.2-.7-2c0-.9.2-1.5.6-2.1s1-.8 1.7-.8 1.2.2 1.6.7c.4.4.6 1 .6 1.7v.5h-3.7c0 .6.2 1.1.5 1.4s.7.5 1.3.5 1.1-.1 1.7-.4v.7c-.3.1-.6.2-.8.3-.2.2-.5.2-.9.2zm-.2-4.9c-.4 0-.8.1-1 .4s-.4.7-.5 1.2h2.8c0-.5-.1-.9-.3-1.2-.3-.2-.6-.4-1-.4zm19.7 1.2c0 1.2-.3 2.1-1 2.7-.6.6-1.6.9-2.8.9h-2v-7.1h2.2c1.1 0 2 .3 2.6.9s1 1.5 1 2.6zm-.9 0c0-.9-.2-1.6-.7-2.1s-1.2-.7-2.1-.7h-1.2v5.7h1c1 0 1.7-.2 2.2-.7.6-.5.8-1.3.8-2.2zm2.3-3.2c0-.2 0-.3.1-.4s.2-.1.3-.1.2 0 .3.1.1.2.1.4 0 .3-.1.4-.2.1-.3.1-.3 0-.3-.1c-.1-.1-.1-.2-.1-.4zm.9 6.8h-.8v-5.4h.8V95zm4.1-5.4c.2 0 .5 0 .6.1l-.1.8c-.2 0-.4-.1-.6-.1-.4 0-.8.2-1.1.5s-.5.8-.5 1.3V95h-.8v-5.4h.7l.1 1c.2-.3.4-.6.7-.8s.7-.2 1-.2zm3.9 5.5c-.8 0-1.4-.2-1.9-.7s-.7-1.2-.7-2c0-.9.2-1.5.6-2.1s1-.8 1.7-.8 1.2.2 1.6.7c.4.4.6 1 .6 1.7v.5h-3.7c0 .6.2 1.1.5 1.4s.7.5 1.3.5 1.1-.1 1.7-.4v.7c-.3.1-.6.2-.8.3-.2.2-.5.2-.9.2zm-.2-4.9c-.4 0-.8.1-1 .4s-.4.7-.5 1.2h2.8c0-.5-.1-.9-.3-1.2-.2-.2-.6-.4-1-.4zm5.7 4.9c-.8 0-1.4-.2-1.8-.7-.4-.5-.6-1.2-.6-2 0-.9.2-1.6.6-2.1s1-.7 1.8-.7c.3 0 .5 0 .8.1s.5.1.6.2l-.2.7c-.2-.1-.4-.1-.6-.2-.2 0-.4-.1-.6-.1-1.1 0-1.6.7-1.6 2.1 0 .7.1 1.2.4 1.5s.7.5 1.2.5c.4 0 .9-.1 1.4-.3v.7c-.4.2-.8.3-1.4.3zm4.4-.7h.4c.1 0 .2 0 .3-.1v.7c-.1 0-.2.1-.4.1h-.5c-1 0-1.6-.5-1.6-1.6v-3.2h-.8v-.4l.8-.3.3-1.1h.5v1.2h1.6v.6H208v3.1c0 .3.1.6.2.7s.4.3.7.3zm7.6.6l-2.4-6.3c0 .5.1 1.1.1 1.8V95h-.8v-7.1h1.2l2.3 5.9 2.3-5.9h1.2V95h-.8v-4.6c0-.5 0-1.1.1-1.7l-2.4 6.3h-.8zm8 .1c-.8 0-1.4-.2-1.9-.7s-.7-1.2-.7-2c0-.9.2-1.5.6-2.1s1-.8 1.7-.8 1.2.2 1.6.7c.4.4.6 1 .6 1.7v.5h-3.7c0 .6.2 1.1.5 1.4s.7.5 1.3.5 1.1-.1 1.7-.4v.7c-.3.1-.6.2-.8.3-.2.2-.5.2-.9.2zm-.2-4.9c-.4 0-.8.1-1 .4s-.4.7-.5 1.2h2.8c0-.5-.1-.9-.3-1.2-.2-.2-.5-.4-1-.4zm7.1 3.3c0 .5-.2.9-.6 1.2s-.9.4-1.6.4c-.7 0-1.3-.1-1.7-.3V94c.3.1.5.2.8.3s.6.1.9.1c.4 0 .7-.1 1-.2.2-.1.3-.3.3-.6 0-.2-.1-.4-.3-.5s-.5-.3-1.1-.5c-.5-.2-.9-.3-1.1-.5-.2-.1-.4-.3-.5-.5s-.2-.4-.2-.6c0-.4.2-.8.5-1 .4-.3.8-.4 1.5-.4.6 0 1.1.1 1.7.4l-.3.7c-.5-.2-1-.3-1.5-.3-.4 0-.7.1-.9.2s-.3.3-.3.5c0 .1 0 .3.1.4s.2.2.4.3.5.2.9.4c.6.2 1.1.5 1.3.7s.7.3.7.6zm4.7 0c0 .5-.2.9-.6 1.2s-.9.4-1.6.4c-.7 0-1.3-.1-1.7-.3V94c.3.1.5.2.8.3s.6.1.9.1c.4 0 .7-.1 1-.2.2-.1.3-.3.3-.6 0-.2-.1-.4-.3-.5s-.5-.3-1.1-.5c-.5-.2-.9-.3-1.1-.5-.2-.1-.4-.3-.5-.5s-.2-.4-.2-.6c0-.4.2-.8.5-1 .4-.3.8-.4 1.5-.4.6 0 1.1.1 1.7.4l-.3.7c-.5-.2-1-.3-1.5-.3-.4 0-.7.1-.9.2s-.3.3-.3.5c0 .1 0 .3.1.4s.2.2.4.3.5.2.9.4c.6.2 1.1.5 1.3.7s.7.3.7.6zm4.6 1.5l-.2-.8c-.3.3-.5.6-.8.7s-.6.2-1 .2c-.5 0-.9-.1-1.2-.4s-.5-.7-.5-1.2c0-1.1.9-1.6 2.6-1.7h.9v-.3c0-.4-.1-.7-.3-.9-.2-.2-.5-.3-.9-.3s-1 .1-1.5.4l-.2-.6c.3-.1.6-.3.9-.3s.6-.1.9-.1c.6 0 1.1.1 1.4.4s.5.7.5 1.4V95h-.6zm-1.8-.6c.5 0 .9-.1 1.2-.4s.4-.7.4-1.2v-.5h-.8c-.6 0-1.1.1-1.4.3-.3.2-.4.5-.4.8s.1.5.3.7.4.3.7.3zm8.5-4.8v.5l-1 .1c.1.1.2.3.2.4.1.2.1.4.1.6 0 .5-.2.9-.5 1.3s-.8.5-1.5.5h-.4c-.3.2-.5.4-.5.7 0 .1.1.3.2.3.1.1.3.1.6.1h.9c.6 0 1 .1 1.3.4s.5.6.5 1.1c0 .6-.2 1-.7 1.4-.5.3-1.2.5-2.1.5-.7 0-1.2-.1-1.6-.4s-.6-.6-.6-1.1c0-.3.1-.6.3-.8s.5-.4.9-.5c-.1-.1-.3-.2-.3-.3s-.2-.4-.2-.6.1-.4.2-.5.3-.3.5-.4c-.3-.1-.5-.3-.7-.6s-.3-.6-.3-.9c0-.6.2-1 .5-1.4.4-.3.8-.5 1.5-.5.3 0 .5 0 .8.1h1.9zm-4.3 6.3c0 .3.1.5.4.7s.6.2 1 .2c.7 0 1.2-.1 1.5-.3.3-.2.5-.5.5-.8s-.1-.5-.3-.6-.5-.2-1-.2h-1c-.4 0-.7.1-.9.3s-.2.4-.2.7zm.5-4.5c0 .4.1.7.3.8s.5.3.9.3c.8 0 1.2-.4 1.2-1.2 0-.8-.4-1.2-1.2-1.2-.4 0-.7.1-.9.3s-.3.6-.3 1zm7.1 3.7c-.8 0-1.4-.2-1.9-.7s-.7-1.2-.7-2c0-.9.2-1.5.6-2.1s1-.8 1.7-.8 1.2.2 1.6.7c.4.4.6 1 .6 1.7v.5H249c0 .6.2 1.1.5 1.4s.7.5 1.3.5 1.1-.1 1.7-.4v.7c-.3.1-.6.2-.8.3-.3.2-.6.2-1 .2zm-.2-4.9c-.4 0-.8.1-1 .4s-.4.7-.5 1.2h2.8c0-.5-.1-.9-.3-1.2-.2-.2-.6-.4-1-.4zm353.2-17.8c0 1.2-.3 2.1-1 2.7-.6.6-1.6.9-2.8.9h-2v-7.1h2.2c1.1 0 2 .3 2.6.9s1 1.5 1 2.6zm-.9 0c0-.9-.2-1.6-.7-2.1s-1.2-.7-2.1-.7h-1.2v5.7h1c1 0 1.7-.2 2.2-.7.6-.5.8-1.3.8-2.2zm5.6 3.6l-.2-.8c-.3.3-.5.6-.8.7s-.6.2-1 .2c-.5 0-.9-.1-1.2-.4s-.5-.7-.5-1.2c0-1.1.9-1.6 2.6-1.7h.9v-.3c0-.4-.1-.7-.3-.9-.2-.2-.5-.3-.9-.3s-1 .1-1.5.4l-.2-.6c.3-.1.6-.3.9-.3.3-.1.6-.1.9-.1.6 0 1.1.1 1.4.4.3.3.5.7.5 1.4V76h-.6zm-1.8-.6c.5 0 .9-.1 1.2-.4s.4-.7.4-1.2v-.5h-.8c-.6 0-1.1.1-1.4.3-.3.2-.4.5-.4.8s.1.5.3.7c.1.3.4.3.7.3zm5.8 0h.4c.1 0 .2 0 .3-.1v.7c-.1 0-.2.1-.4.1h-.5c-1 0-1.6-.5-1.6-1.6v-3.2h-.6v-.4l.8-.3.3-1.1h.5v1.2h1.6v.6h-1.6v3.1c0 .3.1.6.2.7s.4.3.6.3zm4.1.7c-.8 0-1.4-.2-1.9-.7s-.7-1.2-.7-2c0-.9.2-1.5.6-2.1.4-.5 1-.8 1.7-.8s1.2.2 1.6.7c.4.4.6 1 .6 1.7v.5h-3.7c0 .6.2 1.1.5 1.4s.7.5 1.3.5 1.1-.1 1.7-.4v.7c-.3.1-.6.2-.8.3-.2.2-.5.2-.9.2zm-.2-4.9c-.4 0-.8.1-1 .4-.3.3-.4.7-.5 1.2h2.8c0-.5-.1-.9-.3-1.2-.3-.2-.6-.4-1-.4zM106 150.1h-3.8v-7.7h-1v8.6h4.8zm3.9-5.6c-.9 0-1.7.3-2.2.9s-.8 1.4-.8 2.4c0 .7.1 1.3.4 1.8s.6.9 1 1.2 1 .4 1.5.4c.9 0 1.7-.3 2.2-.9s.8-1.4.8-2.5c0-1-.3-1.8-.8-2.4s-1.2-.9-2.1-.9zm1.4 5.2c-.3.4-.8.6-1.5.6s-1.1-.2-1.4-.6-.5-1.1-.5-1.9c0-.8.2-1.5.5-1.9s.8-.6 1.4-.6 1.1.2 1.5.6.5 1 .5 1.9c0 .8-.2 1.4-.5 1.9zm5-4.9a3 3 0 00-.9 1l-.1-1.2h-.8v6.4h1v-3.4c0-.6.2-1.2.6-1.6s.8-.6 1.3-.6c.2 0 .4 0 .7.1l.1-.9c-.2 0-.5-.1-.8-.1-.4 0-.7.1-1.1.3zm5.6-.3c-.9 0-1.5.3-2.1.9s-.8 1.4-.8 2.5c0 1 .3 1.8.8 2.4s1.3.9 2.2.9c.4 0 .8 0 1.1-.1s.6-.2 1-.3v-.9c-.7.3-1.4.4-2.1.4s-1.2-.2-1.5-.6-.6-1-.6-1.7h4.4v-.6c0-.9-.2-1.6-.7-2.1s-.9-.8-1.7-.8zm-1.8 2.7c.1-.6.2-1.1.5-1.4s.7-.5 1.2-.5.9.2 1.2.5.4.8.4 1.4h-3.3zm13.9-1.5c.2.3.3.6.3 1.2v4.2h1v-4.2c0-.8-.2-1.4-.5-1.8s-.9-.6-1.6-.6c-.5 0-.9.1-1.2.3s-.6.5-.8.8c-.3-.7-1-1.1-2-1.1-.4 0-.8.1-1.1.3s-.6.4-.8.7l-.2-.9h-.8v6.4h1v-3.4c0-.8.1-1.4.4-1.8s.7-.5 1.3-.5c.5 0 .8.1 1 .4s.3.6.3 1.2v4.2h1v-3.6c0-.7.1-1.3.4-1.6s.7-.5 1.3-.5c.4-.1.8 0 1 .3zm6.4-1.1h1v6.4h-1zm.5-1.1c.2 0 .3-.1.4-.2s.2-.3.2-.5-.1-.4-.2-.5-.2-.2-.4-.2-.3.1-.4.2-.2.3-.2.5.1.4.2.5.2.2.4.2zm4.4 7.4c.3.2.7.2 1.1.2.8 0 1.5-.3 2-.9s.7-1.4.7-2.5-.2-1.9-.7-2.4-1.1-.9-2-.9c-.4 0-.8.1-1.1.2s-.6.4-.9.8l-.1-.9h-.8v9.3h1v-2.6c0-.3 0-.7-.1-1.1h.1c.2.4.5.6.8.8zm-.9-3.3c0-.8.2-1.4.5-1.7s.8-.5 1.4-.5c.6 0 1 .2 1.3.6s.5 1 .5 1.8-.2 1.4-.5 1.9-.7.7-1.3.7c-.7 0-1.1-.2-1.4-.6s-.5-1-.5-1.9v-.3zm10.5 1.6c0-.4-.1-.8-.4-1.1s-.8-.6-1.5-.8c-.6-.2-.9-.4-1.1-.5s-.3-.2-.4-.3-.1-.3-.1-.4c0-.3.1-.5.4-.6s.6-.2 1-.2c.5 0 1.1.1 1.8.4l.3-.8c-.7-.3-1.3-.4-2-.4s-1.3.2-1.8.5-.6.7-.6 1.2c0 .3.1.5.2.8s.3.4.6.6.7.4 1.3.6c.6.2 1.1.5 1.3.6s.3.4.3.6c0 .3-.1.6-.4.7s-.7.2-1.2.2c-.3 0-.7 0-1-.1s-.7-.2-1-.4v.9c.5.3 1.1.4 2 .4.8 0 1.4-.2 1.9-.5s.4-.8.4-1.4zm6 .9l.1.9h.8v-6.4h-1v3.4c0 .8-.2 1.4-.5 1.8s-.8.6-1.5.6c-.5 0-.9-.1-1.1-.4s-.4-.6-.4-1.2v-4.2h-1v4.2c0 .8.2 1.4.6 1.8s1 .6 1.8.6c.5 0 .9-.1 1.2-.3s.7-.4 1-.8zm8.1.9v-3.6c0-.7.1-1.3.4-1.6s.7-.5 1.3-.5c.5 0 .8.1 1 .4s.3.6.3 1.2v4.2h1v-4.2c0-.8-.2-1.4-.5-1.8s-.9-.6-1.6-.6c-.5 0-.9.1-1.2.3s-.6.5-.8.8c-.3-.7-1-1.1-2-1.1-.4 0-.8.1-1.1.3s-.6.4-.8.7l-.2-.9h-.8v6.4h1v-3.4c0-.8.1-1.4.4-1.8s.7-.5 1.3-.5c.5 0 .8.1 1 .4s.3.6.3 1.2v4.2h1v-.1zm13.5-6.5v1h-.1c-.5-.6-1.1-.9-2-.9-.8 0-1.5.3-2 .9s-.7 1.4-.7 2.5.2 1.9.7 2.4 1.1.9 2 .9 1.6-.3 2-1h.1l.1.9h.8v-9.1h-1v2.4h.1zm0 3.5c0 .8-.1 1.4-.4 1.7s-.8.5-1.4.5c-.6 0-1-.2-1.3-.6s-.5-1-.5-1.9c0-.8.2-1.4.5-1.9s.7-.7 1.3-.7c.7 0 1.1.2 1.5.6s.5 1 .5 1.9v.4h-.2zm5.6 3.1c.9 0 1.7-.3 2.2-.9s.8-1.4.8-2.5c0-1-.3-1.8-.8-2.4s-1.2-.9-2.1-.9c-.9 0-1.7.3-2.2.9s-.8 1.4-.8 2.4c0 .7.1 1.3.4 1.8s.6.9 1 1.2.9.4 1.5.4zm-1.4-5.2c.3-.4.8-.6 1.4-.6.6 0 1.1.2 1.5.6s.5 1 .5 1.9c0 .8-.2 1.5-.5 1.9s-.8.6-1.5.6-1.1-.2-1.4-.6-.5-1.1-.5-1.9.1-1.5.5-1.9zm6.1-4h1v9.1h-1zm4 8.8c.4.3 1 .4 1.5.4.9 0 1.7-.3 2.2-.9s.8-1.4.8-2.5c0-1-.3-1.8-.8-2.4s-1.2-.9-2.1-.9c-.9 0-1.7.3-2.2.9s-.8 1.4-.8 2.4c0 .7.1 1.3.4 1.8s.6.9 1 1.2zm.1-4.8c.3-.4.8-.6 1.4-.6.6 0 1.1.2 1.5.6s.5 1 .5 1.9c0 .8-.2 1.5-.5 1.9s-.8.6-1.5.6-1.1-.2-1.4-.6-.5-1.1-.5-1.9c.1-.8.2-1.5.5-1.9zm8-1.1a3 3 0 00-.9 1l-.1-1.2h-.8v6.4h1v-3.4c0-.6.2-1.2.6-1.6s.8-.6 1.3-.6c.2 0 .4 0 .7.1l.1-.9c-.2 0-.5-.1-.8-.1-.4 0-.8.1-1.1.3zm6.5 2.7c.3.2.7.4 1.3.6.6.2 1.1.5 1.3.6s.3.4.3.6c0 .3-.1.6-.4.7s-.7.2-1.2.2c-.3 0-.7 0-1-.1s-.7-.2-1-.4v.9c.5.3 1.1.4 2 .4.8 0 1.4-.2 1.9-.5s.7-.8.7-1.4c0-.4-.1-.8-.4-1.1s-.8-.6-1.5-.8c-.6-.2-.9-.4-1.1-.5s-.3-.2-.4-.3-.1-.3-.1-.4c0-.3.1-.5.4-.6s.6-.2 1-.2c.5 0 1.1.1 1.8.4l.3-.8c-.7-.3-1.3-.4-2-.4s-1.3.2-1.8.5-.6.7-.6 1.2c0 .3.1.5.2.8s.1.4.3.6zm5.9-5.3c-.2 0-.3.1-.4.2s-.2.3-.2.5.1.4.2.5.2.2.4.2.3-.1.4-.2.2-.3.2-.5-.1-.4-.2-.5-.3-.2-.4-.2zm-.5 2.4h1v6.4h-1zm3.1 4.6c0 1.3.6 2 1.9 2h.6c.3 0 .4-.1.5-.1v-.7c-.1 0-.2.1-.4.1h-.5c-.3 0-.6-.1-.8-.3s-.3-.5-.3-.9v-3.8h1.9v-.8h-1.9v-1.5h-.6l-.4 1.4-.9.4v.5h.9v3.7zm9.7-4.7c-.4 0-.8 0-1.1.1s-.7.2-1 .4l.3.7c.7-.3 1.3-.5 1.8-.5s.8.1 1 .4.3.6.3 1.1v.4h-1.1c-2.1.1-3.1.7-3.1 2 0 .6.2 1.1.5 1.4s.9.5 1.5.5c.5 0 .9-.1 1.2-.2s.6-.4 1-.8l.2.9h.7v-4.4c0-.8-.2-1.3-.6-1.6s-.8-.4-1.6-.4zm1.3 3.9c0 .6-.2 1.1-.5 1.4s-.8.5-1.4.5c-.4 0-.7-.1-.9-.3s-.3-.5-.3-.8c0-.4.2-.8.5-1s.9-.3 1.7-.4h1v.6h-.1zm10.8-2.7c.2.3.3.6.3 1.2v4.2h1v-4.2c0-.8-.2-1.4-.5-1.8s-.9-.6-1.6-.6c-.5 0-.9.1-1.2.3s-.6.5-.8.8c-.3-.7-1-1.1-2-1.1-.4 0-.8.1-1.1.3s-.6.4-.8.7l-.2-.9h-.8v6.4h1v-3.4c0-.8.1-1.4.4-1.8s.7-.5 1.3-.5c.5 0 .8.1 1 .4s.3.6.3 1.2v4.2h1v-3.6c0-.7.1-1.3.4-1.6s.7-.5 1.3-.5c.5-.1.8 0 1 .3zm8.1 4.1c-.7.3-1.4.4-2.1.4-.7 0-1.2-.2-1.5-.6s-.6-1-.6-1.7h4.4v-.6c0-.9-.2-1.6-.7-2.1s-1.1-.8-1.9-.8c-.9 0-1.5.3-2.1.9s-.8 1.4-.8 2.5c0 1 .3 1.8.8 2.4s1.3.9 2.2.9c.4 0 .8 0 1.1-.1s.6-.2 1-.3v-.9h.2zm-3.6-4c.3-.3.7-.5 1.2-.5s.9.2 1.2.5.4.8.4 1.4h-3.4c.2-.6.3-1.1.6-1.4zm5.6 3.4c0 1.3.6 2 1.9 2h.6c.3 0 .4-.1.5-.1v-.7c-.1 0-.2.1-.4.1h-.5c-.3 0-.6-.1-.8-.3s-.3-.5-.3-.9v-3.8h1.9v-.8h-1.9v-1.5h-.6l-.4 1.4-.9.4v.5h.9v3.7zm5.2.4h-1.1c-.1.4-.1.8-.3 1.4s-.2 1.1-.3 1.5h.7c.2-.4.4-.9.6-1.4s.3-1 .4-1.4v-.1zm9.2 1.2v-.9c-.6.2-1.1.3-1.6.3-.6 0-1.1-.2-1.4-.6s-.5-1-.5-1.8c0-1.7.7-2.5 2-2.5.2 0 .4 0 .7.1s.5.1.7.2l.3-.8c-.2-.1-.4-.2-.7-.2s-.6-.1-.9-.1c-1 0-1.7.3-2.2.9s-.8 1.4-.8 2.5c0 1 .3 1.9.8 2.4s1.2.9 2.2.9c.5-.1 1-.2 1.4-.4zm6.3-.6c.5-.6.8-1.4.8-2.5 0-1-.3-1.8-.8-2.4s-1.2-.9-2.1-.9-1.7.3-2.2.9-.8 1.4-.8 2.4c0 .7.1 1.3.4 1.8s.6.9 1 1.2 1 .4 1.5.4c1 0 1.7-.3 2.2-.9zm-3.6-.5c-.3-.4-.5-1.1-.5-1.9 0-.8.2-1.5.5-1.9s.8-.6 1.4-.6 1.1.2 1.5.6.5 1 .5 1.9c0 .8-.2 1.5-.5 1.9s-.8.6-1.5.6-1.1-.2-1.4-.6zm10.2-4c.2.3.4.6.4 1.2v4.2h1v-4.2c0-.8-.2-1.4-.6-1.8s-1-.6-1.7-.6c-.4 0-.8.1-1.2.3s-.6.4-.8.7l-.2-.9h-1v6.4h1v-3.4c0-.8.2-1.4.5-1.8s.8-.5 1.5-.5c.4 0 .8.1 1.1.4zm5.5 1.6c-.6-.2-.9-.4-1.1-.5s-.3-.2-.4-.3-.1-.3-.1-.4c0-.3.1-.5.4-.6s.6-.2 1-.2c.5 0 1.1.1 1.8.4l.3-.8c-.7-.3-1.3-.4-2-.4s-1.3.2-1.8.5-.6.7-.6 1.2c0 .3.1.5.2.8s.3.4.6.6.7.4 1.3.6c.6.2 1.1.5 1.3.6s.3.4.3.6c0 .3-.1.6-.4.7s-.7.2-1.2.2c-.3 0-.7 0-1-.1s-.7-.2-1-.4v.9c.5.3 1.1.4 2 .4.8 0 1.4-.2 1.9-.5s.7-.8.7-1.4c0-.4-.1-.8-.4-1.1s-1.1-.5-1.8-.8zm7.3 3.7c.3-.1.6-.2 1-.3v-.9c-.7.3-1.4.4-2.1.4s-1.2-.2-1.5-.6-.6-1-.6-1.7h4.4v-.6c0-.9-.2-1.6-.7-2.1s-1.1-.8-1.9-.8c-.9 0-1.5.3-2.1.9s-.8 1.4-.8 2.5c0 1 .3 1.8.8 2.4s1.3.9 2.2.9c.6 0 1 0 1.3-.1zm-2.6-5.2c.3-.3.7-.5 1.2-.5s.9.2 1.2.5.4.8.4 1.4h-3.4c.1-.6.3-1.1.6-1.4zm9.7 4.1c-.6.2-1.1.3-1.6.3-.6 0-1.1-.2-1.4-.6s-.5-1-.5-1.8c0-1.7.7-2.5 2-2.5.2 0 .4 0 .7.1s.5.1.7.2l.3-.8c-.2-.1-.4-.2-.7-.2s-.6-.1-.9-.1c-1 0-1.7.3-2.2.9s-.8 1.4-.8 2.5c0 1 .3 1.9.8 2.4s1.2.9 2.2.9c.7 0 1.2-.1 1.6-.3v-1h-.2zm3.6.4c-.3 0-.6-.1-.8-.3s-.3-.5-.3-.9v-3.8h1.9v-.8h-1.9V143h-.5l-.4 1.4-.9.4v.5h.9v3.8c0 1.3.6 2 1.9 2h.6c.3 0 .4-.1.5-.1v-.7c-.1 0-.2.1-.4.1s-.4-.1-.6-.1zm6 .7c.3-.1.6-.2 1-.3v-.9c-.7.3-1.4.4-2.1.4s-1.2-.2-1.5-.6-.6-1-.6-1.7h4.4v-.6c0-.9-.2-1.6-.7-2.1s-1.1-.8-1.9-.8c-.9 0-1.5.3-2.1.9s-.8 1.4-.8 2.5c0 1 .3 1.8.8 2.4s1.3.9 2.2.9c.6 0 1 0 1.3-.1zm-2.6-5.2c.3-.3.7-.5 1.2-.5s.9.2 1.2.5.4.8.4 1.4h-3.4c.1-.6.3-1.1.6-1.4zm8 5.3c.2 0 .4-.1.5-.1v-.7c-.1 0-.2.1-.4.1h-.5c-.3 0-.6-.1-.8-.3s-.3-.5-.3-.9v-3.8h1.9v-.8h-1.9v-1.5h-.5l-.4 1.4-.9.4v.5h.9v3.8c0 1.3.6 2 1.9 2 .1-.1.3-.1.5-.1zm7.1-6.5h-1v3.4c0 .8-.2 1.4-.5 1.8s-.8.6-1.5.6c-.5 0-.9-.1-1.1-.4s-.4-.6-.4-1.2v-4.2h-1v4.2c0 .8.2 1.4.6 1.8s1 .6 1.8.6c.5 0 .9-.1 1.2-.3s.6-.4.8-.7h.1l.1.9h.8v-6.5h.1zm3 3c0-.6.2-1.2.6-1.6s.8-.6 1.3-.6c.2 0 .4 0 .7.1l.1-.9c-.2 0-.5-.1-.8-.1-.4 0-.8.1-1.1.3s-.6.5-.9 1l-.1-1.2h-.8v6.4h1v-3.4zm9.4-3.1c-.4 0-.8 0-1.1.1s-.7.2-1 .4l.3.7c.7-.3 1.3-.5 1.8-.5s.8.1 1 .4.3.6.3 1.1v.4h-1.1c-2.1.1-3.1.7-3.1 2 0 .6.2 1.1.5 1.4s.9.5 1.5.5c.5 0 .9-.1 1.2-.2s.6-.4 1-.8l.2.9h.7v-4.4c0-.8-.2-1.3-.6-1.6s-.8-.4-1.6-.4zm1.3 3.9c0 .6-.2 1.1-.5 1.4s-.8.5-1.4.5c-.4 0-.7-.1-.9-.3s-.3-.5-.3-.8c0-.4.2-.8.5-1s.9-.3 1.7-.4h1v.6h-.1zm7.3-3.9v1h-.1c-.5-.6-1.1-.9-2-.9-.8 0-1.5.3-2 .9s-.7 1.4-.7 2.5.2 1.9.7 2.4 1.1.9 2 .9 1.6-.3 2-1h.1l.1.9h.8v-9.1h-1v2.4h.1zm0 3.5c0 .8-.1 1.4-.4 1.7s-.8.5-1.4.5-1-.2-1.3-.6-.5-1-.5-1.9c0-.8.2-1.4.5-1.9s.7-.7 1.3-.7c.7 0 1.1.2 1.5.6s.5 1 .5 1.9v.4h-.2zm3.1-3.4h1v6.4h-1zm.5-1.1c.2 0 .3-.1.4-.2s.2-.3.2-.5-.1-.4-.2-.5-.2-.2-.4-.2-.3.1-.4.2-.2.3-.2.5.1.4.2.5.2.2.4.2zm5.5 1c-.4 0-.8.1-1.1.2s-.6.4-.9.8l-.1-.9h-.8v9.3h1v-2.6c0-.3 0-.7-.1-1.1h.1c.2.3.5.6.9.7s.7.2 1.1.2c.8 0 1.5-.3 2-.9s.7-1.4.7-2.5-.2-1.9-.7-2.4-1.3-.8-2.1-.8zm1.2 5.1c-.3.4-.7.7-1.3.7-.7 0-1.1-.2-1.4-.6s-.5-1-.5-1.9v-.2c0-.8.2-1.4.5-1.7s.8-.5 1.4-.5 1 .2 1.3.6.5 1 .5 1.8c-.1.8-.2 1.4-.5 1.8zm3.6-6.1c.2 0 .3-.1.4-.2s.2-.3.2-.5-.1-.4-.2-.5-.2-.2-.4-.2-.3.1-.4.2-.2.3-.2.5.1.4.2.5.3.2.4.2zm-.4 1.1h1v6.4h-1zm3.3 2.9c.3.2.7.4 1.3.6.6.2 1.1.5 1.3.6s.3.4.3.6c0 .3-.1.6-.4.7s-.7.2-1.2.2c-.3 0-.7 0-1-.1s-.7-.2-1-.4v.9c.5.3 1.1.4 2 .4.8 0 1.4-.2 1.9-.5s.7-.8.7-1.4c0-.4-.1-.8-.4-1.1s-.8-.6-1.5-.8c-.6-.2-.9-.4-1.1-.5s-.3-.2-.4-.3-.1-.3-.1-.4c0-.3.1-.5.4-.6s.6-.2 1-.2c.5 0 1.1.1 1.8.4l.3-.8c-.7-.3-1.3-.4-2-.4s-1.3.2-1.8.5-.6.7-.6 1.2c0 .3.1.5.2.8s.1.4.3.6zm8-2.2c.2 0 .4 0 .7.1s.5.1.7.2l.3-.8c-.2-.1-.4-.2-.7-.2s-.6-.1-.9-.1c-1 0-1.7.3-2.2.9s-.8 1.4-.8 2.5c0 1 .3 1.9.8 2.4s1.2.9 2.2.9c.7 0 1.2-.1 1.6-.3v-.9c-.6.2-1.1.3-1.6.3-.6 0-1.1-.2-1.4-.6s-.5-1-.5-1.8c-.1-1.7.5-2.6 1.8-2.6zm3.6-1.8c.2 0 .3-.1.4-.2s.2-.3.2-.5-.1-.4-.2-.5-.2-.2-.4-.2-.3.1-.4.2-.2.3-.2.5.1.4.2.5.3.2.4.2zm-.5 1.1h1v6.4h-1zm6.1-.1c-.4 0-.8.1-1.2.3s-.6.4-.8.7l-.2-.9h-.8v6.4h1v-3.4c0-.8.2-1.4.5-1.8s.8-.5 1.5-.5c.5 0 .9.1 1.1.4s.4.6.4 1.2v4.2h1v-4.2c0-.8-.2-1.4-.6-1.8s-1.1-.6-1.9-.6zm4.2 8.9c.5.3 1.1.5 1.9.5 1.1 0 1.9-.2 2.5-.6s.9-.9.9-1.6c0-.6-.2-1-.6-1.3s-.9-.4-1.6-.4h-1.1c-.4 0-.6 0-.7-.1s-.2-.2-.2-.4c0-.3.2-.6.6-.8h.5c.8 0 1.3-.2 1.8-.6s.6-.9.6-1.5c0-.3 0-.5-.1-.7s-.2-.4-.3-.5l1.2-.1v-.6h-2.2c-.3-.1-.6-.1-.9-.1-.8 0-1.4.2-1.8.6s-.6.9-.6 1.6c0 .4.1.8.3 1.1s.5.6.8.7c-.3.2-.5.3-.6.5s-.2.4-.2.6c0 .2.1.4.2.5s.2.3.4.3c-.5.1-.8.3-1.1.6s-.4.6-.4 1c0 .6.2 1 .7 1.3zm.8-6.8c0-.5.1-.8.4-1.1s.6-.4 1.1-.4c1 0 1.4.5 1.4 1.4s-.5 1.4-1.4 1.4c-.5 0-.8-.1-1.1-.3s-.4-.5-.4-1zm-.2 4.6c.2-.2.6-.3 1-.3h1.2c.6 0 1 .1 1.2.2s.3.4.3.7c0 .4-.2.7-.6 1s-1 .4-1.8.4c-.5 0-1-.1-1.3-.3s-.4-.4-.4-.8c.1-.4.2-.7.4-.9zm14-.5v-.9c-.7.3-1.4.4-2.1.4s-1.2-.2-1.5-.6-.6-1-.6-1.7h4.4v-.6c0-.9-.2-1.6-.7-2.1s-1.1-.8-1.9-.8c-.9 0-1.5.3-2.1.9s-.8 1.4-.8 2.5c0 1 .3 1.8.8 2.4s1.3.9 2.2.9c.4 0 .8 0 1.1-.1s.9-.2 1.2-.3zm-3.6-4.9c.3-.3.7-.5 1.2-.5s.9.2 1.2.5.4.8.4 1.4h-3.4c.1-.6.3-1.1.6-1.4zm5.5-3.9h1v9.1h-1zm3.6 1.6c.2 0 .3-.1.4-.2s.2-.3.2-.5-.1-.4-.2-.5-.2-.2-.4-.2-.3.1-.4.2-.2.3-.2.5.1.4.2.5.2.2.4.2zm-.5 1.1h1v6.4h-1zm5.1 5.7c-.3 0-.6-.1-.8-.3s-.3-.5-.3-.9v-3.8h1.9v-.8H404V143h-.6l-.4 1.4-.9.4v.5h.9v3.8c0 1.3.6 2 1.9 2h.6c.3 0 .4-.1.5-.1v-.7c-.1 0-.2.1-.4.1s-.4-.1-.6-.1zm2.8.8c.2-.5.3-1 .4-1.4l-.1-.1H407c-.1.4-.1.8-.3 1.4s-.2 1.1-.3 1.5h.7c.3-.4.5-.9.7-1.4zm9.6-1.9c0-.4-.1-.8-.4-1.1s-.8-.6-1.5-.8c-.6-.2-.9-.4-1.1-.5s-.3-.2-.4-.3-.1-.3-.1-.4c0-.3.1-.5.4-.6s.6-.2 1-.2c.5 0 1.1.1 1.8.4l.3-.8c-.7-.3-1.3-.4-2-.4s-1.3.2-1.8.5-.6.7-.6 1.2c0 .3.1.5.2.8s.3.4.6.6.7.4 1.3.6c.6.2 1.1.5 1.3.6s.3.4.3.6c0 .3-.1.6-.4.7s-.7.2-1.2.2c-.3 0-.7 0-1-.1s-.7-.2-1-.4v.9c.5.3 1.1.4 2 .4.8 0 1.4-.2 1.9-.5s.4-.8.4-1.4zm2.8.5c-.4-.4-.6-1-.6-1.7h4.4v-.6c0-.9-.2-1.6-.7-2.1s-1.1-.8-1.9-.8c-.9 0-1.5.3-2.1.9s-.8 1.4-.8 2.5c0 1 .3 1.8.8 2.4s1.3.9 2.2.9c.4 0 .8 0 1.1-.1s.6-.2 1-.3v-.9c-.7.3-1.4.4-2.1.4-.5 0-1-.2-1.3-.6zm0-3.9c.3-.3.7-.5 1.2-.5s.9.2 1.2.5.4.8.4 1.4h-3.4c.1-.6.2-1.1.6-1.4zm7.8 5.3c.9 0 1.6-.3 2-1h.1l.1.9h.8v-9.1h-1v3.6c-.5-.6-1.1-.9-2-.9-.8 0-1.5.3-2 .9s-.7 1.4-.7 2.5.2 1.9.7 2.4 1.1.7 2 .7zm-1.2-5.2c.3-.4.7-.7 1.3-.7.7 0 1.1.2 1.5.6s.5 1 .5 1.9v.2c0 .8-.1 1.4-.4 1.7s-.8.5-1.4.5-1-.2-1.3-.6-.5-1-.5-1.9c-.2-.6 0-1.2.3-1.7zm14.6-4h-1v3.6h-.1c-.5-.6-1.1-.9-2-.9-.8 0-1.5.3-2 .9s-.7 1.4-.7 2.5.2 1.9.7 2.4 1.1.9 2 .9 1.6-.3 2-1h.1l.1.9h.8v-9.3h.1zm-.9 6.1c0 .8-.1 1.4-.4 1.7s-.8.5-1.4.5-1-.2-1.3-.6-.5-1-.5-1.9c0-.8.2-1.4.5-1.9s.7-.7 1.3-.7c.7 0 1.1.2 1.5.6s.5 1 .5 1.9v.4h-.2zm7.7-2.6c-.5-.6-1.2-.9-2.1-.9s-1.7.3-2.2.9-.8 1.4-.8 2.4c0 .7.1 1.3.4 1.8s.6.9 1 1.2 1 .4 1.5.4c.9 0 1.7-.3 2.2-.9s.8-1.4.8-2.5c0-1-.2-1.8-.8-2.4zm-.7 4.3c-.3.4-.8.6-1.5.6s-1.1-.2-1.4-.6-.5-1.1-.5-1.9c0-.8.2-1.5.5-1.9s.8-.6 1.4-.6 1.1.2 1.5.6.5 1 .5 1.9c0 .8-.1 1.4-.5 1.9zm11.2.1c-.7.3-1.4.4-2.1.4s-1.2-.2-1.5-.6-.6-1-.6-1.7h4.4v-.6c0-.9-.2-1.6-.7-2.1s-1.1-.8-1.9-.8c-.9 0-1.5.3-2.1.9s-.8 1.4-.8 2.5c0 1 .3 1.8.8 2.4s1.3.9 2.2.9c.4 0 .8 0 1.1-.1s.6-.2 1-.3v-.9h.2zm-3.6-4c.3-.3.7-.5 1.2-.5s.9.2 1.2.5.4.8.4 1.4h-3.4c.1-.6.3-1.1.6-1.4zm6-2.3c.2 0 .3-.1.4-.2s.2-.3.2-.5-.1-.4-.2-.5-.2-.2-.4-.2-.3.1-.4.2-.2.3-.2.5.1.4.2.5.2.2.4.2zm-.5 1.1h1v6.4h-1zm7.4 5.5l.1.9h.8v-6.4h-1v3.4c0 .8-.2 1.4-.5 1.8s-.8.6-1.5.6c-.5 0-.9-.1-1.1-.4s-.4-.6-.4-1.2v-4.2h-1v4.2c0 .8.2 1.4.6 1.8s1 .6 1.8.6c.5 0 .9-.1 1.2-.3s.7-.4 1-.8zm7.1-.9c0-.4-.1-.8-.4-1.1s-.8-.6-1.5-.8c-.6-.2-.9-.4-1.1-.5s-.3-.2-.4-.3-.1-.3-.1-.4c0-.3.1-.5.4-.6s.6-.2 1-.2c.5 0 1.1.1 1.8.4l.3-.8c-.7-.3-1.3-.4-2-.4s-1.3.2-1.8.5-.6.7-.6 1.2c0 .3.1.5.2.8s.3.4.6.6.7.4 1.3.6c.6.2 1.1.5 1.3.6s.3.4.3.6c0 .3-.1.6-.4.7s-.7.2-1.2.2c-.3 0-.7 0-1-.1s-.7-.2-1-.4v.9c.5.3 1.1.4 2 .4.8 0 1.4-.2 1.9-.5s.4-.8.4-1.4zm8.5-3.9c.5 0 .8.1 1 .4s.3.6.3 1.2v4.2h1v-4.2c0-.8-.2-1.4-.5-1.8s-.9-.6-1.6-.6c-.5 0-.9.1-1.2.3s-.6.5-.8.8c-.3-.7-1-1.1-2-1.1-.4 0-.8.1-1.1.3s-.6.4-.8.7l-.2-.9h-.8v6.4h1v-3.4c0-.8.1-1.4.4-1.8s.7-.5 1.3-.5c.5 0 .8.1 1 .4s.3.6.3 1.2v4.2h1v-3.6c0-.7.1-1.3.4-1.6s.6-.6 1.3-.6zm5.3 5.4c.4.3 1 .4 1.5.4.9 0 1.7-.3 2.2-.9s.8-1.4.8-2.5c0-1-.3-1.8-.8-2.4s-1.2-.9-2.1-.9-1.7.3-2.2.9-.8 1.4-.8 2.4c0 .7.1 1.3.4 1.8s.6.9 1 1.2zm.1-4.8c.3-.4.8-.6 1.4-.6s1.1.2 1.5.6.5 1 .5 1.9c0 .8-.2 1.5-.5 1.9s-.8.6-1.5.6-1.1-.2-1.4-.6-.5-1.1-.5-1.9.2-1.5.5-1.9zm8.4 5.2c.9 0 1.6-.3 2-1h.1l.1.9h.8v-9.1h-1v3.6h-.1c-.5-.6-1.1-.9-2-.9-.8 0-1.5.3-2 .9s-.7 1.4-.7 2.5.2 1.9.7 2.4 1.3.7 2.1.7zm-1.2-5.2c.3-.4.7-.7 1.3-.7.7 0 1.1.2 1.5.6s.5 1 .5 1.9v.2c0 .8-.1 1.4-.4 1.7s-.8.5-1.4.5-1-.2-1.3-.6-.5-1-.5-1.9c-.1-.6 0-1.2.3-1.7zm9.5 3.3c0 1.3.6 2 1.9 2h.6c.3 0 .4-.1.5-.1v-.7c-.1 0-.2.1-.4.1h-.5c-.3 0-.6-.1-.8-.3s-.3-.5-.3-.9v-3.8h1.9v-.8h-1.9v-1.5h-.6l-.4 1.4-.9.4v.5h.9v3.7zm5.4.5c-.4-.4-.6-1-.6-1.7h4.4v-.6c0-.9-.2-1.6-.7-2.1s-1.1-.8-1.9-.8c-.9 0-1.5.3-2.1.9s-.8 1.4-.8 2.5c0 1 .3 1.8.8 2.4s1.3.9 2.2.9c.4 0 .8 0 1.1-.1s.6-.2 1-.3v-.9c-.7.3-1.4.4-2.1.4-.5 0-1-.2-1.3-.6zm-.1-3.9c.3-.3.7-.5 1.2-.5s.9.2 1.2.5.4.8.4 1.4h-3.4c.2-.6.3-1.1.6-1.4zm12.6-1.3c-.5 0-.9.1-1.2.3s-.6.5-.8.8c-.3-.7-1-1.1-2-1.1-.4 0-.8.1-1.1.3s-.6.4-.8.7l-.2-.9h-.8v6.4h1v-3.4c0-.8.1-1.4.4-1.8s.7-.5 1.3-.5c.5 0 .8.1 1 .4s.3.6.3 1.2v4.2h1v-3.6c0-.7.1-1.3.4-1.6s.7-.5 1.3-.5c.5 0 .8.1 1 .4s.3.6.3 1.2v4.2h1V147c0-.8-.2-1.4-.5-1.8s-.9-.7-1.6-.7zm7.1 0c-.4 0-.8.1-1.1.2s-.6.4-.9.8l-.1-.9h-.8v9.3h1v-2.6c0-.3 0-.7-.1-1.1h.1c.2.3.5.6.9.7s.7.2 1.1.2c.8 0 1.5-.3 2-.9s.7-1.4.7-2.5-.2-1.9-.7-2.4-1.2-.8-2.1-.8zm1.2 5.1c-.3.4-.7.7-1.3.7-.7 0-1.1-.2-1.4-.6s-.5-1-.5-1.9v-.2c0-.8.2-1.4.5-1.7s.8-.5 1.4-.5c.6 0 1 .2 1.3.6s.5 1 .5 1.8-.2 1.4-.5 1.8zm5.8-5.1c-.9 0-1.7.3-2.2.9s-.8 1.4-.8 2.4c0 .7.1 1.3.4 1.8s.6.9 1 1.2 1 .4 1.5.4c.9 0 1.7-.3 2.2-.9s.8-1.4.8-2.5c0-1-.3-1.8-.8-2.4s-1.2-.9-2.1-.9zm1.4 5.2c-.3.4-.8.6-1.5.6s-1.1-.2-1.4-.6-.5-1.1-.5-1.9c0-.8.2-1.5.5-1.9s.8-.6 1.4-.6c.6 0 1.1.2 1.5.6s.5 1 .5 1.9c0 .8-.1 1.4-.5 1.9zm5.1-4.9a3 3 0 00-.9 1l-.1-1.2h-.8v6.4h1v-3.4c0-.6.2-1.2.6-1.6s.8-.6 1.3-.6c.2 0 .4 0 .7.1l.1-.9c-.2 0-.5-.1-.8-.1-.4 0-.8.1-1.1.3zm6.1-.2h1v6.4h-1zm.5-2.4c-.2 0-.3.1-.4.2s-.2.3-.2.5.1.4.2.5.2.2.4.2.3-.1.4-.2.2-.3.2-.5-.1-.4-.2-.5-.2-.2-.4-.2zm5.6 2.3c-.4 0-.8.1-1.2.3s-.6.4-.8.7l-.2-.9h-.8v6.4h1v-3.4c0-.8.2-1.4.5-1.8s.8-.5 1.5-.5c.5 0 .9.1 1.1.4s.4.6.4 1.2v4.2h1v-4.2c0-.8-.2-1.4-.6-1.8s-1.1-.6-1.9-.6zm7 .8c.2 0 .4 0 .7.1s.5.1.7.2l.3-.8c-.2-.1-.4-.2-.7-.2s-.6-.1-.9-.1c-1 0-1.7.3-2.2.9s-.8 1.4-.8 2.5c0 1 .3 1.9.8 2.4s1.2.9 2.2.9c.7 0 1.2-.1 1.6-.3v-.9c-.6.2-1.1.3-1.6.3-.6 0-1.1-.2-1.4-.6s-.5-1-.5-1.8c-.2-1.7.4-2.6 1.8-2.6zm3.6-3.1c-.2 0-.3.1-.4.2s-.2.3-.2.5.1.4.2.5.2.2.4.2.3-.1.4-.2.2-.3.2-.5-.1-.4-.2-.5-.3-.2-.4-.2zm-.5 2.4h1v6.4h-1zm7.3-.1v1h-.1c-.5-.6-1.1-.9-2-.9-.8 0-1.5.3-2 .9s-.7 1.4-.7 2.5.2 1.9.7 2.4 1.1.9 2 .9 1.6-.3 2-1h.1l.1.9h.8v-9.1h-1v2.4h.1zm0 3.5c0 .8-.1 1.4-.4 1.7s-.8.5-1.4.5c-.6 0-1-.2-1.3-.6s-.5-1-.5-1.9c0-.8.2-1.4.5-1.9s.7-.7 1.3-.7c.7 0 1.1.2 1.5.6s.5 1 .5 1.9v.4h-.2zm3-3.4h1v6.4h-1zm.5-2.4c-.2 0-.3.1-.4.2s-.2.3-.2.5.1.4.2.5.2.2.4.2.3-.1.4-.2.2-.3.2-.5-.1-.4-.2-.5-.2-.2-.4-.2zm6.9 2.3v1h-.1c-.5-.6-1.1-.9-2-.9-.8 0-1.5.3-2 .9s-.7 1.4-.7 2.5.2 1.9.7 2.4 1.1.9 2 .9 1.6-.3 2-1h.1l.1.9h.8v-9.1h-1v2.4h.1zm0 3.5c0 .8-.1 1.4-.4 1.7s-.8.5-1.4.5c-.6 0-1-.2-1.3-.6s-.5-1-.5-1.9c0-.8.2-1.4.5-1.9s.7-.7 1.3-.7c.7 0 1.1.2 1.5.6s.5 1 .5 1.9v.4h-.2zm7.4 0c0 .8-.2 1.4-.5 1.8s-.8.6-1.5.6c-.5 0-.9-.1-1.1-.4s-.4-.6-.4-1.2v-4.2h-1v4.2c0 .8.2 1.4.6 1.8s1 .6 1.8.6c.5 0 .9-.1 1.2-.3s.6-.4.8-.7h.1l.1.9h.8v-6.4h-1v3.3h.1zm6-3.5c-.4 0-.8.1-1.2.3s-.6.4-.8.7l-.2-.9h-.8v6.4h1v-3.4c0-.8.2-1.4.5-1.8s.8-.5 1.5-.5c.5 0 .9.1 1.1.4s.4.6.4 1.2v4.2h1v-4.2c0-.8-.2-1.4-.6-1.8s-1.1-.6-1.9-.6zm6.9 5.8h-.5c-.3 0-.6-.1-.8-.3s-.3-.5-.3-.9v-3.8h1.9v-.8H603V143h-.6l-.4 1.4-.9.4v.5h.9v3.8c0 1.3.6 2 1.9 2h.6c.3 0 .4-.1.5-.1v-.7c-.2-.1-.3 0-.5 0zM105.4 166c0 .8-.2 1.4-.5 1.8s-.8.6-1.5.6c-.5 0-.9-.1-1.1-.4s-.4-.6-.4-1.2v-4.2h-1v4.2c0 .8.2 1.4.6 1.8s1 .6 1.8.6c.5 0 .9-.1 1.2-.3s.6-.4.8-.7h.1l.1.9h.8v-6.4h-1v3.3h.1zm5.1 2.3c-.3 0-.6-.1-.8-.3s-.3-.5-.3-.9v-3.8h1.9v-.8h-1.9V161h-.6l-.4 1.4-.9.4v.5h.9v3.8c0 1.3.6 2 1.9 2h.6c.3 0 .4-.1.5-.1v-.7c-.1 0-.2.1-.4.1s-.4-.1-.5-.1zm5.3-8.4h1v9.1h-1zm5.4 2.6c-.4 0-.8 0-1.1.1s-.7.2-1 .4l.3.7c.7-.3 1.3-.5 1.8-.5s.8.1 1 .4.3.6.3 1.1v.4h-1.1c-2.1.1-3.1.7-3.1 2 0 .6.2 1.1.5 1.4s.9.5 1.5.5c.5 0 .9-.1 1.2-.2s.6-.4 1-.8l.2.9h.7v-4.4c0-.8-.2-1.3-.6-1.6s-.8-.4-1.6-.4zm1.3 3.9c0 .6-.2 1.1-.5 1.4s-.8.5-1.4.5c-.4 0-.7-.1-.9-.3s-.3-.5-.3-.8c0-.4.2-.8.5-1s.9-.3 1.7-.4h1v.6h-.1zm5.9-3.9c-.9 0-1.6.3-2 1V160h-1v9.1h.7l.2-.8h.1c.2.3.5.6.9.7s.7.2 1.1.2c.8 0 1.5-.3 2-.9s.7-1.4.7-2.5-.2-1.9-.7-2.4-1.1-.9-2-.9zm1.3 5.1c-.3.4-.7.7-1.3.7-.7 0-1.1-.2-1.4-.6s-.5-1-.5-1.9.1-1.5.4-1.9.8-.6 1.4-.6c.6 0 1.1.2 1.4.6s.4 1 .4 1.9c0 .8-.1 1.4-.4 1.8zm5.7-5.1c-.9 0-1.7.3-2.2.9s-.8 1.4-.8 2.4c0 .7.1 1.3.4 1.8s.6.9 1 1.2 1 .4 1.5.4c.9 0 1.7-.3 2.2-.9s.8-1.4.8-2.5c0-1-.3-1.8-.8-2.4s-1.2-.9-2.1-.9zm1.5 5.2c-.3.4-.8.6-1.5.6s-1.1-.2-1.4-.6-.5-1.1-.5-1.9c0-.8.2-1.5.5-1.9s.8-.6 1.4-.6c.6 0 1.1.2 1.5.6s.5 1 .5 1.9c-.1.8-.2 1.4-.5 1.9zm5-4.9a3 3 0 00-.9 1l-.1-1.2h-.8v6.4h1v-3.4c0-.6.2-1.2.6-1.6s.8-.6 1.3-.6c.2 0 .4 0 .7.1l.1-.9c-.2 0-.5-.1-.8-.1-.4 0-.8.1-1.1.3zm5.5-.3c-.9 0-1.5.3-2.1.9s-.8 1.4-.8 2.5c0 1 .3 1.8.8 2.4s1.3.9 2.2.9c.4 0 .8 0 1.1-.1s.6-.2 1-.3v-.9c-.7.3-1.4.4-2.1.4-.7 0-1.2-.2-1.5-.6s-.6-1-.6-1.7h4.4v-.6c0-.9-.2-1.6-.7-2.1s-.9-.8-1.7-.8zm-1.8 2.7c.1-.6.2-1.1.5-1.4s.7-.5 1.2-.5.9.2 1.2.5.4.8.4 1.4h-3.3zm11.7-2.7c-.9 0-1.5.3-2.1.9s-.8 1.4-.8 2.5c0 1 .3 1.8.8 2.4s1.3.9 2.2.9c.4 0 .8 0 1.1-.1s.6-.2 1-.3v-.9c-.7.3-1.4.4-2.1.4-.7 0-1.2-.2-1.5-.6s-.6-1-.6-1.7h4.4v-.6c0-.9-.2-1.6-.7-2.1s-.9-.8-1.7-.8zm-1.8 2.7c.1-.6.2-1.1.5-1.4s.7-.5 1.2-.5.9.2 1.2.5.4.8.4 1.4h-3.3zm8.1 3.1c-.3 0-.6-.1-.8-.3s-.3-.5-.3-.9v-3.8h1.9v-.8h-1.9V161h-.5l-.4 1.4-.9.4v.5h.9v3.8c0 1.3.6 2 1.9 2h.6c.3 0 .4-.1.5-.1v-.7c-.1 0-.2.1-.4.1s-.4-.1-.6-.1zm9.6-5.8v1h-.1c-.5-.6-1.1-.9-2-.9-.8 0-1.5.3-2 .9s-.7 1.4-.7 2.5.2 1.9.7 2.4 1.1.9 2 .9 1.6-.3 2-1h.1l.1.9h.8v-9.1h-1v2.4h.1zm0 3.5c0 .8-.1 1.4-.4 1.7s-.8.5-1.4.5c-.6 0-1-.2-1.3-.6s-.5-1-.5-1.9c0-.8.2-1.4.5-1.9s.7-.7 1.3-.7c.7 0 1.1.2 1.5.6s.5 1 .5 1.9v.4h-.2zm5.7-3.5c-.9 0-1.7.3-2.2.9s-.8 1.4-.8 2.4c0 .7.1 1.3.4 1.8s.6.9 1 1.2 1 .4 1.5.4c.9 0 1.7-.3 2.2-.9s.8-1.4.8-2.5c0-1-.3-1.8-.8-2.4s-1.2-.9-2.1-.9zm1.4 5.2c-.3.4-.8.6-1.5.6s-1.1-.2-1.4-.6-.5-1.1-.5-1.9c0-.8.2-1.5.5-1.9s.8-.6 1.4-.6c.6 0 1.1.2 1.5.6s.5 1 .5 1.9c0 .8-.2 1.4-.5 1.9zm3.2-7.8h1v9.1h-1zm5.6 2.6c-.9 0-1.7.3-2.2.9s-.8 1.4-.8 2.4c0 .7.1 1.3.4 1.8s.6.9 1 1.2 1 .4 1.5.4c.9 0 1.7-.3 2.2-.9s.8-1.4.8-2.5c0-1-.3-1.8-.8-2.4s-1.2-.9-2.1-.9zm1.5 5.2c-.3.4-.8.6-1.5.6s-1.1-.2-1.4-.6-.5-1.1-.5-1.9c0-.8.2-1.5.5-1.9s.8-.6 1.4-.6c.6 0 1.1.2 1.5.6s.5 1 .5 1.9c0 .8-.2 1.4-.5 1.9zm5-4.9a3 3 0 00-.9 1l-.1-1.2h-.8v6.4h1v-3.4c0-.6.2-1.2.6-1.6s.8-.6 1.3-.6c.2 0 .4 0 .7.1l.1-.9c-.2 0-.5-.1-.8-.1-.4 0-.8.1-1.1.3zm5.5-.3c-.9 0-1.5.3-2.1.9s-.8 1.4-.8 2.5c0 1 .3 1.8.8 2.4s1.3.9 2.2.9c.4 0 .8 0 1.1-.1s.6-.2 1-.3v-.9c-.7.3-1.4.4-2.1.4-.7 0-1.2-.2-1.5-.6s-.6-1-.6-1.7h4.4v-.6c0-.9-.2-1.6-.7-2.1s-.9-.8-1.7-.8zm-1.7 2.7c.1-.6.2-1.1.5-1.4s.7-.5 1.2-.5.9.2 1.2.5.4.8.4 1.4h-3.3zm16.1-2.7c-.5 0-.9.1-1.2.3s-.6.5-.8.8c-.3-.7-1-1.1-2-1.1-.4 0-.8.1-1.1.3s-.6.4-.8.7l-.2-.9h-.8v6.4h1v-3.4c0-.8.1-1.4.4-1.8s.7-.5 1.3-.5c.5 0 .8.1 1 .4s.3.6.3 1.2v4.2h1v-3.6c0-.7.1-1.3.4-1.6s.7-.5 1.3-.5c.5 0 .8.1 1 .4s.3.6.3 1.2v4.2h1V165c0-.8-.2-1.4-.5-1.8s-.9-.7-1.6-.7zm6.6 0c-.4 0-.8 0-1.1.1s-.7.2-1 .4l.3.7c.7-.3 1.3-.5 1.8-.5s.8.1 1 .4.3.6.3 1.1v.4h-1.1c-2.1.1-3.1.7-3.1 2 0 .6.2 1.1.5 1.4s.9.5 1.5.5c.5 0 .9-.1 1.2-.2s.6-.4 1-.8l.2.9h.7v-4.4c0-.8-.2-1.3-.6-1.6s-.8-.4-1.6-.4zm1.3 3.9c0 .6-.2 1.1-.5 1.4s-.8.5-1.4.5c-.4 0-.7-.1-.9-.3s-.3-.5-.3-.8c0-.4.2-.8.5-1s.9-.3 1.7-.4h1v.6h-.1zm5.1-3.9c-.8 0-1.4.2-1.8.6s-.6.9-.6 1.6c0 .4.1.8.3 1.1s.5.6.8.7c-.3.2-.5.3-.6.5s-.2.4-.2.6c0 .2.1.4.2.5s.2.3.4.3c-.5.1-.8.3-1.1.6s-.4.6-.4 1c0 .6.2 1 .7 1.3s1.1.5 1.9.5c1.1 0 1.9-.2 2.5-.6s.9-.9.9-1.6c0-.6-.2-1-.6-1.3s-.9-.4-1.6-.4h-1.1c-.4 0-.6 0-.7-.1s-.2-.2-.2-.4c0-.3.2-.6.6-.8h.5c.8 0 1.3-.2 1.8-.6s.6-.9.6-1.5c0-.3 0-.5-.1-.7s-.2-.4-.3-.5l1.2-.1v-.6h-2.2c-.3-.1-.6-.1-.9-.1zm-.6 6.4h1.2c.6 0 1 .1 1.2.2s.3.4.3.7c0 .4-.2.7-.6 1s-1 .4-1.8.4c-.5 0-1-.1-1.3-.3s-.4-.4-.4-.8.1-.7.4-.9.6-.3 1-.3zm2-4.3c0 .9-.5 1.4-1.4 1.4-.5 0-.8-.1-1.1-.3s-.4-.6-.4-1c0-.5.1-.8.4-1.1s.6-.4 1.1-.4c.9 0 1.4.5 1.4 1.4zm6.1-2.1c-.4 0-.8.1-1.2.3s-.6.4-.8.7l-.2-.9h-.8v6.4h1v-3.4c0-.8.2-1.4.5-1.8s.8-.5 1.5-.5c.5 0 .9.1 1.1.4s.4.6.4 1.2v4.2h1v-4.2c0-.8-.2-1.4-.6-1.8s-1.2-.6-1.9-.6zm6.7 0c-.4 0-.8 0-1.1.1s-.7.2-1 .4l.3.7c.7-.3 1.3-.5 1.8-.5s.8.1 1 .4.3.6.3 1.1v.4h-1.1c-2.1.1-3.1.7-3.1 2 0 .6.2 1.1.5 1.4s.9.5 1.5.5c.5 0 .9-.1 1.2-.2s.6-.4 1-.8l.2.9h.7v-4.4c0-.8-.2-1.3-.6-1.6s-.8-.4-1.6-.4zm1.3 3.9c0 .6-.2 1.1-.5 1.4s-.8.5-1.4.5c-.4 0-.7-.1-.9-.3s-.3-.5-.3-.8c0-.4.2-.8.5-1s.9-.3 1.7-.4h1v.6h-.1zm8.5-3.9c-.4 0-.8 0-1.1.1s-.7.2-1 .4l.3.7c.7-.3 1.3-.5 1.8-.5s.8.1 1 .4.3.6.3 1.1v.4h-1.1c-2.1.1-3.1.7-3.1 2 0 .6.2 1.1.5 1.4s.9.5 1.5.5c.5 0 .9-.1 1.2-.2s.6-.4 1-.8l.2.9h.7v-4.4c0-.8-.2-1.3-.6-1.6s-.8-.4-1.6-.4zm1.3 3.9c0 .6-.2 1.1-.5 1.4s-.8.5-1.4.5c-.4 0-.7-.1-.9-.3s-.3-.5-.3-.8c0-.4.2-.8.5-1s.9-.3 1.7-.4h1v.6h-.1zm3-6.5h1v9.1h-1zm3 2.7h1v6.4h-1zm.5-2.4c-.2 0-.3.1-.4.2s-.2.3-.2.5.1.4.2.5.2.2.4.2.3-.1.4-.2.2-.3.2-.5-.1-.4-.2-.5-.2-.2-.4-.2zm6.9 3.3c-.5-.7-1.2-1-2.1-1-.8 0-1.5.3-2 .9s-.7 1.4-.7 2.5c0 1 .2 1.9.7 2.4s1.1.9 1.9.9c.9 0 1.6-.3 2-1h.1c0 .3-.1.6-.1 1v2.7h1v-9.3h-.8v.9zm0 2.5c0 .8-.2 1.4-.5 1.8s-.8.5-1.4.5-1-.2-1.3-.6-.4-1-.4-1.8.2-1.4.5-1.9.7-.7 1.3-.7c.7 0 1.1.2 1.4.6s.5 1 .5 1.9v.2h-.1zm7.3 0c0 .8-.2 1.4-.5 1.8s-.8.6-1.5.6c-.5 0-.9-.1-1.1-.4s-.4-.6-.4-1.2v-4.2h-1v4.2c0 .8.2 1.4.6 1.8s1 .6 1.8.6c.5 0 .9-.1 1.2-.3s.6-.4.8-.7h.1l.1.9h.8v-6.4h-1v3.3h.1zm5.5-3.5c-.4 0-.8 0-1.1.1s-.7.2-1 .4l.3.7c.7-.3 1.3-.5 1.8-.5s.8.1 1 .4.3.6.3 1.1v.4h-1.1c-2.1.1-3.1.7-3.1 2 0 .6.2 1.1.5 1.4s.9.5 1.5.5c.5 0 .9-.1 1.2-.2s.6-.4 1-.8l.2.9h.7v-4.4c0-.8-.2-1.3-.6-1.6s-.9-.4-1.6-.4zm1.3 3.9c0 .6-.2 1.1-.5 1.4s-.8.5-1.4.5c-.4 0-.7-.1-.9-.3s-.3-.5-.3-.8c0-.4.2-.8.5-1s.9-.3 1.7-.4h1v.6h-.1zm3.5 1.2c-.2 0-.4.1-.5.2s-.2.3-.2.6.1.5.2.6.3.2.5.2.4-.1.5-.2.2-.3.2-.6-.1-.5-.2-.6-.3-.2-.5-.2zm11.4-1.6c0 .7-.2 1.3-.6 1.7s-.9.6-1.7.6c-.8 0-1.3-.2-1.7-.6s-.6-.9-.6-1.6v-5.6h-1v5.5c0 1 .3 1.8.8 2.3s1.4.8 2.4.8 1.8-.3 2.4-.8.9-1.3.9-2.3v-5.5h-1v5.5h.1zm5.2 2.3c-.3 0-.6-.1-.8-.3s-.3-.5-.3-.9v-3.8h1.9v-.8h-1.9V161h-.6l-.4 1.4-.9.4v.5h.9v3.8c0 1.3.6 2 1.9 2h.6c.3 0 .4-.1.5-.1v-.7c-.1 0-.2.1-.4.1s-.4-.1-.5-.1zm7.7-5.8c-.9 0-1.5.3-2.1.9s-.8 1.4-.8 2.5c0 1 .3 1.8.8 2.4s1.3.9 2.2.9c.4 0 .8 0 1.1-.1s.6-.2 1-.3v-.9c-.7.3-1.4.4-2.1.4s-1.2-.2-1.5-.6-.6-1-.6-1.7h4.4v-.6c0-.9-.2-1.6-.7-2.1s-.9-.8-1.7-.8zm-1.8 2.7c.1-.6.2-1.1.5-1.4s.7-.5 1.2-.5.9.2 1.2.5.4.8.4 1.4h-3.3zm9.1-2.7c-.4 0-.8.1-1.2.3s-.6.4-.8.7l-.2-.9h-.8v6.4h1v-3.4c0-.8.2-1.4.5-1.8s.8-.5 1.5-.5c.5 0 .9.1 1.1.4s.4.6.4 1.2v4.2h1v-4.2c0-.8-.2-1.4-.6-1.8s-1.1-.6-1.9-.6zm4.8-2.3c-.2 0-.3.1-.4.2s-.2.3-.2.5.1.4.2.5.2.2.4.2.3-.1.4-.2.2-.3.2-.5-.1-.4-.2-.5-.2-.2-.4-.2zm-.5 2.4h1v6.4h-1zm10-.1c-.5 0-.9.1-1.2.3s-.6.5-.8.8c-.3-.7-1-1.1-2-1.1-.4 0-.8.1-1.1.3s-.6.4-.8.7l-.2-.9h-.8v6.4h1v-3.4c0-.8.1-1.4.4-1.8s.7-.5 1.3-.5c.5 0 .8.1 1 .4s.3.6.3 1.2v4.2h1v-3.6c0-.7.1-1.3.4-1.6s.7-.5 1.3-.5c.5 0 .8.1 1 .4s.3.6.3 1.2v4.2h1V165c0-.8-.2-1.4-.5-1.8s-.8-.7-1.6-.7zm9.8 0c-.4 0-.8 0-1.1.1s-.7.2-1 .4l.3.7c.7-.3 1.3-.5 1.8-.5s.8.1 1 .4.3.6.3 1.1v.4h-1.1c-2.1.1-3.1.7-3.1 2 0 .6.2 1.1.5 1.4s.9.5 1.5.5c.5 0 .9-.1 1.2-.2s.6-.4 1-.8l.2.9h.7v-4.4c0-.8-.2-1.3-.6-1.6s-.9-.4-1.6-.4zm1.2 3.9c0 .6-.2 1.1-.5 1.4s-.8.5-1.4.5c-.4 0-.7-.1-.9-.3s-.3-.5-.3-.8c0-.4.2-.8.5-1s.9-.3 1.7-.4h1v.6h-.1zm7.3-3.9v1c-.5-.6-1.1-.9-2-.9-.8 0-1.5.3-2 .9s-.7 1.4-.7 2.5.2 1.9.7 2.4 1.1.9 2 .9 1.6-.3 2-1h.1l.1.9h.8v-9.1h-1v2.4zm0 3.5c0 .8-.1 1.4-.4 1.7s-.8.5-1.4.5-1-.2-1.3-.6-.5-1-.5-1.9c0-.8.2-1.4.5-1.9s.7-.7 1.3-.7c.7 0 1.1.2 1.5.6s.5 1 .5 1.9v.4h-.2zm13.2-3.5c-.5 0-.9.1-1.2.3s-.6.5-.8.8c-.3-.7-1-1.1-2-1.1-.4 0-.8.1-1.1.3s-.6.4-.8.7l-.2-.9h-.8v6.4h1v-3.4c0-.8.1-1.4.4-1.8s.7-.5 1.3-.5c.5 0 .8.1 1 .4s.3.6.3 1.2v4.2h1v-3.6c0-.7.1-1.3.4-1.6s.7-.5 1.3-.5c.5 0 .8.1 1 .4s.3.6.3 1.2v4.2h1V165c0-.8-.2-1.4-.5-1.8s-.9-.7-1.6-.7zm4.1.1h1v6.4h-1zm.5-2.4c-.2 0-.3.1-.4.2s-.2.3-.2.5.1.4.2.5.2.2.4.2.3-.1.4-.2.2-.3.2-.5-.1-.4-.2-.5-.2-.2-.4-.2zm5.6 2.3c-.4 0-.8.1-1.2.3s-.6.4-.8.7l-.2-.9h-.8v6.4h1v-3.4c0-.8.2-1.4.5-1.8s.8-.5 1.5-.5c.5 0 .9.1 1.1.4s.4.6.4 1.2v4.2h1v-4.2c0-.8-.2-1.4-.6-1.8s-1.1-.6-1.9-.6zm4.4.1h1v6.4h-1zm.4-2.4c-.2 0-.3.1-.4.2s-.2.3-.2.5.1.4.2.5.2.2.4.2.3-.1.4-.2.2-.3.2-.5-.1-.4-.2-.5-.2-.2-.4-.2zm9.6 2.3c-.5 0-.9.1-1.2.3s-.6.5-.8.8c-.3-.7-1-1.1-2-1.1-.4 0-.8.1-1.1.3s-.6.4-.8.7l-.2-.9h-.8v6.4h1v-3.4c0-.8.1-1.4.4-1.8s.7-.5 1.3-.5c.5 0 .8.1 1 .4s.3.6.3 1.2v4.2h1v-3.6c0-.7.1-1.3.4-1.6s.7-.5 1.3-.5c.5 0 .8.1 1 .4s.3.6.3 1.2v4.2h1V165c0-.8-.2-1.4-.5-1.8s-.9-.7-1.6-.7zm9.7 4.3c-.2.7-.4 1.1-.4 1.3-.1-.3-.2-.8-.6-1.7l-1.4-3.8h-1l2.4 6.4h1.1l2.4-6.4h-1c-.8 2.2-1.3 3.6-1.5 4.2zm6-4.3c-.9 0-1.5.3-2.1.9s-.8 1.4-.8 2.5c0 1 .3 1.8.8 2.4s1.3.9 2.2.9c.4 0 .8 0 1.1-.1s.6-.2 1-.3v-.9c-.7.3-1.4.4-2.1.4s-1.2-.2-1.5-.6-.6-1-.6-1.7h4.4v-.6c0-.9-.2-1.6-.7-2.1s-.9-.8-1.7-.8zm-1.7 2.7c.1-.6.2-1.1.5-1.4s.7-.5 1.2-.5.9.2 1.2.5.4.8.4 1.4h-3.3zm9-2.7c-.4 0-.8.1-1.2.3s-.6.4-.8.7l-.2-.9h-.8v6.4h1v-3.4c0-.8.2-1.4.5-1.8s.8-.5 1.5-.5c.5 0 .9.1 1.1.4s.4.6.4 1.2v4.2h1v-4.2c0-.8-.2-1.4-.6-1.8s-1.1-.6-1.9-.6zm4.4.1h1v6.4h-1zm.5-2.4c-.2 0-.3.1-.4.2s-.2.3-.2.5.1.4.2.5.2.2.4.2.3-.1.4-.2.2-.3.2-.5-.1-.4-.2-.5-.3-.2-.4-.2zm4.9 2.3c-.4 0-.8 0-1.1.1s-.7.2-1 .4l.3.7c.7-.3 1.3-.5 1.8-.5s.8.1 1 .4.3.6.3 1.1v.4h-1.1c-2.1.1-3.1.7-3.1 2 0 .6.2 1.1.5 1.4s.9.5 1.5.5c.5 0 .9-.1 1.2-.2s.6-.4 1-.8l.2.9h.7v-4.4c0-.8-.2-1.3-.6-1.6s-.8-.4-1.6-.4zm1.3 3.9c0 .6-.2 1.1-.5 1.4s-.8.5-1.4.5c-.4 0-.7-.1-.9-.3s-.3-.5-.3-.8c0-.4.2-.8.5-1s.9-.3 1.7-.4h1v.6h-.1zm10-3.9c-.5 0-.9.1-1.2.3s-.6.5-.8.8c-.3-.7-1-1.1-2-1.1-.4 0-.8.1-1.1.3s-.6.4-.8.7l-.2-.9h-.8v6.4h1v-3.4c0-.8.1-1.4.4-1.8s.7-.5 1.3-.5c.5 0 .8.1 1 .4s.3.6.3 1.2v4.2h1v-3.6c0-.7.1-1.3.4-1.6s.7-.5 1.3-.5c.5 0 .8.1 1 .4s.3.6.3 1.2v4.2h1V165c0-.8-.2-1.4-.5-1.8s-.9-.7-1.6-.7zm4.1 5.1c-.1.4-.1.8-.3 1.4s-.2 1.1-.3 1.5h.7c.2-.4.4-.9.6-1.4s.3-1 .4-1.4l-.1-.1h-1zm10.5-4.1c-.5-.7-1.2-1-2.1-1-.8 0-1.5.3-2 .9s-.7 1.4-.7 2.5c0 1 .2 1.9.7 2.4s1.1.9 1.9.9c.9 0 1.6-.3 2-1h.1c0 .3-.1.6-.1 1v2.7h1v-9.3h-.8v.9zm-.1 2.5c0 .8-.2 1.4-.5 1.8s-.8.5-1.4.5-1-.2-1.3-.6-.4-1-.4-1.8.2-1.4.5-1.9.7-.7 1.3-.7c.7 0 1.1.2 1.4.6s.5 1 .5 1.9v.2h-.1zm7.4 0c0 .8-.2 1.4-.5 1.8s-.8.6-1.5.6c-.5 0-.9-.1-1.1-.4s-.4-.6-.4-1.2v-4.2h-1v4.2c0 .8.2 1.4.6 1.8s1 .6 1.8.6c.5 0 .9-.1 1.2-.3s.6-.4.8-.7h.1l.1.9h.8v-6.4h-1v3.3h.1zm3.5-5.8c-.2 0-.3.1-.4.2s-.2.3-.2.5.1.4.2.5.2.2.4.2.3-.1.4-.2.2-.3.2-.5-.1-.4-.2-.5-.2-.2-.4-.2zm-.5 2.4h1v6.4h-1zm5.3 2.7c-.6-.2-.9-.4-1.1-.5s-.3-.2-.4-.3-.1-.3-.1-.4c0-.3.1-.5.4-.6s.6-.2 1-.2c.5 0 1.1.1 1.8.4l.3-.8c-.7-.3-1.3-.4-2-.4s-1.3.2-1.8.5-.6.7-.6 1.2c0 .3.1.5.2.8s.3.4.6.6.7.4 1.3.6c.6.2 1.1.5 1.3.6s.3.4.3.6c0 .3-.1.6-.4.7s-.7.2-1.2.2c-.3 0-.7 0-1-.1s-.7-.2-1-.4v.9c.5.3 1.1.4 2 .4.8 0 1.4-.2 1.9-.5s.7-.8.7-1.4c0-.4-.1-.8-.4-1.1s-1.1-.5-1.8-.8zm9.6-2.8c-.4 0-.8.1-1.2.3s-.6.4-.8.7l-.2-.9h-.8v6.4h1v-3.4c0-.8.2-1.4.5-1.8s.8-.5 1.5-.5c.5 0 .9.1 1.1.4s.4.6.4 1.2v4.2h1v-4.2c0-.8-.2-1.4-.6-1.8s-1.1-.6-1.9-.6zm7 0c-.9 0-1.7.3-2.2.9s-.8 1.4-.8 2.4c0 .7.1 1.3.4 1.8s.6.9 1 1.2 1 .4 1.5.4c.9 0 1.7-.3 2.2-.9s.8-1.4.8-2.5c0-1-.3-1.8-.8-2.4s-1.2-.9-2.1-.9zm1.4 5.2c-.3.4-.8.6-1.5.6s-1.1-.2-1.4-.6-.5-1.1-.5-1.9c0-.8.2-1.5.5-1.9s.8-.6 1.4-.6 1.1.2 1.5.6.5 1 .5 1.9c0 .8-.2 1.4-.5 1.9zm5.4-2.4c-.6-.2-.9-.4-1.1-.5s-.3-.2-.4-.3-.1-.3-.1-.4c0-.3.1-.5.4-.6s.6-.2 1-.2c.5 0 1.1.1 1.8.4l.3-.8c-.7-.3-1.3-.4-2-.4s-1.3.2-1.8.5-.6.7-.6 1.2c0 .3.1.5.2.8s.3.4.6.6.7.4 1.3.6c.6.2 1.1.5 1.3.6s.3.4.3.6c0 .3-.1.6-.4.7s-.7.2-1.2.2c-.3 0-.7 0-1-.1s-.7-.2-1-.4v.9c.5.3 1.1.4 2 .4.8 0 1.4-.2 1.9-.5s.7-.8.7-1.4c0-.4-.1-.8-.4-1.1s-1-.5-1.8-.8zm5.6 3c-.3 0-.6-.1-.8-.3s-.3-.5-.3-.9v-3.8h1.9v-.8H489V161h-.6l-.4 1.4-.9.4v.5h.9v3.8c0 1.3.6 2 1.9 2h.6c.3 0 .4-.1.5-.1v-.7c-.1 0-.2.1-.4.1s-.3-.1-.5-.1zm4-5.5a3 3 0 00-.9 1l-.1-1.2h-.8v6.4h1v-3.4c0-.6.2-1.2.6-1.6s.8-.6 1.3-.6c.2 0 .4 0 .7.1l.1-.9c-.2 0-.5-.1-.8-.1-.4 0-.8.1-1.1.3zm7.4 3.2c0 .8-.2 1.4-.5 1.8s-.8.6-1.5.6c-.5 0-.9-.1-1.1-.4s-.4-.6-.4-1.2v-4.2h-1v4.2c0 .8.2 1.4.6 1.8s1 .6 1.8.6c.5 0 .9-.1 1.2-.3s.6-.4.8-.7h.1l.1.9h.8v-6.4h-1v3.3h.1zm7.4-3.5v1h-.1c-.5-.6-1.1-.9-2-.9-.8 0-1.5.3-2 .9s-.7 1.4-.7 2.5.2 1.9.7 2.4 1.1.9 2 .9 1.6-.3 2-1h.1l.1.9h.8v-9.1h-1v2.4h.1zm0 3.5c0 .8-.1 1.4-.4 1.7s-.8.5-1.4.5-1-.2-1.3-.6-.5-1-.5-1.9c0-.8.2-1.4.5-1.9s.7-.7 1.3-.7c.7 0 1.1.2 1.5.6s.5 1 .5 1.9v.4h-.2zm6.7 1.6c-.2 0-.4.1-.5.2s-.2.3-.2.6.1.5.2.6.3.2.5.2.4-.1.5-.2.2-.3.2-.6-.1-.5-.2-.6-.3-.2-.5-.2zm3.1 0c-.2 0-.4.1-.5.2s-.2.3-.2.6.1.5.2.6.3.2.5.2.4-.1.5-.2.2-.3.2-.6-.1-.5-.2-.6-.3-.2-.5-.2zm3.1 0c-.2 0-.4.1-.5.2s-.2.3-.2.6.1.5.2.6.3.2.5.2.4-.1.5-.2.2-.3.2-.6-.1-.5-.2-.6-.3-.2-.5-.2zM181.1 119v-7.9h.9v7h3.5v.8h-4.4v.1zm10.6-2.9c0 1-.2 1.7-.7 2.2s-1.2.8-2 .8c-.5 0-1-.1-1.4-.4-.4-.2-.7-.6-.9-1.1s-.3-1-.3-1.6c0-1 .2-1.7.7-2.2s1.1-.8 2-.8c.8 0 1.5.3 2 .8.4.6.6 1.3.6 2.3zm-4.4 0c0 .8.2 1.3.5 1.7.3.4.7.6 1.3.6s1-.2 1.3-.6.5-1 .5-1.7-.2-1.3-.5-1.7c-.3-.4-.7-.6-1.3-.6s-1 .2-1.3.6-.5.9-.5 1.7zm8.7-3.1c.3 0 .5 0 .7.1l-.1.8c-.2-.1-.5-.1-.6-.1-.5 0-.9.2-1.2.6s-.5.9-.5 1.4v3.2h-.9v-5.9h.7l.1 1.1c.2-.4.5-.7.8-.9s.6-.3 1-.3zm4.3 6.1c-.9 0-1.6-.3-2.1-.8s-.8-1.3-.8-2.2c0-.9.2-1.7.7-2.3.5-.6 1.1-.8 1.9-.8.7 0 1.3.2 1.8.7s.6 1.1.6 1.9v.6h-4.1c0 .7.2 1.2.5 1.6s.8.5 1.4.5c.6 0 1.3-.1 1.9-.4v.8l-.9.3c-.2.1-.5.1-.9.1zm-.3-5.3c-.5 0-.8.2-1.1.5s-.4.7-.5 1.3h3.1c0-.6-.1-1-.4-1.3s-.6-.5-1.1-.5zm11.5 5.2v-3.8c0-.5-.1-.8-.3-1.1s-.5-.4-.9-.4c-.6 0-1 .2-1.2.5s-.4.8-.4 1.5v3.3h-.9v-3.8c0-.5-.1-.8-.3-1.1s-.5-.4-.9-.4c-.6 0-1 .2-1.2.5-.3.3-.4.9-.4 1.6v3.1h-1V113h.7l.1.8c.2-.3.4-.5.7-.7s.6-.2 1-.2c.9 0 1.5.3 1.8 1 .2-.3.4-.6.8-.7s.7-.3 1.1-.3c.7 0 1.2.2 1.5.5s.5.9.5 1.6v3.8h-.7v.2zm5.7 0v-7.9h.9v7.9h-.9zm5.7.1c-.4 0-.7-.1-1-.2s-.6-.4-.8-.7h-.1c0 .3.1.7.1 1v2.4h-.9v-8.5h.7l.1.8c.2-.3.5-.6.8-.7s.7-.2 1-.2c.8 0 1.4.3 1.8.8.4.5.6 1.3.6 2.2 0 1-.2 1.7-.6 2.3-.4.5-1 .8-1.7.8zm-.2-5.3c-.6 0-1 .2-1.3.5s-.4.9-.4 1.6v.2c0 .8.1 1.4.4 1.8s.7.5 1.3.5c.5 0 .9-.2 1.2-.6s.4-1 .4-1.7-.1-1.3-.4-1.7c-.2-.4-.7-.6-1.2-.6zm8 3.6c0 .5-.2 1-.6 1.3-.4.3-1 .4-1.7.4-.8 0-1.4-.1-1.8-.4v-.8c.3.1.6.3.9.3.3.1.6.1.9.1.5 0 .8-.1 1.1-.2s.4-.4.4-.7c0-.2-.1-.4-.3-.6s-.6-.4-1.2-.6c-.5-.2-.9-.4-1.2-.5-.2-.2-.4-.3-.5-.5s-.2-.4-.2-.7c0-.5.2-.9.6-1.1s.9-.4 1.6-.4c.6 0 1.3.1 1.9.4l-.3.7c-.6-.2-1.1-.4-1.6-.4-.4 0-.7.1-1 .2s-.3.3-.3.5 0 .3.1.4.2.2.4.3.5.2 1 .4c.7.3 1.2.5 1.4.8.2.4.4.7.4 1.1zm2.2-4.3v3.8c0 .5.1.8.3 1.1s.6.4 1 .4c.6 0 1.1-.2 1.4-.5.3-.3.4-.9.4-1.6v-3.1h.9v5.9h-.7l-.1-.8c-.2.3-.4.5-.8.7-.3.2-.7.2-1.1.2-.7 0-1.3-.2-1.6-.5-.4-.3-.5-.9-.5-1.6v-3.9h.8v-.1zm13.5 5.9v-3.8c0-.5-.1-.8-.3-1.1s-.5-.4-.9-.4c-.6 0-1 .2-1.2.5s-.4.8-.4 1.5v3.3h-.9v-3.8c0-.5-.1-.8-.3-1.1s-.5-.4-.9-.4c-.6 0-1 .2-1.2.5-.3.3-.4.9-.4 1.6v3.1h-.9V113h.7l.1.8c.2-.3.4-.5.7-.7s.6-.2 1-.2c.9 0 1.5.3 1.8 1 .2-.3.4-.6.8-.7s.7-.3 1.1-.3c.7 0 1.2.2 1.5.5s.5.9.5 1.6v3.8h-.8v.2z" fill="#A9A9B2"/><path fill="#A9A9B2" fill-rule="evenodd" d="M110 105h52c5.5 0 10 4.5 10 10s-4.5 10-10 10h-52c-5.5 0-10-4.5-10-10s4.5-10 10-10z" clip-rule="evenodd" opacity=".2"/><path fill="#A9A9B2" d="M162 125h-52c-5.5 0-10-4.5-10-10s4.5-10 10-10h52c5.5 0 10 4.5 10 10s-4.5 10-10 10zm-52-19c-5 0-9 4-9 9s4 9 9 9h52c5 0 9-4 9-9s-4-9-9-9h-52z" opacity=".4"/><path d="M115.3 114.2l-.4 1.8h1.5v.7h-1.6l-.5 2.3h-.7l.5-2.3h-1.6l-.5 2.3h-.7l.4-2.3h-1.4v-.7h1.5l.4-1.8h-1.5v-.7h1.6l.4-2.3h.7l-.4 2.3h1.6l.5-2.3h.7l-.5 2.3h1.4v.7h-1.4zm-2.7 1.8h1.6l.4-1.8H113l-.4 1.8zm10.2-.9c0 1.4-.2 2.4-.6 3-.4.7-1.1 1-2 1-.8 0-1.5-.3-1.9-1s-.7-1.7-.7-3c0-1.4.2-2.4.6-3s1.1-1 1.9-1c.9 0 1.5.3 1.9 1 .6.7.8 1.7.8 3zm-4.2 0c0 1.1.1 2 .4 2.5s.7.8 1.3.8c.6 0 1-.3 1.3-.8s.4-1.4.4-2.5-.1-2-.4-2.5-.7-.8-1.3-.8c-.6 0-1 .3-1.3.8s-.4 1.3-.4 2.5zm10.5 0c0 1.4-.2 2.4-.6 3-.4.7-1.1 1-2 1-.8 0-1.5-.3-1.9-1s-.7-1.7-.7-3c0-1.4.2-2.4.6-3s1.1-1 1.9-1c.9 0 1.5.3 1.9 1 .6.7.8 1.7.8 3zm-4.3 0c0 1.1.1 2 .4 2.5s.7.8 1.3.8c.6 0 1-.3 1.3-.8.3-.5.4-1.4.4-2.5s-.1-2-.4-2.5c-.3-.5-.7-.8-1.3-.8-.6 0-1 .3-1.3.8s-.4 1.3-.4 2.5zm10.6 0c0 1.4-.2 2.4-.6 3-.4.7-1.1 1-2 1-.8 0-1.5-.3-1.9-1s-.7-1.7-.7-3c0-1.4.2-2.4.6-3s1.1-1 1.9-1c.9 0 1.5.3 1.9 1 .6.7.8 1.7.8 3zm-4.3 0c0 1.1.1 2 .4 2.5.3.5.7.8 1.3.8s1-.3 1.3-.8.4-1.4.4-2.5-.1-2-.4-2.5c-.3-.5-.7-.8-1.3-.8s-1 .3-1.3.8-.4 1.3-.4 2.5zm10.6 0c0 1.4-.2 2.4-.6 3-.4.7-1.1 1-2 1-.8 0-1.5-.3-1.9-1s-.7-1.7-.7-3c0-1.4.2-2.4.6-3s1.1-1 1.9-1c.9 0 1.5.3 1.9 1 .6.7.8 1.7.8 3zm-4.3 0c0 1.1.1 2 .4 2.5.3.5.7.8 1.3.8s1-.3 1.3-.8.4-1.4.4-2.5-.1-2-.4-2.5c-.3-.5-.7-.8-1.3-.8s-1 .3-1.3.8-.4 1.3-.4 2.5zm10.6 0c0 1.4-.2 2.4-.6 3-.4.7-1.1 1-2 1-.8 0-1.5-.3-1.9-1s-.7-1.7-.7-3c0-1.4.2-2.4.6-3s1.1-1 1.9-1c.9 0 1.5.3 1.9 1 .6.7.8 1.7.8 3zm-4.3 0c0 1.1.1 2 .4 2.5.3.5.7.8 1.3.8s1-.3 1.3-.8.4-1.4.4-2.5-.1-2-.4-2.5c-.3-.5-.7-.8-1.3-.8s-1 .3-1.3.8-.4 1.3-.4 2.5zm10.6 0c0 1.4-.2 2.4-.6 3-.4.7-1.1 1-2 1-.8 0-1.5-.3-1.9-1s-.7-1.7-.7-3c0-1.4.2-2.4.6-3s1.1-1 1.9-1c.9 0 1.5.3 1.9 1 .6.7.8 1.7.8 3zm-4.3 0c0 1.1.1 2 .4 2.5.3.5.7.8 1.3.8s1-.3 1.3-.8.4-1.4.4-2.5-.1-2-.4-2.5c-.3-.5-.7-.8-1.3-.8s-1 .3-1.3.8-.4 1.3-.4 2.5zm10.6 0c0 1.4-.2 2.4-.6 3-.4.7-1.1 1-2 1-.8 0-1.5-.3-1.9-1s-.7-1.7-.7-3c0-1.4.2-2.4.6-3s1.1-1 1.9-1c.9 0 1.5.3 1.9 1 .6.7.8 1.7.8 3zm-4.3 0c0 1.1.1 2 .4 2.5.3.5.7.8 1.3.8s1-.3 1.3-.8.4-1.4.4-2.5-.1-2-.4-2.5c-.3-.5-.7-.8-1.3-.8s-1 .3-1.3.8-.4 1.3-.4 2.5z" fill="#A9A9B2"/><circle cx="78" cy="91.1" r="6" fill="#00C0FF" fill-rule="evenodd" clip-rule="evenodd"/><path fill="#FFF" d="M78 97.6c-3.6 0-6.5-2.9-6.5-6.5s2.9-6.5 6.5-6.5 6.5 2.9 6.5 6.5-2.9 6.5-6.5 6.5zm0-12c-3 0-5.5 2.5-5.5 5.5s2.5 5.5 5.5 5.5 5.5-2.5 5.5-5.5-2.5-5.5-5.5-5.5z"/><path fill="#FFF" fill-rule="evenodd" d="M81.4 88.7c-.4.2-.7.2-.7.2.6-.5.5-.7.5-.7-.4.3-.8.3-.8.3s-.7-.8-1.6-.3-.7 1.5-.7 1.5c-1.9-.1-2.8-1.4-2.8-1.4-.5 1.1.4 1.7.4 1.7-.3.1-.5-.1-.5-.1.1 1 1.1 1.3 1.1 1.3-.3.1-.6.1-.6.1.4.9 1.2.9 1.2.9-.7.7-1.9.6-1.9.6.3.3 2.8 1.2 4.4-.3s1.4-3.1 1.4-3.1c.5-.3.6-.7.6-.7z" clip-rule="evenodd"/><path d="M125.1 192.9h.9l-2.6 7.1h-.8l-2.6-7.1h.9l1.6 4.6c.2.5.3 1 .4 1.5.1-.5.3-1.1.5-1.6l1.7-4.5zm5 7.1l-.2-.8c-.3.3-.5.6-.8.7-.3.1-.6.2-1 .2-.5 0-.9-.1-1.2-.4s-.5-.7-.5-1.2c0-1.1.9-1.6 2.6-1.7h.9v-.3c0-.4-.1-.7-.3-.9s-.5-.3-.9-.3-1 .1-1.5.4l-.2-.7c.3-.1.6-.3.9-.3.3 0 .6-.1.9-.1.6 0 1.1.1 1.4.4s.5.7.5 1.4v3.7h-.6v-.1zm-1.8-.6c.5 0 .9-.1 1.2-.4s.4-.7.4-1.2v-.5h-.8c-.6 0-1.1.1-1.4.3s-.4.5-.4.8.1.5.3.7.4.3.7.3zm4.9.6h-.8v-7.6h.8v7.6zm2.5-5.4v3.5c0 .4.1.8.3 1s.5.3.9.3c.6 0 1-.2 1.2-.5s.4-.8.4-1.5v-2.8h.8v5.4h-.7l-.1-.7c-.2.3-.4.5-.7.6s-.6.2-1 .2c-.7 0-1.1-.2-1.5-.5s-.5-.8-.5-1.5v-3.5h.9zm7.6 5.5c-.8 0-1.4-.2-1.9-.7s-.7-1.2-.7-2c0-.9.2-1.5.6-2.1s1-.8 1.7-.8 1.2.2 1.6.7c.4.4.6 1 .6 1.7v.5h-3.7c0 .6.2 1.1.5 1.4s.7.5 1.3.5 1.1-.1 1.7-.4v.7c-.3.1-.6.2-.8.3-.2.2-.5.2-.9.2zm-.2-4.9c-.4 0-.8.1-1 .4s-.4.7-.5 1.2h2.8c0-.5-.1-.9-.3-1.2-.3-.2-.6-.4-1-.4zm8.8 4.8h-.8v-6.3l-.2.2c-.1.1-.5.4-1.2 1l-.4-.6 1.9-1.5h.7v7.2zm55.2-7.1h.9l-2.6 7.1h-.8l-2.6-7.1h.9l1.6 4.6c.2.5.3 1 .4 1.5.1-.5.3-1.1.5-1.6l1.7-4.5zm5 7.1l-.2-.8c-.3.3-.5.6-.8.7-.3.1-.6.2-1 .2-.5 0-.9-.1-1.2-.4s-.5-.7-.5-1.2c0-1.1.9-1.6 2.6-1.7h.9v-.3c0-.4-.1-.7-.3-.9s-.5-.3-.9-.3-1 .1-1.5.4l-.2-.7c.3-.1.6-.3.9-.3s.6-.1.9-.1c.6 0 1.1.1 1.4.4s.5.7.5 1.4v3.7h-.6v-.1zm-1.8-.6c.5 0 .9-.1 1.2-.4s.4-.7.4-1.2v-.5h-.8c-.6 0-1.1.1-1.4.3-.3.2-.4.5-.4.8s.1.5.3.7.4.3.7.3zm4.9.6h-.8v-7.6h.8v7.6zm2.5-5.3v3.5c0 .4.1.8.3 1s.5.3.9.3c.6 0 1-.2 1.2-.5s.4-.8.4-1.5v-2.8h.8v5.4h-.7l-.1-.7c-.2.3-.4.5-.7.6s-.6.2-1 .2c-.7 0-1.1-.2-1.5-.5s-.5-.8-.5-1.5v-3.5h.9zm7.6 5.4c-.8 0-1.4-.2-1.9-.7s-.7-1.2-.7-2c0-.9.2-1.5.6-2.1s1-.8 1.7-.8 1.2.2 1.6.7c.4.4.6 1 .6 1.7v.5h-3.7c0 .6.2 1.1.5 1.4s.7.5 1.3.5 1.1-.1 1.7-.4v.7c-.3.1-.6.2-.8.3-.2.2-.5.2-.9.2zm-.2-4.9c-.4 0-.8.1-1 .4s-.4.7-.5 1.2h2.8c0-.5-.1-.9-.3-1.2-.3-.2-.6-.4-1-.4zm10.5 4.8h-4.7v-.7l1.9-1.9c.6-.6 1-1 1.1-1.2s.3-.5.4-.7.1-.5.1-.8c0-.4-.1-.7-.3-.9s-.6-.3-1-.3c-.3 0-.6 0-.8.1s-.6.3-.9.5l-.4-.6c.7-.5 1.4-.8 2.1-.8.7 0 1.2.2 1.6.5.4.3.6.8.6 1.4 0 .5-.1.9-.4 1.3s-.7 1-1.4 1.7l-1.6 1.5h3.7v.9zm53.5-7.1h.9l-2.6 7.1h-.8l-2.6-7.1h.9l1.6 4.6c.2.5.3 1 .4 1.5.1-.5.3-1.1.5-1.6l1.7-4.5zm5 7.1l-.2-.8c-.3.3-.5.6-.8.7-.3.1-.6.2-1 .2-.5 0-.9-.1-1.2-.4s-.5-.7-.5-1.2c0-1.1.9-1.6 2.6-1.7h.9v-.3c0-.4-.1-.7-.3-.9-.2-.2-.5-.3-.9-.3s-1 .1-1.5.4l-.2-.7c.3-.1.6-.3.9-.3s.6-.1.9-.1c.6 0 1.1.1 1.4.4s.5.7.5 1.4v3.7h-.6v-.1zm-1.8-.6c.5 0 .9-.1 1.2-.4s.4-.7.4-1.2v-.5h-.8c-.6 0-1.1.1-1.4.3s-.4.5-.4.8.1.5.3.7.4.3.7.3zm4.9.6h-.8v-7.6h.8v7.6zm2.5-5.3v3.5c0 .4.1.8.3 1s.5.3.9.3c.6 0 1-.2 1.2-.5s.4-.8.4-1.5v-2.8h.8v5.4h-.7l-.1-.7c-.2.3-.4.5-.7.6s-.6.2-1 .2c-.7 0-1.1-.2-1.5-.5s-.5-.8-.5-1.5v-3.5h.9zm7.6 5.4c-.8 0-1.4-.2-1.9-.7s-.7-1.2-.7-2c0-.9.2-1.5.6-2.1s1-.8 1.7-.8 1.2.2 1.6.7c.4.4.6 1 .6 1.7v.5h-3.7c0 .6.2 1.1.5 1.4s.7.5 1.3.5c.6 0 1.1-.1 1.7-.4v.7c-.3.1-.6.2-.8.3-.2.2-.5.2-.9.2zm-.2-4.9c-.4 0-.8.1-1 .4s-.4.7-.5 1.2h2.8c0-.5-.1-.9-.3-1.2-.3-.2-.6-.4-1-.4zm10.2-.6c0 .5-.1.8-.4 1.1s-.6.5-1.1.6c.6.1 1 .3 1.3.5s.4.7.4 1.2c0 .7-.2 1.2-.7 1.6-.5.4-1.1.5-2 .5-.4 0-.7 0-1-.1l-.9-.3v-.7c.3.2.6.3 1 .3.4.1.7.1 1 .1 1.2 0 1.9-.5 1.9-1.5 0-.9-.7-1.3-2-1.3h-.7v-.6h.7c.6 0 1-.1 1.3-.4.3-.2.5-.6.5-1 0-.3-.1-.6-.4-.8s-.6-.3-1-.3c-.3 0-.6 0-.9.1s-.6.2-.9.5l-.4-.5c.3-.2.6-.4 1-.5s.8-.2 1.2-.2c.7 0 1.2.2 1.6.5.3.2.5.6.5 1.2zm53.8-1.7h.9l-2.6 7.1h-.8l-2.6-7.1h.9l1.6 4.6c.2.5.3 1 .4 1.5.1-.5.3-1.1.5-1.6l1.7-4.5zm5 7.1l-.2-.8c-.3.3-.5.6-.8.7-.3.1-.6.2-1 .2-.5 0-.9-.1-1.2-.4-.3-.3-.5-.7-.5-1.2 0-1.1.9-1.6 2.6-1.7h.9v-.3c0-.4-.1-.7-.3-.9-.2-.2-.5-.3-.9-.3s-1 .1-1.5.4l-.2-.7c.3-.1.6-.3.9-.3.3-.1.6-.1.9-.1.6 0 1.1.1 1.4.4.3.3.5.7.5 1.4v3.7h-.6v-.1zm-1.8-.6c.5 0 .9-.1 1.2-.4.3-.3.4-.7.4-1.2v-.5h-.8c-.6 0-1.1.1-1.4.3s-.4.5-.4.8.1.5.3.7c.1.3.4.3.7.3zm4.9.6h-.8v-7.6h.8v7.6zm2.5-5.3v3.5c0 .4.1.8.3 1s.5.3.9.3c.6 0 1-.2 1.2-.5.3-.3.4-.8.4-1.5v-2.8h.8v5.4h-.7l-.1-.7c-.2.3-.4.5-.7.6-.3.1-.6.2-1 .2-.7 0-1.1-.2-1.5-.5-.3-.3-.5-.8-.5-1.5v-3.5h.9zm7.6 5.4c-.8 0-1.4-.2-1.9-.7s-.7-1.2-.7-2c0-.9.2-1.5.6-2.1.4-.5 1-.8 1.7-.8s1.2.2 1.6.7c.4.4.6 1 .6 1.7v.5h-3.7c0 .6.2 1.1.5 1.4.3.3.7.5 1.3.5.6 0 1.1-.1 1.7-.4v.7c-.3.1-.6.2-.8.3-.2.2-.5.2-.9.2zm-.2-4.9c-.4 0-.8.1-1 .4-.3.3-.4.7-.5 1.2h2.8c0-.5-.1-.9-.3-1.2-.3-.2-.6-.4-1-.4zm10.8 3.2h-1.1v1.6h-.8v-1.6h-3.5v-.7l3.4-4.8h.9v4.8h1.1v.7zm-1.8-.8v-4c-.2.3-.3.6-.4.8l-2.2 3.2h2.6zm-274 16.3h.9l-2.6 7.1h-.8l-2.6-7.1h.9l1.6 4.6c.2.5.3 1 .4 1.5.1-.5.3-1.1.5-1.6l1.7-4.5zm5 7.1l-.2-.8c-.3.3-.5.6-.8.7-.3.1-.6.2-1 .2-.5 0-.9-.1-1.2-.4s-.5-.7-.5-1.2c0-1.1.9-1.6 2.6-1.7h.9v-.3c0-.4-.1-.7-.3-.9s-.5-.3-.9-.3-1 .1-1.5.4l-.2-.7c.3-.1.6-.3.9-.3s.6-.1.9-.1c.6 0 1.1.1 1.4.4s.5.7.5 1.4v3.7h-.6v-.1zm-1.8-.6c.5 0 .9-.1 1.2-.4s.4-.7.4-1.2v-.5h-.8c-.6 0-1.1.1-1.4.3s-.4.5-.4.8.1.5.3.7.4.3.7.3zm4.9.6h-.8v-7.6h.8v7.6zm2.5-5.3v3.5c0 .4.1.8.3 1s.5.3.9.3c.6 0 1-.2 1.2-.5s.4-.8.4-1.5v-2.8h.8v5.4h-.7l-.1-.7c-.2.3-.4.5-.7.6s-.6.2-1 .2c-.7 0-1.1-.2-1.5-.5s-.5-.8-.5-1.5v-3.5h.9zm7.6 5.4c-.8 0-1.4-.2-1.9-.7s-.7-1.2-.7-2c0-.9.2-1.5.6-2.1s1-.8 1.7-.8 1.2.2 1.6.7c.4.4.6 1 .6 1.7v.5h-3.7c0 .6.2 1.1.5 1.4s.7.5 1.3.5 1.1-.1 1.7-.4v.7c-.3.1-.6.2-.8.3-.2.2-.5.2-.9.2zm-.2-4.9c-.4 0-.8.1-1 .4s-.4.7-.5 1.2h2.8c0-.5-.1-.9-.3-1.2-.3-.2-.6-.4-1-.4zm11 4.8h-.9l-1.9-3.1-2 3.1h-.9l2.4-3.7-2.2-3.4h.9l1.8 2.8 1.8-2.8h.9l-2.2 3.4 2.3 3.7zm2.8-4.3c.8 0 1.3.2 1.8.6.4.4.6.9.6 1.5 0 .7-.2 1.3-.7 1.7s-1.1.6-1.9.6c-.8 0-1.4-.1-1.8-.4v-.7c.2.1.5.3.8.3.3.1.7.1 1 .1.6 0 1-.1 1.3-.4s.5-.7.5-1.2c0-1-.6-1.5-1.8-1.5-.3 0-.7 0-1.2.1l-.4-.3.3-3.3h3.5v.7H155l-.2 2.1c.3.1.7.1 1.1.1zm-31.8 19.2h.9l-2.6 7.1h-.8l-2.6-7.1h.9l1.6 4.6c.2.5.3 1 .4 1.5.1-.5.3-1.1.5-1.6l1.7-4.5zm5 7.1l-.2-.8c-.3.3-.5.6-.8.7-.3.1-.6.2-1 .2-.5 0-.9-.1-1.2-.4s-.5-.7-.5-1.2c0-1.1.9-1.6 2.6-1.7h.9v-.3c0-.4-.1-.7-.3-.9s-.5-.3-.9-.3-1 .1-1.5.4l-.2-.7c.3-.1.6-.3.9-.3s.6-.1.9-.1c.6 0 1.1.1 1.4.4s.5.7.5 1.4v3.7h-.6v-.1zm-1.8-.6c.5 0 .9-.1 1.2-.4s.4-.7.4-1.2v-.5h-.8c-.6 0-1.1.1-1.4.3s-.4.5-.4.8.1.5.3.7.4.3.7.3zm4.9.6h-.8v-7.6h.8v7.6zm2.5-5.3v3.5c0 .4.1.8.3 1s.5.3.9.3c.6 0 1-.2 1.2-.5s.4-.8.4-1.5v-2.8h.8v5.4h-.7l-.1-.7c-.2.3-.4.5-.7.6s-.6.2-1 .2c-.7 0-1.1-.2-1.5-.5s-.5-.8-.5-1.5v-3.5h.9zm7.6 5.4c-.8 0-1.4-.2-1.9-.7s-.7-1.2-.7-2c0-.9.2-1.5.6-2.1s1-.8 1.7-.8 1.2.2 1.6.7c.4.4.6 1 .6 1.7v.5h-3.7c0 .6.2 1.1.5 1.4s.7.5 1.3.5 1.1-.1 1.7-.4v.7c-.3.1-.6.2-.8.3-.2.2-.5.2-.9.2zm-.2-4.9c-.4 0-.8.1-1 .4s-.4.7-.5 1.2h2.8c0-.5-.1-.9-.3-1.2-.3-.2-.6-.4-1-.4zm11 4.8h-.9l-1.9-3.1-2 3.1h-.9l2.4-3.7-2.2-3.4h.9l1.8 2.8 1.8-2.8h.9l-2.2 3.4 2.3 3.7zm2.8-4.3c.8 0 1.3.2 1.8.6.4.4.6.9.6 1.5 0 .7-.2 1.3-.7 1.7s-1.1.6-1.9.6c-.8 0-1.4-.1-1.8-.4v-.7c.2.1.5.3.8.3.3.1.7.1 1 .1.6 0 1-.1 1.3-.4s.5-.7.5-1.2c0-1-.6-1.5-1.8-1.5-.3 0-.7 0-1.2.1l-.4-.3.3-3.3h3.5v.7H155l-.2 2.1c.3.1.7.1 1.1.1z" fill="#A9A9B2"/><g fill="#A9A9B2" fill-rule="evenodd" clip-rule="evenodd" opacity=".4"><circle cx="106" cy="195" r="6"/><circle cx="189" cy="195.8" r="6"/><circle cx="271" cy="195.8" r="6"/><circle cx="353" cy="195.8" r="6"/><circle cx="106" cy="216.8" r="6"/><circle cx="106" cy="238.8" r="6"/></g></svg>