<svg data-tags="illustration,new success,win" xmlns="http://www.w3.org/2000/svg" viewBox="0 0 40 40"><path d="M36.377 35.551a.645.645 0 00-.06-.145l-3.82-6.174a14.53 14.53 0 005.38-11.5A17.892 17.892 0 0021.817.277a15.244 15.244 0 00-6.82.934 14.287 14.287 0 00-8.25 5.078 14.836 14.836 0 00-3.2 9.29 17.438 17.438 0 004.91 11.94l-4.24 6.118a.892.892 0 00-.15.737v.02a1.093 1.093 0 00.14.342l.05.055a1.19 1.19 0 00.21.228l.03.033a1.241 1.241 0 00.16.084.494.494 0 00.07.046 1.186 1.186 0 00.32.078.82.82 0 00.27-.016l3.82-.536.89 3.478a.873.873 0 00.04.093c.02.042.03.073.05.114a1.551 1.551 0 00.13.212l.09.098a.617.617 0 00.09.078l.03.032a1.04 1.04 0 00.1.059c.03.013.06.035.09.048.01.01.03.012.04.023a1.173 1.173 0 00.31.077l2 .175a.998.998 0 00.35-.039.61.61 0 01.07-.014.9.9 0 00.27-.166.155.155 0 00.04-.047.333.333 0 00.1-.11l4.2-6.003c.52.095 1.04.18 1.57.227a15.915 15.915 0 003.41-.082l4.34 7.04a1.145 1.145 0 00.23.25c0 .01.01.011.02.022a1.063 1.063 0 00.59.251 1.025 1.025 0 00.31-.022c.03-.008.05-.026.08-.033a1.025 1.025 0 00.16-.056c.01-.01.01-.02.02-.029a.854.854 0 00.4-.525l.9-3.321 3.82 1.204a.843.843 0 00.27.064.765.765 0 00.3-.024.327.327 0 00.09-.032.63.63 0 00.15-.057c.02-.008.02-.018.03-.027.02-.009.03-.008.05-.016l1.33-.934a.924.924 0 00.1-.11.536.536 0 00.13-.14 1.11 1.11 0 00.07-.163.646.646 0 00.06-.185.544.544 0 000-.18 1.357 1.357 0 00-.01-.201 1.456 1.456 0 00-.07-.186zm-24.99.074l-.57-2.21a.852.852 0 00-.07-.166 1.801 1.801 0 00-.09-.198c-.04-.044-.09-.078-.13-.122a.797.797 0 00-.16-.154.384.384 0 00-.13-.06.768.768 0 00-.23-.101.98.98 0 00-.17-.015.759.759 0 00-.21-.008l-2.39.33 2.75-3.959a17.637 17.637 0 004.19 2.637zm4.6-5.378a15.167 15.167 0 01-5.59-3.459 15.366 15.366 0 01-4.85-11.034 12.688 12.688 0 019.88-12.556l.15-.027a13.845 13.845 0 014.02-.228 15.644 15.644 0 0114.04 15.268 13.043 13.043 0 01-3.76 9.231 10.558 10.558 0 01-1.09.955l-.01.02a12.173 12.173 0 01-3.09 1.769 11.534 11.534 0 01-2.49.692 14.145 14.145 0 01-7.21-.63zm13.57 4.087a.833.833 0 00-.22-.029.764.764 0 00-.15-.013.978.978 0 00-.25.058c-.03.017-.08.013-.11.04a.745.745 0 00-.18.135.868.868 0 00-.11.09 1.47 1.47 0 00-.09.182.72.72 0 00-.08.153l-.57 2.11-2.78-4.493a11.963 11.963 0 001.45-.473 14.637 14.637 0 003.01-.997l2.47 3.986z"/><path d="M16.053 15.204l-2.996-.262a.28.28 0 00-.292.304v7.05a.351.351 0 00.292.356l2.996.262a.28.28 0 00.293-.305v-7.05a.338.338 0 00-.293-.355zm11.139 1.175a2.658 2.658 0 00-1.98-1.013 9.04 9.04 0 00-.72-.093c-.33-.03-.67-.04-1.03-.05 0-.07 0-.17.01-.3.09-1.022.21-1.801.3-2.424l.04-.206a1.849 1.849 0 00-1.68-2.057 1.569 1.569 0 00-1.64.896l-.14.378c-.37.968-1.24 3.222-2.59 3.914l-.15.066v7.26l.22.08a28.014 28.014 0 005.85 1.492c1.01.088 2.53.22 2.94-1.563.28-1.266.66-3.132.89-4.322a2.42 2.42 0 00-.32-2.058z"/></svg>