<svg xmlns="http://www.w3.org/2000/svg" xmlns:xlink="http://www.w3.org/1999/xlink" viewBox="0 0 212 136"><defs><linearGradient id="placeholder_summaryReport__a" x1="186.1" x2="154.01" y1="110.82" y2="110.82" gradientTransform="matrix(1 0 0 -1 0 136.11)" gradientUnits="userSpaceOnUse"><stop offset="0" stop-color="#f7f7fc"/><stop offset="1" stop-color="#ebebef"/></linearGradient><linearGradient id="placeholder_summaryReport__b" x1="186.1" x2="154.01" y1="82.48" y2="82.48"><stop offset="0" stop-color="#f7f7fc"/><stop offset="1" stop-color="#ebebef"/></linearGradient><linearGradient id="placeholder_summaryReport__c" x1="186.1" x2="154.01" y1="53.9" y2="53.9"><stop offset="0" stop-color="#f7f7fc"/><stop offset="1" stop-color="#ebebef"/></linearGradient><linearGradient id="placeholder_summaryReport__d" x1="186.1" x2="154.01" y1="25.32" y2="25.32"><stop offset="0" stop-color="#f7f7fc"/><stop offset="1" stop-color="#ebebef"/></linearGradient></defs><path fill="#fff" d="M8.22.5h195.56a7.45 7.45 0 017.45 7.44v120.12a7.44 7.44 0 01-7.45 7.44H8.22a7.44 7.44 0 01-7.45-7.44V7.94A7.45 7.45 0 018.22.5z"/><rect width="117.45" height="15.92" x="22.56" y="17.1" fill="#ac56ae" rx="1.99"/><rect width="39.37" height="15.44" x="153.36" y="17.57" fill="url(#placeholder_summaryReport__a)" rx="1.99"/><rect width="96.63" height="15.92" x="22.56" y="45.68" fill="#5cc8c3" rx="1.99"/><rect width="39.37" height="15.44" x="153.36" y="45.91" fill="url(#placeholder_summaryReport__b)" rx="1.99"/><path fill="#fb8f53" d="M24.55 74.25h63.07a1.99 1.99 0 012 2v11.93a1.99 1.99 0 01-2 1.99H24.55a1.99 1.99 0 01-2-1.99V76.24a1.99 1.99 0 012-1.99z"/><rect width="39.37" height="15.44" x="153.36" y="74.49" fill="url(#placeholder_summaryReport__c)" rx="1.99"/><path fill="#ffd04f" d="M24.55 102.83H61.5a1.99 1.99 0 012 2v11.93a1.99 1.99 0 01-2 1.99H24.55a1.99 1.99 0 01-2-1.99v-11.94a1.99 1.99 0 012-1.99z"/><rect width="39.37" height="15.44" x="153.36" y="103.07" fill="url(#placeholder_summaryReport__d)" rx="1.99"/><path fill="#eee" d="M203.78 136H8.22a7.95 7.95 0 01-7.94-7.94V7.94A7.95 7.95 0 018.22 0h195.56a7.95 7.95 0 017.94 7.94v120.12a7.95 7.95 0 01-7.94 7.94zM8.22 1a6.96 6.96 0 00-6.95 6.94v120.12A6.96 6.96 0 008.22 135h195.56a6.96 6.96 0 006.95-6.95V7.94A6.96 6.96 0 00203.78 1z"/></svg>
