<svg data-tags="Supervisor, Modern Care, Care, launchpad" xmlns="http://www.w3.org/2000/svg" viewBox="0 0 50 49.438"><path d="M22.892 14.29c1.306 0 1.578-1.743 1.578-1.743a39.854 39.854 0 0 0 .517-4.4c.127-2.14-2.948-1.768-4.055-1.55a3.193 3.193 0 0 0-1.787 1.06 30.372 30.372 0 0 0-2.912 12.093 19.898 19.898 0 0 0 2.713 11.367 2.865 2.865 0 0 0 1.623 1.497 23.511 23.511 0 0 0 3.393-.218 1.762 1.762 0 0 0 1.143-1.47c.027-.045-.617-3.229-.816-4.281a1.96 1.96 0 0 0-.953-1.425s-2.177-.562-2.603-.716c-.418-.145-.472-.943-.472-.943s-.127-7.33.018-8.074c.127-.744 1.742-1.18 2.613-1.198ZM32.969 22.91a.809.809 0 0 0 .798.816.838.838 0 0 0 .58-.236l3.402-3.402a.885.885 0 0 0 .027-1.17l-3.401-3.402a.805.805 0 0 0-1.143 0 .863.863 0 0 0-.236.58v1.979H27.08a1.432 1.432 0 0 0-1.424 1.424 1.385 1.385 0 0 0 .417.997 1.44 1.44 0 0 0 .998.418l5.896.018Z"/><path d="M25.92 39.302H9.602V2.43h34.693v24.74a8.823 8.823 0 0 1 2.015.285V1.423A1.007 1.007 0 0 0 45.302.416H8.596a1.007 1.007 0 0 0-1.007 1.007v9.934h-6.58a1.007 1.007 0 0 0-.987 1.208l5.701 27.946a1.006 1.006 0 0 0 .987.805h20.104c-.091-.166-.192-.322-.276-.494a9.68 9.68 0 0 1-.617-1.52Z"/><path d="M49.392 33.504a5.672 5.672 0 0 0-10.166-.356 5.811 5.811 0 0 0-4.421-2.956 5.887 5.887 0 0 0-5.746 3.312 6.905 6.905 0 0 0 .191 5.988c2.064 4.217 6.893 6.192 9.988 9.53 3.096-3.338 7.925-5.313 9.989-9.53a6.86 6.86 0 0 0 .165-5.988ZM43.8 36.193a.943.943 0 0 1 .026 1.885.943.943 0 0 1-.026-1.885Zm-4.599-.306a1.478 1.478 0 1 1-1.452 1.478 1.479 1.479 0 0 1 1.452-1.478Zm-4.522.306a.943.943 0 0 1 .025 1.885.943.943 0 0 1-.025-1.885Zm-1.491 5.274a.365.365 0 0 1-.357-.357v-.777a1.862 1.862 0 0 1 1.873-1.847 1.842 1.842 0 0 1 1.784 1.337 3.596 3.596 0 0 0-.79 1.644Zm8.918 2.166a.302.302 0 0 1-.306.305H36.69a.31.31 0 0 1-.305-.305v-1.49c.012-.115.025-.217.038-.32a2.747 2.747 0 0 1 .459-1.26 1.988 1.988 0 0 1 .203-.255 2.914 2.914 0 0 1 4.103-.217 3.003 3.003 0 0 1 .42.471 2.61 2.61 0 0 1 .459 1.262 1.36 1.36 0 0 1 .038.318Zm3.554-2.535a.356.356 0 0 1-.356.356h-2.51a3.66 3.66 0 0 0-.79-1.643 1.846 1.846 0 0 1 1.784-1.325 1.876 1.876 0 0 1 1.872 1.834Z" fill="#a337f6"/></svg>