<svg data-tags="care, launchpad, agent persona" xmlns="http://www.w3.org/2000/svg" viewBox="0 0 50 49.44"><path d="M44.63 33.49a4.68 4.68 0 0 0-3.55 2.37 4.66 4.66 0 0 0-3.54-2.37 4.72 4.72 0 0 0-4.61 2.66 5.54 5.54 0 0 0 .15 4.8c1.66 3.39 5.53 4.97 8.01 7.65 2.49-2.68 6.36-4.26 8.02-7.65a5.5 5.5 0 0 0 .13-4.8 4.72 4.72 0 0 0-4.6-2.66Zm.12 4.82a.76.76 0 1 1 .03 1.5.76.76 0 0 1-.03-1.5Zm-3.69-.25a1.19 1.19 0 1 1-1.16 1.19 1.19 1.19 0 0 1 1.16-1.19Zm-3.63.25a.76.76 0 0 1 .03 1.5.76.76 0 0 1-.03-1.5Zm-1.2 4.23a.3.3 0 0 1-.28-.29v-.62a1.5 1.5 0 0 1 1.5-1.48 1.48 1.48 0 0 1 1.44 1.07 2.89 2.89 0 0 0-.64 1.32Zm7.17 1.74a.24.24 0 0 1-.25.24h-4.1a.25.25 0 0 1-.25-.24v-1.2l.04-.26a2.2 2.2 0 0 1 .36-1 1.59 1.59 0 0 1 .17-.21 2.34 2.34 0 0 1 3.29-.18 2.4 2.4 0 0 1 .34.38 2.1 2.1 0 0 1 .36 1.01 1.1 1.1 0 0 1 .04.26Zm2.85-2.04a.29.29 0 0 1-.29.29h-2.01a2.94 2.94 0 0 0-.64-1.32 1.48 1.48 0 0 1 1.43-1.06 1.5 1.5 0 0 1 1.5 1.47ZM19.83 19.03a34.79 34.79 0 0 0-2.26-2.86c-1.18-1.32-2.72.68-3.26 1.45a2.64 2.64 0 0 0-.42 1.65 24.75 24.75 0 0 0 5.33 8.71A16.28 16.28 0 0 0 27.38 33a2.32 2.32 0 0 0 1.8-.08 18 18 0 0 0 1.83-2.1 1.47 1.47 0 0 0-.19-1.52c.03-.02-2.2-1.5-2.92-1.98a1.55 1.55 0 0 0-1.37-.27s-1.6.93-1.93 1.1c-.33.14-.81-.3-.81-.3s-4.33-4.17-4.68-4.68.32-1.7.81-2.21c.76-.76-.1-1.93-.1-1.93Zm2.37 1.18a1.12 1.12 0 0 0 .83.34 1.14 1.14 0 0 0 .81-.34l3.43-3.42 1.14 1.14a.68.68 0 0 0 .94.02.72.72 0 0 0 .2-.48v-3.95a.68.68 0 0 0-.65-.67h-3.95a.67.67 0 0 0-.66.66.72.72 0 0 0 .2.48l1.14 1.13-3.43 3.44a1.19 1.19 0 0 0 0 1.65Zm11.4-2.58a1.16 1.16 0 0 0-.8-.34 1.14 1.14 0 0 0-.82.34l-3.43 3.42-1.14-1.14a.68.68 0 0 0-.94-.01.72.72 0 0 0-.2.47v3.95a.68.68 0 0 0 .65.68h3.95a.67.67 0 0 0 .66-.67.72.72 0 0 0-.2-.47l-1.14-1.14 3.43-3.43a1.2 1.2 0 0 0-.02-1.66Z"/><path d="M30.85 43.7H4.93V3.37h30.76a8.23 8.23 0 0 1 .97-2H3.93l-.07.01a.99.99 0 0 0-.26.06 1 1 0 0 0-.1.03.99.99 0 0 0-.26.18l-.02.02L.28 4.66a1 1 0 0 0-.29.7v42.33a1 1 0 0 0 1 1H36.1l-.24-.18a20.19 20.19 0 0 1-5-4.81Zm16.92-24.22v11.2a8.13 8.13 0 0 1 2 1.09V19.45a3.7 3.7 0 0 1-.4.03h-1.6Zm-9.79-10.3h.56a.86.86 0 0 0 .85-.87V5.97a4.05 4.05 0 0 1 3.79-4.13 3.94 3.94 0 0 1 4.03 3.84v4.14h-3.9a.56.56 0 0 0 0 1.12h3.9a1.12 1.12 0 0 0 1.12-1.11V9.1l.03-.01h.13a.85.85 0 0 0 .85-.86V6.82a.85.85 0 0 0-.85-.86h-.15a5.03 5.03 0 1 0-10.05-.22v.24h-.12a.85.85 0 0 0-.85.87v1.6a.68.68 0 0 0 .66.73Zm11.89 6.29a7.94 7.94 0 0 0-1.07-1.1 1.96 1.96 0 0 0-.35-.24 4.42 4.42 0 0 0-.49-.34 10 10 0 0 0-1.25-.66 6.25 6.25 0 0 0-.98-.3c-.14-.03-.26-.08-.4-.1a7.65 7.65 0 0 0-1.46-.16h-1.15a7.54 7.54 0 0 0-1.47.15l-.37.11a8.15 8.15 0 0 0-.99.3l-.5.23a8.27 8.27 0 0 0-.75.43 4.73 4.73 0 0 0-.47.31 3.3 3.3 0 0 0-.35.26 7.43 7.43 0 0 0-1.06 1.09.63.63 0 0 0 .5 1l12.1.03a.63.63 0 0 0 .51-1Z"/><path d="M43.3 9h3.07V5.82a3.06 3.06 0 0 0-.5-1.7 4.05 4.05 0 0 0-4.87-.3 3.4 3.4 0 0 0-.78 2.16v2.74a1.42 1.42 0 0 1-.44 1 4.2 4.2 0 0 0 2.67 1.8 1.42 1.42 0 0 1-.56-1.1A1.45 1.45 0 0 1 43.3 9Z"/></svg>