<svg data-tags="Supervisor, Modern Care, Care, launchpad" xmlns="http://www.w3.org/2000/svg" viewBox="0 0 50 49.438"><path d="M9.578 38.911V2.131h34.608V27.51a8.786 8.786 0 0 1 2.009.267V1.126A1.004 1.004 0 0 0 45.19.123H8.573A1.004 1.004 0 0 0 7.57 1.127v9.908H1.005a1.004 1.004 0 0 0-.984 1.206l5.687 27.876a1.003 1.003 0 0 0 .984.803h19.806a9.673 9.673 0 0 1-.724-2.009Z"/><path d="M49.394 33.837a5.658 5.658 0 0 0-10.141-.355 5.797 5.797 0 0 0-4.41-2.949 5.873 5.873 0 0 0-5.731 3.304 6.887 6.887 0 0 0 .19 5.973c2.059 4.207 6.875 6.176 9.963 9.506 3.088-3.33 7.905-5.3 9.964-9.506a6.842 6.842 0 0 0 .165-5.973Zm-5.58 2.682a.94.94 0 0 1 .026 1.88.94.94 0 0 1-.025-1.88Zm-4.587-.305a1.474 1.474 0 1 1-1.448 1.474 1.475 1.475 0 0 1 1.448-1.474Zm-4.511.305a.94.94 0 0 1 .025 1.88.94.94 0 0 1-.025-1.88Zm-1.487 5.26a.364.364 0 0 1-.356-.355v-.775a1.857 1.857 0 0 1 1.868-1.843 1.838 1.838 0 0 1 1.78 1.335 3.585 3.585 0 0 0-.788 1.639Zm8.896 2.161a.301.301 0 0 1-.305.305h-5.096a.31.31 0 0 1-.305-.305v-1.486c.012-.115.025-.217.038-.318a2.739 2.739 0 0 1 .457-1.259 1.989 1.989 0 0 1 .204-.254 2.907 2.907 0 0 1 4.092-.215 2.999 2.999 0 0 1 .419.47 2.604 2.604 0 0 1 .457 1.258 1.357 1.357 0 0 1 .039.318Zm3.545-2.529a.355.355 0 0 1-.356.356h-2.503a3.649 3.649 0 0 0-.788-1.639 1.841 1.841 0 0 1 1.78-1.322 1.872 1.872 0 0 1 1.867 1.83Z" fill="#a337f6"/><path d="M28.604 21.882H16.736a3.237 3.237 0 0 0 0 6.474v1.619a.54.54 0 0 0 .92.38l2-1.999h8.948a3.237 3.237 0 1 0 0-6.474ZM37.44 8.602H25.387a3.287 3.287 0 0 0 0 6.574h9.087l2.03 2.031a.548.548 0 0 0 .936-.387v-1.644a3.287 3.287 0 1 0 0-6.574Z"/></svg>