<svg data-tags="Supervisor, Modern Care, Care, launchpad" xmlns="http://www.w3.org/2000/svg" viewBox="0 0 50 49.438"><path d="M22.842 14.845c1.297 0 1.567-1.73 1.567-1.73a39.584 39.584 0 0 0 .513-4.368c.127-2.125-2.927-1.756-4.026-1.54a3.17 3.17 0 0 0-1.775 1.054 30.157 30.157 0 0 0-2.89 12.007 19.759 19.759 0 0 0 2.692 11.286 2.845 2.845 0 0 0 1.613 1.487 23.309 23.309 0 0 0 3.368-.217 1.75 1.75 0 0 0 1.136-1.459c.027-.045-.613-3.206-.811-4.251a1.946 1.946 0 0 0-.946-1.415s-2.162-.558-2.585-.711c-.414-.144-.468-.937-.468-.937s-.127-7.278.018-8.017c.126-.738 1.729-1.17 2.594-1.189ZM32.53 25.685a.598.598 0 0 0 .59.604.62.62 0 0 0 .429-.175l2.517-2.516a.655.655 0 0 0 .02-.866l-2.517-2.516a.595.595 0 0 0-.845 0 .637.637 0 0 0-.175.429v1.463h-4.375a1.06 1.06 0 0 0-1.054 1.054 1.025 1.025 0 0 0 .309.738 1.066 1.066 0 0 0 .738.308l4.362.014ZM30.474 18.956a.638.638 0 0 0 .174-.43v-1.463h4.376a1.06 1.06 0 0 0 1.053-1.053 1.024 1.024 0 0 0-.308-.738 1.066 1.066 0 0 0-.739-.31l-4.362-.012v-1.464a.598.598 0 0 0-.59-.603.62.62 0 0 0-.43.174l-2.516 2.517a.655.655 0 0 0-.02.865l2.516 2.517a.596.596 0 0 0 .846 0Z"/><path d="M26.045 39.405H9.71V2.793h34.448v24.154a8.774 8.774 0 0 1 2 .283V1.793a1 1 0 0 0-1-1H8.711a1 1 0 0 0-1 1v9.864H1.177a1 1 0 0 0-.98 1.2l5.661 27.748a.999.999 0 0 0 .98.8h20.19a12.459 12.459 0 0 1-.502-.903 9.609 9.609 0 0 1-.481-1.097Z"/><path d="M49.22 33.237a5.632 5.632 0 0 0-10.095-.354 5.77 5.77 0 0 0-4.39-2.935 5.845 5.845 0 0 0-5.704 3.289 6.856 6.856 0 0 0 .19 5.946c2.049 4.187 6.843 6.147 9.917 9.461 3.074-3.314 7.868-5.274 9.917-9.461a6.812 6.812 0 0 0 .165-5.946Zm-5.553 2.67a.936.936 0 1 1 .025 1.871.936.936 0 0 1-.025-1.872Zm-4.567-.304a1.468 1.468 0 1 1-1.442 1.467 1.469 1.469 0 0 1 1.442-1.468Zm-4.49.303a.936.936 0 1 1 .025 1.872.936.936 0 0 1-.026-1.872Zm-1.48 5.237a.362.362 0 0 1-.355-.354v-.772a1.849 1.849 0 0 1 1.86-1.834 1.83 1.83 0 0 1 1.77 1.328 3.57 3.57 0 0 0-.784 1.632Zm8.854 2.15a.3.3 0 0 1-.303.304h-5.073a.308.308 0 0 1-.304-.303v-1.48l.038-.317a2.724 2.724 0 0 1 .456-1.252 1.947 1.947 0 0 1 .202-.253 2.893 2.893 0 0 1 4.073-.215 2.974 2.974 0 0 1 .418.468 2.59 2.59 0 0 1 .455 1.252 1.35 1.35 0 0 1 .038.317Zm3.53-2.517a.354.354 0 0 1-.355.355h-2.492a3.633 3.633 0 0 0-.784-1.632 1.833 1.833 0 0 1 1.771-1.316 1.863 1.863 0 0 1 1.86 1.822Z" fill="#a337f6"/></svg>