<svg data-tags="care,launchpad" xmlns="http://www.w3.org/2000/svg" viewBox="0 0 50 50"><path d="M18.5 20.19h3.83a1.1 1.1 0 0 0 1.1-1.1v-.67l.02-.01h.13a.83.83 0 0 0 .83-.83V16.2a.83.83 0 0 0-.83-.84h-.14a4.92 4.92 0 1 0-9.84-.2v.23h-.12a.83.83 0 0 0-.83.83v1.54a.66.66 0 0 0 .65.72h.55a.84.84 0 0 0 .83-.85V15.4a3.93 3.93 0 0 1 3.7-3.98 3.83 3.83 0 0 1 3.95 3.7v4h-3.82a.54.54 0 1 0 0 1.08Zm5.39 3.29a1.92 1.92 0 0 0-.35-.22 4.32 4.32 0 0 0-.47-.33 9.74 9.74 0 0 0-1.23-.63 6.2 6.2 0 0 0-.96-.3c-.13-.02-.25-.07-.38-.1a7.6 7.6 0 0 0-1.44-.14h-1.12a7.48 7.48 0 0 0-1.44.14c-.13.03-.25.08-.37.1a8.1 8.1 0 0 0-.96.3c-.17.06-.33.15-.49.22a8.02 8.02 0 0 0-.73.4 4.62 4.62 0 0 0-.47.31 3.28 3.28 0 0 0-.34.25 7.1 7.1 0 0 0-1.69 2.02l14.14.03a7.44 7.44 0 0 0-1.7-2.05Z"/><path d="M18.5 18.31h3.01v-3.07a2.92 2.92 0 0 0-.5-1.64 4 4 0 0 0-4.76-.28 3.24 3.24 0 0 0-.76 2.08v2.64a1.36 1.36 0 0 1-.42.97 4.1 4.1 0 0 0 2.6 1.73 1.37 1.37 0 0 1-.55-1.07 1.4 1.4 0 0 1 1.39-1.36Zm-4.83 9.92-.51-1.12a.4.4 0 0 0-.73 0l-.51 1.12-1.12.51a.4.4 0 0 0 0 .73l1.12.51.51 1.12a.4.4 0 0 0 .73 0l.5-1.12 1.13-.51a.4.4 0 0 0 0-.73Zm5.73 0-.52-1.12a.4.4 0 0 0-.73 0l-.51 1.12-1.12.51a.4.4 0 0 0 0 .73l1.12.51.51 1.12a.4.4 0 0 0 .73 0l.51-1.12 1.12-.51a.4.4 0 0 0 0-.73Zm2.84 1.24 1.12.51.51 1.12a.4.4 0 0 0 .73 0l.51-1.12 1.12-.51a.4.4 0 0 0 0-.73l-1.12-.51-.51-1.12a.4.4 0 0 0-.73 0l-.51 1.12-1.12.51a.4.4 0 0 0 0 .73Z"/><path d="M49 1.23H3.94l-.06.02a.99.99 0 0 0-.64.26l-.02.02-2.94 3a1 1 0 0 0-.29.71v42.52a1 1 0 0 0 1 1h35.25l-.24-.17a20.27 20.27 0 0 1-5-4.83H4.95V3.24H48v27.44a8.17 8.17 0 0 1 2 1.09V2.24a1 1 0 0 0-1-1ZM46.4 48.7a1 1 0 0 0 .36-.23l.18-.18-.4.3-.15.1Z"/><path d="M44.84 33.5a4.7 4.7 0 0 0-3.57 2.38 4.69 4.69 0 0 0-3.56-2.38 4.75 4.75 0 0 0-4.63 2.67 5.57 5.57 0 0 0 .15 4.83c1.66 3.4 5.56 4.99 8.05 7.68 2.5-2.7 6.39-4.28 8.05-7.68a5.53 5.53 0 0 0 .14-4.83 4.74 4.74 0 0 0-4.63-2.67Zm.12 4.84a.76.76 0 1 1 .02 1.52.76.76 0 0 1-.02-1.52Zm-3.7-.25a1.2 1.2 0 1 1-1.18 1.2 1.2 1.2 0 0 1 1.17-1.2Zm-3.65.25a.76.76 0 1 1 .02 1.52.76.76 0 1 1-.02-1.52Zm-1.2 4.25a.3.3 0 0 1-.3-.29v-.63a1.5 1.5 0 0 1 1.52-1.49 1.49 1.49 0 0 1 1.43 1.08 2.9 2.9 0 0 0-.63 1.33Zm7.18 1.74a.24.24 0 0 1-.24.25h-4.12a.25.25 0 0 1-.25-.25v-1.2l.03-.25a2.21 2.21 0 0 1 .37-1.02 1.62 1.62 0 0 1 .17-.2 2.35 2.35 0 0 1 3.3-.18 2.41 2.41 0 0 1 .34.38 2.1 2.1 0 0 1 .37 1.02 1.1 1.1 0 0 1 .03.25Zm2.87-2.04a.29.29 0 0 1-.29.29h-2.02a2.95 2.95 0 0 0-.64-1.33 1.49 1.49 0 0 1 1.44-1.07 1.51 1.51 0 0 1 1.5 1.48ZM31.14 25.14h12.43a1 1 0 0 0 1-1.01V13.57a1 1 0 0 0-1-1H31.14a1 1 0 0 0-1 1v2.53c-.02.01-.05.02-.06.04l-2.1 1.97a1 1 0 0 0 0 1.47l2.1 1.98.06.03v2.54a1 1 0 0 0 1 1Zm1.65-4.45 2.68-2.98a.73.73 0 0 1 1.05 0l1.4 1.54 1.81-2.01h-1.06a.7.7 0 0 1 0-1.41h2.65a.7.7 0 0 1 .23.05.68.68 0 0 1 .07.03.7.7 0 0 1 .14.09.65.65 0 0 1 .06.05.7.7 0 0 1 .13.18v.01a.7.7 0 0 1 .06.24v.03l.1 2.87a.7.7 0 0 1-.68.72h-.02a.7.7 0 0 1-.7-.68l-.04-1.12-2.24 2.48a.7.7 0 0 1-.52.23.7.7 0 0 1-.52-.23l-1.4-1.55-2.16 2.4a.7.7 0 1 1-1.04-.94Z"/></svg>