<svg data-tags="care, launchpad, agent persona" xmlns="http://www.w3.org/2000/svg" viewBox="0 0 50 49.5"><path d="M46.28 48.7a1 1 0 0 0 .37-.23l.18-.18-.4.3-.15.11Zm1.6-29.2v11.22a8.15 8.15 0 0 1 2 1.1V19.46a3.69 3.69 0 0 1-.51.04h-1.5ZM30.92 43.77H4.94V3.36h30.72a8.25 8.25 0 0 1 .97-2H3.87a1 1 0 0 0-.26.06 1 1 0 0 0-.1.03 1 1 0 0 0-.26.18l-.02.02h-.01l-2.93 3a1 1 0 0 0-.29.7v42.42a1 1 0 0 0 1 1h35.17l-.24-.18a20.23 20.23 0 0 1-5.01-4.82Z"/><path d="M44.73 33.54a4.7 4.7 0 0 0-3.56 2.38 4.67 4.67 0 0 0-3.55-2.38A4.73 4.73 0 0 0 33 36.2a5.55 5.55 0 0 0 .15 4.82c1.66 3.4 5.55 4.98 8.03 7.66 2.5-2.68 6.38-4.27 8.04-7.66a5.52 5.52 0 0 0 .13-4.82 4.73 4.73 0 0 0-4.62-2.66Zm.12 4.83a.76.76 0 0 1 .02 1.51.76.76 0 0 1-.02-1.51Zm-3.7-.25A1.19 1.19 0 1 1 40 39.31a1.19 1.19 0 0 1 1.16-1.19Zm-3.63.25a.76.76 0 0 1 .02 1.51.76.76 0 0 1-.02-1.51Zm-1.2 4.24a.3.3 0 0 1-.29-.29v-.62a1.5 1.5 0 0 1 1.5-1.49 1.48 1.48 0 0 1 1.44 1.08 2.9 2.9 0 0 0-.63 1.32Zm7.17 1.74a.24.24 0 0 1-.25.25h-4.1a.25.25 0 0 1-.25-.25v-1.2l.03-.26a2.2 2.2 0 0 1 .37-1.01 1.59 1.59 0 0 1 .16-.2 2.34 2.34 0 0 1 3.3-.18 2.41 2.41 0 0 1 .34.38 2.1 2.1 0 0 1 .37 1.01 1.1 1.1 0 0 1 .03.26Zm2.86-2.04a.29.29 0 0 1-.29.29h-2.02a2.94 2.94 0 0 0-.63-1.32 1.48 1.48 0 0 1 1.43-1.07 1.5 1.5 0 0 1 1.5 1.48ZM32.11 20.15a1.4 1.4 0 0 0-1.95 0l-6.36 6.36-1.73-1.73-.05-.02a1.34 1.34 0 0 0-1-.41 1.38 1.38 0 0 0-1.35 1.4l.11 5.41a1.3 1.3 0 0 0 .34.84 1.22 1.22 0 0 0 .22.21 1.37 1.37 0 0 0 .68.28h.12l5.4.1a1.4 1.4 0 0 0 1.4-1.34 1.33 1.33 0 0 0-.42-1.02l-.02-.04-1.73-1.74 6.36-6.35a1.37 1.37 0 0 0-.02-1.95Zm-19.85 5.62a1.37 1.37 0 0 0 1.96 0l6.35-6.36 1.74 1.73c0 .02.02.02.04.03a1.34 1.34 0 0 0 1 .4 1.38 1.38 0 0 0 1.35-1.4l-.1-5.4a1.3 1.3 0 0 0-.34-.85 1.22 1.22 0 0 0-.22-.2 1.37 1.37 0 0 0-.68-.28h-.13l-5.39-.11a1.4 1.4 0 0 0-1.41 1.35 1.34 1.34 0 0 0 .42 1.01l.03.05 1.73 1.73-6.36 6.36a1.37 1.37 0 0 0 .01 1.94ZM37.95 9.18h.57a.87.87 0 0 0 .85-.88V5.96a4.06 4.06 0 0 1 3.8-4.14 3.95 3.95 0 0 1 4.03 3.85v4.15h-3.9a.56.56 0 0 0 0 1.13h3.91a1.12 1.12 0 0 0 1.12-1.13v-.71l.03-.01h.14a.85.85 0 0 0 .85-.87V6.81a.85.85 0 0 0-.85-.86h-.15a5.04 5.04 0 1 0-10.08-.22v.24h-.12a.85.85 0 0 0-.85.87v1.6a.68.68 0 0 0 .66.74Zm-.72 7.29 12.13.02a.63.63 0 0 0 .51-1 7.96 7.96 0 0 0-1.07-1.12 1.96 1.96 0 0 0-.35-.23 4.42 4.42 0 0 0-.49-.35 9.97 9.97 0 0 0-1.26-.65 6.28 6.28 0 0 0-.98-.3c-.14-.03-.26-.09-.4-.11a7.66 7.66 0 0 0-1.47-.16h-1.14a7.55 7.55 0 0 0-1.48.16c-.13.02-.25.08-.37.1a8.18 8.18 0 0 0-.99.3c-.18.07-.34.17-.5.24a8.28 8.28 0 0 0-.76.42 4.7 4.7 0 0 0-.47.32 3.31 3.31 0 0 0-.35.26 7.43 7.43 0 0 0-1.06 1.1.63.63 0 0 0 .5 1Z"/><path d="M43.29 9h3.08V5.81a3.07 3.07 0 0 0-.52-1.71 4.05 4.05 0 0 0-4.87-.29 3.4 3.4 0 0 0-.79 2.16v2.74a1.42 1.42 0 0 1-.43 1.02 4.2 4.2 0 0 0 2.68 1.79 1.43 1.43 0 0 1-.57-1.1A1.45 1.45 0 0 1 43.29 9Z"/></svg>