<svg data-tags="care, launchpad, agent persona" xmlns="http://www.w3.org/2000/svg" viewBox="0 0 50 50"><path d="M19.44 18.1a34.88 34.88 0 0 0-2.4-3.05c-1.25-1.4-2.92.73-3.47 1.55a2.8 2.8 0 0 0-.45 1.76 26.58 26.58 0 0 0 5.68 9.29A17.41 17.41 0 0 0 27.5 33a2.5 2.5 0 0 0 1.93-.08 20.56 20.56 0 0 0 1.97-2.23 1.54 1.54 0 0 0-.2-1.62c-.02-.04-2.39-1.61-3.16-2.14a1.72 1.72 0 0 0-1.47-.3s-1.7 1-2.06 1.17c-.34.17-.87-.29-.87-.29s-4.62-4.46-4.99-5c-.38-.54.35-1.81.88-2.36.8-.81-.1-2.06-.1-2.06Z"/><path d="M31.18 14.94a1.21 1.21 0 0 0-.87-.36 1.26 1.26 0 0 0-.88.36l-3.66 3.64-1.22-1.23a.7.7 0 0 0-1 0 .73.73 0 0 0-.22.5v4.2a.77.77 0 0 0 .71.75h4.21a.7.7 0 0 0 .7-.71.75.75 0 0 0-.2-.5l-1.23-1.23 3.66-3.66a1.25 1.25 0 0 0 0-1.76Zm13.53 18.98a4.74 4.74 0 0 0-3.59 2.4 4.72 4.72 0 0 0-3.59-2.4 4.78 4.78 0 0 0-4.66 2.69 5.6 5.6 0 0 0 .15 4.86c1.68 3.42 5.6 5.03 8.11 7.74 2.52-2.71 6.44-4.32 8.11-7.74a5.57 5.57 0 0 0 .14-4.86 4.78 4.78 0 0 0-4.67-2.7Zm.13 4.87a.77.77 0 1 1 .02 1.53.77.77 0 0 1-.02-1.53Zm-3.74-.25a1.2 1.2 0 1 1-1.18 1.2 1.2 1.2 0 0 1 1.18-1.2Zm-3.67.25a.77.77 0 0 1 .02 1.53.77.77 0 1 1-.02-1.53Zm-1.21 4.28a.3.3 0 0 1-.29-.29v-.63a1.51 1.51 0 0 1 1.52-1.5 1.5 1.5 0 0 1 1.45 1.09 2.92 2.92 0 0 0-.64 1.33Zm7.24 1.76a.24.24 0 0 1-.25.25h-4.15a.25.25 0 0 1-.24-.25v-1.2c0-.1.02-.18.03-.27a2.23 2.23 0 0 1 .37-1.02 1.62 1.62 0 0 1 .16-.2 2.37 2.37 0 0 1 3.34-.18 2.43 2.43 0 0 1 .34.38 2.12 2.12 0 0 1 .37 1.02 1.1 1.1 0 0 1 .03.26Zm2.89-2.06a.29.29 0 0 1-.3.3h-2.03a2.97 2.97 0 0 0-.64-1.34 1.5 1.5 0 0 1 1.45-1.08 1.52 1.52 0 0 1 1.52 1.5Z"/><path d="M30.63 44.06H4.95V3.59h30.64a8.27 8.27 0 0 1 .91-2H3.88a1 1 0 0 0-.27.06l-.1.03a1 1 0 0 0-.26.18l-.02.02-2.94 3a1 1 0 0 0-.29.7v42.48a1 1 0 0 0 1 1h34.76a19.65 19.65 0 0 1-5.13-5Zm17.3-24.48V31.1a8.22 8.22 0 0 1 2.01 1.1V19.55a3.71 3.71 0 0 1-.58.04s-.55 0-1.43 0ZM37.94 9.25h.57a.87.87 0 0 0 .85-.87V6.03a4.07 4.07 0 0 1 3.8-4.14 3.95 3.95 0 0 1 4.04 3.85V9.9h-3.92a.56.56 0 0 0 0 1.12h3.92a1.12 1.12 0 0 0 1.12-1.12v-.72l.03-.01h.14a.85.85 0 0 0 .85-.86V6.88a.85.85 0 0 0-.85-.86h-.15a5.05 5.05 0 1 0-10.1-.22v.24h-.11a.85.85 0 0 0-.85.87v1.6a.68.68 0 0 0 .66.74Zm-.72 7.3 12.14.02a.63.63 0 0 0 .51-1 8 8 0 0 0-1.07-1.12 1.96 1.96 0 0 0-.36-.23 4.43 4.43 0 0 0-.48-.35 10 10 0 0 0-1.26-.65 6.3 6.3 0 0 0-.99-.3c-.13-.03-.25-.09-.39-.12a7.67 7.67 0 0 0-1.47-.15H42.7a7.56 7.56 0 0 0-1.48.15c-.13.03-.25.09-.37.11a8.18 8.18 0 0 0-1 .3c-.17.07-.33.17-.5.24a8.29 8.29 0 0 0-.75.42 4.72 4.72 0 0 0-.47.32 3.32 3.32 0 0 0-.35.26 7.43 7.43 0 0 0-1.07 1.1.63.63 0 0 0 .5 1Z"/><path d="M43.28 9.07h3.08V5.88a3.07 3.07 0 0 0-.51-1.71 4.06 4.06 0 0 0-4.88-.3 3.4 3.4 0 0 0-.79 2.17V8.8a1.42 1.42 0 0 1-.43 1.01 4.2 4.2 0 0 0 2.68 1.8 1.43 1.43 0 0 1-.57-1.11 1.45 1.45 0 0 1 1.42-1.42Z"/></svg>