<svg data-tags="care, launchpad, agent persona" xmlns="http://www.w3.org/2000/svg" viewBox="0 0 50 50"><path d="M44.74 33.9a4.7 4.7 0 0 0-3.55 2.38 4.67 4.67 0 0 0-3.56-2.38A4.74 4.74 0 0 0 33 36.56a5.55 5.55 0 0 0 .15 4.82c1.66 3.4 5.55 4.98 8.04 7.67 2.49-2.69 6.37-4.28 8.03-7.67a5.52 5.52 0 0 0 .13-4.82 4.73 4.73 0 0 0-4.62-2.66Zm.12 4.83a.76.76 0 0 1 .03 1.51.76.76 0 0 1-.03-1.51Zm-3.7-.25A1.19 1.19 0 1 1 40 39.67a1.19 1.19 0 0 1 1.16-1.19Zm-3.63.25a.76.76 0 1 1 .02 1.51.76.76 0 0 1-.02-1.51Zm-1.2 4.24a.3.3 0 0 1-.29-.29v-.62a1.5 1.5 0 0 1 1.5-1.49 1.48 1.48 0 0 1 1.44 1.08 2.9 2.9 0 0 0-.63 1.32Zm7.17 1.74a.24.24 0 0 1-.24.25h-4.11a.25.25 0 0 1-.25-.25v-1.2l.03-.25a2.2 2.2 0 0 1 .37-1.02 1.6 1.6 0 0 1 .16-.2 2.34 2.34 0 0 1 3.3-.18 2.4 2.4 0 0 1 .34.38 2.1 2.1 0 0 1 .37 1.02 1.09 1.09 0 0 1 .03.25Zm2.86-2.04a.29.29 0 0 1-.29.29h-2.01a2.94 2.94 0 0 0-.64-1.32 1.49 1.49 0 0 1 1.43-1.07 1.51 1.51 0 0 1 1.51 1.48ZM13 14.7a2.47 2.47 0 0 0-2.47 2.48v19.63a.33.33 0 0 0 .58.21L15.63 32h14.66a2.48 2.48 0 0 0 2.47-2.48V17.18a2.51 2.51 0 0 0-2.49-2.47Zm3.25 4.31h6.88a1 1 0 0 1 0 2h-6.88a1 1 0 1 1 0-2Zm10.79 7.93H16.25a1 1 0 1 1 0-2h10.79a1 1 0 1 1 0 2Z"/><path d="M30.93 44.13H4.94V3.71h30.65a8.27 8.27 0 0 1 .9-2H3.87a1 1 0 0 0-.26.06 1 1 0 0 0-.1.03 1 1 0 0 0-.26.18L3.23 2h-.01L.29 5a1 1 0 0 0-.29.7v42.43a1 1 0 0 0 1 1h35.18l-.24-.18a20.24 20.24 0 0 1-5.01-4.82Zm16.96-24.49v11.44a8.15 8.15 0 0 1 2 1.1V19.6a3.7 3.7 0 0 1-.52.04h-1.48ZM37.95 9.32h.57a.87.87 0 0 0 .85-.88V6.1a4.06 4.06 0 0 1 3.8-4.14 3.95 3.95 0 0 1 4.03 3.85v4.15h-3.9a.56.56 0 0 0 0 1.13h3.91a1.12 1.12 0 0 0 1.12-1.13v-.71l.03-.01h.14a.85.85 0 0 0 .85-.87V6.95a.85.85 0 0 0-.85-.86h-.15a5.04 5.04 0 1 0-10.08-.22v.24h-.12a.85.85 0 0 0-.85.87v1.6a.68.68 0 0 0 .66.74Zm-.72 7.28 12.13.03a.63.63 0 0 0 .51-1 7.97 7.97 0 0 0-1.07-1.12 1.97 1.97 0 0 0-.35-.23 4.45 4.45 0 0 0-.49-.35 10.01 10.01 0 0 0-1.26-.65 6.29 6.29 0 0 0-.98-.3c-.14-.03-.26-.09-.4-.11a7.67 7.67 0 0 0-1.47-.15H42.7a7.55 7.55 0 0 0-1.47.15c-.13.02-.25.08-.38.1a8.16 8.16 0 0 0-.98.3l-.5.24a8.25 8.25 0 0 0-.76.42 4.69 4.69 0 0 0-.47.32 3.3 3.3 0 0 0-.35.26 7.44 7.44 0 0 0-1.07 1.1.63.63 0 0 0 .5 1Z"/><path d="M43.29 9.14h3.08v-3.2a3.06 3.06 0 0 0-.52-1.7 4.06 4.06 0 0 0-4.87-.3 3.4 3.4 0 0 0-.79 2.17v2.74a1.42 1.42 0 0 1-.43 1.02 4.2 4.2 0 0 0 2.67 1.79 1.43 1.43 0 0 1-.56-1.1 1.45 1.45 0 0 1 1.42-1.42Z"/></svg>