<svg data-tags="care, launchpad, agent persona" xmlns="http://www.w3.org/2000/svg" viewBox="0 0 50 50"><path d="M44.71 32.95a4.68 4.68 0 0 0-3.54 2.37 4.66 4.66 0 0 0-3.55-2.37 4.72 4.72 0 0 0-4.6 2.66 5.54 5.54 0 0 0 .15 4.8c1.66 3.38 5.53 4.96 8 7.64 2.5-2.68 6.36-4.26 8.02-7.64a5.5 5.5 0 0 0 .13-4.8 4.72 4.72 0 0 0-4.6-2.66Zm.13 4.81a.76.76 0 0 1 .02 1.52.76.76 0 0 1-.02-1.52Zm-3.7-.24a1.19 1.19 0 1 1-1.16 1.18 1.19 1.19 0 0 1 1.17-1.18Zm-3.62.24a.76.76 0 0 1 .02 1.52.76.76 0 0 1-.02-1.52ZM36.32 42a.3.3 0 0 1-.28-.28v-.63a1.5 1.5 0 0 1 1.5-1.48 1.48 1.48 0 0 1 1.43 1.07 2.88 2.88 0 0 0-.63 1.32Zm7.16 1.74a.24.24 0 0 1-.25.24h-4.1a.25.25 0 0 1-.24-.24v-1.2l.03-.25a2.2 2.2 0 0 1 .37-1.01 1.59 1.59 0 0 1 .16-.2 2.34 2.34 0 0 1 3.3-.18 2.4 2.4 0 0 1 .33.38 2.1 2.1 0 0 1 .37 1 1.09 1.09 0 0 1 .03.26Zm2.85-2.03a.29.29 0 0 1-.29.28h-2.01a2.93 2.93 0 0 0-.63-1.32 1.48 1.48 0 0 1 1.43-1.06 1.5 1.5 0 0 1 1.5 1.47ZM19.88 17.38a34.7 34.7 0 0 0-2.4-3.03c-1.23-1.4-2.9.73-3.45 1.55a2.78 2.78 0 0 0-.44 1.75 26.46 26.46 0 0 0 5.65 9.25 17.34 17.34 0 0 0 8.68 5.33 2.5 2.5 0 0 0 1.92-.08 20.49 20.49 0 0 0 1.96-2.23 1.53 1.53 0 0 0-.2-1.6c-.02-.05-2.38-1.62-3.15-2.14a1.7 1.7 0 0 0-1.46-.3s-1.69 1-2.05 1.17c-.34.17-.87-.29-.87-.29s-4.6-4.44-4.96-4.98c-.38-.54.34-1.8.87-2.35.8-.8-.1-2.05-.1-2.05Z"/><path d="M23.8 22.24a1.2 1.2 0 0 0 .87.36 1.25 1.25 0 0 0 .88-.36l3.64-3.62 1.22 1.21a.7.7 0 0 0 1 .02.73.73 0 0 0 .2-.5v-4.2a.77.77 0 0 0-.7-.74h-4.2a.7.7 0 0 0-.7.7.75.75 0 0 0 .22.5l1.22 1.23-3.65 3.64a1.25 1.25 0 0 0 0 1.76Z"/><path d="M30.94 43.15H5.04V2.86h30.54a8.24 8.24 0 0 1 .89-2H4.05l-.07.01a.98.98 0 0 0-.26.06l-.1.03a.98.98 0 0 0-.26.18l-.02.02L.4 4.15a1 1 0 0 0-.29.7v42.29a1 1 0 0 0 1 1h35.06l-.24-.18a20.17 20.17 0 0 1-5-4.8Zm16.91-24.41v11.4a8.12 8.12 0 0 1 2 1.1V18.7a3.7 3.7 0 0 1-.55.04h-1.45ZM37.92 8.45h.57a.86.86 0 0 0 .85-.87V5.25a4.05 4.05 0 0 1 3.78-4.13 3.93 3.93 0 0 1 4.03 3.84V9.1h-3.9a.56.56 0 0 0 0 1.12h3.9a1.12 1.12 0 0 0 1.11-1.12v-.71c.02 0 .02-.02.03-.02h.14a.85.85 0 0 0 .84-.86V6.1a.85.85 0 0 0-.84-.86h-.15a5.02 5.02 0 1 0-10.05-.22v.25h-.12a.85.85 0 0 0-.85.86v1.6a.68.68 0 0 0 .66.73Zm-.72 7.27 12.1.02a.63.63 0 0 0 .5-1 7.94 7.94 0 0 0-1.06-1.11 1.96 1.96 0 0 0-.35-.23 4.44 4.44 0 0 0-.49-.35 9.99 9.99 0 0 0-1.25-.65 6.26 6.26 0 0 0-.98-.3l-.4-.11a7.64 7.64 0 0 0-1.46-.15h-1.15a7.53 7.53 0 0 0-1.46.15c-.14.03-.26.08-.38.1a8.13 8.13 0 0 0-.98.31c-.18.07-.34.16-.5.23a8.22 8.22 0 0 0-.76.42 4.67 4.67 0 0 0-.47.32 3.28 3.28 0 0 0-.35.26 7.41 7.41 0 0 0-1.06 1.09.63.63 0 0 0 .5 1Z"/><path d="M43.24 8.28h3.07V5.1a3.05 3.05 0 0 0-.51-1.71 4.04 4.04 0 0 0-4.86-.29 3.39 3.39 0 0 0-.78 2.16v2.73A1.42 1.42 0 0 1 39.73 9a4.19 4.19 0 0 0 2.66 1.79 1.42 1.42 0 0 1-.56-1.1 1.44 1.44 0 0 1 1.41-1.41Z"/></svg>