<svg data-tags="Supervisor, Modern Care, Care, launchpad" xmlns="http://www.w3.org/2000/svg" viewBox="0 0 50 49.438"><path d="M22.892 14.29c1.306 0 1.578-1.742 1.578-1.742a39.87 39.87 0 0 0 .517-4.4c.127-2.14-2.948-1.769-4.054-1.551a3.192 3.192 0 0 0-1.788 1.061 30.371 30.371 0 0 0-2.912 12.092 19.899 19.899 0 0 0 2.713 11.367 2.864 2.864 0 0 0 1.624 1.497 23.51 23.51 0 0 0 3.392-.218 1.761 1.761 0 0 0 1.143-1.47c.028-.045-.617-3.229-.816-4.281a1.96 1.96 0 0 0-.953-1.424s-2.177-.563-2.603-.717c-.417-.145-.472-.943-.472-.943s-.127-7.33.018-8.074c.127-.744 1.742-1.18 2.613-1.198ZM30.454 18.054v-1.978a.81.81 0 0 0-.799-.816.839.839 0 0 0-.58.236l-3.402 3.402a.886.886 0 0 0-.027 1.17l3.401 3.402a.805.805 0 0 0 1.144 0 .863.863 0 0 0 .235-.58v-1.978h5.915a1.432 1.432 0 0 0 1.424-1.425 1.385 1.385 0 0 0-.417-.997 1.44 1.44 0 0 0-.998-.418Z"/><path d="M25.92 39.302H9.602V2.43h34.694v24.74a8.823 8.823 0 0 1 2.014.285V1.423A1.007 1.007 0 0 0 45.303.416H8.595a1.007 1.007 0 0 0-1.007 1.007v9.934h-6.58a1.007 1.007 0 0 0-.987 1.208l5.701 27.946a1.006 1.006 0 0 0 .986.805h20.105c-.091-.166-.191-.322-.276-.495a9.656 9.656 0 0 1-.617-1.52Z"/><path d="M49.392 33.505a5.672 5.672 0 0 0-10.166-.357 5.811 5.811 0 0 0-4.42-2.956 5.887 5.887 0 0 0-5.747 3.313 6.904 6.904 0 0 0 .192 5.987c2.063 4.217 6.892 6.192 9.988 9.53 3.095-3.338 7.924-5.313 9.988-9.53a6.86 6.86 0 0 0 .165-5.987ZM43.8 36.193a.943.943 0 1 1 .026 1.885.943.943 0 0 1-.026-1.885Zm-4.599-.306a1.478 1.478 0 1 1-1.452 1.478 1.48 1.48 0 0 1 1.452-1.478Zm-4.522.306a.943.943 0 1 1 .025 1.885.943.943 0 0 1-.025-1.885Zm-1.49 5.274a.365.365 0 0 1-.358-.357v-.777a1.862 1.862 0 0 1 1.873-1.847 1.843 1.843 0 0 1 1.784 1.338 3.596 3.596 0 0 0-.79 1.643Zm8.917 2.166a.302.302 0 0 1-.306.306h-5.108a.31.31 0 0 1-.306-.306v-1.49l.038-.32a2.746 2.746 0 0 1 .459-1.26 1.978 1.978 0 0 1 .204-.255 2.914 2.914 0 0 1 4.102-.217 3.006 3.006 0 0 1 .42.471 2.61 2.61 0 0 1 .459 1.262 1.362 1.362 0 0 1 .038.318Zm3.554-2.536a.356.356 0 0 1-.356.357h-2.51a3.659 3.659 0 0 0-.79-1.643 1.846 1.846 0 0 1 1.784-1.325 1.876 1.876 0 0 1 1.872 1.834Z" fill="#a337f6"/></svg>