<svg data-tags="empty,content,placeholder" xmlns="http://www.w3.org/2000/svg" viewBox="0 0 122 63.19"><g fill="#0828CC"><path opacity=".5" d="M97.824 25.787H24.511a.276.276 0 00-.191.073c-.016.014-.019.037-.03.056-.02.03-.047.056-.054.097l-.004.054a.28.28 0 00.077.203.28.28 0 00.203.077h73.312a.28.28 0 00.203-.077.28.28 0 00.077-.203.28.28 0 00-.077-.203.28.28 0 00-.203-.077zm0 17.908H24.512a.276.276 0 00-.192.073c-.016.015-.019.038-.03.056-.02.03-.047.057-.054.097l-.004.054c0 .168.112.28.28.28h73.312c.168 0 .28-.112.28-.28s-.112-.28-.28-.28zm0-8.954H24.512a.276.276 0 00-.192.073c-.016.015-.019.037-.03.056-.02.03-.047.056-.054.097l-.004.054c0 .168.112.28.28.28h73.312c.168 0 .28-.112.28-.28 0-.168-.112-.28-.28-.28zm0 17.909H24.512a.276.276 0 00-.192.072c-.016.015-.019.038-.03.056-.02.031-.047.057-.054.098l-.004.053c0 .168.112.28.28.28h73.312c.168 0 .28-.112.28-.28 0-.168-.112-.28-.28-.28z"/><path opacity=".12" d="M105.323 1.443H16.677c-.28 0-.56.28-.56.56v9.346h89.766V2.003c0-.336-.224-.56-.56-.56zM20.818 7.32c-.335-.112-.615-.391-.615-.783 0-.448.336-.784.783-.784h.224c1.434.319 2.01 3.005 2.066 3.28l.005.022s-1.008-1.399-2.463-1.735zm2.519-.336s-.224-1.566-2.015-2.518l-.06-.044c-.134-.11-.22-.257-.22-.404 0-.335.224-.615.56-.671.112 0 .28.056.448.168 1.455 1.063 1.287 3.47 1.287 3.47zm.745.642c0-.605.048-1.274.195-1.902.182-.817.517-1.573 1.104-2.065.3-.3.6-.36.78-.36.598 0 1.078.48 1.078 1.079 0 .42-.24.779-.66 1.078-2.037 1.019-2.276 3.955-2.336 4.374-.027-.184-.169-1.102-.161-2.204zm3.564-.25c-1.511.336-2.407 1.791-2.407 1.791s.168-1.959 1.847-2.91c.112-.112.28-.112.336-.112.336 0 .616.28.616.616 0 .28-.224.56-.392.615z"/><path d="M67.324 16.161H55.012c-.336 0-.56.224-.56.56l.004.07c.029.297.244.49.556.49h12.312c.336 0 .56-.224.56-.56l-.004-.07c-.029-.296-.244-.49-.556-.49zm-19.979 0H35.033c-.336 0-.56.224-.56.56l.004.07c.029.297.244.49.556.49h12.312c.336 0 .56-.224.56-.56l-.004-.07c-.029-.296-.244-.49-.556-.49zm39.23 0H74.263c-.336 0-.56.224-.56.56l.004.07c.03.297.244.49.556.49h12.312c.336 0 .56-.224.56-.56l-.004-.07c-.029-.296-.244-.49-.556-.49zM4.813 48.62H3.078v-1.79a.441.441 0 00-.448-.448c-.28 0-.447.168-.447.447v1.791H.448a.441.441 0 00-.448.448c0 .28.168.448.448.448h1.735v1.79c0 .224.167.448.447.448s.448-.168.448-.448v-1.79h1.735a.441.441 0 00.448-.448.441.441 0 00-.448-.448zm6.492-9.905h-1.288V37.26a.441.441 0 00-.447-.448c-.28 0-.448.168-.448.448v1.455H7.667a.441.441 0 00-.448.447c0 .28.168.448.448.448h1.455v1.343c0 .224.168.448.448.448s.447-.168.447-.448V39.61h1.288c.223 0 .447-.168.447-.448s-.168-.447-.447-.447z"/><path d="M106.778 1.055c-.041-.062-.091-.116-.14-.171a1.66 1.66 0 00-1.26-.56h-88.7a1.65 1.65 0 00-1.68 1.679v59.769c0 .335.224.56.56.56.336 0 .56-.225.56-.56V2.003c0-.28.28-.56.56-.56h88.645c.336 0 .56.224.56.56v59.769c0 .335.223.56.56.56.335 0 .559-.225.615-.56V2.002a1.7 1.7 0 00-.28-.947z"/><path d="M22.05 3.514c-.168-.112-.336-.168-.448-.168a.665.665 0 00-.56.671c0 .147.086.294.22.404l.06.044c1.79.952 2.015 2.518 2.015 2.518s.168-2.406-1.287-3.47zm5.372 2.63c-.056 0-.224 0-.336.112-1.679.951-1.847 2.91-1.847 2.91s.896-1.455 2.407-1.79c.168-.057.392-.337.392-.616a.621.621 0 00-.616-.616zm-6.212-.392h-.224a.765.765 0 00-.783.784c0 .392.28.671.615.783 1.455.336 2.463 1.735 2.463 1.735l-.005-.023c-.055-.274-.632-2.96-2.066-3.279zm5.37-.297c.42-.3.659-.659.659-1.078 0-.6-.48-1.079-1.079-1.079-.18 0-.48.06-.779.36-.587.492-.922 1.248-1.104 2.065a9.133 9.133 0 00-.195 1.902c-.008 1.102.134 2.02.16 2.204.06-.42.3-3.355 2.338-4.374zm95.028 44.229h-1.23v-1.232a.441.441 0 00-.449-.447c-.28 0-.447.167-.447.447v1.232h-1.176c-.223 0-.447.167-.447.447s.168.448.447.448h1.176v1.231c0 .224.168.448.447.448.28 0 .448-.168.448-.448v-1.23h1.175c.224 0 .448-.168.448-.448s-.168-.447-.392-.447z"/></g></svg>