<svg xmlns="http://www.w3.org/2000/svg" viewBox="0 0 668 304" data-tags="preview"><path d="M40 115.5h588c.3 0 .5-.2.5-.5s-.2-.5-.5-.5H40c-.3 0-.5.2-.5.5s.2.5.5.5zm588 36H40c-.3 0-.5.2-.5.5s.2.5.5.5h588c.3 0 .5-.2.5-.5s-.2-.5-.5-.5zm0 37H40c-.3 0-.5.2-.5.5s.2.5.5.5h588c.3 0 .5-.2.5-.5s-.2-.5-.5-.5zm0 37H40c-.3 0-.5.2-.5.5s.2.5.5.5h588c.3 0 .5-.2.5-.5s-.2-.5-.5-.5zm0 37H40c-.3 0-.5.2-.5.5s.2.5.5.5h588c.3 0 .5-.2.5-.5s-.2-.5-.5-.5zm0-185H481.5v-36H628v-1H40v1h147.5v36H40v1h588v-1zm-294.5 0h-145v-36h145v36zm147 0h-146v-36h146v36z" fill="#A9A9B2" opacity=".4"/><path d="M52.8 57.2c.6 0 1.3.2 1.9.5l.4-.9c-.7-.3-1.5-.5-2.4-.5-.8 0-1.6.2-2.2.5s-1.1.9-1.4 1.5-.5 1.4-.5 2.3c0 1.4.3 2.5 1 3.3s1.7 1.1 2.9 1.1c.9 0 1.6-.1 2.2-.3v-.9c-.8.2-1.4.3-2 .3-1 0-1.7-.3-2.2-.9s-.8-1.5-.8-2.6.3-1.9.8-2.6 1.4-.8 2.3-.8zm6.4 1.3c-.9 0-1.7.3-2.2.9s-.8 1.4-.8 2.4c0 .7.1 1.3.4 1.8.3.5.6.9 1 1.2s1 .4 1.5.4c.9 0 1.7-.3 2.2-.9s.8-1.4.8-2.5c0-1-.3-1.8-.8-2.4s-1.2-.9-2.1-.9zm1.4 5.2c-.3.4-.8.6-1.5.6s-1.1-.2-1.4-.6-.5-1.1-.5-1.9c0-.8.2-1.5.5-1.9s.8-.6 1.4-.6c.6 0 1.1.2 1.5.6s.5 1 .5 1.9c0 .8-.1 1.4-.5 1.9zm3.2-7.8h1V65h-1zm7.4 6.1c0 .8-.2 1.4-.5 1.8s-.8.6-1.5.6c-.5 0-.9-.1-1.1-.4s-.4-.6-.4-1.2v-4.2h-1v4.2c0 .8.2 1.4.6 1.8s1 .6 1.8.6c.5 0 .9-.1 1.2-.3s.6-.4.8-.7h.1l.1.9h.8v-6.4h-1V62h.1zm10-3.5c-.5 0-.9.1-1.2.3s-.6.5-.8.8c-.3-.7-1-1.1-2-1.1-.4 0-.8.1-1.1.3s-.6.4-.8.7l-.3-.9h-.8V65h1v-3.4c0-.8.1-1.4.4-1.8s.7-.5 1.3-.5c.5 0 .8.1 1 .4s.3.6.3 1.2V65h1v-3.6c0-.7.1-1.3.4-1.6s.7-.5 1.3-.5c.5 0 .8.1 1 .4s.3.6.3 1.2V65h1v-4.2c0-.8-.2-1.4-.5-1.8s-.7-.5-1.5-.5zm7.2 0c-.4 0-.8.1-1.2.3s-.6.4-.8.7l-.2-.9h-.8V65h1v-3.4c0-.8.2-1.4.5-1.8s.8-.5 1.5-.5c.5 0 .9.1 1.1.4s.4.6.4 1.2V65h1v-4.2c0-.8-.2-1.4-.6-1.8s-1.1-.5-1.9-.5zm7.6-.3l.5.7c.8-.7 1.3-1.1 1.4-1.1s.2-.2.3-.3V65h.9v-8.6h-.8L96 58.2zm105.8-1c.6 0 1.3.2 1.9.5l.4-.9c-.7-.3-1.5-.5-2.4-.5-.8 0-1.6.2-2.2.5s-1.1.9-1.4 1.5-.5 1.4-.5 2.3c0 1.4.3 2.5 1 3.3s1.7 1.1 2.9 1.1c.9 0 1.6-.1 2.2-.3v-.9c-.8.2-1.4.3-2 .3-1 0-1.7-.3-2.2-.9s-.8-1.5-.8-2.6.3-1.9.8-2.6 1.4-.8 2.3-.8zm6.4 1.3c-.9 0-1.7.3-2.2.9s-.8 1.4-.8 2.4c0 .7.1 1.3.4 1.8.3.5.6.9 1 1.2s1 .4 1.5.4c.9 0 1.7-.3 2.2-.9s.8-1.4.8-2.5c0-1-.3-1.8-.8-2.4s-1.2-.9-2.1-.9zm1.4 5.2c-.3.4-.8.6-1.5.6s-1.1-.2-1.4-.6-.5-1.1-.5-1.9c0-.8.2-1.5.5-1.9s.8-.6 1.4-.6c.6 0 1.1.2 1.5.6s.5 1 .5 1.9c0 .8-.1 1.4-.5 1.9zm3.2-7.8h1V65h-1zm7.4 6.1c0 .8-.2 1.4-.5 1.8s-.8.6-1.5.6c-.5 0-.9-.1-1.1-.4s-.4-.6-.4-1.2v-4.2h-1v4.2c0 .8.2 1.4.6 1.8s1 .6 1.8.6c.5 0 .9-.1 1.2-.3s.6-.4.8-.7h.1l.1.9h.8v-6.4h-1V62h.1zm10-3.5c-.5 0-.9.1-1.2.3s-.6.5-.8.8c-.3-.7-1-1.1-2-1.1-.4 0-.8.1-1.1.3s-.6.4-.8.7l-.2-.9h-.8V65h1v-3.4c0-.8.1-1.4.4-1.8s.7-.5 1.3-.5c.5 0 .8.1 1 .4s.3.6.3 1.2V65h1v-3.6c0-.7.1-1.3.4-1.6s.7-.5 1.3-.5c.5 0 .8.1 1 .4s.3.6.3 1.2V65h1v-4.2c0-.8-.2-1.4-.5-1.8s-.8-.5-1.6-.5zm7.2 0c-.4 0-.8.1-1.2.3s-.6.4-.8.7l-.2-.9h-.8V65h1v-3.4c0-.8.2-1.4.5-1.8s.8-.5 1.5-.5c.5 0 .9.1 1.1.4s.4.6.4 1.2V65h1v-4.2c0-.8-.2-1.4-.6-1.8s-1.1-.5-1.9-.5zm8.3 5.6l1.9-1.8c.8-.8 1.4-1.5 1.7-2s.5-1.1.5-1.6c0-.7-.2-1.2-.7-1.7s-1.1-.6-1.9-.6c-.9 0-1.8.3-2.6 1l.5.7c.4-.3.7-.5 1.1-.6s.7-.2 1-.2c.5 0 .9.1 1.2.4s.4.6.4 1.1c0 .3-.1.6-.2.9s-.3.6-.5.9-.7.8-1.4 1.5l-2.3 2.3v.6h5.6v-.9h-4.3zm100.1-6.9c.6 0 1.3.2 1.9.5l.4-.9c-.7-.3-1.5-.5-2.4-.5-.8 0-1.6.2-2.2.5s-1.1.9-1.4 1.5-.5 1.4-.5 2.3c0 1.4.3 2.5 1 3.3s1.7 1.1 2.9 1.1c.9 0 1.6-.1 2.2-.3v-.9c-.8.2-1.4.3-2 .3-1 0-1.7-.3-2.2-.9s-.8-1.5-.8-2.6.3-1.9.8-2.6 1.4-.8 2.3-.8zm6.4 1.3c-.9 0-1.7.3-2.2.9s-.8 1.4-.8 2.4c0 .7.1 1.3.4 1.8.3.5.6.9 1 1.2s1 .4 1.5.4c.9 0 1.7-.3 2.2-.9s.8-1.4.8-2.5c0-1-.3-1.8-.8-2.4s-1.2-.9-2.1-.9zm1.4 5.2c-.3.4-.8.6-1.5.6s-1.1-.2-1.4-.6-.5-1.1-.5-1.9c0-.8.2-1.5.5-1.9s.8-.6 1.4-.6 1.1.2 1.5.6.5 1 .5 1.9c0 .8-.1 1.4-.5 1.9zm3.2-7.8h1V65h-1zm7.4 6.1c0 .8-.2 1.4-.5 1.8s-.8.6-1.5.6c-.5 0-.9-.1-1.1-.4s-.4-.6-.4-1.2v-4.2h-1v4.2c0 .8.2 1.4.6 1.8s1 .6 1.8.6c.5 0 .9-.1 1.2-.3s.6-.4.8-.7h.1l.1.9h.8v-6.4h-1V62h.1zm10-3.5c-.5 0-.9.1-1.2.3s-.6.5-.8.8c-.3-.7-1-1.1-2-1.1-.4 0-.8.1-1.1.3s-.6.4-.8.7l-.2-.9h-.8V65h1v-3.4c0-.8.1-1.4.4-1.8s.7-.5 1.3-.5c.5 0 .8.1 1 .4s.3.6.3 1.2V65h1v-3.6c0-.7.1-1.3.4-1.6s.7-.5 1.3-.5c.5 0 .8.1 1 .4s.3.6.3 1.2V65h1v-4.2c0-.8-.2-1.4-.5-1.8s-.8-.5-1.6-.5zm7.2 0c-.4 0-.8.1-1.2.3s-.6.4-.8.7l-.2-.9h-.8V65h1v-3.4c0-.8.2-1.4.5-1.8s.8-.5 1.5-.5c.5 0 .9.1 1.1.4s.4.6.4 1.2V65h1v-4.2c0-.8-.2-1.4-.6-1.8s-1.1-.5-1.9-.5zm10.6 2c.6-.2 1-.4 1.3-.7s.5-.8.5-1.3c0-.7-.2-1.2-.7-1.6s-1.1-.6-1.9-.6c-.5 0-1 .1-1.5.2s-.9.4-1.2.7l.5.7a3.6 3.6 0 012.2-.8c.5 0 .9.1 1.2.4s.4.6.4 1c0 .5-.2.9-.6 1.2s-.9.4-1.6.4h-.9v.9h.8c1.6 0 2.4.5 2.4 1.6 0 1.2-.7 1.7-2.2 1.7-.4 0-.8 0-1.2-.1s-.8-.2-1.2-.4v.9c.4.2.7.3 1.1.4s.8.1 1.2.1c1 0 1.8-.2 2.4-.7s.8-1.1.8-1.9c0-.6-.2-1-.5-1.4s-.6-.6-1.3-.7zm100.8-3.3c.6 0 1.3.2 1.9.5l.4-.9c-.7-.3-1.5-.5-2.4-.5-.8 0-1.6.2-2.2.5s-1.1.9-1.4 1.5-.5 1.4-.5 2.3c0 1.4.3 2.5 1 3.3s1.7 1.1 2.9 1.1c.9 0 1.6-.1 2.2-.3v-.9c-.8.2-1.4.3-2 .3-1 0-1.7-.3-2.2-.9s-.8-1.5-.8-2.6.3-1.9.8-2.6 1.4-.8 2.3-.8zm6.4 1.3c-.9 0-1.7.3-2.2.9s-.8 1.4-.8 2.4c0 .7.1 1.3.4 1.8.3.5.6.9 1 1.2s1 .4 1.5.4c.9 0 1.7-.3 2.2-.9s.8-1.4.8-2.5c0-1-.3-1.8-.8-2.4s-1.2-.9-2.1-.9zm1.4 5.2c-.3.4-.8.6-1.5.6s-1.1-.2-1.4-.6-.5-1.1-.5-1.9c0-.8.2-1.5.5-1.9s.8-.6 1.4-.6 1.1.2 1.5.6.5 1 .5 1.9c0 .8-.1 1.4-.5 1.9zm3.2-7.8h1V65h-1zm7.4 6.1c0 .8-.2 1.4-.5 1.8s-.8.6-1.5.6c-.5 0-.9-.1-1.1-.4s-.4-.6-.4-1.2v-4.2h-1v4.2c0 .8.2 1.4.6 1.8s1 .6 1.8.6c.5 0 .9-.1 1.2-.3s.6-.4.8-.7h.1l.1.9h.8v-6.4h-1V62h.1zm10-3.5c-.5 0-.9.1-1.2.3s-.6.5-.8.8c-.3-.7-1-1.1-2-1.1-.4 0-.8.1-1.1.3s-.6.4-.8.7l-.2-.9h-.8V65h1v-3.4c0-.8.1-1.4.4-1.8s.7-.5 1.3-.5c.5 0 .8.1 1 .4s.3.6.3 1.2V65h1v-3.6c0-.7.1-1.3.4-1.6s.7-.5 1.3-.5c.5 0 .8.1 1 .4s.3.6.3 1.2V65h1v-4.2c0-.8-.2-1.4-.5-1.8s-.8-.5-1.6-.5zm7.2 0c-.4 0-.8.1-1.2.3s-.6.4-.8.7l-.2-.9h-.8V65h1v-3.4c0-.8.2-1.4.5-1.8s.8-.5 1.5-.5c.5 0 .9.1 1.1.4s.4.6.4 1.2V65h1v-4.2c0-.8-.2-1.4-.6-1.8s-1.1-.5-1.9-.5zm11.8 3.6v-5.8h-1l-4.1 5.8v.9h4.2v2h.9v-2h1.3v-.9h-1.3zm-.9-2.8v2.8h-3.2l2.7-3.8c.2-.2.3-.6.5-.9v1.9z" fill="#A9A9B2"/></svg>