<svg data-tags="task,locked,no permission,placeholder,entity,card" xmlns="http://www.w3.org/2000/svg" viewBox="0 0 179.8 97.2"><path d="M129.7 44a1.4 1.4 0 110 2.8h-17.2a1.4 1.4 0 110-2.8h17.2zm-24 0a1.4 1.4 0 110 2.8H46.8a1.4 1.4 0 110-2.8h58.7zm-13.9-8a1.4 1.4 0 110 2.9H47a1.4 1.4 0 110-2.8h45zm38 0a1.4 1.4 0 110 2.9h-31a1.4 1.4 0 110-2.8h31z" opacity=".5"/><path d="M173.8 85a1.1 1.1 0 011.2 1.2V90h3.7a1.1 1.1 0 110 2.2H175V96a1.1 1.1 0 01-2.3 0v-3.8H169a1.1 1.1 0 110-2.2h3.7v-3.8a1.1 1.1 0 011.1-1.2zm-132-67.4l90.4.3a7.5 7.5 0 015.3 2.2l10.2 10a7.4 7.4 0 012.2 5.4v39.2a10.5 10.5 0 01-10.6 10.5H41.8a10.5 10.5 0 01-10.5-10.5V28a10.5 10.5 0 0110.5-10.4zm119 58.6a1.1 1.1 0 011.1 1.1v1.9h1.9a1.1 1.1 0 110 2.2H162v2a1.1 1.1 0 01-2.2 0v-2h-2a1.1 1.1 0 110-2.2h2v-1.9a1.1 1.1 0 011-1.1zm-119-55.6a7.5 7.5 0 00-7.5 7.4v46.7a7.5 7.5 0 007.5 7.5h97.5a7.5 7.5 0 007.6-7.5V35.5a4.5 4.5 0 00-1.4-3.2l-10.1-10.1a4.5 4.5 0 00-3.2-1.3l-90.4-.3zM6 0a1.1 1.1 0 011 1.1V5h4a1.1 1.1 0 110 2.3H7V11a1.1 1.1 0 01-2 0V7.2H1A1.1 1.1 0 111 5h4V1A1.1 1.1 0 016-.1z"/><path d="M29.6 9l90.4.3a7.5 7.5 0 015 2l.2.2 6.9 6.8-89.5-.3A10.5 10.5 0 0032 28.5V75a10.5 10.5 0 00.1 1.5h-2.6A10.5 10.5 0 0119 66.4V19.5A10.5 10.5 0 0129.2 9h.3zm83.7 57.2a1.4 1.4 0 010 2.8H64.6a1.4 1.4 0 010-2.8h48.7zm-22.5-6a1.4 1.4 0 010 2.8H64.6a1.4 1.4 0 010-2.8h26.2z" opacity=".1"/><path d="M50 51a5.3 5.3 0 015.2 4.2 1 1 0 010 .1 5.3 5.3 0 01.1 1.1v3h2a2.4 2.4 0 012.5 2.3v10.8a2.4 2.4 0 01-2.4 2.4H43a2.4 2.4 0 01-2.4-2.4V61.7a2.4 2.4 0 012.4-2.4h1.6v-3A5.3 5.3 0 0150 51zm7.4 10.4H43a.3.3 0 00-.3.3v10.8a.3.3 0 00.3.4h14.3a.3.3 0 00.3-.4V61.7a.3.3 0 00-.3-.3zm-7.2 4.3a1.7 1.7 0 011.7 1.6 1.6 1.6 0 01-.6 1.3v2.2a1 1 0 11-2 0v-2.2a1.6 1.6 0 01-.7-1.3 1.7 1.7 0 011.6-1.6zM50 53.2a3.3 3.3 0 00-3.2 2.5 1 1 0 010 .2 3.3 3.3 0 000 .4v3h6.5v-2.9a3.3 3.3 0 00-3.3-3.2z"/></svg>