<svg xmlns="http://www.w3.org/2000/svg" data-tags="charts" viewBox="0 0 27 31"><path d="M20.22.51L20.21.5h-.04c.01.01.03.01.05.01zm6.28 6.33v-.05l-.01-.01c0 .02 0 .04.01.06zm-1 1.12V31h1V7.37c-.12.3-.46.51-1 .59zM19.62.5H2C1.06.5.5 1.06.5 2v29h1V2c0-.39.11-.5.5-.5h17.04c.08-.53.28-.88.58-1z"/><path d="M5 6h9v1H5zm0 3.5h17v1H5zm0 3h17v1H5zM5 19h9v1H5zm0 3.5h17v1H5zm0 3h17v1H5z"/><path opacity=".5" d="M19 2c0-1.66.95-2.05 2.12-.88l4.76 4.76C27.05 7.05 26.65 8 25 8h-3c-1.66 0-3-1.35-3-3V2z"/></svg>