<svg xmlns="http://www.w3.org/2000/svg" data-tags="empty state" viewBox="0 0 200 93"><path d="M92.6 35a18.9 18.9 0 013.6-1.4l-.3-1c-1.3.4-2.6 1-3.8 1.6l.5.8zm3.8-8.2l1-.2.7 4-1 .1zm-4.9-.9a28 28 0 013.8-1.2l-.3-1-3.9 1.3.4.9zM77.1 38.6l-.9-.4a28 28 0 00-1.4 3.2l-1-.3-.3 1h.6a28.9 28.9 0 00-.7 2.4l1 .3c.2-1 .4-1.8.8-2.7l.3.1c.4-1.2 1-2.4 1.6-3.6zm2.8-5.7l-1.5 1.8.8.6a27.6 27.6 0 012.5-3l-.7-.7a22.9 22.9 0 00-1 1.3zm-1.4 11l.4-1 3.7 1.3-.3 1zm5.7-2l.9.5a18.5 18.5 0 012.2-3.1 17.5 17.5 0 011.9-1.9l.2-.2-.6-.7-.3.1a18.5 18.5 0 00-2 2 19.5 19.5 0 00-2.3 3.4zM84 29l.6.8a27.7 27.7 0 013.3-2.1l-.5-.9A28.8 28.8 0 0084 29zm15.5-6.5v1a29.8 29.8 0 014 0v-1a30.6 30.6 0 00-4 0zm-5.2-3l1-.1.8 3.9-1 .2zm-.5-5.3l-.5.1.3 1.3 1-.2-.1-.3a38.7 38.7 0 012.6-.3v-1l-3.3.4zm22.6 3.6a37.9 37.9 0 013.5 1.8l.5-.9a38.8 38.8 0 00-3.6-1.8l-.4 1zm5.3 13l-.7.7a28.2 28.2 0 012.6 3l.8-.7a29.3 29.3 0 00-2.7-3zm5.3-7.3a38.6 38.6 0 00-3.2-2.6l-.6.8a37.3 37.3 0 013.1 2.5l.7-.7zm-12.3 3.4a28.3 28.3 0 013.3 2l.6-.7a29.6 29.6 0 00-3.5-2.2l-.4.9zm13.1 12.6a28 28 0 00-1.1-2.3l-.9.5c.5.8 1 1.7 1.3 2.6l.2.5 1.4-.6-.4-1-.5.2zm6.8-6.6l-.9.5a35 35 0 011.5 3l-3.2 1.3.4.9 4.2-1.8-.2-.4a35.7 35.7 0 00-1.8-3.5zm-4.5-6.3l-.2-.3-.8.7.2.3 2.3 2.8.8-.6a39 39 0 00-2.3-2.9zm-29-12a39 39 0 013.9.2l.1-1-4-.2v1zm7.8.8l3.8 1 .3-1a39.4 39.4 0 00-3.9-1l-.2 1zm-1.6 8.8a29.2 29.2 0 013.8 1l.3-.9a30 30 0 00-3.9-1.1l-.2 1zM72.7 48.6a29 29 0 00-.2 4h1a28 28 0 01.2-4h-1zm-8.2 3v-.7h-1a37.8 37.8 0 00.1 4l1-.1a36.9 36.9 0 01-.1-3.2zm8.5 5c.2 1.4.5 2.7 1 4l1-.3a27.9 27.9 0 01-1-3.8l-1 .2zM64.2 59l1 4 1-.4a36.7 36.7 0 01-1-3.8l-1 .2zm7.3 14.2l-.8.5a38.4 38.4 0 002.2 2.9l.3.3.8-.7-.3-.3a37.4 37.4 0 01-2.2-2.7zm-6-30l-1-.3a37.8 37.8 0 00-.7 4l1 .1.7-3.9zm1.1 23.5a38 38 0 001.9 3.6l.8-.5a37 37 0 01-1.7-3.5l-1 .4zm-1-27.7l.6.1-.2.5 3.7 1.2.3-1-4.1-1.3zm28.2 40.6l4 .8.1-1a29 29 0 01-3.8-.8l-.3 1zM90 87.7l4 1 .2-1a37.7 37.7 0 01-3.9-1l-.3 1zM78.4 67.3a28.2 28.2 0 01-2-3.4l-.9.5a29 29 0 002 3.5l1-.6zm24 12.3h-.6v.5h-.3V84h1zm-.9 8.4v.5a37.7 37.7 0 01-3.4-.2l-.1 1 3.9.2h.6V88h-1zM86.9 75.4l-.5.8a29.3 29.3 0 003.6 2l.4-1c-1.2-.5-2.4-1.1-3.5-1.8zm-10.8 4.3a38.2 38.2 0 003.1 2.5l.6-.8a37 37 0 01-3-2.5l-.7.8zm7.6-6.6a28.5 28.5 0 01-2.8-2.7l-.8.6a29.4 29.4 0 003 2.8l.6-.7zm-1 11.3a38.5 38.5 0 003.5 1.8l.5-.9a37.5 37.5 0 01-3.6-1.8l-.5.9z" opacity=".5"/><path d="M10.5 49h-1v2.5H7v1h2.5V55h1v-2.5H13v-1h-2.5zm187 16.5V63h-1v2.5H194v1h2.5V69h1v-2.5h2.5v-1zm-194-35a3 3 0 100 6 3 3 0 000-6zm0 5a2 2 0 110-4 2 2 0 010 4zm188 39a3 3 0 100 6 3 3 0 000-6zm0 5a2 2 0 110-4 2 2 0 010 4zm-90-9A19 19 0 0187.1 64a19.1 19.1 0 01-3.5-19l.1-.5-9.3-3.2-.2.4a29 29 0 005.4 28.8 29 29 0 0022 10h.5v-10h-.6zM80.4 70A28 28 0 0175 42.5l7.5 2.6a20.1 20.1 0 003.8 19.6 20 20 0 0014.7 6.9v7.9a28 28 0 01-20.6-9.6zm43-37.4A29.2 29.2 0 0096.1 23h-.5l1.9 9.8h.5a19.2 19.2 0 0118 6.2 18.9 18.9 0 013 4.9 19.1 19.1 0 01-1.6 18.1l-.2.4 8.2 5.5.3-.4a28.8 28.8 0 002.4-27.5 28.6 28.6 0 00-4.7-7.5zm1.7 34l-6.6-4.3a20.1 20.1 0 001.5-18.7 19.9 19.9 0 00-3.3-5.2 20.2 20.2 0 00-18.4-6.6L96.8 24a28.1 28.1 0 0125.8 9.2 27.6 27.6 0 014.6 7.3 27.8 27.8 0 01-2 26.1z"/></svg>