<svg xmlns="http://www.w3.org/2000/svg" data-tags="charts" viewBox="0 0 33 35"><path d="M10.44 23.41a8.82 8.82 0 01-1.62-8.8l-3.79-1.3a12.8 12.8 0 0012.1 17.14l-.01-4.01a8.81 8.81 0 01-6.68-3.03zm13.32-11.57a8.75 8.75 0 01.7 10.64l3.34 2.21a12.81 12.81 0 001.06-12.17 12.82 12.82 0 00-14.13-7.5l.74 3.94a8.81 8.81 0 018.29 2.88z"/><g opacity=".5"><path d="M7.42 26.03a12.8 12.8 0 01-2.4-12.73l-3.77-1.29A16.81 16.81 0 004.4 28.66a16.73 16.73 0 0012.72 5.77l-.01-3.98a12.84 12.84 0 01-9.69-4.42zm3.03-14.19c.26-.31.55-.6.87-.87a8.8 8.8 0 014.15-2.01l-.74-3.94a12.78 12.78 0 00-7.31 4.2 12.54 12.54 0 00-2.4 4.08l3.79 1.3c.36-.99.91-1.93 1.64-2.76zm12.43 12.44a8.73 8.73 0 01-5.77 2.15l.01 4.01a12.76 12.76 0 0010.68-5.75l-3.34-2.21a8.66 8.66 0 01-1.58 1.8z"/><path d="M29.8 6.59A16.84 16.84 0 0013.98 1.1l.74 3.92a12.81 12.81 0 0114.13 7.5l3.67-1.58a16.23 16.23 0 00-2.72-4.35z"/></g></svg>