<svg xmlns="http://www.w3.org/2000/svg" data-tags="selected charts" viewBox="0 0 34 34"><path d="M11.04 22.79a8.82 8.82 0 01-1.63-8.8l-3.79-1.3a12.8 12.8 0 002.4 12.72 12.78 12.78 0 009.7 4.41l-.01-4a8.78 8.78 0 01-6.67-3.03zm13.31-11.57a8.7 8.7 0 011.44 2.28 8.88 8.88 0 01-.74 8.36l3.34 2.21a12.81 12.81 0 001.06-12.17 12.64 12.64 0 00-2.08-3.3c-3.1-3.57-7.72-5-12.05-4.2l.74 3.94a8.82 8.82 0 018.3 2.88z" fill="#CBD756"/><path d="M9.29 7.33c-.46.4-.89.82-1.27 1.27a12.54 12.54 0 00-2.4 4.08l3.8 1.3a8.55 8.55 0 011.62-2.76 7.94 7.94 0 01.87-.87 8.72 8.72 0 014.15-2l-.74-3.94A12.79 12.79 0 009.3 7.32zm15.76 14.53a8.45 8.45 0 01-1.57 1.8 8.74 8.74 0 01-5.78 2.16l.01 4a12.75 12.75 0 008.4-3.13 12.64 12.64 0 002.28-2.61l-3.34-2.22z" fill="#87BD66"/><path d="M8.02 25.41a12.8 12.8 0 01-2.4-12.73L1.85 11.4A16.79 16.79 0 005 28.04a16.74 16.74 0 0012.72 5.77v-3.99c-3.6 0-7.17-1.49-9.7-4.4zM30.39 5.97A16.82 16.82 0 0014.57.48l.75 3.92c4.33-.8 8.96.63 12.05 4.2a12.64 12.64 0 012.08 3.3l3.67-1.58a16.36 16.36 0 00-2.73-4.35z" fill="#40A3F5"/></svg>