<svg xmlns="http://www.w3.org/2000/svg" viewBox="0 0 668 304" data-tags="preview"><path fill="#87BD66" fill-opacity=".1" fill-rule="evenodd" d="M427 268H229V132h198z" clip-rule="evenodd"/><path fill="#a63b9f" fill-opacity=".1" fill-rule="evenodd" d="M596 268H427V132h169z" clip-rule="evenodd"/><path fill="#CBD756" fill-opacity=".1" fill-rule="evenodd" d="M229 268H72V132h157z" clip-rule="evenodd"/><path fill="#40A3F5" fill-opacity=".1" fill-rule="evenodd" d="M453 132H255V36h198z" clip-rule="evenodd"/><path fill="#4cd2df" fill-opacity=".1" fill-rule="evenodd" d="M596 132H453V36h143z" clip-rule="evenodd"/><path fill="#9E81EB" fill-opacity=".1" fill-rule="evenodd" d="M255 132H72V36h183z" clip-rule="evenodd"/><path fill="#87BD66" d="M427.5 268.5h-199v-137h199v137zm-198-1h197v-135h-197v135z"/><path fill="#a63b9f" d="M596.5 268.5h-170v-137h170v137zm-169-1h168v-135h-168v135z"/><path fill="#CBD756" d="M229.5 268.5h-158v-137h158v137zm-157-1h156v-135h-156v135z"/><path fill="#40A3F5" d="M453.5 132.5h-199v-97h199v97zm-198-1h197v-95h-197v95z"/><path fill="#4cd2df" d="M596.5 132.5h-144v-97h144v97zm-143-1h142v-95h-142v95z"/><path fill="#9E81EB" d="M255.5 132.5h-184v-97h184v97zm-183-1h182v-95h-182v95z"/></svg>