<svg xmlns="http://www.w3.org/2000/svg" data-tags="error state" viewBox="0 0 200 93"><path d="M18.5 93h-1V3A2.5 2.5 0 0120 .5h160c1.4 0 2.5 1.1 2.5 2.5v88h-1V3c0-.8-.7-1.5-1.5-1.5H20c-.8 0-1.5.7-1.5 1.5v90z" opacity=".6"/><path d="M10.5 49h-1v2.5H7v1h2.5V55h1v-2.5H13v-1h-2.5zm187 16.5V63h-1v2.5H194v1h2.5V69h1v-2.5h2.5v-1zm-194-35a3 3 0 100 6 3 3 0 000-6zm0 5a2 2 0 110-4 2 2 0 010 4zm188 39a3 3 0 100 6 3 3 0 000-6zm0 5a2 2 0 110-4 2 2 0 010 4zM58 87h40V34H58v53zm1-52h38v51H59V35zm41 24h42V34h-42v25zm1-24h40v23h-40V35z"/><g opacity=".5"><path d="M180 .5H20A2.5 2.5 0 0017.5 3v90h1V3c0-.8.7-1.5 1.5-1.5h160c.8 0 1.5.7 1.5 1.5v88h1V3A2.5 2.5 0 00180 .5z"/><path d="M101.5 61.5h-1a.5.5 0 00-.5.5v1a.5.5 0 101 0v-.5h.5a.5.5 0 100-1zm5.6 1h1.1a.5.5 0 100-1h-1a.5.5 0 100 1zm-2.2-1h-1.2a.5.5 0 100 1h1.2a.5.5 0 100-1zm13.4 0h-1.1a.5.5 0 100 1h1.1a.5.5 0 100-1zm-3.3 0h-1.2a.5.5 0 100 1h1.2a.5.5 0 100-1zm-3.4 0h-1.1a.5.5 0 100 1h1a.5.5 0 100-1zm10 0h-1a.5.5 0 100 1h.5v.5a.5.5 0 101 0v-1a.5.5 0 00-.5-.5zm0 7.8a.5.5 0 00-.5.5V71a.5.5 0 101 0v-1.3a.5.5 0 00-.5-.5zm0-4a.5.5 0 00-.5.4v1.4a.5.5 0 101 0v-1.4a.5.5 0 00-.5-.5zm0 16.1a.5.5 0 00-.5.5v1.4a.5.5 0 101 0v-1.4a.5.5 0 00-.5-.5zm0-4a.5.5 0 00-.5.5v1.3a.5.5 0 101 0V78a.5.5 0 00-.5-.5zm0-4a.5.5 0 00-.5.4v1.4a.5.5 0 101 0v-1.4a.5.5 0 00-.5-.5zm0 12.1a.5.5 0 00-.5.5v.5h-.5a.5.5 0 100 1h1a.5.5 0 00.5-.5v-1a.5.5 0 00-.5-.5zm-3.3 1h-1.1a.5.5 0 100 1h1.1a.5.5 0 100-1zm-3.3 0h-1.2a.5.5 0 100 1h1.2a.5.5 0 100-1zm-3.4 0h-1.1a.5.5 0 100 1h1a.5.5 0 100-1zm-3.4 0h-1a.5.5 0 100 1h1a.5.5 0 100-1zm-3.3 0h-1.2a.5.5 0 100 1h1.2a.5.5 0 100-1zm-3.4 0h-.5V86a.5.5 0 10-1 0v1a.5.5 0 00.5.5h1a.5.5 0 100-1zm-1.5-3.2a.5.5 0 101 0v-1.4a.5.5 0 10-1 0v1.4zm0-4a.5.5 0 101 0v-1.4a.5.5 0 10-1 0v1.3zm0-4.1a.5.5 0 101 0v-1.4a.5.5 0 10-1 0v1.4zm0-4a.5.5 0 101 0v-1.4a.5.5 0 10-1 0V71zm.5-3.6a.5.5 0 00.5-.5v-1.4a.5.5 0 10-1 0v1.4a.5.5 0 00.5.5zm38.2 4.6a.5.5 0 00-.5-.5h-2a.5.5 0 100 1h2a.5.5 0 00.5-.5zm-6 0a.5.5 0 00-.5-.5h-2a.5.5 0 100 1h2a.5.5 0 00.5-.5zm-8.2 0a.5.5 0 00.5.5h1.2a.5.5 0 100-1h-.7v-.4a.5.5 0 10-1 0v.9zm17-3.2a.5.5 0 00-.5.5v2a.5.5 0 101 0v-2a.5.5 0 00-.5-.5zm-17-1.7a.5.5 0 101 0v-2a.5.5 0 10-1 0v2zm17-4.3a.5.5 0 00-.5.5v2a.5.5 0 101 0v-2a.5.5 0 00-.5-.5zm-2.5-.5a.5.5 0 100-1h-2a.5.5 0 100 1h2zm-6 0a.5.5 0 100-1h-2a.5.5 0 100 1h2zm-8 0h2a.5.5 0 100-1h-2a.5.5 0 100 1zm14.3 24h-2a.5.5 0 100 1h2a.5.5 0 100-1zm-6 0h-2a.5.5 0 100 1h2a.5.5 0 100-1zm-6 0h-2a.5.5 0 100 1h2a.5.5 0 100-1zm14.2-3.8a.5.5 0 00-.5.5v2a.5.5 0 101 0v-2a.5.5 0 00-.5-.5zm-16 .6v-2a.5.5 0 10-1 0v2a.5.5 0 101 0zm16-6.6a.5.5 0 00-.5.5v2a.5.5 0 101 0v-2a.5.5 0 00-.5-.5zm-17 .6a.5.5 0 101 0v-1.1h1.5a.5.5 0 100-1h-2a.5.5 0 00-.5.5v1.6zm14.5-1.1a.5.5 0 100-1h-2a.5.5 0 100 1h2zm-6 0a.5.5 0 100-1h-2a.5.5 0 100 1h2z"/></g><path fill-rule="evenodd" d="M97.4 26.4c1.4-2.3 3.8-2.3 5.2 0l8 13.2 15 24.5c1.4 2.3.3 4.2-2.5 4.2H77c-2.8 0-3.9-1.9-2.4-4.2l22.9-37.7z" clip-rule="evenodd"/><g fill="#FFF" fill-rule="evenodd" clip-rule="evenodd"><path d="M126 63.8l-23-37.6c-.8-1.3-1.8-2-3-2s-2.2.7-3 2L74 63.8c-.8 1.3-.9 2.5-.3 3.5.5 1 1.6 1.5 3.2 1.5H123c1.6 0 2.7-.5 3.2-1.5.6-1 .5-2.2-.3-3.5zm-.5 3c-.4.7-1.2 1-2.4 1H77c-1.2 0-2-.3-2.4-1-.3-.6-.2-1.5.4-2.5l23-37.6c.5-1 1.3-1.5 2.1-1.5s1.6.5 2.2 1.5L125 64.3c.6 1 .7 1.9.4 2.5z"/><path d="M98.8 57.3h3.2v3.2h-3.2zm0-17.3h3.2v14.2h-3.2z"/></g></svg>