<svg data-tags="illustration,activate,start" xmlns="http://www.w3.org/2000/svg" viewBox="0 0 40 40"><path d="M39.566 9.728a.484.484 0 00-.017-.07.497.497 0 00-.155-.193l-.008-.003-.004-.004-1.42-.97a.496.496 0 00-.437-.063l-4.26 1.4.005-.922a.49.49 0 00-.05-.212c-.005-.012-.014-.02-.02-.032a.49.49 0 00-.15-.163c-.01-.007-.014-.02-.025-.026l-1.57-.93a.505.505 0 00-.396-.05l-7 2.05c-.018.005-.028.022-.044.029-.02.008-.042.005-.061.015-.03.017-.046.048-.07.07a.467.467 0 00-.082.08.476.476 0 00-.064.146c-.009.027-.03.047-.034.076-.002.01.005.02.005.03-.001.013-.01.022-.01.034v2.62h-1.63a.479.479 0 00-.086.024.509.509 0 00-.148.04.487.487 0 00-.09.08.464.464 0 00-.09.077l-3.1 4.619H15.21c-.013 0-.023.008-.036.009a.488.488 0 00-.126.031.48.48 0 00-.093.037c-.009.005-.02.005-.028.01L.617 27.399a.501.501 0 00-.182.597l.55 1.38.003.004a.496.496 0 00.118.171.487.487 0 00.047.032.485.485 0 00.13.074c.008.003.013.01.021.012a.512.512 0 00.146.022h5.14a.502.502 0 00.284-.088l6.593-4.528-1.562 2.327a.501.501 0 00-.015.535l.9 1.51c.008.013.023.02.032.031a.488.488 0 00.114.113.475.475 0 00.057.039.49.49 0 00.184.052c.01.001.02.009.03.009h6.563a.5.5 0 00.415-.221l3.515-5.237v4.658a.5.5 0 00.244.43l1.56.93a.5.5 0 00.414.044l4.262-1.42v.316a.5.5 0 00.218.413l1.42.97a.5.5 0 00.282.087.492.492 0 00.158-.026l6.95-2.32a.5.5 0 00.342-.473l.05-17.97a.492.492 0 00-.034-.143zM13.17 24.064a1.016 1.016 0 00-.85-.479 1.034 1.034 0 00-1.034 1.034 1.009 1.009 0 00.21.594l-5.06 3.477H3.061l12.855-8.83h1.049l-1.989 2.963zm6.333 4.626H14.16l5.156-7.67a.597.597 0 00.035-.063l3.896-5.797h.454v3.227a1.006 1.006 0 00-.303-.061 1.034 1.034 0 000 2.068 1.006 1.006 0 00.303-.061v2.105zm6.757.436V11.334l6.006-1.765-.004.585-1.74.572c-.013.004-.02.017-.033.023-.014.005-.03.002-.042.009-.032.017-.048.048-.075.07a.953.953 0 00-.187.303c-.002.012.006.023.005.034-.001.013-.01.023-.01.035V18c-.033-.003-.06-.019-.094-.019a1.034 1.034 0 000 2.068c.033 0 .061-.016.094-.019v7.791zm12.291-1.647L32.6 29.466V12.532l5.105-1.677.893-.293z"/><path d="M19.209 24.856a1.034 1.034 0 101.034 1.034 1.034 1.034 0 00-1.034-1.034zm16.715-1.676a1.034 1.034 0 101.034 1.034 1.034 1.034 0 00-1.034-1.034zm.71-7.588a1.034 1.034 0 10-1.034 1.034 1.034 1.034 0 001.034-1.034z"/></svg>