<svg data-tags="listening, illustration, visual" xmlns="http://www.w3.org/2000/svg" viewBox="0 0 40 40"><path d="M24.25 13.2a2.19 2.19 0 10-2.1-2.18 2.15 2.15 0 002.1 2.19z"/><path d="M39.78 6.9a.98.98 0 00-.02-.12.97.97 0 000-.11l-.02-.03a.98.98 0 00-.05-.13 1 1 0 00-.05-.13.98.98 0 00-.1-.1.99.99 0 00-.08-.11 1 1 0 00-.1-.08.97.97 0 00-.13-.08L39.22 6a2.92 2.92 0 01-.23-.08L11.03-.07a.98.98 0 00-.83.2L7.74 2.07h-.01l-.03.04a.98.98 0 00-.2.26.95.95 0 00-.06.1 1 1 0 00-.08.35v.03l.03 11.5-3.79-.65a1 1 0 00-.81.22L.54 15.8c-.02 0-.02.02-.02.02a.99.99 0 00-.22.29.96.96 0 00-.04.08.99.99 0 00-.08.37v18.96a1 1 0 00.83.98l20.77 3.56a.99.99 0 00.17.02 1 1 0 00.64-.24l2.26-1.9a1 1 0 00.35-.76v-9.95l10.95 2.34a.94.94 0 00.19.02h.02a1 1 0 00.33-.06l.03-.02a1 1 0 00.25-.13l2.47-1.93a1 1 0 00.39-.8zM9.36 4.08l4.5.96 21.45 4.6.04 14.42v3.3l-.12-.04-4.7-9a1.61 1.61 0 00-1.52-.56c-.58.1-.91.5-1.4 1.08a3.25 3.25 0 00-.22.29l-2.19 2.54v-3.43a6.33 6.33 0 01-.03-.26v-.01a.99.99 0 00-.07-.15 1.02 1.02 0 00-.05-.11 9.12 9.12 0 00-.18-.22l-.08-.05a.99.99 0 00-.16-.1 8.18 8.18 0 01-.26-.09h-.02l-4.83-.83-1.76-4.3a2.22 2.22 0 00-2.5-1.01c-.91.3-1.31 1.07-1.76 2.05l-.99 2.06-3.12-.54zM2.18 17.77l6.1 1.05 2.6.44L20.94 21v16.9L2.18 34.7z"/><path d="M16.17 33.6l-2.26-3.36a1.23 1.23 0 00-.62-.46l-.46-.68a4.86 4.86 0 00.64-.73 4.79 4.79 0 00.82-3.6 4.82 4.82 0 10-4.76 5.63 5.03 5.03 0 00.82-.07 4.85 4.85 0 00.75-.2l.53.77a1.23 1.23 0 00.19.75l2.26 3.36a1.26 1.26 0 002.29-.47 1.24 1.24 0 00-.2-.94zm-6.16-5.24a2.82 2.82 0 112.31-3.26 2.82 2.82 0 01-2.3 3.26z"/></svg>