<svg xmlns="http://www.w3.org/2000/svg" xmlns:xlink="http://www.w3.org/1999/xlink" viewBox="0 0 212 136"><defs><linearGradient id="placeholder_volumetricAlert__a" x1="182.69" x2="138.56" y1="110.54" y2="110.54" gradientTransform="matrix(1 0 0 -1 0 136.11)" gradientUnits="userSpaceOnUse"><stop offset="0" stop-color="#f7f7fc"/><stop offset="1" stop-color="#ebebef"/></linearGradient><linearGradient id="placeholder_volumetricAlert__b" x1="182.69" x2="138.56" y1="79.18" y2="79.18"><stop offset="0" stop-color="#f7f7fc"/><stop offset="1" stop-color="#ebebef"/></linearGradient><linearGradient id="placeholder_volumetricAlert__c" x1="182.69" x2="138.56" y1="57.04" y2="57.04"><stop offset="0" stop-color="#f7f7fc"/><stop offset="1" stop-color="#ebebef"/></linearGradient><linearGradient id="placeholder_volumetricAlert__d" x1="182.69" x2="138.56" y1="25.68" y2="25.68"><stop offset="0" stop-color="#f7f7fc"/><stop offset="1" stop-color="#ebebef"/></linearGradient></defs><rect width="210.45" height="135.01" x=".77" y=".5" fill="#fff" rx="8.44"/><path fill="#eee" d="M202.79 136H9.2a8.94 8.94 0 01-8.93-8.93V8.93A8.94 8.94 0 019.2 0h193.6a8.94 8.94 0 018.93 8.93v118.14a8.94 8.94 0 01-8.93 8.93zM9.2 1a7.95 7.95 0 00-7.94 7.93v118.14A7.95 7.95 0 009.21 135H202.8a7.95 7.95 0 007.94-7.94V8.93A7.95 7.95 0 00202.79 1z"/><path fill="#ac56ae" d="M18.4 80.35a41.22 41.22 0 1060.43-46.37l-16.28 28.2a8.66 8.66 0 11-12.69 9.74z"/><path fill="#fb8f53" d="M98.47 78.58a41.22 41.22 0 10-75 13.27l27.45-17.52a8.66 8.66 0 1115.75-2.78z"/><path fill="#5cc8c3" d="M99.44 70.5a41.22 41.22 0 10-70.95 27.74L52 75.67a8.66 8.66 0 1114.89-5.82z"/><rect width="15.92" height="15.92" x="111.36" y="17.38" fill="#ac56ae" rx="1.99"/><rect width="15.92" height="15.92" x="111.36" y="49.21" fill="#5cc8c3" rx="1.99"/><rect width="15.92" height="15.92" x="111.36" y="102.71" fill="#fb8f53" rx="1.99"/><rect width="54.13" height="15.44" x="137.67" y="17.85" fill="url(#placeholder_volumetricAlert__a)" rx="1.99"/><rect width="54.13" height="15.44" x="137.67" y="49.21" fill="url(#placeholder_volumetricAlert__b)" rx="1.99"/><rect width="54.13" height="15.44" x="137.67" y="71.35" fill="url(#placeholder_volumetricAlert__c)" rx="1.99"/><rect width="54.13" height="15.44" x="137.67" y="102.71" fill="url(#placeholder_volumetricAlert__d)" rx="1.99"/></svg>
