<svg xmlns="http://www.w3.org/2000/svg" data-tags="empty state" viewBox="0 0 200 93"><path d="M10.5 51.5V49h-1v2.5H7v1h2.5V55h1v-2.5H13v-1h-2.5zm187 14V63h-1v2.5H194v1h2.5V69h1v-2.5h2.5v-1h-2.5zm-194-29a3 3 0 110-6 3 3 0 010 6zm0-5a2 2 0 100 4 2 2 0 000-4zm188 49a3 3 0 110-6 3 3 0 010 6zm0-5a2 2 0 100 4 2 2 0 000-4z"/><path fill-rule="evenodd" d="M128.4 37.5v7.1c0 .9.2 1.5.5 2.1.5.8 1.3 1.2 2.4 1.2 1.3 0 2.2-.4 2.6-1.3.3-.5.4-1.2.4-2v-7h1.6V44c0 1.4-.2 2.5-.6 3.2-.7 1.4-2 2.1-4 2.1s-3.2-.7-3.9-2c-.3-.8-.5-2-.5-3.3v-6.5h1.5zm-60.2 2.2c.7.7 1 1.4 1.2 2.3H68c-.1-.7-.4-1.2-.9-1.6s-1-.5-1.8-.5c-1 0-1.8.3-2.4 1s-1 1.8-1 3.2c0 1.2.3 2.1.9 2.9s1.3 1 2.4 1c1 0 1.8-.3 2.3-1 .3-.5.5-1 .6-1.7h1.4c-.2 1-.5 2-1.2 2.7-.8.8-1.9 1.3-3.2 1.3-1.2 0-2.2-.4-3-1.1-1-1-1.5-2.4-1.5-4.3 0-1.5.4-2.7 1.1-3.7.9-1 2-1.5 3.5-1.5 1.3 0 2.3.3 3 1zm16 7L87 58.3l3.2-11.6h2.1l3.3 11.6 2.7-11.6h2.1L96.6 61h-2l-3.3-11.9L88 61h-2l-3.8-14.3h2zm28.3 1c1 1 1.5 2 1.7 3.3h-2a4 4 0 00-1.2-2.2 4 4 0 00-2.7-.8c-1.4 0-2.6.4-3.4 1.4-1 1-1.3 2.6-1.3 4.6 0 1.7.3 3 1.1 4.1.8 1 2 1.6 3.5 1.6s2.6-.6 3.3-1.7c.4-.6.7-1.3.9-2.3h1.9a6.5 6.5 0 01-1.7 3.8 6 6 0 01-4.6 1.9 6 6 0 01-4.2-1.5c-1.5-1.4-2.2-3.4-2.2-6.2 0-2.1.5-3.9 1.6-5.2a6.1 6.1 0 015-2.2c1.9 0 3.3.4 4.3 1.4zM86.7 68a3 3 0 011 2h-1.2c-.1-.6-.4-1-.7-1.3s-1-.5-1.7-.5c-.8 0-1.5.3-2 .9s-.8 1.5-.8 2.7c0 1 .2 1.8.7 2.5s1.2.9 2.1.9c.9 0 1.5-.3 2-1 .2-.3.4-.8.5-1.4h1.2c-.2 1-.5 1.7-1 2.3-.7.8-1.7 1.1-2.8 1.1-1 0-1.9-.3-2.5-.9-1-.8-1.4-2-1.4-3.7 0-1.3.4-2.3 1-3.1.8-.9 1.8-1.3 3-1.3 1.1 0 2 .2 2.6.8z" clip-rule="evenodd"/><path fill-rule="evenodd" d="M107.6 73.4h-1.2V82h5.5v-1h-4.3zm28.8-14.1c-2.4 0-4.2.8-5.5 2.6-1 1.4-1.4 3-1.4 5 0 2.1.5 4 1.7 5.3 1.2 1.5 3 2.2 5.2 2.2 2.3 0 4.2-.8 5.4-2.5 1.1-1.4 1.7-3.2 1.7-5.3a8 8 0 00-1.5-4.9c-1.2-1.6-3-2.4-5.6-2.4zm4 11.5c-.8 1.3-2 1.9-3.8 1.9-1.8 0-3.1-.6-4-1.7-.7-1-1.1-2.4-1.1-4 0-2 .5-3.5 1.4-4.5s2.1-1.5 3.6-1.5c1.6 0 2.8.5 3.6 1.5a6 6 0 011.4 4.1c0 1.6-.4 3-1.2 4.2zM97 24.2h-4.3V35H97a4 4 0 003.9-2.4c.4-1 .6-2 .6-3.1 0-1.5-.3-2.7-1-3.7-.9-1-2-1.6-3.5-1.6zm3 6.6c-.2.7-.4 1.3-.7 1.7-.3.5-.8 1-1.4 1.1a4 4 0 01-1.2.2h-2.6v-8.3h2.6c1.2 0 2 .4 2.6 1.1a6.4 6.4 0 01.7 4.2zM55.4 57.2h-1.5V68h7v-1.3h-5.5z" clip-rule="evenodd" opacity=".5"/></svg>