<svg data-tags="add to left, cells, table, grid, column" xmlns="http://www.w3.org/2000/svg"  viewBox="0 0 14 14"><path d="M13.293.974h-2.045c-.008 0-.016-.005-.025-.005-.008 0-.015.005-.024.005H.707A.707.707 0 000 1.681v10.648a.707.707 0 00.707.706h12.586A.707.707 0 0014 12.33V1.68a.707.707 0 00-.707-.707zm-2.776 10.648H1.413V2.388h9.104z"/><path d="M3.706 7.65H5.32v1.613a.645.645 0 001.29 0V7.65h1.614a.645.645 0 000-1.29H6.609V4.747a.645.645 0 10-1.289 0v1.615H3.706a.645.645 0 100 1.289z"/></svg>