<svg data-deprecated="solid/ArchiveReddit.svg"  data-tags="file,reddit" xmlns="http://www.w3.org/2000/svg" viewBox="0 0 14 14"><path d="M12.783 4.203H1.217a.612.612 0 00-.612.611V13.3a.612.612 0 00.612.612h11.566a.611.611 0 00.611-.612V4.814a.611.611 0 00-.611-.611zm-.611 8.486H1.828V5.426h10.344z"/><path d="M4.722 7.805h4.556a.612.612 0 000-1.224H4.722a.612.612 0 100 1.224zM13.325.499H.675a.612.612 0 00-.612.611v1.984a.612.612 0 00.612.612h12.65a.611.611 0 00.612-.612V1.11A.612.612 0 0013.325.5zm-.61 1.983H1.286v-.76h11.427z"/></svg>