<svg data-deprecated="solid/Audience.svg"  xmlns="http://www.w3.org/2000/svg" viewBox="0 0 14 14" data-tags="user group,multiple user"><path d="M7.59 7.08a2.9 2.9 0 10-4.72-.1 5.49 5.49 0 00-2.85 3.2 1.3 1.3 0 001.24 1.7l3.89.02h3.83a1.3 1.3 0 001.24-1.7 5.5 5.5 0 00-2.63-3.12zM3.37 5.37a1.9 1.9 0 113.79 0c0 .5-.21.98-.55 1.32-.33.35-.81.57-1.34.57-.57 0-1.08-.25-1.41-.64a1.81 1.81 0 01-.5-1.25zm5.86 5.4a.3.3 0 01-.25.13H5.15l-3.9-.01a.29.29 0 01-.24-.13c-.04-.06-.08-.15-.04-.26a4.4 4.4 0 012.65-2.76 2.86 2.86 0 003.18.07 4.47 4.47 0 012.47 2.7c.04.12 0 .2-.04.26z"/><path d="M13.93 6.64c-.23-.7-.68-1.3-1.24-1.72A2.04 2.04 0 0011 1.7a2.04 2.04 0 00-1.86 2.9c-.2.08-.36.19-.53.3a.5.5 0 00-.11.7.5.5 0 00.7.11c.19-.14.39-.25.6-.32a2.01 2.01 0 002.08.2c.5.3.89.78 1.09 1.38a.2.2 0 01-.03.19c-.02.02-.08.09-.18.09h-2.11a.5.5 0 00-.5.5c0 .27.22.5.5.5h2.1a1.22 1.22 0 001.17-1.6zm-3.96-2.9a1.05 1.05 0 012.09 0c0 .27-.1.52-.27.7-.2.22-.47.35-.78.35-.38 0-.71-.2-.9-.5a1 1 0 01-.14-.55z"/></svg>