<svg data-deprecated="solid/AudioWave.svg"  data-tags="sound,voice,union,wave,voice bot,speak" xmlns="http://www.w3.org/2000/svg" viewBox="0 0 14 14"><path d="M1.234 2.63a.7.7 0 00-.7.7v7.312a.7.7 0 101.4 0V3.329a.7.7 0 00-.7-.7zM4.165.155a.7.7 0 00-.7.7v12.261a.7.7 0 101.4 0V.855a.7.7 0 00-.7-.7zm2.933 1.237a.7.7 0 00-.7.7v9.806a.7.7 0 001.4 0V2.092a.7.7 0 00-.7-.7zM10.03.155a.7.7 0 00-.7.7v12.261a.7.7 0 101.4 0V.855a.7.7 0 00-.7-.7zm2.932 2.475a.7.7 0 00-.7.7v7.312a.7.7 0 101.4 0V3.329a.7.7 0 00-.7-.7z"/></svg>