<svg data-tags="tick list,approved,text" xmlns="http://www.w3.org/2000/svg" viewBox="0 0 14 14"><path d="M7.572 5.273H.803a.754.754 0 00-.752.752.754.754 0 00.752.752h6.769a.754.754 0 00.752-.752.754.754 0 00-.752-.752zm0-3.008H.803a.754.754 0 00-.752.752.754.754 0 00.752.752h6.769a.754.754 0 00.752-.752.754.754 0 00-.752-.752zM.803 9.786h3.76a.754.754 0 00.753-.753.754.754 0 00-.752-.752H.804a.754.754 0 00-.753.752.754.754 0 00.752.753zm11.943-2.527L10.084 9.92l-1.06-1.06a.749.749 0 00-1.06 0 .749.749 0 000 1.06l1.594 1.594a.749.749 0 001.06 0l3.189-3.189a.749.749 0 000-1.06.742.742 0 00-1.06-.007z"/></svg>