<svg data-deprecated="solid/Bot.svg"  data-tags="AI,Smart,robot" xmlns="http://www.w3.org/2000/svg" viewBox="0 0 14 14"><g><path d="M5.7 7.55a.99.99 0 10-1.99 0 .99.99 0 001.98 0zm3.66-.99a.99.99 0 100 1.98.99.99 0 000-1.98zM8.25 10.1h-2.5a.5.5 0 100 1h2.5a.5.5 0 100-1z"/><path d="M13.16 7.06h-.31V5.73c0-.96-.78-1.73-1.73-1.73H7.59v-.49a1.55 1.55 0 10-1.3-.04V4h-3.3c-.95 0-1.72.77-1.72 1.73v1.33H.84A.84.84 0 000 7.9v1.66c0 .46.38.84.84.84h.43v1.33c0 .95.77 1.73 1.72 1.73h8.13c.95 0 1.73-.78 1.73-1.73V10.4h.31c.46 0 .84-.38.84-.84V7.9a.84.84 0 00-.84-.84zm-1.61 4.67c0 .24-.2.43-.43.43H2.99a.43.43 0 01-.43-.43v-6c0-.24.2-.43.43-.43h8.13c.23 0 .43.2.43.43v6z"/></g></svg>