<svg data-deprecated="solid/Rule.svg"  data-tags="rule,rule engine,node" xmlns="http://www.w3.org/2000/svg" viewBox="0 0 14 14"><path d="M8.9 1.2H5.1a.13.13 0 00-.14.12v1.91a.13.13 0 00.13.13h3.82a.13.13 0 00.13-.13v-1.9a.13.13 0 00-.13-.14zm3.25 9.98a.8.8 0 10.8.8.8.8 0 00-.8-.8zm-5.15 0a.8.8 0 10.8.8.8.8 0 00-.8-.8zm-5.15 0a.8.8 0 10.8.8.8.8 0 00-.8-.8zm7.06-11a1.15 1.15 0 011.14 1.14v1.91a1.15 1.15 0 01-1.14 1.15H7.58v2.18h3.46a1.7 1.7 0 011.7 1.7v1.96a1.85 1.85 0 11-1.06-.04V8.25a.64.64 0 00-.64-.64H7.58v2.6a1.85 1.85 0 11-1.05-.03V7.61H3.08a.64.64 0 00-.65.64v1.97a1.85 1.85 0 11-1.05-.04V8.25a1.7 1.7 0 011.7-1.7h3.45V4.39H5.1a1.15 1.15 0 01-1.14-1.06V1.33A1.15 1.15 0 015.09.17z"/></svg>
