<svg data-deprecated="solid/Call.svg"  data-tags="telephone,number,phone" xmlns="http://www.w3.org/2000/svg" viewBox="0 0 14 13.888"><path d="M12.694 11.004a.428.428 0 01-.18.36l-.962.962a.62.62 0 00-.136.206c-.664.42-1.875.26-3.289-.446a14.186 14.186 0 01-3.605-2.644 14.186 14.186 0 01-2.644-3.605c-.78-1.562-.9-2.884-.3-3.485l.961-1.022.36-.18a.867.867 0 01.782.18l1.983 2.043a.608.608 0 01.24.42.805.805 0 01-.48.782l-1.191.57a.725.725 0 00-.252.09.778.778 0 00-.099.11.483.483 0 00-.05.056.68.68 0 00-.058.1.5.5 0 00-.036.089.527.527 0 00.063.487A14.323 14.323 0 005.604 8.24q1.081.992 2.163 1.803l.098.045c.009.004.013.011.022.015.015.009.03.008.045.016l.027.009a.52.52 0 00.71-.265l.66-1.382A.729.729 0 0110.11 8a1.505 1.505 0 01.42.24l1.984 1.983a.867.867 0 01.18.781zm.72-1.682l-1.982-1.983a1.864 1.864 0 00-1.082-.54 2.026 2.026 0 00-2.042 1.14l-.33.69a34.43 34.43 0 01-1.473-1.29 10.232 10.232 0 01-1.198-1.337l.597-.285a2.074 2.074 0 001.142-2.043 2.03 2.03 0 00-.541-1.142L4.522.55A2.155 2.155 0 002.54.07a1.713 1.713 0 00-.84.48l-.962.962c-1.022.961-.962 2.703.06 4.806a15.592 15.592 0 002.884 3.906 15.201 15.201 0 003.906 2.884 6.513 6.513 0 002.884.781 2.92 2.92 0 001.982-.66.595.595 0 00.15-.27l.812-.812a2.358 2.358 0 00.48-.841 1.881 1.881 0 00-.48-1.983z" /></svg>
