<svg data-tags="cards,ID card,identification" xmlns="http://www.w3.org/2000/svg" viewBox="0 0 14 14"><path d="M12.402 2.08H1.598A1.545 1.545 0 00.054 3.624v6.752a1.545 1.545 0 001.544 1.544h10.804a1.545 1.545 0 001.544-1.544V3.624a1.545 1.545 0 00-1.544-1.544zm.143 8.296a.144.144 0 01-.143.144H1.598a.144.144 0 01-.143-.144V3.624a.144.144 0 01.143-.144h10.804a.144.144 0 01.143.144z"/><path d="M10.545 4.974H5.48a.506.506 0 000 1.013h5.064a.506.506 0 100-1.013zm0 1.688h-7.09a.506.506 0 100 1.013h7.09a.506.506 0 100-1.013zm0 1.688h-7.09a.506.506 0 100 1.013h7.09a.506.506 0 100-1.013z"/></svg>