<svg data-deprecated="solid/Catalogue.svg"  data-tags="catalog,inventory,file,register,record,index,directory" xmlns="http://www.w3.org/2000/svg" viewBox="0 0 14 14"><path d="M13.395 1.666h-1.85V3.58h1.844a.602.602 0 00.602-.602v-.718a.596.596 0 00-.596-.595zM13.395 4.922h-1.85v1.915h1.844a.602.602 0 00.602-.602v-.718a.596.596 0 00-.596-.595zM13.395 8.218h-1.85v1.916h1.844a.602.602 0 00.602-.602v-.718a.596.596 0 00-.596-.596z"/><path d="M12.014 11.595a.5.5 0 00-.5.5l-.004.669H2.524l-.388.005c-.428.003-.918.015-1.049-.113a.534.534 0 01-.078-.342v-.4h8.715a1 1 0 001-1V1.228a1.001 1.001 0 00-1-1H1.009a1.001 1.001 0 00-1 1v11.086a1.42 1.42 0 00.377 1.055 1.942 1.942 0 001.433.403c.11 0 .222-.002.335-.004l9.356-.004a1.005 1.005 0 001.004-1.004v-.665a.5.5 0 00-.5-.5zm-2.29-.68v.5-.5zM1.01 1.227h8.715l-.001 9.686H1.009V1.228z"/><path d="M3.333 5.798H7.4a1 1 0 001-1V3.56a1 1 0 00-1-1H3.333a1.001 1.001 0 00-1 1v1.238a1.001 1.001 0 001 1zm4.068-1v.5-.5zM3.333 3.56H7.4v1.238H3.333z"/></svg>
