<svg data-tags="text formatting,edit text,case chane" xmlns="http://www.w3.org/2000/svg" viewBox="0 0 20 12"><path d="M8.532 10.473L7.98 9.021H3.278l-.552 1.484a5.158 5.158 0 01-.553 1.17.876.876 0 01-.75.305 1.095 1.095 0 01-.78-.324.994.994 0 01-.34-.733 1.656 1.656 0 01.08-.49q.078-.253.26-.702L3.6 2.221q.126-.324.305-.776A3.764 3.764 0 014.284.69a1.531 1.531 0 01.527-.486 1.633 1.633 0 01.81-.185 1.638 1.638 0 01.816.185 1.599 1.599 0 01.53.478 3.414 3.414 0 01.337.626q.14.336.352.896l3.022 7.463a3.755 3.755 0 01.355 1.239 1.02 1.02 0 01-.336.737 1.097 1.097 0 01-.808.336 1.038 1.038 0 01-.474-.1.961.961 0 01-.33-.268 2.33 2.33 0 01-.288-.52 25.35 25.35 0 01-.265-.619zm-4.639-3.21H7.35L5.605 2.488zm13.445 3.502a6.634 6.634 0 01-1.51.91 4.214 4.214 0 01-1.638.305 3.1 3.1 0 01-1.455-.327 2.39 2.39 0 01-.967-.888 2.308 2.308 0 01-.34-1.215 2.173 2.173 0 01.56-1.507 2.808 2.808 0 011.54-.836q.205-.047 1.017-.213t1.393-.304q.577-.138 1.258-.335a2.25 2.25 0 00-.343-1.25 1.535 1.535 0 00-1.259-.399 2.606 2.606 0 00-1.234.229 1.988 1.988 0 00-.71.686 7.729 7.729 0 01-.42.605.687.687 0 01-.523.145.917.917 0 01-.628-.234.759.759 0 01-.264-.595 1.823 1.823 0 01.403-1.104 2.877 2.877 0 011.254-.884 5.64 5.64 0 012.122-.347 5.992 5.992 0 012.233.336 2.065 2.065 0 011.147 1.06 4.63 4.63 0 01.336 1.926q0 .757-.005 1.285c-.002.352-.006.745-.011 1.176a4.371 4.371 0 00.2 1.265 3.932 3.932 0 01.202.85.79.79 0 01-.312.602 1.033 1.033 0 01-.705.273.957.957 0 01-.655-.31 4.608 4.608 0 01-.686-.905zm-.142-3.116a10.772 10.772 0 01-1.378.366q-.902.194-1.25.284a1.706 1.706 0 00-.662.356.908.908 0 00-.316.737 1.086 1.086 0 00.371.832 1.367 1.367 0 00.97.344 2.519 2.519 0 001.18-.281 1.865 1.865 0 00.793-.721 3.306 3.306 0 00.292-1.61z"/></svg>