<svg data-deprecated="solid/ChatTriggerEllipsis.svg"  data-tags="live chat" xmlns="http://www.w3.org/2000/svg" viewBox="0 0 14 14"><path d="M2.4 13.8c-.2-.1-.3-.2-.3-.4v-2.6h-.4C.7 10.8 0 10 0 9.1V1.9C0 .9.8.2 1.7.2h10.5c1 0 1.7.8 1.7 1.7v7.2c0 1-.8 1.7-1.7 1.7H5.7l-2.8 2.8c-.2.2-.4.3-.5.2zM.8 1.9v7.2c0 .5.4.9.9.9h.8c.3 0 .5.2.5.5v2l2.2-2.3c.1-.1.2-.2.3-.2h6.8c.5 0 .9-.4.9-.9V1.9c0-.5-.4-.9-.9-.9H1.7c-.5 0-.9.4-.9.9zm5.4 3.6c0-.5.4-.8.8-.8.5 0 .8.4.8.8 0 .5-.3.8-.8.8s-.8-.3-.8-.8zm3.1 0c0-.5.4-.8.8-.8.5 0 .8.4.8.8 0 .5-.3.8-.8.8s-.8-.3-.8-.8zM3 5.5c0-.5.4-.8.8-.8.5 0 .8.4.8.8 0 .5-.4.8-.8.8S3 6 3 5.5z"/></svg>