<svg data-tags="code,svg,block code" xmlns="http://www.w3.org/2000/svg" viewBox="0 0 14 14"><path d="M7.686 5.926a.754.754 0 0 0 .75.838.757.757 0 0 0 .468-.164l2.315-1.849a.754.754 0 0 0 .12-1.056.814.814 0 0 0-.125-.125L8.899 1.76a.753.753 0 1 0-.927 1.185L9.535 4.17l-1.57 1.254a.749.749 0 0 0-.279.503ZM4.885 8.36a.724.724 0 0 0 .157.015.756.756 0 0 0 .736-.598l1.37-6.708a.755.755 0 0 0-.582-.893.746.746 0 0 0-.15-.014.756.756 0 0 0-.741.596l-1.37 6.708a.754.754 0 0 0 .58.893ZM3.017 6.708a.754.754 0 0 0 .48-1.334l-1.525-1.26 1.52-1.232a.754.754 0 0 0-.475-1.34.746.746 0 0 0-.473.168L.308 3.522a.753.753 0 0 0-.11 1.06.707.707 0 0 0 .104.106l2.236 1.848a.753.753 0 0 0 .48.172Z"/><path d="M13.273.462h-1.27a.698.698 0 1 0 0 1.397h.571V12.44H1.992v-4.27a.698.698 0 0 0-1.397 0v4.969a.698.698 0 0 0 .698.699h11.98a.698.698 0 0 0 .698-.699V1.16a.698.698 0 0 0-.698-.698Z"/></svg>