<svg data-deprecated="solid/Code.svg"  data-tags="code snippet,embed" xmlns="http://www.w3.org/2000/svg" viewBox="0 0 14 14"><path d="M5.433 13.147a.605.605 0 01-.585-.76l2.94-11.084a.605.605 0 111.17.31l-2.94 11.084a.607.607 0 01-.585.45zm5.152-2.732a.604.604 0 01-.436-1.027l2.395-2.478-2.388-2.389a.606.606 0 01.858-.856l2.809 2.81a.606.606 0 01.007.849l-2.81 2.906a.605.605 0 01-.435.185zm-7.169 0a.603.603 0 01-.428-.178l-2.81-2.81A.605.605 0 01.17 6.58l2.81-2.907a.605.605 0 11.871.842L1.455 6.992l2.389 2.389a.606.606 0 01-.428 1.034z"/></svg>