<svg data-tags="delete, cells, table, grid, column" xmlns="http://www.w3.org/2000/svg" viewBox="0 0 14 14"><path d="M4.52 9.453a.707.707 0 001 0l1.449-1.449 1.448 1.45a.707.707 0 001-1l-1.449-1.45 1.449-1.448a.707.707 0 00-1-1l-1.449 1.45-1.449-1.45a.707.707 0 00-.999 1l1.449 1.449L4.52 8.454a.707.707 0 000 1z"/><path d="M13.3.964H.713a.707.707 0 00-.706.707v10.655a.707.707 0 00.706.707H2.04c.007 0 .013.004.02.004s.013-.004.02-.004h9.78c.007 0 .013.004.02.004s.012-.004.02-.004h1.4a.707.707 0 00.708-.707V1.671A.707.707 0 0013.3.964zm-2.128 10.655H2.766V2.377h8.406z"/></svg>