<svg data-tags="delete, cells, table, grid, row" xmlns="http://www.w3.org/2000/svg" viewBox="0 0 14 14"><path d="M13.98 2.757a.665.665 0 00.02-.098.665.665 0 00-.02-.097V1.68a.706.706 0 00-.705-.706H.705A.706.706 0 000 1.68v10.64a.706.706 0 00.706.706h12.569a.706.706 0 00.705-.706v-1.215a.665.665 0 00.02-.098.665.665 0 00-.02-.097zM12.57 10.3H1.412V3.365h11.157z"/><path d="M4.545 9.278a.706.706 0 00.998 0L6.99 7.831l1.447 1.447a.706.706 0 00.998-.998L7.988 6.833l1.447-1.447a.706.706 0 00-.998-.998L6.99 5.835 5.543 4.388a.706.706 0 00-.998.998l1.447 1.447L4.545 8.28a.706.706 0 000 .998z"/></svg>