<svg data-deprecated="solid/Download.svg"  xmlns="http://www.w3.org/2000/svg" viewBox="0 0 14 14"><path d="M.67 0h12.66a.6.6 0 01.599.6v3.553a.6.6 0 11-1.2 0V1.2H1.271v2.953a.6.6 0 11-1.2 0V.6a.6.6 0 01.6-.6z"/><path d="M10.236 9.647a.6.6 0 00-.848-.017l-1.8 1.728V3.7a.6.6 0 10-1.2 0v7.68L4.483 9.595a.6.6 0 10-.82.875l2.916 2.734c.036.034.08.054.122.077.022.013.04.032.064.041a.598.598 0 00.224.045.598.598 0 00.229-.047c.003-.002.007-.001.01-.002.008-.004.012-.014.02-.018a.594.594 0 00.157-.1l2.816-2.704a.6.6 0 00.016-.848z"/></svg>