<svg data-deprecated="solid/Downvote.svg"  data-tags="down, arrow, amazon, voc, point" data-name="Layer 1" xmlns="http://www.w3.org/2000/svg" viewBox="0 0 14 14"><path d="M6.117 0h1.767c1.118 0 2.029.91 2.029 2.029v2.94h1.71c.817 0 1.53.466 1.858 1.216.328.75.187 1.588-.37 2.19l-4.62 5.003c-.768.828-2.216.83-2.981 0h-.001L.887 8.373C.332 7.773.19 6.934.519 6.185S1.559 4.97 2.377 4.97h1.712V2.029C4.089.91 4.999 0 6.117 0ZM7 12.624c.177 0 .338-.07.458-.2l4.621-5.004c.257-.278.153-.584.114-.671s-.192-.373-.57-.373H8.506V2.03a.622.622 0 0 0-.622-.622H6.117a.622.622 0 0 0-.622.622v4.347H2.377c-.378 0-.532.285-.57.372s-.143.394.114.672l4.62 5.005c.12.128.282.199.458.199Z" /></svg>
