<svg data-deprecated="solid/Error.svg"  data-tags="alert,warning" xmlns="http://www.w3.org/2000/svg" viewBox="0 0 14 11.98"><path d="M13.78 9.73L8.26.7a1.48 1.48 0 00-2.53 0L.22 9.73a1.48 1.48 0 001.26 2.25h11.04a1.48 1.48 0 001.26-2.25zm-1 1.2a.5.5 0 01-.26.06H1.48a.5.5 0 01-.42-.75l5.52-9.02A.5.5 0 017 1a.49.49 0 01.26.07.48.48 0 01.16.16l5.52 9.02a.5.5 0 01-.16.68z"/><path d="M7 7.6a.44.44 0 00.48-.37V4.55A.44.44 0 007 4.17a.44.44 0 00-.48.38v2.68A.44.44 0 007 7.6zM7 8.63a.72.72 0 10.72.72.72.72 0 00-.72-.72z"/></svg>
