<svg data-deprecated="solid/ExitFullScreen.svg"  data-tags="minimize,pinch,reduce,shrink,resize,collapse" xmlns="http://www.w3.org/2000/svg" viewBox="0 0 14 14"><path d="M5.6 7.7c.1 0 .2 0 .3.1.1 0 .3.2.3.3 0 .1.1.2.1.3v2.8c0 .4-.3.7-.7.7-.4 0-.7-.3-.7-.7v-1.1l-3.7 3.7c-.3.3-.7.3-1 0s-.3-.7 0-1l3.7-3.7H2.8c-.4 0-.7-.3-.7-.7s.3-.7.7-.7h2.8zM13.3 0c.2 0 .4.1.5.2.1.1.2.3.2.5s-.1.4-.2.5l-3.7 3.7h1.1c.4 0 .7.3.7.7 0 .4-.3.7-.7.7H8.4c-.1 0-.2 0-.3-.1-.1 0-.3-.2-.3-.3 0-.1-.1-.2-.1-.3V2.8c0-.4.3-.7.7-.7.4 0 .7.3.7.7v1.1L12.8.2c.1-.1.3-.2.5-.2z"/></svg>
