<svg data-tags="facebook, like" xmlns="http://www.w3.org/2000/svg" viewBox="0 0 14 14"><path d="M13.39366,7.13306a1.89143,1.89143,0,0,0,.28127-1.75666,1.65436,1.65436,0,0,0-1.68061-1.1635h-2.228V4.08362c.23579-2.41826-.63885-3.21674-.70736-3.27A2.13344,2.13344,0,0,0,7.20344.00756,1.681,1.681,0,0,0,6.07035.95813a.52892.52892,0,0,0-.038.19012V2.71479a8.4467,8.4467,0,0,1-1.4981,3.11028,1.1222,1.1222,0,0,0-.98084-.57034H1.36316A1.13911,1.13911,0,0,0,.22247,6.39225v6.46706A1.13911,1.13911,0,0,0,1.36,14H3.55338a1.13924,1.13924,0,0,0,1.14069-1.13778h0v-.22344l1.12548.55513a.50974.50974,0,0,0,.21277.04563H10.945a1.45628,1.45628,0,0,0,1.40674-.88974.57872.57872,0,0,0,.02281-.15969V11.10265a2.0557,2.0557,0,0,0,.66931-1.96959,1.81153,1.81153,0,0,0,.53992-1.18636A1.71521,1.71521,0,0,0,13.39366,7.13306ZM3.74349,12.85931a.18833.18833,0,0,1-.1865.19012H1.36316a.18831.18831,0,0,1-.19011-.18648V6.39541a.18831.18831,0,0,1,.18648-.19011H3.55338a.18831.18831,0,0,1,.19011.18649v6.46752Zm8.81359-6.289a.47233.47233,0,0,0-.15969.78327.93584.93584,0,0,1,.23578.56274.99943.99943,0,0,1-.41825.692.47376.47376,0,0,0-.15209.479c.0076.0076.24321,1.02662-.365,1.31559a.46782.46782,0,0,0-.27385.42586V12.076a.53294.53294,0,0,1-.479.21293H6.13886l-1.44479-.71483H4.6863l.00779-1.44487L4.7093,7.23948c.479-.654,2.27358-3.20153,2.27358-4.52473V1.26988a.6655.6655,0,0,1,.403-.327c.25863-.04563.60837.14449,1.01909.55514.0076.0076.59315.60076.41064,2.53993v.64639a.4755.4755,0,0,0,.47139.47909h2.69963c.0076,0,.67691.02281.76046.403.175.85932-.09872.96578-.19,1.0038Z"/></svg>