<svg data-tags="facebook, channel, fb,marketplace" xmlns="http://www.w3.org/2000/svg" viewBox="0 0 14 14"><path d="m13.958 3.517-.825-2.247a.495.495 0 0 0-.465-.333h-11.4a.494.494 0 0 0-.463.325L.003 3.44a.437.437 0 0 0-.011.35V5.06a1.564 1.564 0 0 0 .895 1.398v6.168a.5.5 0 0 0 .495.493h11.302a.5.5 0 0 0 .494-.493V6.413a1.56 1.56 0 0 0 .797-1.354V3.634a.406.406 0 0 0-.017-.117ZM6.11 12.132V8.971h1.83v3.161Zm-.988-3.654v3.654H1.876V6.587a1.611 1.611 0 0 0 .791-.405 1.627 1.627 0 0 0 2.167.016 1.636 1.636 0 0 0 2.15 0 1.634 1.634 0 0 0 2.155-.004 1.646 1.646 0 0 0 2.166 0 1.663 1.663 0 0 0 .884.414v5.524H8.928V8.478a.5.5 0 0 0-.495-.493H5.616a.5.5 0 0 0-.494.493Zm6.688-3.42a.542.542 0 0 0-.544-.491.5.5 0 0 0-.494.492.58.58 0 0 1-.58.576.588.588 0 0 1-.597-.576.494.494 0 0 0-.989 0 .58.58 0 0 1-1.16 0 .495.495 0 0 0-.989 0 .595.595 0 0 1-.597.576.58.58 0 0 1-.58-.576.494.494 0 0 0-.989 0 .58.58 0 0 1-1.161 0 .494.494 0 0 0-.988 0 .597.597 0 0 1-1.194 0v-.933h12.056v.933a.597.597 0 0 1-1.194 0Zm.52-3.135.45 1.218H1.167l.44-1.218Z"/></svg>