<svg data-tags="facebook, channel, fb,watch" xmlns="http://www.w3.org/2000/svg" viewBox="0 0 14 14"><path d="M11.748.42H2.252A2.255 2.255 0 0 0 0 2.67v6.342a2.255 2.255 0 0 0 2.252 2.252h9.496A2.255 2.255 0 0 0 14 9.013V2.67A2.255 2.255 0 0 0 11.748.42Zm1.3 8.593a1.303 1.303 0 0 1-1.3 1.302H2.252a1.303 1.303 0 0 1-1.3-1.302V2.67a1.303 1.303 0 0 1 1.3-1.301h9.496a1.303 1.303 0 0 1 1.3 1.301Z"/><path d="M8.89 5.87 6.3 4.38a.417.417 0 0 0-.568.151.411.411 0 0 0-.056.207v2.976a.413.413 0 0 0 .208.359.417.417 0 0 0 .416 0l2.59-1.489a.413.413 0 0 0 0-.716ZM2.97 12.63h7.716v.95H2.97z"/></svg>