<svg data-deprecated="solid/FullScreen.svg"  data-tags="maximize,expand,enlarge,resize" xmlns="http://www.w3.org/2000/svg" viewBox="0 0 18 18"><path d="M6.6 10.1c.3-.3.9-.3 1.3 0 .3.3.3.9 0 1.3l-4.7 4.7h1.4c.5 0 .9.4.9.9s-.4.9-.9.9H1c-.1 0-.2 0-.3-.1-.2-.1-.4-.3-.5-.5 0-.1-.1-.2-.1-.3v-3.6c0-.5.4-.9.9-.9s.9.4.9.9v1.4l4.7-4.7zM17 .1c.1 0 .2 0 .3.1.2.1.4.3.5.5 0 .1.1.2.1.3v3.6c0 .5-.4.9-.9.9s-.9-.4-.9-.9V3.2l-4.7 4.7c-.2.2-.4.3-.6.3-.2 0-.5-.1-.6-.3-.2-.2-.3-.4-.3-.6 0-.2.1-.5.3-.6L14.9 2h-1.4c-.5 0-.9-.4-.9-.9s.4-.9.9-.9H17z"/></svg>
