<svg data-tags="temporary user,guest,restricted access user,grouping" xmlns="http://www.w3.org/2000/svg" viewBox="0 0 14 14"><path d="M13.152 10.387a3.318 3.318 0 00.56-1.886.599.599 0 00-.597-.602l-3.043-.008a.602.602 0 00-.601.597 2.947 2.947 0 001.109 2.455 2.241 2.241 0 00-.55.542 3.324 3.324 0 00-.56 1.886.595.595 0 00.047.232 659.183 659.183 0 01.128.193 324.946 324.946 0 00.191.13.595.595 0 00.232.047l3.043.01h.002a.6.6 0 00.6-.598 2.948 2.948 0 00-1.11-2.456 2.243 2.243 0 00.55-.542zm-.714-1.29a1.88 1.88 0 01-.267.601.796.796 0 01-.587.383h-.002c-.33-.002-.69-.397-.84-.99zm-1.692 3.678a1.858 1.858 0 01.267-.601.794.794 0 01.586-.383h.002c.33.002.69.398.84.99zm-3.06-4.701a3.043 3.043 0 00.634-1.848 3.073 3.073 0 10-5.29 2.117 5.118 5.118 0 00-1.727 1.313A5.45 5.45 0 00.066 12.77a1.11 1.11 0 001.114 1.19h5.098a.6.6 0 000-1.2H1.272a4.221 4.221 0 01.948-2.33 4.068 4.068 0 012.089-1.294 2.908 2.908 0 002.207-.12 3.141 3.141 0 011.252.41.6.6 0 10.697-.977 3.066 3.066 0 00-.779-.376zM3.374 6.226A1.874 1.874 0 115.247 8.1a1.876 1.876 0 01-1.873-1.874zm9.448 1.056a1.113 1.113 0 001.102-1.28 3.6 3.6 0 00-.796-1.799 3.438 3.438 0 00-.917-.761 2.141 2.141 0 00.416-1.263 2.16 2.16 0 10-4.321 0 2.134 2.134 0 00.297 1.073 2.053 2.053 0 00-.397.222.6.6 0 00.36 1.08.593.593 0 00.359-.12 2.454 2.454 0 01.715-.261 2.053 2.053 0 001.402.078 2.258 2.258 0 011.679 1.832H9.816a.6.6 0 000 1.2zM9.505 2.18a.961.961 0 11.962.96.963.963 0 01-.962-.96z"/></svg>