<svg data-tags="Number,Label" xmlns="http://www.w3.org/2000/svg" viewBox="0 0 14 14"><path d="M13.177 8.497h-2.89l.483-3.861h2.407a.772.772 0 000-1.544h-2.214L11.241.87A.772.772 0 009.709.679l-.302 2.413H5.558L5.836.87A.772.772 0 004.304.679l-.302 2.413H.822a.772.772 0 000 1.544H3.81l-.483 3.86H.823a.772.772 0 000 1.545h2.31l-.374 2.993a.772.772 0 00.67.862.841.841 0 00.098.006.772.772 0 00.765-.677l.398-3.184h3.848l-.374 2.993a.772.772 0 00.67.862.841.841 0 00.097.006.772.772 0 00.765-.677l.398-3.184h3.083a.772.772 0 000-1.545zm-8.294 0l.482-3.861h3.849l-.483 3.86z"/></svg>
