<svg data-deprecated="solid/HighlightReddit.svg"  data-tags="exclamation,reddit" xmlns="http://www.w3.org/2000/svg" viewBox="0 0 14 14"><path d="M11.291.183H2.71a.6.6 0 00-.6.6v7.831a.566.566 0 00.017.089.39.39 0 00.094.241.567.567 0 00.044.074l4.292 4.73a.6.6 0 00.888 0l4.292-4.73a.567.567 0 00.044-.074.39.39 0 00.094-.241.566.566 0 00.018-.089V.783a.6.6 0 00-.6-.6zm-.6 8.2L7 12.453l-3.691-4.07v-7h7.382z"/><path d="M7 7.54a.6.6 0 00.6-.6V2.903a.6.6 0 00-1.2 0V6.94a.6.6 0 00.6.6z"/><circle cx="7" cy="9.2" r=".757"/></svg>