<svg data-deprecated="solid/Image.svg"  xmlns="http://www.w3.org/2000/svg" viewBox="0 0 14 14"><circle cx="9.91" cy="4.68" r="1.25"/><path d="M12.03 1H1.97C.88 1 0 1.88 0 2.97v8.06C0 12.12.88 13 1.97 13h10.06c1.09 0 1.97-.88 1.97-1.97V2.97C14 1.88 13.12 1 12.03 1zM1.97 2.2h10.06c.43 0 .77.34.77.77v8.11l-1.9-2.76a1.45 1.45 0 00-1.19-.65c-.47 0-.9.24-1.18.65l-.5.66-1.21-2.03a1.83 1.83 0 00-3.15 0L1.2 11.01V2.97c0-.43.34-.77.77-.77zm6.36 9.6h-6.2L4.7 7.57c.24-.4.85-.4 1.09 0l2.54 4.23zm1.39 0l-1.01-1.7.8-1.09c.06-.09.16-.16.2-.14.07 0 .15.05.2.14l1.92 2.79H9.72z"/></svg>