<svg data-deprecated="solid/InfoCopy.svg"  data-tags="Information,Share" xmlns="http://www.w3.org/2000/svg" viewBox="0 0 14 14"><path d="M10.825 14H1.012a1.001 1.001 0 01-1-1V3.187a1.001 1.001 0 011-1h9.813a1.001 1.001 0 011 1V13a1 1 0 01-1 1zm0-1v.5l.001-.5zM1.012 3.187V13h9.813V3.187z"/><path d="M12.988 11.837V1.024H2.175a1.001 1.001 0 011-1h9.813a1.001 1.001 0 011 1v9.813a1 1 0 01-1 1zM5.918 11.27a.5.5 0 01-.5-.5V7.205a.5.5 0 011 0v3.567a.5.5 0 01-.5.5z"/><circle cx="5.919" cy="5.65" r=".594"/></svg>
