<svg data-tags="Instagram , channel" xmlns="http://www.w3.org/2000/svg" viewBox="0 0 14 14"><path d="m6.347 10.697 2.966-1.713a.637.637 0 0 0-.012-1.11L6.41 6.295a.636.636 0 0 0-.94.544l-.078 3.292a.636.636 0 0 0 .954.566Z" fill-rule="evenodd"/><path d="M9.545 0h-5.09A4.455 4.455 0 0 0 0 4.455v5.09A4.454 4.454 0 0 0 4.454 14h5.09A4.455 4.455 0 0 0 14 9.546v-5.09A4.455 4.455 0 0 0 9.545 0Zm0 1.273a3.184 3.184 0 0 1 2.947 1.98h-2.265l-.788-1.35-.378-.63Zm-1.968 0 .764 1.274.412.706H6.161l-.722-1.24-.444-.74Zm-3.995.121.759 1.264.347.595h-3.18a3.188 3.188 0 0 1 2.074-1.859Zm9.145 8.152a3.182 3.182 0 0 1-3.182 3.182h-5.09a3.182 3.182 0 0 1-3.182-3.182v-5.02H5.43l.006.012.02-.012h7.27Z" fill-rule="evenodd"/></svg>