<svg data-tags="Add story,insta,disappearing story,temporary story" xmlns="http://www.w3.org/2000/svg" viewBox="0 0 14 14"><path d="M8.43 12.507a.626.626 0 00-.151.018 5.71 5.71 0 01-3.962-.518.674.674 0 00-.311-.078.665.665 0 00-.314 1.25 7.023 7.023 0 004.888.638.664.664 0 00-.15-1.31zM1.472 8.343a.661.661 0 00-.644-.508.647.647 0 00-.157.02.664.664 0 00-.489.8 6.983 6.983 0 001.989 3.428.664.664 0 00.914-.965 5.65 5.65 0 01-1.613-2.775zM.68 7.033a.662.662 0 00.66-.599 5.607 5.607 0 01.5-1.824.664.664 0 00-.602-.945.666.666 0 00-.602.384 6.946 6.946 0 00-.617 2.255.664.664 0 00.597.726zM2.65 3.056a.664.664 0 00.514-.243l.107-.126a.664.664 0 10-1.001-.873l-.132.157a.664.664 0 00.091.934.666.666 0 00.422.15zM6.984 0a.664.664 0 000 1.329 5.672 5.672 0 012.91 10.541.664.664 0 00.68 1.14A7 7 0 006.985 0z"/><path d="M4.073 7.562h2.365v2.387a.6.6 0 001.2 0V7.562h2.358a.6.6 0 000-1.2H7.638V4.02a.6.6 0 00-1.2 0v2.342H4.073a.6.6 0 100 1.2z"/></svg>
