<svg data-tags="Instagram , channel" xmlns="http://www.w3.org/2000/svg" viewBox="0 0 14 14"><path d="M7 2.536a2.985 2.985 0 1 0 3 2.984 3.001 3.001 0 0 0-3-2.984Zm0 4.973a1.99 1.99 0 1 1 2-1.99 2 2 0 0 1-2 1.99Z"/><path d="M7 .049a6.957 6.957 0 0 0-5 11.838 6.468 6.468 0 0 0 1 .82 6.873 6.873 0 0 0 4 1.244 7.06 7.06 0 0 0 4-1.243 10.316 10.316 0 0 0 1-.821A6.957 6.957 0 0 0 7 .049ZM7 12.98a5.972 5.972 0 0 1-3.9-1.442 2.173 2.173 0 0 1 2.075-1.542H8.85a2.174 2.174 0 0 1 2.075 1.542A6.091 6.091 0 0 1 7 12.98Zm4.675-2.238a3.157 3.157 0 0 0-2.825-1.74H5.175a3.146 3.146 0 0 0-2.825 1.74A5.79 5.79 0 0 1 1 7.012a6 6 0 0 1 12 0 5.908 5.908 0 0 1-1.325 3.731Z"/></svg>