<svg data-tags="Instagram , channel" xmlns="http://www.w3.org/2000/svg" viewBox="0 0 14 13.162"><path d="M10.224 5.977H7.52v-2.69a.601.601 0 0 0-1.202 0v2.69H3.615a.598.598 0 1 0 0 1.196h2.703v2.69a.601.601 0 0 0 1.202 0v-2.69h2.704a.598.598 0 1 0 0-1.196Z" fill-rule="evenodd"/><path d="M10.005.005H3.996A3.596 3.596 0 0 0 .39 3.592V9.57a3.596 3.596 0 0 0 3.606 3.586h6.009A3.596 3.596 0 0 0 13.61 9.57V3.592A3.596 3.596 0 0 0 10.005.005Zm2.404 9.565a2.398 2.398 0 0 1-2.404 2.39H3.996a2.397 2.397 0 0 1-2.404-2.39V3.592a2.397 2.397 0 0 1 2.404-2.391h6.009a2.398 2.398 0 0 1 2.404 2.391Z" fill-rule="evenodd"/></svg>