<svg data-deprecated="solid/Light.svg"  data-tags="idea,bulb,illuminate,insights,no insights" xmlns="http://www.w3.org/2000/svg" viewBox="0 0 14 14"><path d="M7.25 2.5a3.74 3.74 0 00-2.79 1.04 3.85 3.85 0 00-.36 5.13 6.03 6.03 0 01.98 1.77l.02.04v1.54a.4.4 0 00.33.4 1.65 1.65 0 003.3-.02.4.4 0 00.33-.4v-1.52l.01-.04a5.79 5.79 0 01.98-1.75 3.81 3.81 0 00.81-2.53 3.85 3.85 0 00-3.6-3.67zm-.17 10.63a.87.87 0 01-.85-.73h1.7a.86.86 0 01-.85.73zm1.18-1.52H5.9v-.97h2.37zm1.16-3.44a6.89 6.89 0 00-.98 1.67h-.97V7.52l1.17-1.4a.4.4 0 00-.04-.56.38.38 0 00-.55.04l-.97 1.16-.96-1.14a.37.37 0 00-.54-.05.38.38 0 00-.05.56l1.17 1.4v2.32h-.97a7.17 7.17 0 00-.98-1.66 3.01 3.01 0 01-.63-1.87 3.06 3.06 0 01.92-2.2 2.94 2.94 0 012.21-.83 3.03 3.03 0 012.85 2.88 3.22 3.22 0 01-.68 2zM7.08 1.52a.39.39 0 00.4-.37v-.7a.4.4 0 00-.8 0v.7a.39.39 0 00.4.37zM4.17 2.12a.38.38 0 00.34.2.34.34 0 00.2-.05.4.4 0 00.14-.55l-.35-.64a.37.37 0 00-.53-.15.4.4 0 00-.14.54zM2.76 3.38l-.64-.35a.4.4 0 00-.54.14.37.37 0 00.14.52l.65.35a.49.49 0 00.2.06.41.41 0 00.35-.2.4.4 0 00-.16-.52zM12.42 3.17a.4.4 0 00-.54-.15l-.65.36a.37.37 0 00-.14.52.37.37 0 00.33.2.38.38 0 00.21-.06l.65-.35a.37.37 0 00.14-.52zM9.28 2.27a.45.45 0 00.2.06.4.4 0 00.34-.21l.35-.65a.4.4 0 00-.14-.54.37.37 0 00-.52.15l-.36.64a.4.4 0 00.13.55z"/></svg>
