<svg data-tags="LinkedIn, Like" xmlns="http://www.w3.org/2000/svg" viewBox="0 0 14 14"><path d="M13.512 6.688a1.08 1.08 0 00-.303-.876 1.152 1.152 0 00-.792-.315h-1.404a6.608 6.608 0 01-1.56-.758A3.303 3.303 0 018.15 3.16a4.64 4.64 0 01-.16-.737 4.91 4.91 0 00-.294-1.15A1.81 1.81 0 006.41.03a2.1 2.1 0 00-1.862.756 2.916 2.916 0 00-.688 2.297 4.752 4.752 0 00.192.938 6.97 6.97 0 00-1.38.01 2.185 2.185 0 00-2.177 2.4 2.332 2.332 0 00.464 1.222 2.583 2.583 0 00-.235 1.415 2.11 2.11 0 00.853 1.423 2.458 2.458 0 00.357 1.123 2.137 2.137 0 00.543.573 2.071 2.071 0 00.514 1.104A2.606 2.606 0 004.804 14c.058 0 .116-.001.173-.005a6.925 6.925 0 001.938-.417c.561-.181 1.729-.484 3.512-.919h1.975a1.19 1.19 0 00.709-.202 1.007 1.007 0 00.404-.841zm-1.99 4.568V6.902h.614v4.354zm-7.544 1.057a1.081 1.081 0 01-.177-.624.719.719 0 00-.127-.348.703.703 0 00-.284-.232.728.728 0 01-.312-.28 1.5 1.5 0 01-.146-.75.707.707 0 00-.343-.587c-.406-.24-.478-.462-.498-.609a1.499 1.499 0 01.302-.974.707.707 0 00-.177-.958.842.842 0 01-.348-.659c-.06-.628.48-.819.944-.867a5.839 5.839 0 012.156.185.673.673 0 00.387-.011.688.688 0 00.322-.222.707.707 0 00.091-.743 5.538 5.538 0 01-.536-1.683 1.504 1.504 0 01.342-1.226 1.044 1.044 0 01.542-.323c.073.015.154.033.307.408a3.721 3.721 0 01.208.852 5.874 5.874 0 00.212.94A4.68 4.68 0 008.7 5.915a7.968 7.968 0 001.444.758v4.62c-1.806.432-3.032.75-3.645.948a5.689 5.689 0 01-1.615.354 1.272 1.272 0 01-.905-.281z"/></svg>