<svg data-tags="case, text, format, alphabet, letter" xmlns="http://www.w3.org/2000/svg" viewBox="0 0 14 14"><path d="M10.704 11.818a4.49 4.49 0 0 1-1.507-.236 2.619 2.619 0 0 1-1.028-.614 1.138 1.138 0 0 1-.364-.783.662.662 0 0 1 .21-.504.717.717 0 0 1 .508-.195.828.828 0 0 1 .644.325l.248.298a1.65 1.65 0 0 0 .327.301 1.176 1.176 0 0 0 .397.168 2.382 2.382 0 0 0 .541.056 2.194 2.194 0 0 0 .966-.173.965.965 0 0 0 .476-.476 1.996 1.996 0 0 0 .16-.666c.012-.18.02-.438.029-.777l.007-.275-.185.203a2.506 2.506 0 0 1-.64.514 2.399 2.399 0 0 1-1.181.277 2.503 2.503 0 0 1-1.44-.42 2.693 2.693 0 0 1-.946-1.178 4.337 4.337 0 0 1-.329-1.741 4.147 4.147 0 0 1 .2-1.33 2.791 2.791 0 0 1 .573-1.001 2.492 2.492 0 0 1 .862-.617 2.702 2.702 0 0 1 1.067-.207 2.594 2.594 0 0 1 1.208.267 2.717 2.717 0 0 1 .728.575l.159.172.018-.234a.91.91 0 0 1 .21-.551.72.72 0 0 1 .556-.241.65.65 0 0 1 .648.32 2.05 2.05 0 0 1 .158.897v4.715a4.989 4.989 0 0 1-.174 1.4 2.254 2.254 0 0 1-.56.974 2.34 2.34 0 0 1-1.007.572 5.478 5.478 0 0 1-1.539.185Zm.084-7.796a1.32 1.32 0 0 0-1.095.519 2.359 2.359 0 0 0-.412 1.488 2.232 2.232 0 0 0 .424 1.475A1.358 1.358 0 0 0 10.799 8a1.42 1.42 0 0 0 .75-.213 1.585 1.585 0 0 0 .576-.643 2.27 2.27 0 0 0 .224-1.05 2.42 2.42 0 0 0-.432-1.53 1.356 1.356 0 0 0-1.129-.542ZM6.306 6.938c.004-.347.007-.663.008-.945q.004-.425.005-1.033a3.722 3.722 0 0 0-.27-1.548 1.66 1.66 0 0 0-.922-.852 4.815 4.815 0 0 0-1.795-.27 4.532 4.532 0 0 0-1.705.28 2.311 2.311 0 0 0-1.007.71 1.465 1.465 0 0 0-.324.887.61.61 0 0 0 .212.478.737.737 0 0 0 .505.188.552.552 0 0 0 .42-.117q.18-.235.337-.486a1.597 1.597 0 0 1 .57-.551 2.094 2.094 0 0 1 .992-.184 1.233 1.233 0 0 1 1.012.32A1.808 1.808 0 0 1 4.62 4.82q-.547.158-1.011.27-.467.11-1.12.243-.652.134-.817.172a2.256 2.256 0 0 0-1.237.671 1.746 1.746 0 0 0-.45 1.211 1.854 1.854 0 0 0 .273.977 1.92 1.92 0 0 0 .777.713 2.492 2.492 0 0 0 1.17.263 3.388 3.388 0 0 0 1.315-.245 5.326 5.326 0 0 0 1.214-.731 3.704 3.704 0 0 0 .551.727.77.77 0 0 0 .526.25.83.83 0 0 0 .567-.22.635.635 0 0 0 .25-.484 3.157 3.157 0 0 0-.162-.683 3.51 3.51 0 0 1-.16-1.016ZM4.62 6.107A2.657 2.657 0 0 1 4.385 7.4a1.499 1.499 0 0 1-.637.58 2.023 2.023 0 0 1-.948.226 1.099 1.099 0 0 1-.78-.277.873.873 0 0 1-.298-.668.73.73 0 0 1 .254-.593 1.372 1.372 0 0 1 .532-.286q.28-.072 1.004-.228A8.656 8.656 0 0 0 4.62 5.86Z"/></svg>