<svg data-tags="three dimensional media,3d media,image,photo,picture,no media" xmlns="http://www.w3.org/2000/svg" viewBox="0 0 40 40"><path d="M34.35 14.56L11.17 1.02A3.1 3.1 0 008.3.95l-1.57.84-1.6.87h-.01l-.03.02a1.86 1.86 0 00-.85 1.69h.01-.01v.05c-.02 2.66-.1 16.04.01 18.22a3.3 3.3 0 00.42 1.48 3.13 3.13 0 001.11 1.1h.01l.01.01 1.7 1.04a936.93 936.93 0 0020.08 12.1l.6.32h.01a1.02 1.02 0 00.13.05 2.6 2.6 0 001.12.28 2.47 2.47 0 00.58-.08h.03l.04-.02.18-.04.14-.05.08-.05 2.67-.95.85-.3a.95.95 0 00.14-.06 3.06 3.06 0 001.26-1.12 3.1 3.1 0 00.48-1.64V17.2a3.03 3.03 0 00-1.54-2.65zm-4.41 21.86a.46.46 0 01-.25.42l-.18.06h-.01l-4.4-12.47a1.62 1.62 0 00-1.08-.92 1.67 1.67 0 00-1.44.3 1.04 1.04 0 00-.19.2l-4.06 5.2-4.3-13.44a1.97 1.97 0 00-1.67-1.37 1.95 1.95 0 00-1.92.96l-4.1 6.88c-.08-2.78-.02-15.07 0-17.52l.05.03h.02l.24.15 15.91 9.26 6.9 4.02a.9.9 0 01.35.35.97.97 0 01.13.47zm3.85-1.71a1.01 1.01 0 01-.16.52.95.95 0 01-.38.34l-.8.29-.41.14V19a3.05 3.05 0 00-.42-1.53 2.97 2.97 0 00-1.12-1.12l-6.88-4-15.4-8.97 1.03-.56a.96.96 0 01.87.02l23.2 13.55a.94.94 0 01.47.82z"/><path d="M20.46 15.52a2.46 2.46 0 102.36 2.46 2.42 2.42 0 00-2.36-2.46z"/></svg>
