<svg data-deprecated="solid/Notes.svg"  data-tags="foot notes,text,annotations,notepad" xmlns="http://www.w3.org/2000/svg" viewBox="0 0 14 14"><path d="M12.002.034H1.998A1.966 1.966 0 00.034 1.998v10.004a1.966 1.966 0 001.964 1.964h6.113a.991.991 0 00.686-.256l4.825-3.67a1.038 1.038 0 00.308-.742l.036-7.3A1.966 1.966 0 0012.002.034zm.729 9.183l-4.665 3.55H1.998a.765.765 0 01-.765-.765V1.998a.765.765 0 01.765-.765h10.004a.765.765 0 01.765.762z"/><path d="M9.359 5.834H2.674a.7.7 0 000 1.4h6.685a.7.7 0 000-1.4zM7 8.827H2.669a.7.7 0 00.005 1.4h4.331A.7.7 0 007 8.828zm4.326-6.245H2.67a.7.7 0 00.005 1.4h8.657a.7.7 0 00-.005-1.4z"/></svg>