<svg data-deprecated="solid/PdfAsset.svg"  xmlns="http://www.w3.org/2000/svg" viewBox="0 0 14 14" data-tags="asset"><path d="M12.93 3.36L10.03.63A1.79 1.79 0 008.8.13H2.36A1.89 1.89 0 00.52 2.06V12a1.89 1.89 0 001.84 1.92h9.34A1.89 1.89 0 0013.54 12V4.79a1.97 1.97 0 00-.61-1.43zm-.6 8.65a.69.69 0 01-.63.72H2.36a.69.69 0 01-.64-.72V2.06a.69.69 0 01.64-.73H8.8a.59.59 0 01.4.17l2.9 2.73a.77.77 0 01.24.56z"/><path d="M5.37 6.06A.87.87 0 005 5.87a2.04 2.04 0 00-.54-.06h-.74a.5.5 0 00-.37.12.48.48 0 00-.13.37v2.2a.5.5 0 00.12.35.41.41 0 00.6 0 .5.5 0 00.12-.35v-.7h.4a1.35 1.35 0 00.88-.25.94.94 0 00.32-.76 1.11 1.11 0 00-.08-.42.86.86 0 00-.22-.32zm-.54.75a.3.3 0 01-.05.18.28.28 0 01-.14.1 1.06 1.06 0 01-.3.04h-.27V6.5h.26c.3 0 .4.06.42.09a.3.3 0 01.08.22zm2.95-.94a2.15 2.15 0 00-.53-.06h-.76a.43.43 0 00-.48.49v2.1a.96.96 0 00.03.25.34.34 0 00.16.21.59.59 0 00.3.07h.76a2.4 2.4 0 00.37-.03 1.28 1.28 0 00.33-.1 1.14 1.14 0 00.28-.18 1.32 1.32 0 00.27-.34 1.51 1.51 0 00.15-.42 2.36 2.36 0 00.05-.5 1.57 1.57 0 00-.5-1.25 1.05 1.05 0 00-.43-.24zm.09 1.49a.95.95 0 01-.25.75.35.35 0 01-.11.07.58.58 0 01-.14.03h-.53V6.53h.26a1.43 1.43 0 01.41.06.44.44 0 01.25.21 1.14 1.14 0 01.11.57zm3.03-.85a.42.42 0 00.3-.1.35.35 0 000-.5.42.42 0 00-.3-.1H9.55a.62.62 0 00-.25.05.35.35 0 00-.18.18.61.61 0 00-.05.26v2.2a.5.5 0 00.11.35.42.42 0 00.6 0 .5.5 0 00.12-.35v-.82h.83a.4.4 0 00.28-.09.32.32 0 00.1-.25.33.33 0 00-.1-.25.41.41 0 00-.28-.1H9.9v-.48z"/></svg>