<svg data-tags="percentage" xmlns="http://www.w3.org/2000/svg" viewBox="0 0 14 14"><path d="M13.26 7.813A2.61 2.61 0 0 0 11.228 7a2.6 2.6 0 0 0-2.025.813 3.618 3.618 0 0 0-.74 2.499 3.633 3.633 0 0 0 .74 2.507 2.632 2.632 0 0 0 2.05.813 2.58 2.58 0 0 0 2.007-.813 3.633 3.633 0 0 0 .74-2.507 3.618 3.618 0 0 0-.74-2.5Zm-1.459 4.133a.715.715 0 0 1-1.181-.008 3.188 3.188 0 0 1-.283-1.635 3.243 3.243 0 0 1 .283-1.643.668.668 0 0 1 .59-.308.687.687 0 0 1 .599.308 3.328 3.328 0 0 1 .274 1.643 3.242 3.242 0 0 1-.282 1.643ZM5.536 3.68a3.618 3.618 0 0 0-.74-2.504A2.64 2.64 0 0 0 2.748.368 2.578 2.578 0 0 0 .74 1.18 3.616 3.616 0 0 0 0 3.68a3.615 3.615 0 0 0 .74 2.503 2.64 2.64 0 0 0 2.05.808 2.58 2.58 0 0 0 2.007-.813 3.619 3.619 0 0 0 .74-2.499Zm-2.19 1.626a.688.688 0 0 1-.6.308.68.68 0 0 1-.59-.308 3.242 3.242 0 0 1-.282-1.644 3.244 3.244 0 0 1 .282-1.643.68.68 0 0 1 .59-.307.683.683 0 0 1 .6.316 3.274 3.274 0 0 1 .274 1.634 3.326 3.326 0 0 1-.274 1.644ZM10.45.146a.897.897 0 0 0-1.21.397L3.11 12.645a.9.9 0 0 0 .397 1.21.888.888 0 0 0 .406.097.899.899 0 0 0 .803-.494l6.13-12.103A.9.9 0 0 0 10.45.146Z"/></svg>