<svg data-tags="Message,isometric.social,dialogue" xmlns="http://www.w3.org/2000/svg" viewBox="0 0 40 48"><path d="M39.5 22.86a8.67 8.67 0 00-4.03-6.9l-.01-.01h-.01L9.53 1.14A4.8 4.8 0 007.62.5H7.6l-.05.5.05-.5a3.13 3.13 0 00-1.2.13l-.06.02-.04.02-.16.1a5.87 5.87 0 00-.79.42l-.28.18-2.5 1.43-.28.14a.63.63 0 00-.16.08.7.7 0 00-.1.09l-.17.1.26.43-.26-.43-.04.03-.04.03A3.73 3.73 0 00.55 6.24L.5 25.1H1 .5v.03a8.65 8.65 0 004.05 6.9h.02l.42.25v6.3a2.71 2.71 0 00.77 1.85 2.84 2.84 0 00.56.45l.26-.42-.26.42a1.86 1.86 0 001.69.1l-.2-.45.2.45 6.8-3.11 15.68 8.97a4.56 4.56 0 002.2.65l.02-.5-.02.5h.02a3.1 3.1 0 001.1-.22l.03-.01.03-.02.34-.19 3.68-2.1v-.01l.02-.01a3.11 3.11 0 00.8-.73 4.38 4.38 0 00.74-2.45l.05-18.87v-.01zM5.68 30.18zM33.73 43.8h-.5v.06a1.05 1.05 0 01-.32.9 1.2 1.2 0 01-1.03-.19l-.03-.02-.02-.01-16.67-9.52-.25.44.25-.44-.23-.12-.23.1-7 3.23v-7.47l-.26-.14-.25.43.25-.43-1.5-.86a6 6 0 01-2.73-4.65l.05-18.85V6.2a1.19 1.19 0 01.35-.96 1.33 1.33 0 01.98.23l.02.01.02.01.25-.43-.25.43 25.91 14.77a6.08 6.08 0 012.74 4.68l-.05 18.84h.5zm3.06-2.02a1.52 1.52 0 01-.22.87.34.34 0 01-.14.11l.2.46-.26-.43-.47.27.05-18.14h-.5.5v-.03a8.69 8.69 0 00-4.05-6.92l-.27.43.27-.43h-.02L6.62 3.55l.62-.34a1 1 0 01.14 0 2.04 2.04 0 01.83.25l25.88 14.77a6.07 6.07 0 012.75 4.67l-.05 18.84v.03l.5-.03z"/><path d="M36.37 42.79l.25.43-.2-.46-.02.01-.03.02zM8.4 16.25l7.2 4.06a1.3 1.3 0 00.67.19h.03a1.1 1.1 0 00.58-.16 1.2 1.2 0 00.62-1.11 1.86 1.86 0 00-.9-1.5L9.4 13.66a1.33 1.33 0 00-1.28.01 1.24 1.24 0 00-.6 1.12 1.79 1.79 0 00.89 1.46zM22.62 29.76l-13.25-7.1a1.32 1.32 0 00-1.26 0 1.21 1.21 0 00-.6 1.08 1.72 1.72 0 00.9 1.45l13.23 7.14a1.44 1.44 0 00.66.17 1.25 1.25 0 00.58-.15 1.15 1.15 0 00.62-1.05 1.74 1.74 0 00-.88-1.54zM22.62 25.47L9.36 18.31a1.33 1.33 0 00-1.25 0 1.18 1.18 0 00-.6 1.09 1.72 1.72 0 00.9 1.44l13.22 7.14a1.34 1.34 0 00.66.18h.02a1.23 1.23 0 00.58-.15 1.17 1.17 0 00.6-1.06 1.73 1.73 0 00-.87-1.48z"/></svg>
