<svg data-deprecated="solid/Priority.svg"  xmlns="http://www.w3.org/2000/svg" viewBox="0 0 14 14" data-tags="move up,prioritise,mark up"><path d="M6.405 7.316H.6a.6.6 0 100 1.201h5.804a.6.6 0 100-1.2zm0-3.856H.6a.6.6 0 100 1.202h5.804a.6.6 0 100-1.201zm0 7.712H.6a.6.6 0 100 1.2h5.804a.6.6 0 100-1.2zM9.99 3.506l.963-.82a.6.6 0 10-.778-.915L8.118 3.52a.6.6 0 00-.088.822l1.6 2.095a.6.6 0 00.842.112.6.6 0 00.113-.842l-.78-1.02c1.67.137 2.993 1.524 2.993 3.229a3.259 3.259 0 01-3.255 3.255.6.6 0 100 1.2A4.458 4.458 0 0014 7.918c0-2.304-1.765-4.183-4.01-4.411z"/></svg>