<svg data-deprecated="solid/HelpCircle.svg"  data-tags="query,question mark,FAQ,help,ask" xmlns="http://www.w3.org/2000/svg" viewBox="0 0 14 14"><path d="M7 14A7 7 0 117.01-.01 7 7 0 017 14zM7 1.17a5.84 5.84 0 10.01 11.68A5.84 5.84 0 007 1.17zm.7 9.44c0 .27-.32.57-.7.57a.7.7 0 01-.7-.68.7.7 0 01.7-.7c.38 0 .7.32.7.8zM7 9.27c-.35 0-.59-.23-.59-.58v-.41c0-.88.47-1.64 1.18-2.04.47-.24.7-.76.59-1.23a1.12 1.12 0 00-.94-.93c-.36-.06-.71 0-1 .23-.24.18-.42.53-.42.88s-.23.58-.59.58-.59-.23-.59-.58a2.36 2.36 0 014.66-.47c.18 1-.3 1.98-1.18 2.45-.35.17-.53.58-.53 1.05v.47c0 .35-.24.58-.59.58z"/></svg>