<svg data-deprecated="solid/RejectCircle.svg"  data-tags="close,remove,reject,cross,no,discard,block" xmlns="http://www.w3.org/2000/svg" viewBox="0 0 14 14"><path d="M9.4 4.6c-.2-.2-.6-.2-.8 0L7 6.2 5.4 4.6c-.2-.2-.6-.2-.8 0s-.2.6 0 .8L6.2 7 4.6 8.6c-.2.2-.2.6 0 .8.1.1.2.2.4.2s.3-.1.4-.2L7 7.8l1.6 1.6c.1.1.2.2.4.2s.3-.1.4-.2c.2-.2.2-.6 0-.8L7.8 7l1.6-1.6c.3-.2.3-.6 0-.8z"/><path d="M7 0C3.1 0 0 3.1 0 7s3.1 7 7 7 7-3.1 7-7-3.1-7-7-7zm0 12.8c-3.2 0-5.8-2.6-5.8-5.8S3.8 1.2 7 1.2s5.8 2.6 5.8 5.8-2.6 5.8-5.8 5.8z"/></svg>
