<svg data-deprecated="solid/Send.svg"  data-tags="Share,Publish" xmlns="http://www.w3.org/2000/svg" viewBox="0 0 14 14"><path d="M6.041 8.655a.6.6 0 01-.43-1.018L12.827.23a.6.6 0 11.86.837L6.47 8.475a.6.6 0 01-.43.18z"/><path d="M.743 6.182a.6.6 0 01-.22-1.158L13.037.089a.6.6 0 11.44 1.116L.963 6.14a.603.603 0 01-.22.042z"/><path d="M8.514 13.953a.6.6 0 01-.544-.346l-2.38-5.1L.488 6.126a.6.6 0 11.508-1.087l5.298 2.473a.6.6 0 01.29.29l1.867 4L12.694.439a.6.6 0 011.125.42L9.076 13.563a.6.6 0 01-.539.39z"/></svg>
