<svg data-deprecated="solid/SentimentSad.svg"  data-tags="CSAT,rating,face,sad,negative" xmlns="http://www.w3.org/2000/svg" viewBox="0 0 14 14"><path d="M7 0a7 7 0 10.02 14.02A7 7 0 007 0zm0 12.85a5.85 5.85 0 11.01-11.71A5.85 5.85 0 017 12.84z"/><circle fill-rule="evenodd" clip-rule="evenodd" cx="4.69" cy="5.85" r="1.15"/><circle fill-rule="evenodd" clip-rule="evenodd" cx="9.31" cy="5.85" r="1.15"/><path d="M9.73 10.64l-.06-.1a3.04 3.04 0 00-3.05-1.42 3.1 3.1 0 00-2.29 1.42l-.06.1-.79-.52.06-.1A3.88 3.88 0 016.51 8.2H7c1.41 0 2.74.7 3.46 1.84l.06.1-.79.51z"/></svg>