<svg data-deprecated="solid/SentimentHappy.svg"  data-tags="CSAT,rating,face,happy,positive" xmlns="http://www.w3.org/2000/svg" viewBox="0 0 14 14"><path d="M7 0a7 7 0 10.02 14.02A7 7 0 007 0zm0 12.85a5.85 5.85 0 11.01-11.71A5.85 5.85 0 017 12.84z"/><circle fill-rule="evenodd" clip-rule="evenodd" cx="4.69" cy="5.85" r="1.15"/><circle fill-rule="evenodd" clip-rule="evenodd" cx="9.31" cy="5.85" r="1.15"/><path d="M9.73 8.42l-.06.1a3.04 3.04 0 01-3.05 1.43c-.92-.1-1.8-.64-2.29-1.43l-.06-.1-.79.52.06.1a3.88 3.88 0 002.97 1.83H7a4.1 4.1 0 003.46-1.83l.06-.1-.79-.52z"/></svg>