<svg data-tags="abc,text,format,spelling,Misspelled" xmlns="http://www.w3.org/2000/svg" viewBox="0 0 14 14"><path d="M13.244 10.138H.756a.702.702 0 1 0 0 1.403h12.488a.702.702 0 1 0 0-1.403ZM1.026 5.723a1.367 1.367 0 0 0-.747.408A1.082 1.082 0 0 0 0 6.878a1.149 1.149 0 0 0 .167.6 1.183 1.183 0 0 0 .475.438 1.506 1.506 0 0 0 .705.159 2.025 2.025 0 0 0 .778-.144 3.054 3.054 0 0 0 .626-.364 2.002 2.002 0 0 0 .271.34.523.523 0 0 0 .362.168.566.566 0 0 0 .382-.147.445.445 0 0 0 .174-.345 1.592 1.592 0 0 0-.095-.412 1.868 1.868 0 0 1-.088-.546l.007-1.118a2.205 2.205 0 0 0-.16-.913 1.037 1.037 0 0 0-.571-.53 2.816 2.816 0 0 0-1.048-.159 2.664 2.664 0 0 0-1 .165 1.399 1.399 0 0 0-.608.43.92.92 0 0 0-.201.56.438.438 0 0 0 .15.34.511.511 0 0 0 .348.129.388.388 0 0 0 .31-.098c.038-.046.103-.142.197-.285a.816.816 0 0 1 .29-.28 1.107 1.107 0 0 1 .514-.092.63.63 0 0 1 .495.143.855.855 0 0 1 .133.441q-.266.076-.494.13c-.176.042-1.032.22-1.093.235Zm1.592.432a1.404 1.404 0 0 1-.121.683.756.756 0 0 1-.321.291 1.063 1.063 0 0 1-.493.117.527.527 0 0 1-.375-.13.404.404 0 0 1-.14-.31.321.321 0 0 1 .111-.263.68.68 0 0 1 .264-.141c.104-.028.292-.07.563-.129q.31-.066.512-.128ZM5.702 8.074a.535.535 0 0 0 .405-.17.608.608 0 0 0 .149-.343c.041.045.078.081.11.112a1.528 1.528 0 0 0 .253.192 1.316 1.316 0 0 0 .363.152 1.755 1.755 0 0 0 .449.057 1.63 1.63 0 0 0 .717-.158A1.579 1.579 0 0 0 8.7 7.47a2.01 2.01 0 0 0 .343-.674 2.882 2.882 0 0 0 .117-.842 2.568 2.568 0 0 0-.21-1.08 1.625 1.625 0 0 0-.606-.71 1.666 1.666 0 0 0-.903-.244 1.596 1.596 0 0 0-.753.162 2.18 2.18 0 0 0-.425.3v-1.27a.718.718 0 0 0-.142-.474.516.516 0 0 0-.42-.18.494.494 0 0 0-.41.188.81.81 0 0 0-.139.507v4.269a.714.714 0 0 0 .146.48.514.514 0 0 0 .403.172Zm2.29-2.088a1.319 1.319 0 0 1-.245.859.707.707 0 0 1-.563.286.779.779 0 0 1-.629-.28 1.268 1.268 0 0 1-.244-.837 1.627 1.627 0 0 1 .119-.647.908.908 0 0 1 .311-.4.753.753 0 0 1 .443-.137.678.678 0 0 1 .42.134.889.889 0 0 1 .284.39 1.727 1.727 0 0 1 .104.632ZM12.134 8.067a2.493 2.493 0 0 0 .797-.12 1.831 1.831 0 0 0 .594-.32 1.429 1.429 0 0 0 .356-.423.946.946 0 0 0 .12-.433.525.525 0 0 0-.142-.352.466.466 0 0 0-.368-.168.46.46 0 0 0-.318.116 1.05 1.05 0 0 0-.211.281 1.107 1.107 0 0 1-.34.384.797.797 0 0 1-.452.12.844.844 0 0 1-.362-.075.747.747 0 0 1-.277-.22 1.078 1.078 0 0 1-.18-.362 1.73 1.73 0 0 1-.065-.48 1.38 1.38 0 0 1 .245-.868.745.745 0 0 1 .624-.302.764.764 0 0 1 .443.12 1.378 1.378 0 0 1 .351.385 1.07 1.07 0 0 0 .199.22.409.409 0 0 0 .26.083.544.544 0 0 0 .382-.146.485.485 0 0 0 .16-.366.84.84 0 0 0-.129-.418 1.464 1.464 0 0 0-.36-.4 1.93 1.93 0 0 0-.563-.302 2.39 2.39 0 0 0-1.828.149 1.764 1.764 0 0 0-.71.753 2.429 2.429 0 0 0-.243 1.106 2.057 2.057 0 0 0 .534 1.481 1.973 1.973 0 0 0 1.483.557Z"/></svg>