<svg data-deprecated="solid/Star.svg"  data-tags="CSAT,rating,favourite,Like" xmlns="http://www.w3.org/2000/svg" viewBox="0 0 14 14"><path d="M13.98 5.4a.44.44 0 00-.36-.3l-4.3-.63L7.39.57a.44.44 0 00-.78 0l-1.93 3.9-4.3.62a.44.44 0 00-.25.75l3.12 3.04-.74 4.29a.44.44 0 00.64.46L7 11.6l3.85 2.03a.44.44 0 00.64-.46l-.74-4.3 3.12-3.03c.12-.12.16-.29.1-.45zm-4.5 2.8a.37.37 0 00-.1.32l.52 3.03-2.73-1.43a.37.37 0 00-.34 0L4.1 11.55l.53-3.03a.37.37 0 00-.11-.33l-2.2-2.15 3.04-.44c.12-.02.22-.1.28-.2L7 2.64 8.36 5.4c.06.1.16.18.28.2l3.04.44-2.2 2.15z"/></svg>
