<svg data-deprecated="solid/StopCircle.svg"  data-tags="stop,end" xmlns="http://www.w3.org/2000/svg" viewBox="0 0 455 455"><path d="M227.5 0C101.761 0 0 101.75 0 227.5 0 353.239 101.75 455 227.5 455 353.24 455 455 353.25 455 227.5 455 101.761 353.25 0 227.5 0zm0 425C118.598 425 30 336.402 30 227.5S118.598 30 227.5 30 425 118.598 425 227.5 336.403 425 227.5 425z"/><path d="M289.139 142.359H165.862c-12.959 0-23.502 10.543-23.502 23.502v123.278c0 12.959 10.543 23.502 23.502 23.502h123.277c12.96 0 23.503-10.543 23.503-23.502V165.861c0-12.959-10.543-23.502-23.503-23.502zm-6.497 140.283H172.36V172.359h110.282v110.283z"/></svg>