<svg data-deprecated="solid/SubCampaign.svg"  data-tags="campaign,announcement,advertise,multiple" xmlns="http://www.w3.org/2000/svg" viewBox="0 0 14 14"><path fill-rule="evenodd" clip-rule="evenodd" d="M12.309 3c-.273 0-.54.06-.765.17C9.05 4.19 5 5.823 4.312 6.075l-.957-.358c-.255-.095-.574-.004-.815.232-.534.522-.543 1.8-.54 2.047-.003.224 0 1.372.519 1.882.257.253.588.343.853.232l.929-.38c.861.33 4.76 2.016 7.227 3.094.249.118.511.177.779.177.975 0 1.693-.765 1.693-1.706V4.706C14 3.766 13.283 3 12.309 3zM13 4.84v6.314c.069.63-.64.982-1.1.768-7.336-3.21-7.503-3.21-7.636-3.21a.505.505 0 00-.197.04l-.888.364c-.112-.21-.186-.725-.179-1.124-.009-.621.11-1.105.194-1.284l.885.333c.058.02.118.03.179.03.118 0 .297 0 7.653-3.003.41-.196 1.089.033 1.089.649v.122zm-4.141 7.886a.42.42 0 01.14.335.43.43 0 01-.184.32 3.2 3.2 0 01-2.09.613c-.765-.034-1.473-.319-1.99-.801-.513-.485-.773-1.109-.73-1.756.016-.243.24-.419.56-.437a.6.6 0 01.4.154c.098.092.148.21.139.334-.028.402.134.787.453 1.086.317.298.755.475 1.234.498.492.02.932-.111 1.229-.33.274-.214.64-.197.839-.016zm-7.68-5.61l.53-.217-.1 1.113-.237.097c-.265.111-.596.02-.853-.232-.52-.51-.522-1.658-.518-1.882-.004-.248.005-1.525.539-2.047.241-.236.56-.327.815-.232l.957.358C3 3.822 7.049 2.189 9.544 1.17a1.76 1.76 0 01.765-.171 1.67 1.67 0 011.685 1.563L11 2.918v-.201c0-.616-.679-.845-1.09-.649-7.355 3.003-7.534 3.003-7.652 3.003a.542.542 0 01-.18-.03l-.884-.333C1.11 4.887.99 5.37 1 5.992c-.007.4.067.914.179 1.124z"/></svg>