<svg data-tags="post generated chat,derived chat,comment,message,derived,leave chat" xmlns="http://www.w3.org/2000/svg" viewBox="0 0 14 14"><path d="M12.72.79H1.82A1.15 1.15 0 00.61 2.11v2.57l1.24-1.2V2.02A.14.14 0 011.9 2h10.72a.66.66 0 01.13.03v7l-.03.07a.4.4 0 01-.12 0h-1.48a1.14 1.14 0 00-1.14 1.15v1.3l-3.42-2.1a2.18 2.18 0 00-1.28-.34h-.93v1.19h.9a.95.95 0 01.64.15l4.34 2.65a.95.95 0 00.28.04c.64 0 .66-.69.66-.69v-2.15h1.52A1.26 1.26 0 0014 9.14v-7.2A1.18 1.18 0 0012.72.8z"/><path d="M7.7 4.22a.13.13 0 00-.24-.08C7 4.81 5.74 6.08 2.98 5.82a.13.13 0 01-.12-.13V4.43a.13.13 0 00-.22-.09L.04 7.01a.13.13 0 000 .18l2.6 2.63a.13.13 0 00.22-.1V8.55a.13.13 0 01.12-.13A5.11 5.11 0 006.35 7.2 4.56 4.56 0 007.7 4.22z"/></svg>
