<svg data-tags="text,format,font size,height" xmlns="http://www.w3.org/2000/svg" viewBox="0 0 14 14"><path d="M4.995 4.421q-.144-.38-.239-.609a2.32 2.32 0 0 0-.23-.425 1.086 1.086 0 0 0-.36-.325 1.113 1.113 0 0 0-.554-.125 1.11 1.11 0 0 0-.55.125 1.04 1.04 0 0 0-.358.33 2.557 2.557 0 0 0-.257.513q-.122.307-.207.527L.23 9.534q-.123.305-.176.477a1.126 1.126 0 0 0-.054.332.676.676 0 0 0 .23.499.744.744 0 0 0 .531.22.595.595 0 0 0 .51-.207 3.504 3.504 0 0 0 .374-.796l.376-1.007h3.194l.375.986c.05.121.11.261.18.42a1.583 1.583 0 0 0 .195.354.653.653 0 0 0 .225.182.705.705 0 0 0 .322.068.746.746 0 0 0 .549-.229.694.694 0 0 0 .228-.5 2.551 2.551 0 0 0-.241-.842ZM2.439 7.857l1.163-3.243 1.184 3.243ZM13.804 9.787l-1.667-4.118q-.117-.31-.194-.495a1.886 1.886 0 0 0-.186-.345.882.882 0 0 0-.293-.264 1.038 1.038 0 0 0-.897 0 .845.845 0 0 0-.29.268 2.075 2.075 0 0 0-.21.416l-.167.429-1.633 4.144q-.1.247-.143.387a.915.915 0 0 0-.044.27.549.549 0 0 0 .187.405.604.604 0 0 0 .431.178.483.483 0 0 0 .414-.168 2.844 2.844 0 0 0 .304-.646l.305-.818h2.594l.305.8c.041.099.089.213.146.342a1.285 1.285 0 0 0 .159.287.53.53 0 0 0 .183.148.573.573 0 0 0 .26.055.605.605 0 0 0 .447-.185.564.564 0 0 0 .185-.407 2.072 2.072 0 0 0-.196-.683Zm-3.743-1.328.944-2.633.962 2.633Z"/></svg>