<svg data-tags="H,text format,height" xmlns="http://www.w3.org/2000/svg" viewBox="0 0 20 20"><path d="M8.582 3.898a1.242 1.242 0 00-.966.412 1.71 1.71 0 00-.361 1.172v3.106H2.599V5.482a1.682 1.682 0 00-.371-1.18 1.284 1.284 0 00-.98-.404 1.234 1.234 0 00-.973.412 1.735 1.735 0 00-.352 1.172v9.029a1.748 1.748 0 00.356 1.178 1.238 1.238 0 00.969.413 1.281 1.281 0 00.975-.406A1.687 1.687 0 002.6 14.51v-3.676h4.655v3.676a1.748 1.748 0 00.356 1.178 1.239 1.239 0 00.97.413 1.281 1.281 0 00.975-.406 1.686 1.686 0 00.374-1.185V5.482a1.679 1.679 0 00-.37-1.18 1.282 1.282 0 00-.978-.404zm11.106 10.097a1.66 1.66 0 00-1.039-.286h-3.74c.061-.079.12-.152.18-.218a12.466 12.466 0 011.589-1.47 59.104 59.104 0 001.685-1.415 5.717 5.717 0 001.01-1.283 3.504 3.504 0 00.508-1.854 3.357 3.357 0 00-.243-1.26 3.404 3.404 0 00-.681-1.07 3.35 3.35 0 00-1.016-.727 5.215 5.215 0 00-2.114-.389 4.905 4.905 0 00-1.798.306 3.808 3.808 0 00-1.278.81 3.454 3.454 0 00-.763 1.12 3.143 3.143 0 00-.255 1.193 1.14 1.14 0 00.31.832 1.058 1.058 0 00.774.307 1.002 1.002 0 00.814-.345 2.827 2.827 0 00.443-.86 3.617 3.617 0 01.245-.601 1.649 1.649 0 011.46-.82 1.718 1.718 0 01.812.198 1.481 1.481 0 01.58.549 1.54 1.54 0 01.214.802 2.053 2.053 0 01-.207.869 3.468 3.468 0 01-.618.89 6.73 6.73 0 01-1.035.885 12.247 12.247 0 00-1.216 1.028q-.845.774-1.885 1.857a2.803 2.803 0 00-.495.782 2.085 2.085 0 00-.228.818 1.213 1.213 0 00.383.89 1.42 1.42 0 001.038.375h5.753a1.187 1.187 0 00.898-.32 1.08 1.08 0 00.304-.771.992.992 0 00-.389-.822z"/></svg>