<svg data-deprecated="solid/Themes.svg"  data-tags="swatch,template" xmlns="http://www.w3.org/2000/svg" viewBox="0 0 14 14"><circle cx="3.76" cy="10.87" r="1.05"/><path d="M13.1 4.44l-2.94-2.38a.55.55 0 00-.4-.12.52.52 0 00-.35.2l-2.59 3.2V.7c0-.39-.34-.7-.76-.7h-4.6C1.05 0 .7.31.7.7v12.6c0 .39.35.7.77.7h4.59c.42 0 .76-.31.76-.7v-.22h5.4c.3 0 .54-.24.54-.53V8.77c0-.3-.24-.53-.54-.53h-1.5l2.46-3.06a.53.53 0 00-.08-.74zM5.82 13H1.7V1h4.12v12zm5.87-3.7v2.72H7.66l2.2-2.72h1.83zm-4.87 2.07V7.03L9.9 3.21 12 4.9l-5.18 6.46z"/></svg>
