<svg data-tags="tiktok" xmlns="http://www.w3.org/2000/svg" viewBox="0 0 14 14"><path d="M4.613 5.456a.341.341 0 0 0-.34.34v.683a.341.341 0 0 0 .34.34h4.774a.341.341 0 0 0 .34-.34v-.682a.341.341 0 0 0-.34-.341Z"/><path d="M1.544 0A1.364 1.364 0 0 0 .18 1.364v8.866a1.364 1.364 0 0 0 1.364 1.364H4.64l1.84 2.166a.683.683 0 0 0 1.04 0l1.84-2.166h3.096a1.364 1.364 0 0 0 1.364-1.364V1.364A1.364 1.364 0 0 0 12.456 0Zm0 10.23V1.364h10.912v8.866H9.049a.683.683 0 0 0-.521.24L7 12.277 5.472 10.47a.683.683 0 0 0-.52-.241Z" fill-rule="evenodd"/></svg>