<svg data-deprecated="solid/TimeFilter.svg"  viewBox="0 0 12 15" xmlns="http://www.w3.org/2000/svg"><path d="M6 2.035c-3.309 0-6 2.692-6 6 0 3.309 2.691 6 6 6s6-2.691 6-6c0-3.308-2.691-6-6-6m0 10.83a4.836 4.836 0 01-4.83-4.83A4.836 4.836 0 016 3.205a4.836 4.836 0 014.83 4.83A4.836 4.836 0 016 12.865zm.585-4.798v-3.33a.585.585 0 00-1.17 0v3.572a.59.59 0 00.172.414l1.693 1.693a.582.582 0 00.826 0 .583.583 0 000-.827L6.585 8.067zM4.214 1.17a.585.585 0 010-1.17h3.573a.584.584 0 110 1.17H4.214z" fill-rule="evenodd"/></svg>