<svg data-tags="case, text, format, alphabet, letter" xmlns="http://www.w3.org/2000/svg" viewBox="0 0 14 14"><path d="M5.167 3.206q-.15-.393-.247-.63a2.393 2.393 0 0 0-.237-.44 1.124 1.124 0 0 0-.373-.335 1.152 1.152 0 0 0-.573-.13 1.148 1.148 0 0 0-.57.13 1.075 1.075 0 0 0-.37.341 2.652 2.652 0 0 0-.266.53l-.214.546L.239 8.495q-.128.316-.183.494A1.16 1.16 0 0 0 0 9.333a.699.699 0 0 0 .239.515.77.77 0 0 0 .548.228.616.616 0 0 0 .527-.215 3.624 3.624 0 0 0 .388-.822l.388-1.043h3.305l.387 1.02c.06.147.123.29.187.435a1.64 1.64 0 0 0 .202.365.677.677 0 0 0 .232.189.73.73 0 0 0 .333.07.771.771 0 0 0 .568-.236.717.717 0 0 0 .236-.518 2.634 2.634 0 0 0-.25-.87ZM2.523 6.761l1.203-3.355L4.952 6.76ZM13.853 4.585a.655.655 0 0 0-.644-.329.71.71 0 0 0-.55.24.874.874 0 0 0-.206.533 2.45 2.45 0 0 0-.658-.52 2.345 2.345 0 0 0-1.093-.242 2.44 2.44 0 0 0-.966.188 2.255 2.255 0 0 0-.78.558 2.538 2.538 0 0 0-.519.905 3.697 3.697 0 0 0-.178 1.186 3.867 3.867 0 0 0 .294 1.553 2.428 2.428 0 0 0 .855 1.063 2.268 2.268 0 0 0 1.305.382 2.175 2.175 0 0 0 1.072-.252 2.29 2.29 0 0 0 .58-.466q-.01.442-.025.673a1.635 1.635 0 0 1-.133.55.754.754 0 0 1-.372.372 1.834 1.834 0 0 1-.802.14 1.974 1.974 0 0 1-.45-.045.93.93 0 0 1-.317-.134 1.325 1.325 0 0 1-.266-.245l-.217-.261a.808.808 0 0 0-.63-.314.72.72 0 0 0-.502.193.664.664 0 0 0-.21.505 1.074 1.074 0 0 0 .341.744 2.367 2.367 0 0 0 .929.556 3.996 3.996 0 0 0 1.343.212 4.834 4.834 0 0 0 1.366-.166 2.119 2.119 0 0 0 .914-.52 2.043 2.043 0 0 0 .512-.887A4.433 4.433 0 0 0 14 9.513V5.406a1.86 1.86 0 0 0-.147-.82Zm-1.64 3.542a1.286 1.286 0 0 1-.469.526 1.146 1.146 0 0 1-.607.172 1.099 1.099 0 0 1-.885-.4 1.86 1.86 0 0 1-.35-1.228 1.97 1.97 0 0 1 .341-1.24 1.063 1.063 0 0 1 .884-.418 1.099 1.099 0 0 1 .914.438 2.027 2.027 0 0 1 .357 1.278 1.897 1.897 0 0 1-.185.872Z"/></svg>