<svg data-tags="face,modify tone,happy" xmlns="http://www.w3.org/2000/svg" viewBox="0 0 14 14"><path d="M7 0a7 7 0 1 0 7 7 7.006 7.006 0 0 0-7-7Zm0 12.6A5.6 5.6 0 1 1 12.6 7 5.607 5.607 0 0 1 7 12.6Z"/><path d="M10.017 7.644a.677.677 0 0 0-.93.332 2.314 2.314 0 0 1-2.092 1.359 2.239 2.239 0 0 1-.77-.136.684.684 0 0 0-.886.438.725.725 0 0 0 .42.92 3.446 3.446 0 0 0 1.236.227 3.674 3.674 0 0 0 3.327-2.159.718.718 0 0 0-.305-.98ZM5.865 5.297A1.135 1.135 0 1 0 4.73 6.432a1.135 1.135 0 0 0 1.135-1.135ZM9.27 4.162a1.135 1.135 0 1 0 1.136 1.135A1.135 1.135 0 0 0 9.27 4.162Z"/></svg>