<svg data-tags="twitter" xmlns="http://www.w3.org/2000/svg" viewBox="0 0 14 14"><path d="M7.207 11.9a4.72 4.72 0 0 0 4.715-4.714V4.744a4.715 4.715 0 1 0-9.43 0v2.442A4.72 4.72 0 0 0 7.207 11.9ZM3.611 4.744a3.596 3.596 0 0 1 7.192 0v2.442a3.596 3.596 0 0 1-7.192 0Z"/><path d="M6.648 4.31h1.119v4.137H6.648zM8.311 5.137H9.43v2.482H8.311zM4.986 5.137h1.119v2.482H4.986z"/><path d="M13.692 8.36a.56.56 0 0 0-.752.25l-.095.192c-.703 1.415-2.01 4.05-5.638 4.05-3.907 0-5.93-3.808-6.147-4.243a.56.56 0 0 0-1.001.503c.25.497 2.57 4.859 7.148 4.859 4.322 0 5.888-3.155 6.64-4.672l.094-.187a.56.56 0 0 0-.25-.752Z"/></svg>