<svg data-tags="case, text, format, alphabet, letter" xmlns="http://www.w3.org/2000/svg" viewBox="0 0 14 14"><path d="M5.167 3.089q-.15-.394-.247-.63a2.393 2.393 0 0 0-.237-.44 1.124 1.124 0 0 0-.373-.336 1.152 1.152 0 0 0-.573-.13 1.148 1.148 0 0 0-.57.13 1.075 1.075 0 0 0-.37.342 2.648 2.648 0 0 0-.266.53q-.126.318-.214.546L.239 8.378q-.128.315-.183.493A1.16 1.16 0 0 0 0 9.216a.699.699 0 0 0 .239.515.77.77 0 0 0 .548.227.616.616 0 0 0 .527-.214 3.624 3.624 0 0 0 .388-.822l.388-1.043h3.305l.387 1.02c.06.146.123.29.187.435a1.639 1.639 0 0 0 .202.365.677.677 0 0 0 .232.188.73.73 0 0 0 .333.07.771.771 0 0 0 .568-.236.717.717 0 0 0 .236-.517 2.635 2.635 0 0 0-.25-.871ZM2.523 6.644l1.203-3.356 1.226 3.356ZM13.853 4.468a.655.655 0 0 0-.644-.33.71.71 0 0 0-.55.24.874.874 0 0 0-.206.533 2.448 2.448 0 0 0-.658-.519 2.345 2.345 0 0 0-1.093-.243 2.44 2.44 0 0 0-.966.188 2.256 2.256 0 0 0-.78.559 2.539 2.539 0 0 0-.519.905 3.697 3.697 0 0 0-.178 1.186 3.867 3.867 0 0 0 .294 1.553 2.429 2.429 0 0 0 .855 1.062 2.268 2.268 0 0 0 1.305.383 2.175 2.175 0 0 0 1.072-.253 2.29 2.29 0 0 0 .58-.465q-.01.441-.025.673a1.637 1.637 0 0 1-.133.55.755.755 0 0 1-.372.372 1.834 1.834 0 0 1-.802.14 1.974 1.974 0 0 1-.45-.046.93.93 0 0 1-.317-.133 1.325 1.325 0 0 1-.266-.246l-.217-.26a.808.808 0 0 0-.63-.314.72.72 0 0 0-.502.193.664.664 0 0 0-.21.505 1.074 1.074 0 0 0 .341.744 2.368 2.368 0 0 0 .93.556 3.996 3.996 0 0 0 1.342.212 4.834 4.834 0 0 0 1.366-.166 2.119 2.119 0 0 0 .914-.52 2.043 2.043 0 0 0 .512-.887A4.433 4.433 0 0 0 14 9.395V5.288a1.86 1.86 0 0 0-.147-.82Zm-1.64 3.542a1.286 1.286 0 0 1-.469.525 1.146 1.146 0 0 1-.607.173 1.099 1.099 0 0 1-.885-.401 1.86 1.86 0 0 1-.35-1.227 1.97 1.97 0 0 1 .341-1.24 1.063 1.063 0 0 1 .884-.419 1.099 1.099 0 0 1 .914.439 2.027 2.027 0 0 1 .357 1.277 1.897 1.897 0 0 1-.185.873ZM6.776 10.949H.749a.75.75 0 1 0 0 1.498H6.79a.753.753 0 0 0 .75-.749.765.765 0 0 0-.764-.75Z"/></svg>