<svg data-tags="case, text, format, alphabet, letter" xmlns="http://www.w3.org/2000/svg" viewBox="0 0 14 14"><path d="M4.673 4.587q-.135-.356-.224-.57a2.169 2.169 0 0 0-.214-.397 1.017 1.017 0 0 0-.337-.304 1.041 1.041 0 0 0-.518-.118 1.039 1.039 0 0 0-.515.118.973.973 0 0 0-.335.309 2.392 2.392 0 0 0-.241.48l-.194.493L.216 9.37q-.116.286-.165.447a1.05 1.05 0 0 0-.051.311.632.632 0 0 0 .216.466.695.695 0 0 0 .496.206.557.557 0 0 0 .476-.194 3.28 3.28 0 0 0 .352-.744l.35-.943H4.88l.35.923c.055.132.111.262.169.393a1.483 1.483 0 0 0 .183.33.611.611 0 0 0 .21.17.66.66 0 0 0 .3.064.698.698 0 0 0 .514-.213.648.648 0 0 0 .214-.469 2.384 2.384 0 0 0-.226-.787ZM2.28 7.802 3.37 4.768l1.11 3.034ZM13.868 7.135a.598.598 0 0 0-.348-.246 2.146 2.146 0 0 0-.523-.054h-1.681a.704.704 0 0 0-.483.159.528.528 0 0 0-.176.405.447.447 0 0 0 .214.424 1.226 1.226 0 0 0 .624.125h1.147v1.188l-.055.028a4.912 4.912 0 0 1-.86.355 3.392 3.392 0 0 1-.966.135 2.057 2.057 0 0 1-1.648-.693 2.982 2.982 0 0 1-.591-1.981 3.607 3.607 0 0 1 .153-1.082 2.298 2.298 0 0 1 .438-.826 1.904 1.904 0 0 1 .691-.514 2.257 2.257 0 0 1 .918-.177 1.954 1.954 0 0 1 .82.15 1.483 1.483 0 0 1 .512.368 5.775 5.775 0 0 1 .464.649.7.7 0 0 0 .247.21.667.667 0 0 0 .307.075.695.695 0 0 0 .496-.198.626.626 0 0 0 .207-.476 1.298 1.298 0 0 0-.179-.594 2.246 2.246 0 0 0-.533-.634 2.89 2.89 0 0 0-.924-.497 4.01 4.01 0 0 0-1.307-.197 4.64 4.64 0 0 0-1.608.262 3.303 3.303 0 0 0-1.201.756 3.203 3.203 0 0 0-.749 1.203A4.585 4.585 0 0 0 7.02 7.02a4.525 4.525 0 0 0 .261 1.572 3.324 3.324 0 0 0 .751 1.197 3.235 3.235 0 0 0 1.182.754 4.376 4.376 0 0 0 1.537.26 5.178 5.178 0 0 0 1.338-.165 6.005 6.005 0 0 0 1.278-.524 1.968 1.968 0 0 0 .377-.26.714.714 0 0 0 .201-.302A1.442 1.442 0 0 0 14 9.105V7.703a.986.986 0 0 0-.132-.568Z"/></svg>