<svg data-deprecated="solid/Upvote.svg"  data-tags="up,arrow,amazon,voc,point,upvote" data-name="Layer 1" xmlns="http://www.w3.org/2000/svg" viewBox="0 0 14 14"><path d="M7.883 14H6.116a2.031 2.031 0 0 1-2.029-2.029v-2.94h-1.71C1.56 9.03.848 8.564.52 7.814a2.002 2.002 0 0 1 .37-2.19L5.509.623c.768-.828 2.216-.83 2.981 0h.001l4.622 5.005c.555.6.696 1.439.368 2.188s-1.04 1.215-1.858 1.215H9.911v2.941c0 1.119-.91 2.029-2.028 2.029ZM7 1.376a.618.618 0 0 0-.458.2L1.922 6.58c-.257.278-.153.584-.114.671s.192.373.57.373h3.116v4.347c0 .344.279.622.622.622h1.767a.622.622 0 0 0 .622-.622V7.624h3.118c.378 0 .532-.285.57-.372s.143-.394-.114-.672L7.46 1.575A.618.618 0 0 0 7 1.376Z" /></svg>
