<svg data-tags="Opinion,Suggest,Advice,Customer" xmlns="http://www.w3.org/2000/svg" viewBox="0 0 14 14"><path d="M13.4469.016H5.3576a.4978.4978 0 00-.498.498v3.2924a3.1752 3.1752 0 00-1.7454 5.3962A5.1629 5.1629 0 00.104 12.4498a1.1618 1.1618 0 00.1857 1.0341 1.259 1.259 0 001.0223.5H9.402a1.2603 1.2603 0 001.0223-.4993 1.1628 1.1628 0 00.1864-1.0349 5.1625 5.1625 0 00-3.0105-3.2472A3.121 3.121 0 008.485 6.366h.7799l.9992 1.3088a.4982.4982 0 00.7918-.0005l.9983-1.3083h1.3927a.4978.4978 0 00.498-.498V.514a.4978.4978 0 00-.498-.498zM9.7394 12.7072a.258.258 0 01-.0428.233.3607.3607 0 01-.2945.1354H1.312a.3591.3591 0 01-.2937-.1354.2557.2557 0 01-.0429-.233 4.3217 4.3217 0 013.0852-2.8598 3.122 3.122 0 002.5933 0 4.3215 4.3215 0 013.0855 2.8598zM5.3574 9.221A2.278 2.278 0 117.635 6.9427 2.2812 2.2812 0 015.3575 9.221zm7.5914-3.851h-1.141c-.011 0-.0202.0055-.031.0062a.5458.5458 0 00-.3409.1688c-.0072.0082-.0173.0122-.024.021l-.7519.9853-.7529-.9853c-.0067-.0087-.0166-.0126-.0238-.0208a.4292.4292 0 00-.2416-.1489.482.482 0 00-.0994-.02c-.0109-.0008-.02-.0063-.031-.0063h-1.4a3.1735 3.1735 0 00-2.2556-1.5635V1.012h7.0932z"/></svg>
