<svg data-deprecated="solid/Video.svg"  data-tags="cam,Movie,Stream" xmlns="http://www.w3.org/2000/svg" viewBox="0 0 14 14"><path d="M13.48 3.82c-.44-.35-1-.24-1.29-.11l-2 .92V4.2c0-.88-.72-1.6-1.6-1.6h-7C.71 2.6 0 3.33 0 4.2v5.6c0 .88.71 1.6 1.6 1.6h6.99c.88 0 1.6-.72 1.6-1.6v-.44l2 .9a1.3 1.3 0 001.11.02c.52-.2.66-.74.69-.85L14 9.3V5.07c0-.82-.29-1.13-.52-1.25zM9.05 9.8c0 .25-.2.46-.46.46h-7a.46.46 0 01-.46-.46V4.2c0-.25.21-.46.46-.46h7c.25 0 .46.2.46.46v5.6zm3.82-.59c-.01.02-.02.04-.04.04-.01.01-.07.03-.16-.01l-2.49-1.12V5.87l2.49-1.13.1-.03.07.05c.01.06.03.15.03.31v4.14z"/></svg>
