<svg xmlns="http://www.w3.org/2000/svg" viewBox="0 0 13 14" data-tags="Visualisation"><g><path d="M7.75 2a4.5 4.5 0 10.01 9.01A4.5 4.5 0 007.75 2zm-1 2a1.5 1.5 0 110 3 1.5 1.5 0 010-3zm1 6a3.5 3.5 0 01-3.5-3.5c0-.17.03-.34.05-.5a2.5 2.5 0 102.95-2.95c.16-.02.33-.05.5-.05a3.5 3.5 0 010 7zm-5.37-.25a1.88 1.88 0 100 3.77 1.88 1.88 0 000-3.77zm0 2.75a.88.88 0 110-1.76.88.88 0 010 1.76z"/><path d="M2.75 4c.96 0 1.75-.79 1.75-1.75S3.71.5 2.75.5 1 1.29 1 2.25 1.79 4 2.75 4zm0-2.5c.41 0 .75.34.75.75S3.16 3 2.75 3 2 2.66 2 2.25s.34-.75.75-.75z"/></g></svg>