<svg xmlns="http://www.w3.org/2000/svg" viewBox="0 0 11 11" data-tags="Visualisation"><g><path d="M1 4.5l.3-.1 3.8-2.8L8.8 3c.3 0 .6 0 .7-.3 0-.3 0-.6-.3-.7L5.2.5l-.5.1L.9 3.4.3 3a.5.5 0 00-.7.3c0 .2 0 .5.3.6l1 .5.2.1zM1.5 6C.7 6 0 6.7 0 7.5v2a1.5 1.5 0 103 0v-2C3 6.7 2.3 6 1.5 6zM2 9.5c0 .3-.2.5-.5.5S1 9.8 1 9.5v-2c0-.3.2-.5.5-.5s.5.2.5.5v2z"/><path d="M5.5 3C4.7 3 4 3.7 4 4.5v5a1.5 1.5 0 103 0v-5C7 3.7 6.3 3 5.5 3zM6 9.5c0 .3-.2.5-.5.5S5 9.8 5 9.5v-5c0-.3.2-.5.5-.5s.5.2.5.5v5zM9.5 5C8.7 5 8 5.7 8 6.5v3a1.5 1.5 0 103 0v-3c0-.8-.7-1.5-1.5-1.5zm.5 4.5c0 .3-.2.5-.5.5S9 9.8 9 9.5v-3c0-.3.2-.5.5-.5s.5.2.5.5v3z"/></g></svg>