<svg xmlns="http://www.w3.org/2000/svg" viewBox="0 0 12 11" data-tags="Visualisation"><path d="M1.5 3h6a1.5 1.5 0 100-3h-6a1.5 1.5 0 100 3zm6-2c.3 0 .5.2.5.5s-.2.5-.5.5h-2c-.3 0-.5-.2-.5-.5s.2-.5.5-.5h2zm-6 0h2.6l-.1.5V2H1.6c-.3 0-.5-.2-.5-.5s.2-.5.5-.5zm9 3h-9a1.5 1.5 0 100 3h9a1.5 1.5 0 100-3zm-9 2c-.3 0-.5-.2-.5-.5s.2-.5.5-.5h3c.3 0 .5.2.5.5s-.2.5-.5.5h-3zm9 0H5.9l.1-.5V5h4.5c.3 0 .5.2.5.5s-.2.5-.5.5zm-3 2h-6a1.5 1.5 0 100 3h6a1.5 1.5 0 100-3zm-6 2c-.3 0-.5-.2-.5-.5s.2-.5.5-.5h2c.3 0 .5.2.5.5s-.2.5-.5.5h-2zm6 0H4.9l.1-.5V9h2.5c.3 0 .5.2.5.5s-.2.5-.5.5z"/></svg>