<svg data-tags="youtube" xmlns="http://www.w3.org/2000/svg" viewBox="0 0 14 14"><path d="M13.39 6.17a2.799 2.799 0 0 0-1.921-1.316 2.67 2.67 0 0 0 .681-3.492A2.852 2.852 0 0 0 8.317.365L1.637 4.11A2.68 2.68 0 0 0 .61 7.83a2.967 2.967 0 0 0 1.827 1.393 2.668 2.668 0 0 0-.587 3.416 2.852 2.852 0 0 0 3.833.997l6.68-3.744a2.68 2.68 0 0 0 1.027-3.72Zm-1.378 3.131-6.68 3.744a2.14 2.14 0 0 1-2.874-.748 2.01 2.01 0 0 1 .77-2.79l.911-.51-.35-.59a1.923 1.923 0 0 1-2.572-.918 2.01 2.01 0 0 1 .77-2.79L8.668.955a2.14 2.14 0 0 1 2.875.748 2.01 2.01 0 0 1-.77 2.79l-1.213.68h-.002l.351.59a2.14 2.14 0 0 1 2.875.748 2.01 2.01 0 0 1-.77 2.79Z"/><path d="m8.881 7.195-2.66-1.49a.375.375 0 0 0-.565.315v2.983a.383.383 0 0 0 .571.327l2.66-1.491a.367.367 0 0 0-.006-.644Z"/></svg>