<svg data-tags="acousticExchange" xmlns="http://www.w3.org/2000/svg" viewBox="0 0 14 14"><path fill="#73f2ae" d="M0 0h14v14H0z"/><path d="M3.215 10.178a3.564 3.564 0 0 1-.713-2.28 6.046 6.046 0 0 1 .974-3.434 3.278 3.278 0 0 1 2.732-1.516 2.016 2.016 0 0 1 2.099 1.386l.683-1.205h2.51l-.914 5.212a.5.5 0 0 0-.03.24c0 .232.09.332.321.332a1.439 1.439 0 0 0 .412-.09l-.321 1.857a3.631 3.631 0 0 1-1.486.322c-1.135 0-1.918-.653-1.918-1.577v-.12a2.57 2.57 0 0 1-2.43 1.747 2.457 2.457 0 0 1-1.919-.874ZM6.55 8.682c.593 0 1.005-.512 1.185-1.446a7.802 7.802 0 0 0 .15-1.185c0-.593-.29-.914-.833-.914a1.26 1.26 0 0 0-1.064.763 3.63 3.63 0 0 0-.331 1.657c-.01.723.331 1.125.893 1.125Z" fill="#13183b"/></svg>