<svg data-tags="acousticExchange" xmlns="http://www.w3.org/2000/svg" viewBox="0 0 14 14"><path d="M1.113 11.944a5.545 5.545 0 0 1-1.11-3.546A9.404 9.404 0 0 1 1.52 3.056 5.099 5.099 0 0 1 5.768.696a3.136 3.136 0 0 1 3.265 2.157L10.095.978H14l-1.421 8.107a.779.779 0 0 0-.047.375c0 .36.14.516.5.516a2.238 2.238 0 0 0 .64-.141l-.5 2.89a5.649 5.649 0 0 1-2.312.5c-1.765 0-2.983-1.016-2.983-2.453v-.187a3.998 3.998 0 0 1-3.78 2.718 3.822 3.822 0 0 1-2.984-1.36Zm5.186-2.328c.922 0 1.562-.796 1.843-2.25a12.14 12.14 0 0 0 .235-1.842c0-.922-.453-1.422-1.297-1.422A1.96 1.96 0 0 0 5.424 5.29a5.646 5.646 0 0 0-.515 2.578c-.016 1.124.515 1.75 1.39 1.75Z"/></svg>