<svg data-tags="channel" xmlns="http://www.w3.org/2000/svg" viewBox="0 0 14 14"><path d="M6.05 9.83a6.9 6.9 0 00-.04-1.16H3.2a5.77 5.77 0 002.85 1.16zm6.07-2.19H1.93a3.04 3.04 0 00.53.5h9.1a1.79 1.79 0 00.56-.5zm.83-1.1H1.12a4 4 0 00.36.54h11.1a2.34 2.34 0 00.37-.54zm-2.09 2.12H8.07a6.03 6.03 0 00-.08 1.16 5.7 5.7 0 002.87-1.16zM8.8 6.01a9.72 9.72 0 00.06-.98A7.26 7.26 0 007.03.19a7.19 7.19 0 00-1.82 4.84 5.77 5.77 0 00.05.98zm-3.85 0a6.73 6.73 0 00-.57-.76A6.88 6.88 0 00.1 2.92 6 6 0 00.84 6zm9.03-3.09A6.86 6.86 0 009.7 5.25a5 5 0 00-.56.76h4.09a6.02 6.02 0 00.75-3.1zM7.03 9.91a5.55 5.55 0 00.88-1.24H6.15a5.03 5.03 0 00.88 1.24zm6.35 1.02a.3.3 0 00.6 0 .3.3 0 10-.6 0zm.56 0a.27.27 0 01-.26.26.27.27 0 010-.53.27.27 0 01.26.27z"/><path d="M13.57 11.1h.06v-.14h.07c.04 0 .05.03.05.1v.04h.05V11c0-.05-.03-.06-.05-.06.03 0 .06-.05.06-.09a.11.11 0 00-.12-.1h-.12zm.06-.3h.07a.06.06 0 01.05.06c0 .03-.04.04-.07.04h-.05zm-.24 1.54c-.39-.1-.88-.08-.88-.33.02-.16.18-.2.41-.2.36 0 .38.19.4.31h.58a.9.9 0 00-1-.77c-.63 0-.99.33-.99.76a.64.64 0 00.33.58 2.66 2.66 0 00.61.17c.26.03.5.05.51.23 0 .13-.12.28-.4.28-.4 0-.48-.22-.48-.37h-.62c.01.47.41.8 1.07.8.58 0 1.07-.23 1.07-.8 0-.33-.23-.56-.61-.66zm-2.36-.78a1.16 1.16 0 00-.7-.21 1.24 1.24 0 00-1.24 1.23 1.25 1.25 0 001.25 1.23 1.3 1.3 0 00.7-.2v.14h.59v-2.37h-.6zm-.66 1.7a.69.69 0 110-1.38.69.69 0 010 1.38zm-2.05-2.7v1a1.24 1.24 0 00-.7-.21 1.23 1.23 0 100 2.45 1.35 1.35 0 00.7-.2v.15h.58v-3.2h-.58zm-.7 2.7a.69.69 0 11.7-.68.7.7 0 01-.7.68zm-2.06-1.89h.58v2.38h-.58zm0-.81h.58v.59h-.58zm-.89.99a1.24 1.24 0 10-.7 2.26 1.4 1.4 0 00.7-.2v.14h.6v-3.2h-.6zM4 13.25a.69.69 0 11.68-.67.7.7 0 01-.68.68zm-2.06-1.69a1.29 1.29 0 00-.71-.21 1.23 1.23 0 000 2.46 1.38 1.38 0 00.71-.2v.14h.58v-2.37h-.58zm-.7 1.7a.69.69 0 010-1.38.69.69 0 110 1.38z"/></svg>
