<svg xmlns="http://www.w3.org/2000/svg" viewBox="0 0 14 14"><radialGradient id="adobeAnalytics_clr__a" cx="7" cy="7" r="7" gradientUnits="userSpaceOnUse"><stop offset="0" stop-color="#33284e"/><stop offset=".767" stop-color="#130732"/></radialGradient><path fill-rule="evenodd" clip-rule="evenodd" fill="url(#adobeAnalytics_clr__a)" d="M0 7a7 7 0 1014 0A7 7 0 100 7z"/><path fill="#E2D8FF" d="M5.44 7.068h-.644V11.3c.196.102.434.184.644.258v-4.49zm1.187-.271v4.992c.088.007.224.047.312.047.115 0 .217 0 .332-.007V6.797h-.644zm3.697 3.54c.23-.244.468-.536.644-.82v-3.23h-.644v4.05zM3.263 7.34l1.485-1.716 1.41.53 3.02-2.165 1.519 1.438.766-.61-.115-.251-.638.536-1.499-1.398-3.066 2.191-1.424-.549-1.587 1.79-.99.231v.23l1.119-.257zm.312 1.018H2.93v1.248c.177.271.414.529.645.76v-2.01zm5.562-2.85h-.645v6.03c.21-.074.448-.162.645-.27v-5.76z"/><path fill-rule="evenodd" clip-rule="evenodd" fill="#9F7FFF" d="M0 7a7 7 0 1014 0A7 7 0 100 7zm.719 0C.719 3.527 3.534.712 7 .712S13.281 3.527 13.281 7 10.466 13.288 7 13.288.719 10.473.719 7z"/></svg>
