<svg data-tags="Adobe Experience Manager" xmlns="http://www.w3.org/2000/svg" viewBox="0 0 14 14"><defs><radialGradient id="brand_adobeExperienceManager_clr__a" cx="-213.772" cy="-278.242" r="2.867" gradientTransform="matrix(2.44141 0 0 -2.44141 526.718 -674.49)" gradientUnits="userSpaceOnUse"><stop offset="0" stop-color="#382a1f"/><stop offset="1" stop-color="#221507"/></radialGradient></defs><path d="M0 0h14v14H0Z" fill="url(#brand_adobeExperienceManager_clr__a)"/><path d="M.97 7A6.03 6.03 0 1 0 7 .97 6.029 6.029 0 0 0 .97 7Zm.616-.007a5.42 5.42 0 1 1 0 .002Z" fill="#ee7d37"/><path d="M10.76 7a1.32 1.32 0 0 0-.743-1.185 1.4 1.4 0 0 0-1.832-1.832 1.318 1.318 0 0 0-2.37 0 1.4 1.4 0 0 0-1.832 1.832 1.318 1.318 0 0 0 0 2.37 1.4 1.4 0 0 0 1.832 1.832 1.318 1.318 0 0 0 2.37 0 1.4 1.4 0 0 0 1.832-1.832A1.32 1.32 0 0 0 10.76 7ZM9.465 4.535a1.047 1.047 0 0 1 .212 1.169 1.33 1.33 0 0 0-.235-.022 1.125 1.125 0 0 1-1.124-1.124 1.33 1.33 0 0 0-.022-.235 1.047 1.047 0 0 1 1.169.212ZM8.117 9.573a1.183 1.183 0 0 1-.127-.108 1.4 1.4 0 0 0-1.98 0 1.183 1.183 0 0 1-.127.108 1.025 1.025 0 0 1-.008-.131 1.318 1.318 0 0 0-1.317-1.317 1.027 1.027 0 0 1-.131-.008 1.183 1.183 0 0 1 .108-.127 1.4 1.4 0 0 0 0-1.98 1.183 1.183 0 0 1-.108-.127 1.025 1.025 0 0 1 .131-.008 1.318 1.318 0 0 0 1.317-1.317 1.027 1.027 0 0 1 .008-.131 1.184 1.184 0 0 1 .127.108 1.4 1.4 0 0 0 1.98 0 1.184 1.184 0 0 1 .127-.108 1.027 1.027 0 0 1 .008.131 1.318 1.318 0 0 0 1.317 1.317 1.025 1.025 0 0 1 .131.008 1.184 1.184 0 0 1-.108.127 1.4 1.4 0 0 0 0 1.98 1.184 1.184 0 0 1 .108.127 1.027 1.027 0 0 1-.131.008 1.318 1.318 0 0 0-1.317 1.317 1.027 1.027 0 0 1-.008.131ZM7 3.433a1.125 1.125 0 0 1 1.013.636 1.416 1.416 0 0 0-.276.214 1.043 1.043 0 0 1-1.474 0 1.416 1.416 0 0 0-.276-.214A1.125 1.125 0 0 1 7 3.433ZM4.535 4.535a1.047 1.047 0 0 1 1.169-.212 1.33 1.33 0 0 0-.022.235 1.125 1.125 0 0 1-1.124 1.124 1.331 1.331 0 0 0-.235.022 1.047 1.047 0 0 1 .212-1.169ZM3.433 7a1.125 1.125 0 0 1 .636-1.013 1.416 1.416 0 0 0 .214.276 1.043 1.043 0 0 1 0 1.474 1.416 1.416 0 0 0-.214.276A1.125 1.125 0 0 1 3.433 7Zm1.102 2.465a1.047 1.047 0 0 1-.212-1.169 1.33 1.33 0 0 0 .235.022 1.125 1.125 0 0 1 1.124 1.124 1.331 1.331 0 0 0 .022.235 1.047 1.047 0 0 1-1.169-.212ZM7 10.567a1.125 1.125 0 0 1-1.013-.636 1.416 1.416 0 0 0 .276-.214 1.043 1.043 0 0 1 1.474 0 1.416 1.416 0 0 0 .276.214A1.125 1.125 0 0 1 7 10.567Zm2.465-1.102a1.047 1.047 0 0 1-1.169.212 1.33 1.33 0 0 0 .022-.235 1.125 1.125 0 0 1 1.124-1.124 1.33 1.33 0 0 0 .235-.022 1.047 1.047 0 0 1-.212 1.169Zm.466-1.452a1.416 1.416 0 0 0-.214-.276 1.043 1.043 0 0 1 0-1.474 1.416 1.416 0 0 0 .214-.276 1.125 1.125 0 0 1 0 2.026Z" fill="#f9e0cd"/></svg>