<svg xmlns="http://www.w3.org/2000/svg" viewBox="0 0 14 14"><path fill-rule="evenodd" clip-rule="evenodd" d="M9.211 3.674L6.145 5.864l-1.425-.55-1.587 1.791-.99.23v.232l1.12-.258 1.485-1.716 1.41.53 3.02-2.165 1.518 1.439.767-.611-.116-.251-.637.536-1.499-1.398zm1.757 2.584h-.645v4.05c.231-.244.468-.535.645-.82v-3.23zm-7.394 2.07H2.93v1.248c.176.27.414.528.644.758V8.329zm5.562-2.85h-.644v6.03c.21-.074.448-.162.644-.27v-5.76zM5.44 7.039h-.645v4.233c.197.102.434.184.645.258V7.04zm1.831-.27h-.644v4.992c.088.007.223.047.312.047.115 0 .217 0 .332-.007V6.767zM7 0a7 7 0 110 14A7 7 0 017 0z"/></svg>