<svg xmlns="http://www.w3.org/2000/svg" viewBox="0 0 14 14"><radialGradient id="adobeAnalyticsCircle_clr__a" cx="7" cy="7" r="7" gradientUnits="userSpaceOnUse"><stop offset="0" stop-color="#33284e"/><stop offset=".767" stop-color="#130732"/></radialGradient><path fill-rule="evenodd" clip-rule="evenodd" fill="url(#adobeAnalyticsCircle_clr__a)" d="M9.184 3.623l-2.96 2.115-1.376-.53-1.533 1.729-.956.223v.223l1.081-.25 1.435-1.657 1.362.51 2.914-2.088 1.468 1.389.74-.59-.11-.242-.617.517-1.448-1.35zm1.697 2.495h-.623v3.91a5.11 5.11 0 00.623-.792V6.118zm-7.14 1.998H3.12V9.32c.17.263.4.51.622.734v-1.94zm5.371-2.751H8.49v5.823a4.35 4.35 0 00.622-.261V5.365zM5.543 6.872H4.92v4.087c.19.098.42.177.623.249V6.872zm1.768-.263H6.69v4.82c.085.008.216.047.301.047.111 0 .21 0 .321-.007v-4.86zM7 0l.24.004A7 7 0 0114 7l-.005.24A7 7 0 017 14l-.241-.004A7 7 0 010 6.999 6.999 6.999 0 017 0z"/></svg>
