<svg data-tags="adobe,experience platform" xmlns="http://www.w3.org/2000/svg" viewBox="0 0 14 14"><path d="M6.937 13.828c-1.472 0-2.944.005-4.416-.002a2.436 2.436 0 0 1-2.516-2.501q-.01-4.334 0-8.668A2.44 2.44 0 0 1 2.49.175q4.498-.01 8.996 0a2.432 2.432 0 0 1 2.507 2.508q.015 4.307 0 8.613a2.42 2.42 0 0 1-2.531 2.531c-1.508.005-3.017.001-4.525.001Zm.065-7.986c.487 1.139.92 2.147 1.35 3.157.627 1.478.626 1.465 2.259 1.457.492-.003.552-.145.367-.573-.761-1.76-1.499-3.53-2.246-5.295-.646-1.528-.647-1.516-2.28-1.512a.717.717 0 0 0-.768.518c-.81 1.975-1.646 3.939-2.471 5.907-.397.946-.396.946.613.946 1.199 0 2.398.002 3.597-.002.208 0 .523.035.41-.31a4.147 4.147 0 0 0-.575-1.22c-.206-.271-.616-.07-.932-.108-.168-.02-.34-.02-.555-.031Z" fill="#f91001"/><path d="m7.002 5.842-1.23 2.934c.214.011.386.01.554.031.316.039.726-.163.932.108a4.147 4.147 0 0 1 .576 1.22c.112.345-.203.31-.411.31-1.2.004-2.398.002-3.597.002-1.01 0-1.01 0-.613-.946.825-1.968 1.661-3.932 2.47-5.907a.717.717 0 0 1 .768-.518c1.634-.004 1.635-.016 2.281 1.512.747 1.765 1.485 3.535 2.246 5.295.185.428.125.57-.367.573-1.633.008-1.632.021-2.26-1.457-.429-1.01-.862-2.018-1.349-3.157Z" fill="#fefcfb"/></svg>