<svg data-tags="adobe,experience platform" xmlns="http://www.w3.org/2000/svg" viewBox="0 0 14 14"><path d="M13.993 2.683A2.432 2.432 0 0 0 11.486.175Q6.988.166 2.49.175A2.44 2.44 0 0 0 .005 2.657q-.01 4.334 0 8.668a2.436 2.436 0 0 0 2.516 2.501c1.472.007 2.944.002 4.416.002 1.508 0 3.017.004 4.525-.001a2.42 2.42 0 0 0 2.531-2.53q.013-4.307 0-8.614Zm-3.382 7.773c-1.633.008-1.632.021-2.26-1.457-.428-1.01-.862-2.018-1.349-3.157l-1.23 2.934c.214.011.386.01.554.031.316.039.726-.163.932.108a4.147 4.147 0 0 1 .576 1.22c.112.345-.203.31-.411.31-1.2.004-2.398.002-3.597.002-1.01 0-1.01 0-.613-.946.825-1.968 1.661-3.932 2.47-5.907a.717.717 0 0 1 .768-.518c1.634-.004 1.635-.016 2.281 1.512.747 1.765 1.485 3.535 2.246 5.295.185.428.125.57-.367.573Z"/></svg>