<svg data-tags="adobe,experience platform" xmlns="http://www.w3.org/2000/svg" viewBox="0 0 14 14"><rect width="14" height="14" rx="7" fill="#f91001"/><path d="M6.982 6.076 5.752 9.01c.214.011.386.01.554.031.316.039.726-.163.932.107a4.147 4.147 0 0 1 .576 1.22c.112.346-.203.31-.411.31-1.2.005-2.398.003-3.598.003-1.008 0-1.01 0-.613-.946.826-1.968 1.662-3.932 2.472-5.907a.717.717 0 0 1 .767-.518c1.634-.004 1.634-.016 2.281 1.512.747 1.765 1.484 3.535 2.246 5.295.185.428.124.57-.367.572-1.633.009-1.632.022-2.26-1.456-.429-1.01-.862-2.019-1.35-3.157Z" fill="#fefcfb"/></svg>