<svg data-tags="advertising" xmlns="http://www.w3.org/2000/svg" viewBox="0 0 14 14"><path d="M7.735 5.213l1.11 3.606c.224 0 .538-.017.787-.021L8.447 4.654c-.204.147-.534.442-.712.559z"/><path d="M7 0a7 7 0 100 14A7 7 0 007 0zm3.495 9.62a.308.308 0 01-.22.3.31.31 0 01-.382-.212l-.125-.434H8.726V9.27h-.212v-.006h-.386a1.632 1.632 0 01-1.6 1.315 1.632 1.632 0 01-1.597-1.314h-.21a1.094 1.094 0 01-.606-.155 1.093 1.093 0 01-.501-.651c-.032-.107-.069-.212-.09-.32a1.099 1.099 0 01.478-1.148c.825-.543 1.65-1.082 2.476-1.623l1.83-1.198-.1-.354a.31.31 0 01.212-.383.311.311 0 01.383.212l1.342 4.69.273.92c.027.092.059.183.078.277.006.03.005.06-.001.089z"/><path d="M6.528 9.98c.447-.002.841-.29.977-.716H5.553c.135.425.53.714.975.716z"/></svg>