<svg data-tags="advocacy" xmlns="http://www.w3.org/2000/svg" viewBox="0 0 14 14"><path fill="#5aa1ed" d="M-.021 0h14v14h-14z"/><path d="M10.644 2.207a.298.298 0 0 0-.407-.006.264.264 0 0 0-.018.373l.012.013a4.152 4.152 0 0 1 .244 5.744.264.264 0 0 0 .023.372l.015.013a.295.295 0 0 0 .183.063.292.292 0 0 0 .222-.1 4.68 4.68 0 0 0-.274-6.473Zm-7.099.096a.298.298 0 0 0-.405.025 4.673 4.673 0 0 0-.152 6.237.302.302 0 0 0 .405.042.264.264 0 0 0 .056-.37l-.012-.014a4.148 4.148 0 0 1 .134-5.534.264.264 0 0 0-.01-.374Z" fill="#fff"/><circle cx="7.065" cy="5.772" r="1.456" fill="#fff"/><path d="M7.065 8.03a3.1 3.1 0 0 0-3.137 2.836 4.63 4.63 0 0 0 3.13 1.01 4.553 4.553 0 0 0 3.145-1.01 3.1 3.1 0 0 0-3.138-2.835Zm2.22-4.358a.264.264 0 0 0-.072.366l.011.016a2.546 2.546 0 0 1 .04 3.088.265.265 0 0 0 .057.37l.013.01a.296.296 0 0 0 .401-.067 3.07 3.07 0 0 0-.049-3.726.296.296 0 0 0-.4-.057ZM4.51 7.54a.298.298 0 0 0 .173-.055.265.265 0 0 0 .068-.369l-.01-.014a2.544 2.544 0 0 1-.11-3.03.265.265 0 0 0-.07-.369l-.016-.01a.297.297 0 0 0-.398.082A3.069 3.069 0 0 0 4.28 7.43a.295.295 0 0 0 .23.109Z" fill="#fff"/></svg>