<svg data-tags="advocacy" xmlns="http://www.w3.org/2000/svg" viewBox="0 0 14 14"><path d="M11.984 1.103a.51.51 0 0 0-.696-.01.465.465 0 0 0-.151.335.46.46 0 0 0 .14.339 5.588 5.588 0 0 1 .33 7.734.46.46 0 0 0-.113.348.467.467 0 0 0 .18.324.506.506 0 0 0 .69-.063 6.513 6.513 0 0 0-.38-9.007ZM2.333 9.353a5.582 5.582 0 0 1 .182-7.45.462.462 0 0 0-.044-.674.51.51 0 0 0-.695.043 6.507 6.507 0 0 0-.21 8.678.501.501 0 0 0 .384.177.51.51 0 0 0 .306-.103.47.47 0 0 0 .184-.321.463.463 0 0 0-.107-.35ZM7.12 8.055a1.998 1.998 0 1 0-1.41-.585 1.996 1.996 0 0 0 1.41.585ZM7.12 9.155a4.246 4.246 0 0 0-4.3 3.885h8.598A4.247 4.247 0 0 0 7.12 9.155Z" fill="#5aa1ed"/><path d="M9.889 3.766a3.39 3.39 0 0 1 .055 4.111.454.454 0 0 0-.084.353.47.47 0 0 0 .205.311.507.507 0 0 0 .685-.116 4.313 4.313 0 0 0-.069-5.225.507.507 0 0 0-.687-.101.47.47 0 0 0-.198.315.458.458 0 0 0 .093.352ZM3.333 8.394a.507.507 0 0 0 .687.095.465.465 0 0 0 .195-.318.454.454 0 0 0-.095-.35 3.387 3.387 0 0 1-.148-4.035.461.461 0 0 0 .07-.356.472.472 0 0 0-.216-.303.507.507 0 0 0-.267-.075.497.497 0 0 0-.413.215 4.31 4.31 0 0 0 .187 5.127Z" fill="#5aa1ed"/></svg>