<svg data-tags="brand" xmlns="http://www.w3.org/2000/svg" viewBox="0 0 14 14"><circle fill="#40A3F5" cx="7" cy="7" r="7"/><g fill="#FFF"><path d="M10.666 3.62a.298.298 0 00-.407-.006.264.264 0 00-.006.386 4.178 4.178 0 011.28 3.068 4.14 4.14 0 01-1.036 2.676.264.264 0 00.038.385.295.295 0 00.183.063.292.292 0 00.222-.1 4.73 4.73 0 001.168-3.015c.02-1.297-.492-2.524-1.442-3.458zm-7.099.096a.298.298 0 00-.405.025 4.73 4.73 0 00-1.27 3.13A4.716 4.716 0 003.01 9.978a.302.302 0 00.405.042.264.264 0 00.044-.384 4.184 4.184 0 01-.992-2.757 4.196 4.196 0 011.126-2.777.264.264 0 00-.026-.386z"/><circle cx="7.087" cy="7.185" r="1.456"/><path d="M7.087 9.444c-1.668 0-3.03 1.253-3.137 2.835 0 0 1.037 1.011 3.13 1.011 2.141 0 3.145-1.01 3.145-1.01-.107-1.583-1.469-2.836-3.138-2.836zm2.22-4.359a.264.264 0 00-.061.382 2.546 2.546 0 01.04 3.088.265.265 0 00.07.38.296.296 0 00.401-.067 3.07 3.07 0 00-.049-3.726.296.296 0 00-.401-.057zM4.531 8.953c.06 0 .121-.018.173-.055a.265.265 0 00.057-.383 2.544 2.544 0 01-.11-3.03.265.265 0 00-.085-.378.297.297 0 00-.398.081 3.069 3.069 0 00.133 3.656.295.295 0 00.23.109z"/></g></svg>