<svg data-tags="advance engine management, channel" xmlns="http://www.w3.org/2000/svg" viewBox="0 0 14 14"><path d="M12.21 5.05l-1.12 1.19-.2-1.19H4.02L0 8.95h2.05l.56-.56-.2.56h9.99l1.6-3.9h-1.79z"/><path d="M5.19 6.31l-.4.95a.07.07 0 01-.07.04H4.7a.07.07 0 01-.06-.05l-.05-.29-.27.52a.07.07 0 01-.06.04h-.01a.07.07 0 01-.06-.05.46.46 0 00-.44-.4H2.21L.46 8.76h1.51l1.1-1.1-.4 1.1h1.66l.86-2.1z"/><path d="M4.33 8.77H2.66l.38-1.06-1.06 1.06H.43L2.2 7.05h1.57a.47.47 0 01.44.42.06.06 0 00.05.04.06.06 0 00.06-.03l.28-.55.06.31a.06.06 0 00.11.02l.43-1v.4zM2.7 8.75h1.63l.86-2.09v-.3l-.39.9a.08.08 0 01-.15-.01l-.05-.26-.25.5a.08.08 0 01-.15-.02.44.44 0 00-.42-.4H2.22L.48 8.76h1.49l1.12-1.12z"/><path d="M3.77 6.92a.56.56 0 01.5.35l.3-.56a.07.07 0 01.06-.04.07.07 0 01.07.06l.04.26.45-1.04a.07.07 0 01.07-.04h.01a.07.07 0 01.06.06v.35l.44-1.08H4.1L2.36 6.92z"/><path d="M4.28 7.3v-.02a.55.55 0 00-.5-.34H2.32l1.76-1.71h1.7L5.3 6.38v-.4a.06.06 0 00-.04-.06h-.01a.06.06 0 00-.06.03l-.46 1.08-.05-.3a.06.06 0 00-.11-.01zm-1.9-.39h1.4a.57.57 0 01.5.34l.28-.54a.08.08 0 01.07-.05h.01a.08.08 0 01.06.07l.05.23.44-1.02a.08.08 0 01.07-.05h.02a.08.08 0 01.06.08v.3l.42-1.02H4.1z"/><path d="M5.33 7.7l.52-1.32a.07.07 0 01.06-.04h.01a.07.07 0 01.06.06l.07.65.22-.36a.07.07 0 01.06-.04h.02a.07.07 0 01.05.06l.05.2h1.97l.17-.42H7.16l.1-.25H8.7l.41-1H6.08l-.75 1.84z"/><path d="M5.31 7.76v-.69l.76-1.84h3.04L8.7 6.25H7.27l-.1.23H8.6l-.17.44H6.44L6.4 6.7a.06.06 0 00-.1-.02l-.25.39-.06-.68a.06.06 0 00-.12-.01zm.03-.68v.56l.5-1.26a.08.08 0 01.15.02l.06.61.21-.33a.08.08 0 01.07-.04h.01a.08.08 0 01.07.06l.04.2h1.96l.16-.4H7.14l.12-.27h1.43l.4-.98h-3z"/><path d="M8.17 7.52l.2-.48H6.4A.07.07 0 016.33 7l-.02-.1-.25.4a.07.07 0 01-.06.03.07.07 0 01-.06-.06l-.05-.56-.56 1.4a.07.07 0 01-.06.04h-.01a.07.07 0 01-.06-.07v-.65l-.55 1.34h3.02l.4-1H6.66l.1-.24z"/><path d="M7.66 8.77H4.62l.58-1.4v.7a.06.06 0 00.05.06.06.06 0 00.06-.04l.57-1.44.06.6a.06.06 0 00.1.03l.27-.41.03.12a.06.06 0 00.06.04h1.98l-.2.5H6.76l-.1.22h1.42zm-3-.02h2.99l.4-.97H6.63l.11-.28h1.42l.18-.44H6.4a.08.08 0 01-.08-.07l-.02-.07-.23.38a.08.08 0 01-.15-.04l-.05-.51-.54 1.35a.08.08 0 01-.07.05h-.02a.08.08 0 01-.06-.08v-.6z"/><path d="M8.68 7.04l-.71 1.72h1.64l.33-.78.2.78.82-.79-.32.79h1.64l.7-1.72h-4.3z"/><path d="M10.13 8.78l-.2-.77-.31.76H7.96l.71-1.74H13l-.71 1.74h-1.67l.31-.75zm.53-.03h1.61l.7-1.7H8.69l-.7 1.7H9.6l.34-.8.2.8.85-.82z"/><path d="M13.04 6.91l.68-1.67h-1.43l-1.32 1.39-.24-1.39H9.42l-.68 1.67h4.3z"/><path d="M13.05 6.92H8.72l.7-1.7h1.32l.24 1.39 1.3-1.38h1.46zm-4.3-.03h4.28l.67-1.64h-1.4l-1.33 1.4-.24-1.4h-1.3z"/></svg>
