<svg data-tags="aeris" xmlns="http://www.w3.org/2000/svg" viewBox="0 0 14 14"><path fill="#2f74b4" d="M0 0h14v14H0z"/><path d="M11.258 7.801h.02a.152.152 0 0 1-.048-.118 4.064 4.064 0 0 0 .049-.5 4.14 4.14 0 0 0-.188-1.237.09.09 0 0 1 .021-.118 1.1 1.1 0 0 0 .167-1.404 1.038 1.038 0 0 0-1.355-.355c-.05.021-.07 0-.119-.02a4.064 4.064 0 0 0-2.62-.953h-.118c-.097 0-.097-.02-.118-.07a.764.764 0 0 0-.813-.333.725.725 0 0 0-.57.668c-.02.048-.02.069-.07.097A4.127 4.127 0 0 0 3.26 6.057c-.021.049-.021.049-.07.07h-.02a.84.84 0 0 0-.098 1.619c.049.02.07.02.07.097a4.313 4.313 0 0 0 .716 1.765 3.371 3.371 0 0 0 .382.452 4.011 4.011 0 0 0 1.689 1.05q.25.083.5.145a4.011 4.011 0 0 0 .764.07 4.24 4.24 0 0 0 1.356-.236l.451-.188a4.09 4.09 0 0 0 1.905-1.953c.02-.049.048-.049.097-.07a.597.597 0 0 0 .48-.402.645.645 0 0 0-.223-.675ZM9.66 5.85c.02.048.048.048.02.097a9.014 9.014 0 0 1-.618.903c-.021.021-.049.021-.118 0a7.623 7.623 0 0 0-1.404-.43c-.07 0-.07 0-.097-.098a5.36 5.36 0 0 0-.188-1.05h.02c-.02-.048-.02-.069.022-.069a7.254 7.254 0 0 1 1.285-.118h.668c.02 0 .048.02.048.097a1.043 1.043 0 0 0 .188.452.876.876 0 0 0 .174.216ZM7.707 8.066l-.188-.119c-.049-.02-.049-.02-.049-.118a5.02 5.02 0 0 0 .021-.855c0-.048.021-.07.049-.07a6.064 6.064 0 0 1 1.098.335c.02 0 .049.02 0 .069a7.618 7.618 0 0 1-.834.737Zm-.855-4.129h.02a.742.742 0 0 0 .147-.285c.02-.048.02-.07.097-.07h.07a3.59 3.59 0 0 1 2.265.814c.049.02.049.049.02.097l-.069.098h.021c-.02.02-.02.048-.118.048H8.59a8.633 8.633 0 0 0-1.404.118c-.048 0-.07 0-.097-.048a8.087 8.087 0 0 0-.236-.647.104.104 0 0 1 0-.125Zm.07 3.934a.836.836 0 0 0-.334.118h-.021c-.049.02-.049 0-.118-.02a7.731 7.731 0 0 0-2.023-1.002c-.07-.02-.07-.02-.02-.048a7.013 7.013 0 0 1 1.57-.167 6.92 6.92 0 0 1 1 .07.048.048 0 0 1 .05.048c0 .313 0 .619-.021.931s-.035.05-.084.07Zm-.119-2.502c.07.285.118.598.167.903s-.02.05-.097.05h.02l-.93-.05a7.304 7.304 0 0 0-1.6.167c-.069 0-.069 0-.048-.02A7.191 7.191 0 0 1 6.72 5.32a.076.076 0 0 1 .083.049Zm-3.079.764a3.719 3.719 0 0 1 1.932-2.217c.021 0 .05 0 .098.05a.716.716 0 0 0 .549.235c.048 0 .097 0 .118.05a3.916 3.916 0 0 1 .188.52c.02.07 0 .07-.07.098a8.143 8.143 0 0 0-2.717 1.313h-.07c-.028 0-.028 0-.028-.049Zm.647 3.336a3.815 3.815 0 0 1-.765-1.688.065.065 0 0 1 .049-.07.681.681 0 0 0 .354-.285c.021-.049.049-.049.098-.049A7.379 7.379 0 0 1 6.177 8.4c.05.02.022.049 0 .097a1.625 1.625 0 0 0-.048.313.355.355 0 0 0 .02.146h-.013c.02.049.02.07-.02.097a7.47 7.47 0 0 1-1.648.48.16.16 0 0 1-.097-.063Zm2.217.216a5.148 5.148 0 0 1-.382.931.065.065 0 0 1-.07.049 3.508 3.508 0 0 1-1.265-.688c-.02-.021-.02-.049.021-.049a7.124 7.124 0 0 0 1.404-.43c.07-.022.097-.022.118 0l.146.117c.028-.007.049.021.028.07Zm1.668.973a3.976 3.976 0 0 1-1.07.146h-.48c-.021 0-.049-.021-.021-.07a6.518 6.518 0 0 0 .354-.855c.05-.07.05-.07.119-.07l.333-.096a.094.094 0 0 1 .118 0l.452.57a1.579 1.579 0 0 1 .188.333.033.033 0 0 1 .007.042Zm2.189-1.904a3.713 3.713 0 0 1-1.647 1.667c-.049.021-.07.021-.097-.048l-.265-.382a5.883 5.883 0 0 0-.48-.619c-.048-.049-.048-.07-.02-.118h.02a1.461 1.461 0 0 0 .098-.452.756.756 0 0 0-.02-.215.09.09 0 0 1 .02-.118 8.013 8.013 0 0 0 1.05-.953c.02-.048.048-.069.097-.048a7.56 7.56 0 0 1 1.05.618c.048.021.048.049.02.098a.762.762 0 0 0 .146.451c.028.049.056.07.028.119Zm.333-1.12c-.02.021-.02.05-.069.05h-.07c-.048.02-.069.02-.097 0a5.222 5.222 0 0 0-1-.598c-.021-.021-.05-.07-.021-.098.215-.285.403-.57.597-.882a.071.071 0 0 1 .098-.021 1.012 1.012 0 0 0 .354 0c.049-.021.07 0 .07.048a3.653 3.653 0 0 1 .166 1.022c0 .195-.028.334-.028.48Z" fill="#fff"/></svg>