<svg data-tags="aeris" xmlns="http://www.w3.org/2000/svg" viewBox="0 0 14 14"><path d="M13.624 8.247h.032a.237.237 0 0 1-.076-.184 6.322 6.322 0 0 0 .076-.778 6.439 6.439 0 0 0-.292-1.925.139.139 0 0 1 .033-.184 1.712 1.712 0 0 0 .259-2.183 1.615 1.615 0 0 0-2.108-.552c-.076.033-.108 0-.184-.032A6.322 6.322 0 0 0 7.288.928h-.183c-.152 0-.152-.033-.184-.108A1.19 1.19 0 0 0 5.656.3 1.128 1.128 0 0 0 4.77 1.34c-.033.075-.033.108-.109.151a6.42 6.42 0 0 0-3.48 4.043c-.033.076-.033.076-.109.108H1.04a1.307 1.307 0 0 0-.151 2.52c.075.032.108.032.108.15a6.71 6.71 0 0 0 1.113 2.746 5.245 5.245 0 0 0 .595.703 6.24 6.24 0 0 0 2.627 1.633q.389.13.778.227a6.24 6.24 0 0 0 1.19.108 6.596 6.596 0 0 0 2.107-.368l.703-.292a6.362 6.362 0 0 0 2.962-3.038c.033-.075.076-.075.152-.108a.929.929 0 0 0 .745-.627 1.003 1.003 0 0 0-.345-1.048Zm-2.487-3.038c.032.076.076.076.032.151a14.019 14.019 0 0 1-.962 1.406c-.032.032-.075.032-.183 0a11.857 11.857 0 0 0-2.184-.67c-.108 0-.108 0-.152-.152a8.337 8.337 0 0 0-.291-1.632h.032c-.032-.076-.032-.109.032-.109a11.283 11.283 0 0 1 2-.183H10.5c.033 0 .076.032.076.151a1.623 1.623 0 0 0 .292.703 1.363 1.363 0 0 0 .27.335ZM8.1 8.657l-.292-.183c-.075-.033-.075-.033-.075-.184a7.809 7.809 0 0 0 .032-1.33c0-.075.033-.108.076-.108a9.434 9.434 0 0 1 1.708.519c.032 0 .076.032 0 .108A11.85 11.85 0 0 1 8.25 8.625ZM6.77 2.236h.033a1.154 1.154 0 0 0 .227-.443c.032-.076.032-.108.151-.108h.108a5.585 5.585 0 0 1 3.525 1.264c.075.033.075.076.032.152l-.108.151h.032c-.032.033-.032.076-.183.076H9.472a13.43 13.43 0 0 0-2.184.184c-.075 0-.108 0-.15-.076-.109-.335-.228-.67-.368-1.005a.162.162 0 0 1 0-.195Zm.109 6.119a1.3 1.3 0 0 0-.52.184h-.032c-.075.032-.075 0-.183-.033A12.026 12.026 0 0 0 2.997 6.95c-.108-.032-.108-.032-.033-.075a10.909 10.909 0 0 1 2.443-.26 10.765 10.765 0 0 1 1.557.108.074.074 0 0 1 .076.076c0 .487 0 .962-.033 1.449s-.054.075-.13.108Zm-.184-3.892c.108.443.184.93.26 1.405s-.033.076-.152.076h.032l-1.448-.076a11.361 11.361 0 0 0-2.487.26c-.108 0-.108 0-.075-.033a11.187 11.187 0 0 1 3.74-1.708.118.118 0 0 1 .13.076Zm-4.79 1.19a5.785 5.785 0 0 1 3.006-3.45c.033 0 .076 0 .151.076a1.114 1.114 0 0 0 .854.368c.076 0 .152 0 .184.075a6.089 6.089 0 0 1 .292.811c.033.108 0 .108-.108.152a12.666 12.666 0 0 0-4.227 2.043h-.108c-.043 0-.043 0-.043-.076ZM2.91 10.84a5.934 5.934 0 0 1-1.19-2.627.1.1 0 0 1 .077-.108 1.06 1.06 0 0 0 .551-.443c.032-.076.076-.076.151-.076a11.478 11.478 0 0 1 3.222 1.59c.076.032.032.075 0 .15a2.527 2.527 0 0 0-.076.487.552.552 0 0 0 .033.227h-.022c.032.076.032.108-.032.152a11.62 11.62 0 0 1-2.563.746.249.249 0 0 1-.15-.098Zm3.449.335a8.007 8.007 0 0 1-.595 1.449.1.1 0 0 1-.108.076 5.457 5.457 0 0 1-1.968-1.07c-.032-.033-.032-.076.033-.076a11.082 11.082 0 0 0 2.184-.67c.108-.033.151-.033.183 0l.227.183c.044-.01.076.033.044.108Zm2.594 1.514a6.184 6.184 0 0 1-1.665.227h-.745c-.033 0-.076-.033-.033-.108a10.141 10.141 0 0 0 .551-1.33c.076-.108.076-.108.184-.108l.52-.151a.146.146 0 0 1 .183 0l.703.886a2.456 2.456 0 0 1 .291.519.05.05 0 0 1 .011.065Zm3.406-2.962a5.776 5.776 0 0 1-2.562 2.594c-.076.033-.109.033-.152-.075l-.41-.595a9.152 9.152 0 0 0-.747-.962c-.075-.076-.075-.108-.032-.184h.032a2.273 2.273 0 0 0 .152-.703 1.177 1.177 0 0 0-.033-.335.139.139 0 0 1 .033-.184 12.466 12.466 0 0 0 1.632-1.48c.033-.076.076-.109.152-.076a11.759 11.759 0 0 1 1.632.962c.076.032.076.076.032.151a1.185 1.185 0 0 0 .227.703c.044.076.087.108.044.184Zm.519-1.74c-.033.032-.033.075-.109.075h-.108c-.075.032-.108.032-.151 0a8.122 8.122 0 0 0-1.557-.93c-.032-.032-.075-.108-.032-.151.335-.443.627-.887.93-1.373a.11.11 0 0 1 .15-.033 1.574 1.574 0 0 0 .552 0c.076-.032.108 0 .108.076a5.683 5.683 0 0 1 .26 1.59c0 .302-.043.518-.043.745Z"/></svg>