<svg data-tags="affiliate" xmlns="http://www.w3.org/2000/svg" viewBox="0 0 14 14"><circle cx="7" cy="7" r="7" fill="#40A3F5"/><g fill="#FFF"><path d="M8.054 8.949a.506.506 0 01.585-.554l.694.076c.253-.412.406-.892.406-1.41a2.705 2.705 0 10-1.621 2.475l-.064-.587zm.25-1.237c-.02.424-.291.703-.657.828-.104.035-.21.051-.316.066v.487h-.575v-.49a1.378 1.378 0 01-.54-.186.932.932 0 01-.452-.815v-.044h.639c.005.04.007.081.015.12a.461.461 0 00.28.36c.26.11.524.11.78-.009a.31.31 0 00.168-.39.345.345 0 00-.182-.188c-.136-.071-.285-.105-.433-.143-.219-.058-.443-.102-.652-.195a.94.94 0 01-.35-.248.727.727 0 01-.16-.543c.028-.393.261-.626.61-.763.09-.035.184-.051.278-.066V5.03h.573v.474c.153.026.302.067.439.147.287.168.424.425.434.753l-.003.035h-.635c-.008-.04-.012-.079-.021-.116a.381.381 0 00-.248-.285.82.82 0 00-.565-.013.314.314 0 00-.215.378.186.186 0 00.108.14 2.5 2.5 0 00.316.118c.227.064.457.117.683.181.17.048.323.128.451.252.177.17.241.38.23.62z"/><path d="M8.235 10.623c-.38.128-.778.214-1.2.214A3.78 3.78 0 013.259 7.06c0-2.082 1.694-3.776 3.776-3.776S10.81 4.979 10.81 7.06c0 .547-.123 1.064-.333 1.534l.759.083a4.486 4.486 0 00.304-1.617 4.506 4.506 0 10-3.225 4.318l-.081-.756z"/><path d="M11.87 9.489l-.832.832 1.364 1.364a.119.119 0 010 .165l-.8.8a.118.118 0 01-.164 0l-1.364-1.365-.833.833c-.044.044-.088.028-.096-.034l-.379-2.972c-.008-.062.037-.106.099-.098l2.972.378c.062.008.078.052.034.097z"/></g></svg>