<svg data-tags="affiliate" xmlns="http://www.w3.org/2000/svg" viewBox="0 0 14 14"><g fill="#40A3F5"><path d="M7.79 8.839a.7.7 0 01.809-.766l.96.104c.35-.569.561-1.232.561-1.948a3.738 3.738 0 10-3.738 3.738c.533 0 1.038-.115 1.496-.316l-.087-.812zm.346-1.71c-.027.586-.402.972-.908 1.144-.144.049-.29.071-.437.091v.673h-.794V8.36a1.905 1.905 0 01-.746-.257c-.414-.26-.614-.642-.626-1.127v-.06h.883c.007.056.01.112.02.167a.638.638 0 00.388.497c.36.153.724.151 1.08-.013a.429.429 0 00.23-.54c-.043-.124-.139-.2-.25-.258-.189-.1-.395-.146-.599-.2-.303-.08-.612-.14-.901-.268a1.3 1.3 0 01-.484-.343c-.183-.217-.243-.474-.223-.75.04-.544.363-.867.845-1.055.125-.05.254-.071.383-.091V3.42h.792v.655c.212.037.418.092.607.203.397.233.586.588.6 1.042.001.015-.002.03-.003.048h-.879c-.01-.057-.016-.11-.029-.16a.527.527 0 00-.342-.395 1.134 1.134 0 00-.78-.017.434.434 0 00-.299.523c.018.09.071.157.15.191.142.063.287.122.437.165.313.089.631.16.944.25.234.066.447.177.624.348.243.234.333.526.317.856z"/><path d="M8.04 11.153a5.151 5.151 0 01-1.658.295 5.225 5.225 0 01-5.22-5.22c0-2.878 2.342-5.219 5.22-5.219s5.22 2.341 5.22 5.22c0 .756-.17 1.47-.461 2.12l1.05.115c.267-.695.42-1.447.42-2.235a6.229 6.229 0 10-4.458 5.969l-.113-1.045z"/><path d="M13.066 9.584l-1.15 1.151 1.885 1.886a.164.164 0 010 .228l-1.106 1.105a.163.163 0 01-.227 0l-1.886-1.886-1.15 1.151c-.062.061-.122.04-.133-.046l-.524-4.11c-.011-.085.05-.146.136-.135l4.109.523c.085.011.107.072.046.133z"/></g></svg>