<svg data-tags="adobe,aftereffects,brand" xmlns="http://www.w3.org/2000/svg" viewBox="0 0 14 14"><rect width="14" height="13.65" y=".18" fill="#000557" rx="2.48"/><path fill="#979af7" d="M5.62 8.34H3.46L3 9.72a.11.11 0 0 1-.1.08H1.8q-.1 0-.07-.1L3.6 4.3l.06-.18a2 2 0 0 0 .04-.38.06.06 0 0 1 .06-.07h1.5q.06 0 .07.05L7.47 9.7q.03.09-.05.09H6.2a.09.09 0 0 1-.1-.07ZM3.8 7.18h1.49l-.13-.42-.16-.5-.17-.54-.16-.51-.12-.46h-.01a7.57 7.57 0 0 1-.2.75l-.27.87-.27.81ZM10.93 7.8H9.08a1.32 1.32 0 0 0 .18.52.97.97 0 0 0 .43.36 1.78 1.78 0 0 0 .74.14 3.38 3.38 0 0 0 .6-.06 2.23 2.23 0 0 0 .53-.14c.03-.02.05 0 .05.05v.89a.14.14 0 0 1-.02.07.13.13 0 0 1-.04.04 2.39 2.39 0 0 1-.58.18 4.13 4.13 0 0 1-.83.07 2.68 2.68 0 0 1-1.12-.21 2 2 0 0 1-.73-.55 2.17 2.17 0 0 1-.4-.77 3.01 3.01 0 0 1-.12-.85 2.96 2.96 0 0 1 .14-.92 2.42 2.42 0 0 1 .44-.8 2.1 2.1 0 0 1 .7-.56 2.2 2.2 0 0 1 .98-.18 2.12 2.12 0 0 1 .9.18 1.6 1.6 0 0 1 .62.46 2.14 2.14 0 0 1 .35.67 2.36 2.36 0 0 1 .11.7l-.01.38-.03.25a.09.09 0 0 1-.08.07l-.2.02-.33.02-.43-.02Zm-1.85-.85h1.56a.33.33 0 0 0 .14-.05v-.05a.75.75 0 0 0-.04-.22.77.77 0 0 0-.76-.54.82.82 0 0 0-.77.45 1.36 1.36 0 0 0-.13.41Z"/></svg>
