<svg data-tags="afterpayClearpay" xmlns="http://www.w3.org/2000/svg" viewBox="0 0 14 14"><path d="M13.086 3.264 8.935.818a1.826 1.826 0 0 0-2.74 1.615v.25a.637.637 0 0 0 .31.55l.784.462a.344.344 0 0 0 .518-.305v-.623a.396.396 0 0 1 .594-.35l3.596 2.118a.41.41 0 0 1 0 .702L8.4 7.357a.397.397 0 0 1-.595-.352v-.332a1.828 1.828 0 0 0-2.742-1.617L.913 7.502a1.888 1.888 0 0 0 0 3.234l4.151 2.446a1.828 1.828 0 0 0 2.743-1.615v-.252a.638.638 0 0 0-.31-.549l-.785-.463a.344.344 0 0 0-.517.305v.624a.396.396 0 0 1-.595.351l-3.594-2.12a.41.41 0 0 1 0-.702L5.6 6.64a.396.396 0 0 1 .594.352v.331a1.827 1.827 0 0 0 2.742 1.617l4.15-2.446a1.886 1.886 0 0 0 0-3.231Z"/></svg>