<svg data-tags="agoda,brand" xmlns="http://www.w3.org/2000/svg" viewBox="0 0 14 14"><path fill="#f2f2f2" d="M0 0h14v14H0z"/><path fill="#595a5a" d="M9.52 6A2.47 2.47 0 007 3.48 2.47 2.47 0 004.48 6 2.47 2.47 0 007 8.52 2.47 2.47 0 009.52 6m-6.1 0A3.5 3.5 0 017 2.5a3.48 3.48 0 013.58 3.49v3.06a.5.5 0 01-.54.53.5.5 0 01-.54-.53v-.9h-.06a2.8 2.8 0 01-2.5 1.35A3.47 3.47 0 013.41 6"/><path fill="#fcb615" d="M5.48 10.41a.54.54 0 10.54.55.54.54 0 00-.54-.55"/><path fill="#ed353f" d="M3.96 10.41a.54.54 0 10.55.55.54.54 0 00-.55-.55"/><path fill="#02af56" d="M7 10.41a.54.54 0 10.54.55.54.54 0 00-.54-.55"/><path fill="#00a8df" d="M10.04 10.41a.54.54 0 10.54.55.54.54 0 00-.54-.55"/><path fill="#a14699" d="M8.52 10.41a.54.54 0 10.54.55.54.54 0 00-.54-.55"/></svg>