<svg data-tags="ali express,brand" xmlns="http://www.w3.org/2000/svg" viewBox="0 0 14 14"><path d="M7 14a7 7 0 114.95-2.05A7 7 0 017 14z" fill="#fa0000"/><path d="M4.434 3.728a.612.612 0 11-.179-.433.613.613 0 01.18.433zm5.74-.613a.613.613 0 10.434.18.613.613 0 00-.434-.18z" fill="#c20000"/><path d="M7 7.189a3.479 3.479 0 01-3.49-3.367.298.298 0 01.288-.308.307.307 0 01.307.287 2.896 2.896 0 005.79-.007.304.304 0 01.308-.287.297.297 0 01.287.308A3.479 3.479 0 017 7.189zM3.86 8.29h-.136c-.025 0-.035.007-.035.035V9.79c0 .028.007.039.035.039h.126c.028 0 .035-.007.035-.035V8.319c0-.02-.003-.028-.024-.028zm.501.987v.515c0 .028-.007.035-.035.035H4.2c-.028 0-.035-.01-.035-.035V8.77c0-.042 0-.042.045-.042h.123c.025 0 .035.007.035.035v.51zm-1.428-.595zm.63 1.103l-.046-.116-.14-.353-.377-1a.036.036 0 00-.038-.025h-.105c-.087 0-.063-.014-.098.07-.035.088-.063.175-.105.266l-.007.021-.095.256a.287.287 0 00-.035.08l-.052.14-.007.025-.095.252-.07.175-.028.063v.014l-.056.14c-.014.035-.01.035.021.035h.126c.025 0 .035-.01.046-.035l.101-.256.011-.031.003-.01c.004-.018.007-.036.035-.036h.658c.025 0 .035.004.046.028l.119.312a.034.034 0 00.035.024h.161a.091.091 0 00-.01-.038zm-.441-.529h-.476c-.035 0-.038-.003-.025-.038l.091-.235c.042-.112.081-.22.126-.329l.046-.122a1.03 1.03 0 01.06.15l.034.08a.094.094 0 00.018.053l.014.032.07.192.063.165.007.007c.018.042.018.045-.028.045zm1.05-.777a.29.29 0 00-.185-.087c-.008 0-.018 0-.018-.01l.007-.008h.01a.286.286 0 00.263-.234.111.111 0 01.007-.05v-.01l.017.004v.045l.018.046a.026.026 0 00.007.02l.017.036a.28.28 0 00.053.066.218.218 0 00.056.035.302.302 0 00.136.053.317.317 0 00-.297.294v.003a.485.485 0 00-.049-.147l-.018-.028a.063.063 0 01-.02-.028zM5.607 9.8c0 .02-.004.028-.028.028h-.875c-.063 0-.063 0-.063-.063V8.33c0-.035.007-.039.038-.039h.826c.046 0 .046 0 .046.042v.126c0 .028-.004.035-.035.035h-.634c-.035 0-.042.004-.042.035v.396c0 .028.007.035.035.035h.557c.038 0 .038 0 .038.038v.12c0 .024 0 .034-.031.034l-.56-.003c-.032 0-.038.007-.035.035v.44h.714c.049 0 .049 0 .049.05zm3.944-1.078a.539.539 0 00-.542.105.416.416 0 00-.07.066.579.579 0 00-.028.714.157.157 0 00.042.056.533.533 0 00.189.14.57.57 0 00.644-.101l.028-.028c.017-.014.017-.025 0-.035l-.091-.07c-.035-.035-.035-.035-.07.003a.406.406 0 01-.252.105.402.402 0 01-.396-.3h-.007v-.004h.872c.014 0 .028 0 .028-.018a1.546 1.546 0 00-.004-.22.495.495 0 00-.343-.413zm.123.465H9.03c-.032 0-.035-.01-.025-.035a.063.063 0 01.014-.031.359.359 0 01.193-.2.336.336 0 01.483.238c.007.025-.004.028-.025.028zm1.13.49a.352.352 0 01-.241.161.601.601 0 01-.315 0h-.004a.63.63 0 01-.255-.154c-.018-.017-.018-.031.003-.045l.074-.053.003-.007c.042-.035.042-.035.084.004a.354.354 0 00.406.07.14.14 0 00.05-.046.133.133 0 00-.008-.189.315.315 0 00-.16-.07 1.141 1.141 0 01-.274-.077l-.049-.035a.28.28 0 01-.045-.392l.035-.038a.475.475 0 01.115-.077h.007a.612.612 0 01.252-.035.44.44 0 01.133.035.467.467 0 01.186.143c.01.014.007.021-.007.028l-.126.08h-.004a.031.031 0 01-.014-.01.277.277 0 00-.087-.07l-.018-.007h-.014l-.031-.017.007-.004V8.87l-.007.007a.023.023 0 01-.025-.007.033.033 0 00-.031 0 .333.333 0 00-.119.01l-.021.007a.175.175 0 00-.063.046l-.028.035-.004.014-.007.014v.02a.084.084 0 00.025.064.322.322 0 00.154.077h.007l.164.038.042.01a.377.377 0 01.14.07l.007.004.018.01.003.004.007.01.007.011a.346.346 0 01.028.364zm-2.04-.959v.144c0 .017-.007.024-.021.024a.502.502 0 00-.147.035.485.485 0 00-.165.15.464.464 0 00-.052.246v.51h-.172c-.028 0-.035-.01-.035-.034l.004-.476v-.56c0-.028.007-.039.035-.035h.161v.098h.003c.007.007.011 0 .018 0l.045-.035.018-.01.018-.011h.003l.038-.025a.654.654 0 01.21-.049c.029 0 .036 0 .036.028zm-1.981 1.11h-.224c-.01 0-.014-.007-.021-.014l-.073-.102-.203-.259c-.025-.028-.021-.028-.046 0l-.203.263-.077.098a.026.026 0 01-.028.014h-.21c.063-.095.137-.182.203-.27l.193-.248c.017-.025.024-.042 0-.067h.003L6.02 9.15l-.042-.053a.052.052 0 00-.024-.028l-.007-.007c0-.01-.007-.014-.011-.02a.36.36 0 00-.031-.043l-.018-.02-.189-.25a.238.238 0 01.07-.006h.088a.114.114 0 01.129.08l.01.007.011.014.018.028a.229.229 0 01.045.056l.088.109.01.014.028.038.018.018a.03.03 0 00.01.017c.01.021.021.018.035 0 .035-.042.067-.09.105-.133l.161-.217.01-.01c0-.007.008-.007.011-.01a.053.053 0 01.035-.008h.175c.007 0 .018-.003.021.004a.03.03 0 01-.01.017.168.168 0 01-.032.039c-.052.073-.108.15-.168.22l-.185.245c-.018.018-.021.032 0 .053l.29.374c0 .007.007.01.01.014l.008.01.007.008.007.014.01.007v.003l.07.095zm1.141-.896a.436.436 0 00-.052-.067l-.007-.007-.007-.003A.578.578 0 007.35 8.7a.572.572 0 00-.416.308.526.526 0 00-.067.273v1.092c0 .024.007.035.035.035l.165-.004v-.72a1.278 1.278 0 00.112.09l.02.014.011.007a.103.103 0 01.035.01l.014.008.098.035h.021a.444.444 0 00.119.01l.039-.007a.7.7 0 00.094-.017l.046-.014a.651.651 0 00.255-.2l.004-.01a.116.116 0 00.02-.035.573.573 0 00.078-.378.511.511 0 00-.105-.266zm-.889 1.4zm.073-.812l.008.014a.025.025 0 01-.007-.014zm.043.2l.007-.036a.033.033 0 01-.007.035zm.682-.365a.423.423 0 01-.098.203.404.404 0 01-.234.116.391.391 0 01-.431-.385.411.411 0 01.116-.301l.077-.06c.017-.003.031-.017.049-.02a.346.346 0 01.339.034c.018-.007.025.007.035.018a.074.074 0 01.035.031.387.387 0 01.098.15.476.476 0 01.014.21zm3.741.466a.56.56 0 01-.252.035h-.031a.553.553 0 01-.238-.088l-.025-.014a.372.372 0 01-.07-.06c-.007-.006-.014-.017-.028-.017-.017-.031.014-.031.025-.045l.01-.004h.007l.088-.077c.017-.014.021 0 .028.01a.433.433 0 00.095.074l.013.01a.328.328 0 00.193.036l.052-.004h.007a.23.23 0 00.133-.084.175.175 0 00.014-.105.112.112 0 00-.045-.07l-.007-.007a.22.22 0 00-.102-.049 2.26 2.26 0 01-.3-.084h-.004l-.08-.049c-.004-.007-.008-.014-.015-.014l-.013-.007v-.003a.301.301 0 01-.004-.357.052.052 0 00.01-.025h.008a.036.036 0 01.017-.02h.004l.077-.053.014-.01.084-.025.027-.007a.469.469 0 01.407.08l.01.01a.03.03 0 01.018.011l.035.035.014.018c.017.02.014.035-.011.049-.028.014-.052.035-.08.052l-.004.007h-.004c-.02.018-.035.014-.042.004h-.003l-.025-.035a.36.36 0 00-.143-.067h-.01l-.029-.007a.28.28 0 00-.07 0 .255.255 0 00-.07.025c-.007 0-.014 0-.017.007a.126.126 0 00-.08.094v.063a.26.26 0 00.164.098l.017.004h.007a1.669 1.669 0 00.179.045.174.174 0 01.045.01l.014.008a.36.36 0 01.126.077.213.213 0 01.074.126.32.32 0 01-.214.399z" fill="#fff"/></svg>