<svg data-tags="ali express,brand" xmlns="http://www.w3.org/2000/svg" viewBox="0 0 14 14"><path d="M10.822 14H3.178A3.178 3.178 0 010 10.822V3.045A3.045 3.045 0 013.045 0h7.91A3.045 3.045 0 0114 3.045v7.777A3.178 3.178 0 0110.822 14z" fill="#ff9400"/><path d="M10.84 14H3.16A3.16 3.16 0 010 10.84V4.295a2.504 2.504 0 012.506-2.51h8.988A2.506 2.506 0 0114 4.291v6.549A3.16 3.16 0 0110.84 14z" fill="#fa0000"/><path d="M4.434 4.904a.612.612 0 11-.179-.434.613.613 0 01.18.434zm5.74-.613a.612.612 0 10.434.18.612.612 0 00-.434-.18z" fill="#c20000"/><path d="M7 8.365a3.479 3.479 0 01-3.49-3.363.298.298 0 01.287-.308.304.304 0 01.308.287 2.896 2.896 0 005.79-.01.304.304 0 01.307-.284.293.293 0 01.287.308A3.479 3.479 0 017 8.365zm-3.287.84h-.14c-.028 0-.035.007-.035.035v1.533c0 .028.007.042.035.039h.133c.028 0 .035-.007.035-.035v-1.54c0-.025-.003-.035-.028-.032zm.525 1.029v.543c0 .028-.007.035-.035.035h-.136c-.028 0-.035-.01-.035-.035V9.709c0-.045 0-.045.045-.045h.13c.024 0 .035.007.035.035v.535zm-.836.532l-.042-.119-.147-.371-.4-1.047a.034.034 0 00-.038-.024h-.108c-.095 0-.07-.014-.105.07l-.109.28-.007.025-.101.262a.301.301 0 00-.035.087l-.056.144v.004l-.007.024-.098.263-.077.185-.025.067v.007l-.003.003-.056.15c-.014.036-.01.036.02.036h.134c.024 0 .035-.011.045-.035l.105-.27.014-.031.004-.014c.003-.018.007-.035.038-.035h.686a.043.043 0 01.05.031l.122.326a.034.034 0 00.035.024h.168a.094.094 0 00-.007-.042zm-.459-.553h-.497c-.038 0-.042 0-.028-.038l.098-.245.13-.343.049-.13a.798.798 0 01.06.158l.038.084a.071.071 0 00.02.052.133.133 0 01.011.035l.077.203.063.172.007.007c.021.045.021.045-.028.045zm1.103-.809a.305.305 0 00-.2-.094c-.007 0-.017 0-.014-.01l.004-.008h.014a.295.295 0 00.276-.245.136.136 0 01.007-.052v-.01l.018.003v.049l.017.049.007.021.018.035.056.07.06.038a.353.353 0 00.14.053.328.328 0 00-.309.308v.004a.446.446 0 00-.052-.154l-.014-.028a.066.066 0 01-.025-.028zm1.498 1.376c0 .025-.007.035-.032.032h-.91c-.07 0-.07 0-.07-.07V9.247c0-.035.007-.042.042-.042h.865c.045 0 .045 0 .045.046v.13c0 .027-.007.034-.035.034h-.665c-.035 0-.045.007-.042.042v.41c0 .028.007.035.035.035h.581c.042 0 .042 0 .042.042v.122c0 .028-.003.035-.035.035h-.584c-.035 0-.039.007-.039.035v.462h.75c.052 0 .052 0 .052.056v.126zM9.67 9.656a.564.564 0 00-.567.109.223.223 0 00-.07.07.61.61 0 00-.035.746.553.553 0 00.245.206.597.597 0 00.669-.105l.035-.028c.014-.017.014-.028-.007-.042l-.091-.073c-.042-.035-.042-.035-.077.007a.407.407 0 01-.263.105.42.42 0 01-.413-.315h.907c.014 0 .028 0 .028-.018a1.274 1.274 0 00-.004-.231.518.518 0 00-.357-.43zm.126.484h-.672c-.028 0-.035-.007-.024-.035l.014-.032a.374.374 0 01.203-.21.35.35 0 01.507.245c.007.032-.007.035-.028.035zm1.183.514a.4.4 0 01-.252.172.712.712 0 01-.332 0 .633.633 0 01-.266-.165c-.021-.017-.021-.031 0-.045l.077-.056.003-.007c.046-.039.046-.039.091.003a.365.365 0 00.42.07.151.151 0 00.056-.045.14.14 0 00-.01-.196.33.33 0 00-.165-.07 1.938 1.938 0 01-.287-.084l-.056-.035a.306.306 0 01-.045-.413l.035-.042a.579.579 0 01.126-.077h.007a.522.522 0 01.262-.035.331.331 0 01.14.035.474.474 0 01.193.15c.01.01.007.021-.007.028q-.068.04-.133.084h-.004a.035.035 0 01-.014-.01.29.29 0 00-.09-.074.077.077 0 00-.022-.01h-.01l-.035-.018h.007V9.81l-.004.004c-.01.007-.02 0-.028-.004-.01-.01-.02-.007-.035-.007a.35.35 0 00-.122.014l-.025.011a.178.178 0 00-.066.049l-.028.035-.004.014-.007.014v.021a.107.107 0 00.025.07.404.404 0 00.16.077h.008l.175.042.042.01a.386.386 0 01.15.078h.004l.017.01.007.004c0 .003 0 .01.007.01 0 .004 0 .007.007.01a.37.37 0 01.028.382zM8.844 9.653V9.8c0 .018-.003.025-.024.025a.45.45 0 00-.15.035.57.57 0 00-.172.157.476.476 0 00-.056.26v.531H8.27c-.035 0-.035-.01-.035-.035V9.688c0-.028.004-.042.035-.038h.168v.105l.004.003h.017l.05-.035.017-.014.02-.01.043-.025a.7.7 0 01.224-.052c.024 0 .035 0 .035.031zm-2.072 1.155h-.234c-.01 0-.014-.007-.021-.01l-.077-.105-.21-.273c-.028-.028-.025-.028-.05 0l-.213.273-.08.105c-.007.014-.018.014-.032.014h-.217c.067-.098.14-.19.21-.28l.203-.263c.021-.024.028-.042.004-.07l-.08-.098-.043-.052a.057.057 0 00-.01-.021.055.055 0 00-.018-.014l-.003-.004-.014-.025a.38.38 0 00-.035-.042l-.018-.02-.196-.263a.493.493 0 01.07-.004h.095c.07-.014.105.028.136.081l.01.01.011.014.018.028a.192.192 0 01.045.06l.095.115.01.011a.189.189 0 00.032.042l.014.021.014.018c.01.02.02.017.035 0a1.484 1.484 0 01.108-.14l.175-.228.007-.014.01-.007a.056.056 0 01.036-.01h.185a.026.026 0 01.021.006.03.03 0 01-.01.018c-.01.014-.018.031-.035.038a2.857 2.857 0 01-.175.231l-.193.253c-.017.024-.02.035 0 .059l.301.392.014.018.007.01.007.007.007.01.01.011v.004l.07.098zm1.194-.931a.262.262 0 00-.053-.07l-.007-.01-.01-.004a.595.595 0 00-.532-.157.583.583 0 00-.434.318.6.6 0 00-.07.287v1.145c0 .02.007.031.035.031h.175v-.752a1.346 1.346 0 00.119.09l.02.018a.012.012 0 01.011.007.103.103 0 01.035.01l.018.008.101.035h.021a.364.364 0 00.123.01h.003l.039-.003.098-.021.049-.014a.71.71 0 00.266-.21l.007-.011.017-.035a.59.59 0 00.084-.399.536.536 0 00-.115-.273zm-.85.613l.006.014a.025.025 0 01-.007-.014zm.041.21l.007-.039c.004.014.007.025-.007.035zm.71-.382a.371.371 0 01-.1.21v.004a.451.451 0 01-.242.119.41.41 0 01-.452-.403.409.409 0 01.123-.315l.077-.063c.02-.003.035-.017.052-.02a.366.366 0 01.35.027l.007.007c.018-.003.025.01.035.018a.084.084 0 01.035.035.368.368 0 01.105.157.54.54 0 01.014.224zm3.92.49a.763.763 0 01-.265.035h-.01v-.003h-.022a.575.575 0 01-.252-.091l-.024-.014a.372.372 0 01-.07-.06c-.01-.01-.018-.02-.032-.02-.02-.036.014-.036.025-.05h.01l.007-.003.095-.077c.014-.014.02 0 .028.01a.499.499 0 00.098.077l.017.007a.35.35 0 00.2.042.164.164 0 00.056-.007h.007a.281.281 0 00.14-.087.219.219 0 00.014-.105.12.12 0 00-.053-.08v-.004h-.007a.23.23 0 00-.105-.053 2.643 2.643 0 01-.315-.087l-.087-.053c-.004-.007-.007-.014-.014-.014l-.014-.007v-.003h.003a.315.315 0 01-.007-.371c.004-.011.01-.018.01-.028h.008l.105-.074.014-.014.087-.028.028-.007a.494.494 0 01.427.088l.01.007.018.014.035.038.014.018c.021.02.018.035-.007.049l-.084.056-.007.003-.003.004c-.021.017-.035.014-.046.003l-.028-.035a.273.273 0 00-.15-.07h-.004l-.007-.003-.028-.004a.298.298 0 00-.07 0h-.003a.266.266 0 00-.077.021l-.014.007h-.004a.133.133 0 00-.08.105l-.004.018v.045a.295.295 0 00.175.105h.018l.01.004.186.045.045.01.014.008a.332.332 0 01.133.084.201.201 0 01.077.13.335.335 0 01-.224.42z" fill="#fff"/></svg>