<svg data-tags="amazon" xmlns="http://www.w3.org/2000/svg" viewBox="0 0 14 14"><path d="M12.124 11.525c-5.779 2.75-9.365.449-11.66-.949-.143-.088-.384.021-.175.262A9.193 9.193 0 0 0 6.832 14a7.617 7.617 0 0 0 5.465-2.098c.242-.309.071-.48-.174-.377Zm1.622-.897c-.155-.202-.943-.24-1.44-.178-.496.059-1.242.363-1.177.545.033.068.1.038.442.007.343-.034 1.301-.155 1.501.106.201.263-.306 1.516-.398 1.718-.09.202.034.254.202.12a2.62 2.62 0 0 0 .667-.976 2.282 2.282 0 0 0 .203-1.342Z"/><path d="M8.238 5.913a3.623 3.623 0 0 1-.346 1.964 1.502 1.502 0 0 1-1.282.842c-.711 0-1.125-.542-1.125-1.342 0-1.578 1.414-1.865 2.753-1.865Zm1.868 4.515a.387.387 0 0 1-.438.044 4.559 4.559 0 0 1-1.063-1.235 3.665 3.665 0 0 1-3.053 1.347 2.628 2.628 0 0 1-2.771-2.886A3.147 3.147 0 0 1 4.755 4.67a12.83 12.83 0 0 1 3.483-.644v-.24a2.383 2.383 0 0 0-.224-1.34 1.24 1.24 0 0 0-1.04-.483 1.412 1.412 0 0 0-1.49 1.112.388.388 0 0 1-.32.34l-1.797-.194a.328.328 0 0 1-.276-.388C3.505.656 5.47 0 7.233 0a4.2 4.2 0 0 1 2.79.922c.9.842.815 1.964.815 3.186v2.886a2.533 2.533 0 0 0 .698 1.717.348.348 0 0 1-.005.492 78.29 78.29 0 0 0-1.42 1.23l-.005-.005" fill-rule="evenodd"/><path d="M12.124 11.525c-5.779 2.75-9.365.449-11.66-.949-.143-.088-.384.021-.175.262A9.193 9.193 0 0 0 6.832 14a7.617 7.617 0 0 0 5.465-2.098c.242-.309.071-.48-.174-.377Zm1.622-.897c-.155-.202-.943-.24-1.44-.178-.496.059-1.242.363-1.177.545.033.068.1.038.442.007.343-.034 1.301-.155 1.501.106.201.263-.306 1.516-.398 1.718-.09.202.034.254.202.12a2.62 2.62 0 0 0 .667-.976 2.282 2.282 0 0 0 .203-1.342Z"/><path d="M8.238 5.913a3.623 3.623 0 0 1-.346 1.964 1.502 1.502 0 0 1-1.282.842c-.711 0-1.125-.542-1.125-1.342 0-1.578 1.414-1.865 2.753-1.865Zm1.868 4.515a.387.387 0 0 1-.438.044 4.559 4.559 0 0 1-1.063-1.235 3.665 3.665 0 0 1-3.053 1.347 2.628 2.628 0 0 1-2.771-2.886A3.147 3.147 0 0 1 4.755 4.67a12.83 12.83 0 0 1 3.483-.644v-.24a2.383 2.383 0 0 0-.224-1.34 1.24 1.24 0 0 0-1.04-.483 1.412 1.412 0 0 0-1.49 1.112.388.388 0 0 1-.32.34l-1.797-.194a.328.328 0 0 1-.276-.388C3.505.656 5.47 0 7.233 0a4.2 4.2 0 0 1 2.79.922c.9.842.815 1.964.815 3.186v2.886a2.533 2.533 0 0 0 .698 1.717.348.348 0 0 1-.005.492 78.29 78.29 0 0 0-1.42 1.23l-.005-.005" fill-rule="evenodd"/></svg>