<svg data-tags="amazon" xmlns="http://www.w3.org/2000/svg" viewBox="0 0 14 14"><rect width="14" height="14" rx="7" fill="#201d1e"/><path d="M10.294 9.909a6.946 6.946 0 0 1-7.496-.61c-.091-.057-.247.013-.112.168A5.91 5.91 0 0 0 6.892 11.5a4.897 4.897 0 0 0 3.513-1.349c.156-.198.046-.308-.111-.242Zm1.043-.576c-.1-.13-.607-.155-.926-.115-.319.038-.799.233-.757.35.022.044.065.024.285.005.22-.022.836-.1.965.068.129.169-.197.974-.256 1.104-.058.13.022.164.13.077a1.685 1.685 0 0 0 .428-.627 1.467 1.467 0 0 0 .131-.862Z" fill="#f19c38"/><path d="M7.796 6.301a2.329 2.329 0 0 1-.223 1.263.965.965 0 0 1-.824.541c-.457 0-.723-.348-.723-.862 0-1.015.91-1.2 1.77-1.2Zm1.2 2.903a.249.249 0 0 1-.28.028 2.93 2.93 0 0 1-.684-.794 2.356 2.356 0 0 1-1.963.866 1.69 1.69 0 0 1-1.781-1.855 2.023 2.023 0 0 1 1.269-1.946 8.248 8.248 0 0 1 2.239-.414v-.154a1.532 1.532 0 0 0-.144-.862.797.797 0 0 0-.668-.31.908.908 0 0 0-.958.715.25.25 0 0 1-.206.217l-1.156-.123a.21.21 0 0 1-.177-.25A2.418 2.418 0 0 1 7.15 2.5a2.7 2.7 0 0 1 1.793.593c.58.54.524 1.262.524 2.048v1.855A1.629 1.629 0 0 0 9.916 8.1a.224.224 0 0 1-.003.316c-.243.203-.675.58-.913.79l-.003-.002" fill-rule="evenodd"/><path d="M10.294 9.909a6.946 6.946 0 0 1-7.496-.61c-.091-.057-.247.013-.112.168A5.91 5.91 0 0 0 6.892 11.5a4.897 4.897 0 0 0 3.513-1.349c.156-.198.046-.308-.111-.242Zm1.043-.576c-.1-.13-.607-.155-.926-.115-.319.038-.799.233-.757.35.022.044.065.024.285.005.22-.022.836-.1.965.068.129.169-.197.974-.256 1.104-.058.13.022.164.13.077a1.685 1.685 0 0 0 .428-.627 1.467 1.467 0 0 0 .131-.862Z" fill="#f19c38"/><path d="M7.796 6.301a2.329 2.329 0 0 1-.223 1.263.965.965 0 0 1-.824.541c-.457 0-.723-.348-.723-.862 0-1.015.91-1.2 1.77-1.2Zm1.2 2.903a.249.249 0 0 1-.28.028 2.93 2.93 0 0 1-.684-.794 2.356 2.356 0 0 1-1.963.866 1.69 1.69 0 0 1-1.781-1.855 2.023 2.023 0 0 1 1.269-1.946 8.248 8.248 0 0 1 2.239-.414v-.154a1.532 1.532 0 0 0-.144-.862.797.797 0 0 0-.668-.31.908.908 0 0 0-.958.715.25.25 0 0 1-.206.217l-1.156-.123a.21.21 0 0 1-.177-.25A2.418 2.418 0 0 1 7.15 2.5a2.7 2.7 0 0 1 1.793.593c.58.54.524 1.262.524 2.048v1.855A1.629 1.629 0 0 0 9.916 8.1a.224.224 0 0 1-.003.316c-.243.203-.675.58-.913.79l-.003-.002" fill="#fff" fill-rule="evenodd"/></svg>