<svg data-tags="channel" xmlns="http://www.w3.org/2000/svg" viewBox="0 0 14 14"><path fill="#476cae" fill-rule="evenodd" d="M1.9 4.11h10.2a.8.8 0 01.56.26c.58.56 1 2.63 1.27 3.39-.83 1.59-.81 2.13-1.83 2.13H1.9c-1.02 0-1-.54-1.83-2.13a19.93 19.93 0 011.28-3.39.8.8 0 01.55-.26z"/><path fill="#221f20" d="M1.87 9.95c-.82 0-1-.38-1.42-1.28C.33 8.42.2 8.13.02 7.8L0 7.76v-.02l.27-.8A11.89 11.89 0 011.3 4.33a.86.86 0 01.6-.28h10.2a.86.86 0 01.6.28 7.3 7.3 0 011.06 2.64c.09.31.16.58.23.77v.05l-.44.87c-.43.91-.6 1.29-1.45 1.29H1.9zM.14 7.75c.18.33.3.62.43.87.42.9.57 1.2 1.33 1.2h10.2c.76 0 .9-.3 1.34-1.21.11-.25.25-.53.42-.86-.07-.19-.14-.45-.22-.75a7.3 7.3 0 00-1.03-2.58.73.73 0 00-.5-.24H1.9a.75.75 0 00-.51.24A12.93 12.93 0 00.4 6.98l-.26.77z"/><path fill="#fff" fill-rule="evenodd" d="M1.9 5.16h10.2a.97.97 0 01.56.18c.58.4 1 1.88 1.27 2.42-.83 1.13-.81 1.52-1.83 1.52H1.9c-1.02 0-1-.39-1.83-1.52a12.1 12.1 0 011.27-2.42.96.96 0 01.56-.18z"/><path fill="#221f20" d="M1.87 9.34c-.81 0-.99-.27-1.42-.91-.12-.19-.25-.4-.43-.63L0 7.76l.02-.03.26-.57a7.32 7.32 0 011.03-1.87 1.03 1.03 0 01.59-.2h10.2a1.03 1.03 0 01.6.2 4.55 4.55 0 011.06 1.9l.22.54.02.03-.02.04c-.18.24-.31.44-.43.62-.43.65-.61.92-1.45.92H1.9zM.15 7.75c.17.23.3.43.41.6.42.64.57.86 1.3.86H12.1c.77 0 .91-.21 1.34-.86l.41-.6c-.06-.13-.13-.31-.2-.52a4.5 4.5 0 00-1.03-1.84.9.9 0 00-.52-.17H1.9a.9.9 0 00-.52.17A7.96 7.96 0 00.4 7.21l-.25.54z"/><path fill="#d93832" fill-rule="evenodd" d="M4.61 7.09l.92.01v-.35h-.5v-.32h.3v-.35h-.3v-.32h.5v-.34h-.92v1.67z"/><path fill="#d93832" d="M7.02 5.42h.42v1.67h-.42z"/><path fill="#d93832" fill-rule="evenodd" d="M2.71 7.1h.41V5.89a.1.1 0 01.22 0v1.2h.42V5.9a.1.1 0 01.21 0v1.2h.42V5.85a.42.42 0 00-.42-.42h-.13a.42.42 0 00-.3.12.42.42 0 00-.29-.12h-.12a.42.42 0 00-.42.42zm3.57-.6a.19.19 0 01.12.2v.4h.42v-.24a1.05 1.05 0 00-.2-.59.5.5 0 00.15-.37.47.47 0 00-.45-.48h-.04v.37a.2.2 0 010 .36zm-.54.6h.42v-.61a.3.3 0 01.12 0v-.34a.32.32 0 01-.12.02v-.4a.3.3 0 01.12.02v-.37h-.54zm2.34-1.68h.26a.4.4 0 01.39.4v.16H8.4c0-.12-.07-.21-.15-.21h-.1c-.09 0-.16.1-.16.23v.52c0 .13.07.23.16.23h.1c.08 0 .15-.1.15-.23h.32v.18a.4.4 0 01-.4.4h-.25a.4.4 0 01-.4-.4v-.89a.4.4 0 01.4-.39zm4.7 2.23h-.53v-.34h.15v-.58h-.15V6.4h.15a.45.45 0 00-.15-.34v-.5a.96.96 0 01.57.82v1.28zm-.53 0H1.95v-.34h10.3v.34zm-10.3-2.1a1.26 1.26 0 01.57-.13V7.1H2.1v-.37h-.15V6.4h.15v-.41a.38.38 0 00-.15.07v-.5zm10.3 1.18h-.14v.37h-.42V5.42a1.26 1.26 0 01.56.13v.5a.37.37 0 00-.14-.07v.4h.14zm-10.3.92h-.57V6.37a.96.96 0 01.57-.82v.5a.45.45 0 00-.15.34h.15v.34H1.8v.58h.15zm7.57-.92h.13v.37h.42V5.84a.42.42 0 00-.42-.42h-.13v.35a.12.12 0 01.13.1v.52h-.13zm-.56.37h.42v-.37h.14V6.4h-.14v-.52a.12.12 0 01.14-.1v-.35h-.14a.42.42 0 00-.42.42z"/><path fill="#d93835" fill-rule="evenodd" d="M10.32 7.1h.42V5.87a.14.14 0 01.27 0V7.1h.42V5.84a.42.42 0 00-.42-.42h-.27a.42.42 0 00-.42.42z"/><path fill="#221f20" d="M5.33 8.7a.52.52 0 00.13.07l-.06.1a.37.37 0 01-.07-.02l-.11-.07a.45.45 0 01-.18.03v-.13a.2.2 0 00.06 0 .52.52 0 00-.06-.04v-.1a.56.56 0 01.16.08.23.23 0 00.04-.09.38.38 0 00.02-.11.28.28 0 00-.06-.2.21.21 0 00-.16-.06v-.13a.38.38 0 01.28.1.39.39 0 01.1.29.48.48 0 01-.02.17.36.36 0 01-.07.11zm-.3.11a.4.4 0 01-.28-.68.39.39 0 01.29-.1v.13a.21.21 0 00-.16.06.28.28 0 00-.06.2.28.28 0 00.06.2.2.2 0 00.15.06v.13zm0-.26L5 8.63l.04.01zm.52-.51h.16v.41a.83.83 0 00.01.13.12.12 0 00.05.07.18.18 0 00.1.03.17.17 0 00.11-.03.1.1 0 00.04-.06.8.8 0 00.01-.13v-.42h.16v.4a.98.98 0 01-.01.2.2.2 0 01-.05.09.24.24 0 01-.1.06.43.43 0 01-.15.02.46.46 0 01-.17-.02.25.25 0 01-.1-.07.2.2 0 01-.04-.08.88.88 0 01-.02-.2zm1.53.76h-.17l-.07-.17h-.16V8.5h.1l-.1-.28v-.18h.08zm-.4-.17h-.16l-.07.17h-.17l.31-.76h.09v.18l-.11.28h.1zm.49.17v-.76h.17v.63h.4v.13h-.57zm.68-.76h.16v.76h-.16zm.5.76v-.63h-.24v-.13h.63v.13h-.23v.63h-.16zm.71 0v-.32l-.29-.44h.19l.18.3.19-.3h.19l-.3.44v.32h-.16z"/></svg>
