<svg data-tags="americanExpress" xmlns="http://www.w3.org/2000/svg" viewBox="0 0 14 14"><path d="M0 0h14v14H0Z" fill="#0193ce" fill-rule="evenodd"/><path d="M7.783 7.955H9.66l.573-.66.63.66h.665l-.962-.919.966-.993h-.664l-.63.66-.552-.655H7.787v-.372h2.048l.403.516.476-.516h1.772l-1.33 1.36 1.33 1.287h-1.772l-.48-.512-.403.512H7.783Zm1.606-.367H8.282V7.22h1.032v-.363H8.282v-.368h1.181l.442.552Zm-6.344.735H1.514l1.3-2.647h1.224l.153.293v-.293h1.532l.306.735.306-.735h1.448v2.647h-1.15v-.368l-.15.368h-.918l-.153-.368v.368h-1.68l-.153-.438h-.38Zm4.357-.368V6.043h-.76L6.028 7.37l-.617-1.326H4.65v1.768l-.92-1.768H3.12l-.918 1.912h.538l.153-.437h.993l.153.437h1.063v-1.47l.7 1.47h.46l.687-1.47v1.47Zm-3.67-.81-.306-.809-.381.81Z" fill="#fff" fill-rule="evenodd"/></svg>