<svg xmlns="http://www.w3.org/2000/svg" viewBox="0 0 14 14"><defs><linearGradient id="appleAppStore_clr__a" x1="-242.52" y1="-242.96" x2="-242.5" y2="-242.96" gradientTransform="rotate(90 -194188.56 -171.61) scale(800)" gradientUnits="userSpaceOnUse"><stop offset="0" stop-color="#0ed4fc"/><stop offset="1" stop-color="#0c57ef"/></linearGradient></defs><path d="M11.16 0H2.83A2.82 2.82 0 00.01 2.83v8.34A2.82 2.82 0 002.83 14h8.34a2.83 2.83 0 002.82-2.83V2.83A2.83 2.83 0 0011.16 0zM3.88 11.08a.64.64 0 11-1.1-.63l.45-.79a1.09 1.09 0 011.26.36zm4.41-1.71H2.51a.64.64 0 010-1.28h1.62l2.08-3.6-.65-1.13a.64.64 0 111.1-.64l.28.5.28-.5a.64.64 0 111.1.64L5.6 8.1h1.97a.87.87 0 01.72 1.28zm3.12 0h-.92l.62 1.08a.64.64 0 11-1.1.63L7.64 7.01a1.76 1.76 0 01.23-2.16L9.75 8.1h1.66a.64.64 0 010 1.27z" fill="url(#appleAppStore_clr__a)"/><path d="M11.4 8.1H9.76L7.88 4.85A1.76 1.76 0 007.65 7L10 11.08a.64.64 0 101.1-.63l-.61-1.08h.92a.64.64 0 000-1.27z" fill="#fff"/><path d="M7.57 8.1H5.6l2.73-4.74a.64.64 0 10-1.1-.63l-.29.49-.28-.5a.64.64 0 10-1.1.64L6.2 4.5l-2.08 3.6H2.51a.64.64 0 000 1.28h5.78a.87.87 0 00-.72-1.28zM3.23 9.66l-.46.79a.64.64 0 101.1.63l.62-1.06a1.09 1.09 0 00-1.26-.36z" fill="#fff"/></svg>
