<svg xmlns="http://www.w3.org/2000/svg" viewBox="0 0 14 14"><defs><linearGradient id="appleAppStoreCircle_clr__a" x1="7" x2="7" y2="14" gradientUnits="userSpaceOnUse"><stop offset="0" stop-color="#0ed4fc"/><stop offset="1" stop-color="#0c57ef"/></linearGradient></defs><path d="M7 14a7 7 0 117-7 7 7 0 01-7 7zM6.72 2.83a.61.61 0 10-1.07.61l.63 1.08-2 3.47H2.72a.61.61 0 000 1.23h5.56a.84.84 0 00-.69-1.23H5.7l2.63-4.55a.61.61 0 10-1.07-.61l-.27.47zM3.4 9.5l-.44.76a.61.61 0 101.07.6l.58-1.01a1.05 1.05 0 00-1.21-.35zm4.47-4.63a1.7 1.7 0 00-.21 2.08l2.26 3.92a.61.61 0 101.06-.61l-.6-1.04h.89a.61.61 0 000-1.23h-1.6l-1.8-3.12z" fill-rule="evenodd" fill="url(#appleAppStoreCircle_clr__a)"/></svg>
