<svg data-tags="apple,business chat,brand" xmlns="http://www.w3.org/2000/svg" viewBox="0 0 14 14"><circle cx="7" cy="7" r="6.921" fill="#f0f0f5"/><path fill="#317cf6" d="M7.003 3.347a4.604 4.604 0 00-2.307.602c-.111.065-.221.13-.325.203a3.97 3.97 0 00-.283.227l-.012.007A3.305 3.305 0 002.86 6.893a3.294 3.294 0 001.186 2.476.632.632 0 01.006.074 1.013 1.013 0 01-.988 1.032 2.291 2.291 0 00.88.178 2.236 2.236 0 001.403-.51 4.729 4.729 0 001.656.301 3.878 3.878 0 004.137-3.552 3.874 3.874 0 00-4.137-3.545z"/></svg>