<svg data-tags="appsflyer,brand" xmlns="http://www.w3.org/2000/svg" viewBox="0 0 14 14"><path fill="#303d4f" d="M0 0h14v14H0z"/><path d="M2.699 5.35L4.03 7.887a.626.626 0 00.5.312l2.717-.005c.186 0 .262-.141.171-.314L6.087 5.343a.625.625 0 00-.5-.313l-2.717.006h-.013c-.176.007-.247.145-.158.314m5.16 2.956l.806 1.505a.372.372 0 00.3.183l1.618-.017c.11 0 .155-.085.1-.188l-.806-1.504a.372.372 0 00-.299-.184l-1.619.017h-.005c-.107.004-.15.087-.095.188" fill="#75b82c"/><path d="M7.868 2.592L6.25 4.67a.567.567 0 00-.033.57L7.57 7.762c.092.173.257.198.367.056L9.556 5.74a.567.567 0 00.032-.568L8.236 2.647a.239.239 0 00-.209-.147.215.215 0 00-.159.092M7.49 8.33l-.966 1.24a.338.338 0 00-.02.338l.806 1.505c.055.103.153.118.22.033l.964-1.237a.339.339 0 00.02-.34l-.807-1.504a.142.142 0 00-.124-.088.127.127 0 00-.095.055" fill="#3d90d5"/></svg>