<svg data-tags="channel" xmlns="http://www.w3.org/2000/svg" viewBox="0 0 14 14"><path fill="#88b944" d="M8.22 7.4a.9.9 0 01.33-.38.82.82 0 01.66-.1.57.57 0 01.43.46c.03 0 .03-.04.04-.06a.9.9 0 011-.4.63.63 0 01.46.56 1.39 1.39 0 01.02.24v1.36c0 .06-.02.08-.08.08a2.29 2.29 0 00-.27 0c-.07 0-.08-.02-.08-.09V7.86a1.47 1.47 0 00-.02-.27.36.36 0 00-.45-.3.7.7 0 00-.53.55 1.46 1.46 0 00-.03.32v.93c0 .05-.02.07-.07.07a2.65 2.65 0 00-.28 0c-.07 0-.08-.02-.08-.08V7.67a.38.38 0 00-.55-.36.73.73 0 00-.45.54.92.92 0 00-.04.26v.97c0 .06-.01.08-.07.08a2.24 2.24 0 00-.27 0c-.06 0-.08-.02-.08-.08V7.02c0-.06.01-.08.07-.08h.28c.05 0 .06.02.06.07v.38z"/><path fill="#686868" d="M2.83 7.28a.8.8 0 01.46-.35.9.9 0 011.13.52 1.46 1.46 0 010 1.18.94.94 0 01-1.16.53.88.88 0 01-.4-.3v1.07c0 .06-.01.08-.07.07a2.7 2.7 0 00-.28 0c-.06 0-.07-.01-.07-.07v-2.9c0-.07.02-.1.08-.09a1.44 1.44 0 00.23 0c.07 0 .09.02.08.09v.25zm1.28.74a.9.9 0 00-.13-.48.58.58 0 00-1.01.02A.97.97 0 003 8.6a.56.56 0 00.93.03.92.92 0 00.17-.6z"/><path fill="#88b944" d="M12.82 6.9A1.14 1.14 0 0114 8.05a1.19 1.19 0 11-1.18-1.17zm-.76 1.07a.79.79 0 00.76.87.75.75 0 00.7-.5.82.82 0 00-.2-.89.76.76 0 00-1.26.52z"/><path fill="#686868" d="M1.45 8.8l-.04.06a.81.81 0 01-1.12.22A.65.65 0 01.28 8a1.34 1.34 0 01.6-.2 3.1 3.1 0 01.48-.03c.05 0 .06-.01.06-.06A.41.41 0 001 7.25a.98.98 0 00-.61.18c-.05.03-.07.03-.1-.03a2.33 2.33 0 00-.11-.2c-.02-.04-.02-.06.02-.08a1.34 1.34 0 011.15-.17.7.7 0 01.5.7V9.1c0 .03-.01.05-.05.05h-.3c-.04 0-.05-.02-.05-.06v-.3zm-.6.06a.57.57 0 00.11 0 .72.72 0 00.47-.72c0-.05-.03-.05-.06-.05a3 3 0 00-.46.03.85.85 0 00-.3.1.32.32 0 00-.18.27.37.37 0 00.41.37zm.6-.06h.01v-.01z"/><path fill="#88b944" d="M11.5 4.44a.79.79 0 01.79.78.79.79 0 01-1.58 0 .78.78 0 01.79-.78z"/><path fill="#686868" d="M5.44 7.49a.94.94 0 01.26-.4.68.68 0 01.48-.17c.05 0 .07.02.07.07v.3c0 .03 0 .05-.04.05a.68.68 0 00-.73.63 2.09 2.09 0 00-.02.38v.74c0 .05-.02.07-.07.07h-.28c-.06 0-.08-.02-.08-.08V7c0-.05.01-.07.07-.07h.28c.05 0 .07.02.06.07v.48zm1.71.56v1.02c0 .08-.02.1-.08.09H6.8c-.05 0-.07-.01-.07-.07V7c0-.04 0-.06.05-.06h.3c.06 0 .07.02.07.07v1.04z"/><path fill="#737f63" d="M7.42 5.16a.42.42 0 01.43-.42.42.42 0 01.43.43.43.43 0 01-.43.42.42.42 0 01-.43-.43z"/><path fill="#749649" d="M10.03 4.6a.62.62 0 10-.58.64.62.62 0 00.58-.64z"/><path fill="#686868" d="M6.94 5.78a.26.26 0 01.28.27.27.27 0 01-.27.29.27.27 0 01-.28-.28.26.26 0 01.27-.28z"/><path fill="#fefefe" d="M1.46 8.8l-.01-.01h.01v.01z"/></svg>
