<svg data-tags="arabot" xmlns="http://www.w3.org/2000/svg" viewBox="0 0 14 14"><path d="M0 11.62a4.78 4.78 0 0 0 1.328-1.065 3.086 3.086 0 0 0 .383-.552c.339-.633.333-.69-.131-1.22a3.245 3.245 0 0 1 .223-4.542 6.118 6.118 0 0 1 7.926-.096 3.304 3.304 0 0 1-.378 5.284 6.012 6.012 0 0 1-4.691 1.012.761.761 0 0 0-.533.14A8.601 8.601 0 0 1 .362 11.62c-.09.005-.18 0-.362 0ZM2.115 10a4.633 4.633 0 0 0 2.431-.572 1.616 1.616 0 0 1 .983-.164 3.956 3.956 0 0 0 2.816-.745 2.245 2.245 0 0 0-.018-3.812 4.19 4.19 0 0 0-5.016.158 2.187 2.187 0 0 0-.24 3.26.527.527 0 0 1 .09.705A3.558 3.558 0 0 1 2.115 10Z"/><path d="M14 10.344a7.982 7.982 0 0 1-3.344-.772c-.267-.124-.106-.245-.01-.36a3.907 3.907 0 0 0 .876-1.693A3.993 3.993 0 0 0 9.987 3.4a6.494 6.494 0 0 0-1.653-.964 3.18 3.18 0 0 1 1.175-.002 4.468 4.468 0 0 1 3.229 1.688 2.776 2.776 0 0 1-.199 3.737.64.64 0 0 0-.134.825 3.74 3.74 0 0 0 1.283 1.448c.076.054.155.105.312.212Z"/></svg>