<svg data-tags="arabot" xmlns="http://www.w3.org/2000/svg" viewBox="0 0 14 14"><rect width="14" height="14" rx="7" fill="#f2f2f2"/><path d="M2.5 9.97a3.073 3.073 0 0 0 .854-.685A1.983 1.983 0 0 0 3.6 8.93c.218-.406.214-.443-.084-.784a2.086 2.086 0 0 1 .143-2.92 3.933 3.933 0 0 1 5.096-.061 2.124 2.124 0 0 1-.244 3.397 3.865 3.865 0 0 1-3.015.65.49.49 0 0 0-.343.09 5.53 5.53 0 0 1-2.42.668c-.058.003-.117 0-.233 0Zm1.36-1.042a2.978 2.978 0 0 0 1.563-.367 1.039 1.039 0 0 1 .632-.106 2.543 2.543 0 0 0 1.81-.479 1.443 1.443 0 0 0-.012-2.45 2.694 2.694 0 0 0-3.224.102 1.406 1.406 0 0 0-.155 2.096.339.339 0 0 1 .058.452 2.288 2.288 0 0 1-.673.752Z" fill="#9b7cb7"/><path d="M11.5 9.15a5.131 5.131 0 0 1-2.15-.497c-.171-.08-.068-.157-.006-.231a2.512 2.512 0 0 0 .563-1.089 2.567 2.567 0 0 0-.987-2.647 4.175 4.175 0 0 0-1.062-.62 2.044 2.044 0 0 1 .755-.001 2.872 2.872 0 0 1 2.076 1.085 1.784 1.784 0 0 1-.128 2.402.411.411 0 0 0-.086.53 2.404 2.404 0 0 0 .825.931c.049.035.099.068.2.137Z" fill="#71c6ed"/></svg>