<svg data-tags="amazon web services" xmlns="http://www.w3.org/2000/svg" viewBox="0 0 14 14"><path d="M3.962 5.587a1.359 1.359 0 00.06.41 2.47 2.47 0 00.147.333.2.2 0 01.033.106.183.183 0 01-.088.139l-.29.194a.221.221 0 01-.12.041.212.212 0 01-.14-.064 1.429 1.429 0 01-.166-.217 3.576 3.576 0 01-.143-.273 1.706 1.706 0 01-1.357.637 1.265 1.265 0 01-.924-.332 1.186 1.186 0 01-.341-.887 1.189 1.189 0 01.42-.95 1.68 1.68 0 011.131-.36 3.655 3.655 0 01.49.036c.17.023.346.06.53.102v-.337a1.023 1.023 0 00-.217-.74 1.063 1.063 0 00-.752-.212 2.1 2.1 0 00-.499.06 3.677 3.677 0 00-.499.157 1.324 1.324 0 01-.161.06.283.283 0 01-.074.014c-.065 0-.097-.046-.097-.143v-.226a.292.292 0 01.032-.162.346.346 0 01.13-.097 2.658 2.658 0 01.581-.208 2.8 2.8 0 01.72-.087 1.687 1.687 0 011.21.374 1.528 1.528 0 01.384 1.136v1.496zm-1.866.702a1.496 1.496 0 00.476-.084 1.029 1.029 0 00.438-.295.733.733 0 00.157-.296 1.657 1.657 0 00.047-.401v-.194a3.857 3.857 0 00-.425-.079 3.48 3.48 0 00-.434-.027 1.064 1.064 0 00-.688.184.644.644 0 00-.226.531.644.644 0 00.17.49.64.64 0 00.485.17zm3.708.498a.258.258 0 01-.176-.046.376.376 0 01-.097-.18L4.446 2.99a.809.809 0 01-.041-.184.101.101 0 01.11-.115h.453a.256.256 0 01.18.046.378.378 0 01.093.18l.775 3.057.72-3.057a.324.324 0 01.088-.18.318.318 0 01.185-.046h.37a.278.278 0 01.184.046.311.311 0 01.088.18l.73 3.093.798-3.093a.396.396 0 01.093-.18.301.301 0 01.18-.046h.43a.103.103 0 01.114.115.46.46 0 01-.009.074.656.656 0 01-.032.115l-1.113 3.57a.354.354 0 01-.097.18.295.295 0 01-.175.046h-.397a.278.278 0 01-.185-.046.327.327 0 01-.088-.185l-.715-2.978-.712 2.973a.36.36 0 01-.087.185.286.286 0 01-.185.046zm5.933.125a3.055 3.055 0 01-.71-.083 2.1 2.1 0 01-.532-.185.333.333 0 01-.143-.13.326.326 0 01-.028-.129V6.15c0-.097.037-.143.107-.143a.261.261 0 01.083.014c.027.009.069.027.115.046a2.511 2.511 0 00.508.161 2.773 2.773 0 00.55.056 1.246 1.246 0 00.674-.152.497.497 0 00.24-.44.45.45 0 00-.125-.322 1.159 1.159 0 00-.466-.24l-.67-.208a1.408 1.408 0 01-.739-.471 1.1 1.1 0 01-.23-.67 1.028 1.028 0 01.124-.512 1.187 1.187 0 01.333-.379 1.466 1.466 0 01.48-.24 2.013 2.013 0 01.582-.078 2.318 2.318 0 01.309.018c.106.014.203.032.3.05.092.024.18.047.263.075a1.008 1.008 0 01.194.083.4.4 0 01.139.115.249.249 0 01.041.153v.217c0 .097-.037.147-.106.147a.48.48 0 01-.175-.055 2.112 2.112 0 00-.887-.18 1.192 1.192 0 00-.614.13.446.446 0 00-.217.41.436.436 0 00.139.328 1.38 1.38 0 00.507.254l.656.208a1.404 1.404 0 01.716.443 1.045 1.045 0 01.212.646 1.187 1.187 0 01-.12.536 1.242 1.242 0 01-.337.406 1.488 1.488 0 01-.512.259 2.195 2.195 0 01-.66.097zm.873 2.244a9.96 9.96 0 01-5.624 1.718A10.174 10.174 0 01.12 8.256c-.143-.13-.014-.305.157-.204a13.847 13.847 0 006.87 1.824 13.71 13.71 0 005.241-1.071c.254-.115.471.166.222.35z"/><path d="M13.242 8.436c-.193-.25-1.283-.12-1.777-.06-.148.018-.171-.111-.037-.208a2.743 2.743 0 012.46-.231 2.71 2.71 0 01-.858 2.318c-.125.106-.245.05-.19-.088.185-.457.596-1.487.402-1.731z"/></svg>