<svg data-tags="amazon web services" xmlns="http://www.w3.org/2000/svg" viewBox="0 0 14 14"><rect x="-.029" width="14.059" height="14" rx=".703" fill="#232f3e"/><path d="M4.698 6.14a1.095 1.095 0 00.049.332 1.991 1.991 0 00.119.268.162.162 0 01.026.085.147.147 0 01-.071.112l-.234.156a.178.178 0 01-.097.033.171.171 0 01-.112-.052 1.15 1.15 0 01-.134-.174 2.878 2.878 0 01-.115-.22 1.374 1.374 0 01-1.094.513 1.02 1.02 0 01-.744-.267.956.956 0 01-.275-.715.958.958 0 01.339-.766 1.353 1.353 0 01.911-.29 2.946 2.946 0 01.394.03c.138.018.28.048.428.081v-.271a.824.824 0 00-.175-.595.856.856 0 00-.606-.171 1.693 1.693 0 00-.402.048 2.965 2.965 0 00-.402.126 1.066 1.066 0 01-.13.049.228.228 0 01-.06.01c-.051 0-.077-.036-.077-.114v-.183a.235.235 0 01.026-.13.279.279 0 01.104-.078 2.141 2.141 0 01.468-.167 2.255 2.255 0 01.58-.071 1.36 1.36 0 01.975.301 1.231 1.231 0 01.31.915v1.206zm-1.503.566a1.206 1.206 0 00.383-.067.829.829 0 00.354-.238.59.59 0 00.126-.238 1.336 1.336 0 00.038-.324v-.156a3.107 3.107 0 00-.343-.063 2.803 2.803 0 00-.35-.022.858.858 0 00-.554.148.519.519 0 00-.182.428.48.48 0 00.528.532zm2.988.402a.208.208 0 01-.142-.037.303.303 0 01-.078-.145L5.09 4.05a.652.652 0 01-.034-.149.082.082 0 01.09-.093h.364a.206.206 0 01.145.037.304.304 0 01.075.145l.625 2.463.58-2.463a.26.26 0 01.07-.145.256.256 0 01.15-.037h.297a.224.224 0 01.149.037.25.25 0 01.07.145l.588 2.493.644-2.493a.319.319 0 01.074-.145.243.243 0 01.145-.037h.346a.083.083 0 01.093.093.37.37 0 01-.007.06.53.53 0 01-.026.093L8.63 6.929a.285.285 0 01-.078.145.238.238 0 01-.141.038h-.32a.224.224 0 01-.149-.038.264.264 0 01-.07-.148l-.577-2.4-.573 2.396a.29.29 0 01-.07.149.23.23 0 01-.15.037zm4.78.1a2.462 2.462 0 01-.573-.067 1.692 1.692 0 01-.428-.148.268.268 0 01-.115-.105.263.263 0 01-.022-.104v-.19c0-.078.03-.115.085-.115a.21.21 0 01.067.011l.093.038a2.024 2.024 0 00.41.13 2.234 2.234 0 00.442.044 1.004 1.004 0 00.543-.122.4.4 0 00.194-.354.362.362 0 00-.1-.26.933.933 0 00-.377-.194l-.539-.167a1.135 1.135 0 01-.595-.38.886.886 0 01-.186-.539.828.828 0 01.1-.413.957.957 0 01.268-.305 1.18 1.18 0 01.387-.193 1.621 1.621 0 01.469-.064 1.867 1.867 0 01.249.015c.085.011.164.026.242.041.074.019.145.037.212.06a.812.812 0 01.156.067.322.322 0 01.112.093.2.2 0 01.033.122v.175c0 .078-.03.12-.086.12a.387.387 0 01-.14-.045 1.702 1.702 0 00-.715-.145.96.96 0 00-.495.104.36.36 0 00-.175.33.351.351 0 00.112.265 1.111 1.111 0 00.409.205l.528.167a1.132 1.132 0 01.577.357.842.842 0 01.171.521.956.956 0 01-.097.432 1 1 0 01-.271.327 1.2 1.2 0 01-.413.208 1.769 1.769 0 01-.532.078z" fill="#fff"/><path d="M11.666 9.016A8.024 8.024 0 017.135 10.4a8.197 8.197 0 01-5.532-2.11c-.115-.103-.011-.245.127-.163a11.156 11.156 0 005.535 1.47 11.046 11.046 0 004.222-.863c.205-.093.38.133.179.282z" fill="#f90"/><path d="M12.03 8.38c-.157-.2-1.035-.097-1.433-.048-.119.015-.137-.09-.03-.168a2.21 2.21 0 011.983-.186 2.183 2.183 0 01-.692 1.868c-.1.085-.197.04-.152-.07.149-.37.48-1.199.323-1.396z" fill="#f90"/></svg>