<svg data-tags="amazon web services" xmlns="http://www.w3.org/2000/svg" viewBox="0 0 14 14"><circle cx="7" cy="7" r="7" fill="#232f3e"/><path d="M4.766 6.422a1 1 0 00.044.303 1.817 1.817 0 00.108.244.148.148 0 01.024.078.134.134 0 01-.064.102l-.214.143a.163.163 0 01-.089.03.156.156 0 01-.101-.047 1.05 1.05 0 01-.123-.16 2.63 2.63 0 01-.105-.2 1.254 1.254 0 01-.998.468.93.93 0 01-.68-.244.872.872 0 01-.25-.652.874.874 0 01.308-.7 1.235 1.235 0 01.832-.264 2.688 2.688 0 01.36.027c.126.017.255.044.39.075v-.248a.752.752 0 00-.159-.544.782.782 0 00-.553-.156 1.545 1.545 0 00-.367.044 2.706 2.706 0 00-.367.116.974.974 0 01-.119.044.208.208 0 01-.054.01c-.047 0-.071-.034-.071-.105v-.167a.215.215 0 01.024-.118.254.254 0 01.095-.072 1.955 1.955 0 01.427-.153 2.059 2.059 0 01.53-.064 1.24 1.24 0 01.89.275 1.124 1.124 0 01.282.835v1.1zm-1.372.517a1.1 1.1 0 00.35-.062.757.757 0 00.322-.217.54.54 0 00.116-.217 1.22 1.22 0 00.034-.296v-.142a2.837 2.837 0 00-.313-.058 2.559 2.559 0 00-.319-.02.783.783 0 00-.506.136.473.473 0 00-.166.39.438.438 0 00.482.486zm2.726.366a.19.19 0 01-.129-.034.277.277 0 01-.07-.132l-.799-2.625a.595.595 0 01-.03-.136.074.074 0 01.081-.085h.333a.188.188 0 01.132.034.278.278 0 01.068.133l.57 2.248.53-2.248a.238.238 0 01.065-.133.234.234 0 01.136-.034h.271a.204.204 0 01.136.034.229.229 0 01.065.133l.536 2.275.588-2.275a.291.291 0 01.067-.133.222.222 0 01.133-.034h.316a.075.075 0 01.085.085.34.34 0 01-.007.055.484.484 0 01-.024.085l-.818 2.624a.26.26 0 01-.072.133.217.217 0 01-.129.034h-.292a.204.204 0 01-.135-.034.24.24 0 01-.065-.136l-.526-2.19-.523 2.187a.265.265 0 01-.065.135.21.21 0 01-.136.034zm4.364.092a2.247 2.247 0 01-.523-.061 1.545 1.545 0 01-.39-.136.245.245 0 01-.106-.095.24.24 0 01-.02-.095v-.173c0-.072.027-.106.078-.106a.192.192 0 01.06.01c.021.007.052.021.086.035a1.847 1.847 0 00.373.118 2.04 2.04 0 00.404.041.916.916 0 00.496-.112.366.366 0 00.177-.322.33.33 0 00-.092-.238.852.852 0 00-.343-.177l-.492-.152a1.036 1.036 0 01-.544-.347.809.809 0 01-.17-.492.756.756 0 01.092-.377.873.873 0 01.245-.278 1.078 1.078 0 01.353-.177 1.48 1.48 0 01.428-.058 1.706 1.706 0 01.227.014c.078.01.15.024.22.037.069.017.133.034.194.054a.742.742 0 01.143.062.294.294 0 01.102.084.183.183 0 01.03.112v.16c0 .071-.027.109-.078.109a.353.353 0 01-.129-.041 1.553 1.553 0 00-.652-.132.876.876 0 00-.451.095.328.328 0 00-.16.302.32.32 0 00.102.24 1.014 1.014 0 00.374.188L11 5.64a1.033 1.033 0 01.526.326.768.768 0 01.156.476.873.873 0 01-.088.394.913.913 0 01-.248.299 1.094 1.094 0 01-.377.19 1.615 1.615 0 01-.485.071z" fill="#fff"/><path d="M11.125 9.047A7.324 7.324 0 016.99 10.31a7.482 7.482 0 01-5.05-1.925c-.105-.095-.01-.224.116-.15a10.183 10.183 0 005.053 1.342 10.083 10.083 0 003.853-.788c.187-.085.347.122.163.258z" fill="#f90"/><path d="M11.59 8.518c-.142-.184-.943-.089-1.307-.045-.108.014-.125-.081-.027-.152a2.017 2.017 0 011.81-.17 1.992 1.992 0 01-.632 1.704c-.091.078-.18.038-.139-.064.136-.336.438-1.094.296-1.273z" fill="#f90"/></svg>