<svg data-tags="azureBot,Microsoft Bot Framework" xmlns="http://www.w3.org/2000/svg" viewBox="0 0 14 14"><defs><radialGradient id="brand_azureBot_clr__a" cx="95.854" cy="940.312" r="7.419" gradientTransform="matrix(.94 0 0 .94 -83.302 -877.143)" gradientUnits="userSpaceOnUse"><stop offset=".67" stop-color="#7cb7ec"/><stop offset=".74" stop-color="#74b2eb"/><stop offset=".85" stop-color="#60a6e8"/><stop offset=".99" stop-color="#4493e3"/><stop offset="1" stop-color="#4392e3"/></radialGradient></defs><path d="M7 0a7 7 0 1 0 7 7 6.994 6.994 0 0 0-7-7Z" fill="url(#brand_azureBot_clr__a)"/><circle cx="7" cy="7" r="5.765" fill="#fff"/><circle cx="5.682" cy="7" r=".659" fill="#5fbbd8"/><path d="M3.953 5.188h-.33a.218.218 0 0 0-.247.247v4.694a.531.531 0 0 0 .495.495h4.611a.218.218 0 0 0 .247-.248v-.329a.218.218 0 0 0-.247-.247H4.365a.08.08 0 0 1-.083-.082V5.435c-.082-.164-.164-.247-.33-.247Z" fill="#5fbbd8"/><circle cx="8.235" cy="7" r=".659" fill="#5fbbd8"/><path d="M9.8 3.376H5.518a.218.218 0 0 0-.247.248v.329a.218.218 0 0 0 .247.247h4.117a.08.08 0 0 1 .083.082v4.283a.218.218 0 0 0 .247.247h.33a.218.218 0 0 0 .246-.247V3.87a.531.531 0 0 0-.494-.495Z" fill="#5fbbd8"/></svg>