<svg data-tags="bacsDirectDebit" xmlns="http://www.w3.org/2000/svg" viewBox="0 0 14 14"><path d="M0 0h14v14H0Z" fill="#fff" fill-rule="evenodd"/><path d="M10.998 9.944c-.2.115-.397.235-.605.335a4.638 4.638 0 0 1-.827.315c-.26.068-.519.144-.782.201a4.755 4.755 0 0 1-.585.083c-.275.025-.551.042-.827.053a6.356 6.356 0 0 1-.578 0 6.37 6.37 0 0 1-.606-.053q-.338-.047-.672-.125-.383-.089-.759-.207a3.74 3.74 0 0 1-.501-.2 7.844 7.844 0 0 1-.698-.366 5.145 5.145 0 0 1-.61-.444 4.096 4.096 0 0 1-.45-.446 3.068 3.068 0 0 1-.502-.776 2.675 2.675 0 0 1-.195-.608 2.105 2.105 0 0 1-.035-.7c.026-.17.04-.34.072-.508a2.29 2.29 0 0 1 .1-.327 2.983 2.983 0 0 1 .417-.764 3.618 3.618 0 0 1 .518-.552 3.96 3.96 0 0 1 .72-.5 5.614 5.614 0 0 1 .668-.31q.412-.154.837-.269c.208-.057.423-.09.635-.13q.238-.044.478-.077a3.87 3.87 0 0 1 .31-.029c.188-.011.375-.018.563-.028.008 0 .014-.008.021-.012h.412v2.677c-.027 0-.049.003-.07.003-.213-.005-.425-.018-.636-.011a9.23 9.23 0 0 0-.771.053c-.27.032-.536.081-.802.13a5.77 5.77 0 0 0-1.16.347 4.005 4.005 0 0 0-.741.39 1.636 1.636 0 0 0-.548.572.84.84 0 0 0-.067.595 1.752 1.752 0 0 0 .446.786 3.13 3.13 0 0 0 .661.551c.207.13.425.245.644.357a5.117 5.117 0 0 0 1.116.397 6.18 6.18 0 0 0 .693.122c.224.028.45.045.675.053a4.576 4.576 0 0 0 .643-.015 3.686 3.686 0 0 0 1.155-.317 3.391 3.391 0 0 0 1.347-1.119 3.055 3.055 0 0 0 .486-1.097 4.098 4.098 0 0 0 .082-.544 4.938 4.938 0 0 0 .013-.591 4.239 4.239 0 0 0-.065-.508 2.554 2.554 0 0 0-.09-.41 5.435 5.435 0 0 0-.228-.563 2.536 2.536 0 0 0-.353-.532 2.968 2.968 0 0 0-.84-.693 4.829 4.829 0 0 0-.702-.32 5.434 5.434 0 0 0-.604-.166c-.09-.022-.033-.084-.06-.137.124.007.231.01.34.02.127.012.254.027.38.051.273.053.548.102.818.17.223.057.442.132.66.21a5.263 5.263 0 0 1 1.11.568 4.626 4.626 0 0 1 .785.665 3.378 3.378 0 0 1 .521.728 2.68 2.68 0 0 1 .29.827 2.716 2.716 0 0 1 .04.559 2.819 2.819 0 0 1-.152.818 3.057 3.057 0 0 1-.353.707 3.784 3.784 0 0 1-.294.37q-.123.138-.259.263a3.593 3.593 0 0 1-.63.477Zm-3.5-3.62v3.914c-.09-.01-.176-.016-.26-.033q-.218-.047-.435-.103a2.594 2.594 0 0 1-.721-.306 3.142 3.142 0 0 1-.406-.287 1.779 1.779 0 0 1-.385-.474 1.254 1.254 0 0 1-.154-.43 3.041 3.041 0 0 1-.01-.443 1.27 1.27 0 0 1 .109-.445 1.744 1.744 0 0 1 .297-.493 2.364 2.364 0 0 1 .751-.588 2.733 2.733 0 0 1 .683-.241c.146-.03.298-.038.447-.056.027-.003.053-.01.083-.015Z" fill="#32325d"/></svg>