<svg data-tags="bancontact" xmlns="http://www.w3.org/2000/svg" viewBox="0 0 14 14"><path d="M0 0h14v14H0Z" fill="#fff" fill-rule="evenodd"/><path d="M11.217 6.305H7.864l-.342.392-1.105 1.268-.342.392H2.77l.334-.396.158-.188.334-.396h-1.52a.52.52 0 0 0-.505.527V9.02a.517.517 0 0 0 .505.526h5.831a1.258 1.258 0 0 0 .844-.392l.882-1.02Z" fill="#005498"/><path d="M11.89 5.116a.52.52 0 0 1 .504.527v1.111a.516.516 0 0 1-.504.527h-1.517l.338-.392.167-.196.339-.392H7.864L6.08 8.348H2.753l2.385-2.744.09-.105a1.298 1.298 0 0 1 .847-.392h5.814Z" fill="#ffbf00"/></svg>