<svg data-tags="bazaar voice,brand" xmlns="http://www.w3.org/2000/svg" viewBox="0 0 14 14"><circle cx="7" cy="7" r="7" fill="#002e6e"/><path fill="#fff" d="M5.376 5.028a.379.379 0 00-.007.047c0 .458 0 .917-.002 1.375 0 .073.03.085.095.086a3.359 3.359 0 01.605.028 1.06 1.06 0 01.782 1.363 1.07 1.07 0 01-2.088-.35V3.944c0-.044-.004-.088-.006-.132H3.236v.12c0 1.22-.002 2.442.002 3.663a2.905 2.905 0 00.048.51 2.593 2.593 0 104.867-1.661 2.656 2.656 0 00-2.777-1.417zM9.88 7.313a.862.862 0 00.884-.844.875.875 0 00-.857-.877.888.888 0 00-.875.806.877.877 0 00.848.915zm.02.601a.857.857 0 10.864.863.86.86 0 00-.864-.863z"/></svg>