<svg data-tags="bazaar voice,brand" xmlns="http://www.w3.org/2000/svg" viewBox="0 0 14 14"><path d="M3.78 14H.856c-.244 0-.489-.005-.733-.001-.086.001-.109-.033-.106-.112.005-.119.001-.238.001-.357 0-2.144.005-4.288-.002-6.432A6.984 6.984 0 01.85 3.716 6.998 6.998 0 015.932.134a7 7 0 016.51 2.504 6.973 6.973 0 011.251 6.43 6.849 6.849 0 01-1.795 2.938 6.932 6.932 0 01-3.589 1.873 8.286 8.286 0 01-1.648.12c-.6-.005-1.201-.002-1.802-.002h-1.08zm1.707-8.627a.377.377 0 00-.007.048c0 .458 0 .916-.002 1.375 0 .072.03.085.095.086a3.354 3.354 0 01.605.027 1.06 1.06 0 01.781 1.363 1.07 1.07 0 01-2.087-.35V4.29c0-.044-.004-.088-.006-.132h-1.52v.12c0 1.22 0 2.441.003 3.662a2.906 2.906 0 00.048.51 2.593 2.593 0 104.867-1.66 2.656 2.656 0 00-2.777-1.418zm5.388 1.441a.875.875 0 00-.857-.877.888.888 0 00-.875.807.877.877 0 00.848.915.862.862 0 00.884-.845zm-.864 1.445a.857.857 0 10.864.864.86.86 0 00-.864-.864z"/></svg>