<svg data-tags="beezy" xmlns="http://www.w3.org/2000/svg" viewBox="0 0 14 14"><rect width="14" height="14" rx="7" fill="#fff"/><path d="M6.312 2.906h.028c.035.03.08.006.117.02a1.173 1.173 0 0 1 .57.237c.06.052.128.094.183.153a1.377 1.377 0 0 1 .232.287c.04.066.077.133.119.197a1.255 1.255 0 0 0 .104.18 1.195 1.195 0 0 0 .088.145 1.455 1.455 0 0 0 .114.199 2.668 2.668 0 0 0 .145.254c.06.098.112.2.174.298.012.037.028.074-.019.1a1.494 1.494 0 0 1-.459.008.164.164 0 0 1-.061-.03.615.615 0 0 1-.104-.161c-.057-.105-.126-.202-.181-.308-.066-.115-.127-.233-.202-.342-.193-.527-.672-.727-1.111-.973a1.487 1.487 0 0 1-.23-.14c-.027-.024-.11-.06-.014-.11a3.57 3.57 0 0 0 .507-.014Z" fill="#f5891f"/><path d="M2.586 7.428c-.05-.046-.003-.141-.086-.17v-.2a.054.054 0 0 1 .038-.014c.473.26.934.54 1.404.803.052.029.115.05.135.118a.308.308 0 0 1-.15.267c-.306-.22-.647-.383-.967-.58a2.339 2.339 0 0 1-.374-.224Z" fill="#fadb34"/><path d="M4.064 7.968c-.389-.228-.78-.452-1.166-.684a1.787 1.787 0 0 1-.371-.226c-.022-.03-.009-.064-.012-.096-.003-.025.007-.053-.015-.074v-.142l.054-.036a.471.471 0 0 0 .214.208q.656.376 1.313.75a.235.235 0 0 1 .112.103c-.002.092-.012.18-.129.197Z" fill="#fad733"/><path d="M6.452 2.939c-.038-.01-.085.014-.112-.033h2.276a.031.031 0 0 1-.012.044.164.164 0 0 1-.074.023c-.228.01-.456.005-.685.005-.171-.003-.342.008-.513-.002a4.097 4.097 0 0 1-.88-.037Z" fill="#fce686"/><path d="M6.312 2.906c-.12.064-.248.014-.37.028-.057.006-.114.003-.17.004a.519.519 0 0 1-.386.014.032.032 0 0 1-.013-.046Z" fill="#f9ba7a"/><path d="M8.615 2.933v-.027h.114c.013.047.068.025.09.055-.076.048-.15.078-.204-.028Z" fill="#fad231"/><path d="M5.373 2.906a.154.154 0 0 0 0 .029c-.046.098-.11.071-.177.026.017-.023.061-.014.063-.055Z" fill="#f6921e"/><path d="m2.525 6.944.002.114H2.5v-.113q.012-.019.025-.001Z" fill="#fce991"/><path d="M2.525 6.944H2.5v-.056c.027.01.028.032.025.056Z" fill="#fceea9"/><path d="M4.064 7.968a.34.34 0 0 0 .117-.197.268.268 0 0 1 .04-.103c.04-.085.097-.16.136-.245.027-.05.06-.097.087-.148.045-.063.064-.139.105-.204a.74.74 0 0 0 .122-.191c.041-.065.072-.136.113-.202a2.016 2.016 0 0 0 .14-.228c.044-.063.07-.136.113-.198.033-.047.056-.1.088-.146.043-.063.069-.136.112-.199.051-.08.09-.168.143-.248.036-.068.075-.134.114-.2a1.975 1.975 0 0 0 .114-.197c.027-.051.062-.099.088-.15.047-.057.052-.18.177-.114a1.026 1.026 0 0 1 .213.382.775.775 0 0 1-.147.346c-.113.176-.208.363-.315.543-.088.127-.147.27-.23.4-.08.132-.164.262-.232.402-.072.1-.115.217-.18.321a1.343 1.343 0 0 0-.255.916c.021.737.006 1.475.006 2.213a.818.818 0 0 1-.008.17c-.02.09-.065.124-.15.065a1.74 1.74 0 0 1-.384-.464 7.475 7.475 0 0 1-.414-.722 1.365 1.365 0 0 1 .06-1.254.172.172 0 0 1 .086-.09.968.968 0 0 0 .141-.258Z" fill="#f5881f"/><path d="M11.458 6.688a1.149 1.149 0 0 1 .004.602c-.053-.041-.023-.107-.05-.167a1.008 1.008 0 0 0-.27.139q-1.072.625-2.148 1.24c-.062.036-.11.089-.176.119a.86.86 0 0 1-.35-.003.049.049 0 0 1-.027-.07 1.324 1.324 0 0 1 .277-.429 1.576 1.576 0 0 0 .478-.239c.348-.201.694-.404 1.043-.602.337-.191.672-.387 1.011-.574.062-.034.131-.117.208-.016Z" fill="#f7971d"/><path d="M8.452 8.594h.391a.857.857 0 0 1 .42-.041c.136-.001.272-.004.409-.001a1.59 1.59 0 0 0 1.24-.364.149.149 0 0 1 .099-.05c.041.002.04.03.023.059a1.88 1.88 0 0 1-.198.339 1.25 1.25 0 0 1-.63.453c-.07.02-.136.048-.207.064-.077.006-.15.031-.228.035-.058-.002-.116.006-.174.002-.193-.003-.385 0-.578 0h-.313c-.111 0-.222-.003-.333 0-.056-.006-.117.004-.162-.043a.575.575 0 0 1 .241-.453Z" fill="#f5881f"/><path d="M5.145 7.058a1.29 1.29 0 0 1 .228-.398c.089.05.073.137.073.215.003.426.002.852.002 1.278l-.001 2.67a.455.455 0 0 1-.031.236.039.039 0 0 1-.05.014.675.675 0 0 1-.313-.059.365.365 0 0 0 .076-.278q-.002-1.733-.001-3.466a.702.702 0 0 1 .017-.212Z" fill="#f6921d"/><path d="M5.145 7.058a.295.295 0 0 1 .029.165l.001 3.642c0 .09-.004.163-.122.15a.421.421 0 0 1-.221-.089.787.787 0 0 0 .042-.25c-.005-1.01.009-2.022-.01-3.033-.002-.12.091-.194.11-.3.06-.093.078-.212.171-.285Z" fill="#f68f1e"/><path d="M3.923 8.225a1.74 1.74 0 0 0-.23.89c.01.156.062.302.084.455l-.699-1.187c-.129-.22-.257-.442-.38-.666a.718.718 0 0 1-.112-.289 4.683 4.683 0 0 1 .671.354c.188.096.367.21.55.314.055.03.111.056.116.13Z" fill="#fbde34"/><path d="M11.263 6.205a.561.561 0 0 1 .114.227.747.747 0 0 1-.22.15c-.657.382-1.318.757-1.974 1.139a.55.55 0 0 1-.286.109.068.068 0 0 1-.002-.08 3.664 3.664 0 0 1 .299-.486c.628-.356 1.248-.726 1.878-1.08.072-.04.137-.073.19.02Z" fill="#f89e1d"/><path d="M4.975 7.343a8.65 8.65 0 0 0-.054 1.692c-.016.571-.002 1.143-.004 1.714 0 .07.032.161-.085.177a.684.684 0 0 1-.257-.17c.105.033.117-.025.116-.11-.002-.5.002-1-.002-1.501-.003-.411.014-.822-.009-1.232a.553.553 0 0 1 .112-.286c.054-.099.121-.19.183-.284Z" fill="#f68d1e"/><path d="M11.263 6.205c-.055-.046-.1-.036-.162 0-.634.355-1.25.74-1.894 1.08-.05-.114.038-.217.025-.328a.198.198 0 0 1 .119-.178c.519-.29 1.031-.591 1.546-.888.051-.03.102-.077.168-.028a1.803 1.803 0 0 1 .198.342Z" fill="#f9a21d"/><path d="M10.351 4.641a.838.838 0 0 1 .167.285.38.38 0 0 1-.13.106c-.484.268-.958.552-1.439.823a.437.437 0 0 1-.195.078.426.426 0 0 1-.185-.297.145.145 0 0 1 .09-.102c.52-.295 1.037-.599 1.558-.894.042-.024.09-.065.134.001Z" fill="#fab21d"/><path d="m8.186 4.961-.028-.091c.013-.059.062-.08.107-.106q.715-.42 1.438-.828c.066-.037.137-.12.227-.036a1.301 1.301 0 0 1 .165.286c-.597.319-1.176.668-1.762 1.005-.115-.034-.137-.128-.147-.23Z" fill="#f9bd25"/><path d="M8.899 7.826c.448-.224.871-.49 1.306-.738q.523-.298 1.043-.6a.304.304 0 0 1 .13-.056.577.577 0 0 1 .08.256c-.053-.04-.099-.009-.143.017q-.737.422-1.473.846c-.33.19-.662.379-.99.574a.18.18 0 0 1-.133.01.342.342 0 0 1 .18-.309Z" fill="#f89b1d"/><path d="M9.93 3.9c-.144-.027-.234.084-.34.144-.48.27-.955.55-1.432.826a.947.947 0 0 1-.17-.285 1.541 1.541 0 0 1 .481-.317c.363-.203.715-.422 1.084-.614.065-.034.127-.09.209-.04a1.158 1.158 0 0 1 .168.286Z" fill="#f9c027"/><path d="M8.755 5.928c.59-.331 1.164-.688 1.763-1.002a1.668 1.668 0 0 1 .203.34.443.443 0 0 0-.278.084c-.443.265-.895.514-1.339.776-.061.036-.115.082-.178.115a.368.368 0 0 1-.171-.313Z" fill="#faae1d"/><path d="M9.27 8.594h-.427c.002-.06.055-.077.092-.099.518-.3 1.038-.598 1.558-.896.25-.144.5-.287.748-.432.217-.126.216-.127.22.123a.155.155 0 0 1-.027.117c-.067-.026-.118.01-.172.042q-.843.484-1.684.971c-.102.06-.21.109-.308.174Z" fill="#f7941d"/><path d="M9.762 3.614a1.593 1.593 0 0 0-.505.243c-.373.199-.733.42-1.102.628-.056.032-.092.099-.166.1a.638.638 0 0 1-.144-.255c.014-.064.07-.086.118-.114.475-.285.958-.555 1.436-.833.05-.028.098-.064.157-.022a.675.675 0 0 1 .206.253Z" fill="#fac52a"/><path d="M10.351 4.641c-.146-.001-.244.103-.358.168-.44.247-.875.5-1.312.752-.036.02-.08.033-.095.079a.306.306 0 0 1-.163-.258c.012-.058.058-.083.103-.109.517-.302 1.045-.584 1.552-.904.05-.032.094-.043.132.016a.747.747 0 0 1 .141.256Z" fill="#f9b621"/><path d="M11.065 5.863a2.514 2.514 0 0 0-.57.303c-.376.208-.745.427-1.118.638-.06.035-.118.063-.11.146-.102-.066-.077-.184-.111-.277-.001-.079.051-.116.111-.15.506-.283 1.005-.58 1.51-.863.059-.032.118-.074.173.004a.64.64 0 0 1 .115.199Z" fill="#f9a61c"/><path d="M10.95 5.664a.109.109 0 0 0-.119.002c-.46.267-.922.528-1.377.8-.095.058-.237.06-.272.2-.098-.032-.122-.116-.142-.203a.174.174 0 0 1 .107-.17c.513-.284 1.01-.596 1.526-.876.042-.023.085-.045.13-.007a1.045 1.045 0 0 1 .147.254Z" fill="#faa81d"/><path d="M9.27 8.594c.096-.144.263-.186.4-.267.534-.318 1.075-.625 1.615-.933.046-.027.11-.11.149.013-.042.113-.046.243-.145.332a1.385 1.385 0 0 0-.411.196c-.352.19-.69.404-1.04.597a.827.827 0 0 0-.142.062Z" fill="#f6921e"/><path d="M10.21 4.385a.092.092 0 0 0-.103 0C9.6 4.723 9.06 5 8.536 5.307c-.037.022-.079.036-.094.081a.164.164 0 0 1-.115-.197c.07-.126.21-.154.32-.22.424-.253.853-.495 1.28-.74.051-.028.1-.08.168-.044a.617.617 0 0 1 .115.199Z" fill="#f9b922"/><path d="m5.367 11.073.034-.01a.303.303 0 0 1 .2-.036c.102-.002.205-.003.307 0 .059-.001.118-.002.177 0 .093-.002.186-.002.28 0 .067-.001.134-.002.202 0 .075-.002.151-.002.227 0 .076-.002.151-.002.227 0 .076-.002.152-.002.227 0 .076-.001.151-.002.227 0 .066-.001.133-.002.2 0h.2c.077-.002.153-.001.229 0 .051-.004.103 0 .154-.001.124-.013.113-.108.113-.192V9.278c.004-.22.027-.239.254-.2a.297.297 0 0 1 .036.192q.002.8 0 1.6a.306.306 0 0 1-.044.203.298.298 0 0 1-.152.018q-1.466.002-2.932.001a.33.33 0 0 1-.166-.02Z" fill="#f9b822"/><path d="M10.804 5.41a2.4 2.4 0 0 0-.535.273c-.35.193-.693.397-1.036.6-.073.042-.173.068-.166.186a.212.212 0 0 1-.138-.238c.055-.117.18-.145.278-.204.409-.245.822-.483 1.238-.717.08-.046.166-.146.275-.043a.354.354 0 0 1 .084.143Z" fill="#faab1d"/><path d="M9.014 9.05h.597c-.038.104-.13.054-.199.068-.052.004-.103.001-.155 0-.165.021-.17.024-.17.193l-.001 1.445c0 .083.012.173-.07.232a.353.353 0 0 1-.201.055.201.201 0 0 1-.045-.16q-.003-.823 0-1.646a.32.32 0 0 1 .022-.139c.06-.075.154-.004.222-.049Z" fill="#f9bd25"/><path d="M9.412 9.078c.066-.011.139.025.199-.029h.17a1.852 1.852 0 0 0-.04.56c-.008.278.015.557-.015.835a.988.988 0 0 1-.341.348.423.423 0 0 1-.015-.195c-.006-.444-.002-.888-.002-1.331a.26.26 0 0 1 .044-.188Z" fill="#fac62a"/><path d="M9.696 8.594a1.994 1.994 0 0 1 .468-.286c.335-.202.679-.391 1.02-.583.032-.017.083-.08.105.014a2.808 2.808 0 0 1-.255.458c-.01-.069-.037-.032-.061-.011a1.636 1.636 0 0 1-.783.392 4.098 4.098 0 0 1-.494.016Z" fill="#f68e1e"/><path d="M9.015 10.988a.382.382 0 0 0 .027-.18V9.303c.001-.256-.032-.222.228-.225a.244.244 0 0 1 .045.174c.007.5-.012 1.002.011 1.502a.169.169 0 0 1-.025.095.645.645 0 0 1-.286.139Z" fill="#f9c027"/><path d="M9.556 3.36a.864.864 0 0 0-.335.17c-.46.263-.918.533-1.376.8a.371.371 0 0 1-.115-.2 3.515 3.515 0 0 1 .61-.382c.296-.18.605-.335.897-.52.036-.023.07-.05.117-.037a.532.532 0 0 1 .202.17Z" fill="#fbc82b"/><path d="M8.815 9.078v1.965a.328.328 0 0 1-.198.03l-.001-1.995c.026-.022.058-.011.088-.014.037.004.076-.011.11.014Z" fill="#f9bb24"/><path d="M7.646 3.988c-.064-.04-.076-.113-.11-.172a4.024 4.024 0 0 1 .635-.394c.21-.125.426-.24.635-.368a.22.22 0 0 1 .212-.035.37.37 0 0 1 .196.086c-.016.068-.076.094-.127.125-.416.25-.841.484-1.259.732-.054.032-.113.076-.182.026Z" fill="#facc2e"/><path d="M9.018 3.019c-.11-.014-.184.063-.267.11-.384.22-.765.445-1.148.666a.316.316 0 0 1-.067.021l-.114-.199a4.913 4.913 0 0 1 .6-.367c.177-.107.36-.203.537-.312l.056-.005c.061.057.136.02.204.028a.353.353 0 0 1 .2.058Z" fill="#fbce30"/><path d="M9.726 10.444a.277.277 0 0 1-.03-.15c0-.363.003-.727-.002-1.09a.15.15 0 0 1 .088-.154l.227-.03c-.02.277-.01.554-.013.831a.552.552 0 0 1-.045.22 1.705 1.705 0 0 1-.225.373Z" fill="#fbca2b"/><path d="M7.646 3.988a1.22 1.22 0 0 0 .449-.227c.377-.211.756-.42 1.119-.656a.281.281 0 0 1 .14.086c-.418.282-.872.504-1.304.764a1.462 1.462 0 0 1-.32.176.206.206 0 0 1-.084-.143Z" fill="#fbcb2c"/><path d="M9.301 10.849a6.278 6.278 0 0 1-.03-1.019c-.007-.25-.001-.502-.001-.752h.142c.003.537.005 1.074.011 1.611 0 .044-.035.065-.038.103a.133.133 0 0 1-.084.057Z" fill="#fac328"/><path d="M9.951 10.07c0-.296.002-.591 0-.887a.172.172 0 0 1 .058-.163.558.558 0 0 1 .2-.057.134.134 0 0 1 .064.117 1.003 1.003 0 0 1-.036.48 3.106 3.106 0 0 1-.286.51Z" fill="#facc2e"/><path d="M10.237 9.56a2.681 2.681 0 0 0-.029-.597 2.178 2.178 0 0 0 .628-.427 10.802 10.802 0 0 1-.6 1.024Z" fill="#fbcf31"/><path d="M7.563 4.783c.046.037.057.095.085.143a.66.66 0 0 1-.566-.044c-.333-.21-.679-.398-1.02-.595l-1.45-.839c-.052-.03-.134-.052-.093-.146a.728.728 0 0 1 .285-.199.383.383 0 0 0 .14.135c.824.472 1.641.955 2.47 1.418a.392.392 0 0 1 .15.127Z" fill="#f7971d"/><path d="M4.234 3.643a.498.498 0 0 1 .143-.197 1.16 1.16 0 0 1 .312.163c.67.39 1.343.771 2.012 1.162.06.035.142.065.12.165a.875.875 0 0 1-.652-.078c-.6-.369-1.217-.712-1.828-1.063-.057-.032-.143-.052-.107-.152Z" fill="#f89e1d"/><path d="M4.234 3.643c.038.135.175.147.27.203.566.336 1.146.65 1.707.995.205.126.409.058.613.084.144-.07.243-.06.312.032a.177.177 0 0 1-.131.04c-.338 0-.675.011-1.013-.006a3.066 3.066 0 0 1-.755-.385c-.327-.181-.65-.37-.975-.554-.068-.039-.147-.07-.178-.154a.987.987 0 0 1 .15-.255Z" fill="#f9a31d"/><path d="M5.196 2.96c.06-.004.124.026.177-.025l.4.003a1.497 1.497 0 0 0 .421.276c.199.125.414.225.613.35.144.09.197.258.286.395.036.055.067.113.1.17-.082.043-.148-.012-.209-.046a73.88 73.88 0 0 1-1.4-.807c-.105-.063-.216-.116-.318-.185-.044-.031-.105-.052-.092-.126a.018.018 0 0 1 .022-.004Z" fill="#f68e1e"/><path d="M5.401 5.665a1.06 1.06 0 0 1-.142.256q-.81-.478-1.628-.942c-.044-.025-.112-.036-.107-.111a1.36 1.36 0 0 1 .168-.29c.411.269.85.492 1.272.743.122.072.242.147.367.215.048.027.105.054.07.13Z" fill="#fab21d"/><path d="M7.136 4.953c-.1-.059-.209-.013-.312-.028a1.429 1.429 0 0 0-.477-.319c-.633-.373-1.273-.735-1.91-1.102a.338.338 0 0 1-.06-.058.39.39 0 0 1 .142-.144c0 .058.042.078.085.102.806.464 1.619.916 2.412 1.4a1.172 1.172 0 0 0 .632.122l.029.027a.696.696 0 0 1-.54 0Z" fill="#f89b1d"/><path d="M4.946 6.461c-.047.076-.062.173-.141.23a2.187 2.187 0 0 1-.482-.265c-.378-.22-.764-.43-1.137-.66-.058-.035-.137-.063-.09-.16a.623.623 0 0 1 .115-.197c.382.206.75.436 1.13.646.175.095.34.204.517.296.043.023.102.039.088.11Z" fill="#f9c027"/><path d="M4.946 6.461a3.424 3.424 0 0 0-.505-.307c-.38-.227-.768-.443-1.153-.664a.18.18 0 0 1-.077-.081.876.876 0 0 1 .138-.237c.483.307.986.58 1.482.865.062.036.124.07.182.11.04.027.08.057.047.115a.825.825 0 0 1-.114.199Z" fill="#f9bc25"/><path d="M4.379 7.43a.798.798 0 0 1-.144.255c-.309-.216-.647-.383-.972-.573-.19-.113-.381-.225-.574-.334-.07-.04-.147-.079-.107-.184a.47.47 0 0 1 .084-.227c.344.235.715.424 1.074.632.188.11.375.22.564.327.04.022.09.041.075.104Z" fill="#fad231"/><path d="m7.563 4.783-1.166-.668c-.503-.29-1.007-.578-1.508-.87-.048-.028-.14-.046-.085-.142a.394.394 0 0 1 .199-.088c-.007.087.069.105.122.136.47.272.944.54 1.414.814.286.166.58.317.853.506a2.767 2.767 0 0 1 .171.312Z" fill="#f7941d"/><path d="M7.392 4.47a5.601 5.601 0 0 1-.767-.416c-.492-.277-.98-.561-1.468-.843-.053-.03-.104-.065-.157-.096-.06-.035-.021-.067.003-.1a.304.304 0 0 1 .171-.05.426.426 0 0 0 .078.079q.871.507 1.745 1.01a1.3 1.3 0 0 0 .196.075Z" fill="#f6921e"/><path d="M5.401 5.665c0-.066-.053-.081-.098-.107l-1.541-.883a.115.115 0 0 1-.07-.097.591.591 0 0 1 .114-.198l1.61.928c.058.033.136.062.1.158a.595.595 0 0 1-.115.2Z" fill="#faae1d"/><path d="M3.097 5.606a.098.098 0 0 0 .057.103q.62.356 1.237.718a2.328 2.328 0 0 1 .414.263.546.546 0 0 1-.114.2 3.072 3.072 0 0 1-.522-.282c-.364-.211-.734-.412-1.094-.629-.066-.04-.14-.076-.092-.175a.624.624 0 0 1 .114-.198Z" fill="#fac52a"/><path d="M2.982 5.804c-.006.066.029.1.084.131.515.293 1.028.589 1.542.883.032.019.068.032.083.071a.39.39 0 0 1-.115.197 6.551 6.551 0 0 1-.772-.42q-.44-.248-.873-.505c-.04-.024-.105-.032-.094-.105a.994.994 0 0 1 .145-.252Z" fill="#fbc82b"/><path d="m3.524 4.868 1.02.596c.207.12.417.236.624.358.037.022.09.04.091.099a.832.832 0 0 1-.114.198c-.313-.22-.656-.39-.983-.586q-.304-.182-.613-.353c-.06-.033-.146-.065-.11-.167a.372.372 0 0 1 .085-.145Z" fill="#f9b621"/><path d="M5.714 5.125a.269.269 0 0 1-.085.142.65.65 0 0 1-.29-.136c-.442-.254-.886-.506-1.326-.763-.051-.03-.131-.044-.123-.133a.627.627 0 0 1 .115-.198c.52.317 1.058.604 1.581.918.06.036.164.055.128.17Z" fill="#faa81d"/><path d="M2.837 6.056c.278.164.555.33.834.492.285.165.572.325.858.488a.24.24 0 0 1 .047.05c-.039.066-.047.15-.113.201-.505-.296-1.014-.585-1.52-.88a2.309 2.309 0 0 1-.144-.09c-.042-.027-.073-.062-.045-.117a.31.31 0 0 1 .083-.144Z" fill="#facc2e"/><path d="M5.714 5.125c-.058-.141-.204-.173-.316-.24-.43-.257-.866-.503-1.3-.753-.04-.023-.091-.035-.093-.095a.31.31 0 0 1 .079-.139l1.743 1.01c.037.022.087.003.115.045a.15.15 0 0 1-.091.057c-.11-.038-.075.096-.137.115Z" fill="#f9a61c"/><path d="M2.754 6.2c.016.118.131.13.206.174.46.271.925.532 1.388.8.046.026.106.045.115.113a.295.295 0 0 1-.084.143 2.513 2.513 0 0 0-.478-.294c-.377-.225-.76-.44-1.14-.657-.047-.027-.092-.05-.095-.112a.325.325 0 0 1 .088-.167Z" fill="#fbce30"/><path d="M3.89 4.235a5.793 5.793 0 0 0 .745.448c.33.2.663.39.994.584a.398.398 0 0 1-.114.2c-.004-.075-.062-.1-.116-.13q-.769-.44-1.537-.882a.089.089 0 0 1-.056-.075.32.32 0 0 1 .084-.145Z" fill="#faab1d"/><path d="M3.44 5.013c.02.111.12.138.199.181.346.188.684.39 1.021.594.12.072.246.136.37.203.054.029.11.055.115.128a.453.453 0 0 1-.085.143c0-.058-.044-.076-.086-.1l-1.502-.866c-.05-.03-.114-.052-.123-.124a.402.402 0 0 1 .09-.16Z" fill="#f9b923"/><path d="M2.582 6.594c-.01.084.055.115.111.147q.718.412 1.439.82c.05.03.1.057.103.124a.096.096 0 0 1-.054.086L2.87 7.016a1.457 1.457 0 0 0-.198-.11.166.166 0 0 1-.118-.196.157.157 0 0 1 .028-.116Z" fill="#fbd532"/><path d="M8.559 2.938a.1.1 0 0 1-.064.086c-.319.182-.637.366-.956.547a.842.842 0 0 1-.117.046l-.229-.284a3.753 3.753 0 0 1 .654-.395Z" fill="#fad231"/><path d="M7.847 2.938a3.033 3.033 0 0 1-.654.395l-.17-.142c.05-.151.205-.173.312-.253Z" fill="#fad532"/><path d="M7.335 2.938c-.076.118-.228.144-.312.253a2.16 2.16 0 0 0-.571-.252Z" fill="#fad833"/><path d="M5.974 8.776c-.032.063-.062.127-.098.187-.032.052-.021.078.037.086a.258.258 0 0 1 .046.188q.002.82 0 1.641a.25.25 0 0 1-.046.188H5.6a.25.25 0 0 1-.045-.188q-.002-2.198-.001-4.396a.573.573 0 0 1 .046-.22 3.22 3.22 0 0 1 .313-.54c.092.024.07.103.072.162.007.232.002.464.003.696.004.69-.01 1.381.008 2.072a.327.327 0 0 1-.022.124Z" fill="#f7981d"/><path d="M5.6 6.262v4.804l-.199-.002v-4.21a.34.34 0 0 0-.028-.194 1.813 1.813 0 0 1 .227-.398Z" fill="#f7951d"/><path d="M5.974 8.776a1.512 1.512 0 0 1-.032-.436L5.94 5.883c0-.054.021-.114-.028-.161.037-.121.142-.213.146-.348a.347.347 0 0 1 .083.145.826.826 0 0 1 .016.253c0 .844-.001 1.687.001 2.53a.554.554 0 0 1-.016.183 1.348 1.348 0 0 1-.169.291Z" fill="#f89b1d"/><path d="M8.7 9.078h-.084c-.2 0-.2 0-.2.195 0 .543-.004 1.085.004 1.628.002.138-.037.193-.175.165a.214.214 0 0 1-.044-.16c-.002-.554 0-1.107-.001-1.661 0-.114.028-.194.16-.195h.34q.015.009.01.018c-.003.006-.006.01-.01.01Z" fill="#f9b621"/><path d="M8.36 9.05c-.094.028-.118.089-.117.186.005.61.003 1.22.002 1.83h-.142a.251.251 0 0 1-.045-.188V9.265c0-.079-.01-.164.074-.216l.079-.035c.04.054.098.028.148.036Z" fill="#fab51f"/><path d="M8.7 9.078v-.029h.314c-.06.054-.133.018-.2.029Z" fill="#f9b822"/><path d="M6.084 9.05h.284a.258.258 0 0 1 .046.187q.002.82 0 1.641a.249.249 0 0 1-.046.188h-.284a.25.25 0 0 1-.046-.188V9.237a.258.258 0 0 1 .046-.188Z" fill="#f89e1d"/><path d="M8.132 9.05a.315.315 0 0 0-.028.178v1.838h-.228a.25.25 0 0 1-.046-.188V9.237a.258.258 0 0 1 .046-.188Z" fill="#fab31d"/><path d="M7.023 9.05h.227a.258.258 0 0 1 .046.187v1.641a.25.25 0 0 1-.046.188h-.228a.25.25 0 0 1-.045-.188q-.002-.82 0-1.641a.258.258 0 0 1 .046-.188Z" fill="#faa81d"/><path d="M7.023 9.05v2.016h-.228a.25.25 0 0 1-.045-.188q-.002-.82 0-1.641a.258.258 0 0 1 .045-.188Z" fill="#f9a61c"/><path d="M6.795 9.05v2.016h-.228a.25.25 0 0 1-.045-.188q-.002-.82 0-1.641a.259.259 0 0 1 .046-.188Z" fill="#f9a31d"/><path d="M7.25 11.066V9.049h.228a.258.258 0 0 1 .045.188q.002.82 0 1.641a.25.25 0 0 1-.045.188Z" fill="#faab1d"/><path d="M7.876 9.05v2.016h-.2a.25.25 0 0 1-.045-.188V9.237a.258.258 0 0 1 .046-.188Z" fill="#fab01e"/><path d="M6.568 9.05v2.016h-.2V9.049Z" fill="#f8a01d"/><path d="M7.677 9.05v2.016h-.2V9.049Z" fill="#faae1d"/><path d="M6.084 9.05v2.016h-.17V9.049Z" fill="#f89a1d"/><path d="M6.143 8.485a.775.775 0 0 1-.031-.236q.002-1.247 0-2.494a.773.773 0 0 1 .03-.236 2.309 2.309 0 0 1 .229.395 1.123 1.123 0 0 1 .04.378c-.001.54.016 1.078-.01 1.617a.74.74 0 0 1-.03.18 2.293 2.293 0 0 1-.228.396Z" fill="#f89e1d"/><path d="M6.371 8.09V5.913a2.246 2.246 0 0 1 .229.395 1.798 1.798 0 0 1 .01.437c-.002.316.02.633-.01.948a2.28 2.28 0 0 1-.229.395Z" fill="#f8a01d"/><path d="M6.6 7.694a1.046 1.046 0 0 1-.032-.375c-.001-.259.001-.517-.002-.775a.777.777 0 0 1 .034-.235 2.387 2.387 0 0 1 .246.426.622.622 0 0 1 0 .534 2.41 2.41 0 0 1-.246.425Z" fill="#f9a31e"/></svg>