<svg data-tags="beezy" xmlns="http://www.w3.org/2000/svg" viewBox="0 0 14 14"><path d="m13.648 5.678-2.179-3.774A2.652 2.652 0 0 0 9.18.583H4.822a2.652 2.652 0 0 0-2.29 1.321L.352 5.678a2.655 2.655 0 0 0 0 2.644l1.66 2.874c.022.042.03.09.054.131.013.022.035.032.05.05l.416.719a2.652 2.652 0 0 0 2.29 1.321h4.357a2.652 2.652 0 0 0 2.29-1.321l2.18-3.774a2.66 2.66 0 0 0 0-2.644Zm-12.65.371 2.178-3.773a1.904 1.904 0 0 1 1.646-.95h1.363a1.86 1.86 0 0 1 1.52 1.062l.552 1.133-3.063.002a.361.361 0 0 0-.181.054l-.01.003-.017.015a.37.37 0 0 0-.059.044l-.005.002c-.008.008-.012.017-.019.025l-.021.029a.355.355 0 0 0-.021.028L2.066 8.73a2.585 2.585 0 0 0-.258.626L.998 7.95a1.901 1.901 0 0 1 0-1.902Zm4.73 3.725L6.92 7.48a1.336 1.336 0 0 0-.02-1.27L5.811 4.266l2.762-.002 1.25 2.467a.592.592 0 0 1 .001.541L8.547 9.774Zm5.097 1.95a1.904 1.904 0 0 1-1.646.95H4.822a1.904 1.904 0 0 1-1.646-.95l-.52-.9a1.852 1.852 0 0 1 .057-1.727l2.467-4.44 1.071 1.916a.592.592 0 0 1 .009.565L4.787 9.974a.372.372 0 0 0 .33.543h5.767a2.575 2.575 0 0 0 .695-.099Zm2.179-3.773-.517.894-.01.011a1.818 1.818 0 0 1-1.593.918H9.382l1.105-2.163a1.34 1.34 0 0 0-.001-1.22l-.547-1.078a.354.354 0 0 0-.022-.082L8.375 2.068a2.562 2.562 0 0 0-.555-.742H9.18a1.904 1.904 0 0 1 1.646.95l2.179 3.773a1.906 1.906 0 0 1 0 1.902Z"/></svg>