<svg data-tags="beezy" xmlns="http://www.w3.org/2000/svg" viewBox="0 0 14 14"><path d="M5.93.632h.043c.055.046.123.009.182.03a1.825 1.825 0 0 1 .886.37c.094.08.2.146.286.237a2.142 2.142 0 0 1 .36.447c.063.102.12.206.186.306a1.954 1.954 0 0 0 .161.28 1.86 1.86 0 0 0 .137.226 2.264 2.264 0 0 0 .178.31 4.151 4.151 0 0 0 .225.395c.093.152.175.311.27.463.02.057.044.115-.028.156a2.323 2.323 0 0 1-.715.012.254.254 0 0 1-.095-.048.958.958 0 0 1-.162-.25c-.088-.162-.195-.314-.281-.478-.103-.179-.198-.362-.314-.533-.3-.82-1.046-1.13-1.729-1.512a2.312 2.312 0 0 1-.356-.22C5.12.788 4.994.73 5.14.655A5.554 5.554 0 0 0 5.93.632Z" fill="#f5891f"/><path d="M.133 7.666C.057 7.594.13 7.446 0 7.401v-.31a.083.083 0 0 1 .06-.022c.734.404 1.451.84 2.183 1.249.08.045.18.078.21.183a.48.48 0 0 1-.233.415c-.476-.343-1.007-.595-1.505-.901a3.639 3.639 0 0 1-.582-.349Z" fill="#fadb34"/><path d="M2.433 8.506C1.829 8.152 1.222 7.802.62 7.442a2.78 2.78 0 0 1-.577-.352c-.034-.047-.013-.1-.02-.15C.02 6.901.035 6.86 0 6.825v-.22l.084-.056a.733.733 0 0 0 .333.323q1.02.586 2.042 1.167a.365.365 0 0 1 .175.16c-.004.143-.019.28-.2.307Z" fill="#fad733"/><path d="M6.147.682c-.059-.014-.132.023-.174-.05h3.54a.049.049 0 0 1-.017.069.256.256 0 0 1-.116.035c-.355.017-.71.008-1.065.007-.267-.004-.533.013-.799-.002A6.373 6.373 0 0 1 6.147.682Z" fill="#fce686"/><path d="M5.93.632c-.187.099-.386.021-.577.043-.087.01-.175.005-.263.007a.807.807 0 0 1-.6.02.05.05 0 0 1-.021-.07Z" fill="#f9ba7a"/><path d="m9.512.674.001-.042h.177c.02.073.105.038.14.086-.118.074-.233.12-.318-.044Z" fill="#fad231"/><path d="M4.469.632a.24.24 0 0 0 0 .044c-.071.154-.17.112-.275.04.027-.034.095-.021.098-.084Z" fill="#f6921e"/><path d="m.04 6.913.002.177H0v-.176q.019-.03.04-.001Z" fill="#fce991"/><path d="M.04 6.913 0 6.914v-.089c.042.017.044.05.04.088Z" fill="#fceea9"/><path d="M2.433 8.506a.53.53 0 0 0 .182-.307.417.417 0 0 1 .061-.16c.063-.132.153-.248.213-.382.041-.078.094-.15.135-.23.07-.097.1-.215.163-.316a1.152 1.152 0 0 0 .19-.298c.064-.101.112-.212.175-.314a3.135 3.135 0 0 0 .218-.355c.069-.097.108-.21.176-.308.051-.072.087-.154.137-.227.067-.098.107-.211.175-.309.08-.126.141-.262.222-.387a8.14 8.14 0 0 1 .177-.31 3.073 3.073 0 0 0 .178-.306c.042-.08.096-.154.137-.235.073-.088.08-.278.274-.177a1.595 1.595 0 0 1 .333.595 1.205 1.205 0 0 1-.23.538c-.176.274-.323.565-.49.845-.136.197-.229.419-.356.621-.125.206-.257.408-.362.626-.111.157-.179.338-.281.5a2.088 2.088 0 0 0-.396 1.424c.033 1.147.01 2.295.01 3.443a1.272 1.272 0 0 1-.013.264c-.03.14-.1.193-.233.101a2.708 2.708 0 0 1-.598-.72 11.627 11.627 0 0 1-.644-1.124 2.124 2.124 0 0 1 .094-1.95.267.267 0 0 1 .133-.142 1.506 1.506 0 0 0 .22-.4Z" fill="#f5881f"/><path d="M13.935 6.515a1.787 1.787 0 0 1 .005.936c-.082-.064-.034-.167-.076-.26a1.568 1.568 0 0 0-.422.216q-1.666.972-3.34 1.93c-.096.055-.172.138-.274.184a1.338 1.338 0 0 1-.543-.005.076.076 0 0 1-.044-.107 2.06 2.06 0 0 1 .432-.668 2.451 2.451 0 0 0 .743-.372c.54-.313 1.08-.63 1.623-.937.524-.297 1.044-.602 1.572-.892.097-.053.204-.182.324-.025Z" fill="#f7971d"/><path d="M9.26 9.48h.607a1.332 1.332 0 0 1 .653-.064c.212-.002.424-.006.636-.003a2.474 2.474 0 0 0 1.93-.564.231.231 0 0 1 .153-.079c.065.004.062.046.036.092a2.924 2.924 0 0 1-.308.527 1.944 1.944 0 0 1-.981.704c-.107.033-.211.076-.321.1-.12.01-.235.05-.355.055-.09-.003-.18.01-.27.003-.3-.004-.6 0-.899 0-.163-.002-.325-.002-.488-.001-.172 0-.345-.004-.517.002-.088-.01-.182.006-.252-.068a.895.895 0 0 1 .375-.704Z" fill="#f5881f"/><path d="M4.115 7.09a2.006 2.006 0 0 1 .354-.619c.138.077.113.214.114.334.005.663.002 1.326.002 1.988v4.153a.708.708 0 0 1-.049.368.06.06 0 0 1-.077.021 1.05 1.05 0 0 1-.488-.09.568.568 0 0 0 .118-.433q-.002-2.696-.001-5.392a1.092 1.092 0 0 1 .027-.33Z" fill="#f6921d"/><path d="M4.115 7.09a.459.459 0 0 1 .044.257q0 2.833.002 5.665c0 .14-.005.254-.19.233a.656.656 0 0 1-.344-.137 1.225 1.225 0 0 0 .065-.389c-.007-1.573.014-3.146-.014-4.718-.003-.187.142-.303.171-.468.093-.145.12-.329.266-.442Z" fill="#f68f1e"/><path d="M2.213 8.906a2.707 2.707 0 0 0-.357 1.383c.015.243.096.471.13.71L.9 9.151C.699 8.809.5 8.464.308 8.115a1.117 1.117 0 0 1-.175-.449 7.284 7.284 0 0 1 1.045.55c.292.15.57.326.856.488.084.048.172.088.179.202Z" fill="#fbde34"/><path d="M13.631 5.763a.873.873 0 0 1 .178.354 1.162 1.162 0 0 1-.343.233c-1.021.594-2.05 1.177-3.07 1.771a.856.856 0 0 1-.445.17.105.105 0 0 1-.003-.123 5.697 5.697 0 0 1 .464-.758c.978-.553 1.942-1.13 2.922-1.68.112-.062.213-.113.297.033Z" fill="#f89e1d"/><path d="M3.85 7.533a13.455 13.455 0 0 0-.083 2.632c-.026.889-.005 1.778-.008 2.667 0 .107.05.25-.132.276a1.065 1.065 0 0 1-.399-.266c.163.052.181-.038.18-.17-.003-.778.003-1.557-.002-2.336-.005-.639.02-1.277-.014-1.916a.86.86 0 0 1 .174-.445c.083-.153.188-.295.283-.442Z" fill="#f68d1e"/><path d="M13.631 5.763c-.084-.071-.154-.055-.252 0-.986.552-1.945 1.152-2.945 1.68-.079-.178.058-.338.038-.51a.308.308 0 0 1 .185-.277c.807-.45 1.604-.92 2.405-1.381.08-.046.16-.12.261-.044a2.804 2.804 0 0 1 .308.532Z" fill="#f9a21d"/><path d="M12.213 3.33a1.303 1.303 0 0 1 .26.443.59.59 0 0 1-.203.165c-.752.417-1.49.86-2.238 1.281a.679.679 0 0 1-.304.121.663.663 0 0 1-.287-.462.226.226 0 0 1 .14-.159c.81-.458 1.613-.93 2.423-1.39.066-.037.14-.1.21.002Z" fill="#fab21d"/><path d="m8.845 3.828-.043-.141c.019-.092.096-.125.165-.165q1.114-.653 2.237-1.288c.104-.059.213-.187.354-.056a2.024 2.024 0 0 1 .257.445c-.928.495-1.83 1.039-2.742 1.563-.179-.053-.213-.2-.228-.358Z" fill="#f9bd25"/><path d="M9.954 8.285c.697-.348 1.355-.763 2.031-1.148q.814-.463 1.624-.934a.473.473 0 0 1 .2-.086.897.897 0 0 1 .126.398c-.083-.062-.154-.014-.223.026L11.42 7.857c-.514.296-1.03.589-1.54.893a.28.28 0 0 1-.206.017.533.533 0 0 1 .28-.482Z" fill="#f89b1d"/><path d="M11.558 2.178c-.225-.042-.364.13-.53.223-.746.421-1.484.856-2.226 1.286a1.474 1.474 0 0 1-.264-.444 2.397 2.397 0 0 1 .748-.492c.563-.316 1.112-.658 1.685-.956.1-.053.198-.14.325-.062a1.8 1.8 0 0 1 .262.445Z" fill="#f9c027"/><path d="M9.73 5.332c.917-.515 1.81-1.07 2.743-1.559a2.595 2.595 0 0 1 .314.53.689.689 0 0 0-.431.131c-.69.41-1.392.799-2.083 1.206-.096.056-.18.128-.278.18a.572.572 0 0 1-.265-.488Z" fill="#faae1d"/><path d="M10.53 9.48h-.663c.003-.092.085-.12.143-.154.806-.468 1.615-.93 2.424-1.395.388-.223.776-.445 1.163-.67.337-.197.336-.199.343.19a.241.241 0 0 1-.043.181c-.104-.039-.184.018-.267.066q-1.311.753-2.62 1.511c-.159.092-.326.17-.48.27Z" fill="#f7941d"/><path d="M11.296 1.733a2.479 2.479 0 0 0-.785.378c-.58.31-1.141.654-1.714.977-.088.05-.144.153-.259.155a.993.993 0 0 1-.224-.396c.022-.1.11-.133.184-.178.739-.442 1.49-.863 2.234-1.295.076-.044.152-.1.244-.035a1.05 1.05 0 0 1 .32.394Z" fill="#fac52a"/><path d="M12.213 3.33c-.227-.001-.38.161-.557.261-.684.384-1.361.78-2.04 1.17-.058.033-.124.052-.149.123a.476.476 0 0 1-.254-.401c.019-.09.09-.128.16-.17.805-.469 1.627-.907 2.414-1.405.079-.05.147-.067.206.024a1.162 1.162 0 0 1 .22.399Z" fill="#f9b621"/><path d="M13.323 5.231a3.91 3.91 0 0 0-.886.472c-.585.323-1.159.664-1.74.993-.094.053-.183.097-.17.226-.16-.103-.12-.286-.174-.431-.001-.122.08-.18.174-.232.787-.441 1.562-.903 2.35-1.343.09-.05.182-.115.268.006a.996.996 0 0 1 .178.31Z" fill="#f9a61c"/><path d="M13.145 4.922a.17.17 0 0 0-.185.003c-.715.415-1.434.821-2.143 1.246-.148.088-.369.092-.423.31-.153-.05-.19-.181-.221-.317a.27.27 0 0 1 .167-.263c.798-.442 1.571-.928 2.373-1.363.066-.036.132-.071.204-.012a1.625 1.625 0 0 1 .228.396Z" fill="#faa81d"/><path d="M10.53 9.48c.15-.225.41-.29.624-.416.83-.495 1.672-.972 2.511-1.451.073-.042.171-.17.232.02-.065.176-.07.379-.225.517a2.155 2.155 0 0 0-.64.305c-.548.294-1.074.627-1.618.928a1.286 1.286 0 0 0-.22.097Z" fill="#f6921e"/><path d="M11.993 2.932a.143.143 0 0 0-.16.001c-.788.524-1.629.956-2.444 1.432-.057.034-.122.056-.146.126a.255.255 0 0 1-.178-.307c.11-.195.326-.24.498-.342.658-.393 1.326-.77 1.992-1.15.078-.045.153-.125.26-.07a.96.96 0 0 1 .178.31Z" fill="#f9b922"/><path d="m4.46 13.335.053-.013a.471.471 0 0 1 .311-.057c.16-.004.318-.005.477 0a3.66 3.66 0 0 1 .276 0 7.39 7.39 0 0 1 .434 0c.105-.003.21-.004.315 0 .118-.003.235-.004.353 0a5.54 5.54 0 0 1 .354 0c.118-.003.235-.004.353 0a5.59 5.59 0 0 1 .352 0c.104-.002.208-.003.312 0a4.9 4.9 0 0 1 .312 0 6.03 6.03 0 0 1 .355 0c.08-.006.16 0 .24-.003.193-.02.175-.167.175-.297.002-.705.001-1.41.001-2.113v-.309c.006-.342.042-.37.394-.31a.461.461 0 0 1 .057.298q.003 1.244 0 2.49a.476.476 0 0 1-.068.315.463.463 0 0 1-.238.028l-4.56.002a.515.515 0 0 1-.259-.03Z" fill="#f9b822"/><path d="M12.917 4.526a3.735 3.735 0 0 0-.832.425c-.544.3-1.077.618-1.612.933-.114.067-.269.107-.257.29a.33.33 0 0 1-.215-.37c.086-.183.28-.226.432-.317a83.54 83.54 0 0 1 1.926-1.117c.126-.07.258-.226.429-.066a.55.55 0 0 1 .129.222Z" fill="#faab1d"/><path d="M10.132 10.188h.93c-.06.162-.201.086-.31.107-.08.006-.16.002-.242 0-.255.032-.262.037-.263.3-.003.75 0 1.498-.002 2.247 0 .13.019.27-.11.362a.55.55 0 0 1-.312.084.313.313 0 0 1-.07-.247q-.005-1.28 0-2.561a.498.498 0 0 1 .035-.216c.094-.117.239-.007.344-.076Z" fill="#f9bd25"/><path d="M10.752 10.232c.103-.017.216.04.31-.044h.265a2.88 2.88 0 0 0-.065.87c-.01.434.025.867-.022 1.3a1.537 1.537 0 0 1-.53.54.658.658 0 0 1-.023-.303c-.01-.69-.004-1.38-.004-2.07a.405.405 0 0 1 .069-.293Z" fill="#fac62a"/><path d="M11.194 9.48a3.103 3.103 0 0 1 .727-.446c.523-.314 1.057-.608 1.589-.906.048-.027.128-.125.162.022a4.368 4.368 0 0 1-.397.712c-.014-.107-.057-.05-.096-.017a2.546 2.546 0 0 1-1.217.609 6.375 6.375 0 0 1-.768.026Z" fill="#f68e1e"/><path d="M10.135 13.204a.594.594 0 0 0 .042-.28c0-.78-.002-1.561 0-2.341.002-.399-.05-.346.354-.351a.38.38 0 0 1 .07.27c.011.78-.018 1.56.017 2.338a.262.262 0 0 1-.038.147 1.004 1.004 0 0 1-.445.217Z" fill="#f9c027"/><path d="M10.976 1.34a1.344 1.344 0 0 0-.52.263c-.718.409-1.429.828-2.142 1.244a.578.578 0 0 1-.178-.31 5.468 5.468 0 0 1 .95-.596c.459-.28.94-.52 1.394-.81.055-.034.11-.078.182-.056a.828.828 0 0 1 .314.264Z" fill="#fbc82b"/><path d="M9.823 10.232v3.056a.51.51 0 0 1-.307.048l-.003-3.104c.042-.034.091-.017.137-.022.058.007.12-.017.173.022Z" fill="#f9bb24"/><path d="M8.005 2.315c-.099-.062-.119-.175-.171-.267a6.259 6.259 0 0 1 .987-.613c.327-.196.664-.375.989-.573a.343.343 0 0 1 .33-.055.575.575 0 0 1 .304.134c-.026.106-.118.147-.197.195-.647.389-1.309.753-1.958 1.138-.085.05-.176.119-.284.04Z" fill="#facc2e"/><path d="M10.14.807c-.171-.021-.286.098-.416.173-.597.342-1.19.69-1.786 1.035a.49.49 0 0 1-.104.033l-.178-.31a7.646 7.646 0 0 1 .933-.571c.276-.167.562-.316.835-.486l.088-.007c.096.089.212.031.318.044a.55.55 0 0 1 .31.089Z" fill="#fbce30"/><path d="M11.24 12.357a.431.431 0 0 1-.046-.233c.001-.565.005-1.13-.003-1.695a.232.232 0 0 1 .136-.24l.354-.046c-.031.43-.016.861-.02 1.292a.858.858 0 0 1-.07.34 2.652 2.652 0 0 1-.351.582Z" fill="#fbca2b"/><path d="M8.005 2.315a1.897 1.897 0 0 0 .698-.354c.587-.328 1.176-.654 1.74-1.02a.438.438 0 0 1 .22.134c-.652.439-1.357.784-2.03 1.188a2.275 2.275 0 0 1-.497.273.32.32 0 0 1-.13-.221Z" fill="#fbcb2c"/><path d="M10.58 12.987a9.766 9.766 0 0 1-.047-1.584c-.01-.39-.002-.78-.002-1.171h.221c.005.835.008 1.67.018 2.506 0 .069-.055.102-.06.16a.207.207 0 0 1-.13.089Z" fill="#fac328"/><path d="M11.591 11.776c0-.46.003-.92 0-1.38a.267.267 0 0 1 .09-.253.868.868 0 0 1 .31-.09.209.209 0 0 1 .1.183 1.56 1.56 0 0 1-.056.746 4.83 4.83 0 0 1-.444.794Z" fill="#facc2e"/><path d="M12.035 10.982a4.171 4.171 0 0 0-.044-.928 3.388 3.388 0 0 0 .976-.665 16.803 16.803 0 0 1-.932 1.593Z" fill="#fbcf31"/><path d="M7.876 3.552c.07.058.088.147.133.221a1.025 1.025 0 0 1-.882-.068c-.517-.327-1.055-.619-1.585-.925q-1.13-.651-2.258-1.305c-.08-.047-.208-.082-.144-.227a1.132 1.132 0 0 1 .443-.31.596.596 0 0 0 .22.21c1.281.733 2.552 1.486 3.842 2.205a.61.61 0 0 1 .23.199Z" fill="#f7971d"/><path d="M2.697 1.777a.774.774 0 0 1 .223-.305 1.804 1.804 0 0 1 .485.254c1.041.606 2.09 1.199 3.13 1.806.094.056.22.101.185.257a1.362 1.362 0 0 1-1.012-.122c-.935-.573-1.893-1.107-2.845-1.652-.089-.05-.222-.081-.166-.238Z" fill="#f89e1d"/><path d="M2.697 1.777c.06.211.273.23.42.317.881.522 1.784 1.01 2.655 1.547.32.197.637.09.953.132.225-.11.379-.094.487.05a.276.276 0 0 1-.205.061c-.525-.001-1.05.018-1.574-.01a4.769 4.769 0 0 1-1.176-.597c-.508-.283-1.01-.577-1.516-.863-.107-.06-.229-.109-.277-.24a1.535 1.535 0 0 1 .233-.397Z" fill="#f9a31d"/><path d="M4.194.717c.093-.008.193.04.275-.04l.62.004a2.329 2.329 0 0 0 .658.43c.309.195.643.35.953.544.224.14.307.402.445.614.056.086.104.177.156.265-.128.066-.23-.018-.326-.072a115 115 0 0 1-2.177-1.256c-.164-.097-.337-.179-.495-.287C4.233.87 4.14.838 4.16.723a.028.028 0 0 1 .034-.006Z" fill="#f68e1e"/><path d="M4.513 4.924a1.65 1.65 0 0 1-.221.397q-1.26-.742-2.533-1.465c-.068-.039-.174-.055-.167-.173a2.115 2.115 0 0 1 .262-.45c.64.418 1.322.765 1.979 1.155.19.113.377.229.57.335.075.04.165.084.11.2Z" fill="#fab21d"/><path d="M7.212 3.816c-.155-.092-.325-.02-.486-.043a2.223 2.223 0 0 0-.742-.497C5 2.696 4.004 2.133 3.012 1.561a.525.525 0 0 1-.092-.089.606.606 0 0 1 .22-.224c0 .09.066.12.132.158 1.254.722 2.519 1.426 3.753 2.179a1.824 1.824 0 0 0 .984.188l.044.043a1.082 1.082 0 0 1-.84 0Z" fill="#f89b1d"/><path d="M3.805 6.161c-.074.12-.096.27-.22.357a3.402 3.402 0 0 1-.749-.41c-.589-.344-1.188-.67-1.77-1.027-.089-.055-.213-.099-.138-.249a.97.97 0 0 1 .178-.307c.595.32 1.167.679 1.759 1.004.27.15.529.32.802.462.067.035.16.06.138.17Z" fill="#f9c027"/><path d="M3.805 6.161a5.326 5.326 0 0 0-.785-.477c-.593-.353-1.196-.69-1.794-1.033a.28.28 0 0 1-.12-.126 1.363 1.363 0 0 1 .214-.369c.752.478 1.534.903 2.306 1.346.096.055.192.11.284.172.06.04.125.088.072.178a1.283 1.283 0 0 1-.177.31Z" fill="#f9bc25"/><path d="M2.922 7.67a1.241 1.241 0 0 1-.222.395c-.481-.336-1.008-.595-1.512-.891-.297-.175-.594-.35-.893-.52-.11-.061-.23-.122-.167-.286a.732.732 0 0 1 .13-.353c.535.366 1.112.66 1.67.984.293.17.584.343.879.508.06.034.14.064.115.162Z" fill="#fad231"/><path d="m7.876 3.552-1.814-1.04c-.783-.45-1.566-.899-2.346-1.353-.074-.043-.217-.071-.133-.221a.613.613 0 0 1 .31-.136c-.01.135.107.162.19.21.732.424 1.468.84 2.2 1.266.444.259.903.494 1.327.787a4.302 4.302 0 0 1 .266.487Z" fill="#f7941d"/><path d="M7.61 3.065a8.712 8.712 0 0 1-1.193-.648c-.765-.43-1.523-.873-2.284-1.311-.083-.048-.161-.101-.243-.15-.094-.054-.034-.103.003-.154a.473.473 0 0 1 .267-.08.663.663 0 0 0 .121.124q1.355.79 2.714 1.572a2.022 2.022 0 0 0 .306.116Z" fill="#f6921e"/><path d="M4.513 4.924c0-.103-.083-.127-.152-.166L1.963 3.384a.178.178 0 0 1-.109-.152.92.92 0 0 1 .178-.308q1.251.723 2.504 1.444c.09.052.212.097.155.246a.926.926 0 0 1-.178.31Z" fill="#faae1d"/><path d="M.928 4.832a.153.153 0 0 0 .09.16q.964.554 1.923 1.116a3.621 3.621 0 0 1 .645.41.85.85 0 0 1-.177.31 4.777 4.777 0 0 1-.813-.438c-.566-.329-1.142-.64-1.702-.978C.792 5.35.678 5.294.75 5.14a.971.971 0 0 1 .177-.308Z" fill="#fac52a"/><path d="M.75 5.14c-.01.102.045.155.131.204.8.455 1.598.915 2.398 1.373.05.029.106.05.13.11a.607.607 0 0 1-.18.307 10.19 10.19 0 0 1-1.2-.654Q1.344 6.095.67 5.694c-.063-.037-.164-.049-.146-.162A1.545 1.545 0 0 1 .75 5.14Z" fill="#fbc82b"/><path d="m1.592 3.683 1.587.927c.323.187.65.368.97.558.058.034.14.061.143.153a1.294 1.294 0 0 1-.177.31c-.488-.342-1.02-.608-1.53-.913q-.472-.283-.954-.549c-.092-.05-.227-.1-.17-.26a.579.579 0 0 1 .131-.226Z" fill="#f9b621"/><path d="M5 4.083a.418.418 0 0 1-.132.222 1.012 1.012 0 0 1-.453-.212c-.687-.396-1.377-.787-2.061-1.187-.08-.047-.204-.068-.192-.207a.976.976 0 0 1 .178-.308c.81.493 1.647.94 2.46 1.427.095.057.256.086.2.265Z" fill="#faa81d"/><path d="M.525 5.532c.432.255.862.514 1.297.765.443.256.89.505 1.334.759a.373.373 0 0 1 .073.078c-.06.103-.072.233-.175.313-.786-.46-1.577-.911-2.364-1.37a3.579 3.579 0 0 1-.225-.138C.4 5.895.35 5.842.395 5.755a.481.481 0 0 1 .13-.223Z" fill="#facc2e"/><path d="M5 4.083c-.09-.22-.318-.269-.492-.373-.669-.4-1.347-.783-2.022-1.171-.063-.036-.142-.055-.146-.148a.482.482 0 0 1 .124-.216l2.711 1.571c.058.034.136.005.179.07a.233.233 0 0 1-.142.089c-.17-.06-.116.149-.212.178Z" fill="#f9a61c"/><path d="M.395 5.755c.026.185.205.202.32.271.716.422 1.44.828 2.16 1.244.071.041.165.071.179.177a.458.458 0 0 1-.132.222 3.91 3.91 0 0 0-.743-.458C1.593 6.861.998 6.527.405 6.19.332 6.148.263 6.111.26 6.015a.506.506 0 0 1 .136-.26Z" fill="#fbce30"/><path d="M2.162 2.7a9.011 9.011 0 0 0 1.16.696c.511.31 1.03.606 1.546.909a.618.618 0 0 1-.177.31c-.008-.116-.097-.155-.181-.203L2.12 3.04a.138.138 0 0 1-.088-.117.497.497 0 0 1 .13-.225Z" fill="#faab1d"/><path d="M1.461 3.909c.031.173.189.215.31.282.54.292 1.065.606 1.59.923.186.113.381.212.573.316.085.046.174.086.18.2a.705.705 0 0 1-.132.222c0-.09-.069-.119-.133-.156q-1.17-.671-2.337-1.346c-.079-.046-.177-.081-.192-.194a.626.626 0 0 1 .141-.247Z" fill="#f9b923"/><path d="M.128 6.368c-.015.13.085.18.172.23q1.118.64 2.239 1.275c.079.045.154.089.16.192a.149.149 0 0 1-.084.134L.575 7.025a2.264 2.264 0 0 0-.307-.172.258.258 0 0 1-.184-.304.244.244 0 0 1 .044-.18Z" fill="#fbd532"/><path d="M9.425.68a.156.156 0 0 1-.099.134c-.496.284-.99.57-1.487.853a1.307 1.307 0 0 1-.183.07L7.3 1.297A5.838 5.838 0 0 1 8.317.68Z" fill="#fad231"/><path d="M8.317.68a4.717 4.717 0 0 1-1.017.616l-.265-.221c.078-.235.319-.27.487-.394Z" fill="#fad532"/><path d="M7.522.68c-.12.185-.355.225-.487.395a3.36 3.36 0 0 0-.888-.393L7.522.681Z" fill="#fad833"/><path d="M5.404 9.763c-.05.097-.097.197-.153.29-.049.081-.033.121.059.135a.402.402 0 0 1 .07.292q.003 1.276 0 2.553a.388.388 0 0 1-.07.291h-.487a.389.389 0 0 1-.071-.292q-.003-3.419-.002-6.838a.89.89 0 0 1 .073-.342 5.007 5.007 0 0 1 .486-.84c.143.037.11.16.113.253.01.36.002.72.004 1.081.006 1.075-.015 2.149.012 3.223a.509.509 0 0 1-.034.194Z" fill="#f7981d"/><path d="M4.823 5.852v7.472l-.31-.002v-6.55a.528.528 0 0 0-.044-.3 2.82 2.82 0 0 1 .354-.62Z" fill="#f7951d"/><path d="M5.404 9.763a2.352 2.352 0 0 1-.05-.678l-.002-3.822c0-.084.034-.179-.043-.251.058-.188.221-.332.227-.542a.54.54 0 0 1 .13.226 1.284 1.284 0 0 1 .025.394c0 1.312-.003 2.624.002 3.937a.861.861 0 0 1-.027.283 2.097 2.097 0 0 1-.262.453Z" fill="#f89b1d"/><path d="M9.646 10.232h-.133c-.31 0-.31 0-.31.304 0 .844-.007 1.688.005 2.532.003.215-.057.3-.27.257a.333.333 0 0 1-.07-.249c-.003-.861 0-1.722-.002-2.584 0-.177.044-.302.248-.304h.532q.022.015.014.03t-.014.014Z" fill="#f9b621"/><path d="M9.114 10.188c-.145.044-.182.139-.18.29.008.949.004 1.898.003 2.847h-.22a.39.39 0 0 1-.07-.292q-.004-1.255 0-2.51c0-.122-.018-.256.114-.335l.123-.055c.061.083.152.044.23.055Z" fill="#fab51f"/><path d="M9.646 10.232v-.044h.486c-.093.084-.206.027-.31.044Z" fill="#f9b822"/><path d="M5.575 10.188h.443a.402.402 0 0 1 .07.292q.003 1.276 0 2.553a.387.387 0 0 1-.07.291h-.443a.388.388 0 0 1-.07-.291q-.004-1.277-.001-2.553a.402.402 0 0 1 .071-.292Z" fill="#f89e1d"/><path d="M8.76 10.188a.49.49 0 0 0-.043.278v2.859h-.354a.389.389 0 0 1-.071-.292q-.003-1.277 0-2.553a.402.402 0 0 1 .07-.292Z" fill="#fab31d"/><path d="M7.035 10.188h.354a.402.402 0 0 1 .071.292q.003 1.276 0 2.553a.388.388 0 0 1-.07.291h-.355a.389.389 0 0 1-.07-.291q-.003-1.277 0-2.553a.402.402 0 0 1 .07-.292Z" fill="#faa81d"/><path d="M7.035 10.188v3.136h-.354a.387.387 0 0 1-.07-.291q-.003-1.277 0-2.553a.402.402 0 0 1 .07-.292Z" fill="#f9a61c"/><path d="M6.681 10.188v3.136h-.354a.388.388 0 0 1-.07-.291q-.003-1.277 0-2.553a.402.402 0 0 1 .07-.292Z" fill="#f9a31d"/><path d="M7.39 13.324v-3.136h.353a.402.402 0 0 1 .071.292q.003 1.276 0 2.553a.388.388 0 0 1-.071.291Z" fill="#faab1d"/><path d="M8.363 10.188v3.137h-.31a.39.39 0 0 1-.071-.292q-.003-1.277 0-2.553a.402.402 0 0 1 .07-.292Z" fill="#fab01e"/><path d="M6.327 10.188v3.136h-.31v-3.136Z" fill="#f8a01d"/><path d="M8.053 10.188v3.136h-.31v-3.136Z" fill="#faae1d"/><path d="M5.575 10.188v3.136H5.31v-3.136Z" fill="#f89a1d"/><path d="M5.666 9.31a1.205 1.205 0 0 1-.048-.368q.003-1.939 0-3.878a1.204 1.204 0 0 1 .048-.368 3.59 3.59 0 0 1 .355.614 1.747 1.747 0 0 1 .062.59c-.001.837.026 1.676-.015 2.514a1.15 1.15 0 0 1-.046.28 3.567 3.567 0 0 1-.356.616Z" fill="#f89e1d"/><path d="M6.022 8.695V5.31a3.494 3.494 0 0 1 .355.615 2.798 2.798 0 0 1 .017.68c-.004.492.03.984-.017 1.475a3.549 3.549 0 0 1-.355.615Z" fill="#f8a01d"/><path d="M6.377 8.08a1.627 1.627 0 0 1-.05-.584c-.001-.402.003-.804-.001-1.205a1.208 1.208 0 0 1 .051-.366 3.714 3.714 0 0 1 .384.662.968.968 0 0 1 0 .83 3.751 3.751 0 0 1-.384.663Z" fill="#f9a31e"/></svg>