<svg data-tags="benchmarking" xmlns="http://www.w3.org/2000/svg" viewBox="0 0 14 14"><rect width="14" height="14" rx="7" fill="#5e96d2"/><rect x="4.918" y="5.764" width=".858" height="2.704" rx=".143" fill="#fff"/><path d="M7.866 4.786a.143.143 0 0 0-.143.143v2.324c0 .078.048.1.108.049l.623-.418a.259.259 0 0 0 .126-.208V4.929a.143.143 0 0 0-.143-.143ZM7.178 6.886v-.001a.143.143 0 0 0-.143-.143h-.572a.143.143 0 0 0-.143.144v1.439a.143.143 0 0 0 .143.143h.573a.143.143 0 0 0 .142-.144Z" fill="#fff"/><path d="M4.18 4.028h5.147v2.65h.857v-3.26a.253.253 0 0 0-.25-.253h-6.36a.253.253 0 0 0-.252.253v6.398a.252.252 0 0 0 .252.253h3.28v-.862H4.18Z" fill="#fff"/><path d="M11.24 8.994h-.457a1.445 1.445 0 0 0-1.255-1.253v-.46a.083.083 0 0 0-.082-.083H9.19a.083.083 0 0 0-.082.082v.469A1.448 1.448 0 0 0 7.93 8.994h-.457a.082.082 0 0 0-.082.083v.26a.082.082 0 0 0 .083.082h.461a1.45 1.45 0 0 0 1.172 1.194v.469a.083.083 0 0 0 .082.083h.257a.083.083 0 0 0 .082-.082v-.461a1.446 1.446 0 0 0 1.25-1.203h.462a.083.083 0 0 0 .082-.083v-.26a.083.083 0 0 0-.082-.082ZM10 9.419h.38a1.053 1.053 0 0 1-.852.806v-.391a.083.083 0 0 0-.082-.083H9.19a.083.083 0 0 0-.082.083v.375a1.055 1.055 0 0 1-.774-.79h.381a.083.083 0 0 0 .082-.083v-.26a.083.083 0 0 0-.082-.082h-.39a1.055 1.055 0 0 1 .783-.84v.375a.082.082 0 0 0 .082.082h.257a.083.083 0 0 0 .082-.082v-.392a1.053 1.053 0 0 1 .862.857H10a.082.082 0 0 0-.083.082v.26a.082.082 0 0 0 .082.083Z" fill="#fff"/></svg>