<svg data-tags="benchmarking" xmlns="http://www.w3.org/2000/svg" viewBox="0 0 14 14"><rect x="2.793" y="4.548" width="1.501" height="4.732" rx=".25"/><path d="M7.951 2.837a.25.25 0 0 0-.25.25v4.067c0 .137.084.176.189.086l1.09-.731a.453.453 0 0 0 .221-.365V3.087a.25.25 0 0 0-.25-.25ZM6.747 6.512V6.51a.25.25 0 0 0-.25-.25H5.495a.25.25 0 0 0-.248.252V9.03a.25.25 0 0 0 .25.25h1.002a.25.25 0 0 0 .249-.251h-.001Z"/><path d="M1.502 1.51h9.007v4.638h1.5V.443A.442.442 0 0 0 11.57 0H.44A.442.442 0 0 0 0 .443V11.64a.441.441 0 0 0 .44.443h5.742v-1.51h-4.68Z"/><path d="M13.856 10.201h-.8a2.528 2.528 0 0 0-2.195-2.193v-.806a.145.145 0 0 0-.144-.144h-.45a.145.145 0 0 0-.144.144v.82a2.534 2.534 0 0 0-2.059 2.179h-.8a.144.144 0 0 0-.143.145v.454a.144.144 0 0 0 .144.145h.808a2.536 2.536 0 0 0 2.05 2.09v.82a.145.145 0 0 0 .144.145h.45a.145.145 0 0 0 .144-.144v-.806a2.53 2.53 0 0 0 2.187-2.105h.808A.145.145 0 0 0 14 10.8v-.455a.145.145 0 0 0-.144-.144Zm-2.171.744h.666a1.843 1.843 0 0 1-1.49 1.41v-.684a.145.145 0 0 0-.144-.145h-.45a.145.145 0 0 0-.144.145v.657a1.846 1.846 0 0 1-1.354-1.383h.667a.145.145 0 0 0 .144-.145v-.455a.145.145 0 0 0-.144-.144h-.684a1.846 1.846 0 0 1 1.371-1.47v.656a.144.144 0 0 0 .144.144h.45a.145.145 0 0 0 .144-.144v-.685a1.843 1.843 0 0 1 1.508 1.499h-.684a.144.144 0 0 0-.144.144v.455a.144.144 0 0 0 .144.145Z"/></svg>