<svg data-tags="bitly" xmlns="http://www.w3.org/2000/svg" viewBox="0 0 14 14"><path d="M8.165 13.971H7.003c-.063-.086-.165-.07-.25-.086a2.471 2.471 0 0 1-2.106-2.613c.071-1.834.045-3.671-.053-5.506-.006-.112.017-.25-.116-.304-.137-.056-.204.066-.284.148a.492.492 0 0 1-.59.128.487.487 0 0 1-.155-.601 1.478 1.478 0 0 1 1.718-.98A1.263 1.263 0 0 1 6.31 5.464c.052.727-.019 1.456-.001 2.183.002.079-.032.167.04.249a2.953 2.953 0 0 1 1.373-.6 2.457 2.457 0 0 1 2.895 1.772 3.858 3.858 0 0 1 .128 1.288 4.865 4.865 0 0 1-.22 1.235c.119-.013.163-.094.22-.15A6.328 6.328 0 0 0 12.01 9.59a5.52 5.52 0 0 0-1.384-6.654 5.69 5.69 0 0 0-7.844.577 5.148 5.148 0 0 0-1.399 4.532 6.119 6.119 0 0 0 1.964 3.498 1.007 1.007 0 0 1 .331.466.46.46 0 0 1-.434.619.809.809 0 0 1-.593-.217A7.071 7.071 0 0 1 .209 8.613a4.634 4.634 0 0 0-.179-.778V6.347c.075-.035.047-.107.054-.163a6.969 6.969 0 1 1 13.824 1.775 7.335 7.335 0 0 1-5.284 5.892 1.563 1.563 0 0 0-.459.12ZM6.232 10.97c-.015.965.224 1.303.955 1.405a1.415 1.415 0 0 0 1.585-.605 2.765 2.765 0 0 0 .26-2.197.9.9 0 0 0-.92-.677 1.613 1.613 0 0 0-1.2.465 2.158 2.158 0 0 0-.68 1.61Z"/></svg>