<svg data-tags="blog,website" xmlns="http://www.w3.org/2000/svg" viewBox="0 0 14 14"><circle fill="#40A3F5" cx="7" cy="7" r="7"/><g fill="#FFF"><path d="M4.089 5.981h1.8v1.807h-1.8zm2.668.011h3.166v.558H6.757zm0 1.27h3.166v.558H6.757zM4.076 9.113v-.558h5.848v.558"/><path d="M10.437 10.607H3.563a.77.77 0 01-.77-.77V4.163a.77.77 0 01.77-.77h6.874a.77.77 0 01.77.77v5.674a.77.77 0 01-.77.77zm.17-1.094v-4.35H3.393V9.52c0 .27.219.49.489.49h6.227a.496.496 0 00.496-.497zM8.033 4.326V4.23a.235.235 0 00-.235-.235H7.7a.235.235 0 00-.235.235v.097c0 .13.105.235.235.235h.098c.13 0 .235-.105.235-.235zm1.168 0V4.23a.235.235 0 00-.235-.235H8.87a.235.235 0 00-.234.235v.097c0 .13.105.235.234.235h.098c.13 0 .235-.105.235-.235zm1.169 0V4.23a.235.235 0 00-.235-.235h-.098a.235.235 0 00-.235.235v.097c0 .13.105.235.235.235h.098c.13 0 .235-.105.235-.235z"/></g></svg>