<svg data-tags="Blog Comments" version="1.1" id="blogCommentClrCir_Layer_1" xmlns="http://www.w3.org/2000/svg" x="0" y="0" viewBox="0 0 14 14" xml:space="preserve"><circle fill="#40a3f5" cx="7" cy="7" r="7"/><path d="M10.8 4.4c-.1 0-.2-.1-.3-.1h-7c-.1 0-.2 0-.3.1l-.1.1c-.1.1-.1.2-.1.3v4.5c0 .1 0 .2.1.3l.1.1c.1 0 .2.1.3.1h2.4c.1 0 .2 0 .3.1L9 11.7c.1 0 .1 0 .1-.1V9.9c0-.1.1-.1.1-.1h1.2c.1 0 .2 0 .3-.1l.1-.1c.2-.1.2-.2.2-.3V4.8c0-.1 0-.2-.1-.3l-.1-.1z" fill="#fff"/><path fill="#40a3f5" d="M4.7 5.8h1.4v1.4H4.7V5.8zm2.1 0h2.5v.4H6.8v-.4zm0 1h2.5v.4H6.8v-.4zM4.7 8.2v-.4h4.6v.4"/></svg>