<svg data-tags="bootroom" xmlns="http://www.w3.org/2000/svg" viewBox="0 0 14 14"><path d="M13.944 3.337a2.598 2.598 0 00-.13-.34 2.628 2.628 0 00-1.04-1.03 6.513 6.513 0 00-1.479-.636 11.996 11.996 0 00-.935-.244c-.33-.073-.662-.132-.995-.183-.319-.05-.642-.082-.962-.122a6.49 6.49 0 00-1.05-.06c-.126.004-.25 0-.434 0a9.26 9.26 0 00-1.03.03c-.17.032-.348.024-.52.044-.268.03-.533.068-.798.108-.25.04-.5.079-.75.13-.238.049-.473.108-.708.17a9.921 9.921 0 00-.677.202c-.213.074-.42.164-.627.252a4.263 4.263 0 00-.94.54 2.174 2.174 0 00-.768.959.892.892 0 00-.095.292 4.81 4.81 0 00.028.872 10.46 10.46 0 00.263 1.106 8.217 8.217 0 00.478 1.186c.172.347.35.692.55 1.023q.393.659.836 1.287.491.684 1.03 1.334.494.592 1.023 1.155c.21.225.44.433.665.643a6.51 6.51 0 001.28.972 1.748 1.748 0 00.544.225 1.144 1.144 0 00.616-.024 4.03 4.03 0 00.573-.266 7.685 7.685 0 001.306-1.06 18.751 18.751 0 001.655-1.821 28.47 28.47 0 001.077-1.438c.294-.421.561-.862.826-1.302a10.465 10.465 0 00.696-1.383c.08-.197.165-.394.23-.597.08-.244.143-.495.208-.744a1.753 1.753 0 00.094-.432 2.545 2.545 0 00-.04-.848zm-.708 1.246c-.065.275-.16.543-.25.81a8.291 8.291 0 01-.527 1.174 15.836 15.836 0 01-.924 1.53 19.797 19.797 0 01-1.27 1.693c-.31.368-.62.738-.95 1.09a10.352 10.352 0 01-1.527 1.387 2.439 2.439 0 01-.58.318.768.768 0 01-.6-.043 3.478 3.478 0 01-.878-.573c-.37-.324-.74-.651-1.08-1.005-.385-.398-.746-.82-1.102-1.245a17.287 17.287 0 01-1.572-2.2 13.892 13.892 0 01-.602-1.097 12.152 12.152 0 01-.468-1.133A5.383 5.383 0 01.633 3.98a1.3 1.3 0 01.493-1.17 3.84 3.84 0 011.073-.632q.34-.143.69-.255c.288-.09.582-.166.877-.232.324-.072.651-.14.98-.185.401-.056.805-.096 1.209-.13.334-.026.67-.033 1.005-.05a15.942 15.942 0 013.839.515c.225.058.443.144.663.218a4.664 4.664 0 011.038.497 2.067 2.067 0 01.681.657 1.053 1.053 0 01.156.648 5.248 5.248 0 01-.1.72z"/><path d="M5.434 1.865l-.003-.018a.779.779 0 00-.084.004c-.173.024-.346.046-.517.074-.319.052-.639.098-.955.165a7.188 7.188 0 00-.79.21 13.07 13.07 0 00-.937.356 2.913 2.913 0 00-.888.592.68.68 0 00-.2.323 1.59 1.59 0 00.01.69 8.265 8.265 0 00.215.858 7.731 7.731 0 00.548 1.3A14.137 14.137 0 002.71 7.9l.053.074a4.582 4.582 0 012.671-6.108zM12.275 2.904a4.638 4.638 0 00-1.12-.496c-.383-.113-.765-.234-1.153-.322-.405-.092-.816-.15-1.225-.22-.108-.018-.218-.022-.328-.032l-.007.023a4.577 4.577 0 012.695 6.08 1.75 1.75 0 00.152-.216c.282-.47.572-.933.84-1.41a6.44 6.44 0 00.51-1.13c.061-.186.123-.372.171-.562a5.491 5.491 0 00.104-.556.913.913 0 00-.056-.605 1.613 1.613 0 00-.583-.554zM6.916 10.696A4.616 4.616 0 014.05 9.674a.326.326 0 00.027.035c.31.342.612.694.934 1.024q.42.43.88.817c.26.218.543.409.822.605a.388.388 0 00.454.037q.268-.162.52-.348a8.51 8.51 0 001.044-.956q.426-.453.848-.911c.077-.083.145-.173.217-.26L9.784 9.7a4.497 4.497 0 01-2.868.995z"/><path d="M10.322 4.995c-.247.07-.495.143-.744.213-.278.079-.559.152-.838.232-.377.107-.753.217-1.13.323-.333.095-.669.187-1.003.28-.42.116-.84.239-1.263.346a1.084 1.084 0 01-.633-.013.6.6 0 01-.414-.51 1.294 1.294 0 01.128-.701l.085-.183a.06.06 0 00-.043.023c-.204.262-.422.516-.609.79a1.67 1.67 0 00-.327 1.003.69.69 0 00.31.574.958.958 0 00.61.143 2.804 2.804 0 00.981-.257c.444-.19.883-.392 1.324-.588l1.167-.516.993-.44c.296-.132.593-.265.89-.396l.971-.43h.001v-.014c-.009-.001-.019-.006-.026-.003z"/></svg>