<svg data-tags="bootroom" xmlns="http://www.w3.org/2000/svg" viewBox="0 0 14 14"><circle fill="#00000E" cx="7" cy="7" r="7"/><g fill="#FFF"><path d="M6.942 3.197c.131 0 .22.003.31 0 .251-.011.5.012.75.043.23.029.46.051.687.087.238.036.476.079.71.13.226.05.45.107.67.175.367.113.725.254 1.055.454.306.186.577.41.744.736.039.077.064.161.092.243.068.198.029.404.029.605 0 .103-.04.207-.067.309-.047.178-.092.357-.149.532-.047.144-.107.285-.165.426a7.378 7.378 0 01-.497.988c-.189.314-.38.63-.59.93-.244.35-.503.692-.77 1.027a13.09 13.09 0 01-1.181 1.3c-.29.28-.589.548-.933.758-.128.078-.27.133-.409.19-.142.058-.298.039-.44.017-.135-.021-.266-.093-.389-.161-.338-.186-.632-.433-.914-.694-.162-.15-.325-.299-.475-.46a17.398 17.398 0 01-1.467-1.778 14.436 14.436 0 01-.596-.919 9.665 9.665 0 01-.393-.73 5.872 5.872 0 01-.342-.847 7.501 7.501 0 01-.188-.79c-.041-.21-.016-.416-.02-.624 0-.069.042-.14.068-.208.108-.288.309-.502.548-.685a3.04 3.04 0 01.672-.386c.148-.062.296-.127.448-.18.159-.054.321-.1.484-.143.167-.045.336-.088.506-.122a16.384 16.384 0 011.105-.17c.123-.015.25-.009.37-.031.26-.049.52-.003.737-.022zm.03.433c-.24.011-.48.016-.719.035-.288.024-.577.052-.863.092a8.89 8.89 0 00-.7.133 5.872 5.872 0 00-1.119.348 2.742 2.742 0 00-.767.45c-.257.222-.385.493-.352.837.03.319.087.633.195.934.1.275.208.547.335.81.129.267.277.527.43.783.331.554.71 1.076 1.123 1.571.253.304.512.605.786.89.244.252.508.486.773.718.188.165.394.307.626.409.14.061.28.085.429.03.15-.055.285-.134.414-.226a7.431 7.431 0 001.09-.991c.235-.252.457-.516.68-.779.325-.385.624-.792.907-1.21a11.2 11.2 0 00.659-1.093c.142-.271.278-.546.377-.837.064-.192.132-.383.178-.579a3.56 3.56 0 00.072-.516.752.752 0 00-.111-.462c-.12-.2-.294-.345-.487-.47a3.332 3.332 0 00-.74-.354c-.158-.054-.314-.114-.474-.156a11.386 11.386 0 00-2.742-.367z"/><path d="M8.035 3.991c.078.008.157.01.234.023.292.05.586.092.875.157.278.063.55.15.824.23.281.084.55.2.8.355.165.102.318.222.416.395.078.137.061.286.04.432a3.941 3.941 0 01-.074.397c-.034.136-.08.269-.123.402-.094.281-.218.55-.363.808-.192.34-.399.671-.6 1.006a1.249 1.249 0 01-.109.154c.342-.867.352-1.733-.028-2.586-.38-.853-1.025-1.43-1.897-1.757l.005-.016zm-2.154.022c-.873.33-1.518.91-1.894 1.768-.376.859-.361 1.725-.013 2.595l-.038-.052c-.23-.34-.44-.692-.627-1.058a5.518 5.518 0 01-.391-.929 5.902 5.902 0 01-.154-.613 1.128 1.128 0 01-.007-.492.486.486 0 01.143-.231 2.06 2.06 0 01.634-.423c.22-.093.443-.179.67-.254.184-.062.374-.11.564-.15.226-.048.454-.08.682-.118.122-.02.246-.036.369-.053.02-.003.04-.002.06-.003l.002.013z"/><path d="M9.698 6.172l-.694.307-.636.284-.709.314-.833.368c-.316.14-.629.285-.946.42a1.994 1.994 0 01-.701.184c-.156.006-.305-.012-.436-.102a.493.493 0 01-.22-.41c-.01-.267.087-.504.233-.717.134-.195.289-.377.435-.564a.042.042 0 01.03-.017l-.06.132a.915.915 0 00-.092.5.428.428 0 00.296.364c.15.052.303.047.452.01.302-.077.602-.164.902-.248.24-.066.478-.131.717-.199.27-.076.537-.155.807-.231.199-.057.4-.11.599-.166l.531-.152.306-.089c.006-.001.013.002.02.003v.01zM4.893 9.591c.603.468 1.28.726 2.047.73a3.21 3.21 0 002.048-.71l.009.01c-.051.063-.1.127-.155.186-.2.218-.403.435-.606.651a6.112 6.112 0 01-.745.683 4.91 4.91 0 01-.371.249c-.113.07-.226.043-.325-.027-.2-.14-.402-.276-.587-.432a8.798 8.798 0 01-.628-.584c-.23-.236-.446-.486-.668-.73l-.019-.026z"/></g></svg>