<svg data-tags="bynder" xmlns="http://www.w3.org/2000/svg" viewBox="0 0 14 14"><path d="M0 5.652V4.487c.091-.038.073-.128.09-.198A3.277 3.277 0 0 1 1.548 2.26a3.379 3.379 0 0 1 4.388.687c.084.098.044.14-.022.205q-.521.517-1.039 1.037c-.26.259-.26.259-.515.014a1.355 1.355 0 0 0-1.909.012 1.339 1.339 0 0 0 .017 1.904c.35.353.71.695 1.051 1.056.133.141.205.114.327-.008q2.21-2.22 4.432-4.429a3.191 3.191 0 0 1 2.96-.941 3.164 3.164 0 0 1 2.582 2.255 3.15 3.15 0 0 1-.8 3.349c-1.216 1.243-2.464 2.455-3.681 3.697a3.454 3.454 0 0 1-1.853 1.133c-.01.001-.018.022-.026.034h-.98c-.013-.059-.066-.06-.109-.069a3.079 3.079 0 0 1-1.555-.93c-.108-.111-.105-.17.003-.273.33-.317.65-.644.975-.968.294-.293.294-.293.6-.003a.83.83 0 0 0 1.192.019q2-1.984 3.988-3.981a1.208 1.208 0 0 0 .338-1.028 1.276 1.276 0 0 0-.897-1.14 1.29 1.29 0 0 0-1.412.34Q6.753 7.08 3.901 9.925c-.213.213-.213.213-.433-.008-.833-.835-1.663-1.674-2.5-2.505a3.296 3.296 0 0 1-.876-1.563c-.018-.07.002-.16-.092-.196Z"/></svg>