<svg data-tags="carfax,brand" xmlns="http://www.w3.org/2000/svg" viewBox="0 0 14 14"><circle cx="7" cy="7" r="7" fill="#1c1c1a"/><path fill="#fff" fill-rule="evenodd" d="M9.77 3.368H4.23a.717.717 0 00-.723.707v5.846a.718.718 0 00.723.71h5.54a.718.718 0 00.723-.71V4.075a.717.717 0 00-.723-.707zm.413 6.553a.408.408 0 01-.413.4H4.23a.408.408 0 01-.413-.4V4.075a.407.407 0 01.413-.397h5.54a.407.407 0 01.413.397z"/><path fill="#fff" d="M4.125 3.965H9.9v6.034H4.125z"/><path fill="#1c1c1a" d="M7.146 9.1A1.836 1.836 0 015.31 7.02a1.848 1.848 0 011.84-2.08 1.532 1.532 0 011.66 1.186l-1.015.399c-.144-.376-.282-.613-.65-.613-.467 0-.669.468-.669 1.108 0 .618.196 1.109.68 1.109.351 0 .501-.19.72-.572l.944.503A1.734 1.734 0 017.146 9.1z"/></svg>