<svg data-tags="carfax,brand" xmlns="http://www.w3.org/2000/svg" viewBox="0 0 14 14"><path d="M12.34 0H1.66A1.382 1.382 0 00.269 1.362V12.63A1.383 1.383 0 001.661 14h10.678a1.383 1.383 0 001.393-1.37V1.362A1.382 1.382 0 0012.339 0zm.795 12.63a.786.786 0 01-.796.773H1.661a.786.786 0 01-.796-.773V1.362A.784.784 0 011.66.597h10.678a.784.784 0 01.796.765z"/><path d="M1.46 12.78h11.13V1.15H1.46zm5.832-9.75a2.953 2.953 0 013.197 2.285l-1.954.769c-.278-.725-.544-1.181-1.254-1.181-.9 0-1.289.902-1.289 2.135 0 1.192.378 2.138 1.311 2.138.677 0 .966-.368 1.388-1.103l1.82.97a3.342 3.342 0 01-3.23 2.006c-2.308 0-3.54-1.707-3.54-4.01 0-2.503 1.465-4.01 3.55-4.01z"/></svg>