<svg data-tags="cartesBancaires" xmlns="http://www.w3.org/2000/svg" viewBox="0 0 14 14"><defs><linearGradient id="brand_cartesBancairesSquare_clr__a" x1="17.683" y1="-20.127" x2="17.234" y2="-20.842" gradientTransform="matrix(20 0 0 -20 -342 -402.966)" gradientUnits="userSpaceOnUse"><stop offset="0" stop-color="#002253"/><stop offset=".543" stop-color="#0082b1"/><stop offset="1" stop-color="#0e9641"/></linearGradient></defs><path d="M0 0h14v14H0Z" fill-rule="evenodd" fill="url(#brand_cartesBancairesSquare_clr__a)"/><path d="M7.725 4.379v2.628h4.196a1.314 1.314 0 0 0 0-2.628H7.725Zm-.358 2.628a3.124 3.124 0 0 0-.37-1.374 2.609 2.609 0 0 0-1.032-1.031 3.183 3.183 0 0 0-1.551-.375h-.556a3.184 3.184 0 0 0-1.551.375 2.609 2.609 0 0 0-1.032 1.03A3.186 3.186 0 0 0 .9 7.186a3.185 3.185 0 0 0 .375 1.551 2.609 2.609 0 0 0 1.032 1.032 3.183 3.183 0 0 0 1.55.374h.556a3.184 3.184 0 0 0 1.552-.374 2.609 2.609 0 0 0 1.032-1.032 3.119 3.119 0 0 0 .37-1.375h-3.13v-.354Zm.358.354v2.63h4.196a1.314 1.314 0 1 0 0-2.63H7.725Z" fill="#fff" fill-rule="evenodd"/></svg>