<svg data-tags="case" xmlns="http://www.w3.org/2000/svg" viewBox="0 0 14 14"><path d="M11.861.001H2.028A2.028 2.028 0 0 0 0 2.03v9.94a2.028 2.028 0 0 0 2.026 2.031h9.943A2.028 2.028 0 0 0 14 11.975V2.032a2.122 2.122 0 0 0-2.137-2.03ZM7.16 10.795A4.145 4.145 0 0 1 4.38 9.727a4.213 4.213 0 0 1-1.068-2.672A3.396 3.396 0 0 1 4.38 4.383a3.871 3.871 0 0 1 5.45-.107.649.649 0 0 1 0 .855.649.649 0 0 1-.854 0 2.546 2.546 0 0 0-3.633.107 2.125 2.125 0 0 0-.749 1.71 2.344 2.344 0 0 0 .749 1.817 2.603 2.603 0 0 0 3.42.107.675.675 0 0 1 .961.106.558.558 0 0 1-.106.855 3.569 3.569 0 0 1-2.459.963Z"/></svg>