<svg data-tags="case" xmlns="http://www.w3.org/2000/svg" viewBox="0 0 14 14"><rect x=".001" y=".003" width="13.997" height="13.997" rx="6.999" fill="#5e96d2"/><path d="M9.778 3.001H4.159A1.16 1.16 0 0 0 3 4.161v5.68A1.16 1.16 0 0 0 4.158 11H9.84A1.16 1.16 0 0 0 11 9.844V4.162a1.213 1.213 0 0 0-1.221-1.16ZM7.091 9.17a2.369 2.369 0 0 1-1.588-.61 2.408 2.408 0 0 1-.61-1.527 1.94 1.94 0 0 1 .61-1.527 2.212 2.212 0 0 1 3.115-.061.345.345 0 0 1-.489.489 1.455 1.455 0 0 0-2.076.06 1.214 1.214 0 0 0-.428.978 1.34 1.34 0 0 0 .428 1.038 1.488 1.488 0 0 0 1.954.061.386.386 0 0 1 .55.061.319.319 0 0 1-.061.489 2.04 2.04 0 0 1-1.405.55Z" fill="#fff"/></svg>