<svg data-tags="case" xmlns="http://www.w3.org/2000/svg" viewBox="0 0 14 14"><rect width="14" height="14" rx="7" fill="#5e96d2"/><path d="M7.045 2.5A4.5 4.5 0 1 0 11.5 7.045 4.5 4.5 0 0 0 7.045 2.5Zm.333 7.246a3.022 3.022 0 0 1-2.122-.733A2.592 2.592 0 0 1 4.454 7a2.601 2.601 0 0 1 .807-1.99 2.874 2.874 0 0 1 2.047-.756 3.982 3.982 0 0 1 1.304.193l-.077.933a2.718 2.718 0 0 0-1.142-.247 1.763 1.763 0 0 0-1.3.478 1.828 1.828 0 0 0-.481 1.358 1.834 1.834 0 0 0 .509 1.373 1.758 1.758 0 0 0 1.287.501 3.317 3.317 0 0 0 1.188-.208l.039.934a3.895 3.895 0 0 1-1.257.177Z" fill="#fff"/></svg>