<svg data-tags="agnostic,channel agnostic" xmlns="http://www.w3.org/2000/svg" viewBox="0 0 14 14"><g fill="#40A3F5"><path d="M4.31 9.155a.61.61 0 01-.064.016.314.314 0 00-.25.375c.03.15.162.257.314.256.182 0 .32-.137.32-.319a.313.313 0 00-.256-.312.449.449 0 01-.064-.016zm2.119-4.957h1.144v.579H6.429zM7 9.156a.615.615 0 01-.063.015.314.314 0 00-.25.375c.03.15.161.257.314.256a.312.312 0 00.319-.319.312.312 0 00-.255-.312.614.614 0 01-.064-.015z"/><path d="M7 0a7 7 0 100 14A7 7 0 007 0zm3.634 9.494a.936.936 0 01-.942.93.94.94 0 01-.18-1.865V7.34h-2.33v1.22a.934.934 0 01.76.924v.011a.936.936 0 01-.941.93.94.94 0 01-.928-.779.938.938 0 01.747-1.086V7.34H4.49v1.22a.934.934 0 01.762.935.936.936 0 01-.942.93.94.94 0 01-.18-1.865V6.978h2.69V5.399h-.868a.146.146 0 01-.146-.146v-1.53c0-.082.065-.147.147-.148h2.095c.081 0 .147.067.147.15v1.524a.15.15 0 01-.151.15h-.862v1.58h2.69v1.58a.934.934 0 01.762.924v.011z"/><path d="M9.756 9.171a.646.646 0 01-.064-.015.604.604 0 01-.064.015.314.314 0 00-.25.375c.03.15.161.257.314.256a.312.312 0 00.319-.319.312.312 0 00-.255-.312z"/></g></svg>