<svg data-tags="channel, ct" xmlns="http://www.w3.org/2000/svg" viewBox="0 0 14 14"><path fill="#2d1413" d="M11.99 10.61a5.4 5.4 0 01-4.24 2.64 5.78 5.78 0 01-6.03-5.4c-.56-4.38 3.1-7.99 7-6.99a4.35 4.35 0 001.05.01c0-.16-.07-.2-.15-.23-.15-.06-.3-.12-.47-.16a6.06 6.06 0 00-4.71.41 5.94 5.94 0 01-3.33.8c-.28-.02-.83.55-1.11.7h2.1C-.67 6.98.14 11.1 4.16 13.1c3.3 1.65 7.97.33 9.19-2.62l-1.02-.39-.34.53z"/><path fill="#2d1413" d="M12.91 1.68c-2.2-.04-4.4-.04-6.61 0a4.4 4.4 0 00-1.24.41l.06.18 1.29.08v8.91c0 1.26.05 1.3 1.5 1.13V2.33H14c-.27-.14-.82-.65-1.09-.65z"/><path fill="#2d1413" d="M13.27 3.92c-.38-1.12-1.2-.7-2.03-.77l.94 1.4 1.1-.63z"/></svg>
