<svg data-tags="chinaUnionPay" xmlns="http://www.w3.org/2000/svg" viewBox="0 0 14 14"><path d="M0 0h14v14H0Z" fill="#fff" fill-rule="evenodd"/><path d="M3.536 3.063H6.37a.6.6 0 0 1 .55.796L5.6 10.134a.991.991 0 0 1-.885.796H1.88a.6.6 0 0 1-.55-.796l1.32-6.275a.989.989 0 0 1 .885-.796" fill="#dd2423"/><path d="M6.134 3.063h3.26c.395 0 .216.356.123.796l-1.32 6.275c-.091.438-.063.796-.459.796h-3.26a.599.599 0 0 1-.547-.796L5.25 3.859a.99.99 0 0 1 .885-.796" fill="#16315e"/><path d="M9.264 3.063h2.834a.6.6 0 0 1 .549.796l-1.32 6.275a.992.992 0 0 1-.885.796H7.61a.599.599 0 0 1-.549-.796l1.32-6.275a.988.988 0 0 1 .884-.796" fill="#036862"/><path d="M4.276 5.073a2.774 2.774 0 0 1-.405-.007l-.208 1.062a.772.772 0 0 1-.177.441.298.298 0 0 1-.21.081.2.2 0 0 1-.217-.206l-.002-.046.04-.274s.206-.916.242-1.037l.004-.014a2.723 2.723 0 0 1-.478-.007l-.013.067-.21 1.032-.019.088-.035.286a.455.455 0 0 0 .045.213c.097.185.37.213.525.213a.94.94 0 0 0 .514-.133A.856.856 0 0 0 4 6.265l.024-.103s.212-.95.248-1.075ZM5 5.841a.516.516 0 0 0-.23.06c-.03.017-.059.036-.09.056l.028-.11-.015-.018c-.178.04-.219.045-.383.071l-.014.01a5.967 5.967 0 0 1-.107.653l-.083.384.007.016q.184-.013.367-.008l.012-.014c.02-.106.021-.13.063-.345.02-.101.06-.325.08-.404a.255.255 0 0 1 .107-.038c.082 0 .072.08.069.111q-.024.19-.064.377l-.02.096-.045.21.006.015a3.526 3.526 0 0 1 .36-.008l.016-.014c.026-.165.033-.21.079-.45l.023-.11a.819.819 0 0 0 .033-.416.191.191 0 0 0-.2-.124Zm.808.226a6.887 6.887 0 0 1-.396.071l-.008.008-.006.005c-.008.07-.015.131-.027.203-.01.075-.025.159-.05.28a1.19 1.19 0 0 1-.04.157 1.439 1.439 0 0 0-.045.156l.005.008.005.008c.08-.005.131-.008.185-.008.054-.002.11 0 .196 0l.007-.007.008-.007c.013-.082.014-.104.022-.144l.053-.262.047-.225.05-.225-.003-.01Zm.002-.305a.298.298 0 0 0-.317.037c-.095.07-.106.172-.025.225a.297.297 0 0 0 .315-.038c.094-.072.106-.172.027-.224Zm.486 1.217a.573.573 0 0 0 .455-.197.946.946 0 0 0 .156-.37.516.516 0 0 0-.038-.426.398.398 0 0 0-.341-.138.587.587 0 0 0-.429.164.813.813 0 0 0-.19.41c-.03.149-.066.416.156.515a.59.59 0 0 0 .23.042Zm-.013-.546c.038-.184.082-.338.195-.338.088 0 .095.115.056.3a.881.881 0 0 1-.083.257.137.137 0 0 1-.107.077c-.012 0-.083 0-.084-.116a.871.871 0 0 1 .023-.18Zm1.03.522.013-.014c.018-.105.021-.13.061-.345.02-.101.061-.325.08-.404a.254.254 0 0 1 .109-.038c.082 0 .071.08.068.111q-.023.19-.064.377l-.02.096-.045.21.006.015a3.554 3.554 0 0 1 .36-.008l.017-.014c.025-.165.032-.21.078-.45L8 6.381a.827.827 0 0 0 .034-.416.193.193 0 0 0-.2-.124.512.512 0 0 0-.23.06 1.53 1.53 0 0 0-.088.056l.025-.11-.014-.018c-.178.04-.218.045-.383.071l-.013.01a5.989 5.989 0 0 1-.107.654l-.083.383.008.016a3.652 3.652 0 0 1 .366-.008Zm1.228.007.073-.392s.053-.248.057-.256a.13.13 0 0 1 .033-.036h.025a1.05 1.05 0 0 0 .699-.168.84.84 0 0 0 .278-.49.829.829 0 0 0 .019-.17.387.387 0 0 0-.056-.218c-.104-.163-.313-.166-.554-.167l-.118.001a4.846 4.846 0 0 1-.483-.004l-.012.07-.11.567-.277 1.262c.269-.004.38-.004.426.001Zm.204-1.006.117-.563.004-.03.001-.021.047.005.248.023c.095.041.135.147.107.285a.408.408 0 0 1-.193.282.552.552 0 0 1-.272.048H8.74Zm.73.487c-.03.147-.066.414.155.51a.395.395 0 0 0 .198.04.312.312 0 0 0 .189-.097L10 6.963l.01.015c.159-.008.208-.008.38-.006l.016-.014c.025-.163.049-.322.114-.636l.096-.448-.005-.016c-.178.036-.225.044-.396.071l-.013.012-.005.044a.252.252 0 0 0-.125-.113.449.449 0 0 0-.408.164.802.802 0 0 0-.19.407Zm.374.01c.038-.181.082-.334.196-.334.07 0 .109.073.101.199l-.02.1-.036.16a.406.406 0 0 1-.042.094.189.189 0 0 1-.138.074c-.012 0-.082 0-.084-.114a.84.84 0 0 1 .023-.18Zm1.95-.597-.014-.017c-.175.04-.207.046-.369.07l-.012.013-.001.009-.001-.003c-.12.307-.117.24-.215.483l-.001-.03-.025-.525-.015-.017a3.603 3.603 0 0 1-.359.07l-.013.013a.14.14 0 0 0-.003.021l.001.003c.022.12.016.093.038.283l.033.28c.017.154.026.23.046.465-.115.21-.142.29-.252.474v.002l-.078.136a.063.063 0 0 1-.028.029.107.107 0 0 1-.05.008h-.044l-.064.236.22.004a.268.268 0 0 0 .254-.157l.139-.263h-.003l.015-.019c.093-.222.801-1.568.801-1.568ZM9.476 8.962h-.093l.345-1.267h.115l.036-.13.004.145c-.005.09.06.169.226.156h.194l.067-.244h-.073c-.042 0-.062-.012-.06-.037l-.003-.148h-.358v.001a4.552 4.552 0 0 0-.532.033.607.607 0 0 0-.174.096l.035-.13H8.87l-.07.258-.35 1.286h-.068l-.066.242h.667l-.022.08h.328l.022-.08h.092Zm-.274-1.01a1.414 1.414 0 0 0-.153.067l.088-.324h.267l-.065.236a.756.756 0 0 0-.137.022Zm.005.463s-.083.012-.139.025a1.294 1.294 0 0 0-.156.076l.092-.337h.268Zm-.149.55h-.267l.077-.285h.267Zm.643-.786h.385l-.055.199h-.39l-.059.217h.341l-.258.403a.11.11 0 0 1-.052.048.143.143 0 0 1-.07.022H9.45l-.066.238h.248a.295.295 0 0 0 .261-.15l.178-.27.038.274a.127.127 0 0 0 .063.093.218.218 0 0 0 .087.04c.039.003.067.004.085.004h.122l.073-.266h-.048a.183.183 0 0 1-.083-.015.16.16 0 0 1-.012-.057l-.039-.273h-.158l.07-.092h.389l.06-.216h-.36l.055-.199h.36l.066-.245H9.767Zm-3.252.84.09-.33h.37l.067-.247h-.37l.057-.203h.361L7.091 8h-.904l-.066.239h.206l-.055.203h-.206l-.068.25h.205l-.12.44a.111.111 0 0 0 .023.106.1.1 0 0 0 .066.054.375.375 0 0 0 .095.014h.416l.075-.273-.185.028c-.036 0-.134-.004-.124-.041Zm.043-1.585-.094.188a.215.215 0 0 1-.054.078.167.167 0 0 1-.084.014h-.049l-.065.24h.162a.34.34 0 0 0 .167-.048c.03-.018.039-.008.062-.033l.055-.053h.506l.068-.25h-.371l.065-.136Zm.748 1.59c-.009-.013-.003-.037.01-.088l.139-.508h.492c.072 0 .123-.001.158-.004a.3.3 0 0 0 .118-.045.233.233 0 0 0 .086-.087.81.81 0 0 0 .085-.214l.174-.642-.511.003a1.48 1.48 0 0 0-.227.055.913.913 0 0 0-.17.12l.046-.176h-.315L6.883 9.06a1.094 1.094 0 0 0-.029.136c0 .03.034.06.056.082a.186.186 0 0 0 .104.021c.039.004.095.006.172.006h.243l.075-.279-.218.023a.056.056 0 0 1-.047-.025Zm.238-.938h.517l-.033.114a.414.414 0 0 0-.068.001h-.448Zm.103-.383h.522l-.037.137s-.246-.002-.286.006a.564.564 0 0 0-.274.135Zm.393.88a.062.062 0 0 1-.02.034.094.094 0 0 1-.053.01h-.075l.005-.138h-.306l-.013.68c0 .048.004.077.036.1a.568.568 0 0 0 .267.031h.192l.07-.254-.168.01-.055.004a.064.064 0 0 1-.024-.016c-.007-.008-.018-.003-.017-.052l.002-.174.175-.008a.215.215 0 0 0 .226-.183l.03-.154h-.242Z" fill="#fefefe"/></svg>