<svg data-tags="clarabridge" xmlns="http://www.w3.org/2000/svg" viewBox="0 0 14 14"><circle cx="7" cy="7" r="7" fill="#4ac1cb"/><path d="M10.82 6.609H9.745l.376.368h.592c.191.003.16.158.16.158v.683c.002.11-.053.053-.053.053L8.831 5.768a.316.316 0 0 0-.322-.158H5.392a.294.294 0 0 0-.323.158l-1.88 2.05c-.069.081-.108 0-.108 0v-.682a.146.146 0 0 1 .16-.158h.592l.323-.368H3.134a.356.356 0 0 0-.376.42s-.018 1.072 0 1.104a.382.382 0 0 0 .591.158l2.043-2.26h3.17l2.043 2.26a.396.396 0 0 0 .645-.21V7.03a.407.407 0 0 0-.43-.42Z" fill="#fff" fill-rule="evenodd"/><path d="m5.016 6.609-.323.368h4.568l-.322-.368Z" fill="#fff" fill-rule="evenodd"/></svg>