<svg data-tags="clarabridge" xmlns="http://www.w3.org/2000/svg" viewBox="0 0 14 14"><path d="M.013 8.944a.616.616 0 0 0 .974.27l3.364-3.876h5.223s3.36 3.874 3.364 3.876A.647.647 0 0 0 14 8.854V7.051a.678.678 0 0 0-.708-.72h-1.77l.62.63h.974c.316.005.266.27.266.27v1.172c.003.19-.089.09-.089.09l-3.275-3.606a.51.51 0 0 0-.53-.27H4.35a.482.482 0 0 0-.53.27L.721 8.403c-.112.14-.177 0-.177 0V7.231a.243.243 0 0 1 .265-.27h.974l.531-.63H.633a.607.607 0 0 0-.62.72s-.03 1.837 0 1.893Z" fill="#1cd2d6" fill-rule="evenodd"/><path d="m3.731 6.33-.53.631h7.523l-.53-.63Z" fill="#1cd2d6" fill-rule="evenodd"/></svg>