<svg data-tags="club house" xmlns="http://www.w3.org/2000/svg" viewBox="0 0 14 14"><path fill="#eae8e1" d="M0 0h14v14H0z"/><path d="M4.502 6.185a10.985 10.985 0 0 0 .477 1.27 10.8 10.8 0 0 0 .792 1.577 4.858 4.858 0 0 0 1.36 1.63 2.892 2.892 0 0 0 1.558.457 2.739 2.739 0 0 0 1.83-.721 3.27 3.27 0 0 0 .94-2.557 2.943 2.943 0 0 1 .38-1.263.285.285 0 0 1 .02-.051 1.297 1.297 0 0 0 .141-.51.777.777 0 0 0-.129-.424.714.714 0 0 0-.631-.329 1.265 1.265 0 0 0-1.114.773l-.065.129a7.436 7.436 0 0 1-.219-.342 4.762 4.762 0 0 1-.412-.876 6.627 6.627 0 0 1-.187-.721c-.122-.696-.315-.921-.644-1.005a.936.936 0 0 0-.728.123.71.71 0 0 0-.702-.464.81.81 0 0 0-.863.799c0 .064.006.128.013.206a.874.874 0 0 0-.187-.02.804.804 0 0 0-.85.799 1.388 1.388 0 0 0 .051.367.84.84 0 0 0-.747.29.94.94 0 0 0-.084.863Z" fill="#1f1f1a"/><path d="M4.908 6.056a.509.509 0 0 1 .02-.463.424.424 0 0 1 .309-.142c.219-.007.302.148.431.554a7.206 7.206 0 0 0 .329.83c.122.252.29.58.367.696.064.097.122.13.187.13a.178.178 0 0 0 .2-.181.712.712 0 0 0-.097-.232c-.065-.122-.2-.36-.29-.567a12.699 12.699 0 0 1-.303-.766c-.058-.149-.122-.361-.187-.574a2.688 2.688 0 0 1-.148-.676.377.377 0 0 1 .425-.374c.187 0 .303.09.38.426a7.505 7.505 0 0 0 .342 1.191c.103.258.264.593.354.767a1.027 1.027 0 0 1 .122.219c0 .051-.09.129-.167.232a.236.236 0 0 0-.07.154.243.243 0 0 0 .07.142c.045.058.084.116.135.116a.084.084 0 0 0 .077-.045 2.392 2.392 0 0 1 .735-.625 3.23 3.23 0 0 1 .92-.335c.13-.026.162-.058.162-.129a.144.144 0 0 0-.148-.142 1.327 1.327 0 0 0-.22.007c-.07.006-.109-.026-.147-.122a6.596 6.596 0 0 1-.522-1.302 5.188 5.188 0 0 1-.155-.85.268.268 0 0 1 .084-.283.486.486 0 0 1 .412-.084c.161.045.251.167.335.67a7.044 7.044 0 0 0 .2.786 4.825 4.825 0 0 0 .444.96 6.624 6.624 0 0 0 .406.605c-.026.084-.077.142-.238.277a1.83 1.83 0 0 0-.477.541 1.27 1.27 0 0 0-.154.548c0 .135.025.16.116.16.148 0 .27-.025.277-.09a1.207 1.207 0 0 1 .219-.612 3.65 3.65 0 0 1 .354-.347.937.937 0 0 0 .38-.554 1.984 1.984 0 0 1 .135-.342.879.879 0 0 1 .754-.528.3.3 0 0 1 .283.135.364.364 0 0 1 .052.194.981.981 0 0 1-.136.386 3.392 3.392 0 0 0-.412 1.43 2.842 2.842 0 0 1-.811 2.248 2.274 2.274 0 0 1-1.54.612 2.44 2.44 0 0 1-1.327-.393 4.359 4.359 0 0 1-1.23-1.494 10.422 10.422 0 0 1-.767-1.527 11.383 11.383 0 0 1-.47-1.237Z" fill="#f7e16a"/><path d="M6.731 3.68a.403.403 0 0 1 .45-.374c.22 0 .297.103.355.335a3.107 3.107 0 0 1 .09.554c.026.2.13.65.155.766a10.283 10.283 0 0 0 .573 1.405 4.031 4.031 0 0 0-.483.206c-.167.09-.206.09-.277-.045a6.02 6.02 0 0 1-.348-.722 5.472 5.472 0 0 1-.219-.689 5.728 5.728 0 0 0-.206-.78 4.433 4.433 0 0 1-.09-.656Z" fill="#fae36b"/><path d="M4.193 8.427c-.148.09-.947.509-1.127.573-.129.045-.27.039-.348-.206-.103-.296.039-.374.245-.451.18-.07.915-.335 1.088-.38.123-.032.207.006.265.155.058.16.012.225-.123.309M3.536 6.74a21.964 21.964 0 0 1-1.307-.052c-.174-.02-.245-.097-.226-.348.02-.277.129-.29.303-.277.2.02 1.134.167 1.282.219.154.045.174.116.154.251-.026.167-.103.2-.206.206M3.646 4.942a9.428 9.428 0 0 1-1.16-.631c-.174-.103-.193-.193-.077-.419.103-.2.225-.232.4-.142.199.103.914.657 1.05.767.128.103.115.16.044.296-.07.129-.135.168-.257.129" fill="#1f1f1a"/></svg>