<svg data-tags="commerce,shopping" xmlns="http://www.w3.org/2000/svg" viewBox="0 0 14 14"><path fill="#5aa1ed" d="M0 0h14v14H0z"/><path d="M4.286 3.22a.129.129 0 0 1 .13.11l.198 1.411h5.369l-.282 2.441h-.006l-.064.5-4.397.522a.13.13 0 0 0-.115.143v.002l.118.836a.131.131 0 0 0 .13.112h4.111v.536H4.883a.131.131 0 0 1-.13-.112l-.82-5.854a.131.131 0 0 0-.131-.112h-.808V3.22Z" fill="#fff"/><ellipse cx="8.698" cy="10.938" rx=".557" ry=".544" fill="#fff"/><ellipse cx="5.356" cy="10.938" rx=".557" ry=".544" fill="#fff"/></svg>