<svg data-tags="brand" xmlns="http://www.w3.org/2000/svg" viewBox="0 0 14 14"><path fill="#40a3f5" d="M7 0a7 7 0 100 14A7 7 0 007 0zm1.07 3.045a1.142 1.142 0 011.594 0 1.13 1.13 0 01-.797 1.925c-.3 0-.583-.117-.796-.329a1.118 1.118 0 01-.33-.798 1.118 1.118 0 01.329-.798zM4.476 4.11c.458-.456 1.26-.456 1.716 0a1.218 1.218 0 010 1.717c-.23.229-.535.355-.858.355s-.628-.126-.857-.354c-.23-.23-.357-.535-.357-.86s.127-.628.356-.858zm3.41 6.79a.38.38 0 01-.38.379H3.161a.38.38 0 01-.38-.38V9.216a2.533 2.533 0 012.53-2.53h.044a2.534 2.534 0 012.531 2.53V10.9zm3.333-1.592a.372.372 0 01-.371.372c-.157 0-1.731.04-2.225.053a.145.145 0 01-.152-.152c.01-.352.036-1.152-.281-1.763-.194-.375-.905-1.082-.975-1.152a.37.37 0 01.001-.527 2.304 2.304 0 011.642-.68 2.361 2.361 0 012.361 2.362v1.487z"/><path fill="#fff" d="M5.334 6.182c.323 0 .628-.126.858-.355a1.218 1.218 0 000-1.717c-.456-.456-1.258-.456-1.716 0-.23.23-.356.535-.356.859s.127.629.357.859c.23.228.534.354.857.354zM8.867 4.97a1.13 1.13 0 00.797-1.925 1.142 1.142 0 00-1.594 0c-.213.214-.33.497-.33.798a1.127 1.127 0 001.127 1.128zM5.355 6.686H5.31a2.533 2.533 0 00-2.53 2.53V10.9c0 .21.17.38.38.38h4.345c.21 0 .38-.17.38-.38V9.216a2.534 2.534 0 00-2.531-2.53zM8.858 5.46c-.621 0-1.204.24-1.642.68a.371.371 0 000 .526c.07.07.78.777.974 1.152.317.61.291 1.41.281 1.763a.145.145 0 00.152.152c.494-.014 2.068-.053 2.225-.053a.372.372 0 00.371-.372V7.821a2.361 2.361 0 00-2.361-2.362z"/></svg>