<svg data-tags="nike connect" xmlns="http://www.w3.org/2000/svg" viewBox="0 0 14 14"><path d="M6.993.09a6.91 6.91 0 01.032 13.82H6.98A6.91 6.91 0 016.993.092zm.002.711a6.199 6.199 0 106.174 6.196A6.194 6.194 0 006.995.801z"/><path d="M4.073 5.782c-.053.178-.122.354-.16.534a.75.75 0 00.819.987 2.862 2.862 0 00.648-.099Q8.191 6.468 11 5.718a.172.172 0 01.121.002c-.054.027-.107.054-.162.078-1.887.8-3.773 1.609-5.667 2.394a9.077 9.077 0 01-1.17.334.776.776 0 01-.245.004.85.85 0 01-.834-1.099 2.4 2.4 0 01.288-.729c.206-.334.46-.636.693-.952zM7 12.802a5.689 5.689 0 01-4.012-1.644.438.438 0 01-.124-.323c.03-.21.279-.258.458-.106.22.186.429.388.663.555a5.192 5.192 0 006.638-.502l.054-.052c.167-.158.324-.171.443-.04.114.125.096.275-.06.429A5.716 5.716 0 017 12.802zM6.931 1.201a5.741 5.741 0 014.065 1.626.464.464 0 01.133.288.266.266 0 01-.154.205.38.38 0 01-.29-.05c-.173-.122-.318-.284-.486-.415a5.196 5.196 0 00-6.791.338l-.069.065c-.147.132-.303.145-.416.032-.123-.122-.111-.28.04-.428a5.658 5.658 0 013.362-1.615c.224-.026.451-.034.606-.046z"/><path d="M7.138 11.924a4.625 4.625 0 01-3.309-1.29.301.301 0 01-.107-.366c.082-.178.287-.198.458-.057a7.489 7.489 0 00.661.525 3.992 3.992 0 004.903-.45l.054-.052c.167-.16.322-.178.443-.055.126.124.108.281-.056.442a4.42 4.42 0 01-2.278 1.208c-.3.058-.608.075-.77.095zm-.394-9.291a3.835 3.835 0 00-2.496 1.095 1.37 1.37 0 01-.112.101.255.255 0 01-.359-.017.246.246 0 01-.012-.37 4.461 4.461 0 01.478-.426 4.545 4.545 0 015.874.302.712.712 0 01.103.108.27.27 0 01-.375.379 1.063 1.063 0 01-.128-.112 4.162 4.162 0 00-2.972-1.06z"/></svg>