<svg data-tags="contentful" xmlns="http://www.w3.org/2000/svg" viewBox="0 0 14 14"><circle cx="3.948" cy="10.85" r="1.281"/><path d="M3.948 1.368A1.783 1.783 0 0 1 5.73 3.15a1.761 1.761 0 0 1-.108.592 3.73 3.73 0 0 1 2.177-.68A3.865 3.865 0 0 1 10.555 4.2a1.547 1.547 0 0 0 2.187-2.188A7.128 7.128 0 0 0 7.798 0a6.959 6.959 0 0 0-4.17 1.4 1.774 1.774 0 0 1 .32-.032ZM2.167 10.85a1.783 1.783 0 0 1 1.781-1.781 1.76 1.76 0 0 1 .592.108A3.73 3.73 0 0 1 3.86 7a3.838 3.838 0 0 1 .675-2.176 1.76 1.76 0 0 1-.587.107 1.777 1.777 0 0 1-1.741-2.152A7.122 7.122 0 0 0 .798 7 6.96 6.96 0 0 0 2.2 11.171a1.773 1.773 0 0 1-.032-.321Z"/><circle cx="3.948" cy="3.15" r="1.281"/><path d="m12.764 9.778-.022-.022a1.615 1.615 0 0 0-2.187 0 3.73 3.73 0 0 1-2.757 1.181 3.838 3.838 0 0 1-2.175-.673 1.76 1.76 0 0 1 .106.586 1.777 1.777 0 0 1-2.152 1.74A7.122 7.122 0 0 0 7.798 14a6.978 6.978 0 0 0 4.944-2.056 1.532 1.532 0 0 0 .022-2.166Z"/></svg>