<svg data-tags="contentful" xmlns="http://www.w3.org/2000/svg" viewBox="0 0 14 14"><rect width="14" height="14" fill="#fff" rx="7"/><path fill="#fae501" d="M5.6 8.97A2.66 2.66 0 014.76 7a2.76 2.76 0 01.81-1.97 1.1 1.1 0 00-1.56-1.56A5.1 5.1 0 002.57 7a4.98 4.98 0 001.47 3.53 1.1 1.1 0 001.56 0 1.15 1.15 0 000-1.56z"/><path fill="#4fb5e1" d="M5.6 5.03a2.66 2.66 0 011.97-.84A2.76 2.76 0 019.54 5a1.1 1.1 0 001.56-1.56A5.1 5.1 0 007.57 2a4.98 4.98 0 00-3.53 1.47 1.1 1.1 0 000 1.56 1.15 1.15 0 001.56 0z"/><path fill="#f05751" d="M9.54 8.97a2.66 2.66 0 01-1.97.84A2.76 2.76 0 015.6 9a1.1 1.1 0 00-1.56 1.56A5.1 5.1 0 007.57 12a4.98 4.98 0 003.53-1.47 1.1 1.1 0 000-1.56 1.15 1.15 0 00-1.56 0z"/><circle cx="4.82" cy="4.25" r="1.09" fill="#0681b6"/><circle cx="4.82" cy="9.75" r="1.09" fill="#cd4739"/></svg>