<svg data-tags="contentful" xmlns="http://www.w3.org/2000/svg" viewBox="0 0 14 14"><path fill="#fae501" d="M5.04 9.76A3.73 3.73 0 013.86 7 3.86 3.86 0 015 4.24a1.55 1.55 0 00-2.2-2.18A7.13 7.13 0 00.8 7a6.98 6.98 0 002.05 4.94 1.53 1.53 0 002.2 0 1.62 1.62 0 000-2.18z"/><path fill="#4fb5e1" d="M5.04 4.24A3.73 3.73 0 017.8 3.06a3.86 3.86 0 012.75 1.14 1.55 1.55 0 002.2-2.19A7.13 7.13 0 007.8 0a6.98 6.98 0 00-4.95 2.06 1.53 1.53 0 000 2.18 1.62 1.62 0 002.2 0z"/><path fill="#f05751" d="M10.55 9.76a3.73 3.73 0 01-2.75 1.18A3.86 3.86 0 015.04 9.8a1.55 1.55 0 00-2.19 2.19A7.13 7.13 0 007.8 14a6.98 6.98 0 004.94-2.06 1.53 1.53 0 000-2.18 1.62 1.62 0 00-2.19 0z"/><circle cx="3.95" cy="3.15" r="1.53" fill="#0681b6"/><circle cx="3.95" cy="10.85" r="1.53" fill="#cd4739"/></svg>