<svg data-tags="coveo" xmlns="http://www.w3.org/2000/svg" viewBox="0 0 14 14"><path d="M11.938 2.009A7.037 7.037 0 0 0 7.635 0a.227.227 0 0 0-.212.24.168.168 0 0 0 .055.138l2.534 2.497c0 .037 0 .037-.037.037a4.8 4.8 0 0 0-2.377-.903.145.145 0 0 0-.166.12.203.203 0 0 0 .037.12L9.201 3.98s0 .037-.036 0a3.58 3.58 0 0 0-1.567-.543c-.083 0-.12.083-.083.166l2.912 2.911c.083.083.203 0 .166-.083a3.232 3.232 0 0 0-.544-1.566c-.037 0 0-.037 0 0l1.686 1.65c.083.082.24 0 .24-.12a5.177 5.177 0 0 0-.903-2.415c-.037 0 0-.036 0 0l2.552 2.497a.189.189 0 0 0 .258.037.167.167 0 0 0 .065-.202 7.013 7.013 0 0 0-2.009-4.303Z" fill="#4aabf7"/><path d="M2.051 2.009A7.212 7.212 0 0 1 6.354 0a.23.23 0 0 1 .23.203.202.202 0 0 1-.064.166L4.023 2.875c-.037.037 0 .037 0 .037a4.928 4.928 0 0 1 2.414-.903c.12 0 .203.165.12.24L4.843 3.98c-.037 0 0 .037 0 0a3.83 3.83 0 0 1 1.567-.543c.083 0 .165.083.083.166l-2.93 2.911c-.084.083-.166 0-.166-.083a3.382 3.382 0 0 1 .58-1.566s-.037-.037-.037 0l-1.65 1.65c-.119.082-.285 0-.239-.12a4.83 4.83 0 0 1 .903-2.415s-.037-.036-.037 0L.411 6.478a.21.21 0 0 1-.368-.166A7.291 7.291 0 0 1 2.05 2.009Z" fill="#de5d4e"/><path d="M2.051 11.988a6.82 6.82 0 0 0 4.303 2.008.183.183 0 0 0 .212-.166.213.213 0 0 0-.055-.175l-2.488-2.534c-.037 0 0-.036 0 0a4.828 4.828 0 0 0 2.414.894c.12 0 .203-.166.12-.24l-1.714-1.722c-.037-.037 0-.037 0-.037a3.364 3.364 0 0 0 1.548.571c.083 0 .166-.12.083-.166l-2.912-2.92c-.083-.084-.165-.038-.165.082a3.382 3.382 0 0 0 .58 1.567s-.037.036-.037 0L2.29 7.5c-.119-.083-.285-.037-.239.12a4.703 4.703 0 0 0 .903 2.377c0 .028-.009.037-.037.037L.411 7.5a.221.221 0 0 0-.313.037.48.48 0 0 0-.055.138 7.084 7.084 0 0 0 2.008 4.313Z" fill="#6de6cf"/><path d="M11.938 11.988a6.727 6.727 0 0 1-4.303 2.008.196.196 0 0 1-.166-.322l2.534-2.534s0-.037-.037 0a4.8 4.8 0 0 1-2.377.903.16.16 0 0 1-.166-.138.203.203 0 0 1 .037-.12l1.732-1.732c0-.037 0-.037-.037-.037a3.17 3.17 0 0 1-1.548.571.098.098 0 0 1-.092-.12.055.055 0 0 1 .01-.037l2.911-2.911c.083-.083.203-.037.166.083a3.232 3.232 0 0 1-.544 1.566c-.037 0 0 .037 0 0l1.687-1.65a.145.145 0 0 1 .202 0 .185.185 0 0 1 .037.12 5.078 5.078 0 0 1-.903 2.378c-.037.037 0 .037 0 .037l2.534-2.534c.12-.12.369 0 .322.166a6.875 6.875 0 0 1-1.999 4.303Z" fill="#fae24c"/></svg>