<svg data-tags="cpgram" xmlns="http://www.w3.org/2000/svg" viewBox="0 0 14 14"><path d="M7.07 0A7 7 0 1 0 14 7.07 7 7 0 0 0 7.07 0Zm.518 11.272a4.702 4.702 0 0 1-3.3-1.14A4.032 4.032 0 0 1 3.04 7a4.046 4.046 0 0 1 1.254-3.096A4.47 4.47 0 0 1 7.48 2.728a6.194 6.194 0 0 1 2.029.3l-.12 1.452a4.228 4.228 0 0 0-1.777-.384 2.742 2.742 0 0 0-2.02.744 2.843 2.843 0 0 0-.75 2.112 2.854 2.854 0 0 0 .791 2.135 2.734 2.734 0 0 0 2.003.78 5.16 5.16 0 0 0 1.848-.324l.06 1.453a6.058 6.058 0 0 1-1.955.276Z"/></svg>