<svg data-tags="daily motion" xmlns="http://www.w3.org/2000/svg" viewBox="0 0 14 14"><path d="M0 7a7 7 0 1 0 7-7 7 7 0 0 0-7 7Z" fill="#0064dc"/><path d="M9.742 11.037c-.383-.012-.768-.002-1.152-.005a2.704 2.704 0 0 1-.27-.027v-.589a2.457 2.457 0 0 1-1.206.605 2.905 2.905 0 0 1-3.301-2.195 3.032 3.032 0 0 1 1.623-3.479 2.388 2.388 0 0 1 2.832.376V4.246c0-.266-.008-.533.005-.8.004-.064.063-.17.114-.182.517-.119 1.037-.222 1.557-.329.02-.004.044.01.087.022.004.08.012.164.012.248 0 2.509-.004 5.018.006 7.526.001.247-.08.313-.307.306Z" fill="#fff"/><path d="M6.936 6.643a1.407 1.407 0 1 0 .063 2.813 1.339 1.339 0 0 0 1.32-1.372 1.37 1.37 0 0 0-1.383-1.44Z" fill="#0064dc"/></svg>