<svg data-tags="datorama" xmlns="http://www.w3.org/2000/svg" viewBox="0 0 14 14"><path d="m13.02 3.422-2.984-1.705L8.548.864 7.056.016a.117.117 0 0 0-.116 0L5.463.862h-.027l-1.46.835h-.021l-.018.013-1.468.839-1.492.873a.118.118 0 0 0-.055.079v6.977a.113.113 0 0 0 .055.102l1.463.839.022.016 2.985 1.703h.014l1.479.846a.112.112 0 0 0 .057.016.113.113 0 0 0 .058-.016l1.491-.853 1.488-.85 2.985-1.689a.116.116 0 0 0 .059-.102V3.527a.117.117 0 0 0-.057-.105Zm-2.923 5.286V5.433l1.255.717v3.283Zm1.138.92-1.138.65V8.98Zm-1.02-4.401 1.255-.717 1.255.717-1.255.717Zm1.138-.909-1.254.717V3.601l1.254-.717ZM8.607 1.172l1.137.65-1.137.653Zm1.137 5.907-1.255.717-1.255-.717 1.255-.717Zm-1.49-.854-1.138.653V5.573Zm-1.02-.853 1.138-.649v1.3Zm1.02 2.558-1.138.651V7.279Zm.118-3.476-1.255.717V1.893l1.255-.718v3.28ZM7 .254l1.255.717-1.255.717L5.744.971Zm-1.613.918v1.301l-1.139-.65ZM4.13 3.529V2.027l1.314.751a.121.121 0 0 0 .046.014.104.104 0 0 0 .072-.016.117.117 0 0 0 .058-.1V1.174l1.254.717v3.284L5.56 4.424a.16.16 0 0 0-.045-.015.133.133 0 0 0-.072.015l-1.314.749Zm1.491 4.433a.112.112 0 0 0 0-.035.114.114 0 0 0 0-.038v-1.6l1.255-.716v4.71l-1.255-.718V7.962Zm-.116-1.875L4.25 5.37l1.255-.717 1.255.717Zm-1.37-.514 1.255.717v1.434l-1.255-.717ZM4.02 7.21l1.255.717-1.255.718-1.255-.718Zm1.373.92v1.434l-1.255.717V8.848ZM3.9 7.007l-1.255.717V4.451l1.255-.717v1.64a.13.13 0 0 0 0 .03v1.603Zm0-4.98v1.298l-1.134-.647ZM2.413 7.893a.104.104 0 0 0 0 .035v3.202l-1.254-.717V3.73l1.254.717ZM1.271 3.527l1.255-.717 1.255.717-1.255.717Zm4.124 9.312-2.752-1.566V8.135l1.255.717v1.636a.116.116 0 0 0 .059.102l1.434.818v1.434Zm-1.139-2.354 1.255-.717 1.255.717-1.255.717Zm1.372.921 1.255-.717v1.434l-1.255.717ZM7 13.758l-1.255-.717 1.255-.717 1.255.717Zm1.373-.921-1.255-.718v-1.597a.167.167 0 0 0 0-.037.154.154 0 0 0 0-.038V8.979l1.255.717v3.14Zm.117-3.34L7.236 8.78l1.255-.717 1.254.717Zm1.373 2.622-1.255.718v-3.14l1.255-.718v3.14Zm0-3.542L8.73 7.928l1.136-.649v1.3Zm0-1.705-1.255-.717V2.885l1.255.717v3.271ZM9.98 3.39l-1.255-.717 1.255-.717 1.255.717Zm2.868 7.028-2.748 1.57v-1.434l1.434-.82a.117.117 0 0 0 .043-.046.144.144 0 0 0 .01-.029V6.15l1.254-.717v4.98Zm0-5.387-1.254-.717v-1.43l1.254.718V5.03Z"/></svg>