<svg xmlns="http://www.w3.org/2000/svg" viewBox="0 0 14 14"><path d="M7.06.003A6.976 6.976 0 00.066 6.878v7.12l6.99-.008A6.995 6.995 0 007.06.003zm4.317 7.125a4.23 4.23 0 01-.07.569c-.012.069-.019.138-.035.206a4.23 4.23 0 01-5.894 2.907l-2.769.627.012-.004-.012.003.771-2.48a4.259 4.259 0 01-.263-.608 4.22 4.22 0 01-.227-1.044c-.01-.125-.023-.25-.023-.375 0-.01.002-.018.003-.028a4.25 4.25 0 011.668-3.376c.058-.044.122-.07.181-.111.032-.022.067-.04.1-.061a4.245 4.245 0 01.635-.345c.02-.009.04-.014.06-.022a4.21 4.21 0 01.736-.23l.068-.01a4.241 4.241 0 01.77-.078c.013 0 .025-.004.039-.004h.004c.028 0 .055.008.083.009a4.258 4.258 0 01.732.078c.062.012.123.028.185.043a4.232 4.232 0 01.636.21c.036.014.076.02.112.036.038.017.068.043.105.06a4.205 4.205 0 01.497.288c.09.059.175.119.258.183l.006.005c-.008-.01-.013-.02-.022-.03.024.02.042.042.065.06.105.085.203.178.3.274l.014.013c.057.055.12.105.174.163.043.047.075.1.115.148.038.045.083.08.12.127-.018-.016-.038-.029-.056-.045a4.236 4.236 0 01.27.36c.042.068.073.14.112.208a4.245 4.245 0 01.238.483c.033.083.058.168.086.253a4.252 4.252 0 01.133.488c.02.091.033.182.046.275a4.253 4.253 0 01.037.507c.002.09.004.178 0 .268z"/></svg>
