<svg xmlns="http://www.w3.org/2000/svg" viewBox="0 0 14 14"><path d="M7.0593.003A6.9764 6.9764 0 00.067 6.878v7.119l6.991-.0067A6.9947 6.9947 0 007.0593.003z" fill="#231f20"/><path d="M10.5076 4.3329a4.2599 4.2599 0 01-5.1293 6.4706l-2.769.6336 2.8189-.333a4.2599 4.2599 0 005.0794-6.7713z" fill="#00aeef"/><path d="M11.0138 8.6756a4.264 4.264 0 00.2583-.7722c.0162-.0686.0225-.138.0352-.2068a4.2342 4.2342 0 00.0699-.5681c.0042-.0898.0017-.1792.0003-.2688a4.2591 4.2591 0 00-.0376-.5068 4.2992 4.2992 0 00-.0454-.2748 4.2787 4.2787 0 00-.133-.4871c-.0282-.085-.053-.1708-.0866-.2539a4.2783 4.2783 0 00-.2383-.4838c-.0382-.0683-.069-.1399-.111-.2062a4.2526 4.2526 0 00-.4495-.591c-.053-.058-.1167-.1076-.1733-.163a4.2233 4.2233 0 00-.3548-.3138 4.2575 4.2575 0 01-4.4507 6.9384l-2.6764.9154 2.7574-.6228a4.2613 4.2613 0 005.6355-2.1347z" fill="#00a94f"/><path d="M10.0072 3.9225a4.26 4.26 0 00-6.372 5.1272l-1.0258 2.386.0115-.0026 2.6765-.9154a4.243 4.243 0 004.7098-6.5953z" fill="#fff9ae"/><path d="M5.9383 3.481a4.2605 4.2605 0 014.069.4415 4.1972 4.1972 0 00-.2593-.3432 4.4643 4.4643 0 00-.7203-.459 4.2327 4.2327 0 00-.2607-.117 4.2473 4.2473 0 00-.6354-.209c-.062-.015-.1235-.0311-.186-.0435a4.2607 4.2607 0 00-.7316-.078c-.0422-.0009-.0842-.0052-.1265-.0049a4.2783 4.2783 0 00-.769.078c-.0227.0044-.0457.0058-.0682.0106a4.2223 4.2223 0 00-.7362.229c-.02.0081-.0406.0135-.0605.022a4.2445 4.2445 0 00-.6345.345c-.033.0213-.0676.039-.1002.0614a4.2546 4.2546 0 00-1.8494 3.4873c-.0005.1341.0084.2683.0207.4026.012.1342.0315.2668.056.399.0257.1364.055.2722.0946.4068q.0348.1205.0766.239a4.2529 4.2529 0 00.263.6068l-.771 2.4804 1.0258-2.386a4.2612 4.2612 0 012.3031-5.5689z" fill="#f15d22"/><path d="M3.3805 8.9553A4.2612 4.2612 0 019.723 3.547a4.2612 4.2612 0 00-6.6055 5.3423l-.5069 2.5478z" fill="#e31b23"/></svg>