<svg data-tags="discover" xmlns="http://www.w3.org/2000/svg" viewBox="0 0 14 14"><path d="M0 0h14v14H0Z" fill="#ebf1f8" fill-rule="evenodd"/><path d="M0 0h14v14H0Z" fill="#fff" fill-rule="evenodd"/><path d="M13.125 7.831h-.467l-.527-.67h-.05v.67h-.38V6.17h.562c.44 0 .694.175.694.49a.47.47 0 0 1-.445.477Zm-.563-1.16c0-.161-.127-.244-.363-.244h-.118v.503h.11c.244 0 .371-.087.371-.258Zm-2.196-.502h1.08v.28h-.698v.372h.67v.284h-.67v.45h.698v.28h-1.08ZM9.141 7.875l-.825-1.71h.417l.522 1.12.526-1.12h.408l-.834 1.71H9.14ZM5.69 7.871a.951.951 0 0 1-1.034-.875.966.966 0 0 1 1.043-.871 1.141 1.141 0 0 1 .467.1v.386a.694.694 0 0 0-.476-.188.58.58 0 1 0 .018 1.15.655.655 0 0 0 .458-.184v.385a1.205 1.205 0 0 1-.476.097Zm-1.153-.547c0 .324-.276.547-.675.547a.799.799 0 0 1-.676-.315l.249-.206a.45.45 0 0 0 .413.223c.172 0 .295-.1.295-.232a.193.193 0 0 0-.114-.175 1.615 1.615 0 0 0-.263-.096c-.359-.11-.481-.228-.481-.46 0-.27.263-.476.608-.476a.943.943 0 0 1 .576.188l-.2.219a.424.424 0 0 0-.308-.132c-.163 0-.281.08-.281.184 0 .088.068.136.295.21.436.131.562.254.562.525ZM2.663 6.169h.38v1.667h-.38ZM1.438 7.836H.875V6.169h.563c.617 0 1.043.341 1.043.831a.79.79 0 0 1-.35.643 1.16 1.16 0 0 1-.698.193Zm.444-1.252a.792.792 0 0 0-.521-.13h-.105v1.102h.104a.847.847 0 0 0 .522-.132A.547.547 0 0 0 2.09 7a.524.524 0 0 0-.208-.416Z"/><path d="M7.328 6.125A.875.875 0 1 0 8.203 7a.87.87 0 0 0-.875-.875Z" fill="#f27712"/></svg>