<svg data-tags="discourse" xmlns="http://www.w3.org/2000/svg" viewBox="0 0 14 14"><defs><clipPath id="brand_discourseSquare_clr__a"><path fill="none" d="M2.593 2.5h9v9h-9z"/></clipPath></defs><path fill="#f2f2f2" d="M0 0h14v14H0z"/><g clip-path="url(#brand_discourseSquare_clr__a)"><path d="M7.131 2.502a4.485 4.485 0 0 0-4.495 4.42v4.576l4.495-.004a4.497 4.497 0 0 0 0-8.992Z" fill="#221f20"/><path d="M9.348 5.285a2.739 2.739 0 0 1-3.297 4.16l-1.78.407 1.812-.214a2.739 2.739 0 0 0 3.265-4.353Z" fill="#4bace8"/><path d="M9.674 8.077a2.744 2.744 0 0 0 .166-.496c.01-.044.014-.089.023-.133a2.725 2.725 0 0 0 .044-.365c.003-.058.002-.116 0-.173a2.734 2.734 0 0 0-.024-.326q-.011-.089-.029-.177a2.746 2.746 0 0 0-.085-.313c-.018-.054-.034-.11-.056-.163a2.753 2.753 0 0 0-.153-.311c-.025-.044-.044-.09-.071-.133a2.732 2.732 0 0 0-.29-.38c-.033-.037-.074-.069-.11-.104A2.718 2.718 0 0 0 8.86 4.8 2.737 2.737 0 0 1 6 9.261l-1.72.589 1.772-.4a2.74 2.74 0 0 0 3.623-1.373Z" fill="#4ba559"/><path d="M9.027 5.022A2.739 2.739 0 0 0 4.93 8.318L4.27 9.85l.008-.001 1.72-.589a2.728 2.728 0 0 0 3.029-4.24Z" fill="#fdf7b6"/><path d="M6.41 4.738a2.739 2.739 0 0 1 2.617.284A2.705 2.705 0 0 0 8.86 4.8a2.871 2.871 0 0 0-.463-.295q-.083-.04-.168-.075a2.733 2.733 0 0 0-.408-.135c-.04-.01-.08-.02-.12-.028a2.74 2.74 0 0 0-.47-.05l-.081-.003a2.75 2.75 0 0 0-.495.05l-.044.007a2.715 2.715 0 0 0-.473.147c-.013.006-.026.009-.039.014a2.73 2.73 0 0 0-.408.222c-.02.014-.043.025-.064.04a2.735 2.735 0 0 0-1.189 2.242 2.727 2.727 0 0 0 .05.515 2.683 2.683 0 0 0 .06.261q.023.078.05.154a2.735 2.735 0 0 0 .169.39L4.27 9.852l.66-1.534a2.74 2.74 0 0 1 1.48-3.58Z" fill="#df6636"/><path d="M4.767 8.257A2.74 2.74 0 0 1 8.844 4.78a2.74 2.74 0 0 0-4.246 3.435l-.326 1.637Z" fill="#d03530"/></g></svg>