<svg data-tags="discord,brand" xmlns="http://www.w3.org/2000/svg" viewBox="0 0 14 14"><rect width="14" height="14" fill="#5865f2" rx="7"/><path fill="#fff" d="M10.117 4.107a7.314 7.314 0 00-1.853-.582 5.431 5.431 0 00-.237.492 6.802 6.802 0 00-2.053 0 5.265 5.265 0 00-.24-.492 7.289 7.289 0 00-1.854.583A7.77 7.77 0 002.548 9.31a7.406 7.406 0 002.272 1.165 5.65 5.65 0 00.487-.802 4.785 4.785 0 01-.766-.373c.064-.047.127-.097.188-.148a5.236 5.236 0 004.542 0c.062.051.125.1.188.148a4.774 4.774 0 01-.768.374 5.626 5.626 0 00.487.801 7.392 7.392 0 002.274-1.165 7.762 7.762 0 00-1.335-5.203zM5.508 8.263a.872.872 0 01-.807-.918.867.867 0 01.807-.92.861.861 0 01.808.92.866.866 0 01-.808.918zm2.984 0a.872.872 0 01-.808-.918.867.867 0 01.808-.92.861.861 0 01.807.92.866.866 0 01-.807.918z"/></svg>