<svg data-tags="discord, brand" xmlns="http://www.w3.org/2000/svg" viewBox="0 0 14 14"><path fill="#5865f2" d="M11.86 2.489a11.402 11.402 0 00-2.89-.909 8.47 8.47 0 00-.37.768 10.606 10.606 0 00-3.201 0 8.212 8.212 0 00-.374-.768 11.365 11.365 0 00-2.89.91 12.113 12.113 0 00-2.077 8.111 11.547 11.547 0 003.543 1.816 8.81 8.81 0 00.759-1.25 7.46 7.46 0 01-1.195-.581c.1-.075.198-.152.293-.232a8.163 8.163 0 007.082 0c.096.08.194.157.293.232a7.44 7.44 0 01-1.197.582 8.77 8.77 0 00.759 1.25 11.524 11.524 0 003.544-1.817 12.101 12.101 0 00-2.08-8.113zm-7.186 6.48a1.359 1.359 0 01-1.258-1.431 1.352 1.352 0 011.258-1.433 1.343 1.343 0 011.259 1.433 1.35 1.35 0 01-1.259 1.431zm4.652 0a1.359 1.359 0 01-1.259-1.431 1.352 1.352 0 011.259-1.433 1.343 1.343 0 011.258 1.433 1.35 1.35 0 01-1.258 1.431z"/></svg>