<svg xmlns="http://www.w3.org/2000/svg" viewBox="0 0 14 14"><path d="M9.845 6.44a2.575 2.575 0 00-.08-.296c-.018-.052-.033-.103-.053-.154a2.571 2.571 0 00-.145-.294c-.023-.041-.042-.085-.068-.125a2.555 2.555 0 00-.164-.22l.034.028c-.022-.029-.05-.05-.072-.077-.025-.03-.044-.062-.07-.09-.033-.036-.072-.066-.106-.1l-.008-.007a2.574 2.574 0 00-.183-.166c-.014-.011-.025-.025-.04-.036l.014.017-.004-.002a2.543 2.543 0 00-.156-.112 2.547 2.547 0 00-.302-.174c-.022-.011-.041-.027-.064-.037-.022-.01-.046-.013-.068-.023a2.577 2.577 0 00-.386-.127c-.038-.009-.075-.019-.113-.026a2.585 2.585 0 00-.444-.047c-.017 0-.034-.006-.05-.006h-.003l-.024.003a2.573 2.573 0 00-.467.047l-.042.006a2.56 2.56 0 00-.447.14l-.037.013a2.577 2.577 0 00-.385.21c-.02.013-.041.023-.06.037-.037.024-.076.04-.11.067A2.581 2.581 0 004.727 6.94l-.002.017c0 .076.008.152.014.227a2.564 2.564 0 00.092.49c.014.049.029.097.046.145a2.594 2.594 0 00.16.369L4.57 9.694l.007-.001-.007.002 1.682-.38a2.57 2.57 0 003.58-1.766c.01-.042.013-.084.021-.126a2.57 2.57 0 00.042-.345c.003-.055.001-.109 0-.163a2.573 2.573 0 00-.022-.308 2.59 2.59 0 00-.028-.167z"/><path d="M6.933 0A7 7 0 1014 6.933 7 7 0 006.933 0zm.38 11.243l-4.247.045-.041-4.324a4.212 4.212 0 114.287 4.28z" /></svg>
