<svg data-tags="display" xmlns="http://www.w3.org/2000/svg" viewBox="0 0 14 14"><g fill="#40A3F5"><path d="M13.75-.033H.25A.254.254 0 000 .225v10.81c0 .143.112.258.25.258h5.249v1.74H3.75c-.138 0-.25.022-.25.05v.9c0 .027.112.05.25.05h6.5c.138 0 .25-.023.25-.05v-.9c0-.028-.112-.05-.25-.05H8.501v-1.74h5.249c.138 0 .25-.115.25-.258V.225a.254.254 0 00-.25-.258zm-1.478 9.494c0 .1-.085.182-.189.182H1.917a.185.185 0 01-.189-.182V1.799c0-.1.085-.182.189-.182h10.166c.104 0 .189.082.189.182v7.662z"/><path d="M9.394 6.564l-.941.743-2.165-3.653-2.385 5.002h6.766z"/><ellipse cx="9.129" cy="4.476" rx=".765" ry=".747"/></g></svg>