<svg data-tags="DV360,display and vision" xmlns="http://www.w3.org/2000/svg" viewBox="0 0 14 14"><rect width="14" height="14" y=".007" fill="#f2f2f2" rx="7"/><path fill="#81c995" d="M9.755 6.129a1 1 0 011.038 1.71l-.038.023-5.211 3.001a1 1 0 01-1.038-1.71l.037-.022z"/><path fill="#34a853" d="M6.01 3.988a.999.999 0 00-1.205-.981 1.034 1.034 0 00-.787 1.018v5.962l1.99.036z"/><path fill="#5bb974" d="M9.778 7.865a1.047 1.047 0 001.365-.368.992.992 0 00-.346-1.36l-.01-.006L5.54 3.124a.989.989 0 00-1.358.335l-.02.035a.996.996 0 00.357 1.362l.01.006z"/><path fill="#81c995" d="M10.752 7.872l-4.743 2.65V8.247l3.764-2.1a1.033 1.033 0 011.404.404 1.015 1.015 0 01.066.144.999.999 0 01-.49 1.178z"/><circle cx="5.016" cy="10.037" r=".995" fill="#1e8e3e"/></svg>