<svg data-tags="DV360,display and vision" xmlns="http://www.w3.org/2000/svg" viewBox="0 0 14 14"><path fill="#81c995" d="M10.635 5.482a1.73 1.73 0 011.794 2.958q-.032.02-.065.038l-9.01 5.19A1.73 1.73 0 011.56 10.71l.066-.038z"/><path fill="#34a853" d="M4.161 1.781A1.727 1.727 0 002.077.085a1.787 1.787 0 00-1.36 1.76v10.307l3.44.063z"/><path fill="#5bb974" d="M10.674 8.484a1.81 1.81 0 002.36-.637 1.715 1.715 0 00-.597-2.35l-.019-.011L3.348.287a1.71 1.71 0 00-2.346.579L.967.927a1.722 1.722 0 00.617 2.355l.017.01z"/><path fill="#81c995" d="M12.359 8.496l-8.2 4.582V9.142l6.506-3.63a1.786 1.786 0 012.428.698 1.752 1.752 0 01.114.25 1.727 1.727 0 01-.848 2.036z"/><circle cx="2.441" cy="12.238" r="1.721" fill="#1e8e3e"/></svg>