<svg data-tags="brand" xmlns="http://www.w3.org/2000/svg" viewBox="0 0 14 14"><circle fill="#40A3F5" cx="7" cy="7" r="7"/><g fill="#FFF"><path d="M10.863 3.285H3.137a.145.145 0 00-.143.147V9.62c0 .081.064.147.143.147H6.14v.996h-1c-.08 0-.143.013-.143.028v.515c0 .016.064.03.143.03h3.72c.08 0 .143-.014.143-.03v-.515c0-.015-.064-.028-.143-.028h-1v-.996h3.003c.08 0 .143-.066.143-.147V3.432a.145.145 0 00-.143-.147zm-.846 5.434a.106.106 0 01-.108.104H4.091a.106.106 0 01-.108-.104V4.334c0-.058.048-.105.108-.105h5.818c.06 0 .108.047.108.105v4.385z"/><path d="M8.37 7.06l-.538.426-1.24-2.091-1.365 2.863H9.1z"/><ellipse cx="8.219" cy="5.866" rx=".438" ry=".428"/></g></svg>