<svg data-tags="dcm" xmlns="http://www.w3.org/2000/svg" xmlns:xlink="http://www.w3.org/1999/xlink" viewBox="0 0 14 14"><defs><linearGradient id="brand_doubleClickCampaignManagerSquare_clr__a" x1="-176.56" y1="521.424" x2="-176.56" y2="519.812" gradientTransform="matrix(4.93421 0 0 -4.93421 877.179 2575.856)" gradientUnits="userSpaceOnUse"><stop offset="0" stop-opacity=".6"/><stop offset=".6" stop-opacity=".1"/></linearGradient><linearGradient id="brand_doubleClickCampaignManagerSquare_clr__b" x1="-176.153" y1="519.819" x2="-176.153" y2="521.431" /><linearGradient id="brand_doubleClickCampaignManagerSquare_clr__c" x1="-176.765" y1="520.467" x2="-176.494" y2="519.583" gradientTransform="matrix(4.93421 0 0 -4.93421 877.179 2575.856)" gradientUnits="userSpaceOnUse"><stop offset="0" stop-opacity=".5"/><stop offset=".75" stop-opacity=".03"/></linearGradient><linearGradient id="brand_doubleClickCampaignManagerSquare_clr__d" x1="-176.927" y1="520.823" x2="-176.136" y2="520.823" gradientTransform="matrix(4.93421 0 0 -4.93421 877.179 2575.856)" gradientUnits="userSpaceOnUse"><stop offset="0" stop-opacity=".9"/><stop offset=".6" stop-opacity=".1"/></linearGradient></defs><path fill="#fff" d="M0 0h14v14H0z"/><path d="M7.992 3.009a3.667 3.667 0 0 0-1 .128A3.995 3.995 0 0 1 9.99 6.918v.157A2.012 2.012 0 0 1 7.992 9a1.926 1.926 0 0 1-1-.264 1.983 1.983 0 0 1-.998-1.733 2.019 2.019 0 0 1 .999-1.741 1.94 1.94 0 0 0-.999-.264 1.99 1.99 0 0 0-1.983 1.926v.15a3.995 3.995 0 1 0 3.98-4.066Z" fill="#529250"/><path d="M9.989 6.925a3.995 3.995 0 1 0-3.995 4.066 3.667 3.667 0 0 0 .985-.135 3.988 3.988 0 0 1-2.982-3.781v-.157a1.997 1.997 0 0 1 1.997-1.926 1.926 1.926 0 0 1 .985.264 1.983 1.983 0 0 1 .998 1.748 2.019 2.019 0 0 1-.998 1.733 2.126 2.126 0 0 0 1.005.271 1.99 1.99 0 0 0 1.998-1.926v-.078a.264.264 0 0 0 0-.072Z" fill="#bae649"/><path d="M9.989 6.925a3.995 3.995 0 1 0-3.995 4.066 3.667 3.667 0 0 0 .985-.135 3.988 3.988 0 0 1-2.982-3.781v-.157a1.997 1.997 0 0 1 1.997-1.926 1.926 1.926 0 0 1 .985.264 1.983 1.983 0 0 1 .998 1.748 2.019 2.019 0 0 1-.998 1.733 2.126 2.126 0 0 0 1.005.271 1.99 1.99 0 0 0 1.998-1.926v-.078a.264.264 0 0 0 0-.072Z" opacity=".15" fill="url(#brand_doubleClickCampaignManagerSquare_clr__a)" /><path d="M7.992 3.009a3.667 3.667 0 0 0-1 .128A3.995 3.995 0 0 1 9.99 6.918v.157A2.012 2.012 0 0 1 7.992 9a1.926 1.926 0 0 1-1-.264 1.983 1.983 0 0 1-.998-1.733 2.019 2.019 0 0 1 .999-1.741 1.94 1.94 0 0 0-.999-.264 1.99 1.99 0 0 0-1.983 1.926v.15a3.995 3.995 0 1 0 3.98-4.066Z" opacity=".15" fill="url(#brand_doubleClickCampaignManagerSquare_clr__b)" /><path d="M6.993 10.863a3.988 3.988 0 0 1-2.996-3.781v.014a5.807 5.807 0 0 0 1.448 3.867 4.232 4.232 0 0 0 .55.035 4.494 4.494 0 0 0 .998-.135Z" opacity=".4" fill="url(#brand_doubleClickCampaignManagerSquare_clr__c)" /><path d="M4.018 6.932a1.976 1.976 0 0 1 2.433-1.334.714.714 0 0 0 .107.029A2.076 2.076 0 0 1 7 5.27a1.94 1.94 0 0 0-.999-.264 1.983 1.983 0 0 0-1.983 1.926v.072a.064.064 0 0 1 0-.072Z" opacity=".25" fill="url(#brand_doubleClickCampaignManagerSquare_clr__d)" /></svg>
