<svg data-tags="dcm" xmlns="http://www.w3.org/2000/svg" viewBox="0 0 14 14"><path d="m4.987 11.684-.102-.075a5.86 5.86 0 0 1-.576-.506c-.04-.04-.077-.083-.116-.125a5.852 5.852 0 0 1-.386-.456c-.047-.061-.096-.12-.14-.183a5.82 5.82 0 0 1-.344-.555 5.75 5.75 0 0 1-.288-.619 5.732 5.732 0 0 1-.442-2.055v-.227A2.958 2.958 0 0 1 5.567 4.01a2.868 2.868 0 0 1 1.32.332c.055.027.115.039.168.07l.187.11-.03.017a2.947 2.947 0 0 1 1.31 2.466 3.054 3.054 0 0 1-1.275 2.437 2.62 2.62 0 0 0 .427.175c.017.005.033.013.05.017a2.826 2.826 0 0 0 .687.088 2.691 2.691 0 0 0 2.713-2.61l.008-.249c-.002-.06-.016-.118-.02-.178a5.643 5.643 0 0 0-.101-.811c-.03-.147-.077-.287-.12-.43a5.522 5.522 0 0 0-.158-.483 5.578 5.578 0 0 0-.424-.841 5.622 5.622 0 0 0-.329-.49c-.071-.093-.152-.18-.23-.269a5.568 5.568 0 0 0-1.913-1.438l-.013-.006a5.537 5.537 0 0 0-.724-.253c-.113-.033-.223-.075-.34-.1l-.144-.038a5.569 5.569 0 0 0-1.036-.1c-.038 0-.074 0-.111.002A5.57 5.57 0 0 0 0 7.094a5.539 5.539 0 0 0 4.78 5.408l.071.026a6.269 6.269 0 0 0 .715.044 6.368 6.368 0 0 0 .915-.091l-.004-.002a5.81 5.81 0 0 1-1.491-.795Z"/><path d="M8.433 1.437h-.074a5.1 5.1 0 0 0-.87.074l.038.017a5.678 5.678 0 0 1 .614.27c.095.047.189.094.28.146a5.744 5.744 0 0 1 .532.34c.1.072.193.15.288.229.12.1.252.182.366.292.035.034.06.075.093.11a5.868 5.868 0 0 1 .4.468 5.782 5.782 0 0 1 .459.666c.08.134.158.267.227.407.075.153.14.308.201.467a5.774 5.774 0 0 1 .178.55c.036.132.077.261.103.396a5.741 5.741 0 0 1 .12 1.009v.228a3.03 3.03 0 0 1-.087.597A2.959 2.959 0 0 1 8.404 9.99a3.194 3.194 0 0 1-1.495-.402l-.194-.108.043-.025a2.946 2.946 0 0 1-1.319-2.453 3.015 3.015 0 0 1 1.283-2.456 2.512 2.512 0 0 0-.27-.114c-.08-.027-.157-.063-.24-.083a2.736 2.736 0 0 0-.392-.05c-.074-.007-.146-.026-.221-.026h-.03a2.701 2.701 0 0 0-2.703 2.623v.21c.004.186.017.37.039.553l.002.02a5.5 5.5 0 0 0 .384 1.444c.047.113.097.224.152.332.057.117.116.233.181.345a5.623 5.623 0 0 0 .337.505q.077.105.159.205a5.626 5.626 0 0 0 .483.525c.037.035.077.066.114.1a5.597 5.597 0 0 0 .563.445c.026.018.05.038.076.055a5.554 5.554 0 0 0 .722.403l.077.035a5.519 5.519 0 0 0 .822.296l1.038.183c.17.013.343.02.517.017a5.567 5.567 0 0 0-.1-11.132Z"/></svg>