<svg data-tags="channel, DCM" xmlns="http://www.w3.org/2000/svg" xmlns:xlink="http://www.w3.org/1999/xlink" viewBox="0 0 14 14"><defs><linearGradient id="brandDoubleClickCampaignManagerClr__a" x1="-131.57" x2="-131.57" y1="-529.05" y2="-526.79" gradientTransform="translate(654.77 2611.89) scale(4.93421)" gradientUnits="userSpaceOnUse"><stop offset="0" stop-opacity=".6"/><stop offset=".6" stop-opacity=".1"/></linearGradient><linearGradient id="brandDoubleClickCampaignManagerClr__b" x1="-131" x2="-131" y1="-526.8" y2="-529.06"/><linearGradient id="brandDoubleClickCampaignManagerClr__c" x1="-131.85" x2="-131.47" y1="-527.71" y2="-526.47" gradientTransform="translate(654.77 2611.89) scale(4.93421)" gradientUnits="userSpaceOnUse"><stop offset="0" stop-opacity=".5"/><stop offset=".75" stop-opacity=".03"/></linearGradient><linearGradient id="brandDoubleClickCampaignManagerClr__c" x1="-132.08" x2="-130.97" y1="-528.21" y2="-528.21" gradientTransform="translate(654.77 2611.89) scale(4.93421)" gradientUnits="userSpaceOnUse"><stop offset="0" stop-opacity=".9"/><stop offset=".6" stop-opacity=".1"/></linearGradient></defs><path fill="#529250" d="M8.4 1.4a5.14 5.14 0 00-1.4.18 5.6 5.6 0 014.2 5.3v.22a2.82 2.82 0 01-2.8 2.7A2.7 2.7 0 017 9.43 2.78 2.78 0 015.6 7 2.83 2.83 0 017 4.56a2.72 2.72 0 00-1.4-.37 2.79 2.79 0 00-2.78 2.7v.21A5.6 5.6 0 108.4 1.4z"/><path fill="#bae649" d="M11.2 6.89a5.6 5.6 0 10-5.6 5.7 5.14 5.14 0 001.38-.19A5.59 5.59 0 012.8 7.1v-.22a2.8 2.8 0 012.8-2.7 2.7 2.7 0 011.38.37A2.78 2.78 0 018.38 7a2.83 2.83 0 01-1.4 2.43 2.98 2.98 0 001.41.38 2.79 2.79 0 002.8-2.7V7a.37.37 0 000-.1z"/><path fill="url(#brandDoubleClickCampaignManagerClr__a)" d="M11.2 6.89a5.6 5.6 0 10-5.6 5.7 5.14 5.14 0 001.38-.19A5.59 5.59 0 012.8 7.1v-.22a2.8 2.8 0 012.8-2.7 2.7 2.7 0 011.38.37A2.78 2.78 0 018.38 7a2.83 2.83 0 01-1.4 2.43 2.98 2.98 0 001.41.38 2.79 2.79 0 002.8-2.7V7a.37.37 0 000-.1z" opacity=".15" /><path fill="url(#brandDoubleClickCampaignManagerClr__b)" d="M8.4 1.4a5.14 5.14 0 00-1.4.18 5.6 5.6 0 014.2 5.3v.22a2.82 2.82 0 01-2.8 2.7A2.7 2.7 0 017 9.43 2.78 2.78 0 015.6 7 2.83 2.83 0 017 4.56a2.72 2.72 0 00-1.4-.37 2.79 2.79 0 00-2.78 2.7v.21A5.6 5.6 0 108.4 1.4z" opacity=".15" /><path fill="url(#brandDoubleClickCampaignManagerClr__c)" d="M7 12.41a5.59 5.59 0 01-4.2-5.3v.02a8.14 8.14 0 002.03 5.42 5.93 5.93 0 00.77.05 6.3 6.3 0 001.4-.19z" opacity=".4" /><path fill="url(#brandDoubleClickCampaignManagerClr__c)" d="M2.83 6.9a2.77 2.77 0 013.41-1.87 1 1 0 00.15.04 2.91 2.91 0 01.62-.5 2.72 2.72 0 00-1.4-.37 2.78 2.78 0 00-2.78 2.7V7a.09.09 0 010-.1z" opacity=".25" /></svg>
