<svg data-tags="mail,email,message,conversation" xmlns="http://www.w3.org/2000/svg" viewBox="0 0 14 14"><path fill="#40a3f5" d="M10.013 5.16l-.002-.003a.22.22 0 00-.31-.04L9.7 5.12 7 7.214l-.634-.494-2.06-1.6a.22.22 0 00-.31.037l-.002.003a.22.22 0 00.037.31l.003.002 1.849 1.437-1.86 1.638a.217.217 0 00-.027.306L4 8.859a.226.226 0 00.167.077.211.211 0 00.147-.057l1.923-1.694.624.483A.217.217 0 007 7.715a.221.221 0 00.138-.047l.644-.498 1.903 1.707a.222.222 0 10.297-.332L8.14 6.892 9.973 5.47a.22.22 0 00.04-.31z"/><path fill="#40a3f5" d="M.002.004v14h14v-14zm10.996 9.288a.538.538 0 01-.537.536H3.542a.538.538 0 01-.536-.536V4.715a.538.538 0 01.536-.536h6.92a.538.538 0 01.536.536z"/></svg>