<svg data-tags="email draft" xmlns="http://www.w3.org/2000/svg" viewBox="0 0 14 14"><path d="M11.795 1.734c-.102.098-.197.19-.294.28l-.709.667-.734.693-1.026.967-.735.69c-.295.277-.586.558-.883.832-.178.164-.35.339-.548.474a1.203 1.203 0 01-1.386-.03c-.221-.167-.416-.368-.62-.558-.305-.283-.608-.57-.91-.855l-.934-.883-.912-.855c-.243-.229-.484-.46-.727-.69l-.74-.697a.362.362 0 01-.038-.042c.05-.06.297-.06.37-.06h10.47c.12 0 .236.01.356.067zm1.641 9.409H14a1.917 1.917 0 01-.812.841c-.418.233-.928.35-1.53.35-.582 0-1.085-.099-1.508-.295a1.986 1.986 0 01-.945-.87 2.603 2.603 0 01-.31-1.254c0-.495.118-.957.353-1.385.234-.428.555-.749.963-.963a2.956 2.956 0 011.397-.322c.445 0 .84.087 1.185.26.346.173.61.418.793.737.182.318.274.666.274 1.043 0 .45-.139.857-.416 1.22-.347.459-.793.688-1.336.688-.146 0-.257-.025-.33-.076a.37.37 0 01-.149-.225 1.006 1.006 0 01-.72.301.966.966 0 01-.729-.303c-.193-.202-.29-.47-.29-.805 0-.415.117-.793.35-1.136.282-.416.644-.624 1.085-.624.314 0 .546.12.696.36l.066-.294h.698l-.4 1.897c-.024.12-.036.198-.036.233 0 .044.01.077.03.1.02.021.045.032.073.032.085 0 .194-.05.328-.153.18-.134.326-.314.437-.54a1.57 1.57 0 00.166-.701c0-.434-.157-.797-.47-1.089-.315-.292-.753-.438-1.316-.438-.478 0-.883.098-1.215.293-.333.195-.583.469-.752.823s-.253.721-.253 1.104c0 .372.094.711.282 1.016s.452.528.791.668c.34.14.728.21 1.166.21.422 0 .784-.058 1.087-.175.304-.117.548-.293.733-.528zm-2.86-1.088c0 .224.045.39.136.495a.429.429 0 00.338.159.57.57 0 00.283-.074.698.698 0 00.198-.167c.094-.107.174-.264.242-.47.068-.207.102-.4.102-.578 0-.199-.046-.352-.139-.459a.444.444 0 00-.35-.16c-.152 0-.292.059-.421.176s-.226.285-.291.502a2.042 2.042 0 00-.098.576z"/><path d="M12.393 2.652c0-.039.004-.079-.004-.116-.016-.08-.038-.157-.062-.254-1.361 1.283-3.412 3.27-4.886 4.657-.001.002-.512.324-.813.393a1.94 1.94 0 01-1.141-.084 1.89 1.89 0 01-.526-.305l-1.7-1.588S1.139 3.282.078 2.282A.748.748 0 000 2.645V9.88c0 .036-.002.073.003.109a.99.99 0 00.132.376l3.503-2.612.348.414c-.29.217-.579.434-.87.65-.418.313-.84.623-1.26.935l-1.163.87c-.043.031-.084.067-.126.1l.004.03c.123.016.246.048.37.048 2.449.002 4.898.001 7.347.001a3.242 3.242 0 01-.172-1c0-.564.155-1.086.406-1.55L8.52 8.25a3.26 3.26 0 012.873-1.726c.352 0 .684.07 1.001.172V2.652z"/></svg>