<svg data-tags="email draft" xmlns="http://www.w3.org/2000/svg" viewBox="0 0 14 14"><circle fill="#40A3F5" cx="7" cy="7" r="7"/><path fill="#FFF" d="M10.629 4.006l-.202.192-.487.458-.504.475-.704.664-.505.473c-.202.19-.402.383-.606.572-.121.112-.24.232-.375.325a.826.826 0 01-.952-.02c-.152-.115-.286-.253-.426-.383-.209-.195-.417-.391-.625-.588l-.64-.606-.626-.586-.5-.474c-.168-.16-.338-.319-.508-.478L2.944 4c.034-.041.203-.04.253-.04h7.188a.54.54 0 01.244.046zm1.126 6.458h.387a1.316 1.316 0 01-.557.578c-.287.16-.637.24-1.05.24-.4 0-.745-.068-1.035-.203a1.363 1.363 0 01-.649-.598 1.787 1.787 0 01-.212-.86c0-.34.08-.657.241-.95.161-.294.382-.515.661-.662.28-.147.6-.22.96-.22.305 0 .576.059.813.178.237.118.419.287.544.505s.188.458.188.717c0 .309-.095.588-.285.837-.239.315-.544.473-.917.473a.4.4 0 01-.227-.053.254.254 0 01-.102-.155.69.69 0 01-.494.208.663.663 0 01-.5-.208c-.133-.14-.2-.323-.2-.554 0-.284.08-.544.24-.779.194-.285.442-.428.745-.428.216 0 .375.082.478.247l.045-.202h.48l-.275 1.302a1.06 1.06 0 00-.025.16c0 .03.007.053.02.068s.031.023.05.023c.059 0 .134-.035.226-.105.124-.092.223-.216.3-.37s.114-.316.114-.482a.979.979 0 00-.323-.748c-.216-.2-.517-.3-.903-.3-.328 0-.606.067-.834.2-.229.134-.4.323-.516.565a1.743 1.743 0 00-.174.759c0 .255.065.488.194.697s.31.362.543.459.5.144.8.144c.29 0 .538-.04.746-.12.209-.081.376-.202.503-.363zm-1.963-.746c0 .153.031.267.094.34.062.072.14.108.231.108a.391.391 0 00.195-.05.479.479 0 00.136-.115.943.943 0 00.166-.323c.047-.142.07-.274.07-.396a.473.473 0 00-.095-.316.305.305 0 00-.241-.11.42.42 0 00-.289.121.743.743 0 00-.2.345c-.045.148-.067.28-.067.396z"/><path fill="#FFF" d="M11.04 4.636c0-.027.002-.054-.003-.08-.011-.054-.026-.108-.043-.174-.934.88-2.342 2.245-3.354 3.197 0 0-.351.222-.558.27a1.332 1.332 0 01-1.144-.268L4.77 6.491s-1.456-1.423-2.185-2.11a.514.514 0 00-.053.25v4.966c0 .025-.002.05.001.075a.68.68 0 00.091.258L5.03 8.137l.238.284c-.198.15-.397.298-.596.447-.288.215-.577.427-.865.641l-.799.597c-.03.022-.057.046-.086.07l.003.02c.084.01.169.033.253.033h5.044a2.225 2.225 0 01-.119-.686c0-.387.107-.746.28-1.064H8.38a2.238 2.238 0 011.972-1.186c.241 0 .47.048.687.118V4.636z"/></svg>