<svg data-tags="eps" xmlns="http://www.w3.org/2000/svg" viewBox="0 0 14 14"><path d="M0 0h14v14H0Z" fill="#fff" fill-rule="evenodd"/><path d="M11.74 7h-1.015a.203.203 0 0 1-.204-.203.212.212 0 0 1 .204-.212h1.545V5.82h-1.545a.98.98 0 0 0 0 1.96h1.001a.203.203 0 0 1 .205.203.198.198 0 0 1-.205.196H9.58a1.496 1.496 0 0 1-.718.797h2.879a.989.989 0 0 0 0-1.977" fill="#5f6360"/><path d="M7.85 5.82a1.57 1.57 0 0 0-1.56 1.575v3.277h.778V8.976h.78a1.578 1.578 0 0 0 .002-3.156Zm0 2.36h-.782v-.788a.784.784 0 1 1 .782.788Z" fill="#5f6360"/><path d="M3.824 8.977a1.583 1.583 0 0 1-1.522-1.214 2.302 2.302 0 0 1-.049-.376 2.48 2.48 0 0 1 .046-.38 1.57 1.57 0 0 1 3.096.376v.381H3.098a.789.789 0 0 0 .726.416h2.065L5.89 5.93a.61.61 0 0 0-.608-.609H2.358a.603.603 0 0 0-.608.601v2.935a.618.618 0 0 0 .608.617h2.927a.606.606 0 0 0 .598-.498Z" fill="#a41760"/><path d="M3.82 6.557A.843.843 0 0 0 3.097 7h1.45a.843.843 0 0 0-.725-.443m1.325-2.19a1.326 1.326 0 0 0-2.65-.035v.399a.092.092 0 0 0 .085.092h.488a.095.095 0 0 0 .09-.092v-.363a.663.663 0 0 1 1.325 0v.363a.093.093 0 0 0 .086.092h.487a.094.094 0 0 0 .09-.092Z" fill="#a41760"/></svg>