<svg data-tags="channel" xmlns="http://www.w3.org/2000/svg" viewBox="0 0 14 14"><defs><clipPath id="solidEskoClr__a"><path fill="none" d="M-.05 5.7h14v2.78h-14z"/></clipPath></defs><g clip-path="url(#solidEskoClr__a)"><path fill="#a6c040" d="M13.95 7.09a1.39 1.39 0 11-1.39-1.4 1.39 1.39 0 011.39 1.4m-.28-.36a.2.2 0 00-.28-.16l-.6.2v-.63a.24.24 0 00-.46 0v.62l-.6-.19a.24.24 0 00-.15.45l.6.2-.37.5a.24.24 0 00.38.28l.37-.51.37.5a.24.24 0 00.38-.27l-.37-.51.6-.2a.2.2 0 00.13-.28"/><path fill="#444c55" d="M.75 6.25h1.41a.26.26 0 000-.51H.76a.73.73 0 00-.81.74V7.7a.73.73 0 00.8.74h1.41a.26.26 0 000-.52H.76c-.3 0-.3-.15-.3-.22v-.35h1.7a.26.26 0 000-.52H.46v-.35c0-.07 0-.23.3-.23"/></g><path fill="#444c55" d="M4.48 6.83h-.85c-.3 0-.3-.2-.3-.29 0-.1 0-.29.3-.29h1.21a.26.26 0 100-.51H3.63a.76.76 0 00-.81.8.76.76 0 00.8.8h.86c.3 0 .3.2.3.3s0 .28-.3.28h-1.4a.26.26 0 000 .52h1.4a.76.76 0 00.81-.8.76.76 0 00-.8-.81m3.31-1a.26.26 0 00-.36-.04l-1.24 1v-.8a.26.26 0 10-.51 0v2.2a.26.26 0 00.51 0v-.8l1.24 1a.26.26 0 10.32-.4l-1.1-.9 1.1-.9a.26.26 0 00.04-.36m-.02.02a.22.22 0 00-.03-.03.22.22 0 01.03.03m-.15-.09a.28.28 0 00-.04 0h.04m.12.05a.23.23 0 00-.04-.02.23.23 0 01.04.02M7.7 5.8a.21.21 0 00-.04-.02.21.21 0 01.04.02m-.04-.02a.22.22 0 00-.04 0 .22.22 0 01.04 0m-.18.02a.25.25 0 00-.04.02.25.25 0 01.04-.02m.08-.03h-.02.02m-.04.01l-.03.01h.03m2.31-.05h-.9a.73.73 0 00-.8.74V7.7a.73.73 0 00.8.74h.9a.73.73 0 00.81-.74V6.48a.73.73 0 00-.8-.74m-1.2.74c0-.07 0-.23.29-.23h.9c.3 0 .3.16.3.23V7.7c0 .07 0 .22-.3.22h-.9c-.29 0-.29-.15-.29-.22V6.48z"/></svg>
