<svg data-tags="exact target" xmlns="http://www.w3.org/2000/svg" viewBox="0 0 14 14"><circle cx="7" cy="7" r="7" fill="#E98300"/><path fill="#FFF" d="M4.24 10.957h-.516c-.153-.002-.22-.099-.158-.24.036-.08.09-.152.141-.223.806-1.12 1.612-2.24 2.421-3.357.071-.098.074-.162 0-.264A692.027 692.027 0 013.62 3.406a.433.433 0 01-.076-.175c-.019-.111.04-.184.153-.185.358-.004.716-.012 1.074.006.09.005.202.082.258.16.9 1.23 1.79 2.466 2.687 3.698.054.074.055.12.002.191-.6.822-1.197 1.645-1.795 2.469-.297.41-.597.818-.892 1.229-.08.11-.176.167-.317.16-.158-.009-.316-.002-.475-.002zM8.273 6.33l-.782-1.077.901-1.246c.191-.263.384-.525.572-.79a.38.38 0 01.34-.176c.317.005.633-.003.949.005.065.002.168.036.184.08a.297.297 0 01-.027.232c-.134.211-.287.41-.433.615A5888.03 5888.03 0 008.273 6.33zm-.001 1.354l.667.922c.467.648.935 1.296 1.399 1.946a.7.7 0 01.115.232c.024.104-.034.172-.146.172-.362.001-.725.007-1.088-.006A.332.332 0 019 10.827 194.96 194.96 0 017.54 8.82c-.018-.026-.023-.085-.006-.11.238-.336.48-.67.738-1.027z"/></svg>