<svg data-tags="exact target" xmlns="http://www.w3.org/2000/svg" viewBox="0 0 14 14"><path d="M2.154 13.948c-.302 0-.605.002-.907 0-.27-.003-.388-.172-.277-.42a2.282 2.282 0 01.248-.392q2.123-2.95 4.251-5.895a.328.328 0 00-.001-.464Q3.258 3.74 1.066.689A.76.76 0 01.933.381a.253.253 0 01.268-.326C1.83.05 2.459.035 3.087.067a.698.698 0 01.453.28c1.58 2.16 3.144 4.331 4.72 6.495a.237.237 0 01.003.336q-1.58 2.164-3.153 4.335c-.522.719-1.047 1.436-1.566 2.158a.6.6 0 01-.557.281c-.277-.015-.555-.003-.833-.003zm7.082-8.124L7.862 3.932l1.583-2.188c.335-.462.674-.922 1.003-1.388a.668.668 0 01.6-.308c.554.007 1.11-.006 1.664.008.114.003.295.063.324.14a.52.52 0 01-.047.409c-.236.37-.504.72-.762 1.078L9.236 5.824zM9.234 8.2l1.17 1.62q1.231 1.708 2.458 3.418a1.221 1.221 0 01.202.407c.042.182-.06.301-.256.302-.636.002-1.274.012-1.91-.01a.582.582 0 01-.385-.217 342.593 342.593 0 01-2.564-3.522.209.209 0 01-.01-.192c.416-.592.843-1.179 1.295-1.806z"/></svg>