<svg data-tags="facebook,messenger" xmlns="http://www.w3.org/2000/svg" viewBox="0 0 14 14"><defs><radialGradient id="facebookMessenger_clr__a" cx="59.788" cy="-751.933" r=".019" gradientTransform="matrix(800 0 0 799.99847 -47828 601558.838)" gradientUnits="userSpaceOnUse"><stop offset="0" stop-color="#09f"/><stop offset=".61" stop-color="#a033ff"/><stop offset=".935" stop-color="#ff5280"/><stop offset="1" stop-color="#ff7061"/></radialGradient></defs><path fill="url(#facebookMessenger_clr__a)" d="M7 0a6.756 6.756 0 00-7 6.79 6.644 6.644 0 002.198 5.022.553.553 0 01.187.399l.039 1.246a.56.56 0 00.786.495l1.389-.612a.563.563 0 01.374-.028 7.657 7.657 0 002.027.27 6.756 6.756 0 007-6.79A6.758 6.758 0 007-.002z"/><path fill="#fff" d="M2.796 8.776l2.057-3.262a1.05 1.05 0 011.519-.28L8.008 6.46a.42.42 0 00.506-.001l2.208-1.677a.333.333 0 01.483.443l-2.058 3.26a1.05 1.05 0 01-1.519.28L5.992 7.538a.42.42 0 00-.506.002L3.278 9.217a.332.332 0 01-.482-.441z"/></svg>