<svg data-tags="brand,facebook" xmlns="http://www.w3.org/2000/svg" viewBox="0 0 70 14"><path fill="#4526ce" d="M50.394 2.14h-1.348v7.564h1.348V2.14zm11.991 5.58a1.227 1.227 0 01-1.258.908c-.94 0-1.457-.722-1.457-1.685 0-.964.501-1.686 1.437-1.686a1.24 1.24 0 011.27.94l1.278-.326a2.514 2.514 0 00-2.583-1.776 2.72 2.72 0 00-2.804 2.851 2.723 2.723 0 002.804 2.852 2.582 2.582 0 002.599-1.74zm6.22.143a1.174 1.174 0 01-1.283.812A1.487 1.487 0 0165.8 7.217h4.074a4.485 4.485 0 00.024-.462 2.54 2.54 0 00-2.684-2.66 2.639 2.639 0 00-2.708 2.827 2.768 2.768 0 002.816 2.87 2.49 2.49 0 002.517-1.611zM67.21 5.1a1.264 1.264 0 011.336 1.224H65.83A1.297 1.297 0 0167.21 5.1zm-24.78 6.643h1.337V9.101a1.911 1.911 0 001.565.692 2.607 2.607 0 002.661-2.851A2.554 2.554 0 0045.43 4.09a1.993 1.993 0 00-1.667.776l-.256-.691h-1.08v7.567zm2.751-3.116a1.506 1.506 0 01-1.503-1.685 1.503 1.503 0 112.983 0 1.504 1.504 0 01-1.48 1.685zM54.22 9.79a1.863 1.863 0 001.589-.734l.256.644h1.096V4.18h-1.092l-.256.626a2.002 2.002 0 00-1.609-.71 2.554 2.554 0 00-2.606 2.85A2.547 2.547 0 0054.22 9.79zm.187-1.162a1.502 1.502 0 01-1.48-1.685 1.503 1.503 0 112.983 0 1.509 1.509 0 01-1.503 1.685zm-35.283.637l1.157-3.278L21.42 9.25a.81.81 0 001.526.012L24.8 4.176h-1.336l-1.282 3.85-1.119-3.372a.818.818 0 00-1.554 0L18.39 8.025l-1.274-3.85h-1.348l1.876 5.097a.784.784 0 001.48-.008zm8.833.517A2.773 2.773 0 0030.84 6.93a2.888 2.888 0 00-5.777 0 2.776 2.776 0 002.894 2.851zm0-1.157a1.535 1.535 0 01-1.534-1.686 1.536 1.536 0 113.057 0 1.53 1.53 0 01-1.523 1.686zM35.283 5.4V4.117a2.775 2.775 0 00-.408-.026 1.985 1.985 0 00-1.666.78l-.256-.691h-1.08v5.524h1.336V6.942a1.617 1.617 0 01.563-1.383 1.758 1.758 0 011.511-.16zm2.335-3.26H36.27v7.564h1.348V2.14zm3.76 2.04H39.82l-1.46 1.962a1.318 1.318 0 00.019 1.604l1.53 1.954h1.66L39.26 6.895zM6.962.039a6.063 6.063 0 014.816 9.746 1.35 1.35 0 01-1.033.552c-.738 0-.975-.529-1.196-1.088L8.442 6.53 7.339 9.25c-.187.461-.393 1.09-1.2 1.09s-1.01-.625-1.201-1.09L3.08 4.676h1.565L6.137 8.44 7.25 5.7c.175-.436.385-1.092 1.189-1.092s1.014.656 1.188 1.092l1.209 2.971a4.652 4.652 0 00-3.881-7.213 5.488 5.488 0 00-3.877 9.37 5.491 5.491 0 005.9 1.223l.521 1.317A6.915 6.915 0 01.595 9.63 6.913 6.913 0 014.27.579a6.941 6.941 0 012.692-.54z"/></svg>