<svg data-tags="brand,facebook" xmlns="http://www.w3.org/2000/svg" viewBox="0 0 14 14"><circle cx="7" cy="7" r="6.976" fill="#4526ce"/><path fill="#fff" d="M7.314 2.242a4.2 4.2 0 013.337 6.75.934.934 0 01-.717.384c-.51 0-.674-.366-.829-.755L8.34 6.738l-.763 1.883c-.13.32-.27.755-.828.755-.559 0-.703-.436-.833-.755L4.631 5.453h1.085l1.033 2.606.769-1.9c.12-.299.267-.756.822-.756.555 0 .702.453.825.756l.836 2.058a3.216 3.216 0 00-2.683-4.991 3.8 3.8 0 101.397 7.333l.362.913a4.796 4.796 0 01-1.76.334 4.74 4.74 0 01-1.86-.376A4.814 4.814 0 012.91 8.887a4.788 4.788 0 012.546-6.265 4.676 4.676 0 011.858-.38z"/></svg>