<svg data-tags="facebook,workplace" xmlns="http://www.w3.org/2000/svg" viewBox="0 0 14 14"><path fill="#3f2fc5" d="M0 0h14v14H0z"/><path d="M7.29 2.218a4.2 4.2 0 0 1 3.336 6.75.934.934 0 0 1-.716.383c-.51 0-.674-.365-.83-.755l-.765-1.882-.762 1.882c-.13.32-.27.755-.829.755-.558 0-.702-.435-.832-.755L4.606 5.428h1.086l1.032 2.606.77-1.9c.119-.298.266-.755.821-.755.555 0 .703.453.826.755l.836 2.058a3.216 3.216 0 0 0-2.684-4.99 3.8 3.8 0 1 0 1.398 7.333l.362.913a4.796 4.796 0 0 1-1.76.334 4.74 4.74 0 0 1-1.861-.376 4.78 4.78 0 0 1 0-8.809 4.677 4.677 0 0 1 1.858-.379Z" fill="#fff"/></svg>