<svg data-tags="facebook" xmlns="http://www.w3.org/2000/svg" viewBox="0 0 14.029 2.718"><defs><clipPath id="brand_facebookText_clr__a"><path fill="none" d="M0 0h14v2.718H0z"/></clipPath></defs><g clip-path="url(#brand_facebookText_clr__a)"><path d="M.895 2.67H.367V1.354h-.36V.925h.36V.62c0-.36.16-.62.686-.62.112 0 .286.022.286.022V.42h-.183c-.188 0-.26.057-.26.215v.29h.436l-.038.429H.895ZM2.108.89h-.024c-.49 0-.714.369-.714.891 0 .659.29.922.718.922a.516.516 0 0 0 .503-.294v.26h.502V.925h-.502v.269A.515.515 0 0 0 2.108.89Zm.127.412c.206 0 .33.144.33.388v.249a.334.334 0 0 1-.33.356c-.35 0-.34-.377-.34-.503 0-.423.186-.49.34-.49Zm1.061.495A.795.795 0 0 1 4.19.892a.896.896 0 0 1 .515.115l-.122.378a.796.796 0 0 0-.348-.083.377.377 0 0 0-.414.404v.184a.385.385 0 0 0 .414.413.867.867 0 0 0 .345-.084l.122.37a.833.833 0 0 1-.509.116.797.797 0 0 1-.897-.907ZM7.652.89c.49 0 .717.369.717.891 0 .659-.29.922-.718.922a.546.546 0 0 1-.522-.294v.26h-.496V.053l.526-.046V1.17a.523.523 0 0 1 .493-.279Zm-.148.412a.342.342 0 0 0-.345.388v.249a.334.334 0 0 0 .345.356c.35 0 .34-.377.34-.503 0-.423-.186-.49-.34-.49ZM5.62.893a.76.76 0 0 0-.849.84v.1c0 .699.412.879.903.879a1.414 1.414 0 0 0 .694-.134l-.099-.355a1.538 1.538 0 0 1-.531.108c-.288 0-.412-.073-.444-.35H6.41v-.285a.71.71 0 0 0-.79-.803Zm.014.356c.192 0 .317.118.31.39h-.649c.012-.287.146-.39.339-.39ZM9.42.89a.795.795 0 0 0-.871.897.801.801 0 0 0 .872.917.798.798 0 0 0 .863-.91A.8.8 0 0 0 9.42.89Zm-.007.414c.25 0 .35.187.35.4v.184c0 .26-.139.409-.351.409-.199 0-.338-.14-.338-.409v-.183c0-.286.166-.401.339-.401ZM11.334.89a.795.795 0 0 0-.871.897.801.801 0 0 0 .872.917.798.798 0 0 0 .863-.91.8.8 0 0 0-.864-.904Zm-.007.414c.25 0 .35.187.35.4v.184c0 .26-.139.409-.351.409-.199 0-.338-.14-.338-.409v-.183c0-.286.166-.401.339-.401Zm1.07 1.365V.053l.529-.046v1.754l.524-.836h.558l-.547.866.568.879h-.56l-.543-.854v.854Z" fill="#3578e9"/></g></svg>