<svg data-tags="facebook,verified" xmlns="http://www.w3.org/2000/svg" viewBox="0 0 14 14"><circle cx="7.018" cy="6.995" r="7" fill="#dceafc"/><path d="M7.014 12.597a5.602 5.602 0 1 1 5.6-5.462 5.598 5.598 0 0 1-5.6 5.462ZM3.841 7.672a.214.214 0 0 0 .067.186 1.872 1.872 0 0 0 .23.17c.507.348.988.732 1.493 1.082a4.103 4.103 0 0 0 .602.38.412.412 0 0 0 .458-.052 3.791 3.791 0 0 0 .493-.503c.246-.279.485-.564.73-.844.273-.314.55-.625.823-.938q.47-.537.937-1.076c.153-.178.313-.35.45-.542.104-.143.097-.214-.029-.337a.753.753 0 0 0-.082-.07c-.179-.131-.355-.266-.539-.39a1.809 1.809 0 0 0-.48-.279.142.142 0 0 0-.16.039c-.2.2-.378.418-.561.632-.188.22-.373.442-.56.662-.253.297-.509.591-.761.889-.207.244-.412.49-.632.724-.074.078-.073.077-.166.014-.153-.105-.298-.221-.445-.335-.228-.177-.45-.363-.69-.524-.133-.088-.15-.087-.268.017a7.713 7.713 0 0 0-.8.834.384.384 0 0 0-.11.26Z" fill="#5c92fd"/><path d="M3.841 7.672a.384.384 0 0 1 .11-.261 7.713 7.713 0 0 1 .8-.834c.118-.104.135-.105.268-.017.24.16.462.347.69.524.147.114.292.23.446.335.092.063.092.064.165-.014.22-.233.425-.48.632-.724.252-.298.508-.592.761-.89.187-.22.372-.442.56-.661.183-.214.362-.432.56-.632a.142.142 0 0 1 .16-.039 1.809 1.809 0 0 1 .481.279c.184.124.36.259.54.39a.753.753 0 0 1 .081.07c.126.123.133.194.03.337-.138.191-.298.364-.451.542q-.466.54-.937 1.076c-.274.313-.55.624-.823.938-.245.28-.484.565-.73.844a3.791 3.791 0 0 1-.493.503.412.412 0 0 1-.458.051 4.103 4.103 0 0 1-.602-.379c-.505-.35-.986-.734-1.492-1.082a1.872 1.872 0 0 1-.23-.17.214.214 0 0 1-.068-.186Z" fill="#fbfcfa"/></svg>