<svg data-tags="facebook,messenger" xmlns="http://www.w3.org/2000/svg" viewBox="0 0 14 14"><defs><radialGradient id="facebookMessenger_clr__a" cx="12.467" cy="-751.936" r=".011" gradientTransform="matrix(800 0 0 799.99847 -9969.418 601558.838)" gradientUnits="userSpaceOnUse"><stop offset="0" stop-color="#09f"/><stop offset=".61" stop-color="#a033ff"/><stop offset=".935" stop-color="#ff5280"/><stop offset="1" stop-color="#ff7061"/></radialGradient></defs><rect width="14" height="14" fill="#f2f2f2" rx="7"/><path fill="url(#facebookMessenger_clr__a)" d="M7 3a3.86 3.86 0 00-4 3.88 3.797 3.797 0 001.256 2.87.316.316 0 01.107.228l.022.712a.32.32 0 00.449.283l.794-.35a.321.321 0 01.214-.016A4.376 4.376 0 007 10.76 3.882 3.882 0 107 3z"/><path fill="#fff" d="M4.598 8.015L5.773 6.15a.6.6 0 01.868-.16l.935.7a.24.24 0 00.289 0l1.262-.958a.19.19 0 01.276.253L8.227 7.849a.6.6 0 01-.868.16l-.935-.701a.24.24 0 00-.289 0l-1.262.959a.19.19 0 01-.275-.252z"/></svg>