<svg data-tags="brand,fluidweb" xmlns="http://www.w3.org/2000/svg" viewBox="0 0 14 14"><path fill="#071a39" d="M0 0h14v14H0z"/><path fill="#fecf62" d="M6.706 5.155a.62.62 0 00-.883.107l-1.497 1.5a1.268 1.268 0 00-.035 1.806c.051.056.107.108.166.169.035-.033.066-.061.096-.091q.753-.754 1.505-1.51a.244.244 0 01.198-.082c.224.007.449.003.698.003a4.593 4.593 0 00.004.538.532.532 0 01-.194.49c-.47.449-.922.916-1.382 1.375a.965.965 0 01-.12.086l1.64 1.642a2.431 2.431 0 01-2.315-.683q-.552-.547-1.098-1.1a2.407 2.407 0 01-.248-3.146 4.416 4.416 0 01.464-.52q1.453-1.46 2.911-2.912c.025-.024.051-.046.09-.08zm.489 4.615c.145-.147.293-.298.443-.448q.535-.537 1.072-1.073a.643.643 0 00.155-.937h2.365L7.995 10.58z"/></svg>