<svg xmlns="http://www.w3.org/2000/svg" viewBox="0 0 14 14"><circle fill="#F94877" cx="7" cy="7" r="7"/><path fill="#FFF" d="M8.88 3.25c-1.236.02-2.473.042-3.71.065-.595.011-.829.252-.819.84l.052 3.002c.018 1.025.037 2.05.054 3.076.003.216.048.411.277.493.224.08.367-.055.498-.212.546-.657 1.097-1.31 1.638-1.971.129-.158.263-.242.474-.233.3.012.602-.006.903-.012.447-.008.63-.144.712-.574.23-1.211.455-2.423.665-3.638.106-.61-.118-.846-.743-.836zM8.8 4.44c-.036.232-.088.462-.127.694-.033.194-.15.273-.339.276-.456.005-.911.014-1.367.024-.298.006-.393.098-.388.37.004.278.101.37.393.366.375-.004.749-.015 1.123-.018.258-.001.35.108.312.366-.035.232-.078.464-.118.696-.035.206-.147.31-.367.306-.3-.005-.602.017-.903.01a.55.55 0 0 0-.48.234c-.357.454-.721.902-1.084 1.352-.05.062-.105.12-.21.239-.01-.154-.02-.232-.02-.31a3438.38 3438.38 0 0 1-.08-4.541c-.006-.345.047-.403.385-.409.977-.018 1.953-.035 2.93-.05.317-.006.388.074.34.394z"/></svg>