<svg xmlns="http://www.w3.org/2000/svg" viewBox="0 0 9.994 14"><path fill="#FFF" d="M.998.912l8.265.073-.715 4.325-.77 3.408-3.573.422-1.466 1.942-1.448 1.191L.87 8.26z"/><path fill="#EE4A78" d="M.001 7.215V1.556C.001.449.45.003 1.572.002 3.903 0 6.234 0 8.565.002c1.178.001 1.592.453 1.373 1.599a439.01 439.01 0 01-1.372 6.832c-.168.809-.518 1.058-1.361 1.059-.568.001-1.136.024-1.702-.008-.398-.023-.653.131-.901.424-1.04 1.228-2.101 2.44-3.151 3.659-.252.292-.526.542-.945.384-.428-.162-.506-.532-.506-.939.002-1.933.001-3.865.001-5.797zm1.512 4.169c.201-.22.307-.327.404-.442.698-.836 1.399-1.668 2.087-2.512.242-.297.521-.44.912-.424.567.023 1.135-.009 1.702.01.413.013.628-.178.701-.566.082-.436.171-.87.244-1.308.081-.484-.089-.693-.575-.699-.705-.008-1.411 0-2.117-.003-.551-.003-.73-.179-.729-.702.001-.514.182-.684.743-.686.859-.003 1.718-.004 2.577 0 .357.002.58-.143.648-.509.081-.436.187-.867.261-1.304.102-.602-.03-.755-.627-.756-1.841-.002-3.681-.002-5.522 0-.636.001-.739.107-.739.758-.001 2.853-.001 5.706.001 8.558-.001.147.014.294.029.585z"/></svg>