<svg data-tags="freshdesk" xmlns="http://www.w3.org/2000/svg" viewBox="0 0 14 14"><path fill="#25c16f" d="M6.98 0h5.25A1.75 1.75 0 0114 1.73v5.29A6.98 6.98 0 017.02 14h-.04A6.98 6.98 0 010 7.03 7.03 7.03 0 016.98 0z"/><path fill="#fff" d="M6.98 3.12a3.2 3.2 0 00-3.21 3.2V8.5a1.09 1.09 0 001.07 1.07h.9v-2.5H4.52v-.7a2.49 2.49 0 014.97 0v.7H8.25v2.5h.82v.04a1 1 0 01-.99.99H7.1c-.08 0-.16.04-.16.11a.17.17 0 00.16.17h.99a1.28 1.28 0 001.27-1.27v-.08a1.05 1.05 0 00.82-1.03V6.36a3.17 3.17 0 00-3.2-3.24z"/></svg>