<svg data-tags="freshdesk" xmlns="http://www.w3.org/2000/svg" viewBox="0 0 14 14"><rect width="14" height="14" fill="#25c16f" rx="7"/><path fill="#fff" d="M9.67 3.29h-3a4.02 4.02 0 00-4 4.01 3.99 3.99 0 004 3.99h.02a3.99 3.99 0 003.98-3.99V4.28a1 1 0 00-1-1zM8.49 8.14a.6.6 0 01-.47.6v.04a.73.73 0 01-.72.73h-.57a.1.1 0 01-.1-.1c0-.04.06-.07.1-.07h.56a.57.57 0 00.57-.56v-.02h-.47V7.33h.7v-.4a1.42 1.42 0 00-2.83 0v.4h.7v1.43h-.52a.62.62 0 01-.61-.61V6.9a1.83 1.83 0 011.83-1.83A1.8 1.8 0 018.5 6.93z"/></svg>