<svg xmlns="http://www.w3.org/2000/svg" viewBox="0 0 13.894 14"><g fill-rule="evenodd" clip-rule="evenodd"><path d="M11.599 8.4l1.45-2.069s-1.729-1.885-4.47-1.826-4.146.851-4.592 2.312c-.446 1.461-.183 3.111.604 3.53l-1.329 2.069-.604.122-.121-1.583-1.571-.487.604-1.583L0 7.669l1.329-1.217L.121 5.235l1.691-.974-.362-1.705h1.812V.852l1.812.609L5.92 0l1.45 1.217L8.699.121l.846 1.583 1.692-.365v1.826h1.691l-.604 1.704 1.571 1.096-1.087 1.339.967 1.339-1.087.609-1.089-.852z"/><path d="M10.753 8.034l.967-1.583s-.975-.984-3.262-.974c-2.287.011-3.608.817-3.625 2.192-.017 1.375.198 2.061.966 2.435.768.374 2.889.495 3.262.852.374.357.791 1.189-.846 1.217-1.637.028-2.779-.974-2.779-.974l-1.208 1.583s1.485 1.194 3.262 1.217c1.777.023 4.308-.475 4.47-1.948.163-1.473-.099-2.292-.967-2.678-.866-.386-3.653-.608-3.623-1.46.03-.853.955-.789 1.571-.609.616.18 1.812.73 1.812.73z"/></g></svg>