<svg data-tags="channel" xmlns="http://www.w3.org/2000/svg" viewBox="0 0 14 14"><path fill="#020202" d="M6.07 5.73h.17v.25h-.17zm0 .58h.17v1.47h-.17z"/><path fill="#020202" fill-rule="evenodd" d="M8.17 6.28a.64.64 0 00-.5.27.37.37 0 00-.36-.27.62.62 0 00-.5.25v-.22h-.17v1.47h.17V6.69a.67.67 0 01.45-.28.23.23 0 01.25.25v1.12h.18V6.69a.67.67 0 01.44-.28.23.23 0 01.26.25v1.12h.17v-1.1a.35.35 0 00-.4-.4zm1.76.46c0-.33-.16-.46-.5-.46a.58.58 0 00-.56.33l.12.07a.51.51 0 01.43-.27c.26 0 .34.1.34.3v.1c-.62.14-.96.21-.96.61a.38.38 0 00.42.39.79.79 0 00.54-.21l.02.18h.17a1.61 1.61 0 01-.02-.27zm-.18.69a.78.78 0 01-.5.24.24.24 0 01-.27-.25c0-.19.09-.33.77-.47zm1.1.09c-.4 0-.46-.04-.46-.13 0-.05.04-.1.14-.14a.7.7 0 00.24.04c.32 0 .58-.15.58-.51a.44.44 0 00-.1-.3.34.34 0 01.23-.08v-.15a.44.44 0 00-.31.13.6.6 0 00-.35-.1.53.53 0 00-.6.53.47.47 0 00.22.38.28.28 0 00-.22.25c0 .13.09.17.2.2-.21.08-.27.18-.27.31 0 .18.14.35.66.35s.68-.19.68-.4c0-.24-.19-.38-.64-.38zm-.45-.73a.36.36 0 01.39-.38.34.34 0 01.39.38c0 .26-.15.37-.4.37a.35.35 0 01-.38-.37zm.38 1.37c-.3 0-.45-.1-.45-.24 0-.13.1-.25.44-.25.45 0 .55.12.55.24 0 .15-.16.25-.54.25zm1.44-.49c-.34 0-.48-.29-.48-.62h1.04c0-.46-.2-.77-.6-.77-.38 0-.61.3-.61.76 0 .52.25.77.64.77a.61.61 0 00.59-.36l-.14-.08c-.15.24-.25.3-.44.3zm-.04-1.26c.26 0 .4.2.43.5h-.87a.48.48 0 01.44-.5zm.94.26c0-.18.13-.26.3-.26a.45.45 0 01.38.22l.14-.09a.56.56 0 00-.52-.26c-.25 0-.47.12-.47.4 0 .52.88.28.88.71a.3.3 0 01-.34.28.5.5 0 01-.46-.25l-.13.09a.67.67 0 00.58.3c.27 0 .52-.16.52-.42 0-.57-.88-.36-.88-.72zM.97 6.44a.57.57 0 00-.35-.13.51.51 0 00-.56.5.47.47 0 00.21.38c-.06.02-.22.12-.22.26 0 .15.14.19.2.23a.25.25 0 00-.25.27c0 .23.25.34.64.34.46 0 .66-.22.66-.42 0-.58-.94-.26-.94-.5 0-.08.12-.08.27-.08.36 0 .54-.2.54-.46a.42.42 0 00-.08-.26.45.45 0 01.22-.03v-.23a.37.37 0 00-.34.13zm-.41 1.3c.33 0 .43.1.43.17 0 .05-.08.16-.3.16-.28 0-.38-.05-.38-.16 0-.07.06-.17.25-.17zm.06-.7a.24.24 0 110-.48.24.24 0 010 .48zm1.35-.73c-.39 0-.62.29-.62.74s.23.75.6.75a.65.65 0 00.6-.3l-.25-.15a.38.38 0 01-.32.17c-.15 0-.29-.12-.3-.41h.87v-.14a.6.6 0 00-.58-.66zm-.28.57c0-.2.1-.32.27-.32s.27.12.28.32zm3.54.34h-.01l-.24-.88h-.34l.38 1.22a.71.71 0 01.05.17.37.37 0 01-.06.17.22.22 0 01-.22.11.64.64 0 01-.15-.01v.28a1.07 1.07 0 00.17.01c.28 0 .4-.1.55-.52l.45-1.43h-.34zM3.2 5.9h-.37v.44h-.22v.28h.22v.85c0 .2.11.33.39.33a2.68 2.68 0 00.3-.02V7.5a.9.9 0 01-.18.02c-.09 0-.13-.02-.13-.1v-.8h.3v-.28h-.3zm.99 0H3.8v.44h-.2v.28h.21v.85c0 .2.11.33.4.33a2.68 2.68 0 00.29-.02V7.5a.9.9 0 01-.17.02c-.1 0-.14-.02-.14-.1v-.8h.3v-.28h-.3z"/></svg>