<svg data-tags="giropay" xmlns="http://www.w3.org/2000/svg" viewBox="0 0 14 14"><path d="M0 0h14v14H0Z" fill="#fff" fill-rule="evenodd"/><path d="M1.75 4.896A1.194 1.194 0 0 1 2.96 3.72h8.08a1.194 1.194 0 0 1 1.21 1.177v4.208a1.194 1.194 0 0 1-1.21 1.177H2.96a1.194 1.194 0 0 1-1.21-1.177Zm.446 4.2a.757.757 0 0 0 .766.748h4.03V4.156h-4.03a.757.757 0 0 0-.766.748v4.192Zm6.015-.045h.994V7.489h.011a1 1 0 0 0 .912.469c.856 0 1.314-.707 1.314-1.557a1.342 1.342 0 0 0-1.231-1.452 1.135 1.135 0 0 0-1.072.585h-.011v-.518h-.917Zm2.204-2.628c0 .458-.226.773-.602.773a.674.674 0 0 1-.608-.734c0-.43.243-.75.608-.75a.636.636 0 0 1 .602.71Z" fill="#04337b" fill-rule="evenodd"/><path d="M6.192 5.015v2.498c0 1.163-.582 1.538-1.758 1.538a3.481 3.481 0 0 1-1.114-.18l.05-.771a2.054 2.054 0 0 0 .986.233c.582 0 .896-.266.896-.82v-.152H5.24a1.148 1.148 0 0 1-.98.483 1.287 1.287 0 0 1-1.299-1.422c0-.842.41-1.473 1.316-1.473a1.146 1.146 0 0 1 .992.577h.01v-.511Zm-2.189 1.39a.612.612 0 0 0 .571.69.669.669 0 0 0 .645-.728.627.627 0 0 0-.644-.669c-.375 0-.572.322-.572.707Z" fill="#ee3525" fill-rule="evenodd"/></svg>