<svg xmlns="http://www.w3.org/2000/svg" viewBox="0 0 14 14"><path d="M10.0552 7.6132V5.1465c0-.1956-.0001-.1958-.1897-.196q-.4329-.0002-.8658 0c-.1834.0002-.1837.0004-.1837.1868 0 1.584-.002 3.168.0034 4.752.0005.1383-.0395.1662-.1708.1658-1.5407-.0047-3.0813-.0012-4.622-.0063-.1317-.0004-.1538.0396-.142.158a1.237 1.237 0 001.219 1.086q1.8433.0031 3.6865.0005a1.231 1.231 0 001.2651-1.2693V7.6132zM3.8816 6.334c0 .836.0022 1.672-.0025 2.5078-.0006.1244.0284.173.163.1686.2975-.01.5956-.003.8934-.0031.1843 0 .1845-.0001.1845-.1832.0001-1.5883.002-3.1766-.0033-4.765-.0004-.1321.0395-.1564.162-.156 1.5448.004 3.0898.0006 4.6347.006.1356.0005.1527-.0428.1347-.1584a1.2289 1.2289 0 00-1.2482-1.0842q-1.8288-.0083-3.6576-.0002a1.2234 1.2234 0 00-1.2607 1.2712q-.0004 1.1982 0 2.3965zM14 7a7 7 0 11-7-7 7 7 0 017 7z" fill="#0caa41"/><path d="M10.0813 7.6132v2.4109a1.231 1.231 0 01-1.2651 1.2692q-1.8432.0005-3.6864-.0005a1.237 1.237 0 01-1.219-1.086c-.0119-.1184.0103-.1584.142-.158 1.5406.0052 3.0813.0017 4.6219.0063.1313.0004.1713-.0275.1708-.1657-.0053-1.584-.0034-3.168-.0033-4.7521 0-.1864.0002-.1866.1837-.1867q.4328-.0003.8657 0c.1896 0 .1897.0003.1897.196v2.4666z" fill="#fafdfb"/><path d="M3.9097 6.334V3.9376a1.2234 1.2234 0 011.2607-1.2713q1.8288-.0076 3.6576.0002a1.2289 1.2289 0 011.2482 1.0842c.018.1156.0009.1589-.1347.1584-1.545-.0055-3.0899-.0021-4.6348-.0061-.1224-.0003-.1623.024-.162.1562.0053 1.5883.0035 3.1766.0034 4.7649 0 .183-.0002.1831-.1845.1832-.2978 0-.5959-.0068-.8934.003-.1346.0045-.1636-.0441-.163-.1685.0047-.836.0025-1.6719.0025-2.5078z" fill="#fdfefd"/></svg>