<svg xmlns="http://www.w3.org/2000/svg" viewBox="0 0 14 14"><rect x=".0124" y=".0124" width="13.9751" height="13.9751" rx="1" fill="#0daa41"/><path d="M3.173 6.2025l.0002-3.0387a1.509 1.509 0 011.5234-1.5173q2.315-.0003 4.63.0002a1.5264 1.5264 0 011.495 1.3644c.0117.128-.0087.173-.1537.1727Q7.7811 3.1755 4.8943 3.18c-.1868 0-.1868 0-.1868.1804v5.9659c0 .1876-.0001.1877-.1907.1877-.3998 0-.7996-.0045-1.1993.0027-.119.0022-.1471-.0367-.1467-.1501.0038-1.0547.0023-2.1094.0023-3.1642z" fill="#fdfefd"/><path d="M10.8261 7.7843l-.0001 2.9827a1.5255 1.5255 0 01-1.5885 1.5866q-2.28 0-4.56-.0004a1.533 1.533 0 01-1.503-1.3722c-.0098-.1247.0125-.1647.1485-.1644 1.9337.0048 3.8674.0017 5.801.0066.1345.0004.1668-.0315.1664-.1661-.0048-2.0024-.002-4.0048-.0063-6.0072-.0003-.1365.0395-.1742.1726-.1716q.5994.0116 1.1991 0c.1322-.0026.1742.0326.1734.17-.0057 1.0453-.003 2.0907-.003 3.136z" fill="#fdfefd"/></svg>