<svg data-tags="Global Relay" xmlns="http://www.w3.org/2000/svg" viewBox="0 0 14 14"><path fill="#c63a37" d="M0 0h14v14H0z"/><path d="M9.568 3.12c-.167-.211-.803-.311-1.675-.236a.017.017 0 0 0 .002.034v.001c1.233.017 1.236.281 1.243.275.038.107-.548.403-2.117.427-1.45.023-2.217-.269-2.262-.507-.05-.265.222-.31.404-.36v-.002a.011.011 0 0 0 .007-.01.012.012 0 0 0-.013-.012l-.005.002v-.001c-.25.017-.603.166-.557.44.08.463 1.072.803 2.614.794a4.544 4.544 0 0 0 2.157-.45c.29-.158.241-.344.202-.395M9.452 10.445c-.163-.206-.784-.304-1.635-.23a.017.017 0 0 0 .002.033v.001c1.204.016 1.206.275 1.213.268.037.105-.535.393-2.066.417-1.415.022-2.115-.27-2.223-.481a.341.341 0 0 1 .105-.391v-.001a.012.012 0 0 0 .006-.01.013.013 0 0 0-.013-.012l-.005.002v-.001a.407.407 0 0 0-.238.454c.121.443 1.046.785 2.551.775a4.444 4.444 0 0 0 2.106-.438c.282-.155.236-.337.197-.386M11.036 4.74c-.268-.294-1.294-.429-2.703-.317a.026.026 0 0 0-.027.025.026.026 0 0 0 .03.023c1.992.015 1.994.385 2.006.376.06.148-.889.566-3.423.612-2.342.043-3.497-.37-3.675-.671a.45.45 0 0 1 .177-.561l-.001-.001a.016.016 0 0 0 .01-.015.019.019 0 0 0-.02-.017l-.008.004v-.002a.573.573 0 0 0-.398.652c.197.633 1.725 1.115 4.216 1.09a8.364 8.364 0 0 0 3.488-.644c.468-.225.392-.484.328-.554M11.124 8.522c-.276-.303-1.332-.442-2.782-.327a.025.025 0 1 0 .002.05l.001-.001v.002c2.05.014 2.052.394 2.064.386.062.152-.914.583-3.523.63-2.41.043-3.6-.381-3.783-.691a.464.464 0 0 1 .182-.577v-.001a.017.017 0 0 0 .01-.015.02.02 0 0 0-.02-.018l-.009.003-.001-.002a.589.589 0 0 0-.409.671c.204.652 1.775 1.148 4.34 1.123a8.622 8.622 0 0 0 3.59-.663c.482-.231.404-.498.338-.57M11.447 6.545c-.298-.325-1.439-.475-3.005-.351a.027.027 0 1 0 .002.054h.002c2.214.015 2.216.425 2.23.415.066.164-.989.627-3.806.68-2.604.046-3.888-.41-4.086-.744a.497.497 0 0 1 .197-.62l-.001-.001a.018.018 0 0 0 .012-.017.02.02 0 0 0-.023-.018l-.009.003-.001-.002a.633.633 0 0 0-.441.721c.218.701 1.917 1.235 4.686 1.207a9.333 9.333 0 0 0 3.878-.714c.52-.249.436-.536.365-.613" fill="#fff"/></svg>