<svg data-tags="Global Relay" xmlns="http://www.w3.org/2000/svg" viewBox="0 0 14 14"><path d="M10.994.965C10.734.636 9.746.48 8.389.597a.027.027 0 0 0 .003.054c1.919.027 1.923.438 1.934.429.059.165-.853.626-3.293.664-2.255.035-3.449-.418-3.52-.79-.077-.411.347-.48.63-.56V.393a.017.017 0 0 0 .01-.017.02.02 0 0 0-.02-.018l-.008.003-.001-.002c-.388.027-.937.259-.864.684.125.72 1.667 1.25 4.065 1.235a7.068 7.068 0 0 0 3.356-.698c.45-.248.375-.536.313-.615M10.814 12.359c-.254-.32-1.219-.473-2.543-.359a.026.026 0 0 0 .002.052h.001v.002c1.873.025 1.877.427 1.887.417.058.162-.832.612-3.214.65-2.202.033-3.29-.422-3.458-.75a.531.531 0 0 1 .163-.609.019.019 0 0 0 .01-.016.02.02 0 0 0-.02-.02l-.008.004v-.002a.634.634 0 0 0-.37.706c.188.69 1.626 1.222 3.968 1.207a6.912 6.912 0 0 0 3.276-.682c.438-.241.366-.523.306-.6M13.278 3.485c-.417-.458-2.012-.667-4.204-.494a.04.04 0 0 0-.042.039.04.04 0 0 0 .045.035h.002v.002c3.098.022 3.101.597 3.12.584.094.23-1.383.88-5.325.952-3.643.067-5.44-.576-5.716-1.044a.7.7 0 0 1 .274-.872l-.001-.002a.024.024 0 0 0 .017-.023.03.03 0 0 0-.032-.026l-.013.005-.001-.003a.89.89 0 0 0-.618 1.014c.307.985 2.683 1.734 6.558 1.696a13.01 13.01 0 0 0 5.425-1.002c.728-.35.61-.753.511-.86M13.415 9.368c-.429-.472-2.072-.687-4.328-.51a.039.039 0 1 0 .003.078l.003-.001v.003c3.19.022 3.191.614 3.21.6.097.237-1.422.907-5.48.982-3.75.066-5.6-.595-5.885-1.076a.722.722 0 0 1 .283-.898v-.002a.026.026 0 0 0 .017-.023.031.031 0 0 0-.034-.028l-.012.006-.002-.004A.916.916 0 0 0 .554 9.54c.316 1.014 2.762 1.786 6.75 1.746a13.412 13.412 0 0 0 5.585-1.03c.75-.36.629-.776.526-.887M13.917 6.293c-.463-.507-2.237-.74-4.674-.547a.042.042 0 1 0 .003.084l.003-.001v.002c3.445.023 3.447.66 3.468.645.104.255-1.537.975-5.92 1.057C2.748 7.606.75 6.894.442 6.377a.773.773 0 0 1 .306-.965L.746 5.41a.028.028 0 0 0 .02-.026.032.032 0 0 0-.037-.029.029.029 0 0 0-.013.006l-.002-.004A.984.984 0 0 0 .027 6.48c.34 1.09 2.982 1.92 7.29 1.876a14.518 14.518 0 0 0 6.032-1.11c.81-.387.68-.833.568-.953"/></svg>