<svg data-tags="google business,brand" xmlns="http://www.w3.org/2000/svg" viewBox="0 0 14 14"><circle fill="#0071F0" cx="7" cy="7" r="7"/><path fill="#0058C3" d="M9.862 4.411H2.95c-.19 0-.205.404-.1.56L3.908 6.55v2.467c0 .734.595 1.328 1.328 1.328h4.626c.734 0 1.328-.594 1.328-1.328V5.74c0-.734-.594-1.329-1.328-1.329z"/><path fill="#FFF" d="M9.862 4.033H3.046a.236.236 0 00-.196.368L3.908 5.98v2.66c0 .733.595 1.328 1.328 1.328h4.626c.734 0 1.328-.595 1.328-1.329V5.362c0-.734-.594-1.329-1.328-1.329z"/><path fill="#81B4FE" d="M9.908 5.916H5.152a.31.31 0 110-.621h4.756a.31.31 0 010 .621zm.31.97a.31.31 0 00-.31-.31H5.152a.31.31 0 100 .621h4.756a.31.31 0 00.31-.31zM8.402 8.167a.31.31 0 00-.31-.31H5.15a.31.31 0 100 .621h2.94a.31.31 0 00.31-.311z"/></svg>