<svg data-tags="channel" xmlns="http://www.w3.org/2000/svg" viewBox="0 0 14 14"><defs><clipPath id="brandGoogleDriveClr__a"><path fill="none" d="M0 .75h14v12.51H0z"/></clipPath></defs><g clip-path="url(#brandGoogleDriveClr__a)"><path fill="#2767d1" d="M1.06 11.47l.62 1.06a1.46 1.46 0 00.53.53l2.2-3.81H0a1.45 1.45 0 00.2.72z"/><path fill="#4ca853" d="M7 4.75L4.8.94a1.46 1.46 0 00-.53.53L.19 8.52a1.45 1.45 0 00-.19.73h4.41z"/><path fill="#d85040" d="M11.8 13.06a1.46 1.46 0 00.52-.53l.26-.44 1.23-2.12a1.45 1.45 0 00.19-.72H9.59l.94 1.84z"/><path fill="#398039" d="M7 4.75L9.2.94a1.41 1.41 0 00-.72-.2H5.52a1.5 1.5 0 00-.72.2z"/><path fill="#4084f3" d="M9.59 9.25H4.41l-2.2 3.81a1.41 1.41 0 00.72.2h8.14a1.5 1.5 0 00.72-.2z"/><path fill="#f4bb41" d="M11.77 5L9.73 1.47A1.46 1.46 0 009.2.94L7 4.75l2.59 4.5h4.4a1.45 1.45 0 00-.19-.73z"/></g></svg>
