<svg data-tags="google calender,google" xmlns="http://www.w3.org/2000/svg" viewBox="0 0 14 14"><path fill="#fff" d="M10.698 3.275H3.302v7.397h7.396V3.275z"/><path fill="#f72a25" d="M10.698 14l3.328-3.328h-3.328V14z"/><path fill="#fbbc04" d="M14.026 3.275h-3.328v7.397h3.328V3.275z"/><path fill="#34a853" d="M10.698 10.672H3.302V14h7.396v-3.328z"/><path fill="#188038" d="M-.026 10.672v2.219A1.109 1.109 0 001.083 14h2.219v-3.328z"/><path fill="#1967d2" d="M14.026 3.275V1.057a1.109 1.109 0 00-1.109-1.11h-2.219v3.328z"/><path fill="#4285f4" d="M10.698-.052H1.083a1.109 1.109 0 00-1.11 1.109v9.615h3.329V3.275h7.395V-.052z"/><path fill="#1a73e8" d="M4.82 9.013a1.426 1.426 0 01-.573-.82l.642-.264a.975.975 0 00.305.515.784.784 0 00.525.182.812.812 0 00.541-.19.634.634 0 00-.012-.982.922.922 0 00-.597-.191H5.28v-.635h.333a.808.808 0 00.519-.167.549.549 0 00.21-.456.505.505 0 00-.188-.412.73.73 0 00-.478-.154.644.644 0 00-.45.15.884.884 0 00-.242.371l-.635-.264a1.41 1.41 0 01.466-.631 1.342 1.342 0 01.866-.273 1.585 1.585 0 01.701.15 1.202 1.202 0 01.488.418 1.065 1.065 0 01.176.6.988.988 0 01-.164.576 1.124 1.124 0 01-.402.361v.038a1.222 1.222 0 01.515.402 1.056 1.056 0 01.202.648 1.213 1.213 0 01-.191.672 1.333 1.333 0 01-.529.466 1.657 1.657 0 01-.757.17 1.571 1.571 0 01-.9-.28zm3.94-3.184l-.704.509-.353-.534 1.264-.912h.485v4.3H8.76V5.83z"/></svg>