<svg data-tags="google,dv" xmlns="http://www.w3.org/2000/svg" viewBox="0 0 14 14"><path d="M2.409.01C2.347.01 2.295 0 2.233 0a1.405 1.405 0 0 1 .207.02c-.01 0-.02-.01-.031-.01ZM.842.976A1.568 1.568 0 0 1 .935.789h-.01a.433.433 0 0 0-.083.187ZM3.779 4.805v7.659a1.536 1.536 0 0 1-3.072 0l.02-.353h-.02V2.906a2.017 2.017 0 0 0 .53.446Z"/><path d="M2.409.01C2.347.01 2.295 0 2.233 0a1.405 1.405 0 0 1 .207.02c-.01 0-.02-.01-.031-.01ZM12.746 8.116A.68.68 0 0 0 12.87 8l-.166.167a.182.182 0 0 1 .042-.052ZM13.275 6.756c0-.02 0-.031-.01-.041a.228.228 0 0 0-.01-.083V6.61a.695.695 0 0 0-.053-.197c.01.03.031.062.042.093a2.035 2.035 0 0 1 .03.25Z"/><path d="M11.396 4.981a1.931 1.931 0 0 0-.685.24L8.107 6.672l-3.81-2.18-.259-.145-.26-.155-2.293-1.308a1.513 1.513 0 0 1-.716-.934 1.805 1.805 0 0 1-.052-.405 1.006 1.006 0 0 1 .01-.176 1.09 1.09 0 0 1 .042-.177.446.446 0 0 0 .01-.051.544.544 0 0 1 .063-.166A1.568 1.568 0 0 1 .935.789h-.01L.966.726a1.258 1.258 0 0 1 .26-.31.278.278 0 0 1 .062-.053.506.506 0 0 1 .145-.114 1.221 1.221 0 0 1 .198-.114A1.363 1.363 0 0 1 2.19 0h.042a1.405 1.405 0 0 1 .207.02 1.033 1.033 0 0 1 .166.021c.062.021.125.042.177.063a.174.174 0 0 1 .051.02c.01 0 .021.01.032.01.072.032.135.042.197.074l.716.404.394.229Z"/><path d="M.925.789h.01a1.568 1.568 0 0 0-.093.187.433.433 0 0 1 .083-.187ZM2.44.02A1.405 1.405 0 0 0 2.233 0c.062 0 .114.01.176.01.01 0 .02.01.031.01ZM12.746 8.116A.68.68 0 0 0 12.87 8l-.166.167a.182.182 0 0 1 .042-.052ZM13.275 6.756c0-.02 0-.031-.01-.041a.228.228 0 0 0-.01-.083V6.61a.695.695 0 0 0-.053-.197c.01.03.031.062.042.093a2.035 2.035 0 0 1 .03.25Z"/><path d="M.925.789a.433.433 0 0 0-.083.187A1.568 1.568 0 0 1 .935.789Zm11.82 7.327a.182.182 0 0 0-.041.052L12.87 8a.68.68 0 0 1-.124.115Zm.27-.291c.042-.052.073-.114.115-.176a.954.954 0 0 0 .072-.146.113.113 0 0 0 .01-.052.451.451 0 0 0 .01-.051 1.62 1.62 0 0 1-.207.425Zm.26-.654a.038.038 0 0 0 .01-.03.56.56 0 0 0 0-.188 1.54 1.54 0 0 1-.01.218Zm-.031-.664c-.01-.031-.031-.062-.042-.093a.695.695 0 0 1 .052.197v.02a.228.228 0 0 1 .01.084c.01.01.01.02.01.041a2.035 2.035 0 0 0-.03-.249Z"/><path d="M13.285 6.953a1.54 1.54 0 0 1-.01.218 1.47 1.47 0 0 1-.052.229 1.62 1.62 0 0 1-.208.425.036.036 0 0 0-.01.02c-.031.032-.052.073-.083.105L12.87 8a.68.68 0 0 1-.124.115.182.182 0 0 0-.042.052.363.363 0 0 0-.083.051c-.052.032-.083.073-.135.104l-.768.436h-.01l-.395.218L4.298 12.9V9.382l3.788-2.117.27-.146.27-.145 2.335-1.308a1.598 1.598 0 0 1 2.127.56.895.895 0 0 1 .104.167.036.036 0 0 0 .01.02.695.695 0 0 1 .052.198v.02a.228.228 0 0 1 .01.084c.01.01.01.02.01.041a1.262 1.262 0 0 1 .011.197Z"/><path d="M12.746 8.116A.68.68 0 0 0 12.87 8l-.166.167a.182.182 0 0 1 .042-.052ZM13.275 6.756c0-.02 0-.031-.01-.041a.228.228 0 0 0-.01-.083V6.61a.695.695 0 0 0-.053-.197c.01.03.031.062.042.093a2.035 2.035 0 0 1 .03.25Z"/></svg>