<svg data-tags="google" xmlns="http://www.w3.org/2000/svg" viewBox="0 0 14 14"><path fill="#fff" d="M4.865.417A7.004 7.004 0 00.919 3.872a6.894 6.894 0 00-.606 1.752 6.968 6.968 0 005.023 8.105 7.452 7.452 0 003.564.038 6.32 6.32 0 002.853-1.483 6.327 6.327 0 001.763-2.89 8.178 8.178 0 00.176-3.699H7.141v2.718h3.796a3.28 3.28 0 01-1.393 2.153 3.989 3.989 0 01-1.535.606 4.594 4.594 0 01-1.662-.003 4.123 4.123 0 01-1.55-.67A4.306 4.306 0 013.203 8.36a4.225 4.225 0 010-2.71 4.35 4.35 0 011.01-1.644A4.095 4.095 0 018.34 2.933a3.749 3.749 0 011.501.883l1.28-1.28c.225-.229.46-.45.678-.685A6.79 6.79 0 009.555.46a7.028 7.028 0 00-4.69-.044z"/><path fill="#db4437" d="M4.865.417a7.051 7.051 0 014.69.041 6.767 6.767 0 012.243 1.389c-.217.236-.453.457-.678.685l-1.28 1.28a3.793 3.793 0 00-1.501-.883 4.111 4.111 0 00-2.044-.082 4.161 4.161 0 00-2.082 1.156 4.32 4.32 0 00-1.01 1.644c-.76-.592-1.52-1.18-2.284-1.771A6.997 6.997 0 014.865.416z"/><path fill="#f4b400" d="M.316 5.62a6.945 6.945 0 01.607-1.75c.76.591 1.52 1.179 2.283 1.77a4.2 4.2 0 000 2.71q-1.14.888-2.28 1.771a6.929 6.929 0 01-.61-4.5z"/><path fill="#4285f4" d="M7.14 5.692h6.552a8.236 8.236 0 01-.176 3.698 6.327 6.327 0 01-1.763 2.89L9.54 10.562a3.28 3.28 0 001.393-2.152H7.137q.006-1.36.004-2.718z"/><path fill="#34a853" d="M.919 10.124q1.14-.882 2.28-1.77a4.327 4.327 0 001.595 2.137 4.148 4.148 0 001.55.67 4.511 4.511 0 001.662.004 3.989 3.989 0 001.535-.607l2.212 1.719A6.283 6.283 0 018.9 13.759a7.452 7.452 0 01-3.564-.037 6.88 6.88 0 01-2.53-1.277 7.01 7.01 0 01-1.887-2.32z"/></svg>