<svg data-tags="google, channel, GMB" xmlns="http://www.w3.org/2000/svg" viewBox="0 0 14 14"><path fill="#588aec" fill-rule="evenodd" d="M.96 5.4h12.12v6.77a.89.89 0 01-.88.9H1.86a.9.9 0 01-.9-.9V5.4z"/><path fill="#547eda" fill-rule="evenodd" d="M3.54 5.54a1.77 1.77 0 01-1.77 1.68A1.7 1.7 0 01.97 7L7 13.06h5.16a.89.89 0 00.89-.88V7a1.8 1.8 0 00.92-1.46V5.4h-3.45v.13a1.76 1.76 0 01-3.52 0 1.75 1.75 0 01-3.46 0z"/><path fill="#87acf0" fill-rule="evenodd" d="M1 1.6a.9.9 0 01.86-.66h2.22L3.54 5.4v.13a1.77 1.77 0 01-3.54 0v-.15l.22-.76zm9.46 3.44L9.92.94H7v4.54a1.75 1.75 0 103.5 0v-.42z"/><path fill="#4c5db2" fill-rule="evenodd" d="M7 5.54a1.75 1.75 0 01-3.48 0v-.15L4.08.94H7zm3.5-.15v.15a1.75 1.75 0 003.5 0V5.4l-.19-.76-.77-3.06a.9.9 0 00-.87-.65H9.92z"/><path fill="#80a0de" fill-rule="evenodd" d="M10.5 5.4H7v.14a1.76 1.76 0 003.52 0V5.4zm-6.96 0H0v.14a1.77 1.77 0 003.54 0z"/><path fill="#4a58a6" fill-rule="evenodd" d="M14 5.4h-3.5v.14a1.75 1.75 0 003.5 0v-.15zm-7 0H3.54v.14a1.74 1.74 0 003.46 0z"/><path fill="#fff" d="M12.2 10.26a2.16 2.16 0 00-.03-.24h-1.66v.7h.96a.83.83 0 01-.35.54 1 1 0 01-.39.15 1.14 1.14 0 01-.42 0 1.05 1.05 0 01-.39-.17 1.09 1.09 0 01-.38-.49l-.02-.05a1.06 1.06 0 010-.69 1.1 1.1 0 01.25-.41 1.04 1.04 0 011.05-.27.95.95 0 01.38.22l.32-.32.17-.18a1.71 1.71 0 00-.57-.35 1.76 1.76 0 00-2.18.87 1.74 1.74 0 00-.15.44 1.76 1.76 0 001.27 2.05 1.88 1.88 0 00.9 0 1.55 1.55 0 001.17-1.1 2.02 2.02 0 00.07-.7z"/></svg>