<svg data-tags="googleDV" xmlns="http://www.w3.org/2000/svg" viewBox="0 0 14 14"><path d="M10.657 5.474a1.74 1.74 0 1 1 1.806 2.974l-.066.038-9.065 5.22a1.74 1.74 0 0 1-1.806-2.975l.066-.038Z" fill="#90c698"/><path d="M4.144 1.751A1.738 1.738 0 0 0 2.047.044a1.797 1.797 0 0 0-1.369 1.77v10.369l3.462.062Z" fill="#58a45c"/><path d="M10.696 8.493a1.821 1.821 0 0 0 2.375-.64 1.725 1.725 0 0 0-.601-2.365l-.018-.011L3.326.247A1.72 1.72 0 0 0 .966.83C.952.85.94.871.93.892a1.732 1.732 0 0 0 .62 2.368l.018.01Z" fill="#73b57a"/><path d="M12.392 8.505 4.14 13.114v-3.96l6.547-3.65a1.797 1.797 0 0 1 2.442.701 1.763 1.763 0 0 1 .115.252 1.737 1.737 0 0 1-.853 2.048Z" fill="#90c698"/><circle cx="2.413" cy="12.269" r="1.731" fill="#458a47"/></svg>