<svg data-tags="google drive" xmlns="http://www.w3.org/2000/svg" viewBox="0 0 14 14"><defs><clipPath id="brand_googleDriveSquare_clr__a"><path fill="none" d="M2.5 2.979h9v8.041h-9z"/></clipPath></defs><path fill="#fff" d="M0 0h14v14H0z"/><g clip-path="url(#brand_googleDriveSquare_clr__a)"><path d="m3.18 9.871.397.686a.936.936 0 0 0 .34.34l1.418-2.454H2.5a.934.934 0 0 0 .124.464Z" fill="#2767d1"/><path d="M7 5.557 5.582 3.103a.936.936 0 0 0-.34.34L2.624 7.98a.934.934 0 0 0-.124.464h2.835Z" fill="#4ca853"/><path d="M10.082 10.897a.936.936 0 0 0 .34-.34l.166-.284.788-1.366a.934.934 0 0 0 .124-.464H8.665l.603 1.186Z" fill="#d85040"/><path d="m7 5.557 1.418-2.454a.906.906 0 0 0-.464-.124H6.046a.96.96 0 0 0-.464.124Z" fill="#398039"/><path d="M8.665 8.443h-3.33l-1.417 2.454a.906.906 0 0 0 .463.124H9.62a.96.96 0 0 0 .463-.124Z" fill="#4084f3"/><path d="m10.067 5.711-1.31-2.268a.936.936 0 0 0-.34-.34L7 5.557l1.665 2.886h2.83a.934.934 0 0 0-.124-.464Z" fill="#f4bb41"/></g></svg>