<svg xmlns="http://www.w3.org/2000/svg" viewBox="0 0 14 14"><path fill-rule="evenodd" clip-rule="evenodd" fill="#1E8E3E" d="M10.609 3.39a3.045 3.045 0 00-4.3 0 3.02 3.02 0 00-.865 1.871 3.223 3.223 0 011.968.59 1.09 1.09 0 01.278-1.087 1.093 1.093 0 011.542.002.989.989 0 001.055.214.975.975 0 00.322-1.59zm.45.572a1.147 1.147 0 01-1.586 1.171c.157.393.076.859-.24 1.176a1.095 1.095 0 01-1.545.001 3.013 3.013 0 00-2.15-.89 3.02 3.02 0 00-2.15.891 3.043 3.043 0 000 4.298c.41.41 1.076.408 1.487 0 .435-.436.256-1.005-.113-1.376-.37-.371-.476-1.066-.002-1.541a1.091 1.091 0 011.547-.003.07.07 0 01.026.018 3.05 3.05 0 004.276-.019 3.02 3.02 0 00.891-2.149c0-.565-.154-1.106-.441-1.577zM6.581 8.141a1.093 1.093 0 01-.278 1.096 1.093 1.093 0 01-1.133.256c.226.431.172.893-.174 1.237a1.224 1.224 0 01-.995.353 3.046 3.046 0 003.687-.474 3.02 3.02 0 00.864-1.873l-.104.002a3.16 3.16 0 01-1.867-.597zM7 0a7 7 0 11-.001 13.999A7 7 0 017 0z"/></svg>