<svg data-tags="googleDV" xmlns="http://www.w3.org/2000/svg" viewBox="0 0 14 14"><rect width="14" height="14" rx="7" fill="#f2f2f2"/><path d="M10.199 6.023a1.118 1.118 0 1 1 1.16 1.912l-.042.025-5.827 3.356a1.119 1.119 0 0 1-1.161-1.913l.042-.025Z" fill="#90c698"/><path d="M6.011 3.63a1.117 1.117 0 0 0-1.347-1.097 1.155 1.155 0 0 0-.88 1.138v6.665l2.225.04Z" fill="#58a45c"/><path d="M10.224 7.964a1.17 1.17 0 0 0 1.527-.412 1.109 1.109 0 0 0-.387-1.52l-.012-.007-5.866-3.361a1.106 1.106 0 0 0-1.518.374l-.023.04a1.113 1.113 0 0 0 .4 1.522l.01.006Z" fill="#73b57a"/><path d="M11.314 7.972 6.01 10.935V8.39l4.208-2.347a1.155 1.155 0 0 1 1.57.45 1.133 1.133 0 0 1 .074.162 1.117 1.117 0 0 1-.548 1.317Z" fill="#90c698"/><circle cx="4.899" cy="10.392" r="1.113" fill="#458a47"/></svg>