<svg data-tags="google play" xmlns="http://www.w3.org/2000/svg" viewBox="0 0 14 14"><defs><linearGradient id="googlePlay_clr__a" x1="3630.68" x2="3623.76" y1="-1363.03" y2="-1359.46" gradientTransform="matrix(1.3204 0 0 2.55799 -4786.8 3487.47)" gradientUnits="userSpaceOnUse"><stop offset="0" stop-color="#00a0ff"/><stop offset=".01" stop-color="#00a1ff"/><stop offset=".26" stop-color="#00beff"/><stop offset=".51" stop-color="#00d2ff"/><stop offset=".76" stop-color="#00dfff"/><stop offset="1" stop-color="#00e3ff"/></linearGradient><linearGradient id="googlePlay_clr__b" x1="3797.04" x2="3784.35" y1="-1221.74" y2="-1221.74" gradientTransform="matrix(1.03738 0 0 .87346 -3925.26 1074.14)" gradientUnits="userSpaceOnUse"><stop offset="0" stop-color="#ffe000"/><stop offset=".41" stop-color="#ffbd00"/><stop offset=".78" stop-color="orange"/><stop offset="1" stop-color="#ff9c00"/></linearGradient><linearGradient id="googlePlay_clr__c" x1="3498.56" x2="3491.29" y1="-1291.93" y2="-1282.5" gradientTransform="matrix(1.70381 0 0 1.31331 -5952.1 1704.95)" gradientUnits="userSpaceOnUse"><stop offset="0" stop-color="#ff3a44"/><stop offset="1" stop-color="#c31162"/></linearGradient><linearGradient id="googlePlay_clr__d" x1="3492.96" x2="3496.21" y1="-1300.02" y2="-1295.81" gradientTransform="matrix(1.70381 0 0 1.31263 -5952.1 1702.66)" gradientUnits="userSpaceOnUse"><stop offset="0" stop-color="#32a071"/><stop offset=".07" stop-color="#2da771"/><stop offset=".48" stop-color="#15cf74"/><stop offset=".8" stop-color="#06e775"/><stop offset="1" stop-color="#00f076"/></linearGradient></defs><path fill="url(#googlePlay_clr__a)" d="M.97.21a1.1 1.1 0 00-.25.77v12.04a1.05 1.05 0 00.25.76l.04.03 6.75-6.74v-.15L1 .18z"/><path fill="url(#googlePlay_clr__b)" d="M10 9.33L7.75 7.08v-.16L10 4.67l.05.03 2.66 1.51c.76.43.76 1.14 0 1.58l-2.66 1.5-.05.04z"/><path fill="url(#googlePlay_clr__c)" d="M10.05 9.3L7.75 7 .97 13.78a.89.89 0 001.13.04l7.95-4.52"/><path fill="url(#googlePlay_clr__d)" d="M10.05 4.7L2.1.18A.88.88 0 00.97.22L7.75 7z"/><path d="M10 9.25l-7.9 4.49a.9.9 0 01-1.09 0l-.04.04.04.04a.9.9 0 001.1 0l7.94-4.52z" opacity=".2"/><path d="M12.7 7.7L10 9.26l.04.05 2.66-1.52a.95.95 0 00.57-.78.98.98 0 01-.56.7z" opacity=".12"/><path fill="#fff" d="M2.1.26L12.7 6.3a1 1 0 01.58.71.95.95 0 00-.57-.79L2.1.18C1.34-.25.72.11.72.98v.08c0-.87.62-1.23 1.38-.8z" opacity=".25"/></svg>