<svg data-tags="google,chrome browser,brand" xmlns="http://www.w3.org/2000/svg" viewBox="0 0 14 14"><path d="M3.6 5.8A3.6 3.6 0 015 4a3.3 3.3 0 011.6-.6H13l-.1-.2A7 7 0 009.4.4 6.7 6.7 0 007.6 0H6.2a7 7 0 00-2.7 1A6.8 6.8 0 002 2l-.5.6 2 3.5.1-.3zM8 10.5a3.5 3.5 0 01-1.6 0 3.6 3.6 0 01-2.2-1.3 5.4 5.4 0 01-.5-.7L2.2 5.8 1 3.9l-.2-.3v.1L.6 4A6.8 6.8 0 000 6.4v1.4a7 7 0 003.6 5.3 7 7 0 002.3.8l.3-.3 1.5-2.7.3-.4z"/><path d="M14 6.2a6.9 6.9 0 00-.5-1.7h-4a3.6 3.6 0 01.9 3.7 4.9 4.9 0 01-.5.9l-.8 1.4-1.8 3.2-.2.3h.5a6.9 6.9 0 003.4-1.3 7 7 0 002.2-2.5 6.8 6.8 0 00.7-2.4v-.4l.1-.1V6.2z"/><path d="M4.5 7A2.5 2.5 0 107 4.5 2.5 2.5 0 004.5 7z"/></svg>