<svg xmlns="http://www.w3.org/2000/svg" viewBox="0 0 14 14"><path fill="#5BB974" d="M13.316 2.276a1.777 1.777 0 01-.512 1.44 1.786 1.786 0 01-1.955.381 1.7 1.7 0 01-.374 1.829c-.66.66-1.74.664-2.404.002a4.694 4.694 0 00-3.344-1.385 4.7 4.7 0 00-3.344 1.385 4.734 4.734 0 000 6.687 1.64 1.64 0 002.312 0c.677-.679.4-1.564-.175-2.14-.576-.578-.742-1.658-.003-2.397.583-.586 1.643-.748 2.406-.005a.11.11 0 01.04.028c1.846 1.807 4.828 1.791 6.652-.03A4.698 4.698 0 0014 4.728a4.69 4.69 0 00-.684-2.452z"/><path fill="#1E8E3E" d="M7.641 5.214a1.672 1.672 0 01-.07-.519 1.7 1.7 0 012.902-1.17 1.536 1.536 0 001.64.333 1.518 1.518 0 00.502-2.474 4.736 4.736 0 00-6.688 0c-.771.77-1.246 1.8-1.346 2.912a5.013 5.013 0 013.06.918z"/><path fill="#34A853" d="M6.348 8.776c.049.159.074.324.074.494a1.707 1.707 0 01-2.267 1.61c.351.669.267 1.388-.271 1.924a1.907 1.907 0 01-1.548.548 4.739 4.739 0 005.735-.737 4.708 4.708 0 001.345-2.913c-.053.002-.108.002-.162.002a4.92 4.92 0 01-2.906-.928z"/></svg>