<svg data-tags="google,business,messaging" xmlns="http://www.w3.org/2000/svg" viewBox="0 0 14 14"><path d="M14 7a7 7 0 1 1-7-7 7 7 0 0 1 7 7ZM9.862 4.033H3.046a.236.236 0 0 0-.196.368L3.908 5.98v2.66a1.329 1.329 0 0 0 1.328 1.328h4.626a1.328 1.328 0 0 0 1.328-1.329V5.362a1.328 1.328 0 0 0-1.328-1.329Zm.357 1.573a.31.31 0 0 0-.31-.31H5.152a.31.31 0 0 0 0 .621h4.756a.31.31 0 0 0 .31-.31v-.001Zm0 1.28a.31.31 0 0 0-.31-.31H5.152a.31.31 0 0 0 0 .621h4.756a.31.31 0 0 0 .31-.31ZM8.4 8.167a.31.31 0 0 0-.31-.31H5.15a.31.31 0 1 0 0 .621h2.94a.31.31 0 0 0 .31-.31Z"/></svg>