<svg data-tags="google play" xmlns="http://www.w3.org/2000/svg" viewBox="0 0 14 14"><defs><linearGradient id="googlePlayCircle_clr__a" x1="3627.5" x2="3623.1" y1="-1362.15" y2="-1359.88" gradientTransform="matrix(1.3204 0 0 2.55799 -4781.84 3487.47)" gradientUnits="userSpaceOnUse"><stop offset="0" stop-color="#00a0ff"/><stop offset=".01" stop-color="#00a1ff"/><stop offset=".26" stop-color="#00beff"/><stop offset=".51" stop-color="#00d2ff"/><stop offset=".76" stop-color="#00dfff"/><stop offset="1" stop-color="#00e3ff"/></linearGradient><linearGradient id="googlePlayCircle_clr__b" x1="3794.9" x2="3786.86" y1="-1221.74" y2="-1221.74" gradientTransform="matrix(1.03738 0 0 .87346 -3924.68 1074.14)" gradientUnits="userSpaceOnUse"><stop offset="0" stop-color="#ffe000"/><stop offset=".41" stop-color="#ffbd00"/><stop offset=".78" stop-color="orange"/><stop offset="1" stop-color="#ff9c00"/></linearGradient><linearGradient id="googlePlayCircle_clr__c" x1="3492.26" x2="3487.61" y1="-1292.27" y2="-1286.24" gradientTransform="matrix(1.70381 0 0 1.31331 -5941.2 1704.95)" gradientUnits="userSpaceOnUse"><stop offset="0" stop-color="#ff3a44"/><stop offset="1" stop-color="#c31162"/></linearGradient><linearGradient id="googlePlayCircle_clr__d" x1="3488.68" x2="3490.75" y1="-1297.06" y2="-1294.37" gradientTransform="matrix(1.70381 0 0 1.31263 -5941.2 1702.66)" gradientUnits="userSpaceOnUse"><stop offset="0" stop-color="#32a071"/><stop offset=".07" stop-color="#2da771"/><stop offset=".48" stop-color="#15cf74"/><stop offset=".8" stop-color="#06e775"/><stop offset="1" stop-color="#00f076"/></linearGradient></defs><rect width="14" height="14" fill="#f2f2f2" rx="7"/><path fill="url(#googlePlayCircle_clr__a)" d="M3.99 2.64a.72.72 0 00-.16.5v7.73a.68.68 0 00.16.49l.03.02 4.27-4.33v-.1L4.02 2.6z"/><path fill="url(#googlePlayCircle_clr__b)" d="M9.71 8.5L8.3 7.05v-.1L9.7 5.5l.03.02 1.69.97a.53.53 0 010 1.01l-1.69.98-.03.02z"/><path fill="url(#googlePlayCircle_clr__c)" d="M9.74 8.48L8.3 7 4 11.36a.56.56 0 00.72.02l5.03-2.9"/><path fill="url(#googlePlayCircle_clr__d)" d="M9.74 5.52l-5.03-2.9a.55.55 0 00-.72.02L8.29 7z"/><path d="M9.71 8.45l-5 2.88a.56.56 0 01-.69 0l-.03.03.03.02a.56.56 0 00.69 0l5.04-2.9z" opacity=".2"/><path d="M11.43 7.45l-1.72 1 .03.03 1.69-.98a.61.61 0 00.36-.5.63.63 0 01-.36.45z" opacity=".12"/><path fill="#fff" d="M4.7 2.67l6.73 3.87a.64.64 0 01.36.46.61.61 0 00-.36-.5L4.7 2.61c-.49-.28-.88-.05-.88.51v.05c0-.56.4-.79.88-.51z" opacity=".25"/></svg>