<svg data-tags="google" xmlns="http://www.w3.org/2000/svg" viewBox="0 0 14 14"><path fill="#fff" d="M0 0h14v14H0z"/><path fill="#fff" d="M5.677 2.922a4.338 4.338 0 00-2.444 2.14 4.27 4.27 0 00-.375 1.086 4.316 4.316 0 003.112 5.02 4.616 4.616 0 002.207.023 3.807 3.807 0 002.86-2.708 5.065 5.065 0 00.108-2.291H7.087v1.683H9.44a2.032 2.032 0 01-.863 1.334 2.47 2.47 0 01-.95.375 2.845 2.845 0 01-1.03-.002 2.553 2.553 0 01-.96-.415 2.667 2.667 0 01-.988-1.324 2.617 2.617 0 010-1.679 2.694 2.694 0 01.626-1.018 2.536 2.536 0 012.555-.665 2.322 2.322 0 01.93.547l.793-.793c.14-.142.285-.278.42-.425a4.206 4.206 0 00-1.39-.86 4.353 4.353 0 00-2.905-.028z"/><path fill="#db4437" d="M5.677 2.922a4.368 4.368 0 012.906.026 4.191 4.191 0 011.389.86c-.135.146-.28.283-.42.424l-.793.794a2.35 2.35 0 00-.93-.548 2.546 2.546 0 00-1.266-.05 2.577 2.577 0 00-1.29.716 2.676 2.676 0 00-.625 1.018c-.47-.367-.942-.73-1.415-1.097a4.334 4.334 0 012.444-2.143z"/><path fill="#f4b400" d="M2.86 6.146a4.302 4.302 0 01.376-1.086c.47.367.941.73 1.414 1.097a2.602 2.602 0 000 1.679q-.706.55-1.412 1.097a4.292 4.292 0 01-.378-2.787z"/><path fill="#4285f4" d="M7.087 6.19h4.058a5.101 5.101 0 01-.109 2.29 3.919 3.919 0 01-1.092 1.79l-1.37-1.064a2.032 2.032 0 00.862-1.333H7.085q.003-.842.002-1.683z"/><path fill="#34a853" d="M3.233 8.935q.706-.546 1.412-1.097a2.68 2.68 0 00.988 1.324 2.57 2.57 0 00.96.415 2.795 2.795 0 001.03.003 2.471 2.471 0 00.95-.376l1.371 1.064a3.892 3.892 0 01-1.767.919 4.616 4.616 0 01-2.207-.023 4.262 4.262 0 01-1.568-.791 4.342 4.342 0 01-1.169-1.438z"/></svg>