<svg data-tags="google,chrome browser,brand" xmlns="http://www.w3.org/2000/svg" viewBox="0 0 14 14"><defs><path id="googleChrome_clr__f" fill="#db4437" d="M1.1 0v8.6h3.1L7 3.8h7V0z"/><path id="googleChrome_clr__g" fill="url(#googleChrome_clr__a)" d="M1.1 0v8.6h3.1L7 3.8h7V0z"/><path id="googleChrome_clr__h" fill="#0f9d58" d="M0 14h6.7l3-3V8.5H4.3L0 1.3z"/><path id="googleChrome_clr__i" fill="url(#googleChrome_clr__b)" d="M0 14h6.7l3-3V8.5H4.3L0 1.3z"/><path id="googleChrome_clr__k" fill="#ffcd40" d="M7 3.8l2.8 4.8L6.7 14H14V3.8z"/><path id="googleChrome_clr__l" fill="url(#googleChrome_clr__c)" d="M7 3.8l2.8 4.8L6.7 14H14V3.8z"/></defs><defs><clipPath id="googleChrome_clr__e"><circle cx="7" cy="7" r="7" fill="none"/></clipPath><clipPath id="googleChrome_clr__j"><path fill="none" d="M0 14h6.7l3.1-3.1V8.6H4.2L0 1.3V14z"/></clipPath><clipPath id="googleChrome_clr__m"><path fill="none" d="M7 3.8l2.8 4.8L6.7 14H14V3.8H7z"/></clipPath><clipPath id="googleChrome_clr__n"><path fill="none" d="M1.1 0v3.2l3.1 5.4L7 3.8h7V0H1.1z"/></clipPath><radialGradient id="googleChrome_clr__d" cx="485.6" cy="35.6" r="2.2" gradientTransform="matrix(3.0303 0 0 -3.0303 -1464.8 111.5)" gradientUnits="userSpaceOnUse"><stop offset="0" stop-color="#3e2723" stop-opacity=".2"/><stop offset="1" stop-color="#3e2723" stop-opacity="0"/></radialGradient><radialGradient href="#googleChrome_clr__d" id="googleChrome_clr__o" cx="483.7" cy="35.7" r="2"/><radialGradient id="googleChrome_clr__p" cx="485.7" cy="34.5" r="2.3" gradientTransform="matrix(3.0303 0 0 -3.0303 -1464.8 111.5)" gradientUnits="userSpaceOnUse"><stop offset="0" stop-color="#263238" stop-opacity=".2"/><stop offset="1" stop-color="#263238" stop-opacity="0"/></radialGradient><linearGradient id="googleChrome_clr__a" x1="-92.1" x2="-90.7" y1="35.1" y2="35.9" gradientTransform="matrix(3.0303 0 0 -3.0303 280.7 111.5)" gradientUnits="userSpaceOnUse"><stop offset="0" stop-color="#a52714" stop-opacity=".6"/><stop offset=".7" stop-color="#a52714" stop-opacity="0"/></linearGradient><linearGradient id="googleChrome_clr__b" x1="-89.9" x2="-91.4" y1="32.7" y2="33.6" gradientTransform="matrix(3.0303 0 0 -3.0303 280.7 111.5)" gradientUnits="userSpaceOnUse"><stop offset="0" stop-color="#055524" stop-opacity=".4"/><stop offset=".3" stop-color="#055524" stop-opacity="0"/></linearGradient><linearGradient id="googleChrome_clr__c" x1="-89.6" x2="-89.2" y1="35.7" y2="34" gradientTransform="matrix(3.0303 0 0 -3.0303 280.7 111.5)" gradientUnits="userSpaceOnUse"><stop offset="0" stop-color="#ea6100" stop-opacity=".3"/><stop offset=".7" stop-color="#ea6100" stop-opacity="0"/></linearGradient></defs><g clip-path="url(#googleChrome_clr__e)"><use href="#googleChrome_clr__f"/><use href="#googleChrome_clr__g"/></g><g clip-path="url(#googleChrome_clr__e)"><path fill="#3e2723" fill-opacity=".1" d="M4.3 8.6L1.2 3v.1l3 5.4z"/></g><g clip-path="url(#googleChrome_clr__e)"><use href="#googleChrome_clr__h"/><use href="#googleChrome_clr__i"/></g><g clip-path="url(#googleChrome_clr__e)"><path fill="#263238" fill-opacity=".1" d="M9.7 8.7L6.5 14l3-5.3z"/></g><g clip-path="url(#googleChrome_clr__e)"><g clip-path="url(#googleChrome_clr__j)"><use href="#googleChrome_clr__k"/><use href="#googleChrome_clr__l"/></g></g><g clip-path="url(#googleChrome_clr__e)"><use href="#googleChrome_clr__k"/><use href="#googleChrome_clr__l"/></g><g clip-path="url(#googleChrome_clr__e)"><g clip-path="url(#googleChrome_clr__m)"><use href="#googleChrome_clr__f"/><use href="#g"/></g></g><g clip-path="url(#googleChrome_clr__e)"><path fill="url(#googleChrome_clr__d)" d="M7 3.8v1.7l6.2-1.7z"/></g><g clip-path="url(#googleChrome_clr__e)"><g clip-path="url(#googleChrome_clr__n)"><use href="#googleChrome_clr__h"/><use href="#googleChrome_clr__i"/></g></g><g clip-path="url(#googleChrome_clr__e)"><path fill="url(#googleChrome_clr__o)" d="M1.1 3.2l4.6 4.6-1.5.8z"/></g><g clip-path="url(#googleChrome_clr__e)"><path fill="url(#googleChrome_clr__p)" d="M6.7 14l1.6-6.2 1.5.8z"/></g><g clip-path="url(#googleChrome_clr__e)"><circle cx="7" cy="7" r="3.2" fill="#f1f1f1"/><circle cx="7" cy="7" r="2.5" fill="#4285f4"/></g><g clip-path="url(#googleChrome_clr__e)"><path fill="#3e2723" fill-opacity=".2" d="M7 3.7A3.2 3.2 0 003.8 7 3.2 3.2 0 017 3.8h7z"/><path fill="#fff" fill-opacity=".1" d="M9.8 8.6a3.2 3.2 0 01-5.6 0L0 1.3l4.2 7.4a3.2 3.2 0 005.6 0v-.1z"/><path fill="#3e2723" d="M7 3.8a3.2 3.2 0 010 6.4 3.2 3.2 0 000-6.4z" opacity=".1"/><path fill="#fff" fill-opacity=".2" d="M9.8 8.7a3.2 3.2 0 00.3-2.6 3.1 3.1 0 01-.3 2.5L6.7 14l3-5.3z"/></g><g clip-path="url(#googleChrome_clr__e)"><path fill="#fff" fill-opacity=".2" d="M7 0a7 7 0 017 7A7 7 0 000 7a7 7 0 017-7z"/><path fill="#3e2723" fill-opacity=".1" d="M7 14a7 7 0 007-7A7 7 0 010 7a7 7 0 007 7z"/></g></svg>