<svg data-tags="new,release,offer" xmlns="http://www.w3.org/2000/svg" viewBox="0 0 14 14"><path d="M13.42 7l-1.43-1.62.2-2.15-2.1-.48L8.99.9 7 1.75 5.02.9l-1.1 1.85-2.11.47.2 2.15L.58 7l1.43 1.62-.2 2.15 2.1.48 1.1 1.85L7 12.25l1.98.85 1.1-1.86 2.11-.47-.2-2.15L13.42 7zm-2.63 1.23l.15 1.63-1.6.36-.83 1.4L7 10.98l-1.5.64-.84-1.4-1.6-.36.15-1.64L2.13 7l1.08-1.24-.15-1.62 1.6-.36.83-1.4L7 3.02l1.5-.65.84 1.4 1.6.37-.15 1.63L11.87 7l-1.08 1.23zm-4.37.52h1.16V9.9H6.42V8.75zm0-4.67h1.16v3.5H6.42v-3.5z"/></svg>
