<svg data-tags="google,search console" xmlns="http://www.w3.org/2000/svg" viewBox="0 0 14 14"><path fill="none" d="M0 .756h14v12.488H0z"/><path d="m3.926 1.797 1.04-1.04v1.986h-1.04Zm6.148 0L9.034.757v1.986h1.04Z" fill="#7b7b7b" fill-rule="evenodd"/><path d="M4.966.757h4.068v.993H4.966Z" fill="#5a5a5a"/><path d="M12.865 13.243H1.135A1.135 1.135 0 0 1 0 12.108V4.694l1.95-1.95h10.1L14 4.693v7.414a1.135 1.135 0 0 1-1.135 1.135Z" fill="#e5e6e7" fill-rule="evenodd"/><path d="M0 6.763v-2.07l1.95-1.95h10.1L14 4.693v2.07Z" fill="#cfd0d1" fill-rule="evenodd"/><path d="M1.608 13.243v-8.04a.473.473 0 0 1 .473-.473h9.838a.473.473 0 0 1 .473.473v8.04Z" fill="#558bed" fill-rule="evenodd"/><path d="M1.608 6.763h10.784v6.48H1.608Z" fill="#fff"/><path d="M9.176 13.243v-1.939l-.946-.946-.615-1.703.426-1.087 2.412 2.412.425-1.798 1.514 1.514v3.547Z" fill="#d1d2d3" fill-rule="evenodd"/><path d="M2.318 7.52h3.594v4.02H2.318Zm0 4.92h4.635v.803H2.318Z" fill="#d1d2d3"/><path d="M10.074 11.734v1.51H8.088v-1.488a2.342 2.342 0 0 1-.047-4.24v2.227l.993.615 1.04-.615V7.516a2.342 2.342 0 0 1 0 4.218Z" fill="#505050" fill-rule="evenodd"/><path d="M2.72 5.25a.402.402 0 1 1-.285.118.402.402 0 0 1 .285-.118Zm1.182 0a.402.402 0 1 1-.284.118.402.402 0 0 1 .284-.118Z" fill="#e5e6e7" fill-rule="evenodd"/></svg>