<svg data-tags="google" xmlns="http://www.w3.org/2000/svg" viewBox="0 0 14 14"><path fill="#2c72e7" d="M0 0h14v14H0z"/><path fill="#2059bb" d="M9.874 4.222H2.962c-.19 0-.205.404-.1.56L3.92 6.361v2.467a1.328 1.328 0 001.328 1.328h4.626a1.327 1.327 0 001.328-1.328V5.551a1.328 1.328 0 00-1.328-1.329z"/><path fill="#fff" d="M9.874 3.844H3.058a.236.236 0 00-.196.368L3.92 5.791v2.66a1.329 1.329 0 001.328 1.328h4.626a1.328 1.328 0 001.328-1.329V5.173a1.328 1.328 0 00-1.328-1.329z"/><path fill="#8ab3f7" d="M9.92 5.727H5.164a.31.31 0 010-.62H9.92a.31.31 0 010 .62zm.31.97a.31.31 0 00-.31-.31H5.164a.31.31 0 100 .621H9.92a.31.31 0 00.31-.31zM8.414 7.978a.31.31 0 00-.31-.31H5.162a.31.31 0 100 .621h2.94a.31.31 0 00.31-.31z"/></svg>