<svg xmlns="http://www.w3.org/2000/svg" viewBox="0 0 14 14"><path fill-rule="evenodd" clip-rule="evenodd" d="M5.926 1.385a4.735 4.735 0 016.69 0 1.518 1.518 0 01-.503 2.474 1.537 1.537 0 01-1.64-.333 1.7 1.7 0 00-2.832 1.688 5.012 5.012 0 00-3.06-.918 4.707 4.707 0 011.345-2.911zm7.39.89c.446.733.684 1.575.684 2.453a4.699 4.699 0 01-1.385 3.343c-1.824 1.822-4.806 1.837-6.652.03a.107.107 0 00-.04-.028c-.763-.743-1.823-.581-2.406.006-.739.738-.574 1.819.003 2.396.575.577.852 1.462.174 2.14a1.638 1.638 0 01-2.312 0 4.734 4.734 0 010-6.686 4.697 4.697 0 013.345-1.385A4.692 4.692 0 018.07 5.928a1.705 1.705 0 002.405-.002 1.7 1.7 0 00.374-1.828c.65.273 1.428.146 1.955-.381.394-.394.564-.927.512-1.441zM6.348 8.777a4.925 4.925 0 002.906.928c.053 0 .109 0 .163-.002a4.707 4.707 0 01-1.346 2.913 4.738 4.738 0 01-5.735.737 1.907 1.907 0 001.548-.548c.538-.535.622-1.255.27-1.924a1.709 1.709 0 001.764-.398c.32-.319.504-.761.504-1.212 0-.17-.025-.335-.074-.494z"/></svg>