<svg data-tags="google, channel, GMB" xmlns="http://www.w3.org/2000/svg" viewBox="0 0 14 14"><path d="M13.19 1.706a1.044 1.044 0 00-1.013-.813H1.823a1.044 1.044 0 00-1.013.813L0 5.375v.032a1.97 1.97 0 00.936 1.676v4.992a1.034 1.034 0 001.033 1.032h10.098a1.034 1.034 0 001.032-1.032V7.06A1.97 1.97 0 0014 5.407v-.032zM3.353 5.39v.018a1.383 1.383 0 01-2.765.03l.796-3.604a.452.452 0 01.439-.353h2.013zm3.353.018a1.383 1.383 0 01-2.765.017l.487-3.944h2.278zm.588 0V1.48h2.278l.487 3.944a1.383 1.383 0 01-2.765-.017zm2.634 6.333a1.649 1.649 0 110-3.297 1.58 1.58 0 011.104.43l-.447.432a.928.928 0 00-.657-.255 1.041 1.041 0 000 2.082.89.89 0 00.935-.71h-.935v-.566h1.556a1.597 1.597 0 01-1.556 1.884zm2.102-4.95a1.384 1.384 0 01-1.383-1.383v-.018l-.483-3.909h2.013a.452.452 0 01.439.353l.796 3.605A1.384 1.384 0 0112.03 6.79z"/></svg>