<svg data-tags="google" xmlns="http://www.w3.org/2000/svg" viewBox="0 0 14 14"><circle cx="7.01" cy="7" r="7" fill="#fff"/><path fill="#588aec" fill-rule="evenodd" d="M3.365 6.03h7.316v4.094a.535.535 0 01-.538.538h-6.24a.538.538 0 01-.538-.538z"/><path fill="#547eda" fill-rule="evenodd" d="M4.919 6.118A1.068 1.068 0 013.85 7.132 1.025 1.025 0 013.365 7l3.645 3.662h3.115a.535.535 0 00.539-.538V7a1.082 1.082 0 00.556-.882v-.08H9.137v.08a1.063 1.063 0 11-2.127 0 1.059 1.059 0 01-2.091 0z"/><path fill="#87acf0" fill-rule="evenodd" d="M3.383 3.735a.538.538 0 01.52-.397h1.342l-.326 2.7v.08a1.068 1.068 0 01-2.136 0v-.089l.132-.459.468-1.835zm5.719 2.082l-.327-2.48H7.01v2.745a1.059 1.059 0 102.118 0v-.256z"/><path fill="#4c5db2" fill-rule="evenodd" d="M7.01 6.117a1.059 1.059 0 01-2.1 0V6.03l.335-2.691H7.01zm2.118-.088v.088a1.059 1.059 0 002.11 0v-.079l-.115-.459-.468-1.844a.538.538 0 00-.52-.397h-1.36z"/><path fill="#80a0de" fill-rule="evenodd" d="M9.128 6.03H7.01v.088a1.065 1.065 0 002.127 0v-.08zm-4.21 0H2.784v.088a1.068 1.068 0 002.136 0v-.089z"/><path fill="#4a58a6" fill-rule="evenodd" d="M11.237 6.03H9.128v.088a1.059 1.059 0 002.11 0v-.089zm-4.227 0H4.92v.088a1.05 1.05 0 002.091 0z"/><path fill="#fff" d="M10.15 8.968a1.305 1.305 0 00-.018-.141h-1v.415h.579a.5.5 0 01-.212.328.61.61 0 01-.235.092.688.688 0 01-.253 0 .633.633 0 01-.237-.103.658.658 0 01-.229-.292l-.014-.033v-.002a.641.641 0 010-.412.664.664 0 01.154-.25.625.625 0 01.63-.164.572.572 0 01.23.134l.195-.195c.034-.035.07-.069.103-.105a1.033 1.033 0 00-.342-.212 1.065 1.065 0 00-1.319.521 1.052 1.052 0 00-.092.267 1.064 1.064 0 00.767 1.238 1.138 1.138 0 00.544.005.938.938 0 00.704-.667 1.221 1.221 0 00.044-.424z"/></svg>