<svg data-tags="setting,governance" xmlns="http://www.w3.org/2000/svg" viewBox="0 0 14 14"><path fill-rule="evenodd" d="M12.748 7.019a5.636 5.636 0 01-.087.987.519.519 0 00.18.499l.637.517a.515.515 0 01.121.659l-.957 1.657a.516.516 0 01-.63.224l-.773-.296a.513.513 0 00-.515.094 5.675 5.675 0 01-1.714.991.514.514 0 00-.34.4l-.129.815a.517.517 0 01-.51.434H6.12a.515.515 0 01-.509-.434l-.13-.816a.514.514 0 00-.34-.399 5.675 5.675 0 01-1.715-.99.513.513 0 00-.515-.095l-.772.296a.516.516 0 01-.63-.224L.331 9.301l.985-.801a.504.504 0 00.173-.486 5.736 5.736 0 010-1.992.5.5 0 00-.173-.484l-.984-.8L1.508 2.7a.516.516 0 01.63-.225l.772.295a.509.509 0 00.515-.093 5.675 5.675 0 011.714-.992.514.514 0 00.34-.399L5.61.473a.515.515 0 01.509-.435H8.03a.515.515 0 01.509.434l.13.814a.515.515 0 00.34.4 5.652 5.652 0 011.715.99.509.509 0 00.514.094l.773-.295a.514.514 0 01.63.225l.957 1.657a.515.515 0 01-.121.658l-.645.523a.5.5 0 00-.173.484 5.786 5.786 0 01.088.997zM7 6.739A1.39 1.39 0 118.39 5.35 1.39 1.39 0 017 6.74zm2.8 3.085A2.764 2.764 0 007 7.294a2.764 2.764 0 00-2.798 2.53z"/></svg>