<svg data-tags="setting,governance" xmlns="http://www.w3.org/2000/svg" viewBox="0 0 14 14"><path fill-rule="evenodd" d="M7 7.169a1.695 1.695 0 00-1.716 1.55h3.432A1.695 1.695 0 007 7.17z"/><circle cx="7" cy="5.977" r=".852"/><path fill-rule="evenodd" d="M0 0v14h14V0zm10.524 7a3.456 3.456 0 01-.053.605.318.318 0 00.11.306l.39.317a.316.316 0 01.075.404l-.587 1.016a.316.316 0 01-.386.137l-.474-.18a.314.314 0 00-.316.057 3.479 3.479 0 01-1.05.608.315.315 0 00-.209.244l-.08.5a.317.317 0 01-.312.266H6.46a.315.315 0 01-.312-.266l-.08-.5a.315.315 0 00-.209-.244 3.48 3.48 0 01-1.051-.608.314.314 0 00-.316-.058l-.473.181a.316.316 0 01-.386-.137L2.91 8.4l.604-.49a.309.309 0 00.106-.299 3.516 3.516 0 010-1.222.307.307 0 00-.106-.296L2.912 5.6l.72-1.249a.316.316 0 01.387-.137l.473.18a.312.312 0 00.316-.057 3.48 3.48 0 011.051-.608.315.315 0 00.208-.244l.08-.5a.316.316 0 01.313-.266h1.172a.316.316 0 01.312.266l.08.5a.316.316 0 00.208.244 3.464 3.464 0 011.052.608.312.312 0 00.315.057l.474-.181a.315.315 0 01.386.138l.587 1.016a.315.315 0 01-.074.403l-.395.32a.307.307 0 00-.107.297 3.548 3.548 0 01.054.612z"/></svg>