<svg data-tags="gowalla" xmlns="http://www.w3.org/2000/svg" viewBox="0 0 14 14"><path d="M3.39 14c-1.293 0-2.11-.268-2.43-.799a1.03 1.03 0 0 1 .018-1.045c.26-.491 1.023-.677 1.64-.744a3.168 3.168 0 0 1 .048-2.774q-.173-.056-.345-.119a.747.747 0 0 1-.818.411.825.825 0 0 1-.75-.647.75.75 0 0 1 .334-.812c.108-.063.35-.172.65-.305a7.435 7.435 0 0 0 1.82-.987 2.71 2.71 0 0 0-.014-.671 5.35 5.35 0 0 1-1.766 1.221 2.22 2.22 0 0 1-.568.075 1.081 1.081 0 0 1-.982-.456.898.898 0 0 1-.05-.78 2.482 2.482 0 0 1 1.165-1.345 6.127 6.127 0 0 1 1.283-.62 3.965 3.965 0 0 1-1.039-2.445A1.183 1.183 0 0 1 2.14.285a.8.8 0 0 1 .354-.073 1.448 1.448 0 0 1 1.177.71A2.461 2.461 0 0 1 4.1.366 1.558 1.558 0 0 1 4.941 0a.647.647 0 0 1 .64.568 5.4 5.4 0 0 1-.665 3.071c.844.383 3.4 1.747 3.702 4.337a4.701 4.701 0 0 1-.072 1.66l.224.284c.475.607.925 1.179 1.376 1.322.004-.01.7.091 1.511.091a5.914 5.914 0 0 0 1.445-.147.21.21 0 0 1 .072-.008.785.785 0 0 1 .66.36.811.811 0 0 1-.203.837c-.47.623-2.66 1.289-5.17 1.289a13.818 13.818 0 0 1-2.46-.217 3.112 3.112 0 0 1-1.574.503c-.37.033-.72.05-1.037.05Zm-.466-2.105c-.78.05-1.362.242-1.497.498a.533.533 0 0 0-.03.547c.1.166.494.552 1.994.552.302 0 .635-.016.991-.047a3.726 3.726 0 0 0 .842-.165q-.332-.083-.66-.184a4.021 4.021 0 0 1-1.64-1.201Zm3.492 1.108a13.506 13.506 0 0 0 2.046.155c2.59 0 4.478-.709 4.764-1.088.151-.2.157-.299.151-.312a.324.324 0 0 0-.187-.069 6.525 6.525 0 0 1-1.532.153 13.123 13.123 0 0 1-1.62-.105 3.992 3.992 0 0 1-1.666-1.502l-.024-.031a2.125 2.125 0 0 1-1.79 1.288 1.926 1.926 0 0 1-.142 1.511Zm-2.818-1.116a3.61 3.61 0 0 0 1.128.728 11.581 11.581 0 0 0 1.13.287c.588-.622.085-1.608.08-1.618a.254.254 0 0 1 .343-.342.481.481 0 0 0 .226.041 1.682 1.682 0 0 0 1.478-1.236c-.8-.965-1.51-1.454-2.41-.966a1.662 1.662 0 0 0-.919 1.087 2.728 2.728 0 0 0 .523 1.89.254.254 0 0 1 .097.2.242.242 0 0 1-.26.254.267.267 0 0 1-.18-.07 2.627 2.627 0 0 0-1.236-.255Zm-.268-.513a5.974 5.974 0 0 1 1.097.094 2.74 2.74 0 0 1-.27-1.705 2.137 2.137 0 0 1 1.175-1.428 1.984 1.984 0 0 1 .943-.258 2.596 2.596 0 0 1 1.848 1.055 4.71 4.71 0 0 0-.009-1.098c-.32-2.738-3.61-4.02-3.642-4.033a.255.255 0 0 1-.13-.363A5.19 5.19 0 0 0 5.087.689C5.043.507 4.978.507 4.94.507a1.076 1.076 0 0 0-.518.25 3 3 0 0 0-.46.674 5.516 5.516 0 0 1 .28.761c.034.111.208.717-.044 1.042a.563.563 0 0 1-.435.224c-.163 0-.463-.082-.649-.627a2.113 2.113 0 0 1 .278-1.4C2.902.559 2.363.735 2.363.735a.695.695 0 0 0-.273.486c-.097.776.825 1.975 1.188 2.372a.252.252 0 1 1-.17.424 4.62 4.62 0 0 0-1.535.655A2.044 2.044 0 0 0 .66 5.725a.451.451 0 0 0-.003.355.606.606 0 0 0 .552.216 1.85 1.85 0 0 0 .413-.05 5.417 5.417 0 0 0 1.84-1.394.255.255 0 0 1 .318-.058c.341.191.304 1.269.27 1.485-.059.38-.699.724-2.109 1.35-.273.122-.497.221-.597.279a.248.248 0 0 0-.095.268.322.322 0 0 0 .31.25.267.267 0 0 0 .34-.253.255.255 0 0 1 .345-.225c.232.091.453.169.655.232.182-.248.756-.956 1.291-.956a.577.577 0 0 1 .238.05.97.97 0 0 1 .485 1.008c-.039.18-.21.601-.973.601a3.41 3.41 0 0 1-.78-.106 2.638 2.638 0 0 0 .02 2.599Zm.103-3.057a2.599 2.599 0 0 0 .507.059c.162 0 .44-.026.476-.2a.485.485 0 0 0-.195-.439h-.005c-.21 0-.544.298-.783.58Zm.24-6.24a1.062 1.062 0 0 0-.078.591c.075.22.153.278.17.282.084-.093.063-.382-.009-.612q-.04-.131-.083-.261Z"/></svg>