<svg data-tags="gowalla" xmlns="http://www.w3.org/2000/svg" viewBox="0 0 14 14"><circle cx="7" cy="7" r="7" fill="#f69134"/><path d="M11.299 9.593a.45.45 0 0 0-.377-.206.124.124 0 0 0-.041.005 3.367 3.367 0 0 1-.826.084c-.464 0-.861-.058-.864-.052-.257-.082-.514-.409-.786-.756l-.128-.162a2.68 2.68 0 0 0 .041-.948 3.465 3.465 0 0 0-2.116-2.479 3.072 3.072 0 0 0 .38-1.754A.368.368 0 0 0 6.217 3a.893.893 0 0 0-.481.209 1.413 1.413 0 0 0-.246.318.826.826 0 0 0-.672-.406.459.459 0 0 0-.202.042.676.676 0 0 0-.316.499 2.267 2.267 0 0 0 .594 1.397 3.513 3.513 0 0 0-.734.354 1.412 1.412 0 0 0-.665.769.516.516 0 0 0 .028.446.618.618 0 0 0 .561.26 1.241 1.241 0 0 0 .324-.043 3.052 3.052 0 0 0 1.01-.698 1.552 1.552 0 0 1 .007.384 4.257 4.257 0 0 1-1.04.564c-.17.076-.309.138-.37.174a.429.429 0 0 0-.191.464.472.472 0 0 0 .428.37.426.426 0 0 0 .467-.235c.069.025.135.048.198.068a1.807 1.807 0 0 0-.027 1.585c-.353.039-.789.144-.937.425a.588.588 0 0 0-.01.598c.182.303.649.456 1.388.456.18 0 .38-.01.592-.029a1.77 1.77 0 0 0 .9-.287 7.915 7.915 0 0 0 1.406.124 4.733 4.733 0 0 0 2.954-.737.463.463 0 0 0 .116-.478ZM5.492 4.187c.016.048.032.097.047.15a.462.462 0 0 1 .005.349c-.01-.002-.054-.035-.097-.161a.62.62 0 0 1 .045-.338ZM4.675 7.54a.146.146 0 0 0-.198.129c-.003.06-.039.163-.193.145a.184.184 0 0 1-.177-.143.141.141 0 0 1 .055-.153c.056-.034.184-.09.341-.16.806-.357 1.171-.554 1.205-.77.02-.125.04-.74-.154-.85a.146.146 0 0 0-.182.034 3.1 3.1 0 0 1-1.052.796 1.007 1.007 0 0 1-.236.03.346.346 0 0 1-.315-.125.258.258 0 0 1 .001-.202 1.17 1.17 0 0 1 .522-.602 2.641 2.641 0 0 1 .877-.375.145.145 0 0 0 .098-.242c-.208-.227-.735-.912-.68-1.355a.396.396 0 0 1 .157-.278s.308-.1.588.398a1.208 1.208 0 0 0-.159.8c.106.311.277.358.37.358a.32.32 0 0 0 .249-.128c.144-.186.045-.532.025-.595a3.077 3.077 0 0 0-.16-.435 1.704 1.704 0 0 1 .264-.386.617.617 0 0 1 .296-.142c.021 0 .058 0 .084.104a2.969 2.969 0 0 1-.427 1.685.144.144 0 0 0 .053.197l.022.01c.018.008 1.898.74 2.08 2.305a2.653 2.653 0 0 1 .006.628 1.484 1.484 0 0 0-1.056-.603 1.14 1.14 0 0 0-.538.147 1.222 1.222 0 0 0-.672.816 1.569 1.569 0 0 0 .154.975A3.414 3.414 0 0 0 5.21 9.5a1.507 1.507 0 0 1-.01-1.485 1.97 1.97 0 0 0 .445.06c.435 0 .533-.24.556-.343a.555.555 0 0 0-.277-.576.335.335 0 0 0-.137-.028c-.305 0-.633.404-.737.546q-.19-.06-.375-.133Zm.68.212c.137-.161.327-.332.448-.332h.003a.276.276 0 0 1 .111.25c-.021.1-.18.115-.272.115a1.505 1.505 0 0 1-.29-.033Zm.542 2.93q-.282.026-.566.027c-.858 0-1.083-.22-1.14-.316a.305.305 0 0 1 .018-.312c.077-.147.41-.256.855-.285a2.293 2.293 0 0 0 .938.687c.122.037.248.073.376.105a2.098 2.098 0 0 1-.481.094Zm.889-1.234c.003.005.29.569-.046.924a6.633 6.633 0 0 1-.646-.164 2.058 2.058 0 0 1-.644-.416 1.5 1.5 0 0 1 .705.145.153.153 0 0 0 .102.04.138.138 0 0 0 .15-.145.146.146 0 0 0-.056-.114 1.56 1.56 0 0 1-.298-1.08.942.942 0 0 1 .525-.62c.514-.28.92 0 1.378.551a.963.963 0 0 1-.845.707.275.275 0 0 1-.13-.024.148.148 0 0 0-.17.026.145.145 0 0 0-.025.17Zm4.165.448a4.703 4.703 0 0 1-2.722.621 7.774 7.774 0 0 1-1.17-.088 1.095 1.095 0 0 0 .081-.864 1.213 1.213 0 0 0 1.023-.736l.014.018a2.275 2.275 0 0 0 .951.858 7.604 7.604 0 0 0 .927.06 3.765 3.765 0 0 0 .875-.087c.046.005.1.024.107.04.004.007 0 .063-.086.178Z" fill="#fff"/></svg>