<svg data-tags="grabPay" xmlns="http://www.w3.org/2000/svg" viewBox="0 0 14 14"><path d="M0 0h14v14H0Z" fill="#00b14f" fill-rule="evenodd"/><path d="M7.61 2.625a5.462 5.462 0 0 1 2.087.319l.053.022v.75a3.996 3.996 0 0 0-2.141-.465 3.981 3.981 0 0 0-2.731 1.082A3.532 3.532 0 0 0 3.73 6.811v.276a3.633 3.633 0 0 0 1.029 2.57 3.54 3.54 0 0 0 2.548 1.05 3.536 3.536 0 0 0 2.57-.848l.016-.015.003-.002V7.119H7.146v-.668h3.42v3.598l-.031.04a3.03 3.03 0 0 1-.808.67 4.663 4.663 0 0 1-2.419.616 4.205 4.205 0 0 1-3.007-1.243 4.283 4.283 0 0 1-1.238-2.975V6.87a4.463 4.463 0 0 1 4.546-4.245Zm0 1.118a4.364 4.364 0 0 1 2.08.438l.06.03v.791a3.08 3.08 0 0 0-2.14-.59 2.64 2.64 0 0 0-2.717 2.416l-.001.042v.216a2.466 2.466 0 0 0 .706 1.748 2.385 2.385 0 0 0 1.71.712 3.754 3.754 0 0 0 1.337-.21l.129-.049.006-.002V8.28H7.146V7.61h2.259v2.007l-.015.014a2.972 2.972 0 0 1-2.082.582 3.109 3.109 0 0 1-3.084-3.076V6.87a2.99 2.99 0 0 1 1.001-2.206 3.507 3.507 0 0 1 2.384-.921Z" fill="#fff"/></svg>