<svg xmlns="http://www.w3.org/2000/svg" viewBox="0 0 14 14"><path fill="none" d="M6.085 13.944z"/><path fill="#07D0E3" d="M13.636 7.702a.827.827 0 00-.712-.35c-.4.006-.778.103-1.128.3-.762 1.964-2.01 3.551-3.714 4.783a12.771 12.771 0 01-2.84 1.523s.45.027.808-.034c.04-.007.079-.014.118-.024.02-.005.04-.012.059-.018 1.16-.39 2.167-1.023 2.938-1.978 1.035-1.28 2.194-2.41 3.649-3.207.322-.176.61-.387.822-.69.053-.109.042-.24 0-.305z"/><path fill="#0166E3" d="M3.265 10.693c.138-.002.276.002.413-.018 1.164-.167 2.2-.643 3.176-1.277.53-.345 1.018-.746 1.505-1.147-.292-.809-.206-1.587.181-2.345.057-.11.08-.238.116-.36.28-.936.468-1.893.656-2.85.078-.398.138-.799.106-1.206-.026-.336-.2-.58-.45-.635-.245-.055-.465.076-.629.404a4.305 4.305 0 00-.234.584c-.26.791-.265 1.626-.41 2.437-.087.48-.163.965-.376 1.41-.165.344-.392.383-.68.14-.307.433-.732.648-1.251.692.465-.32.765-.783 1.095-1.219a30.996 30.996 0 00-.013-3.032c-.287.714-.581 1.425-.985 2.084-.052.085-.113.165-.17.248-.001.351-.006.703-.004 1.055 0 .126-.044.216-.17.24-.134.027-.196-.068-.233-.176-.041-.117-.073-.238-.109-.357l-.877.904a1.024 1.024 0 01-.3.228c-.01.065-.028.13-.032.195-.028.414-.188.496-.55.282-.386.22-.76.463-1.172.633l.637 1.933c.72-.367 1.42-.764 2.047-1.28.41-.337.788-.706 1.173-1.07-.702 1.341-1.573 2.528-2.96 3.246l.091.312a1.34 1.34 0 01.409-.055z"/><path fill="#FD01A1" d="M11.796 7.652c-.242.06-.435.212-.629.357-.37.277-.715.587-1.126.807-.73.392-1.284.3-1.61-.461-.002-.007-.012-.012-.018-.017-.462.634-.924 1.268-1.465 1.84-.69.729-1.442 1.373-2.377 1.775-.384.165-.796.2-1.2.272.125.341.308.651.528.937.34.44.768.745 1.342.796a12.771 12.771 0 002.84-1.523c1.706-1.232 2.953-2.82 3.715-4.783z"/><path fill="#03D2E3" d="M4.8 5.365c-.26-1.024-.384-2.074-.607-3.105-.085-.39-.208-.767-.444-1.095-.219-.304-.527-.308-.759-.014a.93.93 0 00-.19.712c.175 1.563.626 3.076.822 4.634.117-.054.212-.136.3-.228l.877-.904z"/><path fill="#FCF101" d="M6.948 10.178c.54-.572 1.003-1.206 1.465-1.84C8.41 8.3 8.4 8.266 8.36 8.25c-.487.401-.975.802-1.505 1.147-.975.634-2.012 1.11-3.176 1.277-.137.02-.275.016-.413.018a1.34 1.34 0 00-.409.055c.149.5.296 1.001.515 1.477.404-.071.816-.107 1.2-.272.935-.402 1.687-1.046 2.377-1.775zM2.856 10.748z"/><path fill="#03D1E3" d="M2.744 6.534c-.37-.644-.73-1.291-1.099-1.936-.155-.271-.317-.54-.571-.734-.18-.136-.385-.192-.588-.061-.199.127-.17.33-.124.525.102.432.308.82.523 1.202.377.669.716 1.356.983 2.077.412-.17.786-.413 1.172-.633-.1-.147-.208-.287-.296-.44z"/><path fill="#04D1E4" d="M6.47 2.27c.016-.396.037-.792.004-1.188-.021-.26-.064-.52-.178-.758-.172-.36-.5-.387-.725-.057a1.27 1.27 0 00-.212.668c-.054 1.222-.038 2.445-.043 3.668.056-.083.117-.163.169-.248.404-.659.698-1.37.985-2.084z"/><path fill="#F8F002" d="M5.725 7.19c-.385.364-.764.733-1.173 1.07-.627.516-1.327.913-2.047 1.28l.26.896c1.387-.718 2.258-1.905 2.96-3.245z"/><path fill="#F3C506" d="M5.388 6.522c.52-.044.944-.259 1.25-.692-.092-.163-.115-.348-.155-.527-.33.436-.63.9-1.095 1.22z"/></svg>