<svg xmlns="http://www.w3.org/2000/svg" viewBox="0 0 14 14"><circle fill="#164E8C" cx="7" cy="7" r="7"/><path fill="#07D0E3" d="M12.61 7.54a.64.64 0 00-.54-.27c-.31 0-.6.08-.87.23a8.05 8.05 0 01-2.86 3.68c-.67.49-1.4.86-2.18 1.17 0 0 .35.02.62-.03a1.14 1.14 0 00.1-.02l.04-.01c.89-.3 1.66-.79 2.26-1.52a9.53 9.53 0 012.8-2.47c.25-.13.47-.3.63-.53.04-.08.03-.18 0-.23z"/><path fill="#0166E3" d="M4.64 9.84l.32-.01c.9-.13 1.69-.5 2.44-.99a13 13 0 001.16-.88 2.18 2.18 0 01.14-1.8c.04-.09.06-.18.08-.28.22-.72.36-1.45.5-2.19.07-.3.12-.61.09-.93-.02-.25-.15-.44-.35-.48-.18-.05-.35.06-.48.3-.07.15-.13.3-.18.46-.2.6-.2 1.25-.32 1.87-.06.37-.12.74-.28 1.08-.13.27-.3.3-.53.11-.23.33-.56.5-.96.53.36-.24.59-.6.84-.93.04-.78.03-1.56 0-2.34-.23.55-.45 1.1-.76 1.6l-.13.2v.8c0 .1-.04.17-.14.2-.1.01-.15-.06-.18-.14l-.08-.28-.67.7a.79.79 0 01-.23.17l-.03.15c-.02.32-.14.38-.42.22-.3.17-.59.36-.9.49l.49 1.48c.55-.28 1.09-.59 1.57-.98.31-.26.6-.54.9-.82a5.48 5.48 0 01-2.27 2.5l.07.23c.1-.03.2-.04.31-.04z"/><path fill="#FD01A1" d="M11.2 7.5c-.19.05-.34.16-.49.28-.28.2-.55.45-.86.62-.56.3-.99.23-1.24-.36l-.01-.01c-.36.49-.71.97-1.13 1.41a5.57 5.57 0 01-1.83 1.37c-.3.12-.6.15-.92.2.1.27.24.5.4.73.27.34.6.57 1.04.6.77-.3 1.5-.67 2.18-1.16A8.05 8.05 0 0011.2 7.5z"/><path fill="#03D2E3" d="M5.82 5.74c-.2-.78-.3-1.6-.47-2.38a2.2 2.2 0 00-.34-.85c-.17-.23-.4-.23-.58 0a.72.72 0 00-.15.54c.14 1.2.48 2.37.64 3.56.08-.04.16-.1.23-.17l.67-.7z"/><path fill="#FCF101" d="M7.47 9.44c.42-.44.77-.92 1.13-1.41 0-.03-.01-.06-.04-.07-.38.31-.75.62-1.16.88-.75.5-1.55.86-2.44.99h-.32c-.1.01-.21.02-.31.05.11.39.22.77.4 1.14.3-.06.62-.09.91-.21.72-.31 1.3-.8 1.83-1.37zM4.33 9.88z"/><path fill="#03D1E3" d="M4.24 6.64L3.4 5.15c-.12-.2-.25-.41-.44-.56-.14-.1-.3-.15-.46-.05-.15.1-.13.26-.1.4.09.34.25.64.41.93.3.51.55 1.04.76 1.6.31-.13.6-.32.9-.49l-.23-.34z"/><path fill="#04D1E4" d="M7.1 3.36c.02-.3.03-.6 0-.9 0-.21-.04-.4-.13-.6-.13-.27-.38-.29-.56-.04a.98.98 0 00-.16.52c-.04.94-.03 1.88-.03 2.82l.13-.2c.3-.5.53-1.05.75-1.6z"/><path fill="#F8F002" d="M6.53 7.15c-.3.28-.59.56-.9.82-.48.4-1.02.7-1.57.98l.2.7a5.48 5.48 0 002.27-2.5z"/><path fill="#F3C506" d="M6.27 6.63c.4-.03.73-.2.96-.53-.07-.12-.09-.27-.12-.4-.25.33-.48.69-.84.93z"/></svg>