<svg data-tags="haptik" xmlns="http://www.w3.org/2000/svg" viewBox="0 0 14 14"><path fill="#254e87" d="M0 0h14v14H0z"/><path d="M12.61 7.54a.64.64 0 0 0-.54-.27 1.768 1.768 0 0 0-.87.23 8.05 8.05 0 0 1-2.86 3.68 9.727 9.727 0 0 1-2.18 1.17 3.114 3.114 0 0 0 .62-.03q.05-.008.1-.02l.04-.01a4.865 4.865 0 0 0 2.26-1.52 9.53 9.53 0 0 1 2.8-2.47 1.705 1.705 0 0 0 .63-.53.263.263 0 0 0 0-.23Z" fill="#5dccdf"/><path d="m4.64 9.84.32-.01a6 6 0 0 0 2.44-.99 12.997 12.997 0 0 0 1.16-.88 2.18 2.18 0 0 1 .14-1.8 1.29 1.29 0 0 0 .08-.28 20.417 20.417 0 0 0 .5-2.19 2.887 2.887 0 0 0 .09-.93.485.485 0 0 0-.35-.48c-.18-.05-.35.06-.48.3a3.656 3.656 0 0 0-.18.46 14.606 14.606 0 0 0-.32 1.87 3.997 3.997 0 0 1-.28 1.08c-.13.27-.3.3-.53.11a1.227 1.227 0 0 1-.96.53 3.714 3.714 0 0 0 .84-.93c.04-.78.03-1.56 0-2.34a11.177 11.177 0 0 1-.76 1.6l-.13.2v.8a.186.186 0 0 1-.14.2c-.1.01-.15-.06-.18-.14l-.08-.28-.67.7a.79.79 0 0 1-.23.17l-.03.15c-.02.32-.14.38-.42.22a8.777 8.777 0 0 1-.9.49l.49 1.48a8.782 8.782 0 0 0 1.57-.98c.31-.26.6-.54.9-.82a5.48 5.48 0 0 1-2.27 2.5l.07.23a1.055 1.055 0 0 1 .31-.04Z" fill="#2667da"/><path d="M11.2 7.5a1.332 1.332 0 0 0-.49.28 8.957 8.957 0 0 1-.86.62c-.56.3-.99.23-1.24-.36l-.01-.01a13.952 13.952 0 0 1-1.13 1.41 5.57 5.57 0 0 1-1.83 1.37 4.08 4.08 0 0 1-.92.2 3.228 3.228 0 0 0 .4.73 1.426 1.426 0 0 0 1.04.6 9.718 9.718 0 0 0 2.18-1.16A8.05 8.05 0 0 0 11.2 7.5Z" fill="#e7369d"/><path d="M5.82 5.74c-.2-.78-.3-1.6-.47-2.38a2.2 2.2 0 0 0-.34-.85.33.33 0 0 0-.58 0 .72.72 0 0 0-.15.54c.14 1.2.48 2.37.64 3.56a.912.912 0 0 0 .23-.17Z" fill="#5ecedf"/><path d="M7.47 9.44A13.952 13.952 0 0 0 8.6 8.03a.067.067 0 0 0-.04-.07 12.202 12.202 0 0 1-1.16.88 5.918 5.918 0 0 1-2.44.99h-.32a1.668 1.668 0 0 0-.31.05 6.708 6.708 0 0 0 .4 1.14 4.8 4.8 0 0 0 .91-.21 5.47 5.47 0 0 0 1.83-1.37Z" fill="#faef50"/><path d="M4.24 6.64 3.4 5.15a1.984 1.984 0 0 0-.44-.56.393.393 0 0 0-.46-.05c-.15.1-.13.26-.1.4a4.104 4.104 0 0 0 .41.93 10.198 10.198 0 0 1 .76 1.6 8.777 8.777 0 0 0 .9-.49l-.23-.34Z" fill="#5dcddf"/><path d="M7.1 3.36a5.41 5.41 0 0 0 0-.9 1.411 1.411 0 0 0-.13-.6c-.13-.27-.38-.29-.56-.04a.98.98 0 0 0-.16.52c-.04.94-.03 1.88-.03 2.82l.13-.2a11.13 11.13 0 0 0 .75-1.6Z" fill="#5dcde0"/><path d="M6.53 7.15c-.3.28-.59.56-.9.82a8.248 8.248 0 0 1-1.57.98l.2.7a5.48 5.48 0 0 0 2.27-2.5Z" fill="#f6ee50"/><path d="M6.27 6.63a1.227 1.227 0 0 0 .96-.53 1.42 1.42 0 0 1-.12-.4 3.714 3.714 0 0 1-.84.93Z" fill="#ebc544"/></svg>