<svg xmlns="http://www.w3.org/2000/svg" viewBox="0 0 13.34 13.93"><path d="M13.3 7.67a.83.83 0 00-.7-.35 2.35 2.35 0 00-1.13.3 1.81 1.81 0 00-.63.35 9.26 9.26 0 01-1.13.81c-.73.4-1.27.38-1.6-.38a.94.94 0 00-.03-.1 10.65 10.65 0 01.25-2.79c.28-.94.47-1.9.65-2.85a4.43 4.43 0 00.11-1.2.65.65 0 00-.45-.64c-.25-.06-.46.08-.63.4a4.3 4.3 0 00-.23.59 17.42 17.42 0 00-.41 2.43 5.42 5.42 0 01-.38 1.41c-.16.35-.4.39-.68.14a1.86 1.86 0 01-.16-.52 31 31 0 000-3.04 9.69 9.69 0 000-1.18 2.14 2.14 0 00-.18-.76.38.38 0 00-.73-.06 1.27 1.27 0 00-.2.67c-.06 1.22-.05 2.44-.05 3.67v1.05c0 .13-.05.22-.18.24-.13.03-.2-.07-.23-.17l-.1-.36c-.27-1.02-.4-2.07-.62-3.1a2.87 2.87 0 00-.44-1.1.43.43 0 00-.76-.02.93.93 0 00-.19.72c.18 1.56.63 3.07.82 4.63 0 .07-.02.13-.03.2-.03.4-.19.5-.55.28l-.3-.44c-.36-.65-.72-1.3-1.1-1.94a2.3 2.3 0 00-.56-.73.48.48 0 00-.6-.06c-.2.12-.16.33-.12.52a4.66 4.66 0 00.53 1.2 14.36 14.36 0 01.98 2.08l.64 1.93.26.9.09.31a10.9 10.9 0 00.51 1.48 3.5 3.5 0 00.53.94 1.87 1.87 0 001.34.8 4.21 4.21 0 00.81-.04l.12-.03.06-.01a6.23 6.23 0 002.94-1.98 12.4 12.4 0 013.65-3.2 2.31 2.31 0 00.82-.7.34.34 0 000-.3z"/></svg>