<svg data-tags="beta,hdfc" xmlns="http://www.w3.org/2000/svg" viewBox="0 0 14 14"><path d="M2.206.035h10.018v10.018H2.206Z" fill="#d93b36"/><path d="M3.96 1.789h6.512V8.3H3.959Z" fill="#fff"/><path d="M6.714.035h1.002v10.018H6.714Z" fill="#fff"/><path d="M2.206 4.545h10.018v1.001H2.206Z" fill="#fff"/><path d="M5.713 3.542h3.005v3.006H5.713ZM3.076 13.95h-.897a.373.373 0 0 1-.277-.087.39.39 0 0 1-.083-.277V11.38a.383.383 0 0 1 .085-.278.374.374 0 0 1 .275-.086h.95a2.183 2.183 0 0 1 .365.026.773.773 0 0 1 .276.1.74.74 0 0 1 .185.157.697.697 0 0 1 .164.454.677.677 0 0 1-.44.644.715.715 0 0 1 .577.716.805.805 0 0 1-.126.444.752.752 0 0 1-.34.29 1.16 1.16 0 0 1-.308.08 3.092 3.092 0 0 1-.406.023Zm-.662-2.488v.759h.543a1.077 1.077 0 0 0 .343-.042.328.328 0 0 0 .186-.16.359.359 0 0 0 .05-.188.293.293 0 0 0-.159-.296 1.204 1.204 0 0 0-.482-.073Zm.618 1.185h-.618v.857h.637c.403 0 .603-.145.603-.435a.355.355 0 0 0-.156-.322.874.874 0 0 0-.466-.1ZM6.869 11.475h-1.34v.72h1.233a.292.292 0 0 1 .203.06.208.208 0 0 1 .068.162.216.216 0 0 1-.067.163.287.287 0 0 1-.204.064H5.53v.834h1.385a.303.303 0 0 1 .21.065.22.22 0 0 1 .072.173.216.216 0 0 1-.072.169.298.298 0 0 1-.21.065H5.299a.38.38 0 0 1-.279-.086.386.386 0 0 1-.085-.278V11.38a.497.497 0 0 1 .038-.21.238.238 0 0 1 .12-.117.504.504 0 0 1 .206-.037h1.57a.304.304 0 0 1 .21.063.213.213 0 0 1 .07.165.216.216 0 0 1-.07.167.304.304 0 0 1-.21.064ZM9.739 11.507H9.09v2.13a.393.393 0 0 1-.082.274.274.274 0 0 1-.212.089.283.283 0 0 1-.215-.09.392.392 0 0 1-.083-.272v-2.131h-.649a.324.324 0 0 1-.225-.068.249.249 0 0 1 .002-.357.333.333 0 0 1 .223-.066h1.89a.337.337 0 0 1 .23.068.23.23 0 0 1 .074.179.224.224 0 0 1-.076.176.336.336 0 0 1-.228.068ZM12.178 13.618l-.14-.368h-1.193l-.14.376a1.285 1.285 0 0 1-.14.297.22.22 0 0 1-.19.077.279.279 0 0 1-.198-.082.25.25 0 0 1-.086-.186.431.431 0 0 1 .02-.124c.013-.043.035-.102.066-.178l.75-1.906c.022-.054.048-.12.077-.197a1.024 1.024 0 0 1 .097-.191.386.386 0 0 1 .134-.123.476.476 0 0 1 .412 0 .404.404 0 0 1 .135.12.923.923 0 0 1 .086.16l.089.228.766 1.893a.959.959 0 0 1 .09.315.26.26 0 0 1-.085.186.28.28 0 0 1-.205.085.266.266 0 0 1-.12-.024.25.25 0 0 1-.084-.069.66.66 0 0 1-.073-.131 7.285 7.285 0 0 1-.068-.158Zm-1.177-.814h.877l-.442-1.211Z" fill="#1c4c89"/></svg>