<svg data-tags="UAT,hdfc" xmlns="http://www.w3.org/2000/svg" viewBox="0 0 14 14"><path d="M1.991.035h10.018v10.018H1.991Z" fill="#d93b36"/><path d="M3.744 1.789h6.513V8.3H3.744Z" fill="#fff"/><path d="M6.5.035h1v10.018h-1Z" fill="#fff"/><path d="M1.991 4.545h10.018v1.001H1.991Z" fill="#fff"/><path d="M5.498 3.542h3.005v3.006H5.498ZM3.131 12.737v-1.41a.396.396 0 0 1 .082-.271.274.274 0 0 1 .212-.09.283.283 0 0 1 .22.09.396.396 0 0 1 .081.27v1.444a1.306 1.306 0 0 0 .055.41.473.473 0 0 0 .195.257.718.718 0 0 0 .393.091.59.59 0 0 0 .492-.185.909.909 0 0 0 .144-.562v-1.455a.4.4 0 0 1 .08-.271.278.278 0 0 1 .214-.09.286.286 0 0 1 .217.09.386.386 0 0 1 .083.271v1.411a2.076 2.076 0 0 1-.067.575.882.882 0 0 1-.253.404.989.989 0 0 1-.372.217A1.643 1.643 0 0 1 4.41 14a2.047 2.047 0 0 1-.583-.073.937.937 0 0 1-.399-.226.916.916 0 0 1-.225-.392 1.998 1.998 0 0 1-.073-.572ZM8.079 13.618l-.14-.368H6.746l-.14.376a1.284 1.284 0 0 1-.14.297.22.22 0 0 1-.19.077.279.279 0 0 1-.198-.082.25.25 0 0 1-.086-.186.432.432 0 0 1 .02-.124c.013-.043.035-.102.066-.178l.75-1.906c.021-.054.048-.12.077-.197a1.024 1.024 0 0 1 .097-.191.386.386 0 0 1 .133-.123.476.476 0 0 1 .412 0 .404.404 0 0 1 .135.12.924.924 0 0 1 .086.16c.024.057.053.133.09.228l.766 1.893a.959.959 0 0 1 .09.315.26.26 0 0 1-.086.186.28.28 0 0 1-.205.085.266.266 0 0 1-.12-.024.25.25 0 0 1-.084-.069.66.66 0 0 1-.073-.132 6.867 6.867 0 0 1-.067-.157Zm-1.177-.814h.877l-.442-1.211ZM10.859 11.507h-.648v2.13a.393.393 0 0 1-.082.274.274.274 0 0 1-.212.089.283.283 0 0 1-.216-.09.392.392 0 0 1-.083-.272v-2.131h-.649a.324.324 0 0 1-.225-.068.249.249 0 0 1 .003-.357.333.333 0 0 1 .222-.066h1.89a.337.337 0 0 1 .23.068.23.23 0 0 1 .075.179.224.224 0 0 1-.076.176.336.336 0 0 1-.229.068Z" fill="#1c4c89"/></svg>