<svg data-tags="hubspot" xmlns="http://www.w3.org/2000/svg" viewBox="0 0 14 14"><circle cx="7" cy="7" r="7" fill="#ff7a59"/><path fill="#fff" d="M9.283 5.476V4.414a.818.818 0 00.472-.738v-.024a.818.818 0 00-.819-.818h-.024a.818.818 0 00-.818.818v.024a.818.818 0 00.471.738v1.062a2.317 2.317 0 00-1.101.486l-2.915-2.27a.92.92 0 10-.89.69.912.912 0 00.454-.123l2.87 2.233a2.324 2.324 0 00.035 2.618l-.873.873a.772.772 0 10.504.504l.864-.864a2.328 2.328 0 101.77-4.147m-.358 3.495a1.195 1.195 0 11-.064-2.388h.064a1.195 1.195 0 01.001 2.388"/></svg>