<svg data-tags="Hybris,brand" xmlns="http://www.w3.org/2000/svg" viewBox="0 0 14 14"><path d="M5.336.005v2.05L3.79 2.2a14.987 14.987 0 000 9.545l1.545.146V14a15.827 15.827 0 01-3.388-.322 18.63 18.63 0 010-13.409A15.894 15.894 0 015.336.005zm3.328 0v2.05l1.545.146a14.987 14.987 0 010 9.545l-1.545.146V14a15.826 15.826 0 003.388-.322 18.63 18.63 0 000-13.409A15.893 15.893 0 008.664.005z"/><path d="M9.45 4.092a4.05 4.05 0 00-1.662-.212 13.602 13.602 0 01-.875 2.154 21.572 21.572 0 01-.759-2.184 4.823 4.823 0 00-1.604.273 18.258 18.258 0 002.538 6.37 5.356 5.356 0 001.954-.272 36.23 36.23 0 01-1.138-2.063A13.211 13.211 0 009.45 4.092z"/></svg>