<svg data-tags="Hybris,brand" xmlns="http://www.w3.org/2000/svg" viewBox="0 0 14 14"><rect width="14" height="14" rx="7" fill="#f2f2f2"/><path d="M5.811 2.004v1.464l-1.103.104a10.705 10.705 0 000 6.818l1.103.104V12a11.305 11.305 0 01-2.42-.23 13.307 13.307 0 010-9.578 11.353 11.353 0 012.42-.188zm2.378 0v1.464l1.103.104a10.705 10.705 0 010 6.818l-1.103.104V12a11.304 11.304 0 002.42-.23 13.307 13.307 0 000-9.578 11.353 11.353 0 00-2.42-.188z" fill="#3c7ab8"/><path d="M8.75 4.923a2.893 2.893 0 00-1.187-.152 9.715 9.715 0 01-.625 1.539 15.41 15.41 0 01-.542-1.56 3.445 3.445 0 00-1.146.195 13.042 13.042 0 001.813 4.55 3.825 3.825 0 001.395-.194 25.876 25.876 0 01-.812-1.474A9.436 9.436 0 008.75 4.923z" fill="#3c7ab8"/></svg>