<svg data-tags="ideal" xmlns="http://www.w3.org/2000/svg" viewBox="0 0 14 14"><path d="M0 0h14v14H0Z" fill="#fff"/><path d="M1.313 2.929v8.515a.74.74 0 0 0 .74.741h5.089c3.844 0 5.512-2.153 5.512-5.008 0-2.844-1.667-4.99-5.513-4.99H2.054a.741.741 0 0 0-.741.742Z" fill="#fff"/><path d="M7.14 11.505H2.715a.712.712 0 0 1-.711-.712V3.58a.712.712 0 0 1 .711-.712H7.14c4.197 0 4.824 2.7 4.824 4.309 0 2.791-1.713 4.328-4.824 4.328Zm-4.425-8.4a.475.475 0 0 0-.475.475v7.213a.475.475 0 0 0 .475.474H7.14c2.958 0 4.587-1.452 4.587-4.09 0-3.543-2.874-4.072-4.587-4.072Z"/><path d="M4.717 4.279v6.29h2.738c2.488 0 3.566-1.406 3.566-3.39 0-1.899-1.078-3.375-3.566-3.375H5.191a.474.474 0 0 0-.474.474Z" fill="#c06"/><path d="M9.937 6.33v1.226h.732v.277H9.607V6.331Zm-1.1 0L9.4 7.834h-.343L8.943 7.5H8.38l-.118.333H7.93l.569-1.502Zm.019.922-.19-.55h-.004l-.195.55h.389Zm-1.15-.921v.277h-.794v.322h.728v.257h-.728v.369h.81v.277h-1.14V6.331Zm-2.025 0a.767.767 0 0 1 .27.046.585.585 0 0 1 .217.14.642.642 0 0 1 .143.23.95.95 0 0 1 .052.327 1.043 1.043 0 0 1-.042.303.683.683 0 0 1-.127.24.6.6 0 0 1-.213.159.712.712 0 0 1-.3.057h-.648V6.331Zm-.023 1.225a.43.43 0 0 0 .138-.024.308.308 0 0 0 .12-.077.388.388 0 0 0 .085-.14.615.615 0 0 0 .031-.21.892.892 0 0 0-.022-.205.408.408 0 0 0-.074-.156.324.324 0 0 0-.133-.101.53.53 0 0 0-.206-.035h-.235v.948Z" fill="#fff"/><path d="M3.48 8.174a.525.525 0 0 1 .524.525v1.87a1.05 1.05 0 0 1-1.05-1.05v-.82a.525.525 0 0 1 .525-.525Z"/><circle cx="3.479" cy="7.082" r=".693"/></svg>