<svg data-tags="Interac" xmlns="http://www.w3.org/2000/svg" viewBox="0 0 14 14"><path d="M0 0h14v14H0Z" fill="#fdb913" fill-rule="evenodd"/><path d="M2.482 7.235a.405.405 0 0 1 .405.405v.237l.001 1.342v.354a.087.087 0 0 0 .175 0V7.996l1.023.694a.531.531 0 0 1 .236.442V10.7l-.001 1.404h-.022l-.965.002h-.16a1.099 1.099 0 0 1-1.095-1.025l-.002-.073V7.64a.405.405 0 0 1 .405-.405ZM1.907 9.62v.644l-.013.004c-.203.049-.428.1-.47.109a.36.36 0 0 1-.375-.549l.004-.006.855-.202Zm0-.825v.644l-.013.004c-.192.046-.422.1-.47.108a.36.36 0 0 1-.375-.548l.004-.006.007-.002Zm0-.824v.644l-.013.003c-.192.047-.422.1-.47.11a.36.36 0 0 1-.375-.55l.004-.005.007-.002Zm0-3.783v3.602l-.656.156V4.344l.656-.155Zm1.527.939c.468-.11.619.164.619.554v1.612l-.623.146V5.916c0-.238-.112-.286-.246-.257a.466.466 0 0 0-.302.49v1.043a.605.605 0 0 0-.623-.108l-.001-1.617.591-.14v.253a.888.888 0 0 1 .585-.452Zm1.704-.842v.502l.441-.105v.46l-.44.105v1.138c0 .518.137.617.137.617l-.666.158a1.333 1.333 0 0 1-.095-.647V5.394l-.302.072v-.46l.302-.072v-.502Zm2.337.9c-.004.194-.003.29-.003.29l-1.205.282v.02c0 .379.08.559.32.508a.328.328 0 0 0 .281-.335c.003-.026.005-.092.005-.092l.564-.135v.098a.945.945 0 0 1-.852.936c-.743.176-.94-.278-.94-.932a1.887 1.887 0 0 1 .178-.915 1.043 1.043 0 0 1 .73-.517c.684-.155.93.25.921.792Zm1.478-1.333v.573a.812.812 0 0 0-.308.064.535.535 0 0 0-.325.557v1.24l-.62.144V4.186l.585-.14v.295a.842.842 0 0 1 .504-.477.337.337 0 0 1 .164-.01Zm1.841.282v.994c0 .482.09.552.09.552l-.568.134a1.234 1.234 0 0 1-.076-.204.777.777 0 0 1-.553.414.517.517 0 0 1-.689-.555c0-.52.305-.685.764-.874.412-.171.421-.256.423-.404.002-.125-.056-.232-.261-.18a.31.31 0 0 0-.249.294 1.258 1.258 0 0 0-.004.115l-.578.137a1.15 1.15 0 0 1 .04-.342c.093-.31.367-.52.84-.63.616-.142.821.129.822.549Zm-.613.625a2.143 2.143 0 0 1-.302.176.402.402 0 0 0-.275.383.196.196 0 0 0 .266.21.439.439 0 0 0 .311-.457Zm2.563-1.509a.782.782 0 0 1 .125.494v.04l-.597.143v-.083c0-.262-.073-.361-.263-.314-.225.057-.316.272-.316.697v.2c0 .432.06.63.32.576.225-.047.256-.245.26-.419l.002-.114.595-.141v.019l.001.074a1.006 1.006 0 0 1-.862 1.056c-.772.18-.923-.265-.947-.967-.023-.683.154-1.226.917-1.4.487-.11.671.017.765.14ZM6.578 4.813c-.2.045-.304.24-.309.565l.607-.145v-.097c0-.245-.076-.374-.298-.324Z" fill="#231f20"/></svg>