<svg data-tags="infobip" xmlns="http://www.w3.org/2000/svg" viewBox="0 0 14 14"><circle cx="6.986" cy="6.986" r="6.986" fill="#e9530e"/><path fill="#fff" d="M5.55 8.397c.08.08.32.32 1.425.32s1.345-.24 1.425-.32.32-.32.32-1.425-.24-1.344-.32-1.424-.32-.32-1.425-.32-1.345.24-1.425.32-.32.32-.32 1.424.24 1.345.32 1.425zm-.88-3.724a3.577 3.577 0 012.316-.63 3.577 3.577 0 012.315.63 3.577 3.577 0 01.63 2.315 3.577 3.577 0 01-.63 2.316 3.577 3.577 0 01-2.315.63 3.609 3.609 0 01-2.316-.63 3.566 3.566 0 01-.63-2.316 3.577 3.577 0 01.63-2.315zm-.507 5.154a4.125 4.125 0 002.823.864 4.099 4.099 0 002.822-.864 4.125 4.125 0 00.865-2.823 4.099 4.099 0 00-.865-2.822 4.125 4.125 0 00-2.822-.865 4.099 4.099 0 00-2.823.865A4.135 4.135 0 003.3 7.004a4.153 4.153 0 00.864 2.823zM2.05 6.988a4.936 4.936 0 114.872 4.93 4.935 4.935 0 01-4.872-4.93zm4.258-.955h1.35a.276.276 0 01.277.278v1.35a.276.276 0 01-.277.277h-1.35a.276.276 0 01-.277-.277V6.31a.276.276 0 01.277-.278z"/></svg>