<svg data-tags="infobip" xmlns="http://www.w3.org/2000/svg" viewBox="0 0 14 14"><path d="M4.971 8.994c.113.113.453.453 2.014.453s1.9-.34 2.013-.453.452-.452.452-2.013-.339-1.9-.452-2.014-.452-.452-2.013-.452-1.9.34-2.014.452-.452.453-.452 2.014.34 1.9.452 2.013zM3.727 3.731A5.055 5.055 0 017 2.84a5.055 5.055 0 013.272.89 5.055 5.055 0 01.89 3.272 5.055 5.055 0 01-.89 3.273 5.055 5.055 0 01-3.272.89 5.1 5.1 0 01-3.273-.89 5.04 5.04 0 01-.89-3.273 5.055 5.055 0 01.89-3.272zm-.716 7.284A5.83 5.83 0 007 12.237a5.792 5.792 0 003.989-1.222 5.83 5.83 0 001.221-3.989 5.792 5.792 0 00-1.221-3.99 5.83 5.83 0 00-3.99-1.22 5.792 5.792 0 00-3.988 1.22 5.844 5.844 0 00-1.222 3.99 5.869 5.869 0 001.222 3.99zM.024 7.003a6.976 6.976 0 116.885 6.968A6.974 6.974 0 01.024 7.003zm6.018-1.35H7.95a.39.39 0 01.392.393v1.908a.39.39 0 01-.392.392H6.042a.39.39 0 01-.392-.392V6.046a.39.39 0 01.392-.392z"/></svg>