<svg data-tags="instagram" xmlns="http://www.w3.org/2000/svg" viewBox="0 0 14 14"><path d="M10.2 4.6c-.1-.2-.2-.3-.3-.5-.2-.1-.3-.2-.5-.3-.1 0-.4-.1-.8-.1H5.4c-.4 0-.7.1-.8.1-.2.1-.3.2-.5.3-.1.2-.2.3-.3.5 0 .1-.1.4-.1.8v3.2c0 .4.1.6.1.8.1.2.2.3.3.5.1.1.3.2.5.3.1.1.4.1.8.1h3.2c.4 0 .6-.1.8-.1.2-.1.3-.2.5-.3.1-.1.2-.3.3-.5.1-.1.1-.4.1-.8V5.4c0-.4-.1-.7-.1-.8zM7 9.1c-1.2 0-2.1-.9-2.1-2.1 0-1.2.9-2.1 2.1-2.1s2.1.9 2.1 2.1c0 1.2-.9 2.1-2.1 2.1zm2.2-3.8c-.3 0-.5-.2-.5-.5s.2-.5.5-.5.5.2.5.5-.3.5-.5.5z"/><path d="M7 5.6c-.7 0-1.4.7-1.4 1.4S6.2 8.4 7 8.4 8.4 7.7 8.4 7 7.7 5.6 7 5.6z"/><path d="M7 0C3.1 0 0 3.1 0 7s3.1 7 7 7 7-3.1 7-7-3.1-7-7-7zm4 8.7c0 .4-.1.7-.2 1-.1.3-.2.5-.5.7-.2.2-.5.4-.7.5-.2.1-.5.1-.9.1H5.3c-.4 0-.7-.1-1-.2-.3-.1-.5-.2-.7-.5-.2-.2-.4-.5-.5-.7-.1-.2-.1-.5-.1-.9V5.3c0-.4.1-.7.2-1 .1-.3.2-.5.5-.7s.5-.4.7-.5c.2-.1.5-.1.9-.1h3.4c.4 0 .7.1 1 .2.3.1.5.2.7.5.2.2.4.5.5.7.1.2.1.5.1.9V7c.1 1.1.1 1.2 0 1.7z"/></svg>