<svg xmlns="http://www.w3.org/2000/svg" viewBox="0 0 14 13.97"><path d="M7 1.26h2.83a3.87 3.87 0 011.3.24 2.17 2.17 0 01.8.52 2.17 2.17 0 01.52.8 3.87 3.87 0 01.24 1.3v5.66a3.87 3.87 0 01-.24 1.3 2.32 2.32 0 01-1.33 1.33 3.87 3.87 0 01-1.3.24H4.16a3.87 3.87 0 01-1.3-.24 2.17 2.17 0 01-.8-.52 2.17 2.17 0 01-.52-.8 3.87 3.87 0 01-.24-1.3V4.13a3.87 3.87 0 01.24-1.3A2.17 2.17 0 012.06 2a2.17 2.17 0 01.8-.52 3.87 3.87 0 011.3-.24H7M7 0H4.11a5.14 5.14 0 00-1.7.33 3.49 3.49 0 00-2 2.08A5.14 5.14 0 000 4.11v5.78a5.14 5.14 0 00.33 1.7 3.43 3.43 0 00.81 1.24 3.43 3.43 0 001.24.81 5.14 5.14 0 001.7.33h5.78a5.14 5.14 0 001.7-.33 3.58 3.58 0 002-2A5.14 5.14 0 0014 9.89V4.11a5.14 5.14 0 00-.33-1.7 3.49 3.49 0 00-2.08-2A5.14 5.14 0 009.89 0z"/><path d="M7 3.41A3.59 3.59 0 1010.59 7 3.59 3.59 0 007 3.41zm0 5.92A2.33 2.33 0 119.33 7 2.33 2.33 0 017 9.33z"/><circle cx="10.74" cy="3.26" r=".84"/></svg>