<svg data-tags="instagram" xmlns="http://www.w3.org/2000/svg" viewBox="0 0 14 3.714"><path d="M.02.84a1.253 1.253 0 0 1 .7-.827c.12-.047.374.043.376.128.006.297.005.76.004 1.014v.179c0 .222 0 .553-.009.77a.9.9 0 0 1-.164.533c-.098.126-.265.205-.305.172-.024-.02-.01-.063.011-.124.01-.028.02-.06.03-.096a2.205 2.205 0 0 0 .044-.584L.712.949.715.326v-.01c0-.073 0-.11-.037-.081a1.06 1.06 0 0 0-.34.88.53.53 0 0 0 .1.266c.028.042.046.068.023.106-.043.07-.568-.143-.442-.647Zm13.84 1.167c.017-.068.036-.108.077-.108.054 0 .071.063.06.145-.05.34-.2.47-.381.47a.435.435 0 0 1-.414-.386 3.903 3.903 0 0 1-.04-.866c0-.004-.006-.024-.017.001l-.003.006a2.666 2.666 0 0 0-.174.458 2.201 2.201 0 0 0-.086.575c.009.074-.085.085-.13.085a.23.23 0 0 1-.226-.12 1.26 1.26 0 0 1-.08-.385c-.031-.282-.036-.494-.038-.576v-.01c-.001-.037-.025-.03-.045.004l-.003.005a1.727 1.727 0 0 0-.196.505 2.347 2.347 0 0 0-.05.486 5.156 5.156 0 0 1-.004.12c-.003.058-.026.08-.057.086a.558.558 0 0 1-.277-.013c-.027-.009-.063-.028-.069-.043a.915.915 0 0 1-.02-.197c-.098.216-.218.265-.345.265a.387.387 0 0 1-.377-.334.772.772 0 0 1-.072.11.494.494 0 0 1-.813.019.52.52 0 0 1-.028-.048.415.415 0 0 1-.354.252.47.47 0 0 1-.421-.32 1.757 1.757 0 0 1 .021-.912v-.002c.008-.027-.003-.034-.043-.032-.123.008-.238.007-.238.007a3.275 3.275 0 0 1-.325.65 3.334 3.334 0 0 1-.347.445l.005.254.003.16a1.32 1.32 0 0 1-.156.705.569.569 0 0 1-.5.244c-.199-.014-.46-.126-.438-.428.018-.236.254-.438.566-.705l.001-.001.186-.16-.006-.162-.025.033a.494.494 0 0 1-.812.02.622.622 0 0 1-.038-.064.4.4 0 0 1-.375.267.372.372 0 0 1-.364-.332.48.48 0 0 1-.072.11.494.494 0 0 1-.813.019.733.733 0 0 1-.1-.227c-.078.214-.259.431-.439.431-.27 0-.424-.222-.46-.614a.876.876 0 0 1-.862.62 1.11 1.11 0 0 1-.308-.058c-.08-.033-.156-.07-.135-.142a.318.318 0 0 1 .125-.18.094.094 0 0 1 .096.005c.023.013.04.025.055.037a.663.663 0 0 0 .07.045c.177.097.276-.003.303-.1.034-.127-.018-.26-.176-.4l-.126-.11-.07-.06-.334.522c-.2.312-.388.435-.52.435-.173 0-.295-.115-.27-.739l.017-.373c.005-.104.01-.192.01-.244.002-.025-.017-.024-.033-.009a1.902 1.902 0 0 0-.444.832 2.354 2.354 0 0 0-.105.45l-.005.037c-.01.067-.195.045-.23.038a.128.128 0 0 1-.077-.046.246.246 0 0 1-.044-.107 1.642 1.642 0 0 1-.013-.243L1.441.915q0-.058.067-.058a.61.61 0 0 1 .239.061.053.053 0 0 1 .033.047l-.005.763s.058-.146.088-.225c.235-.635.483-.646.569-.646a.554.554 0 0 1 .203.08.187.187 0 0 1 .119.178l-.008.184c-.008.19-.016.363-.016.49v.007c0 .19 0 .39.072.39.085 0 .196-.18.341-.416l.027-.042c.057-.092.124-.211.173-.3l-.019-.02a.288.288 0 0 1-.062-.31.394.394 0 0 1 .45-.262c.131.028.129.156.075.268a.829.829 0 0 1-.16.236c.146.102.278.195.344.244a.465.465 0 0 1 .232.5.868.868 0 0 0 .294-.488v-.055c0-.179.005-.758.005-.758a20.53 20.53 0 0 1-.398-.01C4.015.77 4.084.512 4.15.512c.034 0 .11.003.187.006s.152.006.187.006c0 0 .006-.33.019-.443.008-.074.051-.092.145-.074a1.003 1.003 0 0 1 .19.051l.002.001c.027.01.07.028.067.06-.003.04-.019.418-.019.418S5.1.55 5.161.55a2.133 2.133 0 0 1 .284.021c.058.024.004.211-.052.214-.081.004-.143.004-.203.004h-.068l-.2.003c-.005.055-.031.625-.031 1.025 0 .3.074.442.151.442.133 0 .296-.243.332-.453a1.717 1.717 0 0 1 .016-.238.999.999 0 0 1 .205-.544.439.439 0 0 1 .732-.005V.953a.082.082 0 0 1 .078-.07.488.488 0 0 1 .131.013c.05.011.157.04.158.098l-.002.055a9.139 9.139 0 0 0-.005.155l-.005.173c-.004.108-.007.216-.007.388 0 .445.067.543.185.543.092 0 .173-.137.202-.268a1.569 1.569 0 0 1-.011-.47 1.126 1.126 0 0 1 .205-.546.439.439 0 0 1 .732-.005v-.06c-.001-.044.044-.081.12-.076a.616.616 0 0 1 .165.035c.055.02.082.036.082.078l-.002.054-.005.154c-.002.11-.008.417-.006.807v.082a2.59 2.59 0 0 0 .162-.237 2.218 2.218 0 0 0 .259-.602.225.225 0 0 1-.11-.223.284.284 0 0 1 .1-.193c.088-.075.362-.094.332.141a.576.576 0 0 1-.012.07 4.63 4.63 0 0 0 .323-.054.26.26 0 0 1 .246.037.178.178 0 0 1 .04.187l-.027.11a2.156 2.156 0 0 0-.076.468c-.01.324.079.51.202.51.084 0 .161-.068.203-.236a1.524 1.524 0 0 1-.022-.498 1.04 1.04 0 0 1 .206-.549.439.439 0 0 1 .732-.005V.956a.077.077 0 0 1 .081-.073.498.498 0 0 1 .128.013c.05.011.157.04.158.098l-.002.056a13.631 13.631 0 0 1-.01.328c-.004.107-.008.215-.008.387 0 .445.056.543.174.543.117 0 .226-.233.259-.405V1.85c0-.331.007-.789.01-.892V.936c0-.046.014-.077.075-.077a1.242 1.242 0 0 1 .222.042.08.08 0 0 1 .056.082l-.001.566.09-.255a1.465 1.465 0 0 1 .184-.403c.063-.072.239-.012.296.022a.198.198 0 0 1 .107.192 6.038 6.038 0 0 0 .033.643l.003.029c.001.015.01.014.01.007a3.28 3.28 0 0 1 .258-.829c.061-.138.184-.097.269-.068.198.068.218.136.214.204a7.258 7.258 0 0 0-.006.854c.019.233.093.349.175.349.074 0 .131-.053.186-.287Zm-3.072.122a1.04 1.04 0 0 0 .108-.436c.019-.379-.06-.584-.23-.599-.173-.015-.278.153-.315.375a1.516 1.516 0 0 0 .017.634c.093.287.314.225.42.026Zm-2.76.722c-.002.31-.054.582-.166.661-.16.112-.372.028-.328-.198a1.44 1.44 0 0 1 .495-.655s0 .057 0 .192Zm-.151-.722a1.163 1.163 0 0 0 .108-.438c.024-.421-.06-.597-.231-.597-.176 0-.274.193-.314.4a1.347 1.347 0 0 0 .017.61c.092.286.313.224.42.025Zm-1.554-.44a1.05 1.05 0 0 1-.108.44c-.109.197-.325.26-.42-.026a1.436 1.436 0 0 1-.017-.639c.043-.225.149-.385.314-.37.17.016.253.22.231.595Z" fill-rule="evenodd"/></svg>