<svg data-tags="retail,in store event" xmlns="http://www.w3.org/2000/svg" viewBox="0 0 14 14"><g fill="#40A3F5"><path d="M4.519 10.293a.115.115 0 01-.118.112h-.59a.115.115 0 01-.118-.112V8.731c0-.061.053-.111.118-.111h.59c.065 0 .118.05.118.111v1.562zm1.395-1.727a.575.575 0 01-.222.054H5.11a.115.115 0 00-.118.111v2.837c0 .062.053.112.118.112h.565c.065 0 .118-.05.118-.112v-1.051c0-.062.004-.112.01-.112.004 0 .058.016.12.035l2.965.938c.062.02.112-.015.112-.077V7.083c0-.062-.047-.087-.103-.058L5.914 8.566zm4.383 3.224a.115.115 0 01-.118.112h-.59a.115.115 0 01-.118-.111V6.658c0-.062.053-.112.118-.112h.59c.065 0 .118.05.118.112v5.133zm0 0"/><path d="M13.628 4.435h-1.734L7.228.817a.373.373 0 00-.456 0L2.106 4.435H.372A.372.372 0 000 4.808v8.82c0 .205.167.372.372.372h13.256a.372.372 0 00.372-.372v-8.82a.372.372 0 00-.372-.373zM7 1.898l3.351 2.537H3.588L7 1.898zm5.834 10.632a.372.372 0 01-.373.372H1.54a.372.372 0 01-.373-.372V5.976c0-.205.167-.372.373-.372h10.92c.206 0 .373.167.373.372v6.554z"/><path d="M7.005 1a.45.45 0 11-.001.9.45.45 0 01.001-.9m0-1a1.45 1.45 0 100 2.9 1.45 1.45 0 000-2.9z"/><circle cx="7.005" cy="1.45" r=".95"/></g></svg>