<svg data-tags="instagram" xmlns="http://www.w3.org/2000/svg" viewBox="0 0 14 14"><path d="M0 4.2A4.2 4.2 0 0 1 4.2 0h5.6A4.2 4.2 0 0 1 14 4.2v5.6A4.2 4.2 0 0 1 9.8 14H4.2A4.2 4.2 0 0 1 0 9.8Zm1.488-.7H4.76L3.626 1.459A2.804 2.804 0 0 0 1.488 3.5Zm6.772 0H6.362L5.195 1.4h1.899Zm1.602 0h2.65A2.801 2.801 0 0 0 9.8 1.4H8.695ZM12.6 4.9H1.4v4.9a2.8 2.8 0 0 0 2.8 2.8h5.6a2.8 2.8 0 0 0 2.8-2.8ZM8.811 8.466a.21.21 0 0 0 0-.36L5.93 6.376a.21.21 0 0 0-.318.18v3.46a.21.21 0 0 0 .318.18Z" fill-rule="evenodd"/></svg>