<svg xmlns="http://www.w3.org/2000/svg" viewBox="0 0 14 14"><defs><linearGradient id="instagram_clr__a" gradientUnits="userSpaceOnUse" x1="5.696" y1="10.758" x2="8.575" y2="2.459"><stop offset="0" stop-color="#fbb03b"/><stop offset=".496" stop-color="#d4145a"/><stop offset="1" stop-color="#93278f"/></linearGradient><linearGradient id="instagram_clr__b" gradientUnits="userSpaceOnUse" x1="5.696" y1="10.758" x2="8.575" y2="2.459"><stop offset="0" stop-color="#fbb03b"/><stop offset=".496" stop-color="#d4145a"/><stop offset="1" stop-color="#93278f"/></linearGradient><linearGradient id="instagram_clr__c" gradientUnits="userSpaceOnUse" x1="7.874" y1="11.514" x2="10.753" y2="3.215"><stop offset="0" stop-color="#fbb03b"/><stop offset=".496" stop-color="#d4145a"/><stop offset="1" stop-color="#93278f"/></linearGradient></defs><path fill="url(#instagram_clr__a)" d="M7 1.261c1.87 0 2.09.007 2.829.041.682.031 1.053.145 1.3.241.326.127.56.279.804.524.245.245.397.478.524.805.096.246.21.617.24 1.3.035.738.042.959.042 2.828s-.007 2.09-.041 2.829c-.031.682-.145 1.053-.241 1.3-.127.326-.279.56-.524.804a2.169 2.169 0 01-.805.524c-.246.096-.617.21-1.3.24-.737.035-.959.042-2.828.042s-2.09-.007-2.829-.041c-.682-.031-1.053-.145-1.3-.241a2.169 2.169 0 01-.804-.524 2.169 2.169 0 01-.524-.805c-.096-.246-.21-.617-.24-1.3C1.267 9.09 1.26 8.87 1.26 7s.007-2.09.041-2.829c.031-.682.145-1.053.241-1.3.127-.326.279-.56.524-.804.245-.245.478-.397.805-.524.246-.096.617-.21 1.3-.24C4.91 1.267 5.13 1.26 7 1.26M7 0C5.099 0 4.86.008 4.114.042c-.745.034-1.254.152-1.7.325-.46.18-.85.419-1.24.808-.388.389-.628.78-.807 1.24-.173.445-.29.954-.325 1.699C.008 4.86 0 5.099 0 7c0 1.901.008 2.14.042 2.886.034.745.152 1.254.325 1.7.18.46.419.85.808 1.24.389.388.78.628 1.24.807.445.173.954.29 1.699.325.747.034.985.042 2.886.042s2.14-.008 2.886-.042c.745-.034 1.254-.152 1.7-.325.46-.18.85-.419 1.24-.808.388-.389.628-.78.807-1.24.173-.445.29-.954.325-1.699C13.992 9.14 14 8.901 14 7s-.008-2.14-.042-2.886c-.034-.745-.152-1.254-.325-1.7a3.431 3.431 0 00-.808-1.24 3.449 3.449 0 00-1.24-.807c-.445-.173-.954-.29-1.699-.325C9.14.008 8.901 0 7 0z"/><path fill="url(#instagram_clr__b)" d="M7 3.405a3.595 3.595 0 100 7.19 3.595 3.595 0 000-7.19zm0 5.928a2.333 2.333 0 110-4.666 2.333 2.333 0 010 4.666z"/><circle fill="url(#instagram_clr__c)" cx="10.737" cy="3.263" r=".84"/></svg>
