<svg data-tags="instagram" xmlns="http://www.w3.org/2000/svg" viewBox="0 0 14 14"><linearGradient id="instagramSquare_clr_1" gradientUnits="userSpaceOnUse" x1="2.219" y1="-1.28" x2="11.781" y2="15.28" gradientTransform="matrix(1 0 0 -1 0 14)"><stop offset="0" stop-color="#fd5"/><stop offset=".124" stop-color="#fd5"/><stop offset=".349" stop-color="#ff543e"/><stop offset="1" stop-color="#c837ab"/></linearGradient><path fill="url(#instagramSquare_clr_1)" d="M0 0h14v14H0z"/><linearGradient id="instagramSquare_clr_2" gradientUnits="userSpaceOnUse" x1="4.968" y1="13.893" x2="8.41" y2="2.218" gradientTransform="matrix(1 0 0 -1 0 14)"><stop offset="0" stop-color="#2b4ff2"/><stop offset=".003" stop-color="#2b4ff2" stop-opacity=".998"/><stop offset=".068" stop-color="#2f4af3" stop-opacity=".965"/><stop offset=".561" stop-color="#60f" stop-opacity="0"/><stop offset=".777" stop-color="#60f" stop-opacity="0"/></linearGradient><path fill="url(#instagramSquare_clr_2)" d="M0 0h14v14H0z"/><path fill="#FFF" d="M7 4.4C5.5 4.4 4.4 5.5 4.4 7S5.5 9.6 7 9.6 9.6 8.4 9.6 7c0-1.5-1.1-2.6-2.6-2.6zm0 4.3c-.9 0-1.7-.8-1.7-1.7 0-.9.8-1.7 1.7-1.7.9 0 1.7.8 1.7 1.7 0 .9-.8 1.7-1.7 1.7z"/><path fill="#FFF" d="M12.1 4.9c0-.4-.1-.9-.2-1.3-.3-.7-.8-1.2-1.5-1.5-.4-.1-.8-.2-1.3-.2H4.9c-.5 0-.9.1-1.3.2-.7.3-1.2.8-1.5 1.5-.1.4-.2.8-.2 1.3v4.2c0 .4.1.9.2 1.3.3.7.8 1.2 1.5 1.5.4.1.8.2 1.3.2h4.2c.4 0 .9-.1 1.3-.2.7-.3 1.2-.8 1.5-1.5.1-.4.2-.8.2-1.3V7c.1-1.4 0-1.6 0-2.1zm-.9 4.2c0 .3-.1.7-.2 1-.2.4-.5.8-1 1-.3.1-.6.2-1 .2H4.8c-.3 0-.7-.1-1-.2-.4-.2-.8-.5-1-1-.1-.3-.2-.6-.2-1V4.9c0-.3.1-.7.2-1 .2-.4.5-.8 1-1 .3-.1.6-.2 1-.2H9c.3 0 .7.1 1 .2.4.2.8.5 1 1 .1.3.2.6.2 1v4.2z"/><path fill="#FFF" d="M9 4.1c0 .3.3.6.6.6s.6-.3.6-.6-.2-.6-.6-.6c-.3 0-.6.3-.6.6z"/></svg>