<svg data-tags="retail,in store event" xmlns="http://www.w3.org/2000/svg" viewBox="0 0 14 14"><circle fill="#40A3F5" cx="7" cy="7" r="7"/><path fill="#FFF" d="M5.403 8.452c0 .04-.034.072-.076.072h-.38a.074.074 0 01-.075-.072V7.447c0-.04.034-.072.076-.072h.38c.041 0 .075.033.075.072v1.005zM6.3 7.34a.37.37 0 01-.142.035h-.375a.074.074 0 00-.076.072v1.826c0 .04.034.072.076.072h.364a.075.075 0 00.076-.072v-.677c0-.04.002-.072.006-.072.003 0 .038.01.077.023l1.908.603c.04.013.072-.01.072-.049V6.387c0-.04-.03-.057-.066-.038l-1.92.992zm2.822 2.076c0 .04-.034.072-.076.072h-.38a.074.074 0 01-.076-.072V6.113c0-.04.034-.072.076-.072h.38c.042 0 .076.032.076.072v3.303zm0 0"/><path fill="#FFF" d="M11.265 4.683h-1.116L7.147 2.354a.24.24 0 00-.294 0L3.851 4.683H2.735a.24.24 0 00-.24.24v5.675c0 .132.108.24.24.24h8.53a.24.24 0 00.24-.24V4.922a.24.24 0 00-.24-.24zM7 3.05l2.157 1.633H4.804L7 3.05zm3.754 6.842a.24.24 0 01-.24.24H3.486a.24.24 0 01-.24-.24V5.674a.24.24 0 01.24-.24h7.028a.24.24 0 01.24.24v4.218z"/><path fill="#FFF" d="M7.003 2.472a.29.29 0 110 .58.29.29 0 010-.58m0-.644a.933.933 0 100 1.866.933.933 0 000-1.866z"/><circle fill="#40A3F5" cx="7.003" cy="2.762" r=".611"/></svg>