<svg data-tags="intercom" xmlns="http://www.w3.org/2000/svg" viewBox="0 0 14 14"><path d="M12.133 7.697a.467.467 0 0 1-.933 0V3.5a.467.467 0 0 1 .933 0Zm-.163 2.921A7.93 7.93 0 0 1 7 12.131a7.93 7.93 0 0 1-4.97-1.513.467.467 0 0 1 .606-.71A7.161 7.161 0 0 0 7 11.199a7.071 7.071 0 0 0 4.363-1.288.467.467 0 0 1 .607.708ZM1.867 3.5a.467.467 0 0 1 .933 0v4.197a.467.467 0 0 1-.933 0V3.5ZM4.2 2.567a.467.467 0 0 1 .933 0V8.8a.467.467 0 0 1-.933 0V2.567Zm2.333-.236A.467.467 0 0 1 7 1.864a.467.467 0 0 1 .467.466v6.767a.467.467 0 0 1-.934 0V2.331Zm2.334.236a.467.467 0 0 1 .933 0V8.8a.467.467 0 0 1-.933 0V2.567ZM12.25 0H1.75A1.75 1.75 0 0 0 0 1.75v10.5A1.75 1.75 0 0 0 1.75 14h10.5A1.75 1.75 0 0 0 14 12.25V1.75A1.75 1.75 0 0 0 12.25 0Z"/></svg>