<svg data-tags="jcb" xmlns="http://www.w3.org/2000/svg" viewBox="0 0 14 14"><path d="M0 .032h14v14H0Z" fill="#ebf1f8" fill-rule="evenodd"/><path d="M0 .032h14v14H0Z" fill="#fff" fill-rule="evenodd"/><path d="M2.188 10.532h1.924a1.112 1.112 0 0 0 .963-.933V3.532H3.15c-.438 0-.963.523-.963 1.4Z" fill="#047ab1"/><path d="M3.28 8.264a4.06 4.06 0 0 1-1.092-.149v-.514a1.919 1.919 0 0 0 .914.27.55.55 0 0 0 .577-.596v-1.41h.915v1.41c0 .55-.299.989-1.314.989Z" fill="#fff"/><path d="M5.556 10.532h1.925a1.112 1.112 0 0 0 .963-.933V3.532H6.519c-.438 0-.963.523-.963 1.4Z" fill="#d42d06"/><path d="M5.556 6.192a2.048 2.048 0 0 1 1.54-.387 4.532 4.532 0 0 1 .867.14v.518a2.001 2.001 0 0 0-.833-.266.787.787 0 0 0-.953.835.792.792 0 0 0 .953.84 2.03 2.03 0 0 0 .833-.27v.513a4.36 4.36 0 0 1-.867.145 2.046 2.046 0 0 1-1.54-.388Z" fill="#fff"/><path d="M8.925 10.532h1.925a1.112 1.112 0 0 0 .963-.933V3.532H9.886c-.437 0-.962.523-.962 1.4Z" fill="#67b637"/><path d="M11.331 7.592a.625.625 0 0 1-.698.607H8.925V5.866h1.554l.111.004a.572.572 0 0 1 .611.565.56.56 0 0 1-.5.56v.014a.606.606 0 0 1 .63.583Zm-1.227-1.358a.452.452 0 0 0-.063-.004h-.577v.588h.64a.29.29 0 0 0 .221-.294.281.281 0 0 0-.22-.29Zm.072.952a.427.427 0 0 0-.077-.004h-.635v.639h.635l.077-.009a.332.332 0 0 0 0-.626Z" fill="#fff"/></svg>