<svg data-tags="jira" xmlns="http://www.w3.org/2000/svg" viewBox="0 0 14 14"><defs><linearGradient id="jiraSquare_clr__a" x1="8.76" x2="7.17" y1="11.07" y2="9.38" gradientTransform="matrix(1 0 0 -1 0 16)" gradientUnits="userSpaceOnUse"><stop offset=".18" stop-color="#0052cc"/><stop offset="1" stop-color="#2684ff"/></linearGradient><linearGradient href="#jiraSquare_clr__a" id="jiraSquare_clr__b" x1="6.97" x2="5.12" y1="9.2" y2="7.35"/></defs><path fill="#f2f2f2" d="M0 0h14v14H0z"/><path fill="#2684ff" d="M10.48 3.11H6.62a1.72 1.72 0 001.74 1.7h.71v.65a1.72 1.72 0 001.74 1.7V3.43a.32.32 0 00-.33-.33z"/><path fill="url(#jiraSquare_clr__a)" d="M8.57 4.98H4.72a1.72 1.72 0 001.73 1.68h.72v.68A1.72 1.72 0 008.9 9.02V5.3a.33.33 0 00-.34-.32z"/><path fill="url(#jiraSquare_clr__b)" d="M6.67 6.85H2.8a1.72 1.72 0 001.74 1.69h.71v.66A1.72 1.72 0 007 10.89V7.17a.33.33 0 00-.33-.32z"/></svg>