<svg data-tags="kakao" xmlns="http://www.w3.org/2000/svg" viewBox="0 0 14 14"><circle cx="7" cy="7" r="7" fill="#ffe812"/><path d="M7.087 3.223c-2.425 0-4.39 1.55-4.39 3.461a3.375 3.375 0 0 0 2.057 2.933c-.067.232-.432 1.492-.446 1.59 0 0-.009.075.04.103a.132.132 0 0 0 .104.007c.138-.02 1.602-1.048 1.855-1.226a5.562 5.562 0 0 0 .78.054c2.424 0 4.39-1.55 4.39-3.46S9.51 3.222 7.087 3.222Z"/><path d="M4.66 7.892a.248.248 0 0 1-.254-.242V6.146h-.395a.248.248 0 1 1 0-.496h1.297a.248.248 0 1 1 0 .496h-.395V7.65a.248.248 0 0 1-.253.242Zm2.22-.003a.208.208 0 0 1-.21-.112l-.126-.328h-.772l-.126.328a.208.208 0 0 1-.21.112.386.386 0 0 1-.161-.035c-.07-.032-.137-.12-.06-.36L5.82 5.9a.353.353 0 0 1 .675 0L7.1 7.494c.077.24.01.328-.06.36a.387.387 0 0 1-.16.035ZM6.411 7l-.253-.718L5.905 7Zm1.098.855a.238.238 0 0 1-.243-.232v-1.72a.259.259 0 0 1 .517 0v1.488h.538a.232.232 0 1 1 0 .464Zm1.407.034a.254.254 0 0 1-.253-.253V5.903a.253.253 0 1 1 .506 0v.545l.707-.707a.197.197 0 0 1 .14-.056.256.256 0 0 1 .249.235.197.197 0 0 1-.056.154l-.577.577.623.826a.253.253 0 0 1-.404.305l-.594-.787-.088.088v.553a.254.254 0 0 1-.253.253Z" fill="#ffe812"/></svg>