<svg data-tags="kakao" xmlns="http://www.w3.org/2000/svg" viewBox="0 0 14 14"><path d="M7 .54c-3.866 0-7 2.471-7 5.52a5.382 5.382 0 0 0 3.281 4.676c-.107.37-.689 2.379-.712 2.537 0 0-.014.118.063.164a.211.211 0 0 0 .167.01c.22-.031 2.554-1.67 2.958-1.955A8.869 8.869 0 0 0 7 11.579c3.866 0 7-2.471 7-5.52S10.866.54 7 .54Z"/><path d="M3.13 7.986a.395.395 0 0 1-.404-.385V5.2h-.63a.395.395 0 1 1 0-.79h2.068a.395.395 0 1 1 0 .79h-.63v2.4a.395.395 0 0 1-.404.385Zm3.541-.005a.331.331 0 0 1-.336-.178l-.2-.524H4.904l-.2.524a.331.331 0 0 1-.336.178.616.616 0 0 1-.257-.056c-.112-.051-.219-.192-.096-.573l.966-2.543a.609.609 0 0 1 .538-.398.61.61 0 0 1 .539.399l.965 2.541c.123.382.016.523-.095.574a.618.618 0 0 1-.257.056Zm-.748-1.417-.404-1.146-.403 1.146Zm1.75 1.363a.38.38 0 0 1-.387-.37V4.814a.412.412 0 0 1 .825 0v2.373h.858a.37.37 0 1 1 0 .74Zm2.244.054a.404.404 0 0 1-.404-.404V4.814a.404.404 0 0 1 .808 0v.868l1.126-1.126a.314.314 0 0 1 .224-.09.409.409 0 0 1 .397.375.315.315 0 0 1-.09.246l-.92.92.995 1.317a.404.404 0 0 1-.645.487l-.947-1.255-.14.14v.881a.405.405 0 0 1-.404.404Z" fill="#ffe812"/></svg>