<svg data-tags="kakao" xmlns="http://www.w3.org/2000/svg" viewBox="0 0 14 14"><path d="M7 .54c-3.866 0-7 2.471-7 5.52a5.382 5.382 0 0 0 3.281 4.676c-.107.37-.689 2.379-.712 2.537 0 0-.014.118.063.164a.211.211 0 0 0 .167.01c.22-.031 2.554-1.67 2.958-1.955A8.871 8.871 0 0 0 7 11.58c3.866 0 7-2.471 7-5.52C14 3.012 10.866.54 7 .54ZM3.534 7.6a.404.404 0 0 1-.808 0V5.202h-.63a.395.395 0 1 1 0-.79h2.068a.395.395 0 1 1 0 .79h-.63Zm3.394.325a.618.618 0 0 1-.257.056.331.331 0 0 1-.336-.178l-.2-.524H4.904l-.2.524a.331.331 0 0 1-.336.178.616.616 0 0 1-.257-.056c-.111-.051-.218-.192-.096-.573l.966-2.543a.609.609 0 0 1 .538-.398.61.61 0 0 1 .539.399l.965 2.541c.123.382.016.523-.095.574Zm2.04.002H7.674a.38.38 0 0 1-.387-.37V4.814a.412.412 0 0 1 .825 0v2.373h.858a.37.37 0 1 1 0 .74Zm3.005-.037a.404.404 0 0 1-.565-.08l-.947-1.254-.14.14v.881a.404.404 0 0 1-.808 0V4.814a.404.404 0 0 1 .808 0v.868l1.126-1.126a.314.314 0 0 1 .224-.09.409.409 0 0 1 .397.375.315.315 0 0 1-.09.246l-.92.92.995 1.317a.404.404 0 0 1-.08.566Z"/><path d="M5.116 6.564h.807l-.404-1.146-.403 1.146z"/></svg>