<svg data-tags="kaleyra" xmlns="http://www.w3.org/2000/svg" viewBox="0 0 14 14"><path d="m7.016 0 .847.498 1.017.593a.07.07 0 0 1 .038.07L8.904 2.8c-.001.092-.005.185-.005.277 0 .045-.003.06-.052.032q-.623-.364-1.248-.723l-.555-.321a.069.069 0 0 0-.08-.001q-.857.502-1.717 1.002l-.158.092c-.017-.012-.009-.03-.009-.043V1.315a.375.375 0 0 1 .226-.333C5.862.669 6.414.352 6.962.025c.011-.007.025-.01.03-.025ZM.946 3.508a3.681 3.681 0 0 0 .332-.187q.769-.446 1.535-.894a.07.07 0 0 1 .08-.006q.851.492 1.703.981l.026.017-.386.228-1.482.869a.086.086 0 0 0-.051.087q.002 1.042.001 2.084v.042a1.477 1.477 0 0 1-.205-.114L.963 5.71a.07.07 0 0 0-.016-.005ZM.946 8.303l.961-.559c.249-.145.499-.29.746-.437.048-.029.052-.016.052.031-.001.675 0 1.35-.002 2.025a.105.105 0 0 0 .052.1 21.133 21.133 0 0 0 1.837 1.11l.026.016-.37.215c-.44.253-.881.506-1.32.76a.112.112 0 0 1-.132.002q-.9-.523-1.803-1.04c-.015-.01-.031-.017-.047-.026Z" fill="#ce1c30"/><path d="M9.375 6.33c0 .197.004.394 0 .59-.013.463-.004.925-.01 1.388a.069.069 0 0 1-.038.065l-1.12.685-.974.596a.227.227 0 0 0-.045.028c-.115.117-.23.074-.354.01a6.642 6.642 0 0 1-.64-.384c-.322-.216-.656-.411-.992-.603a2.236 2.236 0 0 1-.417-.305.43.43 0 0 1-.16-.383 10.13 10.13 0 0 0 .02-1.079c-.002-.405-.009-.81-.015-1.215a.095.095 0 0 1 .05-.095L6.503 4.52l.467-.285a.06.06 0 0 1 .074-.003l2.187 1.34a.234.234 0 0 0 .04.024c.095.034.115.101.11.196-.008.18-.002.358-.002.538Z" fill="#ed932e"/><path d="M8.92 10.854v.445l-.002 1.417a.57.57 0 0 1-.053.209c-.009.02-.027.028-.043.038l-1.56.899c-.072.04-.144.08-.214.124a.07.07 0 0 1-.084 0q-.55-.325-1.1-.647c-.246-.143-.494-.282-.741-.423-.023-.013-.045-.023-.044-.06q.002-.986.001-1.972l.004-.019.24.136 1.637.942a.073.073 0 0 0 .085 0q.843-.493 1.687-.983l.186-.106ZM9.395 3.427l.304-.18 1.389-.818a.08.08 0 0 1 .095 0q.917.535 1.837 1.066a.059.059 0 0 1 .033.06v2.108a.06.06 0 0 1-.033.061q-.848.497-1.694.996a.151.151 0 0 1-.025.008v-.064c0-.685 0-1.37.002-2.055a.105.105 0 0 0-.062-.105q-.899-.521-1.796-1.045l-.05-.032ZM9.386 10.59c.593-.343 1.177-.685 1.766-1.017a.253.253 0 0 0 .153-.26c-.008-.654-.004-1.307-.004-1.96V7.28c.11.064.212.122.312.182l1.39.817a.086.086 0 0 1 .05.086q-.002 1.036 0 2.073a.086.086 0 0 1-.05.087q-.904.527-1.807 1.059a.078.078 0 0 1-.09.001l-1.687-.971c-.01-.006-.02-.014-.033-.024Z" fill="#ce1c30"/></svg>