<svg data-tags="kaleyra" xmlns="http://www.w3.org/2000/svg" viewBox="0 0 14 14"><rect x="-.004" width="14" height="14" rx="7" fill="#ce1c30"/><path d="m7.007 2.5.544.32.654.381a.045.045 0 0 1 .025.045q-.006.527-.01 1.055c0 .059-.003.118-.003.178 0 .029-.002.039-.034.02q-.4-.234-.801-.465c-.12-.068-.238-.137-.357-.206a.044.044 0 0 0-.051 0l-1.105.644-.101.059c-.011-.008-.006-.02-.006-.028V3.345a.241.241 0 0 1 .145-.214c.358-.2.713-.405 1.065-.615.007-.004.016-.007.02-.016ZM3.105 4.755a2.366 2.366 0 0 0 .213-.12l.987-.575a.045.045 0 0 1 .052-.003q.546.316 1.094.63l.016.01-.248.147-.953.559a.056.056 0 0 0-.032.056v1.367a.95.95 0 0 1-.131-.074l-.988-.581-.01-.004ZM3.105 7.838l.617-.36.48-.28c.03-.02.033-.01.033.02l-.001 1.3a.068.068 0 0 0 .033.065 13.586 13.586 0 0 0 1.181.714l.017.01-.238.138c-.283.163-.566.325-.849.49a.072.072 0 0 1-.084 0q-.579-.336-1.16-.669l-.03-.016Z" fill="#fff"/><path d="M8.523 6.57c0 .126.003.253 0 .379-.008.297-.003.594-.007.892a.044.044 0 0 1-.024.042l-.72.44-.626.383a.146.146 0 0 0-.029.018c-.074.075-.148.047-.227.006a4.27 4.27 0 0 1-.412-.247 10.16 10.16 0 0 0-.637-.387 1.437 1.437 0 0 1-.269-.196.276.276 0 0 1-.102-.246 6.516 6.516 0 0 0 .012-.694c-.001-.26-.005-.52-.01-.781a.061.061 0 0 1 .033-.061q.586-.355 1.17-.712c.101-.06.202-.121.301-.183a.038.038 0 0 1 .048-.002l1.406.861a.15.15 0 0 0 .026.016c.06.022.073.065.07.126-.005.115 0 .23 0 .346Z" fill="#ed932e"/><path d="M8.23 9.477v1.197a.366.366 0 0 1-.035.135c-.005.013-.017.018-.028.024l-1.002.578c-.046.027-.093.052-.138.08a.045.045 0 0 1-.054 0q-.353-.209-.707-.416c-.158-.092-.318-.181-.476-.272-.015-.009-.029-.015-.029-.039q.002-.633.001-1.267l.002-.012.155.087 1.052.606a.047.047 0 0 0 .055 0q.542-.317 1.085-.632l.12-.069ZM8.536 4.703l.195-.115.893-.527a.052.052 0 0 1 .061 0q.59.344 1.181.686a.038.038 0 0 1 .021.038V6.14a.039.039 0 0 1-.02.04l-1.09.64-.015.005V5.463a.068.068 0 0 0-.04-.068l-1.154-.672ZM8.53 9.308c.381-.22.757-.44 1.136-.654a.163.163 0 0 0 .098-.167c-.006-.42-.003-.84-.003-1.26V7.18l.201.117.893.525a.056.056 0 0 1 .033.056q-.002.666 0 1.332a.055.055 0 0 1-.032.056q-.582.339-1.162.68a.05.05 0 0 1-.058.002l-1.085-.625Z" fill="#fff"/></svg>