<svg data-tags="kaleyra" xmlns="http://www.w3.org/2000/svg" viewBox="0 0 14 14"><path fill="#ce1c30" d="M0 0h14v14H0z"/><path d="m7.01 2.5.545.32.653.381a.045.045 0 0 1 .025.045l-.01 1.055-.002.178c0 .029-.002.039-.034.02q-.4-.234-.802-.465l-.356-.206a.044.044 0 0 0-.052 0l-1.104.644-.101.059c-.012-.008-.006-.02-.006-.028V3.345a.241.241 0 0 1 .145-.214c.357-.2.713-.405 1.064-.615.008-.004.017-.007.02-.016ZM3.108 4.755a2.366 2.366 0 0 0 .214-.12l.987-.575a.045.045 0 0 1 .051-.003q.547.316 1.095.63l.016.01-.248.147-.953.559a.056.056 0 0 0-.032.056v1.367a.95.95 0 0 1-.131-.074l-.988-.581-.01-.004ZM3.108 7.838l.618-.36.48-.28c.03-.02.033-.01.033.02l-.001 1.3a.067.067 0 0 0 .033.065 13.586 13.586 0 0 0 1.181.714l.017.01-.238.138c-.283.163-.567.325-.85.49a.072.072 0 0 1-.084 0Q3.72 9.6 3.138 9.266l-.03-.016Z" fill="#fff"/><path d="M8.527 6.57c0 .126.003.253 0 .379-.009.297-.003.594-.007.892a.044.044 0 0 1-.024.042l-.72.44-.626.383a.146.146 0 0 0-.029.018c-.074.075-.148.047-.228.006a4.27 4.27 0 0 1-.412-.247 10.157 10.157 0 0 0-.637-.387 1.437 1.437 0 0 1-.268-.196.276.276 0 0 1-.102-.246 6.516 6.516 0 0 0 .012-.694c-.001-.26-.005-.52-.01-.781a.061.061 0 0 1 .033-.061q.586-.355 1.17-.712c.1-.06.201-.121.3-.183a.038.038 0 0 1 .048-.002l1.407.861a.15.15 0 0 0 .025.016c.061.022.074.065.071.126-.005.115-.001.23-.001.346Z" fill="#ed932e"/><path d="M8.234 9.477v.287l-.001.91a.366.366 0 0 1-.034.135c-.006.013-.017.018-.028.024q-.501.29-1.003.578c-.046.027-.092.052-.137.08a.045.045 0 0 1-.054 0q-.353-.209-.708-.416c-.158-.092-.317-.181-.476-.272-.014-.009-.028-.015-.028-.039V9.497l.003-.012.154.087 1.053.606a.047.047 0 0 0 .054 0q.542-.317 1.085-.632l.12-.069ZM8.54 4.703l.195-.115.893-.527a.052.052 0 0 1 .061 0q.59.344 1.181.686a.038.038 0 0 1 .021.038V6.14a.039.039 0 0 1-.02.04l-1.09.64-.016.005v-.041l.001-1.321a.068.068 0 0 0-.04-.068l-1.154-.672ZM8.534 9.308c.381-.22.756-.44 1.135-.654a.163.163 0 0 0 .099-.167c-.006-.42-.003-.84-.003-1.26V7.18l.2.117.894.525a.056.056 0 0 1 .033.056q-.002.666 0 1.332a.055.055 0 0 1-.032.056q-.582.339-1.162.68a.05.05 0 0 1-.058.002l-1.085-.625Z" fill="#fff"/></svg>