<svg data-tags="knowledge base" xmlns="http://www.w3.org/2000/svg" viewBox="0 0 14 14"><path fill="#8439FF" d="M13.525 1.074H8.663c-.74 0-1.372.44-1.663 1.077a1.826 1.826 0 00-1.663-1.077H.476a.37.37 0 00-.37.37v10.244c0 .204.166.37.37.37h4.877a1.823 1.823 0 011.427.69c.018.023.06.077.108.123.074.074.159.072.224 0 .051-.054.09-.1.108-.123a1.823 1.823 0 011.427-.691h4.878a.369.369 0 00.369-.369V1.443a.37.37 0 00-.37-.369zm-8.375 9.02H1.783a.5.5 0 110-1H5.15a.5.5 0 110 1zm0-2.752H1.783a.5.5 0 110-1H5.15a.5.5 0 110 1zm0-2.75H1.783a.5.5 0 110-1H5.15a.5.5 0 110 1zm6.945 5.501H8.727a.5.5 0 110-1h3.368a.5.5 0 110 1zm0-2.75H8.727a.5.5 0 110-1h3.368a.5.5 0 110 1zm0-2.75H8.727a.5.5 0 110-1h3.368a.5.5 0 110 1z"/></svg>