<svg data-tags="knowledge base" xmlns="http://www.w3.org/2000/svg" viewBox="0 0 14 14"><path d="M3.232 7.478a.33.33 0 00.33.33H5.78a.33.33 0 000-.66H3.561a.33.33 0 00-.33.33z" fill="#8439ff"/><path d="M7 .103A6.897 6.897 0 1013.897 7 6.897 6.897 0 007 .103zm4.542 10.568a.243.243 0 01-.243.244H8.085a1.202 1.202 0 00-.94.455q-.034.042-.071.08a.093.093 0 01-.148 0 .645.645 0 01-.07-.08 1.202 1.202 0 00-.94-.455H2.7a.243.243 0 01-.243-.244v-6.75a.243.243 0 01.243-.244h3.202A1.204 1.204 0 017 4.387a1.203 1.203 0 011.096-.71h3.203a.243.243 0 01.243.244z" fill="#8439ff"/><path d="M5.78 8.96H3.561a.33.33 0 100 .661h2.22a.33.33 0 100-.66zM5.78 5.336h.001-2.22a.33.33 0 100 .66h2.22a.33.33 0 100-.66zM10.357 5.336H8.138a.33.33 0 000 .66h2.219a.33.33 0 100-.66zM8.138 7.808h2.219a.33.33 0 100-.66H8.138a.33.33 0 000 .66zM10.357 8.96H8.138a.33.33 0 100 .661h2.219a.33.33 0 100-.66z" fill="#8439ff"/></svg>