<svg data-tags="konbini" xmlns="http://www.w3.org/2000/svg" viewBox="0 0 14 14"><path d="M0 0h14v14H0Z" fill="#e3e8ee" fill-rule="evenodd"/><path d="M5.288 5.903a1.218 1.218 0 0 1 .634-1.02c.3-.22.394-.292.394-.482s-.095-.32-.27-.32a.332.332 0 0 0-.32.313H5.28a.729.729 0 0 1 .765-.678c.547 0 .73.328.73.649s-.125.444-.504.744c-.263.182-.364.306-.4.4h.99l-.058.394Zm2.749 0v-.481h-.97v-.408l.89-1.254h.503v1.283h.255v.379H8.46v.481Zm0-1.24v-.502a9.353 9.353 0 0 1-.569.882h.561Z" fill="#697386"/><path d="M9.188 3.351v2.917H4.814V3.35Zm0-.729H4.814a.729.729 0 0 0-.73.729v2.917a.729.729 0 0 0 .73.729h4.374a.729.729 0 0 0 .73-.729V3.351a.729.729 0 0 0-.73-.729ZM8.46 8.455v2.187H5.543V8.455Zm0-.73H5.543a.729.729 0 0 0-.729.73v2.187a.729.729 0 0 0 .73.73H8.46a.729.729 0 0 0 .728-.73V8.455a.729.729 0 0 0-.729-.73Z" fill="#697386"/><path d="M6.637 8.09h.729v2.837h-.73ZM3.224 5.54h1.48v1.458h-1.48Zm0-1.458h1.378v.743H3.224Zm6.19 0h1.379v.743H9.415Zm-.153 1.458h1.634v1.458H9.26Z" fill="#697386"/><path d="M10.647 3.351H9.188v.73h1.459v6.561h-7.29V4.081h1.457v-.73H3.356a.729.729 0 0 0-.73.729v6.562a.729.729 0 0 0 .73.73h7.29a.729.729 0 0 0 .73-.73V4.082a.729.729 0 0 0-.729-.73Z" fill="#697386"/></svg>