<svg data-tags="kore ai" xmlns="http://www.w3.org/2000/svg" xmlns:xlink="http://www.w3.org/1999/xlink" viewBox="0 0 14 14"><defs><clipPath id="brand_koreAI_clr__b"><path d="M4.216 7.715a1.048 1.048 0 0 1-1.785.1 1.276 1.276 0 1 0 2.43-.781Z" fill="none"/></clipPath><clipPath id="brand_koreAI_clr__c"><path fill="none" d="M-1.302 4.787H10.85v5.276H-1.302z"/></clipPath><clipPath id="brand_koreAI_clr__d"><path d="M3.248 6.2a1.277 1.277 0 0 0-.824 1.606l.644-.681a1.048 1.048 0 0 1 1.785-.1 1.28 1.28 0 0 0-1.215-.887 1.385 1.385 0 0 0-.39.063" fill="none"/></clipPath><linearGradient id="brand_koreAI_clr__a" x1="365.723" y1="-165.448" x2="370.755" y2="-170.48" gradientTransform="matrix(0 1 1 0 170.866 -360.756)" gradientUnits="userSpaceOnUse"><stop offset=".36" stop-color="#7ccddc" stop-opacity="0"/><stop offset=".547" stop-color="#7ccddc"/></linearGradient><linearGradient id="brand_koreAI_clr__e" x1="1.833" y1="199.917" x2="6.981" y2="194.769" gradientTransform="translate(0 -189.89)"/></defs><path d="M11.403 6.467a.538.538 0 0 0 0 1.073.545.545 0 0 0 .46-.224v-.62a.54.54 0 0 0-.46-.23Z" fill="#222"/><path d="M13.249 5.277h-2.71a.746.746 0 0 0-.744.744v1.766a.664.664 0 0 1 .154-.025.548.548 0 0 1 .39.936.701.701 0 0 0 .198.025h2.719A.746.746 0 0 0 14 7.98v-1.96a.752.752 0 0 0-.751-.742Zm-.824 2.697h-.565v-.112a.968.968 0 0 1-.55.154 1.01 1.01 0 1 1 .55-1.866v-.11h.565Zm.943 0h-.565V6.033h.565Z" fill="#222"/><path d="M9.541 8.31a.404.404 0 1 1 .807 0 .404.404 0 0 1-.807 0ZM9.107 7.608H7.415a.557.557 0 0 0 .595.478.421.421 0 0 0 .39-.173h.695A1.089 1.089 0 0 1 8 8.659a1.185 1.185 0 0 1-1.235-1.216 1.17 1.17 0 0 1 1.216-1.22 1.11 1.11 0 0 1 1.148 1.171c-.007.091-.014.147-.021.215ZM7.415 7.21h1.041a.458.458 0 0 0-.478-.446.548.548 0 0 0-.563.446ZM5.847 6.548a1.125 1.125 0 0 1 .805-.298v.632a1.054 1.054 0 0 0-.805.33v1.371h-.67V6.29h.663v.26h.007Z" fill="#222"/><path d="M4.86 7.027a1.276 1.276 0 1 0-.823 1.612 1.277 1.277 0 0 0 .823-1.612m-1.829.588a.64.64 0 1 1 .805.415.645.645 0 0 1-.805-.415" fill="#5d9aa3"/><g clip-path="url(#brand_koreAI_clr__b)"><g clip-path="url(#brand_koreAI_clr__c)"><path fill="url(#brand_koreAI_clr__a)" d="m.352 9.964 5.129.026-.082-5.042H.352v5.016z"/></g></g><g clip-path="url(#brand_koreAI_clr__d)"><g clip-path="url(#brand_koreAI_clr__c)"><path fill="url(#brand_koreAI_clr__e)" d="m6.888 4.787.03 5.357-5.047-.079V4.787h5.017z"/></g></g><path d="M.707 8.117v.501H0V5.382h.707v1.817l.943-1.017h.88l-.95 1.01 1.054 1.426h-.886l-.644-.912Z" fill="#222"/></svg>
