<svg xmlns="http://www.w3.org/2000/svg" viewBox="0 0 14 14"><circle fill="#00B900" cx="7" cy="7" r="7"/><path fill="#FFF" d="M11.272 6.933c0-1.912-1.916-3.467-4.272-3.467-2.355 0-4.272 1.555-4.272 3.467 0 1.713 1.52 3.149 3.573 3.42.139.03.328.092.376.21.043.109.028.278.014.387l-.061.366c-.019.108-.086.422.37.23.456-.192 2.46-1.449 3.356-2.48.62-.68.916-1.368.916-2.133"/><path d="M6.132 6.009h-.3a.083.083 0 0 0-.083.083v1.861c0 .046.037.083.083.083h.3a.083.083 0 0 0 .083-.083v-1.86a.083.083 0 0 0-.083-.084m2.062 0h-.3a.083.083 0 0 0-.082.083v1.106l-.853-1.152a.087.087 0 0 0-.012-.014l-.002-.002a.06.06 0 0 0-.007-.005l-.004-.003-.002-.001a.075.075 0 0 0-.005-.003l-.002-.001-.005-.002-.003-.001a.06.06 0 0 0-.005-.002H6.91l-.005-.002h-.012l-.003-.001h-.3a.083.083 0 0 0-.082.083v1.861c0 .046.037.083.083.083h.3a.083.083 0 0 0 .083-.083V6.848L7.827 8a.082.082 0 0 0 .02.02l.002.002.005.003a.041.041 0 0 0 .006.003l.004.002h.003l.005.002h.002a.082.082 0 0 0 .02.003h.3a.083.083 0 0 0 .084-.083v-1.86a.083.083 0 0 0-.084-.084M5.41 7.57h-.815V6.092a.083.083 0 0 0-.083-.083h-.3a.083.083 0 0 0-.083.083v1.861c0 .023.01.043.024.058v.001l.002.001a.083.083 0 0 0 .058.023H5.41a.083.083 0 0 0 .083-.083v-.3a.083.083 0 0 0-.083-.083m4.44-1.095a.083.083 0 0 0 .082-.083v-.3a.083.083 0 0 0-.083-.083H8.652a.083.083 0 0 0-.058.023v.001l-.002.002a.083.083 0 0 0-.023.057v1.861a.083.083 0 0 0 .026.06.083.083 0 0 0 .057.024H9.85a.083.083 0 0 0 .083-.084v-.3a.083.083 0 0 0-.083-.083h-.814v-.314h.814a.083.083 0 0 0 .083-.083v-.3a.083.083 0 0 0-.083-.083h-.814v-.315h.814z" fill="#00B900"/></svg>