<svg data-tags="brand,line" xmlns="http://www.w3.org/2000/svg" viewBox="0 0 14 14"><path fill="#00b900" d="M0 0h14v14H0z"/><path fill="#fff" fill-rule="evenodd" d="M11.238 6.486c0-1.896-1.9-3.44-4.238-3.44-2.337 0-4.238 1.544-4.238 3.44 0 1.7 1.507 3.124 3.544 3.393.138.03.326.091.374.21a.872.872 0 01.013.383l-.06.363c-.019.107-.085.419.367.228a13.686 13.686 0 003.33-2.46 3.06 3.06 0 00.908-2.117zM5.505 7.5a.082.082 0 01-.083.082H4.234a.082.082 0 01-.057-.023l-.002-.002a.082.082 0 01-.023-.057V5.652a.083.083 0 01.083-.082h.297a.082.082 0 01.082.082V7.12h.808a.082.082 0 01.083.082zm.716 0a.082.082 0 01-.082.082h-.297a.082.082 0 01-.083-.082V5.652a.083.083 0 01.083-.082h.297a.083.083 0 01.082.082zm2.047 0a.082.082 0 01-.083.082h-.297a.08.08 0 01-.021-.003h-.001l-.006-.002h-.003l-.004-.002-.003-.002-.003-.002-.005-.003a.08.08 0 01-.022-.02l-.847-1.145V7.5a.082.082 0 01-.083.082h-.297A.082.082 0 016.51 7.5V5.652a.083.083 0 01.083-.082h.309l.003.001.005.001h.003l.005.002.002.001.005.002.003.002.004.002.003.002.004.003.002.001.005.004.001.001.005.005v.001l.007.008.846 1.143V5.652a.083.083 0 01.083-.082h.297a.082.082 0 01.083.082zm1.641-1.55a.082.082 0 01-.082.083h-.808v.312h.808a.083.083 0 01.082.083v.297a.082.082 0 01-.082.083h-.808v.312h.808a.083.083 0 01.082.082V7.5a.082.082 0 01-.082.082H8.639a.082.082 0 01-.057-.023h-.001l-.001-.002a.082.082 0 01-.023-.057V5.652a.082.082 0 01.023-.057v-.001l.002-.001a.082.082 0 01.057-.023h1.188a.083.083 0 01.082.082z"/></svg>