<svg xmlns="http://www.w3.org/2000/svg" viewBox="0 0 14 14"><path fill="#00B900" d="M11.468 0H2.552A2.547 2.547 0 000 2.532v8.916A2.547 2.547 0 002.532 14h8.916A2.547 2.547 0 0014 11.468V2.55A2.546 2.546 0 0011.468 0"/><path fill="#FFF" d="M12.075 6.384c0-2.28-2.287-4.136-5.098-4.136-2.81 0-5.097 1.856-5.097 4.136 0 2.045 1.813 3.758 4.263 4.081.166.036.392.11.449.252.051.129.034.33.016.46l-.072.437c-.022.129-.103.504.441.275.544-.23 2.936-1.729 4.005-2.96.739-.81 1.093-1.632 1.093-2.545"/><path d="M5.942 5.282h-.358a.1.1 0 00-.1.1v2.22a.1.1 0 00.1.1h.358a.1.1 0 00.099-.1v-2.22a.1.1 0 00-.1-.1m2.462 0h-.358a.1.1 0 00-.1.1V6.7L6.929 5.326a.104.104 0 00-.014-.017l-.002-.001a.07.07 0 00-.006-.005l-.002-.002c-.002 0-.004-.002-.005-.003a.09.09 0 00-.008-.005l-.004-.001-.005-.003-.004-.001a.072.072 0 00-.006-.002H6.87a.14.14 0 00-.006-.002H6.86l-.005-.001h-.366a.1.1 0 00-.1.098v2.221a.1.1 0 00.1.1h.357a.1.1 0 00.1-.1V6.283L7.964 7.66c.007.01.015.018.025.024l.007.005L8 7.69l.005.002.004.002.003.002a.13.13 0 00.007.002h.002a.097.097 0 00.025.003h.358a.1.1 0 00.099-.099v-2.22a.1.1 0 00-.1-.1M5.08 7.145h-.972V5.381a.1.1 0 00-.099-.099h-.358a.1.1 0 00-.099.1v2.22c0 .027.01.051.028.069l.001.001.002.002a.099.099 0 00.068.027H5.08a.1.1 0 00.099-.099v-.357a.1.1 0 00-.1-.1m5.298-1.307a.1.1 0 00.1-.099v-.357a.1.1 0 00-.1-.1H8.949a.1.1 0 00-.07.028v.001l-.002.002a.099.099 0 00-.028.068v2.221a.099.099 0 00.031.072.099.099 0 00.069.027h1.428a.1.1 0 00.1-.099v-.357a.1.1 0 00-.1-.1h-.971V6.77h.971a.1.1 0 00.1-.1v-.357a.1.1 0 00-.1-.1h-.971v-.375h.971z" fill="#00B900"/></svg>