<svg xmlns="http://www.w3.org/2000/svg" viewBox="0 0 14 14.002"><path d="M5.18 7.241v.36a.1.1 0 01-.1.1H3.65a.09.09 0 01-.07-.03.09.09 0 01-.03-.07v-2.22c0-.05.05-.1.1-.1h.36c.05 0 .1.05.1.1v1.77h.97c.05 0 .1.04.1.09zm.76-1.96h-.36c-.05 0-.1.05-.1.1v2.22c0 .06.05.1.1.1h.36c.06 0 .1-.04.1-.1v-2.22a.1.1 0 00-.1-.1zm2.46 0h-.35a.1.1 0 00-.1.1v1.32l-1.02-1.37c0-.01-.01-.01-.01-.01 0-.01 0-.01-.01-.01v-.01H6.9l-.01-.01h-.02c0-.01 0-.01-.01-.01h-.37a.1.1 0 00-.1.1v2.22c0 .06.04.1.1.1h.36c.05 0 .09-.04.09-.1v-1.32l1.02 1.38c.01.01.02.02.03.02 0 .01 0 .01.01.01h.01v.01h.39c.06 0 .1-.04.1-.1v-2.22a.1.1 0 00-.1-.1zm1.98 0H8.95c-.03 0-.05.01-.07.03s-.03.04-.03.07v2.22c0 .03.01.05.03.07.02.02.04.03.07.03h1.43a.1.1 0 00.1-.1v-.36c0-.05-.05-.09-.1-.09h-.97v-.38h.97a.1.1 0 00.1-.1v-.36c0-.05-.05-.1-.1-.1h-.97v-.37h.97c.05 0 .1-.05.1-.1v-.36c0-.05-.05-.1-.1-.1zM14 2.551v8.92c0 1.4-1.15 2.53-2.55 2.53H2.53c-1.4 0-2.53-1.15-2.53-2.55v-8.92c0-1.4 1.15-2.53 2.55-2.53h8.92c1.4 0 2.53 1.15 2.53 2.55zm-1.93 3.83c0-2.28-2.28-4.13-5.09-4.13s-5.1 1.85-5.1 4.13c0 2.05 1.81 3.76 4.26 4.09.17.03.39.1.45.25.05.13.04.33.02.46 0 0-.06.36-.07.43-.03.13-.11.51.44.28.54-.23 2.93-1.73 4-2.96.74-.81 1.09-1.63 1.09-2.55zm-6.99.77h-.97v-1.77c0-.05-.05-.1-.1-.1h-.36c-.05 0-.1.05-.1.1v2.22c0 .03.01.05.03.07.02.02.04.03.07.03h1.43a.1.1 0 00.1-.1v-.36c0-.05-.05-.09-.1-.09zm.86-1.87h-.36c-.05 0-.1.05-.1.1v2.22c0 .06.05.1.1.1h.36c.06 0 .1-.04.1-.1v-2.22a.1.1 0 00-.1-.1zm2.46 0h-.35a.1.1 0 00-.1.1v1.32l-1.02-1.37c0-.01-.01-.01-.01-.01 0-.01 0-.01-.01-.01v-.01H6.9l-.01-.01h-.02c0-.01 0-.01-.01-.01h-.37a.1.1 0 00-.1.1v2.22c0 .06.04.1.1.1h.36c.05 0 .09-.04.09-.1v-1.32l1.02 1.38c.01.01.02.02.03.02 0 .01 0 .01.01.01h.01v.01h.39c.06 0 .1-.04.1-.1v-2.22a.1.1 0 00-.1-.1zm1.98.56c.05 0 .1-.05.1-.1v-.36c0-.05-.05-.1-.1-.1H8.95c-.03 0-.05.01-.07.03s-.03.04-.03.07v2.22c0 .03.01.05.03.07.02.02.04.03.07.03h1.43a.1.1 0 00.1-.1v-.36c0-.05-.05-.09-.1-.09h-.97v-.38h.97a.1.1 0 00.1-.1v-.36c0-.05-.05-.1-.1-.1h-.97v-.37h.97zm-4.44-.56h-.36c-.05 0-.1.05-.1.1v2.22c0 .06.05.1.1.1h.36c.06 0 .1-.04.1-.1v-2.22a.1.1 0 00-.1-.1zm2.46 0h-.35a.1.1 0 00-.1.1v1.32l-1.02-1.37c0-.01-.01-.01-.01-.01 0-.01 0-.01-.01-.01v-.01H6.9l-.01-.01h-.02c0-.01 0-.01-.01-.01h-.37a.1.1 0 00-.1.1v2.22c0 .06.04.1.1.1h.36c.05 0 .09-.04.09-.1v-1.32l1.02 1.38c.01.01.02.02.03.02 0 .01 0 .01.01.01h.01v.01h.39c.06 0 .1-.04.1-.1v-2.22a.1.1 0 00-.1-.1zm-3.32 1.87h-.97v-1.77c0-.05-.05-.1-.1-.1h-.36c-.05 0-.1.05-.1.1v2.22c0 .03.01.05.03.07.02.02.04.03.07.03h1.43a.1.1 0 00.1-.1v-.36c0-.05-.05-.09-.1-.09zm5.3-1.31c.05 0 .1-.05.1-.1v-.36c0-.05-.05-.1-.1-.1H8.95c-.03 0-.05.01-.07.03s-.03.04-.03.07v2.22c0 .03.01.05.03.07.02.02.04.03.07.03h1.43a.1.1 0 00.1-.1v-.36c0-.05-.05-.09-.1-.09h-.97v-.38h.97a.1.1 0 00.1-.1v-.36c0-.05-.05-.1-.1-.1h-.97v-.37h.97z"/></svg>
