<svg xmlns="http://www.w3.org/2000/svg" viewBox="0 0 14 14"><path fill="#037BB8" d="M7.632 6.203v-.02l-.013.02h.013z"/><path fill="#037BB8" d="M13.097 0H.903A.907.907 0 000 .903v12.194c0 .495.633.903 1.129.903h11.968a.908.908 0 00.903-.903V.903A.908.908 0 0013.097 0z"/><path d="M9.576 5.11c-1.148 0-1.658.632-1.944 1.074v.019h-.013l.013-.02v-.921H5.474c.029.609 0 6.489 0 6.489h2.158V8.128c0-.193.014-.387.072-.526.154-.388.509-.79 1.106-.79.78 0 1.093.596 1.093 1.468v3.471h2.156v-3.72c0-1.993-1.064-2.921-2.483-2.921zm-7.452.152h2.157v6.489H2.124zm1.093-3.128c-.739 0-1.221.484-1.221 1.121 0 .623.468 1.122 1.192 1.122h.015c.752 0 1.22-.499 1.22-1.122-.013-.636-.468-1.121-1.206-1.121z" fill="#FFF"/></svg>