<svg id="linkedin-ads_clr_cir" xmlns="http://www.w3.org/2000/svg" viewBox="0 0 14 14"><circle fill="#007ebb" cx="7" cy="7" r="7"/><path  fill="#fff" d="M5.3 9.1V4.8H3.9v4.3h1.4zm-.7-4.9c.5 0 .8-.3.8-.7 0-.4-.3-.7-.8-.7s-.8.3-.8.7c0 .4.3.7.8.7zm1.5 4.9h1.4V6.4c.1-.3.3-.5.7-.5.5 0 .7.4.7 1v2.3h1.4V6.6c0-1.3-.7-1.9-1.6-1.9-.7 0-1 .4-1.2.7v-.6H6.1v4.3zm-.5 1.6l-.2.5h-.2l.6-1.7h.3l.6 1.7h-.3l-.2-.5h-.6zm.6-.2L6 10c0-.1-.1-.2-.1-.3 0 .1-.1.2-.1.3l-.2.5h.6zm1.7-1.1v1.8h-.2V11c-.1.1-.2.2-.4.2-.3 0-.5-.2-.5-.6-.1-.4.2-.6.5-.6.2 0 .3.1.4.2v-.8h.2zm-.2 1.1s0-.1 0 0c0-.2-.2-.3-.3-.3-.2 0-.4.2-.4.5 0 .2.1.4.4.4.1 0 .3-.1.3-.3v-.3zm.5.5c.1 0 .2.1.3.1.2 0 .2-.1.2-.2s-.1-.2-.2-.2c-.2-.1-.3-.2-.3-.3 0-.2.2-.4.4-.4.1 0 .2 0 .3.1l-.1.2s-.1-.1-.2-.1-.2.1-.2.2.1.1.2.2c.2 0 .4.1.4.3 0 .2-.2.4-.5.4-.1 0-.3 0-.3-.1V11z" id="linkedin-ads_clr_cir_1"/></svg>
