<svg xmlns="http://www.w3.org/2000/svg" viewBox="0 0 14 14"><circle fill="#007EBB" cx="7" cy="7" r="7"/><path d="M5.01 10.675a1.31 1.31 0 0 1-.433.077c-.213 0-.389-.054-.527-.186a.724.724 0 0 1-.196-.525c.002-.42.29-.727.763-.727a.88.88 0 0 1 .351.064l-.044.149a.732.732 0 0 0-.311-.06c-.343 0-.567.213-.567.566 0 .357.215.568.544.568.119 0 .2-.016.242-.037v-.42h-.286v-.147h.464v.678zm.272-.634c0-.119-.002-.221-.008-.316h.16l.007.2h.008c.046-.137.157-.222.28-.222.021 0 .036.002.053.006v.173a.283.283 0 0 0-.063-.006c-.13 0-.221.098-.247.236a.505.505 0 0 0-.008.086v.54h-.182v-.697zm1.578.182c0 .374-.258.537-.503.537-.274 0-.485-.2-.485-.52 0-.339.222-.537.502-.537.29 0 .487.21.487.52zm-.802.01c0 .222.128.39.307.39.176 0 .308-.166.308-.394 0-.171-.086-.388-.304-.388-.217 0-.31.2-.31.393zm1.882.228c0 .105.002.197.008.276h-.163l-.01-.165H7.77a.38.38 0 0 1-.335.188c-.159 0-.349-.087-.349-.443v-.592h.184v.56c0 .193.059.323.226.323a.266.266 0 0 0 .242-.168.266.266 0 0 0 .017-.094v-.62h.184v.735zm.306-.405c0-.13-.004-.234-.009-.33h.165l.009.173h.004a.398.398 0 0 1 .36-.196c.244 0 .428.207.428.514 0 .364-.221.543-.46.543a.355.355 0 0 1-.311-.159h-.004v.55h-.182v-1.095zm.182.27a.284.284 0 0 0 .284.29c.194 0 .307-.159.307-.39 0-.204-.106-.377-.3-.377a.294.294 0 0 0-.279.228.296.296 0 0 0-.012.075v.174zm.982.224a.491.491 0 0 0 .243.072c.134 0 .197-.067.197-.15 0-.088-.053-.136-.189-.186-.181-.065-.267-.165-.267-.287 0-.163.132-.296.349-.296.102 0 .192.029.249.062l-.046.134a.394.394 0 0 0-.207-.058c-.109 0-.17.062-.17.138 0 .083.061.12.193.17.175.068.265.156.265.306 0 .178-.138.303-.378.303a.578.578 0 0 1-.284-.069l.046-.14zM5.282 8.864V4.806h-1.35v4.058h1.35zm-.674-4.612c.469 0 .763-.313.763-.702-.009-.398-.294-.701-.755-.701-.462 0-.763.303-.763.701 0 .39.293.702.745.702h.01zm1.421 4.612h1.348V6.598a.97.97 0 0 1 .044-.33c.098-.242.321-.493.692-.493.489 0 .684.373.684.918v2.17h1.35V6.538c0-1.246-.666-1.826-1.554-1.826-.728 0-1.047.406-1.225.683h.01v-.588h-1.35c.017.38 0 4.058 0 4.058z" fill="#FFF"/></svg>