<svg data-tags="linkedIn" xmlns="http://www.w3.org/2000/svg" viewBox="0 0 14 14"><path fill="#347db5" d="M7 14a6.956 6.956 0 0 0 6.91-7A6.956 6.956 0 0 0 7 0 6.956 6.956 0 0 0 .09 7 6.956 6.956 0 0 0 7 14Z"/><path fill="#fff" d="M4.5 9.756a.326.326 0 0 0-.192-.057.34.34 0 0 0-.162.036.32.32 0 0 0-.111.097.419.419 0 0 0-.065.14.62.62 0 0 0-.02.161.696.696 0 0 0 .02.174.415.415 0 0 0 .065.142.32.32 0 0 0 .112.097.344.344 0 0 0 .163.036.31.31 0 0 0 .124-.023.278.278 0 0 0 .093-.065.298.298 0 0 0 .062-.098.42.42 0 0 0 .026-.123h.141a.491.491 0 0 1-.138.315.443.443 0 0 1-.32.113.504.504 0 0 1-.215-.043.42.42 0 0 1-.153-.118.508.508 0 0 1-.09-.177.77.77 0 0 1-.031-.22.725.725 0 0 1 .032-.22.533.533 0 0 1 .096-.179.446.446 0 0 1 .157-.12.5.5 0 0 1 .216-.045.535.535 0 0 1 .157.023.418.418 0 0 1 .132.066.37.37 0 0 1 .096.108.406.406 0 0 1 .05.151h-.14a.266.266 0 0 0-.105-.17ZM4.892 10.13a.365.365 0 0 1 .071-.13.336.336 0 0 1 .118-.086.423.423 0 0 1 .32 0 .336.336 0 0 1 .117.086.363.363 0 0 1 .071.13.525.525 0 0 1 .024.16.517.517 0 0 1-.024.159.364.364 0 0 1-.071.128.327.327 0 0 1-.117.085.432.432 0 0 1-.32 0 .327.327 0 0 1-.118-.085.367.367 0 0 1-.07-.128.516.516 0 0 1-.024-.16.524.524 0 0 1 .023-.16Zm.129.285a.26.26 0 0 0 .05.091.22.22 0 0 0 .077.057.226.226 0 0 0 .262-.057.265.265 0 0 0 .05-.091.43.43 0 0 0 0-.251.272.272 0 0 0-.05-.092.226.226 0 0 0-.262-.057.215.215 0 0 0-.076.057.266.266 0 0 0-.051.092.431.431 0 0 0 0 .25ZM5.88 9.9v.115h.003a.296.296 0 0 1 .376-.103.168.168 0 0 1 .082.103.27.27 0 0 1 .101-.098.284.284 0 0 1 .139-.035.399.399 0 0 1 .104.013.217.217 0 0 1 .08.04.182.182 0 0 1 .052.07.26.26 0 0 1 .019.103v.569H6.71v-.51a.367.367 0 0 0-.006-.067.142.142 0 0 0-.022-.055.113.113 0 0 0-.046-.036.176.176 0 0 0-.074-.014.185.185 0 0 0-.2.198v.484h-.127v-.51a.345.345 0 0 0-.006-.068.151.151 0 0 0-.023-.055.108.108 0 0 0-.044-.036.17.17 0 0 0-.07-.013.186.186 0 0 0-.095.023.212.212 0 0 0-.063.054.216.216 0 0 0-.036.065.184.184 0 0 0-.011.056v.484h-.126V9.9ZM7.156 9.9v.106h.003a.19.19 0 0 1 .098-.094.363.363 0 0 1 .146-.03.341.341 0 0 1 .155.033.314.314 0 0 1 .11.09.39.39 0 0 1 .066.13.534.534 0 0 1 .022.156.557.557 0 0 1-.021.156.368.368 0 0 1-.066.128.309.309 0 0 1-.109.087.354.354 0 0 1-.153.031.381.381 0 0 1-.064-.006.33.33 0 0 1-.068-.02.26.26 0 0 1-.065-.036.204.204 0 0 1-.051-.058h-.003v.4H7.03V9.9Zm.453.276a.289.289 0 0 0-.043-.092.215.215 0 0 0-.074-.065.223.223 0 0 0-.106-.024.215.215 0 0 0-.108.025.219.219 0 0 0-.073.067.286.286 0 0 0-.04.094.462.462 0 0 0 0 .217.272.272 0 0 0 .042.094.214.214 0 0 0 .075.065.229.229 0 0 0 .111.025.215.215 0 0 0 .11-.025.205.205 0 0 0 .07-.068.291.291 0 0 0 .038-.096.516.516 0 0 0 .012-.111.405.405 0 0 0-.014-.106ZM8.493 10.693a.107.107 0 0 1-.078-.028.121.121 0 0 1-.029-.09.3.3 0 0 1-.12.09.395.395 0 0 1-.15.028.407.407 0 0 1-.097-.011.22.22 0 0 1-.081-.038.184.184 0 0 1-.055-.067.227.227 0 0 1-.02-.1.232.232 0 0 1 .022-.108.196.196 0 0 1 .059-.068.27.27 0 0 1 .083-.04.97.97 0 0 1 .095-.023q.052-.01.1-.016a.538.538 0 0 0 .081-.015.138.138 0 0 0 .057-.028.07.07 0 0 0 .02-.055.128.128 0 0 0-.015-.067.107.107 0 0 0-.04-.04A.164.164 0 0 0 8.27 10a.425.425 0 0 0-.06-.004.262.262 0 0 0-.134.03.13.13 0 0 0-.057.117h-.126a.277.277 0 0 1 .03-.122.226.226 0 0 1 .07-.08.296.296 0 0 1 .103-.044.535.535 0 0 1 .121-.014.704.704 0 0 1 .103.008.265.265 0 0 1 .093.03.18.18 0 0 1 .067.066.211.211 0 0 1 .025.11v.4a.302.302 0 0 0 .005.065c.003.014.015.021.035.021a.119.119 0 0 0 .038-.008v.1a.177.177 0 0 1-.09.02Zm-.176-.391a.96.96 0 0 1-.081.014 2.173 2.173 0 0 0-.085.012.307.307 0 0 0-.077.021.14.14 0 0 0-.056.043.12.12 0 0 0-.022.076.1.1 0 0 0 .046.089.133.133 0 0 0 .047.02.252.252 0 0 0 .056.005.295.295 0 0 0 .106-.017.227.227 0 0 0 .073-.044.173.173 0 0 0 .042-.057.144.144 0 0 0 .013-.058v-.13a.154.154 0 0 1-.062.026ZM8.82 9.9v.123h.002a.265.265 0 0 1 .25-.14.33.33 0 0 1 .125.02.206.206 0 0 1 .082.06.217.217 0 0 1 .043.088.486.486 0 0 1 .013.115v.51h-.126v-.525a.155.155 0 0 0-.041-.114.153.153 0 0 0-.115-.042.255.255 0 0 0-.1.018.188.188 0 0 0-.07.051.221.221 0 0 0-.042.077.315.315 0 0 0-.014.097v.439H8.7V9.9ZM9.782 10.875a.26.26 0 0 1-.048.064.161.161 0 0 1-.057.036.223.223 0 0 1-.074.011.337.337 0 0 1-.044-.003.222.222 0 0 1-.043-.01v-.117l.036.011a.124.124 0 0 0 .038.007.1.1 0 0 0 .062-.018.15.15 0 0 0 .042-.053l.052-.13-.304-.772h.142l.224.635h.003l.215-.635h.133l-.333.878a.837.837 0 0 1-.044.096ZM5.281 9.164v-4.15H3.92v4.15Zm-.68-4.716a.719.719 0 1 0 .009-1.434.718.718 0 1 0-.019 1.434ZM6.035 9.164h1.36V6.847a.97.97 0 0 1 .045-.336.748.748 0 0 1 .699-.506c.493 0 .69.382.69.94v2.219h1.362v-2.38c0-1.274-.672-1.867-1.568-1.867a1.355 1.355 0 0 0-1.237.7h.01v-.602H6.035c.016.389 0 4.149 0 4.149Z"/></svg>