<svg data-tags="linkedIn" xmlns="http://www.w3.org/2000/svg" viewBox="0 0 14 14"><path d="M2.831 2.436h.016A1.222 1.222 0 1 0 2.861 0a1.221 1.221 0 1 0-.03 2.436ZM9.765 3.234a2.325 2.325 0 0 0-2.11 1.162v.024H7.64l.016-.024V3.4H5.314c.028.66 0 7.03 0 7.044h2.341V6.51a1.605 1.605 0 0 1 .077-.572 1.285 1.285 0 0 1 1.202-.859c.847 0 1.186.648 1.186 1.595v3.768h2.344V6.405c0-2.164-1.157-3.171-2.699-3.171ZM1.673 3.397h2.345v7.046H1.673zM4.864 11.18l-.942 2.774h.37l.29-.873h.982l.297.873h.382l-.947-2.774ZM5.49 12.8h-.835L4.926 12q.078-.249.14-.502h.008c.042.16.082.325.145.506l.272.798ZM8.312 11.032h-.363v1.188h-.007a.67.67 0 0 0-.602-.303.952.952 0 0 0-.892 1.07.908.908 0 0 0 .851 1.012.736.736 0 0 0 .68-.39h.007l.017.345h.325a6.23 6.23 0 0 1-.016-.515Zm-.363 1.741v.346a.595.595 0 0 1-.016.156.544.544 0 0 1-.531.433c-.392 0-.588-.334-.588-.738 0-.44.222-.77.596-.77a.532.532 0 0 1 .523.42.607.607 0 0 1 .017.153ZM9.555 12.798c-.259-.1-.378-.174-.378-.338 0-.149.12-.271.333-.271a.779.779 0 0 1 .408.114l.091-.262a1.006 1.006 0 0 0-.49-.124.615.615 0 0 0-.688.585c0 .239.17.435.527.563.267.098.37.194.37.366 0 .165-.122.297-.385.297a.943.943 0 0 1-.478-.144l-.091.275a1.137 1.137 0 0 0 .559.137c.473 0 .745-.247.745-.597 0-.298-.177-.47-.523-.601Z"/></svg>