<svg data-tags="channel" xmlns="http://www.w3.org/2000/svg" viewBox="0 0 14 14"><path fill="#fccb1a" d="M14 8.9a3.55 3.55 0 00-1.34-.5 3.36 3.36 0 00-3.33 1.44c-.1.13-.16.15-.3.08L6.8 8.83c-.13-.06-.16-.1-.13-.25A2.13 2.13 0 004.33 6c-.09 0-.13-.01-.16-.1l-.71-2.04c-.04-.12.03-.15.1-.21a1.4 1.4 0 00.43-1.64 1.43 1.43 0 00-2.77.53 1.42 1.42 0 001.32 1.41.31.31 0 01.35.26c.2.62.42 1.22.64 1.83a.2.2 0 01-.09.28 2.11 2.11 0 00-.15 3.49c.1.07.12.12.07.24-.24.5-.46 1.02-.7 1.53-.03.09-.07.15-.2.15a1.25 1.25 0 00-1.27.72 1.27 1.27 0 00.16 1.44l.05.06v.02A1.34 1.34 0 010 12.74V1.46A1.35 1.35 0 011.44.02h11.1a1.36 1.36 0 011.44 1.1 1.1 1.1 0 01.02.23v7.38z"/><path fill="#fccb1a" d="M3.31 13.98a1.7 1.7 0 00.35-.65 1.28 1.28 0 00-.35-1.21.2.2 0 01-.05-.28l.7-1.52a.16.16 0 01.2-.12 2.08 2.08 0 002.07-.72.2.2 0 01.3-.06q1.12.56 2.26 1.1c.09.05.14.08.1.2a3.34 3.34 0 00.56 3.15l.08.11z"/></svg>
