<svg data-tags="lithium" xmlns="http://www.w3.org/2000/svg" viewBox="0 0 14 14"><path fill="#cc1d5b" d="M0 0h14v14H0z"/><path fill="#fefcfd" d="M3.32 5.895c0-.943.003-1.887-.002-2.83-.001-.13.025-.183.166-.174.21.012.42.002.631.003a.826.826 0 01.878.891c0 1.575.014 3.15-.005 4.725a1.346 1.346 0 001.427 1.428c.21-.016.421-.005.631-.002a.901.901 0 01.933.906c.007.216 0 .433.002.649 0 .068-.002.124-.095.122a17.871 17.871 0 01-2.044-.04A2.968 2.968 0 013.32 8.658c-.002-.921 0-1.842 0-2.764z"/><path fill="#fefdfd" d="M8.9 7.909c0-.96.003-1.921-.002-2.881-.001-.126.029-.17.16-.163.22.01.442 0 .664.004a.833.833 0 01.857.866c.005.46.001.921.001 1.381 0 1.438-.003 2.876.004 4.313 0 .153-.04.197-.188.187-.187-.014-.375-.003-.563-.004a.841.841 0 01-.933-.941V7.909z"/><path fill="#fefcfd" d="M9.742 2.377a.942.942 0 11-.942.938.94.94 0 01.942-.938z"/></svg>