<svg data-tags="lithium" xmlns="http://www.w3.org/2000/svg" viewBox="0 0 14 14"><path d="M4.912 4.336c0 .76-.004 1.52.001 2.28a1.192 1.192 0 0 0 .65 1.095 1.143 1.143 0 0 0 .551.141c.277.004.554-.002.83.008a.835.835 0 0 1 .738.657 1.863 1.863 0 0 1 .024.267c.004.161.002.322 0 .483-.001.194.03.17-.167.171q-.61.002-1.222 0c-.132 0-.265 0-.397-.01a2.738 2.738 0 0 1-1.696-.74 2.706 2.706 0 0 1-.81-1.365 2.554 2.554 0 0 1-.083-.595c-.007-1.795-.004-3.59-.006-5.385 0-.07.02-.095.093-.093.272.006.545-.001.816.013a.777.777 0 0 1 .66.616 1.665 1.665 0 0 1 .017.233q.002 1.112.001 2.224Zm5.227-.408a1.126 1.126 0 0 0-.026-.231.779.779 0 0 0-.685-.59c-.272-.011-.544-.005-.817-.007-.046 0-.064.019-.061.064v5.399a1.75 1.75 0 0 0 .011.177.78.78 0 0 0 .721.691c.253.008.507.006.76.007.098.001.098 0 .098-.097V6.592l-.001-2.664Zm.1-2.24a.892.892 0 1 1-.886-.922.893.893 0 0 1 .886.922ZM1.386 11.39a.674.674 0 0 0-.059-.152.42.42 0 0 0-.233-.199.544.544 0 0 0-.183-.028.533.533 0 0 0-.262.062.515.515 0 0 0-.18.164.74.74 0 0 0-.103.233 1.074 1.074 0 0 0 0 .533.74.74 0 0 0 .103.233.515.515 0 0 0 .18.164.533.533 0 0 0 .262.061.473.473 0 0 0 .197-.039.439.439 0 0 0 .147-.106.501.501 0 0 0 .096-.159.76.76 0 0 0 .045-.194h.325a.902.902 0 0 1-.073.312.748.748 0 0 1-.42.402.868.868 0 0 1-.317.056.897.897 0 0 1-.382-.079.841.841 0 0 1-.287-.214.96.96 0 0 1-.18-.317 1.215 1.215 0 0 1 0-.77.96.96 0 0 1 .18-.318.856.856 0 0 1 .287-.215.884.884 0 0 1 .382-.08 1.007 1.007 0 0 1 .301.044.778.778 0 0 1 .25.128.664.664 0 0 1 .174.203.71.71 0 0 1 .083.275Zm1.228 1.335a.75.75 0 0 1-.294-.055.628.628 0 0 1-.219-.15.644.644 0 0 1-.136-.23.936.936 0 0 1 0-.583.644.644 0 0 1 .136-.23.628.628 0 0 1 .219-.15.75.75 0 0 1 .294-.054.75.75 0 0 1 .294.054.628.628 0 0 1 .219.15.644.644 0 0 1 .136.23.936.936 0 0 1 0 .584.644.644 0 0 1-.136.229.628.628 0 0 1-.219.15.75.75 0 0 1-.294.055Zm0-.24a.349.349 0 0 0 .298-.154.489.489 0 0 0 .071-.156.697.697 0 0 0 0-.353.471.471 0 0 0-.07-.156.376.376 0 0 0-.123-.11.384.384 0 0 0-.352 0 .376.376 0 0 0-.122.11.471.471 0 0 0-.071.156.702.702 0 0 0 0 .353.488.488 0 0 0 .07.156.349.349 0 0 0 .299.154Zm.949-1.175h.287v.192h.008a.781.781 0 0 1 .075-.093.407.407 0 0 1 .203-.119.562.562 0 0 1 .146-.017.5.5 0 0 1 .233.056.316.316 0 0 1 .153.173.613.613 0 0 1 .179-.168.482.482 0 0 1 .253-.061.498.498 0 0 1 .34.106.455.455 0 0 1 .121.357v.952h-.304v-.805q0-.083-.005-.15a.308.308 0 0 0-.03-.118.174.174 0 0 0-.077-.076.3.3 0 0 0-.138-.026.257.257 0 0 0-.224.096.459.459 0 0 0-.07.271v.808H4.41v-.885a.375.375 0 0 0-.052-.217.219.219 0 0 0-.19-.073.282.282 0 0 0-.21.093.347.347 0 0 0-.066.112.426.426 0 0 0-.026.152v.818h-.303V11.31Zm2.318 0h.288v.192h.008a.78.78 0 0 1 .074-.093.407.407 0 0 1 .203-.119.562.562 0 0 1 .146-.017.5.5 0 0 1 .233.056.316.316 0 0 1 .154.173.613.613 0 0 1 .178-.168.481.481 0 0 1 .253-.061.498.498 0 0 1 .34.106.455.455 0 0 1 .121.357v.952h-.303v-.805q0-.083-.006-.15a.307.307 0 0 0-.03-.118.174.174 0 0 0-.076-.076.3.3 0 0 0-.139-.026.257.257 0 0 0-.224.096.459.459 0 0 0-.069.271v.808h-.304v-.885a.375.375 0 0 0-.052-.217.219.219 0 0 0-.19-.073.282.282 0 0 0-.21.093.347.347 0 0 0-.066.112.425.425 0 0 0-.025.152v.818H5.88V11.31Zm3.528 1.378H9.11v-.192h-.005a.417.417 0 0 1-.166.167.452.452 0 0 1-.226.062.506.506 0 0 1-.393-.134.59.59 0 0 1-.12-.407v-.874h.303v.845a.374.374 0 0 0 .07.256.252.252 0 0 0 .194.074.384.384 0 0 0 .16-.029.283.283 0 0 0 .103-.079.301.301 0 0 0 .058-.118.614.614 0 0 0 .017-.15v-.799h.304Zm.32-1.378h.287v.203l.006.005a.51.51 0 0 1 .18-.18.483.483 0 0 1 .249-.065.515.515 0 0 1 .357.117.449.449 0 0 1 .13.352v.946h-.303v-.866a.374.374 0 0 0-.07-.236.252.252 0 0 0-.2-.073.33.33 0 0 0-.138.028.3.3 0 0 0-.104.077.363.363 0 0 0-.067.116.414.414 0 0 0-.024.141v.813H9.73Zm1.537-.525h.304v.288h-.304Zm0 .525h.304v1.378h-.304Zm.496 0h.229v-.413h.304v.413h.274v.227h-.274v.735a.734.734 0 0 0 .004.083.143.143 0 0 0 .018.058.09.09 0 0 0 .044.036.216.216 0 0 0 .08.012h.064a.317.317 0 0 0 .064-.01v.234l-.098.01a.895.895 0 0 1-.099.006.672.672 0 0 1-.193-.022.258.258 0 0 1-.115-.067.23.23 0 0 1-.056-.11.832.832 0 0 1-.017-.153v-.812h-.23Zm.874 0h.333l.36 1.029h.005l.349-1.029H14l-.536 1.452q-.037.094-.073.179a.639.639 0 0 1-.088.15.38.38 0 0 1-.129.104.44.44 0 0 1-.197.04 1.383 1.383 0 0 1-.21-.017v-.256l.071.012a.38.38 0 0 0 .072.007.248.248 0 0 0 .088-.013.145.145 0 0 0 .057-.039.24.24 0 0 0 .039-.06.586.586 0 0 0 .03-.08l.034-.107Z"/></svg>