<svg data-tags="mic,live,event" xmlns="http://www.w3.org/2000/svg" viewBox="0 0 14 14"><path fill="#40A3F5" d="M7.287 13.987v-3.863c.029-.006.029-.011.056-.018a.459.459 0 00.379-.472c0-.557.003-1.115-.003-1.672 0-.09.032-.13.108-.165.28-.132.558-.27.845-.411L7.084 4.97 2.478 8.884l.77 1.15 2.607-1.271v.83c0 .3.11.462.432.53v3.837C3.635 13.813.457 11.577.043 7.782A6.982 6.982 0 016.999.013a6.975 6.975 0 016.993 7.293c-.202 4.239-3.747 6.675-6.705 6.68zm4.157-8.898c-.003-.051-.003-.136-.014-.219a1.971 1.971 0 00-1.89-1.712 1.958 1.958 0 00-1.867 1.236.165.165 0 00.018.13c.5.766 1.014 1.524 1.5 2.298.133.21.273.296.507.242.012-.003.026-.002.039-.003a1.967 1.967 0 001.707-1.972z"/></svg>