<svg data-tags="live chat,message,chat bubble" xmlns="http://www.w3.org/2000/svg" viewBox="0 0 14 14"><path fill="#4ac7e5" d="M4.912 5.997H4.88a.458.458 0 10.032 0z"/><path fill="#4ac7e5" d="M.014.007v14h14v-14zm10.862 6.996a3.062 3.062 0 01-2.829 2.068c-2.25-.08-3.267.174-3.172 1.847.006.092-.069.05-.12-.002a5.423 5.423 0 01-1.6-5.146 4.177 4.177 0 015.103-2.61 3.955 3.955 0 012.119 1.307 2.661 2.661 0 01.5 2.537z"/><path fill="#4ac7e5" d="M7.048 5.997h-.032a.458.458 0 10.032 0zm2.136 0h-.032a.458.458 0 10.032 0z"/></svg>