<svg data-tags="contentful" xmlns="http://www.w3.org/2000/svg" viewBox="0 0 14 14"><path d="M11.405 3.973a3.395 3.395 0 0 0-.12-.652 8.293 8.293 0 0 0-.303-.811 3.458 3.458 0 0 0-.63-.99A4.287 4.287 0 0 0 9.107.53 3.665 3.665 0 0 0 7.83.07L7.81.067h-.004L7.793.063h-.001A4.07 4.07 0 0 0 6.92 0a2.876 2.876 0 0 0-.591.036c-.066.014-.132.024-.197.04a3.92 3.92 0 0 0-.652.178A6.287 6.287 0 0 0 4.435.82a5.397 5.397 0 0 0-.874.807 3.98 3.98 0 0 0-.473.738 3.164 3.164 0 0 0-.262.606c-.08.26-.13.527-.185.792a3.718 3.718 0 0 0 .098 1.761 7.503 7.503 0 0 0 .415 1.029c.129.287.276.567.418.847.218.427.441.85.659 1.277.18.353.353.71.533 1.065.176.346.363.688.54 1.033.21.41.416.822.624 1.233.323.637.645 1.275.971 1.91a.163.163 0 0 0 .106.08c.03.005.078-.04.097-.073.091-.171.173-.346.261-.519q.27-.533.545-1.064c.134-.261.274-.519.407-.779.15-.295.295-.59.444-.886l.765-1.51c.14-.278.28-.556.423-.833.14-.273.284-.542.425-.815.146-.285.296-.568.434-.858a8.287 8.287 0 0 0 .392-.891 4.338 4.338 0 0 0 .207-1.798Zm-4.29 3.08A2.691 2.691 0 0 1 4.348 4.47a2.68 2.68 0 0 1 2.597-2.728 2.656 2.656 0 0 1 .168 5.31Z"/></svg>