<svg data-tags="mail chimp" xmlns="http://www.w3.org/2000/svg" viewBox="0 0 14 14"><path d="M10.301 6.619a1.12 1.12 0 01.288 0 .984.984 0 00.014-.545c-.07-.331-.163-.531-.356-.5s-.2.27-.131.601a1.117 1.117 0 00.185.444zM8.643 6.88c.138.06.223.101.256.066.021-.022.015-.064-.018-.118a.812.812 0 00-.357-.287.975.975 0 00-.948.113c-.092.068-.18.162-.168.22.004.017.018.031.05.036a5.909 5.909 0 01.65-.145 1.131 1.131 0 01.535.115zM8.365 7.039a.652.652 0 00-.343.143.22.22 0 00-.088.137.042.042 0 00.014.033.043.043 0 00.03.011.549.549 0 00.13-.037 1.146 1.146 0 01.58-.06c.09.01.134.016.154-.015a.05.05 0 00-.006-.057.524.524 0 00-.471-.155zM9.741 7.621a.221.221 0 00.3-.052c.044-.09-.02-.21-.141-.27a.221.221 0 00-.301.052c-.044.09.02.21.142.27zM10.527 6.935c-.1-.002-.182.107-.184.243s.076.248.175.25.182-.108.184-.244-.076-.248-.175-.25zM3.857 9.39c-.024-.031-.065-.022-.104-.012a.372.372 0 01-.093.013.201.201 0 01-.17-.086.315.315 0 01.008-.292l.023-.053a.862.862 0 00.063-.763.676.676 0 00-.517-.376.665.665 0 00-.57.206.819.819 0 00-.211.688c.016.043.04.055.058.057.037.005.092-.022.127-.115l.01-.03a.915.915 0 01.091-.215.39.39 0 01.249-.172.399.399 0 01.304.057.39.39 0 01.147.47 1.094 1.094 0 00-.077.416.414.414 0 00.37.428.316.316 0 00.299-.149.064.064 0 00-.007-.072z"/><path d="M13.032 8.849c-.006-.022-.045-.166-.1-.34a2.744 2.744 0 00-.11-.295 1.072 1.072 0 00.193-.781.988.988 0 00-.288-.558 2.335 2.335 0 00-1.014-.503l-.258-.071c-.002-.011-.014-.61-.025-.867a2.967 2.967 0 00-.114-.76 2.04 2.04 0 00-.527-.942 3.198 3.198 0 001.044-2.033C11.83.487 10.343.12 8.507.88l-.389.166c-.001-.002-.702-.69-.713-.699C5.313-1.479-1.228 5.792.863 7.558l.457.387a2.246 2.246 0 00-.127 1.037 2.044 2.044 0 00.706 1.312 2.147 2.147 0 001.385.558 5.302 5.302 0 004.853 3.09 5.12 5.12 0 005.125-2.999 4.135 4.135 0 00.282-1.312c0-.553-.313-.782-.512-.782zm-9.568 1.476a1.129 1.129 0 01-.217.015 1.687 1.687 0 01-1.545-1.409 1.393 1.393 0 011.096-1.627 1.285 1.285 0 01.317-.023A1.345 1.345 0 014.302 8.55c.126.816-.074 1.646-.838 1.776zm-.79-3.52a1.798 1.798 0 00-1.135.725 3.09 3.09 0 01-.483-.465c-.404-.767.44-2.259 1.03-3.1C3.547 1.882 5.83.306 6.888.592a4.153 4.153 0 01.741.709 14.894 14.894 0 00-2.037 1.404 9.25 9.25 0 00-2.916 4.1zm7.415 3.208a.042.042 0 00.024-.041.039.039 0 00-.042-.035 4.947 4.947 0 01-2.152-.219c.114-.37.416-.236.874-.2a6.392 6.392 0 002.11-.228 4.837 4.837 0 001.579-.785 3.18 3.18 0 01.22.752.367.367 0 01.231.042c.1.062.173.189.123.518a2.868 2.868 0 01-.802 1.574 3.307 3.307 0 01-.964.72 4.07 4.07 0 01-.63.267 3.097 3.097 0 01-3.9-1.332 2.052 2.052 0 01-.11-.301 2.65 2.65 0 01.584-2.488.225.225 0 00.077-.149.262.262 0 00-.06-.14 2.298 2.298 0 01-.815-1.884A1.41 1.41 0 017.8 4.848l.154.01c.262.015.491.048.708.058a1.416 1.416 0 001.072-.359.831.831 0 01.411-.232.501.501 0 01.157-.015.518.518 0 01.264.084c.309.206.353.704.369 1.068.009.208.034.711.043.856.02.33.106.377.282.434.099.033.19.057.325.095a1.837 1.837 0 01.805.381.506.506 0 01.147.288c.048.352-.274.786-1.124 1.181a5.711 5.711 0 01-2.838.454l-.274-.03c-.623-.084-.979.721-.605 1.274a1.986 1.986 0 001.556.587 4.1 4.1 0 003.096-1.2.58.58 0 00.035-.048c.021-.032.004-.05-.023-.032a5.337 5.337 0 01-3.588.91 2.227 2.227 0 01-.39-.106.698.698 0 01-.493-.516 3.262 3.262 0 002.2.023zm-2.138-.252zM5.369 3.956a6.16 6.16 0 011.728-1.413.022.022 0 01.03.03 1.666 1.666 0 00-.16.393.023.023 0 00.035.024 3.367 3.367 0 011.518-.536.024.024 0 01.016.043 1.292 1.292 0 00-.239.24.023.023 0 00.018.037 2.973 2.973 0 011.269.332c.023.013.007.06-.02.053a5.164 5.164 0 00-2.298.006A5.28 5.28 0 005.4 3.99a.024.024 0 01-.031-.034z"/></svg>