<svg data-tags="mastercard" xmlns="http://www.w3.org/2000/svg" viewBox="0 0 14 14"><path d="M0 0h14v14H0Z" fill-rule="evenodd"/><path d="M5.696 4.596h2.592v4.75H5.696Z" fill="#ff5f00"/><path d="M5.86 6.972a3.038 3.038 0 0 1 1.132-2.376 2.92 2.92 0 0 0-4.006.326 3.064 3.064 0 0 0 0 4.098 2.92 2.92 0 0 0 4.006.326A3.038 3.038 0 0 1 5.86 6.972Z" fill="#eb001b"/><path d="M11.784 6.972a3.028 3.028 0 0 1-1.667 2.716 2.914 2.914 0 0 1-3.125-.342 3.058 3.058 0 0 0 0-4.75 2.915 2.915 0 0 1 3.124-.342 3.025 3.025 0 0 1 1.668 2.717Z" fill="#f79e1b"/></svg>