<svg data-tags="channel" xmlns="http://www.w3.org/2000/svg" viewBox="0 0 14 14"><path fill="#9aa94b" fill-rule="evenodd" d="M1.49 6.25c-.83 0-1.49.26-1.49.6 0 .32.66.6 1.49.6.82 0 1.49-.28 1.49-.6 0-.34-.67-.6-1.5-.6z"/><path fill="#fff" fill-rule="evenodd" d="M1.81 6.89l-.33.29-.34-.29H.27l.98-.41.23.22.23-.22.97.41h-.87z"/><path fill="#221f20" fill-rule="evenodd" d="M3.96 7.06l-.44-.79h-.45v1.17h.35v-.67l.39.67h.31l.38-.67v.67h.36V6.27H4.4l-.44.79zm1.65-.58c-.46 0-.71.25-.71.5s.25.5.71.5a.95.95 0 00.6-.22.29.29 0 00.07-.1h-.42a.5.5 0 01-.25.07.36.36 0 01-.32-.15h1v-.07c0-.37-.4-.53-.68-.53zm-.3.37a.3.3 0 01.27-.13.33.33 0 01.28.13zm7.55.31h-.42a.52.52 0 01-.25.07.36.36 0 01-.31-.15h.99v-.07c0-.37-.4-.53-.67-.53-.46 0-.72.25-.72.5s.26.5.72.5a.95.95 0 00.6-.22.29.29 0 00.06-.1zm-.7-.44a.35.35 0 01.28.13h-.55a.33.33 0 01.27-.13zm-4.79-.48v.33a.63.63 0 00-.35-.1.61.61 0 00-.68.5c0 .25.25.51.67.51a.69.69 0 00.36-.1v.07h.35V6.24zm-.33.98c-.19 0-.34-.1-.34-.24 0-.14.15-.25.34-.25s.34.12.34.25-.15.24-.34.24zm2.18-.65a.6.6 0 00-.35-.1c-.41 0-.69.26-.69.5s.26.51.68.51a.67.67 0 00.36-.1v.07h.34V6.5h-.34v.07zm-.33.65c-.2 0-.35-.1-.35-.24 0-.14.15-.25.35-.25.18 0 .34.12.34.25s-.16.24-.34.24zm1.46-.74a.67.67 0 00-.36.1V6.5h-.34v1.26h.34v-.38a.6.6 0 00.35.1.63.63 0 00.68-.5c0-.25-.25-.5-.67-.5zm-.03.74c-.19 0-.35-.1-.35-.24s.16-.25.35-.25c.19 0 .34.1.34.25 0 .13-.15.24-.34.24z"/><path fill="#221f20" fill-rule="evenodd" d="M13.52 6.97l.47-.47h-.43l-.23.28a26.9 26.9 0 00-.23-.28h-.45l.47.49-.48.46h.42l.26-.27.23.27H14l-.48-.48zm-2.43.48h.34V6.24h-.34v1.21zm-3.3-.95v.95h.34v-.53a.55.55 0 01-.34-.42z"/><path fill="#9aa94b" fill-rule="evenodd" d="M8.06 6.33c-.1-.06-.22-.06-.26 0a.21.21 0 00.1.26c.09.07.21.07.26 0a.22.22 0 00-.1-.26z"/></svg>
