<svg data-tags="mediavalet" xmlns="http://www.w3.org/2000/svg" viewBox="0 0 14 14"><path d="M11.325 0h-8.65A2.596 2.596 0 0 0 0 2.685v8.61A2.62 2.62 0 0 0 2.705 14h8.57A2.599 2.599 0 0 0 14 11.244v-8.57A2.57 2.57 0 0 0 11.325 0Zm2.17 11.244a2.096 2.096 0 0 1-2.22 2.251h-8.57a2.11 2.11 0 0 1-2.2-2.2v-8.61a2.085 2.085 0 0 1 2.17-2.18h8.65a2.083 2.083 0 0 1 2.17 2.17Z"/><path d="M9.882 1.918a365.73 365.73 0 0 0-5.794-.01 2.105 2.105 0 0 0-2.12 2.19v2.887c0 .293 0 .585.01.868 0 .636.01 1.302-.02 1.938a2.144 2.144 0 0 0 .576 1.615 2.28 2.28 0 0 0 1.695.686c.96 0 1.918.01 2.877.01.908 0 1.817-.01 2.715-.01a2.21 2.21 0 0 0 2.261-2.29V4.168a2.168 2.168 0 0 0-2.2-2.251ZM11.578 9.8a1.699 1.699 0 0 1-1.757 1.787c-1.867.01-3.724.01-5.592 0a1.801 1.801 0 0 1-1.332-.535 1.661 1.661 0 0 1-.434-1.242c.03-.656.02-1.312.02-1.958-.01-.293-.01-.575-.01-.868V4.098a1.596 1.596 0 0 1 1.625-1.686c.98 0 1.938-.01 2.887-.01.99 0 1.958.01 2.897.02a1.651 1.651 0 0 1 1.696 1.747Z"/><path d="M8.802 3.896a14.25 14.25 0 0 0-3.462-.03 1.548 1.548 0 0 0-1.464 1.756V8.6a1.556 1.556 0 0 0 1.312 1.504 9.605 9.605 0 0 0 1.605.11c.485 0 .959-.02 1.423-.04l.232-.01a1.712 1.712 0 0 0 1.726-1.927V5.582a1.618 1.618 0 0 0-1.372-1.686Zm.868 4.34c0 .909-.424 1.393-1.252 1.424l-.222.01-.707.03a13.262 13.262 0 0 1-1.675-.03 5.01 5.01 0 0 1-.545-.06 1.067 1.067 0 0 1-.888-1.02V5.622c0-.787.333-1.2.999-1.261.535-.04 1.11-.081 1.716-.081a11.085 11.085 0 0 1 1.625.11 1.126 1.126 0 0 1 .949 1.192Z"/><path d="M7.813 5.48a41.93 41.93 0 0 0-1.595 0 .706.706 0 0 0-.515.203.678.678 0 0 0-.162.504c.01.535.01 1.07 0 1.615a.632.632 0 0 0 .657.717c.312 0 .575.01.827.01.263 0 .505-.01.737-.02a.773.773 0 0 0 .575-.232.75.75 0 0 0 .172-.555c-.01-.172 0-.343 0-.505v-1.03a.676.676 0 0 0-.696-.706Zm.191 1.727c0 .182-.01.363 0 .545a.258.258 0 0 1-.04.192.325.325 0 0 1-.222.06c-.444.02-.919.02-1.524.01-.131-.01-.182-.03-.172-.202q.015-.817 0-1.635a.213.213 0 0 1 .03-.151.346.346 0 0 1 .152-.04c.272 0 .535-.01.807-.01.253 0 .515.01.767.01.122.01.192.04.202.212Z"/></svg>