<svg data-tags="media valet" xmlns="http://www.w3.org/2000/svg" viewBox="0 0 14 14"><path d="M13.998 7.044v4.362a2.427 2.427 0 0 1-2.564 2.59q-4.444.005-8.888 0a2.44 2.44 0 0 1-2.543-2.54q-.005-4.464 0-8.929A2.433 2.433 0 0 1 2.514.004q4.486-.005 8.97 0a2.415 2.415 0 0 1 2.513 2.514c.006 1.509.001 3.017.001 4.526ZM2.042 6.99c0 .973.035 1.948-.01 2.92a1.983 1.983 0 0 0 2.096 2.111q2.9.013 5.8 0a2.017 2.017 0 0 0 2.08-2.11q.003-2.92 0-5.84A1.994 1.994 0 0 0 9.99 1.987q-3.003-.026-6.005 0a1.907 1.907 0 0 0-1.943 2q-.002 1.5 0 3.002Z" fill="#2597d8"/><path d="M2.042 6.989V3.986a1.907 1.907 0 0 1 1.943-2q3.002-.024 6.005.001a1.994 1.994 0 0 1 2.018 2.083q.003 2.92 0 5.84a2.017 2.017 0 0 1-2.08 2.11q-2.9.013-5.8 0a1.983 1.983 0 0 1-2.095-2.111c.044-.972.009-1.947.009-2.92Zm1.978-.02c0 .563-.008 1.125.002 1.687a1.36 1.36 0 0 0 1.142 1.31 16.788 16.788 0 0 0 3.32.056 1.519 1.519 0 0 0 1.546-1.738c0-.919.006-1.838-.002-2.756A1.412 1.412 0 0 0 8.822 4.04a14.46 14.46 0 0 0-3.521-.035c-.885.077-1.28.663-1.281 1.565v1.398Z" fill="#5eb2e2"/><path d="M4.02 6.97v-1.4c0-.9.396-1.487 1.28-1.564a14.46 14.46 0 0 1 3.522.035 1.412 1.412 0 0 1 1.206 1.487c.008.919.002 1.837.002 2.756a1.519 1.519 0 0 1-1.545 1.738 16.788 16.788 0 0 1-3.321-.057 1.36 1.36 0 0 1-1.142-1.309c-.01-.562-.002-1.124-.002-1.687Zm4.282.013c0-.274.007-.548-.002-.822a.437.437 0 0 0-.461-.47q-.822-.018-1.645 0c-.28.007-.458.133-.45.459a32.64 32.64 0 0 1 0 1.685.402.402 0 0 0 .433.475c.534.014 1.07.02 1.603-.001a.476.476 0 0 0 .525-.544c-.013-.26-.003-.521-.003-.781Z" fill="#9aceec"/><path d="M8.302 6.984c0 .26-.01.52.003.78a.476.476 0 0 1-.525.545c-.534.02-1.069.015-1.603 0a.402.402 0 0 1-.433-.474 32.64 32.64 0 0 0 0-1.685c-.008-.326.17-.452.45-.458q.822-.02 1.645-.001a.437.437 0 0 1 .46.47c.01.274.003.548.003.823Z" fill="#d5eaf7"/></svg>