<svg data-tags="mediaOcean" xmlns="http://www.w3.org/2000/svg" viewBox="0 0 14 14"><path d="M6.82 11.75a5.473 5.473 0 0 1-2.017-7.473 2.231 2.231 0 0 0-.814-3.033 2.181 2.181 0 0 0-2.885.61 1.95 1.95 0 0 1-.13.204c-.037.074-.092.148-.13.222a7.393 7.393 0 0 0 2.812 9.803 7.356 7.356 0 0 0 6.677.333 5.533 5.533 0 0 1-3.514-.666"/><path d="M10.315 10.806a2.913 2.913 0 0 1-1.35-1.775A2.857 2.857 0 0 1 9.26 6.83a2.196 2.196 0 0 0 .222-1.665 2.174 2.174 0 0 0-1.036-1.35 2.125 2.125 0 0 0-1.11-.296 2.035 2.035 0 0 0-.573.074 2.174 2.174 0 0 0-1.35 1.036 4.78 4.78 0 0 0 0 4.772 4.997 4.997 0 0 0 1.757 1.757 4.814 4.814 0 0 0 4.716.037 3.006 3.006 0 0 1-1.572-.389"/><path d="M13.718 9.364a2.25 2.25 0 0 0-.832-3.034 2.212 2.212 0 0 0-3.034.833 2.22 2.22 0 0 0 .833 3.051 2.217 2.217 0 0 0 3.033-.832"/></svg>