<svg data-tags="media valet" xmlns="http://www.w3.org/2000/svg" viewBox="0 0 14 14"><rect width="14" height="14" rx="7" fill="#d5eaf7"/><path d="M11.499 7.028v2.804a1.56 1.56 0 0 1-1.649 1.665q-2.857.004-5.714 0a1.569 1.569 0 0 1-1.634-1.632q-.003-2.87 0-5.74a1.564 1.564 0 0 1 1.614-1.622q2.884-.004 5.767 0a1.552 1.552 0 0 1 1.615 1.616c.004.97 0 1.94 0 2.91Zm-7.686-.035c0 .626.022 1.252-.006 1.877a1.275 1.275 0 0 0 1.347 1.357q1.864.009 3.728 0a1.297 1.297 0 0 0 1.337-1.356q.002-1.877 0-3.755a1.282 1.282 0 0 0-1.297-1.339q-1.93-.017-3.86 0a1.226 1.226 0 0 0-1.25 1.286v1.93Z" fill="#2597d8"/><path d="M3.813 6.993v-1.93a1.226 1.226 0 0 1 1.249-1.286q1.93-.016 3.86 0a1.282 1.282 0 0 1 1.297 1.34q.002 1.877 0 3.754a1.297 1.297 0 0 1-1.337 1.356q-1.864.008-3.728 0A1.275 1.275 0 0 1 3.807 8.87c.028-.625.006-1.251.006-1.877Zm1.271-.013c0 .362-.005.723.002 1.085a.874.874 0 0 0 .733.841 10.793 10.793 0 0 0 2.135.037.976.976 0 0 0 .994-1.118c0-.59.004-1.18-.001-1.771a.908.908 0 0 0-.775-.956 9.296 9.296 0 0 0-2.264-.023c-.57.05-.823.427-.824 1.006v.9Z" fill="#5eb2e2"/><path d="M5.084 6.98v-.899c0-.58.255-.956.824-1.006a9.296 9.296 0 0 1 2.264.023.908.908 0 0 1 .775.956c.005.59.001 1.18 0 1.771a.976.976 0 0 1-.993 1.118 10.793 10.793 0 0 1-2.135-.037.874.874 0 0 1-.733-.841c-.007-.362-.002-.723-.002-1.085Zm2.753.01c0-.177.004-.353-.001-.53a.28.28 0 0 0-.297-.301q-.528-.012-1.057 0c-.18.004-.294.085-.29.294.01.361.01.723 0 1.084a.258.258 0 0 0 .279.305c.343.01.687.013 1.03 0a.306.306 0 0 0 .338-.35c-.008-.167-.002-.335-.002-.503Z" fill="#9aceec"/><path d="M7.837 6.99c0 .167-.006.335.002.502a.306.306 0 0 1-.337.35c-.344.013-.688.01-1.031 0a.258.258 0 0 1-.279-.305c.01-.36.01-.723 0-1.084-.004-.21.11-.29.29-.294q.528-.012 1.057 0a.28.28 0 0 1 .297.302c.005.176 0 .352.001.528Z" fill="#d5eaf7"/></svg>