<svg data-tags="microsoft teams" xmlns="http://www.w3.org/2000/svg" viewBox="0 0 14 14"><defs><path id="microsoftTeamsSquare_clr__a" d="M6.905 4.67h-.823a1.331 1.331 0 001.203.761v-.38a.381.381 0 00-.38-.38z" opacity=".2" /></defs><path fill="#fff" d="M0 0h14v14H0z"/><circle cx="7.285" cy="4.1" r="1.331" fill="#7b83eb"/><path d="M7.19 4.385H5.985l.006.027v.002l.006.025A1.332 1.332 0 007.57 5.4v-.635a.381.381 0 00-.38-.38z" opacity=".1" /><use href="#microsoftTeamsSquare_clr__a" opacity=".2" /><circle cx="10.28" cy="4.528" r=".998" fill="#5059c9"/><path fill="#5059c9" d="M11.136 5.812H8.894a.183.183 0 00-.183.182v2.313a1.46 1.46 0 001.132 1.45 1.428 1.428 0 001.72-1.396V6.24a.428.428 0 00-.427-.427z"/><path fill="#7b83eb" d="M9.567 6.24v2.71a2.28 2.28 0 01-4.256 1.14 2.046 2.046 0 01-.142-.285 2.388 2.388 0 01-.094-.285 2.35 2.35 0 01-.072-.57V6.24a.427.427 0 01.427-.428h3.71a.427.427 0 01.427.426z"/><use href="#microsoftTeamsSquare_clr__a" opacity=".2" /><path d="M7.57 5.812v3.614a.377.377 0 01-.296.368.275.275 0 01-.083.011H5.17a2.388 2.388 0 01-.094-.285 2.35 2.35 0 01-.072-.57V6.24a.427.427 0 01.427-.428h2.14z" opacity=".1" /><path d="M7.285 5.812V9.71a.276.276 0 01-.011.083.377.377 0 01-.368.296H5.31a2.046 2.046 0 01-.142-.285 2.388 2.388 0 01-.094-.285 2.35 2.35 0 01-.072-.57V6.24a.427.427 0 01.427-.428h1.855z" opacity=".2" /><path d="M7.285 5.812V9.14a.381.381 0 01-.38.38h-1.83a2.35 2.35 0 01-.072-.57V6.24a.427.427 0 01.427-.428h1.855z" opacity=".2" /><path d="M5.431 5.812a.427.427 0 00-.428.426V8.95a2.35 2.35 0 00.072.57H6.62A.381.381 0 007 9.14V5.812z" opacity=".2" /><path fill="#4b53bc" d="M2.816 4.67H6.62a.38.38 0 01.38.38v3.804a.38.38 0 01-.38.38H2.816a.38.38 0 01-.38-.38V5.051a.38.38 0 01.38-.38z"/><path fill="#fff" d="M5.853 6.09H5v2.287h-.56V6.09h-.857v-.562h2.27z"/></svg>