<svg data-tags="microsoft exchange" xmlns="http://www.w3.org/2000/svg" viewBox="0 0 14 14"><circle fill="#0B72BA" cx="7" cy="7" r="7"/><path d="M2.835 3.839v6.322l4.667.807V3.032l-4.667.807zM5.97 8.64L4.2 8.475V5.158l1.702-.182v.671l-1.038.073v.767l.966-.024v.665l-.966-.01v.789l1.106.063v.67zm4.78-4.06H7.941v.588h.12c.027 0 .053.011.073.03l.42.42a.073.073 0 010 .104l-.152.151a.073.073 0 01-.103 0l-.19-.187a.02.02 0 00-.014-.006h-.154v1.13c.289.26.533.454.459.533-.048.051-.234-.032-.46-.17V8.32h.073c.521-.389.946-1.095 1.074-.976.15.141-.859 1.47-.984 1.488h-.162v.589h2.807c.23 0 .416-.187.416-.416v-4.01a.416.416 0 00-.416-.416zm-.173 3.74v.408a.104.104 0 01-.104.104H9.428a.104.104 0 01-.073-.03l-.42-.42a.073.073 0 010-.104l.152-.151a.073.073 0 01.103 0l.189.187a.02.02 0 00.015.006h.67v-.59c-.388-.521-1.095-.947-.975-1.074.14-.15 1.47.859 1.488.983v.68zm0-2.64v.637a.104.104 0 01-.031.073l-.42.42a.073.073 0 01-.103 0l-.151-.152a.073.073 0 010-.103l.186-.19a.02.02 0 00.006-.014v-.67h-.588c-.521.388-.947 1.094-1.074.975-.15-.141.859-1.47.983-1.488h1.088c.057 0 .104.047.104.104v.408z" fill="#FFF"/></svg>