<svg data-tags="microsoft teams" xmlns="http://www.w3.org/2000/svg" viewBox="0 0 14 14"><defs><path id="microsoftTeams_clr__a" d="M6.84 3.434H5.582A2.038 2.038 0 007.423 4.6v-.583a.584.584 0 00-.582-.582z" opacity=".2" /></defs><circle cx="7.423" cy="2.561" r="2.038" fill="#7b83eb"/><path d="M7.277 2.998H5.432l.009.04v.004l.01.037A2.04 2.04 0 007.86 4.552V3.58a.584.584 0 00-.582-.582z" opacity=".1" /><use href="#microsoftTeams_clr__a" opacity=".2" /><circle cx="12.007" cy="3.216" r="1.528" fill="#5059c9"/><path fill="#5059c9" d="M13.317 5.18H9.885a.28.28 0 00-.28.28v3.541a2.236 2.236 0 001.732 2.22 2.186 2.186 0 002.635-2.138V5.836a.655.655 0 00-.655-.655z"/><path fill="#7b83eb" d="M10.916 5.836v4.148A3.49 3.49 0 014.4 11.73a3.132 3.132 0 01-.218-.436 3.654 3.654 0 01-.144-.437 3.598 3.598 0 01-.11-.873V5.836a.654.654 0 01.654-.655h5.678a.654.654 0 01.655.653z"/><use href="#microsoftTeams_clr__a" opacity=".2" /><path d="M7.86 5.18v5.533a.576.576 0 01-.455.563.422.422 0 01-.126.018H4.183a3.654 3.654 0 01-.144-.437 3.598 3.598 0 01-.11-.873V5.836a.654.654 0 01.654-.655h3.276z" opacity=".1" /><path d="M7.423 5.18v5.97a.422.422 0 01-.018.126.576.576 0 01-.563.454h-2.44a3.132 3.132 0 01-.22-.436 3.654 3.654 0 01-.143-.437 3.598 3.598 0 01-.11-.873V5.836a.654.654 0 01.654-.655h2.84z" opacity=".2" /><path d="M7.423 5.18v5.096a.583.583 0 01-.581.581H4.039a3.598 3.598 0 01-.11-.873V5.836a.654.654 0 01.654-.655h2.84z" opacity=".2" /><path d="M4.585 5.18a.654.654 0 00-.655.654v4.15a3.598 3.598 0 00.109.873h2.366a.583.583 0 00.581-.58V5.18z" opacity=".2" /><path fill="#4b53bc" d="M.582 3.434h5.822a.582.582 0 01.582.582v5.822a.582.582 0 01-.582.582H.582A.582.582 0 010 9.838V4.016a.582.582 0 01.582-.582z"/><path fill="#fff" d="M5.23 5.607H3.926v3.501H3.07V5.607H1.755v-.86h3.476z"/></svg>