<svg data-tags="microsoft exchange" xmlns="http://www.w3.org/2000/svg" viewBox="0 0 14 14"><path d="M0 1.688v10.624l7.843 1.357V.332L0 1.687zm5.27 8.069l-2.975-.279V3.905L5.157 3.6v1.127l-1.745.123v1.29l1.623-.042v1.119l-1.623-.018v1.326l1.859.106v1.127zm8.03-6.825H8.584v.99h.2c.047 0 .091.018.124.05l.705.707a.122.122 0 010 .173l-.255.254a.122.122 0 01-.173 0l-.318-.314a.035.035 0 00-.024-.01h-.26V6.68c.486.437.896.763.772.896-.08.086-.393-.054-.771-.284v1.926h.12c.877-.653 1.591-1.84 1.805-1.64.253.237-1.443 2.472-1.652 2.5h-.273v.99H13.3a.7.7 0 00.699-.7V3.632a.7.7 0 00-.7-.699zm-.29 6.286v.686a.175.175 0 01-.174.174H11.08a.175.175 0 01-.124-.05l-.705-.707a.122.122 0 010-.173l.255-.254a.122.122 0 01.173 0l.318.314c.007.006.015.01.025.01h1.127v-.99c-.653-.875-1.84-1.59-1.64-1.804.237-.253 2.472 1.443 2.5 1.652v1.142zm0-4.436v1.069a.177.177 0 01-.05.124l-.707.705a.122.122 0 01-.172 0l-.255-.255a.122.122 0 010-.173l.314-.318a.035.035 0 00.01-.024V4.782h-.989c-.876.653-1.591 1.84-1.805 1.64-.253-.237 1.443-2.472 1.652-2.5h1.828c.096 0 .174.078.174.174v.686z"/></svg>