<svg data-tags="microsoft,teams" xmlns="http://www.w3.org/2000/svg" viewBox="0 0 14 14"><path d="M10.301 5.395c-.555-.017-1.111-.004-1.688-.004v4.273a2.149 2.149 0 0 1-2.182 2.183c-.48.002-.96 0-1.44 0-.037 0-.074.005-.125.009l.05.08a3.497 3.497 0 0 0 6.38-1.815c.028-1.232.012-2.465.004-3.698a1.051 1.051 0 0 0-.999-1.028ZM13.993 6.437a1.027 1.027 0 0 0-.867-1.017 8.149 8.149 0 0 0-1.027-.008 2.83 2.83 0 0 1 .283 1.586c-.005.964.002 1.927-.004 2.891a6.48 6.48 0 0 1-.051.75c-.026.21-.08.416-.121.626a2.12 2.12 0 0 0 1.785-2.018c.015-.936.008-1.873.002-2.81ZM13.188 2.961a1.345 1.345 0 1 0-1.337 1.351 1.348 1.348 0 0 0 1.337-1.351Z"/><path d="M7.535 9.668q.003-2.602.001-5.204v-.168a1.957 1.957 0 0 0 .96-.116A1.882 1.882 0 0 0 8.11.57a.764.764 0 0 1-.09-.025h-.43c-.095.023-.191.043-.285.07A1.88 1.88 0 0 0 6.05 3.106l.046.13H1.183a1.08 1.08 0 0 0-1.168.894c-.002.008-.01.014-.015.021v5.705c.016.05.033.1.048.151a1.057 1.057 0 0 0 1 .761q2.717.007 5.434 0a1.065 1.065 0 0 0 1.053-1.1ZM5.427 5.442H4.095V9.2H3.45V5.44H2.106v-.633h3.321Z"/></svg>