<svg data-tags="mobile app" xmlns="http://www.w3.org/2000/svg" viewBox="0 0 14 14"><g fill="#40A3F5"><path d="M7.625 10.491v1.54c0 .121-.112.219-.25.219H1.383c-.139 0-.251-.098-.251-.219V1.97c0-.121.112-.219.25-.219h5.991c.139 0 .251.098.251.219v1.614h.967V1c0-.552-.412-1-.92-1H1.053c-.508 0-.92.448-.92 1v12c0 .552.412 1 .92 1h6.619c.508 0 .92-.448.92-1v-2.509h-.967zm-3.262 3.174a.547.547 0 110-1.094.547.547 0 010 1.094z"/><path d="M4.952 8.8H2.68a.256.256 0 01-.257-.256V6.271c0-.142.115-.257.257-.257h2.273c.142 0 .257.115.257.257v2.273a.256.256 0 01-.257.257zm8.451-6.45c-.914-.002-1.829-.002-2.744 0-.277 0-.458.19-.459.469V3.87c.307 0 .599-.003.89 0a.888.888 0 01.88.852c.012.388.007.778.01 1.167v.12c.042.002.073.005.105.005h1.304c.299 0 .478-.179.478-.477V2.822a.48.48 0 00-.123-.342l-.002-.002a.46.46 0 00-.339-.128z"/><path d="M10.803 4.608c-.054-.01-.104-.025-.165-.025h-3.64c-.035 0-.064.013-.097.017a.596.596 0 00-.506.502c-.005.036-.019.066-.019.104v3.66c0 .054.016.099.026.148a.604.604 0 00.343.433.724.724 0 00.257.044h2.472c.034 0 .069-.003.11-.005V8.7a.615.615 0 01.107-.357c.138-.206.34-.291.581-.292.334-.002.667 0 1.007 0 .005-.023.009-.032.009-.042 0-.94.007-1.881-.003-2.822a.702.702 0 00-.043-.232.604.604 0 00-.44-.347zm2.067 6.944h-2.273a.256.256 0 01-.257-.256V9.022c0-.141.115-.256.257-.256h2.273c.142 0 .257.115.257.256v2.274a.256.256 0 01-.257.256z"/></g></svg>