<svg data-tags="mobile app" xmlns="http://www.w3.org/2000/svg" viewBox="0 0 14 14"><circle cx="7" cy="7" r="7" fill="#40A3F5"/><path fill="#FFF" d="M7.378 9.11v.93c0 .074-.068.133-.152.133h-3.62c-.084 0-.152-.06-.152-.132V3.959c0-.073.068-.132.151-.132h3.621c.084 0 .152.06.152.132v.976h.584V3.374c0-.334-.249-.605-.556-.605h-4c-.307 0-.557.27-.557.605v7.252c0 .334.25.605.557.605h4c.307 0 .556-.27.556-.605V9.11h-.584zm-1.972 1.918a.33.33 0 110-.661.33.33 0 010 .661z"/><path fill="#FFF" d="M5.661 8.088H4.49a.256.256 0 01-.257-.256V6.66c0-.142.115-.257.257-.257h1.17c.142 0 .256.115.256.257v1.17a.256.256 0 01-.256.257zM10.87 4.19c-.553-.002-1.105-.002-1.658 0-.168 0-.277.114-.278.283v.636c.186 0 .362-.003.538 0 .286.004.523.23.532.514.007.235.004.47.006.705v.073l.063.003h.788c.181 0 .29-.108.29-.288V4.475a.29.29 0 00-.075-.207v-.001a.279.279 0 00-.206-.077z"/><path fill="#FFF" d="M9.298 5.554c-.032-.006-.063-.015-.1-.015h-2.2c-.02 0-.038.008-.058.01a.36.36 0 00-.306.304c-.003.021-.01.04-.01.063l-.001 2.211c0 .033.01.06.016.09.025.117.1.215.207.262a.438.438 0 00.155.027h1.494l.067-.003v-.476a.365.365 0 01.064-.215.399.399 0 01.352-.177h.608l.005-.025c0-.568.005-1.137-.001-1.706a.424.424 0 00-.026-.14.365.365 0 00-.266-.21zm1.148 4.198h-1.17a.256.256 0 01-.257-.257V8.324c0-.142.115-.257.256-.257h1.171c.142 0 .257.115.257.257v1.171a.256.256 0 01-.257.257z"/></svg>