<svg data-tags="mobile advertising" xmlns="http://www.w3.org/2000/svg" viewBox="0 0 14 14"><path d="M8.271 10.226v1.805a.237.237 0 0 1-.25.219H1.997a.236.236 0 0 1-.25-.219V1.97a.236.236 0 0 1 .25-.219H8.02a.236.236 0 0 1 .25.219v1.257l.967-.54V1a.963.963 0 0 0-.92-1H1.7a.963.963 0 0 0-.92 1v12a.963.963 0 0 0 .92 1h6.618a.963.963 0 0 0 .92-1v-2.446Zm-3.263 3.439a.547.547 0 1 1 0-1.094.547.547 0 0 1 0 1.094Z" fill="#40a3f5"/><path d="M4.51 8.122a.166.166 0 0 1-.165.165H3.52a.165.165 0 0 1-.166-.165V5.818a.165.165 0 0 1 .165-.164h.824a.164.164 0 0 1 .164.164v2.304Zm2.253-2.547a.767.767 0 0 1-.31.079H5.64a.165.165 0 0 0-.164.164v4.184a.166.166 0 0 0 .164.165h.789a.166.166 0 0 0 .165-.165v-1.55a.54.54 0 0 1 .012-.165c.007 0 .082.023.169.052l4.136 1.382a.111.111 0 0 0 .157-.113v-6.22c0-.091-.065-.13-.144-.086Zm6.457 4.755a.164.164 0 0 1-.164.165h-.823a.165.165 0 0 1-.166-.165V2.76a.165.165 0 0 1 .166-.164h.822a.166.166 0 0 1 .166.165v7.57Z" fill="#40a3f5"/></svg>