<svg data-tags="mobile app" xmlns="http://www.w3.org/2000/svg" viewBox="0 0 14 14"><path d="M7.625 10.491v1.54a.236.236 0 01-.25.219H1.383a.236.236 0 01-.251-.219V1.97a.236.236 0 01.25-.219h5.991a.236.236 0 01.251.219v1.614h.967V1a.963.963 0 00-.92-1H1.053a.963.963 0 00-.92 1v12a.963.963 0 00.92 1h6.619a.963.963 0 00.92-1v-2.509zm-3.262 3.174a.547.547 0 110-1.094.547.547 0 010 1.094z"/><path d="M4.952 8.8H2.68a.256.256 0 01-.257-.255V6.271a.257.257 0 01.257-.257h2.273a.257.257 0 01.257.257v2.273a.256.256 0 01-.255.257h-.002zm8.451-6.45q-1.371-.003-2.744 0a.44.44 0 00-.459.469V3.87c.307 0 .599-.003.89 0a.888.888 0 01.88.852c.012.388.007.778.01 1.167v.12c.042.002.073.005.105.005h1.304a.44.44 0 00.478-.477V2.822a.48.48 0 00-.123-.342l-.002-.002a.46.46 0 00-.339-.128z"/><path d="M10.803 4.608a.85.85 0 00-.165-.025h-3.64a.755.755 0 00-.097.017.596.596 0 00-.506.502.707.707 0 00-.019.104v3.66a.704.704 0 00.026.148.604.604 0 00.343.433.724.724 0 00.257.044h2.472c.034 0 .069-.003.11-.005V8.7a.615.615 0 01.107-.357.657.657 0 01.581-.292c.334-.002.667 0 1.007 0a.268.268 0 00.009-.042c0-.94.007-1.881-.003-2.822a.702.702 0 00-.043-.232.604.604 0 00-.44-.347zm2.067 6.944h-2.273a.256.256 0 01-.257-.255V9.022a.257.257 0 01.257-.256h2.273a.257.257 0 01.257.256v2.274a.256.256 0 01-.256.256z"/></svg>