<svg data-tags="brand" xmlns="http://www.w3.org/2000/svg" viewBox="0 0 14 14"><circle fill="#40A3F5" cx="7" cy="7" r="7"/><g fill="#FFF"><path d="M8.58 9.004v1.121c0 .075-.07.136-.156.136H4.683c-.086 0-.156-.06-.156-.136v-6.25c0-.075.07-.136.156-.136h3.741c.086 0 .156.06.156.136v.78l.6-.334V3.273c0-.343-.255-.621-.571-.621H4.498c-.316 0-.572.278-.572.62v7.455c0 .343.256.621.572.621h4.111c.316 0 .572-.278.572-.62v-1.52l-.601-.204zM6.553 11.14a.34.34 0 110-.68.34.34 0 010 .68z"/><path d="M6.243 7.697a.102.102 0 01-.102.102h-.512a.102.102 0 01-.102-.102V6.266c0-.056.046-.102.102-.102h.512c.056 0 .102.046.102.102v1.431zm1.4-1.582a.476.476 0 01-.192.049h-.505a.102.102 0 00-.103.102v2.599c0 .056.046.102.103.102h.49a.103.103 0 00.102-.102V7.9c0-.056.003-.102.007-.102s.051.015.105.033l2.57.858c.053.018.097-.013.097-.07V4.756c0-.057-.04-.08-.09-.053L7.643 6.115zm4.011 2.954a.102.102 0 01-.102.102h-.511a.102.102 0 01-.103-.102V4.367c0-.057.046-.103.103-.103h.511c.056 0 .102.046.102.103v4.702zm0 0"/></g></svg>