<svg data-tags="commerce" xmlns="http://www.w3.org/2000/svg" viewBox="0 0 14 14"><defs><clipPath id="brand_modCommerce_clr__a"><path fill="none" d="M0 0h14v14H0z"/></clipPath></defs><g clip-path="url(#brand_modCommerce_clr__a)" fill="#5aa1ed"><path d="M3.268 0a.222.222 0 0 1 .222.189l.334 2.39h9.098l-.478 4.137h-.01l-.108.845-7.45.885a.22.22 0 0 0-.196.247l.2 1.417a.221.221 0 0 0 .22.188h6.966v.909H4.28a.222.222 0 0 1-.222-.189L2.67 1.098a.222.222 0 0 0-.22-.19H1.08V0h2.188ZM10.745 14a.921.921 0 1 0-.944-.92.933.933 0 0 0 .944.92ZM5.082 14a.921.921 0 1 0-.944-.92.933.933 0 0 0 .944.92Z"/></g></svg>