<svg data-tags="monoprix" xmlns="http://www.w3.org/2000/svg" viewBox="0 0 14 14"><rect width="14" height="14" rx="7" fill="#fff"/><path d="M4.103 3.947a2.978 2.978 0 0 0-.48 1.464 3.165 3.165 0 0 0 .348 1.608A3.396 3.396 0 0 0 6.9 8.496a1.847 1.847 0 0 1 .552.048.552.552 0 0 1 .168.624 3.242 3.242 0 0 1-.744 1.272 6.334 6.334 0 0 1-.756.744c-.132.096-.264.12-.156.264.096.12.3 0 .432-.048a6.245 6.245 0 0 0 3.517-3.469 5.296 5.296 0 0 0 .468-2.088c-.024-2.184-1.5-3.517-3.83-3.325a3.193 3.193 0 0 0-2.448 1.429Z" fill="#bf3d31"/></svg>