<svg xmlns="http://www.w3.org/2000/svg" viewBox="0 0 14 14"><circle fill="#FF8000" cx="7" cy="7" r="7"/><g fill="#FFF"><path d="M3.353 4.22c.067-.042.136-.08.208-.112.063-.028.071-.059.02-.11a1.024 1.024 0 0 1-.275-.595c-.28.237-.487.815-.437 1.227a2.69 2.69 0 0 1 .484-.41zm8.337 2.696l-.002-.038-.003-.082c0-.015-.002-.03-.003-.044a2.681 2.681 0 0 0-.005-.076l-.004-.045-.008-.074c0-.015-.003-.029-.005-.044l-.01-.075-.006-.041-.012-.077-.007-.038a3.461 3.461 0 0 0-.015-.082l-.007-.033a3.985 3.985 0 0 0-.019-.086l-.006-.027a2.537 2.537 0 0 0-.024-.097l-.004-.016a4.279 4.279 0 0 0-.289-.78c-.182-.734-.667-1.296-1.44-1.7l-.01-.006c.165.384.568.602.731.954-.175-.163-.37-.34-.56-.522-.194-.187-.394-.363-.64-.48-.235-.112-.473-.215-.734-.257a4.02 4.02 0 0 1 1.186 1.208c-.221-.13-.424-.295-.738-.295.63.599.948 1.292.88 2.178-.114-.152-.203-.282-.38-.367.032.306.065.582.09.859.026.288-.03.565-.113.868-.032-.051-.048-.075-.061-.099-.018-.03-.034-.064-.077-.049-.096.47-.172.947-.519 1.311-.066.07-.145.29-.313.075-.033-.041-.104.028-.14.073-.07.09-.136.187-.237.25-.029.019-.061.03-.093.045-.075-.16-.182-.03-.27-.021-.222.024-.443.082-.666.099-.238.018-.474-.01-.676-.17.07-.07.151-.004.224-.047a.52.52 0 0 0-.342-.12c-.359-.012-.604-.217-.843-.443-.462-.438-.598-1.35-.248-1.84.111-.158.062-.18-.077-.221-.421-.126-.899.209-1.008.698-.062.276.007.536.08.797-.282-.44-.23-1.043.11-1.382a.963.963 0 0 1 .55-.288c.347-.05.606.127.867.366.03-.268.04-.481-.117-.69a1.288 1.288 0 0 1-.248-1.044c.074-.394.245-.737.52-1.032.05-.053.135-.09.13-.194-.646-.017-1.037.377-1.405.867.004-.072-.002-.11.01-.14.083-.205-.01-.26-.204-.27-.631-.033-1.143.207-1.517.698a3.957 3.957 0 0 0-.209.301 4.283 4.283 0 0 0-.423 1.463V6.6a6.89 6.89 0 0 0-.011.127l-.002.033a2.696 2.696 0 0 0-.006.104c0 .012 0 .025-.002.037a4.561 4.561 0 0 0 .03.654c.063.523.221 1.018.456 1.47l.001.002a4.364 4.364 0 0 0 .682.966l.002.004c.076.081.154.16.236.237l.006.005c.081.076.166.148.252.219l.007.005a4.5 4.5 0 0 0 .27.201c0 .002.003.002.004.004a4.695 4.695 0 0 0 .438.268l.007.004c.1.053.2.103.304.15a4.591 4.591 0 0 0 .664.24l.01.002.17.044a.23.23 0 0 0 .097.022 4.744 4.744 0 0 0 .786.106l.115.005c.052.005.105.01.158.011.03 0 .093.011.104-.01.088-.002.176-.006.264-.013h.003a7.57 7.57 0 0 0 .123-.01l.02-.002a49 49 0 0 0 .106-.013l.026-.003.1-.014.026-.004c.033-.005.066-.01.099-.017l.025-.004a2.489 2.489 0 0 0 .122-.025 6.568 6.568 0 0 0 .12-.026c.29-.07.567-.164.832-.282a4.203 4.203 0 0 0 .223-.106l.057-.03c.016-.007.032-.016.047-.024.057-.03.113-.062.168-.095h.002c.132-.079.26-.163.383-.254l.004-.002a4.79 4.79 0 0 0 .238-.188l.003-.002.114-.098c.074-.067.146-.136.216-.208l.008-.008a4.09 4.09 0 0 0 .199-.218l.005-.006c.03-.035.059-.07.088-.107l.009-.01a4.514 4.514 0 0 0 .258-.36c0-.003.003-.005.004-.008.026-.04.052-.081.077-.123l.006-.012a2.4 2.4 0 0 0 .063-.11l.013-.023c.045-.083.087-.166.127-.251l.012-.026.047-.108.01-.024a3.79 3.79 0 0 0 .059-.146l.041-.115.012-.033.038-.12.004-.013.037-.134a302.249 302.249 0 0 0 .035-.139l.008-.034a4.485 4.485 0 0 0 .03-.152c.008-.04.015-.082.021-.124l.006-.038.015-.114.003-.029a3.26 3.26 0 0 0 .023-.324 2.63 2.63 0 0 0 .002-.265z"/><path d="M5.75 8.452c.088.07.182.097.298.104.502.032.92-.157 1.296-.467a.468.468 0 0 1 .355-.125c.18.014.233-.08.152-.239a.461.461 0 0 0-.238-.212c-.304-.132-.608-.145-.898.03-.257.155-.52.159-.796.079-.226-.066-.42-.19-.633-.358-.04.501.09.89.463 1.188zM3.688 3.888c.067.067.112.04.162-.013a1.4 1.4 0 0 1 .079-.075c.99-.874 2.143-1.24 3.46-1.09.624.07 1.2.326 1.829.454-.026-.023-.04-.04-.058-.05a5.446 5.446 0 0 0-.72-.338c-1.182-.45-2.383-.394-3.601.175a4.143 4.143 0 0 0-1.12.782c-.04.04-.1.075-.042.144l.011.011zm2.276 2.016c.206-.163.458-.248.673-.395a.387.387 0 0 0 .157-.42c-.036-.159-.197-.11-.313-.122-.277-.027-.567.048-.832-.134-.114.39-.016.711.186 1.01.029.044.054.12.129.06z"/></g></svg>