<svg xmlns="http://www.w3.org/2000/svg" viewBox="0 0 14 14"><path fill="#0072DB" d="M6.991.205c3.627 0 6.555 2.928 6.555 6.555s-2.928 6.554-6.555 6.554S.437 10.386.437 6.76 3.365.205 6.991.205z"/><path fill="#FF9500" d="M8.127 13.664c3.321-.568 5.856-3.409 5.856-6.904l-.044.087c.087-.655.087-1.267-.044-1.748-.043.393-.087.612-.174.7 0-.044 0-.438-.131-.962a4.788 4.788 0 00-.263-1.136c.044.175.044.306.044.437-.524-1.355-1.748-3.059-4.85-3.015 0 0 1.092.13 1.573.874 0 0-.525-.131-.918.087.48.175.918.393 1.267.612h.044c.087.044.175.131.262.175.656.48 1.267 1.136 1.224 1.966-.175-.262-.35-.437-.612-.48.306 1.18.306 2.14.087 2.883-.174-.524-.306-.786-.437-.917.175 1.573-.043 2.709-.742 3.452a4 4 0 00.174-1.136c-.83 1.223-1.748 1.878-2.796 1.922a3.68 3.68 0 01-1.18-.175 3.679 3.679 0 01-1.442-.917c.655.043 1.31-.044 1.835-.35l.874-.568a.483.483 0 01.35 0c.218-.044.306-.131.218-.35-.087-.13-.262-.262-.48-.393-.437-.218-.918-.174-1.399.131-.48.263-.917.263-1.354-.043a3.438 3.438 0 01-.83-.787l-.088-.175c-.044.394 0 .83.175 1.442-.175-.568-.219-1.048-.175-1.442 0-.305.131-.524.393-.524h-.087.131c.306.044.612.087 1.005.219.044-.35 0-.743-.262-1.137.35-.35.655-.568.917-.699.132-.043.175-.174.219-.306.087-.174.044-.262-.044-.35-.262 0-.48 0-.743-.043a2.96 2.96 0 01-.393-.262l-.393-.393-.131-.088-.044-.043.044-.044a2.1 2.1 0 01.262-.787l.044-.043c.13-.219.393-.437.743-.7-.7.088-1.311.394-1.88.918-.436-.13-1.004-.087-1.616.175l-.088.044.088-.044c-.393-.175-.656-.7-.787-1.573-.524.48-.742 1.398-.742 2.665l-.132.219-.043.044c-.088.13-.175.306-.306.524-.175.35-.262.612-.262.874v.262l.393-.306c-.131.393-.262.787-.306 1.18v.175L0 6.76a7.08 7.08 0 001.267 4.02l.044.043.044.044c.568.787 1.31 1.442 2.184 1.966.612.35 1.268.612 1.967.787l.13.044c.132.043.307.043.438.087.13 0 .218.044.35.044h1.048c.175 0 .35-.044.524-.044 0-.087.131-.087.131-.087zm4.414-8.521v.044-.044z"/></svg>