<svg data-tags="microsoft,sharepoint" xmlns="http://www.w3.org/2000/svg" viewBox="0 0 14 14"><circle cx="6.563" cy="4.156" r="4.156" fill="#2d6a6f"/><circle cx="10.445" cy="7.82" r="3.555" fill="#48989e"/><circle cx="7" cy="11.156" r="2.844" fill="#65c2cd"/><path d="M7.292 3.063h-4.74a4.159 4.159 0 0 0 4.01 5.25c.122 0 .242-.006.36-.016l.003.016a2.844 2.844 0 0 0-2.769 2.843q0 .11.009.219h3.127a.585.585 0 0 0 .583-.583V3.646a.585.585 0 0 0-.583-.583Z" opacity=".1"/><path d="M6.854 3.5H2.457a4.158 4.158 0 0 0 4.106 4.813c.12 0 .24-.006.36-.016l.002.016a2.846 2.846 0 0 0-2.693 3.5h2.622a.585.585 0 0 0 .583-.584V4.083a.585.585 0 0 0-.583-.583Z" opacity=".2"/><path d="M6.854 3.5H2.457a4.158 4.158 0 0 0 4.106 4.813c.12 0 .24-.006.36-.016l.002.016a2.844 2.844 0 0 0-2.76 2.624h2.69a.585.585 0 0 0 .582-.583v-6.27a.585.585 0 0 0-.583-.584Z" opacity=".2"/><path d="M6.417 3.5h-3.96a4.158 4.158 0 0 0 4.106 4.813c.12 0 .24-.006.36-.016l.002.016a2.844 2.844 0 0 0-2.76 2.624h2.252A.585.585 0 0 0 7 10.354v-6.27a.585.585 0 0 0-.583-.584Z" opacity=".2"/><path d="M.583 3.5h5.834A.583.583 0 0 1 7 4.083v5.834a.583.583 0 0 1-.583.583H.583A.583.583 0 0 1 0 9.917V4.083A.583.583 0 0 1 .583 3.5Z" fill="#33767b"/><path d="M2.48 6.923a1.157 1.157 0 0 1-.359-.38 1.033 1.033 0 0 1-.126-.52 1.002 1.002 0 0 1 .234-.675 1.375 1.375 0 0 1 .62-.404 2.617 2.617 0 0 1 .846-.132 3.217 3.217 0 0 1 1.115.157v.787a1.744 1.744 0 0 0-.505-.206 2.448 2.448 0 0 0-.59-.07 1.28 1.28 0 0 0-.606.127.398.398 0 0 0-.24.365.37.37 0 0 0 .102.258.928.928 0 0 0 .274.196q.172.086.514.228a.54.54 0 0 1 .074.029 4.243 4.243 0 0 1 .65.32 1.161 1.161 0 0 1 .383.386 1.12 1.12 0 0 1 .139.583 1.085 1.085 0 0 1-.219.702 1.22 1.22 0 0 1-.584.392 2.646 2.646 0 0 1-.832.121 4.386 4.386 0 0 1-.753-.062 2.586 2.586 0 0 1-.613-.176v-.832a1.969 1.969 0 0 0 .62.295 2.412 2.412 0 0 0 .681.11 1.173 1.173 0 0 0 .618-.132.414.414 0 0 0 .208-.37.395.395 0 0 0-.116-.284 1.183 1.183 0 0 0-.322-.224q-.205-.103-.606-.271a3.439 3.439 0 0 1-.606-.318Z" fill="#fff"/><path d="M0 0h14v14H0Z" fill="none"/></svg>
