<svg data-tags="multibanco" xmlns="http://www.w3.org/2000/svg" viewBox="0 0 14 14"><path d="M0 0h14v14H0Z" fill="#2e333a" fill-rule="evenodd"/><path d="M6.93 11.327h3.822c.873 0 .881-.93.792-1.388a.33.33 0 0 0-.629 0v.358a.297.297 0 0 1-.296.297H3.292a.298.298 0 0 1-.297-.297v-.358a.33.33 0 0 0-.629 0c-.089.459-.08 1.388.793 1.388H6.93Zm2.896-8.903h.295a.778.778 0 0 1 .753.798v.382a.366.366 0 1 1-.73.003V3.4a.241.241 0 0 0-.24-.24H4a.241.241 0 0 0-.24.24v.205a.35.35 0 1 1-.695.011v-.392a.779.779 0 0 1 .752-.799h.412Z" fill="#3a74c4" fill-rule="evenodd"/><path d="M10.725 6.81a1.168 1.168 0 0 1 .69 1.045 1.212 1.212 0 0 1-1.245 1.169H8.252a.318.318 0 0 1-.327-.306v-3.66a.322.322 0 0 1 .32-.32h1.6a1.223 1.223 0 0 1 .88 2.071m-1.432-.298a.337.337 0 0 0 0 .674h.61v.002h.24a.6.6 0 0 1 0 1.2H8.587V5.35h1.227a.58.58 0 0 1 .088 1.154v.007ZM7.62 8.66a.385.385 0 0 1-.765.08L6.539 5.83 5.422 8.675l-.002.003-.003.008-.003.006v.001l-.003.006-.001.004-.003.005-.001.003-.003.006-.001.002a.384.384 0 0 1-.079.102l-.007.006a.38.38 0 0 1-.066.047l-.002.001-.007.005-.007.003-.003.001-.004.003-.005.002-.004.001-.005.003-.004.001-.004.002-.004.001-.001.001-.004.001-.005.002-.003.001a.383.383 0 0 1-.113.022h-.028a.383.383 0 0 1-.126-.027l-.005-.002h-.001l-.005-.002-.005-.003L4.9 8.89l-.004-.002-.004-.003-.003-.001-.007-.004-.006-.003-.004-.002a.383.383 0 0 1-.06-.041v-.001l-.014-.012-.01-.01-.008-.009-.012-.013-.001-.001a.385.385 0 0 1-.04-.06l-.003-.003-.003-.006-.004-.007-.001-.003-.002-.004-.003-.005-.001-.004-.003-.005-.002-.005v-.002l-.002-.005L3.584 5.83l-.316 2.91a.385.385 0 1 1-.767-.072l.001-.01.372-3.43v-.002a.641.641 0 0 1 .55-.564h.002l.02-.003a.66.66 0 0 1 .098-.003h.001a.633.633 0 0 1 .564.404l.952 2.424.952-2.424a.633.633 0 0 1 .565-.404h.001a.645.645 0 0 1 .118.006h.001a.638.638 0 0 1 .55.563v.003Z" fill="#fff" fill-rule="evenodd"/></svg>