<svg data-tags="netcore" xmlns="http://www.w3.org/2000/svg" viewBox="0 0 14 14"><rect width="14" height="14" fill="#eb6f00" rx="7"/><path fill="#fff" d="M9.41 4.4A2.58 2.58 0 007.2 5.69l-.03.05-.03.04c-.17.3-.46.95-.59 1.16A9.6 9.6 0 016 7.8a1.96 1.96 0 01-.66.55 1.51 1.51 0 01-1.82-.26 1.53 1.53 0 010-2.2 1.52 1.52 0 011.83-.26 1.74 1.74 0 01.32.24 2.71 2.71 0 01.3.32l.2.31.58-.97-.1-.13a2.35 2.35 0 00-.8-.68 2.56 2.56 0 00-3.08.45 2.56 2.56 0 000 3.65 2.51 2.51 0 001.84.76 2.65 2.65 0 001.24-.31 3.34 3.34 0 00.52-.37 4.6 4.6 0 00.69-.87 2.82 2.82 0 00.17.32 2.58 2.58 0 00.4.5v-.01a2.59 2.59 0 101.8-4.44m0 4.14A1.55 1.55 0 1110.95 7 1.55 1.55 0 019.4 8.55"/></svg>