<svg data-tags="newscred" xmlns="http://www.w3.org/2000/svg" viewBox="0 0 14 14"><path fill="#fff" d="M0 0h14v14H0z"/><path d="M8.513 11.44c-.118.035-.15-.076-.206-.13q-1.413-1.392-2.82-2.79a.1.1 0 0 0-.01-.045l.009-5.922c.11.005.15.103.212.165q1.4 1.38 2.795 2.766l.026.13Z" fill="#312d29"/><path d="m8.52 5.614-.027-.13 2.958-2.927a.352.352 0 0 1 .042.246q.002 2.728 0 5.456c-.001.089.036.189-.048.265a.376.376 0 0 0-.142-.205l-2.58-2.565c-.058-.058-.108-.133-.204-.14Z" fill="#2fd3d4"/><path d="m5.486 2.553-.008 5.922-1.33-1.303-1.637-1.607c-.028-.085.04-.123.087-.169Q3.998 4 5.402 2.603a.39.39 0 0 1 .084-.05Z" fill="#b41826"/><path d="M2.511 5.565 4.15 7.172l1.329 1.303a.1.1 0 0 1 .009.044l-2.905 2.916c-.096-.028-.081-.076-.081-.115V5.64a.551.551 0 0 1 .01-.075Z" fill="#e62133"/><path d="M8.52 5.614c.095.007.145.082.204.14l2.58 2.565a.376.376 0 0 1 .141.205c-.962.987-1.934 1.964-2.932 2.916l.006-5.826Z" fill="#3d9ca1"/></svg>