<svg data-tags="newscred" xmlns="http://www.w3.org/2000/svg" viewBox="0 0 14 14"><path d="M9.354 13.906c-.184.055-.234-.117-.32-.202q-2.2-2.165-4.388-4.34a.155.155 0 0 0-.014-.07l.013-9.21c.17.006.232.158.33.255q2.178 2.147 4.348 4.303l.04.201Z" fill="#312d29"/><path d="m9.364 4.843-.041-.201L13.924.088a.548.548 0 0 1 .064.384q.004 4.243 0 8.487c0 .138.057.293-.074.411a.585.585 0 0 0-.22-.318L9.68 5.062c-.091-.09-.168-.208-.317-.219Z" fill="#2fd3d4"/><path d="m4.645.083-.013 9.211-2.067-2.026-2.547-2.5c-.044-.132.062-.19.134-.262Q2.332 2.33 4.514.16a.607.607 0 0 1 .13-.077Z" fill="#b41826"/><path d="m.018 4.768 2.547 2.5 2.067 2.026a.155.155 0 0 1 .014.07L.128 13.898c-.15-.043-.127-.119-.127-.178Q0 9.303.002 4.885a.856.856 0 0 1 .016-.117Z" fill="#e62133"/><path d="M9.364 4.843c.149.011.226.128.317.22q2.008 1.993 4.013 3.99a.585.585 0 0 1 .22.317 173.818 173.818 0 0 1-4.56 4.536l.01-9.063Z" fill="#3d9ca1"/></svg>