<svg data-tags="brand,nextdoor" xmlns="http://www.w3.org/2000/svg" viewBox="0 0 14 14"><circle cx="7" cy="7" r="7" fill="#8ed500"/><path fill="#fff" d="M7.667 4.05a2.95 2.95 0 00-2.472 1.233c-.042.062-.114.195-.21.196-.465.003-.494-.57-.508-1.08a.143.143 0 00-.142-.136L2.99 4.256a.143.143 0 00-.142.144c.03 1.247.259 2.094 1.77 2.43a.182.182 0 01.14.18v2.798a.141.141 0 00.142.142h1.306a.142.142 0 00.142-.142V6.916a1.329 1.329 0 011.32-1.371 1.356 1.356 0 011.319 1.371v2.892a.142.142 0 00.142.142h1.306a.142.142 0 00.142-.142V6.702a2.754 2.754 0 00-2.91-2.652z"/></svg>