<svg data-tags="nextdoor" xmlns="http://www.w3.org/2000/svg" viewBox="0 0 14 14"><path fill="#9dd141" d="M0 0h14v14H0z"/><path d="M7.955 4.053a2.95 2.95 0 0 0-2.472 1.232c-.043.062-.114.195-.21.196-.465.003-.494-.569-.509-1.079a.143.143 0 0 0-.141-.137l-1.345-.007a.143.143 0 0 0-.143.142v.003c.03 1.247.26 2.093 1.77 2.43a.182.182 0 0 1 .14.178v2.8a.141.141 0 0 0 .142.14h1.306a.142.142 0 0 0 .143-.141V6.918a1.329 1.329 0 0 1 1.285-1.37l.034-.001a1.356 1.356 0 0 1 1.32 1.371V9.81a.142.142 0 0 0 .142.142h1.305a.142.142 0 0 0 .143-.142V6.704A2.754 2.754 0 0 0 8.014 4.05Z" fill="#fff"/></svg>