<svg data-tags="nike" xmlns="http://www.w3.org/2000/svg" viewBox="0 0 14 14"><circle cx="7" cy="7" r="7" fill="#010101"/><g fill="#FFF"><path d="M3.702 6.3c-.03.054-.06.107-.088.161a2.824 2.824 0 00-.267.702c-.03.137-.047.275-.04.415a.933.933 0 00.377.738.9.9 0 00.37.16c.175.038.351.04.529.029.27-.018.53-.081.79-.15l2.749-.722.422-.11a.045.045 0 00.024-.015h-.94L7.53 6.415l-.01-.002-.384 1.099H6.52l1.01-2.793h.614c-.044.13-.093.255-.138.382-.046.127-.093.254-.134.384l.029-.032c.2-.236.4-.472.598-.708a.07.07 0 01.06-.029c.197.002.393.001.588.002l.038.001-.022.03-1.058 1.292a.102.102 0 00-.025.085c.016.135.028.27.042.405l.05.483.04.393.002.024.008.001.98-2.714h1.31l-.176.494h-.69l-.223.602h.586l-.177.496h-.593c-.076.221-.15.44-.228.663.044.003.084.001.123.002h.609l-.086.246.005.004.003.002.015-.003 3.462-.908.012.003-.042.019-1.303.546-4.743 1.988-2.003.84c-.3.125-.607.232-.924.308-.24.056-.48.094-.727.092A1.504 1.504 0 012.813 10a1.057 1.057 0 01-.603-.646c-.05-.147-.063-.3-.054-.454.019-.307.113-.593.241-.87.136-.29.313-.557.507-.813.198-.26.414-.504.634-.746l.16-.176.004.005z"/><path d="M5.324 7.513h-.632V6.267l-.009-.001-.45 1.254-.605-.006 1.011-2.793h.664l.003.003.002.003v.004l.001.01.001 1.086.001.004h.006l.006-.01.401-1.096.004-.005h.595c.002.002.003.003.003.005l.002.003-.003.015-1 2.77zm1.92-2.793L6.236 7.514h-.62l1.01-2.794h.618z"/></g></svg>
