<svg data-tags="nike" xmlns="http://www.w3.org/2000/svg" viewBox="0 0 14 14"><path d="M1.971 5.012c-.037.068-.076.136-.112.205-.15.284-.27.58-.34.893a2.04 2.04 0 00-.052.528c.018.386.169.705.48.94.141.107.301.167.472.204.222.048.447.051.673.036a5.356 5.356 0 001.005-.19l3.499-.919.537-.142a.057.057 0 00.03-.017H6.968l-.125-1.392-.011-.002-.49 1.398h-.783L6.843 3h.78c-.055.165-.117.325-.175.486-.058.161-.118.323-.17.489l.037-.041.761-.901a.09.09 0 01.077-.036l.748.001L8.95 3l-.028.04-1.346 1.643a.13.13 0 00-.032.108c.02.171.035.343.053.515l.063.615.05.5.004.03.01.002L8.972 3h1.666l-.223.628h-.878l-.284.767h.744l-.225.631h-.755c-.096.281-.191.559-.29.844.057.004.107.002.157.002h.775l-.11.314.007.005c.001 0 .003.002.004.001a.063.063 0 00.019-.003l4.406-1.155.015.003c-.023.01-.038.018-.054.024l-1.657.695-6.036 2.53-2.55 1.07a7.758 7.758 0 01-1.176.391c-.304.072-.612.12-.925.118a1.915 1.915 0 01-.763-.143A1.345 1.345 0 01.071 8.9a1.483 1.483 0 01-.067-.578c.023-.39.142-.754.306-1.106.173-.371.398-.71.645-1.035.253-.331.528-.643.807-.95l.203-.224.006.006z"/><path d="M4.035 6.556H3.23V4.971l-.01-.002-.574 1.596-.77-.007 1.288-3.556h.844l.004.004a.016.016 0 01.002.004l.001.005.001.014.001 1.381.002.005h.007c.003-.005.006-.009.007-.013l.512-1.395.004-.006h.758l.004.006c0 .001.002.003.001.004a.058.058 0 01-.003.019L4.035 6.556zM6.48 3.002c-.43 1.187-.856 2.37-1.284 3.555h-.788L5.69 3.002h.788z"/></svg>