<svg data-tags="nrc" xmlns="http://www.w3.org/2000/svg" viewBox="0 0 14 14"><path d="M1.5 9.5v4.4H.4V6.8h1.1l.1.1c.4 1.1.8 2.2 1.2 3.2.1.2.2.5.3.7v-4h1.1v7.1h-.7c-.4 0-.4 0-.5-.4-.4-1.2-.9-2.5-1.4-3.8 0-.1 0-.1-.1-.2.1 0 0 0 0 0zm7.6 4.2c-.3-.9-.6-1.9-.9-2.8 0-.1 0-.2.1-.3.2-.1.3-.2.4-.4.1-.2.2-.5.2-.9 0-.5 0-1.1-.2-1.5-.2-.6-.8-.9-1.4-.9H5.2v7h1.2V11h.4c.2 0 .2.1.2.1.3.9.5 1.7.8 2.6 0 .1 0 .2.1.2h1.2v-.2zM7.3 7.9c.2.1.3.2.4.4.1.4.1.7 0 1.1-.1.4-.3.5-.7.6-.5 0-.5 0-.5-.4V7.9c.3-.1.5-.1.8 0zm6.3.5c-.1-.5-.3-1-.7-1.3-.5-.3-1-.4-1.5-.3-.9.1-1.5.8-1.5 1.6v4c0 .6.3 1.1.9 1.4.3.2.7.2 1.2.2.9-.1 1.4-.6 1.6-1.4.1-.4 0-.7 0-1.1l-.1-.1h-1c-.1 0-.2 0-.1.1v.8c0 .2-.1.4-.3.5-.5.2-.9 0-1-.5v-4c.1-.3.2-.5.5-.5s.6.1.7.5v.9h1.2c.1-.3.1-.6.1-.8zM1.8.5C1.3 1.1.9 1.7.7 2.4c-.2.5-.2.9.1 1.3.4.5.9.6 1.5.6.6-.1 1.1-.2 1.6-.5 3-1.3 5.9-2.5 8.9-3.8.1 0 .1 0 .2-.1h-.1c-2.8.7-5.5 1.5-8.3 2.2-.5.2-1 .4-1.6.4-.8 0-1.2-.6-1.1-1.4.1-.4.2-.7.3-1.1-.1.2-.3.4-.4.5zm11.1 2.1h-.8v-.8c0-.1 0-.1-.1-.1h-.3c-.1 0-.1 0-.1.1v.8h-.8c-.1 0-.1 0-.1.1V3c0 .1 0 .1.1.1h.8v.8c0 .1 0 .1.1.1h.3c.1 0 .1 0 .1-.1v-.8h.8c.1 0 .1 0 .1-.1v-.3s0-.1-.1-.1z"/></svg>