<svg data-tags="nrc" xmlns="http://www.w3.org/2000/svg" viewBox="0 0 14 14"><path d="M11.373 14H2.627A2.627 2.627 0 010 11.373V2.627A2.627 2.627 0 012.627 0h8.746A2.627 2.627 0 0114 2.627v8.746A2.627 2.627 0 0111.373 14z"/><path d="M3.354 8.687v2.904h-.742V6.887c.243 0 .488-.002.733.004.022 0 .05.05.063.082.27.708.539 1.416.807 2.125l.18.467.027-.005V6.893h.737v4.705h-.453c-.259 0-.259 0-.347-.244l-.93-2.559c-.014-.038-.031-.075-.047-.113l-.028.005zm5.033 2.784c-.209-.627-.416-1.255-.628-1.881-.029-.085-.026-.129.061-.183a1.02 1.02 0 00.268-.248c.133-.176.188-.387.208-.604.032-.351.027-.702-.12-1.032-.186-.419-.553-.58-.974-.611-.437-.032-.877-.019-1.316-.025-.014 0-.027.01-.037.012v4.691h.822v-.145l.001-1.652c0-.037.003-.105.015-.107a1.13 1.13 0 01.272-.027c.024 0 .052.066.064.106.178.576.353 1.154.53 1.73.015.049.016.106.096.105.254-.003.508-.001.779-.001l-.041-.128zM7.17 7.601c.144.076.227.15.263.294.062.238.064.48.012.72-.053.242-.17.34-.427.382-.328 0-.348-.001-.348-.286V7.528c.2-.009.358-.004.5.072zm4.209.332c-.035-.354-.169-.664-.465-.88-.304-.224-.651-.253-1.013-.217-.584.058-1.022.501-1.03 1.085-.012.882-.013 1.764.002 2.646.007.42.201.753.587.953.27.14.56.163.855.14.573-.046.953-.378 1.048-.945.039-.237.02-.483.02-.725 0-.022-.06-.062-.092-.063-.212-.006-.424-.001-.635-.004-.074-.002-.102.02-.1.098a8.19 8.19 0 01-.002.543c-.007.15-.042.293-.196.366-.306.144-.602-.011-.653-.343a1.054 1.054 0 01-.009-.16V8.07c0-.07.005-.14.017-.207.041-.233.146-.328.367-.34.226-.01.388.095.444.302.023.085.028.175.032.263.005.117 0 .236 0 .36h.826c0-.178.013-.348-.003-.515zM3.518 2.696c-.315.377-.606.769-.739 1.253-.08.294-.105.587.073.857.241.365.606.432 1.006.396.38-.034.737-.155 1.085-.303 1.973-.835 3.944-1.671 5.916-2.507.036-.015.07-.033.104-.049a.06.06 0 00-.05-.008L5.408 3.797c-.35.093-.696.198-1.065.177-.512-.03-.831-.412-.735-.916.046-.242.136-.475.202-.697-.088.1-.192.215-.292.335zm7.412 1.4h-.53v-.53a.069.069 0 00-.069-.07h-.18a.069.069 0 00-.068.07v.53h-.53a.069.069 0 00-.07.069v.179a.07.07 0 00.07.069h.53v.53c0 .038.03.07.069.07h.179a.07.07 0 00.069-.07v-.53h.53a.07.07 0 00.07-.069v-.18a.069.069 0 00-.07-.068z" fill="#D5FF45"/></svg>