<svg data-tags="nrc" xmlns="http://www.w3.org/2000/svg" viewBox="0 0 14 14"><circle cx="7" cy="7" r="7"/><path d="M3.57 8.587v2.731h-.697V6.894c.228 0 .459-.002.689.003.02 0 .048.048.06.078l.759 1.998c.055.147.112.293.168.44l.026-.005V6.9h.693v4.425h-.426c-.243 0-.243 0-.327-.23-.29-.802-.582-1.604-.874-2.407-.013-.036-.03-.07-.044-.106l-.026.005zm4.734 2.619c-.196-.59-.39-1.181-.59-1.77-.027-.08-.025-.121.058-.172a.951.951 0 00.251-.233 1.08 1.08 0 00.196-.568c.03-.33.026-.66-.112-.97-.176-.395-.521-.547-.917-.576-.411-.03-.825-.018-1.238-.023-.013 0-.026.008-.035.011v4.413h.774V9.627c0-.035.004-.098.015-.1.084-.018.17-.03.256-.026.022 0 .048.062.06.1.167.542.332 1.085.498 1.628.014.045.015.1.09.098.24-.003.478-.001.733-.001-.017-.052-.027-.087-.039-.12zM7.161 7.565c.136.072.213.142.248.277.057.224.06.451.01.676-.05.228-.159.321-.401.36-.309 0-.327 0-.327-.268V7.497c.188-.009.336-.004.47.068zm3.958.313c-.033-.333-.159-.625-.437-.829-.286-.21-.613-.237-.954-.203-.548.054-.96.471-.968 1.02-.011.83-.013 1.66.002 2.489a.974.974 0 00.552.897c.253.131.527.153.804.13.54-.042.897-.354.986-.888.037-.222.02-.454.02-.682 0-.02-.057-.058-.088-.059-.199-.005-.398 0-.597-.004-.07 0-.096.02-.094.093.004.17.005.34-.002.51-.006.142-.04.276-.185.345-.287.135-.565-.01-.614-.322a.992.992 0 01-.008-.152V8.006c0-.065.005-.13.016-.194.039-.22.138-.309.345-.32.213-.01.365.089.418.284.022.08.026.164.03.247.004.11 0 .222 0 .338h.777c0-.167.013-.326-.003-.483zM3.724 2.952c-.296.354-.57.723-.694 1.178-.076.277-.1.552.068.806.227.343.57.406.947.373.357-.032.693-.146 1.02-.285 1.856-.785 3.71-1.572 5.565-2.359.033-.014.066-.03.098-.046a.056.056 0 00-.047-.007L5.502 3.987c-.328.088-.654.187-1.001.166-.482-.028-.782-.387-.692-.861.043-.228.128-.447.19-.656-.082.094-.18.203-.275.316zm6.973 1.316h-.499V3.77a.065.065 0 00-.065-.064h-.168a.065.065 0 00-.065.064v.5h-.5a.065.065 0 00-.065.064v.169c0 .035.03.064.065.064h.5v.5c0 .035.029.064.065.064h.168a.065.065 0 00.065-.065v-.499h.5a.065.065 0 00.064-.064v-.169a.065.065 0 00-.065-.065z" fill="#D5FF45"/></svg>