<svg data-tags="ntc" xmlns="http://www.w3.org/2000/svg" viewBox="0 0 14 14"><path d="M1.8 9.4v4.3c0 .2 0 .2-.2.2H.8c-.1 0-.2 0-.2-.2V6.8c0-.2 0-.2.2-.2h.8c.1 0 .2 0 .2.2.5 1.2 1 2.4 1.4 3.7 0 .1.1.2.1.2V6.8c0-.1 0-.2.2-.2h.9c.1 0 .2 0 .2.2v7c0 .1 0 .2-.2.2h-.8c-.1 0-.2 0-.2-.2-.5-1.4-1-2.7-1.5-4.1-.1-.1-.1-.2-.1-.3zm7.7.9v2c0 .7.3 1.2.9 1.6.5.2 1 .3 1.5.2.8-.1 1.3-.7 1.4-1.5v-1.1c0-.1-.1-.1-.1-.1h-1c-.2 0-.2 0-.2.2v.9c0 .2-.1.4-.3.5-.5.2-.9 0-1-.6V8.6c0-.2 0-.3.1-.5 0-.2.2-.3.4-.3.5-.1.8.2.8.6V9c0 .1 0 .1.1.1h1c.1 0 .1 0 .1-.1v-.8c-.1-.7-.4-1.2-1-1.5-.4-.2-.9-.2-1.3-.1-.9.1-1.5.7-1.5 1.6.1.7.1 1.4.1 2.1zM12.8 0c-.1 0-.2.1-.3.1L4.4 2.2c-.4.1-.9.3-1.3.2-.7 0-1.1-.5-1.1-1.1 0-.4.1-.8.3-1.1 0 0 0-.1.1-.1-.2.1-.4.3-.6.5-.4.6-.8 1.2-1 1.9-.1.5-.1 1 .4 1.4.4.3.8.4 1.2.3.7-.1 1.3-.3 1.9-.6 2.6-1 5.2-2.1 7.7-3.2.3-.1.6-.3.8-.4zM6.5 7.9v5.8c0 .1 0 .2.2.2h.8c.2 0 .2 0 .2-.2v-6h1.1c.1 0 .1 0 .1-.1v-.7c0-.2 0-.2-.2-.2H5.3v.7c0 .3 0 .3.3.3h.9v.2zm6.4-5.3h-.8v-.8c0-.1 0-.1-.1-.1h-.3c-.1 0-.1 0-.1.1v.8h-.8c-.1 0-.1 0-.1.1V3c0 .1 0 .1.1.1h.8v.8c0 .1 0 .1.1.1h.3c.1 0 .1 0 .1-.1v-.8h.8c.1 0 .1 0 .1-.1v-.3s0-.1-.1-.1z"/></svg>