<svg data-tags="ntc" xmlns="http://www.w3.org/2000/svg" viewBox="0 0 14 14"><path fill="#D5FF45" d="M11.373 14H2.627A2.627 2.627 0 010 11.373V2.627A2.627 2.627 0 012.627 0h8.746A2.627 2.627 0 0114 2.627v8.746A2.627 2.627 0 0111.373 14z"/><path d="M3.502 8.632v2.826c0 .142 0 .142-.14.142-.182 0-.365-.003-.548.001-.079.002-.109-.023-.106-.104.004-.168 0-.337 0-.505l.001-4.098c0-.14 0-.14.141-.141.187 0 .373.005.56-.003.087-.003.124.031.154.11.308.818.62 1.634.93 2.451a.612.612 0 00.081.156c.002-.03.004-.059.004-.089 0-.835.002-1.67-.001-2.505 0-.096.028-.124.121-.122.19.006.38.004.57 0 .077-.002.106.022.106.104-.002 1.545-.002 3.09 0 4.635 0 .08-.019.116-.109.112a8.049 8.049 0 00-.548 0c-.081.002-.118-.025-.146-.103-.327-.903-.657-1.805-.987-2.707l-.06-.16h-.023zm5.172.543v1.248l.002.064c.022.46.208.823.633 1.035.324.161.671.172 1.02.112.519-.09.872-.45.938-.97.031-.24.017-.486.025-.73.002-.067-.038-.073-.09-.073h-.645c-.142 0-.141 0-.143.14-.002.19 0 .38-.01.57-.007.136-.052.263-.19.324-.338.148-.629-.025-.66-.388a1.386 1.386 0 01-.005-.118c0-.803-.002-1.606.001-2.409 0-.106.016-.214.04-.318.032-.13.129-.202.26-.228.308-.062.53.102.556.42.012.142.009.286.007.429 0 .068.02.097.091.096.233-.003.466-.002.7 0 .063.001.091-.019.088-.086-.007-.168.003-.338-.02-.504-.06-.447-.268-.798-.696-.989-.281-.125-.577-.133-.875-.09-.586.086-.976.479-1.012 1.068-.028.464-.005.932-.005 1.397h-.01zm2.22-6.842l-.211.056-5.424 1.432c-.291.077-.584.146-.89.119-.427-.038-.683-.32-.674-.75.005-.265.098-.505.211-.739l.046-.094c-.144.127-.27.264-.388.407-.3.363-.576.743-.69 1.213-.085.354-.065.687.229.948.237.212.527.243.828.217.453-.04.868-.209 1.281-.384l5.15-2.172.54-.23-.008-.023zM6.647 7.6v1.86c0 .677.001 1.355-.002 2.032 0 .084.023.113.11.11a6.49 6.49 0 01.558 0c.11.006.138-.028.138-.136-.004-1.284-.003-2.567-.003-3.85V7.47c.245 0 .474-.001.703.002.07 0 .095-.024.094-.094-.004-.165-.008-.33 0-.494.006-.105-.028-.133-.132-.133-.71.005-1.419.003-2.129.004-.041 0-.083.005-.131.008v.494c0 .214 0 .214.215.214h.579v.13zm4.283-3.504h-.53v-.53a.069.069 0 00-.069-.07h-.18a.069.069 0 00-.068.07v.53h-.53a.069.069 0 00-.07.069v.179a.07.07 0 00.07.069h.53v.53c0 .038.03.07.069.07h.179a.07.07 0 00.069-.07v-.53h.53a.07.07 0 00.07-.069v-.18a.069.069 0 00-.07-.068z"/></svg>