<svg data-tags="ntc" xmlns="http://www.w3.org/2000/svg" viewBox="0 0 14 14"><circle fill="#D5FF45" cx="7" cy="7" r="7"/><path d="M3.71 8.536v2.658c0 .133 0 .133-.132.133-.171 0-.344-.003-.515.001-.075.002-.103-.022-.1-.098.004-.158 0-.317 0-.475V6.9c0-.132.002-.132.133-.133l.526-.002c.083-.003.118.03.146.103.29.77.583 1.538.876 2.306.018.05.039.099.075.147a1.18 1.18 0 00.004-.084c0-.785.002-1.571-.002-2.357 0-.09.027-.117.115-.114.178.005.357.003.536 0 .072-.002.1.02.1.097a1845.24 1845.24 0 000 4.36c0 .076-.018.11-.103.106a7.571 7.571 0 00-.515 0c-.077.002-.112-.024-.138-.097-.307-.85-.618-1.698-.928-2.546l-.057-.15H3.71zm4.865.51v1.173c0 .02 0 .04.002.061.02.433.195.774.595.973.305.152.631.162.959.106.488-.085.82-.423.883-.912.029-.226.016-.458.023-.687.002-.063-.035-.069-.085-.068h-.606c-.134 0-.133 0-.134.13-.002.179 0 .358-.01.536-.007.129-.049.248-.18.306-.316.139-.59-.023-.62-.365a1.304 1.304 0 01-.005-.111c0-.756-.001-1.51.002-2.266 0-.1.015-.202.038-.299.03-.123.12-.19.243-.215.29-.058.5.096.524.394.01.135.008.27.007.405-.001.063.018.091.085.09.22-.002.439-.002.658 0 .06.001.086-.018.083-.08-.007-.159.003-.319-.018-.475-.057-.42-.253-.75-.655-.93-.265-.118-.543-.126-.824-.085-.55.081-.917.45-.951 1.005-.027.437-.005.876-.005 1.314h-.01zm2.088-6.436l-.199.053L5.363 4.01c-.275.072-.55.137-.838.111-.402-.035-.642-.3-.634-.705.005-.25.092-.475.199-.695l.043-.089c-.136.12-.254.249-.365.383-.283.342-.542.7-.649 1.141-.08.334-.06.646.215.893.224.199.496.228.78.203.425-.037.815-.196 1.204-.36l4.844-2.044c.17-.071.339-.145.508-.217l-.007-.021zM6.668 7.564v1.75c0 .637.001 1.274-.002 1.912 0 .079.022.105.103.103a6.19 6.19 0 01.526 0c.104.006.13-.026.129-.129-.004-1.206-.002-2.413-.002-3.62v-.138c.23 0 .445-.002.66 0 .066.001.09-.021.089-.087a6.554 6.554 0 010-.465c.005-.099-.026-.125-.124-.125-.667.004-1.335.003-2.002.003-.04 0-.078.005-.124.008v.464c0 .202 0 .202.203.202h.544v.122zm4.029-3.296h-.499V3.77a.065.065 0 00-.065-.064h-.168a.065.065 0 00-.065.064v.5h-.5a.065.065 0 00-.065.064v.169c0 .035.03.064.065.064h.5v.5c0 .035.029.064.065.064h.168a.065.065 0 00.065-.065v-.499h.5a.065.065 0 00.064-.064v-.169a.065.065 0 00-.065-.065z"/></svg>