<svg data-tags="oracle,responsys" xmlns="http://www.w3.org/2000/svg" viewBox="0 0 14 14"><path d="M4.221 8.073V5.97h.447l.012.194a.31.31 0 0 0 .05-.036.663.663 0 0 1 1.051.15.967.967 0 0 1-.008 1.005.695.695 0 0 1-1.105.112v.678Zm1.225-1.287a.412.412 0 0 0-.354-.45.395.395 0 0 0-.423.39.434.434 0 0 0 .346.515.426.426 0 0 0 .43-.455ZM11.342 8.073l-.262-.099.154-.334a.617.617 0 0 0 .163.047.248.248 0 0 0 .156-.049c.024-.021.019-.093.003-.134-.176-.467-.357-.932-.536-1.398l-.05-.143c.151 0 .291-.005.43.004.028.001.064.048.076.082.099.287.193.576.289.865.011.035.026.07.051.135l.352-1.082h.47l-.214.576-.403 1.086a.654.654 0 0 1-.397.444ZM6.91 5.934a.83.83 0 0 1 .86.856.854.854 0 0 1-.88.834.833.833 0 0 1-.864-.853.844.844 0 0 1 .884-.837Zm-.03.4a.41.41 0 0 0-.417.44.43.43 0 0 0 .42.456.449.449 0 0 0-.003-.896ZM2.49 7.316a.779.779 0 0 1-.555.303.811.811 0 0 1-.926-.672.84.84 0 0 1 .596-.994.77.77 0 0 1 .968.771c.014.218.014.218-.203.218h-.913a.307.307 0 0 0 .186.267.516.516 0 0 0 .589-.122Zm-1.035-.679h.67a.332.332 0 0 0-.326-.336c-.181-.004-.305.114-.344.336ZM8.343 7.575h-.452V5.971h.446l.014.198c.042-.04.072-.07.102-.097a.543.543 0 0 1 .582-.1.452.452 0 0 1 .309.431c.012.39.004.779.004 1.173h-.45v-.22c0-.234.002-.469-.002-.703-.004-.19-.099-.294-.26-.297-.175-.004-.277.087-.287.283-.01.21-.005.422-.006.633v.303ZM9.479 7.3l.262-.225a2.46 2.46 0 0 0 .381.181.587.587 0 0 0 .285-.019.152.152 0 0 0 .088-.117.156.156 0 0 0-.097-.106c-.126-.04-.26-.056-.387-.092-.303-.086-.431-.226-.426-.452a.528.528 0 0 1 .467-.497 1.11 1.11 0 0 1 .893.212c-.078.074-.149.148-.229.209a.157.157 0 0 1-.116.006c-.126-.032-.249-.082-.376-.104a.133.133 0 0 0-.17.105c-.01.096.083.101.148.118.14.037.284.057.42.102a.438.438 0 0 1 .353.403.49.49 0 0 1-.29.482A1.049 1.049 0 0 1 9.48 7.3ZM2.852 7.076a2.32 2.32 0 0 0 .386.18.636.636 0 0 0 .295-.025.14.14 0 0 0 .076-.113.146.146 0 0 0-.09-.101c-.13-.04-.267-.058-.398-.095-.306-.087-.437-.236-.422-.467a.55.55 0 0 1 .503-.49 1.138 1.138 0 0 1 .855.222l-.265.247a1.748 1.748 0 0 0-.296-.124.681.681 0 0 0-.263.011c-.028.005-.062.061-.064.095-.002.026.04.07.07.08.104.03.213.046.319.074a1.514 1.514 0 0 1 .276.094.444.444 0 0 1 .104.74.916.916 0 0 1-.804.188.93.93 0 0 1-.545-.288ZM12.485 7.313l.294-.254c.051.039.098.078.15.112a.54.54 0 0 0 .446.088c.076-.02.16-.052.144-.138-.01-.049-.087-.102-.145-.12-.144-.047-.297-.068-.442-.111a.4.4 0 0 1-.32-.362.469.469 0 0 1 .244-.471.862.862 0 0 1 .682-.07 3.88 3.88 0 0 1 .449.178l-.288.269a2.037 2.037 0 0 0-.297-.125.571.571 0 0 0-.241.005.13.13 0 0 0-.083.093c-.001.031.046.08.082.092.1.032.206.045.308.072a1.484 1.484 0 0 1 .255.083.45.45 0 0 1 .086.784 1.043 1.043 0 0 1-1.09.04c-.076-.044-.146-.102-.234-.165ZM0 5.96h.456v.27c.203-.262.296-.317.502-.3v.466a.281.281 0 0 1-.043.01.456.456 0 0 0-.454.47c-.007.113-.004.226-.004.34v.346H0Z"/></svg>