<svg data-tags="oracle,eloqua" xmlns="http://www.w3.org/2000/svg" viewBox="0 0 14 14"><path d="M4.634 5.608a1.27 1.27 0 0 1 1.269 1.245.747.747 0 0 0 1.493 0h.521a1.269 1.269 0 0 1-2.537 0 .747.747 0 0 0-1.492 0h-.523a1.27 1.27 0 0 1 1.27-1.245Z" fill="#a2a5a7" fill-rule="evenodd"/><path d="M10.05 5.605v1.26a.747.747 0 0 1-1.493.003V5.6h-.522v1.264a1.269 1.269 0 0 0 2.536.003V5.605ZM2.662 4.403v3.689h.523V4.403h-.523zM13.204 8.097V6.848a1.27 1.27 0 0 0-1.631-1.188 1.237 1.237 0 0 0-.905 1.157l-.001.036a1.237 1.237 0 0 0 2.015.96v.284ZM11.922 7.6a.748.748 0 0 1-.749-.747.761.761 0 0 1 .762-.724.735.735 0 1 1-.013 1.47ZM4.634 8.098a1.269 1.269 0 0 0 1.269-1.245.747.747 0 0 1 1.492-.008v2.752h.522v-2.75a1.269 1.269 0 0 0-2.537.006.747.747 0 0 1-1.492 0h-.523a1.27 1.27 0 0 0 1.27 1.245Z" fill="#cb2c34" fill-rule="evenodd"/><path d="M2.443 7.022H.565a.626.626 0 0 0 .218.395.682.682 0 0 0 .45.147.78.78 0 0 0 .564-.23l.492.232a1.159 1.159 0 0 1-.441.386 1.376 1.376 0 0 1-.61.125 1.204 1.204 0 0 1-.893-.345A1.175 1.175 0 0 1 0 6.866a1.216 1.216 0 0 1 .344-.886 1.153 1.153 0 0 1 .861-.352 1.195 1.195 0 0 1 .895.352 1.27 1.27 0 0 1 .345.93Zm-.584-.46a.585.585 0 0 0-.229-.317.663.663 0 0 0-.395-.122.701.701 0 0 0-.43.137.763.763 0 0 0-.214.302ZM13.62 7.83v.247h-.044V7.83h-.08v-.04h.202v.04ZM13.957 8.077v-.191l-.067.14h-.031l-.068-.14v.191h-.044v-.286h.044l.084.179.082-.18H14v.287Z" fill="#cb2c34"/></svg>