<svg data-tags="outlook,microsoft" xmlns="http://www.w3.org/2000/svg" viewBox="0 0 14 14"><rect width="14" height="14" fill="#fff" rx="7"/><path fill="#0364b8" d="M10.507 3.102H5.72a.39.39 0 00-.39.391v.444l2.697.836 2.87-.836v-.444a.39.39 0 00-.39-.39z"/><path fill="#0a2767" d="M11.357 7.391A3.156 3.156 0 0011.455 7a.185.185 0 00-.093-.16l-.004-.003-3.018-1.72a.418.418 0 00-.452 0L4.87 6.838l-.003.003a.185.185 0 00-.093.16 3.158 3.158 0 00.097.391l3.2 2.34z"/><path fill="#28a8ea" d="M9.227 3.937H7.278l-.562.836.562.835 1.95 1.67h1.67v-1.67z"/><path fill="#0078d4" d="M5.33 3.937h1.948v1.67H5.33z"/><path fill="#50d9ff" d="M9.227 3.937h1.67v1.67h-1.67z"/><path fill="#0364b8" d="M9.227 7.278l-1.949-1.67H5.33v1.67l1.948 1.67 3.016.493z"/><path fill="#0078d4" d="M7.278 5.608h1.95v1.67h-1.95z"/><path fill="#064a8c" d="M5.33 7.278h1.948v1.67H5.33z"/><path fill="#0078d4" d="M9.227 7.278h1.67v1.67h-1.67z"/><path fill="#0a2767" d="M8.167 9.566L4.883 7.172l.138-.242 3.037 1.73a.147.147 0 00.117-.004l3.044-1.735.138.242z" opacity=".5" /><path fill="#1490df" d="M11.362 7.16l-.004.003-3.018 1.72a.417.417 0 01-.407.025l1.051 1.409 2.298.5v.001a.417.417 0 00.173-.338V7a.185.185 0 01-.093.16z"/><path d="M11.455 10.48v-.205L8.675 8.69l-.335.191a.417.417 0 01-.407.026l1.051 1.409 2.298.5v.001a.417.417 0 00.173-.338z" opacity=".05" /><path d="M11.44 10.587L8.395 8.85l-.054.031a.417.417 0 01-.407.026l1.051 1.409 2.298.5v.001a.418.418 0 00.159-.23z" opacity=".1" /><path fill="#28a8ea" d="M4.87 7.164v-.003h-.003l-.008-.005A.181.181 0 014.773 7v3.48a.417.417 0 00.416.418h5.848a.419.419 0 00.103-.014.178.178 0 00.05-.017.04.04 0 00.017-.005.292.292 0 00.064-.037c.005-.002.008-.002.011-.008z"/><path d="M7.557 9.413V4.865a.372.372 0 00-.371-.37H5.338V6.57l-.468.267-.004.002A.185.185 0 004.773 7v2.784h2.413a.372.372 0 00.37-.371z" opacity=".1" /><path d="M7.278 9.691V5.144a.372.372 0 00-.37-.371h-1.57V6.57l-.468.267-.004.002A.185.185 0 004.773 7v3.063h2.134a.372.372 0 00.371-.372z" opacity=".2" /><path d="M7.278 9.135V5.144a.372.372 0 00-.37-.371h-1.57V6.57l-.468.267-.004.002A.185.185 0 004.773 7v2.506h2.134a.372.372 0 00.371-.371z" opacity=".2" /><path d="M7 9.135V5.144a.372.372 0 00-.371-.371H5.338V6.57l-.468.267-.004.002A.185.185 0 004.773 7v2.506h1.856A.372.372 0 007 9.135z" opacity=".2" /><path fill="#0078d4" d="M2.917 4.773h3.712a.371.371 0 01.371.37v3.713a.371.371 0 01-.371.371H2.917a.371.371 0 01-.372-.37V5.143a.371.371 0 01.372-.371z"/><path fill="#fff" d="M3.622 6.295a1.164 1.164 0 01.457-.505 1.382 1.382 0 01.727-.182 1.285 1.285 0 01.672.173 1.153 1.153 0 01.445.482 1.558 1.558 0 01.155.71 1.643 1.643 0 01-.16.742 1.18 1.18 0 01-.458.5 1.336 1.336 0 01-.698.177 1.317 1.317 0 01-.687-.174 1.17 1.17 0 01-.45-.484 1.52 1.52 0 01-.158-.701 1.686 1.686 0 01.155-.738zm.487 1.186a.756.756 0 00.257.332.671.671 0 00.402.121.705.705 0 00.429-.125.725.725 0 00.25-.333 1.288 1.288 0 00.08-.464 1.41 1.41 0 00-.076-.47.743.743 0 00-.24-.344.665.665 0 00-.426-.132.694.694 0 00-.411.122.763.763 0 00-.263.335 1.33 1.33 0 00-.002.958z"/><path fill="none" d="M2.545 2.545h8.91v8.91h-8.91z"/></svg>