<svg data-tags="outlook,microsoft" xmlns="http://www.w3.org/2000/svg" viewBox="0 0 14 14"><path fill="#fff" d="M.003 0h14v14h-14z"/><path fill="#0364b8" d="M10.51 3.102H5.724a.39.39 0 00-.391.391v.444l2.698.836 2.87-.836v-.444a.39.39 0 00-.39-.39z"/><path fill="#0a2767" d="M11.36 7.391A3.156 3.156 0 0011.458 7a.185.185 0 00-.093-.16l-.003-.003h-.002l-3.017-1.72a.418.418 0 00-.452 0l-3.018 1.72-.004.003a.185.185 0 00-.093.16 3.158 3.158 0 00.097.391l3.2 2.34z"/><path fill="#28a8ea" d="M9.23 3.937H7.283l-.563.836.563.835 1.949 1.67h1.67v-1.67z"/><path fill="#0078d4" d="M5.333 3.937h1.949v1.67h-1.95z"/><path fill="#50d9ff" d="M9.23 3.937h1.671v1.67h-1.67z"/><path fill="#0364b8" d="M9.23 7.278l-1.948-1.67h-1.95v1.67l1.95 1.67 3.015.493z"/><path fill="#0078d4" d="M7.282 5.608H9.23v1.67H7.28z"/><path fill="#064a8c" d="M5.333 7.278h1.949v1.67h-1.95z"/><path fill="#0078d4" d="M9.23 7.278h1.671v1.67h-1.67z"/><path fill="#0a2767" d="M8.17 9.566L4.886 7.172l.138-.242 3.038 1.73a.147.147 0 00.116-.004l3.044-1.735.138.242z" opacity=".5" /><path fill="#1490df" d="M11.365 7.16l-.004.003-3.018 1.72a.417.417 0 01-.406.025l1.05 1.409 2.298.5v.001a.417.417 0 00.173-.338V7a.185.185 0 01-.093.16z"/><path d="M11.458 10.48v-.205L8.678 8.69l-.335.191a.417.417 0 01-.406.026l1.05 1.409 2.298.5v.001a.417.417 0 00.173-.338z" opacity=".05" /><path d="M11.444 10.587L8.397 8.85l-.054.031a.417.417 0 01-.406.026l1.05 1.409 2.298.5v.001a.418.418 0 00.159-.23z" opacity=".1" /><path fill="#28a8ea" d="M4.873 7.164v-.003h-.002l-.009-.005A.181.181 0 014.776 7v3.48a.417.417 0 00.416.418h5.848a.419.419 0 00.103-.014.177.177 0 00.05-.017.04.04 0 00.017-.005.291.291 0 00.064-.037c.006-.002.008-.002.011-.008z"/><path d="M7.56 9.413V4.865a.372.372 0 00-.371-.37H5.341V6.57l-.468.267h-.001l-.003.002A.185.185 0 004.776 7v2.784h2.413a.372.372 0 00.371-.371z" opacity=".1" /><path d="M7.282 9.691V5.144a.372.372 0 00-.371-.371H5.34V6.57l-.468.267h-.001l-.003.002A.185.185 0 004.776 7v3.063H6.91a.372.372 0 00.37-.372z" opacity=".2" /><path d="M7.282 9.135V5.144a.372.372 0 00-.371-.371H5.34V6.57l-.468.267h-.001l-.003.002A.185.185 0 004.776 7v2.506H6.91a.372.372 0 00.37-.371z" opacity=".2" /><path d="M7.003 9.135V5.144a.372.372 0 00-.37-.371H5.34V6.57l-.468.267h-.001l-.003.002A.185.185 0 004.776 7v2.506h1.856a.372.372 0 00.371-.371z" opacity=".2" /><path fill="#0078d4" d="M2.92 4.773h3.712a.371.371 0 01.371.37v3.713a.371.371 0 01-.37.371H2.92a.371.371 0 01-.371-.37V5.143a.371.371 0 01.37-.371z"/><path fill="#fff" d="M3.625 6.295a1.164 1.164 0 01.457-.505 1.382 1.382 0 01.727-.182 1.285 1.285 0 01.672.173 1.153 1.153 0 01.445.482 1.558 1.558 0 01.156.71 1.643 1.643 0 01-.16.742 1.18 1.18 0 01-.459.5 1.336 1.336 0 01-.697.177 1.317 1.317 0 01-.687-.174 1.17 1.17 0 01-.451-.484 1.52 1.52 0 01-.158-.701 1.686 1.686 0 01.155-.738zm.487 1.186a.756.756 0 00.257.332.671.671 0 00.402.121.705.705 0 00.43-.125.725.725 0 00.249-.333 1.288 1.288 0 00.08-.464 1.41 1.41 0 00-.076-.47.743.743 0 00-.24-.344.665.665 0 00-.426-.132.694.694 0 00-.411.122.763.763 0 00-.263.335 1.33 1.33 0 00-.002.958z"/><path fill="none" d="M2.549 2.545h8.909v8.91h-8.91z"/></svg>