<svg data-tags="outlook,microsoft" xmlns="http://www.w3.org/2000/svg" viewBox="0 0 14 14"><path fill="#0364b8" d="M12.51.875H4.99a.614.614 0 00-.615.614v.698L8.615 3.5l4.51-1.313V1.49a.614.614 0 00-.614-.614z"/><path fill="#0a2767" d="M13.847 7.615A4.961 4.961 0 0014 7a.291.291 0 00-.146-.252l-.005-.004h-.002L9.105 4.043a.658.658 0 00-.71 0l-4.742 2.7h-.002l-.005.004A.291.291 0 003.5 7a4.963 4.963 0 00.153.615l5.028 3.677z"/><path fill="#28a8ea" d="M10.5 2.188H7.437L6.553 3.5l.885 1.313L10.5 7.438h2.625V4.813z"/><path fill="#0078d4" d="M4.375 2.188h3.063v2.624H4.374z"/><path fill="#50d9ff" d="M10.5 2.188h2.625v2.624H10.5z"/><path fill="#0364b8" d="M10.5 7.438L7.437 4.813H4.376v2.625l3.063 2.625 4.739.773z"/><path fill="#0078d4" d="M7.438 4.813H10.5v2.625H7.437z"/><path fill="#064a8c" d="M4.375 7.438h3.063v2.625H4.374z"/><path fill="#0078d4" d="M10.5 7.438h2.625v2.625H10.5z"/><path fill="#0a2767" d="M8.833 11.033L3.673 7.27l.217-.38 4.773 2.718a.231.231 0 00.184-.006l4.783-2.725.217.38z" opacity=".5" /><path fill="#1490df" d="M13.854 7.252l-.006.004h-.001L9.105 9.959a.655.655 0 01-.639.04l1.652 2.214 3.61.786V13a.655.655 0 00.272-.531V7a.291.291 0 01-.146.252z"/><path d="M14 12.469v-.323L9.632 9.657l-.527.3a.655.655 0 01-.638.04l1.65 2.215 3.612.786V13a.655.655 0 00.271-.531z" opacity=".05" /><path d="M13.978 12.636L9.191 9.91l-.086.048a.655.655 0 01-.639.04l1.652 2.215 3.61.786V13a.657.657 0 00.25-.363z" opacity=".1" /><path fill="#28a8ea" d="M3.653 7.258v-.004H3.65l-.013-.009A.284.284 0 013.5 7v5.469a.655.655 0 00.654.656h9.19a.657.657 0 00.162-.022.279.279 0 00.078-.026.062.062 0 00.027-.009.459.459 0 00.1-.057c.009-.004.013-.004.018-.013z"/><path d="M7.875 10.792V3.646a.585.585 0 00-.583-.583H4.388v3.261l-.735.42h-.002l-.005.004A.291.291 0 003.5 7v4.375h3.792a.585.585 0 00.583-.583z" opacity=".1" /><path d="M7.438 11.23V4.082a.585.585 0 00-.584-.583H4.388v2.824l-.735.42h-.002l-.005.004A.291.291 0 003.5 7v4.813h3.354a.585.585 0 00.583-.584z" opacity=".2" /><path d="M7.438 10.354v-6.27a.585.585 0 00-.584-.584H4.388v2.824l-.735.42h-.002l-.005.004A.291.291 0 003.5 7v3.938h3.354a.585.585 0 00.583-.584z" opacity=".2" /><path d="M7 10.354v-6.27a.585.585 0 00-.583-.584H4.388v2.824l-.735.42h-.002l-.005.004A.291.291 0 003.5 7v3.938h2.917A.585.585 0 007 10.354z" opacity=".2" /><path fill="#0078d4" d="M.583 3.5h5.834A.583.583 0 017 4.083v5.834a.583.583 0 01-.583.583H.583A.583.583 0 010 9.917V4.083A.583.583 0 01.583 3.5z"/><path fill="#fff" d="M1.692 5.892A1.83 1.83 0 012.41 5.1a2.172 2.172 0 011.142-.287 2.02 2.02 0 011.056.272 1.811 1.811 0 01.699.758 2.449 2.449 0 01.245 1.116 2.582 2.582 0 01-.253 1.166 1.855 1.855 0 01-.72.785 2.1 2.1 0 01-1.095.278 2.069 2.069 0 01-1.08-.274 1.84 1.84 0 01-.708-.76 2.388 2.388 0 01-.248-1.101 2.65 2.65 0 01.244-1.16zm.765 1.863a1.188 1.188 0 00.404.522 1.055 1.055 0 00.632.19 1.108 1.108 0 00.674-.196 1.139 1.139 0 00.392-.523 2.024 2.024 0 00.125-.729 2.215 2.215 0 00-.118-.737 1.168 1.168 0 00-.379-.543 1.044 1.044 0 00-.668-.207 1.09 1.09 0 00-.646.192 1.2 1.2 0 00-.413.527 2.09 2.09 0 00-.003 1.505z"/><path fill="none" d="M0 0h14v14H0z"/></svg>