<svg data-tags="out-of-home advertising" xmlns="http://www.w3.org/2000/svg" viewBox="0 0 14 14"><circle fill="#40A3F5" cx="7" cy="7" r="7"/><g fill="#FFF"><path d="M11.028 3.529H2.972a.443.443 0 00-.443.443v4.656c0 .245.198.443.443.443H6.57v2.552h-.403a.845.845 0 00-.668.295.833.833 0 00-.21.553h3.43c-.01-.068-.016-.132-.03-.193a.854.854 0 00-.842-.655h-.42V9.07h3.602a.443.443 0 00.443-.443V3.972a.443.443 0 00-.443-.443zm-.196 4.54a.364.364 0 01-.364.364H3.532a.364.364 0 01-.364-.365V4.532c0-.201.163-.364.364-.364h6.936c.201 0 .364.163.364.364v3.536z"/><path d="M9.935 7.794H4.063a.259.259 0 01-.259-.259V5.08a.26.26 0 01.26-.258h.645v.138H4.56a.2.2 0 100 .401h.697a.2.2 0 100-.401H5.11v-.138h1.688v.138h-.147a.2.2 0 100 .401h.696a.2.2 0 100-.401H7.2v-.138h1.688v.138H8.74a.2.2 0 100 .401h.697a.2.2 0 100-.401H9.29v-.138h.645c.143 0 .259.116.259.258v2.455a.259.259 0 01-.259.26z"/></g></svg>