<svg data-tags="oxxo" xmlns="http://www.w3.org/2000/svg" viewBox="0 0 14 14"><path d="M0 0h14v14H0Z" fill="#e70020" fill-rule="evenodd"/><path d="M.553 9.383a1.065 1.065 0 0 0 1.061 1.069H12.38a1.065 1.065 0 0 0 1.062-1.069V4.7a1.065 1.065 0 0 0-1.062-1.07H1.614A1.065 1.065 0 0 0 .553 4.7v4.683Z" fill="#fff"/><path d="M.89 4.624a.678.678 0 0 1 .674-.68H12.44a.678.678 0 0 1 .675.68v.023H.889v-.022m12.226 4.82v.017a.678.678 0 0 1-.675.681H1.564a.678.678 0 0 1-.675-.68v-.017h12.226" fill="#fbb110"/><path d="M9.35 7.036a1.708 1.708 0 1 0 1.708-1.723A1.716 1.716 0 0 0 9.35 7.036Zm-8.142 0a1.708 1.708 0 1 0 1.708-1.723 1.716 1.716 0 0 0-1.708 1.723ZM13.115 9.12H4.694a2.163 2.163 0 0 0 .447-.453L6 7.561l.375.478.416-.56-.364-.468.873-1.124a.338.338 0 1 0-.53-.42l-.772.994-.784-1.007a.338.338 0 1 0-.53.42l.887 1.137-.96 1.236a1.751 1.751 0 0 1-1.355.872H.889V4.973h8.377a2.224 2.224 0 0 0-.427.438L7.98 6.516l-.375-.478-.416.56.364.468-.873 1.124a.338.338 0 1 0 .53.42l.772-.994.785 1.007a.338.338 0 1 0 .529-.42L8.41 7.065l.96-1.234a1.826 1.826 0 0 1 1.198-.858h2.546V9.12Zm-3.08-2.083a1.027 1.027 0 0 1 1.023-1.032 1.027 1.027 0 0 1 1.022 1.032 1.027 1.027 0 0 1-1.022 1.032 1.027 1.027 0 0 1-1.022-1.032Zm-8.141 0a1.027 1.027 0 0 1 1.022-1.032 1.032 1.032 0 1 1-1.023 1.032Z" fill="#e70020"/></svg>