<svg data-tags="brand" xmlns="http://www.w3.org/2000/svg" viewBox="0 0 14 14"><circle fill="#40A3F5" cx="7" cy="7" r="7"/><circle fill="#FFF" cx="4.63" cy="5.114" r=".867"/><circle fill="#FFF" cx="9.37" cy="5.114" r=".867"/><circle fill="#FFF" cx="7.109" cy="4.333" r="1.097"/><path fill="#FFF" d="M8.305 6.243a4.86 4.86 0 00-1.196-.182c-.4.009-.8.072-1.196.182-.27.074-.41.257-.368.549.103.725.2 1.45.318 2.173.018.115.104.26.202.313.176.096.202.225.21.399.034.639.088 1.277.118 1.916.015.319.186.456.477.483.079.008.159.003.239.002.08.001.16.006.239-.002.29-.027.461-.164.476-.483.03-.639.084-1.277.117-1.916.01-.174.035-.303.211-.399a.483.483 0 00.203-.313c.117-.723.214-1.448.317-2.173.041-.292-.098-.475-.367-.55zM5.24 9.067a79.287 79.287 0 01-.25-1.685l-.07-.501a1.19 1.19 0 01.03-.49c-.106-.012-.213-.026-.32-.029a3.86 3.86 0 00-.95.144c-.214.06-.325.205-.292.437.082.575.16 1.152.252 1.726a.384.384 0 00.16.249c.14.076.161.179.169.317.026.507.069 1.014.092 1.522.012.253.148.363.38.384.062.006.126.003.19.001.063.002.126.005.19 0 .23-.022.366-.132.378-.385.023-.5.065-1 .092-1.501a1.052 1.052 0 01-.052-.189zm5.08-2.561a3.86 3.86 0 00-.95-.144c-.037.001-.073.008-.11.01.047.156.064.326.038.509l-.07.5a81.364 81.364 0 01-.25 1.685 1.17 1.17 0 01-.248.534c.025.386.053.771.071 1.157.012.253.148.363.379.384.063.006.126.003.19.001.063.002.127.005.19 0 .23-.022.367-.132.379-.385.023-.508.066-1.015.092-1.522.008-.138.028-.24.168-.317a.384.384 0 00.16-.25c.094-.573.171-1.15.253-1.725.033-.232-.078-.377-.292-.437z"/></svg>