<svg data-tags="partnership" xmlns="http://www.w3.org/2000/svg" viewBox="0 0 14 14"><circle cx="3.248" cy="2.973" r="1.372"/><circle cx="10.751" cy="2.973" r="1.372"/><circle cx="7.173" cy="1.736" r="1.736"/><path d="M12.255 5.176a6.108 6.108 0 0 0-1.504-.228c-.058.002-.115.013-.174.016a1.858 1.858 0 0 1 .06.806l-.11.791q-.184 1.336-.396 2.667a1.853 1.853 0 0 1-.393.846c.04.61.084 1.22.113 1.831a.576.576 0 0 0 .6.608 2.366 2.366 0 0 0 .3.002 2.716 2.716 0 0 0 .301 0 .58.58 0 0 0 .6-.61c.037-.804.105-1.607.146-2.41a.51.51 0 0 1 .266-.5.608.608 0 0 0 .253-.397c.149-.907.27-1.82.4-2.73a.574.574 0 0 0-.462-.692ZM9.066 4.758v.002a7.689 7.689 0 0 0-1.893-.288 7.712 7.712 0 0 0-1.894.288.718.718 0 0 0-.582.869c.163 1.147.316 2.295.503 3.44a.756.756 0 0 0 .32.495.635.635 0 0 1 .332.631c.054 1.012.14 2.022.187 3.033a.725.725 0 0 0 .755.765 3.313 3.313 0 0 0 .379.003 3.336 3.336 0 0 0 .378-.003.724.724 0 0 0 .753-.765c.048-1.011.133-2.021.186-3.033a.64.64 0 0 1 .334-.631.765.765 0 0 0 .32-.495c.186-1.145.34-2.293.503-3.44a.722.722 0 0 0-.581-.87ZM4.214 9.23q-.212-1.331-.396-2.667l-.11-.793a1.884 1.884 0 0 1 .047-.776c-.168-.019-.337-.041-.507-.046a6.108 6.108 0 0 0-1.503.228.574.574 0 0 0-.463.692c.13.91.254 1.823.4 2.732a.608.608 0 0 0 .253.394.51.51 0 0 1 .267.502c.041.802.11 1.605.146 2.409a.577.577 0 0 0 .601.608 2.364 2.364 0 0 0 .301.001 2.716 2.716 0 0 0 .3 0 .578.578 0 0 0 .6-.609c.036-.791.102-1.583.145-2.376a1.666 1.666 0 0 1-.083-.3Z"/></svg>