<svg data-tags="paynow" xmlns="http://www.w3.org/2000/svg" viewBox="0 0 14 14"><path d="M.063 4.537v1.835h.915v-.306a5.56 5.56 0 0 1 .044-.627l.043-.32.55-.024a1.12 1.12 0 0 0 1.105-.552 1.295 1.295 0 0 0 0-1.269c-.33-.487-.442-.525-1.606-.55L.064 2.7ZM4.048 2.77c-.077.124-1.38 3.458-1.38 3.53 0 .04.192.071.447.071h.447l.11-.281.111-.282H5.12l.072.208c.07.2.06.213-.294.413a2.702 2.702 0 0 0-1.093 1.201 2.018 2.018 0 0 0-.186 1.1 1.804 1.804 0 0 0 .2 1.091 2.947 2.947 0 0 0 1.233 1.236 3.08 3.08 0 0 0 1.838.173 2.756 2.756 0 0 0 1.8-1.69 3.132 3.132 0 0 0-.036-1.778 2.86 2.86 0 0 0-.846-1.109 9.644 9.644 0 0 0-.815 1.021 12.516 12.516 0 0 1-.798 1.018 3.254 3.254 0 0 1-.392-.458 1.834 1.834 0 0 0-.431-.454c-.1 0-.45.45-.45.576A8.917 8.917 0 0 0 6.22 9.95c.055.012.27-.21.492-.51l.793-1.076.401-.542.089.208a2.132 2.132 0 0 1-.087 1.497 1.91 1.91 0 0 1-3.427-.012 2.136 2.136 0 0 1 0-1.638 2.163 2.163 0 0 1 .89-.888 2.772 2.772 0 0 1 1.526-.096c.234.053.261.04.423-.196.111-.164.228-.253.33-.254.154 0 .159-.02.159-.728v-.728l.624-1.085.624-1.085-.464-.048a1.305 1.305 0 0 0-.541.016 4.09 4.09 0 0 0-.354.661 3.747 3.747 0 0 1-.313.6 4.184 4.184 0 0 1-.352-.648l-.315-.652-.51-.02a1.7 1.7 0 0 0-.511.018c0 .022.268.52.598 1.106l.598 1.067v1.242l-.334-.042a.8.8 0 0 1-.4-.131c-.035-.049-.336-.798-.67-1.664l-.605-1.576-.397-.02a.869.869 0 0 0-.438.045Zm-2.194.871c.252.36.018.688-.489.688H1.05v-.844h.348c.28 0 .37.03.457.156Zm2.809.85.173.542h-.388c-.28 0-.378-.024-.354-.088.018-.048.103-.304.19-.568a1.917 1.917 0 0 1 .183-.455c.013.012.1.268.196.567ZM.03 8.075a30.56 30.56 0 0 0-.025 1.817l.023.668.44.022.44.02V9.508A5.717 5.717 0 0 1 .96 8.416a9.56 9.56 0 0 1 .69 1.074l.636 1.071h.98l.019-1.813.019-1.813h-.918l-.016.687c-.009.377-.017.821-.018.985a.643.643 0 0 1-.038.3 11.21 11.21 0 0 1-.637-.969l-.6-.967-.5-.02-.5-.021L.03 8.077Zm8.693-1.07c0 .11 1.278 3.473 1.36 3.576.045.06.198.084.429.07l.358-.02.204-.513c.111-.282.222-.493.246-.47a3.653 3.653 0 0 1 .222.513l.18.47.39.02.39.02.676-1.641c.372-.903.71-1.728.75-1.834L14 7.005h-1.024l-.095.265a10.822 10.822 0 0 1-.774 1.956 1.8 1.8 0 0 1-.179-.453l-.127-.423.225-.644a4.619 4.619 0 0 0 .203-.667A7.443 7.443 0 0 0 11.291 7a5.681 5.681 0 0 0-.422 1.131 9.448 9.448 0 0 1-.391 1.127 8.461 8.461 0 0 1-.379-1.073 10.794 10.794 0 0 0-.408-1.162c-.085-.106-.968-.122-.968-.017Z" fill="#9e1791" fill-rule="evenodd"/></svg>