<svg data-tags="pepsi" xmlns="http://www.w3.org/2000/svg" viewBox="0 0 14 14"><path d="M1.465 3.367a6.323 6.323 0 0 1 2.087-2.064 6.695 6.695 0 0 1 3.46-.934 8.527 8.527 0 0 1 3.333.9 6.736 6.736 0 0 1 2.491 2.594 22.199 22.199 0 0 0-3.033-.484 26.691 26.691 0 0 0-3.956.53 6.357 6.357 0 0 1-3.263-.046 4.12 4.12 0 0 1-1.119-.496Z" fill="#cc2b1e"/><path d="M12.441 10.633a6.323 6.323 0 0 1-2.087 2.064 6.695 6.695 0 0 1-3.46.934 8.527 8.527 0 0 1-3.333-.9 6.736 6.736 0 0 1-2.49-2.594 13.193 13.193 0 0 0 3.032.484c1.398-.098 2.63-.39 3.956-.53a6.596 6.596 0 0 1 3.263.046 4.12 4.12 0 0 1 1.119.496ZM0 8.631h.826v-.996h.926c.586 0 .717-.037 1.016-.297a1.063 1.063 0 0 0 .293-.874 1.173 1.173 0 0 0-.068-.385.993.993 0 0 0-.166-.364 1.045 1.045 0 0 0-.383-.272 2.344 2.344 0 0 0-.724-.104H0Zm.826-2.448h.841a1.749 1.749 0 0 1 .196.01.507.507 0 0 1 .148.039.22.22 0 0 1 .105.096.352.352 0 0 1 .037.173.36.36 0 0 1-.044.192.27.27 0 0 1-.122.106.543.543 0 0 1-.168.043 2.128 2.128 0 0 1-.213.01h-.78ZM3.286 8.631h2.892v-.843H4.315V7.33h1.45v-.737h-1.45v-.48h1.881v-.775h-2.91ZM9.62 7.525a1.035 1.035 0 0 0 .179.608 1.136 1.136 0 0 0 .434.365 1.96 1.96 0 0 0 .514.168 2.722 2.722 0 0 0 .457.044 3.074 3.074 0 0 0 .613-.06 1.81 1.81 0 0 0 .532-.194 1.063 1.063 0 0 0 .378-.352.953.953 0 0 0 .142-.528.82.82 0 0 0-.047-.379 1.124 1.124 0 0 0-.225-.349 1.31 1.31 0 0 0-.315-.178 3.208 3.208 0 0 0-.391-.124c-.06-.015-.257-.004-.412-.037a3.688 3.688 0 0 1-.765-.083.208.208 0 0 1 .002-.408 2.254 2.254 0 0 1 .478-.06 3.182 3.182 0 0 1 .364.04.501.501 0 0 1 .152.062c.1.08.2.168.187.275h.9a1.028 1.028 0 0 0-.134-.498.967.967 0 0 0-.33-.334 1.51 1.51 0 0 0-.47-.184 3.471 3.471 0 0 0-.65-.058 2.265 2.265 0 0 0-.547.065 2.208 2.208 0 0 0-.572.198.984.984 0 0 0-.323.343 1.229 1.229 0 0 0-.119.547.718.718 0 0 0 .099.385.804.804 0 0 0 .26.26 1.537 1.537 0 0 0 .335.16c.116.038.22.062.416.114l.22.036c.172.023.3.013.396.04a1.578 1.578 0 0 1 .227.081.334.334 0 0 1 .118.083.167.167 0 0 1 .036.109.247.247 0 0 1-.043.147.28.28 0 0 1-.114.092.615.615 0 0 1-.149.046c-.052.01-.244.014-.294.014a.952.952 0 0 1-.33-.053.328.328 0 0 1-.2-.186.558.558 0 0 1-.04-.217ZM13.08 8.631H14V5.34h-.92ZM6.383 8.631h.888v-.996h.926c.585 0 .717-.037 1.016-.297a1.063 1.063 0 0 0 .293-.874 1.173 1.173 0 0 0-.068-.385.993.993 0 0 0-.166-.364 1.045 1.045 0 0 0-.383-.272 2.344 2.344 0 0 0-.724-.104H6.383Zm.888-2.448h.831a1.748 1.748 0 0 1 .196.01.507.507 0 0 1 .148.039.22.22 0 0 1 .105.096.353.353 0 0 1 .037.173.36.36 0 0 1-.044.192.27.27 0 0 1-.122.106.543.543 0 0 1-.168.043 2.128 2.128 0 0 1-.213.01h-.77Z" fill="#000662"/></svg>