<svg data-tags="pepsi" xmlns="http://www.w3.org/2000/svg" viewBox="0 0 14 14"><rect width="14" height="14" rx="7" fill="#000662"/><rect x="2.681" y="2.681" width="8.638" height="8.638" rx="4.319" fill="#fff"/><path d="M3.837 4.924a3.613 3.613 0 0 1 1.193-1.18 3.826 3.826 0 0 1 1.977-.533 4.873 4.873 0 0 1 1.904.514 3.849 3.849 0 0 1 1.424 1.482 12.685 12.685 0 0 0-1.733-.276 15.253 15.253 0 0 0-2.26.303 3.633 3.633 0 0 1-1.866-.027 2.355 2.355 0 0 1-.639-.283Z" fill="#cc2b1e"/><path d="M10.11 9.076a3.613 3.613 0 0 1-1.194 1.18 3.825 3.825 0 0 1-1.977.533 4.873 4.873 0 0 1-1.904-.514 3.849 3.849 0 0 1-1.423-1.482 7.539 7.539 0 0 0 1.733.276c.799-.056 1.503-.223 2.26-.303a3.77 3.77 0 0 1 1.865.027 2.355 2.355 0 0 1 .64.283ZM3 7.932h.472v-.569h.53c.334 0 .409-.021.58-.17a.607.607 0 0 0 .167-.5.67.67 0 0 0-.039-.22.567.567 0 0 0-.095-.207.597.597 0 0 0-.219-.156 1.339 1.339 0 0 0-.413-.059H3Zm.472-1.399h.48a.999.999 0 0 1 .113.005.29.29 0 0 1 .084.023.126.126 0 0 1 .06.055.201.201 0 0 1 .021.099.206.206 0 0 1-.025.11.154.154 0 0 1-.07.06.31.31 0 0 1-.095.025q-.053.005-.122.005h-.446ZM4.878 7.932H6.53V7.45H5.465v-.261h.83v-.421h-.83v-.275h1.076v-.442H4.878ZM8.497 7.3a.591.591 0 0 0 .102.348.65.65 0 0 0 .248.208 1.12 1.12 0 0 0 .294.096 1.555 1.555 0 0 0 .261.025 1.757 1.757 0 0 0 .35-.034 1.034 1.034 0 0 0 .305-.11.607.607 0 0 0 .216-.202.545.545 0 0 0 .08-.302.468.468 0 0 0-.026-.216.642.642 0 0 0-.129-.2.749.749 0 0 0-.18-.101 1.835 1.835 0 0 0-.223-.071c-.035-.01-.147-.003-.235-.022a2.108 2.108 0 0 1-.438-.047.12.12 0 0 1 .002-.233 1.287 1.287 0 0 1 .272-.034 1.819 1.819 0 0 1 .209.022.287.287 0 0 1 .086.036c.057.046.115.096.107.157h.515a.588.588 0 0 0-.077-.284.553.553 0 0 0-.189-.191.863.863 0 0 0-.268-.106 1.983 1.983 0 0 0-.371-.033 1.294 1.294 0 0 0-.313.037 1.262 1.262 0 0 0-.327.113.563.563 0 0 0-.185.197.702.702 0 0 0-.068.312.41.41 0 0 0 .057.22.46.46 0 0 0 .148.15.878.878 0 0 0 .192.09c.066.022.126.035.238.065l.125.02c.099.014.172.008.227.024a.902.902 0 0 1 .13.046.19.19 0 0 1 .067.047.096.096 0 0 1 .02.062.141.141 0 0 1-.024.085.16.16 0 0 1-.065.052.352.352 0 0 1-.085.027c-.03.005-.14.008-.169.008a.544.544 0 0 1-.188-.03.187.187 0 0 1-.114-.107.319.319 0 0 1-.023-.124ZM10.475 7.932H11v-1.88h-.525ZM6.647 7.932h.508v-.569h.53c.334 0 .409-.021.58-.17a.607.607 0 0 0 .167-.5.67.67 0 0 0-.039-.22.567.567 0 0 0-.095-.207.597.597 0 0 0-.219-.156 1.339 1.339 0 0 0-.413-.059H6.647Zm.508-1.399h.475a.999.999 0 0 1 .112.005.29.29 0 0 1 .084.023.126.126 0 0 1 .06.055.201.201 0 0 1 .021.099.205.205 0 0 1-.025.11.154.154 0 0 1-.07.06.31.31 0 0 1-.096.025q-.052.005-.121.005h-.44Z" fill="#000662"/></svg>