<svg xmlns="http://www.w3.org/2000/svg" viewBox="0 0 14 14"><path d="M13 14H1c-.55 0-1-.45-1-1V1c0-.55.45-1 1-1h12c.55 0 1 .45 1 1v12c0 .55-.45 1-1 1z" fill="#de343d"/><path d="M6.384 8.433c-.271 1.214-.536 2.399-1.478 3.317-.026-.193-.054-.386-.076-.58-.091-.803.068-1.578.266-2.351.173-.679.33-1.363.487-2.047a.526.526 0 00-.021-.263c-.154-.481-.182-.962.016-1.433.157-.373.408-.662.847-.7.457-.039.795.232.793.689-.001.329-.084.661-.16.985-.088.373-.23.734-.31 1.109-.126.594.364 1.09.974 1.018a1.36 1.36 0 00.888-.472c.452-.512.65-1.132.717-1.791.038-.373.052-.761-.008-1.129-.112-.68-.516-1.184-1.172-1.418-1.09-.389-2.125-.266-2.99.538-.68.633-.917 1.448-.731 2.358.043.211.183.407.301.597.069.112.115.207.07.339-.04.115-.059.237-.092.354-.057.203-.149.246-.34.158a1.601 1.601 0 01-.866-.954c-.447-1.266-.156-2.391.755-3.344.923-.965 2.11-1.253 3.408-1.14.843.073 1.58.403 2.173 1.013.567.583.872 1.277.872 2.093 0 .95-.206 1.844-.787 2.619-.512.685-1.196 1.076-2.067 1.109-.582.023-1.073-.17-1.469-.674z" fill="#fff"/></svg>