<svg xmlns="http://www.w3.org/2000/svg" viewBox="0 0 14 14"><circle fill="#C9212B" cx="7" cy="7" r="7"/><path fill="#FFF" d="M9.239 4.068a2.644 2.644 0 0 0-1.716-.8c-1.025-.089-1.962.138-2.69.9-.72.753-.95 1.641-.597 2.64.12.34.348.6.684.754.15.069.224.035.268-.125.026-.093.041-.189.072-.28.036-.104 0-.18-.055-.267-.093-.15-.203-.305-.237-.472-.147-.718.04-1.362.577-1.86.683-.636 1.5-.733 2.36-.426.518.185.838.582.926 1.12.047.29.036.596.006.89-.053.52-.209 1.01-.566 1.414a1.07 1.07 0 0 1-.701.373c-.481.057-.869-.334-.769-.803.063-.296.175-.581.245-.876.06-.256.125-.518.126-.778.002-.36-.265-.575-.626-.544-.347.03-.545.259-.669.553-.156.372-.134.752-.013 1.131a.411.411 0 0 1 .017.208c-.124.54-.248 1.08-.385 1.616-.156.61-.281 1.222-.21 1.856.017.153.04.305.06.458.744-.724.953-1.66 1.167-2.618.313.398.7.55 1.16.532.688-.027 1.228-.336 1.633-.876.458-.612.62-1.318.62-2.068.001-.644-.24-1.192-.687-1.652z"/></svg>