<svg data-tags="pinterest,share,upload" xmlns="http://www.w3.org/2000/svg" viewBox="0 0 14 14"><path d="M13.298 7.694a.702.702 0 0 0-.701.701v4.144H1.403V8.395a.702.702 0 0 0-1.403 0v4.846a.702.702 0 0 0 .702.701h12.596a.702.702 0 0 0 .702-.701V8.395a.702.702 0 0 0-.702-.701Z" /><path d="M2.876 5.937a.717.717 0 0 0 .512-.214L6.274 2.84v6.755a.726.726 0 0 0 1.452 0V2.84l2.886 2.884a.725.725 0 1 0 1.026-1.025L8.231 1.29l.002-.001L7 .058 5.768 1.29h.001L2.363 4.699a.726.726 0 0 0 .513 1.239Z" /></svg>
