<svg data-tags="pinterest" xmlns="http://www.w3.org/2000/svg" viewBox="0 0 14 14"><circle cx="7.016" cy="7" r="7" fill="#de343d"/><path d="m8.216 9.8.4 1.1h-.2l-.1-.3h-.5l-.1.3h-.1l.4-1.1Zm.1.6-.2-.5-.2.5ZM6.516 8.1a4.202 4.202 0 0 1-1.2 2.6.902.902 0 0 0-.1-.5 5.547 5.547 0 0 1 .3-1.7c.1-.5.3-1.1.4-1.6v-.2a2.045 2.045 0 0 1 0-1.1.85.85 0 0 1 .7-.7c.4 0 .6.2.6.5s-.1.5-.1.8a9.44 9.44 0 0 1-.3.9.662.662 0 0 0 .8.8 1.012 1.012 0 0 0 .7-.4 2.513 2.513 0 0 0 .6-1.4v-.9a1.573 1.573 0 0 0-1-1.1 2.19 2.19 0 0 0-2.4.5 1.734 1.734 0 0 0-.5 1.8c0 .2.1.3.2.5a.367.367 0 0 1 .1.3.367.367 0 0 1-.1.3c0 .2-.1.2-.3.1a1.853 1.853 0 0 1-.7-.8 2.297 2.297 0 0 1 .6-2.6 3.024 3.024 0 0 1 2.7-.9 2.491 2.491 0 0 1 1.7.8 2.61 2.61 0 0 1 .7 1.7 3.697 3.697 0 0 1-.6 2.1 2.258 2.258 0 0 1-1.6.8 1.425 1.425 0 0 1-1.2-.6Z" fill="#fff"/><path d="m8.013 9.735-.397 1.169h.156l.121-.368h.415l.125.368h.16l-.398-1.169Zm.263.683h-.352l.115-.338q.033-.104.059-.211H8.1c.018.067.035.137.061.213l.115.336ZM9.465 9.673h-.153v.5H9.31a.282.282 0 0 0-.253-.127.401.401 0 0 0-.376.45.383.383 0 0 0 .358.427.31.31 0 0 0 .286-.165h.004l.007.146h.137a2.622 2.622 0 0 1-.007-.217Zm-.153.734v.145a.25.25 0 0 1-.007.066.229.229 0 0 1-.223.182c-.165 0-.248-.14-.248-.31 0-.186.093-.325.251-.325a.224.224 0 0 1 .22.177.256.256 0 0 1 .008.065ZM9.989 10.417c-.11-.042-.16-.073-.16-.143 0-.062.05-.114.14-.114a.328.328 0 0 1 .173.049l.038-.111a.424.424 0 0 0-.206-.052.259.259 0 0 0-.29.246c0 .1.07.183.222.237.112.042.156.082.156.155 0 .07-.052.125-.163.125a.397.397 0 0 1-.201-.06l-.038.115a.48.48 0 0 0 .235.058c.2 0 .314-.105.314-.252 0-.125-.075-.198-.22-.253Z" fill="#fff"/></svg>