<svg data-tags="pinterest" xmlns="http://www.w3.org/2000/svg" viewBox="0 0 14 14"><path d="M11.059 8.482a6.183 6.183 0 0 0 1.157-3.852 4.293 4.293 0 0 0-1.277-3.073A4.947 4.947 0 0 0 7.746.06a5.894 5.894 0 0 0-5.019 1.677 4.527 4.527 0 0 0-1.108 4.919 2.339 2.339 0 0 0 1.278 1.407c.279.13.409.06.499-.23.05-.18.07-.359.13-.528a.539.539 0 0 0-.1-.5 2.79 2.79 0 0 1-.44-.877 3.514 3.514 0 0 1 1.068-3.463 4.045 4.045 0 0 1 4.4-.788 2.541 2.541 0 0 1 1.727 2.085 6.135 6.135 0 0 1 .01 1.657 4.546 4.546 0 0 1-1.058 2.634 1.964 1.964 0 0 1-1.307.688 1.25 1.25 0 0 1-1.427-1.496c.12-.55.33-1.078.449-1.627a6.093 6.093 0 0 0 .24-1.447.995.995 0 0 0-1.168-1.017A1.488 1.488 0 0 0 4.673 4.18a2.971 2.971 0 0 0-.02 2.116.734.734 0 0 1 .03.389c-.23.998-.46 2.006-.719 3.003a9.67 9.67 0 0 0-.389 3.463c.03.28.07.569.11.848 1.387-1.347 1.776-3.093 2.175-4.88a2.465 2.465 0 0 0 2.165.998 3.825 3.825 0 0 0 3.034-1.636ZM9.462 12.373l-.618 1.597h.22l.179-.479h.668l.18.479h.23l-.62-1.597Zm-.16.938.27-.738h.01l.26.738ZM12.655 13.501a.428.428 0 0 0-.09-.1 1.323 1.323 0 0 0-.12-.06l-.139-.03c-.04-.01-.09-.02-.14-.03-.04-.01-.08-.03-.12-.04a.404.404 0 0 1-.09-.05.14.14 0 0 1-.03-.09.143.143 0 0 1 .02-.069.209.209 0 0 1 .06-.04c.02-.02.05-.02.08-.03h.09a.277.277 0 0 1 .09.01.114.114 0 0 1 .08.03.134.134 0 0 1 .07.06.468.468 0 0 1 .03.09h.19a.475.475 0 0 0-.05-.18.345.345 0 0 0-.1-.11 1.173 1.173 0 0 0-.15-.06.973.973 0 0 0-.18-.01.388.388 0 0 0-.15.02.457.457 0 0 0-.139.05.266.266 0 0 0-.1.11.24.24 0 0 0-.04.15.285.285 0 0 0 .05.17.45.45 0 0 0 .14.1 1.056 1.056 0 0 0 .19.049c.06.02.12.03.18.05a.298.298 0 0 1 .139.06c.04.02.05.06.05.11a.148.148 0 0 1-.02.09.18.18 0 0 1-.07.05l-.09.03h-.1a.446.446 0 0 1-.11-.01.42.42 0 0 1-.1-.04c-.03-.01-.049-.04-.069-.06a.202.202 0 0 1-.03-.11h-.19a.474.474 0 0 0 .05.18.317.317 0 0 0 .11.12.347.347 0 0 0 .15.069.815.815 0 0 0 .359 0 .44.44 0 0 0 .16-.06.233.233 0 0 0 .11-.11.31.31 0 0 0 .05-.17.265.265 0 0 0-.03-.139ZM11.288 12.972a.646.646 0 0 0-.08-.09.311.311 0 0 0-.1-.05.193.193 0 0 0-.1-.03.342.342 0 0 0-.099-.01.592.592 0 0 0-.23.05.342.342 0 0 0-.159.13.435.435 0 0 0-.1.19.586.586 0 0 0-.04.23.852.852 0 0 0 .04.229.472.472 0 0 0 .1.2.509.509 0 0 0 .16.129.604.604 0 0 0 .24.05.781.781 0 0 0 .219-.04.293.293 0 0 0 .15-.14v.15h.189v-1.597h-.19Zm-.01.589a.351.351 0 0 1-.06.14.521.521 0 0 1-.11.1.429.429 0 0 1-.169.03.413.413 0 0 1-.16-.03.523.523 0 0 1-.11-.1.351.351 0 0 1-.06-.14.389.389 0 0 1-.02-.15.914.914 0 0 1 .01-.17c.02-.05.04-.1.06-.14a.346.346 0 0 1 .11-.099.293.293 0 0 1 .16-.04.285.285 0 0 1 .17.04.272.272 0 0 1 .12.09.59.59 0 0 1 .06.14.688.688 0 0 1 0 .329Z"/></svg>