<svg data-tags="pluck" xmlns="http://www.w3.org/2000/svg" viewBox="0 0 14 14"><path fill="#d44c33" d="M0 0h14v14H0z"/><circle cx="6.968" cy="5.971" r="1.117" fill="#fff"/><circle cx="9.948" cy="6.39" r="1.117" fill="#fff"/><circle cx="4.046" cy="6.405" r="1.117" fill="#fff"/><path d="M11.95 8.383a.488.488 0 0 0-.34-.413.878.878 0 0 0-.314-.051L7 7.92l-4.44.002a.565.565 0 0 0-.52.481 5.525 5.525 0 0 0-.028.562.167.167 0 0 0 .169.174L7 9.143l4.841.003s.152-.039.147-.136c-.009-.21-.016-.42-.038-.627Z" fill="#fff"/></svg>