<svg data-tags="pluck" xmlns="http://www.w3.org/2000/svg" viewBox="0 0 14 14"><circle fill="#E63E24" cx="6.955" cy="5.556" r="1.567"/><circle fill="#F58236" cx="11.137" cy="6.144" r="1.567"/><circle fill="#09A6C6" cx="2.855" cy="6.165" r="1.567"/><path fill="#09A6C6" d="M7 8.292l-6.23.004c-.367.027-.686.312-.729.675A7.95 7.95 0 000 9.759c-.003.243.238.244.238.244L7 10.007V8.292z"/><path fill="#F58236" d="M13.947 8.94c-.03-.292-.22-.478-.479-.579a1.238 1.238 0 00-.44-.072L7 8.292v1.715l6.794.004s.212-.054.206-.19c-.013-.294-.024-.589-.053-.88z"/></svg>