<svg data-tags="pluck" xmlns="http://www.w3.org/2000/svg" viewBox="0 0 14 14"><circle fill="#E63E24" cx="7" cy="7" r="7"/><g fill="#FFF"><circle cx="6.968" cy="5.971" r="1.117"/><circle cx="9.948" cy="6.39" r="1.117"/><circle cx="4.046" cy="6.405" r="1.117"/><path d="M11.95 8.383c-.021-.209-.156-.341-.34-.413a.878.878 0 00-.314-.051L7 7.92l-4.44.002a.565.565 0 00-.52.481 5.526 5.526 0 00-.028.562c-.003.173.169.174.169.174L7 9.143l4.841.003s.152-.039.147-.136c-.009-.21-.016-.42-.038-.627z"/></g></svg>