<svg xmlns="http://www.w3.org/2000/svg" viewBox="0 0 14 14"><path d="M5.328 1.346a5.868 5.868 0 017.518 6.404l1.09.144a6.913 6.913 0 00-3.174-6.79l-.579.931-.127-.08.578-.928A6.948 6.948 0 005.01.292zM2.59 3.097A5.908 5.908 0 015.183 1.39L4.868.335a6.996 6.996 0 00-3.112 2.041zM12.823 7.898a5.9 5.9 0 01-5.735 4.996l.003 1.1a6.992 6.992 0 006.822-5.952zM6.938 12.896a5.891 5.891 0 01-4.45-9.688l-.833-.72A6.993 6.993 0 006.94 13.995z"/><path d="M4.76 7.125c0-1.076.004-2.152-.003-3.229a.597.597 0 01.587-.586c.727.009 1.455-.003 2.183.005a2.267 2.267 0 011.598.605 1.972 1.972 0 01.59 1.113 2.297 2.297 0 01-.156 1.392 2.018 2.018 0 01-1.354 1.127 2.73 2.73 0 01-.74.097q-.77.003-1.538 0c-.06-.001-.08.01-.08.077.002.884 0 1.769.003 2.653 0 .063-.016.076-.077.076q-.467-.005-.933 0c-.062 0-.082-.013-.082-.08q.003-1.625.002-3.25zm1.088-1.657c0 .377.001.754-.001 1.13 0 .053.013.065.065.065.491-.002.982-.001 1.474-.002a1.72 1.72 0 00.376-.035 1.06 1.06 0 00.848-.738A1.363 1.363 0 008.62 5.1a1.025 1.025 0 00-.29-.488 1.262 1.262 0 00-.887-.322c-.51-.004-1.02 0-1.53-.002-.052 0-.066.01-.065.064.002.372.001.744.001 1.116z"/><path d="M9.89 10.458H8.607a.09.09 0 01-.086-.043Q7.765 9.31 7.006 8.209l-.014-.025c.02-.02.044-.01.065-.01.287-.006.575.013.862-.017a1.254 1.254 0 00.275-.05.076.076 0 01.106.036q.529.767 1.062 1.531l.5.72a.087.087 0 01.027.064z"/></svg>