<svg data-tags="power BI" xmlns="http://www.w3.org/2000/svg" viewBox="0 0 14 14"><path d="M13.562 7.781c0 1.155-.002 2.31.002 3.466a1.392 1.392 0 0 1-.265.838 1.635 1.635 0 0 1-1.025.696 1.947 1.947 0 0 1-1.138-.129 2.984 2.984 0 0 1-.528-.298.416.416 0 0 1-.192-.382.398.398 0 0 1 .589-.308 1.655 1.655 0 0 0 .597.218 1.01 1.01 0 0 0 .972-.364.67.67 0 0 0 .16-.442c-.002-.881 0-1.763.002-2.644 0-.793-.007-1.586.004-2.378.007-.484.004-.967.008-1.45a.762.762 0 0 0-.231-.598.683.683 0 0 0-.268-.15l-1.456-.448-1.925-.592-3.543-1.091L2.789.943a1.713 1.713 0 0 0-.327-.092.688.688 0 0 0-.776.581 1.96 1.96 0 0 0-.003.287l.002 4.35a.31.31 0 0 1-.079.214.552.552 0 0 1-.814.05.273.273 0 0 1-.091-.215q.004-1.541.002-3.082V1.394A1.401 1.401 0 0 1 1.843.028a1.505 1.505 0 0 1 .768.05c.39.132.789.237 1.184.355.772.23 1.547.453 2.32.679l3.11.908 2.914.852c.18.053.36.114.542.159a1.068 1.068 0 0 1 .529.341 1.376 1.376 0 0 1 .36.975c-.003 1.145-.002 2.29-.002 3.434Z"/><path d="M9.683 9.226q0 2.106.002 4.211a.536.536 0 0 1-.542.56c-.23.003-.462.004-.693 0a.538.538 0 0 1-.544-.552V4.991a.536.536 0 0 1 .362-.524.449.449 0 0 1 .157-.025c.249 0 .498-.002.747 0a.511.511 0 0 1 .51.51c.004.294.001.59.001.884v3.39ZM5.368 9.482V6.391a.54.54 0 0 1 .323-.53.518.518 0 0 1 .228-.047h.576a.541.541 0 0 1 .55.525v.064l.001 6.151a.787.787 0 0 1-.025.211.527.527 0 0 1-.506.384c-.203.002-.406.002-.609 0a.534.534 0 0 1-.538-.522c-.003-.103 0-.206 0-.309V9.482ZM2.926 9.437V7.08a.524.524 0 0 1 .32-.509.491.491 0 0 1 .217-.04c.186 0 .37.005.556-.002a.546.546 0 0 1 .556.56c-.005 1.29-.002 2.58-.002 3.87v.843a.533.533 0 0 1-.2.43.454.454 0 0 1-.293.113c-.22 0-.441.005-.662-.001a.515.515 0 0 1-.49-.486c-.003-.039-.002-.078-.002-.117V9.437ZM2.077 9.44c0 .505-.008 1.01.003 1.515a.544.544 0 0 1-.551.553c-.185-.004-.37 0-.555-.001a.532.532 0 0 1-.542-.54q-.002-1.525 0-3.05a.535.535 0 0 1 .546-.547c.185 0 .37.003.555 0a.543.543 0 0 1 .547.546c-.01.508-.003 1.017-.003 1.525Z"/></svg>