<svg xmlns="http://www.w3.org/2000/svg" viewBox="0 0 14 14"><path d="M7.016 13.998a5.754 5.754 0 01-.964-.06 6.965 6.965 0 01-3.535-1.563A6.971 6.971 0 01.103 8.15 7.072 7.072 0 01.01 6.755a6.727 6.727 0 01.782-2.988 6.937 6.937 0 01.922-1.327l.204.18q.292.252.585.502c-.016.02-.03.042-.047.061a5.986 5.986 0 00-.87 1.344 5.718 5.718 0 00-.525 2.213 6.016 6.016 0 00.124 1.504 5.96 5.96 0 004.257 4.505 6.484 6.484 0 001.57.211z" fill="#74c8ba"/><path d="M7.016 13.998l-.003-1.038c.052-.003.103-.008.154-.009a5.527 5.527 0 001.002-.11 5.915 5.915 0 004.66-4.668 2.29 2.29 0 01.068-.34c.028.001.056 0 .084.005l.94.13a5.184 5.184 0 01-.127.688 6.944 6.944 0 01-5.565 5.24 6.112 6.112 0 01-1.213.102z" fill="#fdb813"/><path d="M13.92 7.968l-.94-.13c-.027-.004-.055-.004-.083-.006a3.183 3.183 0 01.03-.373 6.084 6.084 0 00-.012-1.027 9.129 9.129 0 00-.084-.604 5.223 5.223 0 00-.166-.657 5.685 5.685 0 00-.48-1.082 5.372 5.372 0 00-.817-1.105 1.255 1.255 0 00-.18-.194c-.096-.064-.163-.157-.252-.23-.093-.075-.184-.156-.28-.23q-.252-.194-.521-.365l.024-.033.53-.853a5.586 5.586 0 01.668.463 6.911 6.911 0 011.478 1.591 6.763 6.763 0 011.132 3.274 6.864 6.864 0 01.022.804 5.768 5.768 0 01-.068.757z" fill="#4dc8e9"/><path d="M10.69 1.079q-.266.426-.53.853l-.026.033-.023-.016a5.843 5.843 0 00-2.547-.873 5.768 5.768 0 00-1.377.042 7.352 7.352 0 00-.941.213l-.052-.18-.249-.816a5.383 5.383 0 01.717-.189 6.653 6.653 0 014.606.684 4.12 4.12 0 01.421.249z" fill="#8dc63f"/><path d="M4.945.335l.249.815.052.181c-.029.01-.057.021-.086.03A5.54 5.54 0 003.031 2.58c-.185.172-.355.358-.527.543l-.584-.501c-.07-.06-.137-.12-.205-.181a6.907 6.907 0 01.878-.874A6.572 6.572 0 014.904.342a.363.363 0 01.041-.007z" fill="#f15c22"/><path d="M4.76 7.125c0-1.076.004-2.152-.003-3.229a.597.597 0 01.587-.586c.727.009 1.455-.003 2.183.005a2.267 2.267 0 011.598.605 1.972 1.972 0 01.59 1.113 2.297 2.297 0 01-.156 1.392 2.018 2.018 0 01-1.354 1.127 2.73 2.73 0 01-.74.097q-.77.003-1.538 0c-.06-.001-.08.01-.08.077.002.884 0 1.769.003 2.653 0 .063-.016.076-.077.076q-.467-.005-.933 0c-.062 0-.082-.013-.082-.08q.003-1.625.002-3.25zm1.088-1.657c0 .377.001.754-.001 1.13 0 .053.013.065.065.065.491-.002.982-.001 1.474-.002a1.72 1.72 0 00.376-.035 1.06 1.06 0 00.848-.738A1.363 1.363 0 008.62 5.1a1.025 1.025 0 00-.29-.488 1.262 1.262 0 00-.887-.322c-.51-.004-1.02 0-1.53-.002-.052 0-.066.01-.065.064.002.372.001.744.001 1.116z"/><path d="M9.89 10.458H8.607a.09.09 0 01-.086-.043Q7.765 9.31 7.006 8.209l-.014-.025c.02-.02.044-.01.065-.01.287-.006.575.013.862-.017a1.254 1.254 0 00.275-.05.076.076 0 01.106.036q.529.767 1.062 1.531l.5.72a.087.087 0 01.027.064z"/></svg>