<svg data-tags="power review" xmlns="http://www.w3.org/2000/svg" viewBox="0 0 14 14"><path fill="#221f20" d="M-.016 0h14v14h-14z"/><path d="M6.995 11.85a3.99 3.99 0 0 1-.667-.042 4.85 4.85 0 0 1-4.123-4.01 4.9 4.9 0 0 1-.063-.967 4.662 4.662 0 0 1 .54-2.072 4.807 4.807 0 0 1 .64-.92l.142.126.405.348a.423.423 0 0 1-.032.042 4.148 4.148 0 0 0-.603.932A3.962 3.962 0 0 0 2.87 6.82a4.128 4.128 0 0 0 3.036 4.164 4.495 4.495 0 0 0 1.088.146Z" fill="#87c5b9"/><path d="M6.994 11.85v-.72c.035-.002.07-.005.106-.006a3.826 3.826 0 0 0 .694-.076 4.099 4.099 0 0 0 3.23-3.235 1.58 1.58 0 0 1 .047-.236.363.363 0 0 1 .057.003l.652.09a3.59 3.59 0 0 1-.088.478 4.812 4.812 0 0 1-3.856 3.63 4.236 4.236 0 0 1-.84.07Z" fill="#f2b944"/><path d="m11.78 7.67-.652-.09-.057-.003a2.196 2.196 0 0 1 .02-.26 4.22 4.22 0 0 0-.008-.71q-.022-.21-.058-.42a3.615 3.615 0 0 0-.115-.455 3.94 3.94 0 0 0-.333-.75 3.724 3.724 0 0 0-.566-.765.872.872 0 0 0-.125-.135c-.066-.044-.113-.108-.174-.158-.065-.053-.128-.11-.194-.16q-.175-.134-.362-.253l.017-.023.368-.591a3.873 3.873 0 0 1 .462.32 4.79 4.79 0 0 1 1.025 1.103 4.686 4.686 0 0 1 .784 2.27 4.776 4.776 0 0 1 .015.556 3.997 3.997 0 0 1-.047.525Z" fill="#6fc5e4"/><path d="m9.542 2.897-.368.59a.207.207 0 0 1-.017.024L9.14 3.5a4.05 4.05 0 0 0-1.765-.605 3.996 3.996 0 0 0-.954.029 5.095 5.095 0 0 0-.653.148l-.036-.126-.172-.565a3.73 3.73 0 0 1 .497-.13 4.61 4.61 0 0 1 3.19.473 2.854 2.854 0 0 1 .294.173Z" fill="#98c255"/><path d="m5.56 2.38.172.566.036.126-.059.02a3.84 3.84 0 0 0-1.475.845c-.129.119-.247.248-.366.376l-.405-.348c-.047-.04-.094-.083-.14-.125a4.788 4.788 0 0 1 .607-.605 4.554 4.554 0 0 1 1.602-.85l.028-.004Z" fill="#df6536"/><path d="M5.432 7.087c0-.746.004-1.492-.001-2.238a.414.414 0 0 1 .406-.406c.504.006 1.009-.002 1.513.003a1.571 1.571 0 0 1 1.108.42 1.367 1.367 0 0 1 .409.77 1.592 1.592 0 0 1-.11.966 1.399 1.399 0 0 1-.937.78 1.892 1.892 0 0 1-.513.068q-.533.002-1.066 0c-.042-.001-.056.007-.056.053l.003 1.839c0 .043-.011.052-.053.052q-.324-.003-.647 0c-.043 0-.057-.01-.057-.055q.003-1.126 0-2.252Zm.755-1.148-.001.783c0 .036.009.045.045.044.34-.001.68 0 1.02 0a1.192 1.192 0 0 0 .262-.025.734.734 0 0 0 .588-.512.944.944 0 0 0 .006-.546.71.71 0 0 0-.2-.338.875.875 0 0 0-.616-.223c-.353-.003-.707 0-1.06-.002-.036 0-.046.008-.045.045.002.258 0 .516 0 .774Z" fill="#f7f7f7"/><path d="M8.987 9.396h-.888a.063.063 0 0 1-.06-.03l-1.05-1.528-.01-.018c.014-.014.03-.006.046-.006.199-.005.398.008.597-.012a.87.87 0 0 0 .19-.034.053.053 0 0 1 .074.024q.366.532.736 1.06l.346.499a.06.06 0 0 1 .02.045Z" fill="#f7f7f7"/></svg>