<svg data-tags="PowerReviews" xmlns="http://www.w3.org/2000/svg" viewBox="0 0 14 14"><circle cx="7" cy="7" r="7" fill="#231f20"/><path d="M7.01 11.85a3.987 3.987 0 01-.667-.042 4.827 4.827 0 01-2.45-1.084A4.831 4.831 0 012.22 7.798a4.9 4.9 0 01-.063-.967 4.662 4.662 0 01.541-2.072 4.807 4.807 0 01.64-.92l.141.126.405.348c-.01.014-.02.029-.032.042a4.148 4.148 0 00-.603.932 3.962 3.962 0 00-.364 1.533 4.168 4.168 0 00.086 1.042 4.13 4.13 0 002.95 3.122 4.494 4.494 0 001.088.146z" fill="#74c8ba"/><path d="M7.01 11.85v-.72c.035-.002.07-.005.106-.006a3.83 3.83 0 00.694-.076 4.099 4.099 0 003.23-3.235 1.588 1.588 0 01.047-.236c.019 0 .038 0 .057.003l.652.09a3.593 3.593 0 01-.088.478 4.812 4.812 0 01-3.856 3.63 4.235 4.235 0 01-.841.071z" fill="#fdb813"/><path d="M11.796 7.67l-.652-.09-.057-.003a2.205 2.205 0 01.02-.26 4.216 4.216 0 00-.008-.71 6.329 6.329 0 00-.058-.419 3.618 3.618 0 00-.115-.456 3.94 3.94 0 00-.333-.75 3.722 3.722 0 00-.566-.765.87.87 0 00-.125-.135c-.066-.044-.113-.108-.174-.158-.065-.053-.128-.11-.194-.16q-.175-.134-.362-.253l.017-.023.368-.591a3.871 3.871 0 01.462.32 4.79 4.79 0 011.025 1.103 4.686 4.686 0 01.784 2.27 4.754 4.754 0 01.015.556 3.997 3.997 0 01-.047.525z" fill="#4dc8e9"/><path d="M9.557 2.897l-.368.59c-.005.009-.011.016-.017.024L9.156 3.5a4.049 4.049 0 00-1.765-.605 3.996 3.996 0 00-.954.029 5.095 5.095 0 00-.653.148l-.036-.126-.172-.565a3.73 3.73 0 01.497-.13 4.61 4.61 0 013.191.473 2.852 2.852 0 01.293.173z" fill="#8dc63f"/><path d="M5.576 2.381l.172.565.036.126-.059.02a3.84 3.84 0 00-1.475.845c-.129.119-.247.248-.366.376l-.405-.348c-.047-.04-.094-.083-.141-.125a4.787 4.787 0 01.608-.605 4.554 4.554 0 011.602-.849.253.253 0 01.028-.005z" fill="#f15c22"/><path d="M5.447 7.087c0-.746.004-1.492-.001-2.238a.414.414 0 01.406-.406c.504.006 1.009-.002 1.513.003a1.571 1.571 0 011.108.42 1.367 1.367 0 01.409.771 1.592 1.592 0 01-.109.965 1.399 1.399 0 01-.938.78 1.892 1.892 0 01-.513.068q-.533.002-1.066 0c-.042-.001-.056.007-.056.053l.003 1.839c0 .043-.011.052-.053.052q-.324-.003-.647 0c-.043 0-.057-.009-.057-.055q.003-1.126.001-2.252zm.755-1.148l-.001.783c0 .036.009.045.045.044.34-.001.68 0 1.021 0a1.192 1.192 0 00.261-.025.734.734 0 00.588-.512.944.944 0 00.006-.546.71.71 0 00-.2-.338.875.875 0 00-.616-.223c-.353-.003-.707 0-1.06-.002-.036 0-.046.008-.045.045.002.258 0 .516 0 .774z" fill="#f8f8f8"/><path d="M9.002 9.396h-.888a.063.063 0 01-.06-.03l-1.05-1.528-.01-.018c.014-.014.03-.006.046-.006.199-.005.398.008.597-.012a.87.87 0 00.19-.034.053.053 0 01.074.024q.366.532.736 1.061l.346.498a.06.06 0 01.02.045z" fill="#f8f8f8"/></svg>
