<svg data-tags="power BI" xmlns="http://www.w3.org/2000/svg" viewBox="0 0 14 14"><rect width="14" height="14" rx="7" fill="#ecc848"/><path d="M11.219 7.502c0 .743-.002 1.485 0 2.228a.895.895 0 0 1-.17.539 1.05 1.05 0 0 1-.658.447 1.251 1.251 0 0 1-.732-.083 1.918 1.918 0 0 1-.34-.191.267.267 0 0 1-.123-.246.256.256 0 0 1 .378-.198 1.064 1.064 0 0 0 .384.14.65.65 0 0 0 .625-.233.43.43 0 0 0 .103-.285l.001-1.7c0-.51-.004-1.019.003-1.528.005-.311.003-.622.005-.932a.49.49 0 0 0-.148-.385.44.44 0 0 0-.172-.096l-.936-.288L8.2 4.31l-2.278-.702-1.63-.502a1.101 1.101 0 0 0-.21-.06.443.443 0 0 0-.5.374 1.26 1.26 0 0 0 0 .184v2.797a.2.2 0 0 1-.05.137.355.355 0 0 1-.524.032.175.175 0 0 1-.058-.138q.002-.99 0-1.981V3.396a.9.9 0 0 1 .734-.878.967.967 0 0 1 .493.032c.251.085.508.153.761.228.497.148.995.292 1.492.437l2 .583 1.873.549c.116.034.23.072.348.102a.686.686 0 0 1 .34.219.885.885 0 0 1 .231.627c-.002.735 0 1.471 0 2.207Z" fill="#fff"/><path d="m8.725 8.431.001 2.707a.344.344 0 0 1-.348.36c-.149.002-.297.003-.446 0a.346.346 0 0 1-.35-.355V5.71a.344.344 0 0 1 .233-.338.289.289 0 0 1 .101-.015c.16 0 .32-.002.48 0a.329.329 0 0 1 .329.327c.002.19 0 .38 0 .569ZM5.95 8.596V6.608a.347.347 0 0 1 .209-.34.333.333 0 0 1 .146-.03h.37a.348.348 0 0 1 .354.337v3.996a.506.506 0 0 1-.015.135.339.339 0 0 1-.326.247h-.391a.343.343 0 0 1-.346-.336c-.002-.066 0-.132 0-.198V8.596ZM4.38 8.567V7.052a.337.337 0 0 1 .206-.328.316.316 0 0 1 .14-.026c.12 0 .239.004.357 0a.351.351 0 0 1 .358.359c-.003.83-.001 1.659-.001 2.489v.541a.343.343 0 0 1-.129.276.292.292 0 0 1-.188.073c-.142 0-.284.003-.426 0a.331.331 0 0 1-.315-.313l-.001-.075V8.567ZM3.835 8.57c0 .323-.005.648.002.972a.35.35 0 0 1-.354.356c-.119-.003-.238 0-.357 0a.342.342 0 0 1-.349-.348V7.59a.344.344 0 0 1 .352-.352c.119 0 .238.002.357 0a.35.35 0 0 1 .35.35c-.005.328 0 .654 0 .981Z" fill="#fff"/></svg>