<svg data-tags="print" xmlns="http://www.w3.org/2000/svg" viewBox="0 0 14 14"><circle fill="#40A3F5" cx="7" cy="7" r="7"/><g fill="#FFF"><path d="M5.445 7h2a.163.163 0 00.162-.163V4.94c0-.09-.024-.162-.05-.162H5.444a.163.163 0 00-.163.162v1.898c0 .09.074.163.163.163zm4.829-2.223h-1.9a.163.163 0 00-.163.162v.325c0 .09.073.162.162.162h1.9a.163.163 0 00.163-.162v-.325a.163.163 0 00-.162-.162zm0 1.642h-1.9a.163.163 0 00-.163.162v.325c0 .09.073.163.162.163h1.9a.163.163 0 00.163-.163v-.325a.163.163 0 00-.162-.162zm0 1.641h-4.83a.163.163 0 00-.162.163v.325c0 .089.074.162.163.162h4.829a.163.163 0 00.162-.162v-.325a.163.163 0 00-.162-.162z"/><path d="M11.385 3.362H3.98a.163.163 0 00-.162.162v.888c0 .09-.073.163-.163.163h-1.04a.163.163 0 00-.162.162v4.859c0 .59.445 1.007.91 1.042h7.175c.638 0 1.006-.525 1.01-1.442V3.524a.163.163 0 00-.162-.162zM3.817 9.214c0 .265-.036.883-.369.883-.25 0-.54-.131-.54-.5V5.191c0-.09.073-.163.162-.163h.584c.09 0 .163.073.163.163v4.022zm7.276-1.673v1.638c0 .458-.096 1.004-.556 1.004H4.073c.117-.2.198-.507.198-.97V3.979c0-.09.073-.163.163-.163h6.496c.09 0 .163.074.163.163V7.54z"/></g></svg>