<svg data-tags="print" xmlns="http://www.w3.org/2000/svg" viewBox="0 0 14 14"><path d="M4.606 7.22h3.078a.252.252 0 0 0 .25-.25V4.046c0-.14-.036-.25-.078-.25h-3.25a.25.25 0 0 0-.25.25v2.92a.251.251 0 0 0 .25.25Zm7.434-3.422H9.113a.25.25 0 0 0-.25.25v.5a.251.251 0 0 0 .25.25h2.925a.25.25 0 0 0 .25-.25v-.5a.25.25 0 0 0-.25-.25Zm0 2.526H9.113a.251.251 0 0 0-.25.25v.5a.251.251 0 0 0 .25.25h2.925a.251.251 0 0 0 .25-.25v-.5a.251.251 0 0 0-.25-.25Zm0 2.528H4.605a.251.251 0 0 0-.25.25v.5a.251.251 0 0 0 .25.25h7.433a.25.25 0 0 0 .25-.25v-.5a.251.251 0 0 0-.25-.25Z"/><path d="M13.75 1.62H2.35a.25.25 0 0 0-.25.25v1.365a.25.25 0 0 1-.25.25H.25a.25.25 0 0 0-.25.25v7.48a1.574 1.574 0 0 0 1.4 1.605h11.045c.982 0 1.548-.81 1.555-2.22V1.87a.25.25 0 0 0-.25-.25ZM2.1 10.626c0 .41-.055 1.36-.567 1.36a.758.758 0 0 1-.833-.77V4.436a.25.25 0 0 1 .25-.25h.9a.25.25 0 0 1 .25.25v6.192Zm11.2-2.574v2.52c0 .706-.148 1.548-.855 1.548H2.494a2.96 2.96 0 0 0 .306-1.494V2.57a.25.25 0 0 1 .25-.25h10a.252.252 0 0 1 .25.25v5.482Z"/></svg>