<svg data-tags="proofpoint" xmlns="http://www.w3.org/2000/svg" viewBox="0 0 14 14"><path d="M12.619 7.036a2.13 2.13 0 0 1-.966 1.765q-1.235.865-2.469 1.732c-1.483 1.04-2.964 2.082-4.452 3.115a1.973 1.973 0 0 1-1.384.337 2.063 2.063 0 0 1-1.823-1.412 2.09 2.09 0 0 1 .408-2.174 3.985 3.985 0 0 1 .844-.645Q4.691 8.41 6.61 7.072c.094-.066.093-.085-.007-.155L3.711 4.892l-1.042-.73a4.387 4.387 0 0 1-.607-.43 2.138 2.138 0 0 1-.667-1.486A2.086 2.086 0 0 1 2.068.59 2.104 2.104 0 0 1 3.758.01a2.548 2.548 0 0 1 1.267.539Q7.51 2.298 10 4.038c.57.398 1.148.786 1.71 1.196a2.138 2.138 0 0 1 .91 1.802Z" fill="#4799c2"/></svg>