<svg data-tags="proofpoint,nexgate" xmlns="http://www.w3.org/2000/svg" viewBox="0 0 14 14"><path d="M13.466 7.724v-.298h-.103c-.112 0-.139-.017-.139-.095V6.51h.243v-.279h-.243v-.404h-.415v.404h-.207v.279h.207v.8c0 .31.073.422.419.422.044 0 .124-.006.239-.009M11.08 7.713h.42v-.88a.295.295 0 0 1 .321-.312c.18 0 .243.095.243.297v.895h.419v-1.01a.454.454 0 0 0-.517-.511.586.586 0 0 0-.475.216V6.23h-.41ZM10.404 5.706h.419v.36h-.419zM10.404 6.231h.419v1.482h-.419zM9.08 6.97c0-.296.134-.458.368-.458s.366.162.366.459-.133.46-.366.46-.369-.165-.369-.46m-.425 0a.732.732 0 0 0 .794.792.732.732 0 0 0 .794-.792.732.732 0 0 0-.794-.793.732.732 0 0 0-.794.792M8.103 6.982c0 .276-.133.438-.34.438-.221 0-.35-.157-.35-.438 0-.305.12-.46.342-.46s.348.158.348.46M7.005 8.308h.407v-.78a.53.53 0 0 0 .463.235c.366 0 .644-.31.644-.798 0-.475-.27-.784-.65-.784a.524.524 0 0 0-.466.25v-.2h-.398ZM6.154 7.713h.41V6.51h.26v-.279H6.56v-.103c0-.095.039-.112.154-.112h.109v-.315a2.578 2.578 0 0 0-.2-.009c-.322 0-.47.123-.47.402v.137H5.93v.279h.224ZM4.74 6.97c0-.296.136-.458.37-.458s.366.162.366.459-.133.46-.366.46-.37-.165-.37-.46m-.424 0a.732.732 0 0 0 .794.792.732.732 0 0 0 .794-.792.732.732 0 0 0-.795-.793.733.733 0 0 0-.795.793M3.057 6.97c0-.296.135-.458.37-.458s.365.162.365.459-.133.46-.366.46-.369-.165-.369-.46m-.425 0a.732.732 0 0 0 .794.792.732.732 0 0 0 .794-.792.732.732 0 0 0-.794-.793.732.732 0 0 0-.794.793M1.682 7.713h.42v-.784a.302.302 0 0 1 .344-.335h.139v-.402a.462.462 0 0 0-.062-.003.48.48 0 0 0-.452.297V6.23h-.389ZM1.098 6.982c0 .276-.133.438-.34.438-.221 0-.35-.157-.35-.438 0-.305.12-.46.342-.46s.348.158.348.46M0 8.308h.407v-.78a.53.53 0 0 0 .463.235c.366 0 .644-.31.644-.798 0-.475-.27-.784-.65-.784a.524.524 0 0 0-.466.25v-.2H0ZM14 7.59a.164.164 0 1 1-.168-.159h.006A.16.16 0 0 1 14 7.59Zm-.286 0a.123.123 0 0 0 .119.128h.005a.122.122 0 0 0 .121-.123v-.003a.123.123 0 1 0-.245-.012v.01Zm.098.084h-.037v-.159a.32.32 0 0 1 .06-.005.1.1 0 0 1 .056.012.044.044 0 0 1 .016.035.04.04 0 0 1-.033.037v.002a.047.047 0 0 1 .029.038.122.122 0 0 0 .011.04h-.04a.136.136 0 0 1-.012-.039c-.003-.017-.013-.025-.033-.025h-.018Zm0-.09h.017c.02 0 .037-.007.037-.023s-.01-.025-.034-.025a.088.088 0 0 0-.02.002Z"/></svg>