<svg data-tags="proofpoint" xmlns="http://www.w3.org/2000/svg" viewBox="0 0 14 14"><rect x=".001" y=".001" width="13.997" height="13.997" rx="6.999" fill="#4799c2"/><path d="M11.308 7.023a1.37 1.37 0 0 1-.621 1.135L9.1 9.27c-.954.668-1.906 1.339-2.862 2.003a1.269 1.269 0 0 1-.89.217 1.326 1.326 0 0 1-1.172-.909 1.343 1.343 0 0 1 .263-1.397 2.562 2.562 0 0 1 .542-.414q1.23-.865 2.464-1.725c.06-.042.06-.055-.004-.1L5.58 5.646l-.67-.47a2.821 2.821 0 0 1-.39-.276 1.375 1.375 0 0 1-.429-.955 1.388 1.388 0 0 1 1.52-1.438 1.638 1.638 0 0 1 .814.346q1.597 1.125 3.198 2.243c.366.257.738.506 1.099.77a1.374 1.374 0 0 1 .585 1.158Z" fill="#fff"/></svg>