<svg data-tags="pTwoFou,p24" xmlns="http://www.w3.org/2000/svg" viewBox="0 0 14 14"><path d="M0 0h14v14H0Z" fill="#fff" fill-rule="evenodd"/><path d="m7.997 9.608-.067.357H5.06l.135-.706a1.15 1.15 0 0 1 .393-.779 3.204 3.204 0 0 1 1.218-.283 2.327 2.327 0 0 0 .928-.21 1.155 1.155 0 0 0 .283-.683q.092-.485-.051-.63a1.13 1.13 0 0 0-.718-.143 2.303 2.303 0 0 0-.928.116.77.77 0 0 0-.295.563l-.048.28h-.44l.04-.195a1.31 1.31 0 0 1 .472-.898 2.48 2.48 0 0 1 1.252-.224 1.514 1.514 0 0 1 1.037.242q.23.242.097.943a1.438 1.438 0 0 1-.428.902 2.52 2.52 0 0 1-1.18.306 2.389 2.389 0 0 0-.943.198 1.261 1.261 0 0 0-.282.718l-.024.126Zm3.773-3.39-.481 2.53h.596l-.069.358h-.595l-.165.866h-.448l.165-.866H8.544l.094-.498 2.439-2.39h.693Zm-.93 2.53.43-2.257h-.01L8.982 8.748Z" fill="#99a0a6" fill-rule="evenodd"/><path d="m1.313 9.958.724-3.785h1.868a1.166 1.166 0 0 1 .894.247 1.167 1.167 0 0 1 .074.923 1.417 1.417 0 0 1-.431.885 1.713 1.713 0 0 1-1.026.236l-.18.002H2.058l-.285 1.492Zm.814-1.852h1.09a2.03 2.03 0 0 0 .903-.13.85.85 0 0 0 .307-.6 1.105 1.105 0 0 0 .003-.694c-.068-.097-.264-.146-.59-.146l-.175-.002H2.428Z" fill="#d40e2b" fill-rule="evenodd"/><path d="m4 4.795-.443-.294a9.678 9.678 0 0 1 1.626-.606l.081.4a7.1 7.1 0 0 0-1.264.5Zm5.023-.22a4.738 4.738 0 0 0-1.309-.438l.357-.637h.01a9.433 9.433 0 0 1 2.503.316Zm-5.87.132.453.306q-.309.178-.631.396h-.878a6.239 6.239 0 0 1 1.057-.702ZM7.54 3.522l-.211.565a5.404 5.404 0 0 0-1.757.115l-.06-.404a10.666 10.666 0 0 1 2.028-.276Zm3.868.57a3.27 3.27 0 0 1 1.28.878H9.66a2.675 2.675 0 0 0-.288-.207Z" fill="#99a0a6" fill-rule="evenodd"/></svg>