<svg xmlns="http://www.w3.org/2000/svg" viewBox="0 0 14 14"><path d="M13 14H1c-.55 0-1-.45-1-1V1c0-.55.45-1 1-1h12c.55 0 1 .45 1 1v12c0 .55-.45 1-1 1z"/><path fill="#FFF" d="M11.226 6.488c-.019 1.122-.371 2.072-1.076 2.887a4.198 4.198 0 01-.856.745c-.074.049-.075.053-.029.131.13.217.317.374.538.489.136.071.282.125.425.182.05.02.074.048.074.1v.582c0 .057-.026.086-.083.095a3.168 3.168 0 01-.652.049c-.598-.036-1.074-.293-1.412-.792a2.683 2.683 0 01-.128-.204c-.027-.048-.059-.062-.112-.049a3.866 3.866 0 01-.993.107 4.239 4.239 0 01-3.631-2.237 4.37 4.37 0 01-.488-1.56 4.226 4.226 0 01.106-1.544 4.237 4.237 0 01.724-1.519c.407-.548.919-.97 1.531-1.272.476-.234.977-.37 1.505-.413a4.074 4.074 0 012.23.447 4.179 4.179 0 011.777 1.721c.299.535.474 1.108.526 1.719.012.126.018.254.024.336zm-2.061-.002c.001-.342.025-.685-.034-1.025-.111-.64-.373-1.203-.869-1.638-.482-.421-1.039-.578-1.667-.426-.484.117-.854.41-1.145.805-.383.521-.553 1.113-.56 1.755-.004.375-.006.751.001 1.126.004.195.016.392.049.584.103.601.356 1.128.806 1.551.407.382.886.562 1.444.522.088-.006.175-.029.262-.044.054-.009.059-.036.03-.077-.029-.04-.055-.083-.085-.122-.224-.287-.5-.495-.868-.556-.049-.008-.066-.039-.067-.082v-.705c0-.054.026-.085.084-.083.105.004.211.001.315.011a2.67 2.67 0 011.677.788c.042.042.067.036.094-.01.089-.153.188-.301.264-.46.162-.338.251-.699.268-1.073.011-.28.001-.561.001-.841z"/></svg>
