<svg xmlns="http://www.w3.org/2000/svg" viewBox="0 0 14 14"><circle fill="#A82200" cx="7" cy="7" r="7"/><path fill="#FFF" d="M10.423 6.585c-.015.908-.3 1.678-.872 2.338a3.4 3.4 0 0 1-.693.604c-.06.04-.06.042-.023.106.105.175.256.303.435.396.11.057.229.101.345.147.04.016.06.04.06.081v.472c0 .046-.021.07-.068.077-.175.025-.35.05-.528.04-.484-.03-.87-.238-1.143-.642a2.174 2.174 0 0 1-.104-.166c-.022-.038-.048-.05-.09-.04a3.132 3.132 0 0 1-.805.087 3.433 3.433 0 0 1-2.941-1.812A3.54 3.54 0 0 1 3.6 7.01a3.423 3.423 0 0 1 .086-1.25c.112-.45.31-.86.587-1.231a3.39 3.39 0 0 1 1.24-1.03c.385-.19.791-.3 1.219-.335a3.3 3.3 0 0 1 1.806.362c.62.318 1.1.785 1.44 1.394.242.433.383.898.426 1.392.01.103.014.206.019.273zm-1.67-.002c.001-.277.02-.555-.027-.83-.09-.519-.302-.975-.704-1.327-.39-.341-.841-.468-1.35-.345-.392.095-.692.332-.928.652-.31.422-.447.902-.453 1.422-.003.303-.005.608 0 .912.004.158.014.317.04.473.084.486.289.913.653 1.256.33.31.718.455 1.17.423.071-.005.142-.024.212-.036.044-.007.048-.029.024-.062-.023-.033-.044-.067-.068-.1-.182-.232-.405-.4-.704-.45-.04-.006-.053-.031-.054-.066v-.57c0-.045.021-.07.068-.068.085.003.171 0 .255.009.53.048.981.265 1.359.638.034.034.054.03.076-.008.072-.124.152-.244.214-.373.13-.273.203-.566.217-.869.009-.227 0-.454 0-.681z"/></svg>