<svg data-tags="radio" xmlns="http://www.w3.org/2000/svg" viewBox="0 0 14 14"><circle fill="#40A3F5" cx="7" cy="7" r="7"/><g fill="#FFF"><circle cx="5.575" cy="7.694" r=".838"/><path d="M10.422 4.83H6.657l3.13-1.05a.596.596 0 10-.2-.596L4.677 4.83h-1.1a.665.665 0 00-.665.665v4.4c0 .368.297.665.665.665h6.844a.665.665 0 00.665-.665v-4.4a.665.665 0 00-.665-.665zM5.575 9.297a1.603 1.603 0 110-3.207 1.603 1.603 0 010 3.207zm4.648-.44h-1.62a.409.409 0 110-.818h1.62v.818zm0-1.51h-1.62a.409.409 0 110-.817h1.62v.817z"/></g></svg>