<svg data-tags="reclame aqui" xmlns="http://www.w3.org/2000/svg" viewBox="0 0 14 14"><path d="M13.979 12.8c-.343-3.977-.686-7.935-1.033-11.916-.091 0-.16 0-.226.004-1.106 0-2.215.003-3.32-.004a.24.24 0 0 0-.28.194Q7.203 6.556 5.276 12.034c-.087.255-.175.51-.266.78 1.018 0 2.007-.007 2.999.004.197.004.28-.051.328-.248.12-.503.27-1.003.409-1.496h1.974V12.8Zm-4.58-4.17 1.19-4.254a.1.1 0 0 1 .033.003c.03 1.412.059 2.824.084 4.25Z" fill="#056734"/><path d="M8.582 6.424a3.85 3.85 0 0 0 .57-2.346 2.7 2.7 0 0 0-1.15-2.152 4.081 4.081 0 0 0-2.43-.686c-.633-.008-1.265-.008-1.897-.007s-1.264.003-1.897.003h-.19L.016 13.156H3.35l.591-4.448h.04q.433 2.217.865 4.44h3.536c-.555-1.762-1.106-3.51-1.657-5.268a1.196 1.196 0 0 1 .179-.077 3.87 3.87 0 0 0 1.678-1.379Zm-3.126-.492a1.053 1.053 0 0 1-.076.11 1.141 1.141 0 0 1-.043.053 1.262 1.262 0 0 1-1.111.424c.12-.93.244-1.857.365-2.78.026-.004.052-.008.077-.01a1.246 1.246 0 0 1 .16-.01.878.878 0 0 1 .894.932 2.397 2.397 0 0 1-.266 1.28Z" fill="#94c120"/></svg>