<svg data-tags="reclame aqui" xmlns="http://www.w3.org/2000/svg" viewBox="0 0 14 14"><rect width="14" height="14" rx="7" fill="#fff"/><path d="m11.402 10.338-.651-7.513c-.058 0-.102 0-.143.003-.697 0-1.396.002-2.093-.003a.151.151 0 0 0-.177.122Q7.13 6.401 5.916 9.855c-.056.16-.11.322-.168.492.641 0 1.265-.004 1.89.002.125.003.178-.032.207-.156.076-.317.17-.632.258-.943h1.245v1.088Zm-2.887-2.63c.25-.9.501-1.791.75-2.681a.064.064 0 0 1 .02.002c.019.89.037 1.78.053 2.68Z" fill="#056734"/><path d="M8 6.318a2.427 2.427 0 0 0 .358-1.479 1.703 1.703 0 0 0-.724-1.357 2.573 2.573 0 0 0-1.532-.432c-.4-.005-.798-.006-1.197-.005l-1.196.002h-.12l-.99 7.515H4.7l.372-2.804H5.1l.545 2.8h2.229L6.828 7.236a.754.754 0 0 1 .113-.048A2.44 2.44 0 0 0 8 6.318Zm-1.972-.31a.664.664 0 0 1-.048.07.708.708 0 0 1-.027.033.796.796 0 0 1-.7.267l.23-1.753a.881.881 0 0 1 .049-.006.784.784 0 0 1 .1-.006.554.554 0 0 1 .564.587 1.511 1.511 0 0 1-.168.808Z" fill="#94c120"/></svg>