<svg data-tags="reclame aqui" xmlns="http://www.w3.org/2000/svg" viewBox="0 0 14 14"><path d="M13.981 12.8c-.343-3.977-.685-7.935-1.032-11.916-.091 0-.16 0-.226.004-1.106 0-2.215.003-3.32-.004a.24.24 0 0 0-.281.194Q7.206 6.556 5.28 12.034c-.088.255-.175.51-.266.78 1.018 0 2.006-.007 2.999.004.197.004.28-.051.328-.248.12-.503.27-1.003.409-1.496h1.973V12.8ZM9.403 8.63c.397-1.43.795-2.842 1.19-4.254a.1.1 0 0 1 .032.003c.03 1.412.058 2.824.084 4.25Z"/><path d="M8.585 6.424a3.85 3.85 0 0 0 .57-2.346 2.7 2.7 0 0 0-1.15-2.152 4.081 4.081 0 0 0-2.43-.686c-.633-.008-1.265-.008-1.897-.008s-1.264.004-1.897.004h-.19L.019 13.156h3.334l.591-4.448h.04q.433 2.217.865 4.44h3.535C7.83 11.386 7.28 9.638 6.728 7.88a1.197 1.197 0 0 1 .179-.077 3.87 3.87 0 0 0 1.678-1.379Zm-3.127-.492a1.053 1.053 0 0 1-.076.11 1.141 1.141 0 0 1-.043.053 1.262 1.262 0 0 1-1.11.424c.12-.93.244-1.857.365-2.78a1.39 1.39 0 0 1 .077-.01 1.246 1.246 0 0 1 .16-.01.878.878 0 0 1 .894.932 2.397 2.397 0 0 1-.267 1.28Z"/></svg>