<svg xmlns="http://www.w3.org/2000/svg" viewBox="0 0 14 14"><g><path d="M13.715 5.93a1.57 1.57 0 00-.972-.66c-.528-.116-1.002.011-1.421.353-.024-.013-.043-.022-.061-.033-.069-.04-.137-.083-.207-.123-.933-.527-1.94-.817-2.999-.942-.213-.025-.428-.033-.642-.05-.016 0-.036.004-.05-.024.003-.012.005-.029.011-.046l.076-.216.776-2.205c.013-.037.018-.078.054-.109l2.236.537c.01.002.019.011.028.016.01.08.017.16.032.238.13.696.822 1.2 1.571 1.037a1.318 1.318 0 10-.708-2.535 1.315 1.315 0 00-.748.651c-.016.031-.021.071-.058.09-.029-.005-.058-.009-.086-.015a937.83 937.83 0 00-2.407-.577c-.066-.016-.131-.042-.208-.038-.375 1.06-.745 2.12-1.12 3.181-.248.016-.488.025-.726.047a9.352 9.352 0 00-1.427.257 7.807 7.807 0 00-1.358.505c-.213.11-.422.226-.634.34a1.623 1.623 0 00-2.33.252c-.245.32-.36.683-.333 1.083.038.535.292.952.733 1.257a2.702 2.702 0 00-.007.07c-.01.122-.029.245-.03.37-.009.423.078.83.247 1.22.188.433.46.81.79 1.145.355.361.76.657 1.2.905.933.526 1.942.812 3.001.937a9.554 9.554 0 002.3-.024c.27-.036.539-.086.805-.148a7.615 7.615 0 001.761-.636 5.522 5.522 0 001.447-1.044c.329-.336.599-.713.786-1.147.118-.273.194-.557.226-.852.026-.24.025-.48-.013-.719-.003-.02 0-.043 0-.062.845-.569.94-1.61.465-2.287zM11.88 1.61c.399-.009.8.33.797.811a.808.808 0 01-1.614-.01c.003-.5.423-.82.817-.802zM.888 7.651c-.133-.073-.29-.32-.342-.54A1.078 1.078 0 01.7 6.232c.394-.585 1.133-.598 1.524-.3C1.633 6.4 1.16 6.95.888 7.653zm11.715 1.913a3.045 3.045 0 01-.554.91 4.575 4.575 0 01-1.145.937 6.68 6.68 0 01-1.605.675 7.974 7.974 0 01-1.002.214 8.61 8.61 0 01-1.535.092c-.2-.005-.4-.022-.6-.036a6.66 6.66 0 01-.832-.116c-.853-.167-1.663-.45-2.402-.918a4.402 4.402 0 01-1.04-.894 2.907 2.907 0 01-.578-1.057 2.45 2.45 0 01.184-1.835c.204-.402.49-.74.826-1.036.456-.4.975-.699 1.534-.93a7.47 7.47 0 011.493-.443 9.284 9.284 0 011.64-.159c.247.012.496.015.742.036.898.076 1.767.276 2.591.65.443.201.858.448 1.234.758.314.26.588.555.804.901.191.306.323.636.379.993a2.41 2.41 0 01-.134 1.258zm.494-1.895c-.269-.707-.741-1.259-1.325-1.725a.735.735 0 01.348-.173c.21-.048.42-.047.623.03.427.158.677.467.738.917.058.43-.177.82-.384.951z"/><path d="M5.985 7.944a.992.992 0 00-.99-.995.991.991 0 00-.997.988.988.988 0 00.99.995.987.987 0 00.997-.988zm3.15-.996a.994.994 0 00-1.002.984.987.987 0 00.985 1.001.985.985 0 001.001-.983.994.994 0 00-.984-1.002zm-.173 3.314c-.14.125-.299.22-.468.298-.418.197-.863.28-1.32.301a4.147 4.147 0 01-.796-.038 3.071 3.071 0 01-.766-.208 1.689 1.689 0 01-.549-.35.23.23 0 00-.034-.029c-.086-.057-.176-.067-.268-.016a.246.246 0 00-.133.234.232.232 0 00.071.167c.06.058.122.116.188.166.24.183.51.31.796.401.42.136.852.186 1.291.195.182-.013.363-.023.545-.039a3.66 3.66 0 00.913-.204c.275-.099.535-.229.767-.409a1.11 1.11 0 00.13-.116.238.238 0 00.056-.243.255.255 0 00-.423-.11z"/></g></svg>
