<svg xmlns="http://www.w3.org/2000/svg" viewBox="0 0 14 14"><circle fill="#B4E3FA" cx="7" cy="7" r="7"/><path fill="#FFF" d="M11.202 8.637c-.096.253-.24.478-.416.682a3.43 3.43 0 0 1-.858.703 5.01 5.01 0 0 1-1.204.506 5.98 5.98 0 0 1-.751.16 6.456 6.456 0 0 1-1.151.069c-.15-.003-.3-.016-.45-.026a4.994 4.994 0 0 1-.624-.087c-.64-.126-1.247-.338-1.802-.689a3.301 3.301 0 0 1-.78-.67 2.18 2.18 0 0 1-.433-.793 1.838 1.838 0 0 1 .138-1.376c.153-.301.367-.555.62-.777.341-.3.73-.524 1.15-.698a5.65 5.65 0 0 1 1.12-.331 6.962 6.962 0 0 1 1.23-.12c.185.01.371.012.556.027a5.852 5.852 0 0 1 1.943.488c.332.15.643.336.925.568a2.8 2.8 0 0 1 .603.676c.143.23.242.477.284.744.052.324.016.639-.1.944z"/><path fill="#010101" d="M12.036 5.91a1.178 1.178 0 0 0-.73-.494 1.205 1.205 0 0 0-1.065.265l-.046-.025c-.051-.03-.102-.062-.155-.092-.7-.395-1.455-.613-2.249-.707-.16-.018-.32-.024-.481-.037-.012 0-.027.003-.038-.018.003-.01.004-.022.009-.035l.056-.162c.195-.55.388-1.102.582-1.653.01-.028.014-.059.04-.082l1.678.403c.007.001.014.008.02.012.008.06.013.119.025.178.097.522.616.9 1.178.778a.988.988 0 1 0-1.092-1.413c-.012.023-.016.053-.044.068-.021-.004-.043-.007-.064-.012-.601-.144-1.203-.29-1.805-.432-.05-.012-.098-.032-.156-.029-.281.795-.559 1.59-.84 2.386-.186.012-.366.018-.544.035a7.013 7.013 0 0 0-1.07.193 5.855 5.855 0 0 0-1.019.378c-.16.082-.316.17-.475.255a1.217 1.217 0 0 0-1.997 1.001c.028.402.219.714.55.943l-.006.052c-.008.092-.022.184-.023.277-.006.318.06.623.186.916.14.324.345.606.592.858.267.271.57.493.9.68.7.393 1.457.608 2.25.702a7.164 7.164 0 0 0 1.725-.018 6.48 6.48 0 0 0 .604-.111 5.71 5.71 0 0 0 1.32-.477 4.141 4.141 0 0 0 1.086-.783 2.86 2.86 0 0 0 .59-.86 2.2 2.2 0 0 0 .159-1.178c-.002-.016 0-.033 0-.047a1.218 1.218 0 0 0 .349-1.715zM10.66 2.67c.299-.005.6.249.597.61a.606.606 0 0 1-1.21-.008.599.599 0 0 1 .613-.601zM2.417 7.203c-.1-.055-.219-.24-.257-.405a.808.808 0 0 1 .115-.659c.295-.439.85-.448 1.143-.225-.443.35-.797.762-1.001 1.29zm8.785 1.435c-.096.253-.24.478-.416.682a3.43 3.43 0 0 1-.858.703 5.01 5.01 0 0 1-1.204.506 5.98 5.98 0 0 1-.751.16 6.456 6.456 0 0 1-1.151.069c-.15-.003-.3-.016-.45-.026a4.994 4.994 0 0 1-.624-.087c-.64-.126-1.247-.338-1.802-.689a3.301 3.301 0 0 1-.78-.67 2.18 2.18 0 0 1-.433-.793 1.838 1.838 0 0 1 .138-1.376c.153-.301.367-.555.62-.777.341-.3.73-.524 1.15-.698a5.65 5.65 0 0 1 1.12-.331 6.962 6.962 0 0 1 1.23-.12c.185.01.371.012.556.027a5.852 5.852 0 0 1 1.943.488c.332.15.643.336.925.568a2.8 2.8 0 0 1 .603.676c.143.23.242.477.284.744.052.324.016.639-.1.944zm.37-1.421c-.202-.53-.556-.944-.993-1.294a.55.55 0 0 1 .26-.13.8.8 0 0 1 .468.022c.32.12.507.351.553.689.044.322-.133.614-.288.713z"/><path fill="#F04D24" d="M6.239 7.421a.744.744 0 0 0-1.49-.005.74.74 0 0 0 .742.746.74.74 0 0 0 .748-.74zm2.362-.747a.745.745 0 1 0-.012 1.49.745.745 0 0 0 .012-1.49z"/><path fill="#010101" d="M8.471 9.16a1.423 1.423 0 0 1-.35.223c-.314.148-.648.21-.991.226-.2.009-.398 0-.596-.029a2.303 2.303 0 0 1-.575-.156 1.266 1.266 0 0 1-.412-.263.173.173 0 0 0-.025-.021.182.182 0 0 0-.201-.012.185.185 0 0 0-.1.175c.001.05.019.092.054.126.045.043.091.087.14.124.18.137.383.232.597.3.315.103.64.14.969.147.136-.01.272-.017.408-.03.235-.02.464-.073.685-.152.206-.074.401-.172.575-.307a.832.832 0 0 0 .098-.087.179.179 0 0 0 .042-.182.191.191 0 0 0-.318-.083z"/></svg>