<svg xmlns="http://www.w3.org/2000/svg" viewBox="0 0 14 11.812"><path d="M11.032.78c.078-.016.812-.531.812-.531l.746.531.395.547-.395.828-1.162.172-.521-.657.125-.89zm.396 4.035l.708-.454.99.227.626.879-.142.794-.484.586zm-8.759-.113l-1.332-.341-.964.709-.142.836.369.695.318.246z" fill="#fff"/><ellipse cx="7.022" cy="7.66" rx="6.104" ry="3.901" fill="#fff"/><path d="M13.715 4.835a1.57 1.57 0 00-.972-.659c-.528-.116-1.002.011-1.421.353-.024-.013-.043-.022-.061-.033-.069-.041-.137-.083-.207-.123-.933-.527-1.94-.817-2.999-.942-.213-.025-.428-.033-.642-.05-.016-.001-.036.004-.05-.024.003-.012.005-.029.011-.046l.076-.216L8.226.89c.013-.037.018-.078.054-.109l2.236.537c.01.002.019.011.028.016.01.08.017.159.032.238.13.696.822 1.199 1.571 1.037a1.318 1.318 0 10-.708-2.535 1.315 1.315 0 00-.748.651c-.016.031-.021.071-.058.09-.029-.005-.058-.009-.086-.015C9.745.607 8.943.414 8.14.223 8.074.207 8.009.181 7.932.185c-.375 1.06-.745 2.12-1.121 3.181-.247.016-.487.025-.725.047a9.352 9.352 0 00-1.427.257 7.807 7.807 0 00-1.358.505c-.213.109-.422.226-.634.34a1.623 1.623 0 00-2.331.252c-.244.32-.36.683-.332 1.083.038.535.292.952.733 1.257a2.707 2.707 0 00-.007.069c-.011.123-.029.246-.031.37-.008.424.079.831.248 1.221.188.433.46.809.79 1.145.355.361.76.657 1.2.905.933.526 1.942.812 3.001.937a9.554 9.554 0 002.3-.024c.27-.036.539-.086.805-.148a7.615 7.615 0 001.761-.636 5.523 5.523 0 001.447-1.044c.329-.336.599-.713.786-1.147.118-.273.194-.557.226-.852.026-.24.025-.48-.013-.719-.003-.021 0-.043 0-.062.845-.569.94-1.61.465-2.287zM11.88.515c.399-.008.8.331.797.812a.808.808 0 01-1.614-.01c.003-.5.423-.82.817-.802zM.888 6.558c-.133-.073-.291-.32-.342-.541a1.078 1.078 0 01.153-.878c.394-.585 1.133-.598 1.524-.3-.591.467-1.063 1.016-1.335 1.719zm11.715 1.913a3.045 3.045 0 01-.554.91 4.575 4.575 0 01-1.145.937 6.68 6.68 0 01-1.605.675 7.974 7.974 0 01-1.002.214 8.61 8.61 0 01-1.535.092c-.2-.005-.4-.022-.6-.036a6.66 6.66 0 01-.832-.116c-.853-.167-1.663-.45-2.402-.918a4.402 4.402 0 01-1.04-.894 2.907 2.907 0 01-.578-1.057 2.45 2.45 0 01.184-1.835c.204-.402.489-.74.826-1.036.456-.4.975-.699 1.534-.931.482-.201.98-.344 1.493-.442a9.284 9.284 0 011.64-.159c.247.012.496.015.742.036.898.076 1.767.276 2.591.65.443.201.858.448 1.234.758.314.259.588.555.804.901.191.306.323.636.379.993a2.41 2.41 0 01-.134 1.258zm.494-1.895c-.269-.707-.741-1.259-1.325-1.725a.735.735 0 01.348-.173c.21-.048.42-.047.623.029.427.159.677.468.738.918.058.43-.177.819-.384.951z"/><path d="M5.985 6.85a.992.992 0 00-.99-.995.991.991 0 00-.997.988.988.988 0 00.99.995.987.987 0 00.997-.988zm3.15-.996a.994.994 0 00-1.002.984.987.987 0 00.985 1.001.985.985 0 001.001-.983.994.994 0 00-.984-1.002z" fill="#ef4b23"/><path d="M8.962 9.168c-.14.125-.299.219-.468.298-.418.197-.863.28-1.321.301a4.147 4.147 0 01-.795-.038 3.071 3.071 0 01-.766-.208 1.689 1.689 0 01-.549-.351.23.23 0 00-.034-.028c-.086-.057-.176-.067-.268-.016a.246.246 0 00-.133.234.232.232 0 00.071.167c.06.058.122.116.188.166.24.183.51.309.796.401.42.136.852.186 1.291.195.182-.013.363-.023.545-.039a3.66 3.66 0 00.913-.204c.275-.099.535-.229.767-.409a1.11 1.11 0 00.13-.116.238.238 0 00.056-.243.255.255 0 00-.423-.11z"/></svg>