<svg data-tags="ren ren" xmlns="http://www.w3.org/2000/svg" viewBox="0 0 14 14"><path fill="#2860a4" d="M0 0h14v14H0z"/><path d="M8.748 7.496s-.447 1.146-1.154 1.441a2.259 2.259 0 0 0 2.251.025 2.494 2.494 0 0 1-1.097-1.466Zm.345-2.731v1.804a3.033 3.033 0 0 0 1.402 1.847 2.258 2.258 0 0 0-1.402-3.65Zm-.718 1.788L8.368 4.77a2.257 2.257 0 0 0-1.364.78 2.257 2.257 0 0 1-.011 2.871l.002.004c.078-.046 1.322-.815 1.38-1.873Zm-3.088.936s-.451 1.15-1.162 1.443a2.258 2.258 0 0 0 2.233.017 2.476 2.476 0 0 1-1.071-1.46Z" fill="#fff"/><path d="M7.005 5.55a2.249 2.249 0 0 0-1.374-.797V6.56a2.846 2.846 0 0 0 1.358 1.866h.001l.004-.004a2.253 2.253 0 0 1 .011-2.871Zm-2.091.996L4.905 4.75A2.256 2.256 0 0 0 3.56 8.468a3.02 3.02 0 0 0 1.352-1.922Z" fill="#fff"/></svg>