<svg data-tags="renren" xmlns="http://www.w3.org/2000/svg" viewBox="0 0 14 14"><path d="M3.305 3.068C1.854 3.382.899 4.166.331 5.425c-.132.293-.222.604-.331.907v1.202c.228.7.409 1.424 1.053 2.055.463-.431.963-.8 1.342-1.267 1.27-1.565.865-3.42.91-5.254zM13.75 5.635c-.503-1.389-1.52-2.219-3.06-2.576v2.574c0 .919.267 1.759.779 2.515.401.591.903 1.071 1.598 1.366.913-1.203 1.187-2.486.683-3.879zm-11.498 4.86c.974.602 2.618.589 3.425-.008L3.975 8.338l-1.723 2.157zm6.031.028c1.154.543 2.355.562 3.485-.004l-1.735-2.168-1.75 2.172zM9.382 3.09c-1.008.138-1.742.636-2.385 1.27l-.004-.005-.007.009c-.981-.877-1.49-1.15-2.28-1.235-.63 2.585.567 5.655 2.258 6.278-.515-.649-.81-1.358-.883-2.141h-.006c-.011-.13.003-.252.003-.378s-.014-.248-.003-.378h.006c.073-.788.371-1.501.892-2.154.673.689.969 1.583.933 2.533.036.947-.259 1.838-.928 2.526l.015.007c.912-.482 1.711-1.265 2.075-2.203.518-1.336.241-2.721.314-4.129z" fill="#0860a8"/><path d="M6.984 4.364s-2.353 2.247-.01 5.05c0 0 2.509-2.263.01-5.05z" fill="#de202a"/></svg>