<svg data-tags="renren" xmlns="http://www.w3.org/2000/svg" viewBox="0 0 14 14"><path d="M8.033 10.368c1.23-.513 2.008-2.506 2.008-2.506a4.324 4.324 0 001.907 2.55 3.929 3.929 0 01-3.915-.044zm2.607-7.254a3.923 3.923 0 012.438 6.348 5.276 5.276 0 01-2.437-3.211V3.114zM9.392 6.223c-.1 1.838-2.264 3.176-2.399 3.257l-.004-.008a3.922 3.922 0 00.02-4.992 3.922 3.922 0 012.37-1.36zM4.02 7.85a4.309 4.309 0 001.864 2.54 3.927 3.927 0 01-3.883-.03c1.235-.51 2.019-2.51 2.019-2.51z"/><path d="M6.102 6.991a3.892 3.892 0 00.888 2.481l-.007.008h-.002a4.953 4.953 0 01-2.36-3.244V3.093A3.91 3.91 0 017.01 4.48a3.908 3.908 0 00-.908 2.511zM3.36 3.086l.013 3.124c-.1 1.806-2.159 3.215-2.352 3.343a3.924 3.924 0 012.34-6.467z"/></svg>