<svg data-tags="rivery" xmlns="http://www.w3.org/2000/svg" viewBox="0 0 14 14"><path d="m10.268.528 1.877 1.83c-1.532 3.503-.41 3.187-1.45 6.675-1.08 3.628-3.54 4.47-3.695 4.52-.154-.05-2.612-.892-3.694-4.52-1.038-3.485.08-3.172-1.448-6.675l1.89-1.83A6.627 6.627 0 0 0 7 1.116a6.711 6.711 0 0 0 3.268-.588Z" fill="#fff"/><path d="m10.344 0 2.324 2.272c-1.715 3.13-.342 4.711-2.154 8.376A6.459 6.459 0 0 1 7 14a6.467 6.467 0 0 1-3.514-3.352C1.677 6.983 3.05 5.401 1.332 2.272L3.669 0s.792.685 3.328.685C9.51.685 10.344 0 10.344 0Zm1.801 2.36L10.268.53a6.745 6.745 0 0 1-3.265.589A6.627 6.627 0 0 1 3.75.531L1.86 2.36c1.532 3.503.41 3.187 1.448 6.674 1.083 3.626 3.54 4.468 3.695 4.518.154-.05 2.611-.892 3.694-4.52 1.038-3.485-.084-3.169 1.448-6.672Z" fill="#010101"/><path d="M8.835 4.065a2.362 2.362 0 0 0-.452-.295v4.776a2.228 2.228 0 0 0 .452-.324v-.51a2.365 2.365 0 0 0 .774-1.2 2.321 2.321 0 0 0 .084-.622 2.366 2.366 0 0 0-.858-1.825Zm0 2.913V4.839a1.63 1.63 0 0 1 0 2.139ZM8.15 8.575l-.379-1.153a1.04 1.04 0 0 0 .38-.8V4.41a1.039 1.039 0 0 0-1.039-1.037h-.235V8.91s.24.002.437-.013v-1.3l.013.04.387 1.184a3.935 3.935 0 0 0 .436-.162c.008-.003.016-.008.024-.01Zm-.468-1.893a.368.368 0 0 1-.368.369v-3.02a.368.368 0 0 1 .368.369ZM4.99 6.139a1.98 1.98 0 0 0 .854 1.628v-.68a1.447 1.447 0 0 1-.337-.763h.612v1.6a1.94 1.94 0 0 0 .46.152V4.2A1.975 1.975 0 0 0 4.99 6.14Zm1.129-.246h-.601a1.359 1.359 0 0 1 .138-.418 1.392 1.392 0 0 1 .191-.285 1.47 1.47 0 0 1 .275-.251v.954Z" fill="#010101"/><path d="M4.712 6.139a2.284 2.284 0 0 0 1.867 2.25v.492a2.774 2.774 0 0 1 0-5.485v.492a2.286 2.286 0 0 0-1.867 2.25Z" fill="#010101"/><path d="M7.003 3.13A3.012 3.012 0 1 1 3.99 6.14 3.013 3.013 0 0 1 7.003 3.13m0-.057a3.07 3.07 0 1 0 2.17.9 3.04 3.04 0 0 0-2.17-.9Z" fill="#010101"/><path d="M5.646 12.272A8.217 8.217 0 0 1 3.494 8.39l.67-1.153a3.052 3.052 0 0 0 2.839 1.947 2.903 2.903 0 0 0 .452-.034Z" fill="#d93832"/><path d="M4.158 7.302A3.076 3.076 0 0 0 7 9.21a2.871 2.871 0 0 0 .397-.026l-1.76 3.038a6.89 6.89 0 0 1-1.432-1.987 8.606 8.606 0 0 1-.68-1.843l.633-1.09m.013-.136-.039.068-.67 1.15a8.166 8.166 0 0 0 2.192 3.932l1.82-3.14.038-.065a2.96 2.96 0 0 1-.51.042 3.012 3.012 0 0 1-2.83-1.987Z" fill="#010101"/><path d="M9.837 5.035a3.036 3.036 0 0 0-3.3-1.898l.96-1.655a7.394 7.394 0 0 0 2.698-.515l1.276 1.245Z" fill="#d93832"/><path d="m10.19 1.004 1.244 1.216-1.592 2.75a3.083 3.083 0 0 0-2.84-1.898 3.024 3.024 0 0 0-.407.026l.92-1.59a7.348 7.348 0 0 0 2.675-.504m.01-.07a7.23 7.23 0 0 1-2.719.517l-.96 1.657-.039.066a3.105 3.105 0 0 1 .52-.045 3.016 3.016 0 0 1 2.83 1.974l.039-.065 1.639-2.829L10.2.933ZM3.805 1.004a8.57 8.57 0 0 0 3.127.518h.06l-.96 1.654L6 3.234a1.8 1.8 0 0 0-.066.024 3.08 3.08 0 0 0-2.018 2.886 3.128 3.128 0 0 0 .044.52c.003.021.008.044.014.068l-.034.058-.555.954a10.442 10.442 0 0 1-.196-1.707 13.464 13.464 0 0 0-.144-1.457 12.91 12.91 0 0 0-.721-2.13l1.482-1.446m-.01-.07L2.258 2.436A13.535 13.535 0 0 1 2.99 4.59c.185 1.048.107 2.348.376 3.307l.625-1.08.044-.076-.015-.088a3.004 3.004 0 0 1 1.934-3.339l.087-.029.044-.076 1.012-1.743s-.06.002-.162.002a8.483 8.483 0 0 1-3.14-.536ZM11.481 2.97a10.33 10.33 0 0 0-.21.552 7.633 7.633 0 0 0-.446 2.394 10.652 10.652 0 0 1-.785 3.778A7.676 7.676 0 0 1 8.86 11.7 5.18 5.18 0 0 1 7 13.132a3.768 3.768 0 0 1-1.02-.622l1.966-3.404.034-.058a1.83 1.83 0 0 0 .066-.023 3.08 3.08 0 0 0 2.026-2.889 3.049 3.049 0 0 0-.047-.536l-.013-.068.034-.058L11.48 2.97m.246-.544-1.73 3.025-.045.076c.005.029.013.057.018.089a2.91 2.91 0 0 1 .047.525A3.016 3.016 0 0 1 8.03 8.975c-.029.01-.057.021-.084.029l-.044.076-1.995 3.445a3.858 3.858 0 0 0 1.096.672c3.072-1.356 3.882-5.495 3.882-7.28a8.55 8.55 0 0 1 .889-3.444l-.047-.047Z" fill="#010101"/></svg>