<svg data-tags="channel" xmlns="http://www.w3.org/2000/svg" viewBox="0 0 14 14"><path fill="none" d="M0 0h14v14H0z"/><path fill="#bb3532" fill-rule="evenodd" d="M6.8 5.58a.23.23 0 10-.23-.22.23.23 0 00.23.22zm0 .53a.23.23 0 10-.23-.23.23.23 0 00.23.23zm-.84-.13a.23.23 0 10.23-.23.23.23 0 00-.23.23zm1.46.2a.23.23 0 10-.23-.23.23.23 0 00.23.23zm.11-.52a.23.23 0 10-.23-.23.23.23 0 00.23.23zm-1.46.01a.23.23 0 10-.23-.23.23.23 0 00.23.23zM8 5.94a.22.22 0 00-.12.03.23.23 0 00-.1.2.23.23 0 00.1.2.24.24 0 00.12.03.23.23 0 100-.46zm.23-.5a.23.23 0 10.23.24.23.23 0 00-.23-.24zM7.88 6.5a2.22 2.22 0 00-2.13-.02l-.03.02c-.07.05-.1.1-.07.15.02.04.05.05.1.04a.35.35 0 00.05-.02 1.97 1.97 0 012.07 0l.01.01A.1.1 0 008 6.66a.12.12 0 00-.03-.12l-.08-.04z"/><path fill="#bb3532" fill-rule="evenodd" d="M7.86 6.74a1.9 1.9 0 00-2.03-.03c-.06.05-.08.1-.06.14.02.05.07.04.14.01a1.78 1.78 0 011.87.01.09.09 0 00.1-.02.1.1 0 00-.02-.1zm-2-.56a.23.23 0 00-.11-.2.23.23 0 00-.13-.03.23.23 0 100 .46.23.23 0 00.13-.03.23.23 0 00.1-.2zm-.26-.5a.23.23 0 00-.46 0 .23.23 0 00.46 0zm-1.2 1.7c.03-.1.02-.18-.04-.2a.18.18 0 00-.17-.05l-.04.02-.47.49-.49-.49a.16.16 0 00-.18 0 .16.16 0 00-.03.03.2.2 0 00-.03.24l.06.06.51.55v.69c.05.09.1.13.18.12a.17.17 0 00.17-.11v-.72l.32-.38.21-.26zm.82-.28a.17.17 0 00-.2.07l-.15.19-.68.93-.22.3a.18.18 0 00.07.21.23.23 0 00.15.04.25.25 0 00.08-.03l.25-.32H5v.22a.18.18 0 00.2.13.16.16 0 00.17-.15V7.24c-.01-.1-.06-.14-.14-.14zm-.35 1.02h-.1a1.3 1.3 0 01.1-.16 1.53 1.53 0 01.1-.12l.01.28h-.1zm-2.64-.99a.87.87 0 00-.84.67.86.86 0 000 .4.87.87 0 10.84-1.07zm0 1.34A.47.47 0 112.7 8a.47.47 0 01-.47.47z"/><path fill="#bb3532" fill-rule="evenodd" d="M1.39 8.6l-.28-.4.14-.15a.63.63 0 00.1-.38.55.55 0 00-.18-.36.5.5 0 00-.38-.16H.77a.74.74 0 00-.36.14.71.71 0 00-.2.3l.02 1.08c.02.14.09.21.2.2a.18.18 0 00.17-.14l.01-.45a.04.04 0 01.02-.05c.05 0 .06.04.08.08l.06.07.36.46a.2.2 0 00.22-.02.22.22 0 00.04-.05.17.17 0 000-.16V8.6zm-.62-.7a.2.2 0 11.2-.19.2.2 0 01-.2.2zm11.2-.8a.18.18 0 00-.19.16v1.42a.17.17 0 00.19.14.22.22 0 00.22-.15V7.25a.19.19 0 00-.21-.16zm1.63-.02a.18.18 0 00-.17.12v.85l-.55-.91a.23.23 0 00-.25-.04.23.23 0 00-.15.16v1.42c0 .1.06.14.18.13a.18.18 0 00.18-.13V7.8l.54.92a.2.2 0 00.2.08.22.22 0 00.21-.15V7.21a.19.19 0 00-.19-.13zm-2.27.02a.18.18 0 00-.18.12v.85l-.55-.92a.25.25 0 00-.4.13V8.7c0 .09.07.13.2.13a.18.18 0 00.17-.13v-.9l.53.92a.19.19 0 00.21.09.22.22 0 00.2-.16V7.22a.19.19 0 00-.18-.12zM8.39 8.27a.62.62 0 01-.33.19.4.4 0 01-.33-.08.5.5 0 01-.2-.27.62.62 0 01.01-.3.42.42 0 01.2-.24A.5.5 0 018 7.5a.57.57 0 01.32.14.2.2 0 00.26 0 .2.2 0 000-.26c-.01-.04-.13-.27-.6-.28a.86.86 0 00-.87.87.87.87 0 00.86.86c.48 0 .6-.22.65-.31a.19.19 0 00-.02-.21.18.18 0 00-.22-.04zm.85-.91l-.16-.2a.17.17 0 00-.19-.06.14.14 0 00-.14.14v1.45a.16.16 0 00.18.15.18.18 0 00.19-.13v-.22h.47l.25.32a.22.22 0 00.23-.01.18.18 0 00.07-.2l-.9-1.24zm0 .76h-.11v-.28a1.53 1.53 0 01.1.12 1.31 1.31 0 01.11.16h-.1zm-2.81.33h-.45V7.24c0-.2-.38-.19-.38 0v1.47c0 .06.03.09.07.1h.76c.19 0 .2-.37 0-.36z"/></svg>
