<svg xmlns="http://www.w3.org/2000/svg" viewBox="0 0 14 14"><circle fill="#19A1DD" cx="7" cy="7" r="7"/><g fill="#FFF"><path d="M5.991 7.786c.412-.218.606-.579.592-1.043-.013-.442-.24-.745-.643-.916-.143-.06-.293-.105-.44-.158-.188-.069-.39-.117-.562-.214a.615.615 0 0 1-.05-1.043.787.787 0 0 1 1.093.191c.092.126.177.258.279.376.037.044.111.058.169.085.021-.066.067-.135.06-.197a2.058 2.058 0 0 0-.098-.436.376.376 0 0 0-.156-.202c-.458-.23-.935-.278-1.41-.062-.388.176-.64.477-.661.916-.02.437.184.764.573.964.149.077.314.123.47.185.193.078.392.142.574.24.23.124.339.333.332.594.01.267-.11.449-.342.568-.42.215-.868.095-1.112-.31-.107-.178-.189-.371-.298-.548-.027-.045-.114-.053-.173-.078-.013.05-.042.103-.035.15.036.244.074.489.128.729a.31.31 0 0 0 .14.19c.518.26 1.048.296 1.57.02z"/><path d="M10.686 3.63c-.298-.173-.63-.198-.966-.105-.443.122-.747.412-.959.775-.19.324-.335.672-.484 1.015-.04.093-.077.131-.186.126-.174-.009-.349-.003-.523-.002-.194 0-.195 0-.192.195h.79c-.015.054-.025.093-.038.132-.163.497-.322.996-.49 1.491-.274.801-.548 1.602-.835 2.399a2.34 2.34 0 0 1-.506.848.862.862 0 0 1-.776.274c-.224-.032-.289-.109-.27-.316a.46.46 0 0 0 .001-.083c-.016-.174-.123-.263-.305-.254-.164.009-.27.115-.272.276-.003.204.15.386.41.481.314.114.636.11.957.04.525-.114.885-.436 1.11-.867.234-.45.436-.917.602-1.391.338-.967.644-1.944.959-2.918.028-.086.066-.12.164-.115.149.008.299.002.449.002.198 0 .198 0 .213-.197h-.723c.05-.155.085-.3.14-.437.115-.291.226-.585.368-.865.07-.138.188-.267.315-.365.248-.194.554-.14.738.106.07.096.131.199.21.288.094.106.25.131.35.065.122-.082.115-.204.048-.3a1 1 0 0 0-.299-.299z"/></g></svg>