<svg data-tags="salesforce,brand" xmlns="http://www.w3.org/2000/svg" viewBox="0 0 14 14"><path d="M.91 7.663q-.146-.675-.24-1.36a.817.817 0 01.065-.28c.11.046.272.061.323.145.203.33.357.69.557 1.022a1.51 1.51 0 002.076.58 1.068 1.068 0 00.638-1.06 1.156 1.156 0 00-.621-1.11 10.485 10.485 0 00-1.07-.447c-.292-.117-.6-.202-.878-.345a1.824 1.824 0 01-1.07-1.8 1.913 1.913 0 011.233-1.71 2.937 2.937 0 012.633.116.697.697 0 01.292.376 3.776 3.776 0 01.182.814.98.98 0 01-.113.368c-.107-.05-.245-.075-.315-.158-.189-.22-.348-.467-.52-.7a1.469 1.469 0 00-2.039-.359 1.148 1.148 0 00.091 1.947 7.042 7.042 0 001.05.4c.274.1.554.182.821.295a1.805 1.805 0 011.2 1.71 1.991 1.991 0 01-1.104 1.947 3.047 3.047 0 01-2.93-.035.585.585 0 01-.261-.356z"/><path d="M13.332 1.412a.52.52 0 01-.652-.122c-.147-.166-.26-.358-.393-.536a.931.931 0 00-1.377-.2 2.137 2.137 0 00-.587.681c-.266.523-.472 1.072-.688 1.616-.102.257-.169.525-.26.815h1.35c-.029.368-.029.368-.4.37-.28 0-.56.01-.838-.005a.258.258 0 00-.306.215c-.587 1.818-1.158 3.641-1.79 5.446a19.895 19.895 0 01-1.123 2.597 2.997 2.997 0 01-2.072 1.62 3.172 3.172 0 01-1.785-.077 1.002 1.002 0 01-.767-.898.498.498 0 01.508-.514.484.484 0 01.57.473.878.878 0 01-.003.155c-.034.388.086.53.505.59a1.61 1.61 0 001.448-.512 4.363 4.363 0 00.945-1.583q.797-2.231 1.557-4.476c.316-.925.612-1.857.916-2.784.023-.073.04-.146.069-.246H6.686c-.005-.365-.004-.365.358-.366.326 0 .652-.01.978.005.201.01.27-.06.346-.235a17.678 17.678 0 01.904-1.895A2.958 2.958 0 0111.062.1a2.288 2.288 0 011.803.195 1.874 1.874 0 01.559.56.37.37 0 01-.092.558z"/></svg>