<svg data-tags="salesforce, brand" xmlns="http://www.w3.org/2000/svg" viewBox="0 0 14 14"><path fill="#459fd9" d="M5.83 3.17A2.45 2.45 0 017.6 2.4a2.48 2.48 0 012.16 1.28 2.98 2.98 0 011.22-.26 3.04 3.04 0 010 6.09 3 3 0 01-.6-.06 2.2 2.2 0 01-2.88.9 2.52 2.52 0 01-4.68-.1 2.31 2.31 0 01-.48.04 2.37 2.37 0 01-1.17-4.4 2.72 2.72 0 014.66-2.73"/><path fill="#fff" d="M2.03 7.18v.03a.82.82 0 00.08.05.85.85 0 00.42.1c.29 0 .47-.15.47-.4 0-.23-.2-.31-.4-.37l-.02-.01c-.14-.05-.26-.09-.26-.18s.07-.15.18-.15a.83.83 0 01.37.1s.02.02.03-.01l.06-.16a.03.03 0 00-.01-.03.81.81 0 00-.41-.11H2.5a.4.4 0 00-.45.39c0 .24.2.32.4.37l.02.01c.14.04.26.08.26.18 0 .1-.08.16-.2.16a.68.68 0 01-.37-.1L2.12 7a.02.02 0 00-.04.01l-.05.16zm4.2 0v.03a.82.82 0 00.09.05.85.85 0 00.42.1c.28 0 .46-.15.46-.4 0-.23-.2-.31-.39-.37l-.02-.01c-.14-.05-.27-.09-.27-.18s.07-.15.19-.15a.83.83 0 01.36.1s.03.02.04-.01l.06-.16a.03.03 0 00-.02-.03.81.81 0 00-.4-.11H6.7a.4.4 0 00-.44.39c0 .24.2.32.39.37l.03.01c.14.04.26.08.26.18 0 .1-.08.16-.2.16a.68.68 0 01-.38-.1L6.33 7a.02.02 0 00-.04.01l-.06.16zM9.1 6.7a.6.6 0 01-.07.33.26.26 0 01-.24.11.25.25 0 01-.23-.11.74.74 0 010-.65.26.26 0 01.23-.12.26.26 0 01.24.12.59.59 0 01.07.32m.24-.26a.58.58 0 00-.1-.2.53.53 0 00-.2-.15.67.67 0 00-.5 0 .53.53 0 00-.19.14.59.59 0 00-.1.21.96.96 0 000 .52.58.58 0 00.1.2.51.51 0 00.18.15.68.68 0 00.52 0 .51.51 0 00.18-.14.58.58 0 00.11-.21.96.96 0 000-.52m1.97.66a.02.02 0 00-.03-.01.55.55 0 01-.11.03.87.87 0 01-.13.01.37.37 0 01-.28-.1.46.46 0 01-.1-.33.5.5 0 01.1-.32.31.31 0 01.26-.11.8.8 0 01.25.03s.02.01.03-.01l.06-.17a.02.02 0 00-.02-.03.93.93 0 00-.16-.04 1.2 1.2 0 00-.18 0 .65.65 0 00-.26.04.55.55 0 00-.2.14.6.6 0 00-.11.21.83.83 0 00-.04.26.69.69 0 00.16.48.6.6 0 00.47.17.98.98 0 00.34-.06.02.02 0 000-.02l-.05-.17zm.42-.53a.47.47 0 01.07-.2.26.26 0 01.23-.11.25.25 0 01.22.12.4.4 0 01.06.19zm.8-.17a.5.5 0 00-.1-.2.48.48 0 00-.15-.11.6.6 0 00-.23-.05.63.63 0 00-.27.06.53.53 0 00-.19.14.58.58 0 00-.1.2.91.91 0 00-.04.27.87.87 0 00.03.26.52.52 0 00.32.34.82.82 0 00.3.05.85.85 0 00.4-.09c.02 0 .03 0 .01-.03l-.05-.15a.02.02 0 00-.03-.02.78.78 0 01-.33.06.33.33 0 01-.37-.36h.8a.02.02 0 00.03-.02.87.87 0 00-.02-.35zm-7.3.17a.47.47 0 01.07-.2.26.26 0 01.23-.11.25.25 0 01.23.12.4.4 0 01.05.19zm.8-.17a.5.5 0 00-.1-.2.48.48 0 00-.15-.11.6.6 0 00-.23-.05.63.63 0 00-.27.06.53.53 0 00-.19.14.58.58 0 00-.1.2.92.92 0 00-.04.27.87.87 0 00.03.26.52.52 0 00.33.34.82.82 0 00.29.05.85.85 0 00.4-.09c.02 0 .03 0 .02-.03l-.06-.15a.02.02 0 00-.03-.02.78.78 0 01-.33.06.33.33 0 01-.37-.36h.8a.02.02 0 00.03-.02.87.87 0 00-.02-.35zm-2.55.7a.16.16 0 01-.05-.05.2.2 0 01-.02-.1.18.18 0 01.07-.16.36.36 0 01.23-.06 1.66 1.66 0 01.22.02v.37a1.65 1.65 0 01-.22.03.36.36 0 01-.23-.05m.32-.57h-.13a.77.77 0 00-.2.02.52.52 0 00-.17.08.38.38 0 00-.16.32.42.42 0 00.04.19.33.33 0 00.1.12.44.44 0 00.17.07.97.97 0 00.22.03 1.47 1.47 0 00.24-.03c.08 0 .18-.03.2-.03l.06-.02a.03.03 0 00.02-.03v-.74a.45.45 0 00-.13-.36.55.55 0 00-.37-.1 1.33 1.33 0 00-.22.01.78.78 0 00-.25.1.03.03 0 000 .03l.05.15a.02.02 0 00.03.01h.01a.82.82 0 01.36-.09.33.33 0 01.2.06c.04.03.06.08.06.19v.03l-.13-.01m6.54-.42a.02.02 0 000-.03.7.7 0 00-.14-.02.4.4 0 00-.21.03.37.37 0 00-.14.1v-.1a.02.02 0 00-.02-.02h-.21a.02.02 0 00-.02.02V7.3a.02.02 0 00.02.03h.21a.02.02 0 00.03-.03v-.6a.7.7 0 01.02-.21.3.3 0 01.08-.12.25.25 0 01.1-.06.4.4 0 01.1-.02.46.46 0 01.1.01c.01 0 .02 0 .02-.02l.06-.17"/><path fill="#fff" d="M8.34 5.55a.7.7 0 00-.08-.02.64.64 0 00-.1 0 .46.46 0 00-.35.12.67.67 0 00-.16.36l-.01.06h-.19a.03.03 0 00-.02.02l-.04.17c0 .02.01.03.03.03h.18L7.42 7.3a1.26 1.26 0 01-.05.2.4.4 0 01-.06.12.15.15 0 01-.07.05.3.3 0 01-.1.02.36.36 0 01-.06 0 .2.2 0 01-.05-.02.02.02 0 00-.02.01l-.06.17a.02.02 0 000 .03.66.66 0 00.08.02.5.5 0 00.12.01.6.6 0 00.2-.03.38.38 0 00.15-.1.54.54 0 00.1-.19 1.54 1.54 0 00.08-.27l.18-1.03h.27a.03.03 0 00.02-.03l.03-.17c0-.01 0-.02-.02-.02H7.9a1.13 1.13 0 01.04-.19A.24.24 0 018 5.8a.17.17 0 01.07-.04.28.28 0 01.08-.02.34.34 0 01.07.01l.04.01.04-.01.06-.17a.02.02 0 00-.02-.03M4.72 7.3a.02.02 0 01-.02.03h-.22a.02.02 0 01-.02-.03V5.57a.02.02 0 01.02-.02h.22a.02.02 0 01.02.02V7.3z"/></svg>