<svg data-tags="brand" xmlns="http://www.w3.org/2000/svg" viewBox="0 0 300 300"><circle fill="#227AFF" cx="150" cy="150" r="150"/><path fill="#FFF" d="M95.623 104.452v.322s.003-.128.018-.322h-.018zm2.815 28.533l-4.934-5.189s-3.892-3.737-8.829-3.737c-4.934 0-11.519 3.014-13.087 12.221v63.41c.831 12.52 11.308 22.452 24.038 22.452s23.204-9.933 24.035-22.452V154.5c-.547-.573-1.045-1.059-1.625-1.686l-19.598-19.829zm129.6-28.474c-.406-7.84-2.943-12.232-6.104-16.215-3.438-4.34-11.516-10.594-21.843-10.594-12.194 0-20.049 8.185-20.049 8.185-3.141 2.616-15.303 15.106-20.034 19.994 1.094-.778 3.307-1.926 6.947-1.926 5.463 0 13.087 4.492 13.087 12.648v83.146c.834 12.525 11.311 22.458 24.035 22.458 12.727 0 23.203-9.933 24.037-22.458v-95.238h-.076z"/><path fill="#AEDCFF" d="M166.961 103.949c-3.632 0-5.854 1.153-6.947 1.926-.551.386-.832.69-.832.69s-3.613 4.969-8.899 4.969c-5.288 0-7.182-2.496-7.182-2.496l-20.845-21.053c-9.971-10.082-17.254-9.982-17.254-9.982-10.421-1.539-17.032 2.294-17.032 2.294-14.641 6.702-16.204 21.849-16.361 24.146l-.021.319v31.503c1.568-9.204 8.153-12.221 13.087-12.221 4.937 0 8.829 3.737 8.829 3.737l4.934 5.186 19.598 19.835c.585.627 1.08 1.106 1.625 1.686 9.663 10.056 14.082 11.706 14.082 11.706 4.492 2.698 10.995 3.898 16.982 3.898 5.984 0 11.969-2.4 11.969-2.4 7.103-1.791 17.354-13.169 17.354-13.169v-37.925c0-8.157-7.63-12.649-13.087-12.649z"/></svg>