<svg data-tags="samsung" xmlns="http://www.w3.org/2000/svg" viewBox="0 0 14 14"><path d="M8.24 5.25a.5.5 0 00-.6-.25.34.34 0 00-.1.05.75.75 0 01-.52.28.54.54 0 01-.43-.16l-.97-.97a1.2 1.2 0 00-1.45-.34 1.25 1.25 0 00-.7 1.02v.97l.04-.02a.65.65 0 01.1-.06.75.75 0 01.12-.06.7.7 0 01.17-.03l.06-.01a.8.8 0 01.5.2l.23.25 1 1a2.39 2.39 0 00.6.52 1.52 1.52 0 00.75.18 1.59 1.59 0 00.51-.1 2.14 2.14 0 00.73-.55V5.44a.43.43 0 00-.04-.2z"/><path d="M4.28 6.05a.55.55 0 00-.32-.13.5.5 0 00-.49.47v2.93a1 1 0 002 0V7.25l-.05-.04zm5.99-1.85a1.25 1.25 0 00-.93-.44 1.27 1.27 0 00-.84.34c-.1.08-.4.39-.64.63a.79.79 0 01.1.03.73.73 0 01.1.03.83.83 0 01.13.07.75.75 0 01.1.06.72.72 0 01.11.14.63.63 0 01.06.08.67.67 0 01.07.3v3.89a1 1 0 002-.01V4.89a1.08 1.08 0 00-.26-.69z"/><path d="M13.96 6.08a9.81 9.81 0 00-.39-2.45A4.62 4.62 0 009.9.29 13.9 13.9 0 006.05.03a9.35 9.35 0 00-2.8.52 4.45 4.45 0 00-2.8 3.02 9.84 9.84 0 00-.38 1.96c0 .86-.05 1.88-.05 2.73a4.28 4.28 0 01.14.89 6.56 6.56 0 001.01 2.74 4.48 4.48 0 002.37 1.64 9.42 9.42 0 002.36.42c.06 0 .08-.02.18 0l.7-.01a2.07 2.07 0 00.42 0h.6a7.6 7.6 0 00.78-.03 8.53 8.53 0 002.56-.65 4.4 4.4 0 002.4-2.84 12.65 12.65 0 00.42-4.34zm-3.18 3.25a1.25 1.25 0 01-2.5 0V7.51a1.78 1.78 0 01-1.24.56 1.73 1.73 0 01-.86-.2 2.01 2.01 0 01-.46-.36v1.81a1.25 1.25 0 01-2.5.01V4.9a1.5 1.5 0 01.84-1.25 1.4 1.4 0 01.87-.12 1.36 1.36 0 01.87.5l.97.98a.31.31 0 00.25.08.46.46 0 00.32-.18.54.54 0 01.04-.04c.24-.24.8-.82.95-.94a1.5 1.5 0 011.01-.41 1.48 1.48 0 011.12.54 1.31 1.31 0 01.3.7h.02z"/></svg>