<svg data-tags="samsung" xmlns="http://www.w3.org/2000/svg" viewBox="0 0 14 14"><path fill="#3a7bf5" d="M13.96 6.1a9.8 9.8 0 00-.39-2.45A4.62 4.62 0 009.9.31 13.9 13.9 0 006.05.05a9.35 9.35 0 00-2.8.53 4.45 4.45 0 00-2.8 3.01 9.84 9.84 0 00-.38 1.97c0 .85-.05 1.87-.05 2.73a4.28 4.28 0 01.14.88 6.55 6.55 0 001.01 2.75 4.48 4.48 0 002.37 1.64 9.42 9.42 0 002.36.42c.06 0 .08-.03.18 0l.7-.02a2.07 2.07 0 00.42 0h.6a7.6 7.6 0 00.78-.03 8.54 8.54 0 002.56-.65 4.4 4.4 0 002.4-2.84 12.65 12.65 0 00.42-4.33z"/><path fill="#fff" d="M4.47 4.88v.01-.01zM4.6 6.2l-.23-.24a.67.67 0 00-.41-.18.62.62 0 00-.61.57v2.96a1.12 1.12 0 002.24 0v-2.1l-.07-.09zm6.05-1.33a1.2 1.2 0 00-.29-.76 1.37 1.37 0 00-1.02-.49 1.4 1.4 0 00-.93.38c-.15.12-.72.7-.94.93a.55.55 0 01.33-.09.62.62 0 01.6.6v3.88a1.12 1.12 0 002.25 0V4.88z"/><path fill="#b6dafb" d="M7.8 4.85a.55.55 0 00-.33.1.26.26 0 00-.03.03.58.58 0 01-.42.23.42.42 0 01-.33-.12l-.98-.98a1.27 1.27 0 00-.8-.47 1.3 1.3 0 00-.8.11 1.36 1.36 0 00-.76 1.13v1.48a.62.62 0 01.6-.57.67.67 0 01.42.18l.23.24.92.92.07.08a2.3 2.3 0 00.66.55 1.62 1.62 0 00.8.18 1.73 1.73 0 00.55-.11 2.46 2.46 0 00.8-.62V5.44a.62.62 0 00-.6-.59z"/></svg>