<svg data-tags="samsung" xmlns="http://www.w3.org/2000/svg" viewBox="0 0 14 14"><path fill="#3a7bf5" d="M0 0h14v14H0z"/><path fill="#fff" d="M4.47 4.88v.01-.01zM4.6 6.2l-.23-.24a.67.67 0 00-.41-.18.62.62 0 00-.61.57v2.96a1.12 1.12 0 002.24 0v-2.1l-.07-.09zm6.05-1.33a1.2 1.2 0 00-.29-.76 1.37 1.37 0 00-1.02-.49 1.4 1.4 0 00-.93.38c-.15.12-.72.7-.94.93a.55.55 0 01.33-.09.62.62 0 01.6.6v3.88a1.12 1.12 0 002.25 0V4.88z"/><path fill="#b6dafb" d="M7.8 4.85a.55.55 0 00-.33.1.26.26 0 00-.03.03.58.58 0 01-.42.23.42.42 0 01-.33-.12l-.98-.98a1.27 1.27 0 00-.8-.47 1.3 1.3 0 00-.8.11 1.36 1.36 0 00-.76 1.13v1.48a.62.62 0 01.6-.57.67.67 0 01.42.18l.23.24.92.92.07.08a2.3 2.3 0 00.66.55 1.62 1.62 0 00.8.18 1.73 1.73 0 00.55-.11 2.46 2.46 0 00.8-.62V5.44a.62.62 0 00-.6-.59z"/></svg>