<svg data-tags="SAP,brand" xmlns="http://www.w3.org/2000/svg" viewBox="0 0 14 14"><defs/><defs><linearGradient id="brandSapCircleClr__a" x1="7" x2="7" y1="14" gradientUnits="userSpaceOnUse"><stop offset="0" stop-color="#225fbc"/><stop offset="1" stop-color="#1fb2f0"/></linearGradient></defs><circle cx="7" cy="7" r="7" fill="url(#brandSapCircleClr__a)"/><path fill="#fff" fill-rule="evenodd" d="M9.772 5.078H8.535v2.941l-1.08-2.941H6.382l-.923 2.46c-.098-.62-.74-.835-1.244-.996-.334-.106-.687-.264-.683-.438.002-.143.19-.275.56-.255a2.021 2.021 0 01.904.244l.43-.749a3.35 3.35 0 00-1.4-.332h-.004a1.702 1.702 0 00-1.237.452 1.045 1.045 0 00-.296.722.969.969 0 00.425.864 2.902 2.902 0 00.841.385c.343.106.624.198.62.395a.284.284 0 01-.08.193.544.544 0 01-.4.126 1.713 1.713 0 01-1.024-.293l-.382.759a2.857 2.857 0 001.4.373l.065-.001A1.692 1.692 0 005.02 8.63l.045-.04-.124.333h1.123l.189-.574a2.145 2.145 0 001.305.005l.182.569h1.832V7.735h.4c.966 0 1.538-.492 1.538-1.317 0-.918-.555-1.34-1.738-1.34zM6.913 7.595a1.122 1.122 0 01-.396-.07l.392-1.236h.008l.384 1.24a1.143 1.143 0 01-.388.066zm2.932-.71h-.273v-.998h.273c.364 0 .653.12.653.493 0 .384-.29.504-.653.504"/></svg>
