<svg data-tags="channel, sap, Hybris" xmlns="http://www.w3.org/2000/svg" viewBox="0 0 14 14"><path fill="#3c75b6" d="M4.6 6.52v-.68c0-.06.02-.07.07-.07h.21c.05 0 .06.01.06.05v.46c0 .05.01.07.06.07h.46c.04 0 .05 0 .05-.05v-.45c0-.06.02-.08.07-.07h.2c.04 0 .06.01.06.06V7.2c0 .05-.02.07-.07.05h-.2c-.06 0-.06 0-.06-.07v-.5c0-.06 0-.07-.07-.07H5c-.06 0-.07.01-.07.07v.5c0 .05-.02.07-.07.06h-.2c-.06 0-.07-.01-.07-.07l.01-.66Z"/><path fill="#e4ac44" d="M13.43 7.87h-.27c-.04 0-.05-.02-.05-.06v-.2c0-.05 0-.08.05-.08h.3c.04 0 .05-.01.07-.05a3.56 3.56 0 0 0 .12-1.28 3.26 3.26 0 0 0-.11-.64c-.01-.05-.03-.07-.08-.07l-.29-.02c-.04 0-.06-.01-.05-.07v-.2c0-.04.01-.05.06-.05.18.01.36.01.53.03.04 0 .04.03.05.05a3.66 3.66 0 0 1 .2.77 3.96 3.96 0 0 1-.14 1.67c-.06.18-.06.18-.25.18a.43.43 0 0 1-.14.02ZM11.56 6.54a3.93 3.93 0 0 1 .23-1.28c.01-.05.04-.07.1-.07l.49-.03c.05 0 .07.02.07.07v.19c0 .05-.02.07-.07.07l-.28.01c-.05 0-.06.01-.06.04a3.62 3.62 0 0 0-.13 1.22 3.7 3.7 0 0 0 .12.69.1.1 0 0 0 .1.08h.26c.04 0 .06.01.06.06v.2c0 .05-.02.06-.06.06l-.53-.01c-.04 0-.06-.03-.07-.06a2.84 2.84 0 0 1-.2-.82l-.03-.42Z"/><path fill="#3c75b6" d="M.63 7.3A.68.68 0 0 1 0 6.96c-.03-.04-.03-.06.02-.08v-.02c.07-.03.1-.08.18-.08.07-.02.07.08.12.12a.46.46 0 0 0 .42.1c.09-.03.14-.07.14-.14a.15.15 0 0 0-.1-.15 1.77 1.77 0 0 0-.26-.09 2.04 2.04 0 0 1-.27-.1.4.4 0 0 1-.02-.68.7.7 0 0 1 .9.17c.03.04.03.05 0 .07 0 .01-.02.01-.02.03a.32.32 0 0 1-.14.1c-.07 0-.09-.08-.13-.1a.42.42 0 0 0-.36-.07.15.15 0 0 0-.11.1c-.02.08.02.12.08.16a1.87 1.87 0 0 0 .25.1 1.65 1.65 0 0 1 .28.1.4.4 0 0 1 .03.7.8.8 0 0 1-.4.08ZM6 6.2h.26c.05 0 .07.01.08.06l.18.54c.02.03.02.06.05.07l.2-.61c.02-.05.03-.07.09-.06h.25l-.2.56-.23.59a.42.42 0 0 1-.52.32c-.2-.01-.18-.01-.14-.2.01-.06.04-.1.11-.06a.39.39 0 0 0 .13 0 .13.13 0 0 0 .12-.19c-.1-.3-.24-.61-.35-.92A.69.69 0 0 1 6 6.2ZM10.36 6.19a.67.67 0 0 1 .4.1c.02.04.05.05 0 .1a.44.44 0 0 1-.1.12c-.03.01-.08-.04-.12-.06a.48.48 0 0 0-.24-.04c-.04.01-.08.03-.1.08a.1.1 0 0 0 .09.1l.24.06.11.03a.27.27 0 0 1 .2.22.33.33 0 0 1-.13.32.66.66 0 0 1-.46.09.87.87 0 0 1-.34-.12c-.04-.02-.05-.04-.01-.08.03-.04.05-.1.08-.11.04-.02.09.04.13.05a.58.58 0 0 0 .3.06.1.1 0 0 0 .12-.1.1.1 0 0 0-.1-.1 1.3 1.3 0 0 1-.22-.07c-.05 0-.07 0-.12-.02a.27.27 0 0 1-.2-.24.3.3 0 0 1 .16-.31.39.39 0 0 1 .31-.08Z"/><path fill="#e4ac44" d="m12.78 6.37.13-.32a.08.08 0 0 1 .08-.06 1.78 1.78 0 0 0 .28.01 5.41 5.41 0 0 1-.28.72.13.13 0 0 0 0 .14l.17.32h-.34c-.02 0-.04-.01-.05-.04a5.33 5.33 0 0 1-.46-1.1c-.02-.04 0-.05.04-.05a1.2 1.2 0 0 0 .22-.01c.04 0 .06.01.07.05a3.15 3.15 0 0 1 .11.34Z"/><path fill="#3c75b6" d="M8.85 6.37a.42.42 0 0 1 .22-.17l.04-.01c.1-.02.1-.02.1.08v.03c0 .05.02.11-.01.14-.03.04-.09 0-.13.01a.37.37 0 0 0-.2.1.13.13 0 0 0-.04.1v.54c0 .06-.01.07-.05.07h-.21c-.04 0-.06 0-.06-.04v-.98c0-.04.02-.04.04-.04h.21c.05 0 .07.01.06.06a.17.17 0 0 1 .03.1ZM9.38 6.73v-.46c0-.06.01-.07.07-.07h.21c.04 0 .06.01.06.06v.96c0 .04-.02.06-.06.06h-.21c-.04 0-.06-.02-.06-.06l-.01-.49ZM9.55 5.8c.15 0 .15 0 .15.16 0 .1 0 .1-.1.1h-.18c-.04 0-.05-.01-.05-.06v-.04c.01-.17.01-.17.18-.17ZM8.25 6.4a.37.37 0 0 0-.6-.1c-.02.01-.03.04-.06.04V5.9c0-.1 0-.1-.11-.1-.07 0-.16-.04-.2 0s-.01.13-.01.2v1.2c0 .03-.02.07.04.07h.24a.04.04 0 0 0 .04-.04v-.08l.07.05a.4.4 0 0 0 .59-.14.69.69 0 0 0 0-.65Zm-.28.51c-.03.07-.07.13-.14.13a.3.3 0 0 1-.24-.08c-.02-.02-.02-.03-.02-.06v-.25a.18.18 0 0 1 .17-.2.18.18 0 0 1 .23.14.43.43 0 0 1 0 .32ZM3.54 5.8c-.22-.03-.45 0-.66-.02-.05 0-.07.01-.07.07v1.36c0 .05.02.07.07.07h.2c.05 0 .07-.02.07-.07v-.4c0-.06.01-.08.07-.08a1.59 1.59 0 0 0 .36-.01.45.45 0 0 0 .35-.24.48.48 0 0 0-.39-.69Zm-.06.67a1.27 1.27 0 0 1-.32.01c-.03 0-.03-.03-.03-.04v-.35c0-.03 0-.04.05-.04a1.14 1.14 0 0 1 .3.01.18.18 0 0 1 .16.2c0 .12-.04.18-.16.2ZM2.62 7.18l-.45-1.26c-.06-.14-.06-.14-.21-.14h-.11a.08.08 0 0 0-.07.04l-.5 1.4c0 .05 0 .06.05.06h.2c.04 0 .05-.01.06-.06A1.38 1.38 0 0 0 1.66 7a.08.08 0 0 1 .09-.06h.33c.09 0 .13.02.14.1a.44.44 0 0 0 .09.23c.05.04.15 0 .24 0 .1 0 .1 0 .07-.09Zm-.55-.48h-.25c-.03 0-.04 0-.03-.04.06-.15.1-.3.17-.46.05.17.11.3.15.46 0 .03 0 .04-.04.04Z"/></svg>
