<svg xmlns="http://www.w3.org/2000/svg" viewBox="0 0 14 14"><path fill="#3c75b6" d="M10.34 14H8.97c-.21 0-.29-.07-.29-.29v-1.08c0-.22.08-.36.3-.36h1.5c.23 0 .3-.07.37-.29a18.36 18.36 0 00.65-6.57 16.8 16.8 0 00-.58-3.32c-.07-.21-.14-.36-.43-.36-.5 0-.94-.07-1.44-.07-.22 0-.37-.07-.3-.36V.29c0-.22.08-.29.3-.29.93.07 1.87.07 2.74.14.21 0 .21.15.29.3a18.85 18.85 0 011 3.96 20.38 20.38 0 01-.71 8.59c-.3.94-.3.94-1.3.94a2.23 2.23 0 01-.73.07zM.75 7.14A20.28 20.28 0 011.9.58c.07-.3.22-.36.5-.36.87 0 1.67-.08 2.53-.15.3 0 .36.07.36.36v.94c0 .29-.07.36-.36.36-.5 0-.94.07-1.44.07-.22 0-.29.08-.29.22a18.63 18.63 0 00-.65 6.28 19.05 19.05 0 00.58 3.54.48.48 0 00.5.43H5c.22 0 .3.07.3.29v1.08c0 .22-.08.29-.3.29-.93 0-1.8-.07-2.74-.07-.21 0-.29-.15-.36-.3a14.66 14.66 0 01-1-4.25C.81 8.66.81 7.87.74 7.14z"/><path fill="#3c75b6" d="M7.02 6.28c.22-.58.44-1.16.65-1.66a.4.4 0 01.44-.29 9.2 9.2 0 001.44.07 27.9 27.9 0 01-1.44 3.68.66.66 0 000 .72c.29.5.57 1.09.86 1.66H7.24c-.14 0-.22-.07-.29-.21a27.45 27.45 0 01-2.38-5.63c-.07-.22 0-.29.22-.29a6.2 6.2 0 001.15-.07c.22 0 .3.07.36.29a16.22 16.22 0 01.58 1.73z"/></svg>