<svg data-tags="sepaDirectDebit" xmlns="http://www.w3.org/2000/svg" viewBox="0 0 14 14"><path d="M0 0h14v14H0Z" fill="#10298d" fill-rule="evenodd"/><path d="M12.025 8.059h-1.203l-.162.587h-.93l1.003-3.396h1.358l1.017 3.396h-.91l-.173-.587Zm-.179-.662-.421-1.471-.41 1.471ZM7.273 8.646V5.25H8.95a1.866 1.866 0 0 1 .526.057.826.826 0 0 1 .556.54 2.123 2.123 0 0 1 .073.642 2.436 2.436 0 0 1-.08.744.758.758 0 0 1-.664.514q-.059.01-.501.017l-.15.005h-.537v.877Zm.9-1.665h.56a1.008 1.008 0 0 0 .326-.042.246.246 0 0 0 .106-.178 1.508 1.508 0 0 0 .018-.265 1.09 1.09 0 0 0-.035-.32.268.268 0 0 0-.232-.178 1.712 1.712 0 0 0-.175-.005h-.568Zm-4.58-.647h-.837a.56.56 0 0 0-.048-.281c-.05-.071-.188-.106-.412-.106a1.007 1.007 0 0 0-.434.06q-.106.062-.106.267a.267.267 0 0 0 .094.244.398.398 0 0 0 .178.049l.17.011q.338.022.677.052a1.02 1.02 0 0 1 .622.232.617.617 0 0 1 .181.383 2.806 2.806 0 0 1 .016.32 1.718 1.718 0 0 1-.076.6.766.766 0 0 1-.629.442 3.623 3.623 0 0 1-.626.039 3.757 3.757 0 0 1-.98-.086.643.643 0 0 1-.448-.424 2.035 2.035 0 0 1-.06-.592h.838v.071q0 .221.125.285a.482.482 0 0 0 .209.046h.308a1.11 1.11 0 0 0 .3-.025.25.25 0 0 0 .152-.148.604.604 0 0 0 .02-.164c0-.15-.055-.24-.162-.273a4.879 4.879 0 0 0-.56-.054q-.28-.016-.557-.056A.741.741 0 0 1 1 6.904a1.276 1.276 0 0 1-.12-.626 1.657 1.657 0 0 1 .065-.512.558.558 0 0 1 .21-.293 1.047 1.047 0 0 1 .54-.18q.305-.026.61-.025a3.183 3.183 0 0 1 .75.062.753.753 0 0 1 .547.835q-.002.084-.008.168Z" fill="#fff" fill-rule="evenodd"/><path d="M6.031 5.728a1.176 1.176 0 0 1 .92.446l.195-.423a1.69 1.69 0 0 0-2.736.58h-.378l-.224.486h.487a1.697 1.697 0 0 0 .002.302h-.245l-.223.486h.592a1.693 1.693 0 0 0 2.501.732v-.596a1.172 1.172 0 0 1-1.882-.135h1.239l.224-.487H4.857a1.263 1.263 0 0 1-.007-.302h1.79l.224-.486h-1.86a1.183 1.183 0 0 1 1.027-.603" fill="#ffcc02" fill-rule="evenodd"/></svg>