<svg data-tags="channel, shutter Stock" xmlns="http://www.w3.org/2000/svg" viewBox="0 0 14 14"><path fill="#717073" d="M8.32 7.12l-.11-.02c-.11-.02-.2-.05-.2-.16 0-.1.1-.14.22-.14a.88.88 0 01.37.09l.1-.27a1 1 0 00-.47-.11.48.48 0 00-.53.44c0 .28.2.37.4.4l.13.03c.13.02.2.07.2.16 0 .1-.1.16-.26.16a1 1 0 01-.43-.1l-.11.27a1.08 1.08 0 00.53.12c.32 0 .58-.16.58-.46 0-.27-.2-.38-.42-.41m.98-1.11l-.3.17v.36h-.16v.29H9v.62a.45.45 0 00.5.5h.11v-.28h-.04a.24.24 0 01-.27-.26v-.58h.35v-.3H9.3v-.52zm2.36.79a.27.27 0 01.28.19l.27-.1a.54.54 0 00-.55-.38.5.5 0 00-.56.49v.5a.5.5 0 00.56.48.54.54 0 00.55-.37l-.27-.1a.27.27 0 01-.28.18c-.2 0-.26-.11-.26-.24v-.4c0-.13.06-.25.26-.25m1.29.37l.57-.63h-.37l-.49.55V6.01h-.3v1.95h.3V7.5l.1-.11.43.57h.37l-.61-.79z"/><path fill="#db4433" d="M10.5 6.85h-.32a.1.1 0 00-.1.09v.34h-.3v-.34a.4.4 0 01.4-.4h.31v.3zm-.26.8h.31a.1.1 0 00.1-.1v-.33h.3v.34a.4.4 0 01-.4.4h-.31zM5.1 6.54h.36v.29H5.1v.58a.24.24 0 00.27.26h.04v.29H5.3a.45.45 0 01-.5-.5v-.63h-.5v.58a.24.24 0 00.27.26h.04v.29H4.5a.45.45 0 01-.5-.5v-.63h-.15v-.3H4v-.35l.3-.17v.53h.52v-.36l.3-.17zM1.84 6.5a.72.72 0 00-.28.06v-.55h-.3v1.95h.3V6.85a.46.46 0 01.24-.06.25.25 0 01.28.26v.9h.3v-.94a.5.5 0 00-.54-.5m1.54 1.16a.44.44 0 01-.2.05c-.23 0-.32-.11-.32-.27v-.91h-.3v.92c0 .35.2.52.58.52a1.41 1.41 0 00.54-.11V6.54h-.3v1.13zM.7 7.12L.58 7.1c-.1-.02-.2-.05-.2-.16 0-.1.1-.14.22-.14a.88.88 0 01.37.09l.1-.27a.99.99 0 00-.46-.11.48.48 0 00-.54.44c0 .28.2.37.4.4l.13.03c.13.02.2.07.2.16 0 .1-.1.16-.25.16a1 1 0 01-.44-.1L0 7.88A1.08 1.08 0 00.53 8c.32 0 .58-.16.58-.46 0-.27-.19-.38-.41-.41m6-.13a.5.5 0 00-.55-.5.5.5 0 00-.56.5v.47a.5.5 0 00.56.52.55.55 0 00.52-.3l-.26-.14a.28.28 0 01-.26.15c-.18 0-.26-.1-.26-.24v-.08h.82zm-.3.14h-.5v-.1a.23.23 0 01.25-.24.22.22 0 01.25.23zM6.9 7v.96h.3v-.94c0-.08.05-.22.27-.22a1.13 1.13 0 01.14.02v-.3a.76.76 0 00-.16-.01.5.5 0 00-.55.49"/><path fill="#717073" d="M13.8 6.54v.03h-.06v.16h-.03v-.16h-.06v-.03h.15zm.05.19h-.03v-.19h.04l.05.12.05-.12H14v.19h-.03v-.14l-.01.04-.04.08h-.02l-.03-.08-.02-.04v.14z"/></svg>
