<svg data-tags="channel, siemens" xmlns="http://www.w3.org/2000/svg" viewBox="0 0 14 14"><path fill="#4ba7ab" fill-rule="evenodd" d="M.04 8.02V7.6a2.16 2.16 0 00.64.12q.38 0 .38-.2a.16.16 0 00-.05-.13 1.15 1.15 0 00-.3-.15 1.97 1.97 0 01-.54-.3.54.54 0 01-.17-.4.55.55 0 01.24-.48 1.08 1.08 0 01.62-.16 3.5 3.5 0 01.61.08v.4a1.5 1.5 0 00-.55-.12q-.36 0-.36.2a.14.14 0 00.07.12q.06.04.34.16a1.9 1.9 0 01.51.3.53.53 0 01.16.39.58.58 0 01-.3.52 1.21 1.21 0 01-.64.15 2.92 2.92 0 01-.66-.08zm1.93.04V5.94h.6v2.12zm1.15 0V5.94h1.52v.38H3.7v.48h.83v.35H3.7v.5h.98v.4zm1.94 0V5.94h.77l.54 1.35.55-1.35h.73v2.12h-.57v-1.5l-.62 1.52h-.37l-.61-1.52v1.5zm3.14 0V5.94h1.52v.38h-.95v.48h.83v.35h-.83v.5h.98v.4zm1.94 0V5.94h.69l.73 1.42V5.94h.42v2.12h-.67l-.75-1.44v1.44zm2.26-.04V7.6a2.14 2.14 0 00.64.12q.38 0 .38-.2a.17.17 0 00-.05-.13 1.14 1.14 0 00-.3-.15 1.95 1.95 0 01-.54-.3.59.59 0 01.07-.88 1.08 1.08 0 01.62-.16 2.99 2.99 0 01.56.07h.05v.41a1.5 1.5 0 00-.55-.12q-.36 0-.36.2a.14.14 0 00.08.12l.33.16a1.93 1.93 0 01.52.3.53.53 0 01.15.39.58.58 0 01-.3.52 1.22 1.22 0 01-.63.15 2.92 2.92 0 01-.67-.08z"/></svg>
