<svg data-tags="signal chat channel,brand" xmlns="http://www.w3.org/2000/svg" viewBox="0 0 14 14"><circle cx="7.009" cy="6.951" r="7" fill="#3a76f0"/><path fill="#fff" d="M6.116 2.744l.093.374a3.715 3.715 0 00-1.033.427l-.198-.33a4.095 4.095 0 011.138-.47zm1.973 0l-.093.374a3.715 3.715 0 011.033.427l.2-.33a4.095 4.095 0 00-1.14-.47zM3.583 4.61a4.094 4.094 0 00-.47 1.137l.373.093a3.714 3.714 0 01.427-1.033zm-.205 2.124a3.718 3.718 0 01.041-.558l-.38-.058a4.124 4.124 0 000 1.232l.38-.058a3.718 3.718 0 01-.041-.558zm5.849 3.519l-.198-.33a3.714 3.714 0 01-1.031.427l.092.373a4.095 4.095 0 001.137-.47zm1.6-3.52a3.718 3.718 0 01-.041.559l.38.058a4.124 4.124 0 000-1.232l-.38.058a3.718 3.718 0 01.041.558zm.266.987l-.374-.092a3.714 3.714 0 01-.427 1.032l.33.2a4.094 4.094 0 00.47-1.14zM7.66 10.417a3.751 3.751 0 01-1.117 0l-.057.381a4.125 4.125 0 001.231 0zm2.44-1.474a3.738 3.738 0 01-.79.789l.23.31a4.117 4.117 0 00.87-.868zm-.79-5.207a3.738 3.738 0 01.79.789l.31-.231a4.116 4.116 0 00-.868-.869zm-5.207.789a3.738 3.738 0 01.79-.79l-.232-.31a4.116 4.116 0 00-.868.869zm6.518.085l-.33.197a3.714 3.714 0 01.427 1.032l.374-.093a4.094 4.094 0 00-.471-1.136zM6.544 3.05a3.751 3.751 0 011.117 0l.057-.38a4.125 4.125 0 00-1.231 0zm-2.242 7.093l-.796.186.186-.796-.375-.088-.186.796a.385.385 0 00.463.463l.795-.183zm-.905-1.041l.375.087.128-.552a3.708 3.708 0 01-.414-1.01l-.374.092a4.08 4.08 0 00.38.977zm1.798.834l-.551.129.087.375.406-.094a4.08 4.08 0 00.977.378l.092-.373a3.709 3.709 0 01-1.008-.417zm1.908-6.542A3.34 3.34 0 004.277 8.51l-.321 1.37 1.37-.322a3.34 3.34 0 101.777-6.164z"/></svg>