<svg data-tags="brand,signalWire" xmlns="http://www.w3.org/2000/svg" viewBox="0 0 14 14"><path d="M7 0a7 7 0 107 7 7 7 0 00-7-7zm-.259 8.925a.79.79 0 01-1.117 0L3.177 6.477a.934.934 0 00.869-.248l.558-.559 2.137 2.137a.79.79 0 010 1.118zm0-5.6l-2.799 2.8a.79.79 0 01-1.117-1.117l2.8-2.8A.79.79 0 016.74 3.327zm.518 1.75a.79.79 0 011.117 0l2.447 2.447a.934.934 0 00-.869.249l-.558.559-2.137-2.137a.79.79 0 010-1.118zm3.916 3.917l-2.8 2.8a.79.79 0 01-1.116-1.118l2.799-2.8a.79.79 0 011.117 1.118z"/></svg>