<svg data-tags="signal chat channel,brand" xmlns="http://www.w3.org/2000/svg" viewBox="0 0 14 14"><path fill="#3a76f0" d="M5.32.205l.157.636a6.327 6.327 0 00-1.758.727l-.337-.562A6.974 6.974 0 015.32.205zm3.36 0L8.523.84a6.327 6.327 0 011.758.727l.34-.562a6.974 6.974 0 00-1.941-.8zM1.006 3.382A6.973 6.973 0 00.205 5.32l.636.157a6.325 6.325 0 01.727-1.759zm-.35 3.617a6.33 6.33 0 01.071-.95L.08 5.951a7.024 7.024 0 000 2.097l.648-.098A6.33 6.33 0 01.657 7zm9.962 5.994l-.337-.562a6.326 6.326 0 01-1.756.727l.157.636a6.974 6.974 0 001.936-.801zm2.726-5.994a6.332 6.332 0 01-.071.95l.648.1a7.024 7.024 0 000-2.098l-.648.098a6.332 6.332 0 01.07.95zm.451 1.68l-.636-.157a6.326 6.326 0 01-.727 1.758l.562.34a6.973 6.973 0 00.801-1.94zM7.95 13.273a6.39 6.39 0 01-1.9 0l-.099.648a7.026 7.026 0 002.098 0zm4.157-2.51a6.366 6.366 0 01-1.345 1.343l.39.528a7.01 7.01 0 001.483-1.479zm-1.345-8.87a6.367 6.367 0 011.345 1.344l.528-.393a7.01 7.01 0 00-1.479-1.48zM1.893 3.237a6.367 6.367 0 011.344-1.344l-.393-.528a7.01 7.01 0 00-1.479 1.479zm11.1.145l-.561.336a6.326 6.326 0 01.727 1.757l.636-.158a6.973 6.973 0 00-.801-1.935zM6.05.727a6.39 6.39 0 011.9 0l.1-.647a7.026 7.026 0 00-2.098 0zm-3.82 12.08l-1.355.317.316-1.355-.639-.15-.316 1.355a.656.656 0 00.789.789l1.354-.31zM.69 11.035l.638.149.219-.94A6.315 6.315 0 01.84 8.522l-.636.157a6.947 6.947 0 00.645 1.664zm3.062 1.422l-.94.219.149.638.691-.16a6.948 6.948 0 001.664.645l.157-.637a6.316 6.316 0 01-1.717-.71zM7 1.312a5.687 5.687 0 00-4.813 8.714l-.546 2.332 2.333-.546A5.687 5.687 0 107 1.312z"/></svg>