<svg data-tags="signal" xmlns="http://www.w3.org/2000/svg" viewBox="0 0 14 14"><path fill="#4777e7" d="M0 0h14v14H0z"/><path d="m6.107 2.793.092.373a3.715 3.715 0 0 0-1.032.427l-.198-.33a4.095 4.095 0 0 1 1.138-.47Zm1.973 0-.093.373a3.715 3.715 0 0 1 1.033.427l.2-.33a4.095 4.095 0 0 0-1.14-.47ZM3.574 4.658a4.094 4.094 0 0 0-.47 1.138l.373.092a3.714 3.714 0 0 1 .427-1.032ZM3.37 6.782a3.718 3.718 0 0 1 .041-.558l-.38-.057a4.124 4.124 0 0 0 0 1.231l.38-.058a3.718 3.718 0 0 1-.041-.558Zm5.849 3.52-.198-.33a3.714 3.714 0 0 1-1.031.426l.092.374a4.095 4.095 0 0 0 1.137-.47Zm1.6-3.52a3.717 3.717 0 0 1-.042.558l.381.058a4.124 4.124 0 0 0 0-1.232l-.38.058a3.717 3.717 0 0 1 .041.558Zm.265.987-.373-.093a3.714 3.714 0 0 1-.427 1.033l.33.199a4.094 4.094 0 0 0 .47-1.14Zm-3.432 2.697a3.751 3.751 0 0 1-1.116 0l-.057.38a4.125 4.125 0 0 0 1.231 0Zm2.44-1.474a3.738 3.738 0 0 1-.788.789l.228.31a4.116 4.116 0 0 0 .871-.868Zm-.788-5.208a3.738 3.738 0 0 1 .789.79l.31-.232a4.116 4.116 0 0 0-.868-.868Zm-5.208.79a3.738 3.738 0 0 1 .79-.79l-.232-.31a4.116 4.116 0 0 0-.868.868Zm6.518.084-.33.198a3.714 3.714 0 0 1 .427 1.031l.373-.092a4.094 4.094 0 0 0-.47-1.137ZM6.535 3.1a3.751 3.751 0 0 1 1.117 0l.057-.381a4.125 4.125 0 0 0-1.231 0Zm-2.242 7.093-.796.185.186-.795-.375-.088-.186.795a.385.385 0 0 0 .463.463l.795-.182ZM3.388 9.15l.375.088.128-.552a3.708 3.708 0 0 1-.414-1.01l-.374.092a4.079 4.079 0 0 0 .38.976Zm1.798.835-.552.128.088.375.406-.094a4.08 4.08 0 0 0 .976.379l.093-.374a3.709 3.709 0 0 1-1.008-.417Zm1.907-6.543A3.34 3.34 0 0 0 4.268 8.56l-.321 1.37 1.37-.321a3.34 3.34 0 1 0 1.776-6.165Z" fill="#fff"/></svg>