<svg data-tags="sina weibo,brand" xmlns="http://www.w3.org/2000/svg" viewBox="0 0 14 14"><circle cx="7.067" cy="7" r="7" fill="#e51c34"/><path fill="#fff" d="M9.482 6.845c-.267-.072-.069-.345 0-.64a.819.819 0 00-.069-.55c-.466-.716-2-.184-2.231-.093-.232.094-.287.038-.214-.2a2.542 2.542 0 00.07-.587c-.195-1.286-1.963-.312-1.963-.312a6.358 6.358 0 00-2.782 3.154c-1.124 4.054 6.618 4.44 8.118 1.522a1.465 1.465 0 00-.929-2.293zm-2.324 3.636c-1.986.364-4.817-.511-3.676-2.475 0 0 .935-1.764 4.158-1.173 2.302.421 1.733 3.246-.482 3.648zm3.126-4.24a.392.392 0 00.305-.385 1.364 1.364 0 00-.207-1.024 1.368 1.368 0 00-1.256-.508.354.354 0 00-.286.35c.009.274.338.291.338.291.884-.044.795.59.769.936-.026.349.339.34.339.34z"/><path fill="#fff" d="M11.214 3.73a2.854 2.854 0 00-2.293-.754c-.098.026-.447.11-.412.422.038.313.448.339.448.339a2.079 2.079 0 011.66.477 1.998 1.998 0 01.543 1.808c-.063.586.215.66.215.66.463.119.542-.568.542-.568a2.755 2.755 0 00-.703-2.384zM5.882 7.473a1.483 1.483 0 00-1.364 1.563 1.456 1.456 0 001.715 1.137A1.481 1.481 0 007.597 8.61a1.455 1.455 0 00-1.715-1.137zm-.26 2.07a.54.54 0 01-.638-.422.55.55 0 01.505-.581.54.54 0 01.639.422.547.547 0 01-.507.58z"/></svg>