<svg data-tags="sina weibo,brand" xmlns="http://www.w3.org/2000/svg" viewBox="0 0 14 14"><path d="M5.426 8.537a.548.548 0 00-.504.579.536.536 0 00.635.42.546.546 0 00.506-.578.539.539 0 00-.637-.421z"/><path d="M7.57 6.833c-3.215-.59-4.149 1.17-4.149 1.17-1.138 1.96 1.686 2.834 3.668 2.471h.001c2.209-.402 2.777-3.22.48-3.641zm-1.402 3.333a1.453 1.453 0 01-1.712-1.135 1.478 1.478 0 011.361-1.559 1.45 1.45 0 011.711 1.134 1.475 1.475 0 01-1.36 1.56z"/><path d="M7 0a7 7 0 107 7 7 7 0 00-7-7zm3.337 9.134c-1.496 2.912-9.223 2.527-8.1-1.517a6.345 6.345 0 012.775-3.15s1.763-.97 1.96.312a2.499 2.499 0 01-.072.586c-.071.238-.017.293.215.2.23-.091 1.76-.622 2.226.093a.821.821 0 01.07.548c-.07.295-.267.567 0 .64a1.462 1.462 0 01.926 2.288zM9.109 4.97s-.33-.016-.34-.293a.35.35 0 01.286-.346 1.359 1.359 0 011.254.506 1.362 1.362 0 01.207 1.022.39.39 0 01-.304.384s-.365.008-.339-.34c.028-.346.116-.978-.764-.933zm2.73 1.146s-.077.685-.54.567c0 0-.277-.074-.215-.66a1.99 1.99 0 00-.541-1.803 2.069 2.069 0 00-1.658-.475s-.41-.027-.447-.34c-.034-.31.313-.393.41-.42h.001a2.851 2.851 0 012.29.75 2.753 2.753 0 01.7 2.381z"/></svg>