<svg xmlns="http://www.w3.org/2000/svg" viewBox="0 0 14 11.341"><path fill="#fff" d="M3.091 5.075L7 4.318l3.109 1.983.265 1.41-.826 2.085-3.261 1.001-2.882-.163-1.492-.66L.687 7.936l.429-1.464z"/><path d="M5.877 11.341c-1.274-.007-2.5-.235-3.655-.792-.605-.292-1.151-.669-1.58-1.195-.604-.742-.772-1.58-.545-2.503.182-.742.543-1.398.994-2.006.793-1.065 1.744-1.959 2.895-2.63.443-.257.909-.462 1.414-.563.287-.058.576-.078.863.008.401.12.62.397.689.802.06.352-.007.691-.102 1.028-.009.033-.023.064-.029.098-.02.109.034.169.144.16a.828.828 0 00.239-.068c.565-.235 1.146-.406 1.76-.442.313-.018.62.01.91.139.399.178.605.524.589.96-.01.261-.076.507-.168.748-.085.222-.051.298.18.366.369.11.714.27 1.016.511.698.555.901 1.345.567 2.196-.238.607-.645 1.09-1.134 1.508-.873.745-1.893 1.19-3 1.449a8.618 8.618 0 01-2.047.226zm-.626-.796c.053 0 .106.002.159 0 .053-.002.105-.011.158-.013a5.871 5.871 0 002.223-.525c.635-.291 1.195-.681 1.606-1.258.564-.79.556-1.695-.024-2.436a2.91 2.91 0 00-.974-.785C7.7 5.164 6.95 5.004 6.165 4.98a6.115 6.115 0 00-2.631.482c-.669.288-1.265.682-1.696 1.285-.443.62-.581 1.29-.266 2.009.214.488.588.838 1.036 1.111.811.495 1.707.665 2.643.678z" fill="#d42c2a"/><path d="M13.999 3.654a3.693 3.693 0 01-.179 1.187.531.531 0 01-.672.36.532.532 0 01-.357-.656c.054-.209.103-.416.123-.632.124-1.329-.872-2.604-2.186-2.799a2.79 2.79 0 00-.969.017.537.537 0 01-.663-.439c-.056-.277.148-.554.455-.617 1.855-.382 3.73.727 4.282 2.536.049.162.086.329.115.496.037.201.056.404.051.547z" fill="#e69225"/><path d="M12.087 3.703c.01.183-.016.362-.068.536-.08.263-.332.405-.583.33-.248-.074-.377-.321-.306-.585.157-.587-.19-1.09-.797-1.157-.081-.009-.158.013-.236.024-.28.037-.497-.116-.543-.387-.042-.246.126-.475.386-.527 1.027-.205 2.034.528 2.146 1.562.007.068.001.136.001.204z" fill="#e69225"/><path d="M5.076 9.974c-.554-.018-1.056-.177-1.465-.566-.577-.548-.685-1.399-.267-2.11.362-.615.914-.972 1.598-1.134a2.336 2.336 0 011.487.118c1.067.452 1.424 1.631.784 2.598-.393.593-.962.923-1.652 1.055a2.63 2.63 0 01-.485.039zm-.639-.855c.434 0 .76-.215.894-.534a.604.604 0 00-.41-.837.88.88 0 00-.927.346c-.153.215-.2.45-.075.692a.603.603 0 00.518.333zm1.036-1.426c0 .137.104.238.245.238.162 0 .324-.148.327-.299.003-.137-.108-.241-.256-.24-.17.001-.316.14-.316.301z" fill="#0a0707"/></svg>