<svg data-tags="sitecore" xmlns="http://www.w3.org/2000/svg" viewBox="0 0 14 14"><path d="M6.675 10.213a4.288 4.288 0 0 0 1.544-.504 3.694 3.694 0 0 0 1.911-3.19l.005-.12h1.627a4.834 4.834 0 0 0-.88-2.239L9.218 5.237a2.644 2.644 0 0 1 .188 2.57 4.81 4.81 0 0 1-2.731 2.406" fill-rule="evenodd"/><path d="M11.786 6.651h-1.412A3.978 3.978 0 0 1 8.341 9.93a4.623 4.623 0 0 1-2.264.576 5.202 5.202 0 0 1-1.847-.344 4.474 4.474 0 0 0 2.376.705h.013A4.162 4.162 0 0 0 10.27 8.7l.065-.115.945.604A4.835 4.835 0 0 0 11.8 7c0-.117-.006-.234-.014-.349" fill-rule="evenodd"/><path d="M6.62 11.12h-.014a5.043 5.043 0 0 1-3.948-2.06 4.78 4.78 0 0 0 8.501.35l-.738-.472a4.402 4.402 0 0 1-3.802 2.181" fill-rule="evenodd"/><path d="M7 0a7 7 0 1 0 6.946 7A6.973 6.973 0 0 0 7 0m0 12.09A5.09 5.09 0 1 1 12.05 7 5.07 5.07 0 0 1 7 12.09" fill-rule="evenodd"/></svg>