<svg data-tags="slack" xmlns="http://www.w3.org/2000/svg" viewBox="0 0 14 14"><rect width="14" height="14" fill="#fff" rx="7"/><path fill="#36c5f0" fill-rule="evenodd" d="M5.873 2.767a.846.846 0 000 1.693h.846v-.846a.846.846 0 00-.846-.847m0 2.258H3.621a.847.847 0 000 1.693h2.252a.847.847 0 000-1.693z"/><path fill="#2eb67d" fill-rule="evenodd" d="M11.224 5.871a.845.845 0 10-1.69 0v.847h.845a.846.846 0 00.845-.847zm-2.253 0V3.614a.845.845 0 10-1.69 0V5.87a.845.845 0 101.69 0z"/><path fill="#ecb22e" fill-rule="evenodd" d="M8.126 11.233a.846.846 0 000-1.693h-.845v.846a.846.846 0 00.845.847zm0-2.258h2.253a.847.847 0 000-1.693H8.128a.847.847 0 000 1.693z"/><path fill="#e01e5a" fill-rule="evenodd" d="M2.776 8.129a.845.845 0 101.69 0v-.847H3.62a.846.846 0 00-.845.847zm2.253 0v2.257a.845.845 0 101.69 0V8.13a.845.845 0 10-1.69 0"/></svg>