<svg data-tags="slideshare" xmlns="http://www.w3.org/2000/svg" viewBox="0 0 14 14"><path d="M13.334 6.666q-.08.057-.161.112V1.36A1.314 1.314 0 0 0 11.911 0H2.096A1.314 1.314 0 0 0 .834 1.36v5.423l-.168-.117c-.418-.292-.692.106-.436.485a7.388 7.388 0 0 0 2.903 1.968c-1.54 5.243 3.756 6.076 3.675 3.388l.005-2.644c.14.033.26.065.374.093l.004 2.55c-.08 2.69 5.219 1.856 3.676-3.387a7.37 7.37 0 0 0 2.903-1.968c.256-.38-.018-.777-.436-.485ZM8.11 8.002c-.648-.033-.888.246-.92.675a4.777 4.777 0 0 1-.479-.394q-.038-.036-.078-.07a.908.908 0 0 0-.74-.211 7.768 7.768 0 0 1-4.309-.77V1.974c0-.952.243-1.251 1.115-1.251h8.686c.826 0 1.118.355 1.118 1.25v5.213a7.73 7.73 0 0 1-4.393.815Z"/><path d="M9.058 4.203a1.635 1.635 0 0 0-1.687 1.578 1.635 1.635 0 0 0 1.687 1.578 1.636 1.636 0 0 0 1.687-1.578 1.636 1.636 0 0 0-1.687-1.578Z"/><ellipse cx="5.132" cy="5.781" rx="1.687" ry="1.578"/></svg>