<svg data-tags="brand" xmlns="http://www.w3.org/2000/svg" viewBox="0 0 14 14"><circle fill="#1E7DC2" cx="7" cy="7.056" r="7"/><g fill="#FFF"><path d="M8.15 7.296c.48 0 .871-.401.871-.898 0-.5-.39-.902-.87-.902s-.872.402-.872.902c0 .497.392.898.871.898zm-2.19-1.8c-.48 0-.868.402-.868.902 0 .497.388.898.868.898s.871-.401.871-.898c0-.5-.391-.902-.871-.902z"/><path d="M10.65 6.839c-.017 0-.04.014-.06.021.031-.109.05-.216.05-.312v-2.48a.764.764 0 00-.766-.762H4.127a.764.764 0 00-.766.763v2.48c0 .118.03.256.078.392-.036-.023-.068-.04-.092-.04-.02 0-.035.01-.045.033-.088.18-.085.441.168.761.25.317 1.202.598 1.202.598s-.01 1.164-.01 1.553c0 .392.73.76 1.137.76.404 0 .71-.287.71-.49V8.889c.164.088.338.124.511.124V8.95c.02 0 .041 0 .06-.003.02 0 .038 0 .057-.004.486-.045.95-.378 1.086-.68a.16.16 0 00.013-.035c.085-.196.06-.239.047-.242-.054 0-.18.062-.373.235a.67.67 0 01-.454.167.95.95 0 01-.319-.059c-.019-.003-.038-.013-.057-.02a.33.33 0 01-.06-.026v-.062a1.159 1.159 0 01-.309-.206c-.186-.18-.37-.32-.691-.32h-.047c-.035.004-.076.004-.117.004-.395 0-1.105-.056-1.53-.16-.17-.043-.335-.154-.484-.272a1.92 1.92 0 01-.098-.528V4.45c0-.42.343-.762.766-.762h4.98c.423 0 .767.341.767.762v2.29c0 .105-.024.265-.063.417-.4.25-1.156.503-1.274.503H7.734c-.265 0-.714.072-.714.245v.317l.06.027c.02.006.038.016.057.022.101.036.209.06.319.06.145 0 .29-.043.417-.154.18-.164.328-.249.41-.249.085 0 .104.095.022.298-.337.659-.973.765-1.197.782l-.028.002c-.019.003-.04.003-.06.003v1.105c0 .202.275.69 1.099.69S9.16 9.796 9.16 9.622V8.395c.587-.317 1.187-.49 1.474-1.06.17-.336.133-.496.016-.496zM7.14 9.297v-.01l.004.009H7.14z"/></g></svg>