<svg data-tags="slideshare,brand" xmlns="http://www.w3.org/2000/svg" viewBox="0 0 14 14"><path fill="#3176af" d="M13.33 6.67l-.16.1v-5.4A1.31 1.31 0 0011.91 0H2.1A1.31 1.31 0 00.83 1.36v5.42a8.46 8.46 0 01-.16-.11c-.42-.3-.7.1-.44.48a7.38 7.38 0 002.9 1.97C1.6 14.36 6.9 15.2 6.81 12.5V9.86l.25.06.13.04v2.55c-.08 2.69 5.22 1.85 3.68-3.4a7.37 7.37 0 002.9-1.96c.26-.38-.02-.78-.44-.48zm-.83.52A7.41 7.41 0 018.36 8h-.25c-.65-.04-.89.24-.92.67a4.78 4.78 0 01-.48-.4 1.75 1.75 0 00-.08-.07.9.9 0 00-.74-.2h-.25a7.44 7.44 0 01-4.06-.78V1.97c0-.95.25-1.25 1.12-1.25h8.68c.83 0 1.12.36 1.12 1.25z"/><path fill="#3176af" d="M9.06 4.2a1.64 1.64 0 00-1.69 1.58 1.64 1.64 0 001.69 1.58 1.64 1.64 0 001.68-1.58A1.64 1.64 0 009.06 4.2zm-3.93 0a1.63 1.63 0 00-1.68 1.58 1.63 1.63 0 001.68 1.58 1.64 1.64 0 001.69-1.58A1.63 1.63 0 005.13 4.2z"/></svg>