<svg data-tags="sms" xmlns="http://www.w3.org/2000/svg" viewBox="0 0 14 14"><path d="M8.5 7l-.3-.8h-.4v1.2h.3v-.9l.3.9h.2l.3-.9H9v.9h.2V6.2h-.4zm-2.1 3.5c-.2 0-.3.2-.3.3 0 .2.2.3.3.3.2 0 .3-.2.3-.3.1-.1-.1-.3-.3-.3zm1.1-3.7s-.1 0-.1-.1h-.1c-.1 0-.1 0-.2-.1h-.2v-.2h.4l.1.1v.1h.3v-.2c0-.1-.1-.1-.1-.1s-.1-.1-.2-.1H7c-.1 0-.1 0-.2.1l-.1.1v.3l.1.1s.1 0 .1.1h.3s.1 0 .1.1v.2h-.5l-.1-.1V7h-.1v.2c0 .1.1.1.1.1.1 0 .1.1.2.1h.4c.1 0 .1 0 .2-.1l.1-.1v-.4h-.1z"/><path d="M7 0C3.1 0 0 3.1 0 7s3.1 7 7 7 7-3.1 7-7-3.1-7-7-7zm2.1 10.8c0 .3-.3.6-.6.6H4.3c-.3 0-.6-.3-.6-.6V3.2c0-.3.3-.6.6-.6h4.2c.3 0 .6.3.6.6v1.1h-.6v-.5c0-.1-.1-.1-.2-.1H4.6c-.1 0-.2.1-.2.1v6.4c0 .1.1.1.2.1h3.8c.1 0 .2-.1.2-.1v-1h.6v1.6zm2-3c0 .4-.3.8-.8.8H7.9c-.1 0-.1 0-.1.1-.2.1-.3.2-.4.3h-.1l-.4-.4h-.2c-.4 0-.8-.3-.8-.8v-2c0-.5.4-.8.8-.8h3.6c.4 0 .8.3.8.8v2z"/><path d="M10.3 6.8s-.1 0-.1-.1h-.1c-.1 0-.1 0-.2-.1h-.2v-.2h.4l.1.1v.1h.3v-.2c0-.1-.1-.1-.1-.1s-.1-.1-.2-.1h-.4c-.1 0-.1 0-.2.1l-.1.1v.3l.1.1s.1 0 .1.1h.3s.1 0 .1.1v.2h-.5l-.1-.1V7h-.1v.2c0 .1.1.1.1.1.1 0 .1.1.2.1h.4c.1 0 .1 0 .2-.1l.1-.1v-.4h-.1z"/></svg>