<svg xmlns="http://www.w3.org/2000/svg" viewBox="0 0 14 14"><circle fill="#40A3F5" cx="7" cy="7" r="7"/><path fill="#FFF" d="M8.54 9.7v1.03c0 .08-.07.15-.17.15H4.4c-.1 0-.17-.07-.17-.15V4.05c0-.08.08-.14.17-.14h3.97c.1 0 .17.06.17.14v.55h.64V3.41c0-.37-.27-.66-.6-.66h-4.4c-.34 0-.61.3-.61.66v7.96c0 .37.27.67.61.67h4.4c.33 0 .6-.3.6-.67V9.7h-.64zm-2.16 2.12a.36.36 0 110-.73.36.36 0 010 .73zm4.87-5.75v2.15c0 .45-.36.82-.81.82H7.92c-.05 0-.1.01-.14.06l-.41.4c-.03.04-.05.04-.08 0l-.46-.42a.14.14 0 00-.1-.04h-.08a.82.82 0 01-.82-.82V6.07c0-.45.36-.81.82-.81h3.79c.45 0 .81.36.81.81zM6.8 7.4H6.5c0 .08.02.15.05.21.03.06.07.1.12.15a.83.83 0 00.64.08.5.5 0 00.17-.1.37.37 0 00.1-.13.4.4 0 00.04-.17.33.33 0 00-.04-.18.41.41 0 00-.12-.11.5.5 0 00-.13-.07 1.17 1.17 0 00-.1-.02L7.04 7a.74.74 0 01-.12-.04l-.06-.04-.02-.06c0-.03 0-.06.02-.08a.17.17 0 01.11-.07h.17l.08.04c.03.01.05.03.06.06l.03.1h.28a.38.38 0 00-.16-.33.5.5 0 00-.17-.08.84.84 0 00-.38 0 .5.5 0 00-.16.08.4.4 0 00-.12.12.35.35 0 00-.04.18c0 .06.01.11.03.16l.1.1c.03.03.07.05.12.07l.15.05a3.57 3.57 0 00.27.07l.09.06c.02.02.03.05.03.09 0 .03 0 .06-.03.08a.18.18 0 01-.06.05.3.3 0 01-.08.03h-.09l-.11-.01a.27.27 0 01-.1-.04.2.2 0 01-.06-.08.24.24 0 01-.02-.11zm1.06-.9v1.34h.27V6.9l.33.93h.22l.33-.94v.94h.28V6.5h-.41l-.3.91-.31-.91h-.41zm1.93.9h-.28c0 .08.01.15.04.21l.13.15c.05.04.11.06.18.08a.83.83 0 00.46 0c.07-.02.12-.05.17-.1s.08-.07.1-.13a.4.4 0 00.04-.17.33.33 0 00-.05-.18.41.41 0 00-.11-.11.5.5 0 00-.13-.07 1.17 1.17 0 00-.1-.02l-.2-.06a.74.74 0 01-.13-.04.13.13 0 01-.06-.04.12.12 0 01-.01-.06c0-.03 0-.06.02-.08a.17.17 0 01.1-.07h.18l.08.04.06.06.02.1h.29a.38.38 0 00-.16-.33.5.5 0 00-.18-.08.84.84 0 00-.38 0 .5.5 0 00-.16.08c-.04.03-.08.07-.11.12s-.05.11-.05.18c0 .06.02.11.04.16s.05.07.09.1l.13.07.14.05a3.57 3.57 0 00.27.07l.1.06c.02.02.03.05.03.09 0 .03-.01.06-.03.08a.18.18 0 01-.06.05.3.3 0 01-.09.03h-.08l-.11-.01a.27.27 0 01-.1-.04.2.2 0 01-.06-.08.24.24 0 01-.03-.11z"/></svg>