<svg data-tags="brand,sms global" xmlns="http://www.w3.org/2000/svg" viewBox="0 0 14 14"><circle cx="7" cy="7" r="7" fill="#1dc3bf"/><path d="M11.107 6.528l.04-.436.001-.008a2.525 2.525 0 00-.06-.54 2.915 2.915 0 00-.04-.154.88.88 0 00-.034-.117c-.01-.027-.025-.051-.035-.078a2.474 2.474 0 00-.1-.226 2.488 2.488 0 00-.106-.193 2.504 2.504 0 00-.143-.21c-.021-.027-.038-.06-.06-.087a1.176 1.176 0 00-.142-.158l-.04-.04a1.197 1.197 0 00-.163-.146.927.927 0 00-.188-.143l-.003-.002-.001-.001a2.42 2.42 0 00-.205-.129 1.462 1.462 0 00-.192-.093c-.088-.035-.17-.07-.263-.1a1.988 1.988 0 00-.219-.05l-.036-.008a1.976 1.976 0 00-.2-.047 2.55 2.55 0 00-.742 5.045 2.147 2.147 0 00.473.029v.03l-.03.08c-.227.474-.46.94-.711 1.396-.047.082-.041.105.052.129.222.046.444.105.672.163.017.006.035 0 .046.023h.047c0-.04.035-.064.058-.093a25.156 25.156 0 001.874-2.756.508.508 0 00.059-.11l.052-.088.086-.168a2.485 2.485 0 00.132-.29c.008-.023.02-.045.028-.068a2.19 2.19 0 00.046-.151.02.02 0 00.006-.012 1.116 1.116 0 00.025-.111l.008-.035a.176.176 0 00.008-.047zM5.165 5.955c.002-.076-.02-.11-.091-.13a1.784 1.784 0 00-.855-.033 1.72 1.72 0 00.044 3.376c.113.02.227.03.35.046-.019.041-.033.076-.05.11-.149.295-.294.591-.449.883-.04.076-.018.093.05.11.12.028.24.054.357.092a.165.165 0 00.21-.07 18.134 18.134 0 001.295-1.92c.035-.06.005-.081-.025-.115a3.282 3.282 0 01-.836-2.35z" fill="#fff"/></svg>