<svg data-tags="brand,sms global" xmlns="http://www.w3.org/2000/svg" viewBox="0 0 14 14"><path d="M13.93 6.204L14 5.468 14 5.454a4.261 4.261 0 00-.102-.91 4.92 4.92 0 00-.066-.261 1.488 1.488 0 00-.059-.197c-.015-.046-.041-.087-.059-.132a4.19 4.19 0 00-.17-.381 4.228 4.228 0 00-.177-.326 4.227 4.227 0 00-.241-.353c-.036-.048-.064-.102-.102-.148a1.984 1.984 0 00-.24-.266l-.066-.067a2.02 2.02 0 00-.275-.248 1.565 1.565 0 00-.319-.242l-.004-.003-.002-.002a4.084 4.084 0 00-.345-.216 2.467 2.467 0 00-.325-.158c-.148-.06-.286-.118-.443-.168a3.356 3.356 0 00-.37-.085l-.06-.014a3.339 3.339 0 00-.339-.078 4.303 4.303 0 00-1.251 8.512 3.623 3.623 0 00.798.05v.049l-.05.138a48.073 48.073 0 01-1.201 2.355c-.08.137-.07.177.088.216.375.08.75.178 1.133.276.03.01.06 0 .08.04h.078c0-.07.06-.109.099-.158a42.45 42.45 0 003.162-4.65.857.857 0 00.099-.188l.088-.147c.051-.096.098-.19.146-.284a4.195 4.195 0 00.22-.49c.015-.038.034-.074.048-.113.03-.089.06-.177.079-.256a.034.034 0 00.01-.02 1.89 1.89 0 00.042-.187l.012-.059a.297.297 0 00.015-.079zM3.904 5.236c.004-.128-.033-.185-.154-.218a3.01 3.01 0 00-1.442-.056 2.902 2.902 0 00.073 5.697c.19.032.383.05.591.077-.032.07-.056.129-.085.186-.25.497-.496.997-.757 1.49-.068.128-.03.158.084.185.202.047.405.091.602.156a.278.278 0 00.355-.12 30.598 30.598 0 002.185-3.24c.059-.098.009-.135-.042-.193a5.539 5.539 0 01-1.41-3.964z"/></svg>