<svg data-tags="sms,hub" xmlns="http://www.w3.org/2000/svg" viewBox="0 0 14 14"><path d="M8.207 9.83c-.053-.042-.033-.102-.033-.155-.002-.843-.02-1.686.002-2.528.017-.655-.003-1.31.014-1.964.03-1.204.016-2.409.01-3.613 0-.181.055-.234.233-.23.447.012.895.006 1.343.002.136-.001.168.041.166.186-.012.873-.008 1.747-.006 2.62 0 .145.043.191.213.135a2.918 2.918 0 0 1 2.122.065c.046.02.094.035.107.092a4.361 4.361 0 0 1-.502-.154 1.435 1.435 0 0 0-.761-.064 2.51 2.51 0 0 0-.725.095 1.794 1.794 0 0 1-.494.126c-.01-.178-.105-.23-.278-.224-.38.012-.76.01-1.14 0-.165-.004-.212.056-.21.214.008.538.002 1.077.003 1.615 0 .06-.017.125.038.173-.065.255.008.517-.035.774a.322.322 0 0 0-.037.178l.003 2.545Z" fill="#f3c974"/><path d="m8.207 9.83.033-.112 1.662.012a2.668 2.668 0 0 1-.548 1.755 2.84 2.84 0 0 1-2.138 1.173 1.657 1.657 0 0 1-.238-.013.811.811 0 0 0 .04-.27c-.003-.462-.002-.925-.002-1.388a1.244 1.244 0 0 0 1.065-.672l.018-.044a1.142 1.142 0 0 0 .108-.441Z" fill="#a84831"/><path d="M7.016 10.987c0 .463-.001.926.001 1.389a.811.811 0 0 1-.039.269 2.357 2.357 0 0 1-1.272-.297 2.813 2.813 0 0 1-1.583-2.457 1.538 1.538 0 0 1 .014-.2h1.444a.428.428 0 0 1 .23.042 1.412 1.412 0 0 0 .167.628.061.061 0 0 0 .035.067 1.324 1.324 0 0 0 1.003.56ZM13.995 7.1l-.004.117c-.04.036-.029.08-.02.123a2.576 2.576 0 0 1-.786 1.694 2.836 2.836 0 0 1-1.82.865.448.448 0 0 1-.255-.016l.005-1.662a1.695 1.695 0 0 0 .58-.166 1.232 1.232 0 0 0 .618-1.025c.496 0 .992 0 1.488-.002a.203.203 0 0 1 .194.073Z" fill="#de883e"/><path d="M4.134 6.992a1.119 1.119 0 0 0-.636-1.083 1.587 1.587 0 0 0-.651-.156L2.84 4.144c.085-.056.172.012.258-.002a.995.995 0 0 0 .441.055l.073.014a.259.259 0 0 0 .237.077 2.33 2.33 0 0 1 .93.498 2.92 2.92 0 0 1 .868 1.21.68.68 0 0 1 .043.215.368.368 0 0 0 .09.305l.01.146a.101.101 0 0 0-.03.101c.04.21-.07.237-.247.233-.46-.01-.92-.003-1.38-.004ZM13.995 7.1a.203.203 0 0 0-.194-.072c-.496.002-.992.002-1.488.002a1.263 1.263 0 0 0-.719-1.103c-.037-.05-.074-.1-.144-.046l-.07-.015c-.017-.044-.038-.071-.078-.02l-.19-.027.003-1.597a1.435 1.435 0 0 1 .761.064 4.361 4.361 0 0 0 .502.154.07.07 0 0 1 .03.008c.013.027.02.069.04.078a2.878 2.878 0 0 1 .679.487c.08.067.11.2.241.207a2.64 2.64 0 0 1 .627 1.88Z" fill="#eead49"/><path d="M.034 7.027c-.051-.051-.03-.117-.03-.175 0-1.767.001-3.533-.004-5.299 0-.164.05-.213.211-.21.456.01.911.008 1.367.001.146-.002.192.05.19.193-.004.862 0 1.723 0 2.585 0 .199.01.198.195.143a1.594 1.594 0 0 1 .77-.127c-.085.089-.199.043-.297.058-.255.04-.484.167-.738.205-.011-.259.055-.254-.262-.254-.394 0-.787.006-1.18-.003-.145-.003-.19.039-.188.186.008.572.002 1.143.004 1.714 0 .06-.021.125.036.173v.074a.065.065 0 0 0-.03.075l-.009.652Z" fill="#f3c974"/><path d="m.069 7.018.008-.652c.047-.01.086-.024.03-.075l.001-.074c.095-.01.083-.097.106-.153a3.221 3.221 0 0 1 .378-.725 3.545 3.545 0 0 1 1.106-.938c.254-.038.483-.166.738-.205.098-.015.212.031.296-.058l.109.006.006 1.609a1.413 1.413 0 0 0-.853.468c-.055 0-.077.027-.061.081l-.142.316a.587.587 0 0 0-.091.4Z" fill="#de883e"/><path d="m.069 7.018 1.63.001.016.008h.017c0 .874-.002 1.747.005 2.621 0 .153-.045.202-.199.199a38.219 38.219 0 0 0-1.33 0c-.135.002-.18-.043-.18-.18.007-.88.005-1.76.006-2.64Z" fill="#a84831"/><path d="M9.902 9.73 8.24 9.718l-.003-2.545a.322.322 0 0 1 .037-.178h1.585c.009.055-.019.124.06.148l.02.19-.004 2.326Z" fill="#eead49"/><path d="M4.134 6.992c.46 0 .92-.006 1.38.004.177.004.288-.023.248-.233a.101.101 0 0 1 .029-.101c.058.046.04.113.04.17q.002 1.397-.002 2.794a.635.635 0 0 1-.019.107.429.429 0 0 0-.23-.042H4.138l-.003-2.699Z" fill="#f3c974"/><path d="m9.935 9.66.005-2.326a1.415 1.415 0 0 0 .374.567 1.457 1.457 0 0 0 .801.32l-.005 1.662a2.71 2.71 0 0 1-1.175-.224Z" fill="#a84831"/><path d="M13.368 5.22c-.132-.006-.16-.14-.241-.207a2.878 2.878 0 0 0-.68-.487c-.02-.01-.026-.051-.038-.078a.434.434 0 0 1 .294.136 1.8 1.8 0 0 1 .665.636ZM3.54 4.197a.995.995 0 0 1-.44-.055.517.517 0 0 1 .44.055ZM1.732 7.027h-.017L1.7 7.02a.587.587 0 0 1 .091-.4 1.222 1.222 0 0 1-.059.408ZM5.78 6.516a.368.368 0 0 1-.09-.305c.106.08.093.194.09.305ZM3.85 4.288a.259.259 0 0 1-.237-.077.212.212 0 0 1 .237.077ZM1.933 6.302c-.016-.054.006-.08.06-.081a.076.076 0 0 1-.06.081Z" fill="#f3c974"/><path d="M13.971 7.34c-.009-.043-.02-.087.02-.123a.117.117 0 0 1-.02.123Z" fill="#eead49"/><path d="m8.1 10.27-.019.045c-.018-.024-.028-.045.018-.044ZM6.013 10.428a.061.061 0 0 1-.035-.067.05.05 0 0 1 .035.067Z" fill="#f3c974"/><path d="M9.859 6.996H8.274c.043-.258-.03-.52.035-.776a4.017 4.017 0 0 1 .375-.795 2.432 2.432 0 0 1 .806-.8c.124-.074.23-.213.406-.182a1.794 1.794 0 0 0 .494-.126 2.51 2.51 0 0 1 .725-.095l-.002 1.598a.036.036 0 0 1-.028 0c-.07-.08-.157-.043-.239-.037-.17.013-.299.141-.448.183-.16.044-.182.132-.203.253h.001c-.074-.014-.104.033-.143.087a1.06 1.06 0 0 0-.194.69Z" fill="#f4c871"/><path d="M9.896 4.443c-.175-.031-.282.108-.406.181a2.432 2.432 0 0 0-.806.801 4.017 4.017 0 0 0-.375.795c-.055-.048-.037-.113-.037-.172-.002-.538.004-1.077-.004-1.615-.002-.158.045-.218.21-.214.38.01.76.012 1.14 0 .174-.006.268.046.278.224Z" fill="#eead49"/><path d="M11.594 5.927c-.051-.005-.109.01-.144-.046.07-.054.107-.004.144.046ZM11.38 5.866c-.032.016-.06.016-.078-.02.04-.051.061-.024.078.02Z" fill="#f3c974"/><path d="M1.698 4.4a3.545 3.545 0 0 0-1.106.94 3.221 3.221 0 0 0-.378.724c-.023.056-.01.144-.106.153-.057-.048-.036-.114-.036-.173C.07 5.473.076 4.902.068 4.33c-.002-.147.043-.19.188-.186.393.01.786.004 1.18.003.317 0 .251-.005.262.254ZM.108 6.29c.055.052.016.066-.03.076a.065.065 0 0 1 .03-.075Z" fill="#eead49"/><path d="m10.196 6.218-.182.335a1.59 1.59 0 0 0-.094.59c-.08-.024-.052-.093-.061-.147a1.059 1.059 0 0 1 .194-.69c.04-.054.069-.1.143-.088Z" fill="#f3c974"/><path d="M11.085 5.82a1.643 1.643 0 0 0-.89.4c.02-.123.043-.21.203-.254.15-.042.277-.17.448-.183.082-.006.17-.043.239.037Z" fill="#f3c974"/></svg>