<svg xmlns="http://www.w3.org/2000/svg" viewBox="0 0 14 14"><rect width="14" height="14" fill="#fff"/><path d="M7.776,8.81925c-.03433-.02718-.02137-.06554-.02144-.09942-.00116-.54185-.012-1.084.00161-1.62548.01062-.42088-.002-.84145.00884-1.26249.01994-.77383.01032-1.54849.00693-2.32278-.00051-.11614.03466-.15017.149-.14735.28784.00712.576.00345.864.001.087-.00074.108.02646.10668.11946-.00777.56149-.00556,1.12313-.00439,1.68472.00019.09291.02763.12267.13742.08634a1.87571,1.87571,0,0,1,1.36416.04187c.029.01238.06023.02242.06846.059a2.80549,2.80549,0,0,1-.32256-.09885.92206.92206,0,0,0-.48964-.04122,1.61373,1.61373,0,0,0-.46561.06132,1.15323,1.15323,0,0,1-.318.0807c-.00633-.11431-.06689-.14767-.17872-.144-.24409.008-.48873.00669-.73292.00041-.10547-.00272-.13587.03574-.13448.13736.00474.346.00138.69214.00207,1.03822.00008.038-.01148.08.02414.11081-.04177.16446.00487.33294-.02259.49806a.20682.20682,0,0,0-.02369.11413q.00147.818.00187,1.636Z" fill="#f3c974"/><path d="M7.776,8.81925l.02114-.07212q.5341.004,1.06826.00786A1.71541,1.71541,0,0,1,8.51355,9.883a1.82544,1.82544,0,0,1-1.37491.75437,1.06489,1.06489,0,0,1-.15272-.00872.52169.52169,0,0,0,.02513-.17279c-.00171-.29755-.00095-.59512-.00107-.89268a.79972.79972,0,0,0,.685-.43191l.01163-.02861A.73424.73424,0,0,0,7.776,8.81925Z" fill="#a84831"/><path d="M7.01,9.56322c.00012.29756-.00064.59513.00107.89268a.52169.52169,0,0,1-.02513.17279,1.51512,1.51512,0,0,1-.81784-.19053A1.80808,1.80808,0,0,1,5.15033,8.8587a.98626.98626,0,0,1,.00949-.12912c.30928.00022.61857.00088.92786.00023a.27528.27528,0,0,1,.14754.02708.90791.90791,0,0,0,.10785.40373.03919.03919,0,0,0,.0225.043A.85135.85135,0,0,0,7.01,9.56322Z" fill="#de883e"/><path d="M11.49655,7.06462l-.00245.07507c-.02616.02283-.01831.05107-.0125.079a1.6562,1.6562,0,0,1-.50565,1.08917,1.823,1.823,0,0,1-1.17043.55587.288.288,0,0,1-.1631-.01028l.003-1.06824a1.08926,1.08926,0,0,0,.37226-.107.79175.79175,0,0,0,.39758-.65873c.31892-.00038.63784-.00018.95675-.00178A.13047.13047,0,0,1,11.49655,7.06462Z" fill="#de883e"/><path d="M5.15776,6.99514a.71924.71924,0,0,0-.40879-.6968A1.02053,1.02053,0,0,0,4.33,6.19818l-.00372-1.034c.055-.03632.11072.00721.166-.0015a.63988.63988,0,0,0,.28341.03563l.047.00877a.16645.16645,0,0,0,.15236.04954,1.49842,1.49842,0,0,1,.59781.32,1.87724,1.87724,0,0,1,.558.77821.43765.43765,0,0,1,.02744.13824.23654.23654,0,0,0,.05749.19578l.00692.09372a.065.065,0,0,0-.01874.06509c.0256.13523-.04561.15255-.15948.15C5.749,6.99105,5.45335,6.99526,5.15776,6.99514Z" fill="#eead49"/><path d="M11.49655,7.06462a.13047.13047,0,0,0-.12455-.04693c-.31891.0016-.63783.0014-.95679.00178a.81184.81184,0,0,0-.4617-.70938c-.024-.032-.04787-.06411-.0929-.02929l-.045-.00978c-.01084-.02818-.02423-.04593-.05024-.01233L9.644,6.24112l.001-1.027a.92212.92212,0,0,1,.48966.04122,2.80549,2.80549,0,0,0,.32256.09885.04528.04528,0,0,1,.01965.00529c.0082.01715.0121.04429.02526.05a1.85019,1.85019,0,0,1,.43634.31311c.05222.04349.07048.12906.15527.1332A1.6975,1.6975,0,0,1,11.49655,7.06462Z" fill="#eead49"/><path d="M2.522,7.01734c-.033-.033-.019-.07489-.019-.11273-.00086-1.13536.00048-2.27073-.003-3.40609-.00032-.10549.03272-.13682.13595-.13478.29269.00577.58561.00507.87834.00051.0942-.00147.12331.03184.12283.12413-.00288.55382-.00106,1.10766-.00076,1.6615.00006.12775.00625.12748.12572.09162a1.02441,1.02441,0,0,1,.49437-.08114c-.054.057-.12727.02726-.19017.037-.16414.02538-.31119.10729-.47452.13163-.00728-.16606.03516-.16317-.16875-.16294-.25284.00028-.50577.004-.75847-.00185-.09318-.00217-.12228.02479-.121.11955.0051.36726.00166.73464.00255,1.102.00009.03776-.01344.08012.02342.11082l-.00033.0474a.04166.04166,0,0,0-.0194.04869l-.00548.41877Z" fill="#f3c974"/><path d="M2.54433,7.01138l.00543-.41878c.02975-.00691.05522-.01553.01945-.04868l.00033-.0474c.061-.006.05322-.06211.06772-.09847a2.07082,2.07082,0,0,1,.24309-.46569A2.279,2.279,0,0,1,3.59176,5.329c.16333-.02434.31038-.10625.47452-.13163.0629-.00972.13618.02.19017-.037l.06985.00385L4.33,6.19818a.90836.90836,0,0,0-.54831.30074c-.03536.00087-.04929.01777-.03932.05255l-.091.203a.37735.37735,0,0,0-.05877.25765Z" fill="#de883e"/><path d="M2.54433,7.01138q.52414.00038,1.04828.00083l.00972.00542.01111-.00028c.00035.56166-.00136,1.12334.003,1.685.00076.09836-.02858.12973-.12768.12775-.28473-.00569-.56969-.00415-.85448.00007-.08744.0013-.11634-.02739-.11573-.11595C2.52241,8.1486,2.5214,7.583,2.522,7.01735Z" fill="#a84831"/><path d="M8.86535,8.755q-.53413-.0039-1.06826-.00786-.00073-.81809-.00184-1.636a.207.207,0,0,1,.02368-.11415l1.01893.00026c.00567.03472-.01206.07909.03917.09506l.01289.122L8.88651,8.7096Z" fill="#eead49"/><path d="M5.15776,6.99514c.29559.00012.59127-.00409.88671.00253.11387.00255.18508-.01477.15948-.15a.065.065,0,0,1,.01874-.06509c.03769.0295.02633.07255.02636.10977Q6.24964,7.79016,6.247,8.688a.40774.40774,0,0,1-.01168.06893.2757.2757,0,0,0-.14762-.02708c-.30929.00065-.61858,0-.92786-.00023Z" fill="#f3c974"/><path d="M8.88651,8.7096l.0034-1.49521a.90986.90986,0,0,0,.2407.36481.93687.93687,0,0,0,.5148.206l-.003,1.06823A1.74241,1.74241,0,0,1,8.88651,8.7096Z" fill="#a84831"/><path d="M11.09377,5.85574c-.08479-.00414-.103-.08971-.15527-.1332a1.85019,1.85019,0,0,0-.43634-.31311c-.01316-.00568-.01706-.03282-.02526-.05a.279.279,0,0,1,.1892.08718A1.157,1.157,0,0,1,11.09377,5.85574Z" fill="#f3c974"/><path d="M4.77568,5.19834a.63988.63988,0,0,1-.28341-.03563A.33236.33236,0,0,1,4.77568,5.19834Z" fill="#f3c974"/><path d="M3.61344,7.01735l-.01111.00028-.00972-.00542a.37744.37744,0,0,1,.05877-.25771A.78593.78593,0,0,1,3.61344,7.01735Z" fill="#f3c974"/><path d="M6.21577,6.68886a.23654.23654,0,0,1-.05749-.19578C6.22574,6.54416,6.21762,6.61743,6.21577,6.68886Z" fill="#f3c974"/><path d="M4.975,5.25665a.16645.16645,0,0,1-.15236-.04954A.136.136,0,0,1,4.975,5.25665Z" fill="#f3c974"/><path d="M3.74239,6.55147c-.01-.03478.004-.05168.03932-.05255A.04913.04913,0,0,1,3.74239,6.55147Z" fill="#f3c974"/><path d="M11.4816,7.21868c-.00581-.02792-.01366-.05616.0125-.079A.07493.07493,0,0,1,11.4816,7.21868Z" fill="#eead49"/><path d="M7.70658,9.1027,7.695,9.13131C7.68341,9.11547,7.67709,9.10183,7.70658,9.1027Z" fill="#f3c974"/><path d="M6.36557,9.20364a.03919.03919,0,0,1-.0225-.043A.0317.0317,0,0,1,6.36557,9.20364Z" fill="#f3c974"/><path d="M8.83784,6.99723,7.81893,6.99694c.02747-.1651-.01917-.33358.0226-.49808a2.58272,2.58272,0,0,1,.24074-.51139,1.5635,1.5635,0,0,1,.5183-.51466c.08-.047.1484-.13673.26087-.11669a1.15323,1.15323,0,0,0,.318-.0807,1.61373,1.61373,0,0,1,.46561-.06132l-.001,1.027a.02289.02289,0,0,1-.018.00051c-.04442-.05151-.1009-.0277-.15363-.02372-.10961.00827-.1921.09059-.28777.11713-.10326.02864-.11739.08482-.1306.16311l.00059-.00052c-.0476-.00862-.06665.0217-.0919.05606A.68094.68094,0,0,0,8.83784,6.99723Z" fill="#f4c871"/><path d="M8.86144,5.35612c-.11247-.02-.18087.06967-.26087.11669a1.5635,1.5635,0,0,0-.5183.51466,2.58272,2.58272,0,0,0-.24074.51139c-.03562-.03082-.02406-.07277-.02414-.11077-.00069-.34608.00267-.6922-.00207-1.03822-.00139-.10162.029-.14008.13448-.13736.24419.00628.48883.00756.73292-.00041C8.79455,5.20845,8.85511,5.24181,8.86144,5.35612Z" fill="#eead49"/><path d="M9.95351,6.31009c-.033-.00321-.07029.007-.0929-.02928C9.90564,6.246,9.92954,6.27814,9.95351,6.31009Z" fill="#f3c974"/><path d="M9.81566,6.271c-.02034.01051-.038.01-.05024-.01233C9.79143,6.22509,9.80482,6.24284,9.81566,6.271Z" fill="#f3c974"/><path d="M3.59176,5.329a2.279,2.279,0,0,0-.71141.60339,2.07082,2.07082,0,0,0-.24309.46569c-.0145.03636-.00672.09249-.06772.09847-.03686-.0307-.02333-.07306-.02342-.11082-.00089-.36733.00255-.73471-.00255-1.102-.00131-.09476.02779-.12172.121-.11955.2527.00586.50563.00213.75847.00185C3.62692,5.1658,3.58448,5.16291,3.59176,5.329Z" fill="#eead49"/><path d="M2.56921,6.54392c.03577.03315.0103.04177-.01945.04868A.04174.04174,0,0,1,2.56921,6.54392Z" fill="#eead49"/><path d="M9.05461,6.49759c-.039.07169-.07841.14312-.11679.21512a1.02218,1.02218,0,0,0-.06074.37954c-.05128-.016-.03355-.06033-.03922-.095a.68077.68077,0,0,1,.12485-.44355C8.988,6.51929,9.007,6.489,9.05461,6.49759Z" fill="#f3c974"/><path d="M9.626,6.24159a1.05614,1.05614,0,0,0-.572.25651c.01322-.07828.02735-.13446.13061-.1631.09567-.02654.17816-.10886.28777-.11713C9.52512,6.21389,9.5816,6.19008,9.626,6.24159Z" fill="#f3c974"/></svg>
