<svg xmlns="http://www.w3.org/2000/svg" viewBox="0 0 14 14"><rect width="14" height="14" rx="6.99999" fill="#fff"/><path d="M7.92018,8.81925c-.03432-.02718-.02136-.06554-.02144-.09942-.00116-.54185-.012-1.084.00162-1.62548.01061-.42088-.002-.84145.00883-1.26249.02-.77383.01032-1.54849.00694-2.32278-.00051-.11614.03466-.15017.149-.14735.28784.00712.576.00345.864.001.087-.00074.108.02646.10669.11946-.00777.56149-.00557,1.12313-.0044,1.68472.0002.09291.02764.12267.13742.08634a1.8757,1.8757,0,0,1,1.36416.04187c.02906.01238.06024.02242.06846.059a2.80472,2.80472,0,0,1-.32255-.09885.9221.9221,0,0,0-.48965-.04122,1.61366,1.61366,0,0,0-.4656.06132,1.15332,1.15332,0,0,1-.318.0807c-.00634-.11431-.06689-.14767-.17873-.144-.24408.008-.48872.00669-.73291.00041-.10548-.00272-.13587.03574-.13448.13736.00473.346.00137.69214.00206,1.03822.00008.038-.01148.08.02414.11081-.04177.16446.00488.33294-.02258.49806a.20682.20682,0,0,0-.0237.11413q.00147.818.00188,1.636Z" fill="#f3c974"/><path d="M7.92018,8.81925l.02114-.07212q.5341.004,1.06827.00786A1.71547,1.71547,0,0,1,8.65778,9.883a1.82542,1.82542,0,0,1-1.3749.75437,1.06489,1.06489,0,0,1-.15272-.00872.522.522,0,0,0,.02513-.17279c-.00171-.29755-.001-.59512-.00107-.89268a.79974.79974,0,0,0,.685-.43191l.01163-.02861A.73441.73441,0,0,0,7.92018,8.81925Z" fill="#a84831"/><path d="M7.15422,9.56322c.00011.29756-.00064.59513.00107.89268a.522.522,0,0,1-.02513.17279,1.51516,1.51516,0,0,1-.81785-.19053A1.80809,1.80809,0,0,1,5.29456,8.8587a.988.988,0,0,1,.00949-.12912c.30928.00022.61857.00088.92786.00023a.27526.27526,0,0,1,.14754.02708.90817.90817,0,0,0,.10785.40373.03921.03921,0,0,0,.02251.043A.85132.85132,0,0,0,7.15422,9.56322Z" fill="#de883e"/><path d="M11.64078,7.06462l-.00245.07507c-.02616.02283-.0183.05107-.01249.079a1.65622,1.65622,0,0,1-.50566,1.08917,1.823,1.823,0,0,1-1.17043.55587.288.288,0,0,1-.1631-.01028l.003-1.06824a1.08926,1.08926,0,0,0,.37226-.107.79175.79175,0,0,0,.39758-.65873c.31892-.00038.63784-.00018.95675-.00178A.13047.13047,0,0,1,11.64078,7.06462Z" fill="#de883e"/><path d="M5.302,6.99514a.71927.71927,0,0,0-.4088-.6968,1.02053,1.02053,0,0,0-.419-.10016l-.00372-1.034c.055-.03632.11072.00721.166-.0015a.63992.63992,0,0,0,.28342.03563l.047.00877a.16646.16646,0,0,0,.15236.04954,1.49835,1.49835,0,0,1,.59781.32,1.87724,1.87724,0,0,1,.558.77821.43737.43737,0,0,1,.02744.13824.23651.23651,0,0,0,.0575.19578l.00691.09372a.065.065,0,0,0-.01874.06509c.02561.13523-.04561.15255-.15948.15C5.89327,6.99105,5.59758,6.99526,5.302,6.99514Z" fill="#eead49"/><path d="M11.64078,7.06462a.13047.13047,0,0,0-.12455-.04693c-.31891.0016-.63783.0014-.95678.00178a.81187.81187,0,0,0-.46171-.70938c-.024-.032-.04786-.06411-.09289-.02929l-.045-.00978c-.01083-.02818-.02423-.04593-.05024-.01233l-.12139-.01757.001-1.027a.92213.92213,0,0,1,.48966.04122,2.80472,2.80472,0,0,0,.32255.09885.04524.04524,0,0,1,.01965.00529c.00821.01715.01211.04429.02527.05a1.85034,1.85034,0,0,1,.43633.31311c.05223.04349.07049.12906.15527.1332A1.69745,1.69745,0,0,1,11.64078,7.06462Z" fill="#eead49"/><path d="M2.66623,7.01734c-.033-.033-.019-.07489-.019-.11273-.00086-1.13536.00049-2.27073-.003-3.40609-.00032-.10549.03271-.13682.13594-.13478.29269.00577.58562.00507.87835.00051.0942-.00147.12331.03184.12283.12413-.00288.55382-.00107,1.10766-.00077,1.6615.00007.12775.00626.12748.12573.09162a1.02439,1.02439,0,0,1,.49437-.08114c-.054.057-.12728.02726-.19018.037-.16414.02538-.31118.10729-.47452.13163-.00727-.16606.03517-.16317-.16875-.16294-.25283.00028-.50576.004-.75847-.00185-.09318-.00217-.12228.02479-.121.11955.0051.36726.00165.73464.00254,1.102.00009.03776-.01344.08012.02343.11082l-.00033.0474a.04166.04166,0,0,0-.01941.04869l-.00547.41877Z" fill="#f3c974"/><path d="M2.68857,7.01138,2.694,6.5926c.02974-.00691.05522-.01553.01945-.04868l.00033-.0474c.061-.006.05321-.06211.06771-.09847a2.07086,2.07086,0,0,1,.2431-.46569A2.27886,2.27886,0,0,1,3.736,5.329c.16334-.02434.31038-.10625.47452-.13163.0629-.00972.13618.02.19018-.037l.06984.00385.00372,1.034a.90839.90839,0,0,0-.54831.30074c-.03535.00087-.04929.01777-.03932.05255l-.091.203a.37734.37734,0,0,0-.05876.25765Z" fill="#de883e"/><path d="M2.68857,7.01138q.52413.00038,1.04827.00083l.00973.00542.01111-.00028c.00035.56166-.00136,1.12334.003,1.685.00077.09836-.02858.12973-.12768.12775-.28472-.00569-.56968-.00415-.85447.00007-.08744.0013-.11634-.02739-.11574-.11595.00386-.56559.00285-1.13121.00345-1.69684Z" fill="#a84831"/><path d="M9.00959,8.755q-.53415-.0039-1.06827-.00786-.00073-.81809-.00184-1.636a.20709.20709,0,0,1,.02368-.11415l1.01893.00026c.00567.03472-.01206.07909.03918.09506l.01289.122L9.03074,8.7096Z" fill="#eead49"/><path d="M5.302,6.99514c.29558.00012.59127-.00409.8867.00253.11387.00255.18509-.01477.15948-.15a.065.065,0,0,1,.01874-.06509c.0377.0295.02634.07255.02636.10977q.0006.89781-.00206,1.79561a.40777.40777,0,0,1-.01169.06893.27568.27568,0,0,0-.14762-.02708c-.30929.00065-.61858,0-.92786-.00023Z" fill="#f3c974"/><path d="M9.03074,8.7096l.0034-1.49521a.90986.90986,0,0,0,.2407.36481.9369.9369,0,0,0,.51481.206l-.003,1.06823A1.74241,1.74241,0,0,1,9.03074,8.7096Z" fill="#a84831"/><path d="M11.238,5.85574c-.08478-.00414-.103-.08971-.15527-.1332a1.85034,1.85034,0,0,0-.43633-.31311c-.01316-.00568-.01706-.03282-.02527-.05a.27894.27894,0,0,1,.1892.08718A1.157,1.157,0,0,1,11.238,5.85574Z" fill="#f3c974"/><path d="M4.91992,5.19834a.63992.63992,0,0,1-.28342-.03563A.33238.33238,0,0,1,4.91992,5.19834Z" fill="#f3c974"/><path d="M3.75768,7.01735l-.01111.00028-.00973-.00542a.37749.37749,0,0,1,.05877-.25771A.78567.78567,0,0,1,3.75768,7.01735Z" fill="#f3c974"/><path d="M6.36,6.68886a.23651.23651,0,0,1-.0575-.19578C6.37,6.54416,6.36185,6.61743,6.36,6.68886Z" fill="#f3c974"/><path d="M5.11925,5.25665a.16646.16646,0,0,1-.15236-.04954A.136.136,0,0,1,5.11925,5.25665Z" fill="#f3c974"/><path d="M3.88662,6.55147c-.01-.03478.004-.05168.03932-.05255A.04912.04912,0,0,1,3.88662,6.55147Z" fill="#f3c974"/><path d="M11.62584,7.21868c-.00581-.02792-.01367-.05616.01249-.079A.07492.07492,0,0,1,11.62584,7.21868Z" fill="#eead49"/><path d="M7.85082,9.1027l-.01163.02861C7.82765,9.11547,7.82132,9.10183,7.85082,9.1027Z" fill="#f3c974"/><path d="M6.50981,9.20364a.03921.03921,0,0,1-.02251-.043A.0317.0317,0,0,1,6.50981,9.20364Z" fill="#f3c974"/><path d="M8.98208,6.99723,7.96316,6.99694c.02748-.1651-.01917-.33358.0226-.49808a2.58276,2.58276,0,0,1,.24075-.51139,1.56338,1.56338,0,0,1,.51829-.51466c.08-.047.14841-.13673.26088-.11669a1.15332,1.15332,0,0,0,.318-.0807,1.61366,1.61366,0,0,1,.4656-.06132l-.001,1.027a.02286.02286,0,0,1-.018.00051c-.04443-.05151-.10091-.0277-.15363-.02372-.10962.00827-.19211.09059-.28777.11713-.10327.02864-.11739.08482-.1306.16311l.00058-.00052c-.0476-.00862-.06665.0217-.09189.05606A.68082.68082,0,0,0,8.98208,6.99723Z" fill="#f4c871"/><path d="M9.00568,5.35612c-.11247-.02-.18088.06967-.26088.11669a1.56338,1.56338,0,0,0-.51829.51466,2.58276,2.58276,0,0,0-.24075.51139c-.03562-.03082-.02406-.07277-.02414-.11077-.00069-.34608.00267-.6922-.00206-1.03822-.00139-.10162.029-.14008.13448-.13736.24419.00628.48883.00756.73291-.00041C8.93879,5.20845,8.99934,5.24181,9.00568,5.35612Z" fill="#eead49"/><path d="M10.09774,6.31009c-.033-.00321-.07029.007-.09289-.02928C10.04988,6.246,10.07378,6.27814,10.09774,6.31009Z" fill="#f3c974"/><path d="M9.95989,6.271c-.02034.01051-.038.01-.05024-.01233C9.93566,6.22509,9.94906,6.24284,9.95989,6.271Z" fill="#f3c974"/><path d="M3.736,5.329a2.27886,2.27886,0,0,0-.7114.60339,2.07086,2.07086,0,0,0-.2431.46569c-.0145.03636-.00672.09249-.06771.09847-.03687-.0307-.02334-.07306-.02343-.11082-.00089-.36733.00256-.73471-.00254-1.102-.00132-.09476.02778-.12172.121-.11955.25271.00586.50564.00213.75847.00185C3.77116,5.1658,3.72872,5.16291,3.736,5.329Z" fill="#eead49"/><path d="M2.71345,6.54392c.03577.03315.01029.04177-.01945.04868A.04173.04173,0,0,1,2.71345,6.54392Z" fill="#eead49"/><path d="M9.19884,6.49759c-.039.07169-.07841.14312-.11678.21512a1.022,1.022,0,0,0-.06074.37954c-.05129-.016-.03356-.06033-.03923-.095A.68072.68072,0,0,1,9.107,6.55365C9.13219,6.51929,9.15124,6.489,9.19884,6.49759Z" fill="#f3c974"/><path d="M9.77026,6.24159a1.05608,1.05608,0,0,0-.572.25651c.01322-.07828.02734-.13446.13061-.1631.09566-.02654.17815-.10886.28777-.11713C9.66935,6.21389,9.72583,6.19008,9.77026,6.24159Z" fill="#f3c974"/></svg>
