<svg data-tags="chat,message,text message" xmlns="http://www.w3.org/2000/svg" viewBox="0 0 14 14"><path fill="#00cd00" d="M7.648 5.48H7.53a.444.444 0 00-.152.019.127.127 0 00-.07.068 1.073 1.073 0 00-.052.16l-.27 1.015-.268-1.014a1.088 1.088 0 00-.052-.161.126.126 0 00-.07-.068.439.439 0 00-.153-.02h-.116a.3.3 0 00-.17.043.182.182 0 00-.063.163v1.466a.232.232 0 00.047.16.161.161 0 00.124.053.16.16 0 00.126-.053.232.232 0 00.048-.16V5.873l.296 1.18.03.112a.414.414 0 00.04.098.2.2 0 00.182.1.196.196 0 00.136-.043.234.234 0 00.068-.098c.012-.036.028-.092.047-.169l.298-1.18V7.15a.229.229 0 00.048.16.157.157 0 00.122.053.16.16 0 00.127-.053.232.232 0 00.047-.16V5.685a.182.182 0 00-.063-.163.3.3 0 00-.17-.042zm-2.045.9a.849.849 0 00-.216-.108 2.848 2.848 0 00-.283-.081 4.937 4.937 0 01-.18-.048.595.595 0 01-.107-.045.252.252 0 01-.084-.07.155.155 0 01-.03-.096.187.187 0 01.089-.153.394.394 0 01.235-.064.357.357 0 01.227.058.488.488 0 01.121.164.446.446 0 00.073.106.138.138 0 00.098.032.15.15 0 00.118-.054.176.176 0 00.047-.12.337.337 0 00-.037-.15.47.47 0 00-.12-.148.62.62 0 00-.207-.113.917.917 0 00-.295-.042.986.986 0 00-.372.064.527.527 0 00-.241.182.463.463 0 00-.083.272.441.441 0 00.078.269.535.535 0 00.214.17 1.725 1.725 0 00.334.11c.1.023.179.044.238.064a.366.366 0 01.146.088.206.206 0 01.056.15.234.234 0 01-.104.194.444.444 0 01-.271.077.423.423 0 01-.196-.038.304.304 0 01-.116-.098.734.734 0 01-.076-.148.299.299 0 00-.07-.112.142.142 0 00-.101-.038.164.164 0 00-.168.165.454.454 0 00.079.242.607.607 0 00.205.2.89.89 0 00.453.103.945.945 0 00.395-.076.577.577 0 00.254-.21.55.55 0 00.086-.302.506.506 0 00-.05-.237.44.44 0 00-.139-.16zm3.883 0a.85.85 0 00-.216-.108 2.845 2.845 0 00-.284-.081 5.011 5.011 0 01-.18-.048.599.599 0 01-.107-.045.252.252 0 01-.083-.07.154.154 0 01-.03-.096.187.187 0 01.089-.153.394.394 0 01.234-.064.357.357 0 01.228.058.488.488 0 01.12.164.444.444 0 00.074.106.137.137 0 00.098.032.15.15 0 00.118-.054.176.176 0 00.047-.12.337.337 0 00-.038-.15.47.47 0 00-.12-.148.62.62 0 00-.207-.113.917.917 0 00-.294-.042.986.986 0 00-.372.064.527.527 0 00-.242.182.463.463 0 00-.083.272.442.442 0 00.08.269.536.536 0 00.213.17 1.725 1.725 0 00.334.11c.099.023.178.044.238.064a.366.366 0 01.146.088.206.206 0 01.056.15.234.234 0 01-.104.194.444.444 0 01-.272.077.423.423 0 01-.195-.038.305.305 0 01-.116-.098.738.738 0 01-.076-.148.298.298 0 00-.07-.112.142.142 0 00-.101-.038.164.164 0 00-.168.165.454.454 0 00.079.242.606.606 0 00.205.2.89.89 0 00.452.103.945.945 0 00.396-.076.577.577 0 00.254-.21.55.55 0 00.086-.301.506.506 0 00-.05-.238.44.44 0 00-.14-.16z"/><path fill="#00cd00" d="M0-.032v14h14v-14zm6.937 9.82c-.078 0-.155-.003-.232-.006a3.706 3.706 0 01-2.118 1.206.076.076 0 01-.093-.11A3.084 3.084 0 005 9.416a3.432 3.432 0 01-2.343-3.051c0-1.89 1.916-3.423 4.28-3.423s4.28 1.533 4.28 3.423-1.916 3.422-4.28 3.422z"/></svg>