<svg data-tags="snapchat" xmlns="http://www.w3.org/2000/svg" viewBox="0 0 14 14"><path d="M12.522 14H1.478a1.478 1.478 0 0 1-1.479-1.476V1.478A1.48 1.48 0 0 1 1.478 0h11.044a1.479 1.479 0 0 1 1.479 1.478v11.044a1.479 1.479 0 0 1-1.479 1.479Z" fill="#fffc00"/><path d="M-.001 0H14v14H-.001Z" fill="none"/><path d="m7.065 11.816-.078-.002q-.026.003-.052.002a2.29 2.29 0 0 1-1.38-.544 1.99 1.99 0 0 0-.787-.403 2.542 2.542 0 0 0-.414-.035 2.866 2.866 0 0 0-.575.065 1.258 1.258 0 0 1-.218.032.151.151 0 0 1-.164-.118c-.024-.082-.041-.16-.058-.238-.042-.19-.072-.308-.144-.319-.766-.118-1.219-.292-1.309-.503a.196.196 0 0 1-.016-.067.123.123 0 0 1 .103-.128 2.672 2.672 0 0 0 1.608-.956 3.605 3.605 0 0 0 .551-.859.549.549 0 0 0 .053-.46c-.099-.233-.426-.337-.642-.406q-.073-.022-.145-.049c-.192-.075-.507-.236-.465-.456a.427.427 0 0 1 .415-.274.308.308 0 0 1 .126.025 1.25 1.25 0 0 0 .52.138.43.43 0 0 0 .3-.092l-.018-.305a5.148 5.148 0 0 1 .123-2.069 2.688 2.688 0 0 1 2.496-1.61l.206-.002a2.695 2.695 0 0 1 2.5 1.61 5.179 5.179 0 0 1 .123 2.07l-.002.034-.016.272a.415.415 0 0 0 .272.091 1.296 1.296 0 0 0 .49-.136.387.387 0 0 1 .16-.032.477.477 0 0 1 .183.035h.003a.342.342 0 0 1 .257.28c.002.107-.077.267-.469.421-.04.016-.091.032-.145.05-.217.068-.543.172-.642.405a.548.548 0 0 0 .052.46l.003.006a3.172 3.172 0 0 0 2.157 1.81.123.123 0 0 1 .103.127.197.197 0 0 1-.017.067c-.09.21-.542.384-1.308.502-.072.011-.102.128-.144.318q-.025.12-.058.237a.144.144 0 0 1-.152.113h-.012a1.25 1.25 0 0 1-.218-.028 2.87 2.87 0 0 0-.575-.06 2.462 2.462 0 0 0-.414.035 1.998 1.998 0 0 0-.787.401 2.278 2.278 0 0 1-1.38.545" fill="#fff"/><path d="M12.055 9.387a3.004 3.004 0 0 1-2.033-1.72.397.397 0 0 1-.047-.317c.068-.16.36-.252.563-.316l.128-.045a1.214 1.214 0 0 0 .437-.263.45.45 0 0 0 .141-.323.497.497 0 0 0-.367-.437.654.654 0 0 0-.25-.047.56.56 0 0 0-.232.048 1.174 1.174 0 0 1-.415.12c-.047-.002-.083-.01-.094-.01h-.001l.012-.203a5.274 5.274 0 0 0-.138-2.15 2.9 2.9 0 0 0-.655-.939 2.736 2.736 0 0 0-.782-.518 3.141 3.141 0 0 0-1.248-.255l-.18.001a3.09 3.09 0 0 0-1.22.257 2.738 2.738 0 0 0-.782.518 2.935 2.935 0 0 0-.651.937 5.27 5.27 0 0 0-.138 2.15l.007.111.036.074a.364.364 0 0 1-.151.028 1.089 1.089 0 0 1-.448-.12.467.467 0 0 0-.198-.042.684.684 0 0 0-.34.094.486.486 0 0 0-.247.32.44.44 0 0 0 .165.415 1.343 1.343 0 0 0 .407.234c.045.018.1.036.158.054.186.06.466.148.534.307a.414.414 0 0 1-.055.332 3.45 3.45 0 0 1-.521.809 2.88 2.88 0 0 1-.628.554 2.279 2.279 0 0 1-.877.343.296.296 0 0 0-.247.31.36.36 0 0 0 .03.124.696.696 0 0 0 .38.33 3.307 3.307 0 0 0 1.004.246 1.36 1.36 0 0 1 .058.215c.017.08.036.163.061.25a.32.32 0 0 0 .33.242 1.397 1.397 0 0 0 .252-.035 2.669 2.669 0 0 1 .54-.062 2.456 2.456 0 0 1 .387.033 1.852 1.852 0 0 1 .716.373 2.439 2.439 0 0 0 1.523.574l.085.002a2.436 2.436 0 0 0 1.489-.581 1.811 1.811 0 0 1 .707-.368 2.406 2.406 0 0 1 .927.025 1.349 1.349 0 0 0 .264.03.316.316 0 0 0 .318-.236c.025-.087.043-.167.064-.262.014-.062.037-.165.019-.174a4.107 4.107 0 0 0 1.04-.272.703.703 0 0 0 .38-.33.36.36 0 0 0 .03-.125.295.295 0 0 0-.247-.31Zm-1.616 1.363a1.172 1.172 0 0 1-.184-.024 2.741 2.741 0 0 0-1.05-.027 2.089 2.089 0 0 0-.86.433 2.15 2.15 0 0 1-1.353.51l-.056.002a2.107 2.107 0 0 1-1.285-.516 2.1 2.1 0 0 0-.854-.428 2.76 2.76 0 0 0-.443-.038 3.002 3.002 0 0 0-.612.07c-.074.013-.138.027-.179.034-.02-.07-.035-.14-.055-.227-.047-.217-.091-.422-.286-.453a3.055 3.055 0 0 1-1.207-.356l-.002-.002A3.294 3.294 0 0 0 4.288 7.82a.711.711 0 0 0 .056-.605c-.13-.305-.501-.424-.748-.503q-.068-.02-.135-.045c-.312-.123-.364-.231-.358-.263.01-.054.12-.124.272-.124H3.4a1.415 1.415 0 0 0 .594.154.572.572 0 0 0 .433-.154l.04-.09-.02-.34a5.102 5.102 0 0 1 .11-1.984 2.516 2.516 0 0 1 2.337-1.508l.206-.002a2.522 2.522 0 0 1 2.341 1.509 5.186 5.186 0 0 1 .107 2.026l-.016.276.025.097.014.016a.579.579 0 0 0 .411.153 2.068 2.068 0 0 0 .645-.168.338.338 0 0 1 .127.025c.088.03.142.086.143.12 0 0 0 .116-.359.257l-.135.046c-.246.078-.618.196-.748.502a.713.713 0 0 0 .055.603 3.184 3.184 0 0 0 2.244 1.866c-.01.022-.13.24-1.177.4-.193.03-.238.233-.286.45q-.022.109-.053.216Z" fill="#020202"/></svg>