<svg data-tags="snapchat" xmlns="http://www.w3.org/2000/svg" viewBox="0 0 14 14"><path d="M3.008 4.76c-.01-.01-.01-.01-.02 0a1.513 1.513 0 0 0 .196.073 1.265 1.265 0 0 1-.176-.073Zm8.327.104-.03.114a.154.154 0 0 0 .04-.083.038.038 0 0 0-.01-.031Zm0 0-.03.114a.154.154 0 0 0 .04-.083.038.038 0 0 0-.01-.031ZM3.008 4.76c-.01-.01-.01-.01-.02 0a1.513 1.513 0 0 0 .196.073 1.265 1.265 0 0 1-.176-.073Zm0 0c-.01-.01-.01-.01-.02 0a1.513 1.513 0 0 0 .196.073 1.265 1.265 0 0 1-.176-.073Zm8.327.104-.03.114a.154.154 0 0 0 .04-.083.038.038 0 0 0-.01-.031Zm-8.15-.031a1.512 1.512 0 0 1-.198-.073m6.388 8.773c0 .27-.217.456-.58.456a.857.857 0 0 1-.426-.103l.063-.208a.757.757 0 0 0 .373.114c.197 0 .3-.103.3-.238 0-.125-.082-.197-.29-.28-.28-.093-.404-.249-.404-.436a.468.468 0 0 1 .485-.45l.044.004a.73.73 0 0 1 .373.094l-.062.207a.591.591 0 0 0-.322-.093.22.22 0 0 0-.247.19l-.001.017c0 .135.093.187.29.26.26.103.404.238.404.466Zm-1.369.031v-1.856h-.28v.923a.519.519 0 0 0-.466-.239.725.725 0 0 0-.69.759q.001.03.005.06a.703.703 0 0 0 .612.785l.042.004a.568.568 0 0 0 .518-.3h.01l.01.258h.25c0-.103-.01-.259-.01-.394Zm-.28-.249a.465.465 0 0 1-.01.125.417.417 0 0 1-.404.332c-.301 0-.457-.26-.457-.57 0-.343.166-.592.457-.592a.414.414 0 0 1 .404.322.504.504 0 0 1 .01.124Zm-2.042-1.493h-.332l-.726 2.136h.29l.218-.674h.757l.228.674h.3Zm-.498 1.255.218-.622c.041-.135.072-.26.103-.384h.01c.032.124.063.249.104.384l.218.622Zm7.446-4.864a2.582 2.582 0 0 1-1.1-.466 3.682 3.682 0 0 1-1.161-1.452.467.467 0 0 1-.062-.353c.01-.01.01-.031.02-.041a1.272 1.272 0 0 1 .612-.311l.145-.042a1.514 1.514 0 0 0 .488-.3.532.532 0 0 0 .155-.353.556.556 0 0 0-.414-.488.596.596 0 0 0-.27-.051.639.639 0 0 0-.26.051 1.486 1.486 0 0 1-.466.135c-.052-.01-.093-.02-.104-.02l.01-.218a5.805 5.805 0 0 0-.155-2.396A3.159 3.159 0 0 0 9.344.861a3.279 3.279 0 0 0-.87-.58A3.483 3.483 0 0 0 7.083 0h-.208a3.323 3.323 0 0 0-1.358.29 3.014 3.014 0 0 0-.871.57 3.439 3.439 0 0 0-.726 1.047 6.18 6.18 0 0 0-.156 2.396l.01.124.042.083a.462.462 0 0 1-.166.031 1.284 1.284 0 0 1-.498-.135.564.564 0 0 0-.228-.051.714.714 0 0 0-.373.114.52.52 0 0 0-.28.352.534.534 0 0 0 .186.467 1.657 1.657 0 0 0 .457.26c.052.02.114.03.176.051.207.073.518.166.591.342a.439.439 0 0 1-.062.374 3.844 3.844 0 0 1-.58.902 2.95 2.95 0 0 1-.696.612 2.524 2.524 0 0 1-.974.383.33.33 0 0 0-.28.353.318.318 0 0 0 .03.135.762.762 0 0 0 .426.363 3.733 3.733 0 0 0 1.12.28 1.327 1.327 0 0 1 .062.238c.02.093.042.176.073.28a.348.348 0 0 0 .363.27 1.525 1.525 0 0 0 .28-.042 2.879 2.879 0 0 1 .601-.072 3.101 3.101 0 0 1 .436.041 2.043 2.043 0 0 1 .798.415 2.718 2.718 0 0 0 1.7.643h.094a2.715 2.715 0 0 0 1.66-.653 1.975 1.975 0 0 1 .788-.405 3.109 3.109 0 0 1 .425-.041 2.444 2.444 0 0 1 .601.072 1.735 1.735 0 0 0 .3.031.364.364 0 0 0 .354-.27 5.93 5.93 0 0 1 .072-.29c.01-.062.042-.176.02-.186a4.567 4.567 0 0 0 1.152-.311.762.762 0 0 0 .425-.363.594.594 0 0 0 .042-.146.345.345 0 0 0-.28-.342Zm-.208.436a1.134 1.134 0 0 1-.114.062 4.208 4.208 0 0 1-1.089.28h-.01a.236.236 0 0 0-.125.062.84.84 0 0 0-.176.446 7.7 7.7 0 0 1-.062.239h-.02a.699.699 0 0 1-.188-.031 3.408 3.408 0 0 0-.674-.073 4.035 4.035 0 0 0-.497.041 1.656 1.656 0 0 0-.509.187c-.145.093-.29.197-.445.3a3.548 3.548 0 0 1-.643.395 2.115 2.115 0 0 1-.861.176h-.062a1.907 1.907 0 0 1-.623-.104 2.136 2.136 0 0 1-.508-.259.938.938 0 0 0-.166-.114c-.051-.031-.103-.072-.155-.104-.156-.103-.3-.207-.446-.29h-.01a2.497 2.497 0 0 0-.239-.114 1.05 1.05 0 0 0-.238-.073 4.037 4.037 0 0 0-.498-.041 2.855 2.855 0 0 0-.685.083c-.083.01-.145.031-.197.031h-.01a1.458 1.458 0 0 1-.062-.249.983.983 0 0 0-.187-.446.322.322 0 0 0-.135-.062 5.85 5.85 0 0 1-.881-.197 1.279 1.279 0 0 1-.28-.114c-.104-.042-.145-.083-.166-.083l.311-.073a4.027 4.027 0 0 0 .529-.217h.01a4.893 4.893 0 0 0 .457-.29h.01a5.192 5.192 0 0 0 .54-.52 4.448 4.448 0 0 0 .652-1.026.791.791 0 0 0 .063-.674.75.75 0 0 0-.239-.3.249.249 0 0 0-.124-.073 1.244 1.244 0 0 0-.239-.114c-.072-.031-.145-.052-.207-.073a1.366 1.366 0 0 1-.156-.052.585.585 0 0 0-.124-.041.586.586 0 0 1-.145-.094h-.01c-.115-.072-.146-.134-.136-.155.01-.052.094-.114.208-.135.031 0 .062-.01.093-.01h.02l.011.01c.01-.01.01-.01.021 0a1.266 1.266 0 0 0 .176.073 1.49 1.49 0 0 0 .488.093.93.93 0 0 0 .186-.02.488.488 0 0 0 .27-.156l.052-.094-.02-.383a5.597 5.597 0 0 1 .113-2.21A2.685 2.685 0 0 1 5.87.57h.01a.658.658 0 0 1 .187-.062 3.047 3.047 0 0 1 .83-.124h.228a3.037 3.037 0 0 1 .82.124.658.658 0 0 1 .186.062h.01a3.065 3.065 0 0 1 .425.197h.01a1.17 1.17 0 0 1 .208.135h.01a.93.93 0 0 1 .198.166h.01a.886.886 0 0 1 .197.197 2.451 2.451 0 0 1 .54.799 5.8 5.8 0 0 1 .113 2.26l-.01.166.062.29a.666.666 0 0 0 .094.063.474.474 0 0 0 .145.052.522.522 0 0 0 .197.03 2.104 2.104 0 0 0 .477-.103c.072-.02.145-.052.228-.083h.01a.276.276 0 0 1 .125.031h.02c.021.01.042.01.052.031a.057.057 0 0 1 .052.032l.031.03a.038.038 0 0 1 .01.032.153.153 0 0 1-.04.083.366.366 0 0 1-.115.093h-.01a.324.324 0 0 1-.104.052c-.01.02-.031.02-.052.031l-.062.031-.156.052-.103.031a2.126 2.126 0 0 0-.363.156h-.01a1.545 1.545 0 0 0-.208.155.8.8 0 0 0-.145.218.79.79 0 0 0 .062.674A3.834 3.834 0 0 0 11.957 8.4a3.166 3.166 0 0 0 .56.145h.021c0 .02-.02.052-.114.104Z"/></svg>