<svg data-tags="brand,snapchat" xmlns="http://www.w3.org/2000/svg" viewBox="0 0 14 14"><circle cx="7" cy="7" r="7" fill="#fffc00"/><path d="M11.163 8.91a.57.57 0 00-.3-.31.209.209 0 00-.06-.04.607.607 0 00-.12-.05 2.533 2.533 0 01-.91-.79 2.54 2.54 0 01-.16-.28.138.138 0 010-.11.121.121 0 01.05-.05 1.842 1.842 0 00.18-.12 1.75 1.75 0 00.2-.13.985.985 0 00.34-.37.702.702 0 00.04-.6.712.712 0 00-.7-.46 1.5 1.5 0 00-.2.02c-.02 0-.03.01-.05.01 0-.19 0-.39-.02-.59a2.19 2.19 0 00-.56-1.37 2.143 2.143 0 00-.58-.46 2.535 2.535 0 00-1.31-.34 2.598 2.598 0 00-1.32.34 2.305 2.305 0 00-.57.46 2.136 2.136 0 00-.56 1.37 3.93 3.93 0 00-.02.59.127.127 0 01-.06-.01 1.23 1.23 0 00-.2-.02.712.712 0 00-.69.46.724.724 0 00.03.61.99.99 0 00.35.36c.04.03.11.08.19.13q.075.045.18.12a.268.268 0 01.06.05.175.175 0 01-.01.12 1.478 1.478 0 01-.16.27 2.298 2.298 0 01-.88.77c-.21.11-.42.18-.5.42a.534.534 0 00.14.57.888.888 0 00.22.16 2.36 2.36 0 00.52.21.488.488 0 01.11.04c.06.06.05.14.13.26a.609.609 0 00.16.16 1.003 1.003 0 00.57.13 2.277 2.277 0 01.64.1 1.26 1.26 0 01.32.17 2.36 2.36 0 001.35.42 2.438 2.438 0 001.35-.42 1.259 1.259 0 01.32-.17 2.266 2.266 0 01.63-.1.976.976 0 00.58-.13.613.613 0 00.17-.19c.06-.11.06-.18.12-.23a.3.3 0 01.1-.04 2.659 2.659 0 00.53-.21.963.963 0 00.22-.18h.01a.553.553 0 00.13-.55zm-.59.32c-.36.19-.59.17-.78.29-.16.1-.06.32-.18.4-.14.1-.55-.01-1.09.17-.44.15-.73.57-1.52.57-.8 0-1.07-.42-1.52-.57-.54-.18-.95-.07-1.1-.17-.11-.08-.02-.3-.17-.4-.19-.12-.43-.1-.79-.29-.22-.13-.09-.21-.02-.24a2.55 2.55 0 001.52-1.68.227.227 0 00-.08-.24 7.44 7.44 0 00-.62-.42c-.18-.13-.27-.26-.21-.43a.263.263 0 01.26-.15.31.31 0 01.1.01c.21.05.41.15.53.18h.04c.06 0 .09-.03.08-.1a9.15 9.15 0 01-.01-1.08 1.709 1.709 0 01.45-1.1 2.031 2.031 0 011.54-.64 1.98 1.98 0 011.53.64 1.709 1.709 0 01.45 1.1 6.214 6.214 0 01-.01 1.08c0 .07.02.1.08.1h.05a4.27 4.27 0 01.52-.18.342.342 0 01.1-.01.255.255 0 01.26.15c.06.16-.02.3-.21.43-.11.08-.53.33-.62.42a.238.238 0 00-.07.24 2.525 2.525 0 001.51 1.67c.08.04.21.12-.02.25z"/><path fill="#fff" d="M10.573 9.23c-.36.19-.59.17-.78.29-.16.1-.06.32-.18.4-.14.1-.55-.01-1.09.17-.44.15-.73.57-1.52.57-.8 0-1.07-.42-1.52-.57-.54-.18-.95-.07-1.1-.17-.11-.08-.02-.3-.17-.4-.19-.12-.43-.1-.79-.29-.22-.13-.09-.21-.02-.24a2.55 2.55 0 001.52-1.68.227.227 0 00-.08-.24 7.44 7.44 0 00-.62-.42c-.18-.13-.27-.26-.21-.43a.263.263 0 01.26-.15.31.31 0 01.1.01c.21.05.41.15.53.18h.04c.06 0 .09-.03.08-.1a9.15 9.15 0 01-.01-1.08 1.709 1.709 0 01.45-1.1 2.031 2.031 0 011.54-.64 1.98 1.98 0 011.53.64 1.709 1.709 0 01.45 1.1 6.214 6.214 0 01-.01 1.08c0 .07.02.1.08.1h.05a4.27 4.27 0 01.52-.18.342.342 0 01.1-.01.255.255 0 01.26.15c.06.16-.02.3-.21.43-.11.08-.53.33-.62.42a.238.238 0 00-.07.24 2.525 2.525 0 001.51 1.67c.08.04.21.12-.02.25z"/></svg>