<svg data-tags="snapchat" xmlns="http://www.w3.org/2000/svg" viewBox="0 0 14 14"><path d="M12.522 0H1.478A1.48 1.48 0 0 0-.001 1.476v11.046A1.478 1.478 0 0 0 1.478 14h11.044a1.479 1.479 0 0 0 1.479-1.478V1.477A1.479 1.479 0 0 0 12.522 0Zm-2.031 10.535q-.022.109-.053.215a1.181 1.181 0 0 1-.183-.024 2.74 2.74 0 0 0-1.05-.027 2.089 2.089 0 0 0-.86.432 2.15 2.15 0 0 1-1.353.51l-.056.002a2.107 2.107 0 0 1-1.285-.516 2.1 2.1 0 0 0-.854-.428 2.76 2.76 0 0 0-.443-.038 3.005 3.005 0 0 0-.612.07c-.074.013-.138.027-.179.034-.02-.07-.035-.139-.055-.227-.047-.217-.091-.422-.286-.453a3.055 3.055 0 0 1-1.207-.356l-.002-.002A3.294 3.294 0 0 0 4.288 7.82a.712.712 0 0 0 .056-.605c-.13-.305-.501-.424-.748-.503q-.068-.02-.135-.045c-.312-.123-.364-.23-.358-.263.01-.054.12-.124.272-.124H3.4a1.415 1.415 0 0 0 .594.154.571.571 0 0 0 .433-.154l.04-.09-.02-.34a5.103 5.103 0 0 1 .11-1.984 2.516 2.516 0 0 1 2.337-1.508l.206-.002a2.523 2.523 0 0 1 2.341 1.51 5.187 5.187 0 0 1 .107 2.025l-.016.276.025.097.014.016a.579.579 0 0 0 .411.153 2.067 2.067 0 0 0 .645-.168.339.339 0 0 1 .127.025c.088.031.142.086.143.12 0 .001 0 .116-.359.257l-.135.046c-.246.078-.618.196-.748.502a.713.713 0 0 0 .055.603 3.184 3.184 0 0 0 2.244 1.866c-.01.023-.13.24-1.177.4-.193.03-.238.234-.286.451Z" fill="#020202"/></svg>