<svg data-tags="snkrs" xmlns="http://www.w3.org/2000/svg" viewBox="0 0 14 14"><path d="M3.551 2.087c-.745.837-1.065 1.445-1.065 2.03 0 .515.317.86.87.949.452.071.95-.049 1.98-.477l.748-.308 2.257-.943c2.51-1.048 3.07-1.282 3.307-1.377.1-.04.174-.077.169-.082-.009-.009-1.571.397-5.29 1.368-1.382.362-1.61.42-1.853.45-.566.075-.966-.09-1.134-.465-.055-.122-.069-.197-.066-.394 0-.277.054-.485.197-.777.054-.105.091-.194.089-.194-.006 0-.1.1-.209.22zm7.483 1.088l-.151.009v.683h-.714v.371h.714v.685h.342v-.685h.714v-.372h-.714v-.34c0-.188-.008-.345-.02-.35a.788.788 0 00-.17 0zM1.03 6.991c-.526.148-.883.568-.99 1.162-.108.626.095 1.04.78 1.588.278.22.352.32.352.463 0 .206-.131.317-.377.317-.237-.003-.52-.163-.694-.397l-.071-.1v.706c0 .805-.029.73.3.805.24.057.78.066.985.014.394-.094.754-.374.928-.722.054-.109.1-.226.1-.257 0-.032.009-.049.02-.04.009.011.014.245.011.52l-.005.5H3.57l.006-1.106.008-1.108.189.485c.106.269.297.766.428 1.106l.237.622h1.017V6.98h-1.2v2.042l-.226-.786a54.77 54.77 0 01-.288-1.022l-.063-.234H2.372l-.003 1.362c0 .751-.012 1.334-.023 1.294-.083-.272-.3-.526-.72-.843-.277-.214-.351-.294-.385-.425a.277.277 0 01.134-.289c.188-.1.465-.026.69.183.07.066.132.117.138.117.006 0 .009-.28.003-.625l-.009-.626-.162-.06a3.561 3.561 0 00-.292-.088 2.132 2.132 0 00-.714.011zm11.612-.009c-.42.1-.78.443-.945.897-.02.052-.023.049-.052-.028a1.404 1.404 0 00-.328-.477c-.157-.143-.357-.24-.64-.314-.226-.058-.314-.063-1.71-.072l-1.472-.011-.114.237c-.066.131-.206.428-.314.66l-.197.422-.009-.66-.005-.656H5.627v4.569h1.229v-.965c.002-.805.008-.951.04-.891.02.04.188.474.377.962l.34.894 1.156-.008 1.157-.006.008-.671c.003-.369.01-.777.015-.908l.005-.24.332.91.331.909.883.026c.485.014.97.023 1.076.023.794-.006 1.366-.566 1.411-1.377.035-.617-.128-.923-.757-1.408-.165-.126-.322-.269-.35-.317-.067-.109-.07-.24-.004-.32.18-.226.566-.143.863.18l.143.157V7.125l-.152-.054c-.302-.114-.805-.154-1.088-.089zm-3.93 2.145c0 1.054-.008 1.908-.02 1.9-.017-.02-.128-.28-.408-.963l-.277-.674c-.143-.337-.166-.411-.14-.471.017-.037.194-.409.397-.826.202-.417.38-.785.394-.822.014-.034.031-.063.04-.063.008 0 .014.863.014 1.92zm1.577-1.102c.328.171.3.857-.043 1.02a.515.515 0 01-.203.048H9.94V7.945l.134.02a.844.844 0 01.215.06zm1.736 1.382c.086.092.263.246.394.346.266.203.349.311.349.468 0 .083-.02.126-.097.203-.089.089-.112.097-.263.097-.223 0-.426-.097-.626-.297l-.157-.157-.003.391-.002.392-.283-.572a8.405 8.405 0 01-.283-.605c0-.017.071-.072.157-.12.177-.1.357-.309.431-.503l.049-.131.089.163c.048.088.157.237.245.325z"/></svg>