<svg data-tags="snkrs" xmlns="http://www.w3.org/2000/svg" viewBox="0 0 14 14"><circle fill="#FFF" cx="7" cy="7" r="6.714"/><path fill="#F0F0F5" d="M7 14c-3.86 0-7-3.14-7-7s3.14-7 7-7 7 3.14 7 7-3.14 7-7 7zM7 .286C3.298.286.286 3.298.286 7S3.298 13.714 7 13.714 13.714 10.702 13.714 7 10.702.286 7 .286z"/><path d="M10.784 4.051v.288h-.552v.529h-.264v-.529h-.54v-.288h.54V3.53h.123c.059-.012.123-.012.13 0 .011 0 .011.117.011.27v.252h.552zm-.141-1.503a.446.446 0 01-.076.04c-.194.083-.617.253-2.538 1.058-.886.376-1.674.693-1.732.728-.07.03-.323.13-.576.23-.793.334-1.169.422-1.521.37-.423-.07-.664-.33-.664-.723 0-.452.24-.916.817-1.562.058-.07.117-.13.152-.159-.012.03-.035.082-.064.141a1.197 1.197 0 00-.147.593c0 .153.006.212.047.3.129.294.434.417.875.364.182-.03.352-.07 1.421-.352 2.567-.676 3.789-.987 4.006-1.028zM5.81 6.436v3.507h-.776l-.176-.476c-.106-.264-.253-.646-.335-.846l-.141-.37-.012.846v.846h-.922v-.388c.006-.211 0-.382 0-.388-.012-.011-.024 0-.024.03a.531.531 0 01-.082.188c-.129.276-.4.487-.705.558-.158.035-.57.035-.751-.012-.253-.053-.235 0-.235-.617v-.54l.052.076c.141.182.353.306.535.306.188 0 .294-.083.294-.241 0-.112-.065-.194-.276-.353-.523-.423-.676-.746-.594-1.221.083-.453.353-.776.758-.893.118-.03.411-.03.54-.012.065.018.165.053.235.07l.118.053.012.47c0 .27 0 .482-.012.482 0 0-.047-.035-.1-.088-.17-.159-.382-.212-.534-.141a.223.223 0 00-.1.223c.029.1.082.159.305.33.311.24.482.434.54.645.012 0 .024-.44.024-.998V6.436h1.004l.041.182c.03.1.13.452.224.787l.176.6v-1.57h.916zm5.961 1.398c-.13-.1-.253-.2-.27-.24a.22.22 0 010-.253c.14-.17.434-.1.664.14l.111.124V6.559l-.123-.052a1.762 1.762 0 00-.834-.06c-.323.071-.594.33-.723.682-.011.041-.023.041-.04-.017-.03-.112-.154-.282-.253-.376a1.19 1.19 0 00-.482-.23c-.182-.052-.24-.052-1.322-.058l-1.127-.012-.083.182c-.047.1-.158.33-.24.505l-.147.33-.012-.512v-.505h-.946v3.507h.946v-.74c0-.611 0-.735.03-.682l.281.735.265.687h.88l.888-.012.011-.517c0-.282.012-.593.012-.693l.006-.182.505 1.392.676.018c.37.011.745.023.828.023.61 0 1.045-.435 1.086-1.057.018-.476-.1-.705-.587-1.08zM8.288 9.55c-.012-.023-.088-.223-.311-.746-.042-.111-.141-.34-.212-.517-.111-.258-.123-.311-.1-.358.012-.03.141-.311.3-.634a34.2 34.2 0 01.305-.629c.006-.03.018-.047.03-.047.011 0 .011.664.011 1.469 0 .804-.011 1.462-.023 1.462zm1.198-1.521a.474.474 0 01-.158.03h-.083v-.876l.112.012c.047.006.13.03.158.047.253.129.235.658-.029.787zm1.856 1.057c-.064.059-.082.07-.205.07-.17 0-.323-.07-.47-.234l-.124-.118v.3l-.011.305-.212-.434a4.818 4.818 0 01-.217-.476c0-.006.059-.047.117-.088a.762.762 0 00.335-.382l.041-.1.07.118a.81.81 0 00.183.252c.07.07.2.194.3.27.2.153.27.235.27.353 0 .07-.018.105-.077.164z" fill="#FF1800"/></svg>