<svg data-tags="snowflake" xmlns="http://www.w3.org/2000/svg" viewBox="0 0 14 14"><rect x=".001" y=".002" width="13.998" height="13.998" rx="6.999" fill="#29b5e8"/><path d="m3.887 4.652 1.83 1.097a.523.523 0 0 0 .645-.084.564.564 0 0 0 .172-.41V3.059a.536.536 0 1 0-1.07 0v1.25l-1.04-.622a.533.533 0 0 0-.41-.057.522.522 0 0 0-.323.26.57.57 0 0 0 .196.762m4.397 1.097 1.829-1.097a.57.57 0 0 0 .197-.763.527.527 0 0 0-.734-.204L8.549 4.3V3.056a.536.536 0 1 0-1.07 0V5.21a.574.574 0 0 0 .07.333.524.524 0 0 0 .733.203m-1.626 1.25a.156.156 0 0 1 .038-.095l.214-.222a.149.149 0 0 1 .093-.04h.008a.148.148 0 0 1 .092.04l.214.222a.158.158 0 0 1 .038.096v.008a.159.159 0 0 1-.038.096l-.214.222a.146.146 0 0 1-.092.04H7a.147.147 0 0 1-.093-.04l-.214-.222a.159.159 0 0 1-.038-.096Zm-.647-.09v.19a.217.217 0 0 0 .052.132l.726.753a.2.2 0 0 0 .125.054h.185a.2.2 0 0 0 .126-.054l.725-.753A.216.216 0 0 0 8 7.097v-.192a.216.216 0 0 0-.052-.13l-.725-.754a.2.2 0 0 0-.126-.054h-.185a.2.2 0 0 0-.125.054l-.726.755a.218.218 0 0 0-.052.13M2.94 6.385l1.036.62-1.036.621a.57.57 0 0 0-.196.763.527.527 0 0 0 .734.204l1.829-1.097a.578.578 0 0 0 .267-.49.585.585 0 0 0-.267-.492l-1.83-1.096a.533.533 0 0 0-.41-.056.522.522 0 0 0-.323.259.57.57 0 0 0 .196.762m5.483.625a.562.562 0 0 0 .269.489l1.827 1.096a.526.526 0 0 0 .734-.204.57.57 0 0 0-.197-.762l-1.034-.621 1.036-.621a.57.57 0 0 0 .197-.762.526.526 0 0 0-.324-.26.52.52 0 0 0-.41.057L8.694 6.516a.562.562 0 0 0-.269.493M6.084 8.197a.52.52 0 0 0-.368.065L3.888 9.36a.57.57 0 0 0-.197.762.527.527 0 0 0 .734.204l1.039-.623v1.242a.536.536 0 1 0 1.07 0v-2.2a.55.55 0 0 0-.45-.549m4.029 1.164L8.284 8.262a.526.526 0 0 0-.734.204.575.575 0 0 0-.07.333v2.145a.536.536 0 1 0 1.07 0V9.71l1.025.615a.533.533 0 0 0 .411.056.522.522 0 0 0 .324-.26.57.57 0 0 0-.197-.762" fill="#fff"/></svg>