<svg data-tags="snowflake" xmlns="http://www.w3.org/2000/svg" viewBox="0 0 14 14"><path d="m2.158 3.347 2.845 1.706a.814.814 0 0 0 1.004-.131.877.877 0 0 0 .268-.636V.866a.833.833 0 1 0-1.665 0v1.946l-1.616-.969a.829.829 0 0 0-.639-.087.812.812 0 0 0-.503.403.886.886 0 0 0 .306 1.186m6.84 1.706 2.844-1.706a.887.887 0 0 0 .306-1.186.82.82 0 0 0-1.141-.318l-1.597.956V.863a.833.833 0 1 0-1.665 0v3.352a.892.892 0 0 0 .108.517.815.815 0 0 0 1.142.316m-2.53 1.945a.242.242 0 0 1 .06-.148l.332-.346a.232.232 0 0 1 .144-.062h.012a.23.23 0 0 1 .144.062l.332.346a.245.245 0 0 1 .06.149v.013a.247.247 0 0 1-.06.15l-.332.345a.227.227 0 0 1-.144.062h-.012a.228.228 0 0 1-.144-.062l-.332-.346a.247.247 0 0 1-.06-.15Zm-1.007-.142v.299a.337.337 0 0 0 .081.203l1.129 1.172a.31.31 0 0 0 .196.084h.287a.31.31 0 0 0 .195-.084l1.129-1.172a.337.337 0 0 0 .081-.203V6.85a.337.337 0 0 0-.081-.203L7.346 5.476a.31.31 0 0 0-.195-.084h-.287a.31.31 0 0 0-.196.084L5.539 6.65a.339.339 0 0 0-.08.203M.685 6.042l1.611.966-1.61.965A.888.888 0 0 0 .38 9.16a.819.819 0 0 0 1.142.318l2.845-1.706a.9.9 0 0 0 .416-.764.91.91 0 0 0-.416-.763L1.522 4.538a.829.829 0 0 0-.639-.088.812.812 0 0 0-.503.404.886.886 0 0 0 .307 1.185m8.528.972a.875.875 0 0 0 .418.76l2.843 1.706a.819.819 0 0 0 1.142-.317.886.886 0 0 0-.307-1.186l-1.608-.966 1.61-.966a.887.887 0 0 0 .307-1.186.816.816 0 0 0-1.142-.315L9.635 6.247a.875.875 0 0 0-.418.767M5.574 8.86a.81.81 0 0 0-.57.101l-2.846 1.706a.887.887 0 0 0-.306 1.186.82.82 0 0 0 1.142.317l1.616-.969v1.932a.833.833 0 1 0 1.665 0V9.712a.855.855 0 0 0-.7-.854m6.267 1.81L8.997 8.962a.819.819 0 0 0-1.142.318.895.895 0 0 0-.108.518v3.335a.833.833 0 1 0 1.666 0v-1.916l1.593.955a.829.829 0 0 0 .64.088.812.812 0 0 0 .502-.403.886.886 0 0 0-.306-1.186" fill="#29b5e8"/></svg>