<svg data-tags="feedback" xmlns="http://www.w3.org/2000/svg" viewBox="0 0 14 14"><path fill="#082fc3" d="M0 0h14v14H0z"/><path d="M8.74 6.259c-1.543 0-2.796.904-2.796 2.017a1.503 1.503 0 0 0 .152.656 5.476 5.476 0 0 1-1.802-.32 1.946 1.946 0 0 0-1.343.643c-.054.063-.002-.101.071-.328.11-.343.267-.83.172-.9a2.47 2.47 0 0 1-1.099-1.95c0-1.576 1.824-2.854 4.073-2.854 2.251 0 4.075 1.278 4.075 2.854a2.01 2.01 0 0 1-.057.473 3.619 3.619 0 0 0-1.446-.291Zm.56 4.303c-1.437 0-2.603-.817-2.603-1.825 0-1.007 1.166-1.824 2.604-1.824s2.604.817 2.604 1.824a1.578 1.578 0 0 1-.703 1.247c-.06.044.04.353.11.572.047.147.081.253.046.212a1.258 1.258 0 0 0-.86-.41 3.52 3.52 0 0 1-1.198.204Z" fill="#fff" fill-rule="evenodd"/></svg>