<svg data-tags="social feedback" xmlns="http://www.w3.org/2000/svg" viewBox="0 0 14 14"><path d="M6.568 9.48c0 1.438 1.664 2.604 3.714 2.604a5.024 5.024 0 0 0 1.71-.292 1.795 1.795 0 0 1 1.227.586c.126.144-.365-1.014-.222-1.12A2.253 2.253 0 0 0 14 9.48c0-1.437-1.664-2.603-3.716-2.603S6.568 8.042 6.568 9.48Z" fill="#0828cc"/><path d="M5.493 8.821c0-1.588 1.788-2.878 3.99-2.878a5.165 5.165 0 0 1 2.064.415 2.875 2.875 0 0 0 .081-.675c0-2.25-2.603-4.073-5.815-4.073C2.603 1.61 0 3.434 0 5.683a3.524 3.524 0 0 0 1.568 2.783c.226.168-.542 1.978-.346 1.752a2.777 2.777 0 0 1 1.916-.917 7.815 7.815 0 0 0 2.572.456 2.145 2.145 0 0 1-.217-.936Z" fill="#0828cc"/></svg>