<svg data-tags="sound cloud" xmlns="http://www.w3.org/2000/svg" viewBox="0 0 14 14"><defs><linearGradient id="brand_soundCloud_clr__a" x1="1909.956" y1="-33.641" x2="1909.956" y2="-23.572" gradientTransform="matrix(1.25 0 0 1.25 -2380.445 41.406)" gradientUnits="userSpaceOnUse"><stop offset="0" stop-color="#eda441"/><stop offset="1" stop-color="#df6036"/></linearGradient></defs><path d="M7.485 4.166c-.13.05-.165.102-.166.202v5.466a.21.21 0 0 0 .186.203l4.773.003a1.722 1.722 0 1 0-.666-3.31 3.038 3.038 0 0 0-3.026-2.77 3.072 3.072 0 0 0-1.1.206m-.708.387L6.7 8.433l.078 1.407a.19.19 0 0 0 .379 0l.085-1.408-.085-3.879a.19.19 0 0 0-.38 0m-.575.323L6.135 8.43l.067 1.43a.178.178 0 0 0 .355-.001l.075-1.427-.075-3.558a.178.178 0 0 0-.355 0m-1.723.373-.088 3.183.088 1.461a.142.142 0 0 0 .284 0l.1-1.461-.1-3.183a.142.142 0 0 0-.284 0m.57.082-.081 3.102.08 1.447a.154.154 0 0 0 .308 0l.091-1.448-.09-3.101a.154.154 0 0 0-.308 0m-1.135.022L3.818 8.43l.096 1.47a.13.13 0 0 0 .26 0l.107-1.47-.107-3.08a.13.13 0 0 0-.26 0m1.709.092-.074 2.989.074 1.438a.166.166 0 0 0 .331 0l.083-1.438-.083-2.988a.166.166 0 0 0-.331 0m-2.27.144L3.251 8.43l.102 1.486a.118.118 0 0 0 .237 0l.115-1.486-.115-2.842a.118.118 0 0 0-.237 0m-.556.53-.11 2.312.11 1.495a.106.106 0 0 0 .212 0l.124-1.495-.124-2.313a.106.106 0 0 0-.212 0m-1.098.78-.124 1.532.124 1.483a.082.082 0 0 0 .164 0l.14-1.483-.14-1.533a.082.082 0 0 0-.164 0m-.543.041-.13 1.492.13 1.437a.07.07 0 0 0 .14 0l.149-1.437-.148-1.491a.07.07 0 0 0-.14 0m1.089.07L2.129 8.43l.117 1.495a.094.094 0 0 0 .188 0l.132-1.495-.132-1.423a.094.094 0 0 0-.188.001m-1.628.164L.48 8.43l.138 1.23a.061.061 0 0 0 .058.057.06.06 0 0 0 .058-.057l.157-1.23-.157-1.257a.058.058 0 0 0-.116 0m-.516.48L0 8.429l.102.765a.058.058 0 0 0 .057.054.058.058 0 0 0 .055-.054l.122-.765-.122-.778a.058.058 0 0 0-.055-.054.058.058 0 0 0-.057.054" fill="url(#brand_soundCloud_clr__a)"/></svg>