<svg data-tags="sound cloud" xmlns="http://www.w3.org/2000/svg" viewBox="0 0 14 14"><path fill="#f58320" d="M0 0h14v14H0z"/><path d="M7.348 4.967c-.094.035-.118.073-.12.145v3.921a.15.15 0 0 0 .134.146l3.425.002a1.236 1.236 0 1 0-.478-2.375 2.18 2.18 0 0 0-2.17-1.987 2.204 2.204 0 0 0-.79.148m-.508.277-.056 2.784.056 1.01a.136.136 0 0 0 .272 0l.06-1.01-.06-2.784a.136.136 0 0 0-.272 0m-.414.232L6.38 8.027l.048 1.026a.128.128 0 0 0 .255 0l.054-1.025-.054-2.553a.128.128 0 0 0-.255 0m-1.236.268-.063 2.284.063 1.048a.102.102 0 0 0 .204 0l.071-1.048-.071-2.284a.102.102 0 0 0-.204 0m.409.059-.058 2.225.058 1.039a.11.11 0 0 0 .22 0l.066-1.039-.065-2.225a.11.11 0 0 0-.221 0m-.814.015-.07 2.21.07 1.055a.093.093 0 0 0 .186 0l.077-1.055-.077-2.21a.093.093 0 0 0-.186 0m1.226.066-.053 2.144.053 1.032a.119.119 0 0 0 .238 0l.06-1.031-.06-2.145a.119.119 0 0 0-.238 0m-1.629.104-.073 2.04.073 1.065a.085.085 0 0 0 .17 0l.083-1.066-.083-2.039a.085.085 0 0 0-.17 0m-.399.38-.078 1.66.078 1.072a.076.076 0 0 0 .152 0l.09-1.073-.09-1.66a.076.076 0 0 0-.152 0m-.788.56-.089 1.1.089 1.063a.059.059 0 0 0 .118 0l.1-1.063-.1-1.1a.059.059 0 0 0-.118 0m-.39.029-.093 1.07.094 1.032a.05.05 0 0 0 .1 0l.107-1.031-.106-1.07a.05.05 0 0 0-.101 0m.782.05-.084 1.02.084 1.073a.067.067 0 0 0 .135 0l.095-1.073-.095-1.02a.068.068 0 0 0-.135 0m-1.168.118-.1.902.1.882a.044.044 0 0 0 .042.04.043.043 0 0 0 .041-.04l.112-.882-.112-.902a.042.042 0 0 0-.084 0m-.37.344-.073.558.074.548a.04.04 0 0 0 .08 0l.087-.549-.087-.558a.04.04 0 0 0-.08 0" fill="#fff"/></svg>