<svg data-tags="source" xmlns="http://www.w3.org/2000/svg" viewBox="0 0 14 14"><rect width="14" height="14" rx="7" fill="#5aa1ed"/><path d="m5.115 4.057 1.499 1.499a1.507 1.507 0 0 1 .816.015l1.487-1.486a3.498 3.498 0 0 0-3.802-.028Z" fill="#fff"/><path d="M11.153 4.754v-1.49a.419.419 0 0 0-.417-.417H9.241a.419.419 0 0 0-.295.712l.27.265.238.238-1.588 1.587a.342.342 0 0 0 .484.484l1.588-1.588.503.5a.416.416 0 0 0 .712-.29Z" fill="#fff"/><path d="M9.943 8.885a3.498 3.498 0 0 0-.028-3.802L8.43 6.57a1.508 1.508 0 0 1 .015.816ZM4.054 5.115a3.498 3.498 0 0 0 .02 3.812L5.561 7.44a1.508 1.508 0 0 1-.012-.83Z" fill="#fff"/><path d="m5.043 10.442-.5-.503 1.592-1.59a.342.342 0 0 0-.484-.484l-1.59 1.59-.239-.239-.264-.269a.419.419 0 0 0-.712.295v1.495a.419.419 0 0 0 .417.417h1.49a.416.416 0 0 0 .29-.712Z" fill="#fff"/><path d="M8.885 9.946 7.39 8.45a1.509 1.509 0 0 1-.83-.011L5.073 9.926a3.498 3.498 0 0 0 3.812.02Z" fill="#fff"/><path d="M11.077 8.986a.419.419 0 0 0-.592-.006l-.264.27-.239.238-1.655-1.656a.342.342 0 0 0-.484.484l1.656 1.656-.499.503a.416.416 0 0 0 .29.712h1.49a.419.419 0 0 0 .417-.417V9.275a.419.419 0 0 0-.12-.29ZM4.746 2.824H3.25a.419.419 0 0 0-.417.417v1.49a.416.416 0 0 0 .712.29l.502-.499 1.614 1.614a.342.342 0 0 0 .485-.483L4.533 4.038l.238-.238.27-.264a.419.419 0 0 0-.295-.712Z" fill="#fff"/></svg>