<svg data-tags="sprinklr,BETA" xmlns="http://www.w3.org/2000/svg" viewBox="0 0 14 14"><path d="M13.983 7.343C13.988 7.228 14 7.116 14 7a7 7 0 1 0-7.586 6.97Z" fill="#f1f1f3"/><path d="M2.495 4.242a.93.93 0 0 1 .98-.878h.006a.99.99 0 0 1 .605.225 5.417 5.417 0 0 1 1.721 4.554c-.01.08-.102.077-.125 0a5.023 5.023 0 0 0-2.47-2.893.992.992 0 0 1-.717-1.008Z" fill="#eda441"/><path d="M5.629 9.953C5.324 8.932 3.778 7.244 2.65 7.244a.886.886 0 0 0-.038 1.772l.067-.001a4.915 4.915 0 0 1 2.852 1c.05.04.116.006.097-.062Z" fill="#82bb62"/><path d="M7.029 11.167c-.01.08-.1.075-.124 0C5.631 7.18 7.92 2.815 9.625 2.776a1.416 1.416 0 0 1 1.518 1.305q.003.034.004.069a1.299 1.299 0 0 1-.758 1.249 7.427 7.427 0 0 0-3.36 5.769Z" fill="#51b7e3"/><path d="M8.47 10.015c-.05.04-.118.006-.098-.062.304-1.022 1.85-2.709 2.977-2.709a.886.886 0 0 1 .04 1.772l-.069-.001a5.101 5.101 0 0 0-2.85 1ZM10.038 13.671l-.34.276a.177.177 0 0 1-.131.052.19.19 0 0 1-.117-.08l-.678-.835a.189.189 0 0 1-.054-.132.186.186 0 0 1 .079-.117l.36-.292a1.049 1.049 0 0 1 .146-.102.377.377 0 0 1 .135-.047.355.355 0 0 1 .119.003.333.333 0 0 1 .11.042.347.347 0 0 1 .09.08.33.33 0 0 1 .032.379.35.35 0 0 1 .44.093.395.395 0 0 1 .088.207.37.37 0 0 1-.04.215.551.551 0 0 1-.092.124 1.467 1.467 0 0 1-.147.134Zm-1.015-.738.233.287.206-.167a.534.534 0 0 0 .117-.122.161.161 0 0 0 .021-.118.177.177 0 0 0-.039-.086.142.142 0 0 0-.15-.063.576.576 0 0 0-.206.12Zm.598.258-.234.19.263.325.242-.196q.228-.185.095-.35a.172.172 0 0 0-.158-.074.43.43 0 0 0-.208.105ZM10.818 11.483l-.507.412.221.273.467-.38a.14.14 0 0 1 .096-.038.1.1 0 0 1 .075.04.108.108 0 0 1 .025.082.144.144 0 0 1-.058.086l-.467.38.257.316.524-.426a.151.151 0 0 1 .1-.04.111.111 0 0 1 .08.043.108.108 0 0 1 .026.087.151.151 0 0 1-.06.089l-.612.496a.185.185 0 0 1-.132.054.188.188 0 0 1-.118-.08l-.678-.835a.237.237 0 0 1-.05-.09.115.115 0 0 1 .008-.083.25.25 0 0 1 .068-.077l.594-.483a.144.144 0 0 1 .1-.04.102.102 0 0 1 .076.04.107.107 0 0 1 .026.086.154.154 0 0 1-.06.088ZM12.02 10.528l-.246.2.655.807a.189.189 0 0 1 .053.128.134.134 0 0 1-.053.1.136.136 0 0 1-.109.032.19.19 0 0 1-.115-.078l-.656-.807-.245.199a.162.162 0 0 1-.106.044.113.113 0 0 1-.083-.044.11.11 0 0 1-.026-.092.163.163 0 0 1 .064-.094l.716-.58a.16.16 0 0 1 .108-.045.112.112 0 0 1 .083.044.11.11 0 0 1 .026.09.166.166 0 0 1-.066.096ZM13.697 10.494l-.166-.097-.452.367.062.186a.629.629 0 0 1 .038.155.108.108 0 0 1-.048.088.137.137 0 0 1-.1.03.122.122 0 0 1-.09-.044.206.206 0 0 1-.03-.054 1.13 1.13 0 0 1-.03-.087l-.302-.953-.03-.098a.464.464 0 0 1-.023-.102.2.2 0 0 1 .012-.089.236.236 0 0 1 .157-.126.197.197 0 0 1 .088.005.42.42 0 0 1 .081.033l.104.06.873.48a.463.463 0 0 1 .13.092.125.125 0 0 1 .025.097.135.135 0 0 1-.051.096.12.12 0 0 1-.053.027.112.112 0 0 1-.053 0 .283.283 0 0 1-.069-.028 2.67 2.67 0 0 1-.073-.038Zm-.696.053.332-.27-.54-.322Z" fill="#3d88c5"/></svg>