<svg data-tags="chat,sprinklr chat" xmlns="http://www.w3.org/2000/svg" viewBox="0 0 14 14"><path fill="#74d9f5" d="M0 0h14v14H0z"/><path d="M10.723 4.204a4.369 4.369 0 0 0-2.352-1.45C4.898 2.051 3.003 4.371 2.713 5.65a6.015 6.015 0 0 0 1.774 5.709c.057.058.14.104.133.002-.106-1.855 1.023-2.138 3.519-2.049.91.03 2.824-.754 3.138-2.293a2.949 2.949 0 0 0-.555-2.815ZM4.66 6.917a.508.508 0 0 1-.045-1.015h.045a.508.508 0 0 1 0 1.015Zm2.37 0a.508.508 0 1 1-.045-1.015h.045a.508.508 0 0 1 0 1.015Zm2.37 0a.508.508 0 1 1-.045-1.015H9.4a.508.508 0 0 1 0 1.015Z" fill="#fff"/></svg>