<svg data-tags="sprinklr,wand,Ai" xmlns="http://www.w3.org/2000/svg" viewBox="0 0 14 14"><path d="M6.565 0a.916.916 0 0 0-.917.915V4.35L3.22 1.92a.916.916 0 1 0-1.298 1.293l2.424 2.425H.916a.915.915 0 1 0 0 1.83h3.436l-2.43 2.425a.916.916 0 1 0 1.297 1.294l2.429-2.425v3.429a.917.917 0 0 0 1.833 0V8.775l4.953 4.956a.915.915 0 0 0 .648.269h.001a.915.915 0 0 0 .65-1.561L8.763 7.468h3.449a.915.915 0 1 0 0-1.83H8.778l2.428-2.425A.916.916 0 1 0 9.91 1.92L7.481 4.344V.915A.916.916 0 0 0 6.565 0Z"/></svg>