<svg data-tags="smart,sprinklr gradient,smart assist,sprinklr ai,ai" xmlns="http://www.w3.org/2000/svg" viewBox="0 0 14 14"><defs><linearGradient id="brand_sprinklrAI_clr__a" x1=".98" y1="5.32" x2="5.52" y2="5.34" gradientUnits="userSpaceOnUse"><stop offset="0" stop-color="#1c6cfd"/><stop offset="1" stop-color="#8371f4"/></linearGradient><linearGradient id="brand_sprinklrAI_clr__b" x1="6.46" y1="6.99" x2="12.66" y2="7.01" gradientUnits="userSpaceOnUse"><stop offset="0" stop-color="#1c6cfd"/><stop offset="1" stop-color="#8371f4"/></linearGradient><linearGradient id="brand_sprinklrAI_clr__c" x1="0" y1="9.09" x2="5.36" y2="9.11" gradientUnits="userSpaceOnUse"><stop offset="0" stop-color="#1c6cfd"/><stop offset="1" stop-color="#8371f4"/></linearGradient><linearGradient id="brand_sprinklrAI_clr__d" x1="8.65" y1="9.1" x2="13.99" y2="9.11" gradientUnits="userSpaceOnUse"><stop offset="0" stop-color="#1c6cfd"/><stop offset="1" stop-color="#8371f4"/></linearGradient></defs><path d="M3.14 2.4a1.35 1.35 0 00-.82-.3A1.25 1.25 0 001 3.27a1.33 1.33 0 00.97 1.35A6.74 6.74 0 015.3 8.5c.03.1.15.1.17 0a7.2 7.2 0 00-2.33-6.1z" fill="url(#brand_sprinklrAI_clr__a)"/><path d="M11.66 4.82a1.73 1.73 0 001.02-1.67 1.9 1.9 0 00-2.06-1.84c-2.31.06-5.42 5.95-3.64 11.3.02.11.12.1.13-.02a9.92 9.92 0 014.55-7.77z" fill="url(#brand_sprinklrAI_clr__b)"/><path d="M1.24 7.17a1.2 1.2 0 10.04 2.4 7.01 7.01 0 014 1.43c.09.07.1.04.05-.14-.4-1.38-2.54-3.69-4.09-3.69z" fill="url(#brand_sprinklrAI_clr__c)"/><path d="M12.76 7.17c-1.55 0-3.7 2.31-4.09 3.69-.05.18-.04.2.04.14a7.01 7.01 0 014-1.43 1.2 1.2 0 10.05-2.4z" fill="url(#brand_sprinklrAI_clr__d)"/></svg>
