<svg data-tags="sprinklr,UAT" xmlns="http://www.w3.org/2000/svg" viewBox="0 0 14 14"><path fill="#f1f1f3" d="M4.592 14H14V5.762L4.592 14z"/><path d="M1.639 2.862a.923.923 0 0 1 .972-.87h.005a.982.982 0 0 1 .601.223 5.373 5.373 0 0 1 1.707 4.517c-.01.08-.102.077-.124 0a4.982 4.982 0 0 0-2.451-2.87.984.984 0 0 1-.71-1Z" fill="#eda441"/><path d="M4.747 8.528C4.444 7.515 2.91 5.84 1.793 5.84a.879.879 0 0 0-.038 1.757l.067-.001a4.876 4.876 0 0 1 2.829.993c.049.039.115.005.096-.062Z" fill="#82bb62"/><path d="M6.136 9.732c-.01.078-.1.074-.123 0C4.749 5.776 7.02 1.446 8.71 1.408a1.404 1.404 0 0 1 1.506 1.294l.004.068a1.288 1.288 0 0 1-.752 1.239 7.367 7.367 0 0 0-3.333 5.723Z" fill="#51b7e3"/><path d="M7.565 8.589c-.05.04-.117.006-.097-.062.302-1.013 1.836-2.686 2.953-2.686a.879.879 0 1 1 .038 1.757l-.066-.001a5.06 5.06 0 0 0-2.828.992ZM9.096 12.722l-.524-.625a.233.233 0 0 1-.065-.15.16.16 0 0 1 .061-.119.16.16 0 0 1 .13-.041.222.222 0 0 1 .137.09l.536.639a.783.783 0 0 0 .177.163.285.285 0 0 0 .182.04.42.42 0 0 0 .207-.105.339.339 0 0 0 .15-.266.522.522 0 0 0-.145-.302l-.54-.645a.223.223 0 0 1-.065-.149.157.157 0 0 1 .062-.12.164.164 0 0 1 .13-.04.223.223 0 0 1 .137.089l.523.625a1.224 1.224 0 0 1 .184.28.518.518 0 0 1 .038.273.573.573 0 0 1-.085.234.93.93 0 0 1-.195.214 1.151 1.151 0 0 1-.285.184.497.497 0 0 1-.506-.042 1.158 1.158 0 0 1-.244-.227ZM11.737 11.174l-.199-.11-.529.442.078.219a.745.745 0 0 1 .048.183.128.128 0 0 1-.055.105.164.164 0 0 1-.119.037.143.143 0 0 1-.107-.05.227.227 0 0 1-.037-.063 2.134 2.134 0 0 1-.037-.103l-.375-1.123c-.01-.032-.024-.07-.038-.116a.451.451 0 0 1-.029-.121.227.227 0 0 1 .013-.104.248.248 0 0 1 .074-.097.225.225 0 0 1 .214-.052.531.531 0 0 1 .096.038l.125.068 1.043.555a.548.548 0 0 1 .156.106.146.146 0 0 1 .031.114.157.157 0 0 1-.058.114.146.146 0 0 1-.063.033.124.124 0 0 1-.063.001.316.316 0 0 1-.08-.032 1.258 1.258 0 0 1-.089-.044Zm-.824.076.389-.325-.646-.373ZM12.307 9.105l-.287.24.79.945a.226.226 0 0 1 .066.151.172.172 0 0 1-.19.159.223.223 0 0 1-.138-.09l-.791-.945-.287.241a.192.192 0 0 1-.125.055.145.145 0 0 1-.132-.16.195.195 0 0 1 .075-.112l.837-.702a.187.187 0 0 1 .126-.054.13.13 0 0 1 .1.05.133.133 0 0 1 .033.108.195.195 0 0 1-.077.114Z" fill="#3d88c5"/></svg>