<svg data-tags="chat,live chat" xmlns="http://www.w3.org/2000/svg" viewBox="0 0 14 14"><defs><clipPath id="brand_sprinklrChat_clr__a"><path fill="none" d="M0 0h14v14H0z"/></clipPath></defs><g clip-path="url(#brand_sprinklrChat_clr__a)"><path d="M12.892 2.54A6.912 6.912 0 0 0 9.179.25C3.695-.859.702 2.804.243 4.824a9.496 9.496 0 0 0 2.802 9.015c.09.092.22.165.21.003-.167-2.93 1.616-3.376 5.557-3.236 1.437.048 4.46-1.191 4.956-3.622a4.66 4.66 0 0 0-.876-4.444ZM3.32 6.826a.802.802 0 1 1 .802-.802.802.802 0 0 1-.802.802Zm3.742 0a.802.802 0 1 1 .802-.802.802.802 0 0 1-.802.802Zm3.742 0a.802.802 0 1 1 .802-.802.802.802 0 0 1-.802.802Z" fill="#74d9f5"/></g></svg>