<svg data-tags="sprinklr,smart,sprinklr gradient,smart assist,sprinklr ai,ai" xmlns="http://www.w3.org/2000/svg" viewBox="0 0 14 14"><defs><linearGradient id="sprinklrAiCircle_clr_a" x1="7" x2="7" y1="15.933" y2="2.067" gradientTransform="matrix(1 0 0 -1 0 16)" gradientUnits="userSpaceOnUse"><stop offset="0" stop-color="#236dfd"/><stop offset=".445" stop-color="#6870f7"/><stop offset="1" stop-color="#8071f5"/></linearGradient></defs><path fill="url(#sprinklrAiCircle_clr_a)" d="M7 .067A6.933 6.933 0 0113.933 7 6.933 6.933 0 017 13.933 6.933 6.933 0 01.067 7 6.933 6.933 0 017 .067z"/><path fill="#fff" d="M3.15 4.655a.819.819 0 01.853-.792.835.835 0 01.524.202 5.013 5.013 0 011.49 4.116c-.01.072-.089.07-.108 0a4.489 4.489 0 00-2.14-2.614.895.895 0 01-.62-.912zm7.49-.085a1.248 1.248 0 00-1.317-1.24c-1.484.035-3.48 4.021-2.338 7.641.014.074.082.06.087-.015A6.766 6.766 0 019.984 5.7a1.182 1.182 0 00.656-1.13zM2.515 8.151a.796.796 0 00.82.76 4.352 4.352 0 012.567.967c.053.045.062.03.028-.093-.256-.932-1.625-2.494-2.62-2.494a.799.799 0 00-.795.86zm8.969 0a.796.796 0 01-.819.76 4.351 4.351 0 00-2.567.967c-.053.045-.062.03-.028-.093.256-.932 1.625-2.494 2.62-2.494a.799.799 0 01.794.86z"/></svg>