<svg data-tags="sprinklr UAT,Uat" xmlns="http://www.w3.org/2000/svg" viewBox="0 0 14 14"><path d="M13.983 7.343C13.988 7.228 14 7.116 14 7a7 7 0 1 0-7.586 6.97Z" fill="#f1f1f3"/><path d="M2.495 4.242a.93.93 0 0 1 .98-.878h.006a.99.99 0 0 1 .605.225 5.417 5.417 0 0 1 1.721 4.554c-.01.08-.103.077-.125 0a5.023 5.023 0 0 0-2.47-2.893.992.992 0 0 1-.717-1.008Z" fill="#eda441"/><path d="M5.629 9.953C5.323 8.932 3.777 7.244 2.65 7.244a.886.886 0 0 0-.038 1.772l.067-.001a4.915 4.915 0 0 1 2.851 1c.05.04.117.006.098-.062Z" fill="#82bb62"/><path d="M7.029 11.167c-.01.08-.1.075-.124 0C5.63 7.18 7.92 2.815 9.625 2.776a1.416 1.416 0 0 1 1.518 1.305q.003.034.004.069a1.299 1.299 0 0 1-.758 1.249 7.427 7.427 0 0 0-3.36 5.769Z" fill="#51b7e3"/><path d="M8.47 10.015c-.05.04-.119.006-.099-.062.305-1.022 1.851-2.709 2.978-2.709a.886.886 0 0 1 .04 1.772l-.069-.001a5.101 5.101 0 0 0-2.85 1ZM10.049 13.328l-.498-.595a.222.222 0 0 1-.061-.142.153.153 0 0 1 .058-.113.151.151 0 0 1 .124-.04.21.21 0 0 1 .13.086l.509.607a.744.744 0 0 0 .168.155.27.27 0 0 0 .173.039.398.398 0 0 0 .197-.1.322.322 0 0 0 .142-.253.496.496 0 0 0-.137-.287l-.514-.612a.212.212 0 0 1-.061-.142.15.15 0 0 1 .058-.114.156.156 0 0 1 .124-.039.212.212 0 0 1 .13.085l.497.594a1.163 1.163 0 0 1 .175.265.493.493 0 0 1 .036.26.544.544 0 0 1-.08.223.884.884 0 0 1-.186.203 1.094 1.094 0 0 1-.271.175.473.473 0 0 1-.48-.04 1.1 1.1 0 0 1-.233-.215ZM12.559 11.857l-.19-.106-.501.42.073.209a.708.708 0 0 1 .046.174.121.121 0 0 1-.053.1.156.156 0 0 1-.112.035.136.136 0 0 1-.102-.048.216.216 0 0 1-.035-.06 2.013 2.013 0 0 1-.035-.098l-.356-1.067-.037-.11a.429.429 0 0 1-.027-.115.216.216 0 0 1 .012-.099.236.236 0 0 1 .07-.092.214.214 0 0 1 .204-.05.504.504 0 0 1 .091.037q.046.024.118.065l.991.527a.52.52 0 0 1 .149.1.14.14 0 0 1 .03.109.15.15 0 0 1-.056.108.139.139 0 0 1-.06.032.118.118 0 0 1-.06 0 .3.3 0 0 1-.076-.03 1.217 1.217 0 0 1-.084-.041Zm-.783.072.37-.31-.614-.354ZM13.1 9.89l-.273.229.752.898a.215.215 0 0 1 .062.143.163.163 0 0 1-.18.15.212.212 0 0 1-.131-.084l-.752-.898-.273.229a.182.182 0 0 1-.119.051.138.138 0 0 1-.125-.151.185.185 0 0 1 .07-.107l.796-.666a.178.178 0 0 1 .12-.052.123.123 0 0 1 .095.048.126.126 0 0 1 .031.102.185.185 0 0 1-.073.108Z" fill="#3d88c5"/></svg>