<svg data-deprecated="brand/SprinklrLogoTextClr" data-tags="sprinklr" xmlns="http://www.w3.org/2000/svg" viewBox="0 0 14 14"><defs/><path fill="#2e3841" d="M.155 11.138a1.149 1.149 0 00.6.191c.207 0 .355-.098.355-.275 0-.408-1.075-.272-1.075-.976 0-.395.346-.601.754-.601a1.05 1.05 0 01.645.222l-.166.253a1.092 1.092 0 00-.5-.146c-.197 0-.35.087-.35.264 0 .415 1.075.267 1.075.975 0 .354-.3.614-.75.614a1.213 1.213 0 01-.756-.266zM2.005 12.747V9.528h.366v.237a.755.755 0 01-.008.111h.008a.754.754 0 01.7-.4c.56 0 .914.445.914 1.092a.976.976 0 01-.943 1.09.712.712 0 01-.646-.37h-.008a1.218 1.218 0 01.012.181v1.278zm.975-1.434c.33 0 .602-.268.602-.741 0-.453-.243-.745-.59-.745-.312 0-.6.218-.6.749 0 .37.206.737.588.737zM5.596 9.893a.866.866 0 00-.763.856v.872h-.399V9.528h.387v.373a1.005 1.005 0 01-.012.156h.008a.922.922 0 01.78-.547zM6.003 11.621V9.528h.399v2.093zM8.46 11.621v-1.255c0-.292-.057-.523-.39-.523a.72.72 0 00-.696.77v1.008h-.4V9.528h.387v.32a.647.647 0 01-.012.119h.008a.864.864 0 01.79-.49c.49 0 .713.267.713.798v1.346zM10.812 11.62l-.629-.986h-.309v.986H9.48V8.401h.395v1.887h.3l.581-.76h.42l-.675.916v.009l.746 1.168zM12.37 11.621c-.33 0-.697-.057-.697-.58v-2.64h.4v2.59c0 .259.212.263.298.272zM14.013 9.877a.866.866 0 00-.763.856v.872h-.4V9.512h.387v.372a1.004 1.004 0 01-.012.157h.008a.922.922 0 01.78-.548z"/><circle cx="6.202" cy="8.839" r=".248" fill="#2e3841"/><path fill="#faa21b" d="M3.468 2.4a.727.727 0 01.771-.686.774.774 0 01.473.176 4.235 4.235 0 011.346 3.56c-.009.063-.08.06-.098 0A3.927 3.927 0 004.028 3.19a.776.776 0 01-.56-.789z"/><path fill="#70bf54" d="M5.918 6.865C5.68 6.067 4.471 4.748 3.59 4.748a.693.693 0 10.023 1.384 3.843 3.843 0 012.23.782c.038.031.09.005.075-.049z"/><path fill="#00bae9" d="M7.013 7.814c-.008.063-.078.06-.097.001-.996-3.119.794-6.531 2.127-6.562a1.107 1.107 0 011.19 1.074 1.015 1.015 0 01-.593.977 5.807 5.807 0 00-2.627 4.51z"/><path fill="#128acb" d="M8.14 6.914c-.04.031-.093.005-.077-.049.238-.799 1.447-2.117 2.328-2.117a.693.693 0 11-.023 1.384 3.989 3.989 0 00-2.228.782z"/></svg>