<svg data-tags="sprinklr" xmlns="http://www.w3.org/2000/svg" viewBox="0 0 14 14"><circle cx="7" cy="7" r="7" fill="#f2f2f4"/><path fill="#faa21b" d="M2.495 4.242a.93.93 0 01.986-.877.99.99 0 01.605.224 5.417 5.417 0 011.721 4.554c-.01.08-.103.077-.125 0a5.023 5.023 0 00-2.47-2.893.992.992 0 01-.717-1.008z"/><path fill="#70bf54" d="M5.629 9.953C5.323 8.932 3.777 7.244 2.65 7.244a.886.886 0 10.029 1.77 4.915 4.915 0 012.851 1.002c.05.04.117.005.098-.063z"/><path fill="#00bae9" d="M7.029 11.167c-.01.08-.1.075-.124 0C5.63 7.18 7.92 2.815 9.625 2.776a1.416 1.416 0 011.522 1.374 1.299 1.299 0 01-.758 1.249 7.427 7.427 0 00-3.36 5.769z"/><path fill="#128acb" d="M8.47 10.015c-.05.04-.119.006-.099-.062.305-1.022 1.851-2.709 2.978-2.709a.886.886 0 11-.029 1.77 5.101 5.101 0 00-2.85 1.001z"/></svg>