<svg data-tags="sprinklr,BETA" xmlns="http://www.w3.org/2000/svg" viewBox="0 0 14 14"><path d="M1.637 2.862a.923.923 0 0 1 .972-.87h.006a.982.982 0 0 1 .6.223 5.373 5.373 0 0 1 1.707 4.517c-.01.08-.101.077-.124 0a4.982 4.982 0 0 0-2.45-2.87.984.984 0 0 1-.71-1Z" fill="#eda441"/><path d="M4.745 8.528C4.443 7.515 2.91 5.84 1.792 5.84a.879.879 0 1 0-.038 1.757l.067-.001a4.876 4.876 0 0 1 2.828.993c.05.039.116.005.096-.062Z" fill="#82bb62"/><path d="M6.134 9.732c-.01.078-.1.074-.123 0C4.748 5.776 7.018 1.446 8.71 1.408a1.404 1.404 0 0 1 1.506 1.294l.003.068a1.288 1.288 0 0 1-.752 1.239 7.367 7.367 0 0 0-3.333 5.723Z" fill="#51b7e3"/><path d="M7.564 8.589c-.05.04-.117.006-.098-.062.303-1.013 1.836-2.686 2.954-2.686a.879.879 0 0 1 .038 1.757l-.067-.001a5.06 5.06 0 0 0-2.827.992Z" fill="#3d88c5"/><path fill="#f1f1f3" d="M4.592 14H14V5.762L4.592 14z"/><path d="m9.35 13.137-.357.29a.186.186 0 0 1-.139.054.199.199 0 0 1-.122-.083l-.713-.878a.198.198 0 0 1-.056-.139.195.195 0 0 1 .082-.122l.379-.307a1.103 1.103 0 0 1 .153-.108.396.396 0 0 1 .142-.049.373.373 0 0 1 .125.004.35.35 0 0 1 .116.043.365.365 0 0 1 .095.084.346.346 0 0 1 .033.398.367.367 0 0 1 .462.099.415.415 0 0 1 .093.217.388.388 0 0 1-.042.226.579.579 0 0 1-.097.13 1.542 1.542 0 0 1-.154.141Zm-1.067-.776.245.302.216-.176a.561.561 0 0 0 .123-.128.17.17 0 0 0 .022-.123.186.186 0 0 0-.04-.091.149.149 0 0 0-.159-.066.605.605 0 0 0-.216.126Zm.628.272-.246.2.277.34.254-.206q.24-.194.1-.367a.181.181 0 0 0-.167-.078.451.451 0 0 0-.218.11ZM10.169 10.838l-.533.433.233.286.49-.398a.147.147 0 0 1 .101-.04.105.105 0 0 1 .079.041.114.114 0 0 1 .027.087.152.152 0 0 1-.062.09l-.49.399.27.332.55-.447a.159.159 0 0 1 .105-.043.117.117 0 0 1 .085.046.114.114 0 0 1 .026.09.159.159 0 0 1-.063.095l-.643.521a.194.194 0 0 1-.139.056.197.197 0 0 1-.124-.083l-.712-.878a.25.25 0 0 1-.052-.095.121.121 0 0 1 .009-.086.263.263 0 0 1 .07-.082l.625-.507a.151.151 0 0 1 .105-.042.107.107 0 0 1 .08.043.113.113 0 0 1 .027.089.161.161 0 0 1-.064.093ZM11.431 9.835l-.258.21.689.848a.198.198 0 0 1 .055.134.14.14 0 0 1-.055.105.143.143 0 0 1-.115.034.2.2 0 0 1-.121-.082l-.689-.848-.258.209a.17.17 0 0 1-.111.047.119.119 0 0 1-.087-.047.116.116 0 0 1-.028-.097.171.171 0 0 1 .068-.098l.752-.61a.168.168 0 0 1 .113-.047.117.117 0 0 1 .088.046.116.116 0 0 1 .027.096.175.175 0 0 1-.07.1ZM13.194 9.799l-.175-.102-.475.386.066.195a.66.66 0 0 1 .04.163.114.114 0 0 1-.05.092.144.144 0 0 1-.106.031.128.128 0 0 1-.094-.046.217.217 0 0 1-.033-.056 1.203 1.203 0 0 1-.03-.092l-.318-1-.032-.104a.488.488 0 0 1-.024-.107.21.21 0 0 1 .013-.093.248.248 0 0 1 .164-.133.207.207 0 0 1 .093.005.443.443 0 0 1 .086.035l.109.062.916.506a.486.486 0 0 1 .138.096.131.131 0 0 1 .026.102.141.141 0 0 1-.054.1.127.127 0 0 1-.056.029.118.118 0 0 1-.056 0 .297.297 0 0 1-.071-.029 3 3 0 0 1-.077-.04Zm-.732.055.35-.283-.568-.339Z" fill="#3d88c5"/></svg>