<svg data-tags="voice,call" xmlns="http://www.w3.org/2000/svg" viewBox="0 0 14 14"><path d="M2.98.352a26.883 26.883 0 0 1 1.829 2.31s.69.947.08 1.56c-.402.405-.95 1.368-.667 1.778C4.506 6.41 8 9.78 8 9.78s.4.35.667.222c.267-.127 1.556-.89 1.556-.89a1.323 1.323 0 0 1 1.11.223c.585.406 2.386 1.6 2.386 1.6a1.148 1.148 0 0 1 .153 1.215 15.484 15.484 0 0 1-1.482 1.696 1.94 1.94 0 0 1-1.458.063c-1.01-.24-3.373-.804-6.611-4.04A19.981 19.981 0 0 1 .01 2.845a2.078 2.078 0 0 1 .33-1.326C.769.894 2.03-.705 2.98.352Z" fill="#5dc94e" fill-rule="evenodd"/></svg>