<svg data-tags="sprinklr" xmlns="http://www.w3.org/2000/svg" viewBox="0 0 130 30"><path fill="#2e3841" d="M42.596 18.93a7.246 7.246 0 003.79 1.208c1.297 0 2.232-.623 2.232-1.74 0-2.57-6.777-1.713-6.777-6.154 0-2.493 2.181-3.791 4.752-3.791a6.618 6.618 0 014.067 1.402l-1.043 1.594a6.885 6.885 0 00-3.154-.919c-1.246 0-2.207.546-2.207 1.662 0 2.623 6.778 1.688 6.778 6.154 0 2.234-1.896 3.87-4.727 3.87a7.65 7.65 0 01-4.769-1.676zm11.667 10.149v-20.3h2.31v1.492a4.758 4.758 0 01-.051.7h.052a4.757 4.757 0 014.414-2.518c3.532 0 5.765 2.804 5.765 6.881 0 4.181-2.519 6.882-5.947 6.882a4.494 4.494 0 01-4.077-2.337h-.052a7.688 7.688 0 01.078 1.142v8.058zm6.154-9.044c2.077 0 3.791-1.688 3.791-4.675 0-2.856-1.532-4.7-3.713-4.7-1.974 0-3.792 1.376-3.792 4.726 0 2.337 1.299 4.649 3.714 4.649zm16.499-8.954c-2.571 0-4.813 2.8-4.813 5.396v5.502h-2.519v-13.2h2.441v2.348a6.338 6.338 0 01-.078.987H72a5.814 5.814 0 014.917-3.453zm2.562 10.898v-13.2h2.52v13.2zm15.504 0v-7.917c0-1.844-.364-3.298-2.468-3.298-2.544 0-4.388 2.13-4.388 4.856v6.359h-2.52v-13.2h2.442v2.011a4.08 4.08 0 01-.078.753h.052a5.448 5.448 0 014.986-3.09c3.09 0 4.492 1.688 4.492 5.038v8.488zm14.831-.007l-3.968-6.222h-1.948v6.222h-2.492V1.668h2.492v11.9h1.896l3.663-4.79h2.647l-4.259 5.777v.052l4.708 7.372zm9.832.007c-2.085 0-4.4-.36-4.4-3.658V1.668h2.52V18.01c0 1.626 1.335 1.656 1.88 1.708zM130 10.977c-2.57 0-4.813 2.8-4.813 5.396v5.502h-2.518v-13.2h2.44v2.349a6.338 6.338 0 01-.078.986h.052A5.814 5.814 0 01130 8.557z"/><circle cx="80.738" cy="4.429" r="1.564" fill="#2e3841"/><path fill="#faa21b" d="M2.48 5.778a3.08 3.08 0 013.265-2.904 3.277 3.277 0 012.004.744 17.934 17.934 0 015.697 15.078c-.035.263-.34.254-.414 0-1.133-3.841-4.864-8.262-8.18-9.578a3.284 3.284 0 01-2.371-3.34z"/><path fill="#70bf54" d="M12.855 24.688c-1.01-3.381-6.129-8.968-9.857-8.968a2.933 2.933 0 10.095 5.862 16.274 16.274 0 019.44 3.313c.166.13.387.019.322-.207z"/><path fill="#00bae9" d="M17.491 28.706c-.035.264-.332.25-.41.003C12.863 15.502 20.44 1.052 26.086.923a4.687 4.687 0 015.04 4.546 4.3 4.3 0 01-2.51 4.136c-4.953 2.79-10.464 9.948-11.125 19.101z"/><path fill="#128acb" d="M22.263 24.893c-.166.132-.392.021-.326-.206v-.001c1.009-3.381 6.128-8.966 9.858-8.966a2.933 2.933 0 11-.096 5.862 16.89 16.89 0 00-9.436 3.31z"/></svg>