<svg data-tags="stack, overflow" xmlns="http://www.w3.org/2000/svg" viewBox="0 0 14 14"><path d="M12.404 13.986H1.636a.25.25 0 01-.25-.25V8.948a.25.25 0 01.25-.25h1.192a.25.25 0 01.25.25v3.345h7.882V8.948a.25.25 0 01.25-.25h1.194a.25.25 0 01.25.25v4.788a.25.25 0 01-.25.25zm-10.518-.5h10.268V9.198h-.694v3.345a.25.25 0 01-.25.25H2.828a.25.25 0 01-.25-.25V9.198h-.692z" fill="#bbbaba"/><path d="M10.002 11.585h-5.98a.25.25 0 01-.25-.25V10.14a.25.25 0 01.25-.25h5.044L4.095 8.852a.249.249 0 01-.158-.108.242.242 0 01-.035-.189L4.15 7.38a.257.257 0 01.295-.194l5.11 1.069-4.74-2.208a.25.25 0 01-.122-.33l.496-1.1a.25.25 0 01.334-.124l4.854 2.275-4.114-3.42a.251.251 0 01-.032-.353l.759-.914a.25.25 0 01.168-.09.244.244 0 01.184.058l4.018 3.34L8.236 1.18a.252.252 0 01.051-.35l.961-.713A.245.245 0 019.435.07a.253.253 0 01.164.098l3.563 4.803a.253.253 0 01.046.187.25.25 0 01-.098.164l-.96.712a.24.24 0 01-.117.047.259.259 0 01-.057.144l-.759.914a.255.255 0 01-.13.082.25.25 0 01-.02.141l-.496 1.085a.26.26 0 01-.091.106.25.25 0 01.015.152l-.248 1.178a.254.254 0 01-.049.103.248.248 0 01.054.154v1.194a.25.25 0 01-.25.25zm-5.73-.5h5.48v-.694h-5.48zm.17-2.671l5.367 1.122.145-.689-5.367-1.12zm.807-2.717l4.971 2.314.29-.63-4.97-2.329zm1.526-2.575l4.217 3.506.44-.53-4.218-3.506zm2.011-2.04l3.267 4.402.559-.414L9.346.668z" fill="#e4843d"/></svg>