<svg data-tags="brand,stripe" xmlns="http://www.w3.org/2000/svg" viewBox="0 0 14 14"><rect x=".003" width="13.997" height="13.997" rx="6.998" fill="#635bff"/><path d="M6.397 5.28c0-.365.3-.505.795-.505a5.214 5.214 0 012.318.598V3.177a6.165 6.165 0 00-2.318-.43c-1.898 0-3.16.99-3.16 2.645 0 2.58 3.552 2.169 3.552 3.281 0 .43-.374.57-.897.57a5.819 5.819 0 01-2.552-.747v2.225a6.48 6.48 0 002.552.532c1.944 0 3.281-.962 3.281-2.636-.01-2.786-3.571-2.29-3.571-3.337z" fill="#fff" fill-rule="evenodd"/></svg>