<svg data-tags="suggestion" xmlns="http://www.w3.org/2000/svg" viewBox="0 0 14 14"><rect width="14" height="14" rx="7" fill="#5e96d2"/><path d="M10.484 3.296H3.516A.518.518 0 0 0 3 3.812v5.355a.467.467 0 0 0 .516.452h1.742l-.325 1.676L7 9.62h3.484A.466.466 0 0 0 11 9.167V3.812a.517.517 0 0 0-.516-.516Zm-4 3.355A1.92 1.92 0 0 1 5 7.94c-.097-.005-.1.002-.193 0v-.645h.128c.352.003.63-.348.775-.645H4.161V4.973h2.323Zm3.355 0a1.92 1.92 0 0 1-1.484 1.29c-.098-.005-.1.002-.194 0v-.645h.129c.352.003.63-.348.775-.645H7.516V4.973h2.323Z" fill="#fff"/></svg>