<svg data-tags="survey monkey" xmlns="http://www.w3.org/2000/svg" viewBox="0 0 14 14"><circle fill="#A9BC43" cx="7" cy="7.029" r="7"/><path fill="#FFF" d="M11.064 7.726c-.35-.53-1.043-.37-1.043-.37-.548-2-2.514-2.261-2.514-2.261-.154-.303.513-.875.513-.875-.667.202-1.026.757-1.026.757-.189-.589-.514-.53-.514-.53.3.151.248.622.248.622-2.24.177-2.719 2.262-2.719 2.262-.59-.126-.949.253-.949.253-.735.824.068 1.505.068 1.505.454.445 1.01.16 1.01.16.094.37.316.588.316.588l.855-.546c-.932-1.54 0-2.262 0-2.262.923-.808 1.685.227 1.685.227l.342-.27c.838-.63 1.479.11 1.479.11.717.982-.086 2.228-.086 2.228l.847.513c.222-.21.36-.597.36-.597.085.11.333.118.333.118.795-.076.957-.673.957-.673.103-.706-.162-.959-.162-.959zm-7.224.815s-.189.043-.232-.133c0 0-.043-.135 0-.194 0 0-.016-.197.232-.105v.432zm6.557-.133c-.043.176-.236.133-.236.133V8.11c.248-.092.236.105.236.105.043.06 0 .194 0 .194z"/></svg>