<svg data-tags="survey" xmlns="http://www.w3.org/2000/svg" viewBox="0 0 14 14"><rect width="14" height="14" rx="7" fill="#5e96d2"/><path d="m10.8 2.858-1.106.007v1.663H4.312v-.002h-.013V2.865L3.2 2.858a.2.2 0 0 0-.2.2v8.124a.2.2 0 0 0 .2.201h7.6a.2.2 0 0 0 .2-.2V3.058a.2.2 0 0 0-.2-.2ZM9.563 6.773l-.013.013-2.956 2.956a.377.377 0 0 1-.267.11l-.001.001a.377.377 0 0 1-.259-.102L4.71 8.472a.378.378 0 0 1 .519-.55l1.09 1.025 2.696-2.696a.378.378 0 0 1 .548.522Z" fill="#fff"/><path d="M5.254 2.264h3.492a.154.154 0 0 1 .154.154v1.16a.154.154 0 0 1-.154.154H5.254a.154.154 0 0 1-.154-.154v-1.16a.154.154 0 0 1 .154-.154Z" fill="#fff"/></svg>