<svg data-tags="tableau" xmlns="http://www.w3.org/2000/svg" viewBox="0 0 14 14"><path d="M6.617 9.426h.766v-2.09H9.31v-.742H7.383v-2.09h-.766v2.09H4.713v.743h1.904Z" fill="#d97b40"/><path d="M3.065 12.444h.65v-1.857h1.718v-.58H3.715V8.126h-.65v1.88H1.347v.581h1.718Z" fill="#b6333c"/><path d="M10.285 5.735h.65V3.877h1.742V3.32h-1.742V1.44h-.65v1.88H8.567v.557h1.718Z" fill="#648598"/><path d="M6.733 13.907h.557v-1.323h1.184v-.488H7.29v-1.323h-.557v1.323h-1.16v.488h1.16Z" fill="#5d668e"/><path d="M3.088 5.735h.604v-1.88h1.74V3.32h-1.74V1.44h-.604v1.88H1.347v.534h1.74Z" fill="#de9342"/><path d="M12.259 8.52h.557v-1.3H14v-.51h-1.184v-1.3h-.557v1.3h-1.161v.51h1.16Z" fill="#5d668e"/><path d="M10.285 12.444h.65v-1.857h1.742v-.58h-1.742V8.126h-.65v1.88H8.567v.581h1.718Z" fill="#28457a" fill-rule="evenodd"/><path d="M8.381 1.765V1.37h-1.16V.093h-.418V1.37H5.642v.395h1.16V3.04h.419V1.765Zm-7.22 6.663h.418V7.15h1.16v-.395H1.58V5.502H1.16v1.254H0v.418l1.16-.023Z" fill="#7997a3"/></svg>