<svg data-tags="tealium" xmlns="http://www.w3.org/2000/svg" viewBox="0 0 14 14"><path d="M6.51 7.02c0-.657-.405-1.213-.88-1.213s-.848.556-.848 1.253c0 .657.404 1.213.879 1.213s.89-.546.849-1.253ZM3.64 9.082c-.112-.627.11-1.173.475-1.254.363-.07.768.405.879 1.031s-.111 1.173-.475 1.253c-.364.04-.768-.404-.88-1.03ZM3.75 10.335c-.15-.556-.515-.96-.767-.88s-.364.587-.182 1.143c.151.555.515.96.768.879s.333-.597.182-1.142ZM4.893 4.999c0-.627-.293-1.102-.657-1.102S3.609 4.413 3.609 5c0 .626.293 1.101.657 1.101s.667-.475.627-1.101ZM3.64 3.382c0-.556-.253-.99-.556-.99s-.516.444-.516.99c0 .556.253.99.556.99s.516-.475.516-.99Z" fill="#959a9f"/><path d="M11.431 7.242A1.582 1.582 0 1 0 9.885 8.86a1.588 1.588 0 0 0 1.546-1.617ZM6.732 8.536c.475-.293 1.213 0 1.657.697a1.308 1.308 0 0 1-.11 1.799c-.476.293-1.214 0-1.658-.697s-.404-1.506.111-1.8ZM5.226 10.294c.404-.182.99.223 1.253.88.293.656.182 1.364-.252 1.505-.405.182-.99-.222-1.253-.879-.304-.657-.192-1.354.252-1.506ZM3.832 11.659c.293-.112.697.333.96.96.222.626.182 1.253-.112 1.364s-.737-.334-.96-.96c-.222-.667-.151-1.253.112-1.364ZM7.904 3.17c.556.151.809.92.586 1.687S7.641 6.141 7.096 6c-.556-.151-.809-.92-.586-1.687.222-.819.849-1.294 1.394-1.142ZM5.924 1.36c.444.112.626.769.444 1.466s-.697 1.172-1.142 1.061-.626-.768-.444-1.465c.181-.687.697-1.172 1.142-1.061ZM4.377.007c.293.07.445.656.293 1.323-.151.657-.515 1.142-.808 1.102-.293-.07-.404-.657-.293-1.324.151-.667.515-1.172.808-1.101Z" fill="#337bbb"/></svg>