<svg data-tags="telegram,brand" xmlns="http://www.w3.org/2000/svg" viewBox="0 0 14 14"><defs><linearGradient id="telegramCircle_clr_a" x1="-523.223" x2="-524.232" y1="-691.962" y2="-689.608" gradientTransform="matrix(3.47 0 0 3.47 1824.644 2403.3)" gradientUnits="userSpaceOnUse"><stop offset="0" stop-color="#37aee2"/><stop offset="1" stop-color="#1e96c8"/></linearGradient></defs><circle cx="7" cy="7" r="7" fill="url(#telegramCircle_clr_a)"/><path fill="#fff" d="M2.913 6.94l4.714-1.943c.466-.202 2.044-.85 2.044-.85s.728-.283.668.405c-.02.283-.182 1.275-.344 2.347l-.507 3.176s-.04.466-.384.547a1.665 1.665 0 01-1.011-.364c-.081-.061-1.518-.971-2.044-1.417a.383.383 0 01.02-.647 78.034 78.034 0 002.124-2.023c.243-.243.486-.81-.526-.122L4.816 7.971a1.188 1.188 0 01-.93.02c-.607-.182-1.317-.425-1.317-.425s-.485-.303.344-.627z"/></svg>