<svg data-tags="tencent weibo" xmlns="http://www.w3.org/2000/svg" viewBox="0 0 14 14"><path d="M1.151 6.039s.251.499-.135.692c0 0-.523.17-.674-.347 0 0-1.178-2.838 1.146-4.672 0 0 1.986-1.627 4.445-.173 0 0 2.525 1.558 1.481 4.742 0 0-1.111 3.08-4.58 2.319 0 0-.342-.106-.302-.485 0 0 .101-.45.606-.346 0 0 2.27.648 3.368-1.523 0 0 1.213-2.319-1.01-3.98 0 0-2.324-1.419-4.075.831 0 0-.877 1.107-.27 2.942z"/><path d="M3.879 3.305c-.818 0-1.482.682-1.482 1.523 0 .207.04.404.112.584 0 0-2.899 2.912-2.466 7.205 0 0-.004.38.333.449 0 0 .303-.069.336-.553 0 0-.344-3.624 2.321-6.433v-.002c.24.172.531.273.845.273.818 0 1.481-.682 1.481-1.524.001-.84-.662-1.522-1.48-1.522zm6.552 4.664s.317-.029.34.219c0 0-.006.311-.323.307 0 0-1.751.071-2.242-1.612 0 0-.451-1.452.831-2.529 0 0 1.351-1.092 2.824.154 0 0 1.404 1.262.279 3.049 0 0-.116.153-.32.069 0 0-.218-.149-.058-.411 0 0 .816-1.137-.109-2.205 0 0-.978-1.161-2.322-.26 0 0-1.236 1.008-.405 2.457 0 0 .406.721 1.505.762z"/><path d="M9.547 5.873a.897.897 0 00.5 1.147.85.85 0 00.334.057v.001s.943 2.23 3.312 2.878c0 0 .2.081.308-.094 0 0 .025-.184-.225-.304 0 0-1.995-.56-2.931-2.637h-.001a.895.895 0 00-.179-1.564.86.86 0 00-1.118.516z"/></svg>