<svg data-tags="tencent weibo" xmlns="http://www.w3.org/2000/svg" viewBox="0 0 14 14"><circle fill="#3EA0D8" cx="7" cy="7.004" r="7"/><g fill="#FFF"><path d="M6.429 4.157c-1.317-.757-2.382.09-2.382.09-1.245.957-.613 2.436-.613 2.436.08.27.36.18.36.18.207-.1.073-.36.073-.36-.325-.956.144-1.534.144-1.534.938-1.173 2.183-.433 2.183-.433 1.19.866.541 2.075.541 2.075-.588 1.132-1.804.794-1.804.794-.27-.054-.325.18-.325.18-.02.198.163.253.163.253 1.858.397 2.453-1.209 2.453-1.209.56-1.66-.793-2.472-.793-2.472z"/><path d="M4.875 6.524a.794.794 0 10-.28-.348S3.04 7.694 3.274 9.93c0 0-.003.198.178.234 0 0 .162-.036.18-.288 0 0-.184-1.89 1.243-3.353zm3.963.985c-.589-.021-.806-.397-.806-.397-.445-.755.217-1.28.217-1.28.72-.47 1.244.135 1.244.135.495.555.058 1.149.058 1.149a.15.15 0 00.031.214.146.146 0 00.172-.036c.602-.931-.15-1.59-.15-1.59-.79-.649-1.513-.08-1.513-.08-.687.562-.445 1.318-.445 1.318.263.878 1.2.84 1.2.84.17.003.174-.159.174-.159-.012-.13-.182-.114-.182-.114z"/><path d="M10.63 8.337s-1.07-.291-1.571-1.374a.463.463 0 10-.248.08v.001s.505 1.162 1.774 1.5c0 0 .107.043.165-.048 0 0 .014-.096-.12-.159z"/></g></svg>