<svg data-tags="tencent,weibo" xmlns="http://www.w3.org/2000/svg" viewBox="0 0 14 14"><path fill="#599ed2" d="M0 0h14v14H0z"/><path d="M6.429 4.154a2.17 2.17 0 0 0-2.382.09 2.102 2.102 0 0 0-.613 2.436.277.277 0 0 0 .36.18c.207-.1.073-.36.073-.36a1.645 1.645 0 0 1 .144-1.534 1.687 1.687 0 0 1 2.183-.433 1.615 1.615 0 0 1 .54 2.075 1.583 1.583 0 0 1-1.803.794.258.258 0 0 0-.325.18.237.237 0 0 0 .163.253 2.041 2.041 0 0 0 1.66-3.681Z" fill="#fff"/><path d="M4.875 6.52a.794.794 0 1 0-.28-.347 4.919 4.919 0 0 0-1.321 3.754.235.235 0 0 0 .178.234s.162-.036.18-.288A4.56 4.56 0 0 1 4.875 6.52Zm3.963.986a.957.957 0 0 1-.806-.397.984.984 0 0 1 .217-1.28.941.941 0 0 1 1.244.135.924.924 0 0 1 .058 1.149.15.15 0 0 0 .026.21l.005.004a.146.146 0 0 0 .172-.036A1.191 1.191 0 0 0 8.09 5.62a1.264 1.264 0 0 0-.445 1.318 1.224 1.224 0 0 0 1.2.84.163.163 0 0 0 .174-.16c-.012-.13-.182-.113-.182-.113Z" fill="#fff"/><path d="M10.63 8.334A2.655 2.655 0 0 1 9.059 6.96a.463.463 0 1 0-.248.08 2.874 2.874 0 0 0 1.774 1.5.138.138 0 0 0 .165-.047s.014-.096-.12-.16Z" fill="#fff"/></svg>