<svg data-tags="tiktok ads" xmlns="http://www.w3.org/2000/svg" viewBox="0 0 14 14"><circle cx="7" cy="7" r="7"/><path fill="#EE1D52" d="M10.41 5.17v1.3s-.45-.01-.78-.1c-.46-.13-.76-.33-.76-.33l-.22-.15v2.7c0 .15-.04.53-.16.84-.15.41-.38.68-.43.74 0 0-.28.36-.78.6-.46.23-.86.22-.97.23 0 0-.7.03-1.3-.4-.14-.1-.27-.21-.38-.33.62.44 1.3.4 1.3.4.13 0 .52 0 .98-.21.5-.25.78-.61.78-.61.04-.06.28-.33.43-.74.12-.31.16-.69.16-.84v-2.7l.22.15s.3.2.76.32c.33.1.78.11.78.11V5.13c.16.03.29.04.37.04zm-1.7-.95a1.86 1.86 0 01-.42-.9h.35s-.07.62.45 1.23c-.14-.09-.26-.2-.37-.33zM4.86 8.17c.05-.4.2-.62.48-.85.41-.31.92-.14.92-.14V6.14c.12 0 .25 0 .37.03V7.5s-.51-.17-.92.14c-.28.23-.43.45-.48.85 0 .21.04.5.21.74a1.15 1.15 0 01-.58-1.06zm-1 1.68l.06.07-.06-.07z"/><path fill="#FFF" d="M8.49 11.33l-.16.48h-.21l.53-1.55h.24l.53 1.55h-.21l-.17-.48h-.55zm.5-.16l-.15-.45-.07-.28h-.01l-.08.28-.15.45H9zm1.58-1v1.36l.01.28h-.18v-.19h-.01a.4.4 0 01-.38.22c-.27 0-.48-.23-.48-.57 0-.37.23-.6.5-.6.17 0 .29.08.34.17v-.66h.2zm-.2.98a.4.4 0 000-.08.3.3 0 00-.3-.24c-.21 0-.33.19-.33.43 0 .23.1.42.32.42a.3.3 0 00.3-.25l.01-.08v-.2zm.51.46c.06.03.17.08.27.08.14 0 .21-.08.21-.17 0-.1-.05-.15-.2-.2-.2-.08-.3-.19-.3-.32 0-.18.15-.33.39-.33.1 0 .2.03.27.07l-.05.15a.45.45 0 00-.23-.07c-.12 0-.18.07-.18.16s.06.13.2.19c.2.07.3.16.3.33 0 .2-.15.34-.42.34a.63.63 0 01-.3-.08l.04-.15zm-.84-6.48v1.02s-.45-.02-.78-.1c-.46-.14-.76-.33-.76-.33l-.22-.15v2.7c0 .15-.04.53-.16.84-.15.41-.38.68-.43.74 0 0-.28.36-.78.6-.46.23-.85.22-.97.23 0 0-.69.03-1.3-.4l-.01-.01a2.5 2.5 0 01-.53-.87 2.47 2.47 0 01.7-2.68c.18-.17.4-.3.64-.4.26-.11.53-.17.8-.18v1.04s-.5-.17-.9.14c-.3.23-.44.45-.49.85a1.16 1.16 0 00.58 1.06c.07.1.15.18.24.24.37.26.68.27 1.08.11.27-.11.47-.36.56-.64.06-.17.06-.34.06-.52v-5.1h.92a1.86 1.86 0 00.8 1.23c.04.05.25.28.52.41.14.08.28.13.43.17z"/><path fill="#69C9D0" d="M5.44 6.32a2.27 2.27 0 00-1.2 1.1 2.47 2.47 0 00.39 2.85c-.21-.15-.4-.33-.56-.54a2.64 2.64 0 01-.34-.65 2.47 2.47 0 01.7-2.68 2.27 2.27 0 011.1-.54c.24-.04.48-.05.72-.01v.3c-.28 0-.55.06-.81.17z"/><path fill="#69C9D0" d="M10.04 4.84v.29a1.99 1.99 0 01-.95-.57l.15.08c.32.17.65.22.8.2zM8.3 3.32h-.92v5.1c0 .18 0 .35-.06.52-.1.28-.3.53-.56.64-.4.17-.7.15-1.08-.1a.952.952 0 01-.24-.25c.32.18.6.17.95.03.27-.11.47-.36.56-.64C7 8.45 7 8.28 7 8.1V3h1.27s-.01.13.02.32z"/></svg>