<svg data-tags="tiktok,channel" xmlns="http://www.w3.org/2000/svg" viewBox="0 0 14 14"><path d="M0 0h14v14H0z"/><path fill="#70f2ed" fill-rule="evenodd" d="M4.46 9.96a2.35 2.35 0 0 1 1.89-4.08v.29a2.36 2.36 0 0 0-1.9 3.79ZM8.93 4.6a1.85 1.85 0 0 0 1.08.38v.28a1.64 1.64 0 0 1-1.08-.66Zm-.67-1.47a1.93 1.93 0 0 0 .03.32h-.97v4.86a2.37 2.37 0 0 1-.07.6 1.04 1.04 0 0 1-1.84.16 1.06 1.06 0 0 0 1.54-.47 2.38 2.38 0 0 0 .07-.6V3.14Z"/><path fill="#fff" fill-rule="evenodd" d="M8.56 3.46a1.8 1.8 0 0 0 1.75 1.85v1.25a3 3 0 0 1-1.75-.61V8.4a2.3 2.3 0 0 1-1.76 2.4 2.5 2.5 0 0 1-1.1-.03c-2.83-.85-1.89-5.03.94-4.58v1.35a1.06 1.06 0 0 0-1.25 1.5 1.04 1.04 0 0 0 1.86-.13 2.37 2.37 0 0 0 .07-.6V3.46Z"/><path fill="#ea3354" fill-rule="evenodd" d="M6.35 6.17a2.63 2.63 0 0 1 .3.03v1.35a1.06 1.06 0 0 0-1.26 1.5l.02.03a.8.8 0 0 1-.31-.35 1.06 1.06 0 0 1 1.25-1.5V6.17Zm3.66-.9a2.43 2.43 0 0 0 .3.04v1.25a3 3 0 0 1-1.75-.61V8.4a2.3 2.3 0 0 1-1.76 2.4 2.5 2.5 0 0 1-1.1-.03 2.39 2.39 0 0 1-1.24-.82 2.4 2.4 0 0 0 2.04.54 2.3 2.3 0 0 0 1.76-2.42V5.63a3 3 0 0 0 1.75.62v-.98ZM8.56 3.46a2.15 2.15 0 0 0 .37 1.15 1.87 1.87 0 0 1-.64-1.15Z"/></svg>