<svg data-tags="tiktok,brand" xmlns="http://www.w3.org/2000/svg" viewBox="0 0 14 14"><path fill="#00f7ef" fill-rule="evenodd" d="M2.436 12.309c-2.862-2.484-1.011-8.015 3.39-7.32v.513C2.109 5.33.473 9.762 2.436 12.31zm8.028-9.595a3.325 3.325 0 001.935.68v.501a2.937 2.937 0 01-1.935-1.18zM9.27.073a3.462 3.462 0 00.054.565H7.57v8.736a4.248 4.248 0 01-.124 1.076 1.875 1.875 0 01-3.297.288 1.909 1.909 0 002.762-.854 4.277 4.277 0 00.124-1.076V.073z"/><path fill-rule="evenodd" d="M9.805.638V.65a3.233 3.233 0 003.13 3.309v2.26a5.376 5.376 0 01-3.133-1.11l-.004 4.4a4.13 4.13 0 01-3.157 4.339 4.502 4.502 0 01-1.984-.07C-.408 12.263 1.275 4.752 6.36 5.556c0 2.425.002-.001.002 2.425a1.91 1.91 0 00-2.246 2.69 1.868 1.868 0 003.33-.221 4.248 4.248 0 00.124-1.076V.638z"/><path fill="#ff004f" fill-rule="evenodd" d="M5.826 5.502a4.729 4.729 0 01.534.054c0 2.425.002-.001.002 2.425a1.91 1.91 0 00-2.246 2.69l.033.067a1.452 1.452 0 01-.567-.633 1.91 1.91 0 012.245-2.69c0-2.223-.001-.373-.001-1.913zm6.573-1.607a4.367 4.367 0 00.535.064c0 2.72.002 0 .002 2.26a5.376 5.376 0 01-3.134-1.11l-.004 4.4a4.13 4.13 0 01-3.157 4.339 4.502 4.502 0 01-1.984-.07 4.283 4.283 0 01-2.22-1.47 4.517 4.517 0 001.686.905 4.508 4.508 0 001.983.069 4.13 4.13 0 003.158-4.338l.003-4.4A5.37 5.37 0 0012.4 5.653c0-2.099-.002.098-.002-1.758zM9.805.638V.65a3.851 3.851 0 00.659 2.064A3.359 3.359 0 019.324.638z"/></svg>