<svg xmlns="http://www.w3.org/2000/svg" viewBox="0 0 14 14"><circle cx="7" cy="7" r="7" fill="#010101"/><path fill="#70f2ed" fill-rule="evenodd" d="M4.55 9.96a2.35 2.35 0 011.89-4.08v.29a2.36 2.36 0 00-1.9 3.79zM9.02 4.6a1.85 1.85 0 001.08.4v.28a1.64 1.64 0 01-1.08-.66zm-.67-1.47a1.93 1.93 0 00.03.32h-.97v4.86a2.37 2.37 0 01-.07.6 1.04 1.04 0 01-1.84.16 1.06 1.06 0 001.54-.47 2.38 2.38 0 00.07-.6V3.14z"/><path fill="#fff" fill-rule="evenodd" d="M8.65 3.46a1.8 1.8 0 001.75 1.85v1.25a3 3 0 01-1.75-.61V8.4a2.3 2.3 0 01-1.76 2.41 2.5 2.5 0 01-1.1-.03c-2.83-.85-1.89-5.03.94-4.58v1.35a1.06 1.06 0 00-1.25 1.5 1.04 1.04 0 001.86-.13 2.37 2.37 0 00.07-.6V3.46z"/><path fill="#ea3354" fill-rule="evenodd" d="M6.44 6.17a2.64 2.64 0 01.3.03v1.35a1.06 1.06 0 00-1.26 1.5l.02.03a.8.8 0 01-.31-.35 1.06 1.06 0 011.25-1.5V6.17zm3.66-.9a2.43 2.43 0 00.3.04v1.25a3 3 0 01-1.75-.61V8.4a2.3 2.3 0 01-1.76 2.41 2.5 2.5 0 01-1.1-.03 2.39 2.39 0 01-1.24-.82 2.4 2.4 0 002.04.54 2.3 2.3 0 001.76-2.42V5.63a3 3 0 001.75.62v-.98zM8.65 3.46a2.15 2.15 0 00.37 1.15 1.87 1.87 0 01-.64-1.15z"/></svg>