<svg data-tags="tiktok ads" xmlns="http://www.w3.org/2000/svg" viewBox="0 0 14 14"><path d="M9.78.57s-.13 1.08.8 2.14l.02.02A3.19 3.19 0 019.14.58h.64zm.82 2.16l.27.15c.6.3 1.18.38 1.47.35v.5a3.6 3.6 0 01-1.74-1zm-8.16 9.99a4.54 4.54 0 01-1.65-2.08v-.01a4.17 4.17 0 012.46-5.38A4.11 4.11 0 015.4 5v.52c.22-.01.45 0 .67.04v2.33s-.93-.3-1.67.24c-.52.4-.8.79-.88 1.48 0 .33.05.75.28 1.14l.1.16.18.08c.5.22.98.2 1.56-.03.49-.2.85-.63 1.02-1.11.09-.24.1-.49.1-.73V0H9.1s-.02.22.04.56a3.19 3.19 0 001.46 2.16 3.6 3.6 0 001.47.92l.27.08c.28.06.52.08.67.06v2.3s-.82-.04-1.43-.2c-.84-.22-1.39-.57-1.39-.57l-.4-.26V9.8c0 .26-.08.92-.29 1.46-.28.72-.7 1.2-.78 1.29 0 0-.53.63-1.44 1.06-.83.39-1.56.38-1.78.39 0 0-1.25.05-2.38-.71a4.78 4.78 0 01-.69-.57m7.56-.17l-.16.49h-.2l.52-1.56h.24l.53 1.56h-.21l-.17-.5H10zm.51-.16l-.15-.45c-.04-.1-.06-.2-.08-.28l-.08.28-.16.45h.47zm1.58-.99v1.63h-.18v-.2h-.01a.4.4 0 01-.38.22c-.27 0-.48-.23-.48-.57 0-.37.23-.6.5-.6.18 0 .3.09.34.17v-.66h.2zm-.2.97a.4.4 0 00-.02-.08.3.3 0 00-.29-.24c-.2 0-.33.19-.33.43 0 .23.11.42.33.42a.3.3 0 00.3-.25v-.28zm.5.46c.07.03.17.08.27.08.15 0 .22-.07.22-.17s-.06-.15-.2-.2c-.21-.08-.3-.19-.3-.32 0-.18.14-.33.38-.33.11 0 .21.04.27.07l-.05.15a.45.45 0 00-.23-.07c-.11 0-.18.07-.18.16s.07.13.21.19c.2.07.3.17.3.33 0 .2-.16.34-.42.34a.63.63 0 01-.32-.08l.05-.15z"/></svg>