<svg data-tags="t mall" xmlns="http://www.w3.org/2000/svg" viewBox="0 0 14 14"><path d="M6.014 9.43c.109-.083.269-.14.393-.057.126.059.164.206.16.333.002.938.001 1.876 0 2.814l-.529.001c-.012-.798 0-1.597-.006-2.395-.618.3-1.38.302-1.998 0v2.394h-.53c.001-.95-.001-1.9.002-2.849-.015-.177.135-.353.318-.338.206.023.337.205.518.288.28.169.62.176.937.149.275-.028.521-.173.735-.34zm6.501-.092c.175 0 .35 0 .525-.002.027.747-.002 1.496.014 2.245.007.157.084.334.248.378.227.062.466.023.698.041v.52h-.663a.83.83 0 01-.658-.306.857.857 0 01-.165-.54V9.337zM0 9.332h3.113v.5c-.429 0-.857.002-1.285 0-.006.897.007 1.793-.006 2.69a31.33 31.33 0 00-.531-.001c-.002-.896 0-1.791 0-2.686-.43-.004-.86 0-1.29-.002v-.501zm10.68.006h.533c.004.729-.001 1.458.003 2.187.004.167.06.373.24.429.229.071.474.027.71.046-.003.174 0 .347-.002.52-.227 0-.454.002-.681 0a.82.82 0 01-.664-.341.89.89 0 01-.14-.508l.001-2.333zm-2.66.502c.108-.27.361-.508.667-.504.303-.003.553.231.662.498.358.895.714 1.79 1.07 2.686l-.59.001c-.158-.398-.31-.799-.464-1.199a2.081 2.081 0 00-1.397.538 2.14 2.14 0 00-.47.66h-.546c.354-.894.711-1.786 1.068-2.68zm.436.291c-.153.362-.295.73-.45 1.09.342-.245.765-.339 1.178-.375-.089-.236-.176-.473-.267-.708-.035-.095-.121-.181-.23-.173-.106-.008-.192.074-.23.166zM.297 1.49c1.931-.004 3.863-.003 5.795-.001l-.001.666c-.875.002-1.75-.002-2.625.002v1.715c.975.002 1.949-.002 2.923.002v.652c-.956.002-1.911-.002-2.866.001.396 1.4 1.472 2.612 2.86 3.084 0 .227.001.454-.001.68-1.434-.33-2.634-1.411-3.246-2.733-.136.187-.212.41-.344.6-.63 1.01-1.605 1.872-2.79 2.133A44.708 44.708 0 010 7.62a4.121 4.121 0 002.115-1.66c.286-.437.493-.925.611-1.434C1.818 4.524.91 4.53.001 4.525v-.65c.93-.004 1.862-.003 2.793 0 .023-.572.003-1.145.01-1.716-.836-.016-1.674.015-2.51-.016.003-.218.001-.436.003-.654zm7.067-.005c.44-.003.892.11 1.245.38.406.321.581.856.584 1.36v2.544c.006.392-.01.79-.123 1.169-.11.395-.331.77-.664 1.015-.298.224-.671.327-1.04.34 0-.225-.002-.45.001-.676.401-.062.77-.31.958-.673.23-.412.218-.899.21-1.355-.39.229-.785.45-1.167.693a33.06 33.06 0 01-.001-.694c.39-.23.777-.463 1.166-.695 0-.374.002-.748 0-1.122-.393.224-.78.454-1.166.69-.002-.23-.001-.46-.001-.69.383-.232.768-.46 1.153-.69a.971.971 0 00-.44-.741c-.211-.138-.467-.175-.713-.191 0-.222 0-.443-.002-.664zm2.944-.005c.213-.002.426-.001.64-.001v.74c.576.002 1.152 0 1.728 0v-.74c.214 0 .428-.001.641.001.002.247 0 .493.002.74l.68.001.001.659c-.228.012-.455.005-.683.008.002.203 0 .406 0 .61-.213.002-.426 0-.64.002l-.001-.611c-.576-.003-1.152-.004-1.729 0v.61c-.213 0-.426.002-.64-.001.002-.204.001-.406.002-.61-.229-.003-.458.006-.686-.009.002-.22 0-.439.001-.658.228-.002.455 0 .683-.001.002-.247.001-.493 0-.74zm-.683 2.508h3.242c.313.004.662.066.882.311.212.24.242.574.246.88v3.1c-1.076.002-2.152 0-3.227 0-.293-.001-.608-.061-.827-.27-.236-.223-.316-.56-.316-.875a824.777 824.777 0 010-3.146zm.634.637c-.003.4.002.801.003 1.202.41.002.82-.002 1.23.002.023-.4.006-.803.01-1.204H10.26zm1.855 0v1.202h1.233c-.014-.313.046-.643-.063-.945-.045-.161-.216-.236-.37-.243a11.83 11.83 0 00-.8-.014zm-1.852 1.808c.009.296-.034.603.055.891a.437.437 0 00.311.3c.286.072.584.041.875.045V6.433c-.414-.002-.827-.001-1.241 0zm1.852 0c-.002.412 0 .824-.001 1.236.412.004.824.002 1.236.002-.002-.414.001-.826-.002-1.24-.411.002-.822 0-1.233.001z"/></svg>