<svg data-tags="t mall" xmlns="http://www.w3.org/2000/svg" viewBox="0 0 14 14"><circle cx="7" cy="7" r="7" fill="#F0120A"/><path fill="#FFF" d="M6.331 8.65c.074-.057.182-.096.267-.04.085.04.11.14.108.226.002.637.001 1.273 0 1.91h-.359c-.008-.541 0-1.083-.004-1.625-.42.204-.936.205-1.355 0l-.001 1.625h-.359c0-.645-.001-1.29.001-1.933-.01-.12.092-.24.216-.23.14.015.229.14.351.195.19.115.421.12.636.101.187-.018.354-.117.5-.23zm4.411-.064h.357c.018.506-.002 1.015.01 1.522.004.107.056.227.168.257.153.042.316.016.473.028v.352h-.45a.563.563 0 01-.446-.207.581.581 0 01-.112-.367V8.586zM2.25 8.582h2.112v.34h-.871c-.005.608.004 1.217-.005 1.825-.12-.002-.24-.001-.36 0V8.922c-.292-.002-.584 0-.876 0v-.34zm7.247.005h.362c.003.494-.001.989.002 1.483.003.114.04.254.163.292.155.048.321.018.481.031l-.001.353h-.462a.556.556 0 01-.45-.232.604.604 0 01-.095-.345V8.587zm-1.805.341c.074-.184.245-.346.453-.343.205-.002.375.157.45.338l.725 1.822c-.134.002-.267 0-.4.001-.107-.27-.211-.542-.315-.813a1.412 1.412 0 00-.948.365c-.136.125-.24.281-.32.448h-.37c.24-.607.483-1.212.725-1.818zm.296.197c-.104.245-.2.495-.306.74.232-.167.52-.23.8-.255l-.181-.48c-.024-.065-.083-.123-.156-.118-.072-.005-.13.05-.157.113zM2.451 3.26c1.31-.002 2.622 0 3.933 0v.452c-.595.002-1.188-.001-1.782.001v1.164c.661.002 1.322 0 1.983.002v.442c-.648.002-1.297-.001-1.945.001.27.95 1 1.772 1.941 2.093v.461c-.973-.224-1.788-.958-2.203-1.855-.092.127-.144.278-.233.408-.428.685-1.09 1.27-1.894 1.447a30.332 30.332 0 010-.455 2.796 2.796 0 001.435-1.125c.194-.297.334-.629.415-.974-.617-.002-1.234.001-1.85-.001v-.442c.63-.002 1.263-.002 1.895 0 .016-.388.002-.776.007-1.164-.567-.01-1.136.01-1.703-.011.002-.148 0-.296.001-.444zm4.796-.003c.298-.001.605.075.845.258.275.218.394.581.396.923v1.727c.004.266-.007.536-.083.793a1.27 1.27 0 01-.45.689 1.248 1.248 0 01-.707.23l.001-.458a.89.89 0 00.65-.457c.156-.28.148-.61.143-.92-.266.156-.533.306-.793.471a22.433 22.433 0 010-.47l.791-.473c0-.253.001-.507 0-.761-.266.152-.53.308-.791.467-.002-.155 0-.312 0-.467.26-.157.52-.313.782-.468a.659.659 0 00-.299-.503c-.143-.094-.316-.119-.484-.13v-.45zm1.998-.003h.434v.502h1.172v-.502h.436l.001.502.462.001v.447c-.155.009-.31.004-.463.006v.413c-.145.002-.29.001-.434.002-.002-.138-.001-.276-.001-.415a98.08 98.08 0 00-1.173 0v.414h-.434V4.21c-.155-.002-.31.004-.465-.006v-.447h.464v-.503zm-.464 1.702h2.2c.213.003.45.045.599.211.143.163.164.39.167.597v2.104h-2.19c-.2 0-.413-.042-.562-.183-.16-.152-.213-.38-.214-.594V4.956zm.43.432c-.001.272.002.544.002.816.279.002.557-.001.836.002.015-.273.003-.545.006-.818h-.844zm1.259 0v.816h.837c-.01-.213.03-.436-.043-.641-.03-.11-.146-.16-.251-.165-.181-.01-.362-.011-.543-.01zM9.213 6.616c.006.201-.022.41.038.605.029.099.11.178.211.203.194.05.396.028.594.031v-.84h-.843zm1.257 0v.839c.279.003.558.001.838.001-.001-.28.001-.56-.001-.841h-.837z"/></svg>