<svg data-tags="treasure data" xmlns="http://www.w3.org/2000/svg" viewBox="0 0 14 14"><defs><linearGradient id="brand_treasureData__a" x1="-159.095" y1="-416.198" x2="-159.095" y2="-422.171" gradientTransform="matrix(1.64861 0 0 -1.64861 269.285 -684.056)" gradientUnits="userSpaceOnUse"><stop offset="0" stop-color="#dd5b36"/><stop offset="1" stop-color="#d6358a"/></linearGradient><linearGradient id="brand_treasureData__b" x1="181.37" y1="-1023.604" x2="181.37" y2="-1011.61" gradientTransform="matrix(.71407 0 0 -.71407 -120.562 -719.02)" gradientUnits="userSpaceOnUse"><stop offset="0" stop-color="#377d93"/><stop offset="1" stop-color="#69b16e"/></linearGradient></defs><path d="M12.02 2.162a.236.236 0 0 0-.17-.071H2.145a.236.236 0 0 0-.171.071L.063 4.165a.236.236 0 0 0 0 .321l6.764 7.376a.236.236 0 0 0 .333.013l.013-.013 6.763-7.374a.236.236 0 0 0 0-.322Z" fill="url(#brand_treasureData__a)"/><path d="M13.998 4.27a.234.234 0 0 0-.062-.133l-1.917-2.003a.236.236 0 0 0-.075-.051L8.94 6.73Z" fill="#fff" opacity=".4" /><path d="M8.95 6.745H8.95l.001.002Z" fill="url(#brand_treasureData__b)"/><path d="M13.998 4.27 8.941 6.73l-1.942 5.178a.234.234 0 0 0 .176-.076l6.762-7.373a.234.234 0 0 0 .061-.188Z" fill="#fff" opacity=".7"/><path d="M2.094 2.09A.234.234 0 0 0 2 2.151L.091 4.155l-.06.128a.244.244 0 0 1 .015-.06.234.234 0 0 0-.02.104L8.94 6.736Z" fill="#fff" opacity=".1"/><path d="M11.944 2.083a.236.236 0 0 0-.095-.02H2.144a.206.206 0 0 0-.07.013l6.873 4.656Z" fill="#fff" opacity=".25"/></svg>
