<svg xmlns="http://www.w3.org/2000/svg" viewBox="0 0 14 14"><circle fill="#34455C" cx="7" cy="7" r="7"/><path fill="#FFF" d="M8.062 9.489c-.214 0-.405-.051-.572-.154a.58.58 0 0 1-.258-.304c-.046-.128-.07-.415-.07-.864l.017-1.97h1.793V5.093H7.179V3.25H6.104c-.048.4-.148.49-.275.748-.128.259-.298.48-.507.665-.211.183-.356.33-.652.43v1.105l.723-.016v2.714c0 .355.036.624.108.81.072.186.202.363.39.528.186.165.411.292.675.382.265.089.57.134.914.134a3.6 3.6 0 0 0 .846-.094c.26-.063.683-.248 1.004-.405V9.146c-.376.254-.887.343-1.268.343z"/></svg>