<svg data-tags="twilio" xmlns="http://www.w3.org/2000/svg" viewBox="0 0 2500 2500"><circle cx="1250" cy="1250" r="1237.249" fill="#cf272d"/><path fill="#fff" d="M1250.006 443.277c-464.644 0-841.313 376.677-841.313 841.314 0 464.644 376.67 841.307 841.313 841.307 464.638 0 841.307-376.664 841.307-841.307 0-464.635-376.666-841.31-841.307-841.314zm0 1460.902c-342.19 0-619.595-277.404-619.595-619.588 0-342.191 277.405-619.588 619.595-619.588 342.184 0 619.582 277.397 619.582 619.588 0 342.184-277.398 619.588-619.582 619.588z"/><path fill="#fff" d="M1284.59 1075.058a174.932 174.932 0 11174.935 174.935 174.934 174.934 0 01-174.935-174.935m0 419.052a174.932 174.932 0 11174.935 174.935 174.94 174.94 0 01-174.935-174.935m-419.044 0a174.935 174.935 0 11174.934 174.935 174.944 174.944 0 01-174.934-174.935m0-419.045A174.935 174.935 0 111040.48 1250a174.934 174.934 0 01-174.934-174.935"/></svg>