<svg data-tags="twilio" xmlns="http://www.w3.org/2000/svg" viewBox="0 0 2500 2500"><path fill="#cf272d" d="M1250.005 1.372C560.405 1.372 1.372 560.415 1.372 1250.005c0 689.6 559.033 1248.623 1248.633 1248.623 689.59 0 1248.623-559.024 1248.623-1248.623 0-689.587-559.028-1248.627-1248.623-1248.633zm0 2168.193c-507.861 0-919.57-411.708-919.57-919.56 0-507.862 411.71-919.56 919.57-919.56 507.851 0 919.55 411.698 919.55 919.56 0 507.851-411.699 919.56-919.55 919.56z"/><path fill="#cf272d" d="M1301.333 939.028c0-143.379 116.24-259.619 259.629-259.619s259.619 116.24 259.619 259.62c0 143.398-116.23 259.628-259.62 259.628s-259.628-116.23-259.628-259.629m0 621.934c0-143.379 116.24-259.629 259.629-259.629s259.619 116.25 259.619 259.63c0 143.388-116.23 259.628-259.62 259.628s-259.628-116.24-259.628-259.629m-621.924 0c0-143.379 116.25-259.629 259.63-259.629 143.388 0 259.628 116.25 259.628 259.63 0 143.388-116.24 259.628-259.629 259.628-143.379 0-259.629-116.24-259.629-259.629m0-621.924c0-143.389 116.25-259.62 259.63-259.62 143.388 0 259.628 116.231 259.628 259.62 0 143.4-116.24 259.63-259.629 259.63-143.379 0-259.629-116.23-259.629-259.63"/></svg>