<svg data-tags="verify, twitter, tick" xmlns="http://www.w3.org/2000/svg" viewBox="0 0 14 14"><path d="M7.782.34a1.07 1.07 0 0 0-1.565 0L5.181 1.45a1.069 1.069 0 0 1-.82.338l-1.517-.05a1.071 1.071 0 0 0-1.107 1.107l.052 1.517a1.071 1.071 0 0 1-.339.819L.34 6.218a1.07 1.07 0 0 0 0 1.565L1.45 8.82a1.069 1.069 0 0 1 .338.819l-.05 1.517a1.071 1.071 0 0 0 1.106 1.107l1.518-.052a1.071 1.071 0 0 1 .819.339l1.036 1.11a1.072 1.072 0 0 0 1.565 0l1.037-1.11a1.069 1.069 0 0 1 .82-.339l1.517.051a1.071 1.071 0 0 0 1.107-1.107l-.051-1.517a1.071 1.071 0 0 1 .338-.82l1.11-1.036a1.072 1.072 0 0 0 0-1.565L12.55 5.18a1.069 1.069 0 0 1-.338-.819l.05-1.518a1.071 1.071 0 0 0-1.106-1.107l-1.518.052a1.071 1.071 0 0 1-.819-.339L7.782.34ZM3.43 7.28l2.67 2.67 4.427-4.834-1.05-.97L6.05 7.878 4.437 6.265Z" fill="#8599a8" fill-rule="evenodd"/></svg>