<svg data-tags="verify, twitter, tick" xmlns="http://www.w3.org/2000/svg" viewBox="0 0 14 14"><defs><linearGradient id="brand_twitterVerifiedGold_clr__a" x1="2.256" y1="17.111" x2="12.589" y2="3.445" gradientTransform="matrix(1 0 0 -1 0 17.837)" gradientUnits="userSpaceOnUse"><stop offset="0" stop-color="#f1e557"/><stop offset=".539" stop-color="#c2832e"/><stop offset=".68" stop-color="#bf7e2b"/><stop offset="1" stop-color="#f2ea56"/><stop offset="1" stop-color="#f1e557"/></linearGradient><linearGradient id="brand_twitterVerifiedGold_clr__b" x1="2.892" y1="16.424" x2="11.225" y2="5.09" gradientTransform="matrix(1 0 0 -1 0 17.837)" gradientUnits="userSpaceOnUse"><stop offset="0" stop-color="#f6e78c"/><stop offset=".406" stop-color="#dbb743"/><stop offset=".989" stop-color="#dbb743"/></linearGradient></defs><path d="M8.73 1.674 7 0 5.27 1.674l-2.385-.337-.416 2.372L.343 4.837 1.4 7 .343 9.163l2.126 1.128.416 2.372 2.384-.337L7 14l1.73-1.674 2.385.337.416-2.372 2.126-1.128L12.6 7l1.057-2.163-2.126-1.128-.416-2.372ZM3.668 7.26 6.16 9.753l4.133-4.513-.98-.907-3.2 3.487-1.506-1.507Z" fill-rule="evenodd" fill="url(#brand_twitterVerifiedGold_clr__a)"/><path d="M8.565 2.181 7 .667 5.434 2.18l-2.157-.305-.376 2.146-1.924 1.02L1.933 7 .977 8.957 2.9 9.978l.376 2.146 2.157-.305L7 13.333l1.565-1.514 2.158.305.376-2.146 1.924-1.02L12.067 7l.956-1.957L11.1 4.022l-.376-2.146ZM3.667 7.26 6.16 9.753l4.133-4.513-.98-.907-3.2 3.487-1.506-1.507Z" fill-rule="evenodd" fill="url(#brand_twitterVerifiedGold_clr__b)"/><path d="M3.667 7.26 6.16 9.753l4.131-4.511h.002v.931L6.16 10.687 3.667 8.193Z" fill="#c6892f" fill-rule="evenodd"/></svg>