<svg data-tags="verify, twitter, tick" xmlns="http://www.w3.org/2000/svg" viewBox="0 0 14 14"><path d="M14 7.328a2.715 2.715 0 0 1-.353 1.36 2.516 2.516 0 0 1-.946.967 2.593 2.593 0 0 1 .017.345 2.648 2.648 0 0 1-.741 1.89 2.374 2.374 0 0 1-1.789.781 2.342 2.342 0 0 1-.891-.172 2.712 2.712 0 0 1-.946 1.085 2.436 2.436 0 0 1-2.71.009 2.65 2.65 0 0 1-.938-1.094 2.332 2.332 0 0 1-.891.172 2.4 2.4 0 0 1-1.797-.782A2.625 2.625 0 0 1 1.266 10a2.923 2.923 0 0 1 .03-.344 2.535 2.535 0 0 1-.946-.968 2.812 2.812 0 0 1 .041-2.789 2.41 2.41 0 0 1 1.047-.96A2.704 2.704 0 0 1 1.266 4a2.625 2.625 0 0 1 .75-1.89 2.41 2.41 0 0 1 1.796-.781 2.342 2.342 0 0 1 .891.172A2.712 2.712 0 0 1 5.65.416 2.41 2.41 0 0 1 8.351.413a2.733 2.733 0 0 1 .946 1.085 2.331 2.331 0 0 1 .891-.172 2.374 2.374 0 0 1 1.789.782 2.646 2.646 0 0 1 .74 1.89 2.689 2.689 0 0 1-.155.938 2.41 2.41 0 0 1 1.047.96A2.745 2.745 0 0 1 14 7.327ZM6.702 9.436l2.89-4.328a.502.502 0 0 0 .071-.375.458.458 0 0 0-.21-.312.533.533 0 0 0-.375-.079.48.48 0 0 0-.328.203L6.204 8.373l-1.173-1.17a.465.465 0 0 0-.358-.148.553.553 0 0 0-.358.147.478.478 0 0 0-.14.353.487.487 0 0 0 .14.353l1.61 1.61.08.063a.501.501 0 0 0 .281.093.458.458 0 0 0 .416-.238Z" fill="#4a9fea"/></svg>