<svg data-tags="ugc" xmlns="http://www.w3.org/2000/svg" viewBox="0 0 14 14"><circle cx="7" cy="7" r="7" fill="#4c98d8"/><path d="M6.206 3.793h.438v.438h-.438ZM3.25 5.269h1.241V6.51H3.25Zm1.867-.477h.827v.827h-.827Zm3.331-.634h1.888v1.888H8.448Zm.328 2.638h1.234V8.03H8.776ZM7.165 4.669h.657v.657h-.657Zm2.758 4.054h.827v.827h-.827Zm-6.271.194h.438v.438h-.438Zm.588-1.759h.876v.876H4.24ZM8.894 9.66a.438.438 0 0 0-.225-.321.95.95 0 0 0-.232-.09c-.173-.045-.347-.087-.52-.136a.846.846 0 0 1-.302-.146.283.283 0 0 1-.12-.244.448.448 0 0 1 .048-.174c.055-.115.115-.23.166-.347a2.448 2.448 0 0 0 .217-.837 1.28 1.28 0 0 0-.04-.424.862.862 0 0 0-.54-.606 1.096 1.096 0 0 0-.645-.044.876.876 0 0 0-.7.676 1.46 1.46 0 0 0-.003.662 3.012 3.012 0 0 0 .284.783 1.985 1.985 0 0 1 .101.22.277.277 0 0 1-.086.322.684.684 0 0 1-.188.112 3.028 3.028 0 0 1-.447.135c-.113.028-.227.056-.338.092a.484.484 0 0 0-.22.145.508.508 0 0 0-.117.315c-.008.129-.008.258-.011.388v.066h3.943c0-.098.003-.193-.001-.288a2.099 2.099 0 0 0-.024-.259Z" fill="#fff"/></svg>