<svg data-tags="under armour" xmlns="http://www.w3.org/2000/svg" viewBox="0 0 14 14"><circle fill="#E81C23" cx="7" cy="7" r="7"/><path fill="#FFF" d="M9.41 4.496c.256.045.504.082.749.134.62.133 1.222.32 1.805.57.034.015.068.032.102.05.107.052.107.052.084.171-.065.335-.259.59-.505.811-.369.33-.804.547-1.26.726l-.122.048.138.054c.416.164.814.362 1.161.648.237.195.438.42.543.715.026.073.035.152.055.227.012.048-.005.075-.05.093-.245.098-.487.208-.737.296a9.008 9.008 0 01-1.929.463l-.036-.004v-.425c.001-.37.006-.739 0-1.108-.003-.249-.128-.446-.298-.618-.014-.013-.048-.015-.07-.011-.691.134-1.389.191-2.091.188a10.835 10.835 0 01-1.985-.186.109.109 0 00-.085.025.94.94 0 00-.288.695c.008.452.004.904.004 1.357v.09c-.055-.006-.106-.009-.156-.016a9.418 9.418 0 01-2.45-.702c-.184-.081-.17-.03-.121-.256.056-.26.206-.47.39-.656.318-.32.702-.537 1.11-.717.119-.052.24-.1.368-.152-.094-.038-.182-.07-.268-.108-.428-.18-.834-.397-1.172-.722-.23-.222-.404-.476-.453-.802-.008-.056.006-.084.057-.11a8.294 8.294 0 011.293-.47 8.14 8.14 0 011.347-.282c.016-.002.032-.002.053-.003v1.509c0 .26.123.466.298.646.014.014.047.016.07.012.314-.043.627-.097.942-.132a9.45 9.45 0 011.823-.03c.438.037.874.106 1.31.163.043.006.07-.003.098-.034a.965.965 0 00.278-.693c-.007-.457-.004-.914-.005-1.371 0-.021.002-.042.004-.083zM5.378 7.009c.887.472 2.48.43 3.245-.001-.762-.448-2.426-.466-3.245.001z"/></svg>