<svg xmlns="http://www.w3.org/2000/svg" viewBox="0 0 14 14"><path d="M.112 8.775h.105l-.098.407a.173.173 0 0 0 .008.137.124.124 0 0 0 .112.045.198.198 0 0 0 .133-.045.256.256 0 0 0 .073-.137l.098-.407H.65l-.1.417a.355.355 0 0 1-.117.203.335.335 0 0 1-.218.068.217.217 0 0 1-.184-.066.242.242 0 0 1-.018-.203Zm.523.67L.8 8.748l.316.41.025.036.027.045.111-.464h.098l-.166.695-.323-.417-.025-.035a.18.18 0 0 1-.02-.04l-.111.466H.635Zm.735 0 .16-.67h.106l-.16.67Zm.258 0 .16-.67h.364l-.022.093h-.258l-.04.166h.258l-.023.095h-.258l-.075.315h-.106Zm.482 0 .16-.67h.106l-.16.67Zm.258 0 .16-.67h.364l-.022.093h-.258l-.04.168h.258l-.023.095h-.258l-.051.216h.257l-.023.098Zm.487 0 .16-.67h.143a.823.823 0 0 1 .193.015.198.198 0 0 1 .088.048.212.212 0 0 1 .058.113.4.4 0 0 1-.008.158.52.52 0 0 1-.067.158.386.386 0 0 1-.113.113.325.325 0 0 1-.11.049.742.742 0 0 1-.172.015h-.172Zm.13-.1h.09a.496.496 0 0 0 .113-.01.217.217 0 0 0 .071-.033.27.27 0 0 0 .075-.081.366.366 0 0 0 .045-.113.297.297 0 0 0 .009-.112.153.153 0 0 0-.037-.081.112.112 0 0 0-.058-.034.496.496 0 0 0-.118-.01h-.077Zm.993-.2-.072.3h-.1l.16-.67h.162a.485.485 0 0 1 .103.008.102.102 0 0 1 .051.027.11.11 0 0 1 .034.063.22.22 0 0 1-.004.086.278.278 0 0 1-.038.089.228.228 0 0 1-.063.063.222.222 0 0 1-.065.026.547.547 0 0 1-.106.009h-.062Zm.028-.09h.027a.27.27 0 0 0 .123-.02.104.104 0 0 0 .047-.07.072.072 0 0 0-.014-.075.187.187 0 0 0-.11-.022h-.026Zm.667.39-.033-.173h-.26l-.116.173h-.111l.482-.697.15.697Zm-.23-.264h.182l-.03-.153a.204.204 0 0 1-.003-.034.333.333 0 0 1-.002-.041 1.098 1.098 0 0 1-.041.076Zm.495.264.073-.306-.133-.362h.111l.084.227.006.024.009.03.02-.03A.355.355 0 0 1 5.128 9l.194-.224h.107l-.311.36-.074.307h-.106Zm1.013-.33c0-.006.001-.02.005-.044l.005-.048-.022.046a.366.366 0 0 1-.03.047l-.256.357-.083-.364c-.003-.015-.007-.03-.008-.043a.351.351 0 0 1-.004-.042c-.003.014-.008.029-.013.045a.372.372 0 0 1-.02.049l-.15.329h-.098l.321-.699.092.423a.296.296 0 0 1 .005.033c.001.015.005.035.008.058l.047-.073a.151.151 0 0 0 .011-.018l.29-.423-.01.699h-.098Zm.176.33.16-.67h.364l-.022.093h-.257l-.04.168h.258l-.024.095h-.258l-.051.216h.258l-.024.098Zm.486 0 .166-.697.316.41a.695.695 0 0 1 .025.036l.027.045.111-.464h.098l-.166.695-.323-.417-.025-.035a.18.18 0 0 1-.02-.04l-.111.466h-.098Zm1.083-.579-.138.578H7.45l.138-.578h-.173l.022-.093h.452l-.021.093Zm.111.444.095-.04a.09.09 0 0 0 .028.069.117.117 0 0 0 .077.023.126.126 0 0 0 .081-.027.121.121 0 0 0 .045-.071q.015-.06-.07-.105l-.018-.01a.32.32 0 0 1-.12-.098.143.143 0 0 1-.01-.106.232.232 0 0 1 .087-.134.251.251 0 0 1 .154-.051.21.21 0 0 1 .115.028.11.11 0 0 1 .048.082l-.093.043a.1.1 0 0 0-.031-.047.08.08 0 0 0-.05-.015.12.12 0 0 0-.073.024.106.106 0 0 0-.04.061c-.01.04.018.078.083.113l.012.007a.27.27 0 0 1 .111.09.15.15 0 0 1 .01.11.264.264 0 0 1-.095.15.275.275 0 0 1-.171.057.188.188 0 0 1-.128-.04.13.13 0 0 1-.047-.113Zm.784.135.16-.67h.106l-.16.67Zm.259 0 .166-.697.316.41a.726.726 0 0 1 .025.036l.027.045.111-.464h.099l-.167.695-.322-.417-.025-.035a.18.18 0 0 1-.02-.04l-.112.465H8.85Zm1.083-.579-.138.578h-.107l.139-.578h-.173l.021-.093h.453l-.022.093Zm.115.58.16-.671h.365l-.021.093h-.258l-.04.168h.258l-.023.095h-.258l-.052.216h.258l-.023.098Zm.657-.302-.072.3h-.1l.16-.67h.148a.465.465 0 0 1 .098.008.108.108 0 0 1 .055.028.114.114 0 0 1 .032.063.213.213 0 0 1-.004.085.245.245 0 0 1-.068.126.226.226 0 0 1-.124.055l.15.305h-.119l-.145-.3Zm.026-.085h.02a.238.238 0 0 0 .117-.02.108.108 0 0 0 .045-.071c.008-.037.005-.063-.012-.078a.166.166 0 0 0-.105-.024h-.02Zm.315.386.16-.67h.364l-.022.093h-.258l-.04.166h.258l-.023.095h-.258l-.075.315h-.106Zm.878 0-.033-.173h-.26l-.116.173h-.112l.483-.697.15.697Zm-.231-.264h.181l-.03-.153a.205.205 0 0 1-.003-.034.335.335 0 0 1-.002-.041 1.104 1.104 0 0 1-.041.076Zm1.034-.243a.211.211 0 0 0-.081-.058.245.245 0 0 0-.102-.02.292.292 0 0 0-.19.07.332.332 0 0 0-.112.182.217.217 0 0 0 .023.18.167.167 0 0 0 .148.07.312.312 0 0 0 .115-.022.474.474 0 0 0 .116-.063l-.03.123a.368.368 0 0 1-.104.047.422.422 0 0 1-.114.015.333.333 0 0 1-.133-.025.232.232 0 0 1-.094-.075.237.237 0 0 1-.047-.113.337.337 0 0 1 .008-.14.46.46 0 0 1 .059-.138.439.439 0 0 1 .101-.113.425.425 0 0 1 .13-.075.415.415 0 0 1 .141-.025.317.317 0 0 1 .107.017.279.279 0 0 1 .088.051Zm.01.507.16-.67h.364l-.021.093h-.258l-.04.168h.258l-.023.095h-.258l-.052.216h.258l-.023.098Z" fill="#3d3d3c"/><path d="M10.801 8.191h-.73l1.015-3.664h.73ZM10.422 4.641a.269.269 0 0 0-.235-.104H6.175l-.198.718h3.65l-.213.767h-2.92V6.02h-.73L5.16 8.208h.73l.406-1.467h3.282a.463.463 0 0 0 .29-.105.487.487 0 0 0 .177-.26l.406-1.467a.298.298 0 0 0-.028-.268ZM4.733 7.961a.336.336 0 0 1-.322.247H.646a.263.263 0 0 1-.23-.105.288.288 0 0 1-.03-.26l.917-3.306h.73l-.82 2.954h2.921l.82-2.954h.73Z" fill="#70706e"/><path d="M13.077 4.533 14 6.37l-1.941 1.836Z" fill="#098041"/><path d="m12.428 4.533.923 1.837-1.943 1.836Z" fill="#e97626"/></svg>