<svg data-tags="feedback" xmlns="http://www.w3.org/2000/svg" viewBox="0 0 14 14"><path fill="#5aa1ed" d="M0 0h14v14H0z"/><path d="M6.697 8.737c0 1.008 1.166 1.825 2.603 1.825a3.52 3.52 0 0 0 1.198-.204 1.258 1.258 0 0 1 .86.41c.088.101-.256-.71-.156-.784a1.578 1.578 0 0 0 .703-1.247c0-1.007-1.166-1.824-2.604-1.824s-2.604.817-2.604 1.824Z" fill="#fff"/><path d="M5.944 8.276c0-1.113 1.253-2.017 2.796-2.017a3.619 3.619 0 0 1 1.446.291 2.014 2.014 0 0 0 .057-.473c0-1.576-1.824-2.854-4.075-2.854-2.249 0-4.073 1.278-4.073 2.854a2.47 2.47 0 0 0 1.099 1.95c.158.118-.38 1.386-.243 1.228a1.946 1.946 0 0 1 1.343-.643 5.476 5.476 0 0 0 1.802.32 1.503 1.503 0 0 1-.152-.656Z" fill="#fff"/></svg>