<svg data-tags="vectramind" xmlns="http://www.w3.org/2000/svg" viewBox="0 0 14 14"><path fill="#f2bb0b" d="M8.07.08a6.88 6.88 0 00-2.1 0V2.3a15.04 15.04 0 012.1 1.34V.08z"/><path fill="#2873b9" d="M.4 4.74a10.98 10.98 0 015.84 2.65 11.01 11.01 0 011.24-1.7 13.1 13.1 0 00-6.04-2.9A6.88 6.88 0 00.39 4.73z"/><path fill="#318a3e" d="M.03 6.64L.02 7a7.04 7.04 0 00.23 1.8 7.02 7.02 0 015.48 5.08 7.05 7.05 0 001.29.12 6.94 6.94 0 00.88-.06 9.12 9.12 0 00-7.87-7.3z"/><path fill="#e22526" d="M7.69 8.8A10.99 10.99 0 019.05 11a7.02 7.02 0 014.93-4.73 6.87 6.87 0 00-.53-2.03A9.14 9.14 0 007.69 8.8z"/></svg>