<svg data-tags="brand,viber" xmlns="http://www.w3.org/2000/svg" viewBox="0 0 14 14"><path fill="#7360f2" d="M0 0h14v14H0z"/><path fill="#fff" d="M10.64 3.01a5.155 5.155 0 00-3.46-.96s-2.615-.159-3.89 1.01a4.232 4.232 0 00-.986 3.037c-.026 1.287-.06 3.7 2.266 4.355h.002l-.001.999s-.015.404.251.486c.322.1.511-.207.818-.538.17-.182.402-.449.578-.653a8.966 8.966 0 002.953-.217 2.91 2.91 0 002.435-2.75c.305-2.488-.147-4.061-.966-4.77zm.27 4.59a2.308 2.308 0 01-1.997 2.23 8.26 8.26 0 01-2.541.216s-1.007 1.215-1.322 1.531a.17.17 0 01-.145.06c-.054-.014-.069-.078-.069-.171l.009-1.66c-1.967-.546-1.852-2.6-1.83-3.676a3.537 3.537 0 01.824-2.55c1.079-.976 3.3-.83 3.3-.83a4.733 4.733 0 012.984.762c.692.593 1.045 2.01.787 4.088z"/><path fill="#fff" d="M7.218 5.26a.125.125 0 00.12.132.598.598 0 01.63.656.125.125 0 00.125.119H8.1a.125.125 0 00.12-.132.841.841 0 00-.869-.894.125.125 0 00-.132.119z"/><path fill="#fff" d="M8.611 6.254a.125.125 0 00.123.129h.003a.125.125 0 00.125-.123 1.712 1.712 0 00-.44-1.236 1.82 1.82 0 00-1.26-.556.125.125 0 10-.018.25 1.559 1.559 0 011.093.475 1.45 1.45 0 01.374 1.061z"/><path fill="#fff" d="M6.933 3.817a.125.125 0 00-.002.25 2.324 2.324 0 011.664.659 2.422 2.422 0 01.675 1.79.125.125 0 00.126.124.125.125 0 00.125-.126 2.663 2.663 0 00-.75-1.968 2.566 2.566 0 00-1.838-.729zM8.8 7.609q-.222-.159-.46-.294a.407.407 0 00-.515.071l-.185.233a.344.344 0 01-.271.102 2.426 2.426 0 01-1.634-1.634.342.342 0 01.102-.271l.233-.185a.407.407 0 00.071-.516 5.45 5.45 0 00-.293-.46c-.103-.14-.342-.427-.343-.428a.354.354 0 00-.463-.074H5.04a1.927 1.927 0 00-.475.386l-.002.003a.774.774 0 00-.19.391.25.25 0 00-.003.058.522.522 0 00.025.166l.006.004a5.684 5.684 0 00.498 1.076 6.414 6.414 0 00.597.903 4.734 4.734 0 00.36.406l.014.014.014.014.013.013.014.014a4.723 4.723 0 00.406.36 6.397 6.397 0 00.904.597 5.68 5.68 0 001.075.498l.004.006a.52.52 0 00.167.025.26.26 0 00.057-.003.759.759 0 00.39-.19l.004-.002a1.93 1.93 0 00.385-.474l.001-.004a.354.354 0 00-.075-.463s-.288-.24-.428-.342z"/></svg>