<svg xmlns="http://www.w3.org/2000/svg" viewBox="0 0 2500 2500"><path d="M312.5 0h1875C2360.1 0 2500 139.9 2500 312.5v1875c0 172.6-139.9 312.5-312.5 312.5h-1875C139.9 2500 0 2360.1 0 2187.5v-1875C0 139.9 139.9 0 312.5 0z" fill="#6d4ead"/><path fill="#fff" d="M2060.1 1686.8c-59.6-47.9-123.2-91-185.9-135-125-87.8-239.2-94.6-332.5 46.6-52.4 79.3-125.7 82.7-202.3 48-211.3-95.8-374.4-243.4-470-458.2-42.3-95-41.7-180.2 57.2-247.4 52.4-35.5 105.1-77.6 100.9-155.2C1022 684.4 776.2 346 679.1 310.3c-40.2-14.8-80.2-13.8-121-.1C330.5 386.8 236.2 574 326.5 795.7c269.4 661.3 743.5 1121.7 1396 1402.7 37.2 16 78.5 22.4 99.5 28.1 148.6 1.5 322.6-141.7 372.9-283.7 48.4-136.6-53.9-190.9-134.8-256zM1328.4 378.1c477.1 73.4 697.1 300.2 757.9 780.7 5.6 44.4-10.9 111.2 52.4 112.4 66.2 1.3 50.2-64.5 50.8-109 5.6-452.6-389-872.1-847.3-887.6-34.6 5-106.1-23.8-110.6 53.7-2.9 52.3 57.3 43.7 96.8 49.8z"/><path fill="#fff" d="M1421.7 509.9c-45.9-5.5-106.5-27.1-117.2 36.5-11.2 66.8 56.3 60 99.7 69.8 294.7 65.9 397.3 173.1 445.8 465.4 7.1 42.6-7 108.9 65.4 97.9 53.7-8.2 34.3-65 38.8-98.2 2.4-280.7-238.1-536.1-532.5-571.4z"/><path fill="#fff" d="M1448.8 739.3c-30.6.8-60.7 4.1-72 36.8-16.9 48.9 18.7 60.6 54.9 66.4 120.9 19.4 184.5 90.7 196.6 211.2 3.3 32.7 24 59.2 55.6 55.5 43.8-5.2 47.8-44.2 46.4-81.2 2.2-135.4-150.9-291.9-281.5-288.7z"/></svg>