<svg data-tags="viber" xmlns="http://www.w3.org/2000/svg" viewBox="0 0 14 14"><path d="M7 0C3.1 0 0 3.1 0 7s3.1 7 7 7 7-3.1 7-7-3.1-7-7-7zm4.1 10.2c-.2.7-1.1 1.3-1.7 1.3h-.1c-.1 0-.2-.1-.4-.1C7.5 10.8 6.2 10 5.2 9S3.4 6.7 2.8 5.3c-.2-.5-.2-1 0-1.4.1-.4.5-.7 1-.9.2-.1.4-.1.6 0C4.9 3.2 6 4.7 6 5.2c0 .4-.3.7-.5.8-.3.2-.3.4-.1.8.4.8 1 1.5 2 1.9.1.1.2.1.3.1.2 0 .3-.1.4-.2.2-.4.5-.5.8-.5.2 0 .5.1.8.3l.1.1c.2.2.5.3.7.5l.1.1c.3.2.7.5.5 1.1zM7.7 4.4h-.1c-.1 0-.3 0-.4-.2-.1-.1-.1-.1-.1-.3 0-.1.1-.3.4-.3h.3c1.3.2 2.4 1.3 2.4 2.6v.1c0 .1 0 .4-.3.4h-.1c-.3 0-.3-.3-.3-.4v-.1c-.2-1.1-.6-1.5-1.8-1.8zm1.4 1.8c0 .3-.1.5-.3.5-.2 0-.3-.2-.4-.4 0-.5-.3-.7-.7-.8-.1 0-.3-.1-.3-.2s-.1-.2 0-.3c.1-.2.3-.3.4-.3.2.1.6.3.8.6.3.2.5.6.5.9zm2.2.8c-.1 0-.1.1-.3.1-.3 0-.4-.3-.4-.5v-.1c-.3-2-1.2-2.9-3.1-3.2h-.1c-.1-.1-.4-.1-.4-.5 0-.1.1-.4.4-.4h.2c2 .1 3.8 1.9 3.8 4v.1c0 .2 0 .4-.1.5z"/></svg>