<svg xmlns="http://www.w3.org/2000/svg" viewBox="0 0 14 14"><path d="M11.976 5.874c.016-1.973-1.665-3.783-3.748-4.033a3.035 3.035 0 01-.134-.02 1.948 1.948 0 00-.318-.035c-.426 0-.54.3-.57.479a.553.553 0 00.082.434c.141.192.39.226.59.254.059.008.114.015.16.026 1.872.418 2.502 1.075 2.81 2.931.008.046.01.101.015.16.013.222.04.684.537.684a.88.88 0 00.132-.01c.462-.07.448-.493.44-.695a1.025 1.025 0 01.004-.175z"/><path d="M7.655 1.116c.056.004.108.008.152.015 3.073.473 4.487 1.929 4.878 5.026.007.053.008.117.01.185.003.242.011.745.552.756h.017a.53.53 0 00.4-.152c.169-.176.157-.438.148-.648a1.793 1.793 0 01-.004-.142C13.847 2.988 11.105.115 7.94.008A.22.22 0 007.9.01a.266.266 0 01-.037.002c-.032 0-.07-.002-.112-.005a2.045 2.045 0 00-.163-.008c-.504 0-.6.359-.612.572-.029.494.449.529.678.545zm4.882 9.044a9.644 9.644 0 01-.196-.152c-.336-.27-.693-.519-1.038-.76l-.215-.15c-.442-.31-.84-.461-1.215-.461-.506 0-.947.28-1.311.83-.161.245-.357.364-.598.364-.143 0-.305-.041-.482-.121-1.427-.648-2.447-1.64-3.03-2.95-.281-.634-.19-1.047.306-1.384.281-.191.806-.547.768-1.229-.042-.773-1.749-3.102-2.468-3.366a1.401 1.401 0 00-.953-.003c-.827.278-1.42.767-1.716 1.412-.286.624-.273 1.356.037 2.118.897 2.203 2.159 4.124 3.75 5.709 1.557 1.551 3.47 2.822 5.688 3.777.2.086.41.133.563.167l.13.03a.218.218 0 00.055.008h.018c1.043 0 2.295-.953 2.68-2.04.337-.95-.278-1.42-.773-1.799zm-4.42-6.527c-.179.004-.55.013-.68.392-.062.177-.055.33.02.456.111.185.324.242.517.273.7.112 1.058.5 1.13 1.217.034.335.26.57.549.57a.54.54 0 00.065-.005c.348-.041.517-.297.502-.76.005-.484-.248-1.032-.678-1.47-.432-.438-.952-.685-1.425-.673z"/></svg>