<svg xmlns="http://www.w3.org/2000/svg" viewBox="0 0 14 14"><circle fill="#6D4EAD" cx="7" cy="7" r="7"/><g fill="#FFF"><path d="M10.212 6.273C10.222 5 9.138 3.831 7.792 3.67a1.96 1.96 0 0 1-.086-.013 1.257 1.257 0 0 0-.205-.022c-.275 0-.35.194-.369.309a.357.357 0 0 0 .054.28c.091.124.252.146.38.164.039.005.074.01.104.017 1.208.27 1.615.694 1.814 1.892.005.03.007.066.01.104.008.143.026.441.346.441a.568.568 0 0 0 .086-.007c.298-.045.288-.317.284-.448a.662.662 0 0 1 .002-.113z"/><path d="M7.423 3.202a.85.85 0 0 1 .098.01c1.984.304 2.896 1.244 3.15 3.244.003.034.004.075.005.12.002.155.007.48.356.487h.011c.11 0 .197-.033.26-.098.108-.114.1-.283.094-.418-.001-.033-.003-.065-.002-.092.025-2.045-1.745-3.9-3.789-3.969-.008 0-.016 0-.024.002a.172.172 0 0 1-.024.001c-.02 0-.046-.002-.073-.004a1.68 1.68 0 0 0-.105-.004c-.325 0-.387.231-.395.369-.018.318.29.34.438.352zm3.151 5.838a12.116 12.116 0 0 0-.797-.589 49.647 49.647 0 0 1-.138-.097c-.285-.2-.542-.298-.784-.298-.327 0-.612.18-.847.537-.104.157-.23.234-.386.234a.767.767 0 0 1-.31-.078c-.922-.418-1.58-1.059-1.957-1.904-.182-.41-.123-.676.197-.894.182-.123.52-.353.497-.793-.027-.5-1.13-2.002-1.594-2.173a.905.905 0 0 0-.615-.001c-.534.179-.917.494-1.108.91-.185.404-.176.876.024 1.368.58 1.422 1.394 2.662 2.42 3.685C6.183 9.95 7.419 10.77 8.85 11.385c.129.056.264.086.363.108l.084.02a.14.14 0 0 0 .036.005h.011c.673 0 1.482-.615 1.73-1.316.218-.615-.18-.918-.499-1.162zM7.72 4.826c-.115.003-.354.009-.439.253-.039.114-.034.214.014.295.072.12.209.156.333.176.452.072.684.322.73.786.022.216.167.367.354.367.014 0 .028 0 .042-.003.225-.026.334-.191.324-.49.004-.312-.16-.667-.437-.949-.279-.283-.615-.442-.92-.435z"/></g></svg>