<svg data-tags="VK" xmlns="http://www.w3.org/2000/svg" viewBox="0 0 14 14"><path fill="#436EAB" d="M12.049 8.076c.464.454.954.88 1.371 1.38.184.221.358.45.491.707.19.366.018.77-.31.79h-2.04c-.525.044-.945-.168-1.298-.528-.282-.287-.544-.594-.815-.89a1.932 1.932 0 00-.367-.327c-.279-.18-.52-.126-.68.165-.162.295-.198.622-.214.951-.022.48-.167.607-.65.629-1.03.049-2.01-.107-2.918-.628-.802-.458-1.423-1.105-1.964-1.838C1.602 7.06.795 5.492.071 3.88c-.163-.363-.044-.558.357-.565.665-.013 1.33-.012 1.996 0 .27.003.45.158.554.414.36.885.8 1.727 1.354 2.508.147.207.297.415.51.562.237.162.417.108.529-.156a1.74 1.74 0 00.117-.526c.053-.615.06-1.23-.033-1.843-.057-.383-.272-.63-.654-.703-.195-.037-.166-.11-.072-.221.164-.192.318-.311.626-.311H7.66c.363.071.443.234.493.6l.002 2.56c-.004.141.07.56.325.654.204.067.338-.096.46-.225.552-.586.946-1.278 1.298-1.995.156-.315.29-.643.42-.97.097-.242.248-.362.522-.357l2.218.002c.066 0 .133.001.196.012.374.064.477.225.361.59-.182.573-.536 1.05-.882 1.53-.37.511-.766 1.006-1.132 1.52-.338.47-.31.708.108 1.116z"/></svg>