<svg data-tags="voice,call" xmlns="http://www.w3.org/2000/svg" viewBox="0 0 14 14"><path fill="#5dc94e" d="M0 0h14v14H0z"/><path d="M10.707 8.816q-.386-.31-.797-.589l-.138-.097a1.388 1.388 0 0 0-.785-.298 1.015 1.015 0 0 0-.846.536.45.45 0 0 1-.386.235.767.767 0 0 1-.311-.078A3.741 3.741 0 0 1 5.488 6.62a.623.623 0 0 1 .197-.893.903.903 0 0 0 .496-.793 4.527 4.527 0 0 0-1.593-2.173.905.905 0 0 0-.615-.002 1.782 1.782 0 0 0-1.108.912 1.689 1.689 0 0 0 .024 1.367 11.025 11.025 0 0 0 2.42 3.685 11.742 11.742 0 0 0 3.673 2.438 1.982 1.982 0 0 0 .363.108l.084.02a.14.14 0 0 0 .035.005h.012a2.084 2.084 0 0 0 1.73-1.317c.217-.614-.18-.917-.5-1.161Z" fill="#fff"/></svg>