<svg data-tags="web" xmlns="http://www.w3.org/2000/svg" viewBox="0 0 14 14"><defs><clipPath id="brand_web_clr__a"><path fill="none" d="M0 0h14v14H0z"/></clipPath></defs><g clip-path="url(#brand_web_clr__a)"><path d="M11.983 6.212a2.28 2.28 0 0 0-.89-2.295 2.193 2.193 0 0 0-2.666.057v3.017H9.82c.077 0 .205.07.105.175l-2.252 3.04c-.047.065-.087.065-.133 0L5.287 7.166c-.07-.09-.065-.18.006-.176h1.74V2.728c0-.031-.01-.141-.019-.266a3.444 3.444 0 0 0-3.418.023 3.396 3.396 0 0 0-1.513 3.71A2.847 2.847 0 0 0 0 8.935a3.12 3.12 0 0 0 2.93 3.046h8.465A2.853 2.853 0 0 0 14 8.935a2.785 2.785 0 0 0-2.017-2.724Z" fill="#5e96d2"/></g></svg>