<svg data-tags="brand" xmlns="http://www.w3.org/2000/svg" viewBox="0 0 14 14"><circle fill="#40A3F5" cx="7" cy="7" r="7"/><g fill="#FFF"><path d="M6.48 6.573c-.111-.064-.202-.01-.202.117v1.642c0 .128.09.18.202.117l1.447-.823c.11-.064.11-.167 0-.23L6.48 6.573z"/><path d="M3.445 9.273a.323.323 0 01-.322-.321V5.735h8.042v2.403l.483.388V3.322a.32.32 0 00-.295-.316V3H2.934v.006a.32.32 0 00-.294.316v6.112c0 .177.145.322.322.322h5.712v-.483h-5.23zm-.322-4.02v-.644h8.042v.643H3.123z"/><path d="M11.724 9.414l-2.41-1.94.005 3.093.854-.752.728 1.52.43-.207-.728-1.52z"/></g></svg>