<svg data-tags="webinar" xmlns="http://www.w3.org/2000/svg" viewBox="0 0 14 14"><path d="M5.918 6.083c-.172-.097-.312-.016-.312.18v2.532c0 .196.14.278.312.18l2.23-1.268c.17-.099.17-.257 0-.354Z"/><path d="M1.24 10.246a.497.497 0 0 1-.496-.496V4.792h12.394v3.704l.744.599V1.074a.493.493 0 0 0-.454-.487V.578H.453v.009A.493.493 0 0 0 0 1.074v9.42a.498.498 0 0 0 .496.496h8.803v-.744H1.24ZM.743 4.049v-.992h12.394v.992H.743Z"/><path d="m14 10.462-3.714-2.99.007 4.768 1.315-1.16 1.123 2.342.663-.318-1.122-2.341Z"/></svg>