<svg xmlns="http://www.w3.org/2000/svg" viewBox="0 0 14 14"><circle fill="#24C62B" cx="7" cy="7" r="7"/><g fill="#FFF"><path d="M10.75 7.778c-.007-.04-.016-.08-.022-.12-.095-.576-.413-1.001-.894-1.308-.559-.36-1.175-.463-1.826-.356-.544.09-1.017.327-1.384.747-.354.403-.512.872-.434 1.409.075.513.346.915.76 1.215.676.491 1.428.593 2.229.387.052-.014.095-.018.146.006.215.104.433.203.65.303.02.01.042.017.073.028-.054-.2-.104-.387-.157-.572-.016-.056-.011-.089.042-.126.366-.263.63-.603.752-1.042.03-.106.044-.215.065-.322v-.249zm-3.06-.233a.314.314 0 0 1-.317-.315.318.318 0 0 1 .317-.317c.17.002.311.143.314.313a.318.318 0 0 1-.315.32zm1.534.015a.32.32 0 0 1-.326-.322c0-.177.143-.322.32-.324a.331.331 0 0 1 .327.325c0 .174-.146.32-.321.321z"/><path d="M6.27 6.906c.357-.574.89-.904 1.537-1.064.25-.062.506-.081.776-.074-.01-.04-.017-.07-.026-.1-.158-.546-.492-.962-.96-1.27-.645-.424-1.356-.56-2.115-.451-.632.09-1.191.347-1.631.818-.557.595-.743 1.29-.49 2.077.153.472.461.833.862 1.117.046.032.057.06.04.114-.058.2-.11.4-.164.6l-.024.1.08-.036c.265-.121.528-.245.792-.364a.162.162 0 0 1 .103-.01c.274.079.553.12.838.128h.185l-.015-.058a1.83 1.83 0 0 1 .212-1.527zm.582-1.869a.372.372 0 0 1 0 .745.372.372 0 0 1-.372-.373.37.37 0 0 1 .372-.372zM5.046 5.8a.382.382 0 0 1 .002-.762c.209.002.38.178.378.386a.382.382 0 0 1-.38.376z"/></g></svg>