<svg data-tags="brand,wechat" xmlns="http://www.w3.org/2000/svg" viewBox="0 0 14 14"><path fill="#2dc100" d="M0 0h14v14H0z"/><path fill="#fff" d="M9.272 5.279a4.138 4.138 0 00-2.789 1.126A3.311 3.311 0 005.455 9.21c-.423-.052-.809-.11-1.197-.143a.743.743 0 00-.406.07c-.376.212-.737.451-1.165.719.079-.355.13-.666.22-.965a.367.367 0 00-.167-.485A3.299 3.299 0 011.302 4.7a3.667 3.667 0 012.577-2.514 4.32 4.32 0 014.72 1.383 3.233 3.233 0 01.673 1.709zm-4.983-.44a.499.499 0 00-.48-.5.485.485 0 00-.505.469.48.48 0 00.474.497.493.493 0 00.51-.467zm2.6-.5a.5.5 0 00-.489.492.487.487 0 00.501.476.484.484 0 10-.012-.968z"/><path fill="#fff" d="M11.704 12.028a3.677 3.677 0 00-.992-.416 5.55 5.55 0 00-1.033.193 3.452 3.452 0 01-2.8-.914 2.84 2.84 0 01.447-4.63 3.766 3.766 0 014.87.725 2.766 2.766 0 01-.32 3.858c-.333.296-.453.54-.239.93a1.11 1.11 0 01.067.254zM7.802 8.25a.403.403 0 10.002-.807.403.403 0 10-.002.807zm2.515-.806a.404.404 0 00-.4.386.398.398 0 10.4-.386z"/></svg>