<svg data-tags="weChatPay" xmlns="http://www.w3.org/2000/svg" viewBox="0 0 14 14"><path d="M0 0h14v14H0Z" fill="#fff" fill-rule="evenodd"/><path d="M5.56 8.004a.352.352 0 0 1-.46-.143l-.025-.047-.959-2.042a.147.147 0 0 1-.011-.07.16.16 0 0 1 .048-.12.168.168 0 0 1 .121-.047.204.204 0 0 1 .11.036l1.128.783a.59.59 0 0 0 .291.083.497.497 0 0 0 .182-.035l5.292-2.303a5.67 5.67 0 0 0-4.284-1.816c-2.9 0-5.243 1.91-5.243 4.273a4.008 4.008 0 0 0 1.808 3.229.305.305 0 0 1 .122.38c-.085.32-.23.842-.23.866a.418.418 0 0 0-.025.13.16.16 0 0 0 .048.119.17.17 0 0 0 .122.047.14.14 0 0 0 .097-.036l1.14-.653a.586.586 0 0 1 .28-.083.707.707 0 0 1 .157.024 6.213 6.213 0 0 0 1.712.238c2.888 0 5.242-1.91 5.242-4.273a3.693 3.693 0 0 0-.594-1.982L5.597 7.98Z" fill="#1aad19"/></svg>