<svg xmlns="http://www.w3.org/2000/svg" viewBox="0 0 14 14"><path d="M13 14H1c-.55 0-1-.45-1-1V1c0-.55.45-1 1-1h12c.55 0 1 .45 1 1v12c0 .55-.45 1-1 1z" fill="#69b84b"/><path d="M12.396 8.478c-.031.154-.051.312-.093.463-.176.632-.555 1.121-1.083 1.499-.076.054-.082.102-.059.181.076.266.147.535.226.824-.045-.017-.076-.027-.105-.04-.312-.144-.626-.287-.936-.436-.073-.035-.136-.028-.21-.009-1.154.296-2.236.15-3.21-.557-.594-.432-.984-1.01-1.092-1.75-.112-.771.116-1.446.625-2.026.529-.603 1.209-.944 1.992-1.073.936-.155 1.823-.005 2.628.511.691.443 1.149 1.055 1.286 1.881l.031.174v.358zM10.2 7.806a.468.468 0 00.463-.463.477.477 0 00-.472-.468.469.469 0 00-.46.467.46.46 0 00.469.464zm-2.208-.021a.457.457 0 00.452-.458.462.462 0 00-.452-.451.456.456 0 00-.455.455c0 .252.203.456.455.454z" fill="#fff"/><path d="M9.278 5.228a4.154 4.154 0 00-1.116.106c-.931.23-1.698.706-2.213 1.531-.425.683-.525 1.42-.305 2.197l.021.083c-.093 0-.18.002-.266 0a4.822 4.822 0 01-1.205-.183.227.227 0 00-.147.014c-.381.172-.76.349-1.139.524a4.408 4.408 0 01-.117.052l.035-.144c.078-.288.153-.577.236-.863.023-.078.008-.117-.057-.164-.577-.41-1.021-.929-1.24-1.609-.366-1.132-.096-2.131.703-2.988.633-.678 1.437-1.046 2.348-1.177 1.091-.157 2.115.04 3.043.65.674.443 1.154 1.042 1.382 1.827.013.042.022.086.037.144zm-5.635-.504a.543.543 0 00.546.548.55.55 0 00.547-.54.555.555 0 00-.544-.556.55.55 0 00-.549.548zm3.67-.012a.536.536 0 00-.526-.536.535.535 0 10-.001 1.072.539.539 0 00.527-.536z" fill="#fff"/><path d="M10.2 7.806a.46.46 0 01-.469-.464c0-.254.205-.463.46-.467a.477.477 0 01.472.468.468.468 0 01-.463.463zm-2.208-.021a.455.455 0 010-.909.462.462 0 01.452.451.456.456 0 01-.452.458zM3.643 4.724a.55.55 0 01.549-.548c.3.003.548.257.544.556a.55.55 0 01-.547.54.543.543 0 01-.546-.548zm3.67-.012a.537.537 0 01-.527.536.535.535 0 11.001-1.072.536.536 0 01.526.536z" fill="#505051"/></svg>