<svg data-tags="whatsapp,messaging,chat" xmlns="http://www.w3.org/2000/svg" viewBox="0 0 14 14"><path fill="#25d366" d="M7.173 3.25A3.542 3.542 0 004.17 8.674l.084.134-.357 1.306 1.34-.351.13.076a3.536 3.536 0 001.802.494h.001a3.541 3.541 0 00.002-7.083zm2.083 5.062a1.097 1.097 0 01-.72.506 1.46 1.46 0 01-.67-.042 6.125 6.125 0 01-.607-.224 4.745 4.745 0 01-1.818-1.607 2.07 2.07 0 01-.435-1.101 1.193 1.193 0 01.373-.888.391.391 0 01.284-.133c.07 0 .142 0 .204.003.065.004.153-.024.24.183.088.213.3.737.327.79a.196.196 0 01.01.187.728.728 0 01-.107.177c-.053.062-.112.14-.16.187-.053.053-.109.11-.047.217a3.208 3.208 0 00.593.737 2.909 2.909 0 00.856.528c.106.054.168.045.23-.026s.267-.311.338-.418c.07-.106.141-.088.24-.053s.62.293.727.346.177.08.204.125a.89.89 0 01-.062.506z"/><path fill="#25d366" d="M7 .006a6.998 6.998 0 106.998 6.998A6.998 6.998 0 007 .006zm.171 11.046H7.17a4.258 4.258 0 01-2.036-.518l-2.258.592.604-2.207a4.26 4.26 0 113.692 2.133z"/></svg>