<svg xmlns="http://www.w3.org/2000/svg" viewBox="0 0 14 14"><g fill-rule="evenodd" clip-rule="evenodd"><circle fill="#25D366" cx="7" cy="7" r="7"/><path fill="#FFF" d="M6.32 5.9v.21c0 .54-.02.43.64.44h.44c.3-.02.45-.17.46-.47.01-.3-.15-.48-.46-.5h-.75c-.24-.02-.33.07-.33.31zm.35 1.43c-.36 0-.36 0-.36.36-.01.6-.01.68.46.68h.68c.33-.02.53-.23.52-.54 0-.3-.2-.48-.54-.5h-.76zm.87-2.52c.48.02.88.2 1.07.67.2.48.16.95-.22 1.35l-.08.1c.38.25.55.58.52 1.02-.03.65-.43 1.13-1.07 1.17-.67.04-1.35.03-2.02.02-.26 0-.31-.2-.31-.41l.01-1.43v-.42c.02-.82.02-1.59.02-1.72 0-.24.12-.36.37-.36l1.71.01zm-.52-1.84a4 4 0 00-3.38 6.11l.1.15-.4 1.47 1.5-.4.15.1a3.98 3.98 0 102.03-7.43zm0-.81a4.77 4.77 0 014.8 4.8 4.8 4.8 0 01-7.1 4.22l-2.54.66.68-2.48a4.8 4.8 0 014.16-7.2z"/></g></svg>