<svg data-tags="whatsapp,messaging,chat" xmlns="http://www.w3.org/2000/svg" viewBox="0 0 14 14"><path fill="#25d366" d="M7.053 3.426A3.542 3.542 0 004.052 8.85l.084.134-.358 1.307 1.34-.352.13.077a3.536 3.536 0 001.802.493h.002a3.541 3.541 0 00.001-7.083zm2.083 5.062a1.096 1.096 0 01-.718.506 1.46 1.46 0 01-.671-.042 6.139 6.139 0 01-.607-.224 4.746 4.746 0 01-1.819-1.607 2.07 2.07 0 01-.434-1.1 1.194 1.194 0 01.372-.889A.391.391 0 015.543 5c.071 0 .142 0 .204.004.066.003.153-.025.24.183.088.213.301.736.328.79a.196.196 0 01.009.186.727.727 0 01-.107.178c-.053.062-.111.138-.16.186-.053.053-.108.11-.046.217a3.21 3.21 0 00.592.738 2.908 2.908 0 00.856.528c.107.053.169.044.231-.027s.266-.31.337-.417.142-.089.24-.053.62.293.727.346c.107.053.178.08.204.124a.89.89 0 01-.062.506z"/><path fill="#25d366" d="M.034.005v14h14v-14zm7.018 11.224H7.05a4.259 4.259 0 01-2.036-.519l-2.259.592.605-2.207a4.26 4.26 0 113.692 2.134z"/></svg>