<svg data-tags="whatsapp,thumbnail" xmlns="http://www.w3.org/2000/svg" viewBox="0 0 14 14"><defs><mask id="brand_whatsappDocThumbnail_clr__a" x="8.927" y="-.053" width="3.704" height="3.705" maskUnits="userSpaceOnUse"><path d="M12.427 3.45H9.891a.76.76 0 0 1-.76-.761V.153a.76.76 0 0 1 .526.222l2.546 2.54a.76.76 0 0 1 .224.535Z" fill="#fff" fill-rule="evenodd"/></mask></defs><path d="M1.37.914a.66.66 0 0 1 .66-.66h7.09a.66.66 0 0 1 .466.193l2.546 2.54a.66.66 0 0 1 .194.467v9.633a.66.66 0 0 1-.66.659H2.03a.66.66 0 0 1-.66-.66Z" fill="#fff"/><path d="M11.666 13.947H2.029a.862.862 0 0 1-.86-.86V.914a.862.862 0 0 1 .86-.861H9.12a.868.868 0 0 1 .608.252l2.546 2.54a.853.853 0 0 1 .253.609v9.633a.862.862 0 0 1-.861.86ZM2.029.455a.459.459 0 0 0-.458.459v12.173a.459.459 0 0 0 .458.458h9.637a.46.46 0 0 0 .459-.458V3.454a.457.457 0 0 0-.135-.325L9.444.59A.46.46 0 0 0 9.12.455Z" fill="#d0d0d5"/><path d="M12.427 3.45H9.891a.76.76 0 0 1-.76-.761V.153a.76.76 0 0 1 .526.222l2.546 2.54a.76.76 0 0 1 .224.535Z" fill="#eee" fill-rule="evenodd"/><g mask="url(#brand_whatsappDocThumbnail_clr__a)"><path d="M12.427 3.45v.203h.204l-.001-.204ZM9.13.153l.003-.203-.206-.003v.206Zm.527.222-.143.144Zm2.546 2.54-.143.143Zm.224.332H9.89v.406h2.536Zm-2.536 0a.558.558 0 0 1-.558-.558h-.406a.964.964 0 0 0 .964.964Zm-.558-.558V.153h-.406v2.536ZM9.127.356a.558.558 0 0 1 .387.163L9.8.23a.964.964 0 0 0-.667-.281Zm.387.163 2.546 2.54.287-.288L9.8.231Zm2.546 2.54a.558.558 0 0 1 .164.392l.406-.002a.964.964 0 0 0-.283-.678Z" fill="#d0d0d5"/></g><path d="M5.63 4.768v.406h3.703v-.406ZM4.362 9.333v.406h3.703v-.406ZM4.362 6.29v.406h4.971V6.29ZM4.362 7.812v.405h4.971v-.405Z" fill="#307bf5"/></svg>