<svg data-tags="whatsapp" xmlns="http://www.w3.org/2000/svg" viewBox="0 0 14 14"><path d="M7.2 3.2zm2.5 1.1c-.4-.3-.7-.6-1.2-.8-.4-.2-.9-.3-1.3-.3-.6 0-1.3.2-1.8.5s-1 .8-1.3 1.3c-.3.6-.5 1.3-.5 1.9 0 .6.2 1.2.5 1.8l.1.1-.4 1.3 1.3-.4.1.1c.5.3 1.2.5 1.8.5.5 0 .9-.1 1.4-.3.6-.1.9-.4 1.3-.7.3-.3.6-.7.7-1.2.2-.4.3-.9.3-1.4 0-.5-.1-.9-.3-1.4-.1-.3-.4-.7-.7-1zm-.4 4c-.1.1-.2.2-.4.3s-.2.2-.4.2h-.7c-.1-.1-.3-.2-.5-.3-.8-.3-1.4-.9-1.9-1.6-.2-.3-.4-.7-.4-1.1 0-.2 0-.3.1-.5s.2-.2.3-.3l.1-.1h.4c.1 0 .2 0 .2.2.1.2.3.7.3.8v.2c0 .1-.1.1-.1.2 0-.1-.1 0-.1 0-.1.1-.1.1 0 .2.2.3.4.5.6.7.2.3.5.5.8.6.1.1.2 0 .2 0s.3-.3.3-.4c.1-.1.1-.1.2-.1s.6.3.7.3.2.1.2.1c.1.3.1.4.1.6z"/><path d="M13.5 4.3c-.4-.8-.9-1.6-1.5-2.3-.6-.6-1.4-1.2-2.3-1.5S7.9 0 7 0C5.6 0 4.3.4 3.1 1.2 2 2 1.1 3 .5 4.3s-.7 2.7-.4 4S1 10.9 2 11.9c1 1 2.2 1.6 3.6 1.9 1.4.3 2.8.1 4-.4 1.3-.5 2.4-1.4 3.1-2.6C13.6 9.7 14 8.4 14 7c0-.9-.2-1.8-.5-2.7zm-2.2 3.6c-.2.9-.8 1.7-1.5 2.3-.8.5-1.7.8-2.6.8-.7 0-1.4-.2-2-.5l-2.3.6.6-2.2c-.5-.8-.7-1.7-.6-2.7.1-.9.5-1.8 1.2-2.5s1.5-1.1 2.5-1.2c.9-.1 1.9.1 2.7.5.8.5 1.4 1.2 1.8 2.1.4.9.4 1.9.2 2.8z"/></svg>