<svg data-tags="whatsapp,thumbnail" xmlns="http://www.w3.org/2000/svg" viewBox="0 0 14 14"><defs><mask id="brand_whatsappPptThumbnail_clr__a" x="9.685" y="-.053" width="3.704" height="3.705" maskUnits="userSpaceOnUse"><path d="M13.185 3.45h-2.536a.76.76 0 0 1-.76-.761V.153a.76.76 0 0 1 .526.222l2.546 2.54a.76.76 0 0 1 .224.535Z" fill="#fff" fill-rule="evenodd"/></mask></defs><path d="M2.128.914a.66.66 0 0 1 .66-.66h7.09a.66.66 0 0 1 .465.193l2.547 2.54a.66.66 0 0 1 .193.467v9.633a.66.66 0 0 1-.659.659H2.787a.66.66 0 0 1-.66-.66Z" fill="#fff"/><path d="M12.424 13.947H2.787a.862.862 0 0 1-.86-.86V.914a.862.862 0 0 1 .86-.861h7.09a.868.868 0 0 1 .608.252l2.547 2.54a.854.854 0 0 1 .252.609v9.633a.862.862 0 0 1-.86.86ZM2.787.455a.46.46 0 0 0-.458.459v12.173a.46.46 0 0 0 .458.458h9.637a.459.459 0 0 0 .458-.458V3.454a.453.453 0 0 0-.134-.325L10.2.59a.46.46 0 0 0-.323-.134Z" fill="#d0d0d5"/><path d="M13.185 3.45h-2.536a.76.76 0 0 1-.76-.761V.153a.76.76 0 0 1 .526.222l2.546 2.54a.76.76 0 0 1 .224.535Z" fill="#eee" fill-rule="evenodd"/><g mask="url(#brand_whatsappPptThumbnail_clr__a)"><path d="M13.185 3.45v.203h.204l-.001-.204ZM9.888.153l.003-.203-.206-.003v.206Zm.527.222-.143.144Zm2.546 2.54-.143.143Zm.224.332h-2.536v.406h2.536Zm-2.536 0a.558.558 0 0 1-.558-.558h-.406a.964.964 0 0 0 .964.964Zm-.558-.558V.153h-.406v2.536ZM9.885.356a.558.558 0 0 1 .387.163l.286-.288a.964.964 0 0 0-.667-.281Zm.387.163 2.546 2.54.287-.288-2.547-2.54Zm2.546 2.54a.558.558 0 0 1 .164.392l.406-.002a.964.964 0 0 0-.283-.678Z" fill="#d0d0d5"/></g><path d="M10.312 9.737H5.198v-4.4h5.114ZM5.6 9.335h4.31V5.74H5.6Z" fill="#efde67"/><path fill="#efde67" d="M4.62 5.338h6.276v.402H4.62zM8.184 7.537l-.858-.495v.991l.858-.496z"/><path d="M7.125 8.38V6.694l1.46.843Zm.402-.99v.294l.255-.147Z" fill="#efde67"/></svg>