<svg data-tags="whatsapp,thumbnail" xmlns="http://www.w3.org/2000/svg" viewBox="0 0 14 14"><defs><mask id="brand_whatsappSheetThumbnail_clr__a" x="9.371" y="-.053" width="3.704" height="3.705" maskUnits="userSpaceOnUse"><path d="M12.87 3.45h-2.535a.76.76 0 0 1-.76-.761V.153a.76.76 0 0 1 .526.222l2.546 2.54a.76.76 0 0 1 .224.535Z" fill="#fff" fill-rule="evenodd"/></mask></defs><path d="M1.814.914a.66.66 0 0 1 .66-.66h7.09a.66.66 0 0 1 .465.193l2.547 2.54a.66.66 0 0 1 .193.467v9.633a.66.66 0 0 1-.659.659H2.473a.66.66 0 0 1-.66-.66Z" fill="#fff"/><path d="M12.11 13.947H2.473a.862.862 0 0 1-.86-.86V.914a.862.862 0 0 1 .86-.861h7.09a.853.853 0 0 1 .608.252l2.547 2.54a.853.853 0 0 1 .253.609v9.633a.862.862 0 0 1-.86.86ZM2.473.455a.46.46 0 0 0-.459.459v12.173a.46.46 0 0 0 .46.458h9.636a.46.46 0 0 0 .459-.458V3.454a.457.457 0 0 0-.134-.325L9.887.59a.45.45 0 0 0-.324-.134Z" fill="#d0d0d5"/><path d="M12.87 3.45h-2.535a.76.76 0 0 1-.76-.761V.153a.76.76 0 0 1 .526.222l2.546 2.54a.76.76 0 0 1 .224.535Z" fill="#eee" fill-rule="evenodd"/><g mask="url(#brand_whatsappSheetThumbnail_clr__a)"><path d="M12.87 3.45v.203h.205l-.001-.204ZM9.575.153l.003-.203-.206-.003v.206Zm.527.222-.143.144Zm2.546 2.54-.143.143Zm.224.332h-2.536v.406h2.536Zm-2.536 0a.558.558 0 0 1-.558-.558h-.406a.964.964 0 0 0 .964.964Zm-.558-.558V.153h-.406v2.536ZM9.571.356a.558.558 0 0 1 .387.163l.286-.288a.964.964 0 0 0-.667-.281Zm.387.163 2.546 2.54.287-.288-2.547-2.54Zm2.546 2.54a.558.558 0 0 1 .164.392l.406-.002a.964.964 0 0 0-.283-.678Z" fill="#d0d0d5"/></g><path d="M9.957 9.612H4.626V5.463h5.331Zm-4.93-.402h4.529V5.865H5.028Z" fill="#3dc146"/><path fill="#3dc146" d="M4.827 7.336h4.93v.402h-4.93z"/><path fill="#3dc146" d="M6.351 5.664h.402v3.747h-.402z"/></svg>