<svg data-tags="channel, whirlpool" xmlns="http://www.w3.org/2000/svg" viewBox="0 0 14 14"><path fill="#221f20" d="M3.3 5.17L2.58 7.8h-.42l-.5-1.91-.52 1.91H.72L0 5.17h.41l.52 1.91.51-1.91h.41l.53 1.91.51-1.91h.41zm.2.01l.41-.03v.88a1.44 1.44 0 01.54-.1c.34 0 .56.15.56.72V7.8H4.6V6.7c0-.35-.17-.4-.36-.4a1.15 1.15 0 00-.33.06V7.8h-.42V5.18zm1.88.77h.41V7.8h-.41V5.95zm.2-.74c.22 0 .25.12.25.26s-.04.27-.25.27c-.2 0-.24-.13-.24-.27s.04-.26.24-.26zm.56.74h.28l.06.15h.03a.77.77 0 01.5-.17.7.7 0 01.1 0v.4a1.58 1.58 0 00-.24-.01.72.72 0 00-.31.07V7.8h-.42V5.95zM7.28 7.8V5.18l.42-.03V7.8h-.42zm3.75-.91c0-.35-.05-.64-.38-.64-.34 0-.42.28-.42.64 0 .33.07.62.4.62s.4-.27.4-.62zm-.39-.96c.6 0 .82.34.82.96 0 .57-.21.95-.82.95-.62 0-.83-.37-.83-.95 0-.62.24-.96.83-.96zm2.26.96c0-.35-.06-.64-.4-.64-.33 0-.41.28-.41.64 0 .33.07.62.4.62s.4-.27.4-.62zm-.4-.96c.59 0 .82.34.82.96 0 .57-.21.95-.83.95-.6 0-.82-.37-.82-.95 0-.62.24-.96.83-.96zm1.09 1.87V5.18l.41-.03V7.8h-.41zm-5.14-.34h.3c.26 0 .43-.13.43-.67 0-.37-.15-.46-.43-.46a.94.94 0 00-.3.05v1.08zm-.42-1.5h.32l.03.13a1.3 1.3 0 01.56-.16c.38 0 .65.27.65.93 0 .65-.29.97-.77.97a2.3 2.3 0 01-.37-.04v.85l-.42.05V5.95z"/><path fill="#e5b240" d="M10.09 4.82c-.31-.36-1.3-.05-2.4.71v.2c.97-.7 1.82-1.01 2.07-.73.3.36-.45 1.51-1.7 2.58s-2.49 1.65-2.8 1.3c-.15-.18-.02-.58.31-1.08h-.2c-.4.62-.56 1.14-.35 1.39.39.44 1.84-.17 3.23-1.38 1.4-1.2 2.22-2.55 1.84-3z"/></svg>
