<svg data-tags="brand" xmlns="http://www.w3.org/2000/svg" viewBox="0 0 14 14"><circle fill="#40A3F5" cx="7" cy="7" r="7"/><path fill="#FFF" d="M9.995 3.217h-5.99a.271.271 0 00-.27.27v7.026c0 .149.121.27.27.27h5.99a.27.27 0 00.27-.27V3.487a.271.271 0 00-.27-.27z"/><path fill="#40A3F5" d="M8.78 5.085a.135.135 0 01-.136.135H5.401a.135.135 0 01-.135-.135v-.27c0-.075.06-.135.135-.135h3.243c.075 0 .135.06.135.135v.27zm0 1.366a.137.137 0 01-.136.136H5.401a.136.136 0 01-.135-.136v-.27c0-.074.06-.135.135-.135h3.243c.075 0 .135.061.135.135v.27zm0 1.366a.136.136 0 01-.136.135H5.401a.136.136 0 01-.135-.135v-.27c0-.074.06-.135.135-.135h3.243c.075 0 .135.06.135.135v.27zm0 1.366a.137.137 0 01-.136.136H5.401a.136.136 0 01-.135-.136v-.27c0-.074.06-.135.135-.135h3.243c.075 0 .135.061.135.135v.27z"/></svg>