<svg data-tags="wordpress" xmlns="http://www.w3.org/2000/svg" viewBox="0 0 14 14"><path fill="#3a7496" d="M.001.003h13.997V14H.001z"/><path d="M9.678 10.06a4.551 4.551 0 0 1-.624.451h-.018v-.018l1.422-4.145a3.788 3.788 0 0 0 .122-.882l-.034-.417h.034a4.339 4.339 0 0 1 .486 1.96 4.021 4.021 0 0 1-1.388 3.05ZM8.587 8.17 7.546 5.083h.018c.404 0 .607-.051.607-.155v-.052c-.024-.081-.065-.128-.122-.14l-1.126.053-1.146-.052a.17.17 0 0 0-.086.156h-.018c0 .128.168.19.502.19l.088.018.624 1.751-.884 2.655h-.018L4.511 5.1v-.018h.018c.394 0 .588-.045.588-.139v-.052a.168.168 0 0 0-.12-.156L3.68 4.79h-.07v-.035a4.386 4.386 0 0 1 .815-.902 4.062 4.062 0 0 1 2.585-.92 3.98 3.98 0 0 1 2.74 1.076v.018l-.053-.018q-.486 0-.676.59v.156a2.349 2.349 0 0 0 .486 1.076 2.16 2.16 0 0 1 .242 1.004 6.336 6.336 0 0 1-.433 1.681l-.278.955a10.393 10.393 0 0 1-.45-1.3Zm-.244 2.67a4.207 4.207 0 0 1-1.35.227 3.702 3.702 0 0 1-1.146-.173L7.06 7.339a11.157 11.157 0 0 1 .485 1.301l.816 2.2h-.018Zm-3.122-.19a4.064 4.064 0 0 1-1.89-1.872 4.443 4.443 0 0 1-.397-1.786 4.345 4.345 0 0 1 .346-1.648h.034L5.24 10.65Zm4.961-6.832a4.498 4.498 0 0 0-3.19-1.317 4.426 4.426 0 0 0-3.52 1.716 4.5 4.5 0 0 0 3.501 7.282h.052A4.506 4.506 0 0 0 11.5 7.026v-.052a4.458 4.458 0 0 0-1.318-3.156Z" fill="#fff"/></svg>