<svg xmlns="http://www.w3.org/2000/svg" viewBox="0 0 14 14"><circle fill="#FFF" cx="6.956" cy="7.051" r="6.723"/><path fill="#20759B" d="M11.167 11.76a7.082 7.082 0 01-.971.703h-.028v-.028l2.212-6.449c.127-.52.19-.98.19-1.373l-.053-.649h.053c.504 1.008.756 2.022.756 3.049 0 1.837-.723 3.418-2.159 4.747zM9.469 8.82l-1.62-4.803h.028c.629 0 .945-.079.945-.24v-.081c-.038-.127-.102-.199-.19-.217L6.88 3.56l-1.782-.081a.264.264 0 00-.134.243h-.028c0 .199.261.296.781.296l.136.028.971 2.724-1.375 4.13h-.028L3.128 4.045v-.028h.028c.613 0 .915-.069.915-.215v-.081c0-.109-.062-.187-.187-.243l-2.05.082h-.109v-.054c.18-.324.603-.793 1.267-1.403C4.199 1.148 5.537.672 7.014.672c1.599 0 3.021.557 4.262 1.673v.028l-.081-.028c-.504 0-.855.305-1.052.918v.243c0 .358.252.918.756 1.673a3.36 3.36 0 01.377 1.562c0 .469-.227 1.343-.675 2.616l-.432 1.486c-.037.002-.271-.673-.7-2.023zm-.38 4.154c-.7.236-1.401.354-2.101.354a5.76 5.76 0 01-1.782-.27l1.888-5.531c.035 0 .289.675.754 2.025l1.269 3.423h-.028zm-4.856-.296c-1.241-.575-2.221-1.546-2.942-2.912C.882 8.829.674 7.903.674 6.987c0-.83.18-1.683.539-2.563h.053l2.996 8.254h-.029zM11.951 2.05C10.511.682 8.856 0 6.988 0 4.827 0 3.001.89 1.511 2.67.503 3.983-.001 5.432-.001 7.013c0 1.997.784 3.731 2.346 5.205C3.729 13.408 5.269 14 6.958 14h.081c2.14 0 3.966-.899 5.478-2.697.987-1.294 1.484-2.716 1.484-4.262V6.96c0-1.836-.684-3.472-2.05-4.91z"/></svg>