<svg xmlns="http://www.w3.org/2000/svg" viewBox="0 0 14 14"><circle fill="#267599" cx="7" cy="7" r="7"/><path fill="#FFF" d="M9.652 4.349C8.881 3.616 7.995 3.25 6.994 3.25c-1.157 0-2.135.477-2.934 1.431-.54.703-.81 1.479-.81 2.327 0 1.069.42 1.998 1.258 2.787.741.637 1.566.955 2.47.955h.043c1.147 0 2.126-.482 2.934-1.445.53-.694.795-1.455.795-2.282v-.044c0-.983-.365-1.86-1.098-2.63zm-4.133 5.693c-.665-.308-1.19-.829-1.576-1.56a3.677 3.677 0 0 1-.331-1.489c0-.443.096-.9.289-1.372h.028l1.605 4.42h-.015zm2.6.159a3.52 3.52 0 0 1-1.125.188c-.338 0-.656-.048-.954-.145l1.01-2.962c.019 0 .154.361.404 1.084l.68 1.835h-.016zm-.664-4.798h.014c.338 0 .507-.043.507-.13V5.23c-.02-.067-.054-.106-.101-.115l-.94.043-.953-.043a.14.14 0 0 0-.073.13h-.014c0 .106.14.158.418.158l.073.015.52 1.46-.736 2.211h-.015L4.927 5.418v-.015h.015c.327 0 .49-.038.49-.115v-.043c0-.058-.034-.102-.1-.13l-1.099.043h-.058v-.03c.097-.173.323-.423.679-.75.646-.511 1.363-.767 2.154-.767.856 0 1.618.3 2.283.896v.015l-.044-.015c-.27 0-.458.164-.563.492v.13c0 .192.135.492.404.896.135.26.203.54.203.837 0 .252-.121.72-.362 1.402l-.231.796c-.02 0-.145-.362-.375-1.084l-.868-2.573zm1.778 4.148a3.8 3.8 0 0 1-.52.375h-.015v-.014l1.185-3.454c.067-.278.1-.525.1-.736l-.028-.347h.029c.27.54.404 1.083.404 1.633 0 .983-.386 1.83-1.155 2.543z"/></svg>