<svg data-tags="workflow,sprinklr" xmlns="http://www.w3.org/2000/svg" viewBox="0 0 14 14"><defs><clipPath id="brand_workflow_clr__a"><path fill="none" d="M0 0h14v14H0z"/></clipPath></defs><g clip-path="url(#brand_workflow_clr__a)"><path d="M1 3.327a1.239 1.239 0 0 1 1.313-1.168 1.318 1.318 0 0 1 .807.299 7.214 7.214 0 0 1 1.865 2.76 7.214 7.214 0 0 1 .425 3.305c-.014.106-.136.102-.167 0a6.69 6.69 0 0 0-3.29-3.853A1.321 1.321 0 0 1 1 3.327Zm4.173 7.606c-.406-1.36-2.465-3.608-3.965-3.608a1.18 1.18 0 1 0 .039 2.358 6.546 6.546 0 0 1 3.797 1.333c.067.053.156.008.13-.083Zm1.865 1.617c-.014.105-.133.1-.165 0C5.177 7.238 8.225 1.426 10.496 1.374a1.885 1.885 0 0 1 2.027 1.829 1.73 1.73 0 0 1-1.01 1.663 9.891 9.891 0 0 0-4.475 7.683Zm1.92-1.535c-.067.054-.158.009-.132-.082.406-1.36 2.466-3.607 3.966-3.607a1.18 1.18 0 1 1-.04 2.357 6.794 6.794 0 0 0-3.794 1.332Z" fill="#082fc3"/></g></svg>