<svg data-tags="workflow,sprinklr" xmlns="http://www.w3.org/2000/svg" viewBox="0 0 14 14"><path fill="#082fc3" d="M0 0h14v14H0z"/><path d="M3.3 5a.882.882 0 0 1 .9-.8.646.646 0 0 1 .5.2 4.56 4.56 0 0 1 1.4 3.8l-.1.1a4.055 4.055 0 0 0-2-2.4.928.928 0 0 1-.7-.9Zm7.1-.1a1.135 1.135 0 0 0-1.2-1.1c-1.4 0-3.3 3.7-2.2 7-.1.1 0 .1 0 .1A6.16 6.16 0 0 1 9.8 6a1.078 1.078 0 0 0 .6-1.1ZM2.6 8.3a.828.828 0 0 0 .8.7 3.74 3.74 0 0 1 2.5 1c.1 0 .1 0 0-.1a3.54 3.54 0 0 0-2.5-2.4.789.789 0 0 0-.8.8Zm8.8 0a.709.709 0 0 1-.8.7 3.74 3.74 0 0 0-2.5 1c-.1 0-.1 0 0-.1a3.42 3.42 0 0 1 2.5-2.3.666.666 0 0 1 .8.7Z" fill="#fff"/></svg>