<svg data-tags="brand" xmlns="http://www.w3.org/2000/svg" viewBox="0 0 14 14"><circle fill="#0828CC" cx="7" cy="7" r="7"/><path fill="#FFF" d="M3.3 5c0-.4.4-.8.9-.8.1 0 .3 0 .5.2 1 .9 1.6 2.5 1.4 3.8l-.1.1c-.3-1-1.2-2.1-2-2.4-.5-.2-.7-.5-.7-.9m7.1-.1c0-.6-.5-1.1-1.2-1.1-1.4 0-3.3 3.7-2.2 7-.1.1 0 .1 0 .1.2-2.4 1.5-4.2 2.8-4.9.5-.3.6-.6.6-1.1M2.6 8.3c.1.5.5.7.8.7.9 0 1.9.4 2.5 1 .1 0 .1 0 0-.1-.2-1-1.6-2.4-2.5-2.4-.5 0-.8.4-.8.8m8.8 0c0 .5-.4.7-.8.7-.9 0-1.9.4-2.5 1-.1 0-.1 0 0-.1.2-.9 1.5-2.3 2.5-2.3.5-.1.8.3.8.7"/></svg>