<svg data-tags="Xiaohongshu" xmlns="http://www.w3.org/2000/svg" viewBox="0 0 14 14"><path d="M7 0a7 7 0 107 7 7 7 0 00-7-7z" fill="#ff2741"/><path fill="none" d="M10.675 6.123l-.21-.015-.215-.015v.605h.455l-.015-.29-.015-.285z"/><path d="M4.95 6.058a1.957 1.957 0 00-.675.04 9.908 9.908 0 00.13 1.65 2.068 2.068 0 00.345.8 1.6 1.6 0 00.19-.365l.16-.36-.075-.875-.075-.89zm-2.99-.015l-.025.165c-.015.09-.045.425-.065.74a4.467 4.467 0 01-.075.685c-.03.08.01.215.145.515.18.405.18.41.27.305a3.938 3.938 0 00.4-1.98l.015-.4-.33-.015zm3.455 2.08l-.155.345a1.085 1.085 0 00-.13.375 3.015 3.015 0 00.56.03h.53l.15-.335a1.282 1.282 0 00.125-.36 4.271 4.271 0 00-.55-.04zm6.7-2.615a.348.348 0 00-.4-.11c-.15.06-.215.205-.215.47v.23h.22c.4 0 .62-.33.395-.59zM3.8 5.148h-.7v3.1h-.225c-.265 0-.27.025-.1.385.115.255.125.265.33.265a.661.661 0 00.625-.33 8.414 8.414 0 00.07-1.795z" fill="#fff"/><path d="M11.55 6.698h-.15v-.35c0-.65-.22-.91-.81-.94-.335-.02-.34-.025-.34-.165v-.145h-.7v.15c0 .145-.01.15-.225.15H9.1v.7h.45v.6h-.7v.7h.7v1.5h.7v-1.5h.545c.685 0 .715.02.695.495l-.015.33-.315.025a.756.756 0 00-.315.065 2.214 2.214 0 00.115.32l.115.275.365-.02c.395-.025.58-.12.695-.345a2.495 2.495 0 00.065-.745c0-.535-.015-.65-.1-.785a.664.664 0 00-.55-.315zm-1.075 0h-.225v-.605l.215.015.21.015.015.285.015.29zM8.25 6.103l.215-.015.21-.015.015-.34.015-.335H7.05v.7h.45v2.05h-.605l-.145.31a1.972 1.972 0 00-.15.375c0 .05.265.065 1.15.065H8.9v-.75h-.65z" fill="#fff"/><path d="M6.8 7.353c0-.03-.1-.055-.22-.065l-.22-.015.25-.565a2.317 2.317 0 00.22-.595 1.206 1.206 0 00-.305-.055.55.55 0 01-.275-.06 4.146 4.146 0 01.175-.42 3.408 3.408 0 00.175-.435c0-.025-.155-.045-.345-.045H5.91l-.31.7c-.295.675-.305.71-.23.825.065.1.125.125.28.125.11 0 .2.015.2.03s-.08.21-.175.425c-.285.645-.255.695.41.695h.465l.125-.25a1.451 1.451 0 00.125-.295z" fill="#fff"/></svg>