<svg data-tags="Xiaohongshu" xmlns="http://www.w3.org/2000/svg" viewBox="0 0 14 14"><path d="M13.906 1.454A1.881 1.881 90 0012.54.09c-.475-.12-10.645-.12-11.11.006a1.893 1.893 90 00-1.337 1.36c-.126.485-.126 10.595 0 11.081a1.881 1.881 90 001.365 1.365c.486.126 10.596.126 11.082 0a1.881 1.881 90 001.365-1.365c.125-.486.125-10.596 0-11.082z" fill="#ff2741"/><path fill="#ff2741" d="M11.012 6.04l-.229-.016-.235-.017v.66h.497l-.016-.316-.017-.311z"/><path d="M4.762 5.969c0-.044-.71 0-.737.044-.044.07.06 1.392.142 1.801.06.3.305.874.376.874.017 0 .115-.18.208-.399l.174-.393-.082-.955-.081-.972zm1.086 2.27l-.579-.016L5.1 8.6c-.098.208-.158.393-.142.41s.29.032.612.032h.578l.164-.365c.088-.202.153-.383.137-.394-.011-.01-.284-.032-.6-.043zm-3.106.121h-.246c-.29 0-.295.027-.11.42.127.279.137.29.361.29.317 0 .595-.148.683-.36.06-.143.076-.574.076-1.96V4.975h-.764zM1.497 5.952l-.027.18c-.017.099-.05.465-.071.809s-.055.682-.082.748c-.033.087.01.234.158.562.197.442.197.448.295.333.246-.311.399-1.06.437-2.162l.016-.437-.36-.016zm11.088-.584a.38.38 90 00-.437-.12c-.164.066-.235.224-.235.513v.252h.24c.437 0 .677-.36.432-.645zM6.782 7.383c0-.033-.11-.06-.24-.071l-.24-.017.272-.617c.153-.338.262-.627.24-.65-.016-.016-.169-.043-.333-.06-.163-.01-.3-.043-.3-.065a4.53 4.53 90 01.191-.458c.104-.235.191-.443.191-.475 0-.028-.169-.05-.376-.05H5.81l-.339.765c-.322.737-.333.775-.25.9.07.11.136.137.305.137.12 0 .218.017.218.033s-.087.23-.19.464c-.312.704-.28.759.447.759h.508l.136-.273a1.583 1.583 90 00.137-.322z" fill="#fff"/><path d="M11.968 6.668h-.164v-.382c0-.71-.24-.994-.884-1.027-.366-.022-.372-.027-.372-.18v-.158h-.764v.164c0 .158-.01.163-.246.163h-.245v.765h.491v.655H9.02v.764h.764V9.07h.764V7.432h.595c.748 0 .781.022.76.54l-.017.36-.344.028c-.186.017-.344.05-.344.071a2.423 2.423 90 00.126.35l.125.3.399-.022c.43-.027.633-.13.758-.377.044-.082.071-.382.071-.813 0-.584-.016-.71-.109-.857a.725.725 90 00-.6-.344zm-1.174 0h-.246v-.66l.235.016.23.016.016.311.016.317zm-2.43-.65l.235-.016.23-.017.016-.37.017-.367H7.055v.765h.49V8.25h-.66l-.158.338a2.149 2.149 90 00-.164.41c0 .054.29.07 1.256.07h1.255v-.818h-.71z" fill="#fff"/></svg>