<svg data-tags="Xiaohongshu" xmlns="http://www.w3.org/2000/svg" viewBox="0 0 14 14"><path d="M11.012 6.04l-.229-.016-.235-.017v.66h.497l-.016-.316-.017-.311z"/><path d="M13.906 1.454A1.881 1.881 90 0012.54.09c-.475-.12-10.645-.12-11.11.006a1.893 1.893 90 00-1.337 1.36c-.126.485-.126 10.595 0 11.081a1.881 1.881 90 001.365 1.365c.486.126 10.596.126 11.082 0a1.881 1.881 90 001.365-1.365c.125-.486.125-10.596 0-11.082zm-11.7 4.968c-.037 1.103-.19 1.85-.436 2.162-.098.114-.098.109-.295-.333-.147-.328-.19-.475-.158-.562.027-.066.06-.405.082-.748s.054-.71.07-.808l.028-.18.366.016.36.016zm1.3.328c0 1.386-.016 1.817-.076 1.96-.088.212-.366.36-.683.36-.224 0-.234-.011-.36-.29-.186-.393-.18-.42.11-.42h.245V4.975h.764zm1.245 1.539c-.093.218-.191.399-.208.399-.07 0-.316-.574-.376-.874-.082-.41-.186-1.73-.142-1.802.027-.043.737-.087.737-.043l.082.971.082.956zm1.561.388l-.164.365H5.57c-.323 0-.595-.016-.612-.032s.044-.202.142-.41l.17-.376.578.016c.317.01.59.033.6.044.017.01-.049.19-.136.393zm-.311-.7c-.726 0-.759-.054-.448-.758.104-.235.191-.448.191-.464s-.098-.033-.218-.033c-.17 0-.235-.027-.306-.136-.082-.126-.07-.164.251-.901l.339-.764h.376c.208 0 .377.021.377.049 0 .033-.087.24-.19.475a4.53 4.53 90 00-.192.458c0 .022.136.055.3.066.164.016.317.043.333.06.022.022-.087.311-.24.65l-.273.616.24.017c.131.01.24.038.24.07a1.583 1.583 90 01-.136.323l-.137.273zm3.073.683v.41H7.82c-.967 0-1.256-.017-1.256-.071a2.149 2.149 90 01.164-.41l.158-.338h.66V6.012h-.49v-.764h1.807l-.017.366-.016.371-.23.016-.234.017V8.25h.71zm3.532.022c-.125.246-.327.35-.758.377l-.399.022-.125-.3a2.424 2.424 90 01-.126-.35c0-.022.158-.055.344-.071l.344-.027.016-.36c.022-.52-.01-.541-.759-.541h-.595v1.637h-.764V7.432H9.02v-.765h.764v-.655h-.491v-.764h.245c.235 0 .246-.005.246-.164V4.92h.764v.159c0 .153.006.158.372.18.644.033.884.317.884 1.026v.382h.164a.725.725 90 01.6.344c.093.148.11.273.11.857 0 .432-.028.732-.071.814zm-.453-2.67h-.24v-.25c0-.29.071-.448.235-.514a.38.38 90 01.437.12c.245.284.005.644-.432.644z"/></svg>