<svg data-tags="xing" xmlns="http://www.w3.org/2000/svg" viewBox="0 0 14 14"><path d="M13.232.408a.665.665 90 00-.592-.315c-.12.004-.24.004-.362.004l-.555-.001h-.92a.925.925 90 00-.204.018c-.369.076-.56.343-.673.538L5.766 8.03a.462.462 90 000 .47L8.4 13.333c.209.38.503.574.876.574h1.879a.684.684 90 00.219-.034.628.628 90 00.39-.366.712.712 90 00-.062-.604c-.223-.4-.444-.802-.665-1.206L9.494 8.873c-.11-.203-.221-.408-.329-.612l.079-.14 3.71-6.557c.094-.17.19-.34.284-.513a.647.647 90 00-.004-.644zm-4.648 7.36a4.018 4.018 0 00-.149.277.491.491 90 00.002.437c.131.25.266.5.402.746l1.543 2.826c.198.363.397.726.606 1.104H9.275c-.052 0-.12 0-.222-.183L6.491 8.267l4.081-7.24c.088-.15.137-.172.233-.182H12.279c.082 0 .164 0 .228-.015L8.584 7.77zM6.046 5.404l-.558-.973a59.148 59.148 90 01-.631-1.108c-.243-.442-.585-.656-1.117-.656h-.007c-.18.007-.361.012-.541.012L2.161 2.67l-.11.002c-.26.01-.473.128-.583.327a.642.642 90 00.022.638c.133.238.27.473.406.709l.18.311c.194.336.388.674.584 1.007L.88 8.804c-.045.08-.09.16-.131.242a.679.679 90 00-.018.566.637.637 90 00.397.354c.105.032.214.066.26.032h.445l.948-.003c.095 0 .19 0 .285.006l.064.002c.277 0 .663-.1.934-.57l1.982-3.518a.49.49 90 00-.002-.51zm-2.63 3.658a.367.367 90 01-.158.163c-.112-.005-.37.023-.476.023l-.948.005h-.348l.078-.139 1.809-3.197a.49.49 90 000-.51l-.83-1.433-.318-.557h.025l.942.007c.192 0 .385-.002.614-.014.16 0 .271.043.396.272.208.377.424.749.64 1.123l.49.856-1.916 3.4z"/></svg>