<svg data-tags="yahoo ads" xmlns="http://www.w3.org/2000/svg" viewBox="0 0 14 14"><path d="M11.3 8.92l1.425.175-.038.327-.095.764c-.004.035-.013.069-.012.104.002.058-.021.075-.078.067-.35-.045-.701-.09-1.05-.133-.083-.01-.164-.022-.246-.027-.052-.003-.066-.023-.06-.073.024-.181.044-.363.067-.544l.07-.562.016-.098zM5.271 2.606c.794.013 1.571.114 2.326.363.678.224 1.297.554 1.822 1.045.548.512.91 1.13 1.056 1.87.076.382.084.767.033 1.154A3.393 3.393 0 019.501 9.04a4.589 4.589 0 01-1.553.995 6.163 6.163 0 01-1.602.407c-.284.033-.569.05-.854.066a6.61 6.61 0 01-1.134-.042c-.847-.094-1.659-.313-2.405-.738C1.298 9.355.761 8.86.4 8.188a3.32 3.32 0 01-.377-1.216 3.484 3.484 0 01.183-1.597 3.5 3.5 0 01.991-1.432c.563-.5 1.222-.822 1.938-1.035a6.29 6.29 0 011.152-.232c.327-.034.656-.047.984-.07zM4.107 5.068c.07-.01.126-.018.183-.022l.695-.051c.061-.004.1-.024.096-.095a.332.332 0 01.015-.104c.016-.055-.009-.062-.055-.063-.397-.005-.795-.015-1.192-.017-.269 0-.539.014-.808.016-.216 0-.432-.008-.648-.01-.124 0-.247.006-.37.009-.034 0-.047.015-.044.05.006.062.01.124.008.185 0 .036.013.05.05.054.217.028.434.064.653.084a.52.52 0 01.366.187c.136.157.281.306.416.464.39.455.768.919 1.12 1.404a.525.525 0 01.104.322c0 .203.003.407.004.61l.002.247c0 .112-.065.172-.166.19a3.344 3.344 0 01-.36.047c-.12.008-.243.002-.364.005-.019 0-.05.017-.054.03-.02.088-.034.177-.052.276h.08c.357-.007.715-.02 1.073-.021.618-.002 1.236.002 1.853.003.016 0 .044-.015.045-.025.008-.095.012-.191.016-.286a.13.13 0 01-.02-.004L6.1 8.54a5.812 5.812 0 01-.265-.01c-.017-.001-.044-.021-.046-.035-.024-.187-.05-.374-.062-.563-.008-.131.01-.263.01-.395 0-.194.074-.348.215-.484.472-.457.983-.864 1.524-1.235a.574.574 0 01.19-.082c.218-.05.438-.091.657-.137.012-.002.027-.005.033-.014.064-.09.126-.18.191-.274-.167-.034-2.622-.045-2.697-.012.015.086.03.173.048.259.003.016.025.038.04.04.17.024.34.043.508.066.093.013.185.03.286.048-.014.03-.02.055-.035.073-.063.076-.12.158-.194.223-.242.212-.489.417-.734.624l-.299.257c-.448-.606-.93-1.185-1.362-1.821zm7.46-2.628l1.221.157 1.212.15-1.378 5.495-.33-.038c-.222-.027-.444-.057-.666-.082-.04-.005-.053-.02-.05-.057V7.99l-.008-4.571c0-.301 0-.601-.002-.902l.001-.077zm-.926 9.358l-.623 1.6h.218l.179-.482h.677l.175.482h.235l-.625-1.6h-.236zm-.159.939l.271-.746h.005l.267.746h-.543zm1.99-.343h-.004a.31.31 0 00-.078-.086.44.44 0 00-.2-.086.57.57 0 00-.328.039.478.478 0 00-.166.13.548.548 0 00-.099.191.817.817 0 00.001.466.576.576 0 00.1.193.48.48 0 00.4.182c.08 0 .155-.015.222-.043a.28.28 0 00.148-.139h.004v.157h.19v-1.6h-.19v.596zm-.012.585a.418.418 0 01-.062.14.329.329 0 01-.11.1.327.327 0 01-.163.038.316.316 0 01-.272-.132.427.427 0 01-.065-.138.59.59 0 01-.022-.158.76.76 0 01.018-.166.436.436 0 01.059-.143.304.304 0 01.27-.14c.066 0 .123.013.169.038a.325.325 0 01.113.097.4.4 0 01.064.14.668.668 0 01.001.324zm1.288-.151a.457.457 0 00-.12-.06 1.44 1.44 0 00-.14-.038l-.135-.03a.755.755 0 01-.121-.036.278.278 0 01-.089-.054.107.107 0 01-.034-.081c0-.03.007-.055.022-.073a.16.16 0 01.058-.045.285.285 0 01.08-.024.549.549 0 01.18.004.26.26 0 01.083.032.193.193 0 01.063.06.193.193 0 01.03.093h.19a.427.427 0 00-.045-.176.302.302 0 00-.102-.112.42.42 0 00-.147-.059.903.903 0 00-.181-.016.637.637 0 00-.154.019.465.465 0 00-.139.058.321.321 0 00-.1.102.278.278 0 00-.04.15c0 .075.019.133.056.175a.378.378 0 00.14.097.941.941 0 00.183.054c.065.013.126.027.182.043a.473.473 0 01.14.061.127.127 0 01.056.112.141.141 0 01-.026.089.17.17 0 01-.069.052.348.348 0 01-.09.025.548.548 0 01-.207-.005.316.316 0 01-.1-.036.202.202 0 01-.1-.176h-.19a.42.42 0 00.045.182c.027.05.063.09.108.121s.096.053.154.066a.945.945 0 00.36.003.481.481 0 00.16-.059.34.34 0 00.113-.112.322.322 0 00.044-.174.273.273 0 00-.032-.14.287.287 0 00-.086-.092z"/></svg>