<svg xmlns="http://www.w3.org/2000/svg" viewBox="0 0 14 8.077"><g fill="inherit"><path d="M11.299 6.479l1.426.175-.038.327-.095.764c-.004.035-.013.069-.012.104.002.058-.021.075-.078.067l-1.051-.133c-.082-.01-.163-.022-.245-.027-.052-.003-.066-.023-.06-.073.024-.181.044-.363.067-.544l.07-.562.016-.098zM5.271.165c.794.013 1.571.114 2.326.363.678.224 1.297.554 1.822 1.045.548.512.91 1.131 1.056 1.87.076.382.084.767.033 1.154a3.393 3.393 0 01-1.007 2.002 4.589 4.589 0 01-1.553.995 6.163 6.163 0 01-1.602.407c-.284.033-.569.05-.854.066a6.61 6.61 0 01-1.134-.042c-.847-.094-1.659-.313-2.405-.738C1.298 6.914.761 6.419.4 5.748a3.32 3.32 0 01-.377-1.217 3.484 3.484 0 01.183-1.597 3.5 3.5 0 01.991-1.432C1.76 1.002 2.419.68 3.135.467A6.29 6.29 0 014.287.235c.327-.034.656-.047.984-.07zM4.107 2.627c.07-.009.126-.018.183-.022l.695-.051c.061-.004.099-.024.096-.095a.331.331 0 01.015-.104c.016-.055-.009-.062-.055-.063-.397-.005-.795-.015-1.192-.017-.269 0-.539.014-.808.016-.216.001-.432-.008-.648-.009-.124-.001-.247.005-.371.008-.033.001-.046.015-.043.051.006.061.009.123.008.184 0 .036.013.05.049.054.218.028.435.064.654.084a.52.52 0 01.366.187c.136.157.281.306.416.464.39.455.768.919 1.12 1.404a.525.525 0 01.104.322c0 .203.003.407.004.611l.002.246c0 .112-.065.172-.166.19a3.344 3.344 0 01-.36.047c-.121.008-.243.002-.364.005-.019.001-.051.017-.054.031-.02.087-.034.176-.052.275h.079c.358-.007.716-.02 1.074-.021.618-.002 1.236.002 1.853.003.016 0 .044-.015.045-.025.008-.095.012-.191.016-.286a.13.13 0 01-.02-.004l-.654-.013a5.81 5.81 0 01-.265-.01c-.017-.001-.044-.021-.046-.035-.024-.187-.051-.374-.062-.563-.008-.131.01-.263.01-.395 0-.194.074-.348.215-.484.472-.457.983-.864 1.524-1.235a.574.574 0 01.19-.082c.218-.05.438-.091.657-.137.012-.002.027-.005.033-.014.064-.09.126-.18.191-.274-.167-.034-2.622-.045-2.697-.012.015.086.029.173.048.259.003.016.025.038.04.04.169.024.339.043.508.066.093.013.185.031.286.048-.014.031-.021.055-.035.073-.063.076-.121.158-.194.223-.242.212-.489.417-.734.624l-.299.257c-.448-.606-.931-1.185-1.362-1.821zM11.567 0l1.221.156c.401.051.803.1 1.212.151l-1.378 5.494-.33-.038c-.222-.027-.444-.057-.666-.082-.041-.005-.053-.02-.051-.057.002-.025 0-.049 0-.074L11.568.979l-.002-.902.001-.077z"/></g></svg>