<svg data-tags="yahoo ads" xmlns="http://www.w3.org/2000/svg" viewBox="0 0 14 14"><path fill="#720E9E" d="M7 0a7 7 0 110 14A7 7 0 017 0z"/><path fill="#FFF" d="M10.205 4.526l.008-.002.231-.258h-.011l.025-.04H7.209l.125.445h.887l-1.492 1.38c-.305-.443-1.018-1.464-1.516-2.23h.925v-.315l.013-.09-.013-.002v-.037H2.625v.444h1.099C4.151 4.173 6 6.42 6.067 6.633c.027.2.066 1.386-.014 1.475-.096.138-1.096.064-1.272.077l-.007.435c.322.01 1.288 0 1.614 0 .642 0 1.767-.017 1.925-.004l.02-.412-1.293-.02c-.027-.186-.057-1.365-.03-1.494.123-.373 2.106-1.918 2.31-1.976l.192-.043h.6l.093-.145zm-.485 3.08l.562.043.655-2.402a28.072 28.072 0 01-1.232-.117l.015 2.476zm-.097.385l.003.587.285.023.307.022.09-.574-.324-.015-.36-.043zm-4.697 3.137l-.247.748h-.318l.809-2.378h.37l.811 2.378h-.327l-.254-.748h-.844zm.78-.24l-.233-.685c-.053-.155-.088-.296-.123-.433h-.008a7.364 7.364 0 01-.12.43l-.232.688h.716zM8.124 9.37v2.065c0 .152.004.325.014.441H7.86l-.014-.297h-.008a.631.631 0 01-.582.336c-.412 0-.73-.35-.73-.868-.004-.568.35-.918.766-.918.26 0 .438.124.515.262h.007V9.37h.31zm-.31 1.493a.519.519 0 00-.015-.13.456.456 0 00-.448-.36c-.32 0-.51.282-.51.66 0 .346.168.631.503.631a.466.466 0 00.455-.37.51.51 0 00.015-.134v-.297zm.784.695c.092.06.254.124.41.124.226 0 .33-.113.33-.254 0-.148-.087-.23-.316-.314-.307-.11-.452-.279-.452-.483 0-.276.222-.502.59-.502.172 0 .323.05.42.106l-.078.226a.667.667 0 00-.35-.099c-.183 0-.286.106-.286.233 0 .141.103.205.324.29.297.112.449.26.449.515 0 .3-.233.511-.639.511a.974.974 0 01-.48-.116l.078-.237z"/></svg>