<svg xmlns="http://www.w3.org/2000/svg" viewBox="0 0 14 14"><path fill="#640F6C" d="M11.3 9.44l1.425.175-.038.327c-.03.255-.063.51-.095.764-.004.035-.013.07-.012.104.002.058-.02.075-.078.067-.35-.045-.7-.09-1.05-.133-.083-.01-.164-.022-.246-.027-.052-.003-.066-.023-.06-.073.024-.18.044-.363.067-.544l.07-.562.016-.098zM5.27 3.127c.795.012 1.572.114 2.327.363.678.224 1.297.554 1.822 1.045.547.512.91 1.13 1.055 1.87.076.382.084.767.033 1.154a3.388 3.388 0 01-1.007 2c-.444.445-.972.763-1.552.997a6.163 6.163 0 01-1.602.407c-.284.033-.57.05-.854.066a6.802 6.802 0 01-1.133-.043c-.85-.094-1.66-.313-2.406-.738C1.298 9.875.76 9.38.4 8.71a3.301 3.301 0 01-.377-1.218 3.483 3.483 0 01.183-1.597 3.507 3.507 0 01.99-1.432c.564-.5 1.223-.822 1.94-1.035.376-.113.76-.193 1.15-.233.328-.035.657-.048.985-.07zm-1.163 2.46c.07-.007.127-.017.184-.02.233-.02.465-.036.696-.052.06-.004.1-.024.096-.095a.31.31 0 01.014-.104c.017-.055-.01-.062-.055-.062-.396-.005-.794-.016-1.19-.017-.27 0-.54.014-.81.016-.215 0-.43-.008-.647-.01-.123 0-.247.006-.37.01-.034 0-.047.014-.044.05.005.06.008.122.007.183 0 .036.013.05.05.054.217.028.434.064.653.084a.52.52 0 01.365.187c.136.158.28.307.416.465.39.455.77.92 1.12 1.404a.52.52 0 01.104.32l.006.613c0 .082 0 .164.002.246 0 .11-.065.17-.166.19-.12.02-.24.038-.36.046s-.243.002-.364.005c-.02.002-.05.018-.053.032-.022.088-.036.177-.053.275h.08c.357-.007.715-.02 1.073-.02.618-.003 1.236 0 1.853.002.016 0 .044-.016.045-.026.008-.095.012-.19.016-.286l-.02-.004c-.223-.005-.44-.01-.655-.013-.09 0-.178-.003-.266-.01-.017 0-.044-.02-.046-.034-.024-.187-.05-.375-.062-.563-.008-.13.01-.263.01-.395 0-.194.074-.348.215-.484.472-.457.983-.864 1.524-1.235a.537.537 0 01.19-.083c.218-.05.438-.09.657-.137.013-.002.028-.005.034-.014.064-.09.126-.18.19-.274-.165-.034-2.62-.045-2.695-.012.014.086.028.173.047.26.003.015.025.036.04.038.17.024.338.043.507.066.094.013.186.03.287.05-.013.03-.02.054-.034.072-.063.076-.12.158-.194.223-.242.21-.49.415-.734.623l-.298.257c-.45-.606-.932-1.185-1.363-1.822zm7.46-2.625l1.22.156 1.213.15-1.378 5.495-.33-.038c-.222-.027-.444-.057-.666-.082-.04-.005-.053-.02-.05-.057v-.074l-.008-4.57c0-.302 0-.602-.002-.903V2.96z"/><path fill="#fff" d="M4.107 5.588c.43.637.914 1.216 1.363 1.822l.3-.257c.243-.208.49-.413.732-.624.073-.065.13-.148.194-.224.014-.018.02-.043.035-.073-.1-.018-.192-.036-.285-.048-.17-.024-.34-.043-.508-.067-.015-.002-.037-.023-.04-.04-.02-.085-.033-.172-.048-.258.074-.033 2.53-.022 2.695.013l-.19.274c-.007.008-.022.01-.033.014-.22.046-.44.087-.658.137a.574.574 0 00-.19.082c-.54.37-1.052.777-1.524 1.234a.65.65 0 00-.215.484c0 .132-.018.264-.01.395.012.188.04.376.063.563.002.014.03.034.046.035a68.338 68.338 0 00.912.024l.027.005c-.005.094-.008.19-.016.285 0 .01-.03.025-.045.025-.618 0-1.236-.005-1.853-.003-.358 0-.716.013-1.074.02h-.08c.018-.098.032-.187.052-.275.003-.014.035-.03.053-.03.122-.004.244.002.365-.006.12-.008.24-.026.36-.047.102-.02.166-.08.166-.19v-.247c0-.204-.004-.408-.004-.612 0-.117-.03-.22-.103-.32-.352-.485-.73-.95-1.12-1.404-.135-.158-.28-.307-.416-.464a.527.527 0 00-.366-.187c-.218-.02-.435-.056-.653-.084-.036-.003-.05-.017-.05-.053 0-.062-.002-.123-.007-.184-.003-.035.01-.05.043-.05.123-.004.247-.01.37-.01.216.002.432.01.648.01.27-.002.54-.017.81-.016.396 0 .793.012 1.19.017.047 0 .073.007.056.062a.307.307 0 00-.014.104c.003.07-.035.09-.096.095l-.695.05c-.056.005-.113.015-.183.023z"/></svg>