<svg data-tags="brand,yammer microsoft" xmlns="http://www.w3.org/2000/svg" viewBox="0 0 14 14"><path fill="#28a8ea" d="M5.179 4.215a.184.184 0 01-.026-.219l.028-.037L8.961.173a.37.37 0 01.524 0l.01.01a10.025 10.025 0 012.328 4.231L9.535 7 6.132 5.934a4.102 4.102 0 00-.953-1.72"/><path fill="#0078d4" d="M13.635 4.323a.369.369 0 00-.444-.274l-.01.003-7.05 1.883a4.162 4.162 0 01.002 2.143l2.35 2.929L11.83 9.61l1.348.362a.369.369 0 00.453-.26l.002-.01a11.912 11.912 0 00.002-5.379"/><path fill="#0358a7" d="M6.133 8.078a4.105 4.105 0 01-.944 1.718.184.184 0 00.003.258l3.778 3.773a.37.37 0 00.523 0l.01-.01A10 10 0 0011.83 9.61L6.133 8.078"/><path fill="#e5e5e5" d="M6.129 3.01h-.01l-.938.94.496-.496h.009l.443-.444"/><path fill="#2497d2" d="M7.447 3.01H6.129l-.443.444h1.317a.592.592 0 01.591.59v1.5l.443-.118V3.6a.593.593 0 00-.59-.59"/><path fill="#006cbe" d="M8.037 5.426l-.443.118v2.927l.443.119V5.426"/><path fill="#034f96" d="M7.594 8.47v2.815a.592.592 0 01-.015.133.593.593 0 00.458-.576V8.59l-.443-.12"/><path fill="#024686" d="M6.138 10.99l.887.886a.593.593 0 00.554-.458.594.594 0 01-.132.015h-.865l-.444-.443"/><path fill="#023f78" d="M7.594 10.399a.593.593 0 01-.59.59h-.866l.444.444h.865a.594.594 0 00.132-.015.592.592 0 00.015-.133V10.4"/><path fill="#176186" d="M7.003 3.454H6.56a.593.593 0 01.59.59v1.619l.444-.119v-1.5a.592.592 0 00-.59-.59"/><path fill="#00457a" d="M7.594 5.544l-.443.119v2.689l.443.119V5.544"/><path fill="#023260" d="M7.15 8.352v2.047a.593.593 0 01-.59.59h.443a.593.593 0 00.591-.59V8.47l-.443-.12"/><path fill="#02386b" d="M5.192 10.045l.946.945-.946-.945"/><path fill="#022d56" d="M5.192 10.045l.946.945-.946-.945"/><path fill="#757575" d="M6.272 7.004a4.164 4.164 0 01-.14 1.065 4.112 4.112 0 01-.943 1.717.184.184 0 00-.052.128v.005a.183.183 0 01.052-.123 4.105 4.105 0 00.944-1.718 4.163 4.163 0 00.14-1.074m-.587-3.55h-.01l-.495.496-.028.037a.184.184 0 00-.025.091v.006a.184.184 0 01.025-.088l.028-.037.505-.505"/><path fill="#124e6b" d="M6.56 3.454h-.874l-.505.505-.028.037a.17.17 0 00.026.21 4.106 4.106 0 01.953 1.72h.001-.002l.003.008 1.017-.271V4.045a.593.593 0 00-.591-.591"/><path fill="#003762" d="M7.15 5.663l-1.016.271a4.164 4.164 0 01.138 1.063v.007a4.163 4.163 0 01-.14 1.074l1.019.274v-2.69"/><path fill="#02284d" d="M6.133 8.078a4.105 4.105 0 01-.944 1.718.173.173 0 00.003.249l.946.945h.422a.593.593 0 00.59-.591V8.352l-1.017-.274"/><rect width="7.093" height="7.093" x=".058" y="3.454" fill="#0078d4" rx=".591"/><path fill="#fff" d="M3.528 6.675a1.498 1.498 0 01.098.266h.01a1.273 1.273 0 01.096-.26l.896-1.688a.394.394 0 11.69.381l-1.24 2.16a.39.39 0 00-.053.195v1.093a.394.394 0 01-.394.394h-.08a.394.394 0 01-.394-.394v-1.08a.394.394 0 00-.05-.192L1.888 5.37a.394.394 0 01.344-.586h.078a.394.394 0 01.35.213z"/></svg>