<svg data-tags="brand,yammer microsoft" xmlns="http://www.w3.org/2000/svg" viewBox="0 0 14 14"><path fill="#f2f2f2" d="M0 0h14v14H0z"/><path fill="#28a8ea" d="M5.778 5.148a.12.12 0 01-.017-.142l.019-.024 2.47-2.474a.242.242 0 01.34 0l.007.007a6.548 6.548 0 011.521 2.764L8.623 6.968l-2.222-.696a2.68 2.68 0 00-.623-1.124"/><path fill="#0078d4" d="M11.301 5.22a.24.24 0 00-.29-.18l-.007.002L6.4 6.272a2.719 2.719 0 01.001 1.4l1.536 1.913 2.185-.913.881.237a.24.24 0 00.296-.17l.002-.007a7.78 7.78 0 000-3.513"/><path fill="#0358a7" d="M6.401 7.672a2.681 2.681 0 01-.616 1.122.12.12 0 00.002.169l2.468 2.464a.241.241 0 00.341 0l.006-.007a6.532 6.532 0 001.52-2.748l-3.72-1"/><path fill="#e5e5e5" d="M6.399 4.362h-.006l-.613.613.324-.324h.005l.29-.289"/><path fill="#2497d2" d="M7.26 4.362h-.861l-.29.29h.86a.387.387 0 01.387.385v.98l.29-.077V4.748a.387.387 0 00-.387-.386"/><path fill="#006cbe" d="M7.645 5.94l-.289.077v1.911l.289.078V5.94"/><path fill="#034f96" d="M7.356 7.928v1.839a.387.387 0 01-.01.086.387.387 0 00.3-.376v-1.47l-.29-.079"/><path fill="#024686" d="M6.404 9.574l.58.578a.387.387 0 00.362-.299.388.388 0 01-.087.01h-.565l-.29-.29"/><path fill="#023f78" d="M7.356 9.188a.387.387 0 01-.386.386h-.566l.29.29h.565a.388.388 0 00.087-.01.387.387 0 00.01-.087v-.58"/><path fill="#176186" d="M6.97 4.651h-.29a.387.387 0 01.386.386v1.057l.29-.077v-.98a.387.387 0 00-.386-.386"/><path fill="#00457a" d="M7.356 6.017l-.29.077v1.757l.29.077V6.017"/><path fill="#023260" d="M7.066 7.85v1.338a.387.387 0 01-.386.386h.29a.387.387 0 00.386-.386v-1.26l-.29-.077"/><path fill="#02386b" d="M5.787 8.957l.617.617-.617-.617"/><path fill="#022d56" d="M5.787 8.957l.617.617-.617-.617"/><path fill="#757575" d="M6.492 6.97a2.72 2.72 0 01-.09.696 2.686 2.686 0 01-.617 1.122.12.12 0 00-.034.083v.003a.12.12 0 01.034-.08A2.681 2.681 0 006.4 7.672a2.719 2.719 0 00.091-.701M6.11 4.65h-.006l-.323.324L5.76 5a.12.12 0 00-.016.06v.004a.12.12 0 01.016-.057l.019-.024.33-.33"/><path fill="#124e6b" d="M6.68 4.651h-.57l-.33.33-.019.025a.111.111 0 00.017.136 2.682 2.682 0 01.623 1.124l.001.006.664-.178V5.037a.387.387 0 00-.386-.386"/><path fill="#003762" d="M7.066 6.094l-.664.178a2.72 2.72 0 01.09.694v.005a2.719 2.719 0 01-.09.7l.664.18V6.094"/><path fill="#02284d" d="M6.401 7.672a2.681 2.681 0 01-.616 1.122.113.113 0 00.002.163l.618.617h.275a.387.387 0 00.386-.386V7.85l-.665-.18"/><rect width="4.633" height="4.633" x="2.434" y="4.651" fill="#0078d4" rx=".386"/><path fill="#fff" d="M4.7 6.756a.979.979 0 01.064.173h.006a.832.832 0 01.063-.17l.585-1.102a.257.257 0 11.451.249l-.81 1.41a.255.255 0 00-.034.128v.714a.258.258 0 01-.258.257h-.052a.258.258 0 01-.258-.257v-.705a.258.258 0 00-.032-.126l-.796-1.424a.258.258 0 01.225-.383h.05a.257.257 0 01.23.14z"/></svg>