<svg data-tags="brand,yammer microsoft" xmlns="http://www.w3.org/2000/svg" viewBox="0 0 14 14"><path d="M6.159 3.18l-.411.421h-.01l-.478.479v.009m.011 5.826l.905.904-.905-.904m0 0l.905.904-.905-.904"/><path d="M5.26 4.09l.488-.489h-.01l-.478.479v.01l-.03.038a.18.18 0 00-.018.076.202.202 0 00.048.125 3.823 3.823 0 01.909 1.646m-.9 3.935a.129.129 0 01-.048-.115.121.121 0 01.01-.057v-.01a.168.168 0 01.038-.048v-.01c.096-.104.182-.21.268-.325a.847.847 0 00.115-.162c.01-.02.029-.048.038-.067a2.636 2.636 0 00.163-.278 3 3 0 00.144-.306c0-.01.01-.01.01-.02a4.021 4.021 0 00.162-.478A3.738 3.738 0 006.303 7m-.134 1.034a4.021 4.021 0 01-.163.478c0 .01-.01.01-.01.02a3 3 0 01-.143.306 1.62 1.62 0 01-.163.278"/><path d="M13.668 4.368a.664.664 0 00-.3-.425.618.618 0 00-.45-.093.318.318 0 00-.082.011l-1.008.267A10.058 10.058 0 009.635.25a.372.372 0 00-.06-.049.685.685 0 00-.926.03L5.927 2.953l-.37.378a.297.297 0 00-.048.04l-.234.234H.922a.566.566 0 00-.566.565v5.66a.566.566 0 00.566.565h4.36l3.377 3.37a.661.661 0 00.473.197.708.708 0 00.504-.215 9.923 9.923 0 002.2-3.856l.989.263a.67.67 0 00.195.029.653.653 0 00.326-.086.673.673 0 00.32-.439 11.801 11.801 0 00.002-5.29zM5.392 5.443L4.204 7.51a.374.374 0 00-.05.188v1.046a.378.378 0 01-.377.378H3.7a.378.378 0 01-.378-.378V7.711a.377.377 0 00-.048-.184L2.11 5.439a.378.378 0 01.33-.561h.074a.377.377 0 01.335.204l.83 1.607a1.432 1.432 0 01.094.254h.01a1.214 1.214 0 01.09-.248l.86-1.617a.377.377 0 11.66.365zM9.147.691a.31.31 0 00.037.03 9.417 9.417 0 012.02 3.58L7.147 5.397V4.17a.566.566 0 00-.565-.565h-.375zm-.029 12.615l-2.916-2.911h.379a.566.566 0 00.565-.566V8.63l4.076 1.097a8.934 8.934 0 01-2.104 3.579zm3.885-3.778l-1.293-.343-4.564-1.227V6.064l4.545-1.22a.283.283 0 00.058-.023l1.18-.32a.64.64 0 00.104.006 10.813 10.813 0 01-.03 5.021z"/></svg>