<svg data-tags="yelp" xmlns="http://www.w3.org/2000/svg" viewBox="0 0 14 14"><path d="M5.08 8.83l.64-.15.06-.01a.71.71 0 00.51-.85v-.01a.7.7 0 00-.11-.24.9.9 0 00-.26-.23 2.44 2.44 0 00-.38-.17l-.7-.26-1.2-.43c-.26-.1-.48-.17-.67-.23l-.1-.04a1.88 1.88 0 00-.54-.1.63.63 0 00-.27.05.68.68 0 00-.23.17 1.42 1.42 0 00-.09.11 1.36 1.36 0 00-.07.13 1.08 1.08 0 00-.07.14 3.67 3.67 0 00-.19 1.2 2.31 2.31 0 00.22 1.17.69.69 0 00.19.21.82.82 0 00.44.13 2.25 2.25 0 00.67-.1l2.14-.49zm7.19-3.42a3.66 3.66 0 00-.7-1 1.07 1.07 0 00-.12-.1 1.4 1.4 0 00-.12-.08 1.37 1.37 0 00-.14-.06.68.68 0 00-.28-.05.63.63 0 00-.26.07 1.9 1.9 0 00-.43.33l-.08.07-.5.5-.9.92-.51.54a2.44 2.44 0 00-.26.32.9.9 0 00-.14.32.71.71 0 000 .26v.01a.71.71 0 00.83.54h.07l2.79-.65a2.26 2.26 0 00.64-.21.82.82 0 00.34-.31.69.69 0 00.08-.27 2.3 2.3 0 00-.31-1.15zM7.28 6.58a1.66 1.66 0 00.22-.94l.17-3.1a10.74 10.74 0 00.04-1.17A1.72 1.72 0 007.5.4C7.12-.07 6.35-.03 5.82.04a5.06 5.06 0 00-.96.23c-.5.16-1.22.47-1.34 1.05a1.72 1.72 0 00.22.97 10.71 10.71 0 00.55 1.03L5.8 6.03a1.66 1.66 0 00.6.75.62.62 0 00.07.03.7.7 0 00.4.02h.03a.7.7 0 00.33-.2.64.64 0 00.05-.05zm-.24 2.77a.64.64 0 00-.72-.24.66.66 0 00-.09.03.86.86 0 00-.13.08 1.67 1.67 0 00-.3.31.75.75 0 01-.07.1l-.45.61-.75 1.04c-.16.23-.3.42-.41.6-.03.02-.05.06-.07.09a1.9 1.9 0 00-.24.49.64.64 0 00-.03.27.7.7 0 00.1.28 1.47 1.47 0 00.08.12 1.35 1.35 0 00.1.1 1.08 1.08 0 00.13.1 3.92 3.92 0 001 .5 3.55 3.55 0 00.92.17 1.1 1.1 0 00.16 0 1.03 1.03 0 00.29-.07.7.7 0 00.24-.15.64.64 0 00.15-.23 1.91 1.91 0 00.1-.54l.02-.12.04-.71.05-1.29.03-.76a1.82 1.82 0 00-.05-.55.81.81 0 00-.1-.23zm5.06 1.19a1.93 1.93 0 00-.44-.33l-.1-.06-.62-.35-1.14-.6-.67-.36a.75.75 0 01-.1-.05 1.67 1.67 0 00-.41-.15.87.87 0 00-.15-.01.67.67 0 00-.1 0 .65.65 0 00-.53.53.83.83 0 000 .26 1.82 1.82 0 00.2.51l.36.67.6 1.14.36.62.06.1a1.93 1.93 0 00.33.44.64.64 0 00.23.14.7.7 0 00.29.03 1.37 1.37 0 00.15-.02 1.4 1.4 0 00.14-.05 1.08 1.08 0 00.14-.06 3.56 3.56 0 00.75-.56 3.94 3.94 0 00.69-.89 1.1 1.1 0 00.07-.14 1.45 1.45 0 00.04-.14 1.43 1.43 0 00.03-.15.7.7 0 00-.04-.28.64.64 0 00-.14-.24z"/></svg>