<svg data-tags="yelp" xmlns="http://www.w3.org/2000/svg" viewBox="0 0 14 14"><circle cx="7" cy="7" r="7" fill="#ff1a1a"/><path fill="#fff" d="M5.63 8.3l.46-.1h.04a.5.5 0 00.36-.61v-.01a.5.5 0 00-.08-.17.64.64 0 00-.18-.17 1.74 1.74 0 00-.27-.12l-.5-.18-.86-.31-.48-.17-.07-.02a1.34 1.34 0 00-.38-.07.45.45 0 00-.2.03.49.49 0 00-.16.12 1.02 1.02 0 00-.07.08.97.97 0 00-.05.1.77.77 0 00-.04.1 2.62 2.62 0 00-.14.86 1.65 1.65 0 00.15.83.5.5 0 00.14.15.59.59 0 00.32.09 1.61 1.61 0 00.47-.07l1.53-.35zm5.13-2.44a2.62 2.62 0 00-.5-.7.77.77 0 00-.08-.08 1 1 0 00-.09-.06.98.98 0 00-.1-.04.49.49 0 00-.2-.04.45.45 0 00-.18.05 1.36 1.36 0 00-.31.24l-.06.05-.36.36-.63.65-.37.39a1.74 1.74 0 00-.19.23.64.64 0 00-.1.23.5.5 0 000 .18v.01a.5.5 0 00.6.39.5.5 0 00.04-.01l2-.46a1.61 1.61 0 00.45-.15.59.59 0 00.25-.22.5.5 0 00.06-.2 1.65 1.65 0 00-.23-.82zM7.2 6.7a1.19 1.19 0 00.16-.67l.12-2.21a7.67 7.67 0 00.03-.84 1.23 1.23 0 00-.16-.7c-.26-.33-.81-.3-1.2-.25a3.6 3.6 0 00-.68.16c-.36.12-.87.34-.95.75a1.23 1.23 0 00.15.7 7.66 7.66 0 00.4.73l1.07 1.94a1.19 1.19 0 00.44.54.44.44 0 00.04.01.5.5 0 00.3.02h.01a.5.5 0 00.24-.14.45.45 0 00.03-.04zm-.17 1.98a.46.46 0 00-.52-.18.47.47 0 00-.06.03.61.61 0 00-.09.06 1.2 1.2 0 00-.22.22.53.53 0 01-.05.06l-.32.44-.54.75-.29.42-.05.07a1.36 1.36 0 00-.17.35.46.46 0 00-.02.2.5.5 0 00.07.19 1.05 1.05 0 00.06.09.97.97 0 00.07.07.77.77 0 00.1.07 2.8 2.8 0 00.7.35 2.54 2.54 0 00.66.13.79.79 0 00.12 0 .74.74 0 00.2-.05.5.5 0 00.18-.1.46.46 0 00.1-.17 1.37 1.37 0 00.08-.39v-.08l.04-.51.03-.92.02-.54a1.3 1.3 0 00-.03-.4.58.58 0 00-.07-.16zm3.61.85a1.38 1.38 0 00-.31-.24l-.07-.04L9.81 9l-.8-.43-.49-.26a.54.54 0 01-.07-.03 1.2 1.2 0 00-.3-.1.62.62 0 00-.1-.02.47.47 0 00-.07 0 .46.46 0 00-.38.39.6.6 0 000 .18 1.3 1.3 0 00.14.36l.26.48.43.81.25.45.05.07a1.38 1.38 0 00.23.31.46.46 0 00.17.1.5.5 0 00.2.03.98.98 0 00.11-.02 1 1 0 00.1-.03.78.78 0 00.1-.05 2.54 2.54 0 00.54-.4 2.82 2.82 0 00.5-.63.78.78 0 00.04-.1 1.04 1.04 0 00.03-.1 1.02 1.02 0 00.02-.1.5.5 0 00-.03-.21.46.46 0 00-.1-.17z"/></svg>