<svg data-tags="zendesk" xmlns="http://www.w3.org/2000/svg" viewBox="0 0 14 14"><path fill="#78a301" d="M0-.013h14.013V14H0z"/><path d="M7.496 3.787l-.036.12q-.95 3.353-1.895 6.708c-.04.142-.092.16-.223.123q-1.598-.458-3.2-.904c-.117-.033-.161-.065-.12-.207q.96-3.36 1.904-6.726c.038-.133.087-.165.222-.125 1.065.306 2.133.604 3.198.909.056.016.148 0 .15.102z" fill="#fff"/><path d="M8.545 10.768c-.095.012-.078-.087-.093-.138-.184-.637-.362-1.276-.543-1.914-.124-.44-.244-.882-.376-1.32-.033-.112-.013-.153.1-.184q1.632-.453 3.26-.92c.124-.035.15.008.178.108q.457 1.629.92 3.256c.024.084.035.13-.073.16q-1.66.464-3.319.935l-.054.018z" fill="#02373e"/></svg>