<svg data-tags="zimbra" xmlns="http://www.w3.org/2000/svg" viewBox="0 0 14 14"><circle fill="#1B86C2" cx="7" cy="7" r="7"/><g fill="#FFF"><path d="M7.05 9.948c-.453.067-.906.131-1.366.102-1.096-.069-2.087-.4-2.912-1.157-1.024-.94-1.154-2.362-.303-3.451.072-.093.077-.165.041-.269-.121-.354-.231-.712-.351-1.067-.048-.142-.037-.269.076-.37.119-.108.25-.1.39-.03.4.197.803.386 1.203.581.072.035.134.05.213.018.97-.386 1.97-.442 2.988-.25.5.111.97.305 1.422.543.177.133.36.26.53.401 1.139.955 1.31 2.434.418 3.569-.258.328-.583.582-.923.818-.45.252-.929.433-1.427.562zm-1.54-.562c.001.036.027.024.047.024.468.037.933.025 1.39-.098.683-.136 1.288-.427 1.78-.92.696-.698.82-1.619.316-2.384-.492-.747-1.226-1.129-2.08-1.313a3.577 3.577 0 00-1.412-.096c-.487.013-.949.14-1.391.336a.473.473 0 01-.45-.008c-.23-.122-.47-.227-.739-.355.083.261.152.489.229.714.044.13.021.24-.07.34a4.378 4.378 0 00-.16.188c-.569.71-.596 1.575-.053 2.305.494.663 1.192 1.005 1.976 1.192.202.049.407.109.62.076l-.003-.001z"/><path d="M7.05 9.948c.497-.13.976-.31 1.426-.562.026.01.054.032.078.029.439-.071.877-.15 1.28-.348a.47.47 0 01.465.015c.226.12.46.223.723.35-.063-.198-.102-.37-.172-.527-.112-.255-.071-.447.12-.664.665-.756.67-1.712.012-2.476-.662-.767-1.545-1.088-2.531-1.167a5.648 5.648 0 00-1.422-.542c1.552-.271 2.984-.031 4.186 1.054 1.054.952 1.162 2.335.3 3.463-.062.082-.066.15-.036.24.118.35.229.702.345 1.052.05.148.062.29-.067.404-.128.113-.269.086-.41.018-.38-.185-.762-.363-1.138-.553a.344.344 0 00-.311-.017c-.903.349-1.833.42-2.783.256-.023-.004-.044-.016-.066-.025zm-1.537-.561c-.248-.184-.498-.365-.716-.587-1.068-1.085-1.019-2.69.115-3.712.2-.18.42-.333.64-.49a3.58 3.58 0 011.412.097c-.47.13-.919.308-1.32.594-1.337.953-1.322 2.518.032 3.45.39.269.824.434 1.272.573-.458.123-.923.135-1.391.098l-.047-.024.003.001z"/><path d="M6.956 8.43a1.704 1.704 0 01-1.282-.635c-.16-.196-.159-.386 0-.51.154-.121.32-.083.48.11a1.14 1.14 0 001.756-.003c.155-.188.333-.226.484-.106.153.122.15.322-.007.512-.332.403-.825.633-1.43.632zm-.322-2.192c0 .257-.21.468-.466.472a.47.47 0 01-.48-.476.47.47 0 01.484-.47.471.471 0 01.462.474zm1.736-.005a.463.463 0 01-.459.476.472.472 0 11-.007-.945.46.46 0 01.467.469z"/></g></svg>