<svg data-tags="zimbra" xmlns="http://www.w3.org/2000/svg" viewBox="0 0 14 14"><path fill="#3e84bc" d="M0 0h14v14H0z"/><path d="M7.05 9.948a6.516 6.516 0 0 1-1.366.102 4.565 4.565 0 0 1-2.912-1.157 2.48 2.48 0 0 1-.303-3.451.248.248 0 0 0 .041-.269c-.12-.354-.23-.712-.35-1.067a.32.32 0 0 1 .465-.4c.4.197.803.386 1.203.581a.239.239 0 0 0 .213.018 5.276 5.276 0 0 1 2.988-.25 5.714 5.714 0 0 1 1.422.543c.177.133.36.26.53.401A2.494 2.494 0 0 1 9.4 8.568a4.137 4.137 0 0 1-.923.818 5.963 5.963 0 0 1-1.427.562Zm-1.54-.562c.001.036.027.024.047.024a4.066 4.066 0 0 0 1.39-.098 3.382 3.382 0 0 0 1.78-.92 1.832 1.832 0 0 0 .316-2.384 3.139 3.139 0 0 0-2.08-1.313 3.577 3.577 0 0 0-1.412-.096 3.657 3.657 0 0 0-1.39.336.473.473 0 0 1-.45-.008c-.23-.122-.47-.227-.74-.355.083.261.152.489.23.714a.316.316 0 0 1-.07.34q-.083.092-.16.188a1.802 1.802 0 0 0-.054 2.305 3.29 3.29 0 0 0 1.976 1.192 1.588 1.588 0 0 0 .62.076Z" fill="#fff"/><path d="M7.05 9.948a6.014 6.014 0 0 0 1.426-.562c.026.01.054.032.078.029a4.468 4.468 0 0 0 1.28-.348.47.47 0 0 1 .465.015c.226.12.46.223.723.35a5.277 5.277 0 0 0-.172-.527.555.555 0 0 1 .12-.664 1.793 1.793 0 0 0 .012-2.476 3.547 3.547 0 0 0-2.53-1.167 5.648 5.648 0 0 0-1.423-.542 4.698 4.698 0 0 1 4.186 1.054 2.454 2.454 0 0 1 .3 3.463.23.23 0 0 0-.036.24c.118.35.23.702.345 1.052a.325.325 0 0 1-.477.422c-.38-.185-.762-.363-1.138-.553a.344.344 0 0 0-.31-.017 5.15 5.15 0 0 1-2.784.256.331.331 0 0 1-.066-.025Zm-1.537-.561a5.912 5.912 0 0 1-.716-.587 2.5 2.5 0 0 1 .115-3.712 7.125 7.125 0 0 1 .64-.49 3.58 3.58 0 0 1 1.412.097 4.126 4.126 0 0 0-1.32.594 1.979 1.979 0 0 0 .032 3.45 4.584 4.584 0 0 0 1.272.573 4.073 4.073 0 0 1-1.39.098l-.048-.024Z" fill="#fff"/><path d="M6.956 8.43a1.704 1.704 0 0 1-1.282-.635c-.16-.196-.159-.386 0-.51.154-.121.32-.083.48.11a1.14 1.14 0 0 0 1.756-.003c.155-.188.333-.226.484-.106.153.122.15.322-.007.512a1.785 1.785 0 0 1-1.43.632Zm-.322-2.192a.475.475 0 0 1-.466.472.47.47 0 0 1-.48-.46v-.016a.47.47 0 0 1 .47-.47h.014a.471.471 0 0 1 .462.474Zm1.736-.005a.463.463 0 0 1-.45.476h-.009a.473.473 0 1 1-.007-.945.46.46 0 0 1 .467.453v.016Z" fill="#fff"/></svg>