<svg data-tags="zoom" xmlns="http://www.w3.org/2000/svg" viewBox="0 0 14 14"><defs><radialGradient id="brand_zoom_clr__a" cx="7" cy="-678.443" r="9.438" gradientTransform="matrix(1 0 0 -.83578 0 -560.843)" gradientUnits="userSpaceOnUse"><stop offset=".82" stop-color="#235ff5" stop-opacity="0"/><stop offset=".98" stop-color="#113fab"/></radialGradient><radialGradient id="brand_zoom_clr__b" cx="7" cy="-679.748" r="9.434" gradientTransform="matrix(1 0 0 -.83578 0 -560.31)" gradientUnits="userSpaceOnUse"><stop offset=".8" stop-color="#235ff5" stop-opacity="0"/><stop offset="1" stop-color="#7ba4ea"/></radialGradient></defs><path d="M14 7a13.852 13.852 0 0 1-.175 2.198 5.601 5.601 0 0 1-4.627 4.627 13.884 13.884 0 0 1-4.396 0A5.601 5.601 0 0 1 .175 9.198a13.885 13.885 0 0 1 0-4.396A5.601 5.601 0 0 1 4.802.175a13.884 13.884 0 0 1 4.396 0 5.601 5.601 0 0 1 4.627 4.627A13.853 13.853 0 0 1 14 7Z" fill="#235ff5"/><path d="M14 7a13.852 13.852 0 0 1-.175 2.198 5.601 5.601 0 0 1-4.627 4.627 13.884 13.884 0 0 1-4.396 0A5.601 5.601 0 0 1 .175 9.198a13.885 13.885 0 0 1 0-4.396A5.601 5.601 0 0 1 4.802.175a13.884 13.884 0 0 1 4.396 0 5.601 5.601 0 0 1 4.627 4.627A13.853 13.853 0 0 1 14 7Z" fill="url(#brand_zoom_clr__a)"/><path d="M14 7a13.851 13.851 0 0 1-.175 2.198 5.601 5.601 0 0 1-4.627 4.627 13.883 13.883 0 0 1-4.396 0A5.601 5.601 0 0 1 .175 9.198a13.886 13.886 0 0 1 0-4.396A5.601 5.601 0 0 1 4.802.175a13.885 13.885 0 0 1 4.396 0 5.601 5.601 0 0 1 4.627 4.627A13.851 13.851 0 0 1 14 7Z" fill="url(#brand_zoom_clr__b)"/><path d="M8.5 8.75a.75.75 0 0 1-.75.75H4.5A1.5 1.5 0 0 1 3 8V5.25a.75.75 0 0 1 .75-.75H7A1.5 1.5 0 0 1 8.5 6Zm1.9-3.8-1.1.825a.75.75 0 0 0-.3.6v1.25a.75.75 0 0 0 .3.6l1.1.825a.375.375 0 0 0 .6-.3v-3.5a.375.375 0 0 0-.6-.3Z" fill="#fff"/></svg>