<svg data-tags="salesforce" xmlns="http://www.w3.org/2000/svg" viewBox="0 0 14 14"><path d="M13.998 7.262a.555.555 0 0 0-.495-.641h-5.25c-.466 0-.525.496-.525.525v5.687h6.27Zm-3.616 4.083a.492.492 0 0 1-.496.496h-.495a.511.511 0 0 1-.496-.496v-.495a.492.492 0 0 1 .496-.496h.495a.511.511 0 0 1 .496.496Zm0-2.479a.492.492 0 0 1-.496.496h-.495a.511.511 0 0 1-.496-.496v-.495a.492.492 0 0 1 .496-.496h.495a.511.511 0 0 1 .496.496Zm2.42 2.48a.492.492 0 0 1-.495.495h-.496a.511.511 0 0 1-.496-.496v-.495a.492.492 0 0 1 .496-.496h.496a.511.511 0 0 1 .496.496Zm0-2.48a.492.492 0 0 1-.495.496h-.496a.511.511 0 0 1-.496-.496v-.495a.492.492 0 0 1 .496-.496h.496a.511.511 0 0 1 .496.496Z"/><path d="M9.157 4.638v-2.83a.539.539 0 0 0-.466-.64H.525c-.467 0-.525.495-.525.524v11.14h6.27V5.718s0-.583.525-.583h1.896a.504.504 0 0 0 .466-.496Zm-6.503 6.474a.492.492 0 0 1-.496.496h-.467a.511.511 0 0 1-.495-.496v-.496a.492.492 0 0 1 .495-.496h.496a.511.511 0 0 1 .496.496v.496Zm0-2.508a.492.492 0 0 1-.496.496h-.467a.511.511 0 0 1-.495-.496v-.496a.492.492 0 0 1 .495-.496h.496a.511.511 0 0 1 .496.496v.496Zm0-2.479a.492.492 0 0 1-.496.496h-.467a.511.511 0 0 1-.495-.496V5.63a.492.492 0 0 1 .495-.495h.496a.511.511 0 0 1 .496.495v.496Zm0-2.479a.492.492 0 0 1-.496.496h-.467a.511.511 0 0 1-.495-.496V3.15a.492.492 0 0 1 .495-.495h.496a.511.511 0 0 1 .496.495v.496Zm2.654 7.466a.492.492 0 0 1-.496.496h-.496a.511.511 0 0 1-.496-.496v-.496a.492.492 0 0 1 .496-.496h.496a.511.511 0 0 1 .496.496Zm0-2.508a.492.492 0 0 1-.496.496h-.496a.511.511 0 0 1-.496-.496v-.496a.492.492 0 0 1 .496-.496h.496a.511.511 0 0 1 .496.496Zm0-2.479a.492.492 0 0 1-.496.496h-.496a.511.511 0 0 1-.496-.496V5.63a.492.492 0 0 1 .496-.495h.496a.511.511 0 0 1 .496.495Zm0-2.479a.492.492 0 0 1-.496.496h-.496a.511.511 0 0 1-.496-.496V3.15a.492.492 0 0 1 .496-.495h.496a.511.511 0 0 1 .496.495Zm2.654 0a.492.492 0 0 1-.496.496h-.467a.511.511 0 0 1-.496-.496V3.15A.492.492 0 0 1 7 2.655h.496a.511.511 0 0 1 .496.495v.496Z"/></svg>