<svg xmlns="http://www.w3.org/2000/svg" viewBox="0 0 14 14"><path d="M9.36 7.9H6.99a.79.79 0 00-.74.52h-.86a.77.77 0 00-.4-.44V6.02a.77.77 0 00.4-.44h.85a.79.79 0 00.74.53h2.37a.77.77 0 100-1.54H6.98a.79.79 0 00-.74.52h-.85a.77.77 0 00-.4-.43v-.99a.18.18 0 00-.17-.17h-.36a.18.18 0 00-.18.17v.99a.76.76 0 000 1.36v1.96a.76.76 0 000 1.36v.98a.18.18 0 00.18.18h.36a.18.18 0 00.18-.17v-.99a.77.77 0 00.38-.43h.87a.79.79 0 00.74.52h2.37a.77.77 0 100-1.54zM7 0a7 7 0 11-7 7 7 7 0 017-7z" fill-rule="evenodd"/></svg>
