<svg data-tags="ads,Advertising,break" xmlns="http://www.w3.org/2000/svg" viewBox="0 0 14 14"><path d="M3.819 7.42h1.12l-.57-1.55-.55 1.55zM10.059 5.58a2.478 2.478 0 0 0-.72-.09h-.55v3.02h.63c.16 0 .28 0 .37-.01a1.22 1.22 0 0 0 .26-.06.799.799 0 0 0 .22-.13 1.666 1.666 0 0 0 .45-1.33 2 2 0 0 0-.2-1 .837.837 0 0 0-.46-.4Z"/><path d="M12.5 1.48h-11A1.498 1.498 0 0 0 0 2.98v8.04a1.498 1.498 0 0 0 1.5 1.5h11a1.498 1.498 0 0 0 1.5-1.5V2.98a1.498 1.498 0 0 0-1.5-1.5ZM6.52 9.4a.566.566 0 0 1-.41.17.604.604 0 0 1-.24-.05.458.458 0 0 1-.17-.14 1.628 1.628 0 0 1-.13-.24l-.11-.26-.2-.53H3.47l-.2.54a2.474 2.474 0 0 1-.24.51.452.452 0 0 1-.39.17.55.55 0 0 1-.4-.16.533.533 0 0 1-.17-.38.655.655 0 0 1 .04-.23c.02-.07.06-.17.11-.3l1.35-3.42a2.495 2.495 0 0 1 .17-.33.791.791 0 0 1 .25-.23.89.89 0 0 1 .78 0 .792.792 0 0 1 .25.23 1.247 1.247 0 0 1 .15.28l.15.37 1.22 3.07a1.684 1.684 0 0 1 .15.55.533.533 0 0 1-.17.38Zm5.319-1.6a2.316 2.316 0 0 1-.24.67 2.183 2.183 0 0 1-.42.54 1.608 1.608 0 0 1-.45.3 2.229 2.229 0 0 1-.52.15 3.828 3.828 0 0 1-.61.04h-1.26a.918.918 0 0 1-.45-.09.488.488 0 0 1-.22-.29 1.577 1.577 0 0 1-.04-.41v-3.5a.691.691 0 0 1 .17-.53.749.749 0 0 1 .53-.17h1.26a3.59 3.59 0 0 1 .87.1 1.548 1.548 0 0 1 .68.36 2.508 2.508 0 0 1 .78 2.02 4.043 4.043 0 0 1-.08.81Z"/></svg>