<svg data-deprecated="solid/Add.svg" data-tags="sprinklr,Ai" xmlns="http://www.w3.org/2000/svg" viewBox="0 0 14 14"><defs><linearGradient
        id="solid_addAi_clr__a" x1="10.065" y1="-152.894" x2=".289" y2="-163.48" gradientTransform="matrix(1 0 0 -1 0 -149.213)" gradientUnits="userSpaceOnUse"><stop offset="0" stop-color="#de46e1"/><stop offset=".487" stop-color="#8e43ff"/><stop offset="1" stop-color="#0e61f6"/></linearGradient></defs><path d="M13.179 5.686H8.314V.821A.824.824 0 0 0 7.493 0h-.986a.824.824 0 0 0-.82.821v4.865H.82A.824.824 0 0 0 0 6.507v.986a.824.824 0 0 0 .821.82h4.865v4.866a.824.824 0 0 0 .821.821h.986a.824.824 0 0 0 .82-.821V8.314h4.866A.824.824 0 0 0 14 7.493v-.986a.824.824 0 0 0-.821-.82Z" fill="url(#solid_addAi_clr__a)"/></svg>
