<svg xmlns="http://www.w3.org/2000/svg" viewBox="0 0 11.697 14" data-tags="Add,column"><path d="M.322 5.25h2.333a.292.292 0 00.292-.292V.292A.292.292 0 002.655 0H.322A.292.292 0 00.03.292v4.667c0 .16.131.291.292.291zM7.03 0H4.697a.292.292 0 00-.292.292v4.667c0 .161.131.292.292.292H7.03a.292.292 0 00.292-.292V.292A.292.292 0 007.03 0zm4.375 0H9.072a.292.292 0 00-.292.292v13.417c0 .16.131.291.292.291h2.333a.292.292 0 00.292-.292V.292A.292.292 0 0011.405 0zM7 9.455H4.521V6.976a.292.292 0 00-.292-.292H3.062a.292.292 0 00-.292.292v2.479H.292A.292.292 0 000 9.747v1.167c0 .161.131.292.292.292h2.479v2.479c0 .161.131.292.292.292H4.23a.292.292 0 00.292-.292v-2.479H7a.292.292 0 00.292-.292V9.747A.292.292 0 007 9.455z"/></svg>