<svg data-tags="user,person,listen" xmlns="http://www.w3.org/2000/svg" viewBox="0 0 14 14"><path d="M11.985 1.053a.51.51 0 00-.697-.01.465.465 0 00-.151.335.46.46 0 00.14.339 5.588 5.588 0 01.33 7.734.46.46 0 00-.113.348.467.467 0 00.18.324.505.505 0 00.69-.063 6.513 6.513 0 00-.38-9.007zM.997 5.592a5.661 5.661 0 011.518-3.739.462.462 0 00-.044-.673.51.51 0 00-.695.042 6.506 6.506 0 00-.21 8.679.5.5 0 00.384.176.508.508 0 00.306-.102.469.469 0 00.184-.322.463.463 0 00-.107-.35 5.646 5.646 0 01-1.336-3.71zM7.12 8.005A1.996 1.996 0 105.124 6.01 1.998 1.998 0 007.12 8.005zm0 1.1a4.246 4.246 0 00-4.3 3.885h8.599a4.247 4.247 0 00-4.3-3.885z"/><path d="M10.61 5.862a3.406 3.406 0 01-.667 1.966.454.454 0 00-.084.353.469.469 0 00.206.31.507.507 0 00.685-.116 4.313 4.313 0 00-.07-5.225.507.507 0 00-.686-.1.47.47 0 00-.198.315.458.458 0 00.093.351 3.394 3.394 0 01.721 2.146zM3.333 8.345a.504.504 0 00.393.188.498.498 0 00.294-.094.465.465 0 00.196-.317.454.454 0 00-.096-.352 3.386 3.386 0 01-.147-4.033.461.461 0 00.07-.356.472.472 0 00-.217-.303.507.507 0 00-.267-.076.497.497 0 00-.413.215 4.31 4.31 0 00.187 5.128z"/></svg>