<svg data-tags="call,phone,screen,work" xmlns="http://www.w3.org/2000/svg" viewBox="0 0 14 14"><path d="M12.384.078H1.616A1.538 1.538 0 00.078 1.616v10.768a1.538 1.538 0 001.538 1.538h10.768a1.543 1.543 0 001.538-1.538V1.616A1.538 1.538 0 0012.384.078zm0 12.306H1.616v-9.23h10.768z"/><path d="M5.72 9.11a5.985 5.985 0 003.116 1.876 1.544 1.544 0 00.343.041.755.755 0 00.438-.11 7.439 7.439 0 00.717-.82.63.63 0 00-.07-.69l-.026-.025s-.83-.545-1.096-.727a.714.714 0 00-.611-.115l-.029.012a18.66 18.66 0 01-.721.42c-.034.014-.13-.032-.186-.08-.643-.618-1.632-1.587-1.723-1.72-.076-.112.115-.499.31-.695a.688.688 0 00-.016-.867 12.31 12.31 0 00-.845-1.075l-.035-.037h-.002a.505.505 0 00-.405-.158c-.399.024-.78.49-.971.767a1.105 1.105 0 00-.181.692l.005.026a9.079 9.079 0 001.989 3.286z"/></svg>