<svg data-tags="ai,checklist,auto,list" xmlns="http://www.w3.org/2000/svg" viewBox="0 0 14 14"><path d="M4.57 9.637h-.886a.591.591 0 1 1-.005-1.182h1.15a1.488 1.488 0 0 1 1.019-.606 1.467 1.467 0 0 1-.271-1.313H3.684a.591.591 0 1 1-.005-1.182h4.406a1.489 1.489 0 0 1 2.72-.13V1.319A1.206 1.206 0 0 0 9.602.114H1.205A1.206 1.206 0 0 0 0 1.319v9.27a1.206 1.206 0 0 0 1.205 1.205h4.33a1.494 1.494 0 0 1 .313-.952 1.49 1.49 0 0 1-1.279-1.205ZM3.68 2.27h4.534a.591.591 0 1 1 .004 1.182H3.684a.591.591 0 1 1-.005-1.182Zm-1.8 7.366a.591.591 0 1 1 .59-.591.591.591 0 0 1-.59.59Zm0-3.101a.591.591 0 1 1 .59-.591.591.591 0 0 1-.59.591Zm0-3.083a.591.591 0 1 1 .59-.59.591.591 0 0 1-.59.59Z"/><path d="m13.837 12.934-3.03-3.03h2.103a.558.558 0 1 0 0-1.117h-2.095l1.482-1.478a.558.558 0 0 0-.791-.79l-1.481 1.479v-2.09a.559.559 0 0 0-1.118 0v2.094L7.427 6.52a.558.558 0 1 0-.792.788l1.478 1.48H6.022a.558.558 0 1 0 0 1.115h2.094l-1.48 1.479a.558.558 0 0 0 .79.789l1.48-1.479v2.091a.559.559 0 0 0 1.119 0V10.7l3.02 3.022a.558.558 0 0 0 .395.164h.001a.558.558 0 0 0 .396-.952Z"/></svg>