<svg data-tags="alert,information,data,warning" xmlns="http://www.w3.org/2000/svg" viewBox="0 0 14 14"><path fill-rule="evenodd" clip-rule="evenodd" d="M7 0a7 7 0 10.001 14.001A7 7 0 007 0zm1.733 10.141c-.722.68-1.237 1.104-1.574 1.296-.348.2-.63.296-.862.296a.686.686 0 01-.525-.211c-.129-.138-.194-.327-.194-.562 0-.664.382-2.225 1.167-4.77a.985.985 0 00.047-.304h-.007a.566.566 0 00-.283.104c-.135.084-1.057.462-1.24.537a.13.13 0 01-.146-.209c.523-.575 1.008-.992 1.444-1.238.45-.253.826-.376 1.151-.376.195 0 .35.046.462.138a.494.494 0 01.179.395c0 .104-.053.42-.508 1.942-.54 1.813-.813 2.915-.813 3.278 0 .044.01.078.029.104.007.01.013.016.017.02.142-.028.87-.35 1.51-.652a.13.13 0 01.146.212zm-.085-6.357c-.183.2-.394.302-.627.302a.64.64 0 01-.482-.203.72.72 0 01-.19-.516c0-.265.087-.494.258-.68a.83.83 0 01.63-.287c.196 0 .36.067.489.198.127.13.192.298.192.498 0 .26-.091.49-.27.688z"/></svg>
