<svg data-tags="unlock,allowed,access granted,locked dashboard,open" xmlns="http://www.w3.org/2000/svg" viewBox="0 0 14 14"><path fill-rule="evenodd" d="M11.142 3.291h-.7A3.278 3.278 0 007.168.015H6.69A3.278 3.278 0 003.415 3.29H2.86a1.755 1.755 0 00-1.753 1.753v7.19a1.755 1.755 0 001.753 1.753h8.282a1.755 1.755 0 001.753-1.753v-7.19a1.753 1.753 0 00-1.752-1.752zm-4.45-1.965h.476A1.967 1.967 0 019.132 3.29l.002.001H4.727a1.966 1.966 0 011.964-1.965zM9.81 7.768l-3.075 3.074a.7.7 0 01-.99 0L4.189 9.286a.7.7 0 01.99-.99l1.062 1.06 2.58-2.578a.7.7 0 01.99.99z"/></svg>