<svg data-tags="sound,voice,on,announcement,declare,loud" xmlns="http://www.w3.org/2000/svg" viewBox="0 0 14 14"><path d="M8.47 2.17a.5.5 0 00-.78-.25L6 3.17l-5.34 4a1.98 1.98 0 001.14 3.46H2a2.54 2.54 0 005.02 0l1.27-.01h2a.5.5 0 00.48-.64zM4.5 11.6a1.35 1.35 0 01-1.3-.96H5.8a1.34 1.34 0 01-1.28.96zm4.14-1.97L6.9 3.76l.82-.61 1.9 6.47zM10.5 4.32a.5.5 0 00.36-.15l1.46-1.46a.5.5 0 00-.71-.7l-1.46 1.46a.5.5 0 00.35.85zM13.5 7.77h-1.75a.5.5 0 000 1h1.75a.5.5 0 100-1zM11.45 6.46l1.87-.73a.5.5 0 00-.36-.93l-1.87.72a.5.5 0 00.36.94z"/></svg>
