<svg data-tags="scheduled appointment,clock,time" xmlns="http://www.w3.org/2000/svg" viewBox="0 0 14 14"><path d="M11.694 6.452a.76.76 0 00.74.56h.01a.788.788 0 00.77-1 6.56 6.56 0 00-.54-1.25.777.777 0 00-1.24-.15.743.743 0 00-.12.91 6.264 6.264 0 01.38.93zm-5.92 5.93a4.765 4.765 0 01.456-9.258V4.31a.39.39 0 00.67.28l1.93-1.93a.363.363 0 00.12-.28.395.395 0 00-.12-.28L6.9.18a.39.39 0 00-.67.27l.045 1.061a6.348 6.348 0 00-.941 12.392.774.774 0 00.98-.76v-.02a.753.753 0 00-.54-.74zm6.67-3.78h-.01a.76.76 0 00-.75.57 4.952 4.952 0 01-.38.92.772.772 0 00.13.92.8.8 0 001.25-.16 6.886 6.886 0 00.53-1.26.784.784 0 00-.77-.99zm-2.14 3.53a.772.772 0 00-.92-.14 4.89 4.89 0 01-.91.39.76.76 0 00-.56.74v.03a.787.787 0 00.99.76 6.018 6.018 0 001.26-.53.781.781 0 00.17-1.23z"/><path d="M9.274 10.261a.579.579 0 00.49-.27.589.589 0 00-.2-.78l-1.96-1.14v-2.34a.57.57 0 00-1.14 0v2.54a.751.751 0 00.36.64l2.16 1.28a.543.543 0 00.29.07z"/></svg>