<svg data-tags="cancel appointment,decline,calendar,date" xmlns="http://www.w3.org/2000/svg" viewBox="0 0 14 14"><path d="M4.217 12.471V1.4l6.268.003a.799.799 0 01.799.798v3.374a4.76 4.76 0 011.398.572V2.201A2.2 2.2 0 0010.486.005L2.819.002v.003h-.482A1.195 1.195 0 001.14 1.193v.55h-.4a.699.699 0 100 1.398h.4v3.096h-.4a.699.699 0 100 1.398h.4v3.094h-.4a.699.699 0 100 1.398h.4v.536a1.21 1.21 0 001.208 1.208h1.587v-.003l3.14.002a4.81 4.81 0 01-1.101-1.398z"/><path d="M10.22 6.518a3.74 3.74 0 103.74 3.74 3.74 3.74 0 00-3.74-3.74zm1.66 4.553a.6.6 0 11-.848.848l-.813-.813-.813.813a.6.6 0 01-.848-.848l.813-.813-.813-.813a.6.6 0 01.848-.847l.813.813.813-.813a.6.6 0 01.848.847l-.813.813z"/></svg>