<svg data-tags="arrow, transaction, forward, front, ahead, point" xmlns="http://www.w3.org/2000/svg" viewBox="0 0 14 14"><path d="M6.207 10.39v.936c0 .012.006.021.007.033-.002.018-.011.034-.011.053a.694.694 0 00.196.487.707.707 0 001 .01l.009-.01 1.718-1.712a.702.702 0 00-.001-.992L7.408 7.478a.702.702 0 00-1.198.496v.002l-.002.012v1l-5.51-.001a.701.701 0 000 1.402zM12.064 2.091a.703.703 0 00-1.195.504v.002l-.002.012.006.999-5.509.035a.701.701 0 10.004 1.402h.005l5.509-.035.006.936c0 .012.006.022.007.033-.001.019-.01.035-.01.054a.693.693 0 00.199.485.707.707 0 001 .004l.008-.01L13.8 4.789a.702.702 0 00-.007-.991z"/></svg>