<svg data-tags="Learn,AI,Automation,Machine Learning,ML,Smart,Technology" xmlns="http://www.w3.org/2000/svg" viewBox="0 0 14 14"><path d="M12.44 5.83a1.15 1.15 0 00-1 .6H7.59v-1.9h2.47a.5.5 0 00.5-.5V2.5a1.17 1.17 0 10-1 0v1.02H7.6V1.28v-.02a.58.58 0 00-.03-.12.59.59 0 00-.03-.1.59.59 0 00-.05-.09.57.57 0 00-.08-.1L7.38.83a3.3 3.3 0 00-4.37 0 3.16 3.16 0 00-.86 2.68 2.46 2.46 0 00-1 .55A2.34 2.34 0 00.4 5.78a2.68 2.68 0 001.28 2.37 3.88 3.88 0 00-.48 1.98 4.15 4.15 0 001.07 2.74 3.64 3.64 0 005.14.13.58.58 0 00.1-.15l.03-.04a6.07 6.07 0 00.05-.22V10.5h3.06v.63a1.15 1.15 0 00-.59 1 1.17 1.17 0 002.34 0 1.15 1.15 0 00-.55-.97V9.9a.6.6 0 00-.6-.6H7.59V7.43h3.77a1.17 1.17 0 101.08-1.6z"/></svg>
