<svg xmlns="http://www.w3.org/2000/svg" viewBox="0 0 14 14"><path d="M7 .001A6.999 6.999 0 1 0 13.999 7 6.999 6.999 0 0 0 7 .001Zm4.124 10.586H2.876a.375.375 0 0 1-.376-.376V7.117a.377.377 0 0 1 .044-.178l1.782-3.328a.376.376 0 0 1 .331-.198l4.679.003a.375.375 0 0 1 .33.198l1.784 3.325a.376.376 0 0 1 .045.177l.005 3.095a.376.376 0 0 1-.376.376Z"/><path d="m9.112 4.167-4.23-.002-1.38 2.576h1.616v.376c0 .705.372.775.487.78h2.73a.502.502 0 0 0 .39-.14.962.962 0 0 0 .18-.615l-.027-.4h1.613ZM8.7 6.048H5.228a.376.376 0 1 1 0-.751H8.7a.376.376 0 1 1 0 .751Z"/></svg>