<svg data-tags="salesforce" xmlns="http://www.w3.org/2000/svg" viewBox="0 0 14 14"><path d="M12.685 0H1.315a.672.672 0 0 0-.657.658v11.369a.672.672 0 0 0 .657.658h1.457v.657A.672.672 0 0 0 3.43 14h.751a.672.672 0 0 0 .658-.658v-.68H9.16v.68A.672.672 0 0 0 9.82 14h.751a.672.672 0 0 0 .658-.658v-.68h1.457a.672.672 0 0 0 .657-.659V.658A.672.672 0 0 0 12.685 0ZM3.242 4.557a.22.22 0 0 1 .205-.235.218.218 0 0 1 .03 0h.94a.22.22 0 0 1 .234.235v3.524a.22.22 0 0 1-.235.234h-.94a.22.22 0 0 1-.234-.234Zm7.516 4.675a.22.22 0 0 1-.235.234H3.476a.22.22 0 0 1-.234-.234v-.235a.22.22 0 0 1 .234-.235h7.047a.22.22 0 0 1 .235.235ZM5.121 8.08V4.557a.22.22 0 0 1 .206-.235.218.218 0 0 1 .029 0h.47a.22.22 0 0 1 .234.206.218.218 0 0 1 0 .03V8.08a.22.22 0 0 1-.235.234h-.47a.22.22 0 0 1-.234-.205.218.218 0 0 1 0-.03Zm1.644 0V4.557a.22.22 0 0 1 .206-.235.218.218 0 0 1 .029 0h.94a.22.22 0 0 1 .234.235v3.524a.22.22 0 0 1-.234.234H7a.22.22 0 0 1-.235-.234Zm1.856 0V4.557a.235.235 0 1 1 .47 0v3.524a.235.235 0 1 1-.47 0Zm1.15 0V4.557a.22.22 0 0 1 .207-.235.218.218 0 0 1 .029 0h.47a.22.22 0 0 1 .234.235v3.524a.22.22 0 0 1-.234.234h-.47a.22.22 0 0 1-.235-.234Zm.987-4.464a.22.22 0 0 1-.235.235H3.476a.22.22 0 0 1-.234-.235v-.234a.22.22 0 0 1 .234-.235h7.047a.22.22 0 0 1 .235.235Z"/></svg>