<svg data-tags="user,arrow,assign,enter,in" xmlns="http://www.w3.org/2000/svg" viewBox="0 0 14 14"><path d="M.605 10.382h4.04l-1.13-1.12a.601.601 0 1 1 .85-.85l2.16 2.14a.576.576 0 0 1 .04.07.564.564 0 0 1 .09.59.599.599 0 0 1-.1.13.567.567 0 0 1-.03.06l-2.16 2.16a.601.601 0 0 1-.85-.85l1.13-1.13H.605a.6.6 0 0 1 0-1.2Z"/><path d="M7.765 11.402a.61.61 0 0 0 0-.87l-2.6-2.6a4.47 4.47 0 0 1 3.72-2h.64a4.48 4.48 0 0 1 4.47 4.45v2.28a.67.67 0 0 1-.67.67h-7.5ZM9.205 5.222a2.48 2.48 0 1 1 2.48-2.48 2.48 2.48 0 0 1-2.48 2.48Z"/></svg>