<svg data-tags="route to team,arrow,users" xmlns="http://www.w3.org/2000/svg" viewBox="0 0 14 14"><path d="M11.192 4.667a1.447 1.447 0 10-1.447-1.446 1.448 1.448 0 001.447 1.446zm1.82 1.011l.013-.005c-.036-.03-.078-.052-.115-.08a2.621 2.621 0 00-.16-.11 2.63 2.63 0 00-.252-.138c-.056-.027-.11-.056-.169-.079a2.558 2.558 0 00-.328-.102c-.044-.011-.086-.027-.13-.036a2.537 2.537 0 00-.493-.051h-.383a2.537 2.537 0 00-.493.051c-.045.009-.086.025-.13.036a2.576 2.576 0 00-.329.102c-.058.023-.112.052-.168.08a2.637 2.637 0 00-.252.137 2.586 2.586 0 00-.16.11c-.038.028-.08.05-.115.08l.013.005c-.059.048-.105.108-.16.16a4.59 4.59 0 01.444.242c.092.059.182.122.272.188a2.192 2.192 0 01.195.139 4.756 4.756 0 011.057 1.266 4.595 4.595 0 01.446 1.07 4.388 4.388 0 01.125.668h1.848a.391.391 0 00.392-.391V7.688a2.597 2.597 0 00-.968-2.01zM9.48 7.181c-.049-.04-.105-.07-.155-.107a3.53 3.53 0 00-.216-.15 3.57 3.57 0 00-.34-.184c-.076-.037-.15-.076-.228-.107a3.462 3.462 0 00-.443-.139c-.06-.015-.115-.036-.176-.048a3.426 3.426 0 00-.665-.069h-.516a3.425 3.425 0 00-.665.07c-.06.011-.117.032-.176.047a3.477 3.477 0 00-.444.139c-.078.031-.151.07-.227.107a3.565 3.565 0 00-.34.185 3.556 3.556 0 00-.216.149c-.05.037-.106.067-.155.107l.017.007-.017.017L5.775 8.46a1.306 1.306 0 01.282.42 1.309 1.309 0 01-.282 1.43l-1.668 1.67a1.3 1.3 0 01-.364.244l.015.003h6.482a.528.528 0 00.528-.528V9.9a3.504 3.504 0 00-1.306-2.713z"/><path d="M5.347 9.592a.54.54 0 00-.116-.587L3.562 7.337A.539.539 0 002.8 8.1l.748.748H1.56a.461.461 0 01-.462-.46V6.132a.539.539 0 00-1.078 0v2.255a1.54 1.54 0 001.54 1.538h1.989l-.748.748a.539.539 0 10.762.762L5.23 9.767a.538.538 0 00.116-.175zm1.659-3.768a1.952 1.952 0 10-1.952-1.952 1.954 1.954 0 001.952 1.952z"/></svg>