<svg xmlns="http://www.w3.org/2000/svg" viewBox="0 0 14 14"><path d="M13.44605,4.17667l-.77778-1.34556a.78582.78582,0,0,0-1.06555-.28778L8.55383,4.30889V.77778A.78007.78007,0,0,0,7.77605,0H6.22049a.78006.78006,0,0,0-.77777.77778V4.30889L2.38605,2.54333a.77246.77246,0,0,0-1.05778.28L.55049,4.16889a.77478.77478,0,0,0,.28,1.06555L3.88716,7,.83049,8.76556A.78582.78582,0,0,0,.54272,9.83111l.77777,1.34556a.78584.78584,0,0,0,1.06556.28778L5.44272,9.69111v3.53111A.78006.78006,0,0,0,6.22049,14H7.77605a.78007.78007,0,0,0,.77778-.77778V9.69111l3.05666,1.76556a.779.779,0,0,0,1.06556-.28778l.77778-1.34556a.779.779,0,0,0-.28778-1.06555L10.10938,7l3.05667-1.76556A.76754.76754,0,0,0,13.44605,4.17667Z"/></svg>