<svg data-tags="ribbon,ranking,appreciation,prize,reward" xmlns="http://www.w3.org/2000/svg" viewBox="0 0 11.91 14.43"><path d="M9.88 9.34l2.01 3.23a.13.13 0 01-.11.2l-1.7-.07a.14.14 0 00-.13.08l-.7 1.56a.14.14 0 01-.24.01L6.85 10.9a.15.15 0 00-.13-.07 4.56 4.56 0 01-.81.07 5.1 5.1 0 01-.71-.05.15.15 0 00-.13.06l-2.14 3.46a.14.14 0 01-.25-.02l-.7-1.55a.14.14 0 00-.12-.09l-1.7.07a.14.14 0 01-.14-.21L2 9.4a.15.15 0 00-.02-.17A5.46 5.46 0 017.13.14a5.38 5.38 0 014.11 4.11A5.49 5.49 0 019.9 9.2a.12.12 0 00-.02.14zm-3.71.47a4.37 4.37 0 10-3.5-1.46 4.4 4.4 0 003.11 1.46h.39z" fill-rule="evenodd"/><path d="M2.02 5.47A3.9 3.9 0 115.9 9.36 3.9 3.9 0 012 5.46zm5.22.19L8.3 4.57c.05-.04.02-.13-.02-.13L6.8 4.2a.22.22 0 01-.07-.05L6.01 2.8a.08.08 0 00-.15 0l-.71 1.36c-.02.03-.04.05-.07.05l-1.5.24a.09.09 0 00-.05.15L4.6 5.68l.01.06-.22 1.53a.07.07 0 00.1.08l1.39-.7a.07.07 0 01.08 0l1.38.68a.08.08 0 00.11-.08l-.23-1.52c-.01-.02 0-.05.02-.07z" fill-rule="evenodd"/></svg>
