<svg xmlns="http://www.w3.org/2000/svg" viewBox="0 0 14 14"><path d="M10.5 9.8L8.8 8 7 9.8l-1-1L7.8 7 6 5.2l1-1L8.8 6l1.8-1.8 1 1L9.8 7l1.8 1.8-1.1 1zm2-7.7H5.9c-.3 0-.7.2-1 .4L.2 6.6c-.2.2-.2.5 0 .7l4.7 4.1c.2.2.7.4 1 .4h6.6c.8 0 1.4-.6 1.4-1.4V3.5c0-.7-.7-1.4-1.4-1.4z" fill-rule="evenodd" clip-rule="evenodd"/><path d="M10.5 9.8L8.8 8 7 9.8l-1-1L7.8 7 6 5.2l1-1L8.8 6l1.8-1.8 1 1L9.8 7l1.8 1.8-1.1 1zm2-7.7H5.9c-.3 0-.7.2-1 .4L.2 6.6c-.2.2-.2.5 0 .7l4.7 4.1c.2.2.7.4 1 .4h6.6c.8 0 1.4-.6 1.4-1.4V3.5c0-.7-.7-1.4-1.4-1.4z"/><g clip-path="url(#solid_backspace__a)"><clipPath id="solid_backspace__a"><path d="M10.5 9.8L8.8 8 7 9.8l-1-1L7.8 7 6 5.2l1-1L8.8 6l1.8-1.8 1 1L9.8 7l1.8 1.8-1.1 1zm2-7.7H5.9c-.3 0-.7.2-1 .4L.2 6.6c-.2.2-.2.5 0 .7l4.7 4.1c.2.2.7.4 1 .4h6.6c.8 0 1.4-.6 1.4-1.4V3.5c0-.7-.7-1.4-1.4-1.4z"/></clipPath><path d="M-391-144.9h924v537h-924z"/></g></svg>
