<svg data-tags="quotes,quotation,formatting" xmlns="http://www.w3.org/2000/svg" viewBox="0 0 14 14"><path d="M3.033 11.584a1.227 1.227 0 001.1-.679l1.301-2.603a1.81 1.81 0 00.193-.816V3.333a.92.92 0 00-.917-.917H1.043a.92.92 0 00-.917.917V7a.92.92 0 00.917.917h1.834l-.945 1.888a1.227 1.227 0 001.1 1.779zm8.246 0a1.227 1.227 0 001.1-.679l1.302-2.603a1.81 1.81 0 00.193-.816V3.333a.92.92 0 00-.917-.917H9.29a.92.92 0 00-.917.917V7a.92.92 0 00.917.917h1.833l-.944 1.888a1.227 1.227 0 001.1 1.779z"/></svg>