<svg data-tags="board,asset,folder" xmlns="http://www.w3.org/2000/svg" viewBox="0 0 20.77 18.71"><path fill="#FFDCEC" d="M18.34.87H2.44c-.87 0-1.57.7-1.57 1.56v13.85c0 .86.7 1.56 1.56 1.56h15.9c.87 0 1.57-.7 1.57-1.56V2.43c0-.86-.7-1.56-1.56-1.56z"/><path fill="#FFB2D6" d="M18.34 0H2.44A2.44 2.44 0 000 2.43v13.85c0 1.34 1.1 2.43 2.43 2.43h15.9c1.35 0 2.44-1.09 2.44-2.43V2.43A2.44 2.44 0 0018.34 0zm1.56 16.28c0 .86-.7 1.56-1.56 1.56H2.44c-.87 0-1.57-.7-1.57-1.56V2.43c0-.86.7-1.56 1.56-1.56h15.9c.87 0 1.57.7 1.57 1.56v13.85z"/><path opacity=".6" fill="#FFB2D6" d="M11.76 2.7a.36.36 0 00-.34.36v3.39c0 .2.15.36.34.36h4.8c.2 0 .35-.16.35-.36v-3.4c0-.2-.16-.36-.35-.36h-4.8zm-7.55.13a.35.35 0 00-.34.35v12.33c0 .2.15.36.34.36h4.8c.2 0 .35-.16.35-.36V3.18c0-.2-.16-.35-.35-.35h-4.8zm7.55 5.64c-.19 0-.34.17-.34.37v6.81c0 .2.15.37.34.37h4.8c.2 0 .35-.16.35-.37V8.84c0-.2-.16-.37-.35-.37h-4.8z"/></svg>
