<svg data-tags="brand,shield,multiple brands" xmlns="http://www.w3.org/2000/svg" viewBox="0 0 14 14"><path d="M5.748 5.767a1.957 1.957 0 01-.863.87 1.947 1.947 0 01.865.887 1.947 1.947 0 01.864-.885 1.933 1.933 0 01-.503-.362 1.988 1.988 0 01-.363-.51z"/><path d="M12.85 1.139L7.24.029a.738.738 0 00-.21 0l-5.83.9a.628.628 0 00-.48.41.696.696 0 00-.05.25l.01.54c.06 5.16.12 10.03 6.35 11.83a.984.984 0 00.17.02.694.694 0 00.2-.03c5.37-1.87 5.88-7.29 5.93-12.21a.611.611 0 00-.48-.6zM5.974 8.453c-.018 0-.036.003-.06.006-.01.045-.02.09-.027.135a1.703 1.703 0 01-.286.698c-.097.14-.178.156-.316.061a2.948 2.948 0 01-.997-1.134 3.128 3.128 0 01-.328-1.257c-.003-.052-.009-.104-.013-.155-.086-.017-.164-.03-.241-.05a1.649 1.649 0 01-.573-.263c-.144-.104-.16-.18-.062-.327a2.96 2.96 0 012.16-1.323c.082-.01.164-.013.246-.02l.095-.009c.015-.077.028-.15.043-.221a1.707 1.707 0 01.249-.586.375.375 0 01.153-.153h.073a2.85 2.85 0 011.208 1.413 3.318 3.318 0 01.237 1.122c0 .021.003.043.005.073.035.007.07.016.105.02a1.744 1.744 0 01.735.299.201.201 0 01.055.322 2.941 2.941 0 01-1.852 1.273 3.033 3.033 0 01-.609.076zm4.96-.617A2.941 2.941 0 019.082 9.11a3.035 3.035 0 01-.61.076c-.017 0-.035.003-.06.006l-.026.134a1.703 1.703 0 01-.286.699c-.097.14-.178.156-.316.061a2.983 2.983 0 01-.772-.799A3.901 3.901 0 009.26 7.668a1.194 1.194 0 00-.317-1.712 2.907 2.907 0 00-.486-.268 3.966 3.966 0 00-.215-.727 1.702 1.702 0 01.12-.22.375.375 0 01.152-.154h.074A2.85 2.85 0 019.796 6a3.321 3.321 0 01.238 1.122c0 .021.003.043.004.072.036.008.07.017.106.022a1.744 1.744 0 01.734.298.2.2 0 01.056.322z"/></svg>