<svg data-tags="Brief,Builder" xmlns="http://www.w3.org/2000/svg" viewBox="0 0 14 14"><path d="M10.785 7.595c-1.773 0-3.215 1.437-3.215 3.203S9.012 14 10.785 14 14 12.564 14 10.798s-1.442-3.203-3.215-3.203zm1.826 3.617c0 .076-.038.114-.114.114H11.17v1.32c0 .075-.037.113-.113.113h-.682c-.076 0-.113-.038-.113-.113v-1.32H8.937c-.076 0-.114-.038-.114-.114v-.679c0-.075.038-.113.114-.113h1.326V9.1c0-.075.037-.113.113-.113h.682c.076 0 .113.038.113.113v1.32h1.326c.076 0 .114.038.114.113v.68zM6.585 8.7l-2.689.011a.75.75 0 0 0-.749.754.751.751 0 0 0 .753.745h.003l2.223-.01c.07-.535.225-1.038.459-1.5zm3.314-2.514a.75.75 0 0 0-.68-.438h-.004l-5.319.025a.75.75 0 0 0-.749.753.751.751 0 0 0 .753.745h.003l3.815-.017a4.688 4.688 0 0 1 2.18-1.068z"/><path d="M6.357 12.37H1.751c-.126 0-.127 0-.127-.127V2.842c0-.122 0-.122.121-.122h1.612c.104 0 .106.002.106.103v.608c0 .13.111.247.24.25l.063.001h5.4c.048 0 .095.002.14-.014a.246.246 0 0 0 .161-.218c.014-.212.004-.424.008-.636 0-.088.005-.094.092-.094h1.646c.097 0 .1.004.1.103V6.15c.58.065 1.125.23 1.623.487V1.67c0-.047-.001-.094-.005-.14a.449.449 0 0 0-.146-.297.521.521 0 0 0-.38-.13h-2.81c-.12 0-.12 0-.12-.117L9.469.265C9.467.105 9.367.006 9.207 0H3.8c-.036 0-.072 0-.107.004a.248.248 0 0 0-.199.131c-.031.056-.03.116-.03.176v.693c-.001.095-.004.098-.099.098H1.63l-1.12.001c-.249.001-.434.137-.49.355a.745.745 0 0 0-.019.19v11.784l.001.079a.475.475 0 0 0 .347.457c.069.021.141.018.213.018H7.34a4.682 4.682 0 0 1-.982-1.616z"/></svg>
