<svg data-tags="miss,transfer,forward call" xmlns="http://www.w3.org/2000/svg" viewBox="0 0 14 14"><path d="M2.258 2.197V6.99a.687.687 0 00.686.686H6.17a.686.686 0 000-1.372H3.63v-4.11l1.128.983a.691.691 0 00.45.168.686.686 0 00.452-1.203L3.394.17a.69.69 0 00-.45-.17.684.684 0 00-.452.17L.236 2.142a.686.686 0 00-.067.969.685.685 0 00.969.064z"/><path d="M13.683 2.345c-.397-.582-1.573-2.07-2.457-1.086a24.994 24.994 0 00-1.703 2.15s-.642.882-.075 1.453c.374.377.885 1.274.621 1.656-.264.382-3.518 3.518-3.518 3.518s-.372.326-.62.207c-.25-.118-1.45-.828-1.45-.828a1.23 1.23 0 00-1.034.207c-.544.379-2.22 1.49-2.22 1.49a1.068 1.068 0 00-.143 1.131 14.393 14.393 0 001.38 1.58 1.802 1.802 0 001.357.058c.94-.223 3.141-.748 6.156-3.762a18.607 18.607 0 004.015-6.539 1.936 1.936 0 00-.309-1.235z"/></svg>