<svg data-tags="phone,telephone,voice" viewBox="0 0 14 14" xmlns="http://www.w3.org/2000/svg"><path clip-rule="evenodd" d="M2.98.352c.992 1.104 1.829 2.31 1.829 2.31s.69.947.08 1.56c-.402.405-.95 1.368-.667 1.778C4.506 6.41 8 9.78 8 9.78s.4.35.667.222c.267-.127 1.556-.89 1.556-.89s.532-.179 1.111.223c.584.406 2.385 1.6 2.385 1.6s.512.645.153 1.215c-.36.57-1.482 1.696-1.482 1.696s-.447.302-1.458.063c-1.01-.24-3.373-.804-6.611-4.04C1.326 6.874.01 2.845.01 2.845s-.096-.701.33-1.326C.769.894 2.03-.705 2.98.352z" fill-rule="evenodd"/></svg>
