<svg data-tags="call back manager,redial,schedule call,phone" xmlns="http://www.w3.org/2000/svg" viewBox="0 0 14 14"><path d="M6.99 14A7.003 7.003 0 011.584 2.584 6.923 6.923 0 016.283.04 6.643 6.643 0 017.009 0a6.992 6.992 0 014.787 1.926l.155.148.575-.584a.861.861 0 01.6-.249.853.853 0 01.856.856v3.148a.854.854 0 01-.85.854H9.99a.845.845 0 01-.6-.251.859.859 0 01-.247-.606.84.84 0 01.252-.602l1.34-1.345-.16-.154a5.269 5.269 0 10-5.801 8.645 5.2 5.2 0 002.225.496 5.286 5.286 0 004.78-3.052.85.85 0 011.12-.364.859.859 0 01.394 1.145 7.023 7.023 0 01-5.585 3.951A6.851 6.851 0 016.99 14z"/><path d="M8.92 10.6a.754.754 0 00.437-.11 7.433 7.433 0 00.717-.82.63.63 0 00-.07-.691l-.025-.025s-.831-.544-1.097-.726a.714.714 0 00-.61-.115l-.03.012c-.208.125-.626.374-.721.42-.034.014-.13-.032-.186-.08-.643-.619-1.632-1.588-1.723-1.72-.076-.112.116-.5.31-.695a.688.688 0 00-.015-.868 12.305 12.305 0 00-.846-1.075l-.034-.036h-.003a.505.505 0 00-.405-.159c-.399.025-.78.491-.97.768a1.105 1.105 0 00-.182.691l.005.027a9.079 9.079 0 001.989 3.285 5.986 5.986 0 003.116 1.876 1.545 1.545 0 00.343.04z"/></svg>