<svg data-tags="call,phone,contact,csm activity" xmlns="http://www.w3.org/2000/svg" viewBox="0 0 14 14"><path d="M4.99 3.68c-.48-.53-1.1.27-1.32.58a1.04 1.04 0 00-.17.66 10 10 0 002.16 3.51 6.53 6.53 0 003.3 2.02.97.97 0 00.73-.03 7.73 7.73 0 00.75-.85.57.57 0 00-.08-.6l-.54-.36-.21-.15c-.18-.11-.35-.23-.44-.3a.66.66 0 00-.56-.1l-.29.17-.2.1a6.4 6.4 0 01-.29.17c-.13.06-.33-.11-.33-.11S5.75 6.71 5.61 6.5s.13-.69.33-.89c.3-.3-.04-.78-.04-.78A13.42 13.42 0 005 3.68zM7 0a7 7 0 11-7 7 7 7 0 017-7z" fill-rule="evenodd"/></svg>
