<svg data-tags="front camera,back camera,change" xmlns="http://www.w3.org/2000/svg" viewBox="0 0 14 14"><path d="M.071 3.42v8.315a1.39 1.39 0 001.386 1.386h11.086a1.39 1.39 0 001.386-1.386V3.421a1.39 1.39 0 00-1.386-1.386h-2.197L9.39.989a1.055 1.055 0 00-.769-.34H5.38a1.055 1.055 0 00-.77.34l-.955 1.046H1.457A1.39 1.39 0 00.071 3.421zm6.063 7.504a.518.518 0 01-.229-.866.498.498 0 01.492-.131A2.48 2.48 0 007 10.01a2.428 2.428 0 002.425-2.425h-.374a.343.343 0 01-.243-.59l.894-.893a.343.343 0 01.492 0l.894.894a.346.346 0 01-.243.589h-.38A3.466 3.466 0 017 11.049a3.58 3.58 0 01-.866-.125zM3.813 9.068l-.9-.901a.346.346 0 01.249-.59h.374A3.466 3.466 0 017 4.115a3.266 3.266 0 01.866.117.518.518 0 01.229.866.498.498 0 01-.492.132A2.477 2.477 0 007 5.153a2.428 2.428 0 00-2.425 2.425h.374a.343.343 0 01.243.589l-.894.9a.347.347 0 01-.485 0z"/></svg>