<svg data-tags="mic,campaign,schedule,calender" xmlns="http://www.w3.org/2000/svg" viewBox="0 0 14 14"><path d="M6.488 11.164a1.224 1.224 0 0 0 1.15-.842h-2.29a1.204 1.204 0 0 0 1.14.842Z"/><path d="M11.985 1.49h-.93V0h-1.49v1.49h-5.23V0h-1.49v1.49h-.84a1.641 1.641 0 0 0-1.59 1.59v9.43A1.548 1.548 0 0 0 2.005 14h9.99a1.561 1.561 0 0 0 1.59-1.49V3.08a1.658 1.658 0 0 0-1.6-1.59Zm-.841 9.253a.344.344 0 0 1-.253.355.36.36 0 0 1-.449-.252l-.15-.505H9.069v-.01h-.252v-.009h-.449a1.916 1.916 0 0 1-3.758 0h-.243a1.26 1.26 0 0 1-.71-.177 1.273 1.273 0 0 1-.59-.767c-.037-.121-.074-.243-.102-.374a1.28 1.28 0 0 1 .56-1.346c.963-.636 1.936-1.271 2.908-1.916.72-.468 1.43-.935 2.15-1.403l-.122-.411a.366.366 0 0 1 .243-.449.36.36 0 0 1 .45.253l1.58 5.497.317 1.084c.028.103.065.215.093.327a.192.192 0 0 1 0 .103Z"/><path d="M7.9 5.573 9.208 9.8c.262 0 .627-.019.926-.019L8.74 4.92c-.243.168-.626.514-.841.654Z"/></svg>