<svg data-tags="canvas,asset,alert,notification" xmlns="http://www.w3.org/2000/svg" viewBox="0 0 14 14"><defs><clipPath id="solid_canvasAssetAlert__a"><path d="M0 1.677h12.323V14H0z"/></clipPath></defs><g clip-path="url(#solid_canvasAssetAlert__a)"><path d="M11.553 1.677H.77a.77.77 0 0 0-.77.77V13.23a.77.77 0 0 0 .77.77h10.783a.77.77 0 0 0 .77-.77V2.447a.77.77 0 0 0-.77-.77Zm-2.31 9.242a.77.77 0 0 1-.771.77H3.85a.77.77 0 0 1-.77-.77v-.77a.77.77 0 0 1 .77-.77h4.62a.77.77 0 0 1 .771.77Zm0-3.08a.77.77 0 0 1-.771.77H3.85a.77.77 0 0 1-.77-.77V4.758a.77.77 0 0 1 .77-.77h4.62a.77.77 0 0 1 .771.77Z"/></g><path d="M10.899 0A3.101 3.101 0 1 0 14 3.101 3.102 3.102 0 0 0 10.899 0Zm0 3.411a.311.311 0 0 1-.31-.31v-1.24a.311.311 0 0 1 .31-.31.311.311 0 0 1 .31.31V3.1a.311.311 0 0 1-.31.31Zm0 1.24a.311.311 0 0 1-.31-.31.311.311 0 0 1 .31-.31.311.311 0 0 1 .31.31.311.311 0 0 1-.31.31Z" fill="#da4353"/><path d="M11.21 1.86a.31.31 0 0 0-.621 0v1.241a.31.31 0 1 0 .62 0ZM10.899 4.031a.31.31 0 1 0 .31.31.311.311 0 0 0-.31-.31Z" fill="#fff"/></svg>
