<svg data-tags="card view,alert,exclamation,issue,notification" xmlns="http://www.w3.org/2000/svg" viewBox="0 0 14 14"><path d="M.645 12.81h10.963a.588.588 0 0 0 .645-.5v-.5a.588.588 0 0 0-.645-.5H.645a.588.588 0 0 0-.645.5v.5a.588.588 0 0 0 .645.5ZM11.608 1.605H.645A.712.712 0 0 0 0 2.367v4.565a.712.712 0 0 0 .645.76h10.963a.712.712 0 0 0 .645-.76V2.367a.712.712 0 0 0-.645-.76ZM0 9.332v.485c0 .268.29.486.645.486h10.963c.355 0 .645-.218.645-.486v-.485c0-.268-.29-.486-.645-.486H.645c-.355 0-.645.218-.645.486Z"/><path d="M10.899 0A3.101 3.101 0 1 0 14 3.101 3.102 3.102 0 0 0 10.899 0Zm0 3.411a.311.311 0 0 1-.31-.31v-1.24a.311.311 0 0 1 .31-.31.311.311 0 0 1 .31.31V3.1a.311.311 0 0 1-.31.31Zm0 1.24a.311.311 0 0 1-.31-.31.311.311 0 0 1 .31-.31.311.311 0 0 1 .31.31.311.311 0 0 1-.31.31Z" fill="#da4353"/><path d="M11.21 1.86a.31.31 0 0 0-.621 0v1.241a.31.31 0 1 0 .62 0ZM10.899 4.031a.31.31 0 1 0 .31.31.311.311 0 0 0-.31-.31Z" fill="#fff"/></svg>