<svg data-tags="hand,heart,love,customer" xmlns="http://www.w3.org/2000/svg" viewBox="0 0 14 14"><path d="M13.011 1.507a1.46 1.46 0 01.763 1.291s.117.751-1.068 1.795a6.277 6.277 0 01-1.267.834.229.229 0 01-.176 0 6.276 6.276 0 01-1.267-.834C8.834 3.561 8.95 2.798 8.95 2.798a1.46 1.46 0 01.763-1.29 1.45 1.45 0 011.643.316h.011a1.45 1.45 0 011.643-.317zM12.48 7.93a1.043 1.043 0 01.818-.092.976.976 0 01.695.828.92.92 0 01-.501.951c-.245.133-.496.25-.747.368s-.5.235-.746.368A16.32 16.32 0 018.87 11.55a1.381 1.381 0 01-.542.05c-.801-.062-1.603-.135-2.4-.208l-1.086-.098a1.525 1.525 0 00-1.105.286c-.245.174-.49.348-.746.512a.274.274 0 01-.092.286l-.256.204a.28.28 0 01-.399-.04L.065 9.83a.28.28 0 01.041-.399l.256-.215a.277.277 0 01.317-.02c.051-.072.112-.143.174-.215.24-.215.49-.418.74-.622.167-.136.333-.271.497-.41.116-.1.236-.196.356-.294.166-.134.333-.27.493-.412a1.318 1.318 0 011.012-.337c.294.01.589.016.883.022.517.01 1.033.02 1.54.06a6.95 6.95 0 002.342-.287 1.011 1.011 0 011.176.409.97.97 0 01-.512 1.452c-.276.09-.56.16-.845.23-.169.04-.337.082-.504.128-.036.01-.07.023-.102.036s-.067.025-.103.035v.052c.019.003.036.008.053.013a.315.315 0 00.09.017q.206.02.41.042c.38.04.76.079 1.145.101a1.421 1.421 0 00.542-.143c.807-.368 1.615-.756 2.413-1.145z"/></svg>