<svg data-tags="Ai,wand,summary" xmlns="http://www.w3.org/2000/svg" viewBox="0 0 14 14"><path d="M5.105 9.74a1.414 1.414 0 0 1 1.25-1.403 1.362 1.362 0 0 1 .014-1.733h-3.34a.75.75 0 0 1 0-1.5h6.804a.74.74 0 0 1 .315.075 1.402 1.402 0 0 1 1.004 1.174 1.41 1.41 0 0 1 .88-.305 1.389 1.389 0 0 1 .78.265V1.374A1.373 1.373 0 0 0 11.439.002H1.373A1.373 1.373 0 0 0 0 1.374V11.44a1.373 1.373 0 0 0 1.373 1.373h4.951a1.402 1.402 0 0 1 .031-1.67 1.415 1.415 0 0 1-1.25-1.403ZM3.03 2.102h6.754a.75.75 0 0 1 0 1.5H3.029a.75.75 0 0 1 0-1.5Zm.06 7.504h-.06a.75.75 0 0 1 0-1.5h.06a.75.75 0 0 1 0 1.5Z"/><path d="m13.847 13.106-2.841-2.843h1.972a.523.523 0 1 0 0-1.046h-1.964l1.388-1.387a.524.524 0 0 0-.74-.74l-1.39 1.387V6.516a.524.524 0 0 0-1.048 0V8.48L7.835 7.09a.524.524 0 0 0-.742.74L8.48 9.217H6.52a.523.523 0 1 0 0 1.046h1.964l-1.39 1.387a.524.524 0 1 0 .742.74l1.389-1.387v1.961a.524.524 0 0 0 1.048 0v-1.953l2.833 2.834a.523.523 0 0 0 .37.153.523.523 0 0 0 .372-.892Z"/></svg>