<svg data-tags="catalog,inventory,file,register,record,index,directory" xmlns="http://www.w3.org/2000/svg" viewBox="0 0 14 14"><path d="M13.395 1.666h-1.85V3.58h1.844a.602.602 0 00.602-.602V2.26a.596.596 0 00-.596-.595zM13.395 4.922h-1.85v1.915h1.844a.602.602 0 00.602-.602v-.718a.596.596 0 00-.596-.595zM13.395 8.218h-1.85v1.916h1.844a.602.602 0 00.602-.602v-.718a.596.596 0 00-.596-.596z"/><path d="M12.013 11.595a.5.5 0 00-.5.5l-.003.67H2.524l-.387.003c-.43.008-.919.017-1.05-.112a.535.535 0 01-.078-.343v-.399h8.714a1 1 0 001-1V1.228a1.001 1.001 0 00-1-1H1.01a1.001 1.001 0 00-1 1v11.085a1.418 1.418 0 00.378 1.056 1.938 1.938 0 001.432.403c.11 0 .223-.002.335-.004l9.356-.004a1.005 1.005 0 001.003-1.004v-.665a.5.5 0 00-.5-.5zM2.833 3.56a.5.5 0 01.5-.5H7.4a.5.5 0 01.5.5v1.238a.5.5 0 01-.5.5H3.333a.5.5 0 01-.5-.5z"/></svg>
