<svg data-tags="search,report,magnify,bar chart,graph" xmlns="http://www.w3.org/2000/svg" viewBox="0 0 14 14"><path d="M2.091 2.104H.878A.88.88 0 0 0 0 2.982v9.026h2.96V2.979a.871.871 0 0 0-.869-.875ZM13.855 12.902l-2.103-2.104a2.573 2.573 0 1 0-.933.933l2.103 2.104a.453.453 0 0 0 .441.127.942.942 0 0 0 .62-.62.447.447 0 0 0-.128-.44Zm-3.997-1.783-.006.002A1.641 1.641 0 0 1 7.92 9.834l-.002-.011a1.63 1.63 0 0 1 1.273-1.922l.016-.003a1.643 1.643 0 0 1 .651 3.221ZM11.26 6.585c.035.02.063.047.097.068V4.769a.87.87 0 0 0-.868-.868H9.276a.878.878 0 0 0-.878.868v1.546a3.387 3.387 0 0 1 2.863.27Z"/><path d="M6.541 7.835a3.432 3.432 0 0 1 .586-.744V.875A.871.871 0 0 0 6.26 0H5.046a.88.88 0 0 0-.878.878v11.13H7.1a3.449 3.449 0 0 1-.559-4.173Z"/></svg>