<svg data-tags="live chat" xmlns="http://www.w3.org/2000/svg" viewBox="0 0 32 32"><path fill-rule="evenodd" d="M28.284 3.518A3.716 3.716 0 0132 7.234v14.458a3.716 3.716 0 01-3.716 3.716h-1.295l.61 3.886a.929.929 0 01-.046.467l-.048.108a.93.93 0 01-1.148.44l-.106-.048-9.261-4.853H3.716A3.716 3.716 0 010 21.692V7.234a3.716 3.716 0 013.716-3.716h24.568zM16 11.366a3.097 3.097 0 100 6.194 3.097 3.097 0 000-6.194zM7.53 12.64c-1.04 0-1.883.817-1.883 1.824s.843 1.824 1.882 1.824 1.883-.816 1.883-1.824-.843-1.824-1.883-1.824zm16.94 0c-1.039 0-1.882.817-1.882 1.824s.843 1.824 1.883 1.824 1.882-.816 1.882-1.824-.843-1.824-1.882-1.824z" clip-rule="evenodd"/></svg>