<svg data-tags="global warming,Temperature,climate,Environment" xmlns="http://www.w3.org/2000/svg" viewBox="0 0 14 14"><path d="M3.786 4.274a2.387 2.387 0 0 1 1.965-1.057 2.26 2.26 0 0 1 .645.093 1.502 1.502 0 0 0 .44.07c.768 0 1.15-.742 1.366-1.301l-.145-.061a2.283 2.283 0 0 0-.185-.076 5.607 5.607 0 0 0-2.213-.454A5.748 5.748 0 0 0 .438 4.852a5.014 5.014 0 0 0 1.732.404 1.802 1.802 0 0 0 1.616-.982ZM12.859 2.028a.786.786 0 1 0-1.573 0v1.368h1.573ZM10.201 8.473l.052-1.095H6.882a.51.51 0 0 0-.526.526.53.53 0 0 0 .141.37.596.596 0 0 0 .443.167 1.2 1.2 0 0 1 1.25 1.254 1.31 1.31 0 0 1-.313.868 1.208 1.208 0 0 1-.937.397H5.457a1.602 1.602 0 0 0-1.592 1.508 5.62 5.62 0 0 0 1.796.296 5.873 5.873 0 0 0 3.765-1.388 2.31 2.31 0 0 1-.196-.573 2.234 2.234 0 0 1 .971-2.33Z"/><path d="M5.447 10.242H6.93a.518.518 0 0 0 .53-.539.532.532 0 0 0-.588-.534 1.255 1.255 0 0 1 0-2.51l3.32.051.01-2.917a7.731 7.731 0 0 0-1.394-1.419c-.38 1.124-1.083 1.742-1.982 1.742a2.279 2.279 0 0 1-.652-.1 1.534 1.534 0 0 0-.438-.065 1.643 1.643 0 0 0-1.354.737 2.532 2.532 0 0 1-2.207 1.293 4.615 4.615 0 0 1-1.927-.478 5.536 5.536 0 0 0 .162 3.73 5.603 5.603 0 0 0 2.78 2.976 2.268 2.268 0 0 1 2.257-1.967ZM12.985 8.708a.238.238 0 0 1-.126-.215V3.886h-1.574v4.607a.248.248 0 0 1-.126.215 1.926 1.926 0 0 0 .918 3.626 1.885 1.885 0 0 0 1.36-.564 1.93 1.93 0 0 0-.452-3.062ZM11.454 10.4a.612.612 0 1 1 1.225 0 .612.612 0 0 1-1.225 0Z"/></svg>