<svg data-tags="data ingestion,data upload" xmlns="http://www.w3.org/2000/svg" viewBox="0 0 14 14"><path d="M6.959.041A7.045 7.045 0 000 7 6.959 6.959 0 106.959.041zm3.082 10.24H4.076a2.262 2.262 0 01-.497-4.474 1.607 1.607 0 011.59-1.392.896.896 0 01.498.1 2.797 2.797 0 012.386-1.293 2.903 2.903 0 012.883 2.585 2.445 2.445 0 011.391 2.187 2.312 2.312 0 01-2.286 2.287z"/><path d="M7.009 9.035a.298.298 0 01-.299-.298V5.96a.298.298 0 11.597 0v2.776a.297.297 0 01-.298.298z"/><path d="M5.965 7.303a.298.298 0 01-.21-.509l1.043-1.043a.298.298 0 11.421.42L6.176 7.217a.297.297 0 01-.211.087z"/><path d="M8.052 7.303a.296.296 0 01-.21-.087L6.798 6.172a.298.298 0 01.421-.421l1.044 1.043a.298.298 0 01-.21.509z"/></svg>