<svg data-tags="screen,video call,computer" xmlns="http://www.w3.org/2000/svg" viewBox="0 0 14 14"><path fill-rule="evenodd" d="M7.091 5.522V5.52a.186.186 0 00.052-.121.108.108 0 000-.043.202.202 0 00-.043-.099c-.003-.006-.009-.008-.012-.014l-.546-.57a.198.198 0 00-.284-.006.188.188 0 00-.06.148l-.003.009v.285h-.577a1.04 1.04 0 00-1.04 1.04v.51a1.033 1.033 0 00.304.735 1.05 1.05 0 00.736.305.274.274 0 000-.55.503.503 0 01-.347-.143.488.488 0 01-.144-.348v-.51a.492.492 0 01.49-.49h.578v.288l.003.008a.2.2 0 00.344.14l.546-.57zm1.291-.414a.274.274 0 000 .549.504.504 0 01.347.143.49.49 0 01.144.348v.51a.492.492 0 01-.49.49H7.9v-.287l-.003-.01a.2.2 0 00-.344-.138l-.547.57h-.002v.003a.186.186 0 00-.052.121.11.11 0 000 .043.202.202 0 00.043.099c.003.005.009.008.012.014l.546.57a.198.198 0 00.283.006.188.188 0 00.061-.148l.003-.008v-.285h.482a1.041 1.041 0 001.04-1.04v-.51a1.034 1.034 0 00-.304-.736 1.05 1.05 0 00-.736-.304z"/><path fill-rule="evenodd" d="M7 .004A6.996 6.996 0 1013.996 7 6.996 6.996 0 007 .004zm1.812 10.92h-3.68a.384.384 0 110-.768h3.68a.384.384 0 110 .768zm2.017-2.145a.729.729 0 01-.672.777H3.843a.73.73 0 01-.672-.777V4.026a.73.73 0 01.672-.777h6.314a.729.729 0 01.672.777z"/></svg>