<svg data-tags="screen,video call,computer" xmlns="http://www.w3.org/2000/svg" viewBox="0 0 14 14"><path d="M12.752 0H1.248A1.328 1.328 0 00.024 1.416v8.66a1.328 1.328 0 001.224 1.416h11.504a1.328 1.328 0 001.224-1.416v-8.66A1.328 1.328 0 0012.752 0zM5.648 5.19a.362.362 0 01-.11-.263c0-.005-.006-.01-.006-.015v-.525h-1.05a.896.896 0 00-.895.895v.928a.889.889 0 00.262.633.918.918 0 00.632.263.5.5 0 010 1 1.914 1.914 0 01-1.34-.556 1.882 1.882 0 01-.554-1.34v-.928A1.896 1.896 0 014.48 3.387h1.051v-.52c0-.005.006-.01.006-.016a.343.343 0 01.11-.268.361.361 0 01.517.01l.996 1.038c.005.01.015.016.02.027a.369.369 0 01.08.179.2.2 0 010 .079.34.34 0 01-.095.221v.005H7.16L6.165 5.18a.361.361 0 01-.517.01zm5.765 1.02A1.897 1.897 0 019.52 8.106h-.88v.519c0 .005-.005.01-.005.016a.343.343 0 01-.111.268.361.361 0 01-.516-.01l-.996-1.038c-.005-.01-.016-.016-.021-.026a.369.369 0 01-.08-.18.2.2 0 010-.079.34.34 0 01.096-.22V7.35h.005l.996-1.038a.364.364 0 01.627.253c0 .005.005.01.005.016v.525h.879a.896.896 0 00.894-.896v-.928a.891.891 0 00-.263-.634.918.918 0 00-.631-.26.5.5 0 010-1 1.914 1.914 0 011.34.554 1.885 1.885 0 01.554 1.34zM10.3 12.584H3.597a.7.7 0 000 1.4H10.3a.7.7 0 100-1.4z"/></svg>