<svg data-tags="embedded code,html" xmlns="http://www.w3.org/2000/svg" viewBox="0 0 14 14"><path d="M9.629 9.37a.78.78 0 001.098.124l2.846-2.272a.78.78 0 00-.006-1.226L10.721 3.77A.781.781 0 009.759 5l2.066 1.617-2.072 1.656a.78.78 0 00-.124 1.097zM7.13 1.417l-2.143 10.11a.783.783 0 00.603.926.844.844 0 00.163.017.782.782 0 00.764-.62L8.66 1.74a.783.783 0 00-.603-.927.792.792 0 00-.927.604zM4.188 3.825a.78.78 0 00-1.1-.117L.34 5.935a.783.783 0 00-.007 1.21l2.748 2.273a.783.783 0 00.997-1.207L2.067 6.55l2.005-1.625a.782.782 0 00.116-1.1z"/></svg>