<svg data-tags="points,advocacy,money,reward,gold" xmlns="http://www.w3.org/2000/svg" viewBox="0 0 15.62 15.73"><path d="M14 7.92v.34c0 1.88-3.13 3.4-7 3.4a11.12 11.12 0 01-5.33-1.2c.44 1.7 3.38 3.1 6.95 3.1 3.87 0 7-1.65 7-3.53a2.6 2.6 0 00-1.61-2.1" fill="#fcc62d" fill-rule="evenodd"/><path d="M8.62 13.56c-3.87 0-7-1.65-7-3.53v2.3c0 1.87 3.13 3.4 7 3.4s7-1.53 7-3.4v-2.3c0 1.88-3.13 3.53-7 3.53" fill="#e4af18" fill-rule="evenodd"/><path d="M2.42 13.93a4.38 4.38 0 00.54.41V12.1a4.48 4.48 0 01-.54-.44zM14.28 12.1v2.24a4.36 4.36 0 00.54-.41v-2.27a4.45 4.45 0 01-.54.44M3.5 14.66l.54.25V12.7q-.28-.12-.54-.26zM13.2 14.91l.54-.25v-2.23l-.54.26zM4.58 15.12l.54.17v-2.2l-.54-.18zM12.12 15.29l.54-.17V12.9q-.26.1-.54.17zM5.93 15.48l.53.1V13.4l-.53-.1zM10.77 15.58l.54-.1v-2.19q-.26.06-.54.1zM7.54 15.7l.54.03v-2.17l-.54-.03zM9.16 15.73l.54-.03v-2.17l-.54.03z" fill="#ce9912" fill-rule="evenodd"/><path d="M7 9.49c-3.86 0-7-1.65-7-3.53v2.3c0 1.88 3.14 3.4 7 3.4s7-1.52 7-3.4v-2.3c0 1.88-3.13 3.53-7 3.53" fill="#e4af18" fill-rule="evenodd"/><path d="M.8 9.86a4.38 4.38 0 00.55.41V8.03a4.5 4.5 0 01-.54-.44zM12.66 8.03v2.24a4.36 4.36 0 00.54-.41V7.59a4.45 4.45 0 01-.54.44M1.89 10.6l.53.24V8.62q-.28-.12-.53-.26zM11.58 10.84q.29-.12.54-.25V8.36q-.25.14-.54.26zM2.96 11.05l.54.17v-2.2l-.54-.18zM10.5 11.22l.54-.17V8.84q-.26.1-.54.18zM4.31 11.41l.54.1V9.33a11.8 11.8 0 01-.54-.1zM9.16 11.5l.54-.09V9.22l-.54.1zM5.93 11.63c.17.02.35.02.53.03V9.5c-.18 0-.36-.02-.53-.03zM7.54 11.66l.54-.03V9.46l-.54.03z" fill="#ce9912" fill-rule="evenodd"/><path d="M13.82 9.03c-.72 1.5-3.5 2.63-6.82 2.63a13.14 13.14 0 01-3.41-.43 9.18 9.18 0 005.03 1.24c3.69 0 5.93-1.44 5.93-2.44a1.36 1.36 0 00-.73-1M8.35 8.95c-3.87 0-7-1.52-7-3.4V4A2.43 2.43 0 000 5.97c0 1.88 3.14 3.52 7 3.52a11.3 11.3 0 004.81-.99 13.09 13.09 0 01-3.46.45" fill="#ffd949" fill-rule="evenodd"/><path d="M8.35 6.78c-3.87 0-7-1.65-7-3.53v2.3c0 1.87 3.13 3.4 7 3.4s7-1.53 7-3.4v-2.3c0 1.88-3.13 3.53-7 3.53" fill="#e4af18" fill-rule="evenodd"/><path d="M2.15 7.14a4.38 4.38 0 00.54.42V5.31a4.5 4.5 0 01-.54-.43zM14 5.31v2.25a4.36 4.36 0 00.55-.42V4.88a4.44 4.44 0 01-.54.43M3.23 7.88l.54.25V5.91l-.54-.27zM12.93 8.13l.54-.25V5.64l-.54.27zM4.31 8.34q.26.09.54.16V6.3l-.54-.17zM11.85 8.5q.28-.07.54-.16V6.13l-.54.17zM5.66 8.7l.54.1V6.6a11.8 11.8 0 01-.54-.1zM10.5 8.8l.54-.1V6.5q-.26.06-.54.1zM7.27 8.92l.54.03V6.78l-.54-.03zM8.89 8.95l.54-.03V6.75l-.54.03z" fill="#ce9912" fill-rule="evenodd"/><path d="M15.35 3.25c0 1.88-3.13 3.53-7 3.53s-7-1.65-7-3.53S4.48 0 8.35 0s7 1.37 7 3.25" fill="#fcc62d" fill-rule="evenodd"/><path d="M8.35 5.69c-3.69 0-5.93-1.44-5.93-2.44 0-.99 2.24-2.44 5.93-2.44s5.93 1.45 5.93 2.44c0 1-2.24 2.44-5.93 2.44" fill="#ffd949" fill-rule="evenodd"/><path d="M10.18 3.62c.22-.04.35-.18.3-.34l-.05-.17a.5.5 0 00-.36-.27c-.25-.52-.87-.71-1.79-.71h-.12a2.34 2.34 0 01-.88-.1.97.97 0 01-.23-.12c-.02-.02-.08 0-.08.01a.85.85 0 000 .14c.04.2 0 .17-.2.38a1.37 1.37 0 00-.27.4.5.5 0 00-.36.28l-.05.16c-.05.16.08.3.3.34a1.2 1.2 0 00.92.95l-.03.28a.24.24 0 01-.17.18l-1.18.43a11.45 11.45 0 002.35.23 11.5 11.5 0 002.33-.22l-1.16-.44a.24.24 0 01-.16-.18l-.04-.28a1.2 1.2 0 00.93-.95" fill="#f0c41b" fill-rule="evenodd"/></svg>
