<svg data-tags="users,collab,unify,discussion,circle" xmlns="http://www.w3.org/2000/svg" viewBox="0 0 14 14"><path d="M12.103 7.498c.077 0 .145 0 .216.005l.11.013-.02-.157a5.233 5.233 0 00-2.392-3.729l-.247-.148A2.925 2.925 0 017.22 5.37l-.224.008A2.944 2.944 0 014.3 3.673l-.078-.192-.212.126a5.236 5.236 0 00-2.445 3.908 1.823 1.823 0 01.325-.018 2.893 2.893 0 012.945 2.836A2.797 2.797 0 014.11 12.2l-.155.16.114.072a5.598 5.598 0 002.625.822l.322.01.336-.01a5.591 5.591 0 002.724-.894 2.744 2.744 0 01-.88-2.026 2.86 2.86 0 012.907-2.836z"/><path d="M1.893 8.51a1.934 1.934 0 00-1.087.332l-.015.011a1.801 1.801 0 00-.792 1.481 1.858 1.858 0 001.72 1.816l.174.008.17-.008a1.856 1.856 0 001.723-1.816A1.889 1.889 0 001.893 8.51zm10.214 0a1.864 1.864 0 00-1.893 1.824 1.837 1.837 0 001.248 1.715 1.936 1.936 0 00.477.102l.168.007.17-.008a1.822 1.822 0 00-.17-3.64zM6.998 4.366a1.864 1.864 0 001.894-1.824A1.848 1.848 0 006.998.737 1.864 1.864 0 005.105 2.56a1.849 1.849 0 001.893 1.805z"/></svg>