<svg data-tags="collab,collaborators" xmlns="http://www.w3.org/2000/svg" viewBox="0 0 14 14"><path d="M0 0v14h14V0Zm6.999 2.974H7a1.188 1.188 0 0 1 1.215 1.16 1.198 1.198 0 0 1-1.217 1.173h-.001a1.189 1.189 0 0 1-1.216-1.16 1.198 1.198 0 0 1 1.217-1.173Zm-3.172 7.337-.11.005-.111-.005A1.194 1.194 0 0 1 2.5 9.143a1.158 1.158 0 0 1 .509-.952l.01-.007a1.243 1.243 0 0 1 .698-.213 1.214 1.214 0 0 1 1.217 1.172 1.193 1.193 0 0 1-1.107 1.168Zm3.4.709-.217.006-.207-.006a3.598 3.598 0 0 1-1.687-.528l-.073-.046.1-.103a1.798 1.798 0 0 0 .466-1.2A1.86 1.86 0 0 0 3.716 7.32a1.168 1.168 0 0 0-.21.012A3.366 3.366 0 0 1 5.08 4.82l.136-.081.05.123a1.892 1.892 0 0 0 1.733 1.096l.144-.005a1.88 1.88 0 0 0 1.639-1.214l.159.095a3.364 3.364 0 0 1 1.537 2.397l.013.1-.071-.008c-.046-.003-.09-.003-.138-.003h-.016a1.838 1.838 0 0 0-1.853 1.823 1.764 1.764 0 0 0 .565 1.303 3.595 3.595 0 0 1-1.75.574Zm3.166-.71-.11.006-.108-.005a1.245 1.245 0 0 1-.306-.066 1.18 1.18 0 0 1-.803-1.102 1.198 1.198 0 0 1 1.217-1.172 1.171 1.171 0 0 1 .11 2.34Z"/></svg>