<svg data-tags="Community,Network,Group" xmlns="http://www.w3.org/2000/svg" viewBox="0 0 14 14"><path d="M8.024 14H.008C.005 13.995 0 13.99 0 13.987c.008-.325.005-.65.027-.974.033-.473.292-.778.73-.92.258-.082.523-.139.786-.207.328-.086.657-.168.956-.34.057-.032.113-.068.162-.11.248-.213.308-.463.173-.776-.092-.216-.207-.422-.306-.636a5.524 5.524 0 0 1-.484-1.554c-.079-.562-.055-1.113.216-1.626.264-.501.684-.802 1.226-.923.533-.119 1.053-.079 1.541.18.518.275.81.726.928 1.299.094.454.059.906-.036 1.355-.13.616-.37 1.19-.656 1.744-.07.134-.126.273-.135.425-.015.25.109.426.303.56.235.164.503.252.774.326.31.085.625.156.936.24.19.051.37.13.524.26.185.156.278.362.319.597.063.361.035.726.04 1.093zm3.974 0H8.891c0-.133.004-.266-.001-.398a4.962 4.962 0 0 0-.142-1.043 2.212 2.212 0 0 0-.705-1.129c-.253-.223-.48-.467-.61-.788a2.695 2.695 0 0 1-.191-.837 6.009 6.009 0 0 1-.017-.796c.05-.8.558-1.366 1.333-1.46.416-.052.814.005 1.172.241.346.228.542.561.623.967.104.523.018 1.03-.154 1.523-.106.305-.249.597-.375.894-.033.079-.074.155-.1.237a.476.476 0 0 0 .18.567c.189.142.408.215.63.277.282.078.57.14.849.226.288.088.501.268.569.583.024.115.04.233.044.35.007.192.002.385.002.586zM6.73 6.101l.823-1.32a.588.588 0 0 0 .095-.209c.022-.139-.055-.272-.12-.397-.532-1.044-.208-2.409.64-3.22C10.165-.957 14.39.34 14.006 3.403c-.258 2.05-2.802 3.116-4.572 2.302-.149-.069-.298-.15-.462-.158a1.072 1.072 0 0 0-.32.05c-.642.17-1.283.338-1.923.505zM8.816 2.67a.513.513 0 1 0 0 1.026.513.513 0 0 0 0-1.026zm1.709 0a.513.513 0 1 0 0 1.026.513.513 0 0 0 0-1.026zm1.71 0a.513.513 0 1 0 0 1.026.513.513 0 0 0 0-1.026z"/></svg>
