<svg data-tags="flags,benchmark,Opponents,Competitor,Opposite" xmlns="http://www.w3.org/2000/svg" viewBox="0 0 14 14"><path d="M13.994 3.755a.405.405 0 0 0-.005-.09.399.399 0 0 0-.003-.056c-.002-.006-.007-.01-.008-.016a.418.418 0 0 0-.043-.086.422.422 0 0 0-.035-.058.42.42 0 0 0-.065-.057.426.426 0 0 0-.063-.047c-.006-.003-.01-.01-.017-.012l-3.478-1.625a.517.517 0 0 0-.256-.56l-.026-.014-.234-.109a.523.523 0 0 0-.67.23l-.013.026L7 5.726 4.902 1.239A.485.485 0 0 0 4.309 1a.379.379 0 0 0-.042.017l-.304.138a.483.483 0 0 0-.25.558L.245 3.333a.425.425 0 0 0 .07.795l1.62.43-.704 1.522a.425.425 0 0 0 .565.564L5.251 5.03l1.038 2.217-2.31 4.94a.52.52 0 0 0 .266.67l.231.107a.516.516 0 0 0 .21.045.527.527 0 0 0 .46-.274l.014-.026L7 8.769l1.865 3.985a.485.485 0 0 0 .436.272.495.495 0 0 0 .157-.026.423.423 0 0 0 .048-.019l.284-.134a.49.49 0 0 0 .259-.588.432.432 0 0 0-.024-.063L7.712 7.249l1.04-2.222 3.451 1.617a.423.423 0 0 0 .18.04l.007-.002a.42.42 0 0 0 .172-.038c.01-.004.016-.013.025-.018a.398.398 0 0 0 .046-.034.41.41 0 0 0 .114-.128c.005-.01.016-.014.021-.024.003-.007.002-.013.005-.02a.505.505 0 0 0 0-.321c-.002-.006-.001-.013-.004-.019l-.705-1.522 1.62-.43a.407.407 0 0 0 .085-.042.392.392 0 0 0 .041-.02.416.416 0 0 0 .14-.158c.003-.005.008-.006.01-.01a.402.402 0 0 0 .013-.056.409.409 0 0 0 .021-.087ZM9.938 2.488l2.397 1.12-.978.258c-.011.003-.02.012-.03.016a.387.387 0 0 0-.04.009.4.4 0 0 0-.04.03.405.405 0 0 0-.065.047.41.41 0 0 0-.055.063.418.418 0 0 0-.04.066.4.4 0 0 0-.034.24.388.388 0 0 0 .002.048c.003.009.011.012.014.02a.394.394 0 0 0 .012.05l.428.926-2.398-1.124Z"/></svg>