<svg data-tags="salesforce" xmlns="http://www.w3.org/2000/svg" viewBox="0 0 14 14"><path d="M10.033 3.733h2.474a.319.319 0 0 0 .326-.326.3.3 0 0 0-.093-.234L9.66.093A.3.3 0 0 0 9.427 0 .319.319 0 0 0 9.1.327V2.8a.936.936 0 0 0 .933.933Z"/><path d="M12.367 5.133H9.1a1.404 1.404 0 0 1-1.4-1.4V.467A.468.468 0 0 0 7.233 0H2.567a1.404 1.404 0 0 0-1.4 1.4v11.2a1.404 1.404 0 0 0 1.4 1.4h8.866a1.404 1.404 0 0 0 1.4-1.4v-7a.468.468 0 0 0-.466-.467Zm-8.96 6.09a.723.723 0 1 1 .723-.723.727.727 0 0 1-.723.723Zm0-2.8A.723.723 0 1 1 4.13 7.7a.712.712 0 0 1-.723.723Zm1.143-3.71-1.027.537a.091.091 0 0 1-.14-.093l.187-1.144a.14.14 0 0 0-.023-.093l-.84-.817c-.024-.046.023-.14.093-.163l1.143-.163c.024 0 .07-.024.07-.047l.514-1.05a.11.11 0 0 1 .186 0l.514 1.05c.023.023.046.047.07.047l1.143.163c.07.023.117.117.047.163l-.84.817c-.024.023-.024.047-.024.093l.187 1.144a.091.091 0 0 1-.14.093l-1.027-.537a.071.071 0 0 0-.093 0Zm6.417 6.02a.468.468 0 0 1-.467.467H5.763a.468.468 0 0 1-.466-.467v-.466a.468.468 0 0 1 .466-.467H10.5a.468.468 0 0 1 .467.467Zm0-2.8a.468.468 0 0 1-.467.467H5.763a.468.468 0 0 1-.466-.467v-.466A.468.468 0 0 1 5.763 7H10.5a.468.468 0 0 1 .467.467Z"/></svg>