<svg data-tags="salesforce" xmlns="http://www.w3.org/2000/svg" viewBox="0 0 14 14"><path d="M12.6 2.24H1.4A1.404 1.404 0 0 0 0 3.64v6.72a1.423 1.423 0 0 0 1.4 1.4h11.2a1.386 1.386 0 0 0 1.4-1.4V3.64a1.386 1.386 0 0 0-1.4-1.4Zm-5.936 7.896H2.632a.902.902 0 0 1-.784-.952c.028-.7.756-1.12 1.512-1.456.532-.224.616-.448.616-.672a.86.86 0 0 0-.336-.616 1.54 1.54 0 0 1-.476-1.148A1.474 1.474 0 0 1 4.62 3.668a1.489 1.489 0 0 1 1.456 1.624A1.456 1.456 0 0 1 5.6 6.44a.813.813 0 0 0-.336.616c0 .224.056.448.616.644.756.336 1.484.784 1.512 1.484a.806.806 0 0 1-.728.952Zm5.46-1.624a.49.49 0 0 1-.476.476h-2.1a.472.472 0 0 1-.476-.476v-.7a.49.49 0 0 1 .476-.476h2.1a.472.472 0 0 1 .476.476Zm0-2.548a.49.49 0 0 1-.476.476H8.176a.472.472 0 0 1-.476-.476v-.7a.49.49 0 0 1 .476-.476h3.5a.472.472 0 0 1 .476.476v.7Z"/></svg>