<svg xmlns:xlink="http://www.w3.org/1999/xlink" data-deprecated="solid/Content.svg" data-tags="sprinklr,Ai" xmlns="http://www.w3.org/2000/svg"
      viewBox="0 0 14 14"><defs><linearGradient id="solid_contentAi_clr__a" x1="10.351" y1="-187.57" x2=".544" y2="-197.352" gradientTransform="matrix(1 0 0 -1 0 -183.36)" gradientUnits="userSpaceOnUse"><stop offset="0" stop-color="#de46e1"/><stop offset=".487" stop-color="#8e43ff"/><stop offset="1" stop-color="#0e61f6"/></linearGradient><linearGradient id="solid_contentAi_clr__b" x1="7.961" y1="-189.911" x2="5.188" y2="-194.488" xlink:href="#solid_contentAi_clr__a"/></defs><path d="M13.448 1.672c0-.047-.001-.094-.005-.141a.45.45 0 0 0-.145-.297.518.518 0 0 0-.379-.13h-2.802c-.12 0-.119 0-.12-.117q0-.36-.005-.722a.25.25 0 0 0-.261-.264L9.674 0H4.34a.966.966 0 0 0-.107.004.247.247 0 0 0-.198.132.34.34 0 0 0-.03.175v.694c0 .095-.004.098-.098.098H2.176l-1.117.001a.478.478 0 0 0-.49.355.75.75 0 0 0-.017.19v11.875a.475.475 0 0 0 .346.457.727.727 0 0 0 .213.019h11.773a.86.86 0 0 0 .19-.013.48.48 0 0 0 .374-.508ZM11.83 12.258c0 .124 0 .124-.124.124h-9.41c-.126 0-.126 0-.126-.128v-9.41c0-.121 0-.121.12-.121H3.9c.103 0 .105.002.105.103v.609a.255.255 0 0 0 .24.25h5.447a.388.388 0 0 0 .139-.014.246.246 0 0 0 .16-.218c.014-.212.004-.424.007-.637.002-.087.006-.093.093-.093h1.64c.098 0 .1.003.1.103Z" fill="url(#solid_contentAi_clr__a)"/><path d="M4.441 7.278a.75.75 0 0 1-.004-1.5l5.302-.024h.004a.75.75 0 1 1 .004 1.5l-5.303.024Zm0 2.942a.75.75 0 0 1-.004-1.5l5.302-.025h.004a.75.75 0 1 1 .004 1.5l-5.303.025Z" fill="url(#solid_contentAi_clr__b)"/></svg>
