<svg data-tags="master case,case,main,master" xmlns="http://www.w3.org/2000/svg" viewBox="0 0 14 14"><path d="M11.958 0H2.052a1.5 1.5 0 00-1.5 1.5v11a1.5 1.5 0 001.5 1.5h9.906a1.5 1.5 0 001.5-1.5v-11a1.5 1.5 0 00-1.5-1.5zM9.4 11.18H4.61a.5.5 0 010-1H9.4a.5.5 0 010 1zm.897-5.48h-.082l-.33 3.622a.089.089 0 01-.081.082H4.206a.089.089 0 01-.082-.082L3.794 5.7h-.082a.823.823 0 11.824-.823.917.917 0 01-.37.7l1.522 2.14c.041.041.165.041.165-.041l.946-3.252a.793.793 0 01-.617-.782.823.823 0 011.646 0 .803.803 0 01-.576.782l.946 3.252a.102.102 0 00.165.04l1.482-2.14a.917.917 0 01-.37-.699.823.823 0 11.822.823z"/></svg>