<svg xmlns="http://www.w3.org/2000/svg" viewBox="0 0 14 14"><path d="M13.5 2.841a.25.25 0 01-.25.25H.75a.25.25 0 01-.25-.25v-1a.25.25 0 01.25-.25h12.5a.25.25 0 01.25.25v1z"/><path d="M4.289 1.75a.25.25 0 01-.25.25h-1a.25.25 0 01-.25-.25V.25c0-.137.113-.25.25-.25h1c.137 0 .25.113.25.25v1.5zm6.922 0a.25.25 0 01-.25.25h-1a.25.25 0 01-.25-.25V.25a.25.25 0 01.25-.25h1c.137 0 .25.113.25.25v1.5zM6.536 6.452a.25.25 0 01-.25.25H4.285a.251.251 0 01-.25-.25v-2c0-.137.113-.25.25-.25h2.001a.25.25 0 01.25.25v2zm3.372 0a.25.25 0 01-.25.25H7.657a.25.25 0 01-.25-.25v-2a.25.25 0 01.25-.25h2.001a.25.25 0 01.25.25v2zm3.505 0c0 .137-.113.25-.25.25h-2.001a.251.251 0 01-.25-.25v-2c0-.137.113-.25.25-.25h2.001c.137 0 .25.113.25.25v2zM3.031 10.063a.25.25 0 01-.25.25H.78a.251.251 0 01-.25-.25v-2a.25.25 0 01.25-.25h2.001a.25.25 0 01.25.25v2zm3.505 0a.25.25 0 01-.25.25H4.285a.251.251 0 01-.25-.25v-2a.25.25 0 01.25-.25h2.001a.25.25 0 01.25.25v2zm3.372 0a.25.25 0 01-.25.25H7.657a.25.25 0 01-.25-.25v-2a.25.25 0 01.25-.25h2.001a.25.25 0 01.25.25v2zm3.505 0c0 .137-.113.25-.25.25h-2.001a.251.251 0 01-.25-.25v-2a.25.25 0 01.25-.25h2.001c.137 0 .25.113.25.25v2zM3.031 13.674a.25.25 0 01-.25.25H.78a.251.251 0 01-.25-.25v-2c0-.137.113-.25.25-.25h2.001a.25.25 0 01.25.25v2zm3.505 0a.25.25 0 01-.25.25H4.285a.251.251 0 01-.25-.25v-2c0-.137.113-.25.25-.25h2.001a.25.25 0 01.25.25v2zm3.372 0a.25.25 0 01-.25.25H7.657a.25.25 0 01-.25-.25v-2a.25.25 0 01.25-.25h2.001a.25.25 0 01.25.25v2z"/></svg>