<svg data-tags="scissors,cut,paper,doc" xmlns="http://www.w3.org/2000/svg" viewBox="0 0 14 14"><path d="M13.59 3.79L10.2.4a1.4 1.4 0 00-.99-.4h-5a1.4 1.4 0 00-1.4 1.4v2.72A2.75 2.75 0 014.5 7a2.68 2.68 0 01-.13.57l2.62-1.56a1.61 1.61 0 01.82-.22 1.6 1.6 0 011.52 1.1A1.64 1.64 0 019.3 8a1.61 1.61 0 01-.71.81l-1.16.67 1.13.6a1.62 1.62 0 01.71 2.1 1.64 1.64 0 01-1 .86 1.68 1.68 0 01-.46.07 1.6 1.6 0 01-.8-.22l-2.62-1.5a2.73 2.73 0 01-.48 2.57 1.4 1.4 0 00.29.04h8.4a1.4 1.4 0 001.4-1.4V4.78a1.4 1.4 0 00-.41-1zM9.8 4.9a.7.7 0 01-.7-.7V1.05l3.85 3.85z"/><path d="M2.87 10.96l1.36-.82 3.28 1.89a.6.6 0 00.3.08.65.65 0 00.18-.02.61.61 0 00.1-1.12L5.37 9.52 8.1 7.94a.62.62 0 00.28-.73.6.6 0 00-.36-.37.6.6 0 00-.21-.04.6.6 0 00-.3.08l-3.2 1.9-1.43-.74a1.77 1.77 0 00.63-1.15 1.76 1.76 0 00-1.75-1.97 1.93 1.93 0 00-.24.02 1.77 1.77 0 00-1.29.86 1.8 1.8 0 00.21 2.07 1.3 1.3 0 00.44.34l2.28 1.18-2.23 1.3a1.83 1.83 0 00-.85 1.01A1.76 1.76 0 001.76 14a1.76 1.76 0 001.74-2.05 1.38 1.38 0 00-.63-1zm-.64-4a.58.58 0 01-.47.27.55.55 0 01-.54-.62.55.55 0 01.27-.4.56.56 0 01.27-.07.53.53 0 01.2.04.54.54 0 01.33.36.55.55 0 01-.06.41zm.06 5.42a.53.53 0 01-.55.4h-.07a.54.54 0 01-.45-.59.54.54 0 01.17-.35.54.54 0 01.51-.13.54.54 0 01.34.25.55.55 0 01.05.42z"/></svg>