<svg data-tags="bug,rectify,troubleshoot" xmlns="http://www.w3.org/2000/svg" viewBox="0 0 14 14"><path d="M1.541 4.285h1.041a11.05 11.05 0 004.32.939h.122a11.204 11.204 0 004.34-.889l1.062-.008a.6.6 0 00-.005-1.2h-.005l-1.168.01h-.002a.608.608 0 00-.137.029.628.628 0 00-.095.02h-.002a10.028 10.028 0 01-1.54.513 4.615 4.615 0 00-.676-.423 2.551 2.551 0 001.287-2.13.6.6 0 10-1.199 0 1.463 1.463 0 01-.994 1.266 1.265 1.265 0 00-2.012 0 1.463 1.463 0 01-.995-1.266.6.6 0 10-1.199 0A2.55 2.55 0 004.97 3.274a4.597 4.597 0 00-.601.369 9.894 9.894 0 01-1.425-.504l-.01-.002a.604.604 0 00-.103-.024.62.62 0 00-.128-.026l-.007-.001H1.54a.6.6 0 000 1.2z"/><path d="M11.963 11.396l-.634-1.239a.573.573 0 00-.058-.073 5.733 5.733 0 00.356-1.972 5.622 5.622 0 00-.233-1.58l.633-.225 1.071.5a.6.6 0 10.508-1.088l-1.294-.604a.552.552 0 00-.059-.014.455.455 0 00-.334-.016.564.564 0 00-.062.009l-.911.324-.008-.016a11.003 11.003 0 01-3.995.755h-.13a11.048 11.048 0 01-3.959-.806l-.005.01-.706-.252a.583.583 0 00-.088-.012.597.597 0 00-.141-.02.592.592 0 00-.177.042c-.016.006-.033.004-.049.012l-.004.002h-.001l-1.289.601a.6.6 0 10.508 1.088l1.07-.5.42.15a5.557 5.557 0 00.176 3.786l-.59 1.153-1.288.963a.6.6 0 00.719.96l1.399-1.045a.588.588 0 00.166-.197l.009-.01.291-.57a4.71 4.71 0 002.462 1.71.51.51 0 00.648-.486V8.112a.5.5 0 011 0v4.63a.504.504 0 00.642.482 4.74 4.74 0 002.58-1.846l.352.688.01.01a.588.588 0 00.165.197l1.399 1.046a.6.6 0 00.718-.96z"/></svg>