<svg data-tags="text,paragraph,formatting,indentation" xmlns="http://www.w3.org/2000/svg" viewBox="0 0 14 14"><path d="M.733 2.697h12.535a.7.7 0 000-1.4H.733a.7.7 0 100 1.4zm12.535 1.935H7a.7.7 0 100 1.4h6.268a.7.7 0 000-1.4zm0 3.336H7a.7.7 0 100 1.4h6.268a.7.7 0 000-1.4zm0 3.335H.733a.7.7 0 100 1.4h12.535a.7.7 0 000-1.4zM1.023 3.95a.553.553 0 00-.185.442L.822 5.864v3.577a.677.677 0 00.186.442.694.694 0 00.448.162.558.558 0 00.448-.177L4.812 7.35a.576.576 0 00.185-.427.51.51 0 00-.17-.427L1.92 3.965a.673.673 0 00-.897-.014z"/></svg>