<svg data-tags="asset,word document" xmlns="http://www.w3.org/2000/svg" viewBox="0 0 14 14"><path d="M4.046 5.995a1.633 1.633 0 00-.476-.06h-.402v2.04h.461c.102 0 .181-.003.239-.008a.735.735 0 00.178-.041.484.484 0 00.16-.092 1.112 1.112 0 00.305-.89 1.31 1.31 0 00-.134-.667.6.6 0 00-.33-.282zm3.396.015a.841.841 0 00-.455-.124.822.822 0 00-.337.068.738.738 0 00-.267.2.973.973 0 00-.176.336 1.518 1.518 0 00-.065.458 1.556 1.556 0 00.065.463.969.969 0 00.182.344.761.761 0 00.272.204.81.81 0 00.335.068.824.824 0 00.43-.118.804.804 0 00.31-.36 1.395 1.395 0 00.117-.601 1.423 1.423 0 00-.106-.572.799.799 0 00-.305-.366z"/><path d="M12.063 0H1.937a1.5 1.5 0 00-1.5 1.5v11a1.5 1.5 0 001.5 1.5h10.126a1.5 1.5 0 001.5-1.5v-11a1.5 1.5 0 00-1.5-1.5zM5.082 7.442a1.46 1.46 0 01-.146.403 1.245 1.245 0 01-.252.32 1.035 1.035 0 01-.265.175 1.179 1.179 0 01-.308.092 2.319 2.319 0 01-.372.027h-.794a.494.494 0 01-.25-.05.233.233 0 01-.11-.142.92.92 0 01-.026-.236V5.826a.393.393 0 01.088-.285.394.394 0 01.285-.088h.794a2.152 2.152 0 01.531.057.991.991 0 01.403.215 1.523 1.523 0 01.468 1.223 2.413 2.413 0 01-.046.494zm3.293.144a1.365 1.365 0 01-.283.494 1.23 1.23 0 01-.463.32 1.828 1.828 0 01-1.261-.003 1.258 1.258 0 01-.465-.321 1.362 1.362 0 01-.282-.499 2.014 2.014 0 01-.096-.629 1.938 1.938 0 01.1-.636 1.36 1.36 0 01.288-.492 1.249 1.249 0 01.459-.31 1.655 1.655 0 01.615-.108 1.607 1.607 0 01.804.19 1.226 1.226 0 01.506.539 1.832 1.832 0 01.173.82 1.992 1.992 0 01-.095.635zm3.106.235a1.132 1.132 0 01-.61.589 1.397 1.397 0 01-.55.1 1.933 1.933 0 01-.432-.044 1.217 1.217 0 01-.353-.141 1.184 1.184 0 01-.293-.251 1.524 1.524 0 01-.203-.317 1.69 1.69 0 01-.126-.374 2.09 2.09 0 01-.042-.423 1.877 1.877 0 01.105-.65 1.387 1.387 0 01.303-.49 1.315 1.315 0 01.462-.312 1.496 1.496 0 01.563-.106 1.41 1.41 0 01.65.145 1.187 1.187 0 01.437.36.707.707 0 01.151.405.267.267 0 01-.073.185.235.235 0 01-.179.08.244.244 0 01-.174-.056.767.767 0 01-.131-.19.912.912 0 00-.28-.335.687.687 0 00-.397-.11.72.72 0 00-.598.285 1.29 1.29 0 00-.222.81 1.508 1.508 0 00.098.583.732.732 0 00.28.348.771.771 0 00.422.115.743.743 0 00.444-.13.787.787 0 00.273-.383.658.658 0 01.097-.194.218.218 0 01.185-.075.257.257 0 01.186.076.253.253 0 01.078.189.792.792 0 01-.071.31z"/></svg>