<svg data-deprecated="solid/DollarCircle.svg" data-tags="sprinklr,Ai" xmlns="http://www.w3.org/2000/svg"
     viewBox="0 0 14 14"><defs><linearGradient
        id="solid_dollarCircleAi_clr__a" x1="10.065" y1="-187.041" x2=".289" y2="-197.627" gradientTransform="matrix(1 0 0 -1 0 -183.36)" gradientUnits="userSpaceOnUse"><stop offset="0" stop-color="#de46e1"/><stop offset=".487" stop-color="#8e43ff"/><stop offset="1" stop-color="#0e61f6"/></linearGradient></defs><path d="M7 0a7 7 0 1 0 4.95 2.05A7 7 0 0 0 7 0Zm.863 10.49v.223a.863.863 0 0 1-1.726 0v-.235a2.288 2.288 0 0 1-1.675-1.303.585.585 0 0 1 .058-.546.596.596 0 0 1 .495-.265h.139a.609.609 0 0 1 .559.408c.164.42.597.632 1.286.632 1.129 0 1.217-.587 1.217-.766 0-.366-.166-.78-1.393-1.074-1.039-.249-2.419-.745-2.419-2.163a2.006 2.006 0 0 1 1.733-1.882v-.232a.863.863 0 0 1 1.726 0v.248a2.078 2.078 0 0 1 1.459 1.312.57.57 0 0 1-.068.533.597.597 0 0 1-.492.256h-.149a.58.58 0 0 1-.547-.433c-.123-.407-.472-.605-1.067-.605-.738 0-1.215.312-1.215.793 0 .361.234.646 1.396.947 1.195.311 2.416.826 2.416 2.296a1.908 1.908 0 0 1-1.733 1.857Z" fill="url(#solid_dollarCircleAi_clr__a)"/></svg>
