<svg data-tags="asset" xmlns="http://www.w3.org/2000/svg" viewBox="0 0 14 14"><path fill="#16AAD2" d="M11.217 14H2.783a1.598 1.598 0 01-1.598-1.598V1.606C1.185.723 1.9.008 2.783.008h8.434c.883 0 1.598.715 1.598 1.598v10.796c0 .883-.715 1.598-1.598 1.598z"/><path fill="#FFF" d="M10.292 1.74a.756.756 0 110 1.513.756.756 0 010-1.512zM2.608 8.608l2.51-4.615a.601.601 0 011.069-.003l2.478 4.618H2.608zm6.474 0L7.967 6.54l.873-1.32c.068-.111.186-.196.228-.17.078 0 .158.059.222.16l2.102 3.396h-2.31zm1.856 3.394H3.062a.436.436 0 01-.435-.436v-.713c0-.241.195-.436.435-.436h7.876c.24 0 .435.195.435.436v.713c0 .24-.195.436-.435.436z"/></svg>