<svg data-tags="asset,edb" xmlns="http://www.w3.org/2000/svg" viewBox="0 0 14 14"><path d="M10.552 7.287h-.628V8.1h.651c.546 0 .61-.236.61-.413a.322.322 0 0 0-.14-.296.933.933 0 0 0-.493-.103ZM7.085 5.994a1.786 1.786 0 0 0-.515-.065h-.363v2.14h.43c.112 0 .2-.003.263-.01a.742.742 0 0 0 .18-.041.474.474 0 0 0 .153-.087 1.193 1.193 0 0 0 .316-.946 1.419 1.419 0 0 0-.14-.71.582.582 0 0 0-.324-.28ZM10.836 6.553A.294.294 0 0 0 11 6.411a.344.344 0 0 0 .046-.175c0-.177-.074-.233-.13-.258a1.321 1.321 0 0 0-.524-.078h-.468v.697h.541a1.219 1.219 0 0 0 .37-.044Z"/><path d="M11.987 0H1.995A2.004 2.004 0 0 0-.009 2.004v9.992A2.004 2.004 0 0 0 1.995 14h9.992a2.004 2.004 0 0 0 2.004-2.004V2.004A2.004 2.004 0 0 0 11.987 0ZM4.626 8.712a.448.448 0 0 1-.312.1h-1.89a.536.536 0 0 1-.395-.129.542.542 0 0 1-.127-.392V5.709a.675.675 0 0 1 .054-.285.37.37 0 0 1 .185-.185.68.68 0 0 1 .283-.052h1.837a.444.444 0 0 1 .312.099.37.37 0 0 1 0 .53.453.453 0 0 1-.312.1H2.79v.652h1.346a.431.431 0 0 1 .303.096.339.339 0 0 1 .11.259.35.35 0 0 1-.107.26.43.43 0 0 1-.306.1H2.79v.786h1.524a.449.449 0 0 1 .312.1.36.36 0 0 1 .115.274.354.354 0 0 1-.115.27Zm3.763-1.137a1.723 1.723 0 0 1-.175.486 1.52 1.52 0 0 1-.308.392 1.287 1.287 0 0 1-.326.215 1.513 1.513 0 0 1-.379.114 2.827 2.827 0 0 1-.439.03h-.907a.65.65 0 0 1-.335-.07.365.365 0 0 1-.168-.218 1.144 1.144 0 0 1-.033-.296V5.709a.54.54 0 0 1 .129-.393.54.54 0 0 1 .393-.129h.907a2.52 2.52 0 0 1 .63.069 1.201 1.201 0 0 1 .499.267 1.832 1.832 0 0 1 .569 1.468 2.739 2.739 0 0 1-.057.584Zm3.529.734a.982.982 0 0 1-.44.376 1.506 1.506 0 0 1-.388.1 3.865 3.865 0 0 1-.487.027h-1.05a.513.513 0 0 1-.393-.132.544.544 0 0 1-.123-.39V5.71a.454.454 0 0 1 .517-.523h1.112a2.646 2.646 0 0 1 .443.032 1.004 1.004 0 0 1 .356.129.983.983 0 0 1 .24.205.92.92 0 0 1 .16.274.932.932 0 0 1 .055.318.847.847 0 0 1-.388.738.885.885 0 0 1 .549.855 1.034 1.034 0 0 1-.163.571Z"/></svg>