<svg data-deprecated="solid/Edit.svg"  data-tags="edit,text,write,compose,pencil" xmlns="http://www.w3.org/2000/svg" viewBox="0 0 14 14"><path d="M3.95 9.628H.7a.552.552 0 0 0-.39.16.56.56 0 0 0-.17.4.538.538 0 0 0 .17.39.522.522 0 0 0 .39.17h3.25a.522.522 0 0 0 .39-.17.538.538 0 0 0 .17-.39.56.56 0 0 0-.17-.4.552.552 0 0 0-.39-.16ZM13.01 1.678a1.756 1.756 0 0 0-2.46 0l-4.48 4.48a1.67 1.67 0 0 0-.44.89l-.34 1.68a.53.53 0 0 0 .01.25.46.46 0 0 0 .11.22.427.427 0 0 0 .2.15.494.494 0 0 0 .24.05l1.9-.33a1.168 1.168 0 0 0 .79-.45l4.47-4.48a1.51 1.51 0 0 0 .43-.6 1.73 1.73 0 0 0 .13-.74 1.728 1.728 0 0 0-.56-1.12Z"/></svg>