<svg data-tags="edit product variants,edit multiple" xmlns="http://www.w3.org/2000/svg" viewBox="0 0 14 14"><defs><clipPath id="editRecords_a"><path d="M0 0h14v14H0z"/></clipPath></defs><g clip-path="url(#editRecords_a)"><path d="M12.51 0H5a1.53 1.53 0 00-1.42.9h7.79a1.73 1.73 0 011.73 1.73v7.79A1.53 1.53 0 0014 9V1.49A1.49 1.49 0 0012.51 0z"/><path d="M10.78 1.72H3.25a1.53 1.53 0 00-1.39.9h7.79a1.73 1.73 0 011.73 1.73v7.79a1.53 1.53 0 00.9-1.39V3.21a1.49 1.49 0 00-1.5-1.49z"/><path d="M10.437 4.36a1.49 1.49 0 00-1.377-.92H1.53A1.53 1.53 0 000 5v7.47A1.53 1.53 0 001.53 14H9a1.53 1.53 0 001.55-1.54V4.93a1.49 1.49 0 00-.113-.57zM8.276 7.413a1.13 1.13 0 01-.322.448l-3.34 3.349a.873.873 0 01-.591.336l-1.42.247a.37.37 0 01-.18-.038.318.318 0 01-.149-.112.343.343 0 01-.082-.164.397.397 0 01-.008-.187l.254-1.256a1.248 1.248 0 01.33-.665l3.348-3.348a1.312 1.312 0 011.838 0 1.199 1.199 0 01.322 1.39z"/></g></svg>