<svg data-tags="edit,image,picture,file,pencil,media" xmlns="http://www.w3.org/2000/svg" viewBox="0 0 14 14"><path d="M4.215 5.294a1.147 1.147 0 0 0 1.26-.253 1.175 1.175 0 0 0 0-1.65 1.149 1.149 0 0 0-1.635 0 1.175 1.175 0 0 0 0 1.65 1.156 1.156 0 0 0 .375.253Z"/><path d="M4.658 3.048a1.15 1.15 0 0 0-.818.342 1.175 1.175 0 0 0 0 1.651 1.148 1.148 0 0 0 1.635 0 1.175 1.175 0 0 0 0-1.65 1.15 1.15 0 0 0-.817-.343ZM1.512 13a.501.501 0 0 1-.5-.5v-2.179a2.224 2.224 0 0 0 2.041 1.354h1.36L4.118 13ZM11.611 1.99a2.24 2.24 0 0 0-.824-.99h.324a.501.501 0 0 1 .5.5ZM1.012 1.5a.501.501 0 0 1 .5-.5h.323a2.24 2.24 0 0 0-.823.987Z"/><path d="M11.11 0H1.512a1.5 1.5 0 0 0-1.5 1.5v11a1.5 1.5 0 0 0 1.5 1.5h3.59a1.31 1.31 0 0 1-.033-.677l.42-1.874a1.139 1.139 0 0 1 .337-.621l.152-.153H3.053a1.226 1.226 0 0 1-1.22-1.231v-6.58a1.226 1.226 0 0 1 1.22-1.23h6.516a1.226 1.226 0 0 1 1.22 1.23v3l.23-.229a2.17 2.17 0 0 1 1.546-.63c.015 0 .03.004.045.004V1.5a1.5 1.5 0 0 0-1.5-1.5ZM11.11 14a1.5 1.5 0 0 0 1.5-1.5v-1.782L9.328 14Z"/><path d="M12.61 10.718 9.328 14h1.782a1.5 1.5 0 0 0 1.5-1.5v-1.782ZM7.397 12.084l5.035-5.035a.188.188 0 0 1 .132-.044.422.422 0 0 1 .29.13.412.412 0 0 1 .134.27.19.19 0 0 1-.048.155l-5.043 5.043-.651.15Z"/><path d="M12.564 6.005000000000001a1.174 1.174 0 0 0-.84.337l-5.192 5.192a.225.225 0 0 0-.067.135l-.216.956-.204.916a.358.358 0 0 0 .344.422.314.314 0 0 0 .07-.008l.929-.208 1.002-.233.004-.004a.647.647 0 0 0 .088-.078l5.166-5.167a1.177 1.177 0 0 0 .339-.896 1.402 1.402 0 0 0-.425-.94 1.42 1.42 0 0 0-.998-.424ZM7.405 7.674l.068.093-.422.421.354-.514z"/><path d="M7.379 6.111h-.005a.216.216 0 0 0-.097.025.218.218 0 0 0-.076.068L5.793 8.255a.168.168 0 0 1-.13.074h-.009a.166.166 0 0 1-.066-.014.169.169 0 0 1-.062-.045l-.939-1.076a.216.216 0 0 0-.16-.07h-.013a.215.215 0 0 0-.091.027.217.217 0 0 0-.072.064L2.878 9.14a.223.223 0 0 0 .175.353v-.007h4.114l1.624-1.624-1.24-1.665a.216.216 0 0 0-.172-.087Z"/></svg>