<svg data-tags="mail,email,message,conversation" xmlns="http://www.w3.org/2000/svg" viewBox="0 0 14 14"><path d="M13.06 1.94H.94a.946.946 0 00-.94.948v8.078a.946.946 0 00.94.947h12.12a.946.946 0 00.94-.947V2.888a.946.946 0 00-.94-.947zm-.841 7.709a.398.398 0 01.03.554.39.39 0 01-.55.03L8.365 7.22l-1.128.88a.386.386 0 01-.241.083.379.379 0 01-.24-.083l-1.093-.854-3.369 2.991a.369.369 0 01-.258.101.395.395 0 01-.293-.135h.001l-.01-.012a.385.385 0 01.049-.54L5.04 6.76 1.801 4.223l-.005-.004a.391.391 0 01-.065-.546l.004-.005a.384.384 0 01.542-.065l3.61 2.823 1.11.872 4.729-3.699.003-.002a.385.385 0 01.543.07l.003.005a.392.392 0 01-.071.547l-3.21 2.51z"/></svg>