<svg data-tags="call,phone" viewBox="0 0 14 14" xmlns="http://www.w3.org/2000/svg"><path clip-rule="evenodd" d="M13.072 9.288c-1.196-.064-2.362-.274-2.362-.274s-.934-.147-.936-.845c-.002-.46-.238-1.323-.634-1.396-.397-.072-4.314 0-4.314 0s-.428.029-.507.254c-.08.225-.38 1.396-.38 1.396s-.202.406-.762.507c-.565.102-2.274.448-2.274.448s-.661-.076-.781-.606S0 6.958 0 6.958s.082-.428.796-.868c.714-.44 2.384-1.467 6.08-1.468 3.418 0 6.469 1.547 6.469 1.547s.455.346.568.947c.113.6.305 2.233-.84 2.172z" fill-rule="evenodd"/></svg>