<svg data-tags="graph,bars,speech bubble" xmlns="http://www.w3.org/2000/svg" viewBox="0 0 14 14"><path d="M12.6 0H1.4A1.398 1.398 0 00.007 1.4L0 14l2.8-2.8h9.8A1.404 1.404 0 0014 9.8V1.4A1.404 1.404 0 0012.6 0zM4.312 8.035a.522.522 0 01-.562.469.522.522 0 01-.563-.47V5.613a.522.522 0 01.563-.469.522.522 0 01.562.469zm2.37 0a.522.522 0 01-.563.469.522.522 0 01-.562-.47V3.189a.522.522 0 01.562-.469.522.522 0 01.563.469zm2.37.101c0 .203-.252.368-.563.368s-.562-.165-.562-.368v-3.8c0-.202.252-.367.562-.367s.562.165.562.367zm2.37-.101a.571.571 0 01-1.125 0V3.188a.572.572 0 011.124 0z"/></svg>