<svg data-tags="eps,asset" xmlns="http://www.w3.org/2000/svg" viewBox="0 0 14 14"><path d="M12.044 0H1.918a1.5 1.5 0 00-1.5 1.5v11a1.5 1.5 0 001.5 1.5h10.126a1.5 1.5 0 001.5-1.5v-11a1.5 1.5 0 00-1.5-1.5zM5.351 8.393a.31.31 0 01-.216.066H3.48a.388.388 0 01-.286-.088.394.394 0 01-.087-.285v-2.26a.501.501 0 01.039-.214.238.238 0 01.122-.121.51.51 0 01.212-.038h1.608a.312.312 0 01.216.064.24.24 0 010 .34.312.312 0 01-.216.065H3.716v.739H4.98a.298.298 0 01.208.062.213.213 0 01.07.165.22.22 0 01-.068.167.297.297 0 01-.21.065H3.716v.855h1.419a.31.31 0 01.216.067.23.23 0 01.073.177.225.225 0 01-.073.174zm2.567-1.342a1.285 1.285 0 01-.843.238h-.557v.85a.398.398 0 01-.087.278.281.281 0 01-.217.093.285.285 0 01-.222-.092.4.4 0 01-.084-.275V5.826A.38.38 0 016 5.539a.426.426 0 01.294-.086h.781a2.026 2.026 0 01.534.053.79.79 0 01.318.17.76.76 0 01.204.291 1.02 1.02 0 01.07.388.857.857 0 01-.283.696zm2.936.996a.937.937 0 01-.412.34 1.535 1.535 0 01-.641.123 1.444 1.444 0 01-.735-.168.985.985 0 01-.333-.323.737.737 0 01-.128-.393.267.267 0 01.273-.268.23.23 0 01.163.061.485.485 0 01.114.183 1.192 1.192 0 00.124.24.495.495 0 00.188.158.687.687 0 00.317.063.72.72 0 00.44-.126.38.38 0 00.17-.314.335.335 0 00-.091-.244.594.594 0 00-.237-.142 4.36 4.36 0 00-.386-.105 2.798 2.798 0 01-.542-.177.868.868 0 01-.347-.277.717.717 0 01-.128-.435.752.752 0 01.135-.442.855.855 0 01.391-.296 1.6 1.6 0 01.604-.103 1.487 1.487 0 01.478.068 1.006 1.006 0 01.335.183.763.763 0 01.196.24.547.547 0 01.061.242.285.285 0 01-.077.197.243.243 0 01-.191.086.223.223 0 01-.16-.051.72.72 0 01-.118-.172.791.791 0 00-.196-.266.579.579 0 00-.37-.095.64.64 0 00-.38.104.303.303 0 00-.145.249.251.251 0 00.05.156.41.41 0 00.135.113.968.968 0 00.175.074c.058.017.155.043.29.077a4.651 4.651 0 01.46.132 1.381 1.381 0 01.351.174.713.713 0 01.226.26.821.821 0 01.081.384.892.892 0 01-.14.49z"/><path d="M6.928 5.91h-.41v.919h.41a1.212 1.212 0 00.36-.045.42.42 0 00.22-.148.44.44 0 00.076-.268.454.454 0 00-.117-.325.78.78 0 00-.539-.133z"/></svg>