<svg data-tags="exclude,minus,deny,leave out,cards" xmlns="http://www.w3.org/2000/svg" viewBox="0 0 14 14"><path d="M.872 3.018a1.313 1.313 0 0 1 .802-.64l1.604-.46H.326a.326.326 0 0 0-.327.326v9.158a.326.326 0 0 0 .327.328H3.13L.766 4.04a1.339 1.339 0 0 1 .106-1.022Z"/><path d="M11.159 1.041a.346.346 0 0 0-.41-.23l-3.14.91-1.89.54-.63.18-3.14.9a.322.322 0 0 0-.23.4l2.84 9.23a.317.317 0 0 0 .15.19.294.294 0 0 0 .16.04.277.277 0 0 0 .09-.01l8.8-2.52a.328.328 0 0 0 .23-.41Zm-.818 5.53L5.816 8.104a.7.7 0 1 1-.45-1.327l4.526-1.534a.7.7 0 0 1 .449 1.326Z"/></svg>