<svg data-tags="enlarge,view details,arrow" xmlns="http://www.w3.org/2000/svg" viewBox="0 0 14 14"><path d="M9.85 6.503l-.99-.98"/><path fill-rule="evenodd" d="M12.822.004l-6.6.272a1.438 1.438 0 00-.946.428 1.275 1.275 0 00-.112 1.793l6.329 6.329a1.127 1.127 0 00.9.314 1.476 1.476 0 001.321-1.372l.272-6.6A1.092 1.092 0 0012.822.004zM.002 12.824l.27-6.599a1.438 1.438 0 01.429-.946 1.275 1.275 0 011.793-.111l6.328 6.328a1.127 1.127 0 01.314.9 1.476 1.476 0 01-1.371 1.322l-6.6.27a1.092 1.092 0 01-1.164-1.163z"/></svg>