<svg xmlns="http://www.w3.org/2000/svg" viewBox="0 0 20 19.706"><path d="M8.684 0l.321.038c.287.034.565.066.83.11a.433.433 0 01.252.152 11.222 11.222 0 011.537 2.74.444.444 0 00.033.054.429.429 0 01.07.136H8.684zm-3.81 3.274h3.042V.044l-.321.038c-.287.033-.565.066-.83.11a.433.433 0 00-.251.151 11.218 11.218 0 00-1.537 2.74.451.451 0 01-.033.055.428.428 0 00-.07.136zm9.892-.053A8.288 8.288 0 0011.282.553l.033.09a1.447 1.447 0 00.056.139l.195.395c.284.58.569 1.157.86 1.732.049.095.172.31.253.312.427.013.882.009 1.353.004.24-.002.485-.004.732-.004zM5.324.575A8.31 8.31 0 001.83 3.239c.248 0 .494.002.735.004.472.004.929.008 1.357-.004.081-.003.205-.217.253-.312.295-.577.582-1.158.87-1.74l.19-.384a1.482 1.482 0 00.056-.14l.033-.088zm2.59 6.611H4.114a11.628 11.628 0 01.539-3.261H7.92l-.003 1.619v.002l-.002 1.64zm-3.802.718h3.803v3.05c-.072.004-.17.003-.261.002l-.12-.002c-.303 0-.611.002-.921.004-.583.004-1.17.008-1.74-.004a.26.26 0 01-.256-.138 9.852 9.852 0 01-.505-2.912zm-.76 0H.5a6.593 6.593 0 00.856 2.963l.014.028c.02.04.029.06.08.06.507.006 1.035.003 1.547.001H3l.733-.001c-.083-.531-.137-1.03-.19-1.53a30.133 30.133 0 00-.19-1.521zm.195-2.71c-.043.311-.085.62-.136.94a4.763 4.763 0 00-.05.693v.015c-.002.161-.002.167-.2.165-.442-.005-.89-.003-1.34-.001-.38.002-.758.003-1.132 0a.54.54 0 00-.046.004.426.426 0 01-.144-.003 7.494 7.494 0 01.658-2.599c.167-.4.403-.45.863-.452h1.712c-.074.436-.13.839-.185 1.238zm4.047 9.67l.32.038v-3.23H4.874a.427.427 0 00.07.136.446.446 0 01.034.055 11.219 11.219 0 001.537 2.74.434.434 0 00.25.152c.266.043.544.076.83.11zm-2.288-.528a8.123 8.123 0 01-3.476-2.664l.76-.002c.534-.003 1.08-.005 1.522.002.048.001.114.17.157.279.014.035.025.065.033.08.2.412.355.79.512 1.172.15.363.3.73.492 1.133zM8.7 7.175h3.791a11.69 11.69 0 00-.537-3.267H8.695l.003 1.623v.004l.002 1.64zm4.354-1.997c-.055-.399-.11-.803-.184-1.238h1.706c.458.001.694.052.86.453a7.535 7.535 0 01.656 2.602.423.423 0 01-.143.003l-.046-.003c-.371.003-.747 0-1.124-.001-.449-.002-.899-.004-1.34.001-.197.002-.197-.004-.2-.165v-.015a4.809 4.809 0 00-.05-.695c-.05-.32-.092-.63-.135-.942zm7.248 13.379l-3.022-3.024a4.906 4.906 0 00-3.909-7.872 4.845 4.845 0 00-1.447.243h-3.29v3.448a4.858 4.858 0 00-.172 1.218 4.904 4.904 0 007.864 3.914l3.023 3.024a.673.673 0 10.953-.951zm-6.93-2.425a3.562 3.562 0 113.56-3.562 3.567 3.567 0 01-3.56 3.562z" fill-rule="evenodd"/></svg>