<svg data-tags="fb,emoticons,emojis,angry,smiley" xmlns="http://www.w3.org/2000/svg" viewBox="0 0 14 14"><path d="M7,14A7,7,0,1,0,0,7,7,7,0,0,0,7,14Z" fill="#b3b3b3" fill-rule="evenodd"/><path d="M3.9441,9.424a.658.658,0,0,1-.53-1.05,5.45728,5.45728,0,0,1-1.318-.52q-.14371-.07554-.29-.146a.28135.28135,0,1,1,.24036-.50878L2.0481,7.2c.09.043.196.098.305.154a6.44664,6.44664,0,0,0,3.523.694.282.282,0,0,1,0,.563c-.503,0-.934-.019-1.308-.052a.659.659,0,0,1-.624.865Zm4.16,2.177c.514,0,1.032-.136,1.032-.428,0-.442-1.725-.428-2.136-.428s-2.136-.014-2.136.428c0,.292.518.428,1.033.428Zm3.848-4.4a.282.282,0,0,1,.241.507c-.11.053-.199.099-.289.145a5.46069,5.46069,0,0,1-1.319.522.658.658,0,1,1-1.154.184c-.373.033-.804.052-1.307.052a.282.282,0,0,1,0-.563,6.43979,6.43979,0,0,0,3.523-.694c.109-.056.215-.111.305-.154Z" fill="#1a1a1a" fill-rule="evenodd"/></svg>
