<svg data-tags="fb,emoticons,emojis,sad" xmlns="http://www.w3.org/2000/svg" viewBox="0 0 14 14"><g fill-rule="evenodd" clip-rule="evenodd"><path fill="#FFD854" d="M7 14c3.855 0 7-3.145 7-7s-3.145-7-7-7-7 3.145-7 7 3.145 7 7 7z"/><path d="M9.758 5.627a.28.28 0 01-.15-.541 1.674 1.674 0 011.175.106c.358.174.644.474.772.855a.28.28 0 01-.533.178.923.923 0 00-.483-.527 1.114 1.114 0 00-.781-.071z"/><ellipse cx="10.063" cy="7.484" rx=".849" ry=".941"/><path d="M4.392 5.083a.28.28 0 01-.15.54 1.114 1.114 0 00-.781.072.923.923 0 00-.483.527.28.28 0 11-.533-.178c.128-.381.414-.681.772-.855.348-.17.768-.22 1.175-.106z"/><ellipse cx="3.937" cy="7.481" rx=".849" ry=".941"/><path d="M5.626 11.049a.28.28 0 01-.431-.359 1.99 1.99 0 01.306-.297c.422-.328.972-.49 1.516-.482.544.006 1.089.181 1.5.525.11.092.21.192.295.302a.281.281 0 01-.445.345 1.402 1.402 0 00-.208-.216c-.31-.258-.727-.39-1.148-.396-.422-.005-.844.118-1.164.367a1.423 1.423 0 00-.221.21z"/><path fill="#3380FF" d="M11.047 10.338c-.305.557-1.011 1.948-1.011 2.65a1.012 1.012 0 002.023 0c0-.702-.707-2.093-1.012-2.65z"/></g></svg>