<svg data-tags="fb,emoticons,emojis,happy,haha" xmlns="http://www.w3.org/2000/svg" viewBox="0 0 14 14"><g fill-rule="evenodd" clip-rule="evenodd"><path fill="#FFD854" d="M7 14c3.855 0 7-3.145 7-7s-3.145-7-7-7-7 3.145-7 7 3.145 7 7 7z"/><path d="M7 11.64a4.604 4.604 0 004.596-4.327H2.404A4.604 4.604 0 007 11.64zM2.65 4.11a.304.304 0 01.258-.55l1.918.902a.304.304 0 010 .55l-1.918.903a.304.304 0 01-.257-.55l1.332-.627-1.332-.627zm8.442-.55a.304.304 0 01.257.55l-1.332.628 1.332.626a.304.304 0 01-.257.55l-1.918-.901a.304.304 0 010-.55l1.918-.903z"/><path fill="#F42C4C" d="M7 11.64c1.772 0 3.31-1 4.08-2.468-1.124-.496-2.54-.791-4.08-.791s-2.956.295-4.08.791A4.603 4.603 0 007 11.64z"/></g></svg>