<svg data-tags="channel,box,product" xmlns="http://www.w3.org/2000/svg" viewBox="0 0 14 14"><path d="M7 .007A6.993 6.993 0 1013.993 7 6.993 6.993 0 007 .007zm3.725 10c-.685.271-1.406.537-2.103.795-.349.128-.695.256-1.035.384a1.881 1.881 0 01-.597.098 2.904 2.904 0 01-1.177-.308l-.55-.215c-.591-.227-1.18-.454-1.775-.672a1.236 1.236 0 01-.88-1.277c.015-1.14.015-2.373.002-3.77a1.188 1.188 0 01.869-1.234q1.462-.482 2.917-.988a2.357 2.357 0 011.772.185l1.304.447a3.46 3.46 0 00.496.16 2.21 2.21 0 011.12.579l.053.05a.835.835 0 01.193.31l.031.122a1.696 1.696 0 01.024.317v1.408q-.002 1.264.003 2.53a1.05 1.05 0 01-.667 1.079z"/><path d="M9.367 4.122l-.069-.024-.945.306c-.074.025-.149.05-.22.08q-1.208.498-2.436.943a.716.716 0 00-.582.8l.006.065a.519.519 0 01-.136.407.592.592 0 01-.394.066c-.384-.033-.444-.185-.504-.511-.065-.778.024-1.202.86-1.518q1.256-.476 2.512-.955l.4-.19a1.762 1.762 0 00-1.245-.147q-1.46.508-2.928.992a.529.529 0 00-.415.6c.014 1.428.013 2.667-.002 3.785a.578.578 0 00.448.647q.944.35 1.882.714l.358.137h.002l.595.23.105.028.017-.833c.004-.918.007-1.959-.01-2.99a1.386 1.386 0 011.011-1.483c.434-.147.858-.314 1.267-.476l.026-.01q.38-.151.763-.295l.166-.06.2-.07.03-.011a5.688 5.688 0 00-.327-.096c-.138-.038-.287-.078-.435-.131z"/></svg>