<svg data-deprecated="solid/Feed.svg" data-tags="sprinklr,Ai" xmlns="http://www.w3.org/2000/svg"
     viewBox="0 0 14 14"><defs><linearGradient
        id="solid_feedAi_clr__a" x1="9.987" y1="-187.077" x2=".223" y2="-197.322" gradientTransform="matrix(1 0 0 -1 0 -183.36)" gradientUnits="userSpaceOnUse"><stop offset="0" stop-color="#de46e1"/><stop offset=".487" stop-color="#8e43ff"/><stop offset="1" stop-color="#0e61f6"/></linearGradient></defs><path d="M1.359.024h10.83a1.567 1.567 0 0 1 1.572 1.561v10.832a1.567 1.567 0 0 1-1.572 1.56H1.358c-1.119 0-1.119-1.054-1.119-1.56V1.585c0-.507 0-1.56 1.12-1.56Zm11.259 12.569a.454.454 0 0 0 .036-.176v-7.76H1.344v7.76a2.068 2.068 0 0 0 .037.512l10.808-.059a.456.456 0 0 0 .428-.277ZM2.629 6.197h1.676a.12.12 0 0 1 .12.12v1.676a.12.12 0 0 1-.12.121H2.629a.12.12 0 0 1-.12-.12V6.317a.12.12 0 0 1 .12-.121Zm1.676 3.115H2.629a.12.12 0 0 0-.12.121v1.676a.12.12 0 0 0 .12.12h1.676a.12.12 0 0 0 .12-.12V9.433a.12.12 0 0 0-.12-.12Zm6.741-1.552H6.391v.001a.605.605 0 1 1 0-1.209h4.655a.605.605 0 0 1 0 1.208Zm0 3.116H6.391a.605.605 0 0 1 0-1.208h4.655a.605.605 0 1 1 0 1.208Z" fill-rule="evenodd" fill="url(#solid_feedAi_clr__a)"/></svg>
