<svg data-deprecated="solid/FillColor.svg" data-tags="sprinklr,Ai" xmlns="http://www.w3.org/2000/svg"
     viewBox="0 0 14 14"><defs><linearGradient
        id="solid_fillColourAi_clr__a" x1="11.098" y1="-188.143" x2="2" y2="-198.653" gradientTransform="matrix(1 0 0 -1 0 -183.36)" gradientUnits="userSpaceOnUse"><stop offset="0" stop-color="#de46e1"/><stop offset=".487" stop-color="#8e43ff"/><stop offset="1" stop-color="#0e61f6"/></linearGradient></defs><path d="M12.727 9.36s-1.273 1.382-1.273 2.228a1.273 1.273 0 0 0 2.546 0c0-.846-1.273-2.228-1.273-2.228Zm-.8-1.307a.702.702 0 0 0 .993-.993L6.504.644a.702.702 0 0 0-.993.992l.196.196L.203 7.336c-.008.008-.01.02-.019.028-.007.008-.017.01-.024.02a.668.668 0 0 0-.056.1.695.695 0 0 0-.06.11.681.681 0 0 0-.028.144.7.7 0 0 0-.016.11.699.699 0 0 0 .032.163.677.677 0 0 0 .021.093.696.696 0 0 0 .15.225l5.026 5.027a.702.702 0 0 0 .993 0l5.504-5.504Zm-1.232-1.231c-.978.852-2.899 2.436-4.847 2.683-1.347.167-3.103-1.032-4.077-1.751L6.7 2.825Z" fill="url(#solid_fillColourAi_clr__a)"/></svg>
