<svg data-tags="flag,country,UK" xmlns="http://www.w3.org/2000/svg" viewBox="0 0 14 14"><path d="M5.25 5.115H4.2L.17 2.365a1.025 1.025 0 01.49-.38zM13.83 11.635a.95.95 0 01-.49.37l-4.6-3.12H9.8zM5.26 8.885l-4.6 3.12a.95.95 0 01-.49-.37l4.03-2.75zM13.83 2.365L9.8 5.115H8.75l4.58-3.13a1.05 1.05 0 01.5.38z"/><path d="M7.987 1.928H6.013V6H0V8h6.013v4.073h1.974V8H14V6H7.987z"/><path d="M5.467 12.072V9.45l-3.831 2.623zM0 2.986v2.132h3.139zM8.533 1.928v2.609l3.816-2.61zM14 11.029V8.882h-3.139zM14 5.118V2.971l-3.139 2.147zM5.467 1.928H1.636l3.831 2.609zM0 8.882v2.132l3.139-2.132zM8.533 12.072h3.816L8.533 9.448z"/></svg>