<svg data-tags="mirror, flip, half, Vertical" xmlns="http://www.w3.org/2000/svg" viewBox="0 0 14 14"><path d="M13.017.551H10.33a.646.646 0 00-.654.639.646.646 0 00.654.639h2.363v1.14a.654.654 0 001.307 0V1.646a1.033 1.033 0 00-.983-1.095zM13.346 10.378a.646.646 0 00-.653.64v1.14H10.33a.64.64 0 100 1.277h2.687A1.033 1.033 0 0014 12.34v-1.323a.646.646 0 00-.654-.639zM13.346 5.241a.646.646 0 00-.653.64v2.225a.654.654 0 001.307 0V5.88a.646.646 0 00-.654-.639zM7.639.01a.7.7 0 00-.7.7v12.58a.7.7 0 001.4 0V.71a.7.7 0 00-.7-.7z"/><rect y=".551" width="5.336" height="12.884" rx=".999"/></svg>