<svg data-tags="settings,automation,mulitple settings" xmlns="http://www.w3.org/2000/svg" viewBox="0 0 14 14"><path d="M9.594 6.738l-.608-1.052a.503.503 0 00-.608-.226l-1.093.37a3.759 3.759 0 00-1.113-.649l-.227-1.123a.518.518 0 00-.505-.412H4.224a.518.518 0 00-.505.412l-.227 1.123a3.758 3.758 0 00-1.113.65L1.287 5.46a.511.511 0 00-.608.227L.07 6.737a.519.519 0 00.103.65l.865.753a4.475 4.475 0 00-.061.649 4.475 4.475 0 00.061.65l-.865.751a.519.519 0 00-.103.65l.608 1.051a.504.504 0 00.608.227l1.092-.371a3.758 3.758 0 001.113.65l.227 1.123a.518.518 0 00.505.412H5.44a.518.518 0 00.505-.412l.227-1.124a3.759 3.759 0 001.113-.65l1.093.372a.511.511 0 00.608-.227l.608-1.051a.518.518 0 00-.103-.65l-.866-.752a4.468 4.468 0 00.062-.65 4.468 4.468 0 00-.062-.649l.866-.752a.518.518 0 00.103-.65zM4.822 10.85a2.061 2.061 0 112.061-2.06 2.067 2.067 0 01-2.061 2.061zm8.431-7.631l.594-.34a.31.31 0 00.136-.37l-.234-.686a.3.3 0 00-.33-.203l-.684.09a2.245 2.245 0 00-.577-.51l-.002-.684a.31.31 0 00-.249-.3l-.712-.142a.31.31 0 00-.344.183l-.264.632a2.243 2.243 0 00-.727.252L9.262.796A.305.305 0 008.88.86l-.479.545a.31.31 0 00-.015.393l.42.541a2.668 2.668 0 00-.111.374 2.668 2.668 0 00-.04.388l-.594.34a.31.31 0 00-.136.369l.234.687a.301.301 0 00.33.203l.684-.09a2.246 2.246 0 00.577.51l.002.684a.31.31 0 00.249.3l.712.142a.31.31 0 00.344-.183l.264-.633a2.244 2.244 0 00.727-.251l.598.344a.305.305 0 00.382-.062l.479-.546a.31.31 0 00.015-.392l-.42-.542a2.665 2.665 0 00.111-.373 2.678 2.678 0 00.04-.388zm-2.544 1.147a1.232 1.232 0 111.447-.969 1.235 1.235 0 01-1.447.97z"/></svg>