<svg data-tags="light bulb,bulb,knowledge,advice,teach,training" xmlns="http://www.w3.org/2000/svg" viewBox="0 0 14 14"><defs><clipPath id="solid_generalKnowledge__a"><path fill="none" d="M.545 0h12.91v14H.545z"/></clipPath></defs><g clip-path="url(#solid_generalKnowledge__a)"><path d="M12.025 8.1a4.928 4.928 0 0 1-.8 2.71.716.716 0 0 0 1.2.78 6.447 6.447 0 0 0-.69-7.88.718.718 0 1 0-1.05.98 4.985 4.985 0 0 1 1.34 3.41ZM9.625 2.11l-2-2a.36.36 0 0 0-.62.25v1.28a6.46 6.46 0 0 0-5.43 9.96.717.717 0 0 0 1.1.11.699.699 0 0 0 .1-.88 5.259 5.259 0 0 1 .09-5.74 4.388 4.388 0 0 1 4.13-2.01v1.28a.356.356 0 0 0 .61.25l2-2a.35.35 0 0 0 .02-.5Z"/><path d="M9.275 5.99a3.101 3.101 0 0 0-2.65-.64 3.182 3.182 0 0 0-2.4 2.46 3.255 3.255 0 0 0 1.19 3.25 1.355 1.355 0 0 1 .51.88c.01 0 .02-.01.03 0h2.72a1.515 1.515 0 0 1 .58-.92 3.265 3.265 0 0 0 .47-4.58 4.777 4.777 0 0 0-.45-.45Zm-.29 2.73a.344.344 0 0 1-.34-.34 1.248 1.248 0 0 0-1.23-1.26.346.346 0 0 1-.34-.35.35.35 0 0 1 .34-.34 1.931 1.931 0 0 1 1.91 1.95.358.358 0 0 1-.34.34Zm-.34 4.48v-.57h-2.7v.44a.831.831 0 0 0 .72.93h1.19a.807.807 0 0 0 .79-.8Z" fill-rule="evenodd"/></g></svg>
