<svg data-tags="Time,Globe,Calendar " xmlns="http://www.w3.org/2000/svg" viewBox="0 0 14 14"><path d="M11.113 1.39h-.763V0H8.948v1.39H4.165V0H2.764v1.39H2c-.792 0-1.44.663-1.44 1.472v1.053h11.994V2.862c0-.81-.648-1.472-1.441-1.472zm-5.192 9.354A4.263 4.263 0 0 1 12.553 7.2V5.287H.56v6.29c0 .737.648 1.34 1.441 1.34h4.534a4.223 4.223 0 0 1-.614-2.173z"/><path d="M10.178 14a3.245 3.245 0 0 1-3.249-3.175 3.255 3.255 0 0 1 3.253-3.337 3.26 3.26 0 0 1 3.258 3.286C13.438 12.552 11.974 14 10.178 14zm2.51-4.172c-.015-.203-.17-.282-.311-.364-.1-.058-.206-.017-.244.07-.06.141-.146.184-.3.145-.026-.006-.066-.024-.069-.041-.004-.028.01-.072.03-.085.048-.03.104-.048.158-.067.08-.029.139-.059.04-.141-.018-.016-.038-.054-.032-.073.053-.163-.042-.118-.129-.102-.034.007-.09-.003-.107-.026-.018-.026-.014-.09.007-.112a.842.842 0 0 1 .18-.137c.043-.025.095-.033.182-.062-.202-.154-.37-.284-.525-.401-.09.04-.151.079-.219.093-.206.044-.42.065-.56.255-.007.01-.02.015-.032.02-.096.04-.158-.003-.144-.108.009-.07.036-.137.048-.207.02-.117-.024-.182-.14-.184a.575.575 0 0 1-.326-.095c-.085-.056-.134.02-.173.088-.043.076-.01.113.061.141.041.017.096.039.11.073a.355.355 0 0 1 .024.186c-.005.031-.076.083-.094.074-.048-.021-.085-.069-.122-.11-.049-.054-.086-.121-.14-.167-.11-.09-.115-.106-.027-.22.015-.02.037-.039.042-.06.01-.035.021-.081.005-.105-.013-.021-.066-.03-.096-.023-.2.052-.401.104-.598.167-.047.015-.08.07-.107.096l.122.135c-.065.011-.13.026-.196.03-.02.002-.039-.03-.06-.039-.04-.018-.084-.03-.143-.052.025.143.082.188.193.192.163.004.312-.012.445-.119.057-.045.125-.054.163.033.036.08 0 .127-.074.154-.042.016-.09.02-.128.043-.046.029-.113.072-.114.11-.001.05.043.115.087.148.077.058.165.045.24-.018.044-.037.084-.08.128-.118.105-.09.173-.087.273.001l.235.203c.092.08.07.18-.056.239-.06-.07-.126-.139-.239-.096.06.121.042.177-.079.186a.464.464 0 0 0-.388.228c-.015.023-.042.041-.065.057a.576.576 0 0 0-.252.357c-.02.083-.068.152-.172.147-.017-.167-.027-.185-.12-.223-.146-.058-.374.007-.461.134a.217.217 0 0 0 0 .267c.06.086.135.096.228.056.06-.027.13-.06.189.02l-.08.091c.052.057.118.097.136.153.047.155.107.196.248.107.195-.124.354-.07.543.027.315.16.56.442.928.51.17.033.182.154.073.29-.045.057-.098.137-.09.2.022.207.027.207-.159.31-.058.033-.144.087-.147.135-.017.238-.207.327-.351.459-.04.037-.088.096-.086.144.003.114.037.228.05.343.006.036 0 .086-.021.11-.016.018-.072.012-.102-.001-.165-.068-.26-.201-.313-.367a1.286 1.286 0 0 1-.02-.654c.049-.246-.02-.42-.225-.569-.267-.195-.279-.291-.132-.584.044-.089.036-.156-.05-.215-.06-.042-.113-.096-.171-.142-.118-.093-.23-.22-.388-.202-.316.036-.344-.26-.496-.408-.109-.106-.18-.251-.284-.404-.033.079-.048.112-.06.146-.14.423-.17.856-.097 1.294.189 1.127 1.054 1.986 2.21 2.202 1.047.196 2.17-.332 2.733-1.29a.376.376 0 0 0 .044-.1c.026-.116.037-.235.073-.346.04-.124.023-.218-.084-.294a.314.314 0 0 1-.144-.248c-.01-.143-.095-.195-.234-.161-.04.01-.078.027-.116.043-.234.097-.348.066-.484-.145a1.304 1.304 0 0 1-.113-.221c-.044-.11-.045-.232.033-.32.171-.195.27-.48.591-.5.05-.002.102-.035.147-.063.088-.054.16-.053.229.032.07.087.158.098.26.045z"/><path d="M9.874 10.085l.03-.017-.03.017z"/></svg>
