<svg data-tags="translate,original,globe" xmlns="http://www.w3.org/2000/svg" viewBox="0 0 14 14"><path fill-rule="evenodd" d="M2.534 10.971a5.21 5.21 0 01-.61-.635 6.313 6.313 0 01-1.386-3.95A6.423 6.423 0 016.918 0H7a6.424 6.424 0 016.462 6.386A6.424 6.424 0 017 12.77a6.531 6.531 0 01-1.868-.271L2.096 14zM1.63 5.796a5.258 5.258 0 01.575-1.872h2.15a13.297 13.297 0 00-.205 1.872zm2.977-2.943H2.949a5.413 5.413 0 012.277-1.512 7.176 7.176 0 00-.62 1.512zm.651 2.943a12.066 12.066 0 01.223-1.872h2.946a12.068 12.068 0 01.222 1.872zm.724-3.509a6.91 6.91 0 00-.218.566h2.38a6.578 6.578 0 00-.218-.566 3.258 3.258 0 00-.656-1.026c-.198-.19-.304-.19-.316-.19s-.118 0-.316.19a3.258 3.258 0 00-.656 1.026zm3.776 3.51a13.297 13.297 0 00-.205-1.873h2.242a5.257 5.257 0 01.575 1.872zM9.3 2.853h1.75a5.413 5.413 0 00-2.391-1.55 7.108 7.108 0 01.641 1.55zM2.71 9.63l.045.057a3.922 3.922 0 00.432.466l.423.419-.18 1.597 1.638-.81.008.016.164.059a7.453 7.453 0 01-.708-1.804zm-.645-1.07h2.243a13.546 13.546 0 01-.161-1.695H1.619a5.254 5.254 0 00.446 1.694zM5.68 9.63a6.988 6.988 0 00.302.833 3.258 3.258 0 00.656 1.027c.198.19.304.19.316.19s.118 0 .316-.19a3.258 3.258 0 00.656-1.027 6.99 6.99 0 00.302-.833zm2.797-1.07H5.43a12.354 12.354 0 01-.175-1.695h3.398a12.351 12.351 0 01-.176 1.694zm.898 1.07a7.387 7.387 0 01-.729 1.84 5.412 5.412 0 002.644-1.84zm2.56-1.07H9.6a13.546 13.546 0 00.161-1.695h2.62a5.255 5.255 0 01-.446 1.694z"/></svg>