<svg data-tags="Translate, Original, Globe" xmlns="http://www.w3.org/2000/svg" viewBox="0 0 14 14"><path d="M6.02 3.36a3.48 3.48 0 0 0-1.47.97h1.07a4.61 4.61 0 0 1 .4-.97ZM8.07 5.02H6.18a7.76 7.76 0 0 0-.14 1.2h2.18a7.76 7.76 0 0 0-.15-1.2ZM5.46 5.02H4.07a3.38 3.38 0 0 0-.36 1.2h1.62a8.55 8.55 0 0 1 .13-1.2ZM9.76 4.33a3.48 3.48 0 0 0-1.54-1 4.57 4.57 0 0 1 .42 1ZM5.32 6.91H3.7a3.38 3.38 0 0 0 .28 1.1h1.45a8.7 8.7 0 0 1-.1-1.1ZM7.75 3.97a2.1 2.1 0 0 0-.42-.66c-.13-.12-.2-.12-.2-.12-.01 0-.08 0-.2.12a2.1 2.1 0 0 0-.43.66l-.14.36H7.9l-.14-.36ZM6.5 9.23a2.1 2.1 0 0 0 .42.66c.13.12.2.12.2.12.02 0 .08 0 .21-.12a2.1 2.1 0 0 0 .42-.66 4.49 4.49 0 0 0 .2-.54H6.3a4.5 4.5 0 0 0 .2.54ZM8.83 8h1.5a3.38 3.38 0 0 0 .29-1.09H8.93a8.7 8.7 0 0 1-.1 1.1ZM8.22 9.87a3.48 3.48 0 0 0 1.7-1.18H8.68a4.75 4.75 0 0 1-.46 1.18Z"/><path d="M7 0a7 7 0 1 0 7 7 7 7 0 0 0-7-7Zm3.08 9.52a4.13 4.13 0 0 1-2.92 1.19 4.2 4.2 0 0 1-1.2-.17L4 11.5l.29-1.95a3.35 3.35 0 0 1-.4-.4A4.06 4.06 0 0 1 3 6.6 4.13 4.13 0 0 1 7.1 2.5h.06a4.1 4.1 0 0 1 2.92 7.02Z"/><path d="M6.04 6.91a7.95 7.95 0 0 0 .1 1.1h1.97a7.94 7.94 0 0 0 .11-1.1ZM8.93 6.23h1.68a3.38 3.38 0 0 0-.37-1.2H8.8a8.55 8.55 0 0 1 .13 1.2ZM4.4 8.7l.03.03a2.52 2.52 0 0 0 .28.3l.27.27-.12 1.02 1.06-.52v.01l.1.04a4.8 4.8 0 0 1-.45-1.16Z"/></svg>