<svg data-tags="audience insights,globe,world,global data" xmlns="http://www.w3.org/2000/svg" viewBox="0 0 14 14"><path d="M4.22.61A7 7 0 001.3 3.05h1.87A15.33 15.33 0 014.22.6zM.75 3.98a6.94 6.94 0 00-.67 2.55H2.5a12.28 12.28 0 01.38-2.55zM.08 7.47a6.94 6.94 0 00.67 2.55h2.14a12.29 12.29 0 01-.38-2.55zm1.2 3.48a7 7 0 002.94 2.44 15.33 15.33 0 01-1.06-2.44zm4.27 2.86a5.38 5.38 0 001.02.15v-3H4.15a15.03 15.03 0 001.19 2.51l.16.26zm1.95.15a6.13 6.13 0 001.18-.18l.02-.05.16-.26a15.03 15.03 0 001.2-2.52H7.5zm2.52-.65a7 7 0 002.77-2.36h-1.75a15.26 15.26 0 01-1.02 2.36zm3.3-3.29A6.94 6.94 0 0014 7.47h-2.31a12.28 12.28 0 01-.38 2.55zM14 6.53a6.94 6.94 0 00-.67-2.55H11.3a12.28 12.28 0 01.38 2.55zm-1.21-3.48A7 7 0 0010.02.69a15.27 15.27 0 011.02 2.36zM8.68.22A6.15 6.15 0 007.5.04v3h2.56A15.25 15.25 0 008.7.28zM6.58.04a5.37 5.37 0 00-1.03.14L5.5.27a15.25 15.25 0 00-1.35 2.78h2.42zm4.18 7.43a11.43 11.43 0 01-.4 2.55H7.5V7.47zm-.4-3.5a11.43 11.43 0 01.4 2.56H7.5V3.98zm-6.51 0a11.43 11.43 0 00-.4 2.56h3.12V3.98zm-.4 3.5a11.43 11.43 0 00.4 2.55h2.72V7.47z" fill-rule="evenodd"/></svg>