<svg data-tags="Grid View,Card" xmlns="http://www.w3.org/2000/svg" viewBox="0 0 14 14"><path d="M5.62 8c.21 0 .38.17.38.38v5.24c0 .21-.17.38-.38.38H.38a.38.38 0 01-.38-.38V8.38C0 8.17.17 8 .38 8h5.24zm8 0c.21 0 .38.17.38.38v5.24c0 .21-.17.38-.38.38H8.38a.38.38 0 01-.38-.38V8.38c0-.21.17-.38.38-.38h5.24zm-8-8c.21 0 .38.17.38.38v5.24c0 .21-.17.38-.38.38H.38A.38.38 0 010 5.62V.38C0 .17.17 0 .38 0h5.24zm8 0c.21 0 .38.17.38.38v5.24c0 .21-.17.38-.38.38H8.38A.38.38 0 018 5.62V.38c0-.21.17-.38.38-.38h5.24z"/></svg>
