<svg xmlns="http://www.w3.org/2000/svg" data-name="Layer 1" data-tags="path,workflow,flow,guided,circle" viewBox="0 0 14 14"><defs><clipPath id="solid_guidedPath__a"><path d="M0 .105h14v13.79H0z"/></clipPath></defs><g clip-path="url(#solid_guidedPath__a)"><path d="M4.58 13.895c-.86 0-1.59-.3-2.18-.9-.59-.6-.89-1.32-.89-2.17v-6.5c-.44-.18-.8-.45-1.09-.82-.28-.36-.42-.78-.42-1.24 0-.6.21-1.11.64-1.53.42-.42.93-.63 1.52-.63.6 0 1.11.21 1.53.63.42.42.63.93.63 1.53 0 .46-.14.88-.42 1.25-.29.36-.65.63-1.1.81v6.51c0 .49.17.9.51 1.25.34.35.76.52 1.26.52.51 0 .93-.17 1.27-.52.33-.35.5-.76.5-1.25v-7.67c0-.86.3-1.58.89-2.18.6-.58 1.32-.88 2.18-.88.87 0 1.59.3 2.19.89.59.59.89 1.32.89 2.18v6.51c.44.17.8.44 1.09.81.28.37.43.78.43 1.24 0 .59-.21 1.1-.63 1.52-.42.43-.93.64-1.54.64-.59 0-1.1-.21-1.52-.64-.43-.43-.64-.93-.64-1.52 0-.46.14-.88.42-1.25.28-.37.65-.64 1.09-.8v-6.52c0-.5-.17-.92-.51-1.26-.34-.34-.76-.51-1.26-.51s-.92.17-1.26.51c-.35.34-.52.76-.52 1.26v7.66c0 .85-.3 1.57-.89 2.17-.58.6-1.31.9-2.17.9Z"/></g></svg>
