<svg data-deprecated="line/Hashtag.svg" data-tags="sprinklr,Ai" xmlns="http://www.w3.org/2000/svg"
     viewBox="0 0 14 14"><defs><linearGradient
        id="solid_hashtagAi_clr__a" x1="9.867" y1="-152.713" x2=".098" y2="-163.299" gradientTransform="matrix(1 0 0 -1 0 -149.213)" gradientUnits="userSpaceOnUse"><stop offset="0" stop-color="#de46e1"/><stop offset=".487" stop-color="#8e43ff"/><stop offset="1" stop-color="#0e61f6"/></linearGradient></defs><path d="M13.222 8.55H10.31l.486-3.888h2.425a.778.778 0 1 0 0-1.555h-2.23l.28-2.238A.778.778 0 0 0 9.729.676l-.304 2.43H5.548L5.828.87A.778.778 0 0 0 4.285.676l-.304 2.43H.778a.778.778 0 0 0 0 1.556h3.01L3.3 8.55H.779a.778.778 0 1 0 0 1.556h2.326L2.73 13.12a.778.778 0 0 0 .674.868.864.864 0 0 0 .1.006.778.778 0 0 0 .77-.682l.4-3.207H8.55l-.376 3.015a.778.778 0 0 0 .675.868.846.846 0 0 0 .097.006.778.778 0 0 0 .77-.682l.402-3.207h3.105a.778.778 0 0 0 0-1.556Zm-8.354 0 .485-3.888H9.23L8.744 8.55Z" fill="url(#solid_hashtagAi_clr__a)"/></svg>
