<svg data-tags="assets,ics" xmlns="http://www.w3.org/2000/svg" viewBox="0 0 14 14"><path d="M11.996 0H2.004A2.004 2.004 0 0 0 0 2.004v9.992A2.004 2.004 0 0 0 2.004 14h9.992A2.004 2.004 0 0 0 14 11.996V2.004A2.004 2.004 0 0 0 11.996 0ZM3.727 8.41a.567.567 0 0 1-.127.399.437.437 0 0 1-.338.141.43.43 0 0 1-.332-.142.579.579 0 0 1-.127-.399V5.59a.575.575 0 0 1 .125-.397.438.438 0 0 1 .334-.142.45.45 0 0 1 .338.14.569.569 0 0 1 .127.399Zm3.98-.342a1.434 1.434 0 0 1-.283.42 1.456 1.456 0 0 1-.496.335 1.743 1.743 0 0 1-.693.127 2.469 2.469 0 0 1-.537-.054 1.585 1.585 0 0 1-.45-.18 1.503 1.503 0 0 1-.373-.32 1.85 1.85 0 0 1-.255-.399 2.063 2.063 0 0 1-.159-.468 2.514 2.514 0 0 1-.051-.524 2.323 2.323 0 0 1 .131-.808 1.76 1.76 0 0 1 .381-.62 1.69 1.69 0 0 1 .585-.393 1.901 1.901 0 0 1 .708-.134 1.781 1.781 0 0 1 .82.184 1.5 1.5 0 0 1 .556.46.941.941 0 0 1 .199.54.418.418 0 0 1-.114.287.38.38 0 0 1-.286.127.392.392 0 0 1-.276-.091 1.04 1.04 0 0 1-.176-.254.997.997 0 0 0-.302-.363.721.721 0 0 0-.415-.115.754.754 0 0 0-.633.302 1.447 1.447 0 0 0-.244.903 1.702 1.702 0 0 0 .11.656.77.77 0 0 0 .294.367.808.808 0 0 0 .448.122.782.782 0 0 0 .47-.136.858.858 0 0 0 .292-.41.844.844 0 0 1 .128-.256.355.355 0 0 1 .3-.128.411.411 0 0 1 .291.117.402.402 0 0 1 .122.297 1.036 1.036 0 0 1-.092.41Zm3.583.285a1.214 1.214 0 0 1-.533.442 1.93 1.93 0 0 1-.804.155 1.834 1.834 0 0 1-.924-.212 1.278 1.278 0 0 1-.431-.418.976.976 0 0 1-.169-.521.415.415 0 0 1 .425-.42.375.375 0 0 1 .263.1.676.676 0 0 1 .159.254A1.398 1.398 0 0 0 9.414 8a.495.495 0 0 0 .186.156.726.726 0 0 0 .333.065.76.76 0 0 0 .464-.131.355.355 0 0 0 .161-.295.301.301 0 0 0-.08-.22.626.626 0 0 0-.241-.144 5.039 5.039 0 0 0-.451-.122 3.405 3.405 0 0 1-.665-.218 1.151 1.151 0 0 1-.452-.36.965.965 0 0 1-.172-.579 1 1 0 0 1 .18-.583 1.118 1.118 0 0 1 .51-.387 2.02 2.02 0 0 1 .756-.131 1.886 1.886 0 0 1 .602.087 1.312 1.312 0 0 1 .432.236.992.992 0 0 1 .257.316.757.757 0 0 1 .083.335.443.443 0 0 1-.116.3.39.39 0 0 1-.303.136.36.36 0 0 1-.259-.089.932.932 0 0 1-.16-.23.854.854 0 0 0-.21-.287.608.608 0 0 0-.375-.09.673.673 0 0 0-.396.105.266.266 0 0 0-.13.216.197.197 0 0 0 .04.125.404.404 0 0 0 .13.108 1.016 1.016 0 0 0 .188.08c.067.02.183.05.34.09a5.705 5.705 0 0 1 .557.158 1.815 1.815 0 0 1 .443.221.956.956 0 0 1 .3.345 1.097 1.097 0 0 1 .107.504 1.158 1.158 0 0 1-.183.637Z"/></svg>