<svg data-tags="media,picture,image ,photo,video" xmlns="http://www.w3.org/2000/svg" viewBox="0 0 52 37"><linearGradient id="image_clr__a" gradientUnits="userSpaceOnUse" x1="26" y1="-86.3" x2="26" y2="70.3"><stop offset="0" stop-color="#a8cffc"/><stop offset="1" stop-color="#f1f6fd"/></linearGradient><path fill="url(#image_clr__a)" d="M44 0H8a8 8 0 00-8 8v21a8 8 0 008 8h36a8 8 0 008-8V8a8 8 0 00-8-8z"/><linearGradient id="image_clr__b" gradientUnits="userSpaceOnUse" x1="26" y1="7.9" x2="26" y2="48"><stop offset="0" stop-color="#0778fc"/><stop offset="1" stop-color="#3f9dfc"/></linearGradient><path fill="url(#image_clr__b)" d="M40.1 25l10.2 9.5a8 8 0 01-5.7 2.5h-36a8 8 0 01-7-4l17.8-16.7c.7-.6 1.7-.6 2.3.1l11.2 13.3 5-4.8c.7-.5 1.6-.5 2.2 0zM36 7.8c-2.6 0-4.6 2-4.6 4.3 0 2.5 2 4.4 4.6 4.4s4.6-2 4.6-4.4c0-2.4-2-4.3-4.6-4.3z"/></svg>
