<svg data-tags="image, star, featured, thumbnail" xmlns="http://www.w3.org/2000/svg" viewBox="0 0 14 14"><path d="M3.12 3.95a1.36 1.36 0 1 0 .96-.4 1.36 1.36 0 0 0-.96.4Z"/><path d="M7.86 9a1.34 1.34 0 0 1 1.17-.92L9.86 8l.32-.77a1.33 1.33 0 0 1 .42-.53L8.97 5.08a.45.45 0 0 0-.64 0L4.55 8.85l-1.5-1.5a.45.45 0 0 0-.64 0L.9 8.85V2.96a.45.45 0 0 1 .45-.45h10.03a.45.45 0 0 1 .45.45V6.5a1.33 1.33 0 0 1 .81.74l.1.23v-4.5a1.37 1.37 0 0 0-1.36-1.37H1.37A1.37 1.37 0 0 0 0 2.96v7.44a1.37 1.37 0 0 0 1.37 1.36H8.7l.18-.78-.63-.55a1.34 1.34 0 0 1-.4-1.44Z"/><path d="m13.72 9.12-1.46-.13-.57-1.34a.3.3 0 0 0-.55 0l-.57 1.34-1.46.12a.3.3 0 0 0-.17.53l1.1.96-.33 1.43a.3.3 0 0 0 .45.32l1.26-.75 1.25.76a.3.3 0 0 0 .45-.33l-.33-1.43 1.1-.96a.3.3 0 0 0-.17-.52Z"/></svg>