<svg data-tags="download,import,data,first party data ingestion,ingestion" xmlns="http://www.w3.org/2000/svg" viewBox="0 0 14 14"><rect x=".514" y="9.033" width="12.971" height="4.967" rx="1"/><path d="m4.537 5.417 1.978 1.898h.002v.002h.001l.002.002v.001h.001l.002.002a.697.697 0 0 0 .423.185.702.702 0 0 0 .492-.154q.025-.02.048-.042l1.975-1.894a.698.698 0 0 0 .023-.987.69.69 0 0 0-.516-.212c-.01 0-.017-.005-.026-.005H7.697V.695a.698.698 0 0 0-1.397 0v3.518H5.052c-.01 0-.02.005-.03.006a.696.696 0 0 0-.485 1.198Z"/></svg>