<svg data-tags="include,involve,plus,add,cards,keep in" xmlns="http://www.w3.org/2000/svg" viewBox="0 0 14 14"><path d="M.872 3.018a1.313 1.313 0 0 1 .802-.64l1.604-.46H.326a.326.326 0 0 0-.327.326v9.158a.326.326 0 0 0 .327.328H3.13L.766 4.04a1.339 1.339 0 0 1 .106-1.022Z"/><path d="M11.159 1.041a.346.346 0 0 0-.41-.23l-3.14.91-1.89.54-.63.18-3.14.9a.322.322 0 0 0-.23.4l2.84 9.23a.317.317 0 0 0 .15.19.294.294 0 0 0 .16.04.277.277 0 0 0 .09-.01l8.8-2.52a.328.328 0 0 0 .23-.41ZM10.34 6.72l-1.599.542.543 1.6a.7.7 0 1 1-1.326.448l-.543-1.599-1.599.543a.692.692 0 0 1-.225.037.7.7 0 0 1-.224-1.363l1.599-.543-.543-1.599a.7.7 0 0 1 1.327-.45l.542 1.6 1.6-.543a.7.7 0 1 1 .448 1.327Z"/></svg>