<svg data-tags="inbound call,call,phone,call received" xmlns="http://www.w3.org/2000/svg" viewBox="0 0 14 14"><path d="M11.312 9.343a1.304 1.304 0 00-1.098-.22s-1.273.756-1.536.88c-.263.127-.658-.219-.658-.219S4.57 6.448 4.288 6.041c-.28-.407.262-1.36.658-1.76.603-.608-.078-1.546-.078-1.546A26.713 26.713 0 003.062.448V.447C2.123-.599.876.984.455 1.603a2.074 2.074 0 00-.329 1.315 19.822 19.822 0 004.259 6.954 12.9 12.9 0 006.528 4.002 1.9 1.9 0 001.439-.063 15.345 15.345 0 001.465-1.68 1.14 1.14 0 00-.152-1.203s-1.777-1.183-2.354-1.585z"/><path d="M8.707 2.183a.53.53 0 00-.908.377v3.15a.53.53 0 00.524.537h3.159a.534.534 0 00.376-.912l-.916-.917 2.732-2.732a.932.932 0 00-.663-1.589.922.922 0 00-.656.27L9.623 3.1z"/></svg>