<svg data-tags="text,paragraph,formatting,indentation" xmlns="http://www.w3.org/2000/svg" viewBox="0 0 14 14"><path d="M.733 2.698h12.535a.7.7 0 000-1.4H.733a.7.7 0 100 1.4zm12.535 1.934H7a.7.7 0 100 1.4h6.268a.7.7 0 000-1.4zm0 3.335H7a.7.7 0 100 1.4h6.268a.7.7 0 000-1.4zm0 3.336H.733a.7.7 0 100 1.4h12.535a.7.7 0 000-1.4zM3.709 4.049L.8 6.566a.576.576 0 00-.185.427.51.51 0 00.17.427l2.908 2.53a.673.673 0 00.897.015.553.553 0 00.185-.442l.016-1.471V4.476a.676.676 0 00-.186-.442.693.693 0 00-.448-.162.558.558 0 00-.448.177z"/></svg>