<svg data-tags="indd,inDesgin,asset" xmlns="http://www.w3.org/2000/svg" viewBox="0 0 14 14"><path d="M8.255 6.684a1.139 1.139 0 00-.522.12 1.035 1.035 0 00-.392.342 1.023 1.023 0 00-.153.586 1.287 1.287 0 00.079.475.902.902 0 00.207.328.797.797 0 00.314.185 1.208 1.208 0 00.384.06c.069 0 .133-.005.193-.01a.393.393 0 00.167-.022V6.716a1.193 1.193 0 00-.125-.023 1.678 1.678 0 00-.152-.009z"/><path d="M12.053 0H1.927a1.5 1.5 0 00-1.5 1.5v11a1.5 1.5 0 001.5 1.5h10.126a1.5 1.5 0 001.5-1.5v-11a1.5 1.5 0 00-1.5-1.5zM5.42 9.523c0 .051-.023.074-.065.074h-.904c-.042 0-.06-.023-.06-.074V4.787c0-.042.023-.06.064-.06h.9a.052.052 0 01.06.046.017.017 0 01.005.014zm4.123-.138a3.524 3.524 0 01-.753.221 4.03 4.03 0 01-.71.065 2.296 2.296 0 01-.993-.208 1.61 1.61 0 01-.697-.628 1.997 1.997 0 01-.254-1.052 1.896 1.896 0 01.254-.974 1.917 1.917 0 01.734-.716 2.361 2.361 0 011.168-.268.82.82 0 01.097.005c.041.005.087.005.143.01V4.38c0-.032.014-.05.046-.05h.937a.041.041 0 01.046.032v4.404c0 .083.005.175.01.277.009.097.013.19.018.268a.075.075 0 01-.046.074z"/></svg>