<svg data-tags="salesforce" xmlns="http://www.w3.org/2000/svg" viewBox="0 0 14 14"><path d="m13.835 12.343-2.8 1.587a.464.464 0 0 1-.49 0L7.77 12.343c-.117-.07-.117-.21 0-.256l.653-.374a.149.149 0 0 1 .14 0l1.703.957a1.099 1.099 0 0 0 1.074 0l1.703-.957a.149.149 0 0 1 .14 0l.653.374c.117.046.117.186 0 .256Zm0-1.796-2.8 1.586a.464.464 0 0 1-.49 0L7.77 10.547c-.117-.07-.117-.21 0-.257l.653-.373a.149.149 0 0 1 .14 0l1.703.956a1.099 1.099 0 0 0 1.074 0l1.703-.956a.149.149 0 0 1 .14 0l.653.373c.117.047.117.187 0 .257Zm-3.266-.187-2.8-1.587c-.117-.07-.117-.21 0-.256l2.8-1.587a.464.464 0 0 1 .49 0l2.8 1.587c.116.07.116.21 0 .256l-2.8 1.587a.598.598 0 0 1-.49 0ZM7.419 9.45c.116-.07.116-.21 0-.257l-.654-.373h-.023v-.303a.754.754 0 0 1 .35-.607c.093-.047.28-.14.49-.257a1.427 1.427 0 0 0-.28-.116c-.42-.21-1.027-.42-1.213-.957a.972.972 0 0 1 .093-.84 4.776 4.776 0 0 0 .7-.817c.047-.093.093-.14.14-.233a3.352 3.352 0 0 0 .327-2.94A2.538 2.538 0 0 0 4.969 0h-.164a2.515 2.515 0 0 0-2.38 1.75 3.27 3.27 0 0 0 .327 2.94c.023.093.093.14.14.233a8.027 8.027 0 0 0 .7.817 1.284 1.284 0 0 1 .093.84c-.163.513-.77.747-1.213.957-.98.42-2.193 1.026-2.38 2.216a1.579 1.579 0 0 0 1.493 1.96h5.157l.677-.443c.116-.07.116-.21 0-.257l-.654-.373h-.023v-.747Z"/></svg>