<svg data-tags="audience input,reach,user,person,marketing" xmlns="http://www.w3.org/2000/svg" viewBox="0 0 14 14"><path d="M13.967 13.954a1.537 1.537 0 01-.757-.093.115.115 0 00-.1.013"/><path d="M11.772 11.238l-.646-.647a5.463 5.463 0 00.09-7.083c.212-.212.423-.426.638-.636a.115.115 0 01.099-.013 1.536 1.536 0 00.757.093 1.468 1.468 0 10-1.65-1.158 4.635 4.635 0 00.19.523l-.606.606a5.453 5.453 0 00-7.226-.056 69.179 69.179 0 01-.605-.607.104.104 0 010-.091 1.493 1.493 0 00.162-.58A1.469 1.469 0 001.158.076a1.383 1.383 0 00-1.056 1A1.414 1.414 0 00.48 2.551a1.43 1.43 0 001.67.264.112.112 0 01.157.028c.183.19.372.376.56.562l.006.006a5.453 5.453 0 00.043 7.223l-.618.619a1.445 1.445 0 00-.992-.209 1.469 1.469 0 101.563.917.094.094 0 01.024-.125q.312-.307.62-.618a5.464 5.464 0 007.065-.08l.64.64a1.471 1.471 0 102.514-.087 1.489 1.489 0 00-1.959-.454zm-4.69-6.815a1.205 1.205 0 11-1.206 1.204 1.206 1.206 0 011.206-1.204zm2.657 5.315a.101.101 0 01-.078.037H4.338a.098.098 0 01-.096-.122 2.797 2.797 0 012.72-2.07l.074.001A2.769 2.769 0 019.76 9.656a.097.097 0 01-.02.082z"/></svg>