<svg data-tags="Understanding,Analyse" xmlns="http://www.w3.org/2000/svg" viewBox="0 0 14 14"><path d="M7.45.017A6.996 6.996 0 0114 6.567l-1 .3a.14.14 0 000 .267l1 .299a6.996 6.996 0 01-6.55 6.55l-.3-1a.14.14 0 00-.267 0l-.3 1a6.996 6.996 0 01-6.549-6.55l1-.299a.14.14 0 000-.268l-1-.299a6.996 6.996 0 016.55-6.55l.299 1a.14.14 0 00.267 0zm3.431 3.225a.23.23 0 00-.311-.096L5.883 5.613a.768.768 0 00-.323.325l-2.397 4.607a.23.23 0 00.31.31l4.758-2.46a.768.768 0 00.333-.337l2.319-4.605a.23.23 0 00-.002-.21zm-3.864 2.71A1.047 1.047 0 115.97 7a1.047 1.047 0 011.047-1.047z"/></svg>
