<svg data-tags="confirmation, tick, approved, verified, instagram" xmlns="http://www.w3.org/2000/svg" viewBox="0 0 14 14"><path d="M13.973 5.415c.045-.073.045-.107-.035-.155-.563-.342-1.121-.692-1.684-1.034a.16.16 0 01-.087-.16c.002-.697-.001-1.393.004-2.09 0-.107-.032-.127-.132-.127-.705.004-1.41 0-2.115.005a.177.177 0 01-.177-.102c-.299-.504-.605-1.005-.9-1.512C8.791.148 8.754.142 8.67.194c-.464.283-.931.558-1.395.84a.173.173 0 01-.21-.002C6.525.696 5.98.367 5.442.03c-.081-.05-.11-.033-.154.038-.346.564-.697 1.125-1.04 1.69a.177.177 0 01-.18.096c-.682-.003-1.365 0-2.048-.004-.094 0-.118.024-.118.118.004.726.002 1.453.003 2.18a.133.133 0 01-.068.136c-.561.331-1.119.667-1.68.999-.064.038-.069.065-.031.127.293.483.58.97.874 1.452a.13.13 0 01-.002.16C.67 7.544.348 8.07.023 8.594c-.034.055-.044.083.026.125.591.36 1.179.727 1.77 1.088a.163.163 0 01.087.162c-.003.696-.002 1.393-.002 2.09 0 .146 0 .146.143.146.682 0 1.365.002 2.048-.001a.163.163 0 01.162.088c.324.547.653 1.091.976 1.638.042.071.07.082.144.038.515-.312 1.034-.618 1.55-.929a.11.11 0 01.14 0c.1.067.204.126.306.189l1.204.742c.043.026.077.059.122-.016.337-.556.682-1.108 1.021-1.663a.155.155 0 01.151-.087c.364.004.728.001 1.092.002.36 0 .72-.004 1.08.002.097.001.129-.023.128-.125-.005-.689-.001-1.378-.004-2.067a.161.161 0 01.088-.161c.541-.32 1.08-.644 1.621-.964.08-.047.108-.08.05-.175-.305-.497-.596-1.002-.903-1.498a.223.223 0 01.003-.279c.32-.505.63-1.017.947-1.524zm-3.737.61q-.917.853-1.83 1.711L6.39 9.626c-.038.036-.078.069-.113.099a.164.164 0 01-.087-.064L4.303 7.657c-.129-.138-.128-.14.01-.27.204-.193.41-.383.611-.58.056-.054.082-.045.13.007.42.449.843.894 1.263 1.342.049.052.077.057.132.005q1.302-1.223 2.608-2.443c.156-.146.314-.289.466-.44.064-.063.101-.054.159.01.183.202.369.403.56.598.058.06.05.087-.006.138z"/></svg>