<svg data-tags="folder,file,data" xmlns="http://www.w3.org/2000/svg" viewBox="0 0 14 14"><path d="M12.06 1.28v9.67a.35.35 0 10.7 0V2.57H14v8.25a1.9 1.9 0 01-1.9 1.9H1.9a1.94 1.94 0 01-1.37-.59 1.95 1.95 0 01-.52-1.3V1.28zm-1.75 8.18H1.76a.35.35 0 100 .7h8.55a.35.35 0 000-.7zm0-1.69H1.76a.35.35 0 100 .7h8.55a.35.35 0 000-.7zM5.52 2.69H1.77a.36.36 0 00-.36.36v3.37a.36.36 0 00.36.36h3.75a.36.36 0 00.36-.36V3.05a.36.36 0 00-.36-.36zm4.8 3.39h-3.4a.35.35 0 100 .7h3.4a.35.35 0 100-.7zm0-1.7h-3.4a.35.35 0 100 .7h3.4a.35.35 0 000-.7zm0-1.69h-3.4a.35.35 0 000 .7h3.4a.35.35 0 000-.7z"/></svg>
