<svg data-tags="Join,Integration,Combine,Puzzle,Api" xmlns="http://www.w3.org/2000/svg" viewBox="0 0 14 14"><path d="M7.86 2.35a.8218.8218 0 00-.52.18c-.02.01-.03.02-.05.02a.2897.2897 0 01-.18.05.2934.2934 0 01-.16-.04.169.169 0 01-.1-.07.2288.2288 0 01-.07-.1.3168.3168 0 01-.04-.16V.5a.5.5 0 00-.5-.5H.5a.5.5 0 00-.5.5v5.543a.5.5 0 00.497.5l1.213.007a1.165 1.165 0 01-.0499-.3567 1.5642 1.5642 0 01.7424-1.3965A1.6253 1.6253 0 014.88 6.17a1.567 1.567 0 01-.05.37h1.41a.5.5 0 00.5-.5V4.19a.3538.3538 0 01.03-.14.3609.3609 0 01.07-.1.3125.3125 0 01.11-.09c.02-.01.03-.02.05-.02a.4248.4248 0 01.11-.02.29.29 0 01.18.05h.01c.01 0 .02.01.04.02a.8845.8845 0 00.52.18.86.86 0 000-1.72z"/><path d="M2.35 6.14a.8218.8218 0 00.18.52c.01.02.02.03.02.05a.2897.2897 0 01.05.18.2934.2934 0 01-.04.16.169.169 0 01-.07.1.2288.2288 0 01-.1.07.3168.3168 0 01-.16.04H.5a.5.5 0 00-.5.5v5.74a.5.5 0 00.5.5h5.543a.5.5 0 00.5-.497l.007-1.213a1.1694 1.1694 0 01-.3596.0499 1.5625 1.5625 0 01-1.3922-.74A1.6254 1.6254 0 016.17 9.12a1.567 1.567 0 01.37.05V7.76a.5.5 0 00-.5-.5H4.19a.3538.3538 0 01-.14-.03.3609.3609 0 01-.1-.07.3125.3125 0 01-.09-.11c-.01-.02-.02-.03-.02-.05a.4248.4248 0 01-.02-.11.29.29 0 01.05-.18V6.7c0-.01.01-.02.02-.04a.8845.8845 0 00.18-.52.86.86 0 00-1.72 0z"/><path d="M6.14 11.65a.8218.8218 0 00.52-.18c.02-.01.03-.02.05-.02a.2897.2897 0 01.18-.05.2934.2934 0 01.16.04.169.169 0 01.1.07.2288.2288 0 01.07.1.3168.3168 0 01.04.16v1.73a.5.5 0 00.5.5h5.74a.5.5 0 00.5-.5V7.957a.5.5 0 00-.497-.5L12.29 7.45a1.1694 1.1694 0 01.0499.3596 1.5625 1.5625 0 01-.74 1.3922A1.6254 1.6254 0 019.12 7.83a1.567 1.567 0 01.05-.37H7.76a.5.5 0 00-.5.5v1.85a.3538.3538 0 01-.03.14.3609.3609 0 01-.07.1.3125.3125 0 01-.11.09c-.02.01-.03.02-.05.02a.4248.4248 0 01-.11.02.29.29 0 01-.18-.05H6.7c-.01 0-.02-.01-.04-.02a.8845.8845 0 00-.52-.18.86.86 0 000 1.72z"/><path d="M11.65 7.86a.8218.8218 0 00-.18-.52c-.01-.02-.02-.03-.02-.05a.2897.2897 0 01-.05-.18.2934.2934 0 01.04-.16.169.169 0 01.07-.1.2288.2288 0 01.1-.07.3168.3168 0 01.16-.04h1.73a.5.5 0 00.5-.5V.5a.5.5 0 00-.5-.5H7.957a.5.5 0 00-.5.497L7.45 1.71a1.1672 1.1672 0 01.3581-.0499 1.5633 1.5633 0 011.3944.7412A1.6253 1.6253 0 017.83 4.88a1.567 1.567 0 01-.37-.05v1.41a.5.5 0 00.5.5h1.85a.3538.3538 0 01.14.03.3609.3609 0 01.1.07.3125.3125 0 01.09.11c.01.02.02.03.02.05a.4248.4248 0 01.02.11.29.29 0 01-.05.18v.01c0 .01-.01.02-.02.04a.8845.8845 0 00-.18.52.86.86 0 001.72 0z"/></svg>
