<svg data-tags="ivr call,keypad,mobile,number,numpad,dots" xmlns="http://www.w3.org/2000/svg" viewBox="0 0 14 14"><path d="M7 0a7 7 0 107 7 7 7 0 00-7-7zM5.02 9a.61.61 0 11.6-.6.61.61 0 01-.6.6zm0-1.98a.61.61 0 11.6-.61.61.61 0 01-.6.61zm0-1.98a.61.61 0 11.6-.62.61.61 0 01-.6.62zM7 10.99a.61.61 0 11.61-.62A.61.61 0 017 11zM7 9a.61.61 0 11.61-.6A.61.61 0 017 9zm0-1.98a.61.61 0 11.61-.61.61.61 0 01-.61.61zm0-1.98a.61.61 0 11.61-.62.61.61 0 01-.61.62zM8.98 9a.61.61 0 11.62-.6.61.61 0 01-.62.6zm0-1.98a.61.61 0 11.62-.61.61.61 0 01-.62.61zm0-1.98a.61.61 0 11.62-.62.61.61 0 01-.62.62z"/></svg>