<svg data-tags="override,overide,merge,overlay,join,circles" xmlns="http://www.w3.org/2000/svg" viewBox="0 0 14 14"><path d="M7 10.728a.644.644 0 0 1-.252-.052 1.132 1.132 0 0 1-.222-.123A4.117 4.117 0 0 1 5.425 9.03a5.449 5.449 0 0 1-.332-2.021 5.34 5.34 0 0 1 .34-2.022A4.124 4.124 0 0 1 6.54 3.472a.787.787 0 0 1 .21-.133.623.623 0 0 1 .25-.05.667.667 0 0 1 .26.05.772.772 0 0 1 .213.133 3.991 3.991 0 0 1 1.101 1.509 5.483 5.483 0 0 1 .333 2.032 5.373 5.373 0 0 1-.34 2.032 4.068 4.068 0 0 1-1.11 1.51.768.768 0 0 1-.208.128.651.651 0 0 1-.25.045Zm2.555.721a4.21 4.21 0 0 1-.856-.085 4.603 4.603 0 0 1-.797-.241 3.34 3.34 0 0 0 .454-.482q.218-.28.395-.52a3.347 3.347 0 0 0 .39.094 2.296 2.296 0 0 0 .414.037A3.129 3.129 0 0 0 11.85 9.3a3.129 3.129 0 0 0 .953-2.296 3.24 3.24 0 0 0-3.248-3.248 2.787 2.787 0 0 0-.41.03 1.902 1.902 0 0 0-.379.096 3.836 3.836 0 0 0-.395-.545 3.287 3.287 0 0 0-.469-.458 3.726 3.726 0 0 1 .792-.247 4.474 4.474 0 0 1 .86-.082 4.289 4.289 0 0 1 3.148 1.296A4.29 4.29 0 0 1 14 7a4.292 4.292 0 0 1-1.298 3.15 4.284 4.284 0 0 1-3.147 1.3Zm-5.11 0a4.307 4.307 0 0 1-3.15-1.304A4.274 4.274 0 0 1 0 7.011 4.279 4.279 0 0 1 1.295 3.87a4.34 4.34 0 0 1 3.15-1.311 4.007 4.007 0 0 1 .845.09 4.57 4.57 0 0 1 .793.245 3.91 3.91 0 0 0-1.325 1.81 6.841 6.841 0 0 0 0 4.601 3.963 3.963 0 0 0 1.325 1.818 4.344 4.344 0 0 1-.793.241 4.197 4.197 0 0 1-.845.085Z"/></svg>