<svg data-tags="Customer,Journey,User" xmlns="http://www.w3.org/2000/svg" viewBox="0 0 14 14"><path d="M6.97 7.109c-.716 0-2.153.36-2.153 1.076v.881h4.307v-.88c0-.717-1.437-1.077-2.153-1.077z"/><ellipse cx="6.97" cy="5.347" rx=".977" ry=".979"/><path d="M1.275 7.094l1.353-1.047A4.477 4.477 0 0 1 7 2.52c2.28 0 4.14 1.708 4.422 3.91l.765-.592a.748.748 0 0 1 .858-.042l.924.58A6.998 6.998 0 0 0 .035 6.314l1.24.781zm11.415.252l-1.486 1.151C10.585 10.231 8.946 11.48 7 11.48a4.478 4.478 0 0 1-4.375-3.534l-.847.656a.749.749 0 0 1-.859.042L.1 8.126C.639 11.456 3.519 14 7 14c3.488 0 6.371-2.553 6.904-5.891l-1.213-.763z"/></svg>
