<svg data-tags="asset,json,code,variable" xmlns="http://www.w3.org/2000/svg" viewBox="0 0 14 14"><path d="M12.06 0H1.94a1.5 1.5 0 00-1.5 1.5v11a1.5 1.5 0 001.5 1.5h10.12a1.5 1.5 0 001.5-1.5v-11a1.5 1.5 0 00-1.5-1.5zm-7.6 7.37a1.28 1.28 0 01.2.53 4.53 4.53 0 01.07.82l.01.55a.72.72 0 00.07.27.25.25 0 00.13.12 1.27 1.27 0 00.24.05.35.35 0 01.24.14.5.5 0 01.1.32q0 .46-.56.46a1.29 1.29 0 01-.62-.15 1.01 1.01 0 01-.41-.4 1.24 1.24 0 01-.15-.6l-.03-.93a3.16 3.16 0 00-.03-.45.87.87 0 00-.17-.38 1.26 1.26 0 00-.29-.24 1.12 1.12 0 01-.25-.2.43.43 0 01-.08-.28.46.46 0 01.22-.42 2.16 2.16 0 00.39-.29.66.66 0 00.16-.3 1.93 1.93 0 00.05-.41l.03-1.06a1.15 1.15 0 01.33-.84 1.17 1.17 0 01.85-.3q.55 0 .55.44a.5.5 0 01-.09.32.35.35 0 01-.24.14.75.75 0 00-.3.09.33.33 0 00-.12.23 6.06 6.06 0 00-.03.68 5.65 5.65 0 01-.06.8 1.3 1.3 0 01-.2.53 1.43 1.43 0 01-.43.4 1.48 1.48 0 01.42.36zm3.06 1.84a.67.67 0 01-.15.47.49.49 0 01-.38.16.47.47 0 01-.36-.16.69.69 0 01-.15-.47V6.26a.66.66 0 01.15-.46.48.48 0 01.36-.15.5.5 0 01.38.15.6.6 0 01.15.43zm-.16-4.18a.52.52 0 01-.35.14.54.54 0 01-.37-.13.51.51 0 010-.74.53.53 0 01.37-.14.54.54 0 01.35.13.46.46 0 01.16.37.47.47 0 01-.16.37zm3.5 2.39a2.05 2.05 0 00-.39.28.67.67 0 00-.16.3 2.64 2.64 0 00-.06.56l-.02.92a1.15 1.15 0 01-.34.83 1.18 1.18 0 01-.86.32.62.62 0 01-.4-.12.42.42 0 01-.14-.34.56.56 0 01.04-.23.4.4 0 01.12-.16.34.34 0 01.17-.07 1.1 1.1 0 00.25-.05.24.24 0 00.13-.13.84.84 0 00.06-.28v-.53a5.3 5.3 0 01.07-.82 1.26 1.26 0 01.2-.5 1.48 1.48 0 01.43-.4 1.62 1.62 0 01-.33-.27 1.15 1.15 0 01-.21-.34 1.83 1.83 0 01-.12-.47 5.3 5.3 0 01-.03-.64q0-.36-.02-.55a.77.77 0 00-.06-.28.24.24 0 00-.12-.12 1.04 1.04 0 00-.25-.05.36.36 0 01-.24-.14.49.49 0 01-.1-.32q0-.45.55-.45a1.3 1.3 0 01.62.14 1.04 1.04 0 01.42.4 1.2 1.2 0 01.16.6q.02 1.26.05 1.39a.87.87 0 00.18.37 1.23 1.23 0 00.28.24.97.97 0 01.25.2.46.46 0 01.08.3.45.45 0 01-.21.4z"/></svg>