<svg data-tags="command,hack,arrow" xmlns="http://www.w3.org/2000/svg" viewBox="0 0 14 14"><path d="M9.874 10.432l-.51-.52a.173.173 0 01-.05-.04l-.9-.91-.89-.9-1.34-1.34-.71-.72a.513.513 0 00-.22-.14.784.784 0 00-.46.01.492.492 0 00-.2.13l-3.83 3.87-.01.01-.55.55a.63.63 0 00-.14.69.648.648 0 00.59.391h1.49v1.819a.642.642 0 00.63.64h4.52a.636.636 0 00.63-.64v-1.819h1.5a.638.638 0 00.45-1.081zm1.901-5.512h-.95v-.49h.95a2.215 2.215 0 10-2.22-2.22v.95h-.49v-.95a2.216 2.216 0 10-2.22 2.22h.95v.49h-.95a2.164 2.164 0 00-.888.195 1.497 1.497 0 01.251.208l.688.697.17.17h.729v.729l.436.436.646.653a2.142 2.142 0 00.189-.868v-.95h.49v.95a2.215 2.215 0 102.219-2.22zm-.95-2.71a.95.95 0 11.95.95h-.95zm-3.03.95h-.95a.95.95 0 11.95-.95zm1.76 1.905h-.49v-.49h.49zm2.22 3.025a.95.95 0 01-.95-.95v-.95h.95a.95.95 0 110 1.9z"/></svg>