<svg data-deprecated="line/KeywordList.svg" data-tags="sprinklr,Ai" xmlns="http://www.w3.org/2000/svg"
     viewBox="0 0 14 14"><defs><linearGradient
        id="solid_keywordListAi_clr__a" x1="9.139" y1="-153.104" x2="2.316" y2="-163.021" gradientTransform="matrix(1 0 0 -1 0 -149.213)" gradientUnits="userSpaceOnUse"><stop offset="0" stop-color="#de46e1"/><stop offset=".487" stop-color="#8e43ff"/><stop offset="1" stop-color="#0e61f6"/></linearGradient></defs><path d="M6.522 3.098H.656a.656.656 0 1 1 0-1.313h5.866a.656.656 0 0 1 0 1.313Zm6.822 0h-3.93a.656.656 0 1 1 0-1.313h3.93a.656.656 0 1 1 0 1.313ZM3.59 6.136H.656a.656.656 0 0 1 0-1.31H3.59a.656.656 0 0 1 0 1.312Zm5.32 0H5.976a.656.656 0 0 1 0-1.31H8.91a.656.656 0 1 1 0 1.312Zm4.434 0h-1.965a.656.656 0 0 1 0-1.31h1.965a.656.656 0 1 1 0 1.312Zm-7.742 3.04H.656a.656.656 0 1 1 0-1.313h4.946a.656.656 0 1 1 0 1.313Zm7.742 0H7.77a.656.656 0 1 1 0-1.313h5.574a.656.656 0 1 1 0 1.313ZM3.59 12.214H.656a.656.656 0 0 1 0-1.312H3.59a.656.656 0 1 1 0 1.312Zm9.754 0H5.976a.656.656 0 1 1 0-1.312h7.368a.656.656 0 1 1 0 1.312Z" fill="url(#solid_keywordListAi_clr__a)"/></svg>
