<svg data-tags="labor,gears,worker" xmlns="http://www.w3.org/2000/svg" viewBox="0 0 14 14"><path d="M5.117 8.914C3.408 8.914 0 9.774 0 11.473v1.28h10.225v-1.28c0-1.7-3.408-2.559-5.108-2.559ZM13.953 4.076l-.47-.37a1.547 1.547 0 0 0 .01-.22 1.504 1.504 0 0 0-.02-.22l.47-.369a.124.124 0 0 0 .03-.14l-.45-.77a.12.12 0 0 0-.13-.05l-.55.22a1.793 1.793 0 0 0-.38-.22l-.08-.59a.109.109 0 0 0-.109-.099h-.9a.109.109 0 0 0-.11.1l-.08.59a2.081 2.081 0 0 0-.38.22l-.559-.22a.1.1 0 0 0-.13.05l-.44.77a.106.106 0 0 0 .02.139l.47.37a1.632 1.632 0 0 0-.02.22 1.632 1.632 0 0 0 .02.22l-.47.37a.124.124 0 0 0-.03.14l.45.769a.12.12 0 0 0 .13.05l.56-.22a1.791 1.791 0 0 0 .38.22l.08.59a.109.109 0 0 0 .11.1h.899a.109.109 0 0 0 .11-.1l.08-.59a2.078 2.078 0 0 0 .38-.22l.56.22a.1.1 0 0 0 .13-.05l.45-.77a.098.098 0 0 0-.03-.14Zm-2.129.21a.8.8 0 1 1 .8-.8.802.802 0 0 1-.8.8ZM11.595 7.79a.76.76 0 0 0 .01-.15c0-.05-.01-.11-.01-.15l.34-.26a.243.243 0 0 0 0-.12l-.32-.56a.082.082 0 0 0-.1-.04l-.4.16a1.346 1.346 0 0 0-.26-.15l-.06-.42a.087.087 0 0 0-.09-.06h-.64a.085.085 0 0 0-.08.07l-.05.42a1.175 1.175 0 0 0-.27.15l-.399-.16a.082.082 0 0 0-.1.04l-.31.56a.068.068 0 0 0 .02.1l.34.26a.756.756 0 0 0-.01.15c0 .05.01.11.01.15l-.34.27a.07.07 0 0 0-.02.1l.32.56a.074.074 0 0 0 .09.04l.4-.16a1.172 1.172 0 0 0 .27.15l.06.419a.085.085 0 0 0 .08.07h.64a.077.077 0 0 0 .08-.07l.06-.42a1.722 1.722 0 0 0 .27-.15l.4.16a.082.082 0 0 0 .099-.04l.32-.56a.075.075 0 0 0-.02-.1Zm-1.21.38a.53.53 0 1 1 .53-.53.527.527 0 0 1-.53.53ZM2.389 5.086h5.447a.311.311 0 0 0 .31-.31v-.02a.311.311 0 0 0-.31-.31h-.17a2.562 2.562 0 0 0-1.28-2.209v.61a.32.32 0 0 1-.639 0v-.87a2.67 2.67 0 0 0-.64-.09 2.588 2.588 0 0 0-.63.09v.87a.32.32 0 0 1-.639 0v-.61a2.562 2.562 0 0 0-1.28 2.21h-.17a.311.311 0 0 0-.309.31v.02a.311.311 0 0 0 .31.309ZM5.118 7.635a2.561 2.561 0 0 0 2.469-1.92H2.649a2.55 2.55 0 0 0 2.469 1.92Z"/></svg>