<svg data-tags="language,translate,Unavailable" xmlns="http://www.w3.org/2000/svg" viewBox="0 0 14 14"><path d="M9.29 6.232c-.028.11-.07.214-.102.322l1.345 1.344.007-.018.02.045 3.202 3.203.002-.001a.844.844 0 0 0-.023-1.193 8.777 8.777 0 0 1-1.95-3.702h1.365a.844.844 0 0 0 0-1.687h-1.7a11.775 11.775 0 0 1-.073-1.3.843.843 0 0 0-1.439-.596.835.835 0 0 0-.248.596 11.944 11.944 0 0 1-.07 1.3h-1.7a.83.83 0 0 0-.539.208l1.48 1.48ZM1.363.388a.708.708 0 0 0-1 1l1.673 1.674a1.57 1.57 0 0 0-.3.706L.019 10.59a.844.844 0 0 0 1.64.4l.421-1.674h2.409l.408 1.67a.848.848 0 0 0 .383.52.826.826 0 0 0 .306.112l.133.011a.79.79 0 0 0 .2-.026.835.835 0 0 0 .3-.14.845.845 0 0 0 .318-.88l-.979-3.999 2.46 2.46a8.434 8.434 0 0 1-.685.896.844.844 0 0 0-.003 1.16.86.86 0 0 0 .616.266.851.851 0 0 0 .552-.207 8.784 8.784 0 0 0 .745-.89l3.343 3.343a.708.708 0 0 0 1-1Zm1.141 7.24.797-3.166.774 3.165Z"/></svg>