<svg data-deprecated="solid/Language.svg" data-tags="sprinklr,Ai" xmlns="http://www.w3.org/2000/svg"
     viewBox="0 0 14 14"><defs><linearGradient
        id="solid_languageAi_clr__a" x1="9.534" y1="-153.683" x2="3.728" y2="-163.149" gradientTransform="matrix(1 0 0 -1 0 -149.213)" gradientUnits="userSpaceOnUse"><stop offset="0" stop-color="#de46e1"/><stop offset=".487" stop-color="#8e43ff"/><stop offset="1" stop-color="#0e61f6"/></linearGradient></defs><path d="M5.59 11.64a.847.847 0 0 1-.303-.112.825.825 0 0 1-.384-.516l-.404-1.667H2.083l-.424 1.667a.802.802 0 0 1-.395.506.786.786 0 0 1-.424.111 1.244 1.244 0 0 1-.202-.02.826.826 0 0 1-.506-.374.806.806 0 0 1-.11-.627l1.717-6.822a1.658 1.658 0 0 1 1.567-1.435 1.702 1.702 0 0 1 1.567 1.455l1.667 6.802a.864.864 0 0 1 .01.324.688.688 0 0 1-.11.313.838.838 0 0 1-.223.243 1.12 1.12 0 0 1-.293.141 1.37 1.37 0 0 1-.202.02ZM4.074 7.646l-.768-3.164-.798 3.164Zm9.086 3.76a.819.819 0 0 1-.576-.233A9.397 9.397 0 0 1 10.543 7.9 9.597 9.597 0 0 1 8.5 11.184a.875.875 0 0 1-.556.202.85.85 0 0 1-.616-.262.874.874 0 0 1-.223-.576.801.801 0 0 1 .233-.577 8.902 8.902 0 0 0 1.96-3.709H7.925a.877.877 0 0 1-.596-.242.921.921 0 0 1-.243-.607.858.858 0 0 1 .243-.596.843.843 0 0 1 .596-.253h1.698a11.255 11.255 0 0 0 .08-1.293.843.843 0 0 1 .253-.597.816.816 0 0 1 .597-.242.858.858 0 0 1 .596.242.833.833 0 0 1 .243.597 11.273 11.273 0 0 0 .07 1.303h1.698a.825.825 0 0 1 .597.253.858.858 0 0 1 .242.596.842.842 0 0 1-.253.597.816.816 0 0 1-.596.242h-1.364a8.612 8.612 0 0 0 1.95 3.7.875.875 0 0 1 .263.575.792.792 0 0 1-.232.607.813.813 0 0 1-.586.263Z" fill="url(#solid_languageAi_clr__a)"/></svg>
