<svg data-tags="dollar,money,lead,journey,cash,budget" xmlns="http://www.w3.org/2000/svg" viewBox="0 0 14 14"><path d="M12.652 7.342l-1.476 1.143a4.439 4.439 0 01-8.525-.547l-.842.652a.744.744 0 01-.854.042l-.813-.515A6.946 6.946 0 0013.858 8.1l-1.205-.758zM1.31 7.091l1.344-1.04a4.436 4.436 0 018.738.38l.76-.588a.743.743 0 01.853-.041l.918.576A6.954 6.954 0 00.077 6.316l1.232.776z"/><path d="M7.645 3.778a3.286 3.286 0 101.682.902 3.287 3.287 0 00-1.682-.902zm.162 4.527a.96.96 0 01-.55.275v.4a.078.078 0 01-.003.033.076.076 0 01-.016.028.077.077 0 01-.026.019.076.076 0 01-.031.007h-.4a.077.077 0 01-.032-.007.078.078 0 01-.026-.02.077.077 0 01-.016-.028.076.076 0 01-.002-.032v-.39a.824.824 0 01-.763-.724.085.085 0 01.007-.033.087.087 0 01.019-.028.085.085 0 01.06-.024h.41a.071.071 0 01.067.057.275.275 0 00.266.21h.353a.391.391 0 10.01-.783h-.248a.956.956 0 01-.972-.837.944.944 0 01.82-1.029v-.39a.083.083 0 01.076-.086h.4a.092.092 0 01.076.085V5.4a.842.842 0 01.762.734.084.084 0 01-.006.033.085.085 0 01-.047.046.086.086 0 01-.033.006h-.41a.071.071 0 01-.066-.057.275.275 0 00-.267-.21h-.352a.374.374 0 00-.4.343.388.388 0 00.39.439h.296a.936.936 0 01.923 1.019.96.96 0 01-.27.553z"/></svg>