<svg data-tags="ai,intelligence,smart,analytics,bulb" xmlns="http://www.w3.org/2000/svg" viewBox="0 0 16.8 21"><path d="M8.664 4.207a5.672 5.672 0 00-4.725 2.144 5.302 5.302 0 00.07 6.68 7.9 7.9 0 011.412 2.46l.116.316a.438.438 0 00.394.293h1.807v-4.604L5.583 9.262a.629.629 0 01.024-.903.67.67 0 01.926.023L8.386 10.3l1.853-1.918a.649.649 0 01.926-.023.629.629 0 01.024.903l-2.154 2.234v4.581h1.83a.396.396 0 00.393-.293l.116-.316a7.903 7.903 0 011.367-2.392 5.475 5.475 0 001.088-2.121 5.475 5.475 0 00-5.165-6.748zM8.4 2.8a.663.663 0 00.7-.622V.622a.705.705 0 00-1.4 0v1.556a.663.663 0 00.7.622zM4.39 3.868a.645.645 0 00.57.332.508.508 0 00.32-.095.678.678 0 00.227-.925L4.71 1.734a.624.624 0 00-.89-.237.678.678 0 00-.227.924zM2.466 5.088l-1.449-.8a.7.7 0 00-.926.229.646.646 0 00.238.891l1.448.8a.56.56 0 00.333.092.712.712 0 00.593-.32.631.631 0 00-.237-.892zM16.703 4.521a.677.677 0 00-.924-.228l-1.445.798a.625.625 0 00-.237.89.682.682 0 00.592.319.56.56 0 00.332-.091l1.445-.798a.63.63 0 00.237-.89zM11.522 4.105a.51.51 0 00.32.095.674.674 0 00.57-.333l.8-1.449a.7.7 0 00-.228-.926.645.645 0 00-.891.237l-.8 1.45a.68.68 0 00.229.926zM10.833 16.8H5.967a.369.369 0 00-.367.38v1.637a.369.369 0 00.367.38h.413a2.033 2.033 0 004.04 0h.413a.369.369 0 00.367-.38V17.18a.369.369 0 00-.367-.38z"/></svg>
