<svg data-deprecated="solid/Light.svg" data-tags="sprinklr,Ai" xmlns="http://www.w3.org/2000/svg"
     viewBox="0 0 14 14"><defs><linearGradient
        id="solid_lightAi_clr__a" x1="9.731" y1="-187.42" x2=".05" y2="-195.655" gradientTransform="matrix(1 0 0 -1 0 -183.36)" gradientUnits="userSpaceOnUse"><stop offset="0" stop-color="#de46e1"/><stop offset=".487" stop-color="#8e43ff"/><stop offset="1" stop-color="#0e61f6"/></linearGradient></defs><path d="M7.173 2.804a3.657 3.657 0 0 0-1.717.334 3.724 3.724 0 0 0-1.377 1.096 3.585 3.585 0 0 0 .046 4.453 5.291 5.291 0 0 1 .924 1.64l.076.21a.292.292 0 0 0 .1.139.284.284 0 0 0 .158.057h1.183v-3.07l-1.41-1.489a.42.42 0 0 1-.09-.14.426.426 0 0 1 .009-.327.42.42 0 0 1 .096-.135.433.433 0 0 1 .607.016L6.99 6.866l1.213-1.278a.425.425 0 0 1 .137-.1.418.418 0 0 1 .328-.008.424.424 0 0 1 .141.092.419.419 0 0 1 .097.135.426.426 0 0 1 .008.327.42.42 0 0 1-.089.14l-1.41 1.49v3.054h1.198a.256.256 0 0 0 .162-.053.264.264 0 0 0 .095-.143l.076-.21a5.294 5.294 0 0 1 .895-1.595 3.674 3.674 0 0 0 .713-1.414 3.702 3.702 0 0 0-.64-3.069 3.6 3.6 0 0 0-1.212-1.03 3.534 3.534 0 0 0-1.53-.4ZM7 1.866a.43.43 0 0 0 .313-.11.445.445 0 0 0 .145-.305V.414a.473.473 0 0 0-.152-.296.455.455 0 0 0-.612 0 .473.473 0 0 0-.152.296v1.037a.445.445 0 0 0 .145.304.43.43 0 0 0 .313.111Zm-2.626.712a.426.426 0 0 0 .157.163.417.417 0 0 0 .217.058.328.328 0 0 0 .21-.063.452.452 0 0 0 .198-.277.459.459 0 0 0-.05-.34l-.522-.964a.415.415 0 0 0-.107-.132.406.406 0 0 0-.15-.077A.402.402 0 0 0 4 .997a.452.452 0 0 0-.198.277.459.459 0 0 0 .05.34Zm-1.26.813-.948-.533a.451.451 0 0 0-.333-.045.459.459 0 0 0-.274.198.437.437 0 0 0 .03.483.425.425 0 0 0 .126.11l.948.534a.362.362 0 0 0 .218.062.46.46 0 0 0 .22-.057.47.47 0 0 0 .169-.157.427.427 0 0 0-.026-.485.415.415 0 0 0-.13-.11Zm9.323-.378a.444.444 0 0 0-.272-.202.436.436 0 0 0-.333.05l-.947.532a.41.41 0 0 0-.13.11.423.423 0 0 0-.025.484.45.45 0 0 0 .167.158.44.44 0 0 0 .22.055.362.362 0 0 0 .218-.061l.946-.532a.414.414 0 0 0 .13-.11.426.426 0 0 0 .026-.483Zm-3.393-.277a.33.33 0 0 0 .21.063.435.435 0 0 0 .215-.06.445.445 0 0 0 .158-.161l.524-.966a.474.474 0 0 0 .044-.34.467.467 0 0 0-.194-.278.416.416 0 0 0-.474.03.428.428 0 0 0-.109.128l-.524.967a.46.46 0 0 0-.049.34.453.453 0 0 0 .2.277ZM8.593 11.2H5.407a.238.238 0 0 0-.094.02.241.241 0 0 0-.079.055.246.246 0 0 0-.051.082.25.25 0 0 0-.016.096v1.091a.248.248 0 0 0 .067.179.243.243 0 0 0 .08.055.238.238 0 0 0 .093.02h.27a1.364 1.364 0 0 0 .436.858 1.314 1.314 0 0 0 1.773 0 1.364 1.364 0 0 0 .437-.858h.27a.238.238 0 0 0 .094-.02.243.243 0 0 0 .079-.055.248.248 0 0 0 .051-.083.25.25 0 0 0 .016-.096v-1.091a.25.25 0 0 0-.016-.096.246.246 0 0 0-.051-.082.241.241 0 0 0-.08-.056.238.238 0 0 0-.093-.02Z" fill="url(#solid_lightAi_clr__a)"/></svg>
