<svg data-tags="linkedin,emoji,hand,celebrate,clap,reaction" xmlns="http://www.w3.org/2000/svg" viewBox="0 0 14 14"><path fill="#285017" d="M7.258 12.109a3.742 3.742 0 0 1-2.031-.637L1.22 8.54a1.109 1.109 0 0 1-.33-.304 1.206 1.206 0 0 1-.01-1.415 1.739 1.739 0 0 1 .124-.126l-.063-.047a1.168 1.168 0 0 1-.343-1.7 1.245 1.245 0 0 1 .194-.196L.79 4.75a1.147 1.147 0 0 1-.202-.451 1.169 1.169 0 0 1 .004-.492 1.164 1.164 0 0 1 .584-.772 1.167 1.167 0 0 1 .964-.064l.036.014a1.23 1.23 0 0 1 .092-.192.403.403 0 0 1 .037-.053 1.202 1.202 0 0 1 1.359-.378 1.187 1.187 0 0 1 .422.266L7.25 5.031q-.064-.25-.117-.502a6.76 6.76 0 0 1-.069-.789 1.098 1.098 0 0 1 .043-.423 1.182 1.182 0 0 1 .574-.707 1.183 1.183 0 0 1 .446-.133c.842.015 1.047.483 1.217 1.047a3.677 3.677 0 0 0 1.147 1.59.467.467 0 0 1 .156.233 9.269 9.269 0 0 1 .371 2.392.47.47 0 0 1-.94.022 8.342 8.342 0 0 0-.294-2.014 4.625 4.625 0 0 1-1.33-1.927 1.279 1.279 0 0 0-.152-.39.562.562 0 0 0-.14-.015c.02 0-.01.01-.038.025a.224.224 0 0 0-.07.058.229.229 0 0 0-.044.082.24.24 0 0 0-.008.096 6.496 6.496 0 0 0 .057.691 10.797 10.797 0 0 0 .539 1.77.47.47 0 0 1-.72.548L3.472 3.338a.43.43 0 0 0-.135-.096.324.324 0 0 0-.107-.016.258.258 0 0 0-.17.076.226.226 0 0 0-.017.06.236.236 0 0 0 .006.094.22.22 0 0 0 .042.083.234.234 0 0 0 .072.062.528.528 0 0 1 .055.036L5.421 5.3l.618.583a.47.47 0 0 1-.608.715L1.938 3.946a.454.454 0 0 1-.052-.046.214.214 0 0 0-.08-.05.268.268 0 0 0-.092-.014.24.24 0 0 0-.093.026.23.23 0 0 0-.071.061.243.243 0 0 0-.042.09.23.23 0 0 0 0 .095.21.21 0 0 0 .038.085.229.229 0 0 0 .072.064.468.468 0 0 1 .055.035l.473.358a1.222 1.222 0 0 1 .233.176l2.816 2.108a.47.47 0 0 1-.562.753l-2.99-2.24-.007-.003a.353.353 0 0 0-.108-.016.272.272 0 0 0-.108.03.277.277 0 0 0-.085.07c-.093.12.045.27.178.374l.817.614a1.186 1.186 0 0 1 .312.226l2.172 1.641a.47.47 0 0 1-.566.75L1.86 7.338a.267.267 0 0 0-.166.013.257.257 0 0 0-.085.06c.027-.016-.001.024-.009.058a.264.264 0 0 0 0 .11.26.26 0 0 0 .046.1.27.27 0 0 0 .084.073l4.057 2.965c.488.368 1.671.639 2.076.287a.47.47 0 0 1 .617.71 1.828 1.828 0 0 1-1.222.395Z"/><path fill="#489944" fill-rule="evenodd" d="M10.274 7.523a.163.163 0 0 1-.06.182.152.152 0 0 1-.183 0L5.835 4.561a.807.807 0 0 0-.222-.142.494.494 0 0 0-.243-.04.633.633 0 0 0-.222.07.522.522 0 0 0-.182.152.542.542 0 0 0-.071.192.507.507 0 0 0 .02.213.522.522 0 0 0 .091.202.74.74 0 0 0 .162.142l2.224 1.668.668.556a.159.159 0 0 1 .02.223.156.156 0 0 1-.212.02l-3.53-2.65a.692.692 0 0 0-.212-.151.64.64 0 0 0-.232-.03.443.443 0 0 0-.233.06.709.709 0 0 0-.192.152 1.035 1.035 0 0 0-.08.212.61.61 0 0 0 .01.233.676.676 0 0 0 .1.212.494.494 0 0 0 .183.142l.535.414a.65.65 0 0 1 .132.101L7.22 8.656a.156.156 0 0 1-.182.253L4.167 6.765l-.02-.02-.081-.06c-.04-.031-.081-.041-.111-.061a.49.49 0 0 0-.243-.03.912.912 0 0 0-.223.06.553.553 0 0 0-.182.162.435.435 0 0 0-.1.333.78.78 0 0 0 .323.476l3.306 2.477a.17.17 0 0 1 .03.222.161.161 0 0 1-.222.03L4.4 8.697a.536.536 0 0 0-.374-.151h-.02a.586.586 0 0 0-.374.172.485.485 0 0 0-.091.192.598.598 0 0 0 0 .232.402.402 0 0 0 .091.213.494.494 0 0 0 .162.161l2.74 2.053c-.02 0-.04-.01-.06-.01a2.65 2.65 0 0 1-.961-.465l-2.195-1.67-1.82-1.374a.719.719 0 0 1-.233-.192.71.71 0 0 1-.121-.283.767.767 0 0 1 0-.303.668.668 0 0 1 .121-.273.552.552 0 0 1 .243-.182.726.726 0 0 1 .293-.061.715.715 0 0 1 .283.06l-.86-.646a.875.875 0 0 1-.232-.193.853.853 0 0 1-.131-.273A1.018 1.018 0 0 1 .85 5.4a.732.732 0 0 1 .12-.273.61.61 0 0 1 .233-.192.61.61 0 0 1 .294-.08.641.641 0 0 1 .303.05.333.333 0 0 1 .131.07l-.546-.414a.802.802 0 0 1-.222-.192.855.855 0 0 1-.132-.273.724.724 0 0 1-.01-.293.971.971 0 0 1 .112-.284.887.887 0 0 1 .242-.192.736.736 0 0 1 .293-.07.712.712 0 0 1 .294.04.877.877 0 0 1 .263.162l1.597 1.223 1.89 1.436-.626-.506-1.223-.94-.93-.708a.843.843 0 0 1-.233-.192.853.853 0 0 1-.132-.273.71.71 0 0 1-.01-.293.972.972 0 0 1 .111-.283.718.718 0 0 1 .233-.192.748.748 0 0 1 .293-.081.761.761 0 0 1 .304.04.879.879 0 0 1 .262.162L5.34 4.065l2.639 2.033.182.1c-.05-.13-.111-.262-.162-.393a9.592 9.592 0 0 1-.374-1.406q-.046-.349-.06-.698a.871.871 0 0 1 .02-.283.705.705 0 0 1 .13-.242.731.731 0 0 1 .486-.263c.455.01.566.202.728.718a4.925 4.925 0 0 0 .597 1.476v.01a3.503 3.503 0 0 0 .354.536 1.507 1.507 0 0 0 .02.212c.172.88.344 1.598.374 1.658Z"/><path fill="#285017" d="M7.798 11.887a4.678 4.678 0 0 1-2.383-.665l-4.01-2.934a.859.859 0 0 1-.262-.237.89.89 0 0 1-.008-1.048.883.883 0 0 1 .44-.271l-.446-.334a.864.864 0 0 1-.284-1.26.9.9 0 0 1 .286-.235.91.91 0 0 1 .208-.078l-.043-.033a.797.797 0 0 1-.253-.227.834.834 0 0 1-.148-.33.85.85 0 0 1 .155-.69.85.85 0 0 1 .622-.334.874.874 0 0 1 .357.053.853.853 0 0 1 .304.198l.093.07a.873.873 0 0 1-.003-.255.857.857 0 0 1 .114-.324.904.904 0 0 1 .297-.252.894.894 0 0 1 .357-.1.86.86 0 0 1 .364.054.879.879 0 0 1 .312.198L7.826 5.86a11.65 11.65 0 0 1-.386-1.395 6.331 6.331 0 0 1-.061-.733.857.857 0 0 1 .189-.629.86.86 0 0 1 .262-.217.87.87 0 0 1 .327-.097c.6.012.736.32.888.825a4.004 4.004 0 0 0 1.25 1.744.155.155 0 0 1 .052.078 8.972 8.972 0 0 1 .359 2.31.157.157 0 0 1-.153.16.163.163 0 0 1-.16-.152 8.634 8.634 0 0 0-.333-2.184 4.316 4.316 0 0 1-1.312-1.857c-.158-.525-.234-.604-.58-.611a.56.56 0 0 0-.19.06.552.552 0 0 0-.268.331.555.555 0 0 0-.02.218 6.422 6.422 0 0 0 .059.7 11.112 11.112 0 0 0 .558 1.842.157.157 0 0 1-.24.183L3.663 3.09a.613.613 0 0 0-.216-.14.576.576 0 0 0-.653.182.564.564 0 0 0-.06.188.549.549 0 0 0 .278.556l2.22 1.676.59.559a.157.157 0 0 1-.202.238L2.127 3.696a.581.581 0 0 0-.208-.14.54.54 0 0 0-.446.03.538.538 0 0 0-.271.585.524.524 0 0 0 .093.208.53.53 0 0 0 .17.151l.501.378a.883.883 0 0 1 .199.147l2.842 2.13a.157.157 0 0 1-.187.25l-1.321-.978-1.694-1.28a.546.546 0 0 0-.061-.026.575.575 0 0 0-.236-.035.574.574 0 0 0-.417.217c-.277.358.068.69.229.816l.847.636a.873.873 0 0 1 .278.203l2.18 1.645a.157.157 0 0 1-.188.25v-.001l-2.43-1.824a.578.578 0 0 0-.44.006.568.568 0 0 0-.19.136.584.584 0 0 0-.084.206.577.577 0 0 0 .281.619l4.027 2.945a4.273 4.273 0 0 0 2.544.579.16.16 0 0 1 .18.129.157.157 0 0 1-.129.18 2.574 2.574 0 0 1-.399.03Z"/><path fill="#285017" d="M10.503 14a1.26 1.26 0 0 1-.557-.129 2.121 2.121 0 0 0-.714-.241l-.57-.089a3.198 3.198 0 0 1-1.316-.577l-3.915-2.936a1.108 1.108 0 0 1-.32-.32 1.188 1.188 0 0 1-.187-.45 1.17 1.17 0 0 1 .01-.49 1.184 1.184 0 0 1 .207-.444.604.604 0 0 1 .041-.048c.025-.025.05-.048.076-.071l-.1-.075a1.38 1.38 0 0 1-.574-.898 1.06 1.06 0 0 1 .23-.803 1.154 1.154 0 0 1 .19-.196 1.167 1.167 0 0 1-.215-.444 1.18 1.18 0 0 1-.014-.496 1.165 1.165 0 0 1 .19-.459 1.221 1.221 0 0 1 .405-.344 1.197 1.197 0 0 1 .483-.133 1.175 1.175 0 0 1 .497.079 1.158 1.158 0 0 1 .087-.175 1.224 1.224 0 0 1 .415-.369 1.201 1.201 0 0 1 .483-.136 1.155 1.155 0 0 1 .5.076 1.19 1.19 0 0 1 .395.246l3.142 2.351-.092-.455a6.947 6.947 0 0 1-.067-.78 1.09 1.09 0 0 1 .041-.423 1.18 1.18 0 0 1 .576-.709 1.175 1.175 0 0 1 .446-.133c.841.015 1.046.483 1.216 1.047a5.378 5.378 0 0 0 1.095 2.162.452.452 0 0 1 .037.052 2.813 2.813 0 0 1 .423 1.27l.026.11a3.164 3.164 0 0 1 .071.47 1.651 1.651 0 0 0 .326.506.47.47 0 0 1 .103.173 1.305 1.305 0 0 1 .046.642 4.003 4.003 0 0 1-.767 2.15 4.2 4.2 0 0 1-1.956 1.43 1.364 1.364 0 0 1-.393.059ZM3.876 8.913a.257.257 0 0 0-.026.067.25.25 0 0 0-.003.103.259.259 0 0 0 .04.099.254.254 0 0 0 .075.072l3.948 2.958a2.236 2.236 0 0 0 .912.404l.551.085a3.033 3.033 0 0 1 1.004.335.335.335 0 0 0 .229.012 3.25 3.25 0 0 0 1.492-1.097 3.143 3.143 0 0 0 .59-1.695.736.736 0 0 0 .009-.166 2.599 2.599 0 0 1-.462-.796.478.478 0 0 1-.028-.16 1.907 1.907 0 0 0-.054-.373l-.036-.18a1.971 1.971 0 0 0-.272-.865 6.282 6.282 0 0 1-1.258-2.492 1.074 1.074 0 0 0-.137-.342.562.562 0 0 0-.141-.015c.02 0-.01.01-.036.024a.24.24 0 0 0-.074.06.247.247 0 0 0-.042.083.228.228 0 0 0-.008.09 6.717 6.717 0 0 0 .058.696c.17.862.34 1.538.361 1.608a.477.477 0 0 1-.177.527.467.467 0 0 1-.55-.001L5.644 4.812a.493.493 0 0 1-.05-.044.25.25 0 0 0-.09-.058.224.224 0 0 0-.11-.016.243.243 0 0 0-.1.028.251.251 0 0 0-.083.07c.025-.024.003.015-.001.043a.244.244 0 0 0 .004.097.247.247 0 0 0 .043.085.24.24 0 0 0 .069.058l2.253 1.697.68.56a.47.47 0 0 1-.58.738L4.155 5.418a.467.467 0 0 1-.053-.046.25.25 0 0 0-.09-.06.228.228 0 0 0-.106-.017.258.258 0 0 0-.104.029.262.262 0 0 0-.082.068.403.403 0 0 0-.02.069.26.26 0 0 0 .002.106.242.242 0 0 0 .044.09.248.248 0 0 0 .078.067.436.436 0 0 1 .065.04l.525.397a1.2 1.2 0 0 1 .123.093l2.873 2.15a.47.47 0 0 1-.561.754l-2.87-2.144-.03-.027-.061-.046a.21.21 0 0 0-.041-.02.246.246 0 0 0-.108-.016.26.26 0 0 0-.1.029.253.253 0 0 0-.082.07c-.048.06-.044.092-.043.106a.506.506 0 0 0 .209.27L7.02 9.854a.47.47 0 0 1-.564.752l-2.24-1.663a.3.3 0 0 0-.198-.082.248.248 0 0 0-.142.052Z"/><path fill="#6cad4d" fill-rule="evenodd" d="m13.166 9.818-.44-.332a6.5 6.5 0 0 0-.5-2.094 5.725 5.725 0 0 1-1.183-2.33c-.157-.518-.265-.704-.724-.714a.705.705 0 0 0-.637.783 6.58 6.58 0 0 0 .06.705c.175.91.361 1.653.38 1.693L5.926 4.387a.734.734 0 0 0-1.087.069c-.303.401-.058.792.255 1.037l2.202 1.654.665.548-3.523-2.7a.734.734 0 0 0-1.086.068c-.303.391-.059.792.254 1.037l2.202 1.654 1.321.978L4.261 6.59a.724.724 0 0 0-1.076.069.705.705 0 0 0 .254 1.037L5.641 9.35l1.096.832-2.241-1.654a.695.695 0 0 0-.979.039.714.714 0 0 0 .196 1.086l3.915 2.936a4.11 4.11 0 0 0 1.957.577 5.87 5.87 0 0 0 .783.401 3.151 3.151 0 0 0 1.957-1.233 4.707 4.707 0 0 0 .841-2.515Z"/><path fill="#285017" d="M6.602 2.694a.313.313 0 0 1-.245-.507l.714-.9a.313.313 0 1 1 .49.388l-.714.9a.31.31 0 0 1-.245.12Zm-1.184-.533a.323.323 0 0 1-.12-.024.314.314 0 0 1-.17-.41L5.763.201a.313.313 0 1 1 .579.24l-.635 1.527a.314.314 0 0 1-.29.193Zm-1.302-.367a.313.313 0 0 1-.312-.296L3.74.33V.313a.313.313 0 0 1 .295-.312.298.298 0 0 1 .33.295l.064 1.168v.017a.313.313 0 0 1-.296.312Zm9.161 8.025a.209.209 0 0 0-.04-.06 1.99 1.99 0 0 1-.405-.658 1.787 1.787 0 0 0-.07-.465q-.016-.091-.03-.152a2.52 2.52 0 0 0-.385-1.143 5.648 5.648 0 0 1-1.153-2.275c-.151-.505-.293-.808-.89-.829a.928.928 0 0 0-.323.101.9.9 0 0 0-.263.213.738.738 0 0 0-.162.303 1.082 1.082 0 0 0-.03.253v.08q.015.35.06.729c.102.495.203.95.274 1.274L7.999 5.805 6.037 4.328a.877.877 0 0 0-.313-.202.92.92 0 0 0-.364-.06h-.02a.883.883 0 0 0-.637.353.773.773 0 0 0-.111.324 1.247 1.247 0 0 0-.008.169.24.24 0 0 0-.036.02.796.796 0 0 0-.31-.2.77.77 0 0 0-.364-.06h-.01a.06.06 0 0 0-.04.01.86.86 0 0 0-.314.091.791.791 0 0 0-.283.243.814.814 0 0 0-.142.334.884.884 0 0 0 .01.364.496.496 0 0 0 .06.171c0 .01 0 .01.01.01a.605.605 0 0 0 .092.152.719.719 0 0 0 .241.205.23.23 0 0 0-.017.077c-.048.017-.098.032-.143.052a.892.892 0 0 0-.273.242.716.716 0 0 0-.172.567.732.732 0 0 0 .111.313l.01.01a1.119 1.119 0 0 0 .334.364l.44.333c-.013.021-.007.045-.014.068a.886.886 0 0 0-.386.236.87.87 0 0 0-.151.324.884.884 0 0 0 0 .364.458.458 0 0 0 .08.222.375.375 0 0 0 .051.112.955.955 0 0 0 .253.242l3.913 2.932a2.936 2.936 0 0 0 1.173.526l.576.081a2.343 2.343 0 0 1 .799.273 1.047 1.047 0 0 0 .425.101.928.928 0 0 0 .283-.05 3.917 3.917 0 0 0 1.81-1.315 3.707 3.707 0 0 0 .707-2.022.983.983 0 0 0-.03-.485Zm-.93 2.325a3.61 3.61 0 0 1-1.648 1.204.641.641 0 0 1-.475-.04 2.482 2.482 0 0 0-.9-.294l-.556-.091a2.434 2.434 0 0 1-1.042-.465l-1.193-.89-2.74-2.053a.494.494 0 0 1-.162-.161.402.402 0 0 1-.091-.213.598.598 0 0 1 0-.232.485.485 0 0 1 .091-.192.582.582 0 0 1 .257-.142l2.835 1.958a.253.253 0 0 0 .287-.417l-1.971-1.36-1.51-1.131a.78.78 0 0 1-.323-.476.435.435 0 0 1 .101-.333.553.553 0 0 1 .182-.162.805.805 0 0 1 .119-.032l3.497 2.463a.246.246 0 0 0 .146.046.253.253 0 0 0 .145-.459L4.68 6.76l-.332-.248a.65.65 0 0 0-.132-.1l-.535-.415a.494.494 0 0 1-.182-.142.676.676 0 0 1-.102-.212.61.61 0 0 1-.01-.233 1.035 1.035 0 0 1 .081-.212.709.709 0 0 1 .192-.152.443.443 0 0 1 .233-.06.64.64 0 0 1 .232.03.692.692 0 0 1 .213.152l.194.145.005.009 3.31 2.491a.253.253 0 1 0 .304-.405L4.912 4.97a.478.478 0 0 1-.017-.176.542.542 0 0 1 .07-.192.522.522 0 0 1 .183-.151.633.633 0 0 1 .222-.071.494.494 0 0 1 .243.04.807.807 0 0 1 .222.142l4.196 3.144a.152.152 0 0 0 .182 0 .163.163 0 0 0 .061-.182c-.03-.06-.202-.778-.374-1.658a1.507 1.507 0 0 1-.02-.212 7.595 7.595 0 0 1-.04-.496.556.556 0 0 1 .12-.404.545.545 0 0 1 .162-.142 1.022 1.022 0 0 1 .192-.06c.344.01.425.09.577.596a5.885 5.885 0 0 0 1.203 2.376 2.143 2.143 0 0 1 .334 1.001l.03.172a2.245 2.245 0 0 1 .06.435.076.076 0 0 0 .01.05 2.278 2.278 0 0 0 .456.77.676.676 0 0 1 .02.323 3.459 3.459 0 0 1-.657 1.87Z"/></svg>