<svg data-tags="external link,chain,tag" xmlns="http://www.w3.org/2000/svg" viewBox="0 0 14 14"><path d="M7 0a7 7 0 107 7 7 7 0 00-7-7zm-.066 9.524q-.049.057-.102.11l-.638.638a1.684 1.684 0 01-.979.499 1.706 1.706 0 01-1.524-.524 1.738 1.738 0 01-.032-2.363c.248-.268.51-.523.775-.775a1.639 1.639 0 01.939-.437 1.677 1.677 0 01.632.031l.013.018a.287.287 0 00-.045.026l-1.65 1.647a.907.907 0 001.287 1.28l1.645-1.646a.206.206 0 01.034-.039 1.57 1.57 0 01.052.532 1.736 1.736 0 01-.407 1.003zm.887-3.958a.438.438 0 01.323-.146.432.432 0 01.323.72l-.035.037-2.256 2.257a.447.447 0 01-.322.145h-.012a.437.437 0 01-.42-.454.425.425 0 01.11-.264q.018-.021.038-.04zm2.637.408a1.62 1.62 0 01-.17.2c-.21.215-.425.425-.636.64a1.74 1.74 0 01-1.653.482l-.008-.013c.014-.011.03-.02.042-.033q.815-.817 1.633-1.632a.95.95 0 00.275-.509.904.904 0 00-.68-1.038.885.885 0 00-.864.25q-.827.824-1.65 1.65c-.011.012-.016.03-.031.04a1.444 1.444 0 01-.056-.53 1.74 1.74 0 01.502-1.106c.224-.225.447-.452.676-.675a1.67 1.67 0 01.92-.465 1.694 1.694 0 011.433.403 1.674 1.674 0 01.584 1.083 1.698 1.698 0 01-.317 1.253z"/></svg>