<svg data-tags="external link,chain,tag" xmlns="http://www.w3.org/2000/svg" viewBox="0 0 14 14"><path d="M9.697 5.42a.795.795 0 00-.594-1.326.805.805 0 00-.594.269L4.367 8.51q-.036.035-.069.073a.782.782 0 00-.205.487.805.805 0 00.797.836.822.822 0 00.593-.268l4.15-4.153z"/><path d="M11.878 6.657c.389-.393.784-.78 1.171-1.174a2.988 2.988 0 00.313-.37 3.125 3.125 0 00.581-2.305A3.08 3.08 0 0012.871.814a3.117 3.117 0 00-2.637-.741A3.073 3.073 0 008.54.929c-.421.41-.83.827-1.244 1.241a3.202 3.202 0 00-.923 2.038 2.656 2.656 0 00.102.974c.028-.02.037-.053.06-.074q1.513-1.52 3.033-3.035a1.629 1.629 0 011.59-.462 1.663 1.663 0 011.252 1.911 1.748 1.748 0 01-.507.936Q10.4 5.957 8.898 7.46c-.022.022-.05.04-.076.06l.014.024a3.2 3.2 0 003.042-.888zM.91 12.976a3.138 3.138 0 002.805.963 3.1 3.1 0 001.8-.918l1.174-1.173q.098-.097.187-.203h.001a3.194 3.194 0 00.75-1.846 2.89 2.89 0 00-.096-.978.377.377 0 00-.064.071L4.44 11.921a1.67 1.67 0 01-2.367-2.354L5.11 6.535a.53.53 0 01.083-.048l-.024-.032a3.086 3.086 0 00-1.163-.057 3.015 3.015 0 00-1.728.803c-.488.464-.97.933-1.425 1.427a3.07 3.07 0 00-.805 2.494 3.052 3.052 0 00.862 1.854z"/></svg>