<svg data-tags="linkedin,emoji,hand,celebrate,clap,reaction" xmlns="http://www.w3.org/2000/svg" viewBox="0 0 14 14"><path fill="#54af3c" fill-rule="evenodd" d="M14 7a7.04 7.04 0 01-.53 2.68 6.08 6.08 0 01-.51.98 6.7 6.7 0 01-2.3 2.29 4.26 4.26 0 01-.61.35A6.9 6.9 0 017 14a7 7 0 117-7z"/><path fill="#0a5523" d="M12.99 10.53a.3.3 0 01-.03.13 6.08 6.08 0 00.5-.98.21.21 0 00-.03-.06 1.48 1.48 0 01-.12-.14 1.95 1.95 0 01-.21-.37 1.05 1.05 0 01-.06-.24L13 8.64a.86.86 0 00-.03-.17 1.42 1.42 0 01-.04-.2l-.03-.18a.7.7 0 00-.03-.14l-.04-.14a1.55 1.55 0 00-.38-.63l-.1-.12c-.1-.12-.14-.27-.25-.4l-.08-.13a2.1 2.1 0 01-.15-.3l-.11-.25a2.49 2.49 0 01-.11-.3l-.06-.17-.06-.22a.65.65 0 00-.04-.13 1.55 1.55 0 00-.08-.23 1.04 1.04 0 00-.11-.21.66.66 0 00-.18-.2.9.9 0 00-.83-.07 1.8 1.8 0 00-.27.18 1.1 1.1 0 00-.2.25.03.03 0 01-.02.03c-.02-.01-.01-.02-.01-.03 0-.03 0-.06-.03-.07a.79.79 0 00-.14-.36.86.86 0 00-1.4-.03.76.76 0 00-.17.35.9.9 0 00-.03.28c0 .15 0 .3.03.45l-.01.03-.03-.01-.32-.23-.24-.2a2.15 2.15 0 00-.2-.12c-.07-.08-.16-.13-.24-.2-.1-.08-.2-.13-.28-.21l-.03-.02a.07.07 0 00-.06-.04.34.34 0 00-.12-.1 1.19 1.19 0 00-.25-.12.92.92 0 00-.37-.05.57.57 0 00-.13 0 .68.68 0 00-.2.08.5.5 0 00-.16.09c-.02 0-.04.02-.04.05a.06.06 0 00-.05.05h-.05a1.7 1.7 0 00-.14-.11 6.83 6.83 0 00-.43-.32.9.9 0 00-1.13.09 1.21 1.21 0 00-.24.35.45.45 0 01-.03.1c-.02.03-.02.03-.04.02a1 1 0 00-.34-.13.9.9 0 00-.51.07.95.95 0 00-.36.3.92.92 0 00-.14.28.78.78 0 00-.02.4.49.49 0 00.04.1 1.2 1.2 0 00.08.17 1.3 1.3 0 00.18.23s.03.03 0 .04l-.12.08a1.37 1.37 0 00-.3.39.76.76 0 00-.05.25.83.83 0 00.05.35.6.6 0 00.09.18 1.18 1.18 0 00.23.27 1.67 1.67 0 00.14.1c.06.1.34.16.1.26a1.03 1.03 0 00-.23.3.74.74 0 00-.1.38.83.83 0 00.03.27 1.6 1.6 0 00.1.23 1.08 1.08 0 00.26.3l.39.29a2.14 2.14 0 00.24.18l.36.27.36.26.36.26.37.27.34.25c.1.09.22.17.33.25a.23.23 0 00.1.07c.2.17.42.3.6.46a.9.9 0 01.17.1l.16.12a2.54 2.54 0 00.62.37l.29.1a2.45 2.45 0 00.29.08l.44.04.42-.01a.08.08 0 01.07 0 3.11 3.11 0 00.5.2 1.62 1.62 0 00.3.08 4.4 4.4 0 01.94.2 4.26 4.26 0 00.62-.34.28.28 0 01-.13-.04l-.27-.11-.24-.08a.83.83 0 01-.15-.04.52.52 0 01-.21-.04h-.03a1.56 1.56 0 01-.3-.05h-.01a2.5 2.5 0 01-.27-.04 5.05 5.05 0 01-.2-.06 1.89 1.89 0 01-.25-.11 1.93 1.93 0 01-.31-.18l-.16-.12a3.53 3.53 0 01-.24-.17l-.31-.23a2.14 2.14 0 00-.24-.18l-.25-.2c-.1-.07-.2-.13-.28-.2l-.45-.34-.35-.26a13.29 13.29 0 01-.77-.58l-.22-.16-.33-.25-.24-.18a.58.58 0 01-.15-.25.28.28 0 010-.22.36.36 0 01.2-.21.31.31 0 01.25 0 .72.72 0 01.25.12l.33.25a2.56 2.56 0 01.26.2.7.7 0 00.14.1c.1.09.23.17.35.26a3.16 3.16 0 00.29.22l.3.23a1.92 1.92 0 00.18.13l.24.18a.3.3 0 00.13.05.28.28 0 00.25-.17c0-.03.03-.05.03-.08a.3.3 0 00-.13-.24l-.33-.25-.4-.3-.33-.25c-.12-.1-.24-.17-.36-.26l-.23-.18-.48-.36L5 8.12c-.12-.08-.22-.18-.33-.26-.11-.07-.21-.16-.33-.23a1.9 1.9 0 01-.21-.2.47.47 0 01-.11-.25.4.4 0 01.13-.26.3.3 0 01.29-.1.48.48 0 01.2.08 3.17 3.17 0 01.38.27l.44.32a1.34 1.34 0 00.14.1 1.73 1.73 0 01.14.12 1.1 1.1 0 01.17.13l.1.08c.16.1.3.23.46.34l.36.26.27.2c.09.08.17.15.26.2a.54.54 0 00.16.1.15.15 0 00.13 0 .25.25 0 00.18-.13.25.25 0 000-.12c.03-.12-.05-.18-.13-.24a4.68 4.68 0 00-.27-.2 1.73 1.73 0 00-.14-.11 2.5 2.5 0 00-.17-.12c-.05-.04-.1-.1-.16-.13a.4.4 0 01-.1-.08l-.45-.34-.33-.24c-.11-.1-.22-.17-.32-.25a4.44 4.44 0 00-.27-.2l-.34-.25a2.14 2.14 0 00-.24-.18c-.11-.1-.23-.17-.34-.26l-.2-.15a.7.7 0 01-.18-.26.3.3 0 01.05-.26.38.38 0 01.14-.14.34.34 0 01.28-.03 1.06 1.06 0 01.26.13l.14.1.29.23c.1.09.22.18.34.26l.44.33.42.3c.1.1.2.17.32.26l.25.19.34.26.27.19.2.17.27.19a.31.31 0 00.23.06.25.25 0 00.18-.15.3.3 0 00.03-.1.25.25 0 00-.08-.18 1.32 1.32 0 00-.22-.18 2.2 2.2 0 01-.18-.14 3.4 3.4 0 00-.3-.23 7.73 7.73 0 01-.34-.26l-.36-.27-.27-.2-.28-.21-.3-.23-.45-.33a.54.54 0 01-.16-.14.51.51 0 01-.12-.23.32.32 0 01.08-.26 1.05 1.05 0 01.1-.1.3.3 0 01.35-.02 1.67 1.67 0 01.28.18.13.13 0 01.07.06.55.55 0 01.08.06 3.72 3.72 0 01.32.23l.14.1.28.2c.1.09.2.18.33.26a1.43 1.43 0 00.15.1c.1.09.2.18.33.26l.22.16.25.19.24.18.3.23.28.2c.1.08.2.17.33.25l.22.16a2.44 2.44 0 01.25.2.64.64 0 00.18.1.23.23 0 00.24-.07.26.26 0 00.05-.3l-.06-.23a.94.94 0 00-.06-.24l-.02-.12-.04-.16a.9.9 0 00-.03-.16l-.04-.18-.06-.3a.45.45 0 01-.03-.16 1.66 1.66 0 00-.03-.22 3.77 3.77 0 01-.02-.47.34.34 0 01.17-.3.33.33 0 01.23-.07.3.3 0 01.28.2l.1.36.07.2a2.25 2.25 0 00.08.25.52.52 0 00.06.16 2.02 2.02 0 00.1.26 1.04 1.04 0 00.12.24l.15.29.19.29.2.3a2.5 2.5 0 01.26.33.75.75 0 01.09.25.38.38 0 00.03.1 2.57 2.57 0 00.05.27c0 .1.04.2.05.3 0 .12.03.22.04.33a2.41 2.41 0 00.08.25l.14.29.06.09.19.24a.2.2 0 01.03.1v.1a2.72 2.72 0 01-.04.42zM2.42 5.29a.43.43 0 01.13-.2.34.34 0 01.3-.07.85.85 0 01.3.15l.35.26a.6.6 0 00.13.09.06.06 0 01.03.07v.1a.66.66 0 00.07.34.88.88 0 00.18.25.23.23 0 00.08.09c.02 0 0 .02-.01.03a.9.9 0 00-.2.14c-.03.04-.06.04-.08 0-.1-.08-.2-.13-.28-.21-.11-.1-.23-.17-.34-.25a8.89 8.89 0 01-.32-.24.92.92 0 01-.32-.33.28.28 0 01-.02-.22zm2.04 4.69a1.71 1.71 0 01.14.1c.06.05.1.09.17.13l.3.23.34.26.33.24.34.26.25.18.2.16a.83.83 0 00.13.08l.24.19.24.18.13.09.2.15a.14.14 0 00.04.03c-.02.02-.03.02-.04 0a.47.47 0 00-.17-.03 3.25 3.25 0 00-.17-.06l-.23-.1a2.52 2.52 0 01-.22-.12 5.35 5.35 0 01-.48-.35l-.42-.3-.36-.27-.34-.25a8.1 8.1 0 00-.36-.26c-.11-.1-.23-.17-.34-.25l-.3-.22-.33-.24c-.11-.1-.22-.17-.33-.25L3.2 9.4l-.13-.1-.22-.16a.81.81 0 01-.3-.31.35.35 0 01.05-.38.28.28 0 01.24-.14.38.38 0 01.23.06 1.4 1.4 0 01.32.22c.1.07.2.16.33.23a.11.11 0 01.05.1.81.81 0 000 .22.94.94 0 00.1.28 1.28 1.28 0 00.24.29 3.04 3.04 0 00.34.26zm-.27-1.82c.04.03.05.04 0 .07a.75.75 0 00-.17.14c-.01.02-.02.02-.04 0l-.26-.2c-.1-.07-.18-.12-.27-.2l-.27-.2-.42-.32-.2-.14a.86.86 0 01-.3-.31.6.6 0 01-.02-.13.37.37 0 01.12-.23.34.34 0 01.2-.13.1.1 0 01.08 0 .8.8 0 01.22.07 2.28 2.28 0 01.25.18c.1.07.2.16.32.23l.06.06s.02 0 .02.03a.58.58 0 00.02.32 1.12 1.12 0 00.1.25.7.7 0 00.09.1 1.36 1.36 0 00.24.24 1.95 1.95 0 00.23.17zm.69-3.3a.42.42 0 01-.1-.04.13.13 0 00-.06-.01c-.07 0-.13-.03-.2-.02a1.25 1.25 0 00-.2.03.76.76 0 00-.35.2c-.04.05-.05.04-.1-.02a.32.32 0 01-.06-.2.32.32 0 01.12-.25l.05-.05a.25.25 0 01.17-.05.6.6 0 01.38.13l.33.24.03.03h-.01zm4.8 1.9l-.15-.11a7.65 7.65 0 00-.34-.26c-.11-.08-.21-.17-.32-.24a1.42 1.42 0 01-.15-.11.45.45 0 01-.08-.17 1.28 1.28 0 00-.04-.2l-.01-.02-.03-.4a2.71 2.71 0 01-.01-.27.32.32 0 01.08-.22.38.38 0 01.25-.16.27.27 0 01.09 0c.16 0 .23.1.27.25l.07.19a1.08 1.08 0 00.05.17 1.86 1.86 0 00.1.25 1.66 1.66 0 00.12.23l.1.19.09.1a.2.2 0 01.03.1.5.5 0 00.02.13 1.03 1.03 0 01.04.14.9.9 0 00.03.16v.02a1.17 1.17 0 00.05.2.86.86 0 00.03.17l.02.08a2.45 2.45 0 01-.31-.22z"/><path fill="#fff" d="M13.03 10.02v.1a2.72 2.72 0 01-.04.4.3.3 0 01-.03.14 6.7 6.7 0 01-2.3 2.29.28.28 0 01-.12-.04l-.27-.11-.24-.08a.83.83 0 01-.15-.04.52.52 0 01-.21-.04h-.03a1.56 1.56 0 01-.3-.05h-.01a2.5 2.5 0 01-.27-.04 5.05 5.05 0 01-.2-.06 1.89 1.89 0 01-.25-.11 1.93 1.93 0 01-.31-.18l-.16-.12a3.53 3.53 0 01-.24-.17l-.31-.23a2.14 2.14 0 00-.24-.18l-.25-.2c-.1-.07-.2-.13-.28-.2l-.45-.34-.35-.26a13.29 13.29 0 01-.77-.58l-.22-.16-.33-.25-.24-.18a.58.58 0 01-.15-.25.28.28 0 010-.22.36.36 0 01.2-.21.31.31 0 01.25 0 .72.72 0 01.25.12l.33.25a2.56 2.56 0 01.26.2.7.7 0 00.14.1c.1.09.23.17.35.26a3.16 3.16 0 00.29.22l.3.23a1.92 1.92 0 00.18.13l.24.18a.3.3 0 00.13.05.28.28 0 00.25-.17c0-.03.03-.05.03-.08a.3.3 0 00-.13-.24l-.33-.25-.4-.3-.33-.25c-.12-.1-.24-.17-.36-.26l-.23-.18-.48-.36L5 8.12c-.12-.08-.22-.18-.33-.26-.11-.07-.21-.16-.33-.23a1.9 1.9 0 01-.21-.2.47.47 0 01-.11-.25.4.4 0 01.13-.26.3.3 0 01.29-.1.48.48 0 01.2.08 3.17 3.17 0 01.38.27l.44.32a1.34 1.34 0 00.14.1 1.73 1.73 0 01.14.12 1.1 1.1 0 01.17.13l.1.08c.16.1.3.23.46.34l.36.26.27.2c.09.08.17.15.26.2a.54.54 0 00.16.1.15.15 0 00.13 0 .25.25 0 00.18-.13.25.25 0 000-.12c.03-.12-.05-.18-.13-.24a4.68 4.68 0 00-.27-.2 1.73 1.73 0 00-.14-.11 2.5 2.5 0 00-.17-.12c-.05-.04-.1-.1-.16-.13a.4.4 0 01-.1-.08l-.45-.34-.33-.24c-.11-.1-.22-.17-.32-.25a4.44 4.44 0 00-.27-.2l-.34-.25a2.14 2.14 0 00-.24-.18c-.11-.1-.23-.17-.34-.26l-.2-.15a.7.7 0 01-.18-.26.3.3 0 01.05-.26.38.38 0 01.14-.14.34.34 0 01.28-.03 1.06 1.06 0 01.26.13l.14.1.29.23c.1.09.22.18.34.26l.44.33.42.3c.1.1.2.17.32.26l.25.19.34.26.27.19.2.17.27.19a.31.31 0 00.23.06.25.25 0 00.18-.15.3.3 0 00.03-.1.25.25 0 00-.08-.18 1.32 1.32 0 00-.22-.18 2.2 2.2 0 01-.18-.14 3.4 3.4 0 00-.3-.23 7.73 7.73 0 01-.34-.26l-.36-.27-.27-.2-.28-.21-.3-.23c-.06-.04-.12-.1-.2-.13l-.25-.2a.54.54 0 01-.16-.14.51.51 0 01-.12-.23.32.32 0 01.08-.26 1.05 1.05 0 01.1-.1.3.3 0 01.35-.02 1.67 1.67 0 01.28.18.13.13 0 01.07.06.55.55 0 01.08.06 3.72 3.72 0 01.32.23l.14.1.28.2c.1.09.2.18.33.26a1.43 1.43 0 00.15.1c.1.09.2.18.33.26l.22.16.25.19.24.18.3.23.28.2c.1.08.2.17.33.25l.22.16a2.44 2.44 0 01.25.2.64.64 0 00.18.1.23.23 0 00.24-.07.26.26 0 00.05-.3l-.06-.23a.94.94 0 00-.06-.24l-.02-.12-.04-.16a.9.9 0 00-.03-.16l-.04-.18-.06-.3a.45.45 0 01-.03-.16 1.66 1.66 0 00-.03-.22 3.77 3.77 0 01-.02-.47.34.34 0 01.17-.3.33.33 0 01.23-.07.3.3 0 01.28.2l.1.36.07.2a2.25 2.25 0 00.08.25.52.52 0 00.06.16 2.02 2.02 0 00.1.26 1.04 1.04 0 00.12.24l.15.29.19.29.2.3a2.5 2.5 0 01.26.33.75.75 0 01.09.25.38.38 0 00.03.1 2.57 2.57 0 00.05.27c0 .1.04.2.05.3 0 .12.03.22.04.33a2.41 2.41 0 00.08.25l.14.29.06.09.19.24a.2.2 0 01.03.1zM7.5 12.26a.03.03 0 01-.04 0 .68.68 0 00-.16-.04 2.36 2.36 0 01-.17-.05l-.23-.1a2.18 2.18 0 01-.22-.12c-.17-.1-.32-.23-.48-.35l-.42-.3-.36-.27-.34-.25-.36-.27-.34-.25-.3-.22-.33-.24-.33-.25-.21-.14-.14-.1-.22-.16a.83.83 0 01-.3-.32.35.35 0 01.06-.38.31.31 0 01.23-.14.5.5 0 01.24.06 2.13 2.13 0 01.32.22c.11.08.21.17.33.24a.1.1 0 01.05.1.81.81 0 000 .22 1.14 1.14 0 00.11.27 1.1 1.1 0 00.22.3 3.04 3.04 0 00.35.26l.14.1.17.13.31.23.33.25.32.24.35.27.25.18.2.16a1.22 1.22 0 01.12.08l.25.19.24.17.13.1.2.15a.46.46 0 01.03.03z" opacity=".6"/><path fill="#fff" d="M9.99 6.97a2.13 2.13 0 01-.31-.21l-.15-.11-.35-.27c-.1-.07-.2-.16-.32-.23l-.14-.1a.22.22 0 01-.08-.18 1.3 1.3 0 00-.04-.2.14.14 0 010-.03c0-.13-.03-.26-.04-.39l-.02-.27a.39.39 0 01.09-.22.42.42 0 01.24-.16.24.24 0 01.1 0 .3.3 0 01.27.25l.07.18.05.18a2.08 2.08 0 00.1.25 1.64 1.64 0 00.12.23c.04.06.06.13.11.19l.07.1a.2.2 0 01.04.1.73.73 0 00.03.17.22.22 0 01.01.05.83.83 0 00.05.2.06.06 0 010 .03 1.03 1.03 0 00.04.2l.04.17.02.07zm-7.75-.1a.44.44 0 01.11-.24.4.4 0 01.2-.12.18.18 0 01.09 0 .89.89 0 01.22.07 2.74 2.74 0 01.25.18c.1.07.2.16.32.23a.5.5 0 01.06.05l.02.03a.6.6 0 00.02.33 1.18 1.18 0 00.1.24.53.53 0 00.08.1 1.62 1.62 0 00.24.25l.24.17c.04.03.04.04 0 .06a.68.68 0 00-.17.15c-.01.02-.03.01-.04 0l-.26-.2-.27-.2a27.99 27.99 0 01-.69-.52l-.2-.14a.84.84 0 01-.29-.32.7.7 0 01-.03-.12zM3.66 5.7a.6.6 0 00.07.32.93.93 0 00.17.26c.03.03.05.07.09.08.01.01 0 .03-.01.04a.6.6 0 00-.2.14.05.05 0 01-.09 0 3.43 3.43 0 00-.27-.21c-.11-.1-.23-.17-.34-.25l-.33-.24a.92.92 0 01-.32-.33.28.28 0 010-.23.43.43 0 01.12-.18.33.33 0 01.3-.08.75.75 0 01.31.15l.34.26a.55.55 0 00.13.09.06.06 0 01.03.06 1.14 1.14 0 000 .12zm1.22-.85a.76.76 0 01-.1-.03.1.1 0 00-.06-.01c-.07 0-.13-.03-.2-.02a.91.91 0 00-.2.02.73.73 0 00-.35.2c-.04.06-.06.05-.1 0a.32.32 0 01.06-.46.4.4 0 01.05-.05.29.29 0 01.16-.06.57.57 0 01.39.14l.32.23a.22.22 0 01.03.03z" opacity=".6"/><path fill="none" stroke="#0a5523" stroke-linecap="round" stroke-linejoin="round" stroke-width=".5" d="M4.71 3.12l-.4-1.36m1.42 1.58L6.3 1.8m.36 1.82l.73-.5"/></svg>