<svg data-tags="linkedin,emoji,curious,reaction" xmlns="http://www.w3.org/2000/svg" viewBox="0 0 14 14"><path fill="#ddb7db" d="M5.523.649c.253-.084.515-.127.772-.193A.348.348 0 0 0 6.71.76a6.182 6.182 0 0 1 1.34.027 5.392 5.392 0 0 1 2.805 1.282 5.366 5.366 0 0 1 1.285 1.656 5.488 5.488 0 0 1 .508 3.312 5.312 5.312 0 0 1-.422 1.385 5.423 5.423 0 0 1-3.55 2.992 5.748 5.748 0 0 1-1.269.18c-.044.002-.085.004-.107-.05a.094.094 0 0 1 .006-.11.907.907 0 0 0 .163-.85c-.018-.06-.003-.087.065-.097.256-.04.515-.073.767-.131a1.036 1.036 0 0 0 .735-1.386.99.99 0 0 0-.693-.602 1.417 1.417 0 0 0-.614.015c-.38.06-.758.13-1.138.193l-1.482.243c-.123.02-.247.042-.37.061-.041.007-.072.007-.064-.056.023-.18.028-.363.06-.54a3.816 3.816 0 0 0 .08-.906.99.99 0 0 0-.117-.504 1.006 1.006 0 0 0-.984-.493.905.905 0 0 0-.691.398 3.711 3.711 0 0 0-.37.867c-.096.247-.189.494-.284.744a.17.17 0 0 1-.07-.1 5.452 5.452 0 0 1-.354-1.211 5.559 5.559 0 0 1-.053-1.431 5.484 5.484 0 0 1 .415-1.63 5.375 5.375 0 0 1 .937-1.47c.184-.208.19-.306.047-.546a2.869 2.869 0 0 1 .48-.428 5.382 5.382 0 0 1 .845-.543c.007-.004.012-.014.017-.021.034.005.068.01.1.017a.902.902 0 0 1 .305.136.346.346 0 0 0 .446-.011.36.36 0 0 0 .04-.503ZM9.04 2.136a1.8 1.8 0 0 0-.627.112.347.347 0 0 0-.22.46.342.342 0 0 0 .431.211 1.157 1.157 0 0 1 .726-.037 1.293 1.293 0 0 1 .781.493.35.35 0 0 0 .494.1.358.358 0 0 0 .077-.507 2.075 2.075 0 0 0-1.662-.832ZM8.87 3.88a.702.702 0 0 0-.705.701.703.703 0 0 0 1.406.013.703.703 0 0 0-.701-.714Zm-3.496.352a.7.7 0 0 0-.708-.697.691.691 0 0 0-.702.7.71.71 0 0 0 .7.71.72.72 0 0 0 .71-.713Zm1.209 2.807h.507a.35.35 0 0 0 .377-.352.344.344 0 0 0-.38-.347H6.09a.34.34 0 0 0-.371.346.344.344 0 0 0 .374.353h.488Z"/><path fill="#543b53" d="M3.29 2.002c.142.24.138.338-.047.545a5.375 5.375 0 0 0-.937 1.47 5.484 5.484 0 0 0-.415 1.63 5.559 5.559 0 0 0 .053 1.432 5.452 5.452 0 0 0 .355 1.212.17.17 0 0 0 .07.1c.094-.251.187-.499.282-.745a3.711 3.711 0 0 1 .37-.867.905.905 0 0 1 .692-.398 1.006 1.006 0 0 1 .984.493.99.99 0 0 1 .116.504 3.816 3.816 0 0 1-.079.905c-.032.178-.037.361-.06.541-.008.063.023.063.064.056l.37-.06 1.482-.244c.38-.063.758-.133 1.138-.193a1.417 1.417 0 0 1 .614-.015.99.99 0 0 1 .693.601 1.036 1.036 0 0 1-.735 1.387c-.252.058-.51.092-.767.131-.068.01-.083.037-.065.098a.907.907 0 0 1-.163.849.094.094 0 0 0-.006.11c.022.054.063.052.107.05a5.748 5.748 0 0 0 1.27-.18 5.423 5.423 0 0 0 3.549-2.992 5.312 5.312 0 0 0 .422-1.385 5.488 5.488 0 0 0-.508-3.312 5.442 5.442 0 0 0-2.774-2.58A5.427 5.427 0 0 0 8.048.787 6.182 6.182 0 0 0 6.708.76a.348.348 0 0 1-.413-.304.365.365 0 0 1 .157-.33.267.267 0 0 1 .12-.05A5.578 5.578 0 0 1 7.668.043a6.214 6.214 0 0 1 1.247.206 6.18 6.18 0 0 1 2.732 1.6A6.037 6.037 0 0 1 12.92 3.74a6.205 6.205 0 0 1 .441 3.261 5.995 5.995 0 0 1-.538 1.798 6.106 6.106 0 0 1-2.768 2.836 6.093 6.093 0 0 1-2.699.66c-.045.001-.078.01-.095.057a.153.153 0 0 1-.035.066.411.411 0 0 0-.115.379.95.95 0 0 1-.76.927c-.463.09-.926.182-1.392.257a5.82 5.82 0 0 1-1.303.024 5.565 5.565 0 0 1-1.04-.14 1.451 1.451 0 0 1-1.004-.877 5.16 5.16 0 0 1-.334-1.012 4.246 4.246 0 0 1-.087-1.362 1.38 1.38 0 0 1 .539-.98.74.74 0 0 0 .247-.311.128.128 0 0 0-.006-.124 6.033 6.033 0 0 1-.66-1.715 6.156 6.156 0 0 1-.135-1.68 6.037 6.037 0 0 1 .392-1.836 6.13 6.13 0 0 1 1.185-1.927c.147-.163.304-.174.537-.039Zm.832 5.532L4.105 7.3a.204.204 0 0 0-.078-.145.298.298 0 0 0-.482.11c-.077.167-.134.342-.196.516a26.661 26.661 0 0 1-.628 1.584 1.85 1.85 0 0 1-.322.599c-.111.114-.23.221-.346.33a.484.484 0 0 0-.136.252 2.811 2.811 0 0 0 .015 1.119 4.004 4.004 0 0 0 .351 1.104.75.75 0 0 0 .521.421 6.43 6.43 0 0 0 .977.123 3.768 3.768 0 0 0 .721.016 14.564 14.564 0 0 0 1.654-.285c.25-.059.324-.19.194-.406a.355.355 0 0 1 .16-.504.237.237 0 0 0 .162-.22.233.233 0 0 0-.143-.213.346.346 0 0 1-.118-.446.4.4 0 0 1 .242-.191.216.216 0 0 0 .084-.369.233.233 0 0 0-.184-.047.335.335 0 0 1-.37-.283.36.36 0 0 1 .343-.425c.422-.07.845-.137 1.267-.212a1.442 1.442 0 0 0 .438-.094.34.34 0 0 0 .164-.374.308.308 0 0 0-.35-.214l-.426.067-1.637.273q-.587.097-1.175.192a2.403 2.403 0 0 1-.436.059.32.32 0 0 1-.191-.064.487.487 0 0 1-.167-.315 2.806 2.806 0 0 1 .006-.924 7.368 7.368 0 0 0 .103-.8Z"/><path fill="#543b53" d="M5.523.649a.36.36 0 0 1-.04.503.346.346 0 0 1-.446.011.902.902 0 0 0-.304-.136l-.1-.017-.006-.003h-.006C4.61.988 4.59.988 4.57.993a1.339 1.339 0 0 0-.992.279.514.514 0 0 1-.249.155.364.364 0 0 1-.369-.17.346.346 0 0 1 .044-.401A1.704 1.704 0 0 1 3.94.337a1.957 1.957 0 0 1 1.275.12 1.461 1.461 0 0 1 .31.192Z"/><path fill="#ddb7db" d="M4.57.992c.02-.005.039-.005.051.016-.023.014-.042.013-.052-.016Z"/><path fill="#543b53" d="M9.039 2.136a2.075 2.075 0 0 1 1.662.832.358.358 0 0 1-.077.507.35.35 0 0 1-.494-.1 1.293 1.293 0 0 0-.781-.493 1.157 1.157 0 0 0-.726.038.342.342 0 0 1-.431-.212.347.347 0 0 1 .22-.46 1.8 1.8 0 0 1 .627-.112Zm-.17 1.744a.703.703 0 0 1 .7.714.703.703 0 0 1-1.405-.013.702.702 0 0 1 .705-.7Zm-3.496.352a.72.72 0 0 1-.71.713.71.71 0 0 1-.7-.71.691.691 0 0 1 .702-.7.7.7 0 0 1 .708.697Zm1.209 2.807h-.488a.344.344 0 0 1-.374-.353.34.34 0 0 1 .37-.346h.996a.344.344 0 0 1 .38.347.35.35 0 0 1-.377.352h-.507Z"/><path fill="#ddb7db" d="M4.122 7.534a7.368 7.368 0 0 1-.103.8 2.806 2.806 0 0 0-.006.924.487.487 0 0 0 .167.315.32.32 0 0 0 .19.064 2.403 2.403 0 0 0 .437-.06l1.175-.191 1.637-.273.426-.067a.308.308 0 0 1 .35.214.34.34 0 0 1-.164.374 1.442 1.442 0 0 1-.438.094c-.422.075-.845.143-1.267.212a.36.36 0 0 0-.344.425.335.335 0 0 0 .37.283.233.233 0 0 1 .185.047.216.216 0 0 1-.084.369.4.4 0 0 0-.242.191.346.346 0 0 0 .119.446.233.233 0 0 1 .142.212.237.237 0 0 1-.163.22.355.355 0 0 0-.159.505c.13.216.056.347-.194.406a14.564 14.564 0 0 1-1.654.285 3.768 3.768 0 0 1-.721-.016 6.43 6.43 0 0 1-.977-.123.75.75 0 0 1-.52-.42 4.004 4.004 0 0 1-.352-1.105 2.811 2.811 0 0 1-.015-1.119.484.484 0 0 1 .136-.251c.116-.11.235-.217.346-.331a1.85 1.85 0 0 0 .322-.6c.225-.521.437-1.048.628-1.583.062-.174.119-.349.196-.516a.298.298 0 0 1 .482-.11.204.204 0 0 1 .078.145l.017.234Z"/></svg>