<svg data-tags="linkedin,emoji,like,thumbs up,reaction" xmlns="http://www.w3.org/2000/svg" viewBox="0 0 14 14"><circle cx="7" cy="7" r="7" fill="#1584bc"/><path fill="#fff" fill-rule="evenodd" d="M11 6.67h-.56c-.05 0-.15-.19-.4-.46-.38-.4-.8-.93-1.1-1.2A7.28 7.28 0 017.2 2.72c-.25-.52-.27-.75-.77-.75a.78.78 0 00-.5.28c-.12.15-.41.36-.4.56 0 .14.03.82.06 1a6.85 6.85 0 001.1 2.02H3.07a.88.88 0 00-.9.95.92.92 0 00.95.87h.16a.8.8 0 00-.77.8.82.82 0 00.75.82.81.81 0 00.34 1.44.8.8 0 00-.1.55.87.87 0 00.87.64H6.7a3.76 3.76 0 00.9-.1l1.44-.43h1.93c1.03-.04 1.3-4.7.03-4.7z" opacity=".6"/><path fill="#004b80" d="M4.34 12.27a1.08 1.08 0 01-1.1-1.31 1.1 1.1 0 01-.47-1.46l.01-.02a1.14 1.14 0 01-.56-.96 1.08 1.08 0 01.08-.41 1.09 1.09 0 01.16-.3 1.21 1.21 0 01-.57-.93 1.16 1.16 0 01.04-.49 1.19 1.19 0 01.25-.44 1.17 1.17 0 01.4-.3 1.2 1.2 0 01.48-.1H5.9a6.05 6.05 0 01-.45-.72 5.16 5.16 0 01-.3-.92 2.68 2.68 0 01-.08-.94 1.79 1.79 0 01.12-.4 1.7 1.7 0 01.3-.46 1.13 1.13 0 011.58-.12 2.3 2.3 0 01.4.64A6.95 6.95 0 009.11 4.8c.19.18.41.43.64.7l.46.52.3.35.02.03h.42c.74 0 1.17.9 1.17 2.43 0 .98-.24 2.85-1.15 2.85H9.09l-1.4.46a4.1 4.1 0 01-1 .12h-2.3zM3.28 7.42a.29.29 0 010 .58.5.5 0 00-.34.15.5.5 0 00-.14.36.55.55 0 00.5.54.29.29 0 01.14.52.54.54 0 00-.15.18.53.53 0 00-.05.23.54.54 0 00.12.34.55.55 0 00.3.19.29.29 0 01.2.42.53.53 0 00-.06.37.58.58 0 00.2.28.65.65 0 00.37.12H6.7a3.47 3.47 0 00.83-.1l1.42-.48a.31.31 0 01.09-.01h1.93c.05 0 .21-.15.35-.61a5.94 5.94 0 00.22-1.66c0-1.16-.3-1.86-.57-1.86a5.21 5.21 0 01-.58 0c-.15 0-.24-.12-.35-.25a11.21 11.21 0 00-1.33-1.5 7.52 7.52 0 01-1.77-2.36 1.77 1.77 0 00-.29-.47.56.56 0 00-.74.1 1.12 1.12 0 00-.2.3 1.18 1.18 0 00-.08.25 2.12 2.12 0 00.07.72 4.65 4.65 0 00.26.81 6.26 6.26 0 00.6.92.47.47 0 01.14.18.3.3 0 01.02.14v.02a.29.29 0 01-.29.3H3.07a.4.4 0 00-.26.04.6.6 0 00-.35.64.65.65 0 00.21.44.68.68 0 00.44.16z"/></svg>