<svg data-tags="linkedin, emoji, love, heart, reaction" xmlns="http://www.w3.org/2000/svg" viewBox="0 0 14 14"><circle cx="7" cy="7" r="7" fill="#ee6841"/><path fill="#fff" d="M12.14 6.33a2.93 2.93 0 01-.76 1.48l-4.4 4.37L2.6 7.8a2.9 2.9 0 01-.8-2.02 2.87 2.87 0 012.86-2.84 2.88 2.88 0 012 .8l.32.34.34-.32a2.85 2.85 0 012.02-.84 2.88 2.88 0 012.64 1.76 2.72 2.72 0 01.16 1.64z" opacity=".6"/><path fill="#77280c" d="M6.98 12.47a.3.3 0 01-.21-.08L2.39 8.03a3.2 3.2 0 01-.89-2.24 3.17 3.17 0 015.37-2.25l.12.13.13-.11a3.13 3.13 0 012.22-.93 3.09 3.09 0 011.75.54 3.12 3.12 0 011.34 3.22 3.23 3.23 0 01-.83 1.63l-4.41 4.37a.3.3 0 01-.21.08zM4.66 3.25A2.57 2.57 0 002.1 5.79a2.6 2.6 0 00.71 1.82l4.17 4.15 4.2-4.16a2.62 2.62 0 00.67-1.32v-.01a2.43 2.43 0 00-.14-1.46 2.45 2.45 0 00-.95-1.14 2.6 2.6 0 00-3.23.31l-.35.33a.3.3 0 01-.42-.01l-.32-.34a2.57 2.57 0 00-1.78-.71z"/></svg>