<svg xmlns="http://www.w3.org/2000/svg" viewBox="0 0 14 14"><path fill="#1C62FD" d="M13.125 0H.875A.875.875 0 0 0 0 .875v12.25c0 .483.392.875.875.875h12.25a.875.875 0 0 0 .875-.875V.875A.875.875 0 0 0 13.125 0zM6.922 9.914a1.963 1.963 0 0 1-.117.127l-.736.736c-.314.315-.69.515-1.13.576-.685.093-1.276-.107-1.76-.604a1.915 1.915 0 0 1-.541-1.163c-.062-.594.1-1.124.505-1.565.286-.31.588-.604.894-.895.302-.287.67-.45 1.084-.504.257-.034.45-.024.73.036l.015.02c-.017.01-.037.017-.052.03L3.91 8.61a1.047 1.047 0 0 0 1.485 1.477l1.898-1.9c.013-.014.022-.033.04-.045.056.207.075.409.06.614-.033.436-.19.822-.47 1.158zm1.111-4.719a.551.551 0 0 1 .406-.184c.23.004.403.11.498.322s.057.408-.091.585l-.044.046-2.84 2.842a.563.563 0 0 1-.406.183c-.3.002-.545-.244-.545-.572a.535.535 0 0 1 .14-.333.882.882 0 0 1 .047-.05l2.835-2.839zm2.958.621c-.058.082-.125.16-.196.232-.243.247-.491.49-.735.737a2.008 2.008 0 0 1-1.908.557.19.19 0 0 1-.009-.015c.016-.013.034-.024.048-.038.629-.628 1.256-1.257 1.885-1.884.165-.165.275-.356.318-.587.099-.54-.25-1.078-.785-1.199a1.022 1.022 0 0 0-.998.29c-.636.634-1.27 1.268-1.903 1.904-.014.013-.02.034-.037.046a1.667 1.667 0 0 1-.064-.611c.02-.292.1-.567.241-.825.091-.167.204-.319.338-.453.259-.26.516-.522.78-.779.297-.29.652-.471 1.063-.537.622-.1 1.177.055 1.654.465.382.329.608.75.673 1.251.07.53-.054 1.012-.365 1.446z"/></svg>