<svg data-tags="linkedin, emoji, bulb, insightful, reaction" xmlns="http://www.w3.org/2000/svg" viewBox="0 0 14 14"><circle cx="7" cy="7" r="7" fill="#fdb744"/><path fill="#633b00" d="M10.21 5.57a3.21 3.21 0 00-.15-.41 3.37 3.37 0 00-.77-1.06 3.5 3.5 0 00-.42-.34 3.39 3.39 0 00-1.09-.48 2.84 2.84 0 00-.27-.05l-.33-.03a3.29 3.29 0 00-.79.05 3.7 3.7 0 00-.38.1 3.13 3.13 0 00-.5.2A3.4 3.4 0 004 5.1a3 3 0 00-.17.4 3.47 3.47 0 00-.1.44 3.13 3.13 0 00-.06.42 3.54 3.54 0 00.07.93 3.42 3.42 0 00.14.49 3.52 3.52 0 00.35.68 3.49 3.49 0 00.57.67 1.51 1.51 0 01.43.66 2.26 2.26 0 01.1.6v1.68a.8.8 0 00.02.15.86.86 0 00.28.49.8.8 0 00.52.22H7.8a.86.86 0 00.53-.17.88.88 0 00.36-.74v-.89c0-.31 0-.63.03-.95a1.81 1.81 0 01.18-.64 1.4 1.4 0 01.3-.4l.24-.23a3.54 3.54 0 00.5-.7 3.33 3.33 0 00.29-.65 3.21 3.21 0 00.1-.51 3.7 3.7 0 00.05-.48 3.49 3.49 0 00-.06-.61 3.37 3.37 0 00-.1-.4zm-.46 1.57a2.71 2.71 0 01-.34.89 3.21 3.21 0 01-.38.5l-.23.23a2.02 2.02 0 00-.43.6 2.23 2.23 0 00-.16.45 2.19 2.19 0 00-.05.35 1.99 1.99 0 00-.02.25c0 .02-.01.03-.03.03H5.94c-.04 0-.05-.01-.05-.05a3.34 3.34 0 00-.07-.58 2.07 2.07 0 00-.63-1.08 2.98 2.98 0 01-.58-.72 2.68 2.68 0 01-.29-.68 3.87 3.87 0 01-.08-.42 2.52 2.52 0 01-.02-.34 2.47 2.47 0 01.04-.45 3.14 3.14 0 01.1-.4 2.78 2.78 0 01.22-.53 2.82 2.82 0 011.24-1.16 2.8 2.8 0 01.57-.2l.3-.06a2.96 2.96 0 01.54 0 2.24 2.24 0 01.36.05 2.55 2.55 0 01.33.09 2.85 2.85 0 01.6.3 2.8 2.8 0 011.06 1.26 2.9 2.9 0 01.16.49l.05.33a2.69 2.69 0 01.01.44 2.55 2.55 0 01-.05.4zM6.74 2.3a.24.24 0 00.04.12.26.26 0 00.3.13.26.26 0 00.2-.27V.97a.27.27 0 00-.02-.1.27.27 0 00-.52.1v1.32zm-2.6.78a.25.25 0 00.29.08.26.26 0 00.17-.26.23.23 0 00-.05-.16l-.06-.08-.61-.79a.27.27 0 00-.37-.06.26.26 0 00-.06.38l.39.5.3.4zm6.22-1.32a.28.28 0 00-.24.13l-.64.83a.27.27 0 00-.07.18.38.38 0 00.01.08.26.26 0 00.23.19.26.26 0 00.25-.11l.48-.63a2.93 2.93 0 00.2-.28.26.26 0 00-.22-.39z"/><path fill="#fff" d="M7.01 10.44H5.94c-.04 0-.05-.01-.05-.05a3.33 3.33 0 00-.07-.58 2.07 2.07 0 00-.63-1.08 2.98 2.98 0 01-.58-.72 2.68 2.68 0 01-.29-.68 3.9 3.9 0 01-.08-.42 2.52 2.52 0 01-.02-.34 2.47 2.47 0 01.04-.45 3.14 3.14 0 01.1-.4 2.78 2.78 0 01.22-.53 2.82 2.82 0 011.24-1.16 2.8 2.8 0 01.57-.2l.3-.06a2.96 2.96 0 01.54-.01 2.24 2.24 0 01.36.06 2.55 2.55 0 01.33.09 2.85 2.85 0 01.6.3 2.8 2.8 0 011.06 1.26 2.9 2.9 0 01.16.49l.05.33a2.7 2.7 0 01.01.44 2.55 2.55 0 01-.05.4 2.71 2.71 0 01-.34.9 3.21 3.21 0 01-.38.5l-.23.23a2.02 2.02 0 00-.43.6 2.23 2.23 0 00-.16.45 2.19 2.19 0 00-.05.35 2 2 0 00-.02.25c0 .02-.01.03-.03.03h-.04z" opacity=".8"/><rect width="2.25" height="1.34" x="5.89" y="11.05" fill="#fae0b7" rx=".14"/></svg>