<svg data-tags="linkedin, emoji, curious, reaction" xmlns="http://www.w3.org/2000/svg" viewBox="0 0 14 14"><path fill="#e4b4dd" fill-rule="evenodd" d="M14 7a7 7 0 01-7 7 6.87 6.87 0 01-2.4-.43 6.71 6.71 0 01-1.5-.75.42.42 0 01-.15-.11 6.23 6.23 0 01-.99-.86A6.93 6.93 0 010 7a7 7 0 0114 0z"/><path fill="#fff" d="M11.5 6.37a4.48 4.48 0 00-.45-1.43 4.35 4.35 0 00-1.07-1.38 4.52 4.52 0 00-1.25-.78 4.58 4.58 0 00-1.1-.3 4.67 4.67 0 00-1.12-.02.29.29 0 01-.35-.25c-.2.05-.43.09-.64.16a.3.3 0 01-.04.42.29.29 0 01-.37 0 .76.76 0 00-.26-.1l-.08-.02a.04.04 0 010 .02 4.73 4.73 0 00-.72.45 2.77 2.77 0 00-.4.36.31.31 0 01-.04.46 4.7 4.7 0 00-.79 1.23 4.53 4.53 0 00-.34 1.36 4.8 4.8 0 00.04 1.2 4.59 4.59 0 00.3 1.02.14.14 0 00.06.08l.23-.62a3.64 3.64 0 01.31-.73.76.76 0 01.58-.33.82.82 0 01.82.4.79.79 0 01.1.43 3.21 3.21 0 01-.06.76c-.03.15-.03.3-.05.45 0 .05.01.05.05.05l.31-.05L6.41 9l.95-.16a1.3 1.3 0 01.52-.01.86.86 0 01.58.5.87.87 0 01-.62 1.16c-.2.05-.43.08-.64.1-.06.02-.07.04-.06.1a.76.76 0 01-.13.7c-.03.04-.02.06 0 .1a.09.09 0 00.08.04 4.68 4.68 0 001.06-.15 4.43 4.43 0 001.87-1.01 4.6 4.6 0 001.46-2.65 4.37 4.37 0 00.01-1.35zm-6.7-.4a.6.6 0 01-.59-.6.57.57 0 01.6-.58.58.58 0 01.58.58.6.6 0 01-.59.6zm2.03 1.75H6a.3.3 0 01-.3-.3.28.28 0 01.3-.3h.83a.29.29 0 01.32.3.3.3 0 01-.3.3zm1.48-1.47a.57.57 0 01-.58-.6.58.58 0 01.6-.58.6.6 0 01.57.6.58.58 0 01-.59.58zM9.8 4.74a.3.3 0 01-.42-.1 1.08 1.08 0 00-.65-.4.98.98 0 00-.6.03.3.3 0 01-.19-.56 1.6 1.6 0 01.53-.1 1.73 1.73 0 011.4.7.31.31 0 01-.07.43z" opacity=".6"/><path fill="#593955" d="M12.06 6.17a5.6 5.6 0 00-.35-1.21 5.06 5.06 0 00-1.07-1.6 5.4 5.4 0 00-.95-.74 5.07 5.07 0 00-1.33-.58 5.37 5.37 0 00-1.05-.18 4.72 4.72 0 00-.92.03.41.41 0 00-.1.04.33.33 0 00-.13.28.29.29 0 00.35.25 4.67 4.67 0 011.12.03 4.58 4.58 0 011.1.29 4.52 4.52 0 011.25.78 4.35 4.35 0 011.07 1.38 4.48 4.48 0 01.44 1.43 4.37 4.37 0 010 1.35 4.6 4.6 0 01-1.47 2.65 4.43 4.43 0 01-1.87 1 4.68 4.68 0 01-1.06.16.09.09 0 01-.09-.04c0-.04-.02-.06.01-.1a.76.76 0 00.13-.7c0-.06 0-.08.06-.1.21-.02.43-.05.64-.1a.87.87 0 00.62-1.16.86.86 0 00-.58-.5 1.3 1.3 0 00-.52 0L6.41 9l-1.24.2-.3.06c-.05 0-.07 0-.06-.05.02-.15.02-.3.05-.45A3.21 3.21 0 004.92 8a.79.79 0 00-.1-.42.82.82 0 00-.82-.41.76.76 0 00-.58.33 3.64 3.64 0 00-.3.73c-.09.2-.16.4-.24.62a.14.14 0 01-.06-.08 4.59 4.59 0 01-.3-1.02 4.8 4.8 0 01-.04-1.2 4.53 4.53 0 01.34-1.36 4.7 4.7 0 01.8-1.23.31.31 0 00.03-.46c-.2-.11-.33-.1-.45.04a5.12 5.12 0 00-1.32 3.14A5.1 5.1 0 002 8.08a4.93 4.93 0 00.55 1.45.12.12 0 01.01.1.6.6 0 01-.2.26 1.15 1.15 0 00-.46.82 3.98 3.98 0 00.07 1.14 6.23 6.23 0 001 .86.62.62 0 01-.16-.2 3.29 3.29 0 01-.29-.92 2.29 2.29 0 010-.94.43.43 0 01.1-.21l.3-.27a1.4 1.4 0 00.26-.51 19.12 19.12 0 00.7-1.75.24.24 0 01.4-.1.15.15 0 01.06.13l.01.19c0 .23-.06.45-.08.67a2.22 2.22 0 000 .77.42.42 0 00.13.27.3.3 0 00.16.05 2.2 2.2 0 00.37-.05l.98-.16 1.37-.23.36-.05a.26.26 0 01.3.18.29.29 0 01-.15.3 1.1 1.1 0 01-.36.09l-1.06.18c-.2.03-.33.17-.29.35a.28.28 0 00.31.24.2.2 0 01.15.04.18.18 0 01-.07.3.32.32 0 00-.2.17.27.27 0 00.1.37.2.2 0 01.12.18.2.2 0 01-.14.18.3.3 0 00-.13.42c.11.18.05.29-.16.34a10.91 10.91 0 01-1.39.24 3 3 0 01-.6-.01 5.56 5.56 0 01-.82-.1.58.58 0 01-.14-.05 6.71 6.71 0 001.5.75 2.28 2.28 0 00.44-.04c.4-.06.78-.14 1.17-.22a.8.8 0 00.64-.77.34.34 0 01.1-.32l.02-.06c.01-.03.04-.04.08-.04a5.4 5.4 0 001.33-.2 5.3 5.3 0 00.93-.36 4.68 4.68 0 001.26-.9 5.16 5.16 0 001.06-1.47 5.3 5.3 0 00.45-1.5 5.52 5.52 0 00-.02-1.52z"/><path fill="#593955" d="M5.52 2.37a.3.3 0 01-.03.42.29.29 0 01-.38 0 .75.75 0 00-.25-.1l-.09-.02c-.02-.02-.03-.02-.05-.02a1.12 1.12 0 00-.83.24.43.43 0 01-.2.13.3.3 0 01-.32-.14.29.29 0 01.04-.34 1.43 1.43 0 01.78-.43 1.64 1.64 0 011.07.1 1.22 1.22 0 01.26.16z"/><path fill="#e4b4dd" d="M4.72 2.65c.02 0 .03 0 .05.02-.02 0-.04 0-.05-.02z"/><path fill="#593955" d="M8.46 3.61a1.74 1.74 0 011.4.7.3.3 0 01-.07.42.3.3 0 01-.41-.08 1.08 1.08 0 00-.66-.41.97.97 0 00-.6.03.29.29 0 01-.37-.18.3.3 0 01.19-.38 1.5 1.5 0 01.52-.1zm-.14 1.46a.59.59 0 01.59.6.59.59 0 01-1.18-.01.59.59 0 01.59-.59zm-2.92.3a.6.6 0 01-.6.6.6.6 0 01-.59-.6.58.58 0 01.6-.59.59.59 0 01.58.59zm1 2.34H6a.29.29 0 01-.32-.3.28.28 0 01.32-.28h.83a.29.29 0 01.32.29.3.3 0 01-.32.3h-.42z"/><path fill="#fff" d="M7.92 9.58a.29.29 0 01-.14.3 1.1 1.1 0 01-.36.09l-1.06.18c-.2.03-.33.17-.29.35a.28.28 0 00.31.24.2.2 0 01.15.04.18.18 0 01-.07.3.32.32 0 00-.2.17.27.27 0 00.1.37.2.2 0 01.12.18.2.2 0 01-.14.18.3.3 0 00-.13.42c.11.18.05.29-.16.34a10.91 10.91 0 01-1.39.24 3 3 0 01-.6-.01 5.56 5.56 0 01-.82-.1.58.58 0 01-.14-.05.42.42 0 01-.15-.11.62.62 0 01-.15-.2 3.29 3.29 0 01-.29-.92 2.29 2.29 0 010-.94.43.43 0 01.1-.21l.3-.27a1.4 1.4 0 00.26-.51 19.12 19.12 0 00.7-1.75.24.24 0 01.4-.1.15.15 0 01.06.13l.01.19c0 .23-.06.45-.08.67a2.22 2.22 0 000 .77.42.42 0 00.13.27.3.3 0 00.16.05 2.2 2.2 0 00.37-.05l.98-.16 1.37-.23.36-.05a.26.26 0 01.3.18z" opacity=".6"/></svg>