<svg data-tags="linkedin,emoji,bulb,insightful,reaction" xmlns="http://www.w3.org/2000/svg" viewBox="0 0 14 14"><path fill="#5e3c02" d="M10.665 5.566a3.674 3.674 0 0 0-.18-.47 3.847 3.847 0 0 0-.874-1.21 3.998 3.998 0 0 0-.486-.385 3.874 3.874 0 0 0-1.24-.543 3.24 3.24 0 0 0-.31-.06c-.125-.017-.25-.035-.377-.04a3.757 3.757 0 0 0-.9.064 4.232 4.232 0 0 0-.433.108 3.582 3.582 0 0 0-.578.237A3.888 3.888 0 0 0 3.56 5.03a3.427 3.427 0 0 0-.188.462 3.966 3.966 0 0 0-.127.505 3.577 3.577 0 0 0-.06.47 4.04 4.04 0 0 0 .08 1.071 3.902 3.902 0 0 0 .16.552 4.026 4.026 0 0 0 .4.783 3.985 3.985 0 0 0 .654.765 1.73 1.73 0 0 1 .49.754 2.583 2.583 0 0 1 .111.679c.008.13.013.26.01.392-.007.514-.002 1.027-.003 1.54a.915.915 0 0 0 .023.181.986.986 0 0 0 .314.552.916.916 0 0 0 .601.259c.325.007.65.002.976.002v.002c.298 0 .597-.001.896.001a.984.984 0 0 0 .603-.199 1.01 1.01 0 0 0 .413-.845v-1.015c0-.363.002-.725.038-1.086a2.072 2.072 0 0 1 .203-.731 1.61 1.61 0 0 1 .338-.452c.094-.089.188-.176.276-.27a4.05 4.05 0 0 0 .58-.8 3.805 3.805 0 0 0 .32-.747 3.673 3.673 0 0 0 .127-.586 4.235 4.235 0 0 0 .042-.541 3.988 3.988 0 0 0-.063-.702 3.856 3.856 0 0 0-.11-.46Zm-.533 1.794a3.102 3.102 0 0 1-.39 1.016 3.673 3.673 0 0 1-.433.583c-.08.09-.172.17-.26.254a2.311 2.311 0 0 0-.497.688 2.546 2.546 0 0 0-.18.512 2.501 2.501 0 0 0-.059.405 2.272 2.272 0 0 0-.02.28c.002.026-.011.036-.036.036H5.786c-.047 0-.06-.01-.064-.06a3.812 3.812 0 0 0-.08-.655 2.364 2.364 0 0 0-.714-1.234 3.41 3.41 0 0 1-.672-.83 3.065 3.065 0 0 1-.324-.777 4.429 4.429 0 0 1-.092-.473 2.88 2.88 0 0 1-.022-.395 2.823 2.823 0 0 1 .04-.511 3.589 3.589 0 0 1 .108-.465 3.179 3.179 0 0 1 .262-.601 3.226 3.226 0 0 1 1.41-1.326 3.194 3.194 0 0 1 .66-.234c.111-.026.225-.042.34-.058a3.387 3.387 0 0 1 .616-.013 2.56 2.56 0 0 1 .409.063 2.913 2.913 0 0 1 .383.106 3.258 3.258 0 0 1 .687.339 3.19 3.19 0 0 1 1.21 1.443 3.308 3.308 0 0 1 .18.56c.028.126.043.255.059.384a3.07 3.07 0 0 1 .01.5 2.91 2.91 0 0 1-.06.463ZM6.697 1.825a.273.273 0 0 0 .04.15.295.295 0 0 0 .345.142.301.301 0 0 0 .225-.303V.313a.303.303 0 0 0-.02-.111.304.304 0 0 0-.59.107c.002.253 0 .506 0 .758v.758Zm-2.972.901a.288.288 0 0 0 .33.086.298.298 0 0 0 .197-.298.26.26 0 0 0-.062-.176c-.024-.03-.046-.063-.07-.094-.232-.3-.465-.6-.695-.902a.31.31 0 0 0-.42-.069.295.295 0 0 0-.068.43c.145.195.294.386.442.579.114.149.227.3.346.444ZM10.83 1.22a.324.324 0 0 0-.277.15c-.242.316-.486.631-.727.947a.303.303 0 0 0-.078.208.432.432 0 0 0 .01.083.297.297 0 0 0 .259.22.3.3 0 0 0 .288-.13l.546-.713a3.344 3.344 0 0 0 .236-.317.3.3 0 0 0-.258-.448Z"/><path fill="#f4ba5b" d="M7.004 11.134H5.786c-.047 0-.06-.01-.064-.06a3.804 3.804 0 0 0-.08-.655 2.364 2.364 0 0 0-.714-1.234 3.41 3.41 0 0 1-.672-.83 3.067 3.067 0 0 1-.324-.777 4.449 4.449 0 0 1-.092-.473 2.88 2.88 0 0 1-.022-.395 2.823 2.823 0 0 1 .04-.511 3.587 3.587 0 0 1 .108-.465 3.18 3.18 0 0 1 .262-.601 3.225 3.225 0 0 1 1.41-1.326 3.192 3.192 0 0 1 .66-.234c.111-.026.225-.042.34-.058a3.382 3.382 0 0 1 .617-.013 2.557 2.557 0 0 1 .408.063 2.915 2.915 0 0 1 .383.106 3.258 3.258 0 0 1 .687.339 3.19 3.19 0 0 1 1.21 1.443 3.305 3.305 0 0 1 .18.56c.028.126.043.255.059.384a3.081 3.081 0 0 1 .01.5 2.911 2.911 0 0 1-.06.463 3.1 3.1 0 0 1-.39 1.016 3.673 3.673 0 0 1-.433.583c-.08.09-.172.17-.26.254a2.312 2.312 0 0 0-.497.688 2.548 2.548 0 0 0-.18.513 2.502 2.502 0 0 0-.059.404 2.274 2.274 0 0 0-.02.28c.002.026-.011.036-.036.036h-.04Z"/></svg>