<svg data-tags="linkedin,emoji,love,heart,reaction" xmlns="http://www.w3.org/2000/svg" viewBox="0 0 14 14"><path fill="#df704c" d="M13.544 5.446a3.724 3.724 0 0 1-.967 1.885l-5.603 5.551-5.577-5.551A3.684 3.684 0 0 1 .38 4.759a3.652 3.652 0 0 1 3.64-3.616A3.668 3.668 0 0 1 6.567 2.16l.407.433.433-.407a3.623 3.623 0 0 1 2.572-1.07 3.663 3.663 0 0 1 3.362 2.241 3.468 3.468 0 0 1 .203 2.088Z"/><path fill="#6e2d16" d="M6.975 13.261a.376.376 0 0 1-.267-.11L1.13 7.599A4.065 4.065 0 0 1 0 4.759a4.035 4.035 0 0 1 6.83-2.87l.16.17.158-.148A3.978 3.978 0 0 1 9.978.739a3.932 3.932 0 0 1 2.23.679 3.85 3.85 0 0 1 1.482 1.793 3.86 3.86 0 0 1 .226 2.31 4.108 4.108 0 0 1-1.065 2.07l-5.61 5.56a.377.377 0 0 1-.266.11ZM4.02 1.521A3.274 3.274 0 0 0 .757 4.758a3.306 3.306 0 0 0 .913 2.31l5.306 5.281 5.335-5.287a3.33 3.33 0 0 0 .86-1.681l.003-.016a3.087 3.087 0 0 0-.182-1.859 3.119 3.119 0 0 0-1.2-1.456 3.318 3.318 0 0 0-4.116.404l-.442.416a.378.378 0 0 1-.534-.016l-.41-.434a3.268 3.268 0 0 0-2.271-.9Z"/></svg>