<svg xmlns="http://www.w3.org/2000/svg" viewBox="0 0 14 14"><path fill="#2b545e" d="M14 7.04A7 7 0 1 1 7.04 0 7 7 0 0 1 14 7.04Zm-.72-.06A6.28 6.28 0 1 0 7 13.28a6.3 6.3 0 0 0 6.28-6.3Z"/><path fill="#8fdae9" d="M13.28 6.98A6.28 6.28 0 1 1 6.97.72a6.3 6.3 0 0 1 6.31 6.26Zm-6.25.5c-1.07 0-2.13-.02-3.2 0A.82.82 0 0 0 3 8.67a6.17 6.17 0 0 0 .85 1.68 3.72 3.72 0 0 0 4.06 1.52c1.7-.37 2.5-1.66 3.08-3.15.28-.74-.08-1.24-.88-1.24H7.03ZM4.8 4.6a1.91 1.91 0 0 0-1.68.82c-.09.13-.19.27-.03.42a.3.3 0 0 0 .42.03 2.78 2.78 0 0 1 2.15-.37.29.29 0 0 0 .36-.2c.08-.16-.03-.25-.14-.34A1.68 1.68 0 0 0 4.8 4.6Zm4.35-2.33c-.4-.02-.7-.03-.72.32-.03.35.26.36.53.4a2.32 2.32 0 0 1 1.7.92c.15.2.31.33.55.17.27-.19.16-.4.02-.61a2.94 2.94 0 0 0-2.08-1.2Zm-3.59.36c-.01-.22-.15-.34-.4-.37A3.11 3.11 0 0 0 2.7 3.55a.37.37 0 0 0 .06.52.33.33 0 0 0 .51-.1 2.4 2.4 0 0 1 1.92-1c.23-.02.37-.13.38-.34Zm5.22 3.03-.05-.13a2 2 0 0 0-2.91-.5c-.09.1-.12.18-.04.3.07.1.12.22.26.18a3.2 3.2 0 0 1 2.32.4c.22.12.36-.05.42-.25Z"/><path fill="#27515b" d="M7.03 7.47h3.08c.8.01 1.16.5.88 1.25-.58 1.5-1.38 2.78-3.08 3.15a3.72 3.72 0 0 1-4.06-1.52A6.17 6.17 0 0 1 3 8.67a.82.82 0 0 1 .83-1.2h3.2ZM4.87 10.2c-.04.22.1.32.23.44a3.17 3.17 0 0 0 3.98-.15c.11-.12.25-.22.18-.4.62-.3.72-.93.97-1.46.17-.37 0-.45-.34-.44H4.17c-.17 0-.43-.1-.47.21a3.08 3.08 0 0 0 1.17 1.8Z"/><path fill="#2b545e" d="M4.81 4.6a1.68 1.68 0 0 1 1.08.36c.11.09.22.18.14.34a.29.29 0 0 1-.36.2 2.78 2.78 0 0 0-2.15.37.3.3 0 0 1-.42-.03c-.16-.15-.06-.3.03-.42A1.91 1.91 0 0 1 4.8 4.6ZM9.16 2.27a2.94 2.94 0 0 1 2.08 1.2c.14.2.25.42-.02.6-.24.17-.4.03-.54-.16a2.32 2.32 0 0 0-1.71-.93c-.27-.03-.56-.04-.53-.4.03-.34.32-.33.72-.31ZM5.57 2.63c-.01.21-.15.32-.38.34a2.4 2.4 0 0 0-1.92 1 .33.33 0 0 1-.5.1.37.37 0 0 1-.07-.52 3.11 3.11 0 0 1 2.46-1.3c.26.04.4.16.41.38Z"/><path fill="#27515b" d="M10.79 5.66c-.06.2-.2.37-.41.25a3.2 3.2 0 0 0-2.33-.4c-.14.04-.2-.07-.26-.17-.08-.13-.05-.2.04-.31a2 2 0 0 1 2.91.5Z"/><path fill="#346f7c" d="M4.87 10.2A3.08 3.08 0 0 1 3.7 8.4c.04-.32.3-.2.47-.2 1.55-.02 3.1-.01 4.66-.01H9.9c.33-.01.51.07.34.44-.25.53-.35 1.17-.97 1.45a3.93 3.93 0 0 0-4.4.12Z"/><path fill="#b9ebf5" d="M4.87 10.2a3.93 3.93 0 0 1 4.39-.11c.07.18-.07.28-.18.4a3.17 3.17 0 0 1-3.98.15c-.14-.12-.27-.22-.23-.44Z"/></svg>