<svg data-tags="linkedin, emoji, hand, support, reaction" xmlns="http://www.w3.org/2000/svg" viewBox="0 0 14 14"><path fill="#bea6d3" fill-rule="evenodd" d="M14 7a6.76 6.76 0 01-.37 2.22 2.59 2.59 0 01-.13.36 5.06 5.06 0 01-.34.75 7.17 7.17 0 01-1.17 1.58l-.3.29h-.02a1.86 1.86 0 01-.35.29A6.9 6.9 0 017 13.99a7 7 0 117-7z"/><path fill="#d47677" d="M10.48 8.47h-.07z"/><path fill="#fff" d="M13.5 9.58a5.06 5.06 0 01-.34.75 7.17 7.17 0 01-1.17 1.58l-.3.29h-.02c-1.19-.12-3.53-.43-4.2-.54A47.55 47.55 0 012.1 9.44a.58.58 0 01.31-.88 1.08 1.08 0 01.5.03.64.64 0 01.4-.93c.33-.07.97.34 1.41.76a5.26 5.26 0 001.55.92h.01c.74.06 1.61.1 2.28.1.93 0-1.07-.56-1.4-.68-.33-.12-.85-.25-.89-.52-.04-.28.36-.55.63-.62a5.42 5.42 0 011.66.29 10.88 10.88 0 012.01.42 2.52 2.52 0 011.3.96c.1.17 1.5.15 1.6.2l.02.09z" opacity=".6"/><path fill="#493d57" d="M12.98 9.13a6.9 6.9 0 01-.86-.1 3.1 3.1 0 00-1.42-1.01 4.11 4.11 0 00-1.17-.28 8.6 8.6 0 01-.89-.15l-.76-.17a2.18 2.18 0 00-1.06-.12c-.39.1-.94.5-.86.98.06.43.56.6.96.74l.13.05-.6-.04-.07-.01a4.33 4.33 0 01-1.42-.84c-.1-.1-1.06-.98-1.7-.84a.9.9 0 00-.62.44 1 1 0 00-.1.45.65.65 0 00-.2.02.9.9 0 00-.65.78.69.69 0 00.27.7 46.83 46.83 0 005.45 2.26c1.96.29 3.17.44 3.91.5a1.86 1.86 0 00.35-.3h.01l.31-.28c-.92-.08-3.5-.43-4.48-.57a47.39 47.39 0 01-5.17-2.15.38.38 0 01.03-.2.2.2 0 01.13-.11 1.03 1.03 0 01.35.03c.31.06.74.19 1.16.32a7.87 7.87 0 001.51.38l.62.05.13.02c.64.04 1.58.09 2.3.09.14 0 .52 0 .57-.33.05-.37-.3-.5-1.55-.9-.14-.03-.25-.07-.3-.1l-.16-.04a3.37 3.37 0 01-.52-.2.67.67 0 01.4-.27 2.43 2.43 0 01.72.13l.77.17c.43.09.71.13.95.16a3.54 3.54 0 011.01.24 2.26 2.26 0 011.13.8c.14.26.46.3 1.35.35.1 0 .2 0 .26.02a2.19 2.19 0 01-.04.53 5.06 5.06 0 00.34-.75 2.59 2.59 0 00.13-.36c-.1-.06-.2-.07-.65-.1zM4.2 8.6l-.58-.18a.84.84 0 01-.15-.04l-.29-.08a.36.36 0 01.04-.21.22.22 0 01.16-.12 2.32 2.32 0 011.13.68.44.44 0 01.07.06L4.2 8.6z"/><path fill="#493d57" d="M6.08 9.59l-.01-.01.44-.48-.43.49z"/><path fill="#e5b2a8" d="M7.15 4.18a1.33 1.33 0 01-.35.67l-2 1.98-1.98-1.98a1.31 1.31 0 01-.36-.91 1.3 1.3 0 011.3-1.3 1.3 1.3 0 01.9.37l.15.16.15-.15a1.29 1.29 0 01.92-.38 1.3 1.3 0 011.2.8 1.23 1.23 0 01.07.74z"/><path fill="#77280c" d="M7.27 3.36a1.5 1.5 0 00-.55-.68 1.48 1.48 0 00-.82-.24 1.57 1.57 0 00-1.09.42 1.56 1.56 0 00-2.13.02 1.52 1.52 0 000 2.13l1.97 1.98a.23.23 0 00.16.06.22.22 0 00.15-.06l2-1.98a1.62 1.62 0 00.4-.78 1.44 1.44 0 00-.09-.87zM4.81 6.52L2.98 4.7A1.09 1.09 0 013 3.19a1.07 1.07 0 01.76-.32 1.1 1.1 0 01.75.29l.15.16a.21.21 0 00.15.07.35.35 0 00.16-.06l.15-.15a1.08 1.08 0 011.36-.13.96.96 0 01.4.48.98.98 0 01.06.6v.02a1.16 1.16 0 01-.28.55z"/></svg>