<svg data-tags="link,window,linked,open link,screen" xmlns="http://www.w3.org/2000/svg" viewBox="0 0 14 14"><path d="M13.296.847H.704A.704.704 0 000 1.55v10.82c0 .665.315.98.704.98h12.592a.704.704 0 00.704-.704V1.277a.773.773 0 00-.704-.43zm-.704 11.096H1.408V3.595h11.184z"/><path d="M7.89 5.627a.743.743 0 011.05 0l.201.202a.744.744 0 01.002 1.05L7.918 8.101l.758.757L9.9 7.635a1.817 1.817 0 00-.002-2.563l-.202-.201a1.812 1.812 0 00-2.561 0L5.91 6.094l.757.757zm-3.586 5.04a1.812 1.812 0 002.562 0L8.09 9.444l-.756-.757L6.11 9.91a.746.746 0 01-1.05.001l-.201-.202a.746.746 0 01-.001-1.05l1.224-1.223-.757-.757-1.223 1.224a1.815 1.815 0 000 2.562z"/><path d="M8.21 6.567a.43.43 0 00-.608-.008L5.787 8.375a.43.43 0 00.305.732.426.426 0 00.305-.126l1.815-1.814a.43.43 0 00-.001-.6z"/></svg>