<svg data-tags="linkedin,emoji,hand,support,reaction" xmlns="http://www.w3.org/2000/svg" viewBox="0 0 14 14"><path fill="#c97b79" d="M10.104 8.125c-.01 0-.021.01-.042.01-.01 0-.031-.01-.041-.01Z"/><path fill="#bba9d1" d="M13.53 9.308c-.114-.072-1.713-.051-1.817-.249a2.983 2.983 0 0 0-1.495-1.1 12.271 12.271 0 0 0-2.306-.478 6.157 6.157 0 0 0-1.9-.333c-.312.083-.769.395-.717.707.042.311.644.467 1.018.602s2.67.779 1.6.779c-.77 0-1.766-.052-2.607-.104l-.01-.01a5.617 5.617 0 0 1-1.777-1.06c-.508-.478-1.246-.945-1.62-.872a.744.744 0 0 0-.467 1.07 1.353 1.353 0 0 0-.56-.032.666.666 0 0 0-.354 1.008 54.14 54.14 0 0 0 6.127 2.544c1.039.156 5.494.758 5.619.654a5.273 5.273 0 0 0 1.142-1.589 2.519 2.519 0 0 0 .125-1.537Z"/><path fill="#473e55" d="m13.748 9.003-.017-.012c-.12-.075-.246-.085-.764-.115a8.11 8.11 0 0 1-.985-.094 3.525 3.525 0 0 0-1.628-1.173 4.688 4.688 0 0 0-1.337-.324 9.815 9.815 0 0 1-1.026-.172c-.348-.073-.63-.14-.86-.194a2.527 2.527 0 0 0-1.215-.133c-.456.121-1.084.564-.993 1.117.067.5.64.694 1.102.85l.15.052a89.595 89.595 0 0 1-.705-.039l-.069-.008a5.206 5.206 0 0 1-1.625-.97c-.122-.113-1.216-1.124-1.956-.964a1.042 1.042 0 0 0-.693.513 1.116 1.116 0 0 0-.135.51 1.19 1.19 0 0 0-.221.02 1.014 1.014 0 0 0-.737.895.8.8 0 0 0 .31.806 52.896 52.896 0 0 0 6.245 2.583 46.363 46.363 0 0 0 5.452.639c.381 0 .441-.049.477-.08a5.685 5.685 0 0 0 1.242-1.74c.14-.404.41-1.668-.012-1.967ZM1.782 7.7a.287.287 0 0 1 .19-.143 2.81 2.81 0 0 1 1.293.78l.084.077c-.143-.043-.29-.089-.435-.134-.224-.07-.448-.137-.667-.2-.062-.019-.117-.032-.177-.049-.11-.03-.226-.064-.33-.089a.418.418 0 0 1 .042-.242Zm11.27 3.02a4.734 4.734 0 0 1-.953 1.35c-.691-.02-4.155-.475-5.395-.661A52.772 52.772 0 0 1 .777 8.946a.435.435 0 0 1 .038-.225.234.234 0 0 1 .148-.13 1.039 1.039 0 0 1 .398.037c.36.069.853.221 1.331.37a9.491 9.491 0 0 0 1.731.435q.32.027.706.053l.153.02a46.62 46.62 0 0 0 2.63.105c.164 0 .595 0 .653-.374.064-.423-.344-.57-1.769-1.018-.16-.05-.29-.091-.356-.115l-.174-.06a4.932 4.932 0 0 1-.6-.228.788.788 0 0 1 .446-.306 2.66 2.66 0 0 1 .847.14c.235.055.522.122.873.196a10.52 10.52 0 0 0 1.094.183 3.976 3.976 0 0 1 1.158.28 2.613 2.613 0 0 1 1.297.924c.15.287.522.333 1.543.392l.301.017a3.239 3.239 0 0 1-.173 1.078Z"/><path fill="#473e55" d="m5.054 9.409-.011-.01.504-.555-.493.565z"/><path fill="#df704c" d="M6.282 3.212a1.518 1.518 0 0 1-.395.769L3.603 6.245 1.328 3.98a1.502 1.502 0 0 1-.415-1.05 1.49 1.49 0 0 1 1.485-1.474 1.496 1.496 0 0 1 1.038.416l.167.176.176-.166a1.477 1.477 0 0 1 1.049-.436 1.494 1.494 0 0 1 1.37.914 1.414 1.414 0 0 1 .084.851Z"/><path fill="#6e2d16" d="M3.602 6.495a.25.25 0 0 1-.177-.073L1.152 4.158a1.756 1.756 0 0 1-.49-1.226 1.733 1.733 0 0 1 .51-1.215 1.782 1.782 0 0 1 2.438-.024l.002.003a1.78 1.78 0 0 1 2.179-.205 1.715 1.715 0 0 1 .736 1.77 1.776 1.776 0 0 1-.458.892l-2.291 2.27a.25.25 0 0 1-.176.072ZM2.398 1.707a1.24 1.24 0 0 0-1.235 1.225 1.255 1.255 0 0 0 .346.876l2.093 2.084 2.11-2.089a1.265 1.265 0 0 0 .324-.634l.002-.011a1.155 1.155 0 0 0-.07-.7 1.18 1.18 0 0 0-.453-.55 1.25 1.25 0 0 0-1.56.151l-.181.172a.302.302 0 0 1-.18.069.25.25 0 0 1-.174-.08l-.166-.176a1.232 1.232 0 0 0-.856-.337Z"/></svg>