<svg data-tags="linkedin,emoji,like,thumbs up,reaction" xmlns="http://www.w3.org/2000/svg" viewBox="0 0 14 14"><path fill="#3c84b8" fill-rule="evenodd" d="M12.304 6.566h-.74c-.067 0-.201-.255-.538-.619-.498-.538-1.05-1.224-1.44-1.6A9.66 9.66 0 0 1 7.26 1.331C6.936.646 6.909.337 6.25.337a1.036 1.036 0 0 0-.666.367c-.167.202-.548.48-.532.741 0 .189.034 1.1.075 1.328a9.091 9.091 0 0 0 1.453 2.69H1.797A1.17 1.17 0 0 0 .613 6.728a1.224 1.224 0 0 0 1.25 1.143h.216a1.05 1.05 0 0 0-1.022 1.077 1.09 1.09 0 0 0 .995 1.076 1.076 1.076 0 0 0 .444 1.91 1.063 1.063 0 0 0-.12.74 1.157 1.157 0 0 0 1.143.848h3.08a4.99 4.99 0 0 0 1.198-.148l1.91-.565h2.557c1.372-.054 1.736-6.243.04-6.243Z"/><path fill="#004b7c" d="M3.474 14a1.434 1.434 0 0 1-1.468-1.75 1.468 1.468 0 0 1-.617-1.937l.012-.024A1.51 1.51 0 0 1 .66 9.022a1.43 1.43 0 0 1 .095-.549 1.446 1.446 0 0 1 .224-.388 1.61 1.61 0 0 1-.762-1.248 1.534 1.534 0 0 1 .055-.643 1.576 1.576 0 0 1 .324-.583 1.554 1.554 0 0 1 .536-.395 1.595 1.595 0 0 1 .644-.136h3.752a8.033 8.033 0 0 1-.598-.957 6.85 6.85 0 0 1-.4-1.228 3.564 3.564 0 0 1-.101-1.249 2.372 2.372 0 0 1 .15-.515 2.252 2.252 0 0 1 .407-.624 1.499 1.499 0 0 1 2.09-.154 3.05 3.05 0 0 1 .536.844 9.229 9.229 0 0 0 2.189 2.89c.248.24.544.58.853.934.203.235.413.477.613.693.17.185.292.342.38.457l.035.046c.195.005.376.003.56-.006.981 0 1.554 1.207 1.554 3.228 0 1.308-.32 3.78-1.532 3.78H9.77l-1.853.613A5.43 5.43 0 0 1 6.6 14H3.518ZM2.066 7.556a.383.383 0 0 1 .008.766.663.663 0 0 0-.465.206.665.665 0 0 0-.183.477.733.733 0 0 0 .654.718.383.383 0 0 1 .195.683.719.719 0 0 0-.198.244.709.709 0 0 0-.072.306.717.717 0 0 0 .16.447.725.725 0 0 0 .411.252.383.383 0 0 1 .253.563.702.702 0 0 0-.078.488.773.773 0 0 0 .28.38.858.858 0 0 0 .476.147H6.6a4.603 4.603 0 0 0 1.105-.137l1.882-.624a.412.412 0 0 1 .12-.02h2.557c.074 0 .287-.198.476-.81a7.88 7.88 0 0 0 .29-2.203c0-1.541-.39-2.463-.766-2.463a6.923 6.923 0 0 1-.761 0h-.001c-.202 0-.323-.157-.461-.337a5.303 5.303 0 0 0-.337-.404c-.205-.224-.42-.47-.629-.711a14.23 14.23 0 0 0-.795-.875 9.985 9.985 0 0 1-2.366-3.137 2.346 2.346 0 0 0-.377-.617.75.75 0 0 0-.981.125 1.482 1.482 0 0 0-.274.414 1.566 1.566 0 0 0-.095.319 2.813 2.813 0 0 0 .088.96 6.174 6.174 0 0 0 .345 1.08 8.31 8.31 0 0 0 .802 1.215.623.623 0 0 1 .18.235.387.387 0 0 1 .03.187v.033a.383.383 0 0 1-.382.383H1.783a.527.527 0 0 0-.338.07.802.802 0 0 0-.466.84.856.856 0 0 0 .277.583.902.902 0 0 0 .585.217Z"/></svg>