<svg data-tags="Listening,Search" xmlns="http://www.w3.org/2000/svg" viewBox="0 0 14 14"><path d="M5.191 5.236H2.53c.001-.759.159-1.56.377-2.283h2.289c0 .736-.004 1.54-.004 2.283zm-2.662.503h2.662v2.135c-.074.004-.188 0-.266 0-.613 0-1.252.012-1.864 0-.08 0-.159-.035-.179-.097A6.897 6.897 0 0 1 2.53 5.74zM0 5.739h1.997c.116.74.149 1.394.266 2.135-.508 0-1.07.007-1.597 0-.045 0-.045-.02-.066-.061-.362-.66-.566-1.317-.6-2.074zm2.263-2.764c-.092.543-.144 1.014-.225 1.524-.025.16-.033.324-.035.486-.001.123.003.127-.14.126-.57-.007-1.159.004-1.73 0-.03 0-.086.012-.133 0 .03-.644.21-1.227.46-1.82.117-.279.283-.315.605-.316h1.198zm2.928 7.663c-.28-.035-.551-.062-.806-.104a.303.303 0 0 1-.175-.106A7.852 7.852 0 0 1 3.134 8.51c-.008-.02-.071-.102-.073-.134h2.13v2.262zm-1.826-.397A5.686 5.686 0 0 1 .932 8.376c.512 0 1.136-.008 1.597 0 .045.001.11.206.133.252.272.56.427 1.032.703 1.613zM.932 2.473A5.817 5.817 0 0 1 3.377.608c-.027.073-.042.118-.062.16-.246.496-.49.994-.742 1.487-.033.066-.12.216-.177.218-.453.013-.952 0-1.464 0zM5.74 5.228h2.654c-.002-.76-.158-1.563-.376-2.286H5.737l.003 2.286zm2.919-2.264c.092.543.143 1.015.224 1.526.025.16.033.324.035.486.001.124-.003.128.139.126.569-.006 1.156.004 1.725 0 .03 0 .086.013.133 0-.03-.644-.21-1.228-.46-1.821-.116-.28-.281-.316-.602-.317H8.66zm1.327-.504A5.801 5.801 0 0 0 7.548.594c.028.073.042.118.062.16.245.497.488.995.74 1.49.033.066.12.216.176.218.452.013.95 0 1.46 0zm-4.795.038h-2.13c.002-.032.065-.114.073-.134A7.852 7.852 0 0 1 4.21.446.303.303 0 0 1 4.385.34c.255-.042.525-.07.806-.104v2.262zM5.73.206c.28.034.55.062.805.103.063.01.138.056.176.107a7.88 7.88 0 0 1 1.076 1.918c.007.02.07.101.072.133h-2.13V.206zm8.131 12.99l-2.115-2.117a3.448 3.448 0 0 0 .7-2.074A3.44 3.44 0 0 0 9.01 5.57c-.355 0-.691.07-1.013.17H5.694v2.413a3.4 3.4 0 0 0-.12.853A3.44 3.44 0 0 0 9.01 12.44c.744 0 1.474-.245 2.068-.695l2.116 2.116a.47.47 0 0 0 .667.002.466.466 0 0 0 .139-.333.465.465 0 0 0-.139-.334zM9.01 11.498c-1.374 0-2.493-1.119-2.493-2.493S7.636 6.512 9.01 6.512s2.492 1.12 2.492 2.493-1.118 2.493-2.492 2.493z"/></svg>
