<svg data-tags="listen,search,globe" xmlns="http://www.w3.org/2000/svg" viewBox="0 0 24 24"><path d="M14.1 11.4c-1.4 0-2.5 1.1-2.5 2.5s1.1 2.5 2.5 2.5c1.3 0 2.4-1.1 2.5-2.5 0-1.4-1.1-2.5-2.5-2.5z"/><path d="M12 0C5.4 0 0 5.4 0 12s5.4 12 12 12 12-5.4 12-12S18.6 0 12 0zm3.1 8.1c.3.6.5 1.2.5 1.8h-1.8c-.1 0-.1 0-.1-.1v-.5c-.1-.5-.1-1-.2-1.5h1c.3 0 .5 0 .6.3zm-.3-.8c-.5 0-1 .1-1.4.1-.1 0-.2-.1-.2-.2-.2-.5-.5-1-.7-1.5-.1-.1-.1-.1-.1-.2 1 .3 1.8 1 2.4 1.8zM8.3 5.6c0 .1 0 .1-.1.2-.2.4-.4.9-.7 1.3 0 .1-.1.2-.2.2-.4.1-.9.1-1.4.1.6-.8 1.5-1.4 2.4-1.8zM5.5 8.1c.1-.3.3-.3.6-.3h1.1c-.1.6-.1 1-.2 1.5v.5c0 .1 0 .2-.2.1H5c0-.6.2-1.2.5-1.8zm.1 4.5c-.4-.6-.6-1.3-.6-2h2c.1.7.1 1.4.3 2.1-.5 0-1.1 0-1.7-.1.1.1.1.1 0 0zm.3.6h1.6l.1.2c.3.6.4 1 .7 1.6-1-.4-1.8-1-2.4-1.8zm4.1 2.2c-.2 0-.4-.1-.7-.1-.1 0-.1-.1-.2-.1-.4-.6-.8-1.2-1.1-1.9l-.1-.1H10v2.2h.1-.1zm.1-2.7H8c-.1 0-.1 0-.2-.1-.2-.7-.3-1.3-.3-2h2.6v2.1zm0-2.6H7.5c0-.8.1-1.5.4-2.2h2.3c-.1.7-.1 1.4-.1 2.2zm0-2.7H8l.1-.1c.3-.7.6-1.3 1.1-1.9 0-.1.1-.1.2-.1.2 0 .5-.1.8-.1l-.1 2.2zm.6-2.3c.2 0 .4.1.7.1.1 0 .1.1.2.1.4.6.8 1.2 1.1 1.9l.1.1h-2.1V5.1c-.1 0-.1 0 0 0zm0 2.8h2.2c.3.7.4 1.4.4 2.2h-2.6V7.9zM19 18.8c-.2.2-.5.2-.7 0l-2.1-2.1c-.5.5-1.3.7-2 .7-1.9 0-3.4-1.5-3.4-3.4 0-.2 0-.5.1-.8v-2.4h2.3c.3-.1.7-.2 1-.2.7 0 1.4.3 2 .7 1.4 1.1 1.7 3.2.6 4.7l2 2.1c.2.2.4.5.2.7z"/></svg>