<svg data-tags="money,transaction,lend money,hand,dollar" xmlns="http://www.w3.org/2000/svg" viewBox="0 0 14 14"><path d="M11.053 4.199c.87.207.87.497.87.635 0 .1-.053.425-.729.425-.425 0-.688-.124-.782-.364a.506.506 0 00-.464-.338h-.094a.49.49 0 00-.41.22.485.485 0 00-.047.457 1.633 1.633 0 001.122.917v.084a.675.675 0 101.35 0v-.068a1.381 1.381 0 001.17-1.336c0-1.054-.86-1.42-1.7-1.64-.806-.208-.874-.386-.874-.55 0-.27.286-.444.73-.444.472 0 .586.196.63.34a.486.486 0 00.458.361h.104a.493.493 0 00.404-.21.475.475 0 00.058-.446 1.493 1.493 0 00-.98-.924V1.22a.675.675 0 00-1.35 0V1.3a1.449 1.449 0 00-1.17 1.349c0 1.023.972 1.374 1.704 1.55zM13.274 8.883a1.048 1.048 0 00-.817.091c-.8.384-1.6.772-2.405 1.146a1.233 1.233 0 01-.542.143c-.518-.025-1.035-.089-1.552-.139a1.19 1.19 0 01-.145-.032l-.003-.046c.067-.024.133-.053.202-.071.45-.119.907-.215 1.348-.36a.973.973 0 00.513-1.45 1.004 1.004 0 00-1.169-.413 6.969 6.969 0 01-2.338.285c-.804-.062-1.614-.046-2.42-.081a1.348 1.348 0 00-1.016.339c-.273.247-.566.472-.849.708-.413.343-.836.674-1.23 1.035a1.048 1.048 0 00-.173.21.28.28 0 00-.317.023l-.256.207a.282.282 0 00-.043.396l2.173 2.701a.282.282 0 00.395.043l.258-.207a.28.28 0 00.095-.282c.251-.169.502-.337.746-.515a1.526 1.526 0 011.102-.29q1.738.178 3.48.327a1.468 1.468 0 00.542-.05 16.51 16.51 0 003.12-1.193c.488-.26 1.002-.47 1.488-.731a.913.913 0 00.498-.948.952.952 0 00-.685-.846z"/></svg>