<svg data-tags="Location,Position,Area" xmlns="http://www.w3.org/2000/svg" viewBox="0 0 14 14"><g fill-rule="evenodd" clip-rule="evenodd"><path d="M9.6 9.873c-.176.279-.368.569-.577.87 1.753.257 2.65.807 2.65 1.08 0 .365-1.59 1.22-4.673 1.22-3.084 0-4.674-.855-4.674-1.22 0-.273.897-.823 2.65-1.08a26.55 26.55 0 0 1-.577-.87c-1.73.32-3.05.977-3.05 1.95C1.349 13.254 4.192 14 7 14s5.651-.748 5.651-2.176c0-.974-1.32-1.631-3.05-1.951"/><path d="M7 11.701c.347 0 .673-.161.878-.436 1.31-1.752 3.63-5.1 3.63-6.85C11.508 1.978 9.489 0 7 0 4.51 0 2.492 1.977 2.492 4.416c0 1.749 2.319 5.097 3.63 6.85.206.274.532.435.878.435M5.125 4.33c0-1.015.84-1.837 1.875-1.837 1.035 0 1.875.822 1.875 1.837S8.035 6.165 7 6.165c-1.036 0-1.875-.822-1.875-1.836"/></g></svg>
