<svg data-tags="salesforce" xmlns="http://www.w3.org/2000/svg" viewBox="0 0 14 14"><path d="m13.65 2.186-4.2-2.1a.747.747 0 0 0-.612 0l-3.88 1.956L1.05.086a.723.723 0 0 0-.73.028A.672.672 0 0 0 0 .7v10.5a.681.681 0 0 0 .38.61l4.2 2.1a.747.747 0 0 0 .614 0L9.1 11.958l3.88 1.955a.588.588 0 0 0 .32.086.642.642 0 0 0 .377-.117A.672.672 0 0 0 14 13.3V2.8a.656.656 0 0 0-.35-.613Zm-1.11 1.335v5.548a.436.436 0 0 1-.582.439c-1.08-.409-.206-2.217-.992-3.208-.73-.906-1.664.03-2.566-1.4-.847-1.38.291-2.364 1.341-2.889a.497.497 0 0 1 .408 0l2.159 1.08a.467.467 0 0 1 .233.43Zm-5.862 8.115a.49.49 0 0 1-.525-.059 1.533 1.533 0 0 1-.525-1.08c0-.7-1.167-.467-1.167-1.867 0-1.136-1.341-1.43-2.48-1.313a.439.439 0 0 1-.495-.467V2.588a.434.434 0 0 1 .642-.409l2.508 1.255a.103.103 0 0 1 .058.03l.087.06c1.05.613.844 1.107.408 1.866-.497.844-.7 0-1.4-.234s-1.4.234-1.166.7.933 0 1.4.467.466 1.167 1.866.7 1.633-.233 2.1.233a1.472 1.472 0 0 1 .018 2.082l-.018.018a4.847 4.847 0 0 0-.758 1.867.467.467 0 0 1-.234.291Z"/></svg>