<svg data-tags="locked,not allowed,denied,no access,non PCI,secured,security,private" xmlns="http://www.w3.org/2000/svg" viewBox="0 0 14 14"><path d="M11.115 4.797H10.03V3.171a3.169 3.169 0 00-6.338 0v1.626h-.808a1.476 1.476 0 00-1.478 1.479v6.248a1.474 1.474 0 001.478 1.468h8.23a1.474 1.474 0 001.478-1.468V6.276a1.476 1.476 0 00-1.478-1.479zM7.72 11.51a.694.694 0 01-1.389 0v-1.23a.871.871 0 01-.394-.759 1.064 1.064 0 012.13 0 1.046 1.046 0 01-.383.801zm.93-6.712H5.084V3.171a1.784 1.784 0 113.568 0z"/></svg>