<svg data-tags="magic wand,selection,customize" xmlns="http://www.w3.org/2000/svg" viewBox="0 0 14 14"><path fill-rule="evenodd" d="M10.875 4.369l-.734.734a.326.326 0 01-.46.01l-.807-.807a.326.326 0 01.01-.46l.733-.734a.326.326 0 01.46-.01l.808.807a.326.326 0 01-.01.46zM6.531 3.87l.826.222a.763.763 0 00.394-1.474l-.825-.221a.763.763 0 10-.395 1.474zm6.903.27l-.827-.222a.765.765 0 00-.394 1.475l.825.221a.764.764 0 10.396-1.475zM11.76 2.991a.753.753 0 00.536-.22l.61-.604a.763.763 0 10-1.076-1.083l-.607.603a.761.761 0 00.536 1.304zM8.594 1.774a.764.764 0 001.476-.393L9.848.554a.765.765 0 00-1.475.393l.22.826zm2.776 4.463a.763.763 0 00-1.474.393l.223.827a.762.762 0 101.472-.395zm-2.452-.356l-.798-.798a.34.34 0 00-.48 0l-7.31 7.31a.904.904 0 001.28 1.277l7.309-7.31a.34.34 0 000-.48z"/></svg>