<svg data-tags="salesforce" xmlns="http://www.w3.org/2000/svg" viewBox="0 0 14 14"><path d="M10.704 3.378h1.84a.408.408 0 0 0 .396-.396.43.43 0 0 0-.116-.28L10.19.116A.374.374 0 0 0 9.935 0a.408.408 0 0 0-.396.396v1.84a1.213 1.213 0 0 0 1.165 1.142Z"/><path d="M12.334 5.008H9.493a1.705 1.705 0 0 1-1.701-1.677V.536A.498.498 0 0 0 7.326 0H2.76a1.705 1.705 0 0 0-1.7 1.677v10.646A1.69 1.69 0 0 0 2.76 14h8.433a1.705 1.705 0 0 0 1.7-1.677V5.59a.557.557 0 0 0-.559-.583Zm-1.607 7.175a.948.948 0 0 1-.699.28.986.986 0 0 1-.699-.28L6.115 8.968a2.066 2.066 0 0 1-.652.163 2.46 2.46 0 0 1-2.726-2.166A2.525 2.525 0 0 1 2.83 5.94c.024-.093.14-.116.233-.046L4.461 7.29a.261.261 0 0 0 .373.023.023.023 0 0 0 .023-.023l.978-.978a.261.261 0 0 0 .024-.373.023.023 0 0 0-.024-.023L4.438 4.519a.174.174 0 0 1 0-.21c.023-.023.023-.023.046-.023a3.835 3.835 0 0 1 .722-.093A2.49 2.49 0 0 1 7.7 6.663a1.133 1.133 0 0 1-.023.279 2.972 2.972 0 0 1-.164.652l3.215 3.238a.956.956 0 0 1 0 1.351Z"/></svg>