<svg data-tags="location,maps,locate" xmlns="http://www.w3.org/2000/svg" viewBox="0 0 14 14"><path d="M13.471 11.352l-3.787 2.273a.557.557 0 01-.568 0l-2.77-1.654a4.092 4.092 0 00.466-1.463L9.4 12.06V4.283L5.07 1.685v5.093a3.787 3.787 0 00-1.824-.585c-.081 0-.163-.007-.247-.007s-.168 0-.249.007a3.773 3.773 0 00-2.003.712V2.84a.524.524 0 01.255-.45L4.79.117a.557.557 0 01.568 0l4.04 2.426L13.269.22a.303.303 0 01.458.26v10.422a.524.524 0 01-.255.45z"/><path d="M5.474 8.88a2.68 2.68 0 00-2.291-1.562h-.366A2.68 2.68 0 00.525 8.881a2.868 2.868 0 00.541 3.152l1.698 1.825.016.016a.321.321 0 00.454-.016l1.698-1.826a2.868 2.868 0 00.542-3.151zM3 11.305a1.25 1.25 0 111.25-1.25A1.25 1.25 0 013 11.304z"/></svg>