<svg data-tags="salesforce" xmlns="http://www.w3.org/2000/svg" viewBox="0 0 14 14"><path d="m11.489 11.01-.263.262a1.497 1.497 0 0 1-1.079.437H9.39a1.474 1.474 0 0 1-1.458-1.516v-.73a1.82 1.82 0 0 1 .408-1.136l3.15-3.208a.733.733 0 0 0 .174-.408v-2.42a1.42 1.42 0 0 0-1.4-1.4H2.8a1.46 1.46 0 0 0-1.4 1.4H.934A.946.946 0 0 0 0 3.253a.921.921 0 0 0 .933.933H1.4v1.896H.933a.933.933 0 1 0 0 1.866H1.4v1.895H.933a.94.94 0 0 0-.933.933.921.921 0 0 0 .933.933H1.4a1.315 1.315 0 0 0 1.4 1.4h7.464a1.42 1.42 0 0 0 1.4-1.4v-.612q0-.219-.175-.088ZM9.098 4.42a.46.46 0 0 1-.467.466H3.966a.46.46 0 0 1-.467-.467v-.466a.46.46 0 0 1 .467-.467H8.63a.46.46 0 0 1 .467.467Zm-2.1 5.656a.46.46 0 0 1-.466.467H3.966a.46.46 0 0 1-.467-.467V9.61a.46.46 0 0 1 .467-.467h2.566a.46.46 0 0 1 .466.467Zm.7-2.828a.46.46 0 0 1-.467.466H3.966a.46.46 0 0 1-.467-.466V6.78a.46.46 0 0 1 .467-.466H7.23a.46.46 0 0 1 .467.466Z"/><path d="m13.85 5.965-.291-.292a.458.458 0 0 0-.642 0L9.36 9.347c-.03 0-.03.059-.03.059v.787c0 .058 0 .117.06.117h.757c.03 0 .059-.03.088-.03l3.586-3.615a.456.456 0 0 0 .03-.7Z"/></svg>