<svg data-tags="join,integrate,combine,unite,unify" xmlns="http://www.w3.org/2000/svg" viewBox="0 0 14 14"><path d="M7 .02A6.98 6.98 0 1013.98 7 6.98 6.98 0 007 .02zm.585 7.605a1.068 1.068 0 01-.32.76l-2.29 2.29a.58.58 0 01-.82 0 .586.586 0 010-.83l2.29-2.29-.03-2.55h-1.02a.349.349 0 01-.32-.21.341.341 0 01.08-.37l1.6-1.6a.325.325 0 01.24-.1.349.349 0 01.24.1l1.6 1.6a.34.34 0 01.08.37.33.33 0 01-.32.21h-1.01zm2.26 3.04a.554.554 0 01-.41.18.607.607 0 01-.42-.17l-1.38-1.39.83-.83 1.38 1.38a.586.586 0 010 .83z"/></svg>