<svg data-tags="merge,arrow,right,cells,table,move" xmlns="http://www.w3.org/2000/svg" viewBox="0 0 14 14"><path d="M1.496 3.013a.502.502 0 0 1 .502-.502h5.511V1.015H1.003A1.003 1.003 0 0 0 0 2.018v2.737h1.496zm-.493 9.972H7.51V11.49H1.998a.502.502 0 0 1-.502-.502V9.244H0v2.738a1.003 1.003 0 0 0 1.003 1.003z"/><rect width="4.967" height="11.971" x="9.033" y="1.015" rx="1"/><path d="M.696 7.632h3.517V8.88c0 .01.006.02.006.03a.696.696 0 0 0 1.198.485l1.898-1.978.001-.002.002-.001.001-.002h.001V7.41l.002-.002a.696.696 0 0 0 .185-.423.702.702 0 0 0-.153-.492q-.02-.025-.043-.048L5.417 4.472a.698.698 0 0 0-.987-.024.691.691 0 0 0-.212.516c0 .01-.005.017-.005.026v1.245H.696a.698.698 0 0 0 0 1.397z"/></svg>