<svg data-tags="merge,arrow,left,cells,table,move" xmlns="http://www.w3.org/2000/svg" viewBox="0 0 14 14"><path d="M12.504 10.987a.502.502 0 0 1-.502.502H6.491v1.496h6.506A1.003 1.003 0 0 0 14 11.982V9.244h-1.496zm.493-9.972H6.49V2.51h5.511a.502.502 0 0 1 .502.502v1.742H14V2.018a1.003 1.003 0 0 0-1.003-1.003z"/><rect width="4.967" height="11.971" y="1.015" rx="1"/><path d="M13.304 6.368H9.787V5.12c0-.01-.006-.02-.006-.03a.696.696 0 0 0-1.198-.486L6.685 6.583l-.001.002-.002.001-.001.002H6.68v.001l-.002.002a.696.696 0 0 0-.185.423.702.702 0 0 0 .153.492q.02.025.043.048l1.894 1.974a.698.698 0 0 0 .987.024.69.69 0 0 0 .212-.516c0-.01.005-.017.005-.026V7.765h3.517a.698.698 0 0 0 0-1.397z"/></svg>