<svg data-tags="salesforce" xmlns="http://www.w3.org/2000/svg" viewBox="0 0 14 14"><path d="M6.988.478A6.757 6.757 0 0 0 0 7a6.258 6.258 0 0 0 .885 3.191.428.428 0 0 1 .047.373L.28 12.637a.47.47 0 0 0 .605.583l2.05-.723a.47.47 0 0 1 .396.047 7.237 7.237 0 0 0 3.68.978A6.757 6.757 0 0 0 14 7 6.793 6.793 0 0 0 6.988.478Zm2.04 9.783H4.991a.927.927 0 0 1-.798-.958c.023-.702.751-1.122 1.526-1.473.54-.234.61-.444.61-.678A.838.838 0 0 0 6 6.544a1.581 1.581 0 0 1-.493-1.169 1.486 1.486 0 1 1 2.958 0 1.498 1.498 0 0 1-.493 1.17.838.838 0 0 0-.329.607c0 .234.07.444.61.654.775.328 1.503.795 1.526 1.497a.857.857 0 0 1-.75.958Z"/></svg>