<svg data-tags="dollar,engaement cost,cost,cost per engagement" xmlns="http://www.w3.org/2000/svg" viewBox="0 0 14 14"><path d="M11.977.633H2.013A1.995 1.995 0 00.018 2.627V9.18a2.005 2.005 0 002.005 2.005h3.215l1.33 1.99c.183.234.183.183.468.193.152 0 .223 0 .396-.193l1.33-1.99h3.225a1.995 1.995 0 001.995-1.995V2.637A2.005 2.005 0 0011.977.633zM7.678 8.796v.174a.678.678 0 01-1.356 0v-.185a1.798 1.798 0 01-1.316-1.023.46.46 0 01.046-.43.468.468 0 01.388-.207h.11a.478.478 0 01.439.32c.128.33.469.496 1.01.496.887 0 .956-.46.956-.6 0-.29-.13-.614-1.094-.845-.816-.196-1.9-.585-1.9-1.7a1.576 1.576 0 011.36-1.478v-.182a.678.678 0 011.357 0v.195a1.632 1.632 0 011.146 1.03.448.448 0 01-.053.419.47.47 0 01-.387.201h-.116a.456.456 0 01-.43-.34c-.097-.32-.371-.476-.838-.476-.58 0-.955.245-.955.624 0 .283.183.507 1.096.744.94.244 1.899.649 1.899 1.803a1.499 1.499 0 01-1.362 1.46z"/></svg>