<svg data-tags="message,template" xmlns="http://www.w3.org/2000/svg" viewBox="0 0 14 14"><path d="M12.565 4.985V.945a.918.918 0 0 0-.29-.645.87.87 0 0 0-.635-.3H.91a.845.845 0 0 0-.62.31.932.932 0 0 0-.29.635v10.827a.333.333 0 0 0 .214.33.334.334 0 0 0 .398-.09l2.73-2.736h1.805v-2.86a1.435 1.435 0 0 1 1.435-1.43Z"/><path d="M13.565 5.986H6.582a.433.433 0 0 0-.435.43v7.153a.433.433 0 0 0 .435.431h6.983a.433.433 0 0 0 .435-.431V6.417a.433.433 0 0 0-.435-.431ZM7.612 7.458a.273.273 0 0 1 .273-.272h4.377a.273.273 0 0 1 .273.272v3.07a.273.273 0 0 1-.273.272H7.885a.273.273 0 0 1-.273-.273ZM12.07 12.8H8.076a.481.481 0 0 1 0-.962h3.995a.481.481 0 0 1 0 .962Z"/></svg>