<svg data-tags="lock,message,chat,private" xmlns="http://www.w3.org/2000/svg" viewBox="0 0 14 14"><path d="M13.76 3.309a.7.7 0 0 0-.512-.258h-1.78v5.882H2.853v1.746a.767.767 0 0 0 .247.528.722.722 0 0 0 .522.258h7.638L13.49 13.7a.275.275 0 0 0 .331.073.28.28 0 0 0 .178-.276V3.854a.791.791 0 0 0-.24-.545ZM5.339 2.049a.545.545 0 0 0-.549.55v.38h1.095V2.6a.53.53 0 0 0-.16-.391.52.52 0 0 0-.386-.16Z"/><path d="M10.204 7.654a.772.772 0 0 0 .24-.53V.984a.763.763 0 0 0-.24-.536.724.724 0 0 0-.528-.25H.756A.703.703 0 0 0 .24.457.775.775 0 0 0 0 .985v9a.277.277 0 0 0 .178.273.277.277 0 0 0 .33-.074l2.27-2.274h6.898a.716.716 0 0 0 .528-.256ZM7.018 5.508a.406.406 0 0 1-.406.404H4.063a.406.406 0 0 1-.404-.404V3.385a.405.405 0 0 1 .404-.406h.255V2.6a.996.996 0 0 1 .297-.725 1.02 1.02 0 0 1 1.742.724v.381h.255a.405.405 0 0 1 .406.406Z"/></svg>