<svg data-tags="dollar,budget,rate,conversions,cost" xmlns="http://www.w3.org/2000/svg" viewBox="0 0 14 14"><path d="M7.229.997V.425a.41.41 0 00-.21-.36A.394.394 0 006.82.01a.378.378 0 00-.22.07L4.77 1.2a.406.406 0 00.004.687l1.81 1.13a.394.394 0 00.213.059.43.43 0 00.207-.056.408.408 0 00.21-.361v-.476a4.823 4.823 0 014.572 4.81 4.704 4.704 0 01-1.405 3.379.604.604 0 000 .864.593.593 0 00.431.174.6.6 0 00.432-.174 5.963 5.963 0 001.768-4.243A6.045 6.045 0 007.229.997zm.181 9.953a.438.438 0 00-.219-.059.47.47 0 00-.195.045.408.408 0 00-.21.36v.478a4.78 4.78 0 01-3.167-8.162.61.61 0 10-.863-.864A5.964 5.964 0 00.988 6.992a6.024 6.024 0 005.783 5.995v.57a.41.41 0 00.203.359.394.394 0 00.214.059.387.387 0 00.211-.058l1.83-1.132a.408.408 0 00-.002-.688z"/><path d="M6.995 10.397a3.404 3.404 0 10-3.394-3.404 3.405 3.405 0 003.394 3.404zm-.266-5.062V4.93a.086.086 0 01.079-.088h.414a.095.095 0 01.079.088v.405a.872.872 0 01.79.76.088.088 0 01-.09.088h-.424c-.03 0-.069-.03-.069-.059a.285.285 0 00-.276-.217h-.365a.388.388 0 00-.415.355.402.402 0 00.405.454h.306a.97.97 0 01.957 1.056.995.995 0 01-.849.858v.415a.08.08 0 01-.079.089h-.414a.08.08 0 01-.079-.09V8.64a.853.853 0 01-.79-.75.088.088 0 01.09-.088h.424c.03 0 .069.03.069.059a.285.285 0 00.276.217h.365a.405.405 0 10.01-.81h-.256A.99.99 0 015.88 6.4a.978.978 0 01.849-1.065z"/></svg>