<svg data-tags="asset,msg" xmlns="http://www.w3.org/2000/svg" viewBox="0 0 14 14"><path d="M11.996 0H2.004A2.004 2.004 0 0 0 0 2.004v9.992A2.004 2.004 0 0 0 2.004 14h9.992A2.004 2.004 0 0 0 14 11.996V2.004A2.004 2.004 0 0 0 11.996 0ZM5.055 8.281a.493.493 0 0 1-.103.334.366.366 0 0 1-.285.12.358.358 0 0 1-.277-.12.484.484 0 0 1-.105-.334v-1.48l-.336 1.333c-.034.135-.06.233-.083.296a.482.482 0 0 1-.141.206.427.427 0 0 1-.294.098.446.446 0 0 1-.239-.061.43.43 0 0 1-.15-.157.747.747 0 0 1-.078-.189L2.578 6.8v1.481a.487.487 0 0 1-.105.334.36.36 0 0 1-.281.12.365.365 0 0 1-.279-.118.484.484 0 0 1-.105-.336V5.762a.397.397 0 0 1 .147-.354.602.602 0 0 1 .343-.088h.2a.84.84 0 0 1 .293.038.308.308 0 0 1 .17.165 1.822 1.822 0 0 1 .093.289l.377 1.419.377-1.42a1.866 1.866 0 0 1 .094-.29.312.312 0 0 1 .168-.162.857.857 0 0 1 .295-.039h.2a.602.602 0 0 1 .343.088.397.397 0 0 1 .147.354Zm3.255-.077a1.08 1.08 0 0 1-.474.392 1.717 1.717 0 0 1-.716.138 1.632 1.632 0 0 1-.821-.188 1.137 1.137 0 0 1-.383-.372.868.868 0 0 1-.15-.464.37.37 0 0 1 .377-.372.333.333 0 0 1 .234.088.6.6 0 0 1 .141.226 1.24 1.24 0 0 0 .124.236.441.441 0 0 0 .165.14.646.646 0 0 0 .296.057.675.675 0 0 0 .412-.117.316.316 0 0 0 .144-.262.268.268 0 0 0-.072-.195.556.556 0 0 0-.214-.129c-.1-.034-.234-.07-.401-.108a3.027 3.027 0 0 1-.592-.194 1.024 1.024 0 0 1-.401-.32.858.858 0 0 1-.153-.515.89.89 0 0 1 .16-.518.995.995 0 0 1 .454-.345 1.797 1.797 0 0 1 .672-.116 1.676 1.676 0 0 1 .535.077 1.167 1.167 0 0 1 .384.21.883.883 0 0 1 .229.281.674.674 0 0 1 .074.298.394.394 0 0 1-.104.266.348.348 0 0 1-.269.122.32.32 0 0 1-.23-.08.83.83 0 0 1-.142-.203.759.759 0 0 0-.187-.256.54.54 0 0 0-.334-.08.599.599 0 0 0-.352.093.236.236 0 0 0-.115.192.175.175 0 0 0 .035.111.36.36 0 0 0 .115.097.898.898 0 0 0 .168.07c.06.018.162.045.303.081a5.06 5.06 0 0 1 .495.14 1.613 1.613 0 0 1 .393.197.85.85 0 0 1 .267.307.976.976 0 0 1 .096.448 1.03 1.03 0 0 1-.163.567Zm3.882-.296a.733.733 0 0 1-.029.221.401.401 0 0 1-.11.17.971.971 0 0 1-.183.126 2.674 2.674 0 0 1-.575.236 2.333 2.333 0 0 1-.606.073 2.002 2.002 0 0 1-.7-.118 1.48 1.48 0 0 1-.546-.348 1.54 1.54 0 0 1-.347-.552 2.217 2.217 0 0 1-.003-1.426 1.498 1.498 0 0 1 .345-.555 1.525 1.525 0 0 1 .557-.35 2.09 2.09 0 0 1 .73-.12 1.84 1.84 0 0 1 .598.09 1.36 1.36 0 0 1 .43.234 1.06 1.06 0 0 1 .252.302.637.637 0 0 1 .089.3.368.368 0 0 1-.117.271.388.388 0 0 1-.278.11.379.379 0 0 1-.174-.042.395.395 0 0 1-.139-.117 2.397 2.397 0 0 0-.197-.276.56.56 0 0 0-.193-.14.758.758 0 0 0-.32-.057.896.896 0 0 0-.364.07.739.739 0 0 0-.268.2.932.932 0 0 0-.174.329 1.484 1.484 0 0 0-.063.444 1.212 1.212 0 0 0 .237.805.798.798 0 0 0 .65.27 1.392 1.392 0 0 0 .395-.055 2.05 2.05 0 0 0 .335-.135v-.376h-.412a.624.624 0 0 1-.317-.066.281.281 0 0 1-.136-.26.315.315 0 0 1 .107-.242.384.384 0 0 1 .268-.092h.732a1.05 1.05 0 0 1 .25.026.352.352 0 0 1 .202.141.519.519 0 0 1 .074.299Z"/></svg>