<svg data-tags="message,comment,multi comments" xmlns="http://www.w3.org/2000/svg" viewBox="0 0 14 14"><path d="M12.905.468h-9.68a1.045 1.045 0 00-1.138 1.028v.066l8.748-.003a2.015 2.015 0 012.065 2.22v5.145h.005a.707.707 0 00.068 0 .959.959 0 00.14 0 .935.935 0 00.862-1.003V1.632a1.02 1.02 0 00-1.07-1.164z"/><path d="M10.832 2.556h-9.68A1.045 1.045 0 00.015 3.584v6.39a1.105 1.105 0 001.164 1.037h1.343v1.912s.017.612.578.612a.68.68 0 00.255-.034l3.858-2.354a.85.85 0 01.57-.136h3.05q.034.002.068 0a.935.935 0 001.003-1.003V3.72a1.02 1.02 0 00-1.071-1.164z"/></svg>