<svg data-tags="data,network,bars,range,mobile" xmlns="http://www.w3.org/2000/svg" viewBox="0 0 14 14"><path d="M.824 8.098h.823a.824.824 0 0 1 .824.824v1.647a.823.823 0 0 1-.824.823H.824A.824.824 0 0 1 0 10.568V8.922a.824.824 0 0 1 .824-.824Z"/><rect x="3.843" y="6.451" width="2.471" height="4.941" rx=".824"/><path d="M8.51 4.53h.823a.824.824 0 0 1 .824.823v5.216a.823.823 0 0 1-.824.823H8.51a.824.824 0 0 1-.824-.823V5.353a.823.823 0 0 1 .824-.824Z"/><rect x="11.529" y="2.608" width="2.471" height="8.784" rx=".824"/></svg>