<svg data-tags="note,edit,approve,tick,text,doc" xmlns="http://www.w3.org/2000/svg" viewBox="0 0 14 14"><path d="M6.976 10.466a1.702 1.702 0 0 1 2.403.017l.376.382 2.343-2.343a1.684 1.684 0 0 1 .756-.432l.033-6.69a1.38 1.38 0 0 0-1.38-1.38H1.38A1.38 1.38 0 0 0 0 1.4v10.126a1.38 1.38 0 0 0 1.38 1.381h5.615l-.038-.038a1.703 1.703 0 0 1 .019-2.403Zm1.684-3.79H2.273a.645.645 0 1 1 0-1.29H8.66a.645.645 0 0 1 0 1.29ZM2.27 2.393h8.271a.645.645 0 0 1 .005 1.29H2.273a.645.645 0 1 1-.004-1.29Zm4.138 7.038H2.273a.645.645 0 1 1-.005-1.289h4.139a.645.645 0 1 1 .005 1.29Z"/><path d="M13.795 9.229a.7.7 0 0 0-.99 0l-3.056 3.056-1.081-1.099a.7.7 0 1 0-.998.982l1.576 1.603.002.002.002.002a.678.678 0 0 0 .16.106.742.742 0 0 0 .07.047.697.697 0 0 0 .526.001.716.716 0 0 0 .095-.062.678.678 0 0 0 .135-.088l.002-.003.002-.001 3.555-3.556a.7.7 0 0 0 0-.99Z"/></svg>