<svg data-tags="approve with note,check list,tick" xmlns="http://www.w3.org/2000/svg" viewBox="0 0 14 14"><path d="M4.452 11.711h-1.95V1.45H9.82v6.294a.7.7 0 101.4 0V.75a.7.7 0 00-.7-.7H1.802a.7.7 0 00-.7.7v11.662a.7.7 0 00.7.7h2.65a.7.7 0 100-1.4zM12.693 9.49a.7.7 0 00-.99 0l-2.77 2.77-.753-.753a.7.7 0 10-.99.99l1.248 1.249a.7.7 0 00.99 0l3.265-3.265a.7.7 0 000-.99z"/><path d="M8.597 2.413H3.724a.7.7 0 100 1.4h4.873a.7.7 0 100-1.4zM8.597 4.802H3.724a.7.7 0 100 1.4h4.873a.7.7 0 100-1.4zM8.597 7.043H3.724a.7.7 0 100 1.4h4.873a.7.7 0 100-1.4z"/></svg>