<svg data-tags="notification, no notification, disable, off,bel" xmlns="http://www.w3.org/2000/svg" viewBox="0 0 14 14"><path d="M7,14a1.38025,1.38025,0,0,0,1.37665-1.37573H5.62336A1.38131,1.38131,0,0,0,7,14Z"/><path d="M11.47163,5.84545A4.46885,4.46885,0,0,0,8.03321,1.49889V1.03228a1.03226,1.03226,0,1,0-2.06451,0v.46661a4.44855,4.44855,0,0,0-1.45563.6416l6.95856,6.95862Z"/><path d="M13.77332,12.79125,1.23652.25438A.7081.7081,0,0,0,.23512,1.25579l2.7218,2.7218A4.42347,4.42347,0,0,0,2.5293,5.84636V9.6292L1.15357,11.004v.68884h9.51862L12.772,13.79259a.70805.70805,0,0,0,1.00134-1.00134Z"/></svg>