<svg data-tags="list,numbers,bullet point" xmlns="http://www.w3.org/2000/svg" viewBox="0 0 14 14"><path d="M4.347 3.287h8.91a.743.743 0 100-1.485h-8.91a.743.743 0 100 1.485zm8.911 7.426h-8.91a.743.743 0 000 1.485h8.91a.743.743 0 000-1.485zm0-4.456h-8.91a.743.743 0 000 1.485h8.91a.743.743 0 000-1.485zM.331 2.133c.078 0 .207-.032.517-.25V3.33a.426.426 0 00.095.293.34.34 0 00.258.11c.133 0 .357-.062.357-.474V1.171a.43.43 0 00-.082-.273.293.293 0 00-.238-.114.252.252 0 00-.194.065 2.34 2.34 0 00-.143.186 1.41 1.41 0 01-.218.24 1.474 1.474 0 01-.328.202 1.376 1.376 0 00-.225.125.263.263 0 00-.1.222.3.3 0 00.088.215.293.293 0 00.213.094zm1.384 5.286h-.73a3.723 3.723 0 01.312-.279c.185-.15.316-.261.394-.332a1.356 1.356 0 00.25-.314.895.895 0 00.127-.467.85.85 0 00-.233-.586.819.819 0 00-.26-.186 1.286 1.286 0 00-.518-.096 1.22 1.22 0 00-.444.075.951.951 0 00-.32.204.85.85 0 00-.192.283.794.794 0 00-.064.303.327.327 0 00.09.239.312.312 0 00.228.092.295.295 0 00.24-.105.72.72 0 00.115-.22 1.16 1.16 0 01.05-.127.322.322 0 01.286-.161.324.324 0 01.158.038.287.287 0 01.11.105.291.291 0 01.04.154.41.41 0 01-.041.175.752.752 0 01-.133.19 1.493 1.493 0 01-.23.198 3.007 3.007 0 00-.292.246c-.131.12-.279.265-.444.436a.745.745 0 00-.126.2.542.542 0 00-.059.218.345.345 0 00.108.252.39.39 0 00.289.108h1.342a.339.339 0 00.257-.095.314.314 0 00.089-.225.295.295 0 00-.117-.243.454.454 0 00-.282-.08zm.17 3.709a.965.965 0 00-.14-.117.996.996 0 00.142-.181.692.692 0 00.096-.37.718.718 0 00-.065-.301.698.698 0 00-.19-.25.867.867 0 00-.29-.159 1.117 1.117 0 00-.356-.054 1.249 1.249 0 00-.401.062.981.981 0 00-.309.173.809.809 0 00-.192.23.518.518 0 00-.071.25.317.317 0 00.094.234.294.294 0 00.208.09.366.366 0 00.154-.031.245.245 0 00.128-.135l.058-.128a.42.42 0 01.14-.162.366.366 0 01.14-.022.239.239 0 01.184.07.23.23 0 01.067.167.242.242 0 01-.082.2.428.428 0 01-.296.074.395.395 0 00-.262.077.28.28 0 00-.106.224.285.285 0 00.09.22.327.327 0 00.227.076l.211-.014a.324.324 0 01.248.09.362.362 0 01.087.26.367.367 0 01-.052.197.355.355 0 01-.301.17.282.282 0 01-.225-.087 1.133 1.133 0 01-.183-.338.25.25 0 00-.106-.13l-.125-.046h-.03a.341.341 0 00-.244.093.333.333 0 00-.102.248.637.637 0 00.067.254 1.01 1.01 0 00.508.49 1.032 1.032 0 00.436.089 1.198 1.198 0 00.432-.075 1.05 1.05 0 00.341-.212.923.923 0 00.297-.675.802.802 0 00-.057-.3.792.792 0 00-.17-.251z"/></svg>