<svg data-tags="message,conversation,asset" xmlns="http://www.w3.org/2000/svg" viewBox="0 0 14 14"><path d="M13.067 0H3.982C3.05 0 3.05.848 3.05.992v1.432h6.969c1.037 0 1.733.72 1.733 1.791V8.46h1.316C14 8.46 14 7.456 14 7.312V.992C14 .848 14 0 13.067 0z"/><path d="M2.758 14a.41.41 0 00.23-.076L5.64 11.84a.843.843 0 01.448-.158h3.929c.933 0 .933-1.004.933-1.148v-6.32c0-.143 0-.991-.933-.991H.933C0 3.224 0 4.072 0 4.215v6.303c0 .144 0 1.165.933 1.165h1.37c.136 0 .248.118.248.262v1.821c0 .178.1.234.207.234z"/></svg>