<svg data-tags="care,customer call,agent" xmlns="http://www.w3.org/2000/svg" viewBox="0 0 14 14"><path d="M2.18 7.489h.515a.775.775 0 00.766-.776V4.636A3.623 3.623 0 016.88.966a3.532 3.532 0 013.64 3.529v3.579H6.99a.506.506 0 00-.503.504.512.512 0 00.504.504h3.529a1.018 1.018 0 001.008-1.008v-.615l.019-.014h.117a.768.768 0 00.768-.768v-1.26a.768.768 0 00-.768-.77h-.137a4.538 4.538 0 10-9.073.04h-.111a.766.766 0 00-.766.765v1.422a.609.609 0 00.605.615zm9.77 4.608c-.1-.081-.211-.142-.312-.212a4.181 4.181 0 00-.434-.303 7.242 7.242 0 00-.675-.373c-.151-.07-.303-.15-.454-.211a6.469 6.469 0 00-.887-.273c-.121-.03-.232-.07-.353-.1a7.174 7.174 0 00-1.33-.131h-1.03a7.261 7.261 0 00-1.33.13c-.121.03-.232.071-.343.101a6.469 6.469 0 00-.887.273c-.161.06-.303.14-.454.211-.232.121-.464.232-.685.373-.142.091-.28.173-.422.283a3.63 3.63 0 00-.314.232 6.747 6.747 0 00-1.563 1.855l13.046.03a6.739 6.739 0 00-1.573-1.885z"/><path d="M6.993 7.324h2.771v-2.83a2.762 2.762 0 00-.46-1.523 3.693 3.693 0 00-4.39-.253 2.999 2.999 0 00-.702 1.92v2.429a1.241 1.241 0 01-.386.896A3.76 3.76 0 006.24 9.556a1.237 1.237 0 01-.506-.982 1.256 1.256 0 011.26-1.25z"/></svg>