<svg data-tags="salesforce" xmlns="http://www.w3.org/2000/svg" viewBox="0 0 14 14"><path d="M11.608 11.375H2.392a.417.417 0 0 0-.409.408v.03a1.307 1.307 0 0 0 1.313 1.312h7.437a1.307 1.307 0 0 0 1.313-1.313v-.029a.468.468 0 0 0-.438-.408ZM12.688 2.392a1.307 1.307 0 0 0-1.313 1.312 1.246 1.246 0 0 0 .467.992 2.347 2.347 0 0 1-2.217 1.4 2.275 2.275 0 0 1-2.158-2.159 3.35 3.35 0 0 1 .029-.554 1.301 1.301 0 0 0 .846-1.225A1.346 1.346 0 0 0 7 .875a1.307 1.307 0 0 0-1.313 1.313 1.35 1.35 0 0 0 .817 1.224 1.705 1.705 0 0 1 .059.555 2.275 2.275 0 0 1-2.159 2.158 2.344 2.344 0 0 1-2.246-1.4 1.29 1.29 0 0 0 .467-.992 1.313 1.313 0 1 0-1.313 1.313l.613 4.667a.409.409 0 0 0 .408.35h9.334a.409.409 0 0 0 .408-.35l.613-4.667A1.307 1.307 0 0 0 14 3.733a1.332 1.332 0 0 0-1.313-1.341Z"/></svg>