<svg data-tags="salesforce" xmlns="http://www.w3.org/2000/svg" viewBox="0 0 14 14"><path d="m13.723 9.836-.84-.397a.401.401 0 0 0-.397 0l-5.018 2.38a1.039 1.039 0 0 1-.91 0L1.517 9.44a.401.401 0 0 0-.397 0l-.84.397a.473.473 0 0 0 0 .863l6.255 2.964a1.039 1.039 0 0 0 .91 0l6.254-2.964a.467.467 0 0 0 .024-.863Z"/><path d="m13.723 6.568-.864-.396a.4.4 0 0 0-.396 0l-4.995 2.38a1.039 1.039 0 0 1-.91 0L1.54 6.172a.4.4 0 0 0-.396 0l-.864.396a.473.473 0 0 0 0 .864l6.255 2.987a1.039 1.039 0 0 0 .91 0l6.254-2.964a.485.485 0 0 0 .024-.887Z"/><path d="m.28 4.164 6.255 2.964a1.039 1.039 0 0 0 .91 0l6.254-2.964a.473.473 0 0 0 0-.863L7.445.337a1.039 1.039 0 0 0-.91 0L.28 3.324a.455.455 0 0 0 0 .84Z"/></svg>