<svg data-tags="document,channel,page,content" xmlns="http://www.w3.org/2000/svg" viewBox="0 0 14 14"><circle cx="7" cy="7" r="7" fill="#5aa1ed"/><path d="M10.487 4.946L8.647 3.21A.759.759 0 008.126 3H4.042a.818.818 0 00-.789.843v6.314a.818.818 0 00.789.843h5.923a.818.818 0 00.789-.842v-4.58a.87.87 0 00-.267-.632zm-5.453.42h1.643a.341.341 0 010 .68H5.034a.341.341 0 010-.68zM8.32 9.264H5.034a.341.341 0 010-.68H8.32a.341.341 0 010 .68zm0-1.622H5.034a.341.341 0 010-.681H8.32a.341.341 0 010 .68z" fill="#fff"/></svg>