<svg data-tags="text,refresh,reword,rewrite,restate,reset text" xmlns="http://www.w3.org/2000/svg" viewBox="0 0 14 14"><path d="M12.9 8.84a.88.88 0 0 0-.38-.1.85.85 0 0 0-.77.47 5.24 5.24 0 0 1-5.86 2.9 1.72 1.72 0 0 1 .43 1.14 1.74 1.74 0 0 1-.15.7A6.97 6.97 0 0 0 13.31 10a.88.88 0 0 0-.4-1.17ZM.76 10l-.09-.02a6.98 6.98 0 0 0 1.35 1.93l.08-.08V9.37a1.76 1.76 0 0 1-1 .6 1.62 1.62 0 0 1-.34.03ZM13.12 1.24a.88.88 0 0 0-.61.25l-.56.57A6.99 6.99 0 0 0 .08 5.98a3.27 3.27 0 0 1 1.96-.67h.03a5.16 5.16 0 0 1 .18-.53 5.24 5.24 0 0 1 4.76-3.03 5.17 5.17 0 0 1 3.69 1.56L9.38 4.63a.87.87 0 0 0 .6 1.5h3.15a.88.88 0 0 0 .87-.88V2.11a.88.88 0 0 0-.88-.87Z"/><path d="M6.2 8.1a.76.76 0 0 0 .61.89.78.78 0 0 0 .14 0 .75.75 0 0 0 .74-.62A1.74 1.74 0 0 0 7.32 7a2.3 2.3 0 0 0-1.66-.7 1.66 1.66 0 0 0-.18 0H2.05a2.31 2.31 0 0 0-1.67.72 1.74 1.74 0 0 0-.36 1.36.76.76 0 0 0 .74.6.65.65 0 0 0 .14 0 .75.75 0 0 0 .6-.76h.01V8.01a.96.96 0 0 1 .58-.2H3.1v4.68a.75.75 0 0 0 .04 1.5h1.43a.75.75 0 0 0 .04-1.5V7.82h.89a.8.8 0 0 1 .1 0 .99.99 0 0 1 .56.16.2.2 0 0 1 .04.13Z"/></svg>
