<svg data-deprecated="solid/Paraphrase.svg" data-tags="sprinklr,Ai" xmlns="http://www.w3.org/2000/svg"
     viewBox="0 0 14 14"><defs><linearGradient
        id="solid_paraphraseAi_clr__a" x1="10.063" y1="-152.891" x2=".289" y2="-163.481" gradientTransform="matrix(1 0 0 -1 0 -149.213)" gradientUnits="userSpaceOnUse"><stop offset="0" stop-color="#de46e1"/><stop offset=".487" stop-color="#8e43ff"/><stop offset="1" stop-color="#0e61f6"/></linearGradient></defs><path d="M13.124 1.235a.877.877 0 0 0-.617.254l-.56.569A6.99 6.99 0 0 0 .08 5.978a3.27 3.27 0 0 1 1.964-.673l.024.001a5.156 5.156 0 0 1 .185-.528 5.243 5.243 0 0 1 4.754-3.026 5.173 5.173 0 0 1 3.69 1.556l-1.32 1.32a.875.875 0 0 0 .612 1.496h3.139a.877.877 0 0 0 .874-.874V2.11a.877.877 0 0 0-.878-.875Zm-.6 7.512a.876.876 0 0 1 .788 1.26 6.974 6.974 0 0 1-7.137 3.936 1.741 1.741 0 0 0 .146-.697 1.716 1.716 0 0 0-.431-1.137 5.238 5.238 0 0 0 5.865-2.898.85.85 0 0 1 .77-.464ZM.714 9.987a.183.183 0 0 0 .046.009 1.617 1.617 0 0 0 .339-.034 1.755 1.755 0 0 0 1-.594v2.464a.399.399 0 0 0-.047.043.522.522 0 0 1-.035.033A6.978 6.978 0 0 1 .673 9.98a.205.205 0 0 1 .04.008Zm5.612-1.315a.755.755 0 0 1-.123-.564.193.193 0 0 0-.044-.129.988.988 0 0 0-.55-.166.807.807 0 0 0-.108.007h-.895v4.678a.75.75 0 0 1-.037 1.5H3.137a.753.753 0 0 1-.038-1.504V7.82h-.871a1.605 1.605 0 0 0-.134-.008.955.955 0 0 0-.585.202c.002.001.001.012 0 .028a.386.386 0 0 0-.004.086l.01.095-.008.01a.753.753 0 0 1-.605.749.655.655 0 0 1-.142.013.755.755 0 0 1-.74-.608 1.743 1.743 0 0 1 .357-1.36 2.31 2.31 0 0 1 1.667-.722c.067 0 .134.003.202.009h3.231a1.664 1.664 0 0 1 .184-.01 2.296 2.296 0 0 1 1.656.71 1.743 1.743 0 0 1 .37 1.354.755.755 0 0 1-.742.628.785.785 0 0 1-.134-.012.755.755 0 0 1-.485-.312Z" fill-rule="evenodd" fill="url(#solid_paraphraseAi_clr__a)"/></svg>
