<svg data-tags="previous order,order history,activity history" xmlns="http://www.w3.org/2000/svg" viewBox="0 0 14 14"><path d="M6.603 12.853l-.003-.057a1.195 1.195 0 01-.65-.342l-1.064-1.069a1.204 1.204 0 01.638-2.036 4.497 4.497 0 014.35-3.468l.117.002a4.403 4.403 0 012.531.909V2.421a1.048 1.048 0 00-1.08-1.04h-3.14a1.862 1.862 0 00-3.58 0h-3.15a1.18 1.18 0 00-.42.04 1.073 1.073 0 00-.65 1v10.4a1.11 1.11 0 001.08 1.12h5.675c-.042-.031-.088-.054-.129-.086a1.37 1.37 0 01-.525-1.002zM6.509 1.081a.69.69 0 11-.69.69.69.69 0 01.69-.69z"/><path d="M9.976 6.72l-.102-.002a3.65 3.65 0 00-3.623 3.449h-.513a.367.367 0 00-.26.628l1.069 1.072a.367.367 0 00.262.11.372.372 0 00.263-.11l1.067-1.072a.36.36 0 00.08-.402.366.366 0 00-.343-.226h-.502a2.513 2.513 0 012.534-2.328 2.55 2.55 0 012.468 2.468 2.497 2.497 0 01-4.034 2.011.557.557 0 00-.346-.118.55.55 0 00-.394.164.563.563 0 00-.164.437.545.545 0 00.209.398 3.552 3.552 0 002.225.77 3.629 3.629 0 003.624-3.73 3.664 3.664 0 00-3.52-3.52z"/><path d="M9.776 8.634a.464.464 0 00-.464.464v1.41a.569.569 0 00.274.484l1.197.71a.474.474 0 00.235.062.465.465 0 00.236-.866l-1.013-.555V9.096a.468.468 0 00-.465-.462z"/></svg>