<svg data-tags="lock,no data stored,PCI,secured,security,private" xmlns="http://www.w3.org/2000/svg" viewBox="0 0 14 14"><path d="M11.121 4.792h-1.084V3.175a3.175 3.175 0 10-6.35 0v1.617H2.88A1.483 1.483 0 001.4 6.27v6.251A1.483 1.483 0 002.879 14h8.242a1.483 1.483 0 001.479-1.479v-6.25a1.483 1.483 0 00-1.479-1.48zM5.077 3.175a1.785 1.785 0 113.57 0v1.617h-3.57zm.429 6.3a1.325 1.325 0 01-.867.247h-.431v.711a.473.473 0 01-.109.331.39.39 0 01-.565.001.475.475 0 01-.106-.328V8.23a.456.456 0 01.12-.346.49.49 0 01.347-.109h.744a1.998 1.998 0 01.536.055.848.848 0 01.342.182.828.828 0 01.22.316 1.082 1.082 0 01.074.406.916.916 0 01-.305.74zm3.39.694a1.148 1.148 0 01-.231.341 1.178 1.178 0 01-.403.273 1.425 1.425 0 01-.563.103 1.957 1.957 0 01-.434-.045 1.244 1.244 0 01-.366-.145 1.27 1.27 0 01-.303-.26 1.518 1.518 0 01-.207-.324 1.619 1.619 0 01-.128-.379 2.049 2.049 0 01-.043-.423 1.882 1.882 0 01.107-.653 1.433 1.433 0 01.31-.503 1.349 1.349 0 01.475-.32 1.532 1.532 0 01.574-.108 1.44 1.44 0 01.665.15 1.235 1.235 0 01.451.374.772.772 0 01.164.443.348.348 0 01-.098.243.322.322 0 01-.243.109.329.329 0 01-.236-.08.81.81 0 01-.143-.207.777.777 0 00-.235-.284.563.563 0 00-.321-.088.589.589 0 00-.491.234 1.138 1.138 0 00-.19.71 1.34 1.34 0 00.086.516.609.609 0 00.227.287.638.638 0 00.348.093.605.605 0 00.364-.105.654.654 0 00.226-.318.712.712 0 01.106-.21.302.302 0 01.255-.11.35.35 0 01.352.35.872.872 0 01-.075.336zm1.4.264a.476.476 0 01-.107.333.375.375 0 01-.286.12.368.368 0 01-.28-.12.482.482 0 01-.107-.333V8.177a.474.474 0 01.107-.33.365.365 0 01.28-.12.38.38 0 01.285.117.474.474 0 01.108.333z"/><path d="M4.498 8.41h-.29v.676h.29a1.091 1.091 0 00.314-.04.296.296 0 00.159-.103.33.33 0 00.052-.197.334.334 0 00-.084-.24c-.034-.035-.138-.096-.44-.096z"/></svg>