<svg data-tags="asset" xmlns="http://www.w3.org/2000/svg" viewBox="0 0 14 14"><path d="M3.955 5.535h-.433v.94h.433a1.338 1.338 0 00.38-.045.405.405 0 00.312-.426.459.459 0 00-.124-.332.835.835 0 00-.568-.137zm3.451.088a1.761 1.761 0 00-.502-.062H6.48V7.65h.487a3 3 0 00.251-.009.78.78 0 00.188-.042.51.51 0 00.169-.094 1.12 1.12 0 00.322-.912 1.305 1.305 0 00-.142-.682.625.625 0 00-.35-.288z"/><path d="M12.063 0H1.937a1.5 1.5 0 00-1.5 1.5v11a1.5 1.5 0 001.5 1.5h10.126a1.5 1.5 0 001.5-1.5v-11a1.5 1.5 0 00-1.5-1.5zM5 6.704a1.39 1.39 0 01-.89.242h-.588v.872a.4.4 0 01-.09.283.3.3 0 01-.23.097.305.305 0 01-.234-.096.401.401 0 01-.089-.28V5.449a.382.382 0 01.098-.294.45.45 0 01.31-.088h.823a2.208 2.208 0 01.562.055.843.843 0 01.336.174.782.782 0 01.216.298 1.023 1.023 0 01.073.397.867.867 0 01-.297.713zm3.499.4a1.463 1.463 0 01-.155.412 1.285 1.285 0 01-.265.329 1.096 1.096 0 01-.28.179 1.293 1.293 0 01-.325.094 2.57 2.57 0 01-.392.027h-.837a.535.535 0 01-.264-.051.242.242 0 01-.116-.145.918.918 0 01-.027-.243V5.45a.391.391 0 01.093-.292.42.42 0 01.3-.09h.838a2.295 2.295 0 01.56.06 1.033 1.033 0 01.423.22 1.535 1.535 0 01.496 1.25 2.382 2.382 0 01-.05.507zm2.736-1.622a.335.335 0 01-.229.066H9.742v.787h1.057a.32.32 0 01.22.065.234.234 0 01-.002.34.326.326 0 01-.218.063H9.742v1.014a.401.401 0 01-.09.287.331.331 0 01-.463 0 .402.402 0 01-.09-.287V5.45a.508.508 0 01.041-.22.25.25 0 01.129-.123.555.555 0 01.224-.039h1.513a.335.335 0 01.229.066.22.22 0 01.074.173.222.222 0 01-.074.176z"/></svg>