<svg xmlns="http://www.w3.org/2000/svg" viewBox="0 0 14 14"><path d="M13.1 3.4L9.88.38A1.33 1.33 0 008.96 0H1.82A1.43 1.43 0 00.44 1.48v11.05A1.43 1.43 0 001.82 14h10.36a1.43 1.43 0 001.38-1.47V4.5a1.52 1.52 0 00-.46-1.1z" fill="#c1272d"/><path d="M9.43 8.81a.3.3 0 00.23-.1.4.4 0 00.1-.28V7.42h1.05a.33.33 0 00.22-.07.23.23 0 000-.34.32.32 0 00-.22-.06H9.75v-.79h1.27a.34.34 0 00.23-.07.22.22 0 00.07-.17.22.22 0 00-.07-.17.34.34 0 00-.23-.07H9.5a.55.55 0 00-.22.04.25.25 0 00-.13.12.5.5 0 00-.04.22v2.37a.4.4 0 00.1.29.3.3 0 00.22.1zM6 8.7a.54.54 0 00.26.06h.83a2.57 2.57 0 00.4-.03 1.3 1.3 0 00.32-.1 1.1 1.1 0 00.28-.17 1.28 1.28 0 00.27-.33 1.46 1.46 0 00.15-.41 2.38 2.38 0 00.05-.5 1.53 1.53 0 00-.5-1.26 1.03 1.03 0 00-.42-.22 2.3 2.3 0 00-.56-.06h-.84a.42.42 0 00-.3.1.4.4 0 00-.09.28v2.26a.92.92 0 00.03.24.24.24 0 00.11.15zm.5-2.53h.42a1.76 1.76 0 01.5.07.63.63 0 01.35.28 1.3 1.3 0 01.14.69 1.12 1.12 0 01-.32.9.5.5 0 01-.17.1.78.78 0 01-.19.04 3 3 0 01-.25.01h-.49zM3.21 8.81a.3.3 0 00.23-.1.4.4 0 00.1-.28v-.87h.58a1.39 1.39 0 00.9-.24.87.87 0 00.29-.72 1.02 1.02 0 00-.07-.4.78.78 0 00-.22-.3.84.84 0 00-.34-.17 2.2 2.2 0 00-.56-.05H3.3a.45.45 0 00-.31.09.38.38 0 00-.1.3v2.37a.4.4 0 00.09.28.3.3 0 00.23.1zm.32-2.66h.44a.84.84 0 01.57.14.46.46 0 01.12.33.4.4 0 01-.31.42 1.34 1.34 0 01-.38.05h-.44z" fill="#fff"/></svg>