<svg data-tags="percentage" xmlns="http://www.w3.org/2000/svg" viewBox="0 0 14 14"><path d="M9.406 7.773a.382.382 0 0 0-.338.176 1.853 1.853 0 0 0-.16.938 1.821 1.821 0 0 0 .16.934.408.408 0 0 0 .675.005 1.852 1.852 0 0 0 .162-.939 1.902 1.902 0 0 0-.157-.938.392.392 0 0 0-.342-.176Z"/><path d="M7 0a7 7 0 1 0 7 7 7 7 0 0 0-7-7ZM3.423 6.533A2.066 2.066 0 0 1 3 5.103a2.066 2.066 0 0 1 .423-1.428A1.473 1.473 0 0 1 4.57 3.21a1.508 1.508 0 0 1 1.17.462 2.067 2.067 0 0 1 .424 1.43A2.068 2.068 0 0 1 5.74 6.53a1.474 1.474 0 0 1-1.147.465 1.509 1.509 0 0 1-1.171-.462Zm2.272 4.157a.514.514 0 0 1-.46.283.507.507 0 0 1-.23-.056.514.514 0 0 1-.227-.69L8.28 3.31a.514.514 0 1 1 .918.464Zm4.882-.365a1.474 1.474 0 0 1-1.147.465 1.504 1.504 0 0 1-1.17-.465 2.076 2.076 0 0 1-.424-1.433 2.068 2.068 0 0 1 .423-1.427A1.486 1.486 0 0 1 9.416 7a1.492 1.492 0 0 1 1.161.465A2.067 2.067 0 0 1 11 8.892a2.076 2.076 0 0 1-.423 1.433Z"/><path d="M4.57 3.978a.389.389 0 0 0-.338.176 1.854 1.854 0 0 0-.161.939 1.852 1.852 0 0 0 .161.939.388.388 0 0 0 .338.176.393.393 0 0 0 .342-.176 1.9 1.9 0 0 0 .156-.94 1.87 1.87 0 0 0-.156-.933.39.39 0 0 0-.342-.181Z"/></svg>