<svg data-deprecated="solid/Persona.svg" data-tags="sprinklr,Ai" xmlns="http://www.w3.org/2000/svg"
     viewBox="0 0 14 14"><defs><linearGradient
        id="solid_personaAi_clr__a" x1="10.077" y1="4.183" x2=".678" y2="13.583" gradientUnits="userSpaceOnUse"><stop offset="0" stop-color="#de46e1"/><stop offset=".487" stop-color="#8e43ff"/><stop offset="1" stop-color="#0e61f6"/></linearGradient></defs><path d="M11.591 0H2.41a1.311 1.311 0 0 0-1.313 1.312v9.183a1.311 1.311 0 0 0 1.312 1.312h9.182a1.315 1.315 0 0 0 1.312-1.312V1.312A1.315 1.315 0 0 0 11.591 0ZM7 1.968a1.966 1.966 0 0 1 1.968 1.968h-.001A1.968 1.968 0 1 1 7 1.968Zm3.936 7.871H3.064v-.656h.001C3.064 7.871 5.336 7.15 7 7.15c1.703 0 3.936.721 3.936 2.033ZM12.505 14H1.495a.366.366 0 0 1-.365-.366v-.464a.366.366 0 0 1 .365-.366h11.01a.366.366 0 0 1 .365.366v.464a.366.366 0 0 1-.365.366Z" fill="url(#solid_personaAi_clr__a)"/></svg>
