<svg data-tags="psd" xmlns="http://www.w3.org/2000/svg" viewBox="0 0 14 14"><g fill="#004FB7"><path d="M5.467 6.054h-.551v1.201h.532c.378 0 .564-.253.564-.607 0-.353-.186-.594-.545-.594z"/><path d="M13.096 3.406L9.876.367A1.328 1.328 0 0 0 8.964 0H1.817c-.76 0-1.38.661-1.38 1.475v11.05c0 .814.62 1.475 1.38 1.475h10.366c.761 0 1.38-.661 1.38-1.474V4.512c0-.423-.17-.825-.467-1.106zM5.67 8.185h-.755v1.369H3.83v-4.43h1.84c.861 0 1.444.632 1.444 1.524S6.532 8.185 5.67 8.185zm2.996 1.443c-.799 0-1.276-.47-1.276-.47l.459-.72s.353.323.811.323c.161 0 .316-.044.316-.149 0-.279-1.493-.31-1.493-1.35 0-.602.576-.973 1.314-.973.743 0 1.121.365 1.121.365l-.366.762s-.31-.26-.755-.26c-.161 0-.316.044-.316.155 0 .241 1.493.28 1.493 1.307 0 .546-.483 1.01-1.308 1.01z"/></g></svg>
