<svg data-tags="tack" xmlns="http://www.w3.org/2000/svg" viewBox="0 0 14 14"><path d="M.075 12.737a.252.252 0 00-.003.352l.799.834.002.002a.252.252 0 00.356.002l1.88-1.843-1.196-1.196zM13.787 4.775l-2.283-2.282L9.224.216a.724.724 0 00-.516-.214V0a.724.724 0 00-.726.721v.001H7.98l-.012 1.143L3.8 6.032l-3.028.022v.004a.723.723 0 00-.556 1.236L3.46 10.54l3.245 3.246a.723.723 0 001.022.007l.003-.003a.724.724 0 00.213-.561h.002l.021-3.03 4.168-4.166 1.141-.011.003-.005a.726.726 0 00.508-1.24z"/></svg>
