<svg data-tags="point,arrow,right" xmlns="http://www.w3.org/2000/svg" viewBox="0 0 14 14"><path d="M13.98729,6.87192a.8799.8799,0,0,0-.20385-.47137c-.02548-.02555-.03826-.05092-.06368-.07646L11.09542,3.585A.96965.96965,0,0,0,9.7195,3.54688a.95169.95169,0,0,0-.29308.72613c0,.01272-.01265.01272-.01265.02543V6.1H.906a.906.906,0,0,0,0,1.812H9.41377V9.71281c0,.01278.01265.02549.01265.03827a.9245.9245,0,0,0,.29308.70064.98084.98084,0,0,0,1.37592-.02549l2.637-2.75171V7.66174A.96426.96426,0,0,0,14,7.0757,1.09748,1.09748,0,0,0,13.98729,6.87192Z"/></svg>
