<svg data-tags="premiere pro,prproj,asset" xmlns="http://www.w3.org/2000/svg" viewBox="0 0 14 14"><path d="M5.934 5.648a1.27 1.27 0 00-.51-.087c-.113 0-.213 0-.295.004a.99.99 0 00-.177.005v1.454c.06.004.117.008.168.008h.23a1.618 1.618 0 00.497-.078.744.744 0 00.355-.23.668.668 0 00.134-.445.712.712 0 00-.1-.385.627.627 0 00-.302-.246z"/><path d="M12.053 0H1.927a1.5 1.5 0 00-1.5 1.5v11a1.5 1.5 0 001.5 1.5h10.126a1.5 1.5 0 001.5-1.5v-11a1.5 1.5 0 00-1.5-1.5zM7.02 7.175a1.483 1.483 0 01-.697.528 2.804 2.804 0 01-.973.147c-.104 0-.173 0-.217-.004s-.103-.005-.186-.005v1.39a.054.054 0 01-.047.06h-.84c-.034 0-.052-.017-.052-.056V4.782c0-.03.013-.047.044-.047.073 0 .143 0 .242-.005.104-.004.212-.004.329-.008s.242-.005.376-.01c.134-.003.264-.003.394-.003a2.544 2.544 0 01.891.134 1.545 1.545 0 01.58.355 1.378 1.378 0 01.316.493 1.656 1.656 0 01.1.562 1.547 1.547 0 01-.26.922zm2.951-.52c0 .035-.022.048-.07.048a1.882 1.882 0 00-.467.044 1.778 1.778 0 00-.363.116.673.673 0 00-.22.16V9.23c0 .044-.018.06-.057.06h-.852a.06.06 0 01-.07-.051V6.824c0-.103 0-.212-.004-.324s-.004-.225-.009-.338a3.24 3.24 0 00-.017-.294.04.04 0 01.03-.047c0-.005.01-.005.013 0h.758a.097.097 0 01.09.069.439.439 0 01.026.108 1.44 1.44 0 01.03.29 1.612 1.612 0 01.464-.372 1.341 1.341 0 01.657-.169.054.054 0 01.061.048z"/></svg>