<svg data-tags="priority,importance,arrow,medium" xmlns="http://www.w3.org/2000/svg" viewBox="0 0 14 14"><path fill="#eec202" d="M13.061 6.367L7.741.947 7.739.944 7.73.937 7.728.933A.983.983 0 007.63.869a1.025 1.025 0 00-.228-.153L7.39.713a1.013 1.013 0 00-.206-.042 1.043 1.043 0 00-.181-.035h-.008a1.047 1.047 0 00-.181.035 1.01 1.01 0 00-.206.042l-.011.004a1.025 1.025 0 00-.225.15.97.97 0 00-.1.066L6.27.937l-.008.007-.004.003-5.32 5.42a1.04 1.04 0 101.485 1.456L5.96 4.217v8.108a1.04 1.04 0 002.078 0V4.217l3.538 3.606a1.04 1.04 0 101.484-1.456z"/></svg>