<svg data-tags="priority,importance,arrow,low" xmlns="http://www.w3.org/2000/svg" viewBox="0 0 14 14"><path d="M7.022 11.779l4.616-2.77a.905.905 0 011.333.41c.205.514.205 1.129-.308 1.334L7.535 13.83a.932.932 0 01-1.025 0l-5.128-3.077a1.009 1.009 0 01-.308-1.436A1.009 1.009 0 012.51 9.01z" fill="#05ca3d"/><path d="M11.638 4.6a.953.953 0 011.333.307 1.129 1.129 0 01-.308 1.436L7.535 9.42a.932.932 0 01-1.025 0L1.382 6.343a1.009 1.009 0 01-.308-1.436A1.009 1.009 0 012.51 4.6l4.512 2.77z" fill="#05ca3d"/><path d="M11.638.19a.88.88 0 011.333.307 1.104 1.104 0 01-.308 1.436L7.535 5.01a.932.932 0 01-1.025 0L1.382 1.933A1.009 1.009 0 011.074.497 1.009 1.009 0 012.51.189l4.512 2.77z" fill="#05ca3d"/></svg>