<svg data-tags="priority,importance,arrow,high" xmlns="http://www.w3.org/2000/svg" viewBox="0 0 14 14"><path d="M6.978 2.221l-4.616 2.77a.905.905 0 01-1.333-.41c-.205-.514-.205-1.129.308-1.334L6.465.17a.932.932 0 011.025 0l5.128 3.077a1.009 1.009 0 01.308 1.436 1.009 1.009 0 01-1.436.307z" fill="#f78f25"/><path d="M2.362 9.4a.953.953 0 01-1.333-.307 1.129 1.129 0 01.308-1.436L6.465 4.58a.932.932 0 011.025 0l5.128 3.077a1.038 1.038 0 01-1.128 1.744L6.978 6.63z" fill="#f78f25"/><path d="M2.362 13.81a.88.88 0 01-1.333-.307 1.104 1.104 0 01.308-1.436L6.465 8.99a.932.932 0 011.025 0l5.128 3.077a1.038 1.038 0 01-1.128 1.744l-4.512-2.77z" fill="#f78f25"/></svg>