<svg data-deprecated="product/Product.svg" data-tags="sprinklr,Ai" xmlns="http://www.w3.org/2000/svg"
     viewBox="0 0 14 14"><defs><linearGradient
        id="solid_productAi_clr__a" x1="10.775" y1="-188.285" x2=".997" y2="-197.344" gradientTransform="matrix(1 0 0 -1 0 -183.36)" gradientUnits="userSpaceOnUse"><stop offset="0" stop-color="#de46e1"/><stop offset=".487" stop-color="#8e43ff"/><stop offset="1" stop-color="#0e61f6"/></linearGradient></defs><path d="M1.012 11.608A2.4 2.4 0 0 0 3.404 14h7.107a2.45 2.45 0 0 0 2.427-2.323l.05-6.626a1.381 1.381 0 0 0-1.384-1.374l-.973-.002a3.606 3.606 0 1 0-7.212-.013v.013h-.982a1.376 1.376 0 0 0-1.375 1.376Zm8.995-6.65a.59.59 0 1 1-.59.59.596.596 0 0 1 .59-.59Zm-2.982-3.64a2.286 2.286 0 0 1 2.288 2.288v.07H4.754v-.07a2.26 2.26 0 0 1 2.271-2.289Zm-2.982 3.64a.585.585 0 0 1 .59.59.596.596 0 0 1-.59.589.59.59 0 1 1 0-1.18Z" fill="url(#solid_productAi_clr__a)"/></svg>
