<svg data-tags="catalogue,analysis" xmlns="http://www.w3.org/2000/svg" viewBox="0 0 11.132 14"><path d="M11.128 2.507A1.456 1.456 0 009.609 1.27v.02A1.29 1.29 0 008.319 0H2.813a1.29 1.29 0 00-1.29 1.29v-.019l-.05.002A1.443 1.443 0 000 2.57V12.7l.004.097A1.498 1.498 0 001.592 14H9.54l.119-.004a1.444 1.444 0 001.473-1.297V2.606zM2.813.723H8.32a.567.567 0 010 1.135H2.813a.567.567 0 010-1.135zm1.273 9.762l-.006.065a.362.362 0 01-.356.297H2.278l-.065-.006a.362.362 0 01-.297-.356V9.04l.006-.065a.362.362 0 01.356-.297h1.446a.362.362 0 01.362.362zm0-3.616l-.006.065a.362.362 0 01-.356.297H2.278l-.065-.006a.362.362 0 01-.297-.356V5.423l.006-.065a.362.362 0 01.356-.296h1.446a.362.362 0 01.362.361zm4.7 3.254H5.893l-.065-.005a.362.362 0 01.065-.718h2.893a.362.362 0 110 .723zm0-3.615H5.893l-.065-.006a.362.362 0 01.065-.717h2.893a.362.362 0 110 .723z" fill-rule="evenodd" clip-rule="evenodd"/></svg>
