<svg data-tags="variants,product variants,variations,segment,copies" xmlns="http://www.w3.org/2000/svg" viewBox="0 0 14 14"><path d="M12.51 0H5a1.53 1.53 0 00-1.42.9h7.79a1.73 1.73 0 011.73 1.73v7.79A1.53 1.53 0 0014 9V1.49A1.49 1.49 0 0012.51 0z"/><path d="M10.78 1.72H3.25a1.53 1.53 0 00-1.39.9h7.79a1.73 1.73 0 011.73 1.73v7.79a1.53 1.53 0 00.9-1.39V3.21a1.49 1.49 0 00-1.5-1.49z"/><path d="M1.53 3.44h7.53a1.49 1.49 0 011.49 1.49v7.53A1.53 1.53 0 019 14H1.53A1.53 1.53 0 010 12.47V5a1.53 1.53 0 011.53-1.56z"/></svg>
