<svg xmlns="http://www.w3.org/2000/svg" id="solid_profileList__Layer_1" data-name="Layer 1" data-tags="profile,user,mulitple,set,users,list" viewBox="0 0 14 14"><defs><filter id="solid_profileList__drop-shadow-1" filterUnits="userSpaceOnUse"><feOffset/><feGaussianBlur result="blur" stdDeviation="5"/><feFlood flood-color="#000" flood-opacity=".15"/><feComposite in2="blur" operator="in"/><feComposite in="SourceGraphic"/></filter></defs><path d="M12.722 2.536h-.01l.018.151v7.976c0 .55-.216 1.078-.601 1.467s-.908.607-1.453.607h-7.9l-.044-.009c.037.328.193.63.437.848.244.219.56.338.886.336h6.956a2.956 2.956 0 0 0 2.116-.88A3.01 3.01 0 0 0 14 10.894V3.862c0-.721-.573-1.3-1.278-1.326Z"/><path d="M10.717 11.825a1.85 1.85 0 0 0 1.151-1.709V1.927c0-1.009-.83-1.84-1.84-1.84H1.71c-.453 0-.856.204-1.137.52C.544.633.512.653.487.68c-.155.166-.273.356-.356.57S0 1.7 0 1.927v8.189c0 1.009.83 1.84 1.84 1.84h8.188c.226 0 .463-.048.689-.131ZM5.934 1.575a2.11 2.11 0 0 1 2.108 2.107c0 1.163-.946 2.108-2.108 2.108s-2.108-.945-2.108-2.108a2.11 2.11 0 0 1 2.108-2.108Zm-4.246 8.894C1.833 8.326 3.675 6.63 5.934 6.63s4.1 1.695 4.246 3.838H1.688Z"/></svg>
