<svg xmlns="http://www.w3.org/2000/svg" data-name="Layer 1" data-tags="profile,sparkle,user,enrichment,special,custom" viewBox="0 0 14 14"><path d="M11.83 0H2.016C1.482 0 1.006.24.674.612.642.643.604.667.574.7c-.182.196-.322.42-.42.672A2.245 2.245 0 0 0 0 2.17v9.66C0 13.02.98 14 2.17 14h9.66c.266 0 .546-.056.812-.154A2.182 2.182 0 0 0 14 11.83V2.17C14 .98 13.02 0 11.83 0ZM9.335 1.687l.414-.182.181-.413c.052-.114.114-.17.187-.17.074 0 .136.056.187.17l.182.413.413.182c.114.051.17.113.17.187 0 .073-.056.135-.17.187l-.413.181-.182.414c-.051.113-.113.17-.187.17-.073 0-.135-.057-.187-.17l-.181-.414-.414-.181c-.113-.052-.17-.114-.17-.187 0-.074.057-.136.17-.187Zm-2.422.704a2.442 2.442 0 0 1 2.444 2.435c0 1.342-1.097 2.434-2.444 2.434S4.47 6.168 4.47 4.826A2.442 2.442 0 0 1 6.913 2.39ZM1.991 12.664c.169-2.475 2.303-4.432 4.922-4.432s4.754 1.957 4.922 4.432H1.991Zm11.093-8.085-.699.314-.314.699c-.08.191-.171.287-.274.287s-.193-.096-.274-.287l-.313-.699-.699-.314c-.187-.08-.28-.168-.28-.265s.093-.191.28-.282l.699-.308.313-.705c.08-.176.171-.263.271-.263s.193.087.277.263l.314.705.699.308c.176.08.263.174.263.282s-.087.196-.263.265Z"/></svg>
