<svg data-tags="salesforce" xmlns="http://www.w3.org/2000/svg" viewBox="0 0 14 14"><path d="M1.354 9.464H.304A.309.309 0 0 0 0 9.767v3.757a.309.309 0 0 0 .303.304h.514a.837.837 0 0 0 .84-.84V9.79a.3.3 0 0 0-.303-.326ZM13.98 11.517a1.24 1.24 0 0 0-.911-.817 1.674 1.674 0 0 0-.677.14c-.84.304-1.68.584-2.52.887a6.822 6.822 0 0 1-1.68.42c-.397.024-.794 0-1.19 0a.393.393 0 0 1-.398-.396.38.38 0 0 1 .397-.397h2.124a.702.702 0 0 0 .7-.7.718.718 0 0 0-.7-.7H7.49a2.653 2.653 0 0 1-.793-.14 1.51 1.51 0 0 0-.7-.14h-2.87a.627.627 0 0 0-.63.63v2.637a.625.625 0 0 0 .536.607h.07a9.514 9.514 0 0 1 1.61.21 7.408 7.408 0 0 0 1.61.186 7.968 7.968 0 0 0 2.1-.256c.678-.187 1.331-.444 1.984-.654 1.12-.373 2.264-.77 3.384-1.143.14-.07.257-.187.187-.374Z"/><path d="M8.868 4.68v3.5a.158.158 0 0 0 .21.14c.677-.397 2.777-1.564 2.777-1.564a.873.873 0 0 0 .444-.77v-3.15a.158.158 0 0 0-.21-.14l-3.08 1.727a.406.406 0 0 0-.14.256M8.588 3.723l3.08-1.727a.132.132 0 0 0 0-.234c-.676-.397-2.8-1.587-2.8-1.587a.864.864 0 0 0-.887 0l-2.8 1.587a.132.132 0 0 0 0 .234l3.127 1.727a.297.297 0 0 0 .28 0M7.865 4.446l-3.08-1.727a.148.148 0 0 0-.21.14v3.127a.9.9 0 0 0 .443.77s2.1 1.19 2.777 1.564a.148.148 0 0 0 .21-.14v-3.5a.257.257 0 0 0-.14-.234" fill-rule="evenodd"/></svg>