<svg data-tags="planner,publisher console,calendar,editorial calendar" xmlns="http://www.w3.org/2000/svg" viewBox="0 0 18 18"><path d="M15.11 2.25h.44A2.45 2.45 0 0118 4.7v10.86A2.45 2.45 0 0115.55 18H2.45A2.45 2.45 0 010 15.56V4.7a2.45 2.45 0 012.45-2.45h.44V1.12a1.12 1.12 0 012.24 0v1.13h2.75V1.12a1.12 1.12 0 012.24 0v1.13h2.75V1.12a1.12 1.12 0 012.24 0zM2.45 16.37h13.1a.81.81 0 00.82-.81V7.28H1.63v8.28a.81.81 0 00.82.81zM5.9 8.91H3.65a.33.33 0 00-.33.32v1.44a.33.33 0 00.33.32H5.9a.33.33 0 00.32-.32V9.23a.33.33 0 00-.32-.32zm1.95 0h2.28a.33.33 0 01.32.32v1.44a.33.33 0 01-.32.32H7.86a.33.33 0 01-.32-.32V9.23a.33.33 0 01.32-.32zm6.51 0H12.1a.33.33 0 00-.32.32v1.44a.33.33 0 00.32.32h2.26a.33.33 0 00.33-.32V9.23a.3.3 0 00-.3-.32zM3.65 12.64H5.9a.33.33 0 01.32.32v1.44a.33.33 0 01-.32.32H3.65a.33.33 0 01-.33-.32v-1.44a.33.33 0 01.33-.32zm6.49 0H7.86a.33.33 0 00-.32.32v1.44a.33.33 0 00.32.32h2.28a.33.33 0 00.32-.32v-1.44a.33.33 0 00-.32-.32zm1.95 0h2.28a.3.3 0 01.3.32v1.44a.33.33 0 01-.32.32H12.1a.33.33 0 01-.32-.32v-1.44a.33.33 0 01.32-.32z" fill-rule="evenodd"/></svg>