<svg data-tags="qr code,scan,code,barcode" data-name="Layer 1" xmlns="http://www.w3.org/2000/svg" viewBox="0 0 14 14"><path d="M9.333 14H7.778v-1.556h1.555V14ZM7.778 8.556H6.222v3.888h1.556V8.556ZM14 7h-1.556v3.111H14V7Zm-1.556-1.556H10.89V7h1.555V5.444ZM3.111 7H1.556v1.556H3.11V7ZM1.556 5.444H0V7h1.556V5.444ZM7 1.556h1.556V0H7v1.556Zm-5.833-.39V3.5H3.5V1.167H1.167Zm2.722 3.5H.778A.78.78 0 0 1 0 3.89V.778A.78.78 0 0 1 .778 0h3.11a.78.78 0 0 1 .779.778v3.11a.78.78 0 0 1-.778.779ZM1.167 10.5v2.333H3.5V10.5H1.167ZM3.889 14H.778A.78.78 0 0 1 0 13.222v-3.11a.78.78 0 0 1 .778-.779h3.11a.78.78 0 0 1 .779.778v3.111a.78.78 0 0 1-.778.778ZM10.5 1.167V3.5h2.333V1.167H10.5Zm2.722 3.5h-3.11a.78.78 0 0 1-.779-.778V.778A.78.78 0 0 1 10.111 0h3.111A.78.78 0 0 1 14 .778v3.11a.78.78 0 0 1-.778.779Zm-.778 7.777v-2.333h-3.11v1.556h1.555V14H14v-1.556h-1.556ZM10.89 7H7.778v1.556h3.11V7ZM7.778 5.444H3.11V7h1.556v1.556h1.555V7h1.556V5.444Zm.778-.777V3.11H7V1.556H5.444v3.11h3.112ZM2.916 1.75H1.75v1.167h1.167V1.75Zm0 9.333H1.75v1.167h1.167v-1.167ZM12.25 1.75h-1.167v1.167h1.167V1.75Z" /></svg>
