<svg data-tags="asset" xmlns="http://www.w3.org/2000/svg" viewBox="0 0 14 14"><g fill-rule="evenodd" clip-rule="evenodd"><path d="M8.227 6.375h5.164a.6.6 0 00.6-.6V.612a.6.6 0 00-.6-.6H8.227a.6.6 0 00-.6.6v5.163a.6.6 0 00.6.6zm.672-4.491a.6.6 0 01.6-.6h2.62a.6.6 0 01.6.6v2.62a.6.6 0 01-.6.6h-2.62a.6.6 0 01-.6-.6v-2.62zM.39 6.375h5.565a.4.4 0 00.4-.4V.612a.6.6 0 00-.6-.6H.39a.4.4 0 00-.4.4v5.563a.4.4 0 00.4.4zm.873-4.691a.4.4 0 01.4-.4h3.02a.4.4 0 01.4.4v3.02a.4.4 0 01-.4.4h-3.02a.4.4 0 01-.4-.4v-3.02zm4.501 5.952H.6a.6.6 0 00-.6.6V13.4a.6.6 0 00.6.6h5.164a.6.6 0 00.6-.6V8.236a.6.6 0 00-.6-.6zm-.672 4.48a.6.6 0 01-.6.6h-2.62a.6.6 0 01-.6-.6V9.508a.6.6 0 01.6-.6h2.62a.6.6 0 01.6.6v2.608z"/><path d="M10.149 4.451h1.318a.6.6 0 00.6-.6V2.533a.6.6 0 00-.6-.6h-1.318a.6.6 0 00-.6.6v1.318a.6.6 0 00.6.6zM13.4 7.636H8.236a.6.6 0 00-.6.6V13.4a.6.6 0 00.6.6H13.4a.6.6 0 00.6-.6V8.236a.6.6 0 00-.6-.6zm-.672 4.492a.6.6 0 01-.6.6h-2.62a.6.6 0 01-.6-.6v-2.62a.6.6 0 01.6-.6h2.62a.6.6 0 01.6.6v2.62z"/><path d="M11.467 9.57h-1.318a.6.6 0 00-.6.6v1.317a.6.6 0 00.6.6h1.318a.6.6 0 00.6-.6V10.17a.6.6 0 00-.6-.6zm-7.637 0H2.513a.6.6 0 00-.6.6v1.317a.6.6 0 00.6.6h1.319a.6.6 0 00.6-.6V10.17a.6.6 0 00-.6-.6zM2.512 4.451h1.319a.6.6 0 00.6-.6V2.533a.6.6 0 00-.6-.6H2.512a.6.6 0 00-.6.6v1.318a.6.6 0 00.6.6z"/></g></svg>