<svg data-tags="rar,asset" xmlns="http://www.w3.org/2000/svg" viewBox="0 0 14 14"><path d="M4.625 6.318a.39.39 0 00-.063-.22.383.383 0 00-.177-.142 1.252 1.252 0 00-.42-.046h-.563v.827h.546a1.52 1.52 0 00.37-.038.436.436 0 00.228-.129.373.373 0 00.079-.252zm1.911.966h.899l-.454-1.24-.445 1.24z"/><path d="M12.064 0H1.938a1.5 1.5 0 00-1.5 1.5v11a1.5 1.5 0 001.5 1.5h10.126a1.5 1.5 0 001.5-1.5v-11a1.5 1.5 0 00-1.5-1.5zM5.258 8.384a.265.265 0 01-.104.093.329.329 0 01-.151.033.296.296 0 01-.173-.047.476.476 0 01-.12-.122 4.372 4.372 0 01-.136-.218l-.244-.406a2.235 2.235 0 00-.235-.34.577.577 0 00-.21-.16.733.733 0 00-.269-.043h-.214v.965a.4.4 0 01-.084.282.286.286 0 01-.218.09.279.279 0 01-.226-.094.418.418 0 01-.08-.278V5.826a.394.394 0 01.088-.285.393.393 0 01.285-.088h.99a2.977 2.977 0 01.35.017.894.894 0 01.264.07.755.755 0 01.25.172.72.72 0 01.165.256.847.847 0 01.056.311.755.755 0 01-.19.538 1.098 1.098 0 01-.574.285 1.105 1.105 0 01.31.254 2.594 2.594 0 01.263.358 2.709 2.709 0 01.18.342.676.676 0 01.065.21.214.214 0 01-.038.118zm3.047.04a.287.287 0 01-.21.086.28.28 0 01-.123-.025.26.26 0 01-.086-.07.628.628 0 01-.075-.135 4.563 4.563 0 01-.069-.161L7.6 7.742H6.376l-.144.386a1.286 1.286 0 01-.143.303.227.227 0 01-.194.08.282.282 0 01-.204-.085.257.257 0 01-.088-.19.42.42 0 01.02-.127c.014-.044.037-.104.068-.183l.769-1.952.08-.202a1.016 1.016 0 01.098-.196.407.407 0 01.137-.126.417.417 0 01.21-.048.423.423 0 01.212.048.412.412 0 01.138.124.846.846 0 01.088.163l.092.232.785 1.94a.968.968 0 01.092.323.263.263 0 01-.087.192zm2.994-.04a.265.265 0 01-.104.093.329.329 0 01-.151.033.296.296 0 01-.173-.047.476.476 0 01-.12-.122 4.37 4.37 0 01-.136-.218l-.244-.406a2.234 2.234 0 00-.235-.34.577.577 0 00-.21-.16.733.733 0 00-.269-.043h-.214v.965a.4.4 0 01-.084.282.286.286 0 01-.218.09.279.279 0 01-.226-.094.418.418 0 01-.08-.278V5.826a.32.32 0 01.373-.373h.99a2.977 2.977 0 01.35.017.894.894 0 01.264.07.755.755 0 01.25.172.72.72 0 01.165.256.847.847 0 01.056.311.755.755 0 01-.19.538 1.098 1.098 0 01-.575.285 1.105 1.105 0 01.31.254 2.593 2.593 0 01.264.358 2.708 2.708 0 01.18.342.676.676 0 01.065.21.214.214 0 01-.038.118z"/><path d="M10.666 6.318a.39.39 0 00-.063-.22.383.383 0 00-.177-.142 1.251 1.251 0 00-.42-.046h-.563v.827h.546a1.52 1.52 0 00.37-.038.436.436 0 00.228-.129.373.373 0 00.079-.252z"/></svg>