<svg data-tags="care calling,remove,subtract,cancel,minus" xmlns="http://www.w3.org/2000/svg" viewBox="0 0 14 14"><path d="M9.7 8.71H8.362a.294.294 0 100 .587H9.7a.294.294 0 100-.587z"/><path d="M7 0a7 7 0 107 7 7 7 0 00-7-7zm-.466 2.748a1.454 1.454 0 11-1.455 1.454 1.455 1.455 0 011.455-1.454zm-2.42 7.676a.393.393 0 01-.394-.393V8.692a2.631 2.631 0 012.625-2.624h.375a2.61 2.61 0 011.656.599 2.207 2.207 0 00-.276.1 2.46 2.46 0 00-1.526 2.272 2.414 2.414 0 00.422 1.368c.006.006.006.011.012.017zM10.86 9.37a1.84 1.84 0 01-.51.957 1.905 1.905 0 01-.958.511 1.87 1.87 0 01-2.09-2.548 1.85 1.85 0 01.405-.61 1.946 1.946 0 01.61-.406 1.855 1.855 0 01.717-.14 1.854 1.854 0 011.72 1.156 1.838 1.838 0 01.106 1.08z"/></svg>