<svg data-deprecated="solid/Reply.svg" data-tags="sprinklr,Ai" xmlns="http://www.w3.org/2000/svg"
     viewBox="0 0 14 14"><defs><linearGradient
        id="solid_replyAi_clr__a" x1="10.613" y1="-121.379" x2="2.82" y2="-131.615" gradientTransform="matrix(1 0 0 -1 0 -116.699)" gradientUnits="userSpaceOnUse"><stop offset="0" stop-color="#de46e1"/><stop offset=".487" stop-color="#8e43ff"/><stop offset="1" stop-color="#0e61f6"/></linearGradient></defs><path d="M.234 6.216Q2.63 3.818 5.029 1.44a.65.65 0 0 1 .09-.08.57.57 0 0 1 .473-.121.61.61 0 0 1 .503.623v2.06h.02a9.675 9.675 0 0 1 2.322.403 7.462 7.462 0 0 1 4.494 3.468 7.346 7.346 0 0 1 1.045 4.393.585.585 0 0 1-.503.573.411.411 0 0 1-.11.01.617.617 0 0 1-.543-.362q-.12-.241-.271-.482a5.512 5.512 0 0 0-2.534-2.01A8.047 8.047 0 0 0 6.9 9.341c-.221 0-.422.01-.634.01h-.17v2.222a.592.592 0 0 1-.543.623h-.07a.686.686 0 0 1-.473-.231L1.832 8.749.234 7.141a.574.574 0 0 1 0-.925Z" fill="url(#solid_replyAi_clr__a)"/></svg>
