<svg data-tags="reporting,graph,report,data" xmlns="http://www.w3.org/2000/svg" viewBox="0 0 14 14"><defs><linearGradient id="solid_reportingDashboard_clr__a" y1="-645.432" x2="14" y2="-657.932" gradientTransform="matrix(1 0 0 -1 0 -644.682)" gradientUnits="userSpaceOnUse"><stop offset="0" stop-color="#66c89b"/><stop offset="1" stop-color="#53a680"/></linearGradient><clipPath id="solid_reportingDashboard_clr__b"><path fill="none" d="M4.5 4.25h5v5h-5z"/></clipPath></defs><rect y=".75" width="14" height="12.5" rx="1.5" fill="url(#solid_reportingDashboard_clr__a)"/><g clip-path="url(#solid_reportingDashboard_clr__b)"><path d="M6.411 4.464a.214.214 0 0 1 .215-.214h.747a.214.214 0 0 1 .215.214v4.278a.214.214 0 0 1-.215.214h-.747a.214.214 0 0 1-.215-.214ZM4.5 6.66a.214.214 0 0 1 .214-.214h.748a.214.214 0 0 1 .214.215v2.08a.214.214 0 0 1-.214.215h-.748a.214.214 0 0 1-.214-.214Zm4.038-1.155a.214.214 0 0 0-.214.214v3.023a.214.214 0 0 0 .214.214h.748a.214.214 0 0 0 .214-.214V5.719a.214.214 0 0 0-.214-.214Z" fill="#fff" fill-rule="evenodd"/></g></svg>