<svg data-tags="ask,assistance,help,question,doubts,queries" xmlns="http://www.w3.org/2000/svg" viewBox="0 0 14 14"><switch><g><path d="M4.422 5.014c-1.006 0-1.517.685-1.619 1.4a.235.235 0 00.234.277h.408a.236.236 0 00.233-.204c.044-.263.22-.613.759-.613.408 0 .583.22.656.35a.593.593 0 01-.044.584c-.116.16-.233.248-.364.335-.321.22-.57.452-.627 1.109a.23.23 0 00.233.262h.38c.116 0 .218-.087.247-.218.015-.278.088-.336.263-.453.145-.102.35-.248.554-.525.306-.423.35-.991.117-1.487-.263-.51-.803-.817-1.43-.817zm.044 3.952c-.292 0-.525.234-.525.525s.233.526.525.526c.292 0 .525-.234.525-.526s-.233-.525-.525-.525zM12.814.561c.598 0 1.08.482 1.08 1.064V8.14c0 .598-.482 1.08-1.08 1.08h-.296c.016.382.083.881.316 1.413.1.2.05.432-.117.581a.58.58 0 01-.365.133.53.53 0 01-.233-.05c-.947-.465-2.096-1.786-2.244-1.994V4.716c0-1.246-1.03-2.26-2.277-2.26H5.305v-.814c0-.599.482-1.08 1.08-1.08h6.43zm-5.2 3.075c.6 0 1.081.482 1.081 1.08v5.498c0 .599-.482 1.08-1.08 1.08H4.19c-.465.616-1.313 1.596-2.326 2.095a.587.587 0 01-.233.05.516.516 0 01-.366-.15.51.51 0 01-.116-.582c.233-.531.299-1.03.316-1.412h-.28c-.598 0-1.08-.482-1.08-1.08V4.715c0-.598.482-1.08 1.08-1.08h6.429z"/></g></switch></svg>
