<svg data-tags="boost,launch,boost post,speed up,shoot" xmlns="http://www.w3.org/2000/svg" viewBox="0 0 14 14"><path d="M5.026 4.359H2.44a2.135 2.135 0 00-1.4.52l-.87.87a.555.555 0 000 .7l1.355 1.355zm1.132 8.078L7.49 13.77a.547.547 0 00.78.09l.88-.87a2.037 2.037 0 00.52-1.4V8.981zM13.97 1.299a1.503 1.503 0 00-.38-.86 1.625 1.625 0 00-1.22-.44 5.53 5.53 0 00-1.72.22 3.61 3.61 0 00-1.15.68c-.18.16-.36.32-.53.5L6.194 4.262l-.004.004-.09.093h-.004l-4.04 3.976.294.294 2.96 2.96.317.317L9.67 7.928l2.87-2.87a5.473 5.473 0 00.98-1.22 4.335 4.335 0 00.4-1.47 3.828 3.828 0 00.05-1.07zm-2.54 2.18a1.029 1.029 0 111.029-1.03 1.029 1.029 0 01-1.029 1.03zm-6.953 8.206A1.6 1.6 0 012.214 9.42"/></svg>