<svg data-tags="rotate,revolve,90 degree,turn,left" xmlns="http://www.w3.org/2000/svg" viewBox="0 0 14 14"><path d="M7.277 6.578L4.8 4.092a1.35 1.35 0 00-1.907.01L.426 6.567a1.37 1.37 0 000 1.917l2.467 2.467a1.37 1.37 0 001.917 0l2.467-2.467a1.34 1.34 0 000-1.907z"/><path d="M12.184 3.317a6.086 6.086 0 00-4.303-1.782V.974A.677.677 0 006.73.49L5.5 1.731a.672.672 0 000 .956l1.23 1.23a.672.672 0 001.152-.472v-.561a4.676 4.676 0 013.683 1.772 4.722 4.722 0 01-3.683 7.69 4.63 4.63 0 01-1.546-.255.647.647 0 00-.689.177.666.666 0 00.226 1.093 6.083 6.083 0 006.312-10.044z"/></svg>