<svg xmlns:xlink="http://www.w3.org/1999/xlink" data-deprecated="solid/ScreenControl.svg" data-tags="sprinklr,Ai"
     xmlns="http://www.w3.org/2000/svg"
      viewBox="0 0 14 14"><defs><linearGradient id="solid_screenControlAi_clr__a" x1="10.443" y1="-189.349" x2="1.853" y2="-197.777" gradientTransform="matrix(1 0 0 -1 0 -183.36)" gradientUnits="userSpaceOnUse"><stop offset="0" stop-color="#de46e1"/><stop offset=".487" stop-color="#8e43ff"/><stop offset="1" stop-color="#0e61f6"/></linearGradient><linearGradient id="solid_screenControlAi_clr__b" x1="7.236" y1="-184.653" x2="3.84" y2="-188.673" xlink:href="#solid_screenControlAi_clr__a"/></defs><path d="M10.74 7.446 7.217 6.172c-.178-.068-.251-.1-.251-.241l-.01-3.392a.904.904 0 0 0-1.796 0V9.54L2.68 7.88a.823.823 0 0 0-.995 1.295l3.905 4.14.01.011A3.146 3.146 0 0 0 7.258 14h3.292a2.009 2.009 0 0 0 2.007-2.017v-2.63c0-1.274-1.014-1.676-1.816-1.907Z" fill="url(#solid_screenControlAi_clr__a)"/><path d="M4.57 4.917V2.692a1.493 1.493 0 1 1 2.987 0v2.225a2.687 2.687 0 1 0-3.731-.736 2.592 2.592 0 0 0 .744.736Z" fill="url(#solid_screenControlAi_clr__b)"/></svg>
