<svg data-tags="emoji,smiley,sentiment,okay" xmlns="http://www.w3.org/2000/svg" viewBox="0 0 14 14"><path d="M7 13.997A6.997 6.997 0 1 0 0 7a6.994 6.994 0 0 0 7 6.997Z" fill="#f1a143"/><path d="M5.366 8.844a3.492 3.492 0 0 0 3.32 0 .247.247 0 0 0 .1-.16.319.319 0 0 0-.03-.19.252.252 0 0 0-.34-.1 3.032 3.032 0 0 1-2.78 0 .169.169 0 0 0-.1-.03.336.336 0 0 0-.1 0 .351.351 0 0 0-.09.04.27.27 0 0 0-.07.08.235.235 0 0 0-.03.2.287.287 0 0 0 .12.16ZM3.9 7.43a.96.96 0 1 0-.96-.96.96.96 0 0 0 .96.96ZM10.1 7.43a.96.96 0 1 0-.96-.96.96.96 0 0 0 .96.96Z"/></svg>