<svg data-tags="sentiment, emoji, smiley,delighted" xmlns="http://www.w3.org/2000/svg" viewBox="0 0 14 14"><path d="M7 13.997A6.997 6.997 0 1 0 0 7a6.994 6.994 0 0 0 7 6.997Z" fill="#b2b2b2"/><path d="M10.27 7.53a4.296 4.296 0 0 1-6.4 0 .184.184 0 0 0-.16-.02.276.276 0 0 0-.15.08.304.304 0 0 0-.08.16.372.372 0 0 0 .02.18 5.14 5.14 0 0 0 1.63 1.2 4.646 4.646 0 0 0 3.86 0 5.033 5.033 0 0 0 1.63-1.2.285.285 0 0 0 .1-.09.294.294 0 0 0 .05-.13.32.32 0 0 0-.01-.14.24.24 0 0 0-.07-.12.259.259 0 0 0-.11-.07.289.289 0 0 0-.13-.01.34.34 0 0 0-.12.06.356.356 0 0 0-.06.1ZM5.77 6.07a.247.247 0 0 1-.25-.25 1.28 1.28 0 0 0-2.56 0 .25.25 0 0 1-.5 0 1.78 1.78 0 0 1 3.56 0 .254.254 0 0 1-.25.25ZM11.39 6.07a.247.247 0 0 1-.25-.25 1.28 1.28 0 0 0-2.56 0 .25.25 0 0 1-.5 0 1.78 1.78 0 0 1 3.56 0 .254.254 0 0 1-.25.25Z"/></svg>