<svg data-tags="emoji, sentiment, smiley,happy" xmlns="http://www.w3.org/2000/svg" viewBox="0 0 14 14"><path d="M7 13.997A6.997 6.997 0 1 0 0 7a6.994 6.994 0 0 0 7 6.997Z" fill="#aac853"/><path d="M10.5 8.1a5 5 0 0 1-7 0 .23.23 0 0 0-.18-.02.282.282 0 0 0-.24.24.372.372 0 0 0 .02.18 5.579 5.579 0 0 0 1.79 1.199 5.512 5.512 0 0 0 4.22 0 5.577 5.577 0 0 0 1.79-1.2.318.318 0 0 0 .17-.22.32.32 0 0 0-.01-.14.241.241 0 0 0-.07-.12.293.293 0 0 0-.12-.07.333.333 0 0 0-.14-.01.308.308 0 0 0-.13.06.195.195 0 0 0-.1.1ZM3.9 6.4a1 1 0 1 0-1-1 1.003 1.003 0 0 0 1 1ZM10.1 6.4a1 1 0 1 0-1-1 1.003 1.003 0 0 0 1 1Z"/></svg>