<svg data-deprecated="solid/SentimentGreyExtremelyHappyClr.svg"  data-tags="face,happy,sentiment,CSAT,rating,emoji,emoticon,smiley" xmlns="http://www.w3.org/2000/svg" viewBox="0 0 14 14"><path d="M7,14A7,7,0,1,0,0,7,7,7,0,0,0,7,14Z" fill="#b3b3b3" fill-rule="evenodd"/><path d="M7.00005,11.64A4.60423,4.60423,0,0,0,11.5961,7.313H2.4041a4.60408,4.60408,0,0,0,4.596,4.327Z" fill="#1a1a1a" fill-rule="evenodd"/><path d="M6.99992,11.64a4.60253,4.60253,0,0,0,4.08-2.468,10.24392,10.24392,0,0,0-4.08-.791,10.24427,10.24427,0,0,0-4.08.791A4.603,4.603,0,0,0,6.99992,11.64Z" fill="#666" fill-rule="evenodd"/><circle cx="3.90008" cy="4.92275" r="1" fill="#1a1a1a"/><circle cx="10.10008" cy="4.92275" r="1" fill="#1a1a1a"/></svg>
