<svg data-tags="emoji, sentiment, smiley,sad" xmlns="http://www.w3.org/2000/svg" viewBox="0 0 14 14"><path d="M7 13.997A6.997 6.997 0 1 0 0 7a6.994 6.994 0 0 0 7 6.997Z" fill="#f1a143"/><path d="M4.7 3.981a2.535 2.535 0 0 0-1.22.38 2.46 2.46 0 0 0-.87.94.25.25 0 0 0-.01.19.3.3 0 0 0 .12.15.252.252 0 0 0 .34-.1 1.962 1.962 0 0 1 .69-.74 1.937 1.937 0 0 1 .96-.3.356.356 0 0 0 .1-.02.237.237 0 0 0 .09-.06.404.404 0 0 0 .05-.09.355.355 0 0 0 .02-.1.193.193 0 0 0-.03-.1.554.554 0 0 0-.06-.08.156.156 0 0 0-.08-.06.341.341 0 0 0-.1-.01Zm4.6 0a.34.34 0 0 0-.1.01.313.313 0 0 0-.1.05.155.155 0 0 0-.06.08.38.38 0 0 0-.03.1.164.164 0 0 0 .02.1.238.238 0 0 0 .06.09.146.146 0 0 0 .09.06.356.356 0 0 0 .1.02 1.936 1.936 0 0 1 .96.3 1.96 1.96 0 0 1 .69.74.209.209 0 0 0 .06.1l.09.06a.199.199 0 0 0 .11.01.17.17 0 0 0 .1-.03.27.27 0 0 0 .08-.07.316.316 0 0 0 .05-.1.204.204 0 0 0 0-.11.3.3 0 0 0-.04-.1 2.528 2.528 0 0 0-.87-.94 2.385 2.385 0 0 0-1.21-.37ZM8.66 8.78a3.492 3.492 0 0 0-3.32 0 .247.247 0 0 0-.1.16.319.319 0 0 0 .03.19.252.252 0 0 0 .34.1 3.032 3.032 0 0 1 2.78 0 .169.169 0 0 0 .1.03.336.336 0 0 0 .1 0 .35.35 0 0 0 .09-.04.27.27 0 0 0 .07-.08.235.235 0 0 0 .03-.2.287.287 0 0 0-.12-.16ZM3.9 7.43a.96.96 0 1 0-.96-.96.96.96 0 0 0 .96.96ZM10.1 7.43a.96.96 0 1 0-.96-.96.96.96 0 0 0 .96.96Z"/></svg>