<svg data-tags="upset,emoji, sentiment, smiley" xmlns="http://www.w3.org/2000/svg" viewBox="0 0 14 14"><path d="M7 13.997A6.997 6.997 0 1 0 0 7a6.994 6.994 0 0 0 7 6.997Z" fill="#dd7338"/><path d="M5.05 5.09a.262.262 0 0 0 .09-.05.27.27 0 0 0 .07-.08.17.17 0 0 0 .03-.1.34.34 0 0 0-.01-.1.404.404 0 0 0-.05-.09.156.156 0 0 0-.08-.06.382.382 0 0 0-.1-.03.341.341 0 0 0-.1.01 2.034 2.034 0 0 1-1.01.05 1.938 1.938 0 0 1-.9-.459.3.3 0 0 0-.18-.06.259.259 0 0 0-.17.09.311.311 0 0 0-.07.18.269.269 0 0 0 .08.18 2.433 2.433 0 0 0 1.14.58 2.352 2.352 0 0 0 1.26-.06ZM8.96 5.09a2.489 2.489 0 0 0 1.27.06 2.532 2.532 0 0 0 1.14-.579.25.25 0 0 0 .08-.17.241.241 0 0 0-.07-.18.285.285 0 0 0-.17-.09.202.202 0 0 0-.18.06 1.937 1.937 0 0 1-.9.46 2.075 2.075 0 0 1-1.02-.05.173.173 0 0 0-.1-.01.193.193 0 0 0-.1.03.553.553 0 0 0-.08.06.406.406 0 0 0-.05.09.34.34 0 0 0-.01.1.193.193 0 0 0 .03.1c.01.03.04.05.06.07a.19.19 0 0 0 .1.05ZM3.9 7.43a.96.96 0 1 0-.96-.96.96.96 0 0 0 .96.96ZM10.1 7.43a.96.96 0 1 0-.96-.96.96.96 0 0 0 .96.96Z"/><path d="M10.2 10.399a.298.298 0 0 1-.15-.05 5.535 5.535 0 0 0-3.06-1.08 4.454 4.454 0 0 0-3.03 1.07.248.248 0 1 1-.32-.38 5.114 5.114 0 0 1 3.37-1.19 6.012 6.012 0 0 1 3.34 1.18.253.253 0 0 1 .05.35.234.234 0 0 1-.2.1Z" fill="#020202"/></svg>