<svg data-tags="face, angry, dissatisfied, sentiment, CSAT, rating, emoji, emoticon, Yellow" xmlns="http://www.w3.org/2000/svg" viewBox="0 0 14 14"><path fill="#ffd664" d="M7 14a7 7 0 1 0-7-7 7 7 0 0 0 7 7Z"/><path d="M11.19 4.7a2.9 2.9 0 0 1-.66.64.96.96 0 1 1-1.6.72.41.41 0 0 1 .02-.16.86.86 0 0 1-.16.01 2.93 2.93 0 0 1-.86-.12.25.25 0 1 1 .15-.48 2.37 2.37 0 0 0 1.13.07 1.53 1.53 0 0 0 .29-.07 2.21 2.21 0 0 0 .47-.2 2.52 2.52 0 0 0 .82-.72.24.24 0 0 1 .34-.05.25.25 0 0 1 .06.35ZM9.62 9.27a.25.25 0 0 1-.24-.16 2.46 2.46 0 0 0-4.57-.07.25.25 0 1 1-.46-.2 3 3 0 0 1 2.58-1.82 3.03 3.03 0 0 1 2.92 1.9.25.25 0 0 1-.14.33.26.26 0 0 1-.1.02ZM6 5.48a.25.25 0 0 1-.17.31 2.93 2.93 0 0 1-.86.12.86.86 0 0 1-.16 0 .41.41 0 0 1 .02.15.96.96 0 1 1-1.6-.72 3.11 3.11 0 0 1-.66-.65.25.25 0 0 1 .41-.3 2.47 2.47 0 0 0 .81.72l.76.27a2.43 2.43 0 0 0 1.14-.07.24.24 0 0 1 .31.17Z"/></svg>