<svg data-tags="face, sad, dissatisfied, unhappy, sentiment, CSAT, rating, emoji, emoticon, Yellow" xmlns="http://www.w3.org/2000/svg" viewBox="0 0 14 14"><path fill="none" d="M0 0h14v14H0z"/><path fill="#ffd664" d="M7 14a7 7 0 1 0-4.95-2.05A7 7 0 0 0 7 14Z"/><path d="M3.9 7.2a1 1 0 1 0-.7-.3 1 1 0 0 0 .7.3ZM10.1 7.2a1 1 0 1 0-.7-.3 1 1 0 0 0 .7.3Z"/><path fill="#020202" d="M10.2 10.38a.25.25 0 0 1-.15-.05A5.54 5.54 0 0 0 7 9.25a4.48 4.48 0 0 0-3.03 1.07.25.25 0 0 1-.32-.38A5.09 5.09 0 0 1 7 8.75a6.04 6.04 0 0 1 3.34 1.18.25.25 0 0 1-.15.45Z"/></svg>