<svg data-tags="face, angry, dissatisfied, sentiment, CSAT, rating, emoji, emoticon" xmlns="http://www.w3.org/2000/svg" viewBox="0 0 14 14"><path fill="#b3b3b3" d="M7 14a7 7 0 10-7-7 7 7 0 007 7z"/><path d="M11.19 4.7a2.9 2.9 0 01-.66.64.96.96 0 11-1.6.72.41.41 0 01.02-.16.86.86 0 01-.16.01 2.93 2.93 0 01-.86-.12.25.25 0 11.15-.48 2.37 2.37 0 001.13.07 1.53 1.53 0 00.29-.07 2.21 2.21 0 00.47-.2 2.52 2.52 0 00.82-.72.24.24 0 01.34-.05.25.25 0 01.06.35zM9.62 9.27a.25.25 0 01-.24-.16 2.46 2.46 0 00-4.57-.07.25.25 0 11-.46-.2 3 3 0 012.58-1.82 3.03 3.03 0 012.92 1.9.25.25 0 01-.14.33.26.26 0 01-.1.02zM6 5.48a.25.25 0 01-.17.31 2.93 2.93 0 01-.86.12.86.86 0 01-.16 0 .41.41 0 01.02.15.96.96 0 11-1.6-.72 3.11 3.11 0 01-.66-.65.25.25 0 01.41-.3 2.47 2.47 0 00.81.72l.76.27a2.43 2.43 0 001.14-.07.24.24 0 01.31.17z"/></svg>