<svg data-tags="emoji, sentiment, smiley,dissapointed" xmlns="http://www.w3.org/2000/svg" viewBox="0 0 14 14"><path d="M6.993 13.997a6.984 6.984 0 1 0-4.942-2.04 7.01 7.01 0 0 0 4.942 2.04Z" fill="#eabf4a"/><path d="M3.892 7.197a1.024 1.024 0 0 0 .56-.17 1.086 1.086 0 0 0 .37-.45.956.956 0 0 0 .06-.58 1.013 1.013 0 0 0-.27-.51.943.943 0 0 0-.51-.27.964.964 0 0 0-.58.06 1.013 1.013 0 0 0-.45.37.998.998 0 0 0-.17.56 1.033 1.033 0 0 0 .29.71 1 1 0 0 0 .7.28ZM10.094 7.197a1.024 1.024 0 0 0 .56-.17 1.085 1.085 0 0 0 .37-.45.956.956 0 0 0 .06-.58 1.014 1.014 0 0 0-.27-.51.944.944 0 0 0-.51-.27.965.965 0 0 0-.58.06 1.014 1.014 0 0 0-.45.37.998.998 0 0 0-.17.56 1.033 1.033 0 0 0 .29.71 1 1 0 0 0 .7.28Z"/><path d="M10.194 10.377a.297.297 0 0 1-.15-.05 5.539 5.539 0 0 0-3.06-1.08 4.456 4.456 0 0 0-3.032 1.07.248.248 0 1 1-.32-.38 5.117 5.117 0 0 1 3.371-1.19 6.015 6.015 0 0 1 3.341 1.18.253.253 0 0 1 .05.35.234.234 0 0 1-.2.1Z" fill="#020202"/></svg>