<svg data-tags="emoji, sentiment, smiley,angry" xmlns="http://www.w3.org/2000/svg" viewBox="0 0 14 14"><path d="M7 13.997A6.997 6.997 0 1 0 0 7a6.994 6.994 0 0 0 7 6.997Z" fill="#cc446b"/><path d="M11.19 4.69a2.89 2.89 0 0 1-.66.65.961.961 0 1 1-1.6.72.414.414 0 0 1 .02-.16.861.861 0 0 1-.16.01 2.935 2.935 0 0 1-.86-.12.251.251 0 1 1 .15-.48 2.373 2.373 0 0 0 1.13.07 1.53 1.53 0 0 0 .29-.07 2.218 2.218 0 0 0 .47-.2 2.521 2.521 0 0 0 .82-.719.24.24 0 0 1 .34-.05.246.246 0 0 1 .06.35ZM9.62 9.27a.247.247 0 0 1-.23-.16 2.463 2.463 0 0 0-4.58-.07.253.253 0 0 1-.33.13.266.266 0 0 1-.13-.33 3.017 3.017 0 0 1 2.58-1.82 3.035 3.035 0 0 1 2.92 1.91.247.247 0 0 1-.14.32.292.292 0 0 1-.09.02ZM6 5.48a.253.253 0 0 1-.17.31 2.935 2.935 0 0 1-.86.12.861.861 0 0 1-.16-.01.414.414 0 0 1 .02.16.96.96 0 1 1-1.6-.72 3.11 3.11 0 0 1-.66-.65.254.254 0 0 1 .41-.299 2.466 2.466 0 0 0 .81.72l.76.27a2.432 2.432 0 0 0 1.14-.07.245.245 0 0 1 .31.17Z"/></svg>