<svg data-tags="face, happy, sentiment, CSAT, rating, emoji, emoticon, startstruck, Yellow" xmlns="http://www.w3.org/2000/svg" viewBox="0 0 14 14"><path fill="#ffd664" d="M7 14a7.01 7.01 0 1 0-4.95-2.05A7 7 0 0 0 7 14Z"/><path d="M7 11.64a4.6 4.6 0 0 0 4.6-4.33H2.4A4.6 4.6 0 0 0 7 11.64Z"/><path fill="#ce4f55" d="M7 11.64a4.6 4.6 0 0 0 4.08-2.47A10.24 10.24 0 0 0 7 8.38a10.24 10.24 0 0 0-4.08.8A4.6 4.6 0 0 0 7 11.63Z"/><path fill="#da4353" d="M5.7 3.64a.4.4 0 0 0 .1-.4.4.4 0 0 0-.32-.28l-1.3-.2a.4.4 0 0 1-.32-.22l-.58-1.2a.4.4 0 0 0-.72 0l-.58 1.2a.4.4 0 0 1-.31.23l-1.31.19a.4.4 0 0 0-.32.27.4.4 0 0 0 .1.41l.95.94a.41.41 0 0 1 .11.36L.98 6.25a.4.4 0 0 0 .16.4.39.39 0 0 0 .41.03l1.18-.62a.4.4 0 0 1 .38 0l1.17.62a.39.39 0 0 0 .42-.03.4.4 0 0 0 .16-.4l-.22-1.31a.41.41 0 0 1 .11-.36ZM13.86 3.64a.4.4 0 0 0 .1-.4.4.4 0 0 0-.32-.28l-1.3-.2a.4.4 0 0 1-.32-.22l-.58-1.2a.4.4 0 0 0-.72 0l-.58 1.2a.4.4 0 0 1-.31.23l-1.31.19a.4.4 0 0 0-.32.27.4.4 0 0 0 .1.41l.95.94a.41.41 0 0 1 .11.36l-.22 1.31a.4.4 0 0 0 .16.4.39.39 0 0 0 .41.03l1.18-.62a.4.4 0 0 1 .38 0l1.17.62a.39.39 0 0 0 .42-.03.4.4 0 0 0 .16-.4l-.22-1.31a.41.41 0 0 1 .11-.36Z"/></svg>