<svg data-tags="face,sad,sentiment,CSAT,rating,emoji,emoticon,smiley" xmlns="http://www.w3.org/2000/svg" viewBox="0 0 14 14"><path d="M7,14A7,7,0,1,0,0,7,7,7,0,0,0,7,14Z" fill="#b3b3b3"/><path d="M3.8999,7.2a1,1,0,1,0-1-1A1,1,0,0,0,3.8999,7.2Z" fill="#1a1a1a"/><path d="M10.1001,7.2a1,1,0,1,0-1-1A1,1,0,0,0,10.1001,7.2Z" fill="#1a1a1a"/><path d="M10.19961,10.37984a.248.248,0,0,1-.14844-.04883A5.54161,5.54161,0,0,0,6.98965,9.25a4.46741,4.46741,0,0,0-3.02832,1.07031.24946.24946,0,0,1-.32227-.38086A5.1228,5.1228,0,0,1,7.00625,8.75a6.042,6.042,0,0,1,3.3418,1.17871.25.25,0,0,1-.14844.45117Z" fill="#1a1a1a"/></svg>
