<svg data-tags="face, happy, sentiment, CSAT, rating, emoji, emoticon" xmlns="http://www.w3.org/2000/svg" viewBox="0 0 14 14"><path fill="#fccd49" fill-rule="evenodd" d="M6.98 14a7.01 7.01 0 10-4.95-2.05A7 7 0 006.98 14z"/><path fill-rule="evenodd" d="M6.98 11.64a4.6 4.6 0 004.6-4.33h-9.2a4.6 4.6 0 004.6 4.33z"/><path fill="#ce4f55" fill-rule="evenodd" d="M6.98 11.64a4.6 4.6 0 004.08-2.47 10.24 10.24 0 00-4.08-.79 10.24 10.24 0 00-4.08.8 4.6 4.6 0 004.08 2.46z"/><path d="M3.88 5.92a1 1 0 10-1-1 1 1 0 001 1zm6.2 0a1 1 0 10-1-1 1 1 0 001 1z"/></svg>