<svg data-tags="face,happy,sentiment,CSAT,rating,emoji,emoticon,smiley" xmlns="http://www.w3.org/2000/svg" viewBox="0 0 14 14"><path d="M7,14A7,7,0,1,0,0,7,7,7,0,0,0,7,14Z" fill="#b3b3b3" fill-rule="evenodd"/><path d="M7.00005,11.64A4.60423,4.60423,0,0,0,11.5961,7.313H2.404A4.60408,4.60408,0,0,0,7,11.64Z" fill="#1a1a1a" fill-rule="evenodd"/><path d="M6.99992,11.64a4.60253,4.60253,0,0,0,4.08-2.468,10.24392,10.24392,0,0,0-4.08-.791,10.24427,10.24427,0,0,0-4.08.791A4.603,4.603,0,0,0,6.99992,11.64Z" fill="#666" fill-rule="evenodd"/><path d="M5.70312,3.64389a.39538.39538,0,0,0,.1004-.413.391.391,0,0,0-.3207-.27175L4.17077,2.76725a.40822.40822,0,0,1-.308-.22507L3.27609,1.34589a.39579.39579,0,0,0-.71234,0l-.58684,1.1965a.40759.40759,0,0,1-.308.22486l-1.312.19188a.391.391,0,0,0-.3205.27175.39538.39538,0,0,0,.1004.413l.94945.9316a.41069.41069,0,0,1,.11761.36219L.97934,6.25284a.396.396,0,0,0,.16014.39413.38772.38772,0,0,0,.41487.02925l1.17473-.62066a.40676.40676,0,0,1,.38189,0l1.17348.62066A.38813.38813,0,0,0,4.69932,6.647a.396.396,0,0,0,.16015-.39414l-.22425-1.315a.41051.41051,0,0,1,.11762-.3626Z" fill="#666"/><path d="M13.8631,3.64389a.39538.39538,0,0,0,.1004-.413.391.391,0,0,0-.3207-.27175l-1.312-.19188a.40822.40822,0,0,1-.308-.22507L11.43616,1.3459a.39578.39578,0,0,0-.71234,0L10.137,2.5424a.40759.40759,0,0,1-.308.22486l-1.312.19188a.391.391,0,0,0-.3205.27175.39538.39538,0,0,0,.1004.413l.94945.9316a.41069.41069,0,0,1,.11761.36219L9.13932,6.25284a.396.396,0,0,0,.16014.39413.38772.38772,0,0,0,.41487.02925l1.17473-.62066a.40676.40676,0,0,1,.38189,0l1.17348.62066A.38813.38813,0,0,0,12.8593,6.647a.396.396,0,0,0,.16015-.39414l-.22425-1.315a.41051.41051,0,0,1,.11762-.3626Z" fill="#666"/></svg>
