<svg data-tags="face, sad, dissatisfied, unhappy, sentiment, CSAT, rating, emoji, emoticon, Yellow" xmlns="http://www.w3.org/2000/svg" viewBox="0 0 14 14"><path fill="#ffd664" d="M7 14a7 7 0 1 0-7-7 7 7 0 0 0 7 7Z"/><path d="M4.7 3.98A2.48 2.48 0 0 0 2.62 5.3a.26.26 0 0 0 .45.24A1.96 1.96 0 0 1 4.72 4.5a.26.26 0 1 0-.02-.52Zm4.6 0a.26.26 0 1 0-.02.52 1.96 1.96 0 0 1 1.65 1.04.26.26 0 1 0 .45-.24A2.48 2.48 0 0 0 9.3 3.98Zm-.64 4.8a3.48 3.48 0 0 0-3.32 0 .26.26 0 0 0 .27.44 3 3 0 0 1 2.78 0 .26.26 0 0 0 .27-.44ZM3.9 7.43a.96.96 0 1 0-.96-.96.96.96 0 0 0 .96.96ZM10.1 7.43a.96.96 0 1 0-.96-.96.96.96 0 0 0 .96.96Z"/></svg>