<svg data-tags="collaborate folder,user file" xmlns="http://www.w3.org/2000/svg" viewBox="0 0 14 14"><path d="M12.814 2.557H7.08a.24.24 0 01-.247-.233 1.18 1.18 0 00-1.186-1.17h-4.46A1.18 1.18 0 000 2.324v9.352a1.18 1.18 0 001.186 1.17h11.63A1.18 1.18 0 0014 11.676V3.727a1.18 1.18 0 00-1.187-1.17zM3.073 5.018a1.132 1.132 0 011.553 0 1.097 1.097 0 11-1.876.774 1.083 1.083 0 01.323-.774zm3.246 6.406a.363.363 0 01-.367.36H1.745a.364.364 0 01-.368-.36V9.829a2.427 2.427 0 012.45-2.398h.042a2.427 2.427 0 012.45 2.398z"/></svg>