<svg data-tags="forward,multi share,mobile" xmlns="http://www.w3.org/2000/svg" viewBox="0 0 14 14"><circle cx="7" cy="7.046" r="6.954" fill="#a0a0a8"/><path fill="#fff" d="M11.049 6.403L8.27 3.64a.516.516 0 00-.054-.05.33.33 0 00-.274-.069.349.349 0 00-.289.364v1.192l-.009.001a5.511 5.511 0 00-1.344.234 4.323 4.323 0 00-2.606 2.01 4.26 4.26 0 00-.605 2.549.345.345 0 00.29.334.323.323 0 00.066.006.352.352 0 00.313-.21 2.794 2.794 0 01.16-.279 3.18 3.18 0 011.466-1.168 4.618 4.618 0 011.805-.332c.127-.001.243.004.366.008l.098.003v1.289a.347.347 0 00.314.363.318.318 0 00.04.003.386.386 0 00.272-.133l1.844-1.862.925-.932a.353.353 0 000-.558z"/></svg>