<svg data-tags="smart,rules,bulb,light,flow,workflow" xmlns="http://www.w3.org/2000/svg" viewBox="0 0 14 14"><path d="M8.71 3.233a5.057 5.057 0 0 1 .428 1h2.125a.496.496 0 0 0 .5-.5V2.212a1.166 1.166 0 0 0 .67-1.041 1.17 1.17 0 0 0-2.341 0 1.166 1.166 0 0 0 .67 1.04v1.022ZM2.767 11.352a1.031 1.031 0 0 0 .893 1.154h1.476a1 1 0 0 0 .98-.992v-.707h-3.35ZM7.455 3.13a5.924 5.924 0 0 0-.558-.558 3.846 3.846 0 0 0-3.287-.794A3.947 3.947 0 0 0 .634 4.83a4.036 4.036 0 0 0 1.476 4.03 1.68 1.68 0 0 1 .632 1.092c.013 0 .025-.012.037 0h3.374a1.879 1.879 0 0 1 .719-1.141 4.05 4.05 0 0 0 .583-5.68Zm-.918 2.828a.426.426 0 0 1-.422-.422A1.548 1.548 0 0 0 4.59 3.973a.429.429 0 0 1-.422-.434.435.435 0 0 1 .422-.421 2.395 2.395 0 0 1 2.369 2.418.444.444 0 0 1-.422.422ZM12.294 5.868a1.141 1.141 0 0 0-1 .59H9.27a5.04 5.04 0 0 1-.266 1.002h2.198a1.182 1.182 0 0 0 1.091.74 1.166 1.166 0 0 0 0-2.332ZM11.893 11.868v-1.26a.602.602 0 0 0-.6-.601h-4.1a.667.667 0 0 0-.057.13l-.02.104v.967h3.576v.63a1.16 1.16 0 1 0 1.742.991 1.144 1.144 0 0 0-.54-.96Z"/></svg>