<svg data-tags="chat,message,text message" xmlns="http://www.w3.org/2000/svg" viewBox="0 0 14 14"><path d="M7 .587C3.164.587.054 3.074.054 6.141a5.57 5.57 0 003.803 4.952 5.005 5.005 0 01-.822 2.372.123.123 0 00.151.178c.784-.327 2.262-.412 3.438-1.957.125.006.25.009.376.009 3.836 0 6.946-2.487 6.946-5.554S10.836.587 7 .587zM4.966 7.13a.91.91 0 01-.4.33 1.49 1.49 0 01-.623.12 1.402 1.402 0 01-.713-.164.957.957 0 01-.323-.314.716.716 0 01-.124-.38.259.259 0 01.264-.261.223.223 0 01.158.06.47.47 0 01.111.177 1.157 1.157 0 00.12.233.481.481 0 00.183.153.667.667 0 00.308.061.699.699 0 00.427-.122.368.368 0 00.164-.305.325.325 0 00-.088-.236.577.577 0 00-.23-.139 4.249 4.249 0 00-.375-.101 2.717 2.717 0 01-.526-.173.844.844 0 01-.336-.268.696.696 0 01-.124-.423.73.73 0 01.13-.428.83.83 0 01.38-.288 1.553 1.553 0 01.586-.1 1.444 1.444 0 01.465.066.975.975 0 01.325.178.74.74 0 01.19.232.53.53 0 01.06.236.277.277 0 01-.076.19.236.236 0 01-.185.085.216.216 0 01-.155-.05.698.698 0 01-.115-.167.768.768 0 00-.19-.258.562.562 0 00-.358-.092.62.62 0 00-.37.1.295.295 0 00-.14.242.244.244 0 00.048.152.397.397 0 00.13.109.937.937 0 00.17.072c.057.017.151.041.283.075a4.518 4.518 0 01.446.128 1.341 1.341 0 01.34.168.693.693 0 01.22.253.798.798 0 01.078.373.866.866 0 01-.135.476zm3.427.115a.365.365 0 01-.075.25.254.254 0 01-.2.084.247.247 0 01-.193-.083.36.36 0 01-.076-.251V5.23l-.468 1.86c-.03.12-.055.21-.074.266a.37.37 0 01-.107.154.31.31 0 01-.215.07.318.318 0 01-.175-.045.315.315 0 01-.111-.115.65.65 0 01-.063-.154l-.047-.176-.468-1.86v2.015a.365.365 0 01-.075.25.25.25 0 01-.198.084.254.254 0 01-.195-.082.365.365 0 01-.075-.252v-2.31a.287.287 0 01.1-.256.474.474 0 01.268-.068h.183a.691.691 0 01.24.03.198.198 0 01.11.108 1.7 1.7 0 01.082.253L6.985 6.6l.425-1.598a1.692 1.692 0 01.081-.253.2.2 0 01.11-.107.699.699 0 01.24-.03h.184a.474.474 0 01.268.067.287.287 0 01.1.256zm2.689-.115a.91.91 0 01-.4.33 1.49 1.49 0 01-.623.12 1.402 1.402 0 01-.713-.164.957.957 0 01-.323-.314.716.716 0 01-.124-.38.259.259 0 01.264-.261.223.223 0 01.158.06.47.47 0 01.111.177 1.157 1.157 0 00.12.233.481.481 0 00.183.153.667.667 0 00.308.061.699.699 0 00.427-.122.368.368 0 00.164-.305.325.325 0 00-.088-.236.577.577 0 00-.23-.139 4.249 4.249 0 00-.375-.101 2.717 2.717 0 01-.526-.173.844.844 0 01-.336-.268.696.696 0 01-.124-.423.73.73 0 01.13-.428.83.83 0 01.38-.288 1.553 1.553 0 01.586-.1 1.444 1.444 0 01.465.066.975.975 0 01.325.178.74.74 0 01.19.232.53.53 0 01.06.236.277.277 0 01-.076.19.235.235 0 01-.185.085.216.216 0 01-.155-.05.698.698 0 01-.115-.167.768.768 0 00-.19-.258.562.562 0 00-.358-.092.62.62 0 00-.37.1.295.295 0 00-.14.242.244.244 0 00.048.152.397.397 0 00.13.109.937.937 0 00.17.072c.057.017.151.041.283.075a4.52 4.52 0 01.446.128 1.341 1.341 0 01.34.168.693.693 0 01.22.253.798.798 0 01.078.373.866.866 0 01-.135.476z"/></svg>