<svg data-tags="listening,twitter,globe,search" xmlns="http://www.w3.org/2000/svg" viewBox="0 0 14 14"><path fill="#1da1f2" d="M9.01 7a1.9 1.9 0 101.9 1.9A1.9 1.9 0 009.01 7zm1.12 1.2a.5.5 0 01-.21.24 1.33 1.33 0 01-.48 1.1 1.38 1.38 0 01-1.56.1 1.03 1.03 0 00.67-.2.5.5 0 01-.41-.32.5.5 0 00.2-.02.52.52 0 01-.37-.45.28.28 0 00.19.02.48.48 0 01-.14-.6 1.34 1.34 0 00.98.49.52.52 0 01.24-.54.45.45 0 01.55.1.6.6 0 00.28-.11s.03.1-.18.25a.99.99 0 00.24-.06z"/><path d="M5.2 5.13H2.52a8.15 8.15 0 01.38-2.28h2.3v2.28zm-2.67.5h2.66v2.14H3.06a.18.18 0 01-.18-.1 6.9 6.9 0 01-.35-2.03zM0 5.64h2c.11.75.15 1.4.26 2.14H.66c-.04 0-.04-.02-.06-.06A4.6 4.6 0 010 5.64zm2.26-2.76c-.09.54-.14 1.02-.22 1.53a3.43 3.43 0 00-.04.48c0 .12 0 .13-.14.13H.13A.49.49 0 010 5a5.24 5.24 0 01.46-1.82c.12-.28.28-.32.6-.32zm2.93 7.66l-.8-.1a.3.3 0 01-.18-.1A7.85 7.85 0 013.13 8.4c0-.02-.07-.1-.07-.14H5.2zm-1.83-.4A5.69 5.69 0 01.93 8.28h1.6c.04 0 .1.2.13.25.27.56.43 1.04.7 1.62zM.93 2.38A5.82 5.82 0 013.38.5L3.3.66l-.74 1.5c-.03.06-.12.2-.17.21H.93zm4.81 2.75h2.65a8.2 8.2 0 00-.37-2.28H5.74zm2.92-2.26c.1.54.14 1.02.22 1.53a3.43 3.43 0 01.04.48c0 .13 0 .13.14.13h1.72a.45.45 0 00.14 0 5.25 5.25 0 00-.47-1.82c-.11-.28-.28-.32-.6-.32h-1.2zm1.33-.5A5.8 5.8 0 007.55.49l.06.16.74 1.5c.03.06.12.2.18.2.45.02.95 0 1.46 0zm-4.8.03H3.06c0-.03.07-.1.07-.13A7.85 7.85 0 014.21.34a.3.3 0 01.17-.1c.26-.05.53-.07.81-.1zM5.73.1l.8.1a.3.3 0 01.18.11A7.88 7.88 0 017.8 2.23c0 .02.07.1.07.13H5.73V.1zm8.13 13l-2.11-2.12A3.43 3.43 0 009 5.47a3.4 3.4 0 00-1 .17H5.7v2.41a3.4 3.4 0 00-.13.85 3.43 3.43 0 005.5 2.74l2.12 2.12a.47.47 0 00.67 0 .47.47 0 000-.67zm-4.85-1.7a2.5 2.5 0 112.5-2.5A2.5 2.5 0 019 11.4z"/></svg>
