<svg data-tags="reporting,graph,screen,window" xmlns="http://www.w3.org/2000/svg" viewBox="0 0 14 14"><path d="M3.7 11.43a.67.67 0 00.6-.21L5.94 9.4l.46.65a.67.67 0 00.94.16.66.66 0 00.14-.13l2.27-2.83.08.68a.53.53 0 00.43.46.5.5 0 00.15 0 .53.53 0 00.46-.58l-.23-2.1a.53.53 0 00-.44-.47.5.5 0 00-.15 0l-2.1.24a.53.53 0 00-.03 1.04.51.51 0 00.15 0l.59-.06-1.68 2.09-.44-.62a.67.67 0 00-.93-.16.62.62 0 00-.12.1L3.3 10.32a.67.67 0 00.4 1.11z"/><path d="M13.26.34H.74a.7.7 0 00-.7.7v11.92a.7.7 0 00.7.7h12.52a.7.7 0 00.7-.7V1.04a.7.7 0 00-.7-.7zm-.7 11.92H1.44V4.43h11.12z"/></svg>