<svg data-tags="sort,ascending,arrow" xmlns="http://www.w3.org/2000/svg" viewBox="0 0 14 14"><path d="M.687 6.276H6.53a.675.675 0 0 1 0 1.35H.68a.675.675 0 0 1 .006-1.35ZM.687 10.047h4.326a.675.675 0 0 1 .001 1.35H.686a.675.675 0 0 1 0-1.35ZM9.536 4.372l1.65-1.65a.675.675 0 0 1 .954-.001l1.648 1.651.008.009a.68.68 0 0 1-.01.96.667.667 0 0 1-.467.19c-.018 0-.034-.01-.051-.01-.011 0-.02.006-.032.006h-.9v5.297a.674.674 0 0 1-1.349 0V5.527h-.96l-.012-.002h-.002a.675.675 0 0 1-.477-1.153ZM8.193 3.853H.681a.675.675 0 0 1 .006-1.349h7.51a.675.675 0 1 1-.004 1.35Z"/></svg>