<svg data-tags="sound, mike, speaker, noise, setting, gear, config, background noise" xmlns="http://www.w3.org/2000/svg" viewBox="0 0 14 14"><path d="M14 8.07V5.75l-1.55-.47a5.44 5.44 0 00-.37-.98l.82-1.48-1.63-1.64L9.8 2a5.58 5.58 0 00-.98-.4L8.35 0H6.03l-.47 1.6a5.52 5.52 0 00-.98.4L3.1 1.19 1.46 2.82l.81 1.48a6.23 6.23 0 00-.53.98L0 5.75v2.32l1.74.47a5.93 5.93 0 00.47.99L1.43 11l1.66 1.64 1.48-.8a5.75 5.75 0 00.99.47L6.03 14h2.32l.47-1.69a5.69 5.69 0 00.99-.44l1.47.8L12.92 11l-.8-1.48a5.43 5.43 0 00.33-.98zm-6.88 3.34a4.31 4.31 0 114.31-4.31 4.31 4.31 0 01-4.31 4.31z"/><path d="M8.28 4.66a.68.68 0 00-.45.17L6.43 6.1a.57.57 0 00-.36-.1h-.59c-.33 0-.66.18-.66.52v1.5c0 .34.33.5.66.5h.59a.65.65 0 00.37-.1l1.4 1.28a.7.7 0 00.46.17.65.65 0 00.45-.18.69.69 0 00.2-.5V5.35a.68.68 0 00-.67-.7z"/></svg>