<svg data-tags="spacing,text,lines,arrow,gap,leading" xmlns="http://www.w3.org/2000/svg" viewBox="0 0 14 14"><path d="M3.979 8.742h-.002l-.012-.002h-.96V5.26h.9c.011 0 .02-.005.032-.006.017.001.033.01.05.01a.667.667 0 00.469-.189.68.68 0 000-.97L2.81 2.456a.675.675 0 00-.953 0l-1.65 1.65a.676.676 0 00.476 1.153h.002l.011.002h.961v3.48h-.9c-.012 0-.021.006-.032.006-.018 0-.033-.01-.051-.01a.667.667 0 00-.468.189.68.68 0 00-.001.97l1.647 1.651a.675.675 0 00.954 0l1.65-1.651a.676.676 0 00-.476-1.153zM.6 1.2h12.8a.6.6 0 000-1.2H.6a.6.6 0 000 1.2zm12.8 3.366H7.6a.6.6 0 000 1.2h5.8a.6.6 0 100-1.2zm0 3.668H7.6a.6.6 0 100 1.2h5.8a.6.6 0 100-1.2zm0 4.566H.6a.6.6 0 100 1.2h12.8a.6.6 0 100-1.2z"/></svg>