<svg data-tags="spacing,add space,arrow,move" xmlns="http://www.w3.org/2000/svg" viewBox="0 0 14 14"><path d="M13.85 10.67a.55.55 0 00-.41-.17h-.86v-7h.84l.03-.01a.56.56 0 00.4-.16.56.56 0 00-.02-.78l-1.57-1.51a.62.62 0 00-.33-.15.6.6 0 00-.13 0 .47.47 0 00-.26.12l-.05.03-1.56 1.5a.55.55 0 00.4.96h.85v7h-.84l-.03.01a.56.56 0 00-.4.16.56.56 0 00.02.78l1.57 1.51a.62.62 0 00.34.15.6.6 0 00.12 0 .47.47 0 00.27-.12l.04-.03 1.56-1.5a.55.55 0 00.02-.79z"/><rect width="9.02" height="5.2" y=".89" rx=".5"/><rect width="9.02" height="5.2" y="7.91" rx=".5"/></svg>