<svg xmlns:xlink="http://www.w3.org/1999/xlink" data-deprecated="solid/Sparkle.svg" data-tags="sprinklr,Ai"
     xmlns="http://www.w3.org/2000/svg"
      viewBox="0 0 14 14"><defs><linearGradient id="solid_sparkleAi_clr__a" x1="6.5" y1="-187.784" x2="-.271" y2="-194.079" gradientTransform="matrix(1 0 0 -1 0 -183.36)" gradientUnits="userSpaceOnUse"><stop offset="0" stop-color="#de46e1"/><stop offset=".487" stop-color="#8e43ff"/><stop offset="1" stop-color="#0e61f6"/></linearGradient><linearGradient id="solid_sparkleAi_clr__b" x1="10.191" y1="-184.579" x2="7.295" y2="-187.298" xlink:href="#solid_sparkleAi_clr__a"/><linearGradient id="solid_sparkleAi_clr__c" x1="12.457" y1="-192.954" x2="8.088" y2="-197.036" xlink:href="#solid_sparkleAi_clr__a"/></defs><path d="M8.537 6.398a.225.225 0 0 0-.226-.226c-2.045 0-3.708-1.97-3.708-4.393a.226.226 0 1 0-.452 0c0 2.423-1.665 4.393-3.709 4.393a.226.226 0 1 0 0 .452c2.044 0 3.709 1.97 3.709 4.394a.226.226 0 1 0 .452 0c0-2.424 1.663-4.394 3.708-4.394a.226.226 0 0 0 .226-.226Z" fill="url(#solid_sparkleAi_clr__a)"/><path d="M7.712 2.297a1.504 1.504 0 0 1 1.346 1.62.226.226 0 0 0 .451 0 1.504 1.504 0 0 1 1.346-1.62.226.226 0 0 0 0-.452A1.504 1.504 0 0 1 9.509.225a.226.226 0 1 0-.451 0 1.504 1.504 0 0 1-1.346 1.62.226.226 0 0 0 0 .452Z" fill="url(#solid_sparkleAi_clr__b)"/><path d="M13.557 10.647a2.49 2.49 0 0 1-2.244-2.673.226.226 0 0 0-.451 0 2.49 2.49 0 0 1-2.245 2.673.226.226 0 1 0 0 .452 2.49 2.49 0 0 1 2.245 2.675.226.226 0 1 0 .451 0 2.49 2.49 0 0 1 2.244-2.675.226.226 0 1 0 0-.452Z" fill="url(#solid_sparkleAi_clr__c)"/></svg>
