<svg data-tags="talk,Communicate,communication,speak,user talk,voice,audio" xmlns="http://www.w3.org/2000/svg" viewBox="0 0 14 14"><path d="M8.516 6.319a.607.607 0 0 0-.097-.56 8.533 8.533 0 0 1-.57-.96 1.558 1.558 0 0 1-.123-.568A3.874 3.874 0 0 0 3.86.365a2.48 2.48 0 0 0-.445.027A3.84 3.84 0 0 0 .021 3.84a3.68 3.68 0 0 0 .444 2.186 6.103 6.103 0 0 1 .711 3.323l-.151 1.458a.248.248 0 0 0 .08.169.2.2 0 0 0 .169.07H5.29a.248.248 0 0 0 .24-.222 12.642 12.642 0 0 1 .248-1.377l.054-.169a.284.284 0 0 1 .293-.222h.569a.83.83 0 0 0 .835-.738l.142-1.377a.16.16 0 0 1 .125-.151l.275-.071a.613.613 0 0 0 .444-.4ZM9.976 7.688a.601.601 0 0 0-.317-.312l-.091-.026-.117-.012a.601.601 0 0 0-.236.048.58.58 0 0 0-.31.317.573.573 0 0 0 .01.443 1.208 1.208 0 0 1 .012.943 1.165 1.165 0 0 1-.666.644.605.605 0 0 0-.282.773.572.572 0 0 0 .46.348l.064.004a.594.594 0 0 0 .235-.05 2.408 2.408 0 0 0 1.238-3.12Z"/><path d="M11.859 10.245a3.343 3.343 0 0 0-.056-2.655.603.603 0 0 0-.316-.31l-.092-.026-.117-.011a.601.601 0 0 0-.234.046.571.571 0 0 0-.299.765A2.306 2.306 0 0 1 9.54 11.08a.58.58 0 0 0 .158 1.106l.067.004a.588.588 0 0 0 .235-.05 3.494 3.494 0 0 0 1.859-1.894Z"/><path d="M13.609 7.528a.59.59 0 0 0-.497-.32.802.802 0 0 0-.249.046.57.57 0 0 0-.301.761 3.436 3.436 0 0 1-1.79 4.51.58.58 0 0 0 .16 1.107l.061.003a.6.6 0 0 0 .238-.049 4.578 4.578 0 0 0 2.378-6.058Z"/></svg>