<svg data-deprecated="line/Spelling.svg" data-tags="sprinklr,Ai" xmlns="http://www.w3.org/2000/svg"
     viewBox="0 0 14 14"><defs><linearGradient
        id="solid_spellingAi_clr__a" x1="9.213" y1="-153.549" x2="3.602" y2="-162.913" gradientTransform="matrix(1 0 0 -1 0 -149.213)" gradientUnits="userSpaceOnUse"><stop offset="0" stop-color="#de46e1"/><stop offset=".487" stop-color="#8e43ff"/><stop offset="1" stop-color="#0e61f6"/></linearGradient></defs><path d="M5.702 8.075a.535.535 0 0 0 .405-.171.608.608 0 0 0 .149-.343c.041.045.078.082.11.112a1.527 1.527 0 0 0 .253.192 1.316 1.316 0 0 0 .363.153 1.756 1.756 0 0 0 .449.057 1.63 1.63 0 0 0 .717-.158A1.579 1.579 0 0 0 8.7 7.47a2.01 2.01 0 0 0 .343-.673 2.882 2.882 0 0 0 .117-.843 2.568 2.568 0 0 0-.21-1.08 1.625 1.625 0 0 0-.606-.71 1.666 1.666 0 0 0-.903-.244 1.596 1.596 0 0 0-.754.163 2.18 2.18 0 0 0-.424.3V3.112a.718.718 0 0 0-.142-.474.516.516 0 0 0-.42-.179.494.494 0 0 0-.41.188.81.81 0 0 0-.139.507v4.268a.714.714 0 0 0 .146.48.514.514 0 0 0 .403.173Zm2.29-2.089a1.319 1.319 0 0 1-.245.86.707.707 0 0 1-.563.285.779.779 0 0 1-.629-.28 1.268 1.268 0 0 1-.244-.836 1.628 1.628 0 0 1 .118-.648.908.908 0 0 1 .312-.4.753.753 0 0 1 .443-.136.678.678 0 0 1 .42.134.889.889 0 0 1 .284.39 1.727 1.727 0 0 1 .104.631ZM.28 6.131a1.367 1.367 0 0 1 .746-.408l.349-.074c.278-.059.638-.135.745-.16q.228-.055.494-.13a.855.855 0 0 0-.133-.442.63.63 0 0 0-.495-.143 1.107 1.107 0 0 0-.515.092.816.816 0 0 0-.29.28 3.703 3.703 0 0 1-.197.285.388.388 0 0 1-.31.098.511.511 0 0 1-.347-.128.438.438 0 0 1-.15-.341.92.92 0 0 1 .2-.559 1.399 1.399 0 0 1 .609-.43 2.665 2.665 0 0 1 1-.165 2.816 2.816 0 0 1 1.048.159 1.037 1.037 0 0 1 .57.53 2.205 2.205 0 0 1 .161.912l-.007 1.118a1.868 1.868 0 0 0 .088.546 1.593 1.593 0 0 1 .095.413.445.445 0 0 1-.174.344.566.566 0 0 1-.382.147.523.523 0 0 1-.362-.167 2.002 2.002 0 0 1-.271-.34 3.054 3.054 0 0 1-.626.363 2.025 2.025 0 0 1-.778.144 1.506 1.506 0 0 1-.705-.159 1.183 1.183 0 0 1-.475-.437 1.149 1.149 0 0 1-.167-.6A1.082 1.082 0 0 1 .28 6.13Zm2.217.708a1.404 1.404 0 0 0 .122-.684v-.01q-.202.062-.512.128c-.271.06-.46.102-.563.13a.68.68 0 0 0-.264.14.321.321 0 0 0-.11.264.404.404 0 0 0 .139.309.527.527 0 0 0 .375.13 1.063 1.063 0 0 0 .493-.116.755.755 0 0 0 .32-.291Zm-1.74 3.3h12.488a.702.702 0 1 1 0 1.403H.756a.702.702 0 0 1 0-1.404ZM12.93 7.947a2.493 2.493 0 0 1-.797.12 1.973 1.973 0 0 1-1.483-.557 2.056 2.056 0 0 1-.534-1.481 2.428 2.428 0 0 1 .243-1.107 1.764 1.764 0 0 1 .71-.753 2.39 2.39 0 0 1 1.828-.149 1.93 1.93 0 0 1 .564.302 1.465 1.465 0 0 1 .36.4.841.841 0 0 1 .128.418.484.484 0 0 1-.16.367.544.544 0 0 1-.381.146.409.409 0 0 1-.262-.083 1.072 1.072 0 0 1-.198-.22 1.38 1.38 0 0 0-.35-.386.764.764 0 0 0-.444-.12.745.745 0 0 0-.623.303 1.379 1.379 0 0 0-.246.867 1.73 1.73 0 0 0 .065.48 1.08 1.08 0 0 0 .18.362.747.747 0 0 0 .277.22.844.844 0 0 0 .362.076.797.797 0 0 0 .451-.121 1.108 1.108 0 0 0 .34-.383 1.05 1.05 0 0 1 .212-.281.46.46 0 0 1 .318-.117.466.466 0 0 1 .368.168.525.525 0 0 1 .141.352.945.945 0 0 1-.12.434 1.428 1.428 0 0 1-.355.423 1.83 1.83 0 0 1-.594.32Z" fill-rule="evenodd" fill="url(#solid_spellingAi_clr__a)"/></svg>
