<svg data-tags="stamp,attest,approve" xmlns="http://www.w3.org/2000/svg" viewBox="0 0 14 14"><defs><clipPath id="solid_stampSquare__a"><path fill="none" d="M0 0h14v14H0z"/></clipPath></defs><g clip-path="url(#solid_stampSquare__a)"><path d="M12.444 0H1.556A1.56 1.56 0 0 0 0 1.556v10.887A1.56 1.56 0 0 0 1.556 14h10.887A1.56 1.56 0 0 0 14 12.444V1.556A1.56 1.56 0 0 0 12.444 0Zm-1.47 11.595H3.025a.498.498 0 1 1 0-.992h7.947a.498.498 0 1 1 0 .992Zm.498-1.984a.498.498 0 0 1-.498.498H3.025a.498.498 0 0 1-.498-.498v-.997a1.495 1.495 0 0 1 1.495-1.49h2.47V5.806a1.738 1.738 0 1 1 .997 0v1.318h2.47a1.495 1.495 0 0 1 1.495 1.49Z" /></g></svg>
