<svg data-tags="message,comment,mention,speech bubble,suggest,important" xmlns="http://www.w3.org/2000/svg" viewBox="0 0 14 14"><path d="M13.885 12.7l-1.398-2.75a6.568 6.568 0 10-5.87 3.618 6.499 6.499 0 003.615-1.085l2.92 1.05a.597.597 0 00.733-.832zm-3.628-6.114L8.671 7.961l.476 2.046a.407.407 0 01-.053.322.424.424 0 01-.592.143L6.71 9.388l-1.798 1.084a.432.432 0 01-.64-.47l.476-2.041-1.591-1.375a.444.444 0 01-.148-.29.436.436 0 01.396-.466l2.089-.18.82-1.924a.4.4 0 01.227-.227.428.428 0 01.565.227l.82 1.924 2.093.18a.444.444 0 01.291.148.429.429 0 01-.053.608z"/></svg>