<svg data-tags="thickness,border,stroke,line weight,weight" xmlns="http://www.w3.org/2000/svg" viewBox="0 0 14 14"><path d="M.712 9h12.576a.735.735 0 0 0 .506-.246A2.857 2.857 0 0 0 14 7.681a2.187 2.187 0 0 0-.206-.935.735.735 0 0 0-.506-.246H.712a.735.735 0 0 0-.506.246A2.187 2.187 0 0 0 0 7.68a2.857 2.857 0 0 0 .206 1.073A.735.735 0 0 0 .712 9ZM13.794 10.662a.735.735 0 0 0-.506-.245H.712a.735.735 0 0 0-.506.245.825.825 0 0 0 0 1.092.735.735 0 0 0 .506.246h12.576a.735.735 0 0 0 .506-.246.825.825 0 0 0 0-1.092ZM.712 5.246h12.576A.734.734 0 0 0 13.794 5 5.522 5.522 0 0 0 14 3.5a3.874 3.874 0 0 0-.206-1.254.735.735 0 0 0-.506-.246H.712a.735.735 0 0 0-.506.246A3.875 3.875 0 0 0-.001 3.5 5.524 5.524 0 0 0 .206 5a.734.734 0 0 0 .506.246Z"/></svg>
