<svg xmlns="http://www.w3.org/2000/svg" viewBox="0 0 20 20"><path d="M3.35 3.614a.796.796 0 01.078-1.123 10.04 10.04 0 011.88-1.29.796.796 0 01.746 1.405 8.45 8.45 0 00-1.581 1.086.793.793 0 01-1.123-.078zM.925 8.224a.796.796 0 00.987-.54 8.4 8.4 0 01.745-1.768.796.796 0 00-1.386-.782 9.966 9.966 0 00-.887 2.104.796.796 0 00.541.987zm.992 4.202a8.409 8.409 0 01-.327-1.89.796.796 0 00-1.589.091c.044.763.175 1.519.39 2.248a.796.796 0 101.526-.45zm2.57 3.985a8.478 8.478 0 01-1.3-1.413.796.796 0 00-1.286.938c.448.615.967 1.18 1.543 1.678a.793.793 0 001.123-.08.796.796 0 00-.08-1.123zM8.665 1.725a.802.802 0 00.114-.009 8.526 8.526 0 011.92-.057.796.796 0 10.131-1.586A10.173 10.173 0 008.553.14a.796.796 0 00.113 1.584zm9.25 5.476a.796.796 0 101.498-.538 9.987 9.987 0 00-1.012-2.045.796.796 0 10-1.337.864 8.41 8.41 0 01.85 1.719zm-4.44-4.819a8.425 8.425 0 011.643.99.792.792 0 001.116-.146.796.796 0 00-.145-1.116A10.018 10.018 0 0014.135.933a.796.796 0 00-.66 1.449zm4.699 11.974a.796.796 0 00-1.1.238 8.472 8.472 0 01-1.216 1.486.796.796 0 001.11 1.14 10.064 10.064 0 001.444-1.764.796.796 0 00-.238-1.1zM20 10.023a.796.796 0 00-.796-.793h-.003a.796.796 0 00-.793.8v.016c0 .644-.073 1.285-.216 1.906a.796.796 0 101.55.36c.171-.74.258-1.502.258-2.266v-.023zM8.799 18.378a8.368 8.368 0 01-1.855-.485.796.796 0 00-.577 1.483c.71.276 1.453.47 2.209.578a.796.796 0 00.223-1.576zm4.693-.676a8.364 8.364 0 01-1.823.593.796.796 0 10.315 1.56 9.958 9.958 0 002.17-.706.796.796 0 10-.662-1.447zm3.445-7.656A6.945 6.945 0 115.558 4.702c-.003.013-.001.024-.022.042-.04.034-.003.072-.04.097a.143.143 0 00-.033.034c-.025.034-.051.081-.085.116-.049.048-.072.12-.173.197a.756.756 0 00-.234.297c-.08.154-.118.173-.172.223-.055.05-.055.066-.055.129s-.015.113-.044.134c-.03.022.006.03-.03.114-.035.084-.033.093.028.13s.044.022.027.093c-.011.049 0 .079-.002.118a.17.17 0 01-.013.065c-.03.08-.023.171-.048.228-.025.057.038.048.031.132-.006.085-.037.1-.09.1s-.006.06.042.117c.048.057.078.047.053.12a.228.228 0 00.033.213c.047.065.024.116.04.082.017-.034.038-.034.038-.093s-.006-.048-.036-.052c-.029-.004.003-.047.003-.1 0-.052-.017-.043-.005-.092a.198.198 0 00-.028-.166c-.04-.065-.01-.028 0-.122.01-.095.026-.108.007-.169-.019-.06 0-.113.061-.185.061-.071.021-.027.03-.023a.15.15 0 01.042.078c.006.036-.013.044-.025.082-.013.038-.009.078-.028.101-.019.023.02.044.021.086.002.042.01.04.036.063.025.024.015.024.012.066-.003.042.032.038.01.078-.024.04 0 .122.03.151.032.03.039.068.037.122-.003.055.054.053.054.173s.042.12.055.15c.013.029.002.065-.023.109s-.049.082-.04.137c.008.054.103.11.108.139.005.028.04.085.128.094.087.01.03.007.063.046.033.04.076.076.107.096.032.021.074.023.164.064.09.04.029.044.064.049.034.004.031.006.11.034.079.029.05.013.096-.012.046-.026.07-.089.157-.078.087.011.001.02.083.03.082.011.01 0 .037.032a3.678 3.678 0 01.165.216c.059.084.1.046.174.041a.382.382 0 01.039-.001c.024.001.008.013.008.052 0 .052.021.034.083.064.061.03.075.01.141-.03.066-.039.024.018.007.054s-.002.036.055.084c.057.047.057.134.144.14.086.007-.003-.045.019-.09.022-.044.096.084.123.117.027.033-.013.013-.063.013s-.022 0-.062.023c-.04.024 0 .051 0 .094 0 .042.011.077.087.07.076-.006.082.043.082.043l.041.048s.024.045.024.072c0 .027-.005.027.05.073.056.046.094.002.094.002s.128.042.16.044c.03.001.016.003.067.036.05.033.019.046.03.095s.017-.002.062-.018c.044-.015.053-.04.053-.04l-.012-.045-.046-.061s.061-.011.091-.02c.03-.007.043-.055.078-.072.035-.017.148.027.153.071.005.044.003.074.013.107.009.034.056.056.064.086.008.03.046.08.032.1-.014.021.036.05.006.08s.013.128-.019.176c-.031.05.018.08.018.132 0 .052-.062.118-.08.123-.017.004-.11.008-.12.06-.009.052-.047.052-.047.052s-.01.019-.003.038c.006.019.003.023-.025.057-.029.033-.032.012-.126.018-.095.007-.027.005.012.068.04.064-.014.024-.035.038-.02.014-.022.05-.044.089-.022.04-.033.006-.027.047.007.041.016.08-.017.134-.033.054-.01.041.016.071.025.03.031-.001.098.043.066.044.012.08-.03.08-.043 0 0 0-.046.032s-.019.02-.092.107c-.072.087-.012.038.04.112.052.075.014.087-.018.098-.031.011.056.04.165.117.109.078.038.02.058.076.02.055.013.028.076.085.063.057.118.245.16.288a.2.2 0 01.06.134c.003.042-.002.047.039.047.04 0 .072.08.126.14.054.058.062.072.063.111.002.04-.012.057 0 .092.013.035.067.063.164.137.098.074.136.112.351.19.215.077.043.034.13.075.086.041.006.034.025.056.019.022.076.014.123.045.02.014.03.02.037.027.008.008.008.014.012.033.006.034.012.05.03.144.017.095.008.054.014.144s-.008.047-.022.147c-.014.1-.006.139-.043.168s-.027.035-.003.057c.024.023.01.043.025.119.016.076.018.106.004.137-.015.032.017.052-.011.095-.029.043-.02.049-.015.095.005.045-.008.072-.049.139-.04.066.007.067.008.148.002.08-.047.07-.033.126.014.057.025.082.035.14.01.06-.002.06-.014.111a2.66 2.66 0 01-.05.183c-.012.035-.012.056-.039.119s-.04.02-.04.061c0 .042-.004.023-.03.042-.028.018-.021.014-.007.055.014.04.022.068.038.102a.27.27 0 01.019.05l-.024.042c-.014.025-.013.02-.035.046-.022.025-.01.049-.001.082.01.033 0 .01.003.055.003.044-.005.04-.013.063-.008.024-.016.032-.04.059-.023.027-.006.014 0 .03.007.015.026.001.06.001.032 0 .012-.006.018-.01.006-.006.025-.06.025-.06s.008-.043.037-.088c.028-.044.055 0 .055 0l-.005.067-.028.064c-.016.038-.011.027-.008.07.003.043-.005.064-.005.116s-.017.052-.029.051c-.011 0-.02-.013-.035-.037-.013-.023-.009-.032-.022-.059-.012-.026-.004.013-.022.033-.018.02-.025.02-.032.047-.008.028-.026.031-.064.033-.037.002-.068 0-.145 0s.03.009.081.021c.052.013.09.012.123-.005.034-.017.02 0 .03.004.01.003.03.003.06.004.031.001.01.025-.01.03-.02.005-.022.011-.03.027-.006.016.02.026.02.026s-.006.027-.02.025c-.012-.002-.02-.007-.036-.01-.016-.003-.04.012-.05.018-.008.006.02.034.02.034s.015-.009.036-.014c.021-.005.015.056.029.062.013.006.01.06.01.063l-.001.001.002-.003a.056.056 0 01.017-.017.164.164 0 01.037.01v.019l-.035.017c-.02.01-.004.011 0 .018.004.006.04 0 .04 0s.035.006.05.019c.017.012.058.036.058.036s-.005.038-.021.034c-.017-.004-.02-.013-.028-.015s0 .017-.01.03c-.01.012 0 .025 0 .025l.073.025.072.036.059-.006.042-.02.021.02s-.008.025-.008.033c0 .009.075.034.075.034s.049.006.068.012c.019.006.062-.012.098-.004.037.009.099 0 .099 0l.117-.01s.02-.004.033-.013c.013-.008-.04-.014-.059-.025a.83.83 0 00-.078-.036c-.017-.006-.036.017-.049 0-.012-.016-.034-.035-.04-.048a.347.347 0 00-.058-.08c-.025-.022-.039-.05-.012-.074.016-.016.018-.018.081-.02.064-.001.043-.012.048-.049.005-.036.005-.036.065-.061.06-.026.067-.02.126-.108.058-.088-.006-.031-.016-.025-.01.006-.055.024-.13-.019-.077-.042-.023-.047.002-.084.025-.036.082-.039.145-.042.064-.003.013-.022.045-.044.031-.022.017-.008.027-.046.009-.038-.002-.046.058-.068.06-.022-.032-.041-.022-.066.01-.026-.029-.007-.016-.064.013-.056-.038-.009-.013-.075.026-.067.073.025.225.028.151.003.11-.04.11-.04s-.066-.06-.022-.092c.044-.032 0-.048.003-.105.003-.057.032.003.101.016.07.013.152.019.382-.06s.225-.18.187-.186c-.038-.007-.06 0-.029-.032.032-.031.003-.05-.012-.072-.016-.023-.114-.07-.117-.083-.003-.012 0-.034.025-.031.025.003.164.057.164.057s.123.019.202.022c.08.003.089-.01.152-.066.025-.023.051-.05.08-.08.045-.047.097-.1.16-.148a.277.277 0 01.072-.049.18.18 0 00.007-.038c0-.019.027-.042.027-.042l.049-.076s.022-.006.034 0c.013.006.03.025.016.04-.014.014-.058.045-.076.07-.009.014-.017.027-.016.035a.623.623 0 00.045-.019c.118-.053.09-.1.152-.17a.336.336 0 01.175-.122c.093-.034.046-.07.063-.154.017-.084.01-.087.055-.171.046-.084.055-.046.133-.101.077-.055.097-.096.186-.138.088-.04.076-.075.142-.072.066.003.038-.003.092-.057.053-.054.116-.032.243-.022.126.01.038-.041.091-.066.054-.026.063-.038.08-.095.015-.057.04-.082.094-.117s.057-.044.079-.088c.022-.045.054-.057.082-.114.028-.057.041-.133.057-.107.016.025.01-.048.066-.127.057-.079.054-.154.076-.24.022-.085.035-.199.057-.274.022-.076.05-.057.063-.01.013.047.032-.057.107-.148.076-.092.11-.146.136-.18.025-.035.057-.054.107-.127.051-.072.07-.142.14-.243.069-.1.025-.24.018-.322-.006-.082-.06-.091-.148-.088-.088.003-.093.006-.234-.12-.14-.127-.223-.13-.278-.129-.054.002-.162.015-.17-.006-.009-.021-.032-.023-.053.002-.02.025-.042.002-.126-.042-.084-.044-.08-.006-.126.032-.047.037-.1.09-.1.084 0-.007.005-.028.005-.042a.21.21 0 01.027-.08c.021-.045-.002-.068-.019-.09-.017-.024-.063-.028-.105-.022-.042.006-.002-.034-.023-.057-.021-.023-.118-.027-.21-.067-.093-.04-.114-.023-.16.006-.047.03-.047.1-.083.118-.036.02-.082.055-.08.044.002-.01-.033-.025.009-.04.042-.014.035-.023.08-.06.044-.039.02-.05.04-.104.019-.055-.002-.02-.063-.03-.062-.008-.123-.056-.181-.094-.06-.038-.055.055-.055.055s-.063.014-.097.054a.308.308 0 00-.063.118c-.013.042-.057.03-.044-.004.012-.034.042-.055.103-.151.06-.097.027-.015.067-.04.04-.024.028-.012.035-.04.006-.029.083-.11.083-.144 0-.033-.032 0-.055-.006s-.059-.059-.092-.143c-.034-.084-.029-.177-.102-.19-.036-.006-.102-.013-.102-.023 0-.011.043-.026.015-.046-.055-.04-.026-.01-.06-.063-.035-.054-.038-.044-.079-.054a.562.562 0 01-.102-.039l.001-.002a2.295 2.295 0 01-.053-.025c-.08-.038-.092 0-.092 0s-.095-.02-.136.022c-.04.041-.044-.01-.142-.01-.055 0-.07-.004-.076-.014-.004-.008-.005-.02-.015-.036-.026-.038-.123-.065-.186-.065-.064 0-.008-.02-.002-.06.006-.04-.006-.02-.04-.062-.027-.035-.065-.045-.111-.067a.424.424 0 01-.034-.018c-.061-.035-.061-.014-.082-.031-.02-.015-.016-.03-.032-.077a.444.444 0 00-.006-.016c-.016-.04-.057-.052-.091-.06a.228.228 0 01-.04-.007c-.027-.008-.123-.033-.14-.045-.018-.013-.018-.053-.037-.092-.019-.04-.027 0-.147-.006-.12-.007-.091-.005-.093.026-.002.032-.002.03-.063.062-.062.032-.055.025-.119.01-.063-.016-.115-.078-.146-.103-.032-.025-.043-.002-.09.025-.048.027-.075.025-.138.016-.063-.01-.036-.027-.033-.088.003-.062-.054-.06-.2-.078-.147-.017-.116.044-.2.057-.086.013-.06-.002-.06.043 0 .044.05.132.051.183.002.05-.01.047-.05.06-.041.012-.052.036-.05.01 0-.028-.023-.039-.043-.078-.021-.04.012-.032.02-.06.008-.029.024-.017.043-.047.019-.03-.005-.056-.01-.084-.005-.029-.019-.03-.046-.076-.026-.046.005-.025.05-.041.047-.016.037-.024.056-.073.02-.049-.038-.042-.112-.02-.074.022-.036.085-.07.068-.033-.018-.053-.03-.063.028-.009.059-.061.054-.08.046s-.066-.028-.076-.014c-.01.014-.014.053-.055.04-.041-.015-.03 0-.09.028s-.06.112-.06.19c0 .08-.05-.012-.088.058s-.095.009-.095.1c0 .092-.022.037-.027.023a.095.095 0 00-.014-.025.43.43 0 00-.038-.045c-.035-.036-.048-.019-.1-.088-.052-.07-.188-.01-.273 0-.085.01-.125.043-.192.063-.068.02-.08-.022-.098-.062-.018-.04-.021-.01-.023.02-.003.028-.015 0-.03-.004-.015-.003-.022-.015-.014-.046.007-.025-.004-.023-.026-.028a.119.119 0 01-.019-.006c-.034-.014-.04-.034-.052-.059-.013-.025-.018-.033-.03-.076a.294.294 0 00-.024-.06s-.016-.031-.03-.066c-.014-.035-.011-.033.019-.052.03-.019 0-.011-.007-.057-.006-.046.012-.028.05-.055.037-.027-.002-.062-.004-.102-.002-.04.004-.025.023-.065.02-.04.028-.046.05-.084.022-.037-.018-.059-.03-.057-.013.002-.052.011-.08.013-.03.001.028-.013.048-.033.02-.021.04-.01.059-.027.019-.018.01-.022-.011-.026-.022-.003-.04-.019-.08-.047-.039-.028-.083-.013-.105-.04-.022-.026-.074.023-.104 0-.03-.022-.04.003-.09.02-.05.016-.105 0-.158-.02-.052-.018-.056.02-.075.003-.02-.017-.009-.01-.049-.002s-.034-.017-.057-.017c-.007 0-.006-.004 0-.01.014-.012.051-.036.087-.064.052-.042.038-.088.044-.141.006-.053.025-.048.057-.061.016-.007.01-.01.011-.025.001-.015.008-.04.043-.09.074-.106.04-.06.043-.098.002-.038.004-.06.023-.086.019-.025.082-.082.11-.12.027-.038.029-.065-.032-.059-.061.006-.074.034-.101.002-.028-.031-.137-.006-.215.004-.078.01-.084.043-.103.12a.597.597 0 01-.082.19c-.028.038-.057.05-.167.057-.11.006-.023.017-.082.025-.059.008-.048.006-.128.048s-.08-.02-.103-.063c-.024-.042-.074.01-.11-.03-.036-.04-.011-.078-.01-.122.002-.045-.047-.048-.051-.124-.005-.075-.024-.097-.024-.208 0-.11 0-.07.057-.19s.019-.104.057-.148a.135.135 0 00.027-.05c.009-.033.008-.067.01-.098.004-.05 0-.032.024-.063.024-.032.027-.037.027-.076 0-.04.014-.044.052-.08.038-.034.047-.026.063-.054.016-.029.011-.01.062-.01.05 0 .025-.005.047-.025s.013-.002.048-.006c.034-.005.025-.01.031-.034.006-.023-.008-.033.016-.064.024-.032.013.023.106-.008.093-.032.038-.024.1.005.06.028.046.01.1-.007.054-.017.022.024.05.029.026.004.032.004.07.02.038.016.054.005.071-.019.018-.023.024.002.048.02.023.02.015-.02-.01-.058-.025-.038.005-.031.008-.07.003-.037-.014 0-.049 0s-.03-.01-.008-.034.048.006.128.013c.08.006.073-.016.085-.032.013-.016.008.005.01.036.001.032.02-.001.089-.014.07-.012.032-.028.132.01s-.008.061.087.083c.094.023.08-.034.136-.034s.055.015.083.06c.027.043.071.018.081.075.01.057-.029.063-.033.114-.004.05.006.122.033.122.028 0 .007.03.022.05.014.021.073.129.092.133.02.004.053.03.108-.03.054-.059.059-.17.023-.216-.036-.047-.009-.06.002-.101.01-.043-.01-.04-.034-.097-.023-.057-.027-.09-.035-.135-.009-.044-.03-.042 0-.086.029-.045.054-.11.09-.14.036-.03.044-.027.136-.086.091-.058.098-.072.148-.11.05-.038.116-.025.128-.05.013-.026.026-.02.096-.046.071-.025.048-.018.105-.045.056-.028.091-.075.04-.11-.053-.035 0-.02.084-.033.086-.013-.01-.027-.038-.05-.026-.021-.022-.047-.014-.08.008-.033.02-.04.014-.088-.006-.05.013-.065.053-.103.039-.038 0 .014-.008.06s.001.032.033.052c.031.02.028.02.036-.01.008-.032.006-.058.02-.088.012-.03.009-.003.046.02.038.025.02-.009.059-.046.04-.038.028-.029.043-.073 0 0-.045-.027.018-.035.064-.008.01-.022.042-.047.031-.025.017-.005.104-.002s.085.003.107-.035c.022-.037.013 0 .059.023.045.022.069-.046.058-.057-.011-.011-.046-.018-.041-.06.005-.043.001-.05.09-.11.088-.058.057-.013.1-.042.045-.028.032-.025.072-.02.04.004.047-.008.076-.01.028-.001.03-.02.086-.021.054-.002.031-.015.03-.048-.001-.032.006-.013.072-.017.065-.003.107-.023.168-.04.061-.019 0 .02.002.025.002.005.023-.001.084.007.061.008.001.016-.005.027-.006.012-.028.01-.055.005-.026-.007-.026-.013-.05-.004-.024.01-.095.03-.095.03s-.006.016-.025.048c-.02.033-.02.03-.023.052-.005.02.026.044.043.045a.36.36 0 00.09-.024c.029-.01.05-.035.07-.048.022-.014.002-.016.016-.037.013-.021.03.014.03.014s.017 0 .041-.015c.024-.016.014-.007.05-.009.035-.002.044.001.065-.019.021-.02.013-.01.081-.02s.03-.024.014-.05c-.017-.024-.016 0-.041-.02s0-.012-.022.002c-.023.014-.025-.003-.09-.003s-.096-.017-.099-.036c-.003-.02.005-.02-.057-.033-.061-.013-.027-.02-.027-.063 0-.045 0-.01-.037-.01-.038 0-.008-.006.012-.041s.024-.027.033-.044c.01-.018-.034-.006-.063.01-.028.018-.046.012-.06-.011-.015-.023-.02-.017-.057-.021-.036-.004-.01-.007.001-.01.01-.003.015-.005.044-.005.028 0 .045.01.045.01l.06-.007s.031-.003.08-.017c.05-.013.048-.02.014-.038-.034-.017-.043-.034-.117-.037-.074-.003-.21.03-.21.03l-.117.034a.382.382 0 00-.11.061c-.038.029-.05-.003-.025-.03.025-.028.064-.043.115-.086.051-.043.055-.003.11.002.055.004.044-.01.085-.067.041-.057.038-.019.085-.031.048-.013.146 0 .146 0s.113.01.284.019c.17.01.082-.02.186-.073.104-.054.055-.056.157-.06.102-.004.07-.01.07-.01s.027 0 .069-.038c.042-.038-.023-.014-.015-.051.008-.038-.01-.038-.047-.062-.038-.024-.05.002-.056-.025-.004-.027.008-.013-.08-.013s-.112.025-.142.036c-.03.011-.041.013-.065.008-.024-.004.025-.025.025-.025s.062.002.09-.011c.029-.013.026-.011.073-.027s.05-.014.024-.03c-.027-.016.015-.025-.05-.013-.067.013-.073 0-.085-.028-.01-.028-.009 0-.06.005-.05.005-.053 0-.06-.038-.006-.038-.066-.01-.107-.01-.04 0-.024-.025-.001-.063.022-.038-.007-.01-.008-.044-.002-.033-.011-.019-.087-.05-.076-.032-.101-.057-.156-.111-.056-.054-.026.002-.032.011a1.29 1.29 0 01-.06.079c-.016.019-.036 0-.106.036-.07.037-.06.011-.06.011s-.038-.036-.082-.061c-.044-.025 0 0-.04-.033-.039-.033 0-.026.008-.09.008-.065 0 0-.064.01-.065.012-.04.002-.048-.028s-.044-.02-.096-.053c-.052-.034-.033-.002-.096-.008-.063-.007-.092 0-.19.003s-.022.028-.044.054c-.022.025-.073.015-.044.069.028.054-.035.06-.117.07-.082.009-.022.012.092.082.113.07.01.066-.016.116-.025.051-.101.06-.196.07-.095.01-.123.01-.073.035s-.006.126-.006.126l-.028.173s-.048.11-.089.11h-.029c-.028 0-.053-.12-.053-.12s-.04-.078-.054-.129a.164.164 0 010-.097.46.46 0 01.054-.103c.032-.05-.044-.005-.085 0-.041.007-.07.004-.12.004-.05 0-.041-.013-.123-.058-.082-.044-.07-.013-.14-.064-.069-.05-.155 0-.218.015-.063.016 0-.027.004-.076.004-.05-.003-.05-.027-.069-.024-.019.025-.042.15-.111.123-.07.113-.075.214-.08.101-.003.07-.04.153-.067.082-.027.18.035.209 0 .028-.036.054-.034.112-.069.057-.035.053-.034.07-.05.017-.016.085.008.123-.005.038-.012.106-.03.18-.055.073-.025.012-.04.003-.09-.008-.05.17.028.215.026.037-.001.044-.07.05-.07h.017c-.011 0-.009.022-.01.064-.002.059 0-.002.036-.002s.036.006.078.027c.042.021-.002.01-.012.023-.01.012-.09.027-.09.027s-.071.019-.033.023a.388.388 0 00.099 0c.044-.003.03-.02.063-.05.034-.032.017.004.065-.01.049-.012.044.014.044.024s-.025.021-.067.036c-.042.015-.044.017-.063.031-.019.015-.114.028-.114.028s-.147.02-.166.031c-.018.01.038.038.103.035.065-.004.084-.014.159-.016.074-.002.047.026.1.057.053.032.036.032.061.025.025-.008.063-.006.063-.006l.192.019s.084.002.118-.013C9.937 3.59 9.8 3.6 9.8 3.6s-.085-.027-.116-.053c-.032-.025.126.011.126.011l.116.019s.042-.017.057-.037c.014-.02-.004-.03-.055-.049-.05-.018-.088.004-.122-.017s-.017-.038-.013-.044c.004-.007.167.059.167.059s.04.012.082-.015l.09-.061c.017-.013-.168-.03-.168-.03l-.124-.01-.11-.038s.02-.004.067-.03c.049-.025-.044-.014-.044-.014l-.097-.013-.115-.008-.116-.057.08-.03s.046-.022.092-.036c.04.002.088.007.148.017.248.045.103-.014.286.002.183.017.23.005.23.005l.15.052c.149.053.024.015.096.038.071.023.034 0 .09 0 .057 0 .028.021-.008.021s-.036.009-.088.02c-.053.01.006.016.073.035.068.019.082-.021.082-.021s.013.021 0 .038c-.012.017-.012.008-.04.04-.027.031 0 0 .042.042s.097.071.14.105c.042.034.263.133.263.133l.17.015s.076.002.15.031c.073.03.04.038.058.038.02 0 .137.023.144.015.006-.009-.04-.078-.064-.122-.023-.045-.002-.053-.002-.053l-.01-.034s-.032-.067-.006-.086c.025-.018.037-.002.157 0s.045-.004.013-.048c-.032-.045-.004-.026.017-.026.02 0 .042.013.057 0 .014-.012.03-.012.082-.012.046 0 .085.003.061-.03a6.956 6.956 0 013.79 2.696c-.106-.043-.134-.064-.162-.042-.028.022-.07.06-.07.079 0 .019.095.012 0 .019-.094.006-.11.025-.129 0-.019-.026-.063-.136-.057-.086.007.05.07.152.057.2-.012.047-.012.088-.016.145-.003.056.057.243.057.243s.082.025.06.12c-.022.094-.022.107-.035.148-.01.034-.04.016-.05.063.11-.002.237.032.237.032s.04.035.101.095l.001-.002a.157.157 0 00-.022.084c.004.046-.017.084-.057.063-.04-.021-.15-.126-.112-.034.038.093.11.14.06.19-.051.05-.09-.064-.051.05.038.114.135.249.063.253-.052.003-.172-.03-.265-.027.033.09.043.106.073.152.032.047-.031.064.034.148.065.085.053.184.05.22a.277.277 0 00.027.14c.026.064-.02.104-.026.137-.007.034-.005.015.044.101.048.087.088.053.057.133-.032.08 0 .122.046.17.046.049.061.005.063.078a.11.11 0 00.041.08c.021.017.042.026.045.03.007.008.104.1.1.17-.005.068.041.185.162.345l.01.013c.128.167.145.354.23.268.084-.087.174-.108.191-.12.017-.013.015-.045.061-.049.046-.004.07-.004.063-.048-.006-.044.028-.093.044-.108 0 0-.014-.427 0-.46a.422.422 0 00-.031-.22c-.006-.009-.012-.014-.018-.015.006 0 .014.005.02.015a.42.42 0 01.031.22c-.015.033 0 .46 0 .46.016-.014.064-.048.072.074.009.122-.006.128.028.126.033-.002.082-.03.09.072.003.04.034-.304.07-.738.046.327.071.66.071 1zM8.645 3.438c.015-.004.025-.012.033-.012h-.011c-.084 0-.095.002-.095.002s-.048.013-.013.02c.034.006.02.01.086-.01zm.128.029c-.001-.018-.033-.033-.033-.033s-.05.038-.086.032c0 0 .01.063.024.063h.086s.011-.044.01-.062zm.06-.057a.554.554 0 00-.06-.028c-.057-.022-.062.03-.095.03h.041l.114-.002zm0 .001c.038.02.06.033.059.005-.002-.041-.039-.005-.039-.005h-.02zm.072.046l-.043.013-.018.04s.046.016.06 0c.016-.018 0-.053 0-.053zm-.822 3.669c.093.123.06.12.093.123.033.002.059-.015.052-.067-.006-.052-.052-.147-.086-.14-.077.014-.152-.04-.059.084zm.508.618c-.028-.037-.084-.03-.134-.076-.05-.045-.013-.047-.058-.047-.046 0-.1-.043-.169-.07-.069-.025-.052.003-.125-.068-.074-.072-.013-.029-.169-.048-.155-.02-.11-.048-.11-.048l-.192-.04-.186.023s-.178.024-.206.06c-.028.037-.035.05-.095.066-.034.008-.008.025.033.032.04.006.045.009.106-.052.06-.06.04-.017.136-.039.095-.021.039-.03.095-.037.056-.006.097.028.056.041-.041.013-.043.016.035.037.077.022.039.02.101.015.063-.004.048.02.104.033.056.013.054.034.145.028.09-.007.045 0 .06.047.016.048.03.059.132.087.102.028-.084.095-.054.104.03.01.113-.005.376 0 .264.004.147-.011.12-.048zm.66.167c-.083-.052-.07-.061-.225-.08-.156-.02-.065.032-.136-.011-.072-.043-.085-.026-.173 0-.057.017-.009.05.06.05.07 0 .048.023.048.064s-.028.035-.07.048c-.04.013-.077.035-.2.043-.124.009 0 .052 0 .052s.073.024.19.017c.117-.006.078-.034.184-.004l.005.002c.097.03.015.09.05.076.037-.015.06-.07.102-.104.042-.035.041.026.124-.006.082-.033.015-.03.118.019.104.05.087.039.122-.026.034-.065-.117-.089-.2-.14zm.644.205c-.004-.002-.043-.016-.087-.039s-.004-.009-.071-.021c-.068-.012-.035-.002-.084-.004-.084-.004-.074.08-.014.077.06-.003.03-.002.094.041.065.043.026-.014.059-.023.032-.01.106-.029.103-.031zm.617-3.392c.004-.011-.043-.005-.065-.023-.023-.017-.008-.011-.02-.089-.011-.078-.024-.014-.024-.014l-.073.071s-.009.021-.015.066c-.004.031.033.036.054.033.02-.003 0 0 .005-.018s.02-.024.02-.024.019.027.03.037c.011.01 0 0 .045-.01.046-.01.038-.018.043-.029zm.541-.162c.026-.01.042-.021.044-.028.001-.006.03-.011 0-.037-.031-.026-.088-.005-.054-.045.034-.04.132-.018.026-.057-.105-.039-.099-.039-.147-.037-.049.001.013.037-.078.006-.09-.03-.122-.027-.088-.063.034-.036.09-.086.081-.104-.008-.018-.022-.03-.06-.023a.284.284 0 00-.08.034c-.01.04-.028.08-.028.08l-.055.084-.033.065s.013.003-.014.018c-.028.014-.1.006-.05.018.05.011.095.003.04.032-.055.03-.13.044-.058.049.073.005.23 0 .23 0l.053-.005.057.04s.065-.017.09-.017h.01c0 .01-.004.021-.017.032-.04.034-.106.011-.072.037s.031.04.075.013a.177.177 0 00.053-.057c.017.013.041.006.052-.008.013-.016-.003-.017.023-.027zm.159-.016c-.028.008-.023.014-.045.027-.023.013-.018.03-.023.013-.005-.016-.005-.071-.005-.071-.042.02-.047.044-.047.044s-.032.008-.026.039c.007.03.007.035.007.048 0 .013.04-.035.044 0 .004.036.012.042.012.042l.062-.017.037-.047.01-.038s.002-.048-.026-.04zm1.503-1.064s-.219-.123-.274-.13c-.055-.006-.15 0-.15 0l.033.085.22.02c.103.007.124.048.17.025zm1.46.824a2.528 2.528 0 00-.283-.179c-.039 0-.042.036-.042.036l.065.162.162.097s.09-.003.097-.016c.007-.013.03-.065 0-.1zM8.84 16.45c.005-.002.01.002.014.007.004 0 .007-.001.006-.003 0-.009-.02-.013-.02-.013s-.014.016 0 .01zm.045.055H8.87s-.007-.028-.016-.039c-.012.002-.05-.006-.057 0-.008.007-.061.015-.061.015v.025l.063.013.047.002s.03-.016.039-.016zm1.67-.018c-.15-.004-.188.029-.217.022-.055-.012-.095-.047-.089 0 .007.048.024.06-.013.063-.036.002-.067-.002-.023.026.043.028.082.006.125-.015s.117-.098.06-.034c-.056.064-.12.089-.023.062.097-.026.047-.041.134-.043.086-.003.108.013.117-.003.008-.015-.03-.032-.037-.058-.007-.026.114-.017-.035-.02zm1.787.171c-.048-.06-.006-.062-.058-.067l-.113-.01c-.039.01-.024.052-.024.052l.055.038s.077.042.103.026c.026-.015.085.022.037-.039zm2.672-11.25c-.002.1.063.195.063.195s.039.065.069.095c.03.03.199.192.257.19.059-.004.072.103.081 0 .01-.105.04-.075 0-.137-.039-.062-.061-.107-.094-.152-.032-.046-.08-.059-.08-.137 0-.077 0-.077.006-.13.006-.051-.64-.641-.64-.641-.122 0-.249-.114-.122 0 .126.113.142.136.142.136l.117.107s.21.165.201.22c-.01.055-.25-.058-.227 0 .023.059.23.155.227.254zm.1 2.759c-.032.018-.029.03-.029.03l.03.018.026-.008-.026-.04zm-.153.057s.017-.036 0-.05c-.018-.015-.046 0-.046 0-.014.029-.016.038.01.05.026.01.036 0 .036 0zm.051.176l-.03-.032-.025.032.037.033.018-.033zm.026-.12l.025-.029-.04-.029c-.03.018-.035.026-.022.036.013.01.037.022.037.022zm.064.158l-.017-.047c-.001-.007-.035.01-.035.01.003.012.01.03.024.037.015.006.028 0 .028 0zm.07-.049l-.05-.039c-.01.011-.02.016 0 .03.019.015.015.045.033.027l.018-.018zm.006-.088l-.037-.05c-.028.013-.028.036-.028.036l.037.027.028-.013zm-7.703-4.92c.073-.023.045-.036.108-.023.064.013.098.02.114-.023.007-.02-.003-.031-.01-.04-.088.03-.176.061-.262.094.006.003.02 0 .05-.008zm2.273-.441c.06.004.029.002.138 0 .108-.001.165-.011.194-.013l.14-.01a7.134 7.134 0 00-2.219.278c.062.004.103.006.083.017-.022.013-.05.016-.08.037-.032.021-.066.02-.105.02-.038 0-.08.011-.053.026.028.014.039.042.148.008.108-.034.154-.038.207-.038s.107.007.118-.037c.012-.044.07-.086.119-.105.048-.02.157-.046.112 0-.046.045-.145.09-.073.09.071 0 .125-.046.173-.046.049 0 .078.016.047.032-.03.016-.057.01-.05.034.006.024-.013.018.006.024.02.007.041-.005.042-.02.001-.015.014-.019.05-.027.035-.009.098 0 .111-.037.013-.037-.01-.036-.052-.04-.042-.005-.024-.057.047-.067.072-.01.091-.028.096.008.005.036-.007-.037.058-.044.065-.006.08-.002.153 0 .06.002.086-.009.09.004.055-.013.107-.03.135-.036.037-.008.076-.041.204-.037a.268.268 0 01.046-.01c.056-.006.055-.016.115-.011z"/></svg>