<svg data-tags="comparison,compare,benchmarks,strategy,balance" xmlns="http://www.w3.org/2000/svg" viewBox="0 0 14 14"><path d="M13.73 7.428a24.386 24.386 0 00-1.086-2.872c-.207-.48-.42-.958-.636-1.435l-.21-.47a.44.44 0 00-.288-.263 1.744 1.744 0 00-.234-.034 255.83 255.83 0 00-2.51-.364L7.62 1.824l-.01-.18v-.63a.574.574 0 00-.114-.371.584.584 0 00-.456-.205.674.674 0 00-.224.038.522.522 0 00-.337.522v.653s-.606-.069-1.056-.117a114.76 114.76 0 01-2.61-.294.744.744 0 00-.12-.01.547.547 0 00-.525.38c-.319.703-.638 1.405-.944 2.114A22.299 22.299 0 00.23 6.401a2.631 2.631 0 00-.052 1.45 2.547 2.547 0 002.48 1.907 2.651 2.651 0 00.465-.04 2.566 2.566 0 002.098-2.482 3.164 3.164 0 00-.17-.922 29.875 29.875 0 00-1.14-3.02l-.347-.813.176.026q.668.094 1.338.169c.47.054.938.109 1.31.164l.086.013v9.577l-3.47.001a.498.498 0 00-.476.319.597.597 0 00.097.644.56.56 0 00.468.168l7.986-.002a.498.498 0 00.48-.325.59.59 0 00-.102-.641.554.554 0 00-.454-.165l-3.388.001V3.024l.114.016c.4.056.873.111 1.347.166.47.056.94.111 1.34.166l.08.14-.215.488c-.129.291-.258.582-.382.876a24.226 24.226 0 00-.952 2.538 3.009 3.009 0 00-.143 1.33 2.58 2.58 0 002.536 2.154 2.48 2.48 0 00.652-.088A2.57 2.57 0 0013.9 8.378a3.383 3.383 0 00-.17-.95z"/></svg>