<svg data-tags="SubCampaign,campaign,announcement,advertise,multiple" xmlns="http://www.w3.org/2000/svg" viewBox="0 0 14 14"><path d="M4.681 10.539c.172.006.31.062.41.154a.41.41 0 01.143.336c-.028.404.138.79.465 1.09.326.3.774.477 1.266.5.504.02.956-.112 1.26-.332.282-.214.656-.197.86-.015a.417.417 0 01.145.336.43.43 0 01-.19.32c-.542.402-1.242.623-1.969.623a2.77 2.77 0 01-.174-.006c-.785-.034-1.51-.32-2.04-.805-.528-.487-.794-1.112-.75-1.762.017-.244.247-.42.574-.439zm7.944-7.672C13.41 2.867 14 3.46 14 4.22v6.614c0 .761-.59 1.354-1.377 1.354-.224 0-.441-.049-.648-.145L7.273 10.05a113.64 113.64 0 00-2.736-1.123l-.13-.049-1.083.435c-.132.054-.324.003-.492-.16-.279-.267-.412-.864-.422-1.5v-.28l.007-.19v-.006a4.53 4.53 0 01.071-.605 2.314 2.314 0 01.143-.496 1.45 1.45 0 01.065-.136.87.87 0 01.157-.212c.129-.123.28-.18.398-.17l.066.015 1.104.404.616-.23a713.654 713.654 0 006.936-2.733c.044-.02.088-.04.133-.056l-.133.056a1.48 1.48 0 01.652-.146zM10.573.4c.947 0 1.656.69 1.729 1.565l.006.147v.06a2.11 2.11 0 00-.624.184l-6.567 2.59-.696.265-.857-.314c-.399-.145-.866-.015-1.207.31-.478.457-.648 1.259-.664 2.158l-.001.056-.285.116c-.239.097-.528.04-.773-.146l-.102-.088C.07 6.86.006 5.935 0 5.55v-.274c.007-.419.074-1.458.553-1.917.217-.207.495-.303.736-.26l.1.027.982.36C3.077 3.233 7.229 1.593 9.789.57c.23-.11.505-.171.784-.171z"/></svg>