<svg data-tags="subscript" xmlns="http://www.w3.org/2000/svg" viewBox="0 0 14 14"><path d="M12.92 11.978h-1.41v.83H14v.83h-3.07a.25.25 0 0 1-.249-.25v-1.16a1.082 1.082 0 0 1 1.08-1.08h1.41v-.83h-2.49V9.49h2.24A1.082 1.082 0 0 1 14 10.57v.33a1.082 1.082 0 0 1-1.08 1.08Zm-12.67 0h1.614a.25.25 0 0 0 .212-.117l2.747-4.38h.1l2.748 4.38a.25.25 0 0 0 .21.117h1.614a.25.25 0 0 0 .21-.384L6.18 6.081a.25.25 0 0 1 0-.27L9.447.748a.25.25 0 0 0-.21-.385H7.61a.25.25 0 0 0-.213.119L4.923 4.503h-.1L2.333.48A.25.25 0 0 0 2.12.362H.509a.25.25 0 0 0-.21.384l3.252 5.066a.25.25 0 0 1 0 .269L.04 11.595a.25.25 0 0 0 .21.383Z"/></svg>