<svg data-tags="omni,world,universal,care,supervisor,sheild,trust" xmlns="http://www.w3.org/2000/svg" viewBox="0 0 14 14"><path d="m6.87 9.178.004-.01h-3.32a2.884 2.884 0 0 1 2.92-2.638 2.97 2.97 0 0 1 1.973.743 4.188 4.188 0 0 1 3.87-.392 29.77 29.77 0 0 0 .412-5.158.613.613 0 0 0-.482-.602L6.62.008a.742.742 0 0 0-.21 0L.562.91a.631.631 0 0 0-.482.412.7.7 0 0 0-.05.25l.01.542C.1 7.29.16 12.174 6.41 13.98a1.025 1.025 0 0 0 .17.02.695.695 0 0 0 .2-.03 9.08 9.08 0 0 0 .869-.358 4.18 4.18 0 0 1-.78-4.434Zm-.397-6.126a1.45 1.45 0 1 1-1.45 1.45 1.452 1.452 0 0 1 1.45-1.45Z"/><path d="M13.03 8.519a3.21 3.21 0 1 0 .94 2.27 3.21 3.21 0 0 0-.94-2.27Zm-2.592 4.815A2.565 2.565 0 0 1 8.19 10.79a2.605 2.605 0 0 1 .067-.575l1.538 1.538v.32a.644.644 0 0 0 .642.643Zm2.803-1.89a2.562 2.562 0 0 1-.588 1.074.636.636 0 0 0-.61-.445h-.321v-.964a.322.322 0 0 0-.32-.32H9.473v-.643h.643a.322.322 0 0 0 .32-.32v-.642h.643a.644.644 0 0 0 .642-.642V8.41a2.562 2.562 0 0 1 1.519 3.035Z"/></svg>