<svg data-tags="svg,asset" xmlns="http://www.w3.org/2000/svg" viewBox="0 0 14 14"><path d="M12.064 0H1.938a1.5 1.5 0 00-1.5 1.5v11a1.5 1.5 0 001.5 1.5h10.126a1.5 1.5 0 001.5-1.5v-11a1.5 1.5 0 00-1.5-1.5zM4.992 8.047a.937.937 0 01-.412.34 1.535 1.535 0 01-.642.123 1.444 1.444 0 01-.734-.168.985.985 0 01-.333-.323.737.737 0 01-.128-.393.267.267 0 01.273-.268.23.23 0 01.163.061.485.485 0 01.114.183 1.192 1.192 0 00.124.24.495.495 0 00.187.158.687.687 0 00.318.063.72.72 0 00.44-.126.38.38 0 00.17-.315.335.335 0 00-.092-.243.594.594 0 00-.236-.142 4.36 4.36 0 00-.387-.105 2.798 2.798 0 01-.542-.177.868.868 0 01-.346-.277.717.717 0 01-.128-.435.752.752 0 01.135-.442.855.855 0 01.391-.296 1.6 1.6 0 01.604-.103 1.487 1.487 0 01.478.068 1.006 1.006 0 01.335.183.762.762 0 01.195.239.547.547 0 01.062.243.285.285 0 01-.077.196.243.243 0 01-.192.087.223.223 0 01-.159-.051.72.72 0 01-.118-.172.791.791 0 00-.196-.266.579.579 0 00-.37-.095.64.64 0 00-.38.104.303.303 0 00-.145.249.251.251 0 00.05.156.41.41 0 00.135.112.968.968 0 00.175.075c.058.017.155.043.29.077a4.651 4.651 0 01.46.132 1.382 1.382 0 01.351.174.713.713 0 01.226.26.821.821 0 01.08.384.892.892 0 01-.139.49zM8.07 5.772a.823.823 0 01-.03.103 2.042 2.042 0 00-.037.103l-.729 1.965a4.793 4.793 0 01-.078.214.898.898 0 01-.09.178.443.443 0 01-.552.127.4.4 0 01-.138-.127.936.936 0 01-.09-.18 6.36 6.36 0 01-.079-.212L5.53 5.995q-.017-.055-.038-.106a.817.817 0 01-.032-.11.487.487 0 01-.014-.1.27.27 0 01.084-.191.283.283 0 01.211-.086.246.246 0 01.221.095 1.298 1.298 0 01.133.304l.68 2.016.683-2.03a3.93 3.93 0 01.08-.222.29.29 0 01.088-.113.262.262 0 01.169-.05.28.28 0 01.144.039.287.287 0 01.105.103.252.252 0 01.038.13.455.455 0 01-.013.098zm3.16 2.041a.617.617 0 01-.022.184.3.3 0 01-.083.124.78.78 0 01-.155.106 2.414 2.414 0 01-.525.216 2.13 2.13 0 01-.55.067 1.787 1.787 0 01-.631-.106 1.322 1.322 0 01-.487-.31 1.383 1.383 0 01-.308-.492 1.85 1.85 0 01-.108-.646 1.898 1.898 0 01.105-.642 1.309 1.309 0 01.307-.494 1.34 1.34 0 01.495-.31 1.884 1.884 0 01.66-.108 1.624 1.624 0 01.538.08 1.176 1.176 0 01.379.205.922.922 0 01.22.26.533.533 0 01.073.244.262.262 0 01-.085.196.287.287 0 01-.204.081.273.273 0 01-.126-.031.286.286 0 01-.102-.086 2.537 2.537 0 00-.19-.267.61.61 0 00-.21-.15.807.807 0 00-.338-.062.924.924 0 00-.377.072.78.78 0 00-.284.21.958.958 0 00-.181.34 1.483 1.483 0 00-.063.446 1.217 1.217 0 00.244.813.841.841 0 00.677.286 1.404 1.404 0 00.397-.055 2.044 2.044 0 00.377-.158v-.489H10.2a.519.519 0 01-.258-.05.187.187 0 01-.087-.175.215.215 0 01.073-.166.286.286 0 01.198-.066h.691a.848.848 0 01.215.023.243.243 0 01.143.1.41.41 0 01.054.234z"/></svg>