<svg data-tags="clear,broom,brush,sweeping" xmlns="http://www.w3.org/2000/svg" viewBox="0 0 14 14"><path d="m11.624 7.354-1.464-.603 1.218-4.947A1.457 1.457 0 0 0 9.163.24.215.215 0 0 0 9.1.29a1.44 1.44 0 0 0-.578.984l-.677 5.12-1.526.085A1.364 1.364 0 0 0 5.065 7.54l-.099.455a.247.247 0 0 0 .025.16.286.286 0 0 0 .148.098l7.014 1.145h.037a.186.186 0 0 0 .136-.05.229.229 0 0 0 .086-.147l.05-.43a1.39 1.39 0 0 0-.838-1.416ZM12.24 9.975 4.794 8.683a.24.24 0 0 0-.197.062.214.214 0 0 0-.061.184 2 2 0 0 1-.357 1.6 3.905 3.905 0 0 1-2.45 1.145.22.22 0 0 0-.196.233.198.198 0 0 0 .061.136 9.87 9.87 0 0 0 2.351 1.477.29.29 0 0 0 .099.024 2.58 2.58 0 0 0 1.722-.923 3.544 3.544 0 0 1-.603.825.216.216 0 0 0-.012.307.175.175 0 0 0 .148.074c.049 0 1.304.148 2.166.148.676.025 1.415-.8 1.858-1.341a1.688 1.688 0 0 1-.443.972.225.225 0 0 0-.05.295.232.232 0 0 0 .21.099h.172a2.8 2.8 0 0 0 1.932-.727 4.867 4.867 0 0 0 1.268-3.076.205.205 0 0 0-.172-.222Z"/></svg>