<svg data-tags="refresh,recycle,cycle,match" xmlns="http://www.w3.org/2000/svg" viewBox="0 0 14 14"><path d="M1.116 6.972a5.853 5.853 0 001.729 4.155L1.74 12.23a.368.368 0 00.265.625H5.16a.364.364 0 00.368-.367V9.332a.364.364 0 00-.625-.257L3.889 10.09a4.394 4.394 0 011.22-7.097.698.698 0 00.42-.626v-.132a.685.685 0 00-.978-.61 5.89 5.89 0 00-3.435 5.347zm10.878-5.884H8.839a.364.364 0 00-.368.367v3.156a.364.364 0 00.625.257l1.015-1.015a4.394 4.394 0 01-1.22 7.097.698.698 0 00-.42.626v.132a.685.685 0 00.978.61 5.871 5.871 0 001.706-9.502l1.104-1.103a.368.368 0 00-.265-.625z"/></svg>