<svg data-deprecated="solid/Sync.svg" data-tags="sprinklr,Ai" xmlns="http://www.w3.org/2000/svg"
     viewBox="0 0 14 14"><defs><linearGradient
        id="solid_syncAi_clr__a" x1="10.067" y1="-152.895" x2=".291" y2="-163.482" gradientTransform="matrix(1 0 0 -1 0 -149.213)" gradientUnits="userSpaceOnUse"><stop offset="0" stop-color="#de46e1"/><stop offset=".487" stop-color="#8e43ff"/><stop offset="1" stop-color="#0e61f6"/></linearGradient></defs><path d="M0 7a6.963 6.963 0 0 0 2.057 4.944L.742 13.256a.438.438 0 0 0 .316.744H4.81a.433.433 0 0 0 .438-.437V9.808a.433.433 0 0 0-.744-.305L3.3 10.71a5.228 5.228 0 0 1 1.452-8.443.83.83 0 0 0 .5-.745v-.157A.815.815 0 0 0 4.086.639 7.007 7.007 0 0 0 0 7.001Zm12.942-7H9.188a.433.433 0 0 0-.438.437v3.755a.433.433 0 0 0 .744.305L10.7 3.29a5.228 5.228 0 0 1-1.451 8.443.83.83 0 0 0-.5.745v.157a.815.815 0 0 0 1.164.726 6.985 6.985 0 0 0 2.03-11.305L13.256.744A.438.438 0 0 0 12.942 0Z" fill="url(#solid_syncAi_clr__a)"/></svg>
