<svg data-tags="table, spacing, height,short" xmlns="http://www.w3.org/2000/svg" viewBox="0 0 14 14"><path d="m13.833 11.255-.181.173.008-.008.173-.165a.54.54 0 0 0-.408-.176.18.18 0 0 0-.05-.014h-.411V9.292c.001-.018.004-.036.004-.054V2.935h.412a.259.259 0 0 0 .09-.017l.017-.007a.467.467 0 0 0 .345-.167h.001v-.001a.61.61 0 0 0-.017-.855l-.001-.002-1.011-.968-.073-.07h-.034a.596.596 0 0 0-.264-.097h-.007L12.419.75a.65.65 0 0 0-.11.007h-.012v.004a.572.572 0 0 0-.296.128l-.008.006-.002.003a.316.316 0 0 0-.029.025l-1.004.962-.002.001a.606.606 0 0 0-.022.859l.18-.173-.18.173a.54.54 0 0 0 .408.176.179.179 0 0 0 .049.014h.412v5.201c-.002.018-.005.036-.005.054v2.875h-.411a.26.26 0 0 0-.091.017l-.017.007a.466.466 0 0 0-.345.167l-.002.001a.61.61 0 0 0 .018.855l.173-.178-.001.002-.172.176.002.002 1.01.968.073.07h.034a.597.597 0 0 0 .265.097h.007l.007.001a.661.661 0 0 0 .11-.007h.011v-.004a.572.572 0 0 0 .296-.128l-.162-.19.162.19.008-.007.002-.002a.32.32 0 0 0 .03-.025l1.006-.963a.606.606 0 0 0 .022-.859Zm-.448.064v.001Zm.009-8.639v.003-.003Zm-2.012.007.004-.005Zm0-.007Zm-.172.18.117-.118-.117.118Zm.843 5.276Zm-.68 3.184v-.001Zm1.244 1.589.041.054.038.05-.079-.104Zm.787-1.834c-.007 0-.013-.003-.02-.003v-.002c.008 0 .013.005.02.005Zm.073-8.16a.24.24 0 0 1-.083.015v-.001a.585.585 0 0 0 .092-.018Zm.174-.343.002.002ZM11.986.902Zm-.857 1.165-.005-.005Zm.233.858c.007 0 .013.003.02.003v.002c-.008 0-.013-.005-.02-.005Zm-.073 8.16a.24.24 0 0 1 .084-.015v.002a.582.582 0 0 0-.093.017Zm-.174.343Zm1.315 1.567v.001Zm.266.018.072.096Zm.072.095Zm-.137-.21h.002ZM.708 3.328h8.451a.7.7 0 0 0 0-1.4H.708a.7.7 0 0 0 0 1.4ZM.708 6.243h8.451a.7.7 0 0 0 0-1.4H.708a.7.7 0 0 0 0 1.4ZM.708 9.157h8.451a.7.7 0 0 0 0-1.4H.708a.7.7 0 0 0 0 1.4ZM.708 12.072h8.451a.7.7 0 0 0 0-1.4H.708a.7.7 0 0 0 0 1.4Z"/></svg>