<svg data-tags="table, spacing, height,tall" xmlns="http://www.w3.org/2000/svg" viewBox="0 0 14 14"><rect x=".006" y="1.928" width="9.846" height="7.229" rx=".546"/><path d="m13.828 11.255-.18.173.007-.008.173-.165a.54.54 0 0 0-.408-.176.18.18 0 0 0-.05-.014h-.41V9.292c0-.018.004-.036.004-.054V2.935h.411a.259.259 0 0 0 .09-.017l.018-.007a.467.467 0 0 0 .345-.167l.001-.001a.61.61 0 0 0-.017-.855l-.002-.002L12.8.918l-.073-.07h-.035a.596.596 0 0 0-.264-.097h-.007L12.414.75a.65.65 0 0 0-.11.007h-.011v.004a.572.572 0 0 0-.297.128l-.007.006-.003.003a.316.316 0 0 0-.029.024l-1.004.963-.002.001a.606.606 0 0 0-.022.859l.181-.173-.18.173a.54.54 0 0 0 .407.176.179.179 0 0 0 .05.014h.411v5.201c-.002.018-.004.036-.004.054v2.875h-.412a.26.26 0 0 0-.09.017l-.018.007a.466.466 0 0 0-.345.167l-.001.001a.61.61 0 0 0 .017.855l.174-.178-.002.002-.172.176.002.002 1.01.968.073.07h.035a.597.597 0 0 0 .264.097h.007l.007.001a.661.661 0 0 0 .11-.007h.011v-.004a.572.572 0 0 0 .297-.128l-.162-.19.162.19.007-.007.003-.002a.318.318 0 0 0 .029-.025l1.006-.963a.606.606 0 0 0 .022-.859Zm-.448.064v.001Zm.01-8.639v.003-.003Zm-2.013.007.004-.005Zm0-.007Zm-.172.18.118-.118-.118.118Zm.843 5.276Zm-.68 3.184v-.001Zm1.245 1.589.04.054.038.05-.078-.104Zm.786-1.834c-.006 0-.012-.003-.019-.003v-.002c.007 0 .013.005.02.005Zm.074-8.16a.24.24 0 0 1-.084.015v-.001a.585.585 0 0 0 .092-.018Zm.174-.343.002.002ZM11.982.902Zm-.858 1.165-.004-.005Zm.233.858c.007 0 .013.003.02.003v.002c-.007 0-.013-.005-.02-.005Zm-.073 8.16a.24.24 0 0 1 .084-.015v.001a.582.582 0 0 0-.092.018Zm-.173.343Zm1.315 1.567Zm.265.018.072.096Zm.073.095Zm-.137-.21h.001ZM.703 12.072h8.451a.7.7 0 0 0 0-1.4H.704a.7.7 0 0 0 0 1.4Z"/></svg>