<svg data-tags="pin board,check list,tasks,survey" xmlns="http://www.w3.org/2000/svg" viewBox="0 0 14 14"><path d="M12.099 1.375h-3.14a1.862 1.862 0 00-3.58 0h-3.15a1.18 1.18 0 00-.42.04 1.073 1.073 0 00-.65 1v10.4a1.11 1.11 0 001.08 1.12h9.86a1.08 1.08 0 00.42-.13 1.058 1.058 0 00.66-.99v-10.4a1.048 1.048 0 00-1.08-1.04zm-4.934-.299a.69.69 0 11-.69.69.69.69 0 01.69-.69zm2.866 10.164H4.3a.462.462 0 110-.925h5.732a.462.462 0 110 .925zm0-2.696H4.3a.462.462 0 110-.925h5.732a.462.462 0 110 .925zm0-2.696H4.3a.474.474 0 01-.467-.467.465.465 0 01.467-.458h5.732a.465.465 0 01.468.458.474.474 0 01-.468.467z"/></svg>