<svg data-tags="clock,schedule,task,my schedule,appointment,time" xmlns="http://www.w3.org/2000/svg" viewBox="0 0 14 14"><path d="M3.3 2.19h5.18a.2.2 0 00.2-.2V.23a.2.2 0 00-.2-.2H3.3a.2.2 0 00-.2.2v1.75a.203.203 0 00.2.21z"/><path d="M10.44 5.88a4.49 4.49 0 011.32.218V1.2a.287.287 0 00-.29-.3L9.85.91v2.44H1.92V.91L.3.9a.293.293 0 00-.29.3v11.94a.29.29 0 00.29.29h6.745a4.529 4.529 0 013.395-7.55z"/><path d="M10.44 6.87a3.55 3.55 0 103.55 3.55 3.55 3.55 0 00-3.55-3.55zm1.38 4.94a.405.405 0 01-.56 0l-1.1-1.1a.363.363 0 01-.12-.28V8.85a.39.39 0 01.78 0v1.42l.99.99a.367.367 0 01.01.55z"/></svg>