<svg data-tags="salesforce" xmlns="http://www.w3.org/2000/svg" viewBox="0 0 14 14"><path d="M2.322 5.73a.682.682 0 0 0 .495-.204l3.611-3.553a.394.394 0 0 0 0-.495L5.933.983a.335.335 0 0 0-.495 0L2.352 4.04 1.099 2.817a.335.335 0 0 0-.495 0l-.495.496a.335.335 0 0 0 0 .495l1.718 1.718a.682.682 0 0 0 .495.204ZM7.448 2.934h6.086A.466.466 0 0 1 14 3.4v.932a.466.466 0 0 1-.466.466H7.448a.466.466 0 0 1-.466-.466V3.4a.466.466 0 0 1 .466-.466ZM6.05 7.098h7.484a.466.466 0 0 1 .466.466v.932a.466.466 0 0 1-.466.466H6.05a.466.466 0 0 1-.466-.466v-.932a.466.466 0 0 1 .466-.466ZM3.225 7.098h-.932a.46.46 0 0 0-.466.466v.932a.46.46 0 0 0 .466.466h.932a.443.443 0 0 0 .466-.466v-.932a.46.46 0 0 0-.466-.466ZM3.225 11.263h-.932a.46.46 0 0 0-.466.466v.931a.46.46 0 0 0 .466.466h.932a.443.443 0 0 0 .466-.466v-.931a.46.46 0 0 0-.466-.466ZM6.05 11.263h7.484a.466.466 0 0 1 .466.466v.931a.466.466 0 0 1-.466.466H6.05a.466.466 0 0 1-.466-.466v-.931a.466.466 0 0 1 .466-.466Z"/></svg>