<svg data-tags="board,HSM templates" xmlns="http://www.w3.org/2000/svg" viewBox="0 0 14 14"><defs><linearGradient id="lineTemplatesRectangle__a" x1="7" y1="13.87" x2="7" y2="4.01" gradientTransform="matrix(1 0 0 -1 0 16)" gradientUnits="userSpaceOnUse"><stop offset="0" stop-color="#f1f7fe"/><stop offset="1" stop-color="#a6c9ff"/></linearGradient><linearGradient id="b" x1="8.56" y1="11.49" x2="5.12" y2="6.43" gradientTransform="matrix(1 0 0 -1 0 16)" gradientUnits="userSpaceOnUse"><stop offset=".08" stop-color="#4eaffc"/><stop offset=".87" stop-color="#0d63ff"/></linearGradient></defs><rect y="2.13" width="14" height="9.86" rx="2.55" fill="url(#lineTemplatesRectangle__a)"/><path d="M4.7 4.67h.61a.1.1 0 01.1.1V9.3a.1.1 0 01-.1.1H4.7a.22.22 0 01-.24-.24V4.91a.22.22 0 01.24-.24zM9.12 6.1H5.98a.1.1 0 01-.1-.1V4.78a.1.1 0 01.1-.1h3a.22.22 0 01.25.24V6a.1.1 0 01-.1.1zm-3.15.48h1.24a.1.1 0 01.1.1V9.3a.1.1 0 01-.1.1H5.98a.1.1 0 01-.1-.1V6.66a.1.1 0 01.1-.1zm1.82.1V9.3a.1.1 0 00.1.1h1.09a.22.22 0 00.24-.24v-2.5a.1.1 0 00-.1-.1H7.9a.1.1 0 00-.1.1z" fill-rule="evenodd" fill="url(#b)"/></svg>
