<svg data-deprecated="line/TextAlignLeft.svg" data-tags="sprinklr,Ai" xmlns="http://www.w3.org/2000/svg"
     viewBox="0 0 14 14"><defs><linearGradient
        id="solid_textAlignLeftAi_clr__a" x1="7.842" y1="-151.525" x2="-.521" y2="-161.902" gradientTransform="matrix(1 0 0 -1 0 -149.213)" gradientUnits="userSpaceOnUse"><stop offset="0" stop-color="#de46e1"/><stop offset=".487" stop-color="#8e43ff"/><stop offset="1" stop-color="#0e61f6"/></linearGradient></defs><path d="M.71.891h12.58a.707.707 0 1 1 0 1.414H.71a.707.707 0 1 1 0-1.414ZM7 5.883H.71a.707.707 0 1 1 0-1.414H7a.707.707 0 1 1 0 1.414Zm3.328 2.2H.71a.707.707 0 1 0 0 1.413h9.618a.707.707 0 1 0 0-1.414ZM.71 11.694H7a.707.707 0 1 1 0 1.414H.71a.707.707 0 1 1 0-1.414Z" fill-rule="evenodd" fill="url(#solid_textAlignLeftAi_clr__a)"/></svg>
