<svg data-tags="ticket field,ticket form,tab" xmlns="http://www.w3.org/2000/svg" viewBox="0 0 14 14"><path fill-rule="evenodd" d="M13.76 6.1a.696.696 0 01-.492.204.696.696 0 000 1.392.696.696 0 01.696.697v2.786a.696.696 0 01-.696.696H.732a.696.696 0 01-.696-.696V8.393a.696.696 0 01.696-.697.696.696 0 000-1.392.696.696 0 01-.696-.697V2.821a.696.696 0 01.696-.696h12.536a.696.696 0 01.696.696v2.786a.696.696 0 01-.204.493zM4.91 4.214a.696.696 0 00-.696.697v4.178a.696.696 0 001.393 0V4.911a.696.696 0 00-.696-.697z"/></svg>