<svg data-tags="tiktok,stitch,video" xmlns="http://www.w3.org/2000/svg" viewBox="0 0 14 14"><path d="M4.97311,12.38984H2.52573V11.18265a.67674.67674,0,1,0-1.35347,0V12.5833a1.08439,1.08439,0,0,0,1.01744,1.16H4.97311a.67673.67673,0,1,0,0-1.35346Z"/><path d="M1.849,8.77582a.67675.67675,0,0,0,.67677-.67676V5.74228a.67674.67674,0,1,0-1.35347,0V8.09906A.67674.67674,0,0,0,1.849,8.77582Z"/><path d="M6.96278.95223V4.38305l5.77015,5.77015V1.26132A1.157,1.157,0,0,0,11.57311.1015H7.62982a.67238.67238,0,0,0-.67651.67658.635.635,0,0,0,.02235.11054A.61174.61174,0,0,0,6.96278.95223Z"/><path d="M13.79192,12.78668,1.21282.20858A.71046.71046,0,0,0,.20808,1.21332l.96418.96412v.48125a.67674.67674,0,0,0,.6767.67676.658.658,0,0,0,.36186-.11952l4.752,4.75153v5.04786c-.00118.01629-.00947.03047-.00947.04707a.67237.67237,0,0,0,.67651.67652h3.94329a1.15723,1.15723,0,0,0,.82131-.34024l.39276.39275a.71046.71046,0,0,0,1.00474-1.00474Z"/><path d="M4.97311,1.4515a.67674.67674,0,1,0,0-1.35347H2.67776L4.03123,1.4515Z"/></svg>
