<svg data-tags="tiktok" xmlns="http://www.w3.org/2000/svg" viewBox="0 0 14 14"><rect x="2.279" y="2.442" width="11.721" height="9.116" rx="2.605" fill="#d4516e"/><rect y="2.442" width="11.721" height="9.116" rx="2.605" fill="#80cfe5"/><rect x="1.14" y="2.442" width="11.721" height="9.116" rx="2.605" fill="#fff"/><path d="M6.756 4.965a.163.163 0 0 0-.163.163v1.546H5.047a.163.163 0 0 0-.163.163v.489a.163.163 0 0 0 .163.162h1.546v1.547a.163.163 0 0 0 .163.163h.488a.163.163 0 0 0 .163-.163V7.488h1.546a.163.163 0 0 0 .163-.162v-.489a.163.163 0 0 0-.163-.163H7.407V5.128a.163.163 0 0 0-.163-.163Z" fill="#161721"/></svg>