<svg xmlns="http://www.w3.org/2000/svg" viewBox="0 0 14 14"><path d="M3.98679,6.99954a5.495,5.495,0,0,1,1.9969-4.23848A4.46354,4.46354,0,0,0,4.507,2.493a4.507,4.507,0,1,0,0,9.01394,4.46341,4.46341,0,0,0,1.47693-.26809A5.49668,5.49668,0,0,1,3.98679,6.99954Z"/><path d="M9.493,2.493A4.507,4.507,0,1,0,14,7,4.507,4.507,0,0,0,9.493,2.493ZM8.968,6.54981a.69948.69948,0,0,1-1.39895,0V5.70206a.69948.69948,0,1,1,1.39895,0Zm2.44864.05171a.69948.69948,0,0,1-1.399,0V5.75376a.69948.69948,0,0,1,1.399,0Z"/></svg>