<svg data-tags="tiktok, Like" xmlns="http://www.w3.org/2000/svg" viewBox="0 0 14 14"><path d="M6.334 13.167a1.146 1.146 0 001.332 0 19.046 19.046 0 005.22-5.152 6.804 6.804 0 001.047-2.59A4.239 4.239 0 0014 4.67 3.968 3.968 0 0010.122.62 3.824 3.824 0 007 2.265 3.822 3.822 0 003.878.619 3.967 3.967 0 000 4.67a4.287 4.287 0 00.067.754 6.815 6.815 0 001.047 2.591 19.046 19.046 0 005.22 5.152z" fill="#fafafa"/><path d="M6.334 11.465a1.146 1.146 0 001.332 0 23.767 23.767 0 005.22-3.45 6.804 6.804 0 001.047-2.59A4.239 4.239 0 0014 4.67 3.968 3.968 0 0010.122.62 3.824 3.824 0 007 2.265 3.822 3.822 0 003.878.619 3.967 3.967 0 000 4.67a4.287 4.287 0 00.067.754 6.815 6.815 0 001.047 2.591 38.98 38.98 0 005.22 3.45z" fill="#fff"/></svg>