<svg data-tags="tiktok" xmlns="http://www.w3.org/2000/svg" viewBox="0 0 14 14"><path d="m13.997 4.503-.01.025A3.97 3.97 0 0 0 10 .511a3.865 3.865 0 0 0-3 1.333A3.865 3.865 0 0 0 4 .51a3.989 3.989 0 0 0-4 4.166A5.758 5.758 0 0 0 .637 7.18l-.035-.036c.025.054.064.103.09.157a9.151 9.151 0 0 0 .551.949c.03.044.054.09.085.135.243.354.51.695.791 1.027.078.093.159.18.24.272.219.248.441.49.67.724.085.086.167.172.252.256.296.293.593.578.886.846 1.2 1.1 2.166 1.834 2.833 1.834.667 0 1.607-.729 2.834-1.834C11.82 9.72 14 7.344 14 4.677q0-.087-.003-.174Z" fill-rule="evenodd" /></svg>
