<svg xmlns="http://www.w3.org/2000/svg" viewBox="0 0 14 14"><path d="M11.74066.00357H7.69485A.68987.68987,0,0,0,7.0007.69772a.65381.65381,0,0,0,.02293.11343.644.644,0,0,0-.01319.06524V13.25313c-.00121.0167-.00974.03123-.00974.04824a.6899.6899,0,0,0,.69415.69415h4.04581a1.1871,1.1871,0,0,0,1.19-1.19V1.19354A1.1871,1.1871,0,0,0,11.74066.00357Z"/><path d="M4.96908,12.61133H2.458V11.37276a.69434.69434,0,0,0-1.38867,0v1.43709A1.11259,1.11259,0,0,0,2.1133,14H4.96908a.69434.69434,0,0,0,0-1.38867Z"/><path d="M4.96908,0H2.1133A1.11259,1.11259,0,0,0,1.06937,1.19015V2.62724a.69434.69434,0,0,0,1.38867,0V1.38867h2.511A.69434.69434,0,0,0,4.96908,0Z"/><path d="M1.76371,8.90337A.69432.69432,0,0,0,2.458,8.209V5.791a.69434.69434,0,1,0-1.38867,0V8.209A.69433.69433,0,0,0,1.76371,8.90337Z"/></svg>