<svg data-tags="tiktok,duet" xmlns="http://www.w3.org/2000/svg" viewBox="0 0 14 14"><path d="M1.35019.29905a.70095.70095,0,0,0-.99129.99129L2.19575,3.12718A4.57041,4.57041,0,0,0,0,7.073a4.43548,4.43548,0,0,0,4.29349,4.565,4.0268,4.0268,0,0,0,1.407-.27159A5.74183,5.74183,0,0,1,4.15962,5.09106l.86071.86071A4.30909,4.30909,0,0,0,4.87,7.073a4.565,4.565,0,0,0,4.565,4.565,4.30911,4.30911,0,0,0,1.12125-.15037L12.76951,13.701a.70094.70094,0,0,0,.99128-.99129Z"/><path d="M8.19472,5.04987a.70849.70849,0,0,1,.70845.70852v.71719l3.78948,3.78948A4.56077,4.56077,0,0,0,6.243,3.81541L7.69021,5.26262A.70481.70481,0,0,1,8.19472,5.04987Zm1.77165.76088a.70849.70849,0,1,1,1.417,0v.85864a.70849.70849,0,1,1-1.417,0Z"/></svg>
