<svg data-tags="placeholder schedule, time, clock, calendar, schedul" xmlns="http://www.w3.org/2000/svg" viewBox="0 0 14 14"><path d="M1.4 11.88v-6.9h9.65v.79a4.6 4.6 0 011.38.43V2.76a1.38 1.38 0 00-1.38-1.38h-.7V.69a.69.69 0 10-1.37 0v.69H3.46V.69a.69.69 0 00-1.38 0v.69h-.69A1.37 1.37 0 00.02 2.75v9.66a1.38 1.38 0 001.37 1.38H7.2a4.66 4.66 0 01-1.24-1.9z"/><path d="M10.36 6.75A3.63 3.63 0 1014 10.37a3.63 3.63 0 00-3.63-3.62zm1.41 5.03a.4.4 0 01-.57 0l-1.12-1.12a.4.4 0 01-.12-.29v-1.6a.4.4 0 11.8 0v1.44l1.01 1a.4.4 0 010 .57z"/></svg>