<svg data-tags="position,time stamp,horizontal" xmlns="http://www.w3.org/2000/svg" viewBox="0 0 14 14"><path d="M13.947 1.507a.702.702 0 0 0-.648-.433H.7A.701.701 0 0 0 0 1.775v10.45a.701.701 0 0 0 .701.701H13.3a.701.701 0 0 0 .701-.701V1.775a.702.702 0 0 0-.053-.268Zm-1.35 10.017H1.403V2.476h11.194Z" /><path d="M5.942 5.38h2.454a.35.35 0 0 1 .35.35v4.558a.35.35 0 0 1-.35.35H5.942a.35.35 0 0 1-.35-.35V5.731a.35.35 0 0 1 .35-.35ZM9.829 9.587h1.402a.35.35 0 0 1 .35.35v.351a.35.35 0 0 1-.35.35H9.83a.35.35 0 0 1-.35-.35v-.35a.35.35 0 0 1 .35-.351Z" /></svg>
