<svg data-tags="position,time stamp,vertical" xmlns="http://www.w3.org/2000/svg" viewBox="0 0 14 14"><path d="M13.947 1.518a.702.702 0 0 0-.38-.381.698.698 0 0 0-.268-.054H.7a.702.702 0 0 0-.648.435.706.706 0 0 0-.053.27v10.491a.702.702 0 0 0 .701.704H13.3a.702.702 0 0 0 .648-.434.707.707 0 0 0 .053-.27V1.787a.707.707 0 0 0-.053-.27Zm-1.35 10.057H1.403V2.492h11.194Z"/><path d="M8.809 3.471h2.45a.35.35 0 0 1 .35.35v4.55a.35.35 0 0 1-.35.35h-2.45a.35.35 0 0 1-.35-.35v-4.55a.35.35 0 0 1 .35-.35ZM9.859 9.546h1.4a.35.35 0 0 1 .35.35v.35a.35.35 0 0 1-.35.35h-1.4a.35.35 0 0 1-.35-.35v-.35a.35.35 0 0 1 .35-.35Z"/></svg>