<svg data-deprecated="line/ToneSmiley.svg" data-tags="sprinklr,Ai" xmlns="http://www.w3.org/2000/svg"
     viewBox="0 0 14 14"><defs><linearGradient
        id="solid_toneSmileyAi_clr__a" x1="10.065" y1="-152.894" x2=".289" y2="-163.48" gradientTransform="matrix(1 0 0 -1 0 -149.213)" gradientUnits="userSpaceOnUse"><stop offset="0" stop-color="#de46e1"/><stop offset=".487" stop-color="#8e43ff"/><stop offset="1" stop-color="#0e61f6"/></linearGradient></defs><path d="M3.111 1.18A7 7 0 1 1 .533 4.32 7 7 0 0 1 3.11 1.18Zm.778 10.476a5.6 5.6 0 1 0-2.063-2.513 5.6 5.6 0 0 0 2.063 2.513Zm5.863-4.085a.677.677 0 0 1 .265.073.719.719 0 0 1 .305.981 3.674 3.674 0 0 1-3.327 2.159 3.447 3.447 0 0 1-1.235-.227.725.725 0 0 1-.421-.92.684.684 0 0 1 .886-.438 2.239 2.239 0 0 0 .77.136 2.314 2.314 0 0 0 2.092-1.359.677.677 0 0 1 .665-.405ZM5.865 5.297a1.135 1.135 0 1 0-.086.434 1.135 1.135 0 0 0 .086-.434Zm2.775-.944a1.135 1.135 0 1 1-.418.51 1.135 1.135 0 0 1 .418-.51Z" fill-rule="evenodd" fill="url(#solid_toneSmileyAi_clr__a)"/></svg>
