<svg data-tags="dollar,top-performing,advertisement,money,select money,revenue" xmlns="http://www.w3.org/2000/svg" viewBox="0 0 14 14"><path d="M8.503 7.994l.929.101a3.603 3.603 0 10-1.626 1.426l-.085-.786a.677.677 0 01.782-.74zm-1.326.194a2.265 2.265 0 01-.424.088v.651h-.768v-.655a1.844 1.844 0 01-.722-.249 1.245 1.245 0 01-.605-1.09v-.058h.854l.006.05c.004.038.007.075.014.111a.617.617 0 00.375.48 1.243 1.243 0 001.045-.01.415.415 0 00.223-.524.462.462 0 00-.243-.25 2.294 2.294 0 00-.505-.173l-.074-.02a14.52 14.52 0 00-.196-.05 4.071 4.071 0 01-.676-.21 1.258 1.258 0 01-.469-.332.973.973 0 01-.215-.726 1.141 1.141 0 01.817-1.02 1.722 1.722 0 01.371-.089v-.621h.767v.634a1.71 1.71 0 01.587.197A1.136 1.136 0 017.92 5.33a.226.226 0 01-.002.03l-.001.016h-.85l-.01-.052a1.105 1.105 0 00-.018-.103.51.51 0 00-.332-.381 1.098 1.098 0 00-.755-.017.42.42 0 00-.289.506.25.25 0 00.145.185 3.357 3.357 0 00.423.16c.152.042.305.081.458.12.152.04.305.078.456.121a1.408 1.408 0 01.603.337 1.027 1.027 0 01.308.829 1.203 1.203 0 01-.879 1.107z"/><path d="M7.908 10.813a4.793 4.793 0 01-1.55.277 4.88 4.88 0 114.88-4.88 4.834 4.834 0 01-.43 1.982l-.097.214 1.38.15.047-.122a6.202 6.202 0 10-4.017 3.716l.136-.04-.147-1.365z"/><path d="M11.907 10.57l1.324-1.323-4.735-.603.602 4.732 1.324-1.321 1.936 1.935 1.483-1.484-1.934-1.936z"/></svg>