<svg data-tags="messages, comment, transition, response, arrow, add, new" xmlns="http://www.w3.org/2000/svg" viewBox="0 0 14 14"><path d="M9.5 9.51v-.47a1.62 1.62 0 013.23 0v.47h.47a1.6 1.6 0 01.65.14 1.5 1.5 0 00.08-.44V1.5a1.55 1.55 0 00-1.54-1.54H1.6A1.54 1.54 0 00.06 1.5v12.25a.2.2 0 00.36.14l2.82-3.15h4.22A1.62 1.62 0 019.03 9.5zm-1.83-1.7a.69.69 0 01-.21-.5l-.01-.02V6.05H3.97a.7.7 0 010-1.38h3.48V3.4a.68.68 0 01.21-.51.7.7 0 01.98.02l1.88 1.96a.8.8 0 01.04.04.7.7 0 01-.03.91L8.63 7.8a.7.7 0 01-.97.02z"/><path d="M13.26 10.58h-1.43V9.14a.67.67 0 00-1.35 0v1.44H9.04a.67.67 0 000 1.35h1.44v1.43a.67.67 0 001.35 0v-1.43h1.43a.67.67 0 000-1.35z"/></svg>