<svg data-tags="Join,Integrate,Merge,Combine,Unite" xmlns="http://www.w3.org/2000/svg" viewBox="0 0 14 14"><path d="M12.725 9.594V6.776a1.089 1.089 0 00-1.087-1.088H7.586V2.245l1.127 1.127a.6.6 0 00.849-.85L7.41.373a.596.596 0 00-.192-.128L7.215.242a.592.592 0 00-.309-.03.553.553 0 00-.07.013.584.584 0 00-.274.147L4.41 2.523a.6.6 0 00.848.849l1.128-1.128v3.444H2.333a1.089 1.089 0 00-1.087 1.088v2.818a1.847 1.847 0 101.2 0V6.89h3.94v2.705a1.846 1.846 0 101.2 0V6.89h3.939v2.705a1.846 1.846 0 101.2 0z"/></svg>
