<svg data-tags="break connection,disconnect,no link" xmlns="http://www.w3.org/2000/svg" viewBox="0 0 14 14"><path d="M4.634 11.844a1.73 1.73 0 01-1.603.51 1.752 1.752 0 01-.882-2.981Q3.356 8.17 4.561 6.966l-.83-.83a3.09 3.09 0 00-1.37.753c-.51.486-1.017.978-1.495 1.498a3.229 3.229 0 00-.846 2.62 3.204 3.204 0 00.907 1.944 3.286 3.286 0 002.944 1.01 3.256 3.256 0 001.892-.963l1.231-1.232c.069-.068.134-.138.197-.212a3.351 3.351 0 00.67-1.289l-.826-.825-2.4 2.404zM2.02 1.03a.7.7 0 00-.99.99l11.007 11.008a.7.7 0 00.99-.99zm11.95 1.892A3.233 3.233 0 0012.841.828 3.279 3.279 0 0010.073.05a3.225 3.225 0 00-1.779.899c-.44.429-.872.867-1.305 1.303a3.289 3.289 0 00-.852 1.481l.827.828q1.204-1.206 2.41-2.41a1.711 1.711 0 011.67-.486 1.746 1.746 0 011.314 2.007 1.83 1.83 0 01-.532.982q-1.194 1.19-2.385 2.384l.822.821a3.364 3.364 0 001.536-.896c.408-.412.823-.82 1.23-1.233a3.363 3.363 0 00.94-2.808z"/><path d="M3.808 9.35a.818.818 0 001.433.599q.569-.583 1.139-1.164l-1.17-1.17-1.12 1.146a1.31 1.31 0 00-.073.077.833.833 0 00-.209.513zm5.775-3.843a.818.818 0 00.137-.901.78.78 0 00-.75-.494.822.822 0 00-.61.283l-.773.79 1.17 1.169.76-.777c.022-.023.045-.046.066-.07z"/></svg>