<svg data-tags="merge,arrow,down,cells,table,move,split" xmlns="http://www.w3.org/2000/svg" viewBox="0 0 14 14"><path d="M1.496 3.014a.501.501 0 0 1 .501-.502h3.745V1.016H1.003A1.003 1.003 0 0 0 0 2.02v2.737h1.496zm0 7.972V9.244H0v2.737a1.003 1.003 0 0 0 1.003 1.003h4.739v-1.496H1.997a.501.501 0 0 1-.501-.502zM5.98 6.365H3.67V5.292c0-.01-.005-.017-.006-.026a.598.598 0 0 0-1.03-.417l-1.63 1.7-.001.002h-.001l-.001.001L1 6.553l-.001.001-.001.002a.599.599 0 0 0-.16.364.584.584 0 0 0 .005.13.593.593 0 0 0 .127.293.699.699 0 0 0 .037.04l1.627 1.698a.6.6 0 0 0 .85.02.594.594 0 0 0 .18-.443c.001-.008.006-.015.006-.023v-1.07h2.31a.6.6 0 0 0 0-1.2zm6.524 4.621a.501.501 0 0 1-.501.502H8.258v1.496h4.739A1.003 1.003 0 0 0 14 11.98V9.244h-1.496zm.493-9.97H8.258v1.496h3.745a.501.501 0 0 1 .501.502v1.742H14V2.02a1.003 1.003 0 0 0-1.003-1.003zM10.33 8.64c0 .01.005.017.006.026a.598.598 0 0 0 1.03.417l1.63-1.7.001-.002h.001l.001-.001.001-.001.001-.001.002-.002a.599.599 0 0 0 .159-.363.603.603 0 0 0-.132-.424.666.666 0 0 0-.037-.04L11.365 4.85a.6.6 0 0 0-.848-.02.594.594 0 0 0-.182.444c0 .008-.005.014-.005.022v1.07H8.02a.6.6 0 0 0 0 1.2h2.31z"/></svg>