<svg data-tags="unrelease,release,send,share,cross" xmlns="http://www.w3.org/2000/svg" viewBox="0 0 14 14"><path d="M7.02 5.961a1.829 1.829 0 0 1 1.353-.576 1.899 1.899 0 0 1 1.354.565l.796.795 2.352-4.966v-.01l.01-.008c.008-.027.008-.054.018-.081 0-.018.009-.036.009-.054 0-.016.007-.033.008-.05-.001-.015-.008-.032-.008-.04 0-.027-.01-.045-.01-.063a.256.256 0 0 0-.018-.08l-.01-.01v-.009a.239.239 0 0 0-.045-.053.321.321 0 0 0-.065-.09h-.01a.49.49 0 0 0-.092-.054c-.018-.018-.046-.027-.065-.045h-.009l-.009-.018c-.028-.009-.055-.009-.074-.018a.14.14 0 0 0-.065-.009c-.027 0-.046-.009-.065-.009h-.009c-.018 0-.037.01-.064.01-.019 0-.038.008-.056.008a.277.277 0 0 0-.083.018l-.01.01h-.009L.334 5.818A.496.496 0 0 0 0 6.26a.508.508 0 0 0 .287.467l2.877 1.419a.935.935 0 0 0 .943-.063l2.62-1.73a1.87 1.87 0 0 1 .293-.39Z"/><path d="M7.02 8.663a1.89 1.89 0 0 1-.544-1.211L5.282 9.115a.884.884 0 0 0-.047.96l1.235 2.092a1.89 1.89 0 0 1 .55-1.423l1.043-1.04Z"/><path d="m11.922 9.692 1.843-1.845a.814.814 0 0 0-1.15-1.151L10.772 8.54 8.929 6.696a.822.822 0 0 0-1.15 0 .813.813 0 0 0 0 1.151L9.62 9.692l-1.843 1.844a.81.81 0 0 0 .581 1.386.793.793 0 0 0 .57-.235l1.843-1.844 1.843 1.844a.812.812 0 0 0 .57.235.793.793 0 0 0 .57-.235.823.823 0 0 0 0-1.151Z"/></svg>