<svg data-tags="users,group,key,secure,access,social sign on" xmlns="http://www.w3.org/2000/svg" viewBox="0 0 14 14"><path d="M10.187 3.957A1.978 1.978 0 1 0 8.21 1.978a1.98 1.98 0 0 0 1.978 1.979ZM7.71 8.283c.053 0 .104.007.156.01a4.418 4.418 0 0 0-.374-.349.983.983 0 0 0-.166-.136 4.225 4.225 0 0 0-.26-.18 4.25 4.25 0 0 0-.408-.222c-.091-.044-.18-.091-.273-.129a4.175 4.175 0 0 0-.534-.166c-.07-.018-.138-.044-.21-.058a4.117 4.117 0 0 0-.8-.083h-.62a4.117 4.117 0 0 0-.8.083c-.073.014-.14.04-.212.058a4.19 4.19 0 0 0-.532.166c-.095.038-.183.085-.273.129a4.267 4.267 0 0 0-.41.223 4.27 4.27 0 0 0-.258.178.972.972 0 0 0-.166.137A4.212 4.212 0 0 0 0 11.205v2.16A.635.635 0 0 0 .635 14h4.69A3.355 3.355 0 0 1 7.71 8.283ZM12.676 5.339a.828.828 0 0 0-.14-.116 3.514 3.514 0 0 0-.218-.15 3.568 3.568 0 0 0-.345-.188c-.076-.038-.15-.077-.23-.109a3.522 3.522 0 0 0-.45-.14c-.06-.015-.117-.037-.178-.049a3.47 3.47 0 0 0-.674-.07h-.523a3.469 3.469 0 0 0-.674.07c-.061.012-.118.034-.178.049a3.54 3.54 0 0 0-.45.14c-.079.032-.153.071-.23.108a3.586 3.586 0 0 0-.345.188 3.581 3.581 0 0 0-.218.151.818.818 0 0 0-.14.116 3.666 3.666 0 0 0-.858 1.041c.07.031.14.062.206.095a5.768 5.768 0 0 1 .569.307l.057.037.274.191a1.702 1.702 0 0 1 .231.19 5.444 5.444 0 0 1 .688.688l.32.425a5.207 5.207 0 0 1 .275.46 3.356 3.356 0 0 1 1.107 1.082H14V8.088a3.552 3.552 0 0 0-1.324-2.75Z"/><path d="M7.71 9.283a2.359 2.359 0 1 0 2.222 3.145h1.71V14h1.572v-1.572H14v-1.573H9.932A2.355 2.355 0 0 0 7.71 9.283Zm0 3.145a.786.786 0 1 1 .787-.786.788.788 0 0 1-.786.786ZM4.54 6.306a2.346 2.346 0 1 0-2.347-2.347A2.348 2.348 0 0 0 4.54 6.306Z"/></svg>