<svg data-tags="user,call,phone" xmlns="http://www.w3.org/2000/svg" viewBox="0 0 14 14"><path d="M5.131 5.3A2.652 2.652 0 1 0 2.48 2.648 2.654 2.654 0 0 0 5.131 5.3ZM5.286 13.458l-.044-.095a1.664 1.664 0 0 1 .218-1.743l.096-.118.126-.084c.001 0 1.005-.668 1.33-.896a1.747 1.747 0 0 1 1.447-.275l.142.035s.302.18.491.29c.338-.329.682-.668.98-.963a4.834 4.834 0 0 0-1.604-2.456 1.114 1.114 0 0 0-.187-.155 4.735 4.735 0 0 0-.293-.202 4.815 4.815 0 0 0-.462-.252c-.103-.05-.202-.103-.309-.145a4.71 4.71 0 0 0-.603-.188c-.08-.02-.156-.05-.238-.066a4.66 4.66 0 0 0-.904-.093H4.77a4.659 4.659 0 0 0-.903.093c-.082.016-.158.045-.24.066a4.748 4.748 0 0 0-.601.188c-.107.042-.206.095-.31.145a4.812 4.812 0 0 0-.462.252c-.1.063-.196.131-.292.202a1.103 1.103 0 0 0-.188.155A4.762 4.762 0 0 0 0 10.839v2.441a.718.718 0 0 0 .718.718h5.028c-.13-.154-.276-.295-.397-.456Z"/><path d="M13.807 6.908c-.241-.355-.956-1.262-1.493-.662a15.318 15.318 0 0 0-1.036 1.31s-.39.538-.044.887c.227.23.537.775.377 1.009-.161.233-2.138 2.144-2.138 2.144s-.227.199-.378.126c-.15-.071-.88-.505-.88-.505a.748.748 0 0 0-.63.127c-.33.23-1.348.908-1.348.908a.653.653 0 0 0-.087.69 8.8 8.8 0 0 0 .84.962 1.09 1.09 0 0 0 .824.036 7.393 7.393 0 0 0 3.741-2.294 11.36 11.36 0 0 0 2.44-3.984 1.189 1.189 0 0 0-.188-.754Z"/></svg>