<svg data-tags="users,important,agents,star,calibrator" xmlns="http://www.w3.org/2000/svg" viewBox="0 0 14 14"><path d="M10.397 4.46A2.047 2.047 0 1 0 8.35 2.415a2.047 2.047 0 0 0 2.047 2.047ZM4.337 6.405A2.396 2.396 0 1 0 1.94 4.009a2.396 2.396 0 0 0 2.396 2.396ZM13.809 9.599l-2.017-.291-.903-1.826a.203.203 0 0 0-.362 0l-.903 1.826-2.027.291a.21.21 0 0 0-.16.14.228.228 0 0 0 .05.211l1.465 1.425-.341 2.017a.21.21 0 0 0 .3.221l1.807-.953 1.806.953a.165.165 0 0 0 .1.02.193.193 0 0 0 .121-.04.218.218 0 0 0 .08-.2l-.34-2.018L13.95 9.95a.218.218 0 0 0 .03-.21.208.208 0 0 0-.171-.141Z"/><path d="M12.756 5.735c.01 0 .01 0 .02-.01a1.305 1.305 0 0 0-.15-.1 1.532 1.532 0 0 0-.212-.14 3.31 3.31 0 0 0-.32-.181c-.071-.03-.141-.07-.222-.1a3.395 3.395 0 0 0-.421-.131 1.087 1.087 0 0 1-.17-.05 3.39 3.39 0 0 0-.633-.07h-.492a2.6 2.6 0 0 0-.632.07 1.087 1.087 0 0 1-.17.05c-.141.04-.292.08-.422.13-.07.03-.14.07-.22.1a3.31 3.31 0 0 0-.322.181 1.428 1.428 0 0 0-.2.141c-.05.04-.101.06-.151.1.01 0 .01 0 .02.01a3.368 3.368 0 0 0-1.18 1.952l-.155-.105a3.597 3.597 0 0 0-.392-.21c-.08-.041-.17-.081-.26-.121-.161-.06-.332-.11-.502-.16-.07-.02-.13-.041-.201-.061a4.792 4.792 0 0 0-.763-.07h-.592a3.859 3.859 0 0 0-.762.08c-.07.01-.13.04-.201.05-.17.05-.341.1-.502.16-.09.04-.17.08-.26.121-.131.07-.262.13-.392.21-.08.061-.16.111-.241.171-.06.05-.13.08-.18.13.01 0 .01.01.02.01A3.987 3.987 0 0 0 0 10.985v1.104a.604.604 0 0 0 .602.602H7.7l.168-.963-1.084-1.054a1.203 1.203 0 0 1 .663-2.057l1.505-.221.672-1.355a1.21 1.21 0 0 1 2.168 0l.672 1.355 1.496.22c.014.003.026.01.04.012v-.303a3.356 3.356 0 0 0-1.244-2.589Z"/></svg>