<svg data-tags="user,sheild,arrow,enter,login,trust" xmlns="http://www.w3.org/2000/svg" viewBox="0 0 14 14"><path d="M13.537 1.346 8.125.275a.708.708 0 0 0-.203 0l-5.624.868a.607.607 0 0 0-.463.395.672.672 0 0 0-.048.242l.01.52a23.941 23.941 0 0 0 .588 6.191h.51v-.05a1.476 1.476 0 0 1 .417-1.014 1.425 1.425 0 0 1 2.02 0l.661.66a3.148 3.148 0 0 1 1.9-.642 3.063 3.063 0 0 1 3.101 2.803H7.535a1.454 1.454 0 0 1-.375.98L5.64 12.75a9.975 9.975 0 0 0 2.282.963.986.986 0 0 0 .164.02.67.67 0 0 0 .193-.03C13.46 11.9 13.952 6.672 14 1.925a.59.59 0 0 0-.463-.578ZM7.893 6.83a1.54 1.54 0 1 1 1.54-1.54 1.541 1.541 0 0 1-1.54 1.54Z"/><path d="M6.43 9.938 4.625 8.133a.427.427 0 0 0-.606 0 .458.458 0 0 0-.125.308v1.05H.756a.76.76 0 0 0-.756.755.735.735 0 0 0 .221.53.764.764 0 0 0 .53.221l3.128.01v1.05a.43.43 0 0 0 .424.432.445.445 0 0 0 .308-.125l1.805-1.805a.47.47 0 0 0 .014-.62Z"/></svg>