<svg data-tags="users,group,work,workspace,breifcase" xmlns="http://www.w3.org/2000/svg" viewBox="0 0 14 14"><path d="M10.235 3.742a1.869 1.869 0 1 0-1.869-1.87 1.871 1.871 0 0 0 1.87 1.87ZM7.34 5.814c.077.034.153.067.224.102a6.059 6.059 0 0 1 .587.318c.126.08.239.158.351.242.059.042.116.09.174.141l.01.01a1.653 1.653 0 0 1 .96-.312h1.42a1.671 1.671 0 0 1 1.647 1.414h.473a1.665 1.665 0 0 1 .699.161H14a3.719 3.719 0 0 0-3.765-3.403 3.802 3.802 0 0 0-2.894 1.327ZM7.524 7.73h.471a1.642 1.642 0 0 1 .098-.349l-.033-.03c-.063-.051-.113-.099-.178-.147a4.47 4.47 0 0 0-.279-.193 4.55 4.55 0 0 0-.44-.24c-.098-.047-.192-.097-.294-.137a4.479 4.479 0 0 0-.573-.18c-.077-.019-.15-.046-.228-.062a4.432 4.432 0 0 0-.86-.089H4.54a4.433 4.433 0 0 0-.86.09c-.078.015-.15.042-.227.062a4.494 4.494 0 0 0-.573.179c-.102.04-.196.09-.294.138a4.589 4.589 0 0 0-.44.24c-.096.06-.188.125-.279.192-.065.048-.138.087-.201.14l.023.007A4.532 4.532 0 0 0 0 10.86v2.324a.683.683 0 0 0 .683.683h5.269v-.03a1.664 1.664 0 0 1-.098-.551L5.858 9.4a1.671 1.671 0 0 1 1.666-1.67Z"/><path d="M13.187 8.694h-1.42v-.707a.705.705 0 0 0-.701-.707h-1.42a.705.705 0 0 0-.706.702v.712H7.526a.702.702 0 0 0-.704.7V9.4l-.003 3.888a.705.705 0 0 0 .702.707h5.66a.705.705 0 0 0 .708-.702V9.401a.704.704 0 0 0-.702-.707Zm-2.126 0H9.647v-.707h1.414ZM4.884 5.694A2.524 2.524 0 1 0 2.36 3.169a2.524 2.524 0 0 0 2.524 2.525Z"/></svg>