<svg data-tags="not allowed,no control,cross,user" xmlns="http://www.w3.org/2000/svg" viewBox="0 0 14 14"><circle cx="5.673" cy="2.528" r="2.477"/><path d="M5.748 10.768a4.181 4.181 0 01.31-1.6 4.1 4.1 0 012.28-2.27 3.711 3.711 0 01.47-.16 4.378 4.378 0 00-2.82-1.03h-.63a4.475 4.475 0 00-4.47 4.47v2.28a.67.67 0 00.67.67h4.92c-.01-.01-.01-.02-.02-.03a4.125 4.125 0 01-.71-2.33z"/><path d="M12.868 9.548a3.177 3.177 0 00-4.15-1.73 3.315 3.315 0 00-1.04.69 3.151 3.151 0 00-.69 1.04 3.185 3.185 0 003.56 4.34 3.244 3.244 0 001.63-.87 3.19 3.19 0 00.69-3.47zm-1.71 1.74a.495.495 0 010 .71.52.52 0 01-.71 0l-.52-.53-.52.53a.52.52 0 01-.71 0 .513.513 0 010-.71l.52-.52-.52-.52a.513.513 0 010-.71.495.495 0 01.71 0l.52.52.52-.52a.502.502 0 11.71.71l-.52.52z"/></svg>