<svg data-tags="users,time,guest,group" xmlns="http://www.w3.org/2000/svg" viewBox="0 0 14 14"><path d="M10.195 3.957a1.978 1.978 0 1 0-1.978-1.979 1.98 1.98 0 0 0 1.978 1.979ZM7.5 7.944a.986.986 0 0 0-.166-.136 4.207 4.207 0 0 0-.26-.18 4.242 4.242 0 0 0-.409-.222c-.09-.044-.178-.091-.273-.129a4.176 4.176 0 0 0-.533-.166c-.07-.018-.138-.044-.21-.058a4.117 4.117 0 0 0-.8-.083h-.621a4.117 4.117 0 0 0-.8.083c-.072.014-.14.04-.21.058a4.19 4.19 0 0 0-.533.166c-.095.038-.183.085-.274.129a4.266 4.266 0 0 0-.409.222 4.27 4.27 0 0 0-.259.18.972.972 0 0 0-.166.136 4.212 4.212 0 0 0-1.57 3.261v2.16A.635.635 0 0 0 .644 14h7.791a.635.635 0 0 0 .635-.635v-2.16a4.212 4.212 0 0 0-1.57-3.26ZM4.547 6.306a2.346 2.346 0 1 0-2.346-2.347 2.348 2.348 0 0 0 2.346 2.347ZM13.339 6.456a1.637 1.637 0 0 1 .269.027 3.661 3.661 0 0 0-.924-1.144.827.827 0 0 0-.14-.116 3.517 3.517 0 0 0-.218-.15 3.567 3.567 0 0 0-.345-.188c-.077-.038-.15-.077-.23-.109a3.524 3.524 0 0 0-.45-.14c-.06-.015-.117-.037-.178-.049a3.47 3.47 0 0 0-.674-.07h-.523a3.469 3.469 0 0 0-.674.07c-.061.012-.118.034-.179.049a3.539 3.539 0 0 0-.449.14c-.08.032-.154.071-.23.109a3.577 3.577 0 0 0-.345.187 3.576 3.576 0 0 0-.218.151.818.818 0 0 0-.14.116 3.666 3.666 0 0 0-.858 1.041c.07.031.139.062.205.095a5.768 5.768 0 0 1 .57.307l.056.037.275.191a1.702 1.702 0 0 1 .231.19 5.444 5.444 0 0 1 .688.688l.211.281V8.11a1.655 1.655 0 0 1 1.653-1.654Z"/><path d="M13.992 9.15V8.11a.656.656 0 0 0-.654-.654h-2.615a.656.656 0 0 0-.654.654v1.036a.656.656 0 0 0 .193.464l1.115 1.115-1.118 1.119a.667.667 0 0 0-.19.464v1.033a.656.656 0 0 0 .654.654h2.615a.656.656 0 0 0 .654-.654v-1.033a.653.653 0 0 0-.19-.461l-1.118-1.122L13.8 9.614a.656.656 0 0 0 .193-.465Z"/></svg>