<svg data-tags="announce,user,microphone,mic,marketing,campaign" xmlns="http://www.w3.org/2000/svg" viewBox="0 0 14 14"><path d="M5.13 5.304A2.652 2.652 0 1 0 2.48 2.652a2.654 2.654 0 0 0 2.652 2.652ZM5.777 13.086a2.298 2.298 0 0 1-1.047-1.369 4.92 4.92 0 0 1-.122-.444A2.303 2.303 0 0 1 5.62 8.835l2.72-1.79L8.28 7a4.73 4.73 0 0 0-.293-.202 4.805 4.805 0 0 0-.462-.252c-.103-.05-.202-.103-.309-.145a4.708 4.708 0 0 0-.603-.188c-.08-.02-.156-.05-.238-.066a4.658 4.658 0 0 0-.903-.093H4.77a4.658 4.658 0 0 0-.903.093c-.083.016-.159.046-.24.066a4.738 4.738 0 0 0-.602.188c-.106.042-.206.095-.308.145a4.823 4.823 0 0 0-.463.252c-.1.063-.197.131-.292.202a1.096 1.096 0 0 0-.188.155A4.761 4.761 0 0 0 0 10.84v2.442A.717.717 0 0 0 .717 14h6.275a2.964 2.964 0 0 1-.43-.623 2.224 2.224 0 0 1-.785-.29Z" fill-rule="evenodd"/><path d="m13.897 12.405-.327-1.115-1.624-5.65a.37.37 0 0 0-.46-.259.376.376 0 0 0-.25.462l.124.422c-.74.48-1.47.961-2.21 1.442-.999.663-1.998 1.316-2.988 1.97a1.316 1.316 0 0 0-.576 1.383c.028.134.067.26.105.384a1.308 1.308 0 0 0 .606.788 1.293 1.293 0 0 0 .73.183h.25a1.969 1.969 0 0 0 3.862 0h.461v.01h.26v.009h1.258l.154.519a.37.37 0 0 0 .461.26.353.353 0 0 0 .26-.366.198.198 0 0 0 0-.106c-.029-.115-.067-.23-.096-.336Zm-4.69.874a1.237 1.237 0 0 1-1.171-.864h2.354a1.258 1.258 0 0 1-1.182.864Zm2.797-1.402-1.345-4.343c.22-.145.615-.5.865-.673l1.431 4.996c-.307 0-.682.02-.951.02Z" fill-rule="evenodd"/></svg>