<svg data-tags="user,person,key,access,star,important,sso service provider" xmlns="http://www.w3.org/2000/svg" viewBox="0 0 14 14"><path d="M7.687 9.283a2.359 2.359 0 1 0 2.22 3.145h1.71V14h1.573v-1.572h.786v-1.573H9.908a2.355 2.355 0 0 0-2.221-1.572Zm0 3.145a.786.786 0 1 1 .786-.786.788.788 0 0 1-.786.786ZM5.107 5.304a2.652 2.652 0 1 0-2.652-2.652 2.654 2.654 0 0 0 2.652 2.652Z"/><path d="M7.687 8.283a3.352 3.352 0 0 1 .422.027 1.136 1.136 0 0 1 0-.124l.194-1.15L8.256 7a4.756 4.756 0 0 0-.293-.202 4.798 4.798 0 0 0-.462-.252c-.103-.05-.202-.103-.309-.145a4.71 4.71 0 0 0-.602-.188c-.08-.02-.157-.05-.239-.066a4.653 4.653 0 0 0-.903-.093h-.702a4.653 4.653 0 0 0-.903.093c-.082.016-.159.046-.24.066a4.729 4.729 0 0 0-.601.188c-.107.042-.207.095-.31.145a4.814 4.814 0 0 0-.462.252c-.1.063-.196.131-.292.202a1.093 1.093 0 0 0-.188.155A4.76 4.76 0 0 0-.024 10.84v2.442A.718.718 0 0 0 .694 14H5.3a3.355 3.355 0 0 1 2.386-5.717ZM9.37 6.444l-.315 1.862a.202.202 0 0 0 .074.185.184.184 0 0 0 .194.01l1.668-.88 1.667.88a.153.153 0 0 0 .093.018.178.178 0 0 0 .111-.037.201.201 0 0 0 .074-.185l-.315-1.862 1.353-1.316a.163.163 0 0 0 .037-.185.192.192 0 0 0-.158-.13l-1.862-.269-.834-1.686a.185.185 0 0 0-.166-.101.175.175 0 0 0-.167.101L9.99 4.535l-1.862.27a.205.205 0 0 0-.157.129.21.21 0 0 0 .046.194Z"/></svg>