<svg data-tags="Brackets,Code,formula" xmlns="http://www.w3.org/2000/svg" viewBox="0 0 14 14"><path d="M9.7 0a2.2 2.2 0 011.47.5 2.18 2.18 0 01.52.75 2.13 2.13 0 01.15.89v3a.62.62 0 00.06.38.65.65 0 00.28.28 3.15 3.15 0 001.11.39.85.85 0 01.5.28.8.8 0 010 1.06.85.85 0 01-.5.28 3.15 3.15 0 00-1.11.39.65.65 0 00-.28.28.62.62 0 00-.06.38v3a2.13 2.13 0 01-.15.89 2.18 2.18 0 01-.52.75 2.2 2.2 0 01-1.47.5.88.88 0 01-.62-.24.82.82 0 01-.18-.27.8.8 0 010-.63.82.82 0 01.18-.27.88.88 0 01.62-.24.5.5 0 00.32-.08c.04-.03.1-.09.1-.4v-3a2.38 2.38 0 01.26-1.04 2.45 2.45 0 01.67-.83 2.45 2.45 0 01-.67-.83 2.38 2.38 0 01-.25-1.04v-3c0-.31-.07-.37-.1-.4a.5.5 0 00-.33-.08.88.88 0 01-.62-.22.82.82 0 01-.2-.25.8.8 0 01-.03-.63.81.81 0 01.17-.28.85.85 0 01.27-.2.88.88 0 01.33-.07.64.64 0 01.08 0zM4.33 0a.89.89 0 01.61.24.82.82 0 01.2.27.8.8 0 010 .63.82.82 0 01-.2.27.89.89 0 01-.61.24.5.5 0 00-.33.08c-.04.03-.1.09-.1.4v3a2.38 2.38 0 01-.26 1.04 2.45 2.45 0 01-.68.83 2.45 2.45 0 01.68.83 2.38 2.38 0 01.25 1.04v3c0 .31.07.37.11.4a.5.5 0 00.33.08.89.89 0 01.61.24.82.82 0 01.2.27.8.8 0 010 .63.82.82 0 01-.2.27.89.89 0 01-.61.24 2.22 2.22 0 01-1.49-.5 2.18 2.18 0 01-.51-.75 2.13 2.13 0 01-.16-.89v-3a.62.62 0 00-.06-.38.65.65 0 00-.28-.28A3.18 3.18 0 00.71 7.8a.85.85 0 01-.5-.28.8.8 0 010-1.06.85.85 0 01.5-.28 3.18 3.18 0 001.12-.39.65.65 0 00.28-.28.62.62 0 00.06-.39v-3a2.13 2.13 0 01.16-.88A2.18 2.18 0 012.84.5 2.22 2.22 0 014.33 0z"/></svg>
