<svg data-tags="attach,video asset,media" xmlns="http://www.w3.org/2000/svg" viewBox="0 0 14 14"><path d="m7.33 8.89 3.31-2.44a2.71 2.71 0 0 1 1.34-.51V1.37A1.37 1.37 0 0 0 10.61.01H1.37A1.37 1.37 0 0 0 0 1.37v10.04a1.37 1.37 0 0 0 1.37 1.37h4.72a3.4 3.4 0 0 1 1.24-3.9Zm-3.12-.24a.4.4 0 0 1-.07-.23V4.37a.4.4 0 0 1 .63-.33l2.9 2.03a.4.4 0 0 1 0 .65l-2.9 2.03a.4.4 0 0 1-.56-.1Z"/><path d="M13.51 10.42a.44.44 0 0 0-.26.09l-3.1 2.28a1.5 1.5 0 0 1-.91.31 1.52 1.52 0 0 1-1.1-.47 1.2 1.2 0 0 1-.1-.11 1.47 1.47 0 0 1 .32-2.06L11.7 8a.9.9 0 0 1 .55-.19.93.93 0 0 1 .7.35.87.87 0 0 1-.18 1.2l-3.07 2.27a.27.27 0 0 1-.16.05.26.26 0 0 1-.15-.47l2.83-2.1a.44.44 0 0 0 .09-.6.44.44 0 0 0-.36-.18.44.44 0 0 0-.25.08l-2.79 2.05A1.18 1.18 0 0 0 8.57 12a1.12 1.12 0 0 0 .06.1 1.19 1.19 0 0 0 .26.25 1.14 1.14 0 0 0 .9.18 1.13 1.13 0 0 0 .44-.2l3.02-2.21a1.79 1.79 0 0 0 .52-2.34 1.58 1.58 0 0 0-.1-.15 1.75 1.75 0 0 0-1.4-.7 1.73 1.73 0 0 0-1.04.33L7.91 9.7a2.4 2.4 0 0 0-.7 3.15l.13.19a2.4 2.4 0 0 0 .53.52 2.36 2.36 0 0 0 1.36.43 2.33 2.33 0 0 0 .5-.05 2.3 2.3 0 0 0 .9-.4l3.15-2.33a.44.44 0 0 0-.27-.79Z"/></svg>
