<svg data-tags="case,eye,view,ticket" xmlns="http://www.w3.org/2000/svg" viewBox="0 0 14 14"><path d="M10.376 9.154a3.899 3.899 0 0 0-3.633 2.426 3.93 3.93 0 0 0 7.257 0 3.888 3.888 0 0 0-3.624-2.426Zm1.506 2.426a1.51 1.51 0 1 1 0-.008Z"/><path d="M10.377 10.668h-.001a.908.908 0 1 0 .904.912.907.907 0 0 0-.903-.912ZM10.351 8.154a5.063 5.063 0 0 1 1.226.16V1.68A1.755 1.755 0 0 0 9.81 0H1.678A1.677 1.677 0 0 0 0 1.678v8.22a1.677 1.677 0 0 0 1.676 1.68h3.988l.153-.375a4.88 4.88 0 0 1 4.534-3.049Zm-4.47.337a3.192 3.192 0 0 1-2.138-.823 3.265 3.265 0 0 1-.829-2.064 2.617 2.617 0 0 1 .827-2.067 2.985 2.985 0 0 1 4.202-.08.574.574 0 0 1 .006.754.568.568 0 0 1-.758.009 1.83 1.83 0 0 0-2.589.048 1.572 1.572 0 0 0-.563 1.248 1.689 1.689 0 0 0 .536 1.309 1.873 1.873 0 0 0 2.459.077.594.594 0 0 1 .373-.134.583.583 0 0 1 .454.215.507.507 0 0 1 .143.363.498.498 0 0 1-.156.35l-.084.063a2.737 2.737 0 0 1-1.867.732Z"/></svg>