<svg data-deprecated="line/Voicemail.svg" data-tags="sprinklr,Ai" xmlns="http://www.w3.org/2000/svg"
     viewBox="0 0 14 14"><defs><linearGradient
        id="solid_voicemailAi_clr__a" x1="7.857" y1="-188.13" x2="5.125" y2="-195.241" gradientTransform="matrix(1 0 0 -1 0 -183.36)" gradientUnits="userSpaceOnUse"><stop offset="0" stop-color="#de46e1"/><stop offset=".487" stop-color="#8e43ff"/><stop offset="1" stop-color="#0e61f6"/></linearGradient></defs><path d="M11.094 4.089A2.916 2.916 0 0 0 8.182 7a2.881 2.881 0 0 0 .433 1.509H5.391A2.881 2.881 0 0 0 5.825 7a2.912 2.912 0 1 0-2.913 2.912c.062 0 .12-.014.183-.018a.653.653 0 0 0 .09.018h7.909a2.912 2.912 0 0 0 0-5.823ZM1.404 7a1.51 1.51 0 1 1 .442 1.067A1.509 1.509 0 0 1 1.404 7Zm9.69 1.509a1.51 1.51 0 1 1 1.066-.442 1.508 1.508 0 0 1-1.066.442Z" fill="url(#solid_voicemailAi_clr__a)"/></svg>
