<svg data-tags="browser,search,web,screen" xmlns="http://www.w3.org/2000/svg" viewBox="0 0 14 14"><path d="M13.3.305H.7a.709.709 0 0 0-.7.7v11.99a.702.702 0 0 0 .7.7h10.92l-1.4-1.4H1.41v-7.88h11.18v5.39l1.41 1.41V1.005a.709.709 0 0 0-.7-.7Z" fill-rule="evenodd"/><path d="M11.163 9.752a2.933 2.933 0 1 0-2.531 1.459 2.913 2.913 0 0 0 1.468-.397l2.397 2.397a.516.516 0 0 0 .502.145 1.073 1.073 0 0 0 .705-.706.51.51 0 0 0-.145-.502ZM9 10.119A1.87 1.87 0 0 1 6.796 8.64a1.857 1.857 0 0 1 1.468-2.193A1.872 1.872 0 1 1 9 10.12Z" fill-rule="evenodd"/></svg>