<svg data-tags="ear,sound,wave,hear,audio,quite,suggest" xmlns="http://www.w3.org/2000/svg" viewBox="0 0 14 14"><path d="M12.74 2.25l-.12-.12v.02A4.3 4.3 0 009.36.99 4.35 4.35 0 005.7 3.5l-.15.3.12.16a7.24 7.24 0 011.21 2.6 7.2 7.2 0 01-.24 4.23l-.12.28.22.43.05.1A2.7 2.7 0 008.97 13l.23.01a2.62 2.62 0 001.83-.77 2.85 2.85 0 00.83-2.02v-.68a.73.73 0 01.2-.52l.66-.65a4.33 4.33 0 00.02-6.13zm-.54 3.39a2.4 2.4 0 01-.15.41l-.64 1.4a1.31 1.31 0 01-1.73.65.3.3 0 00-.4.14l-.07.15a.3.3 0 00.14.4.5.5 0 01.25.68.53.53 0 01-.72.23 1.31 1.31 0 01-.6-1.72l.08-.16a1.31 1.31 0 011.73-.65.3.3 0 00.4-.14l.62-1.36a1.45 1.45 0 00.04-1.16 1.4 1.4 0 00-2.51-.13 1.43 1.43 0 00-.13.3.51.51 0 01-.48.4.5.5 0 01-.5-.63 2.4 2.4 0 014.67 1.19zM.87 6.42a.59.59 0 00-.66.96 1.01 1.01 0 01.23 1.41.59.59 0 10.96.67 2.17 2.17 0 00.37-1.64 2.17 2.17 0 00-.9-1.4z"/><path d="M3.9 7.53a4.02 4.02 0 00-1.66-2.6.59.59 0 00-.67.95 2.85 2.85 0 011.17 1.86 2.85 2.85 0 01-.49 2.14.59.59 0 10.96.67 4.02 4.02 0 00.68-3.02z"/><path d="M3.62 3.4a.59.59 0 00-.67.96A4.76 4.76 0 014.08 11a.59.59 0 10.96.67 5.88 5.88 0 001-4.43 5.88 5.88 0 00-2.42-3.82z"/></svg>