<svg data-tags="widget,shape,app,squares,boxes" xmlns="http://www.w3.org/2000/svg" viewBox="0 0 14 14"><path d="M7.406 8.812v4.444a.743.743 0 0 0 .741.74h4.444a.743.743 0 0 0 .74-.74V8.812a.743.743 0 0 0-.74-.74H8.147a.743.743 0 0 0-.74.74ZM.741 13.996h4.444a.743.743 0 0 0 .74-.74V8.812a.743.743 0 0 0-.74-.74H.74a.743.743 0 0 0-.741.74v4.444a.743.743 0 0 0 .74.74ZM0 1.406v4.443a.743.743 0 0 0 .74.74h4.444a.743.743 0 0 0 .741-.74V1.405a.743.743 0 0 0-.74-.74H.74a.743.743 0 0 0-.741.74ZM9.591.22 6.444 3.36a.738.738 0 0 0 0 1.045L9.59 7.553a.738.738 0 0 0 1.045 0l3.147-3.148a.738.738 0 0 0 0-1.044L10.643.22a.747.747 0 0 0-1.052 0Z"/></svg>