<svg data-tags="asset,excel" xmlns="http://www.w3.org/2000/svg" viewBox="0 0 14 14"><path d="M12.064 0H1.938a1.5 1.5 0 00-1.5 1.5v11a1.5 1.5 0 001.5 1.5h10.126a1.5 1.5 0 001.5-1.5v-11a1.5 1.5 0 00-1.5-1.5zM5.557 8.38a.256.256 0 01-.099.095.295.295 0 01-.144.036.28.28 0 01-.145-.036.303.303 0 01-.097-.09l-.137-.206-.529-.833-.562.857-.093.144a.554.554 0 01-.067.08.303.303 0 01-.092.061.328.328 0 01-.125.023.256.256 0 01-.184-.069.254.254 0 01-.073-.196.7.7 0 01.15-.371l.672-.983-.565-.874a1.68 1.68 0 01-.12-.217.447.447 0 01-.04-.176.2.2 0 01.077-.154.27.27 0 01.187-.07.261.261 0 01.199.076 1.904 1.904 0 01.195.277l.451.73.483-.73L5 5.597a.862.862 0 01.08-.11.276.276 0 01.088-.064.283.283 0 01.111-.022.26.26 0 01.188.07.214.214 0 01.073.162.755.755 0 01-.158.374l-.593.885.638.983a1.678 1.678 0 01.126.214.395.395 0 01.038.16.259.259 0 01-.034.132zm2.51.01a.334.334 0 01-.228.069h-1.47a.32.32 0 01-.374-.373V5.77a.405.405 0 01.083-.276.282.282 0 01.219-.093.288.288 0 01.223.092.395.395 0 01.085.277v2.19h1.234a.325.325 0 01.226.071.234.234 0 01.08.18.226.226 0 01-.079.18zm2.462-.343a.932.932 0 01-.412.34 1.535 1.535 0 01-.641.124 1.454 1.454 0 01-.735-.168.985.985 0 01-.333-.324.737.737 0 01-.128-.392.265.265 0 01.273-.269.23.23 0 01.163.062.489.489 0 01.114.181 1.192 1.192 0 00.124.24.497.497 0 00.188.16.687.687 0 00.317.062.72.72 0 00.44-.126.381.381 0 00.17-.315.33.33 0 00-.091-.242.583.583 0 00-.237-.143 3.778 3.778 0 00-.386-.104 2.866 2.866 0 01-.542-.178.87.87 0 01-.347-.277.713.713 0 01-.128-.436.749.749 0 01.135-.44.856.856 0 01.391-.297 1.62 1.62 0 01.604-.104 1.486 1.486 0 01.478.07 1.005 1.005 0 01.335.181.773.773 0 01.196.24.55.55 0 01.061.244.285.285 0 01-.077.195.244.244 0 01-.191.088.219.219 0 01-.16-.053.731.731 0 01-.118-.17.782.782 0 00-.196-.266.578.578 0 00-.37-.096.646.646 0 00-.38.103.303.303 0 00-.145.25.251.251 0 00.05.156.412.412 0 00.135.113.898.898 0 00.175.073c.058.018.155.044.29.078a4.662 4.662 0 01.46.131 1.382 1.382 0 01.351.175.71.71 0 01.226.259.827.827 0 01.081.385.89.89 0 01-.14.49z"/></svg>