<svg data-tags="asset" xmlns="http://www.w3.org/2000/svg" viewBox="0 0 14 14"><path d="M3.818 4.751l.001-.001a.546.546 0 00.545-.545h-1.09a.545.545 0 00.544.546z"/><path d="M12.063 0H1.937a1.5 1.5 0 00-1.5 1.5v11a1.5 1.5 0 001.5 1.5h.842a.409.409 0 01-.047-.16v-.137a.292.292 0 01.292-.293h.471a.293.293 0 01.293.293v.137h.001a.38.38 0 01-.056.16h8.33a1.5 1.5 0 001.5-1.5v-11a1.5 1.5 0 00-1.5-1.5zM2.731 5.735V3.827A.328.328 0 013.06 3.5h1.52a.328.328 0 01.326.327v1.906a.905.905 0 01-.904.905h-.365a.904.904 0 01-.905-.903zM3.79 12.44a.293.293 0 01-.293.293h-.47a.293.293 0 01-.293-.293v-.137a.292.292 0 01.292-.293h.471a.293.293 0 01.293.293zm0-1.4a.293.293 0 01-.293.293h-.47a.293.293 0 01-.293-.293v-.137a.292.292 0 01.292-.293h.471a.293.293 0 01.293.293zm0-1.4a.293.293 0 01-.293.293h-.47a.293.293 0 01-.293-.293v-.137a.293.293 0 01.292-.293h.471a.293.293 0 01.293.293zm0-1.4a.293.293 0 01-.293.293h-.47a.293.293 0 01-.293-.292v-.138a.292.292 0 01.292-.292h.471a.292.292 0 01.293.292zm1.127 4.877a.293.293 0 01-.293.293h-.47a.293.293 0 01-.294-.293v-.137a.293.293 0 01.293-.293h.471a.293.293 0 01.293.293zm0-1.4a.293.293 0 01-.293.293h-.47a.293.293 0 01-.294-.293v-.137a.293.293 0 01.293-.293h.471a.293.293 0 01.293.293zm0-1.4a.293.293 0 01-.293.293h-.47a.293.293 0 01-.294-.292v-.138a.293.293 0 01.293-.292h.471a.292.292 0 01.293.292zm0-1.4a.293.293 0 01-.293.293h-.47a.293.293 0 01-.294-.292V8.78a.293.293 0 01.293-.293h.471a.292.292 0 01.293.293zm0-1.399a.293.293 0 01-.293.293h-.47a.293.293 0 01-.294-.293v-.137a.293.293 0 01.293-.293h.471a.293.293 0 01.293.293z"/></svg>